G04 Layer_Physical_Order=1*
G04 Layer_Color=255*
%FSLAX44Y44*%
%MOMM*%
G71*
G01*
G75*
%ADD10O,2.3000X0.6000*%
%ADD11R,1.3000X1.0000*%
%ADD12C,0.5000*%
%ADD13C,0.2000*%
%ADD14C,0.2540*%
%ADD15R,1.5000X1.5000*%
%ADD16C,1.5000*%
%ADD17O,2.5000X1.5000*%
%ADD18R,2.5000X1.5000*%
%ADD19C,0.6000*%
G36*
X166061Y-177764D02*
X166232Y-177780D01*
X167329Y-177817D01*
X171110Y-177840D01*
Y-182840D01*
X165988Y-182934D01*
Y-177746D01*
X166061Y-177764D01*
D02*
G37*
G36*
X53894Y-181753D02*
X53876Y-181675D01*
X53821Y-181604D01*
X53730Y-181542D01*
X53602Y-181489D01*
X53438Y-181443D01*
X53238Y-181406D01*
X53000Y-181377D01*
X52417Y-181344D01*
X52070Y-181340D01*
Y-179340D01*
X52417Y-179336D01*
X53238Y-179274D01*
X53438Y-179237D01*
X53602Y-179191D01*
X53730Y-179137D01*
X53821Y-179076D01*
X53876Y-179005D01*
X53894Y-178927D01*
Y-181753D01*
D02*
G37*
G36*
X26629Y-171400D02*
X26559Y-171568D01*
X26534Y-171753D01*
X26554Y-171956D01*
X26621Y-172176D01*
X26732Y-172414D01*
X26890Y-172669D01*
X27092Y-172942D01*
X27341Y-173233D01*
X27635Y-173541D01*
X26229Y-174963D01*
X25922Y-174670D01*
X25632Y-174422D01*
X25360Y-174221D01*
X25106Y-174065D01*
X24870Y-173955D01*
X24651Y-173890D01*
X24451Y-173872D01*
X24267Y-173899D01*
X24102Y-173971D01*
X23954Y-174090D01*
X26746Y-171250D01*
X26629Y-171400D01*
D02*
G37*
G36*
X27432Y-191237D02*
X27499Y-191406D01*
X27611Y-191554D01*
X27768Y-191683D01*
X27969Y-191792D01*
X28215Y-191881D01*
X28506Y-191951D01*
X28842Y-192000D01*
X29222Y-192030D01*
X29647Y-192040D01*
Y-194040D01*
X29222Y-194050D01*
X28842Y-194080D01*
X28506Y-194129D01*
X28215Y-194199D01*
X27969Y-194288D01*
X27768Y-194397D01*
X27611Y-194526D01*
X27499Y-194674D01*
X27432Y-194843D01*
X27410Y-195031D01*
Y-191049D01*
X27432Y-191237D01*
D02*
G37*
G36*
X54306Y-195021D02*
X54280Y-194835D01*
X54201Y-194668D01*
X54070Y-194521D01*
X53887Y-194393D01*
X53652Y-194285D01*
X53364Y-194197D01*
X53024Y-194128D01*
X52632Y-194079D01*
X52187Y-194050D01*
X51690Y-194040D01*
Y-192040D01*
X52187Y-192030D01*
X53024Y-191952D01*
X53364Y-191883D01*
X53652Y-191795D01*
X53887Y-191687D01*
X54070Y-191559D01*
X54201Y-191412D01*
X54280Y-191245D01*
X54306Y-191059D01*
Y-195021D01*
D02*
G37*
G36*
X206935Y-187840D02*
X205858Y-187848D01*
X203925Y-187979D01*
X203070Y-188102D01*
X202290Y-188263D01*
X201583Y-188463D01*
X200951Y-188702D01*
X200393Y-188978D01*
X199909Y-189293D01*
X199499Y-189647D01*
X197703Y-187851D01*
X198057Y-187441D01*
X198372Y-186957D01*
X198648Y-186399D01*
X198887Y-185767D01*
X199086Y-185060D01*
X199248Y-184280D01*
X199371Y-183425D01*
X199502Y-181493D01*
X199510Y-180415D01*
X206935Y-187840D01*
D02*
G37*
G36*
X54306Y-156921D02*
X54280Y-156735D01*
X54201Y-156568D01*
X54070Y-156421D01*
X53887Y-156293D01*
X53652Y-156185D01*
X53364Y-156097D01*
X53024Y-156028D01*
X52632Y-155979D01*
X52187Y-155950D01*
X51690Y-155940D01*
Y-153940D01*
X52187Y-153930D01*
X53024Y-153852D01*
X53364Y-153783D01*
X53652Y-153695D01*
X53887Y-153587D01*
X54070Y-153459D01*
X54201Y-153312D01*
X54280Y-153145D01*
X54306Y-152959D01*
Y-156921D01*
D02*
G37*
G36*
X43647Y-151463D02*
X43674Y-151754D01*
X43722Y-152035D01*
X43789Y-152305D01*
X43877Y-152564D01*
X43985Y-152812D01*
X44114Y-153049D01*
X44262Y-153276D01*
X44431Y-153491D01*
X44620Y-153696D01*
X43206Y-155110D01*
X43001Y-154921D01*
X42786Y-154752D01*
X42559Y-154604D01*
X42322Y-154475D01*
X42074Y-154367D01*
X41815Y-154279D01*
X41545Y-154212D01*
X41264Y-154164D01*
X40973Y-154137D01*
X40670Y-154130D01*
X43640Y-151160D01*
X43647Y-151463D01*
D02*
G37*
G36*
X23285Y-148986D02*
X23126Y-149068D01*
X23024Y-149180D01*
X22979Y-149321D01*
X22992Y-149491D01*
X23062Y-149690D01*
X23190Y-149917D01*
X23375Y-150174D01*
X23617Y-150459D01*
X23918Y-150773D01*
X21476Y-151160D01*
X21153Y-150851D01*
X20533Y-150342D01*
X20237Y-150143D01*
X19950Y-149980D01*
X19672Y-149854D01*
X19402Y-149764D01*
X19142Y-149711D01*
X18890Y-149695D01*
X18647Y-149715D01*
X23502Y-148931D01*
X23285Y-148986D01*
D02*
G37*
G36*
X166076Y-165361D02*
X166186Y-165573D01*
X166370Y-165760D01*
X166628Y-165921D01*
X166959Y-166059D01*
X167364Y-166171D01*
X167842Y-166258D01*
X168394Y-166320D01*
X169019Y-166358D01*
X169718Y-166370D01*
Y-168910D01*
X169019Y-168922D01*
X167842Y-169022D01*
X167364Y-169109D01*
X166959Y-169221D01*
X166628Y-169359D01*
X166370Y-169520D01*
X166186Y-169707D01*
X166076Y-169919D01*
X166039Y-170156D01*
Y-165124D01*
X166076Y-165361D01*
D02*
G37*
G36*
X54306Y-169621D02*
X54280Y-169435D01*
X54201Y-169268D01*
X54070Y-169121D01*
X53887Y-168993D01*
X53652Y-168885D01*
X53364Y-168797D01*
X53024Y-168728D01*
X52632Y-168679D01*
X52187Y-168650D01*
X51690Y-168640D01*
Y-166640D01*
X52187Y-166630D01*
X53024Y-166552D01*
X53364Y-166483D01*
X53652Y-166395D01*
X53887Y-166287D01*
X54070Y-166159D01*
X54201Y-166012D01*
X54280Y-165845D01*
X54306Y-165659D01*
Y-169621D01*
D02*
G37*
G36*
X207833Y-162395D02*
X206703Y-162535D01*
X203813Y-163079D01*
X203016Y-163303D01*
X202303Y-163547D01*
X201673Y-163812D01*
X201127Y-164098D01*
X200664Y-164404D01*
X200284Y-164732D01*
X198268Y-163156D01*
X198640Y-162725D01*
X198958Y-162229D01*
X199222Y-161667D01*
X199433Y-161041D01*
X199590Y-160349D01*
X199694Y-159592D01*
X199744Y-158770D01*
X199741Y-157883D01*
X199684Y-156930D01*
X199573Y-155912D01*
X207833Y-162395D01*
D02*
G37*
G36*
X166076Y-228861D02*
X166186Y-229073D01*
X166370Y-229259D01*
X166628Y-229422D01*
X166959Y-229559D01*
X167364Y-229671D01*
X167842Y-229758D01*
X168394Y-229820D01*
X169019Y-229858D01*
X169718Y-229870D01*
Y-232410D01*
X169019Y-232422D01*
X167842Y-232522D01*
X167364Y-232609D01*
X166959Y-232722D01*
X166628Y-232859D01*
X166370Y-233020D01*
X166186Y-233207D01*
X166076Y-233419D01*
X166039Y-233656D01*
Y-228624D01*
X166076Y-228861D01*
D02*
G37*
G36*
X75700Y-229345D02*
X75779Y-229512D01*
X75910Y-229659D01*
X76093Y-229787D01*
X76328Y-229895D01*
X76616Y-229983D01*
X76956Y-230052D01*
X77348Y-230101D01*
X77793Y-230130D01*
X78290Y-230140D01*
Y-232140D01*
X77793Y-232150D01*
X76956Y-232228D01*
X76616Y-232297D01*
X76328Y-232385D01*
X76093Y-232493D01*
X75910Y-232621D01*
X75779Y-232768D01*
X75700Y-232935D01*
X75674Y-233121D01*
Y-229159D01*
X75700Y-229345D01*
D02*
G37*
G36*
X166076Y-216161D02*
X166186Y-216373D01*
X166370Y-216560D01*
X166628Y-216721D01*
X166959Y-216859D01*
X167364Y-216971D01*
X167842Y-217058D01*
X168394Y-217120D01*
X169019Y-217158D01*
X169718Y-217170D01*
Y-219710D01*
X169019Y-219722D01*
X167842Y-219822D01*
X167364Y-219909D01*
X166959Y-220021D01*
X166628Y-220159D01*
X166370Y-220320D01*
X166186Y-220507D01*
X166076Y-220719D01*
X166039Y-220956D01*
Y-215924D01*
X166076Y-216161D01*
D02*
G37*
G36*
X75700Y-242045D02*
X75779Y-242212D01*
X75910Y-242359D01*
X76093Y-242487D01*
X76328Y-242595D01*
X76616Y-242683D01*
X76956Y-242752D01*
X77348Y-242801D01*
X77793Y-242830D01*
X78290Y-242840D01*
Y-244840D01*
X77793Y-244850D01*
X76956Y-244928D01*
X76616Y-244997D01*
X76328Y-245085D01*
X76093Y-245193D01*
X75910Y-245321D01*
X75779Y-245468D01*
X75700Y-245635D01*
X75674Y-245821D01*
Y-241859D01*
X75700Y-242045D01*
D02*
G37*
G36*
X142061Y-241949D02*
X142287Y-242136D01*
X142519Y-242301D01*
X142758Y-242444D01*
X143003Y-242565D01*
X143255Y-242664D01*
X143513Y-242741D01*
X143708Y-242781D01*
X144024Y-242752D01*
X144364Y-242683D01*
X144652Y-242595D01*
X144887Y-242487D01*
X145070Y-242359D01*
X145201Y-242212D01*
X145280Y-242045D01*
X145306Y-241859D01*
Y-245821D01*
X145280Y-245635D01*
X145201Y-245468D01*
X145070Y-245321D01*
X144887Y-245193D01*
X144652Y-245085D01*
X144364Y-244997D01*
X144024Y-244928D01*
X143737Y-244893D01*
X143513Y-244939D01*
X143255Y-245016D01*
X143003Y-245115D01*
X142758Y-245236D01*
X142519Y-245379D01*
X142287Y-245544D01*
X142061Y-245731D01*
X141842Y-245940D01*
Y-241740D01*
X142061Y-241949D01*
D02*
G37*
G36*
X201654Y-236390D02*
X200886Y-235634D01*
X199427Y-234360D01*
X198736Y-233843D01*
X198069Y-233405D01*
X197428Y-233047D01*
X196813Y-232768D01*
X196223Y-232569D01*
X195658Y-232450D01*
X195118Y-232410D01*
Y-229870D01*
X195658Y-229830D01*
X196223Y-229711D01*
X196813Y-229512D01*
X197428Y-229233D01*
X198069Y-228875D01*
X198736Y-228437D01*
X199427Y-227920D01*
X200886Y-226646D01*
X201654Y-225890D01*
Y-236390D01*
D02*
G37*
G36*
X166076Y-203461D02*
X166186Y-203673D01*
X166370Y-203860D01*
X166628Y-204021D01*
X166959Y-204158D01*
X167364Y-204271D01*
X167842Y-204358D01*
X168394Y-204420D01*
X169019Y-204458D01*
X169718Y-204470D01*
Y-207010D01*
X169019Y-207022D01*
X167842Y-207122D01*
X167364Y-207209D01*
X166959Y-207321D01*
X166628Y-207458D01*
X166370Y-207621D01*
X166186Y-207807D01*
X166076Y-208019D01*
X166039Y-208256D01*
Y-203224D01*
X166076Y-203461D01*
D02*
G37*
G36*
X105410Y-94668D02*
Y-158750D01*
Y-182880D01*
X113030Y-190500D01*
Y-196850D01*
Y-200660D01*
X111760Y-201930D01*
X102870D01*
X100330Y-199390D01*
X91440Y-190500D01*
Y-149860D01*
Y-137160D01*
X92710Y-135890D01*
Y-91530D01*
X92728Y-91440D01*
X92710Y-91350D01*
Y-87630D01*
D01*
Y-85090D01*
X91440Y-83820D01*
Y-82550D01*
X93292D01*
X105410Y-94668D01*
D02*
G37*
G36*
X166076Y-190761D02*
X166186Y-190973D01*
X166370Y-191159D01*
X166628Y-191322D01*
X166959Y-191458D01*
X167364Y-191571D01*
X167842Y-191658D01*
X168394Y-191720D01*
X169019Y-191758D01*
X169718Y-191770D01*
Y-194310D01*
X169019Y-194322D01*
X167842Y-194422D01*
X167364Y-194509D01*
X166959Y-194622D01*
X166628Y-194758D01*
X166370Y-194921D01*
X166186Y-195107D01*
X166076Y-195319D01*
X166039Y-195556D01*
Y-190524D01*
X166076Y-190761D01*
D02*
G37*
G36*
X75700Y-216645D02*
X75779Y-216812D01*
X75910Y-216959D01*
X76093Y-217087D01*
X76328Y-217195D01*
X76616Y-217283D01*
X76956Y-217352D01*
X77348Y-217401D01*
X77793Y-217430D01*
X78290Y-217440D01*
Y-219440D01*
X77793Y-219450D01*
X76956Y-219528D01*
X76616Y-219597D01*
X76328Y-219685D01*
X76093Y-219793D01*
X75910Y-219921D01*
X75779Y-220068D01*
X75700Y-220235D01*
X75674Y-220421D01*
Y-216459D01*
X75700Y-216645D01*
D02*
G37*
G36*
X206935Y-213240D02*
X205858Y-213248D01*
X203925Y-213379D01*
X203070Y-213502D01*
X202290Y-213664D01*
X201583Y-213863D01*
X200951Y-214102D01*
X200393Y-214378D01*
X199909Y-214693D01*
X199499Y-215047D01*
X197703Y-213251D01*
X198057Y-212841D01*
X198372Y-212357D01*
X198648Y-211799D01*
X198887Y-211167D01*
X199086Y-210460D01*
X199248Y-209680D01*
X199371Y-208825D01*
X199502Y-206893D01*
X199510Y-205815D01*
X206935Y-213240D01*
D02*
G37*
G36*
X76014Y-207140D02*
X75945Y-207241D01*
X75918Y-207364D01*
X75934Y-207510D01*
X75991Y-207677D01*
X76090Y-207866D01*
X76231Y-208077D01*
X76415Y-208311D01*
X76640Y-208566D01*
X76907Y-208843D01*
X75329Y-210093D01*
X74995Y-209769D01*
X74391Y-209244D01*
X74121Y-209043D01*
X73873Y-208884D01*
X73646Y-208765D01*
X73441Y-208688D01*
X73258Y-208652D01*
X73096Y-208658D01*
X72955Y-208705D01*
X76124Y-207061D01*
X76014Y-207140D01*
D02*
G37*
G36*
X125471Y-64230D02*
X125504Y-64502D01*
X125559Y-64767D01*
X125631Y-65009D01*
X126460D01*
X126270Y-65029D01*
X126100Y-65090D01*
X125950Y-65192D01*
X125820Y-65334D01*
X125789Y-65386D01*
X125856Y-65522D01*
X125999Y-65761D01*
X126164Y-65993D01*
X126351Y-66219D01*
X126560Y-66438D01*
X125489D01*
X125470Y-66654D01*
X125460Y-67039D01*
X123460D01*
X123450Y-66654D01*
X123431Y-66438D01*
X122360D01*
X122569Y-66219D01*
X122756Y-65993D01*
X122921Y-65761D01*
X123064Y-65522D01*
X123131Y-65386D01*
X123100Y-65334D01*
X122970Y-65192D01*
X122820Y-65090D01*
X122650Y-65029D01*
X122460Y-65009D01*
X123289D01*
X123361Y-64767D01*
X123416Y-64502D01*
X123449Y-64230D01*
X123460Y-63952D01*
X125460D01*
X125471Y-64230D01*
D02*
G37*
G36*
X151558Y-61658D02*
X151779Y-62217D01*
X151903Y-62479D01*
X152181Y-62967D01*
X152333Y-63194D01*
X152495Y-63409D01*
X152667Y-63612D01*
X152848Y-63804D01*
X151911Y-65695D01*
X151698Y-65500D01*
X151480Y-65335D01*
X151255Y-65199D01*
X151024Y-65094D01*
X150788Y-65018D01*
X150546Y-64971D01*
X150297Y-64955D01*
X150043Y-64968D01*
X149783Y-65011D01*
X149517Y-65083D01*
X151461Y-61361D01*
X151558Y-61658D01*
D02*
G37*
G36*
X206935Y-60840D02*
X205787Y-60845D01*
X203747Y-60963D01*
X202854Y-61074D01*
X202046Y-61221D01*
X201322Y-61403D01*
X200684Y-61621D01*
X200131Y-61874D01*
X199663Y-62162D01*
X199279Y-62485D01*
X197865Y-61071D01*
X198188Y-60687D01*
X198476Y-60219D01*
X198729Y-59666D01*
X198947Y-59028D01*
X199129Y-58304D01*
X199276Y-57496D01*
X199387Y-56603D01*
X199505Y-54563D01*
X199510Y-53415D01*
X206935Y-60840D01*
D02*
G37*
G36*
X154680Y-74131D02*
X154710Y-74476D01*
X154760Y-74780D01*
X154830Y-75044D01*
X154920Y-75268D01*
X155030Y-75451D01*
X155160Y-75593D01*
X155310Y-75694D01*
X155480Y-75755D01*
X155670Y-75775D01*
X151670D01*
X151860Y-75755D01*
X152030Y-75694D01*
X152180Y-75593D01*
X152310Y-75451D01*
X152420Y-75268D01*
X152510Y-75044D01*
X152580Y-74780D01*
X152630Y-74476D01*
X152660Y-74131D01*
X152670Y-73745D01*
X154670D01*
X154680Y-74131D01*
D02*
G37*
G36*
X22798Y-65863D02*
X22965Y-66362D01*
X23204Y-66802D01*
X23516Y-67183D01*
X23900Y-67506D01*
X24357Y-67770D01*
X24886Y-67976D01*
X25488Y-68123D01*
X26163Y-68211D01*
X26799Y-68236D01*
X27580Y-68215D01*
X28431Y-68141D01*
X29181Y-68018D01*
X29831Y-67845D01*
X30380Y-67623D01*
X30831Y-67351D01*
X31181Y-67030D01*
X31430Y-66659D01*
X31581Y-66240D01*
X31630Y-65771D01*
Y-75710D01*
X31581Y-75240D01*
X31430Y-74820D01*
X31181Y-74450D01*
X30831Y-74129D01*
X30380Y-73857D01*
X29831Y-73635D01*
X29181Y-73462D01*
X28431Y-73339D01*
X27580Y-73265D01*
X26630Y-73240D01*
Y-69295D01*
X25585Y-73240D01*
X16880Y-73358D01*
X22704Y-65305D01*
X22798Y-65863D01*
D02*
G37*
G36*
X105151Y-64230D02*
X105184Y-64502D01*
X105239Y-64767D01*
X105311Y-65009D01*
X106140D01*
X105950Y-65029D01*
X105780Y-65090D01*
X105630Y-65192D01*
X105500Y-65334D01*
X105469Y-65386D01*
X105536Y-65522D01*
X105679Y-65761D01*
X105844Y-65993D01*
X106031Y-66219D01*
X106240Y-66438D01*
X105169D01*
X105150Y-66654D01*
X105140Y-67039D01*
X103140D01*
X103130Y-66654D01*
X103111Y-66438D01*
X102040D01*
X102249Y-66219D01*
X102436Y-65993D01*
X102601Y-65761D01*
X102744Y-65522D01*
X102811Y-65386D01*
X102780Y-65334D01*
X102650Y-65192D01*
X102500Y-65090D01*
X102330Y-65029D01*
X102140Y-65009D01*
X102969D01*
X103041Y-64767D01*
X103096Y-64502D01*
X103129Y-64230D01*
X103140Y-63952D01*
X105140D01*
X105151Y-64230D01*
D02*
G37*
G36*
X117991Y-49040D02*
X117941Y-48570D01*
X117790Y-48151D01*
X117541Y-47780D01*
X117191Y-47459D01*
X116741Y-47187D01*
X116191Y-46965D01*
X115541Y-46792D01*
X114790Y-46669D01*
X114300Y-46626D01*
X113809Y-46669D01*
X113060Y-46792D01*
X112409Y-46965D01*
X111860Y-47187D01*
X111410Y-47459D01*
X111060Y-47780D01*
X110809Y-48151D01*
X110660Y-48570D01*
X110610Y-49040D01*
Y-39100D01*
X110660Y-39570D01*
X110809Y-39990D01*
X111060Y-40360D01*
X111410Y-40681D01*
X111860Y-40953D01*
X112409Y-41175D01*
X113060Y-41348D01*
X113809Y-41471D01*
X114300Y-41514D01*
X114790Y-41471D01*
X115541Y-41348D01*
X116191Y-41175D01*
X116741Y-40953D01*
X117191Y-40681D01*
X117541Y-40360D01*
X117790Y-39990D01*
X117941Y-39570D01*
X117991Y-39100D01*
Y-49040D01*
D02*
G37*
G36*
X202369Y-35410D02*
X202213Y-35296D01*
X202029Y-35240D01*
X201817D01*
X201577Y-35296D01*
X201308Y-35410D01*
X201011Y-35579D01*
X200686Y-35805D01*
X200332Y-36088D01*
X199541Y-36824D01*
X198126Y-35410D01*
X198522Y-34999D01*
X199144Y-34264D01*
X199371Y-33939D01*
X199541Y-33642D01*
X199654Y-33373D01*
X199710Y-33133D01*
Y-32920D01*
X199654Y-32737D01*
X199541Y-32581D01*
X202369Y-35410D01*
D02*
G37*
G36*
X123569Y-21520D02*
X123214Y-21911D01*
X122902Y-22346D01*
X122631Y-22828D01*
X122401Y-23354D01*
X122214Y-23926D01*
X122068Y-24544D01*
X121963Y-25207D01*
X121901Y-25916D01*
X121880Y-26670D01*
X116880D01*
X116859Y-25916D01*
X116797Y-25207D01*
X116692Y-24544D01*
X116546Y-23926D01*
X116359Y-23354D01*
X116129Y-22828D01*
X115858Y-22346D01*
X115546Y-21911D01*
X115191Y-21520D01*
X114795Y-21175D01*
X123965D01*
X123569Y-21520D01*
D02*
G37*
G36*
X29031Y-52719D02*
X29257Y-52906D01*
X29489Y-53071D01*
X29728Y-53214D01*
X29973Y-53335D01*
X30225Y-53434D01*
X30483Y-53511D01*
X30749Y-53566D01*
X31020Y-53599D01*
X31298Y-53610D01*
Y-55610D01*
X31020Y-55621D01*
X30749Y-55654D01*
X30483Y-55709D01*
X30225Y-55786D01*
X29973Y-55885D01*
X29728Y-56006D01*
X29489Y-56149D01*
X29257Y-56314D01*
X29031Y-56501D01*
X28812Y-56710D01*
Y-52510D01*
X29031Y-52719D01*
D02*
G37*
G36*
X130965Y-39745D02*
X131071Y-40395D01*
X131248Y-41052D01*
X131495Y-41716D01*
X131813Y-42387D01*
X132202Y-43064D01*
X132661Y-43747D01*
X133191Y-44437D01*
X133792Y-45134D01*
X134463Y-45838D01*
X134129Y-52575D01*
X132963Y-51444D01*
X130937Y-49698D01*
X130077Y-49083D01*
X129319Y-48640D01*
X128663Y-48370D01*
X128108Y-48271D01*
X127656Y-48345D01*
X127306Y-48591D01*
X127058Y-49009D01*
X130929Y-39100D01*
X130965Y-39745D01*
D02*
G37*
G36*
X21412Y-36198D02*
X22938Y-37557D01*
X23648Y-38110D01*
X24323Y-38577D01*
X24963Y-38960D01*
X25568Y-39258D01*
X26138Y-39470D01*
X26673Y-39597D01*
X27173Y-39640D01*
Y-41640D01*
X26673Y-41683D01*
X26138Y-41810D01*
X25568Y-42023D01*
X24963Y-42320D01*
X24323Y-42702D01*
X23648Y-43170D01*
X22938Y-43723D01*
X21412Y-45083D01*
X20596Y-45890D01*
Y-35390D01*
X21412Y-36198D01*
D02*
G37*
G36*
X27387Y-118824D02*
X27350Y-119023D01*
X27354Y-119237D01*
X27402Y-119466D01*
X27491Y-119709D01*
X27624Y-119966D01*
X27799Y-120239D01*
X28016Y-120526D01*
X28276Y-120828D01*
X28579Y-121145D01*
X27505Y-122899D01*
X27200Y-122608D01*
X26917Y-122367D01*
X26654Y-122176D01*
X26413Y-122033D01*
X26193Y-121940D01*
X25995Y-121897D01*
X25818Y-121903D01*
X25662Y-121958D01*
X25527Y-122063D01*
X25413Y-122218D01*
X27468Y-118640D01*
X27387Y-118824D01*
D02*
G37*
G36*
X145306Y-118821D02*
X145280Y-118635D01*
X145201Y-118468D01*
X145070Y-118321D01*
X144887Y-118193D01*
X144652Y-118085D01*
X144364Y-117997D01*
X144024Y-117928D01*
X143632Y-117879D01*
X143187Y-117850D01*
X142690Y-117840D01*
Y-115840D01*
X143187Y-115830D01*
X144024Y-115752D01*
X144364Y-115683D01*
X144652Y-115595D01*
X144887Y-115487D01*
X145070Y-115359D01*
X145201Y-115212D01*
X145280Y-115045D01*
X145306Y-114859D01*
Y-118821D01*
D02*
G37*
G36*
X205141Y-111403D02*
X204136Y-111170D01*
X202320Y-110900D01*
X201508Y-110864D01*
X200761Y-110893D01*
X200078Y-110989D01*
X199460Y-111151D01*
X198906Y-111379D01*
X198417Y-111673D01*
X197992Y-112032D01*
X196930Y-110266D01*
X197176Y-109969D01*
X197430Y-109563D01*
X197690Y-109049D01*
X197958Y-108427D01*
X198514Y-106857D01*
X199098Y-104854D01*
X199711Y-102417D01*
X205141Y-111403D01*
D02*
G37*
G36*
X76308Y-140515D02*
X76648Y-140741D01*
X77122Y-141118D01*
X78469Y-142323D01*
X81488Y-145262D01*
X77817Y-148662D01*
X76834Y-147715D01*
X75060Y-146221D01*
X74268Y-145675D01*
X73540Y-145262D01*
X72876Y-144983D01*
X72275Y-144838D01*
X71738Y-144827D01*
X71264Y-144949D01*
X70854Y-145205D01*
X76084Y-140742D01*
X76025Y-140516D01*
X76100Y-140440D01*
X76308Y-140515D01*
D02*
G37*
G36*
X209634Y-136566D02*
X208397Y-137035D01*
X202765Y-139552D01*
X202393Y-139803D01*
X202129Y-140027D01*
X199628Y-138936D01*
X200024Y-138478D01*
X200341Y-137974D01*
X200579Y-137425D01*
X200738Y-136830D01*
X200819Y-136190D01*
X200820Y-135504D01*
X200743Y-134772D01*
X200587Y-133995D01*
X200352Y-133172D01*
X200038Y-132304D01*
X209634Y-136566D01*
D02*
G37*
G36*
X49540Y-122990D02*
X49690Y-123840D01*
X49940Y-124590D01*
X50290Y-125240D01*
X50740Y-125790D01*
X51290Y-126240D01*
X51940Y-126590D01*
X52690Y-126840D01*
X53074Y-126908D01*
X55177Y-126788D01*
X55486Y-126722D01*
X55715Y-126647D01*
Y-132433D01*
X55486Y-132358D01*
X55177Y-132292D01*
X54790Y-132233D01*
X53779Y-132138D01*
X51670Y-132056D01*
X49870Y-132040D01*
Y-130120D01*
X46990Y-132040D01*
X40640Y-127040D01*
X41371Y-126990D01*
X42026Y-126840D01*
X42604Y-126590D01*
X43104Y-126240D01*
X43527Y-125790D01*
X43874Y-125240D01*
X44144Y-124590D01*
X44336Y-123840D01*
X44451Y-122990D01*
X44490Y-122040D01*
X49490D01*
X49540Y-122990D01*
D02*
G37*
G36*
X206038Y-86177D02*
X204957Y-86056D01*
X203020Y-85970D01*
X202164Y-86005D01*
X201383Y-86091D01*
X200676Y-86229D01*
X200044Y-86419D01*
X199487Y-86660D01*
X199005Y-86952D01*
X198597Y-87297D01*
X197355Y-85710D01*
X197648Y-85362D01*
X197925Y-84917D01*
X198186Y-84377D01*
X198430Y-83741D01*
X198658Y-83009D01*
X199066Y-81259D01*
X199245Y-80241D01*
X199555Y-77916D01*
X206038Y-86177D01*
D02*
G37*
G36*
X31630Y-84230D02*
X32710Y-84240D01*
Y-89240D01*
X31755Y-89265D01*
X31630Y-89276D01*
Y-91709D01*
X31581Y-91240D01*
X31430Y-90821D01*
X31181Y-90450D01*
X30831Y-90129D01*
X30380Y-89857D01*
X29831Y-89635D01*
X29671Y-89593D01*
X29495Y-89640D01*
X28942Y-89865D01*
X28489Y-90140D01*
X28136Y-90465D01*
X27883Y-90840D01*
X27731Y-91265D01*
X27679Y-91740D01*
X27689Y-89274D01*
X27580Y-89265D01*
X26630Y-89240D01*
Y-84240D01*
X27580Y-84215D01*
X27709Y-84204D01*
X27710Y-83970D01*
X27759Y-84022D01*
X27910Y-84067D01*
X28159Y-84108D01*
X28454Y-84137D01*
X29181Y-84018D01*
X29831Y-83845D01*
X30380Y-83623D01*
X30831Y-83351D01*
X31181Y-83030D01*
X31430Y-82660D01*
X31581Y-82240D01*
X31630Y-81770D01*
Y-84230D01*
D02*
G37*
G36*
X76420Y-78157D02*
X76483Y-78357D01*
X76570Y-78567D01*
X76682Y-78785D01*
X76820Y-79012D01*
X76982Y-79248D01*
X77382Y-79746D01*
X77620Y-80008D01*
X77883Y-80279D01*
X77033Y-82257D01*
X76684Y-81922D01*
X76067Y-81417D01*
X75799Y-81247D01*
X75559Y-81133D01*
X75346Y-81074D01*
X75161Y-81070D01*
X75003Y-81122D01*
X74872Y-81229D01*
X74769Y-81391D01*
X76383Y-77965D01*
X76420Y-78157D01*
D02*
G37*
G36*
X145306Y-106121D02*
X145280Y-105935D01*
X145201Y-105768D01*
X145070Y-105621D01*
X144887Y-105493D01*
X144652Y-105385D01*
X144364Y-105297D01*
X144024Y-105228D01*
X143632Y-105179D01*
X143187Y-105150D01*
X142690Y-105140D01*
Y-103140D01*
X143187Y-103130D01*
X144024Y-103052D01*
X144364Y-102983D01*
X144652Y-102895D01*
X144887Y-102787D01*
X145070Y-102659D01*
X145201Y-102512D01*
X145280Y-102345D01*
X145306Y-102159D01*
Y-106121D01*
D02*
G37*
G36*
X76348Y-91592D02*
X76291Y-91771D01*
X76284Y-91972D01*
X76328Y-92195D01*
X76421Y-92441D01*
X76565Y-92709D01*
X76759Y-93000D01*
X77003Y-93313D01*
X77297Y-93649D01*
X77641Y-94007D01*
X76297Y-95491D01*
X75939Y-95147D01*
X75293Y-94612D01*
X75006Y-94423D01*
X74743Y-94284D01*
X74503Y-94197D01*
X74288Y-94162D01*
X74096Y-94178D01*
X73928Y-94246D01*
X73784Y-94366D01*
X76455Y-91436D01*
X76348Y-91592D01*
D02*
G37*
G36*
X85269Y-87649D02*
X85484Y-87818D01*
X85711Y-87966D01*
X85948Y-88095D01*
X86196Y-88203D01*
X86455Y-88291D01*
X86725Y-88358D01*
X87006Y-88406D01*
X87297Y-88433D01*
X87600Y-88440D01*
X84630Y-91410D01*
X84623Y-91107D01*
X84596Y-90816D01*
X84548Y-90535D01*
X84481Y-90265D01*
X84393Y-90006D01*
X84285Y-89758D01*
X84156Y-89521D01*
X84008Y-89294D01*
X83839Y-89079D01*
X83650Y-88874D01*
X85064Y-87460D01*
X85269Y-87649D01*
D02*
G37*
D10*
X155990Y-243840D02*
D03*
Y-231140D02*
D03*
Y-218440D02*
D03*
Y-205740D02*
D03*
Y-193040D02*
D03*
Y-180340D02*
D03*
Y-167640D02*
D03*
Y-154940D02*
D03*
Y-142240D02*
D03*
Y-129540D02*
D03*
Y-116840D02*
D03*
Y-104140D02*
D03*
Y-91440D02*
D03*
Y-78740D02*
D03*
X64990Y-243840D02*
D03*
Y-231140D02*
D03*
Y-218440D02*
D03*
Y-205740D02*
D03*
Y-193040D02*
D03*
Y-180340D02*
D03*
Y-167640D02*
D03*
Y-154940D02*
D03*
Y-142240D02*
D03*
Y-129540D02*
D03*
Y-116840D02*
D03*
Y-104140D02*
D03*
Y-91440D02*
D03*
Y-78740D02*
D03*
D11*
X38100Y-70740D02*
D03*
Y-86740D02*
D03*
X104140Y-60070D02*
D03*
Y-44070D02*
D03*
X124460Y-60070D02*
D03*
Y-44070D02*
D03*
D12*
X100330Y-152400D02*
Y-92710D01*
Y-189230D02*
Y-152400D01*
X123190Y-30480D02*
X146050D01*
X119380Y-26670D02*
X123190Y-30480D01*
X119380Y-26670D02*
Y-15240D01*
X85090Y-77470D02*
X92710Y-85090D01*
X41910Y-224790D02*
Y-210820D01*
X36830Y-205740D02*
X41910Y-210820D01*
X31750Y-205740D02*
X36830D01*
X46990Y-129540D02*
X64990D01*
X40640D02*
X46990D01*
Y-105410D01*
X19940Y-86740D02*
X38100D01*
X15240Y-91440D02*
X19940Y-86740D01*
X19940Y-70740D02*
X38100D01*
X15240Y-66040D02*
X19940Y-70740D01*
X129160Y-44070D02*
X137160Y-52070D01*
X104140Y-44070D02*
X124460D01*
X129160D01*
X142240Y-154940D02*
X155990D01*
X135890Y-161290D02*
X142240Y-154940D01*
X92710Y-85090D02*
X100330Y-92710D01*
X123190Y-87630D02*
X137160Y-73660D01*
Y-52070D01*
X64990Y-142240D02*
X74930D01*
X80010Y-147320D01*
X155990Y-180340D02*
X171450D01*
X100330Y-189230D02*
X109220Y-198120D01*
X95250Y-152400D02*
X100330D01*
X146050Y-30480D02*
X161290Y-45720D01*
Y-63500D02*
Y-45720D01*
D13*
X76200Y-209550D02*
X111760D01*
X72390Y-205740D02*
X76200Y-209550D01*
X64990Y-205740D02*
X72390D01*
X111760Y-209550D02*
X117600Y-203710D01*
Y-137670D01*
X86360Y-181610D02*
Y-104140D01*
X73660Y-91440D02*
X86360Y-104140D01*
X64990Y-91440D02*
X73660D01*
X15240Y-143510D02*
X52070Y-180340D01*
X64990D01*
X191770Y-116840D02*
X204470Y-104140D01*
X191770Y-137160D02*
Y-116840D01*
X167640Y-161290D02*
X191770Y-137160D01*
X185420Y-99060D02*
X205740Y-78740D01*
X185420Y-133350D02*
Y-99060D01*
X170180Y-148590D02*
X185420Y-133350D01*
X179070Y-81280D02*
X207010Y-53340D01*
X179070Y-127000D02*
Y-81280D01*
X170180Y-135890D02*
X179070Y-127000D01*
X64990Y-243840D02*
X116840D01*
X64990Y-231140D02*
X119380D01*
X129540Y-220980D01*
X116840Y-243840D02*
X135890Y-224790D01*
X15240Y-193040D02*
X64990D01*
X22860Y-116840D02*
X33020Y-127000D01*
X15240Y-116840D02*
X22860D01*
X15240Y-167640D02*
X20320D01*
X104140Y-68580D02*
Y-60070D01*
X153670Y-76420D02*
X155990Y-78740D01*
X124460Y-68580D02*
Y-60070D01*
X135890Y-224790D02*
Y-170180D01*
X144780Y-161290D01*
X167640D01*
X129540Y-220980D02*
Y-154940D01*
X135890Y-148590D01*
X170180D01*
X172720Y-119380D02*
Y-62230D01*
X207010Y-27940D01*
X64990Y-78740D02*
X74930D01*
X87630Y-91440D01*
X15240Y-40640D02*
X66040D01*
X129540Y-104140D01*
X155990D01*
X133350Y-116840D02*
X155990D01*
X15240Y-143510D02*
Y-142240D01*
X46990Y-167640D02*
X64990D01*
X33020Y-153670D02*
Y-127000D01*
Y-153670D02*
X46990Y-167640D01*
X40640Y-151130D02*
X44450Y-154940D01*
X64990D01*
X71120Y-54610D02*
X133350Y-116840D01*
X64990Y-218440D02*
X115570D01*
X123190Y-210820D01*
Y-144780D01*
X139700Y-243840D02*
X155990D01*
X26670Y-54610D02*
X71120D01*
X117600Y-137670D02*
X131762Y-123508D01*
X168592D02*
X172720Y-119380D01*
X131762Y-123508D02*
X168592D01*
X123190Y-144780D02*
X132080Y-135890D01*
X170180D01*
X20320Y-167640D02*
X39370Y-186690D01*
X81280D01*
X86360Y-181610D01*
X204470Y-104140D02*
X207010D01*
X205740Y-78740D02*
X207010D01*
X153670Y-76420D02*
Y-66040D01*
X149860Y-62230D02*
X153670Y-66040D01*
X148590Y-62230D02*
X149860D01*
D14*
X155990Y-231140D02*
X207010D01*
X155990Y-218440D02*
X194310D01*
X207010Y-205740D01*
X155990D02*
X181610D01*
X207010Y-180340D01*
X155990Y-193040D02*
X170180D01*
X207010Y-156210D01*
Y-154940D01*
X155990Y-167640D02*
X172720D01*
X207010Y-133350D01*
Y-129540D01*
D15*
X15240Y-15240D02*
D03*
X207010Y-27940D02*
D03*
D16*
X15240Y-40640D02*
D03*
Y-66040D02*
D03*
X207010Y-78740D02*
D03*
Y-104140D02*
D03*
Y-129540D02*
D03*
Y-154940D02*
D03*
Y-180340D02*
D03*
Y-205740D02*
D03*
Y-231140D02*
D03*
Y-53340D02*
D03*
X170180Y-15240D02*
D03*
X144780D02*
D03*
X119380D02*
D03*
X93980D02*
D03*
X68580D02*
D03*
D17*
X15240Y-142240D02*
D03*
Y-116840D02*
D03*
Y-167640D02*
D03*
Y-193040D02*
D03*
Y-218440D02*
D03*
Y-243840D02*
D03*
D18*
Y-91440D02*
D03*
D19*
X85090Y-77470D02*
D03*
X95250Y-161290D02*
D03*
X41910Y-224790D02*
D03*
X31750Y-205740D02*
D03*
X46990Y-105410D02*
D03*
X104140Y-68580D02*
D03*
X124460D02*
D03*
X137160Y-52070D02*
D03*
X135890Y-161290D02*
D03*
X87630Y-91440D02*
D03*
X92710Y-85090D02*
D03*
X95250Y-152400D02*
D03*
X123190Y-87630D02*
D03*
X80010Y-147320D02*
D03*
X40640Y-129540D02*
D03*
Y-151130D02*
D03*
X171450Y-180340D02*
D03*
X109220Y-198120D02*
D03*
X139700Y-243840D02*
D03*
X26670Y-54610D02*
D03*
X148590Y-62230D02*
D03*
X161290Y-63500D02*
D03*
M02*
