G04 Layer_Color=16711935*
%FSLAX44Y44*%
%MOMM*%
G71*
G01*
G75*
%ADD32R,1.5032X1.2032*%
%ADD33R,1.7032X1.7032*%
%ADD34C,1.7032*%
%ADD35O,2.7032X1.7032*%
%ADD36R,2.7032X1.7032*%
%ADD37C,0.8032*%
%ADD38R,1.2032X2.9032*%
%ADD39R,3.5032X2.9032*%
%ADD40O,0.8032X2.4032*%
%ADD41R,1.4532X1.5032*%
%ADD42R,1.5032X1.4532*%
%ADD43R,1.2032X1.5032*%
D32*
X35560Y-69470D02*
D03*
Y-85470D02*
D03*
X120650Y-115950D02*
D03*
Y-99950D02*
D03*
D33*
X15240Y-15240D02*
D03*
X207010Y-27940D02*
D03*
D34*
X15240Y-40640D02*
D03*
Y-66040D02*
D03*
X207010Y-78740D02*
D03*
Y-104140D02*
D03*
Y-129540D02*
D03*
Y-154940D02*
D03*
Y-180340D02*
D03*
Y-205740D02*
D03*
Y-231140D02*
D03*
Y-53340D02*
D03*
X170180Y-15240D02*
D03*
X144780D02*
D03*
X119380D02*
D03*
X93980D02*
D03*
X68580D02*
D03*
D35*
X15240Y-142240D02*
D03*
Y-116840D02*
D03*
Y-167640D02*
D03*
Y-193040D02*
D03*
Y-218440D02*
D03*
Y-243840D02*
D03*
D36*
Y-91440D02*
D03*
D37*
X85090Y-77470D02*
D03*
X95250Y-161290D02*
D03*
X41910Y-224790D02*
D03*
X31750Y-205740D02*
D03*
X46990Y-105410D02*
D03*
X104140Y-68580D02*
D03*
X124460D02*
D03*
X137160Y-52070D02*
D03*
X135890Y-161290D02*
D03*
X87630Y-91440D02*
D03*
X92710Y-85090D02*
D03*
X95250Y-152400D02*
D03*
X123190Y-87630D02*
D03*
X80010Y-147320D02*
D03*
X40640Y-129540D02*
D03*
Y-151130D02*
D03*
X171450Y-180340D02*
D03*
X109220Y-198120D02*
D03*
X139700Y-243840D02*
D03*
X26670Y-54610D02*
D03*
X148590Y-62230D02*
D03*
X161290Y-63500D02*
D03*
D38*
X99200Y-126020D02*
D03*
X76200D02*
D03*
X53200D02*
D03*
D39*
X76200Y-67020D02*
D03*
D40*
X173990Y-147030D02*
D03*
X161290D02*
D03*
X148590D02*
D03*
X135890D02*
D03*
X173990Y-79030D02*
D03*
X161290D02*
D03*
X148590D02*
D03*
X135890D02*
D03*
D41*
X157050Y-227330D02*
D03*
X135050D02*
D03*
Y-204470D02*
D03*
X157050D02*
D03*
Y-181610D02*
D03*
X135050D02*
D03*
D42*
X62230Y-157910D02*
D03*
Y-179910D02*
D03*
X85090D02*
D03*
Y-157910D02*
D03*
D43*
X52450Y-39370D02*
D03*
X36450D02*
D03*
X52450Y-19050D02*
D03*
X36450D02*
D03*
M02*
