G04 Layer_Physical_Order=2*
G04 Layer_Color=16711680*
%FSLAX44Y44*%
%MOMM*%
G71*
G01*
G75*
%ADD11R,1.3000X1.0000*%
%ADD12C,0.5000*%
%ADD13C,0.2000*%
%ADD15R,1.5000X1.5000*%
%ADD16C,1.5000*%
%ADD17O,2.5000X1.5000*%
%ADD18R,2.5000X1.5000*%
%ADD19C,0.6000*%
%ADD20R,1.0000X2.7000*%
%ADD21R,3.3000X2.7000*%
%ADD22O,0.6000X2.2000*%
%ADD23R,1.2500X1.3000*%
%ADD24R,1.3000X1.2500*%
%ADD25R,1.0000X1.3000*%
G36*
X199663Y-95318D02*
X200131Y-95606D01*
X200684Y-95859D01*
X201322Y-96077D01*
X202046Y-96259D01*
X202854Y-96406D01*
X203747Y-96517D01*
X205787Y-96635D01*
X206935Y-96640D01*
X199510Y-104065D01*
X199505Y-102917D01*
X199387Y-100877D01*
X199276Y-99984D01*
X199129Y-99176D01*
X198947Y-98453D01*
X198729Y-97814D01*
X198476Y-97261D01*
X198188Y-96793D01*
X197865Y-96409D01*
X199279Y-94995D01*
X199663Y-95318D01*
D02*
G37*
G36*
X27729Y-86915D02*
X27880Y-87340D01*
X28132Y-87715D01*
X28484Y-88040D01*
X28937Y-88315D01*
X29490Y-88540D01*
X30144Y-88715D01*
X30898Y-88840D01*
X31754Y-88915D01*
X32710Y-88940D01*
Y-93940D01*
X31754Y-93965D01*
X30898Y-94040D01*
X30144Y-94165D01*
X29490Y-94340D01*
X28937Y-94565D01*
X28484Y-94840D01*
X28132Y-95165D01*
X27880Y-95540D01*
X27729Y-95965D01*
X27679Y-96440D01*
Y-86440D01*
X27729Y-86915D01*
D02*
G37*
G36*
X114180Y-104920D02*
X114130Y-104450D01*
X113981Y-104031D01*
X113730Y-103660D01*
X113380Y-103339D01*
X112930Y-103067D01*
X112381Y-102845D01*
X111730Y-102672D01*
X110981Y-102549D01*
X110131Y-102475D01*
X109180Y-102450D01*
Y-97450D01*
X110131Y-97425D01*
X110981Y-97351D01*
X111730Y-97228D01*
X112381Y-97055D01*
X112930Y-96833D01*
X113380Y-96561D01*
X113730Y-96240D01*
X113981Y-95870D01*
X114130Y-95450D01*
X114180Y-94980D01*
Y-104920D01*
D02*
G37*
G36*
X127170Y-95450D02*
X127319Y-95870D01*
X127570Y-96240D01*
X127920Y-96561D01*
X128370Y-96833D01*
X128919Y-97055D01*
X129570Y-97228D01*
X130319Y-97351D01*
X131170Y-97425D01*
X132120Y-97450D01*
Y-102450D01*
X131170Y-102475D01*
X130319Y-102549D01*
X129570Y-102672D01*
X128919Y-102845D01*
X128370Y-103067D01*
X127920Y-103339D01*
X127570Y-103660D01*
X127319Y-104031D01*
X127170Y-104450D01*
X127120Y-104920D01*
Y-94980D01*
X127170Y-95450D01*
D02*
G37*
G36*
X41758Y-90490D02*
X41515Y-90639D01*
X41301Y-90890D01*
X41115Y-91240D01*
X40957Y-91690D01*
X40829Y-92240D01*
X40729Y-92889D01*
X40657Y-93639D01*
X40600Y-95440D01*
X35600D01*
X35575Y-94489D01*
X35500Y-93639D01*
X35375Y-92889D01*
X35200Y-92240D01*
X34975Y-91690D01*
X34700Y-91240D01*
X34375Y-90890D01*
X34000Y-90639D01*
X33575Y-90490D01*
X33100Y-90440D01*
X42030D01*
X41758Y-90490D01*
D02*
G37*
G36*
X80725Y-80540D02*
X80300Y-80689D01*
X79925Y-80940D01*
X79600Y-81290D01*
X79325Y-81740D01*
X79100Y-82289D01*
X78925Y-82940D01*
X78800Y-83689D01*
X78725Y-84539D01*
X78700Y-85490D01*
X73700D01*
X73675Y-84539D01*
X73600Y-83689D01*
X73475Y-82940D01*
X73300Y-82289D01*
X73075Y-81740D01*
X72800Y-81290D01*
X72475Y-80940D01*
X72100Y-80689D01*
X71675Y-80540D01*
X71200Y-80490D01*
X81200D01*
X80725Y-80540D01*
D02*
G37*
G36*
X132925Y-81030D02*
X132905Y-80840D01*
X132844Y-80670D01*
X132743Y-80520D01*
X132600Y-80390D01*
X132418Y-80280D01*
X132194Y-80190D01*
X131930Y-80120D01*
X131626Y-80070D01*
X131281Y-80040D01*
X130895Y-80030D01*
Y-78030D01*
X131281Y-78020D01*
X131626Y-77990D01*
X131930Y-77940D01*
X132194Y-77870D01*
X132418Y-77780D01*
X132600Y-77670D01*
X132743Y-77540D01*
X132844Y-77390D01*
X132905Y-77220D01*
X132925Y-77030D01*
Y-81030D01*
D02*
G37*
G36*
X125704Y-90931D02*
X125819Y-92530D01*
X125919Y-93181D01*
X126047Y-93730D01*
X126205Y-94180D01*
X126390Y-94530D01*
X126605Y-94781D01*
X126848Y-94930D01*
X127120Y-94980D01*
X118190D01*
X118665Y-94930D01*
X119090Y-94781D01*
X119465Y-94530D01*
X119790Y-94180D01*
X120065Y-93730D01*
X120290Y-93181D01*
X120465Y-92530D01*
X120590Y-91781D01*
X120665Y-90931D01*
X120690Y-89980D01*
X125690D01*
X125704Y-90931D01*
D02*
G37*
G36*
X89991Y-89549D02*
X90217Y-89736D01*
X90449Y-89901D01*
X90688Y-90044D01*
X90933Y-90165D01*
X91185Y-90264D01*
X91443Y-90341D01*
X91708Y-90396D01*
X91980Y-90429D01*
X92258Y-90440D01*
Y-92440D01*
X91980Y-92451D01*
X91708Y-92484D01*
X91443Y-92539D01*
X91185Y-92616D01*
X90933Y-92715D01*
X90688Y-92836D01*
X90449Y-92979D01*
X90217Y-93144D01*
X89991Y-93331D01*
X89772Y-93540D01*
Y-89340D01*
X89991Y-89549D01*
D02*
G37*
G36*
X48261Y-128122D02*
X48225Y-127420D01*
X48118Y-126717D01*
X47940Y-126013D01*
X47690Y-125308D01*
X47369Y-124601D01*
X46977Y-123893D01*
X46514Y-123185D01*
X45979Y-122474D01*
X45373Y-121763D01*
X44695Y-121051D01*
Y-113979D01*
X45373Y-114621D01*
X45979Y-115120D01*
X46514Y-115477D01*
X46977Y-115691D01*
X47369Y-115762D01*
X47690Y-115691D01*
X47940Y-115477D01*
X48118Y-115120D01*
X48225Y-114621D01*
X48261Y-113979D01*
Y-128122D01*
D02*
G37*
G36*
X158060Y-219246D02*
X158090Y-219592D01*
X158140Y-219896D01*
X158210Y-220160D01*
X158300Y-220383D01*
X158410Y-220566D01*
X158540Y-220708D01*
X158690Y-220810D01*
X158860Y-220871D01*
X159050Y-220891D01*
X155050D01*
X155240Y-220871D01*
X155410Y-220810D01*
X155560Y-220708D01*
X155690Y-220566D01*
X155800Y-220383D01*
X155890Y-220160D01*
X155960Y-219896D01*
X156010Y-219592D01*
X156040Y-219246D01*
X156050Y-218860D01*
X158050D01*
X158060Y-219246D01*
D02*
G37*
G36*
X27432Y-216637D02*
X27499Y-216806D01*
X27611Y-216954D01*
X27768Y-217083D01*
X27969Y-217192D01*
X28215Y-217281D01*
X28506Y-217351D01*
X28842Y-217400D01*
X29222Y-217430D01*
X29647Y-217440D01*
Y-219440D01*
X29222Y-219450D01*
X28842Y-219480D01*
X28506Y-219529D01*
X28215Y-219599D01*
X27969Y-219688D01*
X27768Y-219797D01*
X27611Y-219926D01*
X27499Y-220074D01*
X27432Y-220243D01*
X27410Y-220431D01*
Y-216449D01*
X27432Y-216637D01*
D02*
G37*
G36*
X143958Y-242267D02*
X143777Y-242458D01*
X143605Y-242661D01*
X143443Y-242876D01*
X143291Y-243103D01*
X143013Y-243591D01*
X142889Y-243853D01*
X142668Y-244412D01*
X142571Y-244709D01*
X140627Y-240987D01*
X140893Y-241059D01*
X141153Y-241102D01*
X141407Y-241115D01*
X141656Y-241099D01*
X141898Y-241052D01*
X142134Y-240976D01*
X142365Y-240870D01*
X142590Y-240735D01*
X142808Y-240570D01*
X143021Y-240375D01*
X143958Y-242267D01*
D02*
G37*
G36*
X153839Y-233769D02*
X153678Y-233667D01*
X153490Y-233620D01*
X153275Y-233627D01*
X153033Y-233689D01*
X152764Y-233806D01*
X152467Y-233978D01*
X152144Y-234205D01*
X151793Y-234487D01*
X151011Y-235214D01*
X149416Y-233979D01*
X149823Y-233559D01*
X150462Y-232809D01*
X150694Y-232480D01*
X150868Y-232182D01*
X150983Y-231914D01*
X151040Y-231677D01*
X151039Y-231471D01*
X150979Y-231296D01*
X150861Y-231151D01*
X153839Y-233769D01*
D02*
G37*
G36*
X158860Y-210929D02*
X158690Y-210990D01*
X158540Y-211092D01*
X158410Y-211234D01*
X158300Y-211417D01*
X158210Y-211640D01*
X158140Y-211904D01*
X158090Y-212208D01*
X158060Y-212554D01*
X158050Y-212939D01*
X156050D01*
X156040Y-212554D01*
X156010Y-212208D01*
X155960Y-211904D01*
X155890Y-211640D01*
X155800Y-211417D01*
X155690Y-211234D01*
X155560Y-211092D01*
X155410Y-210990D01*
X155240Y-210929D01*
X155050Y-210909D01*
X159050D01*
X158860Y-210929D01*
D02*
G37*
G36*
X42531Y-153491D02*
X42344Y-153717D01*
X42179Y-153949D01*
X42036Y-154188D01*
X41915Y-154433D01*
X41816Y-154685D01*
X41739Y-154943D01*
X41684Y-155209D01*
X41651Y-155480D01*
X41640Y-155758D01*
X39640D01*
X39629Y-155480D01*
X39596Y-155209D01*
X39541Y-154943D01*
X39464Y-154685D01*
X39365Y-154433D01*
X39244Y-154188D01*
X39101Y-153949D01*
X38936Y-153717D01*
X38749Y-153491D01*
X38540Y-153272D01*
X42740D01*
X42531Y-153491D01*
D02*
G37*
G36*
X151094Y-133350D02*
X151342Y-137717D01*
X151408Y-138026D01*
X151483Y-138255D01*
X145697D01*
X145772Y-138026D01*
X145838Y-137717D01*
X145897Y-137330D01*
X145992Y-136319D01*
X146074Y-134211D01*
X146090Y-132410D01*
X151090D01*
X151094Y-133350D01*
D02*
G37*
G36*
X163290Y-198850D02*
X163349Y-199020D01*
X163449Y-199170D01*
X163589Y-199300D01*
X163769Y-199410D01*
X163990Y-199500D01*
X164249Y-199570D01*
X164550Y-199620D01*
X164890Y-199650D01*
X165270Y-199660D01*
Y-201660D01*
X164890Y-201670D01*
X164550Y-201700D01*
X164249Y-201750D01*
X163990Y-201820D01*
X163769Y-201910D01*
X163589Y-202020D01*
X163449Y-202150D01*
X163349Y-202300D01*
X163290Y-202470D01*
X163270Y-202660D01*
Y-198660D01*
X163290Y-198850D01*
D02*
G37*
G36*
X163289Y-175815D02*
X163440Y-176240D01*
X163692Y-176615D01*
X164044Y-176940D01*
X164497Y-177215D01*
X165050Y-177440D01*
X165704Y-177615D01*
X166458Y-177740D01*
X167314Y-177815D01*
X168270Y-177840D01*
Y-182840D01*
X167314Y-182865D01*
X166458Y-182940D01*
X165704Y-183065D01*
X165050Y-183240D01*
X164497Y-183465D01*
X164044Y-183740D01*
X163692Y-184065D01*
X163440Y-184440D01*
X163289Y-184865D01*
X163239Y-185340D01*
Y-175340D01*
X163289Y-175815D01*
D02*
G37*
G36*
X176352Y-10797D02*
X177878Y-12157D01*
X178588Y-12710D01*
X179263Y-13177D01*
X179903Y-13560D01*
X180508Y-13858D01*
X181078Y-14070D01*
X181613Y-14197D01*
X182113Y-14240D01*
Y-16240D01*
X181613Y-16283D01*
X181078Y-16410D01*
X180508Y-16623D01*
X179903Y-16920D01*
X179263Y-17303D01*
X178588Y-17770D01*
X177878Y-18322D01*
X176352Y-19683D01*
X175536Y-20490D01*
Y-9990D01*
X176352Y-10797D01*
D02*
G37*
G36*
X22596Y-20037D02*
X22540Y-20220D01*
Y-20433D01*
X22596Y-20673D01*
X22710Y-20942D01*
X22879Y-21239D01*
X23105Y-21564D01*
X23388Y-21918D01*
X24124Y-22710D01*
X22710Y-24124D01*
X22299Y-23728D01*
X21564Y-23105D01*
X21239Y-22879D01*
X20942Y-22710D01*
X20673Y-22596D01*
X20433Y-22540D01*
X20220D01*
X20037Y-22596D01*
X19881Y-22710D01*
X22710Y-19881D01*
X22596Y-20037D01*
D02*
G37*
G36*
X55193Y-45837D02*
X55142Y-45922D01*
X55097Y-46064D01*
X55058Y-46262D01*
X55025Y-46517D01*
X54977Y-47196D01*
X54950Y-48640D01*
X49950D01*
X49947Y-48102D01*
X49803Y-46064D01*
X49758Y-45922D01*
X49707Y-45837D01*
X49650Y-45809D01*
X55251D01*
X55193Y-45837D01*
D02*
G37*
G36*
X218681Y-17202D02*
X217510Y-17440D01*
X217510Y-17440D01*
X217510Y-17440D01*
X196510D01*
Y-19050D01*
X194310D01*
X194310Y-19050D01*
Y-19050D01*
X193235Y-18558D01*
X187034Y-12356D01*
X185711Y-11472D01*
X184150Y-11162D01*
X184150Y-11162D01*
X182069D01*
X181971Y-11138D01*
X181721Y-11045D01*
X181365Y-10870D01*
X180920Y-10604D01*
X180399Y-10244D01*
X179836Y-9806D01*
X178447Y-8568D01*
X177815Y-7942D01*
X177669Y-7751D01*
X175475Y-6068D01*
X172921Y-5010D01*
X172662Y-4976D01*
X172746Y-3706D01*
X218681D01*
Y-17202D01*
D02*
G37*
G36*
X63285Y-24412D02*
X65839Y-25470D01*
X67077Y-25633D01*
X67352Y-25726D01*
X69613Y-26028D01*
X70486Y-26182D01*
X72046Y-26546D01*
X72576Y-26711D01*
X73002Y-26874D01*
X73280Y-27009D01*
X73362Y-27060D01*
X80936Y-34634D01*
X82259Y-35518D01*
X83820Y-35828D01*
X150711D01*
X160171Y-45289D01*
X159685Y-46462D01*
X139567D01*
X139501Y-46418D01*
X137160Y-45953D01*
X134819Y-46418D01*
X132834Y-47744D01*
X131508Y-49729D01*
X131042Y-52070D01*
X131508Y-54411D01*
X132834Y-56396D01*
X133561Y-56882D01*
X133176Y-58152D01*
X130810D01*
X129249Y-58462D01*
X127926Y-59346D01*
X127926Y-59346D01*
X124782Y-62490D01*
X124770Y-62494D01*
X124737Y-62502D01*
X124696Y-62509D01*
X124460Y-62463D01*
X122119Y-62928D01*
X120134Y-64254D01*
X118808Y-66239D01*
X118343Y-68580D01*
X118808Y-70921D01*
X120134Y-72906D01*
X121295Y-73682D01*
X120910Y-74952D01*
X116279D01*
X110230Y-68902D01*
X110226Y-68890D01*
X110218Y-68857D01*
X110211Y-68816D01*
X110258Y-68580D01*
X109792Y-66239D01*
X108466Y-64254D01*
X106481Y-62928D01*
X104140Y-62463D01*
X101799Y-62928D01*
X99814Y-64254D01*
X98488Y-66239D01*
X98022Y-68580D01*
X98488Y-70921D01*
X99814Y-72906D01*
X100014Y-73039D01*
X100039Y-73074D01*
X100056Y-73102D01*
X100062Y-73114D01*
Y-81585D01*
X99260Y-82261D01*
X97884Y-82033D01*
X97036Y-80764D01*
X95700Y-79872D01*
Y-50520D01*
X62526D01*
X62365Y-50406D01*
X60818Y-49077D01*
X60450Y-48709D01*
Y-33260D01*
X60461Y-33224D01*
X60450Y-33102D01*
Y-33043D01*
X60478Y-32901D01*
X60450Y-32758D01*
Y-29870D01*
X60328D01*
X59946Y-29210D01*
X60328Y-28550D01*
X60450D01*
Y-25662D01*
X60478Y-25519D01*
X60450Y-25377D01*
Y-25318D01*
X60461Y-25196D01*
X60450Y-25160D01*
Y-23837D01*
X61720Y-23211D01*
X63285Y-24412D01*
D02*
G37*
G36*
X142298Y-4976D02*
X142039Y-5010D01*
X139485Y-6068D01*
X137291Y-7751D01*
X135608Y-9945D01*
X134550Y-12499D01*
X134189Y-15240D01*
X134550Y-17981D01*
X135608Y-20535D01*
X137291Y-22729D01*
X139485Y-24412D01*
X142039Y-25470D01*
X144780Y-25831D01*
X145018Y-25799D01*
X145907Y-25804D01*
X147766Y-25911D01*
X148473Y-25999D01*
X149096Y-26112D01*
X149255Y-26152D01*
X149398Y-26402D01*
X148685Y-27632D01*
X148609Y-27672D01*
X85509D01*
X79271Y-21433D01*
X79223Y-21355D01*
X79137Y-21155D01*
X79042Y-20840D01*
X78958Y-20406D01*
X78897Y-19856D01*
X78872Y-19236D01*
X78948Y-17530D01*
X79057Y-16551D01*
X79033Y-16281D01*
X79171Y-15240D01*
X78810Y-12499D01*
X77752Y-9945D01*
X76069Y-7751D01*
X73875Y-6068D01*
X71321Y-5010D01*
X71062Y-4976D01*
X71146Y-3706D01*
X91414D01*
X91498Y-4976D01*
X91239Y-5010D01*
X88685Y-6068D01*
X86491Y-7751D01*
X84808Y-9945D01*
X83750Y-12499D01*
X83389Y-15240D01*
X83750Y-17981D01*
X84808Y-20535D01*
X86491Y-22729D01*
X88685Y-24412D01*
X91239Y-25470D01*
X93980Y-25831D01*
X96721Y-25470D01*
X99275Y-24412D01*
X101469Y-22729D01*
X103152Y-20535D01*
X104210Y-17981D01*
X104571Y-15240D01*
X104210Y-12499D01*
X103152Y-9945D01*
X101469Y-7751D01*
X99275Y-6068D01*
X96721Y-5010D01*
X96462Y-4976D01*
X96546Y-3706D01*
X142214D01*
X142298Y-4976D01*
D02*
G37*
G36*
X75896Y-17293D02*
X75810Y-19230D01*
X75845Y-20086D01*
X75931Y-20867D01*
X76069Y-21574D01*
X76259Y-22206D01*
X76500Y-22763D01*
X76792Y-23245D01*
X77137Y-23653D01*
X75550Y-24895D01*
X75202Y-24602D01*
X74757Y-24325D01*
X74217Y-24065D01*
X73581Y-23820D01*
X72849Y-23592D01*
X71099Y-23184D01*
X70081Y-23005D01*
X67757Y-22695D01*
X76017Y-16212D01*
X75896Y-17293D01*
D02*
G37*
G36*
X152285Y-16463D02*
X152403Y-18503D01*
X152514Y-19396D01*
X152661Y-20204D01*
X152843Y-20928D01*
X153061Y-21566D01*
X153314Y-22119D01*
X153602Y-22587D01*
X153925Y-22971D01*
X152511Y-24385D01*
X152127Y-24062D01*
X151659Y-23774D01*
X151106Y-23521D01*
X150468Y-23303D01*
X149744Y-23121D01*
X148936Y-22974D01*
X148043Y-22863D01*
X146003Y-22745D01*
X144855Y-22740D01*
X152280Y-15315D01*
X152285Y-16463D01*
D02*
G37*
G36*
X56950Y-25570D02*
X56530Y-25719D01*
X56160Y-25970D01*
X55839Y-26319D01*
X55567Y-26769D01*
X55345Y-27320D01*
X55172Y-27970D01*
X55049Y-28719D01*
X55006Y-29210D01*
X55049Y-29701D01*
X55172Y-30450D01*
X55345Y-31100D01*
X55567Y-31651D01*
X55839Y-32101D01*
X56160Y-32450D01*
X56530Y-32701D01*
X56950Y-32850D01*
X57420Y-32901D01*
X47481D01*
X47950Y-32850D01*
X48369Y-32701D01*
X48740Y-32450D01*
X49061Y-32101D01*
X49333Y-31651D01*
X49555Y-31100D01*
X49728Y-30450D01*
X49851Y-29701D01*
X49894Y-29210D01*
X49851Y-28719D01*
X49728Y-27970D01*
X49555Y-27320D01*
X49333Y-26769D01*
X49061Y-26319D01*
X48740Y-25970D01*
X48369Y-25719D01*
X47950Y-25570D01*
X47481Y-25519D01*
X57420D01*
X56950Y-25570D01*
D02*
G37*
G36*
X27681Y-50260D02*
X27714Y-50532D01*
X27769Y-50797D01*
X27846Y-51055D01*
X27945Y-51307D01*
X28066Y-51552D01*
X28209Y-51791D01*
X28374Y-52023D01*
X28561Y-52249D01*
X28770Y-52468D01*
X24570D01*
X24779Y-52249D01*
X24966Y-52023D01*
X25131Y-51791D01*
X25274Y-51552D01*
X25395Y-51307D01*
X25494Y-51055D01*
X25571Y-50797D01*
X25626Y-50532D01*
X25659Y-50260D01*
X25670Y-49982D01*
X27670D01*
X27681Y-50260D01*
D02*
G37*
G36*
X150481Y-64591D02*
X150294Y-64817D01*
X150129Y-65049D01*
X149986Y-65288D01*
X149865Y-65533D01*
X149766Y-65785D01*
X149689Y-66043D01*
X149634Y-66308D01*
X149601Y-66580D01*
X149598Y-66649D01*
X149600Y-66727D01*
X149678Y-67564D01*
X149747Y-67904D01*
X149835Y-68192D01*
X149943Y-68427D01*
X150071Y-68610D01*
X150218Y-68741D01*
X150385Y-68820D01*
X150571Y-68846D01*
X146609D01*
X146795Y-68820D01*
X146962Y-68741D01*
X147109Y-68610D01*
X147237Y-68427D01*
X147345Y-68192D01*
X147433Y-67904D01*
X147502Y-67564D01*
X147551Y-67172D01*
X147580Y-66727D01*
X147582Y-66649D01*
X147579Y-66580D01*
X147546Y-66308D01*
X147491Y-66043D01*
X147414Y-65785D01*
X147315Y-65533D01*
X147194Y-65288D01*
X147051Y-65049D01*
X146886Y-64817D01*
X146699Y-64591D01*
X146490Y-64372D01*
X150690D01*
X150481Y-64591D01*
D02*
G37*
G36*
X128440Y-66014D02*
X128251Y-66219D01*
X128082Y-66434D01*
X127934Y-66661D01*
X127805Y-66898D01*
X127697Y-67146D01*
X127609Y-67405D01*
X127542Y-67675D01*
X127494Y-67956D01*
X127467Y-68247D01*
X127460Y-68550D01*
X124490Y-65580D01*
X124793Y-65573D01*
X125084Y-65546D01*
X125365Y-65498D01*
X125635Y-65431D01*
X125894Y-65343D01*
X126142Y-65235D01*
X126379Y-65106D01*
X126606Y-64958D01*
X126821Y-64789D01*
X127026Y-64600D01*
X128440Y-66014D01*
D02*
G37*
G36*
X176584Y-69532D02*
X171396D01*
X171414Y-69459D01*
X171430Y-69288D01*
X171467Y-68191D01*
X171490Y-64410D01*
X176490D01*
X176584Y-69532D01*
D02*
G37*
G36*
X199663Y-69918D02*
X200131Y-70206D01*
X200684Y-70459D01*
X201322Y-70677D01*
X202046Y-70859D01*
X202854Y-71006D01*
X203747Y-71117D01*
X205787Y-71235D01*
X206935Y-71240D01*
X199510Y-78665D01*
X199505Y-77517D01*
X199387Y-75477D01*
X199276Y-74584D01*
X199129Y-73776D01*
X198947Y-73053D01*
X198729Y-72414D01*
X198476Y-71861D01*
X198188Y-71393D01*
X197865Y-71009D01*
X199279Y-69595D01*
X199663Y-69918D01*
D02*
G37*
G36*
X107147Y-68913D02*
X107174Y-69204D01*
X107222Y-69485D01*
X107289Y-69755D01*
X107377Y-70014D01*
X107485Y-70262D01*
X107614Y-70499D01*
X107762Y-70726D01*
X107931Y-70941D01*
X108120Y-71146D01*
X106706Y-72560D01*
X106501Y-72371D01*
X106286Y-72202D01*
X106059Y-72054D01*
X105822Y-71925D01*
X105574Y-71817D01*
X105466Y-71780D01*
X105415Y-71883D01*
X105316Y-72135D01*
X105239Y-72393D01*
X105184Y-72659D01*
X105151Y-72930D01*
X105140Y-73208D01*
X103140D01*
X103129Y-72930D01*
X103096Y-72659D01*
X103041Y-72393D01*
X102964Y-72135D01*
X102865Y-71883D01*
X102744Y-71638D01*
X102601Y-71399D01*
X102436Y-71167D01*
X102249Y-70941D01*
X102040Y-70722D01*
X105027D01*
X107140Y-68610D01*
X107147Y-68913D01*
D02*
G37*
G36*
X66098Y-4976D02*
X65839Y-5010D01*
X63285Y-6068D01*
X61091Y-7751D01*
X59711Y-9550D01*
X44450D01*
Y-25160D01*
X44439Y-25196D01*
X44450Y-25318D01*
Y-25377D01*
X44422Y-25519D01*
X44450Y-25662D01*
Y-28550D01*
X44572D01*
X44953Y-29210D01*
X44572Y-29870D01*
X44450D01*
Y-32758D01*
X44422Y-32901D01*
X44450Y-33043D01*
Y-33102D01*
X44439Y-33224D01*
X44450Y-33260D01*
Y-48870D01*
X46888D01*
X47269Y-50786D01*
X48485Y-52605D01*
X55100Y-59221D01*
X55499Y-59675D01*
X56036Y-60356D01*
X56439Y-60944D01*
X56700Y-61403D01*
Y-83520D01*
X70464D01*
X70483Y-83590D01*
X70564Y-84076D01*
X70592Y-84403D01*
Y-92710D01*
X71019Y-94856D01*
X72235Y-96675D01*
X79205Y-103645D01*
X81024Y-104861D01*
X83170Y-105288D01*
X97703D01*
X99060Y-105558D01*
X110276D01*
X110598Y-105586D01*
X111088Y-105666D01*
X111150Y-105683D01*
Y-107950D01*
X114038D01*
X114180Y-107978D01*
X114323Y-107950D01*
X114382D01*
X114505Y-107961D01*
X114540Y-107950D01*
X126760D01*
X126795Y-107961D01*
X126918Y-107950D01*
X126977D01*
X127120Y-107978D01*
X127262Y-107950D01*
X130150D01*
Y-106857D01*
X131420Y-106330D01*
X142982Y-117893D01*
Y-135000D01*
X142938Y-136117D01*
X142860Y-136958D01*
X142829Y-137162D01*
X142815Y-137226D01*
X142788Y-137307D01*
X142749Y-137640D01*
X142472Y-139030D01*
Y-155030D01*
X142938Y-157371D01*
X144264Y-159356D01*
X146249Y-160682D01*
X148590Y-161147D01*
X150931Y-160682D01*
X152916Y-159356D01*
X154242Y-157371D01*
X154707Y-155030D01*
Y-139030D01*
X154431Y-137640D01*
X154391Y-137307D01*
X154380Y-137272D01*
X154198Y-134057D01*
Y-115570D01*
X153771Y-113424D01*
X152555Y-111605D01*
X136935Y-95985D01*
X135116Y-94769D01*
X132970Y-94342D01*
X131024D01*
X130702Y-94314D01*
X130212Y-94234D01*
X130150Y-94217D01*
Y-91950D01*
X128844D01*
X128798Y-91306D01*
Y-90037D01*
X128842Y-89971D01*
X128952Y-89416D01*
X130153Y-89374D01*
X130252Y-89392D01*
X131564Y-91356D01*
X133549Y-92682D01*
X135890Y-93147D01*
X138231Y-92682D01*
X140216Y-91356D01*
X141542Y-89371D01*
X141593Y-89116D01*
X142887D01*
X142938Y-89371D01*
X144264Y-91356D01*
X146249Y-92682D01*
X148590Y-93147D01*
X150931Y-92682D01*
X152916Y-91356D01*
X154242Y-89371D01*
X154707Y-87030D01*
Y-71030D01*
X154242Y-68689D01*
X152916Y-66704D01*
Y-66556D01*
X154242Y-64571D01*
X154707Y-62230D01*
X154242Y-59889D01*
X153613Y-58948D01*
X154292Y-57678D01*
X160237D01*
X168382Y-65823D01*
Y-68623D01*
X168338Y-68689D01*
X167873Y-71030D01*
Y-87030D01*
X168338Y-89371D01*
X169664Y-91356D01*
X171649Y-92682D01*
X173990Y-93147D01*
X176331Y-92682D01*
X177532Y-91880D01*
X178802Y-92558D01*
Y-180034D01*
X177532Y-180159D01*
X177369Y-179344D01*
X177102Y-177999D01*
X175776Y-176014D01*
X173791Y-174688D01*
X171450Y-174223D01*
X169109Y-174688D01*
X169043Y-174732D01*
X167174D01*
X166843Y-174703D01*
X166351Y-174622D01*
X166300Y-174608D01*
Y-172110D01*
X147800D01*
Y-191110D01*
X166300D01*
Y-186072D01*
X166351Y-186058D01*
X166843Y-185977D01*
X167174Y-185948D01*
X169043D01*
X169109Y-185992D01*
X171450Y-186458D01*
X173791Y-185992D01*
X175776Y-184666D01*
X177102Y-182681D01*
X177369Y-181336D01*
X177532Y-180520D01*
X178802Y-180646D01*
Y-190081D01*
X172301Y-196582D01*
X166300D01*
Y-194970D01*
X147800D01*
Y-213970D01*
X152972D01*
Y-217830D01*
X147800D01*
Y-231217D01*
X147654Y-231388D01*
X141051Y-237991D01*
X139700Y-237722D01*
X137359Y-238188D01*
X135374Y-239514D01*
X134048Y-241499D01*
X133582Y-243840D01*
X134048Y-246181D01*
X135374Y-248166D01*
X137359Y-249492D01*
X139700Y-249958D01*
X142041Y-249492D01*
X144026Y-248166D01*
X145352Y-246181D01*
X145444Y-245720D01*
X145481Y-245654D01*
X145548Y-245448D01*
X145695Y-245074D01*
X145728Y-245005D01*
X145893Y-244715D01*
X145934Y-244653D01*
X145964Y-244614D01*
X153525Y-237052D01*
X153765Y-236830D01*
X166300D01*
Y-217830D01*
X161128D01*
Y-213970D01*
X166300D01*
Y-204738D01*
X173990D01*
X173990Y-204738D01*
X175551Y-204428D01*
X176874Y-203544D01*
X185764Y-194654D01*
X185764Y-194654D01*
X186648Y-193331D01*
X186958Y-191770D01*
X186958Y-191770D01*
Y-91515D01*
X188132Y-91029D01*
X194310Y-97208D01*
Y-241300D01*
X204101D01*
X204269Y-241370D01*
X207010Y-241731D01*
X209751Y-241370D01*
X209919Y-241300D01*
X218681D01*
Y-252971D01*
X3569D01*
Y-227992D01*
X4708Y-227430D01*
X4945Y-227612D01*
X7499Y-228670D01*
X10240Y-229031D01*
X20240D01*
X22981Y-228670D01*
X25535Y-227612D01*
X27729Y-225929D01*
X29412Y-223735D01*
X29916Y-222518D01*
X30480D01*
X30480Y-222518D01*
X32041Y-222208D01*
X33364Y-221324D01*
X43524Y-211164D01*
X43524Y-211164D01*
X44408Y-209841D01*
X44718Y-208280D01*
Y-155664D01*
X44724Y-155653D01*
X44742Y-155624D01*
X44766Y-155589D01*
X44966Y-155456D01*
X46292Y-153471D01*
X46757Y-151130D01*
X46292Y-148789D01*
X44966Y-146804D01*
X42981Y-145478D01*
X40640Y-145013D01*
X38299Y-145478D01*
X36314Y-146804D01*
X34988Y-148789D01*
X34523Y-151130D01*
X34988Y-153471D01*
X36314Y-155456D01*
X36514Y-155589D01*
X36539Y-155624D01*
X36556Y-155652D01*
X36562Y-155664D01*
Y-206591D01*
X30496Y-212657D01*
X28891Y-212466D01*
X27729Y-210951D01*
X25535Y-209268D01*
X22981Y-208210D01*
X20240Y-207849D01*
X10240D01*
X7499Y-208210D01*
X4945Y-209268D01*
X4708Y-209450D01*
X3569Y-208888D01*
Y-202591D01*
X4708Y-202030D01*
X4945Y-202212D01*
X7499Y-203270D01*
X10240Y-203631D01*
X20240D01*
X22981Y-203270D01*
X25535Y-202212D01*
X27729Y-200529D01*
X29412Y-198335D01*
X30470Y-195781D01*
X30831Y-193040D01*
X30470Y-190299D01*
X29412Y-187745D01*
X27729Y-185551D01*
X25535Y-183868D01*
X22981Y-182810D01*
X20240Y-182449D01*
X10240D01*
X7499Y-182810D01*
X4945Y-183868D01*
X4708Y-184050D01*
X3569Y-183489D01*
Y-177192D01*
X4708Y-176630D01*
X4945Y-176812D01*
X7499Y-177870D01*
X10240Y-178231D01*
X20240D01*
X22981Y-177870D01*
X25535Y-176812D01*
X27729Y-175129D01*
X29412Y-172935D01*
X30470Y-170381D01*
X30831Y-167640D01*
X30470Y-164899D01*
X29412Y-162345D01*
X27729Y-160151D01*
X25535Y-158468D01*
X22981Y-157410D01*
X20240Y-157049D01*
X10240D01*
X7499Y-157410D01*
X4945Y-158468D01*
X4708Y-158650D01*
X3569Y-158089D01*
Y-151791D01*
X4708Y-151230D01*
X4945Y-151412D01*
X7499Y-152470D01*
X10240Y-152831D01*
X20240D01*
X22981Y-152470D01*
X25535Y-151412D01*
X27729Y-149729D01*
X29412Y-147535D01*
X30470Y-144981D01*
X30831Y-142240D01*
X30470Y-139499D01*
X29412Y-136945D01*
X27729Y-134751D01*
X25535Y-133068D01*
X22981Y-132010D01*
X20240Y-131649D01*
X10240D01*
X7499Y-132010D01*
X4945Y-133068D01*
X4708Y-133250D01*
X3569Y-132689D01*
Y-126391D01*
X4708Y-125830D01*
X4945Y-126012D01*
X7499Y-127070D01*
X10240Y-127431D01*
X20240D01*
X22981Y-127070D01*
X25535Y-126012D01*
X27729Y-124329D01*
X29412Y-122135D01*
X30470Y-119581D01*
X30831Y-116840D01*
X30470Y-114099D01*
X29412Y-111545D01*
X27729Y-109351D01*
X25535Y-107668D01*
X22981Y-106610D01*
X20240Y-106249D01*
X10240D01*
X7499Y-106610D01*
X4945Y-107668D01*
X4708Y-107850D01*
X3569Y-107289D01*
Y-101940D01*
X30740D01*
Y-98246D01*
X31222Y-97993D01*
X32492Y-98761D01*
Y-110920D01*
X32919Y-113066D01*
X34135Y-114885D01*
X43321Y-124071D01*
X43591Y-124388D01*
X44009Y-124944D01*
X44356Y-125474D01*
X44635Y-125977D01*
X44851Y-126453D01*
X45009Y-126901D01*
X45117Y-127324D01*
X45178Y-127729D01*
X45200Y-128156D01*
Y-142520D01*
X61200D01*
Y-109520D01*
X45200D01*
X45200Y-109520D01*
Y-109520D01*
X44130Y-109020D01*
X43708Y-108597D01*
Y-93946D01*
X43711Y-93834D01*
X43746Y-93470D01*
X45060D01*
Y-90582D01*
X45088Y-90440D01*
X45060Y-90297D01*
Y-77470D01*
X26060D01*
Y-80940D01*
X3569D01*
Y-42160D01*
X4839Y-42077D01*
X5010Y-43381D01*
X6068Y-45935D01*
X7751Y-48129D01*
X9945Y-49812D01*
X12499Y-50870D01*
X15240Y-51231D01*
X17981Y-50870D01*
X20535Y-49812D01*
X20561Y-49792D01*
X21932Y-50341D01*
X22003Y-50795D01*
X21018Y-52269D01*
X20552Y-54610D01*
X21018Y-56951D01*
X22344Y-58936D01*
X24329Y-60262D01*
X26670Y-60728D01*
X29011Y-60262D01*
X30996Y-58936D01*
X32322Y-56951D01*
X32787Y-54610D01*
X32322Y-52269D01*
X30996Y-50284D01*
X30796Y-50151D01*
X30771Y-50116D01*
X30754Y-50088D01*
X30748Y-50076D01*
Y-26670D01*
X30438Y-25109D01*
X29554Y-23786D01*
X25966Y-20199D01*
X25751Y-19967D01*
X25768Y-19881D01*
X25740Y-19739D01*
Y-4976D01*
X25740Y-4740D01*
X26310Y-3706D01*
X66014D01*
X66098Y-4976D01*
D02*
G37*
G36*
X167698D02*
X167439Y-5010D01*
X164885Y-6068D01*
X162691Y-7751D01*
X161008Y-9945D01*
X159950Y-12499D01*
X159589Y-15240D01*
X159950Y-17981D01*
X161008Y-20535D01*
X162691Y-22729D01*
X164885Y-24412D01*
X167439Y-25470D01*
X170180Y-25831D01*
X172921Y-25470D01*
X175475Y-24412D01*
X177669Y-22729D01*
X177815Y-22538D01*
X178447Y-21913D01*
X179836Y-20674D01*
X180399Y-20236D01*
X180920Y-19876D01*
X181365Y-19610D01*
X181721Y-19435D01*
X181971Y-19342D01*
X182069Y-19318D01*
X182461D01*
X190232Y-27089D01*
Y-53265D01*
X189058Y-53751D01*
X156071Y-20763D01*
X156018Y-20677D01*
X155907Y-20434D01*
X155779Y-20059D01*
X155652Y-19557D01*
X155539Y-18933D01*
X155451Y-18226D01*
X155344Y-16367D01*
X155339Y-15478D01*
X155371Y-15240D01*
X155010Y-12499D01*
X153952Y-9945D01*
X152269Y-7751D01*
X150075Y-6068D01*
X147521Y-5010D01*
X147262Y-4976D01*
X147346Y-3706D01*
X167614D01*
X167698Y-4976D01*
D02*
G37*
G36*
X58495Y-51114D02*
X60478Y-52817D01*
X61328Y-53422D01*
X62083Y-53861D01*
X62742Y-54135D01*
X63307Y-54244D01*
X63777Y-54188D01*
X64152Y-53967D01*
X64432Y-53581D01*
X59761Y-62991D01*
X59935Y-62499D01*
X59990Y-61959D01*
X59928Y-61371D01*
X59748Y-60736D01*
X59451Y-60052D01*
X59035Y-59322D01*
X58502Y-58543D01*
X57851Y-57716D01*
X57082Y-56842D01*
X56195Y-55921D01*
X57361Y-50015D01*
X58495Y-51114D01*
D02*
G37*
G36*
X146448Y-64330D02*
X146229Y-64121D01*
X146003Y-63934D01*
X145771Y-63769D01*
X145532Y-63626D01*
X145287Y-63505D01*
X145035Y-63406D01*
X144777Y-63329D01*
X144511Y-63274D01*
X144240Y-63241D01*
X143962Y-63230D01*
Y-61230D01*
X144240Y-61219D01*
X144511Y-61186D01*
X144777Y-61131D01*
X145035Y-61054D01*
X145287Y-60955D01*
X145532Y-60834D01*
X145771Y-60691D01*
X146003Y-60526D01*
X146229Y-60339D01*
X146448Y-60130D01*
Y-64330D01*
D02*
G37*
%LPC*%
G36*
X109220Y-192003D02*
X106879Y-192468D01*
X104894Y-193794D01*
X103568Y-195779D01*
X103103Y-198120D01*
X103568Y-200461D01*
X104894Y-202446D01*
X106879Y-203772D01*
X106957Y-203787D01*
X111605Y-208435D01*
X113424Y-209651D01*
X115570Y-210078D01*
X124926D01*
X125257Y-210107D01*
X125749Y-210188D01*
X125800Y-210202D01*
Y-213970D01*
X144300D01*
Y-194970D01*
X125800D01*
Y-198738D01*
X125749Y-198752D01*
X125257Y-198833D01*
X124926Y-198862D01*
X117893D01*
X114887Y-195857D01*
X114872Y-195779D01*
X113546Y-193794D01*
X111561Y-192468D01*
X109220Y-192003D01*
D02*
G37*
G36*
X84200Y-109520D02*
X68200D01*
Y-142520D01*
X74474D01*
X75153Y-143790D01*
X74358Y-144979D01*
X73892Y-147320D01*
X74358Y-149661D01*
X74402Y-149727D01*
Y-152302D01*
X72604D01*
X72273Y-152273D01*
X71781Y-152192D01*
X71730Y-152178D01*
Y-148660D01*
X52730D01*
Y-167160D01*
X71730D01*
Y-163642D01*
X71781Y-163628D01*
X72273Y-163547D01*
X72604Y-163518D01*
X74716D01*
X75047Y-163547D01*
X75539Y-163628D01*
X75590Y-163642D01*
Y-167160D01*
X91161D01*
X91172Y-167164D01*
X91225Y-167160D01*
X91428D01*
X91574Y-167188D01*
X91713Y-167160D01*
X94005D01*
X95250Y-167407D01*
X97591Y-166942D01*
X99576Y-165616D01*
X100902Y-163631D01*
X101368Y-161290D01*
X100902Y-158949D01*
X100171Y-157855D01*
X99639Y-156845D01*
X100171Y-155835D01*
X100902Y-154741D01*
X101368Y-152400D01*
X100902Y-150059D01*
X100858Y-149993D01*
Y-147320D01*
X100431Y-145174D01*
X99215Y-143355D01*
X86081Y-130221D01*
X85812Y-129905D01*
X85394Y-129350D01*
X85048Y-128820D01*
X84769Y-128317D01*
X84553Y-127840D01*
X84393Y-127391D01*
X84285Y-126965D01*
X84223Y-126558D01*
X84200Y-126129D01*
Y-109520D01*
D02*
G37*
%LPD*%
G36*
X82529Y-148154D02*
X82585Y-148901D01*
X82678Y-149560D01*
X82809Y-150132D01*
X82978Y-150616D01*
X83183Y-151012D01*
X83427Y-151321D01*
X83707Y-151542D01*
X84025Y-151675D01*
X84381Y-151721D01*
X78621Y-151691D01*
X78410Y-151647D01*
X78221Y-151516D01*
X78054Y-151297D01*
X77910Y-150991D01*
X77788Y-150598D01*
X77688Y-150117D01*
X77610Y-149549D01*
X77521Y-148150D01*
X77510Y-147320D01*
X82510D01*
X82529Y-148154D01*
D02*
G37*
G36*
X81176Y-126872D02*
X81284Y-127576D01*
X81463Y-128280D01*
X81713Y-128986D01*
X82035Y-129693D01*
X82427Y-130400D01*
X82890Y-131109D01*
X83424Y-131818D01*
X84029Y-132528D01*
X84705Y-133239D01*
Y-140311D01*
X84522Y-140155D01*
X84301Y-140015D01*
X84042Y-139892D01*
X83745Y-139785D01*
X83411Y-139695D01*
X83038Y-139621D01*
X82628Y-139563D01*
X81693Y-139498D01*
X81170Y-139489D01*
X81139Y-126168D01*
X81176Y-126872D01*
D02*
G37*
G36*
X78651Y-162910D02*
X78601Y-162435D01*
X78450Y-162010D01*
X78198Y-161635D01*
X77846Y-161310D01*
X77393Y-161035D01*
X76840Y-160810D01*
X76186Y-160635D01*
X75431Y-160510D01*
X74576Y-160435D01*
X73660Y-160411D01*
X72744Y-160435D01*
X71888Y-160510D01*
X71134Y-160635D01*
X70480Y-160810D01*
X69927Y-161035D01*
X69474Y-161310D01*
X69122Y-161635D01*
X68870Y-162010D01*
X68719Y-162435D01*
X68669Y-162910D01*
Y-152910D01*
X68719Y-153385D01*
X68870Y-153810D01*
X69122Y-154185D01*
X69474Y-154510D01*
X69927Y-154785D01*
X70480Y-155010D01*
X71134Y-155185D01*
X71888Y-155310D01*
X72744Y-155385D01*
X73660Y-155409D01*
X74576Y-155385D01*
X75431Y-155310D01*
X76186Y-155185D01*
X76840Y-155010D01*
X77393Y-154785D01*
X77846Y-154510D01*
X78198Y-154185D01*
X78450Y-153810D01*
X78601Y-153385D01*
X78651Y-152910D01*
Y-162910D01*
D02*
G37*
G36*
X128861Y-209470D02*
X128811Y-208995D01*
X128660Y-208570D01*
X128408Y-208195D01*
X128056Y-207870D01*
X127603Y-207595D01*
X127050Y-207370D01*
X126396Y-207195D01*
X125641Y-207070D01*
X124786Y-206995D01*
X123830Y-206970D01*
Y-201970D01*
X124786Y-201945D01*
X125641Y-201870D01*
X126396Y-201745D01*
X127050Y-201570D01*
X127603Y-201345D01*
X128056Y-201070D01*
X128408Y-200745D01*
X128660Y-200370D01*
X128811Y-199945D01*
X128861Y-199470D01*
Y-209470D01*
D02*
G37*
G36*
X91567Y-157826D02*
X91680Y-158028D01*
X91866Y-158207D01*
X92127Y-158361D01*
X92462Y-158492D01*
X92871Y-158600D01*
X93355Y-158683D01*
X93912Y-158742D01*
X95250Y-158790D01*
Y-163790D01*
X94549Y-163793D01*
X91892Y-163956D01*
X91707Y-164007D01*
X91596Y-164065D01*
X91559Y-164130D01*
X91529Y-157599D01*
X91567Y-157826D01*
D02*
G37*
D11*
X35560Y-69470D02*
D03*
Y-85470D02*
D03*
X120650Y-115950D02*
D03*
Y-99950D02*
D03*
D12*
X52450Y-48640D02*
X76200Y-72390D01*
X82550Y-157910D02*
X88060Y-152400D01*
X76200Y-68580D02*
X85090Y-77470D01*
X88470Y-161290D02*
X95250D01*
X85090Y-157910D02*
X88470Y-161290D01*
X15240Y-91440D02*
X33400D01*
X38100Y-86740D01*
X15240Y-66040D02*
X33400D01*
X135890Y-161290D02*
Y-147030D01*
X38100Y-110920D02*
X53200Y-126020D01*
X38100Y-110920D02*
Y-86740D01*
X110580Y-126020D02*
X120650Y-115950D01*
X99200Y-126020D02*
X110580D01*
X76200Y-128270D02*
Y-126020D01*
Y-128270D02*
X95250Y-147320D01*
Y-152400D02*
Y-147320D01*
X99200Y-126020D02*
Y-123330D01*
X120650Y-138430D02*
Y-115950D01*
Y-138430D02*
X128270Y-146050D01*
X134910D01*
X135890Y-147030D01*
X161290D02*
X173990D01*
X135890Y-161290D02*
X143510Y-168910D01*
X161290Y-163830D02*
Y-147030D01*
X156210Y-168910D02*
X161290Y-163830D01*
X143510Y-168910D02*
X156210D01*
X161290Y-147030D02*
Y-79030D01*
X148590Y-147030D02*
Y-115570D01*
X123190Y-97410D02*
Y-87630D01*
X120650Y-99950D02*
X123190Y-97410D01*
X62230Y-157910D02*
X82550D01*
X80010Y-155370D02*
Y-147320D01*
Y-155370D02*
X82550Y-157910D01*
X88060Y-152400D02*
X95250D01*
X62230Y-179910D02*
X82550D01*
X54180D02*
X62230D01*
X40640Y-139700D02*
Y-129540D01*
X36450Y-21590D02*
X36710Y-21850D01*
X36450Y-58237D02*
X36710Y-57977D01*
X36450Y-69090D02*
Y-58237D01*
Y-69090D02*
X38100Y-70740D01*
X36710Y-57977D02*
Y-21850D01*
X33400Y-66040D02*
X36450Y-69090D01*
X76200Y-72390D02*
Y-68580D01*
X52450Y-48640D02*
Y-39370D01*
Y-21590D01*
X120650Y-99950D02*
X132970D01*
X148590Y-115570D01*
X135890Y-180770D02*
Y-161290D01*
X135050Y-181610D02*
X135890Y-180770D01*
X158320Y-180340D02*
X171450D01*
X157050Y-181610D02*
X158320Y-180340D01*
X115570Y-204470D02*
X135050D01*
X109220Y-198120D02*
X115570Y-204470D01*
X38100Y-70740D02*
X44070D01*
X50800Y-77470D01*
Y-88900D02*
Y-77470D01*
X98790Y-99680D02*
X99060Y-99950D01*
X120650D01*
X49530Y-175260D02*
X54180Y-179910D01*
X49530Y-175260D02*
Y-148590D01*
X40640Y-139700D02*
X49530Y-148590D01*
X76200Y-92710D02*
Y-72390D01*
Y-92710D02*
X83170Y-99680D01*
X98790D01*
X82582Y-106712D02*
X99200Y-123330D01*
X68612Y-106712D02*
X82582D01*
X50800Y-88900D02*
X68612Y-106712D01*
X173990Y-79030D02*
Y-63500D01*
X137160Y-52070D02*
X162560D01*
X173990Y-63500D01*
X161290Y-79030D02*
Y-63500D01*
D13*
X157050Y-200660D02*
X173990D01*
X104140Y-68580D02*
X114590Y-79030D01*
X135890D01*
X104140Y-83820D02*
Y-68580D01*
X157050Y-204470D02*
Y-200660D01*
Y-227330D02*
Y-204470D01*
Y-227760D02*
Y-227330D01*
X124460Y-68580D02*
X130810Y-62230D01*
X170180Y-15240D02*
X184150D01*
X194310Y-66040D02*
X207010Y-78740D01*
X194310Y-66040D02*
Y-25400D01*
X184150Y-15240D02*
X194310Y-25400D01*
X187960Y-85090D02*
X207010Y-104140D01*
X187960Y-85090D02*
Y-58420D01*
X144780Y-15240D02*
X187960Y-58420D01*
X87630Y-91440D02*
X96520D01*
X104140Y-83820D01*
X30480Y-218440D02*
X40640Y-208280D01*
X15240Y-218440D02*
X30480D01*
X40640Y-208280D02*
Y-151130D01*
X68580Y-16510D02*
Y-15240D01*
Y-16510D02*
X83820Y-31750D01*
X15240Y-15240D02*
X26670Y-26670D01*
X173990Y-200660D02*
X182880Y-191770D01*
X139700Y-243840D02*
X140970D01*
X157050Y-227760D01*
X26670Y-54610D02*
Y-26670D01*
X83820Y-31750D02*
X152400D01*
X182880Y-62230D01*
Y-191770D02*
Y-62230D01*
X148590Y-79030D02*
Y-62230D01*
X130810D02*
X148590D01*
D15*
X15240Y-15240D02*
D03*
X207010Y-27940D02*
D03*
D16*
X15240Y-40640D02*
D03*
Y-66040D02*
D03*
X207010Y-78740D02*
D03*
Y-104140D02*
D03*
Y-129540D02*
D03*
Y-154940D02*
D03*
Y-180340D02*
D03*
Y-205740D02*
D03*
Y-231140D02*
D03*
Y-53340D02*
D03*
X170180Y-15240D02*
D03*
X144780D02*
D03*
X119380D02*
D03*
X93980D02*
D03*
X68580D02*
D03*
D17*
X15240Y-142240D02*
D03*
Y-116840D02*
D03*
Y-167640D02*
D03*
Y-193040D02*
D03*
Y-218440D02*
D03*
Y-243840D02*
D03*
D18*
Y-91440D02*
D03*
D19*
X85090Y-77470D02*
D03*
X95250Y-161290D02*
D03*
X41910Y-224790D02*
D03*
X31750Y-205740D02*
D03*
X46990Y-105410D02*
D03*
X104140Y-68580D02*
D03*
X124460D02*
D03*
X137160Y-52070D02*
D03*
X135890Y-161290D02*
D03*
X87630Y-91440D02*
D03*
X92710Y-85090D02*
D03*
X95250Y-152400D02*
D03*
X123190Y-87630D02*
D03*
X80010Y-147320D02*
D03*
X40640Y-129540D02*
D03*
Y-151130D02*
D03*
X171450Y-180340D02*
D03*
X109220Y-198120D02*
D03*
X139700Y-243840D02*
D03*
X26670Y-54610D02*
D03*
X148590Y-62230D02*
D03*
X161290Y-63500D02*
D03*
D20*
X99200Y-126020D02*
D03*
X76200D02*
D03*
X53200D02*
D03*
D21*
X76200Y-67020D02*
D03*
D22*
X173990Y-147030D02*
D03*
X161290D02*
D03*
X148590D02*
D03*
X135890D02*
D03*
X173990Y-79030D02*
D03*
X161290D02*
D03*
X148590D02*
D03*
X135890D02*
D03*
D23*
X157050Y-227330D02*
D03*
X135050D02*
D03*
Y-204470D02*
D03*
X157050D02*
D03*
Y-181610D02*
D03*
X135050D02*
D03*
D24*
X62230Y-157910D02*
D03*
Y-179910D02*
D03*
X85090D02*
D03*
Y-157910D02*
D03*
D25*
X52450Y-39370D02*
D03*
X36450D02*
D03*
X52450Y-19050D02*
D03*
X36450D02*
D03*
M02*
