M48
;Layer_Color=9474304
;FILE_FORMAT=4:4
METRIC,LZ
;TYPE=PLATED
T1F00S00C0.3000
T2F00S00C0.9000
T3F00S00C1.0000
T4F00S00C1.2000
%
T01
X0004191Y-0022479
X0003175Y-0020574
X0004064Y-0015113
Y-0012954
X0004699Y-0010541
X0008763Y-0009144
X0009271Y-0008509
X0008509Y-0007747
X0010414Y-0006858
X0012446
X0012319Y-0008763
X0013716Y-0005207
X0014859Y-0006223
X0016129Y-000635
X0013589Y-0016129
X0009525
Y-001524
X0008001Y-0014732
X0010922Y-0019812
X001397Y-0024384
X0017145Y-0018034
X0002667Y-0005461
T02
X0001524Y-0006604
Y-0004064
Y-0001524
X0020701Y-0002794
Y-0005334
Y-0007874
Y-0010414
Y-0012954
Y-0015494
Y-0018034
Y-0020574
Y-0023114
T03
X0006858Y-0001524
X0009398
X0011938
X0014478
X0017018
T04
X0001524Y-0024384
Y-0021844
Y-0019304
Y-0016764
Y-0014224
Y-0011684
Y-0009144
M30
