G04 Layer_Color=65535*
%FSLAX44Y44*%
%MOMM*%
G71*
G01*
G75*
%ADD13C,0.2000*%
%ADD26C,0.2500*%
%ADD27C,0.6000*%
%ADD28C,0.1778*%
%ADD29C,0.1270*%
%ADD30C,0.1200*%
D13*
X2540Y-78740D02*
Y-2540D01*
Y-78740D02*
X27940D01*
Y-2540D01*
X2540D02*
X27940D01*
X2540Y-256540D02*
X27940D01*
X2540D02*
Y-78740D01*
X27940D01*
Y-256540D02*
Y-78740D01*
X140490Y-251790D02*
Y-70790D01*
X80490Y-251790D02*
Y-70790D01*
Y-251790D02*
X140490D01*
X80490Y-70790D02*
X140490D01*
X32600Y-78740D02*
X43600D01*
X98640Y-52070D02*
X109640D01*
X118960D02*
X129960D01*
X194310Y-243840D02*
X219710D01*
X194310D02*
Y-15240D01*
X219710D01*
Y-243840D02*
Y-15240D01*
D26*
X157240Y-252340D02*
G03*
X157240Y-252340I-1250J0D01*
G01*
D27*
X133490Y-241790D02*
G03*
X133490Y-241790I-3000J0D01*
G01*
D28*
X184150Y-30480D02*
Y-2540D01*
X57150Y-30480D02*
Y-2540D01*
X184150D01*
X57150Y-30480D02*
X184150D01*
D29*
X63500Y-34290D02*
X73497D01*
Y-39288D01*
X71831Y-40954D01*
X68498D01*
X66832Y-39288D01*
Y-34290D01*
Y-37622D02*
X63500Y-40954D01*
X71831Y-50951D02*
X73497Y-49285D01*
Y-45953D01*
X71831Y-44287D01*
X70164D01*
X68498Y-45953D01*
Y-49285D01*
X66832Y-50951D01*
X65166D01*
X63500Y-49285D01*
Y-45953D01*
X65166Y-44287D01*
X73497Y-54284D02*
Y-60948D01*
Y-57616D01*
X63500D01*
X37144Y-240589D02*
X35478Y-238923D01*
X32146D01*
X30480Y-240589D01*
Y-247254D01*
X32146Y-248920D01*
X35478D01*
X37144Y-247254D01*
Y-243922D01*
X33812D01*
X40477Y-248920D02*
Y-238923D01*
X47141Y-248920D01*
Y-238923D01*
X30480Y-220980D02*
Y-210983D01*
X35478D01*
X37144Y-212649D01*
Y-215982D01*
X35478Y-217648D01*
X30480D01*
X47141Y-210983D02*
X40477D01*
Y-220980D01*
X47141D01*
X40477Y-215982D02*
X43809D01*
X37144Y-189789D02*
X35478Y-188123D01*
X32146D01*
X30480Y-189789D01*
Y-196454D01*
X32146Y-198120D01*
X35478D01*
X37144Y-196454D01*
X40477Y-188123D02*
Y-198120D01*
Y-194788D01*
X47141Y-188123D01*
X42143Y-193122D01*
X47141Y-198120D01*
X30480Y-162723D02*
Y-172720D01*
X35478D01*
X37144Y-171054D01*
Y-164389D01*
X35478Y-162723D01*
X30480D01*
X40477Y-172720D02*
Y-166056D01*
X43809Y-162723D01*
X47141Y-166056D01*
Y-172720D01*
Y-167722D01*
X40477D01*
X37144Y-137719D02*
X35478Y-136053D01*
X32146D01*
X30480Y-137719D01*
Y-144384D01*
X32146Y-146050D01*
X35478D01*
X37144Y-144384D01*
X40477Y-136053D02*
Y-146050D01*
Y-142718D01*
X47141Y-136053D01*
X42143Y-141052D01*
X47141Y-146050D01*
X30480Y-110653D02*
Y-120650D01*
X35478D01*
X37144Y-118984D01*
Y-112319D01*
X35478Y-110653D01*
X30480D01*
X40477Y-120650D02*
Y-113986D01*
X43809Y-110653D01*
X47141Y-113986D01*
Y-120650D01*
Y-115652D01*
X40477D01*
X37144Y-92873D02*
X30480D01*
Y-97872D01*
X33812Y-96206D01*
X35478D01*
X37144Y-97872D01*
Y-101204D01*
X35478Y-102870D01*
X32146D01*
X30480Y-101204D01*
X40477Y-92873D02*
Y-99538D01*
X43809Y-102870D01*
X47141Y-99538D01*
Y-92873D01*
X39685Y-53899D02*
X38018Y-52233D01*
X34686D01*
X33020Y-53899D01*
Y-60564D01*
X34686Y-62230D01*
X38018D01*
X39685Y-60564D01*
Y-57232D01*
X36352D01*
X43017Y-62230D02*
Y-52233D01*
X49681Y-62230D01*
Y-52233D01*
X53014D02*
Y-62230D01*
X58012D01*
X59678Y-60564D01*
Y-53899D01*
X58012Y-52233D01*
X53014D01*
X33020Y-44450D02*
Y-34453D01*
X38018D01*
X39685Y-36119D01*
Y-39452D01*
X38018Y-41118D01*
X33020D01*
X36352D02*
X39685Y-44450D01*
X43017Y-34453D02*
X49681Y-44450D01*
Y-34453D02*
X43017Y-44450D01*
X33020Y-10323D02*
X39685D01*
X36352D01*
Y-20320D01*
X43017Y-10323D02*
X49681Y-20320D01*
Y-10323D02*
X43017Y-20320D01*
X178114Y-227889D02*
X176448Y-226223D01*
X173116D01*
X171450Y-227889D01*
Y-234554D01*
X173116Y-236220D01*
X176448D01*
X178114Y-234554D01*
X186445Y-236220D02*
Y-226223D01*
X181447Y-231222D01*
X188111D01*
X178114Y-202489D02*
X176448Y-200823D01*
X173116D01*
X171450Y-202489D01*
Y-209154D01*
X173116Y-210820D01*
X176448D01*
X178114Y-209154D01*
X181447Y-202489D02*
X183113Y-200823D01*
X186445D01*
X188111Y-202489D01*
Y-204156D01*
X186445Y-205822D01*
X184779D01*
X186445D01*
X188111Y-207488D01*
Y-209154D01*
X186445Y-210820D01*
X183113D01*
X181447Y-209154D01*
X178114Y-177089D02*
X176448Y-175423D01*
X173116D01*
X171450Y-177089D01*
Y-183754D01*
X173116Y-185420D01*
X176448D01*
X178114Y-183754D01*
X188111Y-185420D02*
X181447D01*
X188111Y-178755D01*
Y-177089D01*
X186445Y-175423D01*
X183113D01*
X181447Y-177089D01*
X178114Y-151689D02*
X176448Y-150023D01*
X173116D01*
X171450Y-151689D01*
Y-158354D01*
X173116Y-160020D01*
X176448D01*
X178114Y-158354D01*
X181447Y-160020D02*
X184779D01*
X183113D01*
Y-150023D01*
X181447Y-151689D01*
X178114Y-126289D02*
X176448Y-124623D01*
X173116D01*
X171450Y-126289D01*
Y-132954D01*
X173116Y-134620D01*
X176448D01*
X178114Y-132954D01*
X181447Y-126289D02*
X183113Y-124623D01*
X186445D01*
X188111Y-126289D01*
Y-132954D01*
X186445Y-134620D01*
X183113D01*
X181447Y-132954D01*
Y-126289D01*
X171450Y-109220D02*
Y-99223D01*
X176448D01*
X178114Y-100889D01*
Y-104222D01*
X176448Y-105888D01*
X171450D01*
X174782D02*
X178114Y-109220D01*
X181447Y-100889D02*
X183113Y-99223D01*
X186445D01*
X188111Y-100889D01*
Y-102556D01*
X186445Y-104222D01*
X184779D01*
X186445D01*
X188111Y-105888D01*
Y-107554D01*
X186445Y-109220D01*
X183113D01*
X181447Y-107554D01*
X171450Y-83820D02*
Y-73823D01*
X176448D01*
X178114Y-75489D01*
Y-78822D01*
X176448Y-80488D01*
X171450D01*
X174782D02*
X178114Y-83820D01*
X188111D02*
X181447D01*
X188111Y-77155D01*
Y-75489D01*
X186445Y-73823D01*
X183113D01*
X181447Y-75489D01*
X171450Y-59690D02*
Y-49693D01*
X176448D01*
X178114Y-51359D01*
Y-54692D01*
X176448Y-56358D01*
X171450D01*
X174782D02*
X178114Y-59690D01*
X181447D02*
X184779D01*
X183113D01*
Y-49693D01*
X181447Y-51359D01*
X171450Y-44450D02*
Y-34453D01*
X176448D01*
X178114Y-36119D01*
Y-39452D01*
X176448Y-41118D01*
X171450D01*
X174782D02*
X178114Y-44450D01*
X181447Y-36119D02*
X183113Y-34453D01*
X186445D01*
X188111Y-36119D01*
Y-42784D01*
X186445Y-44450D01*
X183113D01*
X181447Y-42784D01*
Y-36119D01*
X152400Y-58420D02*
X142403D01*
Y-53422D01*
X144069Y-51755D01*
X147402D01*
X149068Y-53422D01*
Y-58420D01*
Y-55088D02*
X152400Y-51755D01*
Y-48423D02*
Y-45091D01*
Y-46757D01*
X142403D01*
X144069Y-48423D01*
X150734Y-40093D02*
X152400Y-38426D01*
Y-35094D01*
X150734Y-33428D01*
X144069D01*
X142403Y-35094D01*
Y-38426D01*
X144069Y-40093D01*
X145736D01*
X147402Y-38426D01*
Y-33428D01*
X166370Y-58420D02*
X156373D01*
Y-53422D01*
X158039Y-51755D01*
X161372D01*
X163038Y-53422D01*
Y-58420D01*
Y-55088D02*
X166370Y-51755D01*
Y-48423D02*
Y-45091D01*
Y-46757D01*
X156373D01*
X158039Y-48423D01*
Y-40093D02*
X156373Y-38426D01*
Y-35094D01*
X158039Y-33428D01*
X159705D01*
X161372Y-35094D01*
X163038Y-33428D01*
X164704D01*
X166370Y-35094D01*
Y-38426D01*
X164704Y-40093D01*
X163038D01*
X161372Y-38426D01*
X159705Y-40093D01*
X158039D01*
X161372Y-38426D02*
Y-35094D01*
D30*
X108113Y-166370D02*
X116444D01*
X118110Y-164704D01*
Y-161372D01*
X116444Y-159705D01*
X108113D01*
X118110Y-149709D02*
Y-156373D01*
X111446Y-149709D01*
X109779D01*
X108113Y-151375D01*
Y-154707D01*
X109779Y-156373D01*
M02*
