G04 Layer_Physical_Order=2*
G04 Layer_Color=16711680*
%FSLAX44Y44*%
%MOMM*%
G71*
G01*
G75*
%ADD10R,0.7500X0.8000*%
%ADD11R,0.8000X0.7500*%
%ADD19R,1.0000X0.9500*%
%ADD20R,1.6002X1.2700*%
%ADD22C,0.2000*%
%ADD24C,0.5000*%
%ADD25C,1.0000*%
%ADD29O,2.0000X1.0000*%
%ADD30R,2.0000X1.0000*%
%ADD31C,2.3000*%
%ADD32O,1.5000X0.8000*%
%ADD33R,1.5000X0.8000*%
%ADD34C,0.6000*%
%ADD35C,0.6600*%
%ADD36C,1.0000*%
G36*
X-104016Y29576D02*
X-103974Y29293D01*
X-103903Y29010D01*
X-103804Y28728D01*
X-103677Y28445D01*
X-103521Y28162D01*
X-103337Y27879D01*
X-103125Y27596D01*
X-102885Y27313D01*
X-102616Y27030D01*
Y26929D01*
X-102566Y26980D01*
X-102361Y26791D01*
X-102146Y26622D01*
X-101919Y26474D01*
X-101682Y26345D01*
X-101434Y26237D01*
X-101175Y26149D01*
X-100905Y26082D01*
X-100624Y26034D01*
X-100333Y26007D01*
X-100030Y26000D01*
X-103000Y23030D01*
X-103007Y23333D01*
X-103034Y23624D01*
X-103082Y23905D01*
X-103149Y24175D01*
X-103237Y24434D01*
X-103345Y24682D01*
X-103430Y24839D01*
X-103521Y24881D01*
X-103677Y24909D01*
X-103804Y24881D01*
X-103903Y24796D01*
X-103974Y24655D01*
X-104016Y24457D01*
X-104031Y24202D01*
Y29859D01*
X-104016Y29576D01*
D02*
G37*
G36*
X-123190Y23291D02*
X-123360Y23230D01*
X-123510Y23128D01*
X-123640Y22986D01*
X-123750Y22803D01*
X-123840Y22580D01*
X-123910Y22316D01*
X-123960Y22011D01*
X-123990Y21666D01*
X-124000Y21281D01*
X-126000D01*
X-126010Y21666D01*
X-126040Y22011D01*
X-126090Y22316D01*
X-126160Y22580D01*
X-126250Y22803D01*
X-126360Y22986D01*
X-126490Y23128D01*
X-126640Y23230D01*
X-126810Y23291D01*
X-127000Y23311D01*
X-123000D01*
X-123190Y23291D01*
D02*
G37*
G36*
X-107190Y40041D02*
X-107360Y39980D01*
X-107510Y39878D01*
X-107640Y39736D01*
X-107750Y39553D01*
X-107840Y39330D01*
X-107910Y39066D01*
X-107960Y38761D01*
X-107990Y38416D01*
X-108000Y38031D01*
X-110000D01*
X-110010Y38416D01*
X-110040Y38761D01*
X-110090Y39066D01*
X-110160Y39330D01*
X-110250Y39553D01*
X-110360Y39736D01*
X-110490Y39878D01*
X-110640Y39980D01*
X-110810Y40041D01*
X-111000Y40061D01*
X-107000D01*
X-107190Y40041D01*
D02*
G37*
G36*
X-107990Y34334D02*
X-107960Y33989D01*
X-107910Y33684D01*
X-107840Y33420D01*
X-107750Y33197D01*
X-107640Y33014D01*
X-107510Y32872D01*
X-107360Y32770D01*
X-107190Y32709D01*
X-107000Y32689D01*
X-111000D01*
X-110810Y32709D01*
X-110640Y32770D01*
X-110490Y32872D01*
X-110360Y33014D01*
X-110250Y33197D01*
X-110160Y33420D01*
X-110090Y33684D01*
X-110040Y33989D01*
X-110010Y34334D01*
X-110000Y34720D01*
X-108000D01*
X-107990Y34334D01*
D02*
G37*
G36*
X-75999Y1961D02*
X-76389Y2236D01*
X-76850Y2371D01*
X-77381Y2366D01*
X-77983Y2220D01*
X-78655Y1933D01*
X-79397Y1506D01*
X-80210Y939D01*
X-81093Y232D01*
X-83069Y-1605D01*
X-86705Y1831D01*
X-85708Y2863D01*
X-84140Y4711D01*
X-83570Y5527D01*
X-83142Y6270D01*
X-82857Y6941D01*
X-82713Y7539D01*
X-82713Y8066D01*
X-82855Y8520D01*
X-83139Y8902D01*
X-75999Y1961D01*
D02*
G37*
G36*
X-115000Y189377D02*
X-80000D01*
Y140000D01*
X131876D01*
Y-172500D01*
X131886Y-172549D01*
X131566Y-175795D01*
X130605Y-178964D01*
X129044Y-181884D01*
X126944Y-184444D01*
X124384Y-186544D01*
X121464Y-188105D01*
X118295Y-189067D01*
X115048Y-189386D01*
X115000Y-189377D01*
X-115000D01*
X-115048Y-189386D01*
X-118295Y-189067D01*
X-121464Y-188105D01*
X-124384Y-186544D01*
X-126944Y-184444D01*
X-129044Y-181884D01*
X-130605Y-178964D01*
X-131566Y-175795D01*
X-131886Y-172549D01*
X-131877Y-172500D01*
Y-10294D01*
X-131341Y-10652D01*
X-129000Y-11118D01*
X-126659Y-10652D01*
X-126593Y-10608D01*
X-107723D01*
X-107120Y-10728D01*
X-104974Y-10301D01*
X-103155Y-9085D01*
X-93737Y333D01*
X-93659Y348D01*
X-91831Y1569D01*
X-92652Y341D01*
X-93118Y-2000D01*
X-92652Y-4341D01*
X-91326Y-6326D01*
X-89341Y-7652D01*
X-87000Y-8117D01*
X-84659Y-7652D01*
X-82674Y-6326D01*
X-81348Y-4341D01*
X-81333Y-4263D01*
X-79970Y-2900D01*
X-79093Y-2085D01*
X-78376Y-1511D01*
X-77787Y-1100D01*
X-72700D01*
Y12900D01*
X-82000D01*
Y25000D01*
X-94280D01*
X-94348Y25341D01*
X-95674Y27326D01*
X-97659Y28652D01*
X-100000Y29118D01*
X-100236Y29071D01*
X-100277Y29078D01*
X-100310Y29086D01*
X-100322Y29090D01*
X-100711Y29479D01*
X-100735Y29506D01*
X-100829Y29632D01*
X-100896Y29735D01*
X-100938Y29812D01*
X-100961Y29862D01*
X-100969Y29887D01*
X-100976Y30012D01*
X-101000Y30109D01*
Y35750D01*
X-104922D01*
Y37000D01*
X-102750D01*
Y51000D01*
X-116250D01*
Y37000D01*
X-113078D01*
Y35750D01*
X-117000D01*
Y20250D01*
X-105379D01*
X-104543Y19000D01*
X-105379Y17750D01*
X-117000D01*
Y2250D01*
X-107681D01*
X-109323Y608D01*
X-126593D01*
X-126659Y652D01*
X-129000Y1117D01*
X-131341Y652D01*
X-131877Y294D01*
Y2250D01*
X-117000D01*
Y17750D01*
X-120922D01*
Y20250D01*
X-117000D01*
Y35750D01*
X-131877D01*
Y172500D01*
X-131886Y172548D01*
X-131566Y175795D01*
X-130605Y178964D01*
X-129044Y181884D01*
X-126944Y184444D01*
X-124384Y186544D01*
X-121464Y188105D01*
X-118295Y189066D01*
X-115048Y189386D01*
X-115000Y189377D01*
D02*
G37*
G36*
X-123990Y16334D02*
X-123960Y15989D01*
X-123910Y15684D01*
X-123840Y15420D01*
X-123750Y15197D01*
X-123640Y15014D01*
X-123510Y14872D01*
X-123360Y14770D01*
X-123190Y14709D01*
X-123000Y14689D01*
X-127000D01*
X-126810Y14709D01*
X-126640Y14770D01*
X-126490Y14872D01*
X-126360Y15014D01*
X-126250Y15197D01*
X-126160Y15420D01*
X-126090Y15684D01*
X-126040Y15989D01*
X-126010Y16334D01*
X-126000Y16719D01*
X-124000D01*
X-123990Y16334D01*
D02*
G37*
G36*
X-100030Y12000D02*
X-100333Y11993D01*
X-100624Y11966D01*
X-100905Y11918D01*
X-101175Y11851D01*
X-101434Y11763D01*
X-101682Y11655D01*
X-101919Y11526D01*
X-102146Y11378D01*
X-102361Y11209D01*
X-102566Y11020D01*
X-102616Y11071D01*
Y10970D01*
X-102891Y10681D01*
X-103136Y10394D01*
X-103353Y10108D01*
X-103541Y9823D01*
X-103700Y9540D01*
X-103830Y9258D01*
X-103931Y8977D01*
X-104003Y8697D01*
X-104046Y8418D01*
X-104061Y8141D01*
Y13798D01*
X-104046Y13538D01*
X-104003Y13336D01*
X-103931Y13191D01*
X-103830Y13104D01*
X-103700Y13076D01*
X-103541Y13104D01*
X-103434Y13154D01*
X-103345Y13318D01*
X-103237Y13566D01*
X-103149Y13825D01*
X-103082Y14095D01*
X-103034Y14376D01*
X-103007Y14667D01*
X-103000Y14970D01*
X-100030Y12000D01*
D02*
G37*
%LPC*%
G36*
X-107500Y-150375D02*
X-111285Y-150873D01*
X-114813Y-152334D01*
X-117842Y-154658D01*
X-120166Y-157687D01*
X-121627Y-161215D01*
X-122125Y-165000D01*
X-121627Y-168785D01*
X-120166Y-172313D01*
X-117842Y-175341D01*
X-114813Y-177666D01*
X-111285Y-179127D01*
X-107500Y-179625D01*
X-103715Y-179127D01*
X-100188Y-177666D01*
X-97158Y-175341D01*
X-94834Y-172313D01*
X-93373Y-168785D01*
X-92875Y-165000D01*
X-93373Y-161215D01*
X-94834Y-157687D01*
X-97158Y-154658D01*
X-100188Y-152334D01*
X-103715Y-150873D01*
X-107500Y-150375D01*
D02*
G37*
G36*
X5000Y26069D02*
X2912Y25794D01*
X966Y24988D01*
X-591Y23793D01*
X-601Y23788D01*
X-616Y23774D01*
X-640Y23756D01*
X-667Y23745D01*
X-791Y23707D01*
X-982Y23663D01*
X-1197Y23628D01*
X-1447Y23608D01*
X-10000D01*
X-12146Y23181D01*
X-13965Y21965D01*
X-22323Y13608D01*
X-22593D01*
X-22659Y13652D01*
X-22737Y13667D01*
X-22974Y13905D01*
X-23240Y14188D01*
X-24000Y15088D01*
Y20750D01*
X-38000D01*
Y7250D01*
X-32413D01*
X-30665Y5726D01*
X-30652Y5659D01*
X-30608Y5593D01*
Y-2597D01*
X-36843Y-8832D01*
X-59953D01*
X-60019Y-8788D01*
X-62360Y-8322D01*
X-64701Y-8788D01*
X-66686Y-10114D01*
X-68012Y-12099D01*
X-68478Y-14440D01*
X-68012Y-16781D01*
X-66686Y-18766D01*
X-64701Y-20092D01*
X-62360Y-20557D01*
X-60019Y-20092D01*
X-59953Y-20048D01*
X-34520D01*
X-32374Y-19621D01*
X-30555Y-18405D01*
X-21035Y-8885D01*
X-19819Y-7066D01*
X-19392Y-4920D01*
Y2513D01*
X-17854Y2819D01*
X-16035Y4035D01*
X-7677Y12392D01*
X-1371D01*
X-1234Y12378D01*
X-982Y12336D01*
X-791Y12293D01*
X-667Y12255D01*
X-640Y12244D01*
X-616Y12226D01*
X-601Y12212D01*
X-591Y12207D01*
X966Y11012D01*
X2912Y10206D01*
X5000Y9931D01*
X7088Y10206D01*
X9035Y11012D01*
X10706Y12294D01*
X11988Y13966D01*
X12794Y15912D01*
X13069Y18000D01*
X12794Y20088D01*
X11988Y22034D01*
X10706Y23706D01*
X9035Y24988D01*
X7088Y25794D01*
X5000Y26069D01*
D02*
G37*
G36*
X38251Y101390D02*
X16249D01*
Y82690D01*
X21518D01*
X21532Y82639D01*
X21613Y82147D01*
X21642Y81816D01*
Y37750D01*
X22069Y35604D01*
X23285Y33785D01*
X43535Y13535D01*
X45354Y12319D01*
X47500Y11892D01*
X91980D01*
X92131Y11887D01*
X92500Y11851D01*
Y10500D01*
X95388D01*
X95531Y10472D01*
X95673Y10500D01*
X97984D01*
X98003Y10430D01*
X98083Y9944D01*
X98112Y9617D01*
Y-99977D01*
X96157Y-101932D01*
X95862Y-101884D01*
X95800Y-101867D01*
Y-99600D01*
X92912D01*
X92769Y-99572D01*
X92627Y-99600D01*
X92568D01*
X92445Y-99589D01*
X92410Y-99600D01*
X91805D01*
X91834Y-99588D01*
X93506Y-98306D01*
X94788Y-96635D01*
X95594Y-94688D01*
X95869Y-92600D01*
X95594Y-90512D01*
X94788Y-88566D01*
X93506Y-86894D01*
X91834Y-85612D01*
X90598Y-85100D01*
X91834Y-84588D01*
X93506Y-83306D01*
X94788Y-81635D01*
X95594Y-79688D01*
X95869Y-77600D01*
X95594Y-75512D01*
X94788Y-73566D01*
X93506Y-71894D01*
X91834Y-70612D01*
X90598Y-70100D01*
X91834Y-69588D01*
X93506Y-68306D01*
X94788Y-66634D01*
X95594Y-64688D01*
X95869Y-62600D01*
X95594Y-60512D01*
X94788Y-58566D01*
X93506Y-56894D01*
X91834Y-55612D01*
X90598Y-55100D01*
X91834Y-54588D01*
X93506Y-53306D01*
X94788Y-51634D01*
X95594Y-49688D01*
X95869Y-47600D01*
X95594Y-45512D01*
X94788Y-43566D01*
X93506Y-41894D01*
X91834Y-40612D01*
X89888Y-39806D01*
X87800Y-39531D01*
X77800D01*
X75712Y-39806D01*
X73766Y-40612D01*
X72094Y-41894D01*
X70812Y-43566D01*
X70006Y-45512D01*
X69731Y-47600D01*
X70006Y-49688D01*
X70812Y-51634D01*
X72094Y-53306D01*
X73766Y-54588D01*
X75002Y-55100D01*
X73766Y-55612D01*
X72094Y-56894D01*
X70812Y-58566D01*
X70006Y-60512D01*
X69731Y-62600D01*
X70006Y-64688D01*
X70812Y-66634D01*
X72094Y-68306D01*
X73766Y-69588D01*
X75002Y-70100D01*
X73766Y-70612D01*
X72094Y-71894D01*
X70812Y-73566D01*
X70006Y-75512D01*
X69731Y-77600D01*
X70006Y-79688D01*
X70812Y-81635D01*
X72094Y-83306D01*
X73766Y-84588D01*
X75002Y-85100D01*
X73766Y-85612D01*
X72094Y-86894D01*
X70812Y-88566D01*
X70006Y-90512D01*
X69731Y-92600D01*
X70006Y-94688D01*
X70812Y-96635D01*
X72094Y-98306D01*
X73766Y-99588D01*
X73794Y-99600D01*
X69800D01*
Y-115600D01*
X92410D01*
X92445Y-115611D01*
X92568Y-115600D01*
X92627D01*
X92769Y-115628D01*
X92912Y-115600D01*
X95800D01*
Y-113333D01*
X95862Y-113316D01*
X96351Y-113236D01*
X96674Y-113208D01*
X98420D01*
X100566Y-112781D01*
X102385Y-111565D01*
X107685Y-106265D01*
X108901Y-104446D01*
X109328Y-102300D01*
Y9617D01*
X109357Y9944D01*
X109438Y10430D01*
X109456Y10500D01*
X110922D01*
Y-111311D01*
X97311Y-124922D01*
X84824D01*
X84812Y-124916D01*
X84784Y-124899D01*
X84749Y-124874D01*
X84616Y-124674D01*
X82631Y-123348D01*
X80290Y-122882D01*
X77949Y-123348D01*
X75964Y-124674D01*
X74638Y-126659D01*
X74173Y-129000D01*
X74638Y-131341D01*
X75964Y-133326D01*
X77949Y-134652D01*
X79554Y-134971D01*
X77659Y-135348D01*
X75674Y-136674D01*
X74348Y-138659D01*
X73882Y-141000D01*
X74348Y-143341D01*
X75674Y-145326D01*
X77659Y-146652D01*
X80000Y-147118D01*
X82341Y-146652D01*
X84326Y-145326D01*
X84459Y-145126D01*
X84494Y-145101D01*
X84522Y-145084D01*
X84534Y-145078D01*
X102000D01*
X102000Y-145078D01*
X103302Y-144819D01*
X103561Y-144768D01*
X104884Y-143884D01*
X125884Y-122884D01*
X125884Y-122884D01*
X126768Y-121561D01*
X126819Y-121302D01*
X127078Y-120000D01*
X127078Y-120000D01*
Y70000D01*
X126768Y71561D01*
X125884Y72884D01*
X125884Y72884D01*
X118384Y80384D01*
X117061Y81268D01*
X116802Y81319D01*
X115500Y81578D01*
X115500Y81578D01*
X112194D01*
X111492Y82493D01*
X110030Y83615D01*
X108327Y84320D01*
X106500Y84560D01*
X99500D01*
X97673Y84320D01*
X95970Y83615D01*
X94508Y82493D01*
X93385Y81030D01*
X92680Y79327D01*
X92440Y77500D01*
X92680Y75673D01*
X93385Y73970D01*
X94508Y72508D01*
X95970Y71386D01*
X97673Y70680D01*
X99500Y70440D01*
X106500D01*
X108327Y70680D01*
X110030Y71386D01*
X111492Y72508D01*
X112194Y73422D01*
X113811D01*
X118922Y68311D01*
Y61846D01*
X115384Y65384D01*
X114061Y66268D01*
X113802Y66319D01*
X112500Y66578D01*
X112500Y66578D01*
X112194D01*
X111492Y67492D01*
X110030Y68615D01*
X108327Y69320D01*
X106500Y69560D01*
X99500D01*
X97673Y69320D01*
X95970Y68615D01*
X94508Y67492D01*
X93385Y66030D01*
X92680Y64327D01*
X92440Y62500D01*
X92680Y60673D01*
X93385Y58970D01*
X94508Y57508D01*
X95970Y56386D01*
X97673Y55680D01*
X99500Y55440D01*
X106500D01*
X108327Y55680D01*
X110030Y56386D01*
X111492Y57508D01*
X111593Y57639D01*
X114922Y54311D01*
Y49846D01*
X114384Y50384D01*
X113061Y51268D01*
X112802Y51319D01*
X112319Y51416D01*
X111492Y52492D01*
X110030Y53615D01*
X108327Y54320D01*
X106500Y54560D01*
X99500D01*
X97673Y54320D01*
X95970Y53615D01*
X94508Y52492D01*
X93385Y51030D01*
X92680Y49327D01*
X92440Y47500D01*
X92680Y45673D01*
X93385Y43970D01*
X94508Y42508D01*
X95970Y41385D01*
X97673Y40680D01*
X99500Y40440D01*
X106500D01*
X108327Y40680D01*
X110030Y41385D01*
X110922Y42070D01*
Y24500D01*
X95673D01*
X95531Y24528D01*
X95388Y24500D01*
X92500D01*
Y23157D01*
X91835Y23108D01*
X49823D01*
X32858Y40073D01*
Y81816D01*
X32887Y82147D01*
X32968Y82639D01*
X32982Y82690D01*
X38251D01*
Y101390D01*
D02*
G37*
G36*
X-107500Y179625D02*
X-111285Y179127D01*
X-114813Y177666D01*
X-117842Y175341D01*
X-120166Y172313D01*
X-121627Y168785D01*
X-122125Y165000D01*
X-121627Y161215D01*
X-120166Y157687D01*
X-117842Y154658D01*
X-114813Y152334D01*
X-111285Y150873D01*
X-107500Y150375D01*
X-103715Y150873D01*
X-100188Y152334D01*
X-97158Y154658D01*
X-94834Y157687D01*
X-93373Y161215D01*
X-92875Y165000D01*
X-93373Y168785D01*
X-94834Y172313D01*
X-97158Y175341D01*
X-100188Y177666D01*
X-103715Y179127D01*
X-107500Y179625D01*
D02*
G37*
G36*
X106500Y129560D02*
X99500D01*
X97673Y129320D01*
X95970Y128615D01*
X95309Y128108D01*
X94500D01*
X92354Y127681D01*
X90535Y126465D01*
X85041Y120971D01*
Y122020D01*
X63039D01*
Y118402D01*
X62988Y118388D01*
X62685Y118338D01*
X62382Y118388D01*
X62331Y118402D01*
Y122040D01*
X40329D01*
Y118406D01*
X40259Y118388D01*
X39773Y118307D01*
X39446Y118278D01*
X39125D01*
X38794Y118307D01*
X38302Y118388D01*
X38251Y118402D01*
Y121710D01*
X16249D01*
Y103010D01*
X38251D01*
Y106938D01*
X38302Y106952D01*
X38794Y107033D01*
X39125Y107062D01*
X39446D01*
X39773Y107034D01*
X40259Y106952D01*
X40329Y106934D01*
Y103340D01*
X62331D01*
Y106938D01*
X62382Y106952D01*
X62685Y107002D01*
X62988Y106952D01*
X63039Y106938D01*
Y103320D01*
X85041D01*
Y107136D01*
X86816Y107489D01*
X88635Y108705D01*
X96215Y116284D01*
X97673Y115680D01*
X99500Y115440D01*
X106500D01*
X108327Y115680D01*
X110030Y116385D01*
X111492Y117508D01*
X112614Y118970D01*
X113320Y120673D01*
X113560Y122500D01*
X113320Y124327D01*
X112614Y126030D01*
X111492Y127493D01*
X110030Y128615D01*
X108327Y129320D01*
X106500Y129560D01*
D02*
G37*
G36*
Y114560D02*
X99500D01*
X97673Y114320D01*
X95970Y113615D01*
X94508Y112493D01*
X93385Y111030D01*
X92680Y109327D01*
X92440Y107500D01*
X92680Y105673D01*
X93385Y103970D01*
X94508Y102508D01*
X95970Y101385D01*
X97673Y100680D01*
X99500Y100440D01*
X106500D01*
X108327Y100680D01*
X110030Y101385D01*
X111492Y102508D01*
X112614Y103970D01*
X113320Y105673D01*
X113560Y107500D01*
X113320Y109327D01*
X112614Y111030D01*
X111492Y112493D01*
X110030Y113615D01*
X108327Y114320D01*
X106500Y114560D01*
D02*
G37*
G36*
X51020Y-101482D02*
X48679Y-101948D01*
X46694Y-103274D01*
X45368Y-105259D01*
X44903Y-107600D01*
X45368Y-109941D01*
X45412Y-110007D01*
Y-159163D01*
X45328Y-159289D01*
X44862Y-161630D01*
X45328Y-163971D01*
X46654Y-165956D01*
X48639Y-167282D01*
X50980Y-167747D01*
X53321Y-167282D01*
X55306Y-165956D01*
X56632Y-163971D01*
X57098Y-161630D01*
X56632Y-159289D01*
X56628Y-159283D01*
Y-110007D01*
X56672Y-109941D01*
X57137Y-107600D01*
X56672Y-105259D01*
X55346Y-103274D01*
X53361Y-101948D01*
X51020Y-101482D01*
D02*
G37*
G36*
X5590Y-28542D02*
X3249Y-29008D01*
X1264Y-30334D01*
X-62Y-32319D01*
X-527Y-34660D01*
X-62Y-37001D01*
X1264Y-38986D01*
X1464Y-39119D01*
X1489Y-39154D01*
X1506Y-39182D01*
X1512Y-39194D01*
Y-55721D01*
X-10234Y-67466D01*
X-11118Y-68789D01*
X-11169Y-69048D01*
X-11428Y-70350D01*
X-11428Y-70350D01*
Y-153446D01*
X-11434Y-153457D01*
X-11451Y-153486D01*
X-11476Y-153521D01*
X-11676Y-153654D01*
X-13002Y-155639D01*
X-13468Y-157980D01*
X-13002Y-160321D01*
X-11676Y-162306D01*
X-9691Y-163632D01*
X-7350Y-164097D01*
X-5009Y-163632D01*
X-3024Y-162306D01*
X-1698Y-160321D01*
X-1233Y-157980D01*
X-1698Y-155639D01*
X-3024Y-153654D01*
X-3224Y-153521D01*
X-3249Y-153486D01*
X-3266Y-153458D01*
X-3272Y-153446D01*
Y-72039D01*
X8474Y-60294D01*
X8474Y-60294D01*
X9358Y-58971D01*
X9409Y-58712D01*
X9668Y-57410D01*
X9668Y-57410D01*
Y-39194D01*
X9674Y-39183D01*
X9692Y-39154D01*
X9716Y-39119D01*
X9916Y-38986D01*
X11242Y-37001D01*
X11708Y-34660D01*
X11242Y-32319D01*
X9916Y-30334D01*
X7931Y-29008D01*
X5590Y-28542D01*
D02*
G37*
G36*
X-86850Y72818D02*
X-89191Y72352D01*
X-91176Y71026D01*
X-92502Y69041D01*
X-92968Y66700D01*
X-92502Y64359D01*
X-91176Y62374D01*
X-89191Y61048D01*
X-86850Y60582D01*
X-86376Y60677D01*
X-86000Y60425D01*
Y57000D01*
X-72500D01*
Y71000D01*
X-82507D01*
X-82524Y71026D01*
X-84509Y72352D01*
X-86850Y72818D01*
D02*
G37*
G36*
X107500Y-150375D02*
X103715Y-150873D01*
X100187Y-152334D01*
X97158Y-154658D01*
X94834Y-157687D01*
X93373Y-161215D01*
X92875Y-165000D01*
X93373Y-168785D01*
X94834Y-172313D01*
X97158Y-175341D01*
X100187Y-177666D01*
X103715Y-179127D01*
X107500Y-179625D01*
X111285Y-179127D01*
X114812Y-177666D01*
X117842Y-175341D01*
X120166Y-172313D01*
X121627Y-168785D01*
X122125Y-165000D01*
X121627Y-161215D01*
X120166Y-157687D01*
X117842Y-154658D01*
X114812Y-152334D01*
X111285Y-150873D01*
X107500Y-150375D01*
D02*
G37*
%LPD*%
G36*
X92819Y-103100D02*
X92970Y-103519D01*
X93219Y-103890D01*
X93569Y-104211D01*
X94019Y-104483D01*
X94570Y-104705D01*
X95219Y-104878D01*
X95969Y-105001D01*
X96819Y-105075D01*
X97769Y-105100D01*
Y-110100D01*
X96819Y-110125D01*
X95969Y-110199D01*
X95219Y-110322D01*
X94570Y-110495D01*
X94019Y-110717D01*
X93569Y-110989D01*
X93219Y-111310D01*
X92970Y-111680D01*
X92819Y-112100D01*
X92769Y-112570D01*
Y-102631D01*
X92819Y-103100D01*
D02*
G37*
G36*
X-6339Y-153630D02*
X-6306Y-153902D01*
X-6251Y-154167D01*
X-6174Y-154425D01*
X-6075Y-154677D01*
X-5954Y-154922D01*
X-5811Y-155161D01*
X-5646Y-155393D01*
X-5459Y-155619D01*
X-5250Y-155838D01*
X-9450D01*
X-9241Y-155619D01*
X-9054Y-155393D01*
X-8889Y-155161D01*
X-8746Y-154922D01*
X-8625Y-154677D01*
X-8526Y-154425D01*
X-8449Y-154167D01*
X-8394Y-153902D01*
X-8361Y-153630D01*
X-8350Y-153352D01*
X-6350D01*
X-6339Y-153630D01*
D02*
G37*
G36*
X82361Y-139109D02*
X82587Y-139296D01*
X82819Y-139461D01*
X83058Y-139604D01*
X83303Y-139725D01*
X83555Y-139824D01*
X83813Y-139901D01*
X84079Y-139956D01*
X84350Y-139989D01*
X84628Y-140000D01*
Y-142000D01*
X84350Y-142011D01*
X84079Y-142044D01*
X83813Y-142099D01*
X83555Y-142176D01*
X83303Y-142275D01*
X83058Y-142396D01*
X82819Y-142539D01*
X82587Y-142704D01*
X82361Y-142891D01*
X82142Y-143100D01*
Y-138900D01*
X82361Y-139109D01*
D02*
G37*
G36*
X90361Y-133109D02*
X90587Y-133296D01*
X90819Y-133461D01*
X91058Y-133604D01*
X91303Y-133725D01*
X91555Y-133824D01*
X91813Y-133901D01*
X92079Y-133956D01*
X92350Y-133989D01*
X92628Y-134000D01*
Y-136000D01*
X92350Y-136011D01*
X92079Y-136044D01*
X91813Y-136099D01*
X91555Y-136176D01*
X91303Y-136275D01*
X91058Y-136396D01*
X90819Y-136539D01*
X90587Y-136704D01*
X90361Y-136891D01*
X90142Y-137100D01*
Y-132900D01*
X90361Y-133109D01*
D02*
G37*
G36*
X82651Y-127109D02*
X82877Y-127296D01*
X83109Y-127461D01*
X83348Y-127604D01*
X83593Y-127725D01*
X83845Y-127824D01*
X84103Y-127901D01*
X84368Y-127956D01*
X84640Y-127989D01*
X84918Y-128000D01*
Y-130000D01*
X84640Y-130011D01*
X84368Y-130044D01*
X84103Y-130099D01*
X83845Y-130176D01*
X83593Y-130275D01*
X83348Y-130396D01*
X83109Y-130539D01*
X82877Y-130704D01*
X82651Y-130891D01*
X82432Y-131100D01*
Y-126900D01*
X82651Y-127109D01*
D02*
G37*
G36*
X-82970Y62819D02*
X-82981Y62854D01*
X-83017Y62884D01*
X-83076Y62912D01*
X-83158Y62935D01*
X-83265Y62955D01*
X-83394Y62971D01*
X-83725Y62993D01*
X-84150Y63000D01*
Y65000D01*
X-83926Y65002D01*
X-83265Y65045D01*
X-83158Y65065D01*
X-83076Y65088D01*
X-83017Y65115D01*
X-82981Y65146D01*
X-82970Y65181D01*
Y62819D01*
D02*
G37*
G36*
X109966Y64297D02*
X110039Y64130D01*
X110160Y63982D01*
X110330Y63854D01*
X110549Y63746D01*
X110817Y63658D01*
X111132Y63589D01*
X111497Y63539D01*
X111910Y63510D01*
X112372Y63500D01*
Y61500D01*
X111910Y61490D01*
X111132Y61411D01*
X110817Y61343D01*
X110549Y61254D01*
X110330Y61146D01*
X110160Y61018D01*
X110039Y60870D01*
X109966Y60703D01*
X109942Y60515D01*
Y64485D01*
X109966Y64297D01*
D02*
G37*
G36*
X109967Y79296D02*
X110040Y79129D01*
X110161Y78982D01*
X110331Y78854D01*
X110550Y78746D01*
X110817Y78657D01*
X111133Y78589D01*
X111497Y78539D01*
X111910Y78510D01*
X112372Y78500D01*
Y76500D01*
X111910Y76490D01*
X111132Y76411D01*
X110815Y76342D01*
X110548Y76252D01*
X110329Y76143D01*
X110159Y76015D01*
X110037Y75866D01*
X109964Y75698D01*
X109939Y75510D01*
X109943Y79483D01*
X109967Y79296D01*
D02*
G37*
G36*
X82037Y115299D02*
X82117Y115272D01*
X82250Y115248D01*
X82436Y115227D01*
X83314Y115184D01*
X84670Y115170D01*
Y110170D01*
X84165Y110168D01*
X82037Y110041D01*
X82010Y110010D01*
Y115330D01*
X82037Y115299D01*
D02*
G37*
G36*
X31775Y85701D02*
X31350Y85550D01*
X30975Y85298D01*
X30650Y84946D01*
X30375Y84493D01*
X30150Y83940D01*
X29975Y83286D01*
X29850Y82531D01*
X29775Y81676D01*
X29750Y80721D01*
X24750D01*
X24725Y81676D01*
X24650Y82531D01*
X24525Y83286D01*
X24350Y83940D01*
X24125Y84493D01*
X23850Y84946D01*
X23525Y85298D01*
X23150Y85550D01*
X22725Y85701D01*
X22250Y85751D01*
X32250D01*
X31775Y85701D01*
D02*
G37*
G36*
X-27092Y14459D02*
X-27062Y14254D01*
X-26939Y13977D01*
X-26724Y13629D01*
X-26417Y13209D01*
X-25525Y12153D01*
X-24264Y10810D01*
X-23495Y10030D01*
X-27280Y6745D01*
X-28050Y7504D01*
X-30852Y9947D01*
X-31204Y10166D01*
X-31486Y10294D01*
X-31698Y10332D01*
X-31841Y10280D01*
X-27030Y14591D01*
X-27092Y14459D01*
D02*
G37*
G36*
X7481Y-37021D02*
X7294Y-37247D01*
X7129Y-37479D01*
X6986Y-37718D01*
X6865Y-37963D01*
X6766Y-38215D01*
X6689Y-38473D01*
X6634Y-38739D01*
X6601Y-39010D01*
X6590Y-39288D01*
X4590D01*
X4579Y-39010D01*
X4546Y-38739D01*
X4491Y-38473D01*
X4414Y-38215D01*
X4315Y-37963D01*
X4194Y-37718D01*
X4051Y-37479D01*
X3886Y-37247D01*
X3699Y-37021D01*
X3490Y-36802D01*
X7690D01*
X7481Y-37021D01*
D02*
G37*
G36*
X108245Y13480D02*
X107820Y13331D01*
X107445Y13081D01*
X107120Y12730D01*
X106845Y12280D01*
X106620Y11731D01*
X106445Y11080D01*
X106320Y10330D01*
X106245Y9481D01*
X106220Y8530D01*
X101220D01*
X101195Y9481D01*
X101120Y10330D01*
X100995Y11080D01*
X100820Y11731D01*
X100595Y12280D01*
X100320Y12730D01*
X99995Y13081D01*
X99620Y13331D01*
X99195Y13480D01*
X98720Y13530D01*
X108720D01*
X108245Y13480D01*
D02*
G37*
G36*
X1429Y14500D02*
X1215Y14690D01*
X965Y14860D01*
X679Y15010D01*
X357Y15140D01*
X-1Y15250D01*
X-395Y15340D01*
X-825Y15410D01*
X-1290Y15460D01*
X-2330Y15500D01*
Y20500D01*
X-1792Y20510D01*
X-825Y20590D01*
X-395Y20660D01*
X-1Y20750D01*
X357Y20860D01*
X679Y20990D01*
X965Y21140D01*
X1215Y21310D01*
X1429Y21500D01*
Y14500D01*
D02*
G37*
G36*
X95531Y13530D02*
X95480Y13810D01*
X95330Y14059D01*
X95080Y14280D01*
X94731Y14471D01*
X94281Y14633D01*
X93730Y14765D01*
X93081Y14868D01*
X92331Y14941D01*
X90531Y15000D01*
Y20000D01*
X91481Y20015D01*
X93081Y20132D01*
X93730Y20235D01*
X94281Y20367D01*
X94731Y20529D01*
X95080Y20720D01*
X95330Y20940D01*
X95480Y21190D01*
X95531Y21470D01*
Y13530D01*
D02*
G37*
D10*
X-65950Y5900D02*
D03*
X-79450D02*
D03*
X-65750Y64000D02*
D03*
X-79250D02*
D03*
X-109500Y44000D02*
D03*
X-123000D02*
D03*
D11*
X-89000Y31750D02*
D03*
Y18250D02*
D03*
X-31000Y27500D02*
D03*
Y14000D02*
D03*
D19*
X-125000Y10000D02*
D03*
X-109000D02*
D03*
X-109000Y28000D02*
D03*
X-125000D02*
D03*
D20*
X74040Y92350D02*
D03*
Y112670D02*
D03*
X51330Y112690D02*
D03*
Y92370D02*
D03*
X27250Y112360D02*
D03*
Y92040D02*
D03*
D22*
X-105000Y10000D02*
X-100000Y15000D01*
X5590Y-57410D02*
Y-34660D01*
X-7350Y-70350D02*
X5590Y-57410D01*
X-7350Y-157980D02*
Y-70350D01*
X80290Y-129000D02*
X99000D01*
X115000Y-113000D01*
Y44000D01*
X88000Y-135000D02*
X101000D01*
X119000Y-117000D01*
Y56000D01*
X102000Y-141000D02*
X123000Y-120000D01*
Y70000D01*
X80000Y-141000D02*
X102000D01*
X111500Y47500D02*
X115000Y44000D01*
X103000Y47500D02*
X111500D01*
X115500Y77500D02*
X123000Y70000D01*
X103000Y77500D02*
X115500D01*
X103000Y62500D02*
X112500D01*
X119000Y56000D01*
X-109000Y10000D02*
X-105000D01*
X-109000Y28000D02*
X-105000D01*
X-100000Y23000D01*
X-109000Y28000D02*
Y43500D01*
X-109500Y44000D02*
X-109000Y43500D01*
X-125000Y10000D02*
Y28000D01*
X-125000Y10000D02*
X-125000Y10000D01*
X-79450Y5550D02*
Y5900D01*
X-84150Y64000D02*
X-79250D01*
X-86850Y66700D02*
X-84150Y64000D01*
D24*
X-129000Y58000D02*
X-123000Y52000D01*
X-129000Y58000D02*
Y59000D01*
X47500Y17500D02*
X103000D01*
X27250Y37750D02*
X47500Y17500D01*
X27250Y37750D02*
Y92040D01*
X-89000Y13000D02*
Y18250D01*
X-96000Y6000D02*
X-89000Y13000D01*
X-123000Y44000D02*
Y52000D01*
X94500Y122500D02*
X103000D01*
X84670Y112670D02*
X94500Y122500D01*
X74040Y112670D02*
X84670D01*
X-66000Y51750D02*
X-65750Y52000D01*
Y64000D01*
X-82000Y31750D02*
X-78000Y27750D01*
X-89000Y31750D02*
X-82000D01*
X-66000Y15750D02*
X-65950Y15700D01*
Y5900D02*
Y15700D01*
X-42000Y27750D02*
X-41750Y27500D01*
X-31000D01*
X-129000Y-5000D02*
X-107240D01*
X-107120Y-5120D01*
X-31000Y14000D02*
X-25000Y8000D01*
X-107120Y-5120D02*
X-96000Y6000D01*
X-87000Y-2000D02*
X-79450Y5550D01*
X-25000Y-4920D02*
Y8000D01*
X-34520Y-14440D02*
X-25000Y-4920D01*
X-62360Y-14440D02*
X-34520D01*
X51020Y-161590D02*
Y-107600D01*
X50980Y-161630D02*
X51020Y-161590D01*
X103000Y17500D02*
X103720Y16780D01*
Y-102300D02*
Y16780D01*
X98420Y-107600D02*
X103720Y-102300D01*
X82800Y-107600D02*
X98420D01*
X27250Y112360D02*
X27560Y112670D01*
X-25000Y8000D02*
X-20000D01*
X-10000Y18000D01*
X5000D01*
X27560Y112670D02*
X74040D01*
D25*
X51330Y92370D02*
X102870D01*
X74000Y92310D02*
X74040Y92350D01*
X74000Y82000D02*
Y92310D01*
X51330Y92370D02*
X52000Y91700D01*
Y82000D02*
Y91700D01*
X102870Y92370D02*
X103000Y92500D01*
D29*
X82800Y-32600D02*
D03*
Y-47600D02*
D03*
Y-62600D02*
D03*
Y-77600D02*
D03*
Y-92600D02*
D03*
D30*
Y-107600D02*
D03*
D31*
X-107500Y165000D02*
D03*
X107500D02*
D03*
Y-165000D02*
D03*
X-107500D02*
D03*
D32*
X103000Y122500D02*
D03*
Y107500D02*
D03*
Y92500D02*
D03*
Y77500D02*
D03*
Y62500D02*
D03*
Y47500D02*
D03*
Y32500D02*
D03*
D33*
Y17500D02*
D03*
D34*
X-20000Y47000D02*
D03*
X-25000Y63000D02*
D03*
X-79000Y121000D02*
D03*
X-16000Y-109000D02*
D03*
X4000D02*
D03*
Y-92000D02*
D03*
Y-75000D02*
D03*
X36000Y-165000D02*
D03*
X81000Y-5000D02*
D03*
X63000D02*
D03*
X45000D02*
D03*
X35000Y2000D02*
D03*
X10000D02*
D03*
X23000Y-5000D02*
D03*
Y9000D02*
D03*
X10000Y31000D02*
D03*
X-1000Y43000D02*
D03*
Y57000D02*
D03*
X10000Y43000D02*
D03*
Y57000D02*
D03*
X-4000Y73000D02*
D03*
X10000D02*
D03*
X126000Y82000D02*
D03*
Y95000D02*
D03*
Y109000D02*
D03*
X122000Y123000D02*
D03*
X-31000Y118000D02*
D03*
Y130000D02*
D03*
X-122000Y99000D02*
D03*
X-129000Y59000D02*
D03*
Y73000D02*
D03*
X-43000Y118000D02*
D03*
Y130000D02*
D03*
X66000Y48000D02*
D03*
X42000D02*
D03*
X-100000Y15000D02*
D03*
X122000Y135000D02*
D03*
X109000D02*
D03*
X95000D02*
D03*
X81000Y130000D02*
D03*
X66000D02*
D03*
X51000D02*
D03*
X37000D02*
D03*
X24000D02*
D03*
X10000D02*
D03*
X-4000D02*
D03*
X-18000D02*
D03*
X10000Y87000D02*
D03*
X-4000D02*
D03*
X10000Y106000D02*
D03*
Y118000D02*
D03*
X-4000Y106000D02*
D03*
Y118000D02*
D03*
X-18000D02*
D03*
X-125000Y181000D02*
D03*
X-112000Y185000D02*
D03*
X-129000Y170000D02*
D03*
Y159000D02*
D03*
Y147000D02*
D03*
X-115000D02*
D03*
X-100000D02*
D03*
X-85000Y185000D02*
D03*
X-98000D02*
D03*
X-85000Y167000D02*
D03*
Y149000D02*
D03*
X-92000Y140000D02*
D03*
X74000Y82000D02*
D03*
X52000D02*
D03*
X-72000Y131000D02*
D03*
X-92000Y122000D02*
D03*
X-85000Y131000D02*
D03*
X-17000Y87000D02*
D03*
Y106000D02*
D03*
X-85000Y112000D02*
D03*
X-72000D02*
D03*
X-100000Y131000D02*
D03*
X80000Y-141000D02*
D03*
X88000Y-135000D02*
D03*
X-129000Y-5000D02*
D03*
X-100000Y23000D02*
D03*
X-96000Y6000D02*
D03*
X-25000Y8000D02*
D03*
X-86850Y66700D02*
D03*
X-87000Y-2000D02*
D03*
X-62360Y-14440D02*
D03*
X80290Y-129000D02*
D03*
X51020Y-107600D02*
D03*
X50980Y-161630D02*
D03*
X5590Y-34660D02*
D03*
X-7350Y-157980D02*
D03*
X-125000Y-105000D02*
D03*
Y-130000D02*
D03*
X-114000Y-67420D02*
D03*
X52000Y70000D02*
D03*
X74000D02*
D03*
X52000Y57000D02*
D03*
X74000D02*
D03*
X23000Y-36000D02*
D03*
X45000D02*
D03*
X64000D02*
D03*
X-24000Y-23000D02*
D03*
X-11000Y-37000D02*
D03*
X23000Y-56000D02*
D03*
X45000Y-55000D02*
D03*
X64000D02*
D03*
X-43000Y-35000D02*
D03*
X-26000Y-52000D02*
D03*
X-11000Y-55000D02*
D03*
X23000Y-75000D02*
D03*
X46000D02*
D03*
X64000D02*
D03*
X23000Y-92000D02*
D03*
X46000Y-93000D02*
D03*
X64000Y-92000D02*
D03*
X23000Y-109000D02*
D03*
X21000Y-151000D02*
D03*
X4000D02*
D03*
X39000D02*
D03*
X4000Y-165000D02*
D03*
X21000D02*
D03*
X67000Y-150000D02*
D03*
Y-164000D02*
D03*
X77000Y-156000D02*
D03*
X87000Y-150000D02*
D03*
Y-164000D02*
D03*
X67000Y-180000D02*
D03*
X77000Y-172000D02*
D03*
X87000Y-180000D02*
D03*
X-19000Y-151000D02*
D03*
Y-166000D02*
D03*
X-39000D02*
D03*
X-56000D02*
D03*
Y-151000D02*
D03*
X-39000D02*
D03*
X-73000D02*
D03*
Y-166000D02*
D03*
X-68000Y-41000D02*
D03*
X-85000D02*
D03*
Y-28000D02*
D03*
X-68000D02*
D03*
X-41000Y-72000D02*
D03*
X-58000D02*
D03*
Y-58000D02*
D03*
X-41000D02*
D03*
X-16000Y-96000D02*
D03*
X-33000D02*
D03*
Y-82000D02*
D03*
X-16000D02*
D03*
X-79000Y-118000D02*
D03*
X-80000Y-95000D02*
D03*
X-81000Y-71000D02*
D03*
X-73000Y-180000D02*
D03*
X-56000D02*
D03*
X-39000Y-181000D02*
D03*
X-19000D02*
D03*
X-73000Y-138000D02*
D03*
X-56000Y-139000D02*
D03*
X112000Y-146000D02*
D03*
X128000Y-130000D02*
D03*
Y-146000D02*
D03*
X122000Y-180000D02*
D03*
X-46000Y-84000D02*
D03*
X-72000Y-58000D02*
D03*
X95000Y-5000D02*
D03*
Y7000D02*
D03*
X81000D02*
D03*
X64000Y-116000D02*
D03*
X-64000Y-118000D02*
D03*
D35*
X-78000Y15750D02*
D03*
Y27750D02*
D03*
Y39750D02*
D03*
Y51750D02*
D03*
X-66000Y15750D02*
D03*
Y27750D02*
D03*
Y39750D02*
D03*
Y51750D02*
D03*
X-54000Y15750D02*
D03*
Y27750D02*
D03*
Y39750D02*
D03*
Y51750D02*
D03*
X-42000Y15750D02*
D03*
Y27750D02*
D03*
Y39750D02*
D03*
Y51750D02*
D03*
D36*
X5000Y18000D02*
D03*
M02*
