M48
;Layer_Color=9474304
;FILE_FORMAT=4:4
METRIC,TZ
;TYPE=PLATED
T1F00S00C0.3000
T2F00S00C0.3300
T3F00S00C0.6000
T4F00S00C0.8000
T5F00S00C2.3000
%
T01
X-125000Y-130000
Y-105000
X-114000Y-67420
X-81000Y-71000
X-72000Y-58000
X-58000
Y-72000
X-41000
Y-58000
X-26000Y-52000
X-11000Y-55000
Y-37000
X5590Y-34660
X23000Y-36000
Y-56000
Y-75000
Y-92000
Y-109000
X4000
Y-92000
Y-75000
X-16000Y-82000
Y-96000
Y-109000
X-33000Y-96000
Y-82000
X-46000Y-84000
X-80000Y-95000
X-79000Y-118000
X-64000
X-73000Y-138000
Y-151000
Y-166000
Y-180000
X-56000
Y-166000
Y-151000
Y-139000
X-39000Y-151000
X-39000Y-166000
Y-181000
X-19000
Y-166000
Y-151000
X-7350Y-157980
X4000Y-151000
Y-165000
X21000
Y-151000
X39000
X36000Y-165000
X50980Y-161630
X67000Y-164000
Y-150000
X77000Y-156000
X87000Y-150000
Y-164000
Y-180000
X77000Y-172000
X67000Y-180000
X80000Y-141000
X80290Y-129000
X88000Y-135000
X112000Y-146000
X128000
Y-130000
X122000Y-180000
X64000Y-116000
X51020Y-107600
X46000Y-93000
Y-75000
X64000
Y-92000
Y-55000
Y-36000
X45000
Y-55000
Y-5000
X63000
X81000
X95000
X23000
X-24000Y-23000
X-43000Y-35000
X-68000Y-41000
Y-28000
X-85000
Y-41000
X-87000Y-2000
X-62360Y-14440
X-129000Y-5000
X-96000Y6000
X-100000Y15000
Y23000
X-86850Y66700
X-85000Y112000
X-72000
X-79000Y121000
X-92000Y122000
X-85000Y131000
X-72000
X-100000
Y147000
X-115000
X-129000
Y159000
Y170000
X-125000Y181000
X-112000Y185000
X-98000
X-85000
Y167000
Y149000
X-92000Y140000
X-43000Y130000
X-31000
Y118000
X-43000
X-18000
Y130000
X-4000
Y118000
Y106000
X-17000
Y87000
X-4000
Y73000
X10000
Y87000
Y106000
Y118000
Y130000
X24000
X37000
X51000
X66000
X81000
X95000Y135000
X109000
X122000
Y123000
X126000Y109000
Y95000
Y82000
X74000
Y70000
Y57000
X66000Y48000
X52000Y57000
Y70000
Y82000
X42000Y48000
X10000Y43000
X-1000
Y57000
X10000
Y31000
Y2000
X23000Y9000
X35000Y2000
X81000Y7000
X95000
X-25000Y8000
X-20000Y47000
X-25000Y63000
X-129000Y59000
Y73000
X-122000Y99000
T02
X-78000Y15750
Y27750
X-66000
Y15750
X-54000
Y27750
Y39750
X-66000
X-78000
Y51750
X-66000
X-54000
X-42000
Y39750
Y27750
Y15750
T03
X5000Y18000
X103000Y17500
Y32500
Y47500
Y62500
Y77500
Y92500
Y107500
Y122500
T04
X82800Y-107600
Y-92600
Y-77600
Y-62600
Y-47600
Y-32600
T05
X-107500Y-165000
X107500
Y165000
X-107500
M30
