G04 Layer_Color=32896*
%FSLAX44Y44*%
%MOMM*%
G71*
G01*
G75*
%ADD22C,0.2000*%
%ADD38C,0.1524*%
%ADD39C,0.1778*%
%ADD40C,0.1000*%
%ADD41C,0.1270*%
D22*
X-73700Y2900D02*
X-71700D01*
X-73700Y8900D02*
X-71700D01*
X-73500Y61000D02*
X-71500D01*
X-73500Y67000D02*
X-71500D01*
X-117250Y41000D02*
X-115250D01*
X-117250Y47000D02*
X-115250D01*
X-86000Y24000D02*
Y26000D01*
X-92000Y24000D02*
Y26000D01*
X-28000Y19750D02*
Y21750D01*
X-34000Y19750D02*
Y21750D01*
D38*
X-60950Y900D02*
Y10900D01*
X-84450D02*
X-84450Y900D01*
X-75200D01*
X-70200D02*
X-60950D01*
X-84450Y10900D02*
X-75200D01*
X-70200D02*
X-60950D01*
X-60750Y59000D02*
Y69000D01*
X-84250D02*
X-84250Y59000D01*
X-75000D01*
X-70000D02*
X-60750D01*
X-84250Y69000D02*
X-75000D01*
X-70000D02*
X-60750D01*
X-104500Y39000D02*
Y49000D01*
X-128000D02*
X-128000Y39000D01*
X-118750D01*
X-113750D02*
X-104500D01*
X-128000Y49000D02*
X-118750D01*
X-113750D02*
X-104500D01*
X-94000Y36750D02*
X-84000D01*
X-94000Y13250D02*
X-84000Y13250D01*
Y22500D01*
Y27500D02*
Y36750D01*
X-94000Y13250D02*
Y22500D01*
Y27500D02*
Y36750D01*
X-36000Y32500D02*
X-26000D01*
X-36000Y9000D02*
X-26000Y9000D01*
Y18250D01*
Y23250D02*
Y32500D01*
X-36000Y9000D02*
Y18250D01*
Y23250D02*
Y32500D01*
D39*
X-132235Y3074D02*
X-125636D01*
X-132235D02*
Y16909D01*
X-125636D01*
X-108364D02*
X-101764D01*
Y3074D02*
Y16909D01*
X-108364Y3074D02*
X-101764D01*
X-108364Y34926D02*
X-101764D01*
Y21091D02*
Y34926D01*
X-108364Y21091D02*
X-101764D01*
X-132235D02*
X-125636D01*
X-132235D02*
Y34926D01*
X-125636D01*
X63880Y83714D02*
Y92350D01*
Y83714D02*
X74040D01*
X84200D01*
Y92350D01*
Y112670D02*
Y121306D01*
X74040D02*
X84200D01*
X63880D02*
X74040D01*
X63880Y112670D02*
Y121306D01*
X61490Y112690D02*
Y121326D01*
X51330D02*
X61490D01*
X41170D02*
X51330D01*
X41170Y112690D02*
Y121326D01*
Y83734D02*
Y92370D01*
Y83734D02*
X51330D01*
X61490D01*
Y92370D01*
X37410Y112360D02*
Y120996D01*
X27250D02*
X37410D01*
X17090D02*
X27250D01*
X17090Y112360D02*
Y120996D01*
Y83404D02*
Y92040D01*
Y83404D02*
X27250D01*
X37410D01*
Y92040D01*
D40*
X125000Y2500D02*
Y137500D01*
X90000D02*
X125000D01*
X90000Y2500D02*
Y137500D01*
Y2500D02*
X125000D01*
D41*
X47080Y126760D02*
X57077D01*
Y131758D01*
X55411Y133425D01*
X52078D01*
X50412Y131758D01*
Y126760D01*
Y130092D02*
X47080Y133425D01*
X48746Y136757D02*
X47080Y138423D01*
Y141755D01*
X48746Y143421D01*
X55411D01*
X57077Y141755D01*
Y138423D01*
X55411Y136757D01*
X53744D01*
X52078Y138423D01*
Y143421D01*
X22250Y127040D02*
X32247D01*
Y132038D01*
X30581Y133705D01*
X27248D01*
X25582Y132038D01*
Y127040D01*
Y130372D02*
X22250Y133705D01*
X30581Y137037D02*
X32247Y138703D01*
Y142035D01*
X30581Y143701D01*
X28914D01*
X27248Y142035D01*
X25582Y143701D01*
X23916D01*
X22250Y142035D01*
Y138703D01*
X23916Y137037D01*
X25582D01*
X27248Y138703D01*
X28914Y137037D01*
X30581D01*
X27248Y138703D02*
Y142035D01*
X78721Y133405D02*
X80387Y131738D01*
Y128406D01*
X78721Y126740D01*
X72056D01*
X70390Y128406D01*
Y131738D01*
X72056Y133405D01*
X70390Y136737D02*
Y140069D01*
Y138403D01*
X80387D01*
X78721Y136737D01*
X80387Y151732D02*
Y145068D01*
X75388D01*
X77055Y148400D01*
Y150066D01*
X75388Y151732D01*
X72056D01*
X70390Y150066D01*
Y146734D01*
X72056Y145068D01*
X-108000Y-14003D02*
Y-24000D01*
X-114664D01*
X-124661D02*
X-117997D01*
X-124661Y-17335D01*
Y-15669D01*
X-122995Y-14003D01*
X-119663D01*
X-117997Y-15669D01*
X-108000Y-3D02*
Y-10000D01*
X-114664D01*
X-117997D02*
X-121329D01*
X-119663D01*
Y-3D01*
X-117997Y-1669D01*
X-19331Y26335D02*
X-20997Y28002D01*
Y31334D01*
X-19331Y33000D01*
X-12666D01*
X-11000Y31334D01*
Y28002D01*
X-12666Y26335D01*
X-11000Y23003D02*
Y19671D01*
Y21337D01*
X-20997D01*
X-19331Y23003D01*
Y14673D02*
X-20997Y13007D01*
Y9674D01*
X-19331Y8008D01*
X-17665D01*
X-15998Y9674D01*
Y11340D01*
Y9674D01*
X-14332Y8008D01*
X-12666D01*
X-11000Y9674D01*
Y13007D01*
X-12666Y14673D01*
X-70964Y81331D02*
X-69298Y82997D01*
X-65966D01*
X-64300Y81331D01*
Y74666D01*
X-65966Y73000D01*
X-69298D01*
X-70964Y74666D01*
X-74297Y81331D02*
X-75963Y82997D01*
X-79295D01*
X-80961Y81331D01*
Y79665D01*
X-79295Y77998D01*
X-80961Y76332D01*
Y74666D01*
X-79295Y73000D01*
X-75963D01*
X-74297Y74666D01*
Y76332D01*
X-75963Y77998D01*
X-74297Y79665D01*
Y81331D01*
X-75963Y77998D02*
X-79295D01*
X-92831Y51954D02*
X-94497Y53620D01*
Y56952D01*
X-92831Y58618D01*
X-86166D01*
X-84500Y56952D01*
Y53620D01*
X-86166Y51954D01*
X-94497Y41957D02*
X-92831Y45289D01*
X-89498Y48621D01*
X-86166D01*
X-84500Y46955D01*
Y43623D01*
X-86166Y41957D01*
X-87832D01*
X-89498Y43623D01*
Y48621D01*
X-70841Y-5233D02*
X-69174Y-3567D01*
X-65842D01*
X-64176Y-5233D01*
Y-11898D01*
X-65842Y-13564D01*
X-69174D01*
X-70841Y-11898D01*
X-80837Y-3567D02*
X-74173D01*
Y-8565D01*
X-77505Y-6899D01*
X-79171D01*
X-80837Y-8565D01*
Y-11898D01*
X-79171Y-13564D01*
X-75839D01*
X-74173Y-11898D01*
X-113864Y62431D02*
X-112198Y64097D01*
X-108866D01*
X-107200Y62431D01*
Y55766D01*
X-108866Y54100D01*
X-112198D01*
X-113864Y55766D01*
X-117197Y62431D02*
X-118863Y64097D01*
X-122195D01*
X-123861Y62431D01*
Y60764D01*
X-122195Y59098D01*
X-120529D01*
X-122195D01*
X-123861Y57432D01*
Y55766D01*
X-122195Y54100D01*
X-118863D01*
X-117197Y55766D01*
X82900Y154300D02*
X92897D01*
Y149302D01*
X91231Y147635D01*
X87898D01*
X86232Y149302D01*
Y154300D01*
X82900Y144303D02*
Y140971D01*
Y142637D01*
X92897D01*
X91231Y144303D01*
M02*
