G04 Layer_Color=8421504*
%FSLAX44Y44*%
%MOMM*%
G71*
G01*
G75*
%ADD10R,0.7500X0.8000*%
%ADD11R,0.8000X0.7500*%
%ADD12C,1.0000*%
%ADD13R,0.9500X1.0000*%
%ADD14O,0.2000X0.6500*%
%ADD15O,0.6500X0.2000*%
%ADD16R,4.7000X4.7000*%
%ADD17R,1.3000X1.3000*%
%ADD18R,0.7620X0.8128*%
%ADD19R,1.0000X0.9500*%
%ADD20R,1.6002X1.2700*%
%ADD21R,1.2700X1.6002*%
D10*
X-121500Y73000D02*
D03*
X-108000D02*
D03*
X-108530Y130830D02*
D03*
X-122030D02*
D03*
X-26500Y106000D02*
D03*
X-40000D02*
D03*
Y87000D02*
D03*
X-26500D02*
D03*
D11*
X-85000Y102750D02*
D03*
Y89250D02*
D03*
X-72000Y102750D02*
D03*
Y89250D02*
D03*
D12*
X-57500Y121900D02*
D03*
D13*
X-57700Y88000D02*
D03*
Y104000D02*
D03*
D14*
X-82000Y3500D02*
D03*
X-78000D02*
D03*
X-74000D02*
D03*
X-70000D02*
D03*
X-66000D02*
D03*
X-62000D02*
D03*
X-58000D02*
D03*
X-54000D02*
D03*
X-50000D02*
D03*
X-46000D02*
D03*
X-42000D02*
D03*
X-38000D02*
D03*
Y64000D02*
D03*
X-42000D02*
D03*
X-46000D02*
D03*
X-50000D02*
D03*
X-54000D02*
D03*
X-58000D02*
D03*
X-62000D02*
D03*
X-66000D02*
D03*
X-70000D02*
D03*
X-74000D02*
D03*
X-78000D02*
D03*
X-82000D02*
D03*
D15*
X-29750Y11750D02*
D03*
Y15750D02*
D03*
Y19750D02*
D03*
Y23750D02*
D03*
Y27750D02*
D03*
Y31750D02*
D03*
Y35750D02*
D03*
Y39750D02*
D03*
Y43750D02*
D03*
Y47750D02*
D03*
Y51750D02*
D03*
Y55750D02*
D03*
X-90250D02*
D03*
Y51750D02*
D03*
Y47750D02*
D03*
Y43750D02*
D03*
Y39750D02*
D03*
Y35750D02*
D03*
Y31750D02*
D03*
Y27750D02*
D03*
Y23750D02*
D03*
Y19750D02*
D03*
Y15750D02*
D03*
Y11750D02*
D03*
D16*
X-60000Y33750D02*
D03*
D17*
X-121850Y112500D02*
D03*
Y89500D02*
D03*
X-102150Y112500D02*
D03*
Y89500D02*
D03*
D18*
X6985Y-176250D02*
D03*
X-6985D02*
D03*
D19*
X45730Y-176320D02*
D03*
X29730D02*
D03*
D20*
X66000Y37320D02*
D03*
Y17000D02*
D03*
X42000Y37320D02*
D03*
Y17000D02*
D03*
D21*
X-114160Y-80000D02*
D03*
X-93840D02*
D03*
X-114160Y-105000D02*
D03*
X-93840D02*
D03*
X-114320Y-130000D02*
D03*
X-94000D02*
D03*
X-114000Y-55000D02*
D03*
X-93680D02*
D03*
M02*
