G04 Layer_Color=16711935*
%FSLAX43Y43*%
%MOMM*%
G71*
G01*
G75*
%ADD33R,1.203X1.503*%
%ADD37R,1.453X1.503*%
%ADD38C,1.703*%
%ADD39O,2.203X1.703*%
%ADD40R,2.203X1.703*%
%ADD41O,2.703X1.703*%
%ADD42R,2.703X1.703*%
%ADD43C,1.203*%
%ADD44R,2.002X1.002*%
%ADD45R,1.503X1.453*%
D33*
X5245Y4953D02*
D03*
X3645D02*
D03*
X3645Y7112D02*
D03*
X5245D02*
D03*
X5245Y9271D02*
D03*
X3645D02*
D03*
X5245Y11303D02*
D03*
X3645D02*
D03*
X23025Y4318D02*
D03*
X21425D02*
D03*
X23025Y6096D02*
D03*
X21425D02*
D03*
Y2159D02*
D03*
X23025D02*
D03*
D37*
X11346Y7366D02*
D03*
X13546D02*
D03*
Y9652D02*
D03*
X11346D02*
D03*
X22690Y10541D02*
D03*
X20490D02*
D03*
X22690Y8128D02*
D03*
X20490D02*
D03*
D38*
X35179Y29210D02*
D03*
Y26670D02*
D03*
Y11430D02*
D03*
D39*
Y24130D02*
D03*
Y21590D02*
D03*
Y19050D02*
D03*
Y16510D02*
D03*
Y13970D02*
D03*
Y8890D02*
D03*
Y6350D02*
D03*
Y3810D02*
D03*
D40*
Y1270D02*
D03*
D41*
X1524Y27559D02*
D03*
Y25019D02*
D03*
Y22479D02*
D03*
Y19939D02*
D03*
Y14859D02*
D03*
Y17399D02*
D03*
D42*
Y12319D02*
D03*
D43*
X13208Y11430D02*
D03*
X11684D02*
D03*
X4191Y14478D02*
D03*
X5080Y15875D02*
D03*
X33782Y12573D02*
D03*
X32766Y26670D02*
D03*
X6858Y20574D02*
D03*
X5080Y13208D02*
D03*
X20193Y5969D02*
D03*
Y4445D02*
D03*
X1397Y10287D02*
D03*
X2540Y4953D02*
D03*
X20193Y2032D02*
D03*
X25146Y7366D02*
D03*
X7366Y9271D02*
D03*
X6477Y4953D02*
D03*
X25019Y15621D02*
D03*
X26797D02*
D03*
X14478Y25908D02*
D03*
X26924Y3302D02*
D03*
D44*
X30099Y23622D02*
D03*
Y22122D02*
D03*
Y20622D02*
D03*
Y19122D02*
D03*
Y17622D02*
D03*
Y16122D02*
D03*
Y14622D02*
D03*
Y13122D02*
D03*
X16599D02*
D03*
Y14622D02*
D03*
Y16122D02*
D03*
Y17622D02*
D03*
Y19122D02*
D03*
Y20622D02*
D03*
Y22122D02*
D03*
Y23622D02*
D03*
D45*
X14097Y15451D02*
D03*
Y13251D02*
D03*
X11557Y15451D02*
D03*
Y13251D02*
D03*
M02*
