M48
;Layer_Color=9474304
;FILE_FORMAT=2:4
INCH,LZ
;TYPE=PLATED
T1F00S00C0.0236
T2F00S00C0.0394
T3F00S00C0.0472
%
T01
X00795Y0008
Y00175
Y00235
X0099Y0029
X0106Y0013
X01055Y00615
X00985
X0133Y00495
X0129Y0105
X0057Y0102
X0052Y0045
X0046
X0029Y00365
X00255Y00195
X001
X00055Y00405
X002Y0052
X00165Y0057
X002Y00625
X0027Y0081
T02
X01385Y0005
Y0015
Y0025
Y0035
Y0045
Y0055
Y0065
Y0075
Y0085
Y0095
Y0105
Y0115
T03
X0006Y00485
Y00585
Y00685
Y00785
Y00885
Y00985
Y01085
M30
