G04 Layer_Color=255*
%FSLAX43Y43*%
%MOMM*%
G71*
G01*
G75*
%ADD12R,1.000X1.300*%
%ADD16R,1.250X1.300*%
%ADD21C,1.500*%
%ADD22O,2.000X1.500*%
%ADD23R,2.000X1.500*%
%ADD24O,2.500X1.500*%
%ADD25R,2.500X1.500*%
%ADD27R,2.000X1.000*%
%ADD28R,1.300X1.250*%
D12*
X5245Y4953D02*
D03*
X3645D02*
D03*
X3645Y7112D02*
D03*
X5245D02*
D03*
X5245Y9271D02*
D03*
X3645D02*
D03*
X5245Y11303D02*
D03*
X3645D02*
D03*
X23025Y4318D02*
D03*
X21425D02*
D03*
X23025Y6096D02*
D03*
X21425D02*
D03*
Y2159D02*
D03*
X23025D02*
D03*
D16*
X11346Y7366D02*
D03*
X13546D02*
D03*
Y9652D02*
D03*
X11346D02*
D03*
X22690Y10541D02*
D03*
X20490D02*
D03*
X22690Y8128D02*
D03*
X20490D02*
D03*
D21*
X35179Y29210D02*
D03*
Y26670D02*
D03*
Y11430D02*
D03*
D22*
Y24130D02*
D03*
Y21590D02*
D03*
Y19050D02*
D03*
Y16510D02*
D03*
Y13970D02*
D03*
Y8890D02*
D03*
Y6350D02*
D03*
Y3810D02*
D03*
D23*
Y1270D02*
D03*
D24*
X1524Y27559D02*
D03*
Y25019D02*
D03*
Y22479D02*
D03*
Y19939D02*
D03*
Y14859D02*
D03*
Y17399D02*
D03*
D25*
Y12319D02*
D03*
D27*
X30099Y23622D02*
D03*
Y22122D02*
D03*
Y20622D02*
D03*
Y19122D02*
D03*
Y17622D02*
D03*
Y16122D02*
D03*
Y14622D02*
D03*
Y13122D02*
D03*
X16599D02*
D03*
Y14622D02*
D03*
Y16122D02*
D03*
Y17622D02*
D03*
Y19122D02*
D03*
Y20622D02*
D03*
Y22122D02*
D03*
Y23622D02*
D03*
D28*
X14097Y15451D02*
D03*
Y13251D02*
D03*
X11557Y15451D02*
D03*
Y13251D02*
D03*
M02*
