G04 Layer_Color=65535*
%FSLAX43Y43*%
%MOMM*%
G71*
G01*
G75*
%ADD17C,0.254*%
%ADD18C,0.200*%
%ADD29C,0.600*%
%ADD30C,0.250*%
D17*
X397Y635D02*
X1230D01*
X1397Y802D01*
Y1135D01*
X1230Y1301D01*
X397D01*
X1397Y2135D02*
X397D01*
X897Y1635D01*
Y2301D01*
X25146Y22971D02*
Y22138D01*
X25313Y21971D01*
X25646D01*
X25812Y22138D01*
Y22971D01*
X26812Y21971D02*
X26146D01*
X26812Y22637D01*
Y22804D01*
X26646Y22971D01*
X26312D01*
X26146Y22804D01*
X12096Y24963D02*
X11930Y25130D01*
X11597D01*
X11430Y24963D01*
Y24297D01*
X11597Y24130D01*
X11930D01*
X12096Y24297D01*
X13096Y25130D02*
X12430D01*
Y24630D01*
X12763Y24796D01*
X12930D01*
X13096Y24630D01*
Y24297D01*
X12930Y24130D01*
X12596D01*
X12430Y24297D01*
X26940Y889D02*
X27773D01*
X27940Y1056D01*
Y1389D01*
X27773Y1555D01*
X26940D01*
X27107Y1889D02*
X26940Y2055D01*
Y2389D01*
X27107Y2555D01*
X27274D01*
X27440Y2389D01*
Y2222D01*
Y2389D01*
X27607Y2555D01*
X27773D01*
X27940Y2389D01*
Y2055D01*
X27773Y1889D01*
D18*
X33909Y1905D02*
Y30480D01*
Y0D02*
Y1905D01*
Y0D02*
X36449D01*
Y30480D01*
X33909D02*
X36449D01*
X6063Y14780D02*
Y20780D01*
X24163Y14780D02*
Y20780D01*
X6063Y14780D02*
X24163D01*
X6063Y20780D02*
X24163D01*
X254Y11049D02*
Y28829D01*
Y11049D02*
X2794D01*
Y28829D01*
X254D02*
X2794D01*
X6050Y26886D02*
X6650D01*
X6050Y28486D02*
X6650D01*
X6050Y26886D02*
Y28486D01*
X6240Y26886D02*
Y28486D01*
X6350Y24723D02*
Y25823D01*
X333Y3780D02*
Y6380D01*
X7033Y3780D02*
Y6380D01*
X333Y3780D02*
X7033D01*
X333Y6380D02*
X7033D01*
X19944Y6687D02*
X23744D01*
X19944Y1187D02*
X23744D01*
X19944D02*
Y6687D01*
X23744Y1187D02*
Y6687D01*
X17621Y23638D02*
Y25638D01*
X13621Y23638D02*
Y25638D01*
X13621D02*
X17621D01*
X13621Y23638D02*
X17621D01*
X1301Y10652D02*
X635D01*
Y10152D01*
X968Y10318D01*
X1135D01*
X1301Y10152D01*
Y9819D01*
X1135Y9652D01*
X802D01*
X635Y9819D01*
X1635Y10652D02*
Y9985D01*
X1968Y9652D01*
X2301Y9985D01*
Y10652D01*
D29*
X23463Y19780D02*
G03*
X23463Y19780I-300J0D01*
G01*
X23044Y2187D02*
G03*
X23044Y2187I-300J0D01*
G01*
D30*
X24343Y22330D02*
G03*
X24343Y22330I-125J0D01*
G01*
X7158Y8030D02*
G03*
X7158Y8030I-125J0D01*
G01*
X25369Y1182D02*
G03*
X25369Y1182I-125J0D01*
G01*
M02*
