G04 Layer_Physical_Order=2*
G04 Layer_Color=16711680*
%FSLAX44Y44*%
%MOMM*%
G71*
G01*
G75*
%ADD11C,1.0000*%
%ADD12C,0.2540*%
%ADD13C,0.5000*%
%ADD14C,0.3000*%
%ADD15C,1.5000*%
%ADD16C,3.0000*%
%ADD17C,0.9000*%
%ADD18R,1.5000X1.5000*%
%ADD19C,1.5000*%
%ADD20O,1.7000X2.3000*%
%ADD21R,1.7000X2.3000*%
%ADD22O,1.2000X2.0000*%
%ADD23C,0.6000*%
%ADD24R,1.2700X1.6002*%
%ADD25R,1.5240X0.5080*%
%ADD26R,0.3000X1.6000*%
%ADD27R,1.2700X1.3970*%
%ADD28R,1.5000X3.7500*%
%ADD29R,2.1500X3.5000*%
%ADD30R,2.1500X1.1000*%
%ADD31R,2.1500X1.1000*%
%ADD32R,1.6002X1.2700*%
%ADD33C,0.8000*%
G36*
X266950Y106414D02*
X267023Y106408D01*
X267327Y106400D01*
X267477Y103860D01*
X267172Y103851D01*
X266950Y103831D01*
Y102590D01*
X266924Y102831D01*
X266847Y103047D01*
X266719Y103238D01*
X266539Y103403D01*
X266307Y103542D01*
X266086Y103632D01*
X265884Y103546D01*
X265674Y103432D01*
X265481Y103301D01*
X265303Y103153D01*
X265141Y102987D01*
X262890Y105194D01*
X260639Y102987D01*
X260477Y103153D01*
X260299Y103301D01*
X260106Y103432D01*
X259896Y103546D01*
X259694Y103632D01*
X259473Y103542D01*
X259241Y103403D01*
X259061Y103238D01*
X258933Y103047D01*
X258856Y102831D01*
X258830Y102590D01*
Y103831D01*
X258608Y103851D01*
X258303Y103860D01*
X258453Y106400D01*
X258757Y106408D01*
X258830Y106414D01*
Y107670D01*
X258856Y107429D01*
X258933Y107213D01*
X259061Y107022D01*
X259241Y106857D01*
X259473Y106718D01*
X259755Y106603D01*
X259810Y106589D01*
X259834Y106595D01*
X260068Y106681D01*
X260288Y106783D01*
X260494Y106900D01*
X260685Y107033D01*
X260863Y107181D01*
X262890Y105194D01*
X264917Y107181D01*
X265095Y107033D01*
X265286Y106900D01*
X265492Y106783D01*
X265712Y106681D01*
X265946Y106595D01*
X265970Y106589D01*
X266025Y106603D01*
X266307Y106718D01*
X266539Y106857D01*
X266719Y107022D01*
X266847Y107213D01*
X266924Y107429D01*
X266950Y107670D01*
Y106414D01*
D02*
G37*
G36*
X194950Y100130D02*
X194900Y100605D01*
X194749Y101030D01*
X194497Y101405D01*
X194145Y101730D01*
X193692Y102005D01*
X193139Y102230D01*
X192485Y102405D01*
X191730Y102530D01*
X190875Y102605D01*
X189919Y102630D01*
Y107630D01*
X190875Y107655D01*
X191730Y107730D01*
X192485Y107855D01*
X193139Y108030D01*
X193692Y108255D01*
X194145Y108530D01*
X194497Y108855D01*
X194749Y109230D01*
X194900Y109655D01*
X194950Y110130D01*
Y100130D01*
D02*
G37*
G36*
X127000Y197000D02*
Y183000D01*
Y134000D01*
X110000Y117000D01*
X104000Y111000D01*
X58000D01*
X53000Y116000D01*
X49000Y120000D01*
Y128000D01*
Y161000D01*
X50000Y162000D01*
X53000Y165000D01*
X105000D01*
X109000Y169000D01*
X112000Y172000D01*
Y177000D01*
Y197000D01*
X114000Y199000D01*
X125000D01*
X127000Y197000D01*
D02*
G37*
G36*
X218950Y100130D02*
X218900Y100605D01*
X218749Y101030D01*
X218497Y101405D01*
X218145Y101730D01*
X217692Y102005D01*
X217139Y102230D01*
X216485Y102405D01*
X215730Y102530D01*
X214893Y102604D01*
X214060Y102530D01*
X213311Y102405D01*
X212661Y102230D01*
X212111Y102005D01*
X211660Y101730D01*
X211311Y101405D01*
X211061Y101030D01*
X210910Y100605D01*
X210861Y100130D01*
Y110130D01*
X210910Y109655D01*
X211061Y109230D01*
X211311Y108855D01*
X211660Y108530D01*
X212111Y108255D01*
X212661Y108030D01*
X213311Y107855D01*
X214060Y107730D01*
X214893Y107657D01*
X215730Y107730D01*
X216485Y107855D01*
X217139Y108030D01*
X217692Y108255D01*
X218145Y108530D01*
X218497Y108855D01*
X218749Y109230D01*
X218900Y109655D01*
X218950Y110130D01*
Y100130D01*
D02*
G37*
G36*
X234528Y105025D02*
X234373Y104585D01*
X234363Y104068D01*
X234501Y103475D01*
X234784Y102806D01*
X235214Y102061D01*
X235790Y101240D01*
X236512Y100342D01*
X238396Y98318D01*
X234368Y95275D01*
X233362Y96246D01*
X231549Y97778D01*
X230743Y98340D01*
X230002Y98764D01*
X229328Y99053D01*
X228721Y99205D01*
X228180Y99220D01*
X227705Y99099D01*
X227297Y98841D01*
X234830Y105389D01*
X234528Y105025D01*
D02*
G37*
G36*
X282890Y87525D02*
X282980Y87270D01*
X283130Y87045D01*
X283340Y86850D01*
X283610Y86685D01*
X283941Y86550D01*
X284331Y86445D01*
X284781Y86370D01*
X285057Y86346D01*
X285307Y86368D01*
X285563Y86413D01*
X285797Y86471D01*
X286010Y86541D01*
X286200Y86625D01*
X286368Y86721D01*
X286514Y86831D01*
X286639Y86953D01*
X286863Y82759D01*
X286732Y82864D01*
X286579Y82957D01*
X286406Y83040D01*
X286211Y83112D01*
X285994Y83172D01*
X285756Y83222D01*
X285497Y83260D01*
X285175Y83285D01*
X284781Y83250D01*
X284331Y83175D01*
X283941Y83070D01*
X283610Y82935D01*
X283340Y82770D01*
X283130Y82575D01*
X282980Y82350D01*
X282890Y82095D01*
X282861Y81810D01*
Y87810D01*
X282890Y87525D01*
D02*
G37*
G36*
X255415Y78471D02*
X254990Y78320D01*
X254615Y78068D01*
X254290Y77716D01*
X254015Y77263D01*
X253790Y76710D01*
X253615Y76056D01*
X253490Y75301D01*
X253415Y74446D01*
X253390Y73491D01*
X248390D01*
X248365Y74446D01*
X248290Y75301D01*
X248165Y76056D01*
X247990Y76710D01*
X247765Y77263D01*
X247490Y77716D01*
X247165Y78068D01*
X246790Y78320D01*
X246365Y78471D01*
X245890Y78521D01*
X255890D01*
X255415Y78471D01*
D02*
G37*
G36*
X218920Y89825D02*
X218960Y89823D01*
X220861Y89810D01*
Y79810D01*
X218960Y79797D01*
X218920Y79794D01*
Y78491D01*
X218820Y78741D01*
X218519Y78966D01*
X218020Y79163D01*
X217320Y79335D01*
X216420Y79480D01*
X215563Y79555D01*
X212460Y79335D01*
X211761Y79163D01*
X211261Y78966D01*
X210961Y78741D01*
X210861Y78491D01*
Y79795D01*
X210819Y79797D01*
X208920Y79810D01*
Y89810D01*
X210819Y89823D01*
X210861Y89826D01*
Y91130D01*
X210961Y90879D01*
X211261Y90654D01*
X211761Y90457D01*
X212460Y90285D01*
X213361Y90140D01*
X214217Y90065D01*
X217320Y90285D01*
X218020Y90457D01*
X218519Y90654D01*
X218820Y90879D01*
X218920Y91130D01*
Y89825D01*
D02*
G37*
G36*
X243114Y93636D02*
X245004Y92028D01*
X245830Y91449D01*
X246577Y91021D01*
X247245Y90742D01*
X247833Y90614D01*
X248341Y90636D01*
X248771Y90808D01*
X249120Y91130D01*
X242920Y83188D01*
X243163Y83616D01*
X243274Y84106D01*
X243252Y84658D01*
X243098Y85272D01*
X242811Y85948D01*
X242391Y86687D01*
X241838Y87487D01*
X241153Y88349D01*
X240335Y89273D01*
X239384Y90259D01*
X242049Y94665D01*
X243114Y93636D01*
D02*
G37*
G36*
X199203Y133912D02*
X199388Y133771D01*
X199588Y133647D01*
X199803Y133539D01*
X200033Y133448D01*
X200278Y133373D01*
X200538Y133315D01*
X200813Y133273D01*
X201103Y133248D01*
X201408Y133240D01*
Y130700D01*
X201103Y130692D01*
X200813Y130667D01*
X200538Y130625D01*
X200278Y130567D01*
X200033Y130492D01*
X199803Y130401D01*
X199588Y130293D01*
X199388Y130169D01*
X199203Y130028D01*
X199032Y129870D01*
X196890Y131970D01*
X199032Y134070D01*
X199203Y133912D01*
D02*
G37*
G36*
X196890Y131970D02*
X194748Y129870D01*
X194577Y130028D01*
X194392Y130169D01*
X194192Y130293D01*
X193977Y130401D01*
X193747Y130492D01*
X193502Y130567D01*
X193242Y130625D01*
X192967Y130667D01*
X192677Y130692D01*
X192372Y130700D01*
Y133240D01*
X192677Y133248D01*
X192967Y133273D01*
X193242Y133315D01*
X193502Y133373D01*
X193747Y133448D01*
X193977Y133539D01*
X194192Y133647D01*
X194392Y133771D01*
X194577Y133912D01*
X194748Y134070D01*
X196890Y131970D01*
D02*
G37*
G36*
X246909Y141737D02*
X243371D01*
X243422Y141837D01*
X243468Y142032D01*
X243508Y142321D01*
X243573Y143180D01*
X243640Y146970D01*
X246640D01*
X246909Y141737D01*
D02*
G37*
G36*
X290396Y140045D02*
X290444Y139465D01*
X290486Y139207D01*
X290540Y138970D01*
X290606Y138756D01*
X290684Y138562D01*
X290774Y138391D01*
X290876Y138241D01*
X290990Y138112D01*
X286790D01*
X286904Y138241D01*
X287006Y138391D01*
X287096Y138562D01*
X287174Y138756D01*
X287240Y138970D01*
X287294Y139207D01*
X287336Y139465D01*
X287366Y139744D01*
X287390Y140368D01*
X290390D01*
X290396Y140045D01*
D02*
G37*
G36*
X186635Y134269D02*
X186712Y134053D01*
X186840Y133862D01*
X187020Y133697D01*
X187252Y133558D01*
X187534Y133443D01*
X187869Y133354D01*
X188254Y133291D01*
X188691Y133253D01*
X189179Y133240D01*
Y130700D01*
X188691Y130687D01*
X188254Y130649D01*
X187869Y130586D01*
X187534Y130497D01*
X187252Y130382D01*
X187020Y130243D01*
X186840Y130078D01*
X186712Y129887D01*
X186635Y129671D01*
X186609Y129430D01*
Y134510D01*
X186635Y134269D01*
D02*
G37*
G36*
X236140Y114665D02*
X235872Y114338D01*
X235635Y114003D01*
X235429Y113661D01*
X235256Y113311D01*
X235113Y112954D01*
X235003Y112589D01*
X234924Y112217D01*
X234876Y111837D01*
X234860Y111449D01*
X222299Y111419D01*
X223002Y111456D01*
X223706Y111564D01*
X224411Y111744D01*
X225116Y111994D01*
X225823Y112315D01*
X226531Y112707D01*
X227239Y113170D01*
X227948Y113704D01*
X228659Y114309D01*
X229370Y114985D01*
X236441D01*
X236140Y114665D01*
D02*
G37*
G36*
X256173Y113501D02*
X256211Y113064D01*
X256274Y112678D01*
X256363Y112344D01*
X256478Y112062D01*
X256617Y111830D01*
X256782Y111650D01*
X256973Y111522D01*
X257189Y111445D01*
X257430Y111419D01*
X252350D01*
X252591Y111445D01*
X252807Y111522D01*
X252998Y111650D01*
X253163Y111830D01*
X253302Y112062D01*
X253417Y112344D01*
X253506Y112678D01*
X253569Y113064D01*
X253607Y113501D01*
X253620Y113989D01*
X256160D01*
X256173Y113501D01*
D02*
G37*
G36*
X163739Y124980D02*
X163777Y124874D01*
X163894Y124697D01*
X164090Y124450D01*
X164717Y123743D01*
X166916Y121480D01*
X159845D01*
X159137Y122152D01*
X158430Y122753D01*
X157723Y123283D01*
X157016Y123743D01*
X156309Y124132D01*
X155602Y124450D01*
X154895Y124697D01*
X154188Y124874D01*
X153481Y124980D01*
X152774Y125015D01*
X163780D01*
X163739Y124980D01*
D02*
G37*
G36*
X187983Y117267D02*
X187773Y117045D01*
X187586Y116823D01*
X187421Y116599D01*
X187278Y116374D01*
X187157Y116148D01*
X187059Y115920D01*
X186983Y115692D01*
X186930Y115463D01*
X186899Y115232D01*
X186890Y115000D01*
X183920Y117970D01*
X184152Y117979D01*
X184383Y118010D01*
X184612Y118063D01*
X184841Y118139D01*
X185068Y118237D01*
X185294Y118358D01*
X185519Y118500D01*
X185742Y118666D01*
X185965Y118853D01*
X186187Y119063D01*
X187983Y117267D01*
D02*
G37*
G36*
X105890Y195970D02*
X105890Y174970D01*
X102890Y171970D01*
X52890D01*
X47890Y166970D01*
X41890Y160970D01*
Y141970D01*
Y116970D01*
X45890Y112970D01*
X55890Y102970D01*
X90890D01*
X97890Y95970D01*
X107890Y85970D01*
X126890D01*
X134890Y93970D01*
X136890Y95970D01*
X144890D01*
X150890Y89970D01*
Y84970D01*
Y72970D01*
X147890Y69970D01*
X126890D01*
X120890Y63970D01*
Y62970D01*
Y46970D01*
X118890Y44970D01*
X91890D01*
X87890Y40970D01*
X39890D01*
X34890Y45970D01*
X11890Y68970D01*
Y129970D01*
Y154970D01*
X16890Y159970D01*
X49890Y192970D01*
X74890D01*
X75890Y193970D01*
X79890Y197970D01*
X103890D01*
X105890Y195970D01*
D02*
G37*
G36*
X204605Y34501D02*
X204350Y34410D01*
X204125Y34258D01*
X203930Y34046D01*
X203765Y33773D01*
X203630Y33440D01*
X203525Y33046D01*
X203450Y32592D01*
X203405Y32076D01*
X203390Y31500D01*
X200390D01*
X200375Y32076D01*
X200330Y32592D01*
X200255Y33046D01*
X200150Y33440D01*
X200015Y33773D01*
X199850Y34046D01*
X199655Y34258D01*
X199430Y34410D01*
X199175Y34501D01*
X198890Y34531D01*
X204890D01*
X204605Y34501D01*
D02*
G37*
G36*
X266919Y42825D02*
X266961Y42823D01*
X268860Y42810D01*
Y32810D01*
X266961Y32797D01*
X266919Y32794D01*
Y31490D01*
X266819Y31741D01*
X266520Y31965D01*
X266019Y32163D01*
X265319Y32335D01*
X264419Y32480D01*
X263563Y32555D01*
X260460Y32335D01*
X259760Y32163D01*
X259261Y31965D01*
X258960Y31741D01*
X258860Y31490D01*
Y32796D01*
X258820Y32797D01*
X256919Y32810D01*
Y42810D01*
X258820Y42823D01*
X258860Y42826D01*
Y44130D01*
X258960Y43879D01*
X259261Y43654D01*
X259760Y43457D01*
X260460Y43285D01*
X261360Y43140D01*
X262217Y43065D01*
X265319Y43285D01*
X266019Y43457D01*
X266520Y43654D01*
X266819Y43879D01*
X266919Y44130D01*
Y42825D01*
D02*
G37*
G36*
X242920D02*
X242960Y42823D01*
X244860Y42810D01*
Y32810D01*
X242960Y32797D01*
X242920Y32794D01*
Y31490D01*
X242819Y31741D01*
X242519Y31965D01*
X242020Y32163D01*
X241320Y32335D01*
X240420Y32480D01*
X239563Y32555D01*
X236460Y32335D01*
X235760Y32163D01*
X235261Y31965D01*
X234960Y31741D01*
X234860Y31490D01*
Y32796D01*
X234820Y32797D01*
X232920Y32810D01*
Y42810D01*
X234820Y42823D01*
X234860Y42826D01*
Y44130D01*
X234960Y43879D01*
X235261Y43654D01*
X235760Y43457D01*
X236460Y43285D01*
X237360Y43140D01*
X238217Y43065D01*
X241320Y43285D01*
X242020Y43457D01*
X242519Y43654D01*
X242819Y43879D01*
X242920Y44130D01*
Y42825D01*
D02*
G37*
G36*
X301605Y31491D02*
X301350Y31400D01*
X301125Y31248D01*
X300930Y31036D01*
X300765Y30763D01*
X300630Y30430D01*
X300525Y30036D01*
X300450Y29581D01*
X300405Y29066D01*
X300390Y28491D01*
X297390D01*
X297375Y29066D01*
X297330Y29581D01*
X297255Y30036D01*
X297150Y30430D01*
X297015Y30763D01*
X296850Y31036D01*
X296655Y31248D01*
X296430Y31400D01*
X296175Y31491D01*
X295890Y31521D01*
X301890D01*
X301605Y31491D01*
D02*
G37*
G36*
X189998Y3194D02*
X190110Y2608D01*
X190297Y2011D01*
X190560Y1404D01*
X190897Y787D01*
X191309Y159D01*
X191796Y-479D01*
X192358Y-1127D01*
X192995Y-1786D01*
X193707Y-2455D01*
X183673D01*
X184385Y-1786D01*
X185584Y-479D01*
X186071Y159D01*
X186483Y787D01*
X186821Y1404D01*
X187083Y2011D01*
X187270Y2608D01*
X187383Y3194D01*
X187420Y3770D01*
X189960D01*
X189998Y3194D01*
D02*
G37*
G36*
X217828Y-14600D02*
X217310Y-15052D01*
X216853Y-15520D01*
X216457Y-16003D01*
X216122Y-16502D01*
X215847Y-17017D01*
X215634Y-17546D01*
X215482Y-18092D01*
X215390Y-18653D01*
X215360Y-19230D01*
X212820D01*
X212789Y-18653D01*
X212698Y-18092D01*
X212546Y-17546D01*
X212332Y-17017D01*
X212058Y-16502D01*
X211723Y-16003D01*
X211327Y-15520D01*
X210870Y-15052D01*
X210352Y-14600D01*
X209773Y-14163D01*
X218407D01*
X217828Y-14600D01*
D02*
G37*
G36*
X151000Y36000D02*
Y24000D01*
X145000Y18000D01*
X94000D01*
X91000Y21000D01*
Y25000D01*
Y35000D01*
X93130Y37129D01*
X149871D01*
X151000Y36000D01*
D02*
G37*
G36*
X145511Y2975D02*
X144873Y2303D01*
X144373Y1702D01*
X144012Y1172D01*
X143789Y712D01*
X143705Y323D01*
X143759Y5D01*
X143952Y-242D01*
X144283Y-419D01*
X144752Y-525D01*
X145359Y-560D01*
X131368Y-591D01*
X132089Y-536D01*
X132846Y-375D01*
X133639Y-108D01*
X134469Y266D01*
X135335Y746D01*
X136236Y1333D01*
X137175Y2026D01*
X139160Y3731D01*
X140207Y4743D01*
X145511Y2975D01*
D02*
G37*
G36*
X242950Y53130D02*
X242900Y53605D01*
X242749Y54030D01*
X242497Y54405D01*
X242145Y54730D01*
X241692Y55005D01*
X241139Y55230D01*
X240485Y55405D01*
X239730Y55530D01*
X238893Y55603D01*
X238060Y55530D01*
X237311Y55405D01*
X236660Y55230D01*
X236110Y55005D01*
X235660Y54730D01*
X235310Y54405D01*
X235061Y54030D01*
X234911Y53605D01*
X234860Y53130D01*
Y63130D01*
X234911Y62655D01*
X235061Y62230D01*
X235310Y61855D01*
X235660Y61530D01*
X236110Y61255D01*
X236660Y61030D01*
X237311Y60855D01*
X238060Y60730D01*
X238893Y60656D01*
X239730Y60730D01*
X240485Y60855D01*
X241139Y61030D01*
X241692Y61255D01*
X242145Y61530D01*
X242497Y61855D01*
X242749Y62230D01*
X242900Y62655D01*
X242950Y63130D01*
Y53130D01*
D02*
G37*
G36*
X290950Y55590D02*
X290924Y55831D01*
X290847Y56047D01*
X290719Y56238D01*
X290539Y56403D01*
X290307Y56543D01*
X290025Y56657D01*
X289690Y56746D01*
X289305Y56809D01*
X288868Y56847D01*
X288379Y56860D01*
Y59400D01*
X288868Y59413D01*
X289305Y59451D01*
X289690Y59514D01*
X290025Y59603D01*
X290307Y59717D01*
X290539Y59857D01*
X290719Y60022D01*
X290847Y60213D01*
X290924Y60429D01*
X290950Y60670D01*
Y55590D01*
D02*
G37*
G36*
X300173Y66501D02*
X300211Y66064D01*
X300274Y65679D01*
X300363Y65344D01*
X300478Y65062D01*
X300617Y64830D01*
X300782Y64650D01*
X300973Y64522D01*
X301189Y64445D01*
X301430Y64419D01*
X296350D01*
X296591Y64445D01*
X296807Y64522D01*
X296998Y64650D01*
X297163Y64830D01*
X297302Y65062D01*
X297417Y65344D01*
X297506Y65679D01*
X297569Y66064D01*
X297607Y66501D01*
X297620Y66989D01*
X300160D01*
X300173Y66501D01*
D02*
G37*
G36*
X253415Y68494D02*
X253490Y67639D01*
X253615Y66884D01*
X253790Y66230D01*
X254015Y65677D01*
X254290Y65224D01*
X254615Y64872D01*
X254990Y64620D01*
X255415Y64469D01*
X255890Y64419D01*
X245890D01*
X246365Y64469D01*
X246790Y64620D01*
X247165Y64872D01*
X247490Y65224D01*
X247765Y65677D01*
X247990Y66230D01*
X248165Y66884D01*
X248290Y67639D01*
X248365Y68494D01*
X248390Y69450D01*
X253390D01*
X253415Y68494D01*
D02*
G37*
G36*
X282886Y60429D02*
X282962Y60213D01*
X283089Y60022D01*
X283267Y59857D01*
X283496Y59717D01*
X283775Y59603D01*
X284105Y59514D01*
X284486Y59451D01*
X284918Y59413D01*
X285401Y59400D01*
Y56860D01*
X284918Y56847D01*
X284486Y56809D01*
X284105Y56746D01*
X283775Y56657D01*
X283496Y56543D01*
X283267Y56403D01*
X283089Y56238D01*
X282962Y56047D01*
X282886Y55831D01*
X282861Y55590D01*
Y60670D01*
X282886Y60429D01*
D02*
G37*
G36*
X191201Y46970D02*
X191151Y47445D01*
X191000Y47870D01*
X190748Y48245D01*
X190396Y48570D01*
X189943Y48845D01*
X189390Y49070D01*
X188736Y49245D01*
X187981Y49370D01*
X187126Y49445D01*
X186171Y49470D01*
Y54470D01*
X187126Y54495D01*
X187981Y54570D01*
X188736Y54695D01*
X189390Y54870D01*
X189943Y55095D01*
X190396Y55370D01*
X190748Y55695D01*
X191000Y56070D01*
X191151Y56495D01*
X191201Y56970D01*
Y46970D01*
D02*
G37*
G36*
X203608Y50103D02*
X203562Y49908D01*
X203522Y49619D01*
X203457Y48760D01*
X203390Y44970D01*
X200390D01*
X200121Y50203D01*
X203659D01*
X203608Y50103D01*
D02*
G37*
G36*
X218950Y53130D02*
X218900Y53605D01*
X218749Y54030D01*
X218497Y54405D01*
X218145Y54730D01*
X217692Y55005D01*
X217139Y55230D01*
X216485Y55405D01*
X215730Y55530D01*
X214875Y55605D01*
X213920Y55630D01*
Y60630D01*
X214875Y60655D01*
X215730Y60730D01*
X216485Y60855D01*
X217139Y61030D01*
X217692Y61255D01*
X218145Y61530D01*
X218497Y61855D01*
X218749Y62230D01*
X218900Y62655D01*
X218950Y63130D01*
Y53130D01*
D02*
G37*
G36*
X150660Y56495D02*
X150810Y56070D01*
X151060Y55695D01*
X151410Y55370D01*
X151860Y55095D01*
X152410Y54870D01*
X153060Y54695D01*
X153810Y54570D01*
X154660Y54495D01*
X155610Y54470D01*
Y51752D01*
X158890Y54470D01*
Y51970D01*
X158122Y49202D01*
X154180Y49403D01*
X153810Y49370D01*
X153060Y49245D01*
X152410Y49070D01*
X151860Y48845D01*
X151410Y48570D01*
X151060Y48245D01*
X150810Y47870D01*
X150660Y47445D01*
X150610Y46970D01*
Y56970D01*
X150660Y56495D01*
D02*
G37*
G36*
X208265Y239111D02*
X208240Y239346D01*
X208164Y239557D01*
X208037Y239743D01*
X207859Y239904D01*
X207631Y240040D01*
X207351Y240152D01*
X207021Y240238D01*
X206640Y240300D01*
X206208Y240338D01*
X205725Y240350D01*
Y242890D01*
X206208Y242902D01*
X206640Y242940D01*
X207021Y243001D01*
X207351Y243088D01*
X207631Y243200D01*
X207859Y243336D01*
X208037Y243497D01*
X208164Y243683D01*
X208240Y243894D01*
X208265Y244130D01*
Y239111D01*
D02*
G37*
G36*
X201886Y243894D02*
X201962Y243683D01*
X202089Y243497D01*
X202267Y243336D01*
X202495Y243200D01*
X202775Y243088D01*
X203105Y243001D01*
X203486Y242940D01*
X203918Y242902D01*
X204401Y242890D01*
Y240350D01*
X203918Y240337D01*
X203486Y240299D01*
X203105Y240236D01*
X202775Y240147D01*
X202495Y240033D01*
X202267Y239893D01*
X202089Y239728D01*
X201962Y239537D01*
X201886Y239321D01*
X201861Y239080D01*
Y244130D01*
X201886Y243894D01*
D02*
G37*
G36*
X161167Y248514D02*
X161225Y247747D01*
X161276Y247435D01*
X161341Y247171D01*
X161420Y246956D01*
X161514Y246788D01*
X161623Y246668D01*
X161745Y246596D01*
X161883Y246572D01*
X157897D01*
X158035Y246596D01*
X158157Y246668D01*
X158266Y246788D01*
X158360Y246956D01*
X158439Y247171D01*
X158504Y247435D01*
X158555Y247747D01*
X158591Y248107D01*
X158620Y248970D01*
X161160D01*
X161167Y248514D01*
D02*
G37*
G36*
X260336Y239111D02*
X255540Y239120D01*
Y244120D01*
X260336Y244130D01*
Y239111D01*
D02*
G37*
G36*
X191163Y231521D02*
X190894Y231588D01*
X190606Y231600D01*
X190297Y231556D01*
X189968Y231456D01*
X189619Y231301D01*
X189249Y231091D01*
X188860Y230825D01*
X188450Y230504D01*
X188020Y230127D01*
X187570Y229694D01*
X184123Y229839D01*
X184703Y230437D01*
X185598Y231473D01*
X185913Y231911D01*
X186139Y232297D01*
X186278Y232630D01*
X186328Y232909D01*
X186290Y233136D01*
X186164Y233310D01*
X185950Y233432D01*
X191163Y231521D01*
D02*
G37*
G36*
X143627Y228487D02*
X143441Y228367D01*
X143330Y228208D01*
X143295Y228009D01*
X143335Y227772D01*
X143449Y227495D01*
X143639Y227179D01*
X143905Y226823D01*
X144245Y226429D01*
X144661Y225995D01*
X141870Y225194D01*
X141389Y225657D01*
X140486Y226419D01*
X140065Y226718D01*
X139663Y226961D01*
X139282Y227149D01*
X138920Y227282D01*
X138579Y227360D01*
X138257Y227383D01*
X137955Y227351D01*
X143888Y228568D01*
X143627Y228487D01*
D02*
G37*
G36*
X40759Y225020D02*
X40543Y224943D01*
X40352Y224815D01*
X40187Y224635D01*
X40047Y224403D01*
X39933Y224121D01*
X39844Y223786D01*
X39781Y223401D01*
X39743Y222964D01*
X39730Y222475D01*
X37190D01*
X37177Y222964D01*
X37139Y223401D01*
X37076Y223786D01*
X36987Y224121D01*
X36872Y224403D01*
X36733Y224635D01*
X36568Y224815D01*
X36377Y224943D01*
X36161Y225020D01*
X35920Y225046D01*
X41000D01*
X40759Y225020D01*
D02*
G37*
G36*
X67652Y235888D02*
X67780Y235590D01*
X67994Y235328D01*
X68294Y235100D01*
X68679Y234908D01*
X69150Y234750D01*
X69707Y234627D01*
X70349Y234540D01*
X71077Y234487D01*
X71890Y234470D01*
Y229470D01*
X71077Y229452D01*
X69707Y229312D01*
X69150Y229190D01*
X68679Y229032D01*
X68294Y228840D01*
X67994Y228612D01*
X67780Y228350D01*
X67652Y228052D01*
X67609Y227719D01*
Y236220D01*
X67652Y235888D01*
D02*
G37*
G36*
X260336Y226411D02*
X260310Y226646D01*
X260234Y226857D01*
X260107Y227043D01*
X259929Y227204D01*
X259701Y227340D01*
X259421Y227452D01*
X259091Y227538D01*
X258710Y227600D01*
X258278Y227638D01*
X257796Y227650D01*
Y230190D01*
X258278Y230202D01*
X258710Y230240D01*
X259091Y230301D01*
X259421Y230388D01*
X259701Y230500D01*
X259929Y230636D01*
X260107Y230797D01*
X260234Y230983D01*
X260310Y231194D01*
X260336Y231430D01*
Y226411D01*
D02*
G37*
G36*
Y268576D02*
X260354Y268573D01*
X260634Y268543D01*
X261259Y268520D01*
X261316Y265520D01*
X260994Y265514D01*
X260414Y265465D01*
X260336Y265452D01*
Y264510D01*
X260306Y264702D01*
X260215Y264874D01*
X260065Y265025D01*
X259855Y265157D01*
X259608Y265258D01*
X259514Y265219D01*
X259343Y265127D01*
X259194Y265023D01*
X259067Y264906D01*
X259059Y265394D01*
X258866Y265429D01*
X258416Y265480D01*
X257906Y265510D01*
X257335Y265520D01*
Y268520D01*
X257906Y268530D01*
X258866Y268611D01*
X259005Y268636D01*
X258997Y269105D01*
X259126Y268994D01*
X259277Y268895D01*
X259450Y268807D01*
X259557Y268765D01*
X259585Y268772D01*
X259855Y268883D01*
X260065Y269015D01*
X260215Y269166D01*
X260306Y269338D01*
X260336Y269529D01*
Y268576D01*
D02*
G37*
G36*
X223475Y269338D02*
X223564Y269166D01*
X223715Y269015D01*
X223925Y268883D01*
X224195Y268772D01*
X224524Y268682D01*
X224914Y268611D01*
X225364Y268560D01*
X225875Y268530D01*
X226444Y268520D01*
Y265520D01*
X225875Y265510D01*
X224914Y265429D01*
X224524Y265359D01*
X224195Y265268D01*
X223925Y265157D01*
X223715Y265025D01*
X223564Y264874D01*
X223475Y264702D01*
X223444Y264510D01*
Y269529D01*
X223475Y269338D01*
D02*
G37*
G36*
X234445Y279970D02*
X234190Y279879D01*
X233965Y279729D01*
X233770Y279520D01*
X233605Y279249D01*
X233470Y278920D01*
X233365Y278529D01*
X233290Y278079D01*
X233245Y277570D01*
X233230Y276999D01*
X230230D01*
X230215Y277570D01*
X230170Y278079D01*
X230095Y278529D01*
X229990Y278920D01*
X229855Y279249D01*
X229690Y279520D01*
X229495Y279729D01*
X229270Y279879D01*
X229015Y279970D01*
X228730Y280000D01*
X234730D01*
X234445Y279970D01*
D02*
G37*
G36*
X202900Y274769D02*
X202934Y274590D01*
X202992Y274405D01*
X203073Y274214D01*
X203178Y274015D01*
X203307Y273810D01*
X203460Y273598D01*
X203636Y273379D01*
X204061Y272921D01*
X201939Y270799D01*
X201707Y271023D01*
X201262Y271400D01*
X201050Y271553D01*
X200845Y271682D01*
X200646Y271787D01*
X200455Y271868D01*
X200270Y271926D01*
X200091Y271960D01*
X199920Y271970D01*
X202890Y274940D01*
X202900Y274769D01*
D02*
G37*
G36*
X235396Y258045D02*
X235444Y257465D01*
X235486Y257207D01*
X235540Y256970D01*
X235606Y256756D01*
X235684Y256562D01*
X235774Y256391D01*
X235876Y256241D01*
X235990Y256112D01*
X231790D01*
X231904Y256241D01*
X232006Y256391D01*
X232096Y256562D01*
X232174Y256756D01*
X232240Y256970D01*
X232294Y257207D01*
X232336Y257465D01*
X232366Y257744D01*
X232390Y258368D01*
X235390D01*
X235396Y258045D01*
D02*
G37*
G36*
X201886Y256619D02*
X201962Y256403D01*
X202089Y256212D01*
X202267Y256047D01*
X202495Y255907D01*
X202775Y255793D01*
X203105Y255704D01*
X203486Y255641D01*
X203918Y255603D01*
X204401Y255590D01*
Y253050D01*
X203918Y253038D01*
X203486Y253000D01*
X203105Y252938D01*
X202775Y252852D01*
X202495Y252740D01*
X202267Y252604D01*
X202089Y252443D01*
X201962Y252257D01*
X201886Y252046D01*
X201861Y251810D01*
Y256860D01*
X201886Y256619D01*
D02*
G37*
G36*
X208265Y251810D02*
X208240Y252046D01*
X208164Y252257D01*
X208037Y252443D01*
X207859Y252604D01*
X207631Y252740D01*
X207351Y252852D01*
X207021Y252938D01*
X206640Y253000D01*
X206208Y253038D01*
X205725Y253050D01*
Y255590D01*
X206208Y255602D01*
X206640Y255640D01*
X207021Y255702D01*
X207351Y255788D01*
X207631Y255900D01*
X207859Y256036D01*
X208037Y256197D01*
X208164Y256383D01*
X208240Y256594D01*
X208265Y256829D01*
Y251810D01*
D02*
G37*
G36*
X260336D02*
X260306Y252002D01*
X260215Y252174D01*
X260065Y252325D01*
X259855Y252457D01*
X259585Y252568D01*
X259256Y252659D01*
X258866Y252729D01*
X258586Y252761D01*
X258563Y252758D01*
X258309Y252710D01*
X258078Y252649D01*
X257869Y252573D01*
X257684Y252484D01*
X257521Y252381D01*
X257380Y252265D01*
X257263Y252134D01*
X256773Y256306D01*
X256904Y256213D01*
X257057Y256131D01*
X257231Y256058D01*
X257427Y255995D01*
X257644Y255941D01*
X257882Y255898D01*
X258245Y255859D01*
X258866Y255911D01*
X259256Y255982D01*
X259585Y256072D01*
X259855Y256183D01*
X260065Y256315D01*
X260215Y256466D01*
X260306Y256638D01*
X260336Y256829D01*
Y251810D01*
D02*
G37*
G36*
X185950Y255590D02*
X185924Y255831D01*
X185847Y256047D01*
X185719Y256238D01*
X185539Y256403D01*
X185307Y256542D01*
X185025Y256657D01*
X184690Y256746D01*
X184305Y256809D01*
X183868Y256847D01*
X183379Y256860D01*
Y259400D01*
X183868Y259413D01*
X184305Y259451D01*
X184690Y259514D01*
X185025Y259603D01*
X185307Y259718D01*
X185539Y259857D01*
X185719Y260022D01*
X185847Y260213D01*
X185924Y260429D01*
X185950Y260670D01*
Y255590D01*
D02*
G37*
G36*
X227110Y161439D02*
X224170D01*
X224220Y161465D01*
X224264Y161541D01*
X224303Y161668D01*
X224337Y161846D01*
X224365Y162075D01*
X224407Y162684D01*
X224430Y163979D01*
X226970D01*
X227110Y161439D01*
D02*
G37*
G36*
X246412Y163497D02*
X246447Y162950D01*
X247161Y163010D01*
X247019Y162829D01*
X246891Y162634D01*
X246778Y162426D01*
X246680Y162204D01*
X246598Y161968D01*
X246530Y161719D01*
X246527Y161704D01*
X246538Y161541D01*
X246572Y161465D01*
X246609Y161439D01*
X246476D01*
X246440Y161178D01*
X246418Y160888D01*
X246410Y160583D01*
X243870Y160349D01*
X243861Y160655D01*
X243834Y160944D01*
X243790Y161216D01*
X243735Y161439D01*
X243671D01*
X243708Y161465D01*
X243720Y161492D01*
X243647Y161712D01*
X243548Y161935D01*
X243432Y162141D01*
X243298Y162330D01*
X243146Y162504D01*
X242976Y162660D01*
X243846Y162733D01*
X243870Y163979D01*
X246410D01*
X246412Y163497D01*
D02*
G37*
G36*
X246410Y197356D02*
X246418Y197052D01*
X246440Y196761D01*
X246478Y196485D01*
X246530Y196221D01*
X246598Y195972D01*
X246680Y195736D01*
X246778Y195514D01*
X246891Y195306D01*
X247019Y195111D01*
X247161Y194930D01*
X242976Y195280D01*
X243146Y195436D01*
X243298Y195609D01*
X243432Y195799D01*
X243548Y196005D01*
X243647Y196228D01*
X243727Y196468D01*
X243790Y196724D01*
X243834Y196996D01*
X243861Y197285D01*
X243870Y197591D01*
X246410Y197356D01*
D02*
G37*
G36*
X227850Y168699D02*
X227683Y168539D01*
X227533Y168363D01*
X227401Y168170D01*
X227287Y167962D01*
X227190Y167737D01*
X227111Y167496D01*
X227049Y167239D01*
X227005Y166966D01*
X226979Y166677D01*
X226970Y166371D01*
X224430Y166549D01*
X224422Y166854D01*
X224399Y167144D01*
X224361Y167421D01*
X224307Y167683D01*
X224237Y167932D01*
X224152Y168166D01*
X224052Y168387D01*
X223936Y168594D01*
X223805Y168786D01*
X223659Y168965D01*
X227850Y168699D01*
D02*
G37*
G36*
X220412Y163497D02*
X220447Y162950D01*
X221161Y163010D01*
X221019Y162829D01*
X220891Y162634D01*
X220778Y162426D01*
X220680Y162204D01*
X220598Y161968D01*
X220530Y161719D01*
X220527Y161704D01*
X220538Y161541D01*
X220572Y161465D01*
X220609Y161439D01*
X220476D01*
X220440Y161178D01*
X220417Y160888D01*
X220410Y160583D01*
X217870Y160349D01*
X217861Y160655D01*
X217834Y160944D01*
X217789Y161216D01*
X217735Y161439D01*
X217670D01*
X217708Y161465D01*
X217720Y161492D01*
X217647Y161712D01*
X217548Y161935D01*
X217432Y162141D01*
X217298Y162330D01*
X217146Y162504D01*
X216976Y162660D01*
X217845Y162733D01*
X217870Y163979D01*
X220410D01*
X220412Y163497D01*
D02*
G37*
G36*
X253072Y145475D02*
X253038Y145399D01*
X253008Y145272D01*
X252982Y145094D01*
X252942Y144586D01*
X252910Y142961D01*
X250370D01*
X250368Y143443D01*
X250242Y145399D01*
X250208Y145475D01*
X250170Y145500D01*
X253109D01*
X253072Y145475D01*
D02*
G37*
G36*
X240072D02*
X240038Y145399D01*
X240008Y145272D01*
X239982Y145094D01*
X239942Y144586D01*
X239910Y142961D01*
X237370D01*
X237368Y143443D01*
X237242Y145399D01*
X237208Y145475D01*
X237171Y145500D01*
X240110D01*
X240072Y145475D01*
D02*
G37*
G36*
X233419Y145488D02*
X233417Y145449D01*
X233410Y144220D01*
X230870D01*
X230860Y145500D01*
X233421D01*
X233419Y145488D01*
D02*
G37*
G36*
X272572Y145475D02*
X272538Y145399D01*
X272508Y145272D01*
X272482Y145094D01*
X272442Y144586D01*
X272410Y142961D01*
X269870D01*
X269868Y143443D01*
X269742Y145399D01*
X269708Y145475D01*
X269671Y145500D01*
X272610D01*
X272572Y145475D01*
D02*
G37*
G36*
X202846Y219130D02*
X202190Y218466D01*
X199701Y215639D01*
X199528Y215361D01*
X199425Y215137D01*
X199390Y214968D01*
X196888Y217470D01*
X197057Y217505D01*
X197281Y217608D01*
X197560Y217781D01*
X197893Y218023D01*
X198725Y218714D01*
X200387Y220270D01*
X201050Y220926D01*
X202846Y219130D01*
D02*
G37*
G36*
X39743Y213992D02*
X39781Y213555D01*
X39844Y213170D01*
X39933Y212835D01*
X40047Y212553D01*
X40187Y212321D01*
X40352Y212141D01*
X40543Y212013D01*
X40759Y211936D01*
X41000Y211910D01*
X35920D01*
X36161Y211936D01*
X36377Y212013D01*
X36568Y212141D01*
X36733Y212321D01*
X36872Y212553D01*
X36987Y212835D01*
X37076Y213170D01*
X37139Y213555D01*
X37177Y213992D01*
X37190Y214480D01*
X39730D01*
X39743Y213992D01*
D02*
G37*
G36*
X281748Y218870D02*
X281577Y219028D01*
X281392Y219169D01*
X281192Y219293D01*
X280977Y219401D01*
X280747Y219492D01*
X280502Y219567D01*
X280242Y219625D01*
X279967Y219667D01*
X279677Y219692D01*
X279372Y219700D01*
Y222240D01*
X279677Y222248D01*
X279967Y222273D01*
X280242Y222315D01*
X280502Y222373D01*
X280747Y222447D01*
X280977Y222539D01*
X281192Y222647D01*
X281392Y222771D01*
X281577Y222912D01*
X281748Y223070D01*
Y218870D01*
D02*
G37*
G36*
X252912Y218497D02*
X253038Y216541D01*
X253072Y216465D01*
X253109Y216439D01*
X250170D01*
X250208Y216465D01*
X250242Y216541D01*
X250272Y216668D01*
X250298Y216846D01*
X250338Y217354D01*
X250370Y218979D01*
X252910D01*
X252912Y218497D01*
D02*
G37*
G36*
X65365Y206269D02*
X65442Y206053D01*
X65570Y205862D01*
X65750Y205697D01*
X65982Y205557D01*
X66264Y205443D01*
X66599Y205354D01*
X66984Y205291D01*
X67421Y205253D01*
X67909Y205240D01*
Y202700D01*
X67421Y202687D01*
X66984Y202649D01*
X66599Y202586D01*
X66264Y202497D01*
X65982Y202383D01*
X65750Y202243D01*
X65570Y202078D01*
X65442Y201887D01*
X65365Y201671D01*
X65339Y201430D01*
Y206510D01*
X65365Y206269D01*
D02*
G37*
G36*
X266072Y200475D02*
X266038Y200399D01*
X266008Y200272D01*
X265982Y200094D01*
X265942Y199586D01*
X265910Y197960D01*
X263370D01*
X263368Y198443D01*
X263242Y200399D01*
X263208Y200475D01*
X263171Y200501D01*
X266110D01*
X266072Y200475D01*
D02*
G37*
G36*
X246572D02*
X246538Y200399D01*
X246508Y200272D01*
X246482Y200094D01*
X246442Y199586D01*
X246410Y197960D01*
X243870D01*
X243868Y198443D01*
X243742Y200399D01*
X243708Y200475D01*
X243671Y200501D01*
X246609D01*
X246572Y200475D01*
D02*
G37*
G36*
X233419Y200488D02*
X233417Y200449D01*
X233410Y199220D01*
X230870D01*
X230860Y200501D01*
X233421D01*
X233419Y200488D01*
D02*
G37*
G36*
X272572Y200475D02*
X272538Y200399D01*
X272508Y200272D01*
X272482Y200094D01*
X272442Y199586D01*
X272410Y197960D01*
X269870D01*
X269868Y198443D01*
X269742Y200399D01*
X269708Y200475D01*
X269671Y200501D01*
X272610D01*
X272572Y200475D01*
D02*
G37*
D11*
X78970Y154970D02*
X104890D01*
X65970Y141970D02*
X78970Y154970D01*
X65890Y141970D02*
X65970D01*
X104890Y154970D02*
X119890Y169970D01*
X75890Y131970D02*
X89890D01*
X65890Y141970D02*
X75890Y131970D01*
X58890Y141970D02*
X65890D01*
X203890Y84810D02*
X226890D01*
Y37810D02*
X250890D01*
X274890D01*
X119890Y169970D02*
Y186970D01*
X112890Y30810D02*
X138050D01*
X139890Y28970D01*
D12*
X146890Y221970D02*
X178050D01*
X139890Y228970D02*
X146890Y221970D01*
X139890Y228970D02*
Y236970D01*
X192890Y7970D02*
X219890D01*
X188690Y3770D02*
X192890Y7970D01*
X188690Y-8030D02*
Y3770D01*
X313810Y-9110D02*
Y143050D01*
X297890Y-25030D02*
X313810Y-9110D01*
X234890Y-25030D02*
X297890D01*
X301810Y-30110D02*
X318890Y-13030D01*
X224970Y-30110D02*
X301810D01*
X318890Y-13030D02*
Y146970D01*
X214090Y-19230D02*
X224970Y-30110D01*
X226890Y-17030D02*
X234890Y-25030D01*
X274890Y105130D02*
X275730D01*
X254890D02*
X274890D01*
X226890Y-17030D02*
Y970D01*
X219890Y7970D02*
X226890Y970D01*
X214090Y-19230D02*
Y-8030D01*
X264640Y192220D02*
X313810Y143050D01*
X271140Y194720D02*
X318890Y146970D01*
X232140Y199220D02*
Y208470D01*
X220890Y187970D02*
X232140Y199220D01*
X191890Y187970D02*
X220890D01*
X245140Y193220D02*
Y208470D01*
X244890Y192970D02*
X245140Y193220D01*
X271140Y134720D02*
X298890Y106970D01*
X271140Y134720D02*
Y153470D01*
X298890Y58130D02*
Y106970D01*
X203260Y221340D02*
X240658D01*
X196890Y214970D02*
X203260Y221340D01*
X240658D02*
X245140Y216858D01*
Y208470D02*
Y216858D01*
X175890Y203970D02*
X191890Y187970D01*
X60050Y203970D02*
X175890D01*
X178050Y221970D02*
X193890Y237810D01*
X244890Y164970D02*
X245140Y164720D01*
Y153470D02*
Y164720D01*
X38460Y204240D02*
X38730Y203970D01*
X38460Y204240D02*
Y231970D01*
X225700Y170780D02*
X225890Y170970D01*
X225700Y153530D02*
Y170780D01*
X225640Y153470D02*
X225700Y153530D01*
X219140Y153470D02*
Y164720D01*
X274890Y58130D02*
X298890D01*
X251640Y121220D02*
X254890Y117970D01*
Y105130D02*
Y117970D01*
X251640Y121220D02*
Y153470D01*
X271140Y194720D02*
Y208470D01*
X264640Y192220D02*
Y208470D01*
X180320Y131970D02*
X219890D01*
X232140Y144220D01*
Y153470D01*
X238640Y140720D02*
Y153470D01*
X220890Y122970D02*
X238640Y140720D01*
X191890Y122970D02*
X220890D01*
X183890Y114970D02*
X191890Y122970D01*
X251640Y208470D02*
Y224720D01*
X255840Y228920D01*
X267925D01*
X258140Y208470D02*
Y217220D01*
X261890Y220970D01*
X283890D01*
X197700Y254320D02*
X215855D01*
X193890Y258130D02*
X197700Y254320D01*
X197700Y241620D02*
X215855D01*
X193890Y237810D02*
X197700Y241620D01*
X169050Y258130D02*
X193890D01*
X159890Y248970D02*
X169050Y258130D01*
X159890Y236970D02*
Y248970D01*
D13*
Y20890D02*
Y50970D01*
X137890Y-1110D02*
X159890Y20890D01*
X137890Y-8030D02*
Y-1110D01*
X88890Y214970D02*
X196890D01*
X71890Y231970D02*
X88890Y214970D01*
X61320Y231970D02*
X71890D01*
X158890Y51970D02*
X159890Y50970D01*
X139890Y51970D02*
X201890D01*
X206730D01*
X226890Y58130D02*
X250890D01*
X204745Y163825D02*
X219930Y179010D01*
X139890Y74970D02*
X140890Y75970D01*
X229260Y178970D02*
X254890D01*
X229220Y179010D02*
X229260Y178970D01*
X219930Y179010D02*
X229220D01*
X255540Y241620D02*
X267925D01*
X244890Y252270D02*
X255540Y241620D01*
X244890Y252270D02*
Y271970D01*
X252050Y279130D01*
Y287970D01*
X254890Y178970D02*
X255890Y179970D01*
X245140Y127220D02*
Y139970D01*
X226890Y108970D02*
X245140Y127220D01*
X226890Y105130D02*
Y108970D01*
X179730Y105130D02*
X202890D01*
X157460Y127400D02*
X179730Y105130D01*
X157460Y127400D02*
Y131970D01*
X202890Y105130D02*
X226890D01*
X228049D01*
X249890Y84810D02*
X250890Y83810D01*
X249890Y84810D02*
X250890D01*
X248369D02*
X249890D01*
X228049Y105130D02*
X248369Y84810D01*
X250890Y58130D02*
Y83810D01*
X212890Y58130D02*
X226890D01*
X206730Y51970D02*
X212890Y58130D01*
X121890Y74970D02*
X139890D01*
X112890Y65970D02*
X121890Y74970D01*
X112890Y51130D02*
Y65970D01*
X53890Y186970D02*
X99890D01*
X23890Y156970D02*
X53890Y186970D01*
X23890Y83970D02*
Y156970D01*
Y83970D02*
X45890Y61970D01*
X58890D01*
X67890D01*
X78730Y51130D01*
X112890D01*
X58890Y61970D02*
Y89970D01*
D14*
X238640Y197640D02*
Y208470D01*
X236890Y195890D02*
X238640Y197640D01*
X236890Y188970D02*
Y195890D01*
X210890Y20970D02*
X291890D01*
X201890Y29970D02*
X210890Y20970D01*
X201890Y29970D02*
Y51970D01*
Y51970D01*
X291890Y20970D02*
X298890Y27970D01*
Y37810D01*
X199890Y274970D02*
X207840Y267020D01*
X215855D01*
X228840D02*
X229620D01*
X233890Y253970D02*
Y261970D01*
X228840Y267020D02*
X233890Y261970D01*
X215855Y267020D02*
X228840D01*
X254890Y253970D02*
X255240Y254320D01*
X267925D01*
X231730Y269130D02*
Y287970D01*
X229620Y267020D02*
X231730Y269130D01*
X256890Y266970D02*
X256940Y267020D01*
X267925D01*
X288890Y84970D02*
X289570D01*
X289730Y84810D01*
X274890D02*
X289730D01*
X288890Y135970D02*
Y157970D01*
X259850Y187010D02*
X288890Y157970D01*
X252974Y187010D02*
X259850D01*
X251894Y185930D02*
X252974Y187010D01*
X239930Y185930D02*
X251894D01*
X236890Y188970D02*
X239930Y185930D01*
X245140Y139970D02*
Y153470D01*
D15*
X89890Y131970D02*
D03*
X58890Y89970D02*
D03*
D16*
X0Y290000D02*
D03*
X290000D02*
D03*
Y0D02*
D03*
X0D02*
D03*
D17*
X164890Y100970D02*
D03*
X124890D02*
D03*
D18*
X137890Y-8030D02*
D03*
D19*
X163290D02*
D03*
X188690D02*
D03*
X214090D02*
D03*
X239490D02*
D03*
D20*
X154290Y282970D02*
D03*
X128890D02*
D03*
D21*
X103490D02*
D03*
D22*
X99890Y186970D02*
D03*
X119890D02*
D03*
X139890D02*
D03*
X159890D02*
D03*
Y236970D02*
D03*
X139890D02*
D03*
X119890D02*
D03*
X99890D02*
D03*
D23*
X99000Y23000D02*
D03*
Y33000D02*
D03*
X91000Y154970D02*
D03*
X75000Y152000D02*
D03*
Y131000D02*
D03*
X262890Y37970D02*
D03*
X238890D02*
D03*
X215890Y84970D02*
D03*
X69890Y78970D02*
D03*
Y98970D02*
D03*
X47890Y78970D02*
D03*
Y98970D02*
D03*
X199890Y274970D02*
D03*
X192890Y174970D02*
D03*
X233890Y253970D02*
D03*
X254890D02*
D03*
X283890Y220970D02*
D03*
X256890Y266970D02*
D03*
X288890Y84970D02*
D03*
Y135970D02*
D03*
X244890Y192970D02*
D03*
Y164970D02*
D03*
X225890Y170970D02*
D03*
X218890Y164970D02*
D03*
X124890Y30970D02*
D03*
X262890Y104970D02*
D03*
X196890Y131970D02*
D03*
X183890Y114970D02*
D03*
X255890Y179970D02*
D03*
Y241970D02*
D03*
D24*
X231730Y287970D02*
D03*
X252050D02*
D03*
X59050Y203970D02*
D03*
X38730D02*
D03*
D25*
X267925Y267020D02*
D03*
Y254320D02*
D03*
Y241620D02*
D03*
Y228920D02*
D03*
X215855D02*
D03*
Y241620D02*
D03*
Y254320D02*
D03*
Y267020D02*
D03*
D26*
X271140Y153470D02*
D03*
X264640D02*
D03*
X258140D02*
D03*
X251640D02*
D03*
X245140D02*
D03*
X238640D02*
D03*
X232140D02*
D03*
X225640D02*
D03*
X219140D02*
D03*
X212640D02*
D03*
X271140Y208470D02*
D03*
X264640D02*
D03*
X258140D02*
D03*
X251640D02*
D03*
X245140D02*
D03*
X238640D02*
D03*
X232140D02*
D03*
X225640D02*
D03*
X219140D02*
D03*
X212640D02*
D03*
D27*
X157460Y131970D02*
D03*
X180320D02*
D03*
X61320Y231970D02*
D03*
X38460D02*
D03*
D28*
X58890Y141970D02*
D03*
Y61970D02*
D03*
D29*
X201890Y51970D02*
D03*
D30*
X139890Y74970D02*
D03*
Y28970D02*
D03*
D31*
Y51970D02*
D03*
D32*
X112890Y51130D02*
D03*
Y30810D02*
D03*
X226890Y58130D02*
D03*
Y37810D02*
D03*
X250890Y58130D02*
D03*
Y37810D02*
D03*
X274890Y105130D02*
D03*
Y84810D02*
D03*
X250890Y84810D02*
D03*
Y105130D02*
D03*
X274890Y58130D02*
D03*
Y37810D02*
D03*
X226890Y105130D02*
D03*
Y84810D02*
D03*
X193890Y258130D02*
D03*
Y237810D02*
D03*
X202890Y105130D02*
D03*
Y84810D02*
D03*
X298890Y58130D02*
D03*
Y37810D02*
D03*
D33*
X140890Y75970D02*
Y145970D01*
X196600Y155970D02*
X204600Y163970D01*
X150890Y155970D02*
X196600D01*
X140890Y145970D02*
X150890Y155970D01*
M02*
