M48
;Layer_Color=9474304
;FILE_FORMAT=4:4
METRIC,TZ
;TYPE=PLATED
T1F00S00C0.3000
T2F00S00C0.8000
T3F00S00C0.9000
T4F00S00C1.0000
T5F00S00C3.0000
%
T01
X238890Y37970
X262890
Y104970
X288890Y84970
Y135970
X244890Y164970
X225890Y170970
X218890Y164970
X192890Y174970
X196890Y131970
X183890Y114970
X215890Y84970
X255890Y179970
X244890Y192970
X255890Y241970
X254890Y253970
X256890Y266970
X233890Y253970
X199890Y274970
X283890Y220970
X91000Y154970
X75000Y152000
Y131000
X69890Y98970
Y78970
X47890
Y98970
X99000Y33000
Y23000
X124890Y30970
T02
X99890Y186970
X119890
X139890
X159890
Y236970
X139890
X119890
X99890
T03
X137890Y-8030
X163290
X188690
X214090
X239490
X164890Y100970
X124890
T04
X58890Y89970
X89890Y131970
X103490Y282970
X128890
X154290
T05
X0Y0
X290000
Y290000
X0
M30
