G04 Layer_Color=128*
%FSLAX44Y44*%
%MOMM*%
G71*
G01*
G75*
%ADD24R,1.2700X1.6002*%
%ADD25R,1.5240X0.5080*%
%ADD26R,0.3000X1.6000*%
%ADD27R,1.2700X1.3970*%
%ADD28R,1.5000X3.7500*%
%ADD29R,2.1500X3.5000*%
%ADD30R,2.1500X1.1000*%
%ADD31R,2.1500X1.1000*%
%ADD32R,1.6002X1.2700*%
D24*
X231730Y287970D02*
D03*
X252050D02*
D03*
X59050Y203970D02*
D03*
X38730D02*
D03*
D25*
X267925Y267020D02*
D03*
Y254320D02*
D03*
Y241620D02*
D03*
Y228920D02*
D03*
X215855D02*
D03*
Y241620D02*
D03*
Y254320D02*
D03*
Y267020D02*
D03*
D26*
X271140Y153470D02*
D03*
X264640D02*
D03*
X258140D02*
D03*
X251640D02*
D03*
X245140D02*
D03*
X238640D02*
D03*
X232140D02*
D03*
X225640D02*
D03*
X219140D02*
D03*
X212640D02*
D03*
X271140Y208470D02*
D03*
X264640D02*
D03*
X258140D02*
D03*
X251640D02*
D03*
X245140D02*
D03*
X238640D02*
D03*
X232140D02*
D03*
X225640D02*
D03*
X219140D02*
D03*
X212640D02*
D03*
D27*
X157460Y131970D02*
D03*
X180320D02*
D03*
X61320Y231970D02*
D03*
X38460D02*
D03*
D28*
X58890Y141970D02*
D03*
Y61970D02*
D03*
D29*
X201890Y51970D02*
D03*
D30*
X139890Y74970D02*
D03*
Y28970D02*
D03*
D31*
Y51970D02*
D03*
D32*
X112890Y51130D02*
D03*
Y30810D02*
D03*
X226890Y58130D02*
D03*
Y37810D02*
D03*
X250890Y58130D02*
D03*
Y37810D02*
D03*
X274890Y105130D02*
D03*
Y84810D02*
D03*
X250890Y84810D02*
D03*
Y105130D02*
D03*
X274890Y58130D02*
D03*
Y37810D02*
D03*
X226890Y105130D02*
D03*
Y84810D02*
D03*
X193890Y258130D02*
D03*
Y237810D02*
D03*
X202890Y105130D02*
D03*
Y84810D02*
D03*
X298890Y58130D02*
D03*
Y37810D02*
D03*
M02*
