G04 Layer_Physical_Order=1*
G04 Layer_Color=255*
%FSLAX44Y44*%
%MOMM*%
G71*
G01*
G75*
%ADD10R,1.6000X2.0000*%
%ADD11C,1.0000*%
%ADD12C,0.2540*%
%ADD13C,0.5000*%
%ADD14C,0.3000*%
%ADD15C,1.5000*%
%ADD16C,3.0000*%
%ADD17C,0.9000*%
%ADD18R,1.5000X1.5000*%
%ADD19C,1.5000*%
%ADD20O,1.7000X2.3000*%
%ADD21R,1.7000X2.3000*%
%ADD22O,1.2000X2.0000*%
%ADD23C,0.6000*%
G36*
X-4999Y320860D02*
X295001D01*
X295001Y320860D01*
Y320860D01*
X296252Y320814D01*
X300060Y320439D01*
X304925Y318963D01*
X309409Y316566D01*
X310539Y315639D01*
X315637Y310541D01*
X316565Y309411D01*
X318961Y304927D01*
X320437Y300062D01*
X320910Y295263D01*
X320858Y295003D01*
Y-4997D01*
X320910Y-5258D01*
X320437Y-10057D01*
X318961Y-14922D01*
X318335Y-16093D01*
X306096Y-28332D01*
X304925Y-28958D01*
X300060Y-30433D01*
X295261Y-30906D01*
X295001Y-30854D01*
X-4999D01*
X-5260Y-30906D01*
X-10059Y-30433D01*
X-14924Y-28958D01*
X-19408Y-26561D01*
X-20537Y-25634D01*
X-25636Y-20535D01*
X-26563Y-19406D01*
X-28960Y-14922D01*
X-30435Y-10057D01*
X-30908Y-5258D01*
X-30856Y-4997D01*
Y295003D01*
X-30908Y295263D01*
X-30435Y300062D01*
X-28960Y304927D01*
X-26563Y309411D01*
X-26445Y309555D01*
X-19552Y316448D01*
X-19408Y316566D01*
X-14924Y318963D01*
X-10059Y320439D01*
X-5260Y320911D01*
X-4999Y320860D01*
D02*
G37*
%LPC*%
G36*
X290000Y19092D02*
X286275Y18725D01*
X282694Y17639D01*
X279393Y15874D01*
X276500Y13500D01*
X274126Y10607D01*
X272361Y7306D01*
X271275Y3725D01*
X270908Y0D01*
X271275Y-3725D01*
X272361Y-7306D01*
X274126Y-10607D01*
X276500Y-13500D01*
X279393Y-15874D01*
X282694Y-17639D01*
X286275Y-18725D01*
X290000Y-19092D01*
X293725Y-18725D01*
X297306Y-17639D01*
X300607Y-15874D01*
X303500Y-13500D01*
X305874Y-10607D01*
X307639Y-7306D01*
X308725Y-3725D01*
X309092Y0D01*
X308725Y3725D01*
X307639Y7306D01*
X305874Y10607D01*
X303500Y13500D01*
X300607Y15874D01*
X297306Y17639D01*
X293725Y18725D01*
X290000Y19092D01*
D02*
G37*
G36*
X0D02*
X-3725Y18725D01*
X-7306Y17639D01*
X-10607Y15874D01*
X-13500Y13500D01*
X-15874Y10607D01*
X-17639Y7306D01*
X-18725Y3725D01*
X-19092Y0D01*
X-18725Y-3725D01*
X-17639Y-7306D01*
X-15874Y-10607D01*
X-13500Y-13500D01*
X-10607Y-15874D01*
X-7306Y-17639D01*
X-3725Y-18725D01*
X0Y-19092D01*
X3725Y-18725D01*
X7306Y-17639D01*
X10607Y-15874D01*
X13500Y-13500D01*
X15874Y-10607D01*
X17639Y-7306D01*
X18725Y-3725D01*
X19092Y0D01*
X18725Y3725D01*
X17639Y7306D01*
X15874Y10607D01*
X13500Y13500D01*
X10607Y15874D01*
X7306Y17639D01*
X3725Y18725D01*
X0Y19092D01*
D02*
G37*
G36*
X159890Y251056D02*
X157280Y250713D01*
X154847Y249705D01*
X152758Y248102D01*
X151155Y246013D01*
X150577Y244618D01*
X149203D01*
X148625Y246013D01*
X147022Y248102D01*
X144933Y249705D01*
X142500Y250713D01*
X139890Y251056D01*
X137280Y250713D01*
X134847Y249705D01*
X132758Y248102D01*
X131155Y246013D01*
X130147Y243580D01*
X129804Y240970D01*
Y232970D01*
X130147Y230359D01*
X130298Y229995D01*
X130812Y219546D01*
Y204351D01*
X130812Y204350D01*
X130679Y196705D01*
X130564Y195079D01*
X130513Y194674D01*
X130505Y194631D01*
X130501Y194619D01*
X130496Y194584D01*
X130448Y194339D01*
X130448Y194307D01*
X130147Y193580D01*
X129804Y190970D01*
Y182970D01*
X130147Y180359D01*
X131155Y177927D01*
X132758Y175838D01*
X134847Y174235D01*
X137280Y173227D01*
X139890Y172884D01*
X142500Y173227D01*
X144933Y174235D01*
X147022Y175838D01*
X148625Y177927D01*
X149203Y179322D01*
X150577D01*
X151155Y177927D01*
X152758Y175838D01*
X154847Y174235D01*
X157280Y173227D01*
X159890Y172884D01*
X162500Y173227D01*
X164933Y174235D01*
X167022Y175838D01*
X168625Y177927D01*
X169633Y180359D01*
X169976Y182970D01*
Y190970D01*
X169633Y193580D01*
X169482Y193945D01*
X168968Y204394D01*
Y219589D01*
X168968Y219590D01*
X169101Y227235D01*
X169216Y228861D01*
X169266Y229266D01*
X169275Y229309D01*
X169279Y229321D01*
X169284Y229356D01*
X169332Y229601D01*
X169332Y229633D01*
X169633Y230359D01*
X169976Y232970D01*
Y240970D01*
X169633Y243580D01*
X168625Y246013D01*
X167022Y248102D01*
X164933Y249705D01*
X162500Y250713D01*
X159890Y251056D01*
D02*
G37*
G36*
X164890Y109543D02*
X162671Y109251D01*
X160603Y108395D01*
X158828Y107032D01*
X157465Y105257D01*
X156609Y103189D01*
X156317Y100970D01*
X156609Y98751D01*
X157465Y96683D01*
X158828Y94908D01*
X160603Y93545D01*
X162671Y92689D01*
X164890Y92397D01*
X167109Y92689D01*
X169177Y93545D01*
X170952Y94908D01*
X172315Y96683D01*
X173171Y98751D01*
X173463Y100970D01*
X173171Y103189D01*
X172315Y105257D01*
X170952Y107032D01*
X169177Y108395D01*
X167109Y109251D01*
X164890Y109543D01*
D02*
G37*
G36*
X138890Y152048D02*
X138890Y152048D01*
X124890D01*
X123329Y151738D01*
X122006Y150854D01*
X122006Y150854D01*
X120006Y148854D01*
X119122Y147531D01*
X118812Y145970D01*
X118812Y145970D01*
Y121659D01*
X117201Y120048D01*
X47890D01*
X47890Y120048D01*
X46329Y119738D01*
X45006Y118854D01*
X39006Y112854D01*
X39006Y112854D01*
X38006Y111854D01*
X37122Y110531D01*
X36812Y108970D01*
X36812Y108970D01*
Y88970D01*
Y76970D01*
X37122Y75409D01*
X38006Y74086D01*
X38006Y74086D01*
X42006Y70086D01*
X42006Y70086D01*
X44006Y68086D01*
X45329Y67202D01*
X46890Y66892D01*
X46890Y66892D01*
X72890D01*
X72890Y66892D01*
X74451Y67202D01*
X75774Y68086D01*
X75774Y68086D01*
X78774Y71086D01*
X78774Y71086D01*
X81774Y74086D01*
X82658Y75409D01*
X82968Y76970D01*
X82968Y76970D01*
Y89281D01*
X92774Y99086D01*
X92774Y99086D01*
X95579Y101892D01*
X115508D01*
X116317Y100970D01*
X116609Y98751D01*
X117465Y96683D01*
X118828Y94908D01*
X120603Y93545D01*
X122671Y92689D01*
X124890Y92397D01*
X127109Y92689D01*
X129177Y93545D01*
X130952Y94908D01*
X132315Y96683D01*
X133171Y98751D01*
X133463Y100970D01*
X133171Y103189D01*
X133085Y103397D01*
X141774Y112086D01*
X141774Y112086D01*
X143774Y114086D01*
X144658Y115409D01*
X144968Y116970D01*
X144968Y116970D01*
Y116978D01*
X145640Y117970D01*
X146238Y117970D01*
X159973D01*
X160007Y117961D01*
X160075Y117970D01*
X160236D01*
X160560Y117701D01*
X167091Y111171D01*
X168834Y110006D01*
X170890Y109597D01*
X179394D01*
X180360Y108855D01*
X182063Y108150D01*
X183890Y107910D01*
X185717Y108150D01*
X187420Y108855D01*
X188883Y109978D01*
X190005Y111440D01*
X190710Y113143D01*
X190950Y114970D01*
X190723Y116700D01*
X190764Y117068D01*
X191367Y117970D01*
X195140D01*
Y124177D01*
X196095Y125014D01*
X196890Y124910D01*
X198717Y125150D01*
X200420Y125856D01*
X201882Y126978D01*
X203004Y128440D01*
X203710Y130143D01*
X203950Y131970D01*
X203710Y133797D01*
X203004Y135500D01*
X201882Y136962D01*
X200420Y138084D01*
X198717Y138790D01*
X196890Y139030D01*
X196095Y138926D01*
X195140Y139763D01*
Y145970D01*
X171140D01*
Y125257D01*
X169870Y124578D01*
X169640Y124732D01*
Y145970D01*
X146238D01*
X145640Y145970D01*
X144786Y146886D01*
X144658Y147531D01*
X143774Y148854D01*
X143774Y148854D01*
X141774Y150854D01*
X140451Y151738D01*
X140192Y151789D01*
X138890Y152048D01*
D02*
G37*
G36*
X99890Y251056D02*
X97280Y250713D01*
X94847Y249705D01*
X92758Y248102D01*
X91155Y246013D01*
X90147Y243580D01*
X89804Y240970D01*
Y232970D01*
X90147Y230359D01*
X90298Y229995D01*
X90812Y219546D01*
Y204351D01*
X90812Y204350D01*
X90679Y196705D01*
X90564Y195079D01*
X90513Y194674D01*
X90505Y194631D01*
X90501Y194619D01*
X90496Y194584D01*
X90448Y194339D01*
X90448Y194307D01*
X90147Y193580D01*
X89804Y190970D01*
Y182970D01*
X90147Y180359D01*
X91155Y177927D01*
X92758Y175838D01*
X94847Y174235D01*
X97280Y173227D01*
X99890Y172884D01*
X102500Y173227D01*
X104933Y174235D01*
X107022Y175838D01*
X108625Y177927D01*
X109633Y180359D01*
X109976Y182970D01*
Y190970D01*
X109633Y193580D01*
X109482Y193945D01*
X108968Y204394D01*
Y219589D01*
X108968Y219590D01*
X109101Y227235D01*
X109216Y228861D01*
X109267Y229266D01*
X109275Y229309D01*
X109279Y229321D01*
X109284Y229356D01*
X109332Y229601D01*
X109332Y229633D01*
X109633Y230359D01*
X109976Y232970D01*
Y240970D01*
X109633Y243580D01*
X108625Y246013D01*
X107022Y248102D01*
X104933Y249705D01*
X102500Y250713D01*
X99890Y251056D01*
D02*
G37*
G36*
X262890Y112030D02*
X261063Y111790D01*
X259360Y111084D01*
X258394Y110343D01*
X215890D01*
X213834Y109934D01*
X212090Y108770D01*
X159490Y56170D01*
X158326Y54426D01*
X157917Y52370D01*
Y3825D01*
X157862Y3663D01*
X157739Y3390D01*
X157536Y3028D01*
X157247Y2588D01*
X156896Y2119D01*
X155805Y868D01*
X155213Y268D01*
X155088Y172D01*
X153245Y-2230D01*
X152086Y-5028D01*
X151691Y-8030D01*
X152086Y-11032D01*
X153245Y-13830D01*
X155088Y-16232D01*
X157490Y-18075D01*
X160288Y-19234D01*
X163290Y-19629D01*
X166292Y-19234D01*
X169090Y-18075D01*
X171492Y-16232D01*
X173335Y-13830D01*
X174494Y-11032D01*
X174889Y-8030D01*
X174494Y-5028D01*
X173335Y-2230D01*
X171492Y172D01*
X171367Y268D01*
X170776Y868D01*
X169684Y2119D01*
X169333Y2588D01*
X169044Y3028D01*
X168841Y3391D01*
X168718Y3663D01*
X168663Y3825D01*
Y50144D01*
X218116Y99597D01*
X258394D01*
X259360Y98855D01*
X261063Y98150D01*
X262890Y97910D01*
X264717Y98150D01*
X266420Y98855D01*
X267882Y99978D01*
X269004Y101440D01*
X269710Y103143D01*
X269950Y104970D01*
X269710Y106797D01*
X269004Y108500D01*
X267882Y109962D01*
X266420Y111084D01*
X264717Y111790D01*
X262890Y112030D01*
D02*
G37*
G36*
X214090Y3569D02*
X211088Y3174D01*
X208290Y2015D01*
X205888Y172D01*
X204045Y-2230D01*
X202886Y-5028D01*
X202491Y-8030D01*
X202886Y-11032D01*
X204045Y-13830D01*
X205888Y-16232D01*
X208290Y-18075D01*
X211088Y-19234D01*
X214090Y-19629D01*
X217092Y-19234D01*
X219890Y-18075D01*
X222292Y-16232D01*
X224135Y-13830D01*
X225294Y-11032D01*
X225689Y-8030D01*
X225294Y-5028D01*
X224135Y-2230D01*
X222292Y172D01*
X219890Y2015D01*
X217092Y3174D01*
X214090Y3569D01*
D02*
G37*
G36*
X290000Y309092D02*
X286275Y308725D01*
X282694Y307639D01*
X279393Y305874D01*
X276500Y303500D01*
X274126Y300607D01*
X272361Y297306D01*
X271275Y293725D01*
X270908Y290000D01*
X271275Y286275D01*
X272361Y282694D01*
X274126Y279393D01*
X276500Y276500D01*
X279393Y274126D01*
X282694Y272361D01*
X286275Y271275D01*
X290000Y270908D01*
X293725Y271275D01*
X297306Y272361D01*
X300607Y274126D01*
X303500Y276500D01*
X305874Y279393D01*
X307639Y282694D01*
X308725Y286275D01*
X309092Y290000D01*
X308725Y293725D01*
X307639Y297306D01*
X305874Y300607D01*
X303500Y303500D01*
X300607Y305874D01*
X297306Y307639D01*
X293725Y308725D01*
X290000Y309092D01*
D02*
G37*
G36*
X203890Y305343D02*
X144890D01*
X142834Y304934D01*
X141090Y303769D01*
X134498Y297177D01*
X132153Y298148D01*
X128890Y298578D01*
X125627Y298148D01*
X122586Y296889D01*
X119975Y294885D01*
X117971Y292274D01*
X116712Y289233D01*
X116282Y285970D01*
Y279970D01*
X116712Y276707D01*
X117971Y273666D01*
X119975Y271055D01*
X122586Y269051D01*
X125627Y267792D01*
X128890Y267362D01*
X132153Y267792D01*
X135194Y269051D01*
X137805Y271055D01*
X139809Y273666D01*
X140938Y276393D01*
X140940Y276393D01*
X142240D01*
X142242Y276393D01*
X143371Y273666D01*
X145375Y271055D01*
X147986Y269051D01*
X151027Y267792D01*
X154290Y267362D01*
X157553Y267792D01*
X160594Y269051D01*
X163205Y271055D01*
X165209Y273666D01*
X166468Y276707D01*
X166585Y277597D01*
X206664D01*
X213517Y270744D01*
Y169466D01*
X212775Y168500D01*
X212070Y166797D01*
X211830Y164970D01*
X212070Y163143D01*
X212775Y161440D01*
X213898Y159978D01*
X215360Y158855D01*
X217063Y158150D01*
X218890Y157910D01*
X220717Y158150D01*
X222420Y158855D01*
X223883Y159978D01*
X225005Y161440D01*
X225710Y163143D01*
X225812Y163920D01*
X225890Y163910D01*
X227717Y164150D01*
X229420Y164855D01*
X230882Y165977D01*
X232005Y167440D01*
X232710Y169143D01*
X232950Y170970D01*
X232710Y172797D01*
X232005Y174500D01*
X231263Y175466D01*
Y277970D01*
X230854Y280026D01*
X229690Y281769D01*
X207689Y303769D01*
X205946Y304934D01*
X203890Y305343D01*
D02*
G37*
G36*
X188690Y3569D02*
X185688Y3174D01*
X182890Y2015D01*
X180488Y172D01*
X178645Y-2230D01*
X177486Y-5028D01*
X177091Y-8030D01*
X177486Y-11032D01*
X178645Y-13830D01*
X180488Y-16232D01*
X182890Y-18075D01*
X185688Y-19234D01*
X188690Y-19629D01*
X191692Y-19234D01*
X194490Y-18075D01*
X196892Y-16232D01*
X198735Y-13830D01*
X199894Y-11032D01*
X200289Y-8030D01*
X199894Y-5028D01*
X198735Y-2230D01*
X196892Y172D01*
X194490Y2015D01*
X191692Y3174D01*
X188690Y3569D01*
D02*
G37*
G36*
X149390Y3470D02*
X126390D01*
Y-19530D01*
X149390D01*
Y3470D01*
D02*
G37*
G36*
X0Y309092D02*
X-3725Y308725D01*
X-7306Y307639D01*
X-10607Y305874D01*
X-13500Y303500D01*
X-15874Y300607D01*
X-17639Y297306D01*
X-18725Y293725D01*
X-19092Y290000D01*
X-18725Y286275D01*
X-17639Y282694D01*
X-15874Y279393D01*
X-13500Y276500D01*
X-10607Y274126D01*
X-7306Y272361D01*
X-3725Y271275D01*
X0Y270908D01*
X3725Y271275D01*
X7306Y272361D01*
X10607Y274126D01*
X13500Y276500D01*
X15874Y279393D01*
X17639Y282694D01*
X18725Y286275D01*
X19092Y290000D01*
X18725Y293725D01*
X17639Y297306D01*
X15874Y300607D01*
X13500Y303500D01*
X10607Y305874D01*
X7306Y307639D01*
X3725Y308725D01*
X0Y309092D01*
D02*
G37*
G36*
X256890Y274030D02*
X255063Y273790D01*
X253360Y273084D01*
X251898Y271962D01*
X250776Y270500D01*
X250070Y268797D01*
X249830Y266970D01*
X250070Y265143D01*
X250776Y263440D01*
X251898Y261978D01*
X253360Y260856D01*
X255063Y260150D01*
X256890Y259910D01*
X258717Y260150D01*
X260420Y260856D01*
X261081Y261362D01*
X261567D01*
X262282Y260647D01*
Y247224D01*
X261012Y246793D01*
X260882Y246962D01*
X259420Y248084D01*
X257717Y248790D01*
X255890Y249030D01*
X254063Y248790D01*
X252360Y248084D01*
X250898Y246962D01*
X249776Y245500D01*
X249070Y243797D01*
X248830Y241970D01*
X249070Y240143D01*
X249334Y239506D01*
Y199830D01*
X248064Y199232D01*
X246717Y199790D01*
X244890Y200030D01*
X243063Y199790D01*
X241360Y199084D01*
X239898Y197962D01*
X238776Y196500D01*
X238070Y194797D01*
X237830Y192970D01*
X238070Y191143D01*
X238334Y190506D01*
Y167434D01*
X238070Y166797D01*
X237830Y164970D01*
X238070Y163143D01*
X238776Y161440D01*
X239898Y159978D01*
X241360Y158855D01*
X243063Y158150D01*
X244890Y157910D01*
X246717Y158150D01*
X248420Y158855D01*
X249883Y159978D01*
X251005Y161440D01*
X251710Y163143D01*
X251950Y164970D01*
X251710Y166797D01*
X251446Y167434D01*
Y173110D01*
X252716Y173708D01*
X254063Y173150D01*
X255890Y172910D01*
X257717Y173150D01*
X259420Y173855D01*
X260882Y174978D01*
X262005Y176440D01*
X262710Y178143D01*
X262950Y179970D01*
X262710Y181797D01*
X262446Y182434D01*
Y222932D01*
X263716Y223317D01*
X263925Y223005D01*
X269925Y217005D01*
X271744Y215789D01*
X273890Y215362D01*
X279699D01*
X280360Y214855D01*
X282063Y214150D01*
X283890Y213910D01*
X285717Y214150D01*
X287420Y214855D01*
X288883Y215977D01*
X290005Y217440D01*
X290710Y219143D01*
X290950Y220970D01*
X290710Y222797D01*
X290005Y224500D01*
X288883Y225962D01*
X287420Y227085D01*
X285717Y227790D01*
X283890Y228030D01*
X282063Y227790D01*
X280360Y227085D01*
X279699Y226578D01*
X276213D01*
X273498Y229293D01*
Y262970D01*
X273071Y265116D01*
X271855Y266935D01*
X267855Y270935D01*
X266036Y272151D01*
X263890Y272578D01*
X261081D01*
X260420Y273084D01*
X258717Y273790D01*
X256890Y274030D01*
D02*
G37*
%LPD*%
G36*
X165360Y123726D02*
X165231Y123555D01*
X165191Y123331D01*
X165239Y123052D01*
X165377Y122720D01*
X165605Y122334D01*
X165921Y121894D01*
X166327Y121400D01*
X167406Y120251D01*
X163860Y120204D01*
X163414Y120632D01*
X162581Y121325D01*
X162193Y121589D01*
X161824Y121799D01*
X161474Y121954D01*
X161144Y122055D01*
X160832Y122102D01*
X160540Y122093D01*
X160268Y122031D01*
X165579Y123843D01*
X165360Y123726D01*
D02*
G37*
G36*
X181748Y112870D02*
X181577Y113028D01*
X181392Y113169D01*
X181192Y113293D01*
X180977Y113401D01*
X180747Y113492D01*
X180502Y113567D01*
X180242Y113625D01*
X179967Y113667D01*
X179677Y113692D01*
X179372Y113700D01*
Y116240D01*
X179677Y116248D01*
X179967Y116273D01*
X180242Y116315D01*
X180502Y116373D01*
X180747Y116447D01*
X180977Y116539D01*
X181192Y116647D01*
X181392Y116771D01*
X181577Y116912D01*
X181748Y117070D01*
Y112870D01*
D02*
G37*
G36*
X164600Y3322D02*
X164719Y2757D01*
X164918Y2167D01*
X165197Y1551D01*
X165555Y911D01*
X165993Y244D01*
X166510Y-447D01*
X167784Y-1906D01*
X168540Y-2674D01*
X158040D01*
X158796Y-1906D01*
X160070Y-447D01*
X160587Y244D01*
X161025Y911D01*
X161383Y1551D01*
X161662Y2167D01*
X161861Y2757D01*
X161980Y3322D01*
X162020Y3862D01*
X164560D01*
X164600Y3322D01*
D02*
G37*
G36*
X260748Y102870D02*
X260577Y103028D01*
X260392Y103169D01*
X260192Y103293D01*
X259977Y103401D01*
X259747Y103492D01*
X259502Y103567D01*
X259242Y103625D01*
X258967Y103667D01*
X258677Y103692D01*
X258372Y103700D01*
Y106240D01*
X258677Y106248D01*
X258967Y106273D01*
X259242Y106315D01*
X259502Y106373D01*
X259747Y106447D01*
X259977Y106539D01*
X260192Y106647D01*
X260392Y106771D01*
X260577Y106912D01*
X260748Y107070D01*
Y102870D01*
D02*
G37*
G36*
X140890Y145970D02*
X140890D01*
Y142970D01*
Y116970D01*
X138890Y114970D01*
X129911Y105991D01*
X128440Y107119D01*
X126728Y107829D01*
X124890Y108071D01*
X123052Y107829D01*
X121340Y107119D01*
X119869Y105991D01*
X119853Y105970D01*
X93890D01*
X89890Y101970D01*
X78890Y90970D01*
Y85970D01*
Y76970D01*
X75890Y73970D01*
X72890Y70970D01*
X46890D01*
X44890Y72970D01*
X40890Y76970D01*
Y88970D01*
Y108970D01*
X41890Y109970D01*
X47890Y115970D01*
X118890D01*
X119890Y116970D01*
X122890Y119970D01*
Y145970D01*
X124890Y147970D01*
X138890D01*
X140890Y145970D01*
D02*
G37*
G36*
X165329Y230382D02*
X165237Y229910D01*
X165156Y229258D01*
X165026Y227414D01*
X164890Y219661D01*
X154890D01*
X154348Y230674D01*
X165432D01*
X165329Y230382D01*
D02*
G37*
G36*
X145329D02*
X145237Y229910D01*
X145155Y229258D01*
X145025Y227414D01*
X144890Y219661D01*
X134890D01*
X134348Y230674D01*
X145432D01*
X145329Y230382D01*
D02*
G37*
G36*
X105329D02*
X105237Y229910D01*
X105155Y229258D01*
X105025Y227414D01*
X104890Y219661D01*
X94890D01*
X94348Y230674D01*
X105432D01*
X105329Y230382D01*
D02*
G37*
G36*
X259161Y268956D02*
X259311Y268854D01*
X259482Y268764D01*
X259676Y268686D01*
X259890Y268620D01*
X260127Y268566D01*
X260385Y268524D01*
X260664Y268494D01*
X261288Y268470D01*
Y265470D01*
X260965Y265464D01*
X260385Y265416D01*
X260127Y265374D01*
X259890Y265320D01*
X259676Y265254D01*
X259482Y265176D01*
X259311Y265086D01*
X259161Y264984D01*
X259032Y264870D01*
Y269070D01*
X259161Y268956D01*
D02*
G37*
G36*
X138267Y291551D02*
X137886Y291152D01*
X137561Y290773D01*
X137291Y290415D01*
X137076Y290076D01*
X136917Y289757D01*
X136813Y289458D01*
X136765Y289179D01*
X136772Y288920D01*
X136835Y288681D01*
X136953Y288461D01*
X134014Y292682D01*
X134174Y292502D01*
X134361Y292383D01*
X134573Y292327D01*
X134812Y292333D01*
X135077Y292401D01*
X135368Y292531D01*
X135686Y292723D01*
X136030Y292978D01*
X136400Y293294D01*
X136796Y293672D01*
X138267Y291551D01*
D02*
G37*
G36*
X206744Y289517D02*
X206259Y288343D01*
X166585D01*
X166468Y289233D01*
X165209Y292274D01*
X164300Y293458D01*
X164862Y294597D01*
X201664D01*
X206744Y289517D01*
D02*
G37*
G36*
X162796Y285269D02*
X162873Y285053D01*
X163001Y284862D01*
X163181Y284697D01*
X163413Y284557D01*
X163695Y284443D01*
X164030Y284354D01*
X164415Y284291D01*
X164852Y284253D01*
X165340Y284240D01*
Y281700D01*
X164852Y281687D01*
X164415Y281649D01*
X164030Y281586D01*
X163695Y281497D01*
X163413Y281383D01*
X163181Y281243D01*
X163001Y281078D01*
X162873Y280887D01*
X162796Y280671D01*
X162770Y280430D01*
Y285510D01*
X162796Y285269D01*
D02*
G37*
G36*
X227168Y175183D02*
X227193Y174893D01*
X227235Y174618D01*
X227293Y174358D01*
X227367Y174113D01*
X227459Y173883D01*
X227567Y173668D01*
X227691Y173468D01*
X227832Y173283D01*
X227990Y173112D01*
X223790D01*
X223948Y173283D01*
X224089Y173468D01*
X224213Y173668D01*
X224321Y173883D01*
X224412Y174113D01*
X224487Y174358D01*
X224545Y174618D01*
X224587Y174893D01*
X224612Y175183D01*
X224620Y175488D01*
X227160D01*
X227168Y175183D01*
D02*
G37*
G36*
X220168Y169183D02*
X220193Y168893D01*
X220235Y168618D01*
X220293Y168358D01*
X220368Y168113D01*
X220459Y167883D01*
X220567Y167668D01*
X220691Y167468D01*
X220832Y167283D01*
X220990Y167112D01*
X216790D01*
X216948Y167283D01*
X217089Y167468D01*
X217213Y167668D01*
X217321Y167883D01*
X217412Y168113D01*
X217487Y168358D01*
X217545Y168618D01*
X217587Y168893D01*
X217612Y169183D01*
X217620Y169488D01*
X220160D01*
X220168Y169183D01*
D02*
G37*
G36*
X191105Y134269D02*
X191182Y134053D01*
X191310Y133862D01*
X191490Y133697D01*
X191722Y133558D01*
X192004Y133443D01*
X192339Y133354D01*
X192724Y133291D01*
X192801Y133284D01*
X193104Y133315D01*
X193400Y133373D01*
X193676Y133448D01*
X193932Y133539D01*
X194167Y133647D01*
X194381Y133771D01*
X194575Y133912D01*
X194748Y134070D01*
X194748Y129870D01*
X194575Y130028D01*
X194381Y130169D01*
X194167Y130293D01*
X193932Y130401D01*
X193676Y130492D01*
X193400Y130567D01*
X193104Y130625D01*
X192842Y130660D01*
X192724Y130649D01*
X192339Y130586D01*
X192004Y130497D01*
X191722Y130382D01*
X191490Y130243D01*
X191310Y130078D01*
X191182Y129887D01*
X191105Y129671D01*
X191079Y129430D01*
Y134510D01*
X191105Y134269D01*
D02*
G37*
G36*
X105432Y193265D02*
X94348D01*
X94451Y193558D01*
X94543Y194030D01*
X94625Y194682D01*
X94754Y196526D01*
X94890Y204279D01*
X104890D01*
X105432Y193265D01*
D02*
G37*
G36*
X281748Y218870D02*
X281619Y218984D01*
X281469Y219086D01*
X281298Y219176D01*
X281104Y219254D01*
X280890Y219320D01*
X280653Y219374D01*
X280395Y219416D01*
X280116Y219446D01*
X279492Y219470D01*
Y222470D01*
X279815Y222476D01*
X280395Y222524D01*
X280653Y222566D01*
X280890Y222620D01*
X281104Y222686D01*
X281298Y222764D01*
X281469Y222854D01*
X281619Y222956D01*
X281748Y223070D01*
Y218870D01*
D02*
G37*
G36*
X165432Y193265D02*
X154348D01*
X154451Y193558D01*
X154543Y194030D01*
X154625Y194682D01*
X154755Y196526D01*
X154890Y204279D01*
X164890D01*
X165432Y193265D01*
D02*
G37*
G36*
X145432D02*
X134348D01*
X134451Y193558D01*
X134543Y194030D01*
X134625Y194682D01*
X134754Y196526D01*
X134890Y204279D01*
X144890D01*
X145432Y193265D01*
D02*
G37*
D10*
X183140Y131970D02*
D03*
X157640D02*
D03*
X132140D02*
D03*
X106890D02*
D03*
D11*
X103490Y268510D02*
Y282970D01*
Y268510D02*
X119890Y252110D01*
Y236970D02*
Y252110D01*
X106890Y131970D02*
X106890Y131970D01*
X89890Y131970D02*
X106890D01*
X159890Y186970D02*
Y236970D01*
X139890Y186970D02*
Y236970D01*
X119890Y186970D02*
Y236970D01*
X99890Y186970D02*
Y236970D01*
D12*
X163290Y52370D02*
X215890Y104970D01*
X163290Y-8030D02*
Y52370D01*
X215890Y104970D02*
X262890D01*
X203890Y299970D02*
X225890Y277970D01*
X144890Y299970D02*
X203890D01*
X128890Y283970D02*
X144890Y299970D01*
X128890Y282970D02*
Y283970D01*
X154290Y282970D02*
X208890D01*
X218890Y272970D01*
Y164970D02*
Y272970D01*
X225890Y170970D02*
Y277970D01*
X183140Y131970D02*
X193890D01*
X157640Y128220D02*
Y131970D01*
Y128220D02*
X170890Y114970D01*
X183890D01*
D13*
X192890Y267970D02*
X199890Y274970D01*
X192890Y174970D02*
Y267970D01*
X244890Y164970D02*
Y192970D01*
X119890Y111970D02*
X132140Y124220D01*
Y131970D01*
X58890Y89970D02*
Y91970D01*
X78890Y111970D01*
X119890D01*
X255890Y179970D02*
Y241970D01*
D14*
X233890Y253970D02*
X254890D01*
X267890Y226970D02*
Y262970D01*
X263890Y266970D02*
X267890Y262970D01*
X256890Y266970D02*
X263890D01*
X273890Y220970D02*
X283890D01*
X267890Y226970D02*
X273890Y220970D01*
X288890Y84970D02*
Y135970D01*
D15*
X89890Y131970D02*
D03*
X58890Y89970D02*
D03*
D16*
X0Y290000D02*
D03*
X290000D02*
D03*
Y0D02*
D03*
X0D02*
D03*
D17*
X164890Y100970D02*
D03*
X124890D02*
D03*
D18*
X137890Y-8030D02*
D03*
D19*
X163290D02*
D03*
X188690D02*
D03*
X214090D02*
D03*
X239490D02*
D03*
D20*
X154290Y282970D02*
D03*
X128890D02*
D03*
D21*
X103490D02*
D03*
D22*
X99890Y186970D02*
D03*
X119890D02*
D03*
X139890D02*
D03*
X159890D02*
D03*
Y236970D02*
D03*
X139890D02*
D03*
X119890D02*
D03*
X99890D02*
D03*
D23*
X99000Y23000D02*
D03*
Y33000D02*
D03*
X91000Y154970D02*
D03*
X75000Y152000D02*
D03*
Y131000D02*
D03*
X262890Y37970D02*
D03*
X238890D02*
D03*
X215890Y84970D02*
D03*
X69890Y78970D02*
D03*
Y98970D02*
D03*
X47890Y78970D02*
D03*
Y98970D02*
D03*
X199890Y274970D02*
D03*
X192890Y174970D02*
D03*
X233890Y253970D02*
D03*
X254890D02*
D03*
X283890Y220970D02*
D03*
X256890Y266970D02*
D03*
X288890Y84970D02*
D03*
Y135970D02*
D03*
X244890Y192970D02*
D03*
Y164970D02*
D03*
X225890Y170970D02*
D03*
X218890Y164970D02*
D03*
X124890Y30970D02*
D03*
X262890Y104970D02*
D03*
X196890Y131970D02*
D03*
X183890Y114970D02*
D03*
X255890Y179970D02*
D03*
Y241970D02*
D03*
M02*
