G04 Layer_Color=32896*
%FSLAX44Y44*%
%MOMM*%
G71*
G01*
G75*
%ADD12C,0.2540*%
%ADD34C,0.2000*%
%ADD35C,0.1270*%
%ADD54C,0.7620*%
%ADD55C,0.2500*%
%ADD56C,0.1778*%
%ADD57C,0.1016*%
%ADD58C,0.1000*%
D12*
X103890Y101970D02*
G03*
X103890Y101970I-45000J0D01*
G01*
X227890Y273370D02*
X255813D01*
X227890Y222570D02*
Y273370D01*
Y222570D02*
X255813D01*
Y273370D01*
X88890Y51970D02*
X108890Y71970D01*
X28890Y51970D02*
X88890D01*
X8890Y71970D02*
X28890Y51970D01*
X8890Y71970D02*
Y151970D01*
X108890D01*
Y71970D02*
Y151970D01*
X28890Y51970D02*
X88890D01*
X78890Y71970D02*
X88890D01*
X83890D02*
Y76970D01*
Y66970D02*
Y71970D01*
D34*
X274890Y186170D02*
G03*
X274890Y175770I0J-5200D01*
G01*
Y165470D02*
Y175770D01*
Y186170D02*
Y196470D01*
X208890Y165470D02*
Y196470D01*
Y165470D02*
X274890D01*
X208890Y196470D02*
X274890D01*
X154640Y85470D02*
X187140D01*
X154640Y18470D02*
X187140D01*
X154640D02*
Y85470D01*
X187140Y18470D02*
Y85470D01*
X252190Y-20730D02*
Y4670D01*
X125190D02*
X252190D01*
X125190Y-20730D02*
X252190D01*
X125190D02*
Y4670D01*
X80630Y258840D02*
X177912D01*
X80630D02*
Y315482D01*
X177912D01*
Y258840D02*
Y315482D01*
X79890Y186970D02*
Y203970D01*
X179890D01*
X79890Y158970D02*
Y203970D01*
X179890Y158970D02*
Y203970D01*
X79890Y158970D02*
X179890D01*
X79890Y208970D02*
X179890D01*
Y253970D01*
X79890Y208970D02*
Y253970D01*
X179890D01*
X79890Y236970D02*
Y253970D01*
D35*
X149332Y123588D02*
Y140606D01*
Y123588D02*
X188194D01*
Y140606D01*
X149332D02*
X188194D01*
X69448Y223334D02*
Y240352D01*
X30586D02*
X69448D01*
X30586Y223334D02*
Y240352D01*
Y223334D02*
X69448D01*
X50221Y-22030D02*
X51887Y-20364D01*
Y-17032D01*
X50221Y-15366D01*
X48555D01*
X46888Y-17032D01*
Y-18698D01*
Y-17032D01*
X45222Y-15366D01*
X43556D01*
X41890Y-17032D01*
Y-20364D01*
X43556Y-22030D01*
X41890Y-12033D02*
X43556D01*
Y-10367D01*
X41890D01*
Y-12033D01*
X50221Y-3703D02*
X51887Y-2036D01*
Y1296D01*
X50221Y2962D01*
X48555D01*
X46888Y1296D01*
Y-370D01*
Y1296D01*
X45222Y2962D01*
X43556D01*
X41890Y1296D01*
Y-2036D01*
X43556Y-3703D01*
X51887Y6294D02*
X45222D01*
X41890Y9626D01*
X45222Y12959D01*
X51887D01*
X57890Y-21030D02*
X67887D01*
Y-16032D01*
X66221Y-14366D01*
X62888D01*
X61222Y-16032D01*
Y-21030D01*
Y-17698D02*
X57890Y-14366D01*
X66221Y-4369D02*
X67887Y-6035D01*
Y-9367D01*
X66221Y-11033D01*
X64555D01*
X62888Y-9367D01*
Y-6035D01*
X61222Y-4369D01*
X59556D01*
X57890Y-6035D01*
Y-9367D01*
X59556Y-11033D01*
X67887Y-1036D02*
Y5628D01*
Y2296D01*
X57890D01*
X84887Y-21030D02*
X74890D01*
Y-16032D01*
X76556Y-14366D01*
X83221D01*
X84887Y-16032D01*
Y-21030D01*
Y-11033D02*
Y-7701D01*
Y-9367D01*
X74890D01*
Y-11033D01*
Y-7701D01*
X84887Y2296D02*
Y-1036D01*
X83221Y-2703D01*
X76556D01*
X74890Y-1036D01*
Y2296D01*
X76556Y3962D01*
X83221D01*
X84887Y2296D01*
X99221Y-14366D02*
X100887Y-16032D01*
Y-19364D01*
X99221Y-21030D01*
X92556D01*
X90890Y-19364D01*
Y-16032D01*
X92556Y-14366D01*
X100887Y-11033D02*
X90890D01*
Y-4369D01*
X100887Y-1036D02*
X90890D01*
X94222D01*
X100887Y5628D01*
X95888Y630D01*
X90890Y5628D01*
X115221Y-14366D02*
X116887Y-16032D01*
Y-19364D01*
X115221Y-21030D01*
X108556D01*
X106890Y-19364D01*
Y-16032D01*
X108556Y-14366D01*
X111888D01*
Y-17698D01*
X106890Y-11033D02*
X116887D01*
X106890Y-4369D01*
X116887D01*
Y-1036D02*
X106890D01*
Y3962D01*
X108556Y5628D01*
X115221D01*
X116887Y3962D01*
Y-1036D01*
X74221Y169634D02*
X75887Y167968D01*
Y164636D01*
X74221Y162970D01*
X67556D01*
X65890Y164636D01*
Y167968D01*
X67556Y169634D01*
X64224Y172967D02*
Y179631D01*
X75887Y182964D02*
X65890D01*
Y189628D01*
X58221Y169634D02*
X59887Y167968D01*
Y164636D01*
X58221Y162970D01*
X51556D01*
X49890Y164636D01*
Y167968D01*
X51556Y169634D01*
X48224Y172967D02*
Y179631D01*
X59887Y182964D02*
X49890D01*
X54888D01*
Y189628D01*
X59887D01*
X49890D01*
X41221Y169634D02*
X42887Y167968D01*
Y164636D01*
X41221Y162970D01*
X34556D01*
X32890Y164636D01*
Y167968D01*
X34556Y169634D01*
X37888D01*
Y166302D01*
X32890Y172967D02*
X42887D01*
X32890Y179631D01*
X42887D01*
Y182964D02*
X32890D01*
Y187962D01*
X34556Y189628D01*
X41221D01*
X42887Y187962D01*
Y182964D01*
X27887Y169634D02*
Y162970D01*
X22888D01*
X24555Y166302D01*
Y167968D01*
X22888Y169634D01*
X19556D01*
X17890Y167968D01*
Y164636D01*
X19556Y162970D01*
X27887Y172967D02*
X21222D01*
X17890Y176299D01*
X21222Y179631D01*
X27887D01*
Y252635D02*
Y245970D01*
X22888D01*
X24555Y249302D01*
Y250968D01*
X22888Y252635D01*
X19556D01*
X17890Y250968D01*
Y247636D01*
X19556Y245970D01*
X27887Y255967D02*
X21222D01*
X17890Y259299D01*
X21222Y262631D01*
X27887D01*
X41221Y252635D02*
X42887Y250968D01*
Y247636D01*
X41221Y245970D01*
X34556D01*
X32890Y247636D01*
Y250968D01*
X34556Y252635D01*
X37888D01*
Y249302D01*
X32890Y255967D02*
X42887D01*
X32890Y262631D01*
X42887D01*
Y265964D02*
X32890D01*
Y270962D01*
X34556Y272628D01*
X41221D01*
X42887Y270962D01*
Y265964D01*
X58221Y252635D02*
X59887Y250968D01*
Y247636D01*
X58221Y245970D01*
X51556D01*
X49890Y247636D01*
Y250968D01*
X51556Y252635D01*
X48224Y255967D02*
Y262631D01*
X59887Y265964D02*
X49890D01*
X54888D01*
Y272628D01*
X59887D01*
X49890D01*
X74221Y252635D02*
X75887Y250968D01*
Y247636D01*
X74221Y245970D01*
X67556D01*
X65890Y247636D01*
Y250968D01*
X67556Y252635D01*
X64224Y255967D02*
Y262631D01*
X75887Y265964D02*
X65890D01*
Y272628D01*
Y288970D02*
X75887D01*
Y293968D01*
X74221Y295634D01*
X70888D01*
X69222Y293968D01*
Y288970D01*
Y292302D02*
X65890Y295634D01*
X75887Y298967D02*
X65890Y305631D01*
X75887D02*
X65890Y298967D01*
X60887Y287970D02*
Y294634D01*
Y291302D01*
X50890D01*
X60887Y297967D02*
X50890Y304631D01*
X60887D02*
X50890Y297967D01*
X43221Y294634D02*
X44887Y292968D01*
Y289636D01*
X43221Y287970D01*
X36556D01*
X34890Y289636D01*
Y292968D01*
X36556Y294634D01*
X39888D01*
Y291302D01*
X34890Y297967D02*
X44887D01*
X34890Y304631D01*
X44887D01*
Y307964D02*
X34890D01*
Y312962D01*
X36556Y314628D01*
X43221D01*
X44887Y312962D01*
Y307964D01*
X214891Y289968D02*
X215891Y290968D01*
X217890D01*
X218890Y289968D01*
Y285970D01*
X217890Y284970D01*
X215891D01*
X214891Y285970D01*
X212892Y289968D02*
X211892Y290968D01*
X209893D01*
X208893Y289968D01*
Y288969D01*
X209893Y287969D01*
X208893Y286969D01*
Y285970D01*
X209893Y284970D01*
X211892D01*
X212892Y285970D01*
Y286969D01*
X211892Y287969D01*
X212892Y288969D01*
Y289968D01*
X211892Y287969D02*
X209893D01*
X291890Y235968D02*
Y230970D01*
X290890Y229970D01*
X288891D01*
X287891Y230970D01*
Y235968D01*
X281893Y229970D02*
X285892D01*
X281893Y233969D01*
Y234968D01*
X282893Y235968D01*
X284892D01*
X285892Y234968D01*
X294890Y155968D02*
Y150970D01*
X293890Y149970D01*
X291891D01*
X290891Y150970D01*
Y155968D01*
X288892Y154968D02*
X287892Y155968D01*
X285893D01*
X284893Y154968D01*
Y153969D01*
X285893Y152969D01*
X286893D01*
X285893D01*
X284893Y151969D01*
Y150970D01*
X285893Y149970D01*
X287892D01*
X288892Y150970D01*
X11891Y56968D02*
X12891Y57968D01*
X14890D01*
X15890Y56968D01*
Y52970D01*
X14890Y51970D01*
X12891D01*
X11891Y52970D01*
X9892Y57968D02*
X5893D01*
Y56968D01*
X9892Y52970D01*
Y51970D01*
X171890Y144970D02*
Y150968D01*
X168891D01*
X167891Y149968D01*
Y147969D01*
X168891Y146969D01*
X171890D01*
X169891D02*
X167891Y144970D01*
X165892D02*
X163893D01*
X164892D01*
Y150968D01*
X165892Y149968D01*
X203888Y14970D02*
X198890D01*
X197890Y15970D01*
Y17969D01*
X198890Y18969D01*
X203888D01*
X197890Y20968D02*
Y22967D01*
Y21968D01*
X203888D01*
X202888Y20968D01*
X95888Y25969D02*
X96888Y24969D01*
Y22970D01*
X95888Y21970D01*
X91890D01*
X90890Y22970D01*
Y24969D01*
X91890Y25969D01*
X90890Y27968D02*
Y29967D01*
Y28968D01*
X96888D01*
X95888Y27968D01*
X228888Y18969D02*
X229888Y17969D01*
Y15970D01*
X228888Y14970D01*
X224890D01*
X223890Y15970D01*
Y17969D01*
X224890Y18969D01*
X223890Y24967D02*
Y20968D01*
X227889Y24967D01*
X228888D01*
X229888Y23967D01*
Y21968D01*
X228888Y20968D01*
X253888Y18969D02*
X254888Y17969D01*
Y15970D01*
X253888Y14970D01*
X249890D01*
X248890Y15970D01*
Y17969D01*
X249890Y18969D01*
X253888Y20968D02*
X254888Y21968D01*
Y23967D01*
X253888Y24967D01*
X252889D01*
X251889Y23967D01*
Y22967D01*
Y23967D01*
X250889Y24967D01*
X249890D01*
X248890Y23967D01*
Y21968D01*
X249890Y20968D01*
X270890Y15970D02*
X276888D01*
Y18969D01*
X275888Y19969D01*
X273889D01*
X272889Y18969D01*
Y15970D01*
Y17969D02*
X270890Y19969D01*
Y24967D02*
X276888D01*
X273889Y21968D01*
Y25967D01*
X311890Y41970D02*
X317888D01*
Y44969D01*
X316888Y45969D01*
X314889D01*
X313889Y44969D01*
Y41970D01*
Y43969D02*
X311890Y45969D01*
X316888Y47968D02*
X317888Y48968D01*
Y50967D01*
X316888Y51967D01*
X315889D01*
X314889Y50967D01*
Y49967D01*
Y50967D01*
X313889Y51967D01*
X312890D01*
X311890Y50967D01*
Y48968D01*
X312890Y47968D01*
X193890Y217970D02*
Y223968D01*
X190891D01*
X189891Y222968D01*
Y220969D01*
X190891Y219969D01*
X193890D01*
X183893Y217970D02*
X187892D01*
X183893Y221969D01*
Y222968D01*
X184893Y223968D01*
X186892D01*
X187892Y222968D01*
X205888Y121969D02*
X206888Y120969D01*
Y118970D01*
X205888Y117970D01*
X201890D01*
X200890Y118970D01*
Y120969D01*
X201890Y121969D01*
X206888Y127967D02*
Y123968D01*
X203889D01*
X204889Y125967D01*
Y126967D01*
X203889Y127967D01*
X201890D01*
X200890Y126967D01*
Y124968D01*
X201890Y123968D01*
X227888Y121969D02*
X228888Y120969D01*
Y118970D01*
X227888Y117970D01*
X223890D01*
X222890Y118970D01*
Y120969D01*
X223890Y121969D01*
X222890Y126967D02*
X228888D01*
X225889Y123968D01*
Y127967D01*
X276888Y121969D02*
X277888Y120969D01*
Y118970D01*
X276888Y117970D01*
X272890D01*
X271890Y118970D01*
Y120969D01*
X272890Y121969D01*
X277888Y127967D02*
X276888Y125967D01*
X274889Y123968D01*
X272890D01*
X271890Y124968D01*
Y126967D01*
X272890Y127967D01*
X273889D01*
X274889Y126967D01*
Y123968D01*
X257890Y-13030D02*
X263888D01*
Y-10031D01*
X262888Y-9031D01*
X260889D01*
X259889Y-10031D01*
Y-13030D01*
X257890Y-4033D02*
X263888D01*
X260889Y-7032D01*
Y-3033D01*
X198890Y270970D02*
Y276968D01*
X195891D01*
X194891Y275968D01*
Y273969D01*
X195891Y272969D01*
X198890D01*
X196891D02*
X194891Y270970D01*
X188893D02*
X192892D01*
X188893Y274969D01*
Y275968D01*
X189893Y276968D01*
X191892D01*
X192892Y275968D01*
X247890Y117970D02*
X253888D01*
Y120969D01*
X252888Y121969D01*
X250889D01*
X249889Y120969D01*
Y117970D01*
Y119969D02*
X247890Y121969D01*
X253888Y127967D02*
Y123968D01*
X250889D01*
X251889Y125967D01*
Y126967D01*
X250889Y127967D01*
X248890D01*
X247890Y126967D01*
Y124968D01*
X248890Y123968D01*
X194890Y195970D02*
Y201968D01*
X191891D01*
X190891Y200968D01*
Y198969D01*
X191891Y197969D01*
X194890D01*
X188892Y200968D02*
X187892Y201968D01*
X185893D01*
X184893Y200968D01*
Y199969D01*
X185893Y198969D01*
X186893D01*
X185893D01*
X184893Y197969D01*
Y196970D01*
X185893Y195970D01*
X187892D01*
X188892Y196970D01*
X208890Y308968D02*
Y303970D01*
X207890Y302970D01*
X205891D01*
X204891Y303970D01*
Y308968D01*
X202892Y302970D02*
Y306969D01*
X200893Y308968D01*
X198893Y306969D01*
Y302970D01*
Y305969D01*
X202892D01*
X196894Y302970D02*
Y308968D01*
X193895D01*
X192895Y307968D01*
Y305969D01*
X193895Y304969D01*
X196894D01*
X194895D02*
X192895Y302970D01*
X190896Y308968D02*
X186897D01*
X188897D01*
Y302970D01*
X184898D02*
X182898D01*
X183898D01*
Y308968D01*
X184898Y307968D01*
X25890Y233968D02*
Y227970D01*
X21891D01*
X15893Y233968D02*
X19892D01*
Y227970D01*
X15893D01*
X19892Y230969D02*
X17893D01*
X13894Y233968D02*
Y227970D01*
X10895D01*
X9895Y228970D01*
Y232968D01*
X10895Y233968D01*
X13894D01*
X7896Y227970D02*
X5896D01*
X6896D01*
Y233968D01*
X7896Y232968D01*
X25890Y200970D02*
Y206968D01*
X22891D01*
X21891Y205968D01*
Y203969D01*
X22891Y202969D01*
X25890D01*
X23891D02*
X21891Y200970D01*
X15893Y206968D02*
X17893Y205968D01*
X19892Y203969D01*
Y201970D01*
X18892Y200970D01*
X16893D01*
X15893Y201970D01*
Y202969D01*
X16893Y203969D01*
X19892D01*
D54*
X248932Y266773D02*
G03*
X248955Y266766I341J1022D01*
G01*
D55*
X279390Y153470D02*
G03*
X279390Y153470I-1250J0D01*
G01*
X159440Y25320D02*
G03*
X159440Y25320I-1250J0D01*
G01*
D56*
X223094Y298130D02*
X231730D01*
X223094Y287970D02*
Y298130D01*
Y277810D02*
Y287970D01*
Y277810D02*
X231730D01*
X252050D02*
X260686D01*
Y287970D01*
Y298130D01*
X252050D02*
X260686D01*
X59050Y214130D02*
X67686D01*
Y203970D02*
Y214130D01*
Y193810D02*
Y203970D01*
X59050Y193810D02*
X67686D01*
X30094D02*
X38730D01*
X30094D02*
Y203970D01*
Y214130D01*
X38730D01*
X102730Y51130D02*
Y59766D01*
X112890D01*
X123050D01*
Y51130D02*
Y59766D01*
Y22174D02*
Y30810D01*
X112890Y22174D02*
X123050D01*
X102730D02*
X112890D01*
X102730D02*
Y30810D01*
X216730Y58130D02*
Y66766D01*
X226890D01*
X237050D01*
Y58130D02*
Y66766D01*
Y29174D02*
Y37810D01*
X226890Y29174D02*
X237050D01*
X216730D02*
X226890D01*
X216730D02*
Y37810D01*
X240730Y58130D02*
Y66766D01*
X250890D01*
X261050D01*
Y58130D02*
Y66766D01*
Y29174D02*
Y37810D01*
X250890Y29174D02*
X261050D01*
X240730D02*
X250890D01*
X240730D02*
Y37810D01*
X264730Y105130D02*
Y113766D01*
X274890D01*
X285050D01*
Y105130D02*
Y113766D01*
Y76174D02*
Y84810D01*
X274890Y76174D02*
X285050D01*
X264730D02*
X274890D01*
X264730D02*
Y84810D01*
X261050Y76174D02*
Y84810D01*
X250890Y76174D02*
X261050D01*
X240730D02*
X250890D01*
X240730D02*
Y84810D01*
Y105130D02*
Y113766D01*
X250890D01*
X261050D01*
Y105130D02*
Y113766D01*
X264730Y58130D02*
Y66766D01*
X274890D01*
X285050D01*
Y58130D02*
Y66766D01*
Y29174D02*
Y37810D01*
X274890Y29174D02*
X285050D01*
X264730D02*
X274890D01*
X264730D02*
Y37810D01*
X216730Y105130D02*
Y113766D01*
X226890D01*
X237050D01*
Y105130D02*
Y113766D01*
Y76174D02*
Y84810D01*
X226890Y76174D02*
X237050D01*
X216730D02*
X226890D01*
X216730D02*
Y84810D01*
X183730Y258130D02*
Y266766D01*
X193890D01*
X204050D01*
Y258130D02*
Y266766D01*
Y229174D02*
Y237810D01*
X193890Y229174D02*
X204050D01*
X183730D02*
X193890D01*
X183730D02*
Y237810D01*
X192730Y105130D02*
Y113766D01*
X202890D01*
X213050D01*
Y105130D02*
Y113766D01*
Y76174D02*
Y84810D01*
X202890Y76174D02*
X213050D01*
X192730D02*
X202890D01*
X192730D02*
Y84810D01*
X288730Y58130D02*
Y66766D01*
X298890D01*
X309050D01*
Y58130D02*
Y66766D01*
Y29174D02*
Y37810D01*
X298890Y29174D02*
X309050D01*
X288730D02*
X298890D01*
X288730D02*
Y37810D01*
D57*
X164572Y138320D02*
X173208D01*
X164572Y125620D02*
X173208D01*
D58*
X44810Y231970D02*
X47350D01*
X52430D02*
X54970D01*
X47350Y229430D02*
Y234510D01*
Y231970D02*
X52430Y237050D01*
X47350Y231970D02*
X52430Y226890D01*
Y237050D01*
M02*
