G04 Layer_Color=16711935*
%FSLAX44Y44*%
%MOMM*%
G71*
G01*
G75*
%ADD37C,1.7032*%
%ADD38C,3.2032*%
%ADD39C,1.1032*%
%ADD40R,1.7032X1.7032*%
%ADD41C,1.7032*%
%ADD42O,1.9032X2.5032*%
%ADD43R,1.9032X2.5032*%
%ADD44O,1.4032X2.2032*%
%ADD45R,1.4732X1.8034*%
%ADD46R,1.7272X0.7112*%
%ADD47R,0.5032X1.8032*%
%ADD48R,1.4732X1.6002*%
%ADD49R,1.7032X3.9532*%
%ADD50R,2.3532X3.7032*%
%ADD51R,2.3532X1.3032*%
%ADD52R,2.3532X1.3032*%
%ADD53R,1.8034X1.4732*%
D37*
X89890Y131970D02*
D03*
X58890Y89970D02*
D03*
D38*
X0Y290000D02*
D03*
X290000D02*
D03*
Y0D02*
D03*
X0D02*
D03*
D39*
X164890Y100970D02*
D03*
X124890D02*
D03*
D40*
X137890Y-8030D02*
D03*
D41*
X163290D02*
D03*
X188690D02*
D03*
X214090D02*
D03*
X239490D02*
D03*
D42*
X154290Y282970D02*
D03*
X128890D02*
D03*
D43*
X103490D02*
D03*
D44*
X99890Y186970D02*
D03*
X119890D02*
D03*
X139890D02*
D03*
X159890D02*
D03*
Y236970D02*
D03*
X139890D02*
D03*
X119890D02*
D03*
X99890D02*
D03*
D45*
X231730Y287970D02*
D03*
X252050D02*
D03*
X59050Y203970D02*
D03*
X38730D02*
D03*
D46*
X267925Y267020D02*
D03*
Y254320D02*
D03*
Y241620D02*
D03*
Y228920D02*
D03*
X215855D02*
D03*
Y241620D02*
D03*
Y254320D02*
D03*
Y267020D02*
D03*
D47*
X271140Y153470D02*
D03*
X264640D02*
D03*
X258140D02*
D03*
X251640D02*
D03*
X245140D02*
D03*
X238640D02*
D03*
X232140D02*
D03*
X225640D02*
D03*
X219140D02*
D03*
X212640D02*
D03*
X271140Y208470D02*
D03*
X264640D02*
D03*
X258140D02*
D03*
X251640D02*
D03*
X245140D02*
D03*
X238640D02*
D03*
X232140D02*
D03*
X225640D02*
D03*
X219140D02*
D03*
X212640D02*
D03*
D48*
X157460Y131970D02*
D03*
X180320D02*
D03*
X61320Y231970D02*
D03*
X38460D02*
D03*
D49*
X58890Y141970D02*
D03*
Y61970D02*
D03*
D50*
X201890Y51970D02*
D03*
D51*
X139890Y74970D02*
D03*
Y28970D02*
D03*
D52*
Y51970D02*
D03*
D53*
X112890Y51130D02*
D03*
Y30810D02*
D03*
X226890Y58130D02*
D03*
Y37810D02*
D03*
X250890Y58130D02*
D03*
Y37810D02*
D03*
X274890Y105130D02*
D03*
Y84810D02*
D03*
X250890Y84810D02*
D03*
Y105130D02*
D03*
X274890Y58130D02*
D03*
Y37810D02*
D03*
X226890Y105130D02*
D03*
Y84810D02*
D03*
X193890Y258130D02*
D03*
Y237810D02*
D03*
X202890Y105130D02*
D03*
Y84810D02*
D03*
X298890Y58130D02*
D03*
Y37810D02*
D03*
M02*
