%FSLAX23Y23*%
%MOIN*%
%ADD10C,0.008*%
%ADD11C,0.012*%
%ADD12C,0.004*%
%ADD13R,0.047X0.047*%
%ADD14C,0.016*%
%ADD15C,0.02*%
%ADD16C,0.031*%
%ADD17C,0.001*%
%ADD18C,0.006*%
%ADD19C,0.005*%
%ADD20C,0.009*%
%LPD*%
G54D10*
X-02856Y2291D02*
X-02903Y2291D01*
G54D10*
X-02903Y2291D02*
X-02903Y2338D01*
G54D10*
X-02903Y2338D02*
X-02856Y2338D01*
G54D10*
X-02856Y2338D02*
X-02856Y2291D01*
G54D10*
X-02779Y2291D02*
X-02826Y2291D01*
G54D10*
X-02826Y2291D02*
X-02826Y2338D01*
G54D10*
X-02826Y2338D02*
X-02779Y2338D01*
G54D10*
X-02779Y2338D02*
X-02779Y2291D01*
G54D10*
X-02705Y2291D02*
X-02752Y2291D01*
G54D10*
X-02752Y2291D02*
X-02752Y2338D01*
G54D10*
X-02752Y2338D02*
X-02705Y2338D01*
G54D10*
X-02705Y2338D02*
X-02705Y2291D01*
G54D10*
X-02633Y2291D02*
X-02680Y2291D01*
G54D10*
X-02680Y2291D02*
X-02680Y2338D01*
G54D10*
X-02680Y2338D02*
X-02633Y2338D01*
G54D10*
X-02633Y2338D02*
X-02633Y2291D01*
G54D10*
X-02865Y1345D02*
X-02913Y1345D01*
G54D10*
X-02913Y1345D02*
X-02913Y1392D01*
G54D10*
X-02913Y1392D02*
X-02865Y1392D01*
G54D10*
X-02865Y1392D02*
X-02865Y1345D01*
G54D10*
X-02667Y1345D02*
X-02714Y1345D01*
G54D10*
X-02714Y1345D02*
X-02714Y1392D01*
G54D10*
X-02714Y1392D02*
X-02667Y1392D01*
G54D10*
X-02667Y1392D02*
X-02667Y1345D01*
G54D12*
X-02688Y1681D02*
X-02688Y1658D01*
G54D12*
X-02608Y1658D02*
X-02688Y1658D01*
G54D12*
X-02608Y1681D02*
X-02608Y1658D01*
G54D12*
X-02688Y1681D02*
X-02608Y1681D01*
G54D10*
X-03136Y2059D02*
X-02777Y2059D01*
G54D10*
X-03136Y2059D02*
X-03136Y1663D01*
G54D10*
X-03136Y1663D02*
X-02741Y1663D01*
G54D10*
X-02741Y1663D02*
X-02741Y2023D01*
G54D10*
X-02741Y2023D02*
X-02777Y2059D01*
G54D12*
X-03420Y2147D02*
X-03220Y2147D01*
G54D12*
X-03220Y2147D02*
X-03220Y1903D01*
G54D12*
X-03420Y1903D02*
X-03220Y1903D01*
G54D12*
X-03420Y2147D02*
X-03420Y1903D01*
G54D12*
X-03420Y2000D02*
X-03395Y2000D01*
G54D12*
X-03395Y2000D02*
X-03395Y1950D01*
G54D12*
X-03395Y1950D02*
X-03420Y1950D01*
G54D12*
X-03420Y1716D02*
X-03220Y1716D01*
G54D12*
X-03220Y1716D02*
X-03220Y1472D01*
G54D12*
X-03420Y1472D02*
X-03220Y1472D01*
G54D12*
X-03420Y1716D02*
X-03420Y1472D01*
G54D12*
X-03420Y1569D02*
X-03395Y1569D01*
G54D12*
X-03395Y1569D02*
X-03395Y1519D01*
G54D12*
X-03395Y1519D02*
X-03420Y1519D01*
G54D12*
X-03146Y1490D02*
X-03146Y1454D01*
G54D12*
X-03022Y1454D02*
X-03146Y1454D01*
G54D12*
X-03022Y1454D02*
X-03022Y1490D01*
G54D12*
X-03146Y1490D02*
X-03022Y1490D01*
G54D12*
X-02842Y1513D02*
X-02842Y1477D01*
G54D12*
X-02719Y1477D02*
X-02842Y1477D01*
G54D12*
X-02719Y1477D02*
X-02719Y1513D01*
G54D12*
X-02842Y1513D02*
X-02719Y1513D01*
G54D10*
X-03263Y2292D02*
X-03310Y2292D01*
G54D10*
X-03310Y2292D02*
X-03310Y2339D01*
G54D10*
X-03310Y2339D02*
X-03263Y2339D01*
G54D10*
X-03263Y2339D02*
X-03263Y2292D01*
G54D10*
X-03186Y2292D02*
X-03233Y2292D01*
G54D10*
X-03233Y2292D02*
X-03233Y2339D01*
G54D10*
X-03233Y2339D02*
X-03186Y2339D01*
G54D10*
X-03186Y2339D02*
X-03186Y2292D01*
G54D12*
X-02857Y2141D02*
X-02857Y2240D01*
G54D12*
X-02857Y2240D02*
X-02862Y2245D01*
G54D12*
X-02982Y2245D02*
X-02982Y2141D01*
G54D12*
X-02857Y2141D02*
X-02982Y2141D01*
G54D12*
X-02982Y2245D02*
X-02862Y2245D01*
G54D12*
X-03201Y1392D02*
X-03201Y1351D01*
G54D12*
X-03101Y1392D02*
X-03201Y1392D01*
G54D12*
X-03101Y1351D02*
X-03101Y1392D01*
G54D12*
X-03101Y1351D02*
X-03201Y1351D01*
G54D12*
X-02740Y1348D02*
X-02740Y1389D01*
G54D12*
X-02840Y1348D02*
X-02740Y1348D01*
G54D12*
X-02840Y1389D02*
X-02840Y1348D01*
G54D12*
X-02840Y1389D02*
X-02740Y1389D01*
G54D12*
X-02695Y1459D02*
X-02654Y1459D01*
G54D12*
X-02695Y1559D02*
X-02695Y1459D01*
G54D12*
X-02654Y1559D02*
X-02695Y1559D01*
G54D12*
X-02654Y1559D02*
X-02654Y1459D01*
G54D12*
X-03007Y1437D02*
X-02966Y1437D01*
G54D12*
X-03007Y1537D02*
X-03007Y1437D01*
G54D12*
X-02966Y1537D02*
X-03007Y1537D01*
G54D12*
X-02966Y1537D02*
X-02966Y1437D01*
G54D12*
X-02668Y1782D02*
X-02627Y1782D01*
G54D12*
X-02668Y1882D02*
X-02668Y1782D01*
G54D12*
X-02627Y1882D02*
X-02668Y1882D01*
G54D12*
X-02627Y1882D02*
X-02627Y1782D01*
G54D12*
X-02687Y1997D02*
X-02646Y1997D01*
G54D12*
X-02687Y2097D02*
X-02687Y1997D01*
G54D12*
X-02646Y2097D02*
X-02687Y2097D01*
G54D12*
X-02646Y2097D02*
X-02646Y1997D01*
G54D12*
X-02807Y2243D02*
X-02848Y2243D01*
G54D12*
X-02807Y2143D02*
X-02807Y2243D01*
G54D12*
X-02848Y2143D02*
X-02807Y2143D01*
G54D12*
X-02848Y2143D02*
X-02848Y2243D01*
G54D12*
X-03414Y2259D02*
X-03455Y2259D01*
G54D12*
X-03414Y2159D02*
X-03414Y2259D01*
G54D12*
X-03455Y2159D02*
X-03414Y2159D01*
G54D12*
X-03455Y2159D02*
X-03455Y2259D01*
G54D12*
X-03208Y1553D02*
X-03167Y1553D01*
G54D12*
X-03208Y1653D02*
X-03208Y1553D01*
G54D12*
X-03167Y1653D02*
X-03208Y1653D01*
G54D12*
X-03167Y1653D02*
X-03167Y1553D01*
G54D12*
X-03161Y1553D02*
X-03120Y1553D01*
G54D12*
X-03161Y1653D02*
X-03161Y1553D01*
G54D12*
X-03120Y1653D02*
X-03161Y1653D01*
G54D12*
X-03120Y1653D02*
X-03120Y1553D01*
G54D12*
X-02853Y1560D02*
X-02894Y1560D01*
G54D12*
X-02853Y1460D02*
X-02853Y1560D01*
G54D12*
X-02894Y1460D02*
X-02853Y1460D01*
G54D12*
X-02894Y1460D02*
X-02894Y1560D01*
G54D12*
X-03005Y1584D02*
X-03005Y1543D01*
G54D12*
X-02905Y1584D02*
X-03005Y1584D01*
G54D12*
X-02905Y1543D02*
X-02905Y1584D01*
G54D12*
X-02905Y1543D02*
X-03005Y1543D01*
G54D12*
X-03167Y1537D02*
X-03208Y1537D01*
G54D12*
X-03167Y1437D02*
X-03167Y1537D01*
G54D12*
X-03208Y1437D02*
X-03167Y1437D01*
G54D12*
X-03208Y1437D02*
X-03208Y1537D01*
G54D12*
X-02650Y1580D02*
X-02650Y1621D01*
G54D12*
X-02750Y1580D02*
X-02650Y1580D01*
G54D12*
X-02750Y1621D02*
X-02750Y1580D01*
G54D12*
X-02750Y1621D02*
X-02650Y1621D01*
G54D17*
X-03489Y1256D02*
X-03489Y2369D01*
G54D17*
X-03489Y1256D02*
X-02577Y1256D01*
G54D17*
X-02577Y1256D02*
X-02577Y2369D01*
G54D17*
X-03489Y2369D02*
X-02577Y2369D01*
G54D18*
X-02737Y2274D02*
X-02727Y2274D01*
G54D18*
X-02661Y2281D02*
X-02661Y2254D01*
G54D18*
X-02672Y2267D02*
X-02650Y2267D01*
G54D19*
X-02814Y2280D02*
X-02795Y2280D01*
G54D19*
X-02805Y2280D02*
X-02805Y2250D01*
G54D19*
X-02893Y2249D02*
X-02893Y2280D01*
G54D19*
X-02893Y2280D02*
X-02877Y2280D01*
G54D19*
X-02877Y2280D02*
X-02872Y2275D01*
G54D19*
X-02872Y2275D02*
X-02872Y2270D01*
G54D19*
X-02872Y2270D02*
X-02877Y2265D01*
G54D19*
X-02877Y2265D02*
X-02893Y2265D01*
G54D19*
X-02882Y2265D02*
X-02872Y2249D01*
G54D18*
X-02892Y1323D02*
X-02892Y1296D01*
G54D18*
X-02903Y1309D02*
X-02881Y1309D01*
G54D18*
X-02698Y1319D02*
X-02687Y1319D01*
G54D20*
X-03446Y1304D02*
X-03437Y1293D01*
G54D20*
X-03437Y1293D02*
X-03427Y1293D01*
G54D20*
X-03427Y1293D02*
X-03418Y1304D01*
G54D20*
X-03418Y1304D02*
X-03418Y1344D01*
G54D20*
X-03418Y1344D02*
X-03427Y1355D01*
G54D20*
X-03427Y1355D02*
X-03437Y1355D01*
G54D20*
X-03437Y1355D02*
X-03446Y1344D01*
G54D20*
X-03446Y1344D02*
X-03446Y1334D01*
G54D20*
X-03446Y1334D02*
X-03437Y1324D01*
G54D20*
X-03437Y1324D02*
X-03427Y1324D01*
G54D20*
X-03427Y1324D02*
X-03418Y1334D01*
M02*
