%FSLAX23Y23*%
%MOIN*%
%ADD10C,0.008*%
%ADD11C,0.012*%
%ADD12C,0.004*%
%ADD13R,0.047X0.047*%
%ADD14C,0.016*%
%ADD15R,0.014X0.02*%
%ADD16R,0.016X0.02*%
%ADD17R,0.016X0.039*%
%ADD18R,0.039X0.016*%
%ADD19R,0.024X0.063*%
%ADD20R,0.026X0.042*%
%ADD21R,0.041X0.037*%
%ADD22R,0.033X0.031*%
%ADD23R,0.031X0.033*%
%ADD24C,0.02*%
%ADD25C,0.031*%
%ADD26C,0.009*%
%ADD27C,0.001*%
%ADD28C,0.006*%
%ADD29C,0.005*%
%LPD*%
G36*
X-03345Y2021D02*
X-03395Y1971D01*
X-03345Y1921D01*
X-03295Y1971D01*
X-03345Y2021D01*
G37*
%LPD*%
G36*
X-02933Y2011D02*
X-02833Y1911D01*
X-02933Y1811D01*
X-02933Y2011D01*
G37*
%LPD*%
G36*
X-03343Y1552D02*
X-03305Y1515D01*
X-03343Y1477D01*
X-03343Y1552D01*
G37*
%LPD*%
G36*
X-03203Y2257D02*
X-03159Y2214D01*
X-03159Y2257D01*
X-03203Y2257D01*
G37*
%LPD*%
G36*
X-03159Y2251D02*
X-03159Y2207D01*
X-03134Y2182D01*
X-03078Y2182D01*
X-03065Y2195D01*
X-03065Y2270D01*
X-03034Y2301D01*
X-03034Y2314D01*
X-03097Y2314D01*
X-03159Y2251D01*
G37*
%LPD*%
G54D10*
X-03245Y1750D02*
X-03245Y1700D01*
G54D11*
X-03283Y1806D02*
X-03295Y1794D01*
G54D11*
X-03295Y1794D02*
X-03295Y1750D01*
G54D11*
X-03083Y1833D02*
X-03111Y1861D01*
G54D11*
X-03083Y1833D02*
X-03083Y1798D01*
G54D11*
X-03163Y1861D02*
X-03111Y1861D01*
G54D11*
X-03118Y1830D02*
X-03105Y1817D01*
G54D11*
X-03163Y1830D02*
X-03118Y1830D01*
G54D11*
X-03069Y1706D02*
X-03045Y1706D01*
G54D11*
X-03069Y1706D02*
X-03105Y1742D01*
G54D11*
X-03105Y1817D02*
X-03105Y1742D01*
G54D11*
X-02970Y1637D02*
X-02970Y1599D01*
G54D11*
X-02983Y1563D02*
X-02983Y1586D01*
G54D11*
X-02970Y1599D02*
X-02983Y1586D01*
G54D11*
X-02939Y1637D02*
X-02939Y1599D01*
G54D11*
X-02926Y1587D02*
X-02926Y1563D01*
G54D11*
X-02926Y1587D02*
X-02939Y1599D01*
G54D11*
X-03122Y1515D02*
X-03188Y1515D01*
G54D11*
X-03141Y1574D02*
X-03188Y1574D01*
G54D11*
X-03245Y1750D02*
X-03215Y1750D01*
G54D11*
X-03163Y1767D02*
X-03198Y1767D01*
G54D11*
X-03198Y1767D02*
X-03215Y1750D01*
G54D11*
X-03395Y2181D02*
X-03435Y2181D01*
G54D11*
X-03345Y1869D02*
X-03345Y2181D01*
G54D11*
X-03245Y1937D02*
X-03280Y1971D01*
G54D11*
X-03245Y1869D02*
X-03245Y1937D01*
G54D11*
X-03280Y1971D02*
X-03345Y1971D01*
G54D11*
X-03345Y1972D02*
X-03441Y1972D01*
G54D11*
X-03219Y1950D02*
X-03295Y2027D01*
G54D11*
X-03295Y2181D02*
X-03295Y2027D01*
G54D11*
X-03219Y1824D02*
X-03237Y1806D01*
G54D11*
X-03219Y1824D02*
X-03219Y1950D01*
G54D11*
X-03283Y1806D02*
X-03237Y1806D01*
G54D11*
X-03188Y1631D02*
X-03228Y1631D01*
G54D11*
X-03245Y1648D02*
X-03245Y1700D01*
G54D11*
X-03245Y1648D02*
X-03228Y1631D01*
G54D11*
X-03198Y1963D02*
X-03198Y1767D01*
G54D11*
X-03245Y2181D02*
X-03245Y2010D01*
G54D11*
X-03198Y1963D02*
X-03245Y2010D01*
G54D11*
X-02844Y1637D02*
X-02844Y1584D01*
G54D11*
X-02813Y1637D02*
X-02813Y1584D01*
G54D11*
X-02781Y1637D02*
X-02781Y1584D01*
G54D11*
X-02714Y1735D02*
X-02772Y1735D01*
G54D11*
X-02819Y1781D02*
X-02772Y1735D01*
G54D11*
X-02714Y1767D02*
X-02765Y1767D01*
G54D11*
X-02819Y1820D02*
X-02765Y1767D01*
G54D11*
X-02714Y1798D02*
X-02757Y1798D01*
G54D11*
X-02757Y1798D02*
X-02819Y1860D01*
G54D11*
X-02714Y1830D02*
X-02687Y1830D01*
G54D11*
X-02647Y1804D02*
X-02672Y1804D01*
G54D11*
X-02672Y1804D02*
X-02678Y1810D01*
G54D11*
X-02687Y1830D02*
X-02678Y1821D01*
G54D11*
X-02678Y1810D02*
X-02678Y1821D01*
G54D11*
X-02714Y1861D02*
X-02647Y1861D01*
G54D11*
X-02970Y1901D02*
X-02970Y1747D01*
G54D11*
X-03019Y1698D02*
X-02970Y1747D01*
G54D11*
X-03096Y2056D02*
X-03067Y2026D01*
G54D11*
X-03067Y2026D02*
X-03068Y1951D01*
G54D11*
X-03096Y2085D02*
X-03096Y2056D01*
G54D11*
X-02996Y1926D02*
X-02970Y1901D01*
G54D11*
X-03043Y1926D02*
X-02996Y1926D01*
G54D11*
X-03068Y1951D02*
X-03043Y1926D01*
G54D11*
X-03020Y1879D02*
X-03077Y1879D01*
G54D11*
X-03163Y2019D02*
X-03125Y2019D01*
G54D11*
X-03115Y2008D02*
X-03125Y2019D01*
G54D11*
X-03115Y2008D02*
X-03115Y1917D01*
G54D11*
X-03115Y1917D02*
X-03077Y1879D01*
G54D11*
X-03200Y1998D02*
X-03200Y2119D01*
G54D11*
X-03163Y1987D02*
X-03189Y1987D01*
G54D11*
X-03089Y2151D02*
X-03169Y2151D01*
G54D11*
X-03169Y2151D02*
X-03200Y2119D01*
G54D11*
X-03189Y1987D02*
X-03200Y1998D01*
G54D10*
X-03002Y2085D02*
X-03002Y2148D01*
G54D10*
X-02956Y2164D02*
X-02986Y2164D01*
G54D10*
X-03002Y2148D02*
X-02986Y2164D01*
G54D10*
X-02827Y2221D02*
X-02827Y2247D01*
G54D10*
X-02956Y2221D02*
X-02956Y2249D01*
G54D10*
X-02827Y2247D02*
X-02839Y2259D01*
G54D10*
X-02945Y2259D02*
X-02839Y2259D01*
G54D10*
X-02945Y2259D02*
X-02956Y2249D01*
G54D10*
X-02939Y2085D02*
X-02939Y2115D01*
G54D10*
X-02967Y2125D02*
X-02949Y2125D01*
G54D10*
X-02939Y2115D02*
X-02949Y2125D01*
G54D10*
X-02907Y2085D02*
X-02907Y2125D01*
G54D10*
X-02714Y2019D02*
X-02666Y2019D01*
G54D11*
X-02840Y2012D02*
X-02840Y1981D01*
G54D11*
X-02714Y1956D02*
X-02815Y1956D01*
G54D11*
X-02815Y1956D02*
X-02840Y1981D01*
G54D10*
X-02876Y2085D02*
X-02876Y2037D01*
G54D10*
X-02702Y2240D02*
X-02702Y2195D01*
G54D10*
X-02781Y2085D02*
X-02781Y2116D01*
G54D10*
X-02781Y2116D02*
X-02702Y2195D01*
G54D10*
X-02802Y2048D02*
X-02732Y2048D01*
G54D10*
X-02813Y2085D02*
X-02813Y2059D01*
G54D10*
X-02722Y2105D02*
X-02698Y2129D01*
G54D10*
X-02722Y2105D02*
X-02722Y2059D01*
G54D10*
X-02698Y2129D02*
X-02639Y2129D01*
G54D10*
X-02802Y2048D02*
X-02813Y2059D01*
G54D10*
X-02732Y2048D02*
X-02722Y2059D01*
G54D10*
X-02829Y2034D02*
X-02844Y2049D01*
G54D10*
X-02844Y2085D02*
X-02844Y2049D01*
G54D10*
X-02793Y2034D02*
X-02759Y2001D01*
G54D10*
X-02793Y2034D02*
X-02829Y2034D01*
G54D10*
X-03051Y2184D02*
X-03051Y2258D01*
G54D10*
X-03065Y2085D02*
X-03065Y2112D01*
G54D10*
X-03051Y2258D02*
X-02995Y2315D01*
G54D10*
X-02879Y2315D02*
X-02995Y2315D01*
G54D10*
X-03065Y2112D02*
X-03041Y2135D01*
G54D10*
X-03041Y2135D02*
X-03041Y2174D01*
G54D10*
X-03041Y2174D02*
X-03051Y2184D01*
G54D10*
X-02625Y1695D02*
X-02602Y1719D01*
G54D10*
X-02648Y1695D02*
X-02625Y1695D01*
G54D10*
X-02602Y2220D02*
X-02602Y1719D01*
G54D10*
X-02656Y2315D02*
X-02656Y2275D01*
G54D10*
X-02656Y2275D02*
X-02602Y2220D01*
G54D11*
X-03065Y1599D02*
X-03053Y1587D01*
G54D11*
X-03065Y1637D02*
X-03065Y1599D01*
G54D11*
X-03022Y1587D02*
X-03053Y1587D01*
G54D11*
X-02819Y1538D02*
X-02874Y1538D01*
G54D11*
X-03047Y1515D02*
X-02987Y1515D01*
G54D11*
X-02744Y1538D02*
X-02674Y1538D01*
G54D11*
X-03122Y1429D02*
X-03122Y1371D01*
G54D11*
X-02757Y1402D02*
X-02744Y1416D01*
G54D11*
X-02744Y1452D02*
X-02744Y1416D01*
G54D11*
X-02818Y1402D02*
X-02757Y1402D01*
G54D11*
X-03075Y1469D02*
X-03085Y1459D01*
G54D11*
X-03085Y1429D02*
X-03085Y1459D01*
G54D11*
X-03011Y1458D02*
X-03022Y1469D01*
G54D11*
X-03022Y1469D02*
X-03075Y1469D01*
G54D11*
X-02987Y1458D02*
X-03011Y1458D01*
G54D11*
X-02819Y1369D02*
X-02889Y1369D01*
G54D11*
X-03122Y1371D02*
X-03122Y1352D01*
G54D11*
X-02889Y1369D02*
X-02988Y1369D01*
G54D11*
X-03113Y1343D02*
X-03122Y1352D01*
G54D11*
X-03013Y1343D02*
X-03113Y1343D01*
G54D11*
X-03013Y1343D02*
X-02988Y1369D01*
G54D11*
X-02761Y1369D02*
X-02690Y1369D01*
G54D11*
X-02928Y1496D02*
X-02917Y1496D01*
G54D11*
X-02874Y1538D02*
X-02894Y1538D01*
G54D11*
X-02894Y1538D02*
X-02905Y1528D01*
G54D11*
X-02917Y1496D02*
X-02905Y1507D01*
G54D11*
X-02905Y1507D02*
X-02905Y1528D01*
G54D11*
X-02667Y1644D02*
X-02729Y1644D01*
G54D10*
X-02883Y2164D02*
X-02827Y2164D01*
G54D10*
X-03033Y2119D02*
X-03019Y2133D01*
G54D10*
X-03033Y2085D02*
X-03033Y2119D01*
G54D10*
X-03019Y2198D02*
X-03019Y2133D01*
G54D11*
X-02876Y1637D02*
X-02876Y1584D01*
G54D11*
X-03395Y1692D02*
X-03345Y1643D01*
G54D11*
X-03345Y1437D02*
X-03345Y1643D01*
G54D11*
X-03188Y1574D02*
X-03188Y1515D01*
G54D11*
X-03345Y1515D02*
X-03188Y1515D01*
G54D11*
X-02781Y1452D02*
X-02781Y1497D01*
G54D11*
X-02874Y1456D02*
X-02874Y1481D01*
G54D11*
X-02987Y1458D02*
X-02955Y1458D01*
G54D11*
X-02955Y1458D02*
X-02939Y1443D01*
G54D11*
X-02874Y1456D02*
X-02887Y1443D01*
G54D11*
X-02887Y1443D02*
X-02939Y1443D01*
G54D11*
X-02874Y1481D02*
X-02850Y1481D01*
G54D11*
X-02834Y1497D02*
X-02781Y1497D01*
G54D11*
X-02834Y1497D02*
X-02850Y1481D01*
G54D11*
X-03047Y1390D02*
X-03066Y1371D01*
G54D11*
X-03122Y1371D02*
X-03066Y1371D01*
G54D11*
X-03047Y1429D02*
X-03047Y1390D01*
G54D11*
X-02819Y1452D02*
X-02819Y1369D01*
G54D11*
X-03179Y1371D02*
X-03179Y1399D01*
G54D11*
X-03188Y1458D02*
X-03188Y1408D01*
G54D11*
X-03179Y1399D02*
X-03188Y1408D01*
G54D11*
X-02702Y1322D02*
X-03162Y1322D01*
G54D11*
X-03179Y1371D02*
X-03179Y1339D01*
G54D11*
X-02690Y1369D02*
X-02690Y1334D01*
G54D11*
X-03179Y1339D02*
X-03162Y1322D01*
G54D11*
X-02702Y1322D02*
X-02690Y1334D01*
G54D11*
X-03395Y1692D02*
X-03395Y1750D01*
G54D11*
X-03245Y1393D02*
X-03261Y1377D01*
G54D11*
X-03245Y1437D02*
X-03245Y1393D01*
G54D11*
X-03422Y1377D02*
X-03443Y1397D01*
G54D11*
X-03422Y1377D02*
X-03261Y1377D01*
G54D11*
X-03443Y1585D02*
X-03443Y1397D01*
G54D11*
X-03431Y1808D02*
X-03442Y1797D01*
G54D11*
X-03443Y1585D02*
X-03442Y1797D01*
G54D11*
X-03354Y1808D02*
X-03345Y1799D01*
G54D11*
X-03354Y1808D02*
X-03431Y1808D01*
G54D11*
X-03345Y1750D02*
X-03345Y1799D01*
G54D11*
X-03244Y1490D02*
X-03245Y1437D01*
G54D11*
X-02647Y1804D02*
X-02647Y1752D01*
G54D10*
X-02619Y1976D02*
X-02619Y2197D01*
G54D10*
X-02671Y1934D02*
X-02671Y1954D01*
G54D10*
X-02686Y2264D02*
X-02619Y2197D01*
G54D10*
X-02729Y2315D02*
X-02729Y2264D01*
G54D10*
X-02729Y2264D02*
X-02686Y2264D01*
G54D10*
X-02630Y1964D02*
X-02619Y1976D01*
G54D10*
X-02671Y1954D02*
X-02661Y1964D01*
G54D10*
X-02661Y1964D02*
X-02630Y1964D01*
G54D10*
X-02827Y2221D02*
X-02739Y2221D01*
G54D10*
X-02729Y2232D02*
X-02739Y2221D01*
G54D10*
X-02729Y2264D02*
X-02729Y2232D01*
G54D10*
X-02827Y2164D02*
X-02791Y2164D01*
G54D11*
X-02939Y2085D02*
X-02939Y1911D01*
G54D11*
X-02815Y1911D02*
X-02765Y1861D01*
G54D11*
X-02714Y1861D02*
X-02765Y1861D01*
G54D11*
X-02815Y1911D02*
X-02939Y1911D01*
G54D11*
X-02647Y1861D02*
X-02647Y1910D01*
G54D11*
X-02671Y1934D02*
X-02647Y1910D01*
G54D11*
X-03072Y1563D02*
X-03083Y1574D01*
G54D11*
X-03141Y1574D02*
X-03083Y1574D01*
G54D11*
X-02983Y1563D02*
X-03072Y1563D01*
G54D10*
X-02926Y1532D02*
X-02955Y1503D01*
G54D10*
X-02926Y1563D02*
X-02926Y1532D01*
G54D10*
X-02955Y1503D02*
X-02955Y1458D01*
G54D11*
X-03465Y1385D02*
X-03465Y2181D01*
G54D11*
X-03296Y1337D02*
X-03418Y1337D01*
G54D11*
X-03465Y1385D02*
X-03418Y1337D01*
G54D11*
X-03465Y2181D02*
X-03435Y2181D01*
G54D11*
X-03345Y2222D02*
X-03361Y2238D01*
G54D11*
X-03361Y2238D02*
X-03435Y2238D01*
G54D11*
X-03345Y2181D02*
X-03345Y2222D01*
G54D11*
X-02725Y1497D02*
X-02709Y1481D01*
G54D11*
X-02725Y1497D02*
X-02781Y1497D01*
G54D11*
X-02674Y1481D02*
X-02709Y1481D01*
G54D10*
X-02666Y2075D02*
X-02637Y2075D01*
G54D10*
X-02666Y2076D02*
X-02666Y2075D01*
G54D10*
X-03012Y2229D02*
X-03004Y2221D01*
G54D10*
X-03012Y2244D02*
X-03012Y2229D01*
G54D10*
X-03004Y2221D02*
X-02956Y2221D01*
G54D11*
X-03099Y2315D02*
X-03158Y2256D01*
G54D11*
X-03032Y2315D02*
X-03099Y2315D01*
G54D11*
X-03326Y2256D02*
X-03357Y2287D01*
G54D11*
X-03158Y2256D02*
X-03326Y2256D01*
G54D11*
X-03448Y2287D02*
X-03465Y2270D01*
G54D11*
X-03357Y2287D02*
X-03448Y2287D01*
G54D11*
X-03465Y2180D02*
X-03465Y2270D01*
G54D11*
X-03045Y1683D02*
X-03039Y1676D01*
G54D11*
X-03045Y1706D02*
X-03045Y1683D01*
G54D11*
X-02976Y1676D02*
X-02939Y1714D01*
G54D11*
X-03039Y1676D02*
X-02976Y1676D01*
G54D11*
X-02939Y1911D02*
X-02939Y1714D01*
G54D11*
X-03158Y2205D02*
X-03133Y2180D01*
G54D11*
X-03158Y2256D02*
X-03158Y2205D01*
G54D11*
X-03063Y2166D02*
X-03077Y2180D01*
G54D11*
X-03133Y2180D02*
X-03077Y2180D01*
G54D11*
X-03080Y2127D02*
X-03063Y2144D01*
G54D11*
X-03063Y2144D02*
X-03063Y2166D01*
G54D11*
X-03080Y2127D02*
X-03115Y2127D01*
G54D11*
X-03091Y1935D02*
X-03090Y2015D01*
G54D11*
X-03057Y1902D02*
X-03008Y1902D01*
G54D11*
X-03057Y1902D02*
X-03091Y1935D01*
G54D11*
X-02993Y1860D02*
X-02993Y1886D01*
G54D11*
X-03008Y1902D02*
X-02993Y1886D01*
G54D11*
X-03137Y2105D02*
X-03115Y2127D01*
G54D11*
X-03137Y2105D02*
X-03137Y2061D01*
G54D11*
X-03090Y2015D02*
X-03137Y2061D01*
G54D11*
X-03006Y1847D02*
X-02993Y1860D01*
G54D11*
X-03020Y1847D02*
X-03006Y1847D01*
G54D11*
X-02819Y1742D02*
X-02780Y1704D01*
G54D11*
X-02714Y1704D02*
X-02780Y1704D01*
G54D11*
X-02729Y1644D02*
X-02729Y1600D01*
G54D11*
X-02640Y1569D02*
X-02640Y1491D01*
G54D11*
X-02640Y1569D02*
X-02672Y1600D01*
G54D11*
X-02650Y1481D02*
X-02640Y1491D01*
G54D11*
X-02674Y1481D02*
X-02650Y1481D01*
G54D11*
X-02613Y1572D02*
X-02628Y1588D01*
G54D11*
X-02628Y1644D02*
X-02628Y1588D01*
G54D11*
X-03245Y1437D02*
X-03231Y1437D01*
G54D11*
X-03188Y1458D02*
X-03210Y1458D01*
G54D11*
X-03210Y1458D02*
X-03231Y1437D01*
G54D11*
X-03126Y1676D02*
X-03141Y1661D01*
G54D11*
X-03141Y1631D02*
X-03141Y1661D01*
G54D10*
X-03126Y1787D02*
X-03137Y1798D01*
G54D10*
X-03126Y1676D02*
X-03126Y1787D01*
G54D10*
X-03163Y1798D02*
X-03137Y1798D01*
G54D13*
X-02879Y2315D03*
G54D13*
X-02803Y2315D03*
G54D13*
X-02729Y2315D03*
G54D13*
X-02656Y2315D03*
G54D13*
X-02889Y1369D03*
G54D13*
X-02690Y1369D03*
G54D15*
X-02667Y1644D03*
G54D15*
X-02628Y1644D03*
G54D16*
X-02648Y1695D03*
G54D17*
X-02781Y2085D03*
G54D17*
X-02813Y2085D03*
G54D17*
X-02844Y2085D03*
G54D17*
X-02876Y2085D03*
G54D17*
X-02907Y2085D03*
G54D17*
X-02939Y2085D03*
G54D17*
X-02970Y2085D03*
G54D17*
X-03002Y2085D03*
G54D17*
X-03033Y2085D03*
G54D17*
X-03065Y2085D03*
G54D17*
X-03096Y2085D03*
G54D18*
X-03163Y2019D03*
G54D18*
X-03163Y1987D03*
G54D18*
X-03163Y1956D03*
G54D18*
X-03163Y1924D03*
G54D18*
X-03163Y1893D03*
G54D18*
X-03163Y1861D03*
G54D18*
X-03163Y1830D03*
G54D18*
X-03163Y1798D03*
G54D18*
X-03163Y1767D03*
G54D18*
X-03163Y1735D03*
G54D18*
X-03163Y1704D03*
G54D17*
X-03096Y1637D03*
G54D17*
X-03065Y1637D03*
G54D17*
X-03033Y1637D03*
G54D17*
X-03002Y1637D03*
G54D17*
X-02970Y1637D03*
G54D17*
X-02939Y1637D03*
G54D17*
X-02907Y1637D03*
G54D17*
X-02876Y1637D03*
G54D17*
X-02844Y1637D03*
G54D17*
X-02813Y1637D03*
G54D17*
X-02781Y1637D03*
G54D18*
X-02714Y2019D03*
G54D18*
X-02714Y1987D03*
G54D18*
X-02714Y1956D03*
G54D18*
X-02714Y1924D03*
G54D18*
X-02714Y1893D03*
G54D18*
X-02714Y1861D03*
G54D18*
X-02714Y1830D03*
G54D18*
X-02714Y1798D03*
G54D18*
X-02714Y1767D03*
G54D18*
X-02714Y1735D03*
G54D18*
X-02714Y1704D03*
G54D19*
X-03395Y1869D03*
G54D19*
X-03345Y1869D03*
G54D19*
X-03295Y1869D03*
G54D19*
X-03245Y1869D03*
G54D19*
X-03245Y2181D03*
G54D19*
X-03295Y2181D03*
G54D19*
X-03345Y2181D03*
G54D19*
X-03395Y2181D03*
G54D19*
X-03395Y1437D03*
G54D19*
X-03345Y1437D03*
G54D19*
X-03295Y1437D03*
G54D19*
X-03245Y1437D03*
G54D19*
X-03245Y1750D03*
G54D19*
X-03295Y1750D03*
G54D19*
X-03345Y1750D03*
G54D19*
X-03395Y1750D03*
G54D20*
X-03122Y1515D03*
G54D20*
X-03047Y1515D03*
G54D20*
X-03122Y1429D03*
G54D20*
X-03085Y1429D03*
G54D20*
X-03047Y1429D03*
G54D20*
X-02819Y1538D03*
G54D20*
X-02744Y1538D03*
G54D20*
X-02819Y1452D03*
G54D20*
X-02781Y1452D03*
G54D20*
X-02744Y1452D03*
G54D13*
X-03286Y2315D03*
G54D13*
X-03209Y2315D03*
G54D21*
X-02883Y2221D03*
G54D21*
X-02956Y2221D03*
G54D21*
X-02883Y2164D03*
G54D21*
X-02956Y2164D03*
G54D22*
X-03122Y1371D03*
G54D22*
X-03179Y1371D03*
G54D22*
X-02819Y1369D03*
G54D22*
X-02761Y1369D03*
G54D23*
X-02674Y1538D03*
G54D23*
X-02674Y1481D03*
G54D23*
X-02987Y1515D03*
G54D23*
X-02987Y1458D03*
G54D23*
X-02647Y1861D03*
G54D23*
X-02647Y1804D03*
G54D23*
X-02666Y2076D03*
G54D23*
X-02666Y2019D03*
G54D23*
X-02827Y2164D03*
G54D23*
X-02827Y2221D03*
G54D23*
X-03435Y2181D03*
G54D23*
X-03435Y2238D03*
G54D23*
X-03188Y1631D03*
G54D23*
X-03188Y1574D03*
G54D23*
X-03141Y1631D03*
G54D23*
X-03141Y1574D03*
G54D23*
X-02874Y1481D03*
G54D23*
X-02874Y1538D03*
G54D22*
X-02926Y1563D03*
G54D22*
X-02983Y1563D03*
G54D23*
X-03188Y1458D03*
G54D23*
X-03188Y1515D03*
G54D24*
X-02729Y1644D03*
G54D22*
X-02729Y1600D03*
G54D22*
X-02672Y1600D03*
G54D25*
X-03459Y2339D03*
G54D25*
X-02609Y1289D03*
G54D24*
X-03245Y1700D03*
G54D24*
X-03283Y1806D03*
G54D24*
X-03083Y1798D03*
G54D24*
X-03045Y1706D03*
G54D24*
X-03441Y1972D03*
G54D24*
X-02844Y1584D03*
G54D24*
X-02813Y1584D03*
G54D24*
X-02781Y1584D03*
G54D24*
X-02819Y1742D03*
G54D24*
X-02819Y1781D03*
G54D24*
X-02819Y1820D03*
G54D24*
X-02819Y1860D03*
G54D24*
X-03019Y1698D03*
G54D24*
X-03020Y1879D03*
G54D24*
X-03089Y2151D03*
G54D24*
X-02967Y2125D03*
G54D24*
X-02907Y2125D03*
G54D24*
X-02840Y2012D03*
G54D24*
X-02876Y2037D03*
G54D24*
X-02702Y2240D03*
G54D24*
X-02639Y2129D03*
G54D24*
X-02759Y2001D03*
G54D24*
X-03022Y1587D03*
G54D24*
X-02781Y1497D03*
G54D24*
X-02928Y1496D03*
G54D24*
X-03019Y2198D03*
G54D24*
X-02876Y1584D03*
G54D24*
X-03395Y1692D03*
G54D24*
X-03443Y1585D03*
G54D24*
X-03244Y1490D03*
G54D24*
X-02613Y1572D03*
G54D24*
X-03296Y1514D03*
G54D24*
X-02647Y1752D03*
G54D24*
X-02671Y1934D03*
G54D24*
X-02791Y2164D03*
G54D24*
X-03296Y1337D03*
G54D24*
X-02637Y2075D03*
G54D24*
X-03012Y2244D03*
G54D24*
X-03032Y2315D03*
G54D24*
X-03020Y1847D03*
G54D24*
X-03126Y1676D03*
G54D28*
X-02659Y1312D02*
X-02659Y1347D01*
G54D28*
X-02659Y1330D02*
X-02619Y1330D01*
G54D28*
X-02659Y1371D02*
X-02652Y1365D01*
G54D28*
X-02652Y1365D02*
X-02625Y1365D01*
G54D28*
X-02625Y1365D02*
X-02619Y1371D01*
G54D28*
X-02619Y1371D02*
X-02619Y1389D01*
G54D28*
X-02619Y1389D02*
X-02625Y1394D01*
G54D28*
X-02625Y1394D02*
X-02652Y1394D01*
G54D28*
X-02652Y1394D02*
X-02659Y1389D01*
G54D28*
X-02659Y1389D02*
X-02659Y1371D01*
G54D28*
X-02619Y1412D02*
X-02659Y1412D01*
G54D28*
X-02659Y1412D02*
X-02659Y1430D01*
G54D28*
X-02659Y1430D02*
X-02652Y1436D01*
G54D28*
X-02652Y1436D02*
X-02645Y1436D01*
G54D28*
X-02645Y1436D02*
X-02639Y1430D01*
G54D28*
X-02639Y1430D02*
X-02639Y1412D01*
M02*
