%FSLAX23Y23*%
%MOIN*%
%ADD10C,0.008*%
%ADD11C,0.012*%
%ADD12C,0.004*%
%ADD13R,0.047X0.047*%
%ADD14C,0.016*%
%ADD15C,0.02*%
%ADD16C,0.031*%
%ADD17C,0.009*%
%ADD18C,0.001*%
%ADD19C,0.006*%
%ADD20C,0.005*%
G54D14*
X-02879Y2315D03*
G54D14*
X-02803Y2315D03*
G54D14*
X-02729Y2315D03*
G54D14*
X-02656Y2315D03*
G54D14*
X-02889Y1369D03*
G54D14*
X-02690Y1369D03*
G54D14*
X-03286Y2315D03*
G54D14*
X-03209Y2315D03*
G54D11*
X-02729Y1644D03*
G54D11*
X-03245Y1700D03*
G54D11*
X-03283Y1806D03*
G54D11*
X-03083Y1798D03*
G54D11*
X-03045Y1706D03*
G54D11*
X-03441Y1972D03*
G54D11*
X-02844Y1584D03*
G54D11*
X-02813Y1584D03*
G54D11*
X-02781Y1584D03*
G54D11*
X-02819Y1742D03*
G54D11*
X-02819Y1781D03*
G54D11*
X-02819Y1820D03*
G54D11*
X-02819Y1860D03*
G54D11*
X-03019Y1698D03*
G54D11*
X-03020Y1879D03*
G54D11*
X-03089Y2151D03*
G54D11*
X-02967Y2125D03*
G54D11*
X-02907Y2125D03*
G54D11*
X-02840Y2012D03*
G54D11*
X-02876Y2037D03*
G54D11*
X-02702Y2240D03*
G54D11*
X-02639Y2129D03*
G54D11*
X-02759Y2001D03*
G54D11*
X-03022Y1587D03*
G54D11*
X-02781Y1497D03*
G54D11*
X-02928Y1496D03*
G54D11*
X-03019Y2198D03*
G54D11*
X-02876Y1584D03*
G54D11*
X-03395Y1692D03*
G54D11*
X-03443Y1585D03*
G54D11*
X-03244Y1490D03*
G54D11*
X-02613Y1572D03*
G54D11*
X-03296Y1514D03*
G54D11*
X-02647Y1752D03*
G54D11*
X-02671Y1934D03*
G54D11*
X-02791Y2164D03*
G54D11*
X-03296Y1337D03*
G54D11*
X-02637Y2075D03*
G54D11*
X-03012Y2244D03*
G54D11*
X-03032Y2315D03*
G54D11*
X-03020Y1847D03*
G54D11*
X-03126Y1676D03*
M02*
