%FSLAX23Y23*%
%MOIN*%
%ADD10C,0.008*%
%ADD11C,0.012*%
%ADD12R,0.106X0.028*%
%ADD13R,0.02X0.071*%
%ADD14C,0.004*%
%ADD15R,0.047X0.047*%
%ADD16C,0.016*%
%ADD17R,0.094X0.024*%
%ADD18R,0.043X0.016*%
%ADD19R,0.075X0.043*%
%ADD20R,0.028X0.087*%
%ADD21R,0.031X0.033*%
%ADD22R,0.033X0.031*%
%ADD23R,0.039X0.049*%
%ADD24R,0.049X0.039*%
%ADD25C,0.02*%
%ADD26C,0.031*%
%ADD27C,0.009*%
%ADD28C,0.001*%
%ADD29C,0.006*%
%ADD30C,0.005*%
%LPD*%
G36*
X-03297Y1470D02*
X-03172Y1470D01*
X-03153Y1451D01*
X-03153Y1363D01*
X-03128Y1339D01*
X-02947Y1339D01*
X-02909Y1301D01*
X-03259Y1301D01*
X-03297Y1339D01*
X-03297Y1470D01*
G37*
%LPD*%
G54D10*
X-02945Y1821D02*
X-02945Y1820D01*
G54D11*
X-03110Y1879D02*
X-03110Y1788D01*
G54D11*
X-03103Y1741D02*
X-03103Y1781D01*
G54D11*
X-03103Y1781D02*
X-03110Y1788D01*
G54D11*
X-03210Y1879D02*
X-03210Y1798D01*
G54D11*
X-03210Y1741D02*
X-03160Y1741D01*
G54D11*
X-03248Y1954D02*
X-03260Y1941D01*
G54D11*
X-03260Y1879D02*
X-03260Y1941D01*
G54D11*
X-03110Y1943D02*
X-03122Y1954D01*
G54D11*
X-03122Y1954D02*
X-03248Y1954D01*
G54D11*
X-03110Y1879D02*
X-03110Y1943D01*
G54D11*
X-03410Y1879D02*
X-03409Y1798D01*
G54D11*
X-03360Y1879D02*
X-03360Y1798D01*
G54D11*
X-03332Y1983D02*
X-03360Y1956D01*
G54D11*
X-03360Y1879D02*
X-03360Y1956D01*
G54D11*
X-03024Y1952D02*
X-03056Y1983D01*
G54D11*
X-03332Y1983D02*
X-03056Y1983D01*
G54D11*
X-03024Y1952D02*
X-02993Y1952D01*
G54D11*
X-03160Y2028D02*
X-03141Y2009D01*
G54D11*
X-03141Y2009D02*
X-02993Y2009D01*
G54D11*
X-03160Y2083D02*
X-03160Y2028D01*
G54D11*
X-03410Y2083D02*
X-03410Y2181D01*
G54D11*
X-03267Y2179D02*
X-03267Y2229D01*
G54D11*
X-03210Y2179D02*
X-03210Y2229D01*
G54D11*
X-03210Y2083D02*
X-03210Y2179D01*
G54D11*
X-03260Y2083D02*
X-03260Y2135D01*
G54D11*
X-03267Y2179D02*
X-03267Y2142D01*
G54D11*
X-03260Y2135D02*
X-03267Y2142D01*
G54D11*
X-03133Y2173D02*
X-03160Y2146D01*
G54D11*
X-03133Y2173D02*
X-03133Y2198D01*
G54D11*
X-03160Y2083D02*
X-03160Y2146D01*
G54D11*
X-02993Y2009D02*
X-02939Y2009D01*
G54D11*
X-03409Y1741D02*
X-03360Y1741D01*
G54D11*
X-03160Y1879D02*
X-03160Y1741D01*
G54D11*
X-03133Y2198D02*
X-03133Y2215D01*
G54D11*
X-03146Y2256D02*
X-03146Y2228D01*
G54D11*
X-03133Y2215D02*
X-03146Y2228D01*
G54D11*
X-03076Y2198D02*
X-03076Y2215D01*
G54D11*
X-03067Y2256D02*
X-03067Y2224D01*
G54D11*
X-03076Y2215D02*
X-03067Y2224D01*
G54D11*
X-03146Y2286D02*
X-03133Y2299D01*
G54D11*
X-03146Y2256D02*
X-03146Y2286D01*
G54D11*
X-03133Y2315D02*
X-03133Y2299D01*
G54D11*
X-03337Y2146D02*
X-03360Y2124D01*
G54D11*
X-03360Y2083D02*
X-03360Y2124D01*
G54D11*
X-03337Y2171D02*
X-03337Y2146D01*
G54D11*
X-03382Y2239D02*
X-03371Y2250D01*
G54D11*
X-03410Y2239D02*
X-03382Y2239D01*
G54D11*
X-03337Y2250D02*
X-03371Y2250D01*
G54D11*
X-03245Y1700D02*
X-03089Y1700D01*
G54D11*
X-03089Y1700D02*
X-03069Y1680D01*
G54D11*
X-03069Y1657D02*
X-03069Y1680D01*
G54D11*
X-03045Y1798D02*
X-03083Y1798D01*
G54D10*
X-03045Y1706D02*
X-03045Y1741D01*
G54D11*
X-03441Y1972D02*
X-03441Y1741D01*
G54D11*
X-03409Y1741D02*
X-03441Y1741D01*
G54D11*
X-02945Y1584D02*
X-02876Y1584D01*
G54D11*
X-02945Y1624D02*
X-02856Y1624D01*
G54D11*
X-02844Y1584D02*
X-02844Y1611D01*
G54D11*
X-02844Y1611D02*
X-02856Y1624D01*
G54D11*
X-02813Y1643D02*
X-02833Y1663D01*
G54D10*
X-02813Y1584D02*
X-02813Y1587D01*
G54D11*
X-02945Y1663D02*
X-02833Y1663D01*
G54D11*
X-02813Y1587D02*
X-02813Y1643D01*
G54D11*
X-02781Y1674D02*
X-02810Y1702D01*
G54D11*
X-02945Y1702D02*
X-02810Y1702D01*
G54D11*
X-02781Y1584D02*
X-02781Y1674D01*
G54D11*
X-02945Y1742D02*
X-02819Y1742D01*
G54D11*
X-02945Y1781D02*
X-02819Y1781D01*
G54D11*
X-02945Y1820D02*
X-02819Y1820D01*
G54D11*
X-02945Y1860D02*
X-02819Y1860D01*
G54D11*
X-03069Y1579D02*
X-03069Y1531D01*
G54D11*
X-03128Y1381D02*
X-03128Y1471D01*
G54D11*
X-03069Y1531D02*
X-03069Y1490D01*
G54D11*
X-03056Y1370D02*
X-03116Y1370D01*
G54D11*
X-03116Y1370D02*
X-03128Y1381D01*
G54D11*
X-03116Y1482D02*
X-03128Y1471D01*
G54D11*
X-03069Y1490D02*
X-03077Y1482D01*
G54D11*
X-03077Y1482D02*
X-03116Y1482D01*
G54D11*
X-03040Y1606D02*
X-03019Y1626D01*
G54D11*
X-03040Y1606D02*
X-03069Y1606D01*
G54D11*
X-03019Y1698D02*
X-03019Y1626D01*
G54D11*
X-03060Y1879D02*
X-03020Y1879D01*
G54D11*
X-02939Y1914D02*
X-02939Y1952D01*
G54D11*
X-03020Y1879D02*
X-02998Y1901D01*
G54D11*
X-02953Y1901D02*
X-02939Y1914D01*
G54D11*
X-02998Y1901D02*
X-02953Y1901D01*
G54D10*
X-03060Y2083D02*
X-03060Y2141D01*
G54D10*
X-03069Y2151D02*
X-03060Y2141D01*
G54D10*
X-03089Y2151D02*
X-03069Y2151D01*
G54D11*
X-02967Y2125D02*
X-02985Y2106D01*
G54D11*
X-02985Y2081D02*
X-02985Y2106D01*
G54D11*
X-02928Y2081D02*
X-02928Y2117D01*
G54D11*
X-02907Y2125D02*
X-02920Y2125D01*
G54D11*
X-02928Y2117D02*
X-02920Y2125D01*
G54D10*
X-02840Y2114D02*
X-02896Y2170D01*
G54D10*
X-02840Y2012D02*
X-02840Y2114D01*
G54D10*
X-03110Y2158D02*
X-03098Y2170D01*
G54D10*
X-03098Y2170D02*
X-02896Y2170D01*
G54D10*
X-03110Y2083D02*
X-03110Y2158D01*
G54D11*
X-02741Y2069D02*
X-02791Y2069D01*
G54D11*
X-02801Y1988D02*
X-02791Y1998D01*
G54D11*
X-02791Y2069D02*
X-02791Y1998D01*
G54D11*
X-02876Y2037D02*
X-02876Y2000D01*
G54D11*
X-02876Y2000D02*
X-02864Y1988D01*
G54D11*
X-02864Y1988D02*
X-02801Y1988D01*
G54D11*
X-02702Y2187D02*
X-02702Y2240D01*
G54D10*
X-02653Y2129D02*
X-02662Y2120D01*
G54D10*
X-02653Y2129D02*
X-02639Y2129D01*
G54D10*
X-02662Y2069D02*
X-02662Y2120D01*
G54D11*
X-02715Y2001D02*
X-02702Y2014D01*
G54D11*
X-02759Y2001D02*
X-02715Y2001D01*
G54D11*
X-02702Y2069D02*
X-02702Y2014D01*
G54D11*
X-03022Y1562D02*
X-03013Y1553D01*
G54D11*
X-03022Y1587D02*
X-03022Y1562D01*
G54D11*
X-02752Y1553D02*
X-02729Y1576D01*
G54D11*
X-03013Y1553D02*
X-02752Y1553D01*
G54D11*
X-02729Y1576D02*
X-02729Y1644D01*
G54D11*
X-02847Y1497D02*
X-02781Y1497D01*
G54D11*
X-03056Y1429D02*
X-02915Y1429D01*
G54D11*
X-02915Y1429D02*
X-02847Y1497D01*
G54D11*
X-02781Y1497D02*
X-02781Y1406D01*
G54D10*
X-02690Y1369D02*
X-02744Y1369D01*
G54D11*
X-02744Y1369D02*
X-02781Y1406D01*
G54D10*
X-02662Y2187D02*
X-02662Y2145D01*
G54D10*
X-02791Y2126D02*
X-02681Y2126D01*
G54D10*
X-02662Y2145D02*
X-02681Y2126D01*
G54D11*
X-02928Y1496D02*
X-02991Y1496D01*
G54D11*
X-03069Y1531D02*
X-03026Y1531D01*
G54D11*
X-03026Y1531D02*
X-02991Y1496D01*
G54D11*
X-02847Y2198D02*
X-02803Y2242D01*
G54D11*
X-02847Y2198D02*
X-03019Y2198D01*
G54D11*
X-02803Y2315D02*
X-02803Y2242D01*
G54D11*
X-03210Y2229D02*
X-03209Y2315D01*
G54D11*
X-03267Y2229D02*
X-03267Y2257D01*
G54D11*
X-03286Y2315D02*
X-03286Y2277D01*
G54D11*
X-03267Y2257D02*
X-03286Y2277D01*
G54D11*
X-02741Y2187D02*
X-02741Y2265D01*
G54D11*
X-02729Y2315D02*
X-02729Y2277D01*
G54D11*
X-02729Y2277D02*
X-02741Y2265D01*
G54D11*
X-03395Y1692D02*
X-03395Y1642D01*
G54D11*
X-03395Y1585D02*
X-03441Y1585D01*
G54D11*
X-03441Y1740D02*
X-03441Y1585D01*
G54D11*
X-03250Y1605D02*
X-03312Y1605D01*
G54D11*
X-03328Y1661D02*
X-03328Y1621D01*
G54D11*
X-03312Y1605D02*
X-03328Y1621D01*
G54D11*
X-03250Y1656D02*
X-03194Y1656D01*
G54D11*
X-03126Y1531D02*
X-03126Y1588D01*
G54D11*
X-03194Y1656D02*
X-03126Y1588D01*
G54D11*
X-03203Y1531D02*
X-03244Y1490D01*
G54D11*
X-03126Y1531D02*
X-03203Y1531D01*
G54D11*
X-02633Y1342D02*
X-02633Y1552D01*
G54D11*
X-02613Y1572D02*
X-02633Y1552D01*
G54D11*
X-02673Y1302D02*
X-03261Y1302D01*
G54D11*
X-02633Y1342D02*
X-02673Y1302D01*
G54D11*
X-03296Y1337D02*
X-03296Y1514D01*
G54D11*
X-03261Y1302D02*
X-03296Y1337D01*
G54D11*
X-02647Y1752D02*
X-02647Y1685D01*
G54D11*
X-02613Y1572D02*
X-02613Y1651D01*
G54D11*
X-02613Y1651D02*
X-02647Y1685D01*
G54D11*
X-02647Y1969D02*
X-02611Y2005D01*
G54D11*
X-02647Y1969D02*
X-02647Y1752D01*
G54D11*
X-02611Y2159D02*
X-02639Y2187D01*
G54D11*
X-02611Y2159D02*
X-02611Y2005D01*
G54D11*
X-02662Y2187D02*
X-02639Y2187D01*
G54D11*
X-02690Y1703D02*
X-02718Y1731D01*
G54D11*
X-02690Y1369D02*
X-02690Y1703D01*
G54D11*
X-02718Y1887D02*
X-02671Y1934D01*
G54D11*
X-02718Y1731D02*
X-02718Y1887D01*
G54D11*
X-02791Y2126D02*
X-02791Y2164D01*
G54D10*
X-02928Y2050D02*
X-02898Y2020D01*
G54D10*
X-02928Y2081D02*
X-02928Y2050D01*
G54D10*
X-02898Y1975D02*
X-02867Y1944D01*
G54D10*
X-02709Y1969D02*
X-02733Y1944D01*
G54D10*
X-02867Y1944D02*
X-02733Y1944D01*
G54D10*
X-02709Y1969D02*
X-02648Y1969D01*
G54D10*
X-02898Y2020D02*
X-02898Y1975D01*
G54D11*
X-03250Y1568D02*
X-03256Y1562D01*
G54D11*
X-03328Y1562D02*
X-03256Y1562D01*
G54D11*
X-03250Y1579D02*
X-03250Y1568D01*
G54D11*
X-02637Y2075D02*
X-02613Y2075D01*
G54D11*
X-03024Y2256D02*
X-03012Y2244D01*
G54D11*
X-03067Y2256D02*
X-03024Y2256D01*
G54D11*
X-03076Y2315D02*
X-03032Y2315D01*
G54D11*
X-03103Y1741D02*
X-03045Y1741D01*
G54D11*
X-03045Y1798D02*
X-03020Y1823D01*
G54D11*
X-03020Y1847D02*
X-03020Y1823D01*
G54D11*
X-03283Y1806D02*
X-03283Y1703D01*
G54D11*
X-03283Y1703D02*
X-03256Y1676D01*
G54D11*
X-03126Y1676D02*
X-03256Y1676D01*
G54D11*
X-03126Y1643D02*
X-03115Y1631D01*
G54D11*
X-03069Y1631D02*
X-03115Y1631D01*
G54D11*
X-03126Y1676D02*
X-03126Y1643D01*
G54D12*
X-02945Y1860D03*
G54D12*
X-02945Y1820D03*
G54D12*
X-02945Y1781D03*
G54D12*
X-02945Y1742D03*
G54D12*
X-02945Y1702D03*
G54D12*
X-02945Y1663D03*
G54D12*
X-02945Y1624D03*
G54D12*
X-02945Y1584D03*
G54D13*
X-02662Y2069D03*
G54D13*
X-02702Y2069D03*
G54D13*
X-02741Y2069D03*
G54D13*
X-02662Y2187D03*
G54D13*
X-02702Y2187D03*
G54D13*
X-02741Y2187D03*
G54D15*
X-02879Y2315D03*
G54D15*
X-02803Y2315D03*
G54D15*
X-02729Y2315D03*
G54D15*
X-02656Y2315D03*
G54D15*
X-02889Y1369D03*
G54D15*
X-02690Y1369D03*
G54D17*
X-03056Y1429D03*
G54D17*
X-03056Y1370D03*
G54D18*
X-03250Y1579D03*
G54D18*
X-03250Y1605D03*
G54D18*
X-03250Y1630D03*
G54D18*
X-03250Y1656D03*
G54D18*
X-03069Y1631D03*
G54D18*
X-03069Y1606D03*
G54D18*
X-03069Y1579D03*
G54D18*
X-03069Y1657D03*
G54D19*
X-03328Y1661D03*
G54D19*
X-03328Y1562D03*
G54D20*
X-03210Y1879D03*
G54D20*
X-03160Y1879D03*
G54D20*
X-03110Y1879D03*
G54D20*
X-03060Y1879D03*
G54D20*
X-03210Y2083D03*
G54D20*
X-03160Y2083D03*
G54D20*
X-03110Y2083D03*
G54D20*
X-03060Y2083D03*
G54D20*
X-03260Y1879D03*
G54D20*
X-03310Y1879D03*
G54D20*
X-03360Y1879D03*
G54D20*
X-03360Y2083D03*
G54D20*
X-03310Y2083D03*
G54D20*
X-03260Y2083D03*
G54D20*
X-03410Y1879D03*
G54D20*
X-03410Y2083D03*
G54D21*
X-02993Y1952D03*
G54D21*
X-02993Y2009D03*
G54D21*
X-02939Y1952D03*
G54D21*
X-02939Y2009D03*
G54D22*
X-03133Y2315D03*
G54D22*
X-03076Y2315D03*
G54D21*
X-03409Y1741D03*
G54D21*
X-03409Y1798D03*
G54D22*
X-03267Y2179D03*
G54D22*
X-03210Y2179D03*
G54D22*
X-03133Y2198D03*
G54D22*
X-03076Y2198D03*
G54D22*
X-03267Y2229D03*
G54D22*
X-03210Y2229D03*
G54D22*
X-03160Y1741D03*
G54D22*
X-03103Y1741D03*
G54D21*
X-03210Y1798D03*
G54D21*
X-03210Y1741D03*
G54D21*
X-03360Y1741D03*
G54D21*
X-03360Y1798D03*
G54D21*
X-03410Y2181D03*
G54D21*
X-03410Y2239D03*
G54D23*
X-03146Y2256D03*
G54D23*
X-03067Y2256D03*
G54D24*
X-03337Y2171D03*
G54D24*
X-03337Y2250D03*
G54D15*
X-03286Y2315D03*
G54D15*
X-03209Y2315D03*
G54D21*
X-03045Y1741D03*
G54D21*
X-03045Y1798D03*
G54D21*
X-03395Y1585D03*
G54D21*
X-03395Y1642D03*
G54D22*
X-03126Y1531D03*
G54D22*
X-03069Y1531D03*
G54D22*
X-02985Y2081D03*
G54D22*
X-02928Y2081D03*
G54D21*
X-02791Y2069D03*
G54D21*
X-02791Y2126D03*
G54D25*
X-02729Y1644D03*
G54D26*
X-03459Y2339D03*
G54D26*
X-02609Y1289D03*
G54D25*
X-03245Y1700D03*
G54D25*
X-03283Y1806D03*
G54D25*
X-03083Y1798D03*
G54D25*
X-03045Y1706D03*
G54D25*
X-03441Y1972D03*
G54D25*
X-02844Y1584D03*
G54D25*
X-02813Y1584D03*
G54D25*
X-02781Y1584D03*
G54D25*
X-02819Y1742D03*
G54D25*
X-02819Y1781D03*
G54D25*
X-02819Y1820D03*
G54D25*
X-02819Y1860D03*
G54D25*
X-03019Y1698D03*
G54D25*
X-03020Y1879D03*
G54D25*
X-03089Y2151D03*
G54D25*
X-02967Y2125D03*
G54D25*
X-02907Y2125D03*
G54D25*
X-02840Y2012D03*
G54D25*
X-02876Y2037D03*
G54D25*
X-02702Y2240D03*
G54D25*
X-02639Y2129D03*
G54D25*
X-02759Y2001D03*
G54D25*
X-03022Y1587D03*
G54D25*
X-02781Y1497D03*
G54D25*
X-02928Y1496D03*
G54D25*
X-03019Y2198D03*
G54D25*
X-02876Y1584D03*
G54D25*
X-03395Y1692D03*
G54D25*
X-03443Y1585D03*
G54D25*
X-03244Y1490D03*
G54D25*
X-02613Y1572D03*
G54D25*
X-03296Y1514D03*
G54D25*
X-02647Y1752D03*
G54D25*
X-02671Y1934D03*
G54D25*
X-02791Y2164D03*
G54D25*
X-03296Y1337D03*
G54D25*
X-02637Y2075D03*
G54D25*
X-03012Y2244D03*
G54D25*
X-03032Y2315D03*
G54D25*
X-03020Y1847D03*
G54D25*
X-03126Y1676D03*
G54D29*
X-03328Y1341D02*
X-03328Y1301D01*
G54D29*
X-03328Y1341D02*
X-03346Y1341D01*
G54D29*
X-03346Y1341D02*
X-03352Y1334D01*
G54D29*
X-03352Y1334D02*
X-03352Y1328D01*
G54D29*
X-03352Y1328D02*
X-03346Y1321D01*
G54D29*
X-03346Y1321D02*
X-03328Y1321D01*
G54D29*
X-03346Y1321D02*
X-03352Y1314D01*
G54D29*
X-03352Y1314D02*
X-03352Y1307D01*
G54D29*
X-03352Y1307D02*
X-03346Y1301D01*
G54D29*
X-03346Y1301D02*
X-03328Y1301D01*
G54D29*
X-03375Y1341D02*
X-03369Y1334D01*
G54D29*
X-03369Y1334D02*
X-03369Y1307D01*
G54D29*
X-03369Y1307D02*
X-03375Y1301D01*
G54D29*
X-03375Y1301D02*
X-03393Y1301D01*
G54D29*
X-03393Y1301D02*
X-03399Y1307D01*
G54D29*
X-03399Y1307D02*
X-03399Y1334D01*
G54D29*
X-03399Y1334D02*
X-03393Y1341D01*
G54D29*
X-03393Y1341D02*
X-03375Y1341D01*
G54D29*
X-03417Y1341D02*
X-03452Y1341D01*
G54D29*
X-03434Y1341D02*
X-03434Y1301D01*
M02*
