G04 Layer_Color=255*
%FSLAX44Y44*%
%MOMM*%
G71*
G01*
G75*
%ADD35C,1.5000*%
%ADD36C,2.0000*%
%ADD37R,1.5000X2.0000*%
%ADD38O,1.5000X2.0000*%
%ADD39C,1.7000*%
%ADD40C,2.5000*%
%ADD41O,3.5560X3.0480*%
%ADD42O,1.6510X2.0320*%
%ADD43O,3.0000X2.0000*%
%ADD44R,3.0000X2.0000*%
%ADD45R,1.5000X1.5000*%
%ADD46C,1.5000*%
%ADD47R,1.5000X1.5000*%
D35*
X-175000Y88000D02*
D03*
X-939000Y554000D02*
D03*
X-974000D02*
D03*
X-796000Y525000D02*
D03*
Y549000D02*
D03*
X-562000Y11000D02*
D03*
X-588000Y12000D02*
D03*
X16000Y118000D02*
D03*
X49000Y312000D02*
D03*
X50000Y426000D02*
D03*
X48000Y573000D02*
D03*
X49000Y669000D02*
D03*
D36*
X-166000Y276000D02*
D03*
Y376000D02*
D03*
X-167000Y536000D02*
D03*
Y579000D02*
D03*
X-389000Y776000D02*
D03*
X-294000Y791000D02*
D03*
X262000Y707000D02*
D03*
D37*
X-943000Y34000D02*
D03*
D38*
X-917600D02*
D03*
X-892200D02*
D03*
X-866800D02*
D03*
X-841400D02*
D03*
X-816000D02*
D03*
X-790600D02*
D03*
X-765200D02*
D03*
X-739800D02*
D03*
X-714400D02*
D03*
X-689000D02*
D03*
X-663600D02*
D03*
X-638200D02*
D03*
X-612800D02*
D03*
X-587400D02*
D03*
X-562000D02*
D03*
X-536600D02*
D03*
X-511200D02*
D03*
X-485800D02*
D03*
X-460400D02*
D03*
X-435000D02*
D03*
X-409600D02*
D03*
X-384200D02*
D03*
X-358800D02*
D03*
X-333400D02*
D03*
X-308000D02*
D03*
X-282600D02*
D03*
X-257200D02*
D03*
X-231800D02*
D03*
X-206400D02*
D03*
X-181000D02*
D03*
X-155600D02*
D03*
X-130200D02*
D03*
Y415000D02*
D03*
X-155600D02*
D03*
X-181000D02*
D03*
X-206400D02*
D03*
X-231800D02*
D03*
X-257200D02*
D03*
X-282600D02*
D03*
X-308000D02*
D03*
X-333400D02*
D03*
X-358800D02*
D03*
X-384200D02*
D03*
X-409600D02*
D03*
X-435000D02*
D03*
X-460400D02*
D03*
X-485800D02*
D03*
X-511200D02*
D03*
X-536600D02*
D03*
X-562000D02*
D03*
X-587400D02*
D03*
X-612800D02*
D03*
X-638200D02*
D03*
X-663600D02*
D03*
X-689000D02*
D03*
X-714400D02*
D03*
X-739800D02*
D03*
X-765200D02*
D03*
X-790600D02*
D03*
X-816000D02*
D03*
X-841400D02*
D03*
X-866800D02*
D03*
X-892200D02*
D03*
X-917600D02*
D03*
X-943000D02*
D03*
D39*
X-563840Y841100D02*
D03*
X-585840Y766100D02*
D03*
D40*
X-860750Y828000D02*
D03*
X-623250D02*
D03*
D41*
X-914000Y852400D02*
D03*
Y801600D02*
D03*
X214000Y422200D02*
D03*
Y371400D02*
D03*
Y168200D02*
D03*
Y320600D02*
D03*
Y269800D02*
D03*
Y219000D02*
D03*
Y473000D02*
D03*
Y625400D02*
D03*
Y574600D02*
D03*
Y523800D02*
D03*
D42*
X-139000Y661000D02*
D03*
Y861000D02*
D03*
D43*
X127000Y588000D02*
D03*
Y613400D02*
D03*
X128000Y360000D02*
D03*
Y385400D02*
D03*
X128000Y128600D02*
D03*
Y154000D02*
D03*
X127000Y474000D02*
D03*
Y499400D02*
D03*
X128000Y245200D02*
D03*
Y270600D02*
D03*
D44*
X127000Y638800D02*
D03*
X128000Y410800D02*
D03*
X128000Y179400D02*
D03*
X127000Y524800D02*
D03*
X128000Y296000D02*
D03*
D45*
X-823000Y736000D02*
D03*
D46*
X-673000D02*
D03*
X-226000Y708000D02*
D03*
D47*
Y858000D02*
D03*
M02*
