M48
;Layer_Color=9474304
;FILE_FORMAT=4:4
METRIC,TZ
;TYPE=PLATED
T1F00S00C0.6000
T2F00S00C0.9906
T3F00S00C1.0000
T4F00S00C1.0160
T5F00S00C1.0668
T6F00S00C1.5000
T7F00S00C1.5240
T8F00S00C1.6000
T9F00S00C1.7000
%
T01
X-8000Y76000
X42000Y101000
X-34000Y250000
X-59000Y310000
X-32000Y376000
X-58000Y443000
X-28000Y512000
X-372000Y490000
X-397000Y500000
X-533000Y130000
X-627000
X-679000Y494000
X-695000Y578000
X-239000
X-218000
X-325000Y791000
X-88000Y686000
X-57000Y706560
X-36000Y643000
X-57500Y577320
X246000Y700000
Y717000
X277000
Y699000
T02
X-823000Y736000
X-673000
X-226000Y708000
Y858000
T03
X-943000Y34000
X-917600
X-892200
X-866800
X-841400
X-816000
X-790600
X-765200
X-739800
X-714400
X-689000
X-663600
X-638200
X-612800
X-587400
X-588000Y12000
X-562000Y11000
Y34000
X-536600
X-511200
X-485800
X-460400
X-435000
X-409600
X-384200
X-358800
X-333400
X-308000
X-282600
X-257200
X-231800
X-206400
X-181000
X-155600
X-130200
X-175000Y88000
X-166000Y276000
Y376000
X-155600Y415000
X-130200
X-181000
X-206400
X50000Y426000
X49000Y312000
X16000Y118000
X-231800Y415000
X-257200
X-282600
X-308000
X-333400
X-358800
X-384200
X-409600
X-435000
X-460400
X-485800
X-511200
X-536600
X-562000
X-587400
X-612800
X-638200
X-663600
X-689000
X-714400
X-739800
X-765200
X-790600
X-816000
X-841400
X-866800
X-892200
X-917600
X-943000
X-939000Y554000
X-974000
X-796000Y549000
Y525000
X-389000Y776000
X-294000Y791000
X-167000Y579000
Y536000
X48000Y573000
X49000Y669000
X262000Y707000
T04
X-139000Y661000
Y861000
T05
X-585840Y766100
X-563840Y841100
T06
X128000Y128600
Y154000
Y179400
Y245200
Y270600
Y296000
X128000Y360000
Y385400
Y410800
X127000Y474000
Y499400
Y524800
Y588000
Y613400
Y638800
T07
X214000Y168200
Y219000
Y269800
Y320600
Y473000
Y523800
Y574600
Y625400
T08
X214000Y371400
Y422200
X-914000Y801600
Y852400
T09
X-860750Y828000
X-623250
M30
