G04 Layer_Color=8388736*
%FSLAX44Y44*%
%MOMM*%
G71*
G01*
G75*
%ADD59R,1.6532X0.7532*%
%ADD60R,1.7272X0.7112*%
%ADD61R,1.4732X1.8034*%
%ADD62R,1.8034X1.4732*%
%ADD63R,2.2032X1.7032*%
%ADD64R,2.2032X3.2032*%
%ADD65R,1.7272X1.8542*%
%ADD66R,1.6002X1.4732*%
%ADD67R,0.7532X1.6532*%
%ADD68R,1.4732X1.6002*%
%ADD69R,2.7032X1.7032*%
%ADD70R,1.7032X2.7032*%
%ADD71R,1.2032X2.6032*%
%ADD72R,3.5032X2.6032*%
%ADD73R,2.2032X0.8032*%
%ADD74R,2.3622X2.9462*%
%ADD75R,2.9462X2.3622*%
%ADD76O,4.2672X1.7032*%
%ADD77R,4.2672X1.7032*%
%ADD78R,2.0532X1.5032*%
%ADD79R,1.5032X2.0532*%
%ADD80R,1.1032X0.8532*%
%ADD81C,1.7032*%
%ADD82C,2.2032*%
%ADD83R,1.7032X2.2032*%
%ADD84O,1.7032X2.2032*%
%ADD85C,1.9032*%
%ADD86C,2.7032*%
%ADD87O,3.7592X3.2512*%
%ADD88O,1.8542X2.2352*%
%ADD89O,3.2032X2.2032*%
%ADD90R,3.2032X2.2032*%
%ADD91R,1.7032X1.7032*%
%ADD92C,1.7032*%
%ADD93R,1.7032X1.7032*%
D59*
X22750Y703400D02*
D03*
X-750D02*
D03*
X20750Y435400D02*
D03*
X-2750D02*
D03*
X18750Y570400D02*
D03*
X-4750D02*
D03*
X-627500Y118000D02*
D03*
X-604000D02*
D03*
X-3750Y307400D02*
D03*
X19750D02*
D03*
X-530250Y116000D02*
D03*
X-553750D02*
D03*
D60*
X34035Y414450D02*
D03*
Y401750D02*
D03*
Y389050D02*
D03*
Y376350D02*
D03*
X-18035D02*
D03*
Y389050D02*
D03*
Y401750D02*
D03*
Y414450D02*
D03*
X34035Y549450D02*
D03*
Y536750D02*
D03*
Y524050D02*
D03*
Y511350D02*
D03*
X-18035D02*
D03*
Y524050D02*
D03*
Y536750D02*
D03*
Y549450D02*
D03*
X-19070Y288800D02*
D03*
Y276100D02*
D03*
Y263400D02*
D03*
Y250700D02*
D03*
X33000D02*
D03*
Y263400D02*
D03*
Y276100D02*
D03*
Y288800D02*
D03*
X-18035Y681450D02*
D03*
Y668750D02*
D03*
Y656050D02*
D03*
Y643350D02*
D03*
X34035D02*
D03*
Y656050D02*
D03*
Y668750D02*
D03*
Y681450D02*
D03*
X-23000Y101400D02*
D03*
Y88700D02*
D03*
Y76000D02*
D03*
Y63300D02*
D03*
X29070D02*
D03*
Y76000D02*
D03*
Y88700D02*
D03*
Y101400D02*
D03*
D61*
X17000Y620400D02*
D03*
X-3320D02*
D03*
X17000Y596400D02*
D03*
X-3320D02*
D03*
X-862000Y549000D02*
D03*
X-841680D02*
D03*
X-919840Y389000D02*
D03*
X-940160D02*
D03*
X-533000Y568000D02*
D03*
X-553320D02*
D03*
X-553160Y90000D02*
D03*
X-532840D02*
D03*
X-612000Y664000D02*
D03*
X-632320D02*
D03*
X-587160D02*
D03*
X-566840D02*
D03*
X-238320Y597000D02*
D03*
X-218000D02*
D03*
X-4320Y228400D02*
D03*
X16000D02*
D03*
X-4160Y204400D02*
D03*
X16160D02*
D03*
X-3160Y353400D02*
D03*
X17160D02*
D03*
X-3160Y328400D02*
D03*
X17160D02*
D03*
X-3160Y488400D02*
D03*
X17160D02*
D03*
X-3000Y463400D02*
D03*
X17320D02*
D03*
X-603680Y90000D02*
D03*
X-624000D02*
D03*
D62*
X-44000Y706560D02*
D03*
Y686240D02*
D03*
X-913000Y593840D02*
D03*
Y614160D02*
D03*
X-939000Y593840D02*
D03*
Y614160D02*
D03*
X-741000Y545320D02*
D03*
Y525000D02*
D03*
X-70000Y706720D02*
D03*
Y686400D02*
D03*
X57000Y76240D02*
D03*
Y96560D02*
D03*
X-72000Y289840D02*
D03*
Y310160D02*
D03*
X-46000Y289840D02*
D03*
Y310160D02*
D03*
X-70000Y422000D02*
D03*
Y442320D02*
D03*
X-45000Y422000D02*
D03*
Y442320D02*
D03*
X-71000Y557000D02*
D03*
Y577320D02*
D03*
X-44000Y557000D02*
D03*
Y577320D02*
D03*
D63*
X-516800Y827400D02*
D03*
Y776600D02*
D03*
X-415200D02*
D03*
Y827400D02*
D03*
D64*
X-645000Y580000D02*
D03*
X-596000D02*
D03*
D65*
X-435018Y719762D02*
D03*
X-401998D02*
D03*
D66*
X19000Y135400D02*
D03*
Y158260D02*
D03*
X66000Y435830D02*
D03*
Y412970D02*
D03*
Y370570D02*
D03*
Y393430D02*
D03*
Y550830D02*
D03*
Y527970D02*
D03*
Y668260D02*
D03*
Y645400D02*
D03*
Y620830D02*
D03*
Y597970D02*
D03*
X-291000Y537570D02*
D03*
Y560430D02*
D03*
X65000Y158830D02*
D03*
Y135970D02*
D03*
X66000Y299400D02*
D03*
Y322260D02*
D03*
Y277830D02*
D03*
Y254970D02*
D03*
Y505830D02*
D03*
Y482970D02*
D03*
D67*
X88000Y160150D02*
D03*
Y136650D02*
D03*
Y278150D02*
D03*
Y254650D02*
D03*
Y393750D02*
D03*
Y370250D02*
D03*
Y437900D02*
D03*
Y414400D02*
D03*
X87000Y507150D02*
D03*
Y483650D02*
D03*
Y550150D02*
D03*
Y526650D02*
D03*
Y621400D02*
D03*
Y597900D02*
D03*
Y668900D02*
D03*
Y645400D02*
D03*
X43000Y159150D02*
D03*
Y135650D02*
D03*
X88000Y298650D02*
D03*
Y322150D02*
D03*
D68*
X-603570Y144000D02*
D03*
X-626430D02*
D03*
D69*
X-603000Y625000D02*
D03*
X-643000D02*
D03*
D70*
X-695000Y511000D02*
D03*
Y561000D02*
D03*
D71*
X-885000Y578000D02*
D03*
X-862000Y578000D02*
D03*
X-839000Y578000D02*
D03*
D72*
X-862000Y636000D02*
D03*
D73*
X-517000Y594300D02*
D03*
Y607000D02*
D03*
Y632400D02*
D03*
X-566000Y594300D02*
D03*
Y607000D02*
D03*
Y619700D02*
D03*
Y632400D02*
D03*
D74*
X-595000Y523000D02*
D03*
X-639200D02*
D03*
X-507200Y719000D02*
D03*
X-463000D02*
D03*
D75*
X-695000Y638000D02*
D03*
Y593800D02*
D03*
X-293000Y721900D02*
D03*
Y766100D02*
D03*
D76*
X-375820Y631000D02*
D03*
D77*
X-463450D02*
D03*
D78*
X-325000Y566000D02*
D03*
Y537000D02*
D03*
Y674000D02*
D03*
Y645000D02*
D03*
Y591000D02*
D03*
Y620000D02*
D03*
D79*
X-526500Y144000D02*
D03*
X-555500D02*
D03*
D80*
X-217000Y625000D02*
D03*
Y634500D02*
D03*
Y644000D02*
D03*
X-241000D02*
D03*
Y625000D02*
D03*
D81*
X-175000Y88000D02*
D03*
X-939000Y554000D02*
D03*
X-974000D02*
D03*
X-796000Y525000D02*
D03*
Y549000D02*
D03*
X-562000Y11000D02*
D03*
X-588000Y12000D02*
D03*
X16000Y118000D02*
D03*
X49000Y312000D02*
D03*
X50000Y426000D02*
D03*
X48000Y573000D02*
D03*
X49000Y669000D02*
D03*
D82*
X-166000Y276000D02*
D03*
Y376000D02*
D03*
X-167000Y536000D02*
D03*
Y579000D02*
D03*
X-389000Y776000D02*
D03*
X-294000Y791000D02*
D03*
X262000Y707000D02*
D03*
D83*
X-943000Y34000D02*
D03*
D84*
X-917600D02*
D03*
X-892200D02*
D03*
X-866800D02*
D03*
X-841400D02*
D03*
X-816000D02*
D03*
X-790600D02*
D03*
X-765200D02*
D03*
X-739800D02*
D03*
X-714400D02*
D03*
X-689000D02*
D03*
X-663600D02*
D03*
X-638200D02*
D03*
X-612800D02*
D03*
X-587400D02*
D03*
X-562000D02*
D03*
X-536600D02*
D03*
X-511200D02*
D03*
X-485800D02*
D03*
X-460400D02*
D03*
X-435000D02*
D03*
X-409600D02*
D03*
X-384200D02*
D03*
X-358800D02*
D03*
X-333400D02*
D03*
X-308000D02*
D03*
X-282600D02*
D03*
X-257200D02*
D03*
X-231800D02*
D03*
X-206400D02*
D03*
X-181000D02*
D03*
X-155600D02*
D03*
X-130200D02*
D03*
Y415000D02*
D03*
X-155600D02*
D03*
X-181000D02*
D03*
X-206400D02*
D03*
X-231800D02*
D03*
X-257200D02*
D03*
X-282600D02*
D03*
X-308000D02*
D03*
X-333400D02*
D03*
X-358800D02*
D03*
X-384200D02*
D03*
X-409600D02*
D03*
X-435000D02*
D03*
X-460400D02*
D03*
X-485800D02*
D03*
X-511200D02*
D03*
X-536600D02*
D03*
X-562000D02*
D03*
X-587400D02*
D03*
X-612800D02*
D03*
X-638200D02*
D03*
X-663600D02*
D03*
X-689000D02*
D03*
X-714400D02*
D03*
X-739800D02*
D03*
X-765200D02*
D03*
X-790600D02*
D03*
X-816000D02*
D03*
X-841400D02*
D03*
X-866800D02*
D03*
X-892200D02*
D03*
X-917600D02*
D03*
X-943000D02*
D03*
D85*
X-563840Y841100D02*
D03*
X-585840Y766100D02*
D03*
D86*
X-860750Y828000D02*
D03*
X-623250D02*
D03*
D87*
X-914000Y852400D02*
D03*
Y801600D02*
D03*
X214000Y422200D02*
D03*
Y371400D02*
D03*
Y168200D02*
D03*
Y320600D02*
D03*
Y269800D02*
D03*
Y219000D02*
D03*
Y473000D02*
D03*
Y625400D02*
D03*
Y574600D02*
D03*
Y523800D02*
D03*
D88*
X-139000Y661000D02*
D03*
Y861000D02*
D03*
D89*
X127000Y588000D02*
D03*
Y613400D02*
D03*
X128000Y360000D02*
D03*
Y385400D02*
D03*
X128000Y128600D02*
D03*
Y154000D02*
D03*
X127000Y474000D02*
D03*
Y499400D02*
D03*
X128000Y245200D02*
D03*
Y270600D02*
D03*
D90*
X127000Y638800D02*
D03*
X128000Y410800D02*
D03*
X128000Y179400D02*
D03*
X127000Y524800D02*
D03*
X128000Y296000D02*
D03*
D91*
X-823000Y736000D02*
D03*
D92*
X-673000D02*
D03*
X-226000Y708000D02*
D03*
D93*
Y858000D02*
D03*
M02*
