G04 Layer_Color=65535*
%FSLAX44Y44*%
%MOMM*%
G71*
G01*
G75*
%ADD34C,0.2540*%
%ADD49C,0.7620*%
%ADD50C,0.2000*%
%ADD51C,0.1000*%
%ADD52C,0.2500*%
%ADD53C,0.1270*%
%ADD54C,0.1778*%
%ADD55C,0.1016*%
%ADD56C,0.1780*%
%ADD57R,0.5080X4.1656*%
%ADD58R,4.1656X0.5080*%
G36*
X241940Y399340D02*
X248290D01*
Y394260D01*
X241940D01*
Y390450D01*
X235590Y396800D01*
X241940Y403150D01*
Y399340D01*
D02*
G37*
G36*
X-935590Y827000D02*
X-941940Y820650D01*
Y824460D01*
X-948290D01*
Y829540D01*
X-941940D01*
Y833350D01*
X-935590Y827000D01*
D02*
G37*
D34*
X-475401Y844400D02*
G03*
X-456701Y844499I9350J49D01*
G01*
X-487641Y824276D02*
G03*
X-487641Y839287I-1702J7506D01*
G01*
Y824301D02*
G03*
X-487641Y809290I1702J-7506D01*
G01*
Y779572D02*
G03*
X-487641Y794583I-1702J7506D01*
G01*
Y779597D02*
G03*
X-487641Y764586I1702J-7506D01*
G01*
X-670000Y536000D02*
G03*
X-670000Y536000I-25000J0D01*
G01*
X-10923Y370000D02*
Y420800D01*
Y370000D02*
X26923D01*
Y420800D01*
X-10923D02*
X26923D01*
X-433498Y759399D02*
Y844400D01*
X-498502Y759399D02*
X-433501D01*
X-498499D02*
Y844400D01*
X-456600D02*
X-433498D01*
X-498499D02*
X-475398D01*
X-10923Y505000D02*
Y555800D01*
Y505000D02*
X26923D01*
Y555800D01*
X-10923D02*
X26923D01*
X-139000Y671084D02*
Y697500D01*
X-151700Y824500D02*
X-139508D01*
X-151700Y697500D02*
Y824500D01*
Y697500D02*
X-126300D01*
Y824500D01*
X-139000D02*
X-126300D01*
X-139254Y824754D02*
X-139000Y824500D01*
X-139508D02*
Y850154D01*
X-633000Y645000D02*
X-603000D01*
Y605000D02*
Y645000D01*
X-633000Y605000D02*
X-603000D01*
X-643000Y615000D02*
X-633000Y605000D01*
X-643000Y615000D02*
Y635000D01*
X-633000Y645000D01*
X-677500Y561000D02*
X-672500D01*
X-719000Y537000D02*
X-671000D01*
X-715000Y569000D02*
X-674000D01*
X-665000Y560000D01*
Y506000D02*
Y560000D01*
X-723000Y561000D02*
X-715000Y569000D01*
X-725000Y506000D02*
Y559000D01*
X-674000Y569000D02*
X-666000Y561000D01*
X-676000Y569000D02*
X-674000D01*
X-725000Y559000D02*
X-715000Y569000D01*
X-713000D01*
X-725000Y506000D02*
X-665000D01*
X-675000Y558500D02*
Y563500D01*
X-11958Y295150D02*
X25888D01*
Y244350D02*
Y295150D01*
X-11958Y244350D02*
X25888D01*
X-11958D02*
Y295150D01*
X-10923Y687800D02*
X26923D01*
Y637000D02*
Y687800D01*
X-10923Y637000D02*
X26923D01*
X-10923D02*
Y687800D01*
X-15888Y107750D02*
X21958D01*
Y56950D02*
Y107750D01*
X-15888Y56950D02*
X21958D01*
X-15888D02*
Y107750D01*
D49*
X-4065Y414196D02*
G03*
X-4042Y414203I-318J1030D01*
G01*
X-4065Y549196D02*
G03*
X-4042Y549203I-318J1030D01*
G01*
X-5100Y288546D02*
G03*
X-5077Y288553I-318J1030D01*
G01*
X-4065Y681196D02*
G03*
X-4042Y681203I-318J1030D01*
G01*
X-9030Y101146D02*
G03*
X-9007Y101153I-318J1030D01*
G01*
D50*
X-547000Y836000D02*
G03*
X-552529Y851360I-26980J-1038D01*
G01*
X-575038Y862980D02*
G03*
X-601000Y836000I1038J-26980D01*
G01*
Y770000D02*
G03*
X-594986Y753012I27000J0D01*
G01*
X-574999Y743018D02*
G03*
X-547000Y770000I999J26981D01*
G01*
X20500Y695900D02*
Y697900D01*
X1500Y695900D02*
Y697900D01*
X20500Y708900D02*
Y710900D01*
X1500Y708900D02*
Y710900D01*
Y695900D02*
X20500D01*
X1500Y710900D02*
X20500D01*
X16500Y708900D02*
X20500D01*
X16500D02*
Y710900D01*
Y695900D02*
Y697900D01*
X20500D01*
X-1017000Y-35500D02*
Y484000D01*
Y-35500D02*
X-91000D01*
X-1017000Y484000D02*
X-91000D01*
Y-35500D02*
Y484000D01*
X-601000Y770000D02*
Y836000D01*
X-547000Y770000D02*
Y836000D01*
X93500Y157900D02*
X95500D01*
X93500Y138900D02*
X95500D01*
X80500Y157900D02*
X82500D01*
X80500Y138900D02*
X82500D01*
X95500D02*
Y157900D01*
X80500Y138900D02*
Y157900D01*
X82500Y153900D02*
Y157900D01*
X80500Y153900D02*
X82500D01*
X93500D02*
X95500D01*
X93500D02*
Y157900D01*
Y275900D02*
X95500D01*
X93500Y256900D02*
X95500D01*
X80500Y275900D02*
X82500D01*
X80500Y256900D02*
X82500D01*
X95500D02*
Y275900D01*
X80500Y256900D02*
Y275900D01*
X82500Y271900D02*
Y275900D01*
X80500Y271900D02*
X82500D01*
X93500D02*
X95500D01*
X93500D02*
Y275900D01*
Y391500D02*
X95500D01*
X93500Y372500D02*
X95500D01*
X80500Y391500D02*
X82500D01*
X80500Y372500D02*
X82500D01*
X95500D02*
Y391500D01*
X80500Y372500D02*
Y391500D01*
X82500Y387500D02*
Y391500D01*
X80500Y387500D02*
X82500D01*
X93500D02*
X95500D01*
X93500D02*
Y391500D01*
Y435650D02*
X95500D01*
X93500Y416650D02*
X95500D01*
X80500Y435650D02*
X82500D01*
X80500Y416650D02*
X82500D01*
X95500D02*
Y435650D01*
X80500Y416650D02*
Y435650D01*
X82500Y431650D02*
Y435650D01*
X80500Y431650D02*
X82500D01*
X93500D02*
X95500D01*
X93500D02*
Y435650D01*
X18500Y427900D02*
Y429900D01*
X-500Y427900D02*
Y429900D01*
X18500Y440900D02*
Y442900D01*
X-500Y440900D02*
Y442900D01*
Y427900D02*
X18500D01*
X-500Y442900D02*
X18500D01*
X14500Y440900D02*
X18500D01*
X14500D02*
Y442900D01*
Y427900D02*
Y429900D01*
X18500D01*
X92500Y504900D02*
X94500D01*
X92500Y485900D02*
X94500D01*
X79500Y504900D02*
X81500D01*
X79500Y485900D02*
X81500D01*
X94500D02*
Y504900D01*
X79500Y485900D02*
Y504900D01*
X81500Y500900D02*
Y504900D01*
X79500Y500900D02*
X81500D01*
X92500D02*
X94500D01*
X92500D02*
Y504900D01*
Y547900D02*
X94500D01*
X92500Y528900D02*
X94500D01*
X79500Y547900D02*
X81500D01*
X79500Y528900D02*
X81500D01*
X94500D02*
Y547900D01*
X79500Y528900D02*
Y547900D01*
X81500Y543900D02*
Y547900D01*
X79500Y543900D02*
X81500D01*
X92500D02*
X94500D01*
X92500D02*
Y547900D01*
X16500Y562900D02*
Y564900D01*
X-2500Y562900D02*
Y564900D01*
X16500Y575900D02*
Y577900D01*
X-2500Y575900D02*
Y577900D01*
Y562900D02*
X16500D01*
X-2500Y577900D02*
X16500D01*
X12500Y575900D02*
X16500D01*
X12500D02*
Y577900D01*
Y562900D02*
Y564900D01*
X16500D01*
X92500Y619150D02*
X94500D01*
X92500Y600150D02*
X94500D01*
X79500Y619150D02*
X81500D01*
X79500Y600150D02*
X81500D01*
X94500D02*
Y619150D01*
X79500Y600150D02*
Y619150D01*
X81500Y615150D02*
Y619150D01*
X79500Y615150D02*
X81500D01*
X92500D02*
X94500D01*
X92500D02*
Y619150D01*
Y666650D02*
X94500D01*
X92500Y647650D02*
X94500D01*
X79500Y666650D02*
X81500D01*
X79500Y647650D02*
X81500D01*
X94500D02*
Y666650D01*
X79500Y647650D02*
Y666650D01*
X81500Y662650D02*
Y666650D01*
X79500Y662650D02*
X81500D01*
X92500D02*
X94500D01*
X92500D02*
Y666650D01*
X-610250Y112500D02*
X-606250D01*
X-610250Y110500D02*
Y112500D01*
Y123500D02*
Y125500D01*
Y123500D02*
X-606250D01*
X-625250Y125500D02*
X-606250D01*
X-625250Y110500D02*
X-606250D01*
X-625250Y123500D02*
Y125500D01*
X-606250Y123500D02*
Y125500D01*
X-625250Y110500D02*
Y112500D01*
X-606250Y110500D02*
Y112500D01*
X-895500Y593000D02*
X-828500D01*
X-895500Y621000D02*
X-828500D01*
X-895500Y593000D02*
Y621000D01*
X-828500Y593000D02*
Y621000D01*
X-551290Y587950D02*
X-544675D01*
X-551290D02*
Y638750D01*
X-532240D01*
Y587950D02*
Y638750D01*
X-538325Y587950D02*
X-532240D01*
X37500Y137900D02*
Y141900D01*
X35500D02*
X37500D01*
X48500D02*
X50500D01*
X48500Y137900D02*
Y141900D01*
X50500Y137900D02*
Y156900D01*
X35500Y137900D02*
Y156900D01*
X48500D02*
X50500D01*
X48500Y137900D02*
X50500D01*
X35500Y156900D02*
X37500D01*
X35500Y137900D02*
X37500D01*
X93500Y315900D02*
Y319900D01*
Y315900D02*
X95500D01*
X80500D02*
X82500D01*
Y319900D01*
X80500Y300900D02*
Y319900D01*
X95500Y300900D02*
Y319900D01*
X80500Y300900D02*
X82500D01*
X80500Y319900D02*
X82500D01*
X93500Y300900D02*
X95500D01*
X93500Y319900D02*
X95500D01*
X13500Y301900D02*
X17500D01*
X13500Y299900D02*
Y301900D01*
Y312900D02*
Y314900D01*
Y312900D02*
X17500D01*
X-1500Y314900D02*
X17500D01*
X-1500Y299900D02*
X17500D01*
X-1500Y312900D02*
Y314900D01*
X17500Y312900D02*
Y314900D01*
X-1500Y299900D02*
Y301900D01*
X17500Y299900D02*
Y301900D01*
X-551500Y121500D02*
X-547500D01*
Y123500D01*
Y108500D02*
Y110500D01*
X-551500D02*
X-547500D01*
X-551500Y108500D02*
X-532500D01*
X-551500Y123500D02*
X-532500D01*
Y108500D02*
Y110500D01*
X-551500Y108500D02*
Y110500D01*
X-532500Y121500D02*
Y123500D01*
X-551500Y121500D02*
Y123500D01*
X-232500Y619000D02*
X-225500D01*
X-232500Y650000D02*
X-225500D01*
Y619000D02*
Y650000D01*
X-232500Y619000D02*
Y650000D01*
D51*
X-605500Y625000D02*
G03*
X-605500Y625000I-17500J0D01*
G01*
X-633000Y610000D02*
Y615000D01*
Y612500D02*
X-630500D01*
X-635500D02*
X-633000D01*
X-471000Y859998D02*
Y855000D01*
X-470000Y854000D01*
X-468001D01*
X-467001Y855000D01*
Y859998D01*
X-465002Y854000D02*
Y859998D01*
X-462003D01*
X-461003Y858998D01*
Y856999D01*
X-462003Y855999D01*
X-465002D01*
X-463003D02*
X-461003Y854000D01*
X-459004D02*
X-457005D01*
X-458004D01*
Y859998D01*
X-459004Y858998D01*
X-900000Y643998D02*
Y639000D01*
X-899000Y638000D01*
X-897001D01*
X-896001Y639000D01*
Y643998D01*
X-890003D02*
X-892003Y642998D01*
X-894002Y640999D01*
Y639000D01*
X-893002Y638000D01*
X-891003D01*
X-890003Y639000D01*
Y639999D01*
X-891003Y640999D01*
X-894002D01*
X-547000Y650698D02*
Y645700D01*
X-546000Y644700D01*
X-544001D01*
X-543001Y645700D01*
Y650698D01*
X-537003D02*
X-541002D01*
Y647699D01*
X-539003Y648699D01*
X-538003D01*
X-537003Y647699D01*
Y645700D01*
X-538003Y644700D01*
X-540002D01*
X-541002Y645700D01*
X-579000Y722000D02*
X-584998D01*
Y724999D01*
X-583998Y725999D01*
X-581999D01*
X-580999Y724999D01*
Y722000D01*
Y723999D02*
X-579000Y725999D01*
X-584998Y727998D02*
X-580999D01*
X-579000Y729997D01*
X-580999Y731997D01*
X-584998D01*
X-579000Y733996D02*
Y735995D01*
Y734996D01*
X-584998D01*
X-583998Y733996D01*
X-665000Y585998D02*
Y580000D01*
X-661001D01*
X-659002D02*
X-657003D01*
X-658002D01*
Y585998D01*
X-659002Y584998D01*
X-775998Y825999D02*
Y822000D01*
X-772999D01*
Y823999D01*
Y822000D01*
X-770000D01*
Y831997D02*
Y827998D01*
X-773999Y831997D01*
X-774998D01*
X-775998Y830997D01*
Y828998D01*
X-774998Y827998D01*
X-417001Y744998D02*
X-421000D01*
Y741999D01*
X-419001D01*
X-421000D01*
Y739000D01*
X-415002D02*
X-413003D01*
X-414002D01*
Y744998D01*
X-415002Y743998D01*
X-625100Y553998D02*
Y548000D01*
X-622101D01*
X-621101Y549000D01*
Y552998D01*
X-622101Y553998D01*
X-625100D01*
X-619102Y548000D02*
X-617103D01*
X-618102D01*
Y553998D01*
X-619102Y552998D01*
X-614104Y549000D02*
X-613104Y548000D01*
X-611105D01*
X-610105Y549000D01*
Y552998D01*
X-611105Y553998D01*
X-613104D01*
X-614104Y552998D01*
Y551999D01*
X-613104Y550999D01*
X-610105D01*
X-715447Y669015D02*
Y663017D01*
X-712448D01*
X-711448Y664017D01*
Y668015D01*
X-712448Y669015D01*
X-715447D01*
X-709449Y663017D02*
X-707450D01*
X-708449D01*
Y669015D01*
X-709449Y668015D01*
X-704451D02*
X-703451Y669015D01*
X-701452D01*
X-700452Y668015D01*
Y667016D01*
X-701452Y666016D01*
X-700452Y665016D01*
Y664017D01*
X-701452Y663017D01*
X-703451D01*
X-704451Y664017D01*
Y665016D01*
X-703451Y666016D01*
X-704451Y667016D01*
Y668015D01*
X-703451Y666016D02*
X-701452D01*
X-499100Y750998D02*
Y745000D01*
X-496101D01*
X-495101Y746000D01*
Y749998D01*
X-496101Y750998D01*
X-499100D01*
X-493102Y745000D02*
X-491103D01*
X-492102D01*
Y750998D01*
X-493102Y749998D01*
X-488104Y750998D02*
X-484105D01*
Y749998D01*
X-488104Y746000D01*
Y745000D01*
X-997001Y766598D02*
X-998001Y767598D01*
X-1000000D01*
X-1001000Y766598D01*
Y762600D01*
X-1000000Y761600D01*
X-998001D01*
X-997001Y762600D01*
X-992003Y767598D02*
X-994002D01*
X-995002Y766598D01*
Y762600D01*
X-994002Y761600D01*
X-992003D01*
X-991003Y762600D01*
Y766598D01*
X-992003Y767598D01*
X-989004Y761600D02*
Y767598D01*
X-985005Y761600D01*
Y767598D01*
X-979007Y761600D02*
X-983006D01*
X-979007Y765599D01*
Y766598D01*
X-980007Y767598D01*
X-982006D01*
X-983006Y766598D01*
X-912998Y631999D02*
X-913998Y630999D01*
Y629000D01*
X-912998Y628000D01*
X-909000D01*
X-908000Y629000D01*
Y630999D01*
X-909000Y631999D01*
X-908000Y633998D02*
Y635997D01*
Y634998D01*
X-913998D01*
X-912998Y633998D01*
X-908000Y641995D02*
X-913998D01*
X-910999Y638996D01*
Y642995D01*
X-940998Y631159D02*
X-941998Y630159D01*
Y628160D01*
X-940998Y627160D01*
X-937000D01*
X-936000Y628160D01*
Y630159D01*
X-937000Y631159D01*
X-936000Y633158D02*
Y635158D01*
Y634158D01*
X-941998D01*
X-940998Y633158D01*
Y638157D02*
X-941998Y639156D01*
Y641155D01*
X-940998Y642155D01*
X-939999D01*
X-938999Y641155D01*
Y640156D01*
Y641155D01*
X-937999Y642155D01*
X-937000D01*
X-936000Y641155D01*
Y639156D01*
X-937000Y638157D01*
X-821681Y547998D02*
X-822681Y548998D01*
X-824680D01*
X-825680Y547998D01*
Y544000D01*
X-824680Y543000D01*
X-822681D01*
X-821681Y544000D01*
X-819682Y543000D02*
X-817683D01*
X-818682D01*
Y548998D01*
X-819682Y547998D01*
X-810685Y543000D02*
X-814684D01*
X-810685Y546999D01*
Y547998D01*
X-811685Y548998D01*
X-813684D01*
X-814684Y547998D01*
X-644577Y760322D02*
X-643577Y761322D01*
Y763321D01*
X-644577Y764321D01*
X-648575D01*
X-649575Y763321D01*
Y761322D01*
X-648575Y760322D01*
X-649575Y758323D02*
Y756324D01*
Y757323D01*
X-643577D01*
X-644577Y758323D01*
X-649575Y753325D02*
Y751325D01*
Y752325D01*
X-643577D01*
X-644577Y753325D01*
X-201678Y679577D02*
X-200678Y678577D01*
X-198679D01*
X-197679Y679577D01*
Y683575D01*
X-198679Y684575D01*
X-200678D01*
X-201678Y683575D01*
X-203677Y684575D02*
X-205676D01*
X-204677D01*
Y678577D01*
X-203677Y679577D01*
X-208675D02*
X-209675Y678577D01*
X-211674D01*
X-212674Y679577D01*
Y683575D01*
X-211674Y684575D01*
X-209675D01*
X-208675Y683575D01*
Y679577D01*
X-658998Y549999D02*
X-659998Y548999D01*
Y547000D01*
X-658998Y546000D01*
X-655000D01*
X-654000Y547000D01*
Y548999D01*
X-655000Y549999D01*
Y551998D02*
X-654000Y552998D01*
Y554997D01*
X-655000Y555997D01*
X-658998D01*
X-659998Y554997D01*
Y552998D01*
X-658998Y551998D01*
X-657999D01*
X-656999Y552998D01*
Y555997D01*
X-654001Y644998D02*
X-655001Y645998D01*
X-657000D01*
X-658000Y644998D01*
Y641000D01*
X-657000Y640000D01*
X-655001D01*
X-654001Y641000D01*
X-648003Y645998D02*
X-650003Y644998D01*
X-652002Y642999D01*
Y641000D01*
X-651002Y640000D01*
X-649003D01*
X-648003Y641000D01*
Y641999D01*
X-649003Y642999D01*
X-652002D01*
X-25000Y704398D02*
Y699400D01*
X-24000Y698400D01*
X-22001D01*
X-21001Y699400D01*
Y704398D01*
X-19002Y698400D02*
X-17003D01*
X-18002D01*
Y704398D01*
X-19002Y703398D01*
X21000Y170830D02*
X15002D01*
Y173829D01*
X16002Y174829D01*
X18001D01*
X19001Y173829D01*
Y170830D01*
Y172829D02*
X21000Y174829D01*
Y176828D02*
Y178827D01*
Y177828D01*
X15002D01*
X16002Y176828D01*
Y181826D02*
X15002Y182826D01*
Y184825D01*
X16002Y185825D01*
X20000D01*
X21000Y184825D01*
Y182826D01*
X20000Y181826D01*
X16002D01*
X67000Y170400D02*
X61002D01*
Y173399D01*
X62002Y174399D01*
X64001D01*
X65001Y173399D01*
Y170400D01*
Y172399D02*
X67000Y174399D01*
X66000Y176398D02*
X67000Y177398D01*
Y179397D01*
X66000Y180397D01*
X62002D01*
X61002Y179397D01*
Y177398D01*
X62002Y176398D01*
X63001D01*
X64001Y177398D01*
Y180397D01*
X69000Y333260D02*
X63002D01*
Y336259D01*
X64002Y337259D01*
X66001D01*
X67001Y336259D01*
Y333260D01*
Y335259D02*
X69000Y337259D01*
X64002Y339258D02*
X63002Y340258D01*
Y342257D01*
X64002Y343257D01*
X65001D01*
X66001Y342257D01*
X67001Y343257D01*
X68000D01*
X69000Y342257D01*
Y340258D01*
X68000Y339258D01*
X67001D01*
X66001Y340258D01*
X65001Y339258D01*
X64002D01*
X66001Y340258D02*
Y342257D01*
X70000Y228400D02*
X64002D01*
Y231399D01*
X65002Y232399D01*
X67001D01*
X68001Y231399D01*
Y228400D01*
Y230399D02*
X70000Y232399D01*
X64002Y234398D02*
Y238397D01*
X65002D01*
X69000Y234398D01*
X70000D01*
X68000Y446400D02*
X62002D01*
Y449399D01*
X63002Y450399D01*
X65001D01*
X66001Y449399D01*
Y446400D01*
Y448399D02*
X68000Y450399D01*
X62002Y456397D02*
X63002Y454397D01*
X65001Y452398D01*
X67000D01*
X68000Y453398D01*
Y455397D01*
X67000Y456397D01*
X66001D01*
X65001Y455397D01*
Y452398D01*
X69000Y349000D02*
X63002D01*
Y351999D01*
X64002Y352999D01*
X66001D01*
X67001Y351999D01*
Y349000D01*
Y350999D02*
X69000Y352999D01*
X63002Y358997D02*
Y354998D01*
X66001D01*
X65001Y356997D01*
Y357997D01*
X66001Y358997D01*
X68000D01*
X69000Y357997D01*
Y355998D01*
X68000Y354998D01*
X69000Y561400D02*
X63002D01*
Y564399D01*
X64002Y565399D01*
X66001D01*
X67001Y564399D01*
Y561400D01*
Y563399D02*
X69000Y565399D01*
Y570397D02*
X63002D01*
X66001Y567398D01*
Y571397D01*
X69000Y679400D02*
X63002D01*
Y682399D01*
X64002Y683399D01*
X66001D01*
X67001Y682399D01*
Y679400D01*
Y681399D02*
X69000Y683399D01*
Y689397D02*
Y685398D01*
X65001Y689397D01*
X64002D01*
X63002Y688397D01*
Y686398D01*
X64002Y685398D01*
X84002Y171400D02*
X90000D01*
Y174399D01*
X89000Y175399D01*
X85002D01*
X84002Y174399D01*
Y171400D01*
X90000Y177398D02*
Y179397D01*
Y178398D01*
X84002D01*
X85002Y177398D01*
X90000Y185396D02*
X84002D01*
X87001Y182396D01*
Y186395D01*
X40002Y169400D02*
X46000D01*
Y172399D01*
X45000Y173399D01*
X41002D01*
X40002Y172399D01*
Y169400D01*
X46000Y175398D02*
Y177397D01*
Y176398D01*
X40002D01*
X41002Y175398D01*
Y180396D02*
X40002Y181396D01*
Y183395D01*
X41002Y184395D01*
X42001D01*
X43001Y183395D01*
Y182396D01*
Y183395D01*
X44001Y184395D01*
X45000D01*
X46000Y183395D01*
Y181396D01*
X45000Y180396D01*
X85002Y227400D02*
X91000D01*
Y230399D01*
X90000Y231399D01*
X86002D01*
X85002Y230399D01*
Y227400D01*
X91000Y233398D02*
Y235397D01*
Y234398D01*
X85002D01*
X86002Y233398D01*
X91000Y242395D02*
Y238396D01*
X87001Y242395D01*
X86002D01*
X85002Y241395D01*
Y239396D01*
X86002Y238396D01*
X85002Y331400D02*
X91000D01*
Y334399D01*
X90000Y335399D01*
X86002D01*
X85002Y334399D01*
Y331400D01*
X91000Y337398D02*
Y339397D01*
Y338398D01*
X85002D01*
X86002Y337398D01*
X91000Y342396D02*
Y344396D01*
Y343396D01*
X85002D01*
X86002Y342396D01*
X-29000Y313398D02*
Y307400D01*
X-26001D01*
X-25001Y308400D01*
Y312398D01*
X-26001Y313398D01*
X-29000D01*
X-23002Y307400D02*
X-21003D01*
X-22002D01*
Y313398D01*
X-23002Y312398D01*
X-18004D02*
X-17004Y313398D01*
X-15005D01*
X-14005Y312398D01*
Y308400D01*
X-15005Y307400D01*
X-17004D01*
X-18004Y308400D01*
Y312398D01*
X85002Y347250D02*
X91000D01*
Y350249D01*
X90000Y351249D01*
X86002D01*
X85002Y350249D01*
Y347250D01*
X90000Y353248D02*
X91000Y354248D01*
Y356247D01*
X90000Y357247D01*
X86002D01*
X85002Y356247D01*
Y354248D01*
X86002Y353248D01*
X87001D01*
X88001Y354248D01*
Y357247D01*
X84002Y448150D02*
X90000D01*
Y451149D01*
X89000Y452149D01*
X85002D01*
X84002Y451149D01*
Y448150D01*
X85002Y454148D02*
X84002Y455148D01*
Y457147D01*
X85002Y458147D01*
X86001D01*
X87001Y457147D01*
X88001Y458147D01*
X89000D01*
X90000Y457147D01*
Y455148D01*
X89000Y454148D01*
X88001D01*
X87001Y455148D01*
X86001Y454148D01*
X85002D01*
X87001Y455148D02*
Y457147D01*
X-24000Y441398D02*
Y435400D01*
X-21001D01*
X-20001Y436400D01*
Y440398D01*
X-21001Y441398D01*
X-24000D01*
X-18002D02*
X-14003D01*
Y440398D01*
X-18002Y436400D01*
Y435400D01*
X84002Y462400D02*
X90000D01*
Y465399D01*
X89000Y466399D01*
X85002D01*
X84002Y465399D01*
Y462400D01*
Y472397D02*
X85002Y470397D01*
X87001Y468398D01*
X89000D01*
X90000Y469398D01*
Y471397D01*
X89000Y472397D01*
X88001D01*
X87001Y471397D01*
Y468398D01*
X84002Y560400D02*
X90000D01*
Y563399D01*
X89000Y564399D01*
X85002D01*
X84002Y563399D01*
Y560400D01*
Y570397D02*
Y566398D01*
X87001D01*
X86001Y568397D01*
Y569397D01*
X87001Y570397D01*
X89000D01*
X90000Y569397D01*
Y567398D01*
X89000Y566398D01*
X-28000Y575998D02*
Y570000D01*
X-25001D01*
X-24001Y571000D01*
Y574998D01*
X-25001Y575998D01*
X-28000D01*
X-19003Y570000D02*
Y575998D01*
X-22002Y572999D01*
X-18003D01*
X85002Y575650D02*
X91000D01*
Y578649D01*
X90000Y579649D01*
X86002D01*
X85002Y578649D01*
Y575650D01*
X86002Y581648D02*
X85002Y582648D01*
Y584647D01*
X86002Y585647D01*
X87001D01*
X88001Y584647D01*
Y583647D01*
Y584647D01*
X89001Y585647D01*
X90000D01*
X91000Y584647D01*
Y582648D01*
X90000Y581648D01*
X83002Y680400D02*
X89000D01*
Y683399D01*
X88000Y684399D01*
X84002D01*
X83002Y683399D01*
Y680400D01*
X89000Y690397D02*
Y686398D01*
X85001Y690397D01*
X84002D01*
X83002Y689397D01*
Y687398D01*
X84002Y686398D01*
X8000Y722398D02*
Y716400D01*
X10999D01*
X11999Y717400D01*
Y721398D01*
X10999Y722398D01*
X8000D01*
X13998Y716400D02*
X15997D01*
X14998D01*
Y722398D01*
X13998Y721398D01*
X-28035Y425748D02*
Y420750D01*
X-27035Y419750D01*
X-25036D01*
X-24036Y420750D01*
Y425748D01*
X-22037Y424748D02*
X-21037Y425748D01*
X-19038D01*
X-18038Y424748D01*
Y423749D01*
X-19038Y422749D01*
X-20038D01*
X-19038D01*
X-18038Y421749D01*
Y420750D01*
X-19038Y419750D01*
X-21037D01*
X-22037Y420750D01*
X-29000Y302398D02*
Y297400D01*
X-28000Y296400D01*
X-26001D01*
X-25001Y297400D01*
Y302398D01*
X-20003Y296400D02*
Y302398D01*
X-23002Y299399D01*
X-19003D01*
X-45998Y725399D02*
X-46998Y724399D01*
Y722400D01*
X-45998Y721400D01*
X-42000D01*
X-41000Y722400D01*
Y724399D01*
X-42000Y725399D01*
X-45998Y727398D02*
X-46998Y728398D01*
Y730397D01*
X-45998Y731397D01*
X-44999D01*
X-43999Y730397D01*
Y729397D01*
Y730397D01*
X-42999Y731397D01*
X-42000D01*
X-41000Y730397D01*
Y728398D01*
X-42000Y727398D01*
X33999Y623398D02*
X32999Y624398D01*
X31000D01*
X30000Y623398D01*
Y619400D01*
X31000Y618400D01*
X32999D01*
X33999Y619400D01*
X38997Y618400D02*
Y624398D01*
X35998Y621399D01*
X39997D01*
X34999Y599398D02*
X33999Y600398D01*
X32000D01*
X31000Y599398D01*
Y595400D01*
X32000Y594400D01*
X33999D01*
X34999Y595400D01*
X40997Y600398D02*
X36998D01*
Y597399D01*
X38997Y598399D01*
X39997D01*
X40997Y597399D01*
Y595400D01*
X39997Y594400D01*
X37998D01*
X36998Y595400D01*
X-27000Y561998D02*
Y557000D01*
X-26000Y556000D01*
X-24001D01*
X-23001Y557000D01*
Y561998D01*
X-17003Y556000D02*
X-21002D01*
X-17003Y559999D01*
Y560998D01*
X-18003Y561998D01*
X-20002D01*
X-21002Y560998D01*
X68000Y576400D02*
X62002D01*
Y579399D01*
X63002Y580399D01*
X65001D01*
X66001Y579399D01*
Y576400D01*
Y578399D02*
X68000Y580399D01*
Y582398D02*
Y584397D01*
Y583398D01*
X62002D01*
X63002Y582398D01*
X-142000Y771000D02*
X-136002D01*
Y768001D01*
X-137002Y767001D01*
X-139001D01*
X-140001Y768001D01*
Y771000D01*
Y769001D02*
X-142000Y767001D01*
X-138001Y761003D02*
Y764002D01*
X-139001Y765002D01*
X-141000D01*
X-142000Y764002D01*
Y761003D01*
Y759004D02*
Y756005D01*
X-141000Y755005D01*
X-140001Y756005D01*
Y758004D01*
X-139001Y759004D01*
X-138001Y758004D01*
Y755005D01*
X-142000Y753006D02*
Y751006D01*
Y752006D01*
X-136002D01*
X-137002Y753006D01*
X-426452Y624001D02*
X-425452Y625001D01*
Y627000D01*
X-426452Y628000D01*
X-430450D01*
X-431450Y627000D01*
Y625001D01*
X-430450Y624001D01*
X-426452Y622002D02*
X-425452Y621002D01*
Y619003D01*
X-426452Y618003D01*
X-427451D01*
X-428451Y619003D01*
X-429451Y618003D01*
X-430450D01*
X-431450Y619003D01*
Y621002D01*
X-430450Y622002D01*
X-429451D01*
X-428451Y621002D01*
X-427451Y622002D01*
X-426452D01*
X-428451Y621002D02*
Y619003D01*
X-515161Y570998D02*
X-516161Y571998D01*
X-518160D01*
X-519160Y570998D01*
Y567000D01*
X-518160Y566000D01*
X-516161D01*
X-515161Y567000D01*
X-513162Y571998D02*
X-509163D01*
Y570998D01*
X-513162Y567000D01*
Y566000D01*
X-629160Y679000D02*
Y684998D01*
X-626161D01*
X-625161Y683998D01*
Y681999D01*
X-626161Y680999D01*
X-629160D01*
X-627161D02*
X-625161Y679000D01*
X-623162D02*
X-621162D01*
X-622162D01*
Y684998D01*
X-623162Y683998D01*
X-618163Y684998D02*
X-614165D01*
Y683998D01*
X-618163Y680000D01*
Y679000D01*
X-589000Y119998D02*
Y114000D01*
X-586001D01*
X-585001Y115000D01*
Y118998D01*
X-586001Y119998D01*
X-589000D01*
X-583002Y114000D02*
X-581003D01*
X-582002D01*
Y119998D01*
X-583002Y118998D01*
X-574005Y119998D02*
X-578004D01*
Y116999D01*
X-576004Y117999D01*
X-575005D01*
X-574005Y116999D01*
Y115000D01*
X-575005Y114000D01*
X-577004D01*
X-578004Y115000D01*
X-287000Y508000D02*
X-292998D01*
Y510999D01*
X-291998Y511999D01*
X-289999D01*
X-288999Y510999D01*
Y508000D01*
Y509999D02*
X-287000Y511999D01*
Y513998D02*
Y515997D01*
Y514998D01*
X-292998D01*
X-291998Y513998D01*
X-287000Y518996D02*
Y520996D01*
Y519996D01*
X-292998D01*
X-291998Y518996D01*
X-591000Y141000D02*
Y146998D01*
X-588001D01*
X-587001Y145998D01*
Y143999D01*
X-588001Y142999D01*
X-591000D01*
X-589001D02*
X-587001Y141000D01*
X-585002D02*
X-583003D01*
X-584002D01*
Y146998D01*
X-585002Y145998D01*
X-576005Y141000D02*
X-580004D01*
X-576005Y144999D01*
Y145998D01*
X-577005Y146998D01*
X-579004D01*
X-580004Y145998D01*
X-515001Y90998D02*
X-516001Y91998D01*
X-518000D01*
X-519000Y90998D01*
Y87000D01*
X-518000Y86000D01*
X-516001D01*
X-515001Y87000D01*
X-513002Y86000D02*
X-511003D01*
X-512002D01*
Y91998D01*
X-513002Y90998D01*
X-504005Y91998D02*
X-506004Y90998D01*
X-508004Y88999D01*
Y87000D01*
X-507004Y86000D01*
X-505005D01*
X-504005Y87000D01*
Y87999D01*
X-505005Y88999D01*
X-508004D01*
X-323000Y507000D02*
X-328998D01*
Y509999D01*
X-327998Y510999D01*
X-325999D01*
X-324999Y509999D01*
Y507000D01*
Y508999D02*
X-323000Y510999D01*
Y516997D02*
Y512998D01*
X-326999Y516997D01*
X-327998D01*
X-328998Y515997D01*
Y513998D01*
X-327998Y512998D01*
X-328998Y522995D02*
Y518996D01*
X-325999D01*
X-326999Y520995D01*
Y521995D01*
X-325999Y522995D01*
X-324000D01*
X-323000Y521995D01*
Y519996D01*
X-324000Y518996D01*
X-511000Y142000D02*
Y147998D01*
X-508001D01*
X-507001Y146998D01*
Y144999D01*
X-508001Y143999D01*
X-511000D01*
X-509001D02*
X-507001Y142000D01*
X-501003D02*
X-505002D01*
X-501003Y145999D01*
Y146998D01*
X-502003Y147998D01*
X-504002D01*
X-505002Y146998D01*
X-496005Y142000D02*
Y147998D01*
X-499004Y144999D01*
X-495005D01*
X-301000Y598500D02*
X-306998D01*
Y601499D01*
X-305998Y602499D01*
X-303999D01*
X-302999Y601499D01*
Y598500D01*
Y600499D02*
X-301000Y602499D01*
Y608497D02*
Y604498D01*
X-304999Y608497D01*
X-305998D01*
X-306998Y607497D01*
Y605498D01*
X-305998Y604498D01*
Y610496D02*
X-306998Y611496D01*
Y613495D01*
X-305998Y614495D01*
X-304999D01*
X-303999Y613495D01*
Y612495D01*
Y613495D01*
X-302999Y614495D01*
X-302000D01*
X-301000Y613495D01*
Y611496D01*
X-302000Y610496D01*
X-308000Y667000D02*
X-302002D01*
Y664001D01*
X-303002Y663001D01*
X-305001D01*
X-306001Y664001D01*
Y667000D01*
Y665001D02*
X-308000Y663001D01*
Y657003D02*
Y661002D01*
X-304001Y657003D01*
X-303002D01*
X-302002Y658003D01*
Y660002D01*
X-303002Y661002D01*
X-308000Y651005D02*
Y655004D01*
X-304001Y651005D01*
X-303002D01*
X-302002Y652005D01*
Y654004D01*
X-303002Y655004D01*
X-739000Y558160D02*
X-744998D01*
Y561159D01*
X-743998Y562159D01*
X-741999D01*
X-740999Y561159D01*
Y558160D01*
Y560159D02*
X-739000Y562159D01*
Y564158D02*
Y566157D01*
Y565158D01*
X-744998D01*
X-743998Y564158D01*
X-740000Y569156D02*
X-739000Y570156D01*
Y572155D01*
X-740000Y573155D01*
X-743998D01*
X-744998Y572155D01*
Y570156D01*
X-743998Y569156D01*
X-742999D01*
X-741999Y570156D01*
Y573155D01*
X-584000Y679000D02*
Y684998D01*
X-581001D01*
X-580001Y683998D01*
Y681999D01*
X-581001Y680999D01*
X-584000D01*
X-582001D02*
X-580001Y679000D01*
X-578002D02*
X-576003D01*
X-577002D01*
Y684998D01*
X-578002Y683998D01*
X-573004D02*
X-572004Y684998D01*
X-570005D01*
X-569005Y683998D01*
Y682999D01*
X-570005Y681999D01*
X-569005Y680999D01*
Y680000D01*
X-570005Y679000D01*
X-572004D01*
X-573004Y680000D01*
Y680999D01*
X-572004Y681999D01*
X-573004Y682999D01*
Y683998D01*
X-572004Y681999D02*
X-570005D01*
X-517000Y118998D02*
Y113000D01*
X-514001D01*
X-513001Y114000D01*
Y117998D01*
X-514001Y118998D01*
X-517000D01*
X-507003Y113000D02*
X-511002D01*
X-507003Y116999D01*
Y117998D01*
X-508003Y118998D01*
X-510002D01*
X-511002Y117998D01*
X-501005Y113000D02*
X-505004D01*
X-501005Y116999D01*
Y117998D01*
X-502005Y118998D01*
X-504004D01*
X-505004Y117998D01*
X-261002Y742000D02*
X-267000D01*
Y739001D01*
X-266000Y738001D01*
X-262002D01*
X-261002Y739001D01*
Y742000D01*
X-267000Y732003D02*
Y736002D01*
X-263001Y732003D01*
X-262002D01*
X-261002Y733003D01*
Y735002D01*
X-262002Y736002D01*
X-267000Y730004D02*
Y728005D01*
Y729004D01*
X-261002D01*
X-262002Y730004D01*
X-71998Y723559D02*
X-72998Y722559D01*
Y720560D01*
X-71998Y719560D01*
X-68000D01*
X-67000Y720560D01*
Y722559D01*
X-68000Y723559D01*
X-67000Y729557D02*
Y725558D01*
X-70999Y729557D01*
X-71998D01*
X-72998Y728557D01*
Y726558D01*
X-71998Y725558D01*
X194250Y664307D02*
X193250Y665307D01*
X191251D01*
X190251Y664307D01*
Y660309D01*
X191251Y659309D01*
X193250D01*
X194250Y660309D01*
X199248Y665307D02*
X197249D01*
X196249Y664307D01*
Y660309D01*
X197249Y659309D01*
X199248D01*
X200248Y660309D01*
Y664307D01*
X199248Y665307D01*
X202247Y659309D02*
Y665307D01*
X206246Y659309D01*
Y665307D01*
X208245Y659309D02*
X210245D01*
X209245D01*
Y665307D01*
X208245Y664307D01*
X-73838Y594159D02*
X-74838Y593159D01*
Y591160D01*
X-73838Y590160D01*
X-69840D01*
X-68840Y591160D01*
Y593159D01*
X-69840Y594159D01*
X-68840Y596158D02*
Y598158D01*
Y597158D01*
X-74838D01*
X-73838Y596158D01*
X-74838Y601157D02*
Y605155D01*
X-73838D01*
X-69840Y601157D01*
X-68840D01*
X34999Y490398D02*
X33999Y491398D01*
X32000D01*
X31000Y490398D01*
Y486400D01*
X32000Y485400D01*
X33999D01*
X34999Y486400D01*
X36998Y485400D02*
X38997D01*
X37998D01*
Y491398D01*
X36998Y490398D01*
X41996D02*
X42996Y491398D01*
X44995D01*
X45995Y490398D01*
Y489399D01*
X44995Y488399D01*
X45995Y487399D01*
Y486400D01*
X44995Y485400D01*
X42996D01*
X41996Y486400D01*
Y487399D01*
X42996Y488399D01*
X41996Y489399D01*
Y490398D01*
X42996Y488399D02*
X44995D01*
X35999Y466398D02*
X34999Y467398D01*
X33000D01*
X32000Y466398D01*
Y462400D01*
X33000Y461400D01*
X34999D01*
X35999Y462400D01*
X37998Y461400D02*
X39997D01*
X38998D01*
Y467398D01*
X37998Y466398D01*
X42996Y462400D02*
X43996Y461400D01*
X45995D01*
X46995Y462400D01*
Y466398D01*
X45995Y467398D01*
X43996D01*
X42996Y466398D01*
Y465399D01*
X43996Y464399D01*
X46995D01*
X-71998Y460999D02*
X-72998Y459999D01*
Y458000D01*
X-71998Y457000D01*
X-68000D01*
X-67000Y458000D01*
Y459999D01*
X-68000Y460999D01*
X-67000Y466997D02*
Y462998D01*
X-70999Y466997D01*
X-71998D01*
X-72998Y465997D01*
Y463998D01*
X-71998Y462998D01*
Y468996D02*
X-72998Y469996D01*
Y471995D01*
X-71998Y472995D01*
X-68000D01*
X-67000Y471995D01*
Y469996D01*
X-68000Y468996D01*
X-71998D01*
X-47998Y460159D02*
X-48998Y459159D01*
Y457160D01*
X-47998Y456160D01*
X-44000D01*
X-43000Y457160D01*
Y459159D01*
X-44000Y460159D01*
X-43000Y466157D02*
Y462158D01*
X-46999Y466157D01*
X-47998D01*
X-48998Y465157D01*
Y463158D01*
X-47998Y462158D01*
X-43000Y468156D02*
Y470155D01*
Y469156D01*
X-48998D01*
X-47998Y468156D01*
X32999Y356398D02*
X31999Y357398D01*
X30000D01*
X29000Y356398D01*
Y352400D01*
X30000Y351400D01*
X31999D01*
X32999Y352400D01*
X38997Y351400D02*
X34998D01*
X38997Y355399D01*
Y356398D01*
X37997Y357398D01*
X35998D01*
X34998Y356398D01*
X44995Y351400D02*
X40996D01*
X44995Y355399D01*
Y356398D01*
X43995Y357398D01*
X41996D01*
X40996Y356398D01*
X33839Y331398D02*
X32839Y332398D01*
X30840D01*
X29840Y331398D01*
Y327400D01*
X30840Y326400D01*
X32839D01*
X33839Y327400D01*
X39837Y326400D02*
X35838D01*
X39837Y330399D01*
Y331398D01*
X38837Y332398D01*
X36838D01*
X35838Y331398D01*
X41836D02*
X42836Y332398D01*
X44835D01*
X45835Y331398D01*
Y330399D01*
X44835Y329399D01*
X43835D01*
X44835D01*
X45835Y328399D01*
Y327400D01*
X44835Y326400D01*
X42836D01*
X41836Y327400D01*
X-73998Y326999D02*
X-74998Y325999D01*
Y324000D01*
X-73998Y323000D01*
X-70000D01*
X-69000Y324000D01*
Y325999D01*
X-70000Y326999D01*
X-69000Y332997D02*
Y328998D01*
X-72999Y332997D01*
X-73998D01*
X-74998Y331997D01*
Y329998D01*
X-73998Y328998D01*
X-69000Y337995D02*
X-74998D01*
X-71999Y334996D01*
Y338995D01*
X-48998Y325999D02*
X-49998Y324999D01*
Y323000D01*
X-48998Y322000D01*
X-45000D01*
X-44000Y323000D01*
Y324999D01*
X-45000Y325999D01*
X-44000Y331997D02*
Y327998D01*
X-47999Y331997D01*
X-48998D01*
X-49998Y330997D01*
Y328998D01*
X-48998Y327998D01*
X-49998Y337995D02*
Y333996D01*
X-46999D01*
X-47999Y335995D01*
Y336995D01*
X-46999Y337995D01*
X-45000D01*
X-44000Y336995D01*
Y334996D01*
X-45000Y333996D01*
X31839Y230398D02*
X30839Y231398D01*
X28840D01*
X27840Y230398D01*
Y226400D01*
X28840Y225400D01*
X30839D01*
X31839Y226400D01*
X37837Y225400D02*
X33838D01*
X37837Y229399D01*
Y230398D01*
X36837Y231398D01*
X34838D01*
X33838Y230398D01*
X43835Y231398D02*
X41835Y230398D01*
X39836Y228399D01*
Y226400D01*
X40836Y225400D01*
X42835D01*
X43835Y226400D01*
Y227399D01*
X42835Y228399D01*
X39836D01*
X32999Y205398D02*
X31999Y206398D01*
X30000D01*
X29000Y205398D01*
Y201400D01*
X30000Y200400D01*
X31999D01*
X32999Y201400D01*
X38997Y200400D02*
X34998D01*
X38997Y204399D01*
Y205398D01*
X37997Y206398D01*
X35998D01*
X34998Y205398D01*
X40996Y206398D02*
X44995D01*
Y205398D01*
X40996Y201400D01*
Y200400D01*
X73002Y81399D02*
X72002Y80399D01*
Y78400D01*
X73002Y77400D01*
X77000D01*
X78000Y78400D01*
Y80399D01*
X77000Y81399D01*
X78000Y87397D02*
Y83398D01*
X74001Y87397D01*
X73002D01*
X72002Y86397D01*
Y84398D01*
X73002Y83398D01*
Y89396D02*
X72002Y90396D01*
Y92395D01*
X73002Y93395D01*
X74001D01*
X75001Y92395D01*
X76001Y93395D01*
X77000D01*
X78000Y92395D01*
Y90396D01*
X77000Y89396D01*
X76001D01*
X75001Y90396D01*
X74001Y89396D01*
X73002D01*
X75001Y90396D02*
Y92395D01*
X-200001Y598998D02*
X-201001Y599998D01*
X-203000D01*
X-204000Y598998D01*
Y595000D01*
X-203000Y594000D01*
X-201001D01*
X-200001Y595000D01*
X-198002Y598998D02*
X-197002Y599998D01*
X-195003D01*
X-194003Y598998D01*
Y597999D01*
X-195003Y596999D01*
X-196003D01*
X-195003D01*
X-194003Y595999D01*
Y595000D01*
X-195003Y594000D01*
X-197002D01*
X-198002Y595000D01*
X-192004Y598998D02*
X-191004Y599998D01*
X-189005D01*
X-188005Y598998D01*
Y595000D01*
X-189005Y594000D01*
X-191004D01*
X-192004Y595000D01*
Y598998D01*
X70000Y461400D02*
X64002D01*
Y464399D01*
X65002Y465399D01*
X67001D01*
X68001Y464399D01*
Y461400D01*
Y463399D02*
X70000Y465399D01*
X65002Y467398D02*
X64002Y468398D01*
Y470397D01*
X65002Y471397D01*
X66001D01*
X67001Y470397D01*
Y469397D01*
Y470397D01*
X68001Y471397D01*
X69000D01*
X70000Y470397D01*
Y468398D01*
X69000Y467398D01*
X-30965Y113348D02*
Y108350D01*
X-29965Y107350D01*
X-27966D01*
X-26966Y108350D01*
Y113348D01*
X-24967D02*
X-20968D01*
Y112348D01*
X-24967Y108350D01*
Y107350D01*
X-202000Y627998D02*
Y623000D01*
X-201000Y622000D01*
X-199001D01*
X-198001Y623000D01*
Y627998D01*
X-196002Y626998D02*
X-195002Y627998D01*
X-193003D01*
X-192003Y626998D01*
Y625999D01*
X-193003Y624999D01*
X-192003Y623999D01*
Y623000D01*
X-193003Y622000D01*
X-195002D01*
X-196002Y623000D01*
Y623999D01*
X-195002Y624999D01*
X-196002Y625999D01*
Y626998D01*
X-195002Y624999D02*
X-193003D01*
X-587001Y92998D02*
X-588001Y93998D01*
X-590000D01*
X-591000Y92998D01*
Y89000D01*
X-590000Y88000D01*
X-588001D01*
X-587001Y89000D01*
X-581003Y88000D02*
X-585002D01*
X-581003Y91999D01*
Y92998D01*
X-582003Y93998D01*
X-584002D01*
X-585002Y92998D01*
X-579004Y89000D02*
X-578004Y88000D01*
X-576005D01*
X-575005Y89000D01*
Y92998D01*
X-576005Y93998D01*
X-578004D01*
X-579004Y92998D01*
Y91999D01*
X-578004Y90999D01*
X-575005D01*
X-44998Y594999D02*
X-45998Y593999D01*
Y592000D01*
X-44998Y591000D01*
X-41000D01*
X-40000Y592000D01*
Y593999D01*
X-41000Y594999D01*
X-40000Y596998D02*
Y598997D01*
Y597998D01*
X-45998D01*
X-44998Y596998D01*
X-45998Y605995D02*
Y601996D01*
X-42999D01*
X-43999Y603996D01*
Y604995D01*
X-42999Y605995D01*
X-41000D01*
X-40000Y604995D01*
Y602996D01*
X-41000Y601996D01*
D52*
X-894250Y578000D02*
G03*
X-894250Y578000I-1250J0D01*
G01*
X-215750Y616250D02*
G03*
X-215750Y616250I-1250J0D01*
G01*
D53*
X-468058Y621000D02*
G03*
X-370000Y621000I49029J9806D01*
G01*
X-369971Y640806D02*
G03*
X-468029Y640806I-49029J-9806D01*
G01*
X-629500Y840000D02*
Y876000D01*
X-854500D02*
X-629500D01*
X-854500Y840000D02*
Y876000D01*
Y780000D02*
Y816000D01*
Y780000D02*
X-629500D01*
Y816000D01*
X-443654Y729414D02*
X-393362D01*
X-443654Y709856D02*
Y729414D01*
Y709856D02*
X-393362D01*
Y729414D01*
X10364Y127526D02*
Y166388D01*
Y127526D02*
X27382D01*
Y166388D01*
X10364D02*
X27382D01*
X74636Y404842D02*
Y443704D01*
X57618D02*
X74636D01*
X57618Y404842D02*
Y443704D01*
Y404842D02*
X74636D01*
X57364Y362696D02*
Y401558D01*
Y362696D02*
X74382D01*
Y401558D01*
X57364D02*
X74382D01*
X74636Y519842D02*
Y558704D01*
X57618D02*
X74636D01*
X57618Y519842D02*
Y558704D01*
Y519842D02*
X74636D01*
Y637272D02*
Y676134D01*
X57618D02*
X74636D01*
X57618Y637272D02*
Y676134D01*
Y637272D02*
X74636D01*
X57364Y628958D02*
X74382D01*
Y590096D02*
Y628958D01*
X57364Y590096D02*
X74382D01*
X57364D02*
Y628958D01*
X-595442Y135618D02*
Y152636D01*
X-634304Y135618D02*
X-595442D01*
X-634304D02*
Y152636D01*
X-595442D01*
X-299382Y529442D02*
X-282364D01*
X-299382D02*
Y568304D01*
X-282364D01*
Y529442D02*
Y568304D01*
X56364Y166958D02*
X73382D01*
Y128096D02*
Y166958D01*
X56364Y128096D02*
X73382D01*
X56364D02*
Y166958D01*
X57618Y291272D02*
X74636D01*
X57618D02*
Y330134D01*
X74636D01*
Y291272D02*
Y330134D01*
X57364Y285958D02*
X74382D01*
Y247096D02*
Y285958D01*
X57364Y247096D02*
X74382D01*
X57364D02*
Y285958D01*
X-368250Y642750D02*
Y682500D01*
Y642750D02*
X-361250D01*
X-461000Y682500D02*
X-368250D01*
Y619250D02*
X-368250Y619250D01*
Y579500D02*
Y619250D01*
X-477750Y643250D02*
X-471250D01*
X-477750Y618250D02*
X-471250D01*
X-471000Y643250D02*
Y672500D01*
X-461000Y682500D01*
X-368250Y619250D02*
X-361500D01*
X-471250Y604500D02*
Y618250D01*
X-471000Y589500D02*
X-461000Y579500D01*
X-471250Y598000D02*
Y618250D01*
X-471250Y598000D02*
X-471250Y598000D01*
Y589500D02*
Y618250D01*
Y579500D02*
Y618250D01*
X-471250Y579500D02*
X-471250Y579500D01*
X-471250Y579500D02*
X-368250D01*
X57364Y513958D02*
X74382D01*
Y475096D02*
Y513958D01*
X57364Y475096D02*
X74382D01*
X57364D02*
Y513958D01*
X-899335Y391331D02*
X-901002Y392997D01*
X-904334D01*
X-906000Y391331D01*
Y384666D01*
X-904334Y383000D01*
X-901002D01*
X-899335Y384666D01*
X-896003Y383000D02*
X-892671D01*
X-894337D01*
Y392997D01*
X-896003Y391331D01*
X-941336Y537331D02*
X-943002Y538997D01*
X-946334D01*
X-948000Y537331D01*
Y530666D01*
X-946334Y529000D01*
X-943002D01*
X-941336Y530666D01*
Y533998D01*
X-944668D01*
X-938003Y529000D02*
Y538997D01*
X-931339Y529000D01*
Y538997D01*
X-928006D02*
Y529000D01*
X-923008D01*
X-921342Y530666D01*
Y537331D01*
X-923008Y538997D01*
X-928006D01*
X-975335Y537997D02*
X-982000D01*
Y532998D01*
X-978668Y534664D01*
X-977002D01*
X-975335Y532998D01*
Y529666D01*
X-977002Y528000D01*
X-980334D01*
X-982000Y529666D01*
X-972003Y537997D02*
Y531332D01*
X-968671Y528000D01*
X-965339Y531332D01*
Y537997D01*
X-809000Y563000D02*
X-805668D01*
X-807334D01*
Y572997D01*
X-809000Y571331D01*
X-794005Y563000D02*
X-800669D01*
X-794005Y569664D01*
Y571331D01*
X-795671Y572997D01*
X-799003D01*
X-800669Y571331D01*
X-790673Y572997D02*
Y566332D01*
X-787340Y563000D01*
X-784008Y566332D01*
Y572997D01*
X-802336Y510331D02*
X-804002Y511997D01*
X-807334D01*
X-809000Y510331D01*
Y503666D01*
X-807334Y502000D01*
X-804002D01*
X-802336Y503666D01*
Y506998D01*
X-805668D01*
X-799003Y502000D02*
Y511997D01*
X-792339Y502000D01*
Y511997D01*
X-789006D02*
Y502000D01*
X-784008D01*
X-782342Y503666D01*
Y510331D01*
X-784008Y511997D01*
X-789006D01*
X-200000Y-25000D02*
X-209997D01*
Y-20002D01*
X-208331Y-18335D01*
X-204998D01*
X-203332Y-20002D01*
Y-25000D01*
X-209997Y-15003D02*
X-200000D01*
Y-10005D01*
X-201666Y-8339D01*
X-203332D01*
X-204998Y-10005D01*
Y-15003D01*
Y-10005D01*
X-206665Y-8339D01*
X-208331D01*
X-209997Y-10005D01*
Y-15003D01*
X-200000Y-5006D02*
Y-1674D01*
Y-3340D01*
X-209997D01*
X-208331Y-5006D01*
Y3324D02*
X-209997Y4990D01*
Y8323D01*
X-208331Y9989D01*
X-201666D01*
X-200000Y8323D01*
Y4990D01*
X-201666Y3324D01*
X-208331D01*
X-226000Y-25000D02*
X-235997D01*
Y-20002D01*
X-234331Y-18335D01*
X-230998D01*
X-229332Y-20002D01*
Y-25000D01*
X-235997Y-15003D02*
X-226000D01*
Y-10005D01*
X-227666Y-8339D01*
X-229332D01*
X-230998Y-10005D01*
Y-15003D01*
Y-10005D01*
X-232665Y-8339D01*
X-234331D01*
X-235997Y-10005D01*
Y-15003D01*
X-226000Y1658D02*
Y-5006D01*
X-232665Y1658D01*
X-234331D01*
X-235997Y-8D01*
Y-3340D01*
X-234331Y-5006D01*
X-331600Y439500D02*
X-341597D01*
Y444498D01*
X-339931Y446165D01*
X-336598D01*
X-334932Y444498D01*
Y439500D01*
X-331600Y449497D02*
X-338265D01*
X-341597Y452829D01*
X-338265Y456161D01*
X-331600D01*
X-336598D01*
Y449497D01*
X-339931Y459493D02*
X-341597Y461160D01*
Y464492D01*
X-339931Y466158D01*
X-338265D01*
X-336598Y464492D01*
X-334932Y466158D01*
X-333266D01*
X-331600Y464492D01*
Y461160D01*
X-333266Y459493D01*
X-334932D01*
X-336598Y461160D01*
X-338265Y459493D01*
X-339931D01*
X-336598Y461160D02*
Y464492D01*
X-356600Y439500D02*
X-366597D01*
Y444498D01*
X-364931Y446165D01*
X-361598D01*
X-359932Y444498D01*
Y439500D01*
X-356600Y449497D02*
X-363265D01*
X-366597Y452829D01*
X-363265Y456161D01*
X-356600D01*
X-361598D01*
Y449497D01*
X-358266Y459493D02*
X-356600Y461160D01*
Y464492D01*
X-358266Y466158D01*
X-364931D01*
X-366597Y464492D01*
Y461160D01*
X-364931Y459493D01*
X-363265D01*
X-361598Y461160D01*
Y466158D01*
X-919931Y446165D02*
X-921597Y444498D01*
Y441166D01*
X-919931Y439500D01*
X-913266D01*
X-911600Y441166D01*
Y444498D01*
X-913266Y446165D01*
X-916598D01*
Y442832D01*
X-911600Y449497D02*
X-921597D01*
X-911600Y456161D01*
X-921597D01*
Y459493D02*
X-911600D01*
Y464492D01*
X-913266Y466158D01*
X-919931D01*
X-921597Y464492D01*
Y459493D01*
X-951597Y446165D02*
Y439500D01*
X-946598D01*
X-948264Y442832D01*
Y444498D01*
X-946598Y446165D01*
X-943266D01*
X-941600Y444498D01*
Y441166D01*
X-943266Y439500D01*
X-951597Y449497D02*
X-944932D01*
X-941600Y452829D01*
X-944932Y456161D01*
X-951597D01*
X-886600Y439500D02*
X-896597D01*
Y444498D01*
X-894931Y446165D01*
X-891598D01*
X-889932Y444498D01*
Y439500D01*
X-896597Y449497D02*
X-886600D01*
Y454495D01*
X-888266Y456161D01*
X-889932D01*
X-891598Y454495D01*
Y449497D01*
Y454495D01*
X-893264Y456161D01*
X-894931D01*
X-896597Y454495D01*
Y449497D01*
X-888266Y459493D02*
X-886600Y461160D01*
Y464492D01*
X-888266Y466158D01*
X-894931D01*
X-896597Y464492D01*
Y461160D01*
X-894931Y459493D01*
X-893264D01*
X-891598Y461160D01*
Y466158D01*
X-861600Y439500D02*
X-871597D01*
Y444498D01*
X-869931Y446165D01*
X-866598D01*
X-864932Y444498D01*
Y439500D01*
X-871597Y449497D02*
X-861600D01*
Y454495D01*
X-863266Y456161D01*
X-864932D01*
X-866598Y454495D01*
Y449497D01*
Y454495D01*
X-868264Y456161D01*
X-869931D01*
X-871597Y454495D01*
Y449497D01*
X-869931Y459493D02*
X-871597Y461160D01*
Y464492D01*
X-869931Y466158D01*
X-868264D01*
X-866598Y464492D01*
X-864932Y466158D01*
X-863266D01*
X-861600Y464492D01*
Y461160D01*
X-863266Y459493D01*
X-864932D01*
X-866598Y461160D01*
X-868264Y459493D01*
X-869931D01*
X-866598Y461160D02*
Y464492D01*
X-846597Y439500D02*
X-839932D01*
X-836600Y442832D01*
X-839932Y446165D01*
X-846597D01*
Y449497D02*
X-836600D01*
Y454495D01*
X-838266Y456161D01*
X-844931D01*
X-846597Y454495D01*
Y449497D01*
Y459493D02*
X-836600D01*
Y464492D01*
X-838266Y466158D01*
X-844931D01*
X-846597Y464492D01*
Y459493D01*
X-821597Y429500D02*
X-811600D01*
Y434498D01*
X-813266Y436165D01*
X-814932D01*
X-816598Y434498D01*
Y429500D01*
Y434498D01*
X-818264Y436165D01*
X-819931D01*
X-821597Y434498D01*
Y429500D01*
Y444495D02*
Y441163D01*
X-819931Y439497D01*
X-813266D01*
X-811600Y441163D01*
Y444495D01*
X-813266Y446161D01*
X-819931D01*
X-821597Y444495D01*
Y454492D02*
Y451160D01*
X-819931Y449493D01*
X-813266D01*
X-811600Y451160D01*
Y454492D01*
X-813266Y456158D01*
X-819931D01*
X-821597Y454492D01*
Y459490D02*
Y466155D01*
Y462823D01*
X-811600D01*
X-819931Y469487D02*
X-821597Y471153D01*
Y474486D01*
X-819931Y476152D01*
X-813266D01*
X-811600Y474486D01*
Y471153D01*
X-813266Y469487D01*
X-819931D01*
X-786600Y439500D02*
X-796597D01*
Y444498D01*
X-794931Y446165D01*
X-791598D01*
X-789932Y444498D01*
Y439500D01*
X-796597Y449497D02*
X-786600D01*
Y454495D01*
X-788266Y456161D01*
X-789932D01*
X-791598Y454495D01*
Y449497D01*
Y454495D01*
X-793264Y456161D01*
X-794931D01*
X-796597Y454495D01*
Y449497D01*
Y459493D02*
Y466158D01*
X-794931D01*
X-788266Y459493D01*
X-786600D01*
X-761600Y439500D02*
X-771597D01*
Y444498D01*
X-769931Y446165D01*
X-766598D01*
X-764932Y444498D01*
Y439500D01*
X-771597Y449497D02*
X-761600D01*
Y454495D01*
X-763266Y456161D01*
X-764932D01*
X-766598Y454495D01*
Y449497D01*
Y454495D01*
X-768264Y456161D01*
X-769931D01*
X-771597Y454495D01*
Y449497D01*
Y466158D02*
X-769931Y462826D01*
X-766598Y459493D01*
X-763266D01*
X-761600Y461160D01*
Y464492D01*
X-763266Y466158D01*
X-764932D01*
X-766598Y464492D01*
Y459493D01*
X-736600Y439500D02*
X-746597D01*
Y444498D01*
X-744931Y446165D01*
X-741598D01*
X-739932Y444498D01*
Y439500D01*
X-746597Y449497D02*
X-736600D01*
Y454495D01*
X-738266Y456161D01*
X-739932D01*
X-741598Y454495D01*
Y449497D01*
Y454495D01*
X-743264Y456161D01*
X-744931D01*
X-746597Y454495D01*
Y449497D01*
Y466158D02*
Y459493D01*
X-741598D01*
X-743264Y462826D01*
Y464492D01*
X-741598Y466158D01*
X-738266D01*
X-736600Y464492D01*
Y461160D01*
X-738266Y459493D01*
X-711600Y439500D02*
X-721597D01*
Y444498D01*
X-719931Y446165D01*
X-716598D01*
X-714932Y444498D01*
Y439500D01*
X-721597Y449497D02*
X-711600D01*
Y454495D01*
X-713266Y456161D01*
X-714932D01*
X-716598Y454495D01*
Y449497D01*
Y454495D01*
X-718264Y456161D01*
X-719931D01*
X-721597Y454495D01*
Y449497D01*
X-711600Y464492D02*
X-721597D01*
X-716598Y459493D01*
Y466158D01*
X-686600Y439500D02*
X-696597D01*
Y444498D01*
X-694931Y446165D01*
X-691598D01*
X-689932Y444498D01*
Y439500D01*
X-696597Y449497D02*
X-686600D01*
Y454495D01*
X-688266Y456161D01*
X-689932D01*
X-691598Y454495D01*
Y449497D01*
Y454495D01*
X-693264Y456161D01*
X-694931D01*
X-696597Y454495D01*
Y449497D01*
X-694931Y459493D02*
X-696597Y461160D01*
Y464492D01*
X-694931Y466158D01*
X-693264D01*
X-691598Y464492D01*
Y462826D01*
Y464492D01*
X-689932Y466158D01*
X-688266D01*
X-686600Y464492D01*
Y461160D01*
X-688266Y459493D01*
X-661600Y439500D02*
X-671597D01*
Y444498D01*
X-669931Y446165D01*
X-666598D01*
X-664932Y444498D01*
Y439500D01*
X-671597Y449497D02*
X-661600D01*
Y454495D01*
X-663266Y456161D01*
X-669931D01*
X-671597Y454495D01*
Y449497D01*
X-661600Y466158D02*
Y459493D01*
X-668264Y466158D01*
X-669931D01*
X-671597Y464492D01*
Y461160D01*
X-669931Y459493D01*
X-631600Y439500D02*
X-641597D01*
Y444498D01*
X-639931Y446165D01*
X-636598D01*
X-634932Y444498D01*
Y439500D01*
X-639931Y456161D02*
X-641597Y454495D01*
Y451163D01*
X-639931Y449497D01*
X-633266D01*
X-631600Y451163D01*
Y454495D01*
X-633266Y456161D01*
X-631600Y459493D02*
Y462826D01*
Y461160D01*
X-641597D01*
X-639931Y459493D01*
X-631600Y474489D02*
Y467824D01*
X-638265Y474489D01*
X-639931D01*
X-641597Y472823D01*
Y469490D01*
X-639931Y467824D01*
X-606600Y439500D02*
X-616597D01*
Y444498D01*
X-614931Y446165D01*
X-611598D01*
X-609932Y444498D01*
Y439500D01*
X-614931Y456161D02*
X-616597Y454495D01*
Y451163D01*
X-614931Y449497D01*
X-608266D01*
X-606600Y451163D01*
Y454495D01*
X-608266Y456161D01*
X-606600Y459493D02*
Y462826D01*
Y461160D01*
X-616597D01*
X-614931Y459493D01*
X-606600Y467824D02*
Y471156D01*
Y469490D01*
X-616597D01*
X-614931Y467824D01*
X-581600Y439500D02*
X-591597D01*
Y444498D01*
X-589931Y446165D01*
X-586598D01*
X-584932Y444498D01*
Y439500D01*
X-589931Y456161D02*
X-591597Y454495D01*
Y451163D01*
X-589931Y449497D01*
X-583266D01*
X-581600Y451163D01*
Y454495D01*
X-583266Y456161D01*
X-581600Y459493D02*
Y462826D01*
Y461160D01*
X-591597D01*
X-589931Y459493D01*
Y467824D02*
X-591597Y469490D01*
Y472823D01*
X-589931Y474489D01*
X-583266D01*
X-581600Y472823D01*
Y469490D01*
X-583266Y467824D01*
X-589931D01*
X-506600Y439500D02*
X-516597D01*
Y444498D01*
X-514931Y446165D01*
X-511598D01*
X-509932Y444498D01*
Y439500D01*
X-516597Y456161D02*
Y449497D01*
X-511598D01*
Y452829D01*
Y449497D01*
X-506600D01*
X-516597Y459493D02*
Y466158D01*
X-514931D01*
X-508266Y459493D01*
X-506600D01*
X-481600Y439500D02*
X-491597D01*
Y444498D01*
X-489931Y446165D01*
X-486598D01*
X-484932Y444498D01*
Y439500D01*
X-491597Y456161D02*
Y449497D01*
X-486598D01*
Y452829D01*
Y449497D01*
X-481600D01*
X-491597Y466158D02*
X-489931Y462826D01*
X-486598Y459493D01*
X-483266D01*
X-481600Y461160D01*
Y464492D01*
X-483266Y466158D01*
X-484932D01*
X-486598Y464492D01*
Y459493D01*
X-456600Y439500D02*
X-466597D01*
Y444498D01*
X-464931Y446165D01*
X-461598D01*
X-459932Y444498D01*
Y439500D01*
X-456600Y449497D02*
X-463265D01*
X-466597Y452829D01*
X-463265Y456161D01*
X-456600D01*
X-461598D01*
Y449497D01*
X-456600Y459493D02*
Y462826D01*
Y461160D01*
X-466597D01*
X-464931Y459493D01*
Y467824D02*
X-466597Y469490D01*
Y472823D01*
X-464931Y474489D01*
X-463265D01*
X-461598Y472823D01*
Y471156D01*
Y472823D01*
X-459932Y474489D01*
X-458266D01*
X-456600Y472823D01*
Y469490D01*
X-458266Y467824D01*
X-431600Y439500D02*
X-441597D01*
Y444498D01*
X-439931Y446165D01*
X-436598D01*
X-434932Y444498D01*
Y439500D01*
X-431600Y449497D02*
X-438265D01*
X-441597Y452829D01*
X-438265Y456161D01*
X-431600D01*
X-436598D01*
Y449497D01*
X-431600Y459493D02*
Y462826D01*
Y461160D01*
X-441597D01*
X-439931Y459493D01*
X-431600Y474489D02*
Y467824D01*
X-438265Y474489D01*
X-439931D01*
X-441597Y472823D01*
Y469490D01*
X-439931Y467824D01*
X-201600Y439500D02*
X-211597D01*
Y444498D01*
X-209931Y446165D01*
X-206598D01*
X-204932Y444498D01*
Y439500D01*
X-211597Y449497D02*
X-201600D01*
Y454495D01*
X-203266Y456161D01*
X-204932D01*
X-206598Y454495D01*
Y449497D01*
Y454495D01*
X-208265Y456161D01*
X-209931D01*
X-211597Y454495D01*
Y449497D01*
X-201600Y459493D02*
Y462826D01*
Y461160D01*
X-211597D01*
X-209931Y459493D01*
X-211597Y474489D02*
Y467824D01*
X-206598D01*
X-208265Y471156D01*
Y472823D01*
X-206598Y474489D01*
X-203266D01*
X-201600Y472823D01*
Y469490D01*
X-203266Y467824D01*
X-176600Y439500D02*
X-186597D01*
Y444498D01*
X-184931Y446165D01*
X-181598D01*
X-179932Y444498D01*
Y439500D01*
X-186597Y449497D02*
X-176600D01*
Y454495D01*
X-178266Y456161D01*
X-179932D01*
X-181598Y454495D01*
Y449497D01*
Y454495D01*
X-183265Y456161D01*
X-184931D01*
X-186597Y454495D01*
Y449497D01*
X-176600Y459493D02*
Y462826D01*
Y461160D01*
X-186597D01*
X-184931Y459493D01*
X-176600Y472823D02*
X-186597D01*
X-181598Y467824D01*
Y474489D01*
X-151600Y439500D02*
X-161597D01*
Y444498D01*
X-159931Y446165D01*
X-156598D01*
X-154932Y444498D01*
Y439500D01*
X-161597Y449497D02*
X-151600D01*
Y454495D01*
X-153266Y456161D01*
X-154932D01*
X-156598Y454495D01*
Y449497D01*
Y454495D01*
X-158265Y456161D01*
X-159931D01*
X-161597Y454495D01*
Y449497D01*
X-151600Y459493D02*
Y462826D01*
Y461160D01*
X-161597D01*
X-159931Y459493D01*
Y467824D02*
X-161597Y469490D01*
Y472823D01*
X-159931Y474489D01*
X-158265D01*
X-156598Y472823D01*
Y471156D01*
Y472823D01*
X-154932Y474489D01*
X-153266D01*
X-151600Y472823D01*
Y469490D01*
X-153266Y467824D01*
X-134931Y-18836D02*
X-136597Y-20502D01*
Y-23834D01*
X-134931Y-25500D01*
X-128266D01*
X-126600Y-23834D01*
Y-20502D01*
X-128266Y-18836D01*
X-131598D01*
Y-22168D01*
X-126600Y-15503D02*
X-136597D01*
X-126600Y-8839D01*
X-136597D01*
Y-5507D02*
X-126600D01*
Y-508D01*
X-128266Y1158D01*
X-134931D01*
X-136597Y-508D01*
Y-5507D01*
X-151600Y-25500D02*
X-161597D01*
Y-20502D01*
X-159931Y-18836D01*
X-156598D01*
X-154932Y-20502D01*
Y-25500D01*
X-161597Y-15503D02*
X-151600D01*
Y-10505D01*
X-153266Y-8839D01*
X-154932D01*
X-156598Y-10505D01*
Y-15503D01*
Y-10505D01*
X-158265Y-8839D01*
X-159931D01*
X-161597Y-10505D01*
Y-15503D01*
X-151600Y-5507D02*
Y-2174D01*
Y-3840D01*
X-161597D01*
X-159931Y-5507D01*
X-151600Y9489D02*
Y2824D01*
X-158265Y9489D01*
X-159931D01*
X-161597Y7823D01*
Y4490D01*
X-159931Y2824D01*
X-176000Y-26000D02*
X-185997D01*
Y-21002D01*
X-184331Y-19336D01*
X-180998D01*
X-179332Y-21002D01*
Y-26000D01*
X-185997Y-16003D02*
X-176000D01*
Y-11005D01*
X-177666Y-9339D01*
X-179332D01*
X-180998Y-11005D01*
Y-16003D01*
Y-11005D01*
X-182665Y-9339D01*
X-184331D01*
X-185997Y-11005D01*
Y-16003D01*
X-176000Y-6006D02*
Y-2674D01*
Y-4340D01*
X-185997D01*
X-184331Y-6006D01*
X-176000Y2324D02*
Y5656D01*
Y3990D01*
X-185997D01*
X-184331Y2324D01*
X-252000Y-25000D02*
X-261997D01*
Y-20002D01*
X-260331Y-18335D01*
X-256998D01*
X-255332Y-20002D01*
Y-25000D01*
X-261997Y-15003D02*
X-252000D01*
Y-10005D01*
X-253666Y-8339D01*
X-255332D01*
X-256998Y-10005D01*
Y-15003D01*
Y-10005D01*
X-258664Y-8339D01*
X-260331D01*
X-261997Y-10005D01*
Y-15003D01*
X-252000Y-5006D02*
Y-1674D01*
Y-3340D01*
X-261997D01*
X-260331Y-5006D01*
X-278000Y-25000D02*
X-287997D01*
Y-20002D01*
X-286331Y-18335D01*
X-282998D01*
X-281332Y-20002D01*
Y-25000D01*
X-287997Y-15003D02*
X-278000D01*
Y-10005D01*
X-279666Y-8339D01*
X-281332D01*
X-282998Y-10005D01*
Y-15003D01*
Y-10005D01*
X-284664Y-8339D01*
X-286331D01*
X-287997Y-10005D01*
Y-15003D01*
X-286331Y-5006D02*
X-287997Y-3340D01*
Y-8D01*
X-286331Y1658D01*
X-279666D01*
X-278000Y-8D01*
Y-3340D01*
X-279666Y-5006D01*
X-286331D01*
X-303000Y-25000D02*
X-312997D01*
Y-20002D01*
X-311331Y-18335D01*
X-307998D01*
X-306332Y-20002D01*
Y-25000D01*
X-311331Y-8339D02*
X-312997Y-10005D01*
Y-13337D01*
X-311331Y-15003D01*
X-304666D01*
X-303000Y-13337D01*
Y-10005D01*
X-304666Y-8339D01*
X-312997Y1658D02*
Y-5006D01*
X-307998D01*
X-309664Y-1674D01*
Y-8D01*
X-307998Y1658D01*
X-304666D01*
X-303000Y-8D01*
Y-3340D01*
X-304666Y-5006D01*
X-328000Y-25000D02*
X-337997D01*
Y-20002D01*
X-336331Y-18335D01*
X-332998D01*
X-331332Y-20002D01*
Y-25000D01*
X-336331Y-8339D02*
X-337997Y-10005D01*
Y-13337D01*
X-336331Y-15003D01*
X-329666D01*
X-328000Y-13337D01*
Y-10005D01*
X-329666Y-8339D01*
X-328000Y-8D02*
X-337997D01*
X-332998Y-5006D01*
Y1658D01*
X-944931Y-25500D02*
X-946597Y-23834D01*
Y-20502D01*
X-944931Y-18836D01*
X-943264D01*
X-941598Y-20502D01*
Y-22168D01*
Y-20502D01*
X-939932Y-18836D01*
X-938266D01*
X-936600Y-20502D01*
Y-23834D01*
X-938266Y-25500D01*
X-946597Y-15503D02*
X-939932D01*
X-936600Y-12171D01*
X-939932Y-8839D01*
X-946597D01*
X-919931Y-18836D02*
X-921597Y-20502D01*
Y-23834D01*
X-919931Y-25500D01*
X-913266D01*
X-911600Y-23834D01*
Y-20502D01*
X-913266Y-18836D01*
X-916598D01*
Y-22168D01*
X-911600Y-15503D02*
X-921597D01*
X-911600Y-8839D01*
X-921597D01*
Y-5507D02*
X-911600D01*
Y-508D01*
X-913266Y1158D01*
X-919931D01*
X-921597Y-508D01*
Y-5507D01*
X-896597Y-25500D02*
X-889932D01*
X-886600Y-22168D01*
X-889932Y-18836D01*
X-896597D01*
Y-15503D02*
X-886600D01*
Y-10505D01*
X-888266Y-8839D01*
X-889932D01*
X-891598Y-10505D01*
Y-15503D01*
Y-10505D01*
X-893264Y-8839D01*
X-894931D01*
X-896597Y-10505D01*
Y-15503D01*
X-886600Y-5507D02*
X-893264D01*
X-896597Y-2174D01*
X-893264Y1158D01*
X-886600D01*
X-891598D01*
Y-5507D01*
X-896597Y4490D02*
Y11155D01*
Y7823D01*
X-886600D01*
X-861600Y-25500D02*
X-871597D01*
Y-20502D01*
X-869931Y-18836D01*
X-866598D01*
X-864932Y-20502D01*
Y-25500D01*
X-869931Y-8839D02*
X-871597Y-10505D01*
Y-13837D01*
X-869931Y-15503D01*
X-863266D01*
X-861600Y-13837D01*
Y-10505D01*
X-863266Y-8839D01*
X-861600Y-5507D02*
Y-2174D01*
Y-3840D01*
X-871597D01*
X-869931Y-5507D01*
Y2824D02*
X-871597Y4490D01*
Y7823D01*
X-869931Y9489D01*
X-868264D01*
X-866598Y7823D01*
Y6156D01*
Y7823D01*
X-864932Y9489D01*
X-863266D01*
X-861600Y7823D01*
Y4490D01*
X-863266Y2824D01*
X-836600Y-25500D02*
X-846597D01*
Y-20502D01*
X-844931Y-18836D01*
X-841598D01*
X-839932Y-20502D01*
Y-25500D01*
X-844931Y-8839D02*
X-846597Y-10505D01*
Y-13837D01*
X-844931Y-15503D01*
X-838266D01*
X-836600Y-13837D01*
Y-10505D01*
X-838266Y-8839D01*
X-836600Y-5507D02*
Y-2174D01*
Y-3840D01*
X-846597D01*
X-844931Y-5507D01*
X-836600Y7823D02*
X-846597D01*
X-841598Y2824D01*
Y9489D01*
X-811600Y-25500D02*
X-821597D01*
Y-20502D01*
X-819931Y-18836D01*
X-816598D01*
X-814932Y-20502D01*
Y-25500D01*
X-819931Y-8839D02*
X-821597Y-10505D01*
Y-13837D01*
X-819931Y-15503D01*
X-813266D01*
X-811600Y-13837D01*
Y-10505D01*
X-813266Y-8839D01*
X-811600Y-5507D02*
Y-2174D01*
Y-3840D01*
X-821597D01*
X-819931Y-5507D01*
X-821597Y9489D02*
Y2824D01*
X-816598D01*
X-818264Y6156D01*
Y7823D01*
X-816598Y9489D01*
X-813266D01*
X-811600Y7823D01*
Y4490D01*
X-813266Y2824D01*
X-786600Y-25500D02*
X-796597D01*
Y-20502D01*
X-794931Y-18836D01*
X-791598D01*
X-789932Y-20502D01*
Y-25500D01*
X-796597Y-8839D02*
Y-15503D01*
X-791598D01*
Y-12171D01*
Y-15503D01*
X-786600D01*
X-794931Y-5507D02*
X-796597Y-3840D01*
Y-508D01*
X-794931Y1158D01*
X-788266D01*
X-786600Y-508D01*
Y-3840D01*
X-788266Y-5507D01*
X-794931D01*
X-761600Y-25500D02*
X-771597D01*
Y-20502D01*
X-769931Y-18836D01*
X-766598D01*
X-764932Y-20502D01*
Y-25500D01*
X-771597Y-8839D02*
Y-15503D01*
X-766598D01*
Y-12171D01*
Y-15503D01*
X-761600D01*
Y-5507D02*
Y-2174D01*
Y-3840D01*
X-771597D01*
X-769931Y-5507D01*
X-744931Y-18836D02*
X-746597Y-20502D01*
Y-23834D01*
X-744931Y-25500D01*
X-738266D01*
X-736600Y-23834D01*
Y-20502D01*
X-738266Y-18836D01*
X-741598D01*
Y-22168D01*
X-736600Y-15503D02*
X-746597D01*
X-736600Y-8839D01*
X-746597D01*
Y-5507D02*
X-736600D01*
Y-508D01*
X-738266Y1158D01*
X-744931D01*
X-746597Y-508D01*
Y-5507D01*
X-711600Y-25500D02*
X-721597D01*
X-711600Y-18836D01*
X-721597D01*
X-711600Y-15503D02*
X-721597D01*
Y-10505D01*
X-719931Y-8839D01*
X-716598D01*
X-714932Y-10505D01*
Y-15503D01*
Y-12171D02*
X-711600Y-8839D01*
X-719931Y1158D02*
X-721597Y-508D01*
Y-3840D01*
X-719931Y-5507D01*
X-718264D01*
X-716598Y-3840D01*
Y-508D01*
X-714932Y1158D01*
X-713266D01*
X-711600Y-508D01*
Y-3840D01*
X-713266Y-5507D01*
X-721597Y4490D02*
Y11155D01*
Y7823D01*
X-711600D01*
X-686600Y-25500D02*
X-696597D01*
Y-20502D01*
X-694931Y-18836D01*
X-691598D01*
X-689932Y-20502D01*
Y-25500D01*
X-694931Y-8839D02*
X-696597Y-10505D01*
Y-13837D01*
X-694931Y-15503D01*
X-688266D01*
X-686600Y-13837D01*
Y-10505D01*
X-688266Y-8839D01*
X-694931Y-5507D02*
X-696597Y-3840D01*
Y-508D01*
X-694931Y1158D01*
X-688266D01*
X-686600Y-508D01*
Y-3840D01*
X-688266Y-5507D01*
X-694931D01*
X-661600Y-25500D02*
X-671597D01*
Y-20502D01*
X-669931Y-18836D01*
X-666598D01*
X-664932Y-20502D01*
Y-25500D01*
X-669931Y-8839D02*
X-671597Y-10505D01*
Y-13837D01*
X-669931Y-15503D01*
X-663266D01*
X-661600Y-13837D01*
Y-10505D01*
X-663266Y-8839D01*
X-661600Y-5507D02*
Y-2174D01*
Y-3840D01*
X-671597D01*
X-669931Y-5507D01*
X-631600Y-25500D02*
X-641597D01*
Y-20502D01*
X-639931Y-18836D01*
X-636598D01*
X-634932Y-20502D01*
Y-25500D01*
X-639931Y-8839D02*
X-641597Y-10505D01*
Y-13837D01*
X-639931Y-15503D01*
X-633266D01*
X-631600Y-13837D01*
Y-10505D01*
X-633266Y-8839D01*
X-631600Y1158D02*
Y-5507D01*
X-638265Y1158D01*
X-639931D01*
X-641597Y-508D01*
Y-3840D01*
X-639931Y-5507D01*
X-606600Y-25500D02*
X-616597D01*
Y-20502D01*
X-614931Y-18836D01*
X-611598D01*
X-609932Y-20502D01*
Y-25500D01*
X-614931Y-8839D02*
X-616597Y-10505D01*
Y-13837D01*
X-614931Y-15503D01*
X-608266D01*
X-606600Y-13837D01*
Y-10505D01*
X-608266Y-8839D01*
X-614931Y-5507D02*
X-616597Y-3840D01*
Y-508D01*
X-614931Y1158D01*
X-613265D01*
X-611598Y-508D01*
Y-2174D01*
Y-508D01*
X-609932Y1158D01*
X-608266D01*
X-606600Y-508D01*
Y-3840D01*
X-608266Y-5507D01*
X-581600Y-25500D02*
X-591597D01*
Y-20502D01*
X-589931Y-18836D01*
X-586598D01*
X-584932Y-20502D01*
Y-25500D01*
X-581600Y-15503D02*
X-588265D01*
X-591597Y-12171D01*
X-588265Y-8839D01*
X-581600D01*
X-586598D01*
Y-15503D01*
X-589931Y-5507D02*
X-591597Y-3840D01*
Y-508D01*
X-589931Y1158D01*
X-583266D01*
X-581600Y-508D01*
Y-3840D01*
X-583266Y-5507D01*
X-589931D01*
X-556600Y-25500D02*
X-566597D01*
Y-20502D01*
X-564931Y-18836D01*
X-561598D01*
X-559932Y-20502D01*
Y-25500D01*
X-556600Y-15503D02*
X-563265D01*
X-566597Y-12171D01*
X-563265Y-8839D01*
X-556600D01*
X-561598D01*
Y-15503D01*
X-556600Y-5507D02*
Y-2174D01*
Y-3840D01*
X-566597D01*
X-564931Y-5507D01*
X-531600Y-25500D02*
X-541597D01*
Y-20502D01*
X-539931Y-18836D01*
X-536598D01*
X-534932Y-20502D01*
Y-25500D01*
X-531600Y-15503D02*
X-538265D01*
X-541597Y-12171D01*
X-538265Y-8839D01*
X-531600D01*
X-536598D01*
Y-15503D01*
X-531600Y1158D02*
Y-5507D01*
X-538265Y1158D01*
X-539931D01*
X-541597Y-508D01*
Y-3840D01*
X-539931Y-5507D01*
X-506600Y-25500D02*
X-516597D01*
Y-20502D01*
X-514931Y-18836D01*
X-511598D01*
X-509932Y-20502D01*
Y-25500D01*
X-506600Y-15503D02*
X-513265D01*
X-516597Y-12171D01*
X-513265Y-8839D01*
X-506600D01*
X-511598D01*
Y-15503D01*
X-514931Y-5507D02*
X-516597Y-3840D01*
Y-508D01*
X-514931Y1158D01*
X-513265D01*
X-511598Y-508D01*
Y-2174D01*
Y-508D01*
X-509932Y1158D01*
X-508266D01*
X-506600Y-508D01*
Y-3840D01*
X-508266Y-5507D01*
X-481000Y-24000D02*
X-490997D01*
Y-19002D01*
X-489331Y-17335D01*
X-485998D01*
X-484332Y-19002D01*
Y-24000D01*
X-490997Y-7339D02*
Y-14003D01*
X-485998D01*
Y-10671D01*
Y-14003D01*
X-481000D01*
Y992D02*
X-490997D01*
X-485998Y-4006D01*
Y2658D01*
X-456000Y-25000D02*
X-465997D01*
Y-20002D01*
X-464331Y-18335D01*
X-460998D01*
X-459332Y-20002D01*
Y-25000D01*
X-465997Y-8339D02*
Y-15003D01*
X-460998D01*
Y-11671D01*
Y-15003D01*
X-456000D01*
X-465997Y1658D02*
Y-5006D01*
X-460998D01*
X-462664Y-1674D01*
Y-8D01*
X-460998Y1658D01*
X-457666D01*
X-456000Y-8D01*
Y-3340D01*
X-457666Y-5006D01*
X-429000Y-25000D02*
X-438997D01*
Y-20002D01*
X-437331Y-18335D01*
X-433998D01*
X-432332Y-20002D01*
Y-25000D01*
X-429000Y-15003D02*
X-435664D01*
X-438997Y-11671D01*
X-435664Y-8339D01*
X-429000D01*
X-433998D01*
Y-15003D01*
X-429000Y-8D02*
X-438997D01*
X-433998Y-5006D01*
Y1658D01*
X-401000Y-25000D02*
X-410997D01*
Y-20002D01*
X-409331Y-18335D01*
X-405998D01*
X-404332Y-20002D01*
Y-25000D01*
X-401000Y-15003D02*
X-407664D01*
X-410997Y-11671D01*
X-407664Y-8339D01*
X-401000D01*
X-405998D01*
Y-15003D01*
X-410997Y1658D02*
Y-5006D01*
X-405998D01*
X-407664Y-1674D01*
Y-8D01*
X-405998Y1658D01*
X-402666D01*
X-401000Y-8D01*
Y-3340D01*
X-402666Y-5006D01*
X-379000Y-25000D02*
X-388997D01*
Y-20002D01*
X-387331Y-18335D01*
X-383998D01*
X-382332Y-20002D01*
Y-25000D01*
X-379000Y-15003D02*
X-385664D01*
X-388997Y-11671D01*
X-385664Y-8339D01*
X-379000D01*
X-383998D01*
Y-15003D01*
X-388997Y1658D02*
X-387331Y-1674D01*
X-383998Y-5006D01*
X-380666D01*
X-379000Y-3340D01*
Y-8D01*
X-380666Y1658D01*
X-382332D01*
X-383998Y-8D01*
Y-5006D01*
X-353000Y-25000D02*
X-362997D01*
Y-20002D01*
X-361331Y-18335D01*
X-357998D01*
X-356332Y-20002D01*
Y-25000D01*
X-353000Y-15003D02*
X-359664D01*
X-362997Y-11671D01*
X-359664Y-8339D01*
X-353000D01*
X-357998D01*
Y-15003D01*
X-362997Y-5006D02*
Y1658D01*
X-361331D01*
X-354666Y-5006D01*
X-353000D01*
X-134931Y446165D02*
X-136597Y444498D01*
Y441166D01*
X-134931Y439500D01*
X-128266D01*
X-126600Y441166D01*
Y444498D01*
X-128266Y446165D01*
X-131598D01*
Y442832D01*
X-126600Y449497D02*
X-136597D01*
X-126600Y456161D01*
X-136597D01*
Y459493D02*
X-126600D01*
Y464492D01*
X-128266Y466158D01*
X-134931D01*
X-136597Y464492D01*
Y459493D01*
X-226600Y439500D02*
X-236597D01*
Y444498D01*
X-234931Y446165D01*
X-231598D01*
X-229932Y444498D01*
Y439500D01*
X-234931Y456161D02*
X-236597Y454495D01*
Y451163D01*
X-234931Y449497D01*
X-228266D01*
X-226600Y451163D01*
Y454495D01*
X-228266Y456161D01*
X-236597Y466158D02*
X-234931Y462826D01*
X-231598Y459493D01*
X-228266D01*
X-226600Y461160D01*
Y464492D01*
X-228266Y466158D01*
X-229932D01*
X-231598Y464492D01*
Y459493D01*
X-251600Y439500D02*
X-261597D01*
Y444498D01*
X-259931Y446165D01*
X-256598D01*
X-254932Y444498D01*
Y439500D01*
X-259931Y456161D02*
X-261597Y454495D01*
Y451163D01*
X-259931Y449497D01*
X-253266D01*
X-251600Y451163D01*
Y454495D01*
X-253266Y456161D01*
X-261597Y459493D02*
Y466158D01*
X-259931D01*
X-253266Y459493D01*
X-251600D01*
X-276600Y439500D02*
X-286597D01*
Y444498D01*
X-284931Y446165D01*
X-281598D01*
X-279932Y444498D01*
Y439500D01*
X-284931Y456161D02*
X-286597Y454495D01*
Y451163D01*
X-284931Y449497D01*
X-278266D01*
X-276600Y451163D01*
Y454495D01*
X-278266Y456161D01*
X-284931Y459493D02*
X-286597Y461160D01*
Y464492D01*
X-284931Y466158D01*
X-283265D01*
X-281598Y464492D01*
X-279932Y466158D01*
X-278266D01*
X-276600Y464492D01*
Y461160D01*
X-278266Y459493D01*
X-279932D01*
X-281598Y461160D01*
X-283265Y459493D01*
X-284931D01*
X-281598Y461160D02*
Y464492D01*
X-301600Y439500D02*
X-311597D01*
Y444498D01*
X-309931Y446165D01*
X-306598D01*
X-304932Y444498D01*
Y439500D01*
X-309931Y456161D02*
X-311597Y454495D01*
Y451163D01*
X-309931Y449497D01*
X-303266D01*
X-301600Y451163D01*
Y454495D01*
X-303266Y456161D01*
Y459493D02*
X-301600Y461160D01*
Y464492D01*
X-303266Y466158D01*
X-309931D01*
X-311597Y464492D01*
Y461160D01*
X-309931Y459493D01*
X-308265D01*
X-306598Y461160D01*
Y466158D01*
X-381600Y439500D02*
X-391597D01*
Y444498D01*
X-389931Y446165D01*
X-386598D01*
X-384932Y444498D01*
Y439500D01*
X-381600Y449497D02*
X-388265D01*
X-391597Y452829D01*
X-388265Y456161D01*
X-381600D01*
X-386598D01*
Y449497D01*
X-381600Y459493D02*
Y462826D01*
Y461160D01*
X-391597D01*
X-389931Y459493D01*
Y467824D02*
X-391597Y469490D01*
Y472823D01*
X-389931Y474489D01*
X-383266D01*
X-381600Y472823D01*
Y469490D01*
X-383266Y467824D01*
X-389931D01*
X-406600Y439500D02*
X-416597D01*
Y444498D01*
X-414931Y446165D01*
X-411598D01*
X-409932Y444498D01*
Y439500D01*
X-406600Y449497D02*
X-413265D01*
X-416597Y452829D01*
X-413265Y456161D01*
X-406600D01*
X-411598D01*
Y449497D01*
X-406600Y459493D02*
Y462826D01*
Y461160D01*
X-416597D01*
X-414931Y459493D01*
X-406600Y467824D02*
Y471156D01*
Y469490D01*
X-416597D01*
X-414931Y467824D01*
X-531600Y439500D02*
X-541597D01*
Y444498D01*
X-539931Y446165D01*
X-536598D01*
X-534932Y444498D01*
Y439500D01*
X-531600Y449497D02*
X-538265D01*
X-541597Y452829D01*
X-538265Y456161D01*
X-531600D01*
X-536598D01*
Y449497D01*
X-531600Y459493D02*
Y462826D01*
Y461160D01*
X-541597D01*
X-539931Y459493D01*
X-531600Y472823D02*
X-541597D01*
X-536598Y467824D01*
Y474489D01*
X-556600Y439500D02*
X-566597D01*
Y444498D01*
X-564931Y446165D01*
X-561598D01*
X-559932Y444498D01*
Y439500D01*
X-556600Y449497D02*
X-563265D01*
X-566597Y452829D01*
X-563265Y456161D01*
X-556600D01*
X-561598D01*
Y449497D01*
X-556600Y459493D02*
Y462826D01*
Y461160D01*
X-566597D01*
X-564931Y459493D01*
X-566597Y474489D02*
Y467824D01*
X-561598D01*
X-563265Y471156D01*
Y472823D01*
X-561598Y474489D01*
X-558266D01*
X-556600Y472823D01*
Y469490D01*
X-558266Y467824D01*
X-452787Y782320D02*
X-449196Y778729D01*
Y782320D02*
X-452787Y778729D01*
X-448830Y829024D02*
X-443751D01*
X-461000Y644559D02*
X-455922D01*
X-458461Y647098D02*
Y642020D01*
D54*
X17000Y630560D02*
X25636D01*
Y620400D02*
Y630560D01*
Y610240D02*
Y620400D01*
X17000Y610240D02*
X25636D01*
X-11956D02*
X-3320D01*
X-11956D02*
Y620400D01*
Y630560D01*
X-3320D01*
X17000Y606560D02*
X25636D01*
Y596400D02*
Y606560D01*
Y586240D02*
Y596400D01*
X17000Y586240D02*
X25636D01*
X-11956D02*
X-3320D01*
X-11956D02*
Y596400D01*
Y606560D01*
X-3320D01*
X-54160Y706560D02*
Y715196D01*
X-44000D01*
X-33840D01*
Y706560D02*
Y715196D01*
Y677604D02*
Y686240D01*
X-44000Y677604D02*
X-33840D01*
X-54160D02*
X-44000D01*
X-54160D02*
Y686240D01*
X-917810Y879070D02*
X-910190D01*
X-1015600Y795250D02*
X-1001630D01*
Y809220D01*
X-1015600D02*
X-1001630D01*
X-1015600Y846050D02*
X-1001630D01*
Y860020D01*
X-1015600D02*
X-1001630D01*
X-1015600Y776200D02*
Y877800D01*
Y776200D02*
X-917810D01*
X-1015600Y877800D02*
X-894442D01*
X-888600Y776200D02*
Y877800D01*
X-910190Y776200D02*
Y778740D01*
X-917810D02*
X-910190D01*
X-917810Y776200D02*
Y778740D01*
X-910190Y776200D02*
X-894442D01*
X-902840Y585204D02*
Y593840D01*
X-913000Y585204D02*
X-902840D01*
X-923160D02*
X-913000D01*
X-923160D02*
Y593840D01*
Y614160D02*
Y622796D01*
X-913000D01*
X-902840D01*
Y614160D02*
Y622796D01*
X-928840Y585204D02*
Y593840D01*
X-939000Y585204D02*
X-928840D01*
X-949160D02*
X-939000D01*
X-949160D02*
Y593840D01*
Y614160D02*
Y622796D01*
X-939000D01*
X-928840D01*
Y614160D02*
Y622796D01*
X-870636Y538840D02*
X-862000D01*
X-870636D02*
Y549000D01*
Y559160D01*
X-862000D01*
X-841680D02*
X-833044D01*
Y549000D02*
Y559160D01*
Y538840D02*
Y549000D01*
X-841680Y538840D02*
X-833044D01*
X-919840Y399160D02*
X-911204D01*
Y389000D02*
Y399160D01*
Y378840D02*
Y389000D01*
X-919840Y378840D02*
X-911204D01*
X-948796D02*
X-940160D01*
X-948796D02*
Y389000D01*
Y399160D01*
X-940160D01*
X-533000Y557840D02*
X-524364D01*
Y568000D01*
Y578160D01*
X-533000D02*
X-524364D01*
X-561956D02*
X-553320D01*
X-561956Y568000D02*
Y578160D01*
Y557840D02*
Y568000D01*
Y557840D02*
X-553320D01*
X-561796Y100160D02*
X-553160D01*
X-561796Y90000D02*
Y100160D01*
Y79840D02*
Y90000D01*
Y79840D02*
X-553160D01*
X-532840D02*
X-524204D01*
Y90000D01*
Y100160D01*
X-532840D02*
X-524204D01*
X-648850Y540654D02*
Y542939D01*
X-581032D01*
X-648850Y503061D02*
X-581032D01*
X-648850D02*
Y505346D01*
X-714939Y584150D02*
X-712654D01*
X-714939D02*
Y651968D01*
X-675061Y584150D02*
Y651968D01*
X-677346Y584150D02*
X-675061D01*
X-453350Y699061D02*
Y701346D01*
X-521168Y699061D02*
X-453350D01*
X-521168Y738939D02*
X-453350D01*
Y736654D02*
Y738939D01*
X-748000Y706000D02*
X-658000D01*
X-838000D02*
X-748000D01*
X-838000Y766000D02*
X-748000D01*
X-658000D01*
Y706000D02*
Y766000D01*
X-838000Y706000D02*
Y736000D01*
Y766000D01*
X-256000Y693000D02*
Y783000D01*
Y873000D01*
X-196000Y783000D02*
Y873000D01*
Y693000D02*
Y783000D01*
X-256000Y693000D02*
X-196000D01*
X-256000Y873000D02*
X-226000D01*
X-196000D01*
X-612000Y674160D02*
X-603364D01*
Y664000D02*
Y674160D01*
Y653840D02*
Y664000D01*
X-612000Y653840D02*
X-603364D01*
X-640956D02*
X-632320D01*
X-640956D02*
Y664000D01*
Y674160D01*
X-632320D01*
X-312900Y566500D02*
Y575500D01*
X-337100D02*
X-312900D01*
X-337100Y566500D02*
Y575500D01*
Y527500D02*
Y536500D01*
Y527500D02*
X-312900D01*
Y536500D01*
X-526000Y131900D02*
X-517000D01*
Y156100D01*
X-526000D02*
X-517000D01*
X-565000D02*
X-556000D01*
X-565000Y131900D02*
Y156100D01*
Y131900D02*
X-556000D01*
X-312900Y674500D02*
Y683500D01*
X-337100D02*
X-312900D01*
X-337100Y674500D02*
Y683500D01*
Y635500D02*
Y644500D01*
Y635500D02*
X-312900D01*
Y644500D01*
X-730840Y545320D02*
Y553956D01*
X-741000D02*
X-730840D01*
X-751160D02*
X-741000D01*
X-751160Y545320D02*
Y553956D01*
Y516364D02*
Y525000D01*
Y516364D02*
X-741000D01*
X-730840D01*
Y525000D01*
X-595796Y674160D02*
X-587160D01*
X-595796Y664000D02*
Y674160D01*
Y653840D02*
Y664000D01*
Y653840D02*
X-587160D01*
X-566840D02*
X-558204D01*
Y664000D01*
Y674160D01*
X-566840D02*
X-558204D01*
X-275346Y775750D02*
X-273061D01*
Y707932D02*
Y775750D01*
X-312939Y707932D02*
Y775750D01*
X-310654D01*
X-80160Y706720D02*
Y715356D01*
X-70000D01*
X-59840D01*
Y706720D02*
Y715356D01*
Y677764D02*
Y686400D01*
X-70000Y677764D02*
X-59840D01*
X-80160D02*
X-70000D01*
X-80160D02*
Y686400D01*
X301630Y363780D02*
X315600D01*
X301630D02*
Y377750D01*
X315600D01*
X301630Y414580D02*
X315600D01*
X301630D02*
Y428550D01*
X315600D01*
X210240Y141480D02*
X217860D01*
X301884Y326900D02*
X314380D01*
X301680Y312930D02*
Y326900D01*
X301884Y312930D02*
X314380D01*
X301680Y276100D02*
X315650D01*
X301680Y262130D02*
Y276100D01*
Y262130D02*
X315650D01*
X301680Y225300D02*
X315650D01*
X301680Y211330D02*
Y225300D01*
Y211330D02*
X315650D01*
X301680Y174500D02*
X315650D01*
X301680Y160530D02*
Y174500D01*
Y160530D02*
X315650D01*
X188650Y142750D02*
Y650750D01*
Y142750D02*
X315650D01*
Y650750D01*
X210240Y648210D02*
Y650750D01*
Y648210D02*
X217860D01*
Y650750D01*
X301884Y631700D02*
X314380D01*
X301680Y617730D02*
Y631700D01*
X301884Y617730D02*
X314380D01*
X301680Y580900D02*
X315650D01*
X301680Y566930D02*
Y580900D01*
Y566930D02*
X315650D01*
X301680Y530100D02*
X315650D01*
X301680Y516130D02*
Y530100D01*
Y516130D02*
X315650D01*
X301680Y479300D02*
X315650D01*
X301680Y465330D02*
Y479300D01*
Y465330D02*
X315650D01*
X217860Y650750D02*
X315650D01*
X188650D02*
X210240D01*
X-337100Y581500D02*
Y590500D01*
Y581500D02*
X-312900D01*
Y590500D01*
Y620500D02*
Y629500D01*
X-337100D02*
X-312900D01*
X-337100Y620500D02*
Y629500D01*
X-246956Y607160D02*
X-238320D01*
X-246956Y597000D02*
Y607160D01*
Y586840D02*
Y597000D01*
Y586840D02*
X-238320D01*
X-218000D02*
X-209364D01*
Y597000D01*
Y607160D01*
X-218000D02*
X-209364D01*
X46840Y67604D02*
Y76240D01*
Y67604D02*
X57000D01*
X67160D01*
Y76240D01*
Y96560D02*
Y105196D01*
X57000D02*
X67160D01*
X46840D02*
X57000D01*
X46840Y96560D02*
Y105196D01*
X-12956Y238560D02*
X-4320D01*
X-12956Y228400D02*
Y238560D01*
Y218240D02*
Y228400D01*
Y218240D02*
X-4320D01*
X16000D02*
X24636D01*
Y228400D01*
Y238560D01*
X16000D02*
X24636D01*
X-12796Y214560D02*
X-4160D01*
X-12796Y204400D02*
Y214560D01*
Y194240D02*
Y204400D01*
Y194240D02*
X-4160D01*
X16160D02*
X24796D01*
Y204400D01*
Y214560D01*
X16160D02*
X24796D01*
X-82160Y281204D02*
Y289840D01*
Y281204D02*
X-72000D01*
X-61840D01*
Y289840D01*
Y310160D02*
Y318796D01*
X-72000D02*
X-61840D01*
X-82160D02*
X-72000D01*
X-82160Y310160D02*
Y318796D01*
X-56160Y281204D02*
Y289840D01*
Y281204D02*
X-46000D01*
X-35840D01*
Y289840D01*
Y310160D02*
Y318796D01*
X-46000D02*
X-35840D01*
X-56160D02*
X-46000D01*
X-56160Y310160D02*
Y318796D01*
X-11796Y363560D02*
X-3160D01*
X-11796Y353400D02*
Y363560D01*
Y343240D02*
Y353400D01*
Y343240D02*
X-3160D01*
X17160D02*
X25796D01*
Y353400D01*
Y363560D01*
X17160D02*
X25796D01*
X-11796Y338560D02*
X-3160D01*
X-11796Y328400D02*
Y338560D01*
Y318240D02*
Y328400D01*
Y318240D02*
X-3160D01*
X17160D02*
X25796D01*
Y328400D01*
Y338560D01*
X17160D02*
X25796D01*
X-80160Y413364D02*
Y422000D01*
Y413364D02*
X-70000D01*
X-59840D01*
Y422000D01*
Y442320D02*
Y450956D01*
X-70000D02*
X-59840D01*
X-80160D02*
X-70000D01*
X-80160Y442320D02*
Y450956D01*
X-55160Y413364D02*
Y422000D01*
Y413364D02*
X-45000D01*
X-34840D01*
Y422000D01*
Y442320D02*
Y450956D01*
X-45000D02*
X-34840D01*
X-55160D02*
X-45000D01*
X-55160Y442320D02*
Y450956D01*
X-11796Y498560D02*
X-3160D01*
X-11796Y488400D02*
Y498560D01*
Y478240D02*
Y488400D01*
Y478240D02*
X-3160D01*
X17160D02*
X25796D01*
Y488400D01*
Y498560D01*
X17160D02*
X25796D01*
X-11636Y473560D02*
X-3000D01*
X-11636Y463400D02*
Y473560D01*
Y453240D02*
Y463400D01*
Y453240D02*
X-3000D01*
X17320D02*
X25956D01*
Y463400D01*
Y473560D01*
X17320D02*
X25956D01*
X-81160Y548364D02*
Y557000D01*
Y548364D02*
X-71000D01*
X-60840D01*
Y557000D01*
Y577320D02*
Y585956D01*
X-71000D02*
X-60840D01*
X-81160D02*
X-71000D01*
X-81160Y577320D02*
Y585956D01*
X-603680Y79840D02*
X-595044D01*
Y90000D01*
Y100160D01*
X-603680D02*
X-595044D01*
X-632636D02*
X-624000D01*
X-632636Y90000D02*
Y100160D01*
Y79840D02*
Y90000D01*
Y79840D02*
X-624000D01*
X-54160Y548364D02*
Y557000D01*
Y548364D02*
X-44000D01*
X-33840D01*
Y557000D01*
Y577320D02*
Y585956D01*
X-44000D02*
X-33840D01*
X-54160D02*
X-44000D01*
X-54160Y577320D02*
Y585956D01*
D55*
X-426382Y712142D02*
X-410634D01*
X-426382Y727382D02*
X-410634D01*
X25350Y142512D02*
Y151148D01*
X12650Y142512D02*
Y151148D01*
X59650Y420082D02*
Y428718D01*
X72350Y420082D02*
Y428718D01*
Y377682D02*
Y386318D01*
X59650Y377682D02*
Y386318D01*
Y535082D02*
Y543718D01*
X72350Y535082D02*
Y543718D01*
X59650Y652512D02*
Y661148D01*
X72350Y652512D02*
Y661148D01*
X59650Y605082D02*
Y613718D01*
X72350Y605082D02*
Y613718D01*
X-619318Y150350D02*
X-610682D01*
X-619318Y137650D02*
X-610682D01*
X-284650Y544682D02*
Y553318D01*
X-297350Y544682D02*
Y553318D01*
X58650Y143082D02*
Y151718D01*
X71350Y143082D02*
Y151718D01*
X72350Y306512D02*
Y315148D01*
X59650Y306512D02*
Y315148D01*
Y262082D02*
Y270718D01*
X72350Y262082D02*
Y270718D01*
X59650Y490082D02*
Y498718D01*
X72350Y490082D02*
Y498718D01*
D56*
X-894442Y877800D02*
X-888600D01*
X-894696Y776200D02*
X-888600D01*
D57*
X-580269Y523000D02*
D03*
X-521931Y719000D02*
D03*
D58*
X-695000Y652731D02*
D03*
X-293000Y707169D02*
D03*
M02*
