G04 Layer_Physical_Order=1*
G04 Layer_Color=255*
%FSLAX25Y25*%
%MOIN*%
G70*
G01*
G75*
%ADD10C,0.01969*%
%ADD11C,0.03937*%
%ADD12C,0.11811*%
%ADD13O,0.09000X0.06000*%
%ADD14R,0.09000X0.06000*%
%ADD15C,0.07000*%
%ADD16O,0.10000X0.06000*%
%ADD17R,0.10000X0.06000*%
%ADD18C,0.06000*%
%ADD19C,0.05906*%
%ADD20R,0.05906X0.05906*%
%ADD21C,0.02362*%
%ADD22C,0.05118*%
G36*
X234816Y1405D02*
X1405D01*
Y140327D01*
X234816D01*
Y1405D01*
D02*
G37*
%LPC*%
G36*
X77252Y57784D02*
X76030Y57624D01*
X74891Y57152D01*
X73913Y56402D01*
X73163Y55424D01*
X72691Y54285D01*
X72531Y53063D01*
X72691Y51841D01*
X73163Y50702D01*
X73913Y49724D01*
X74891Y48974D01*
X76030Y48502D01*
X77252Y48342D01*
X78474Y48502D01*
X79613Y48974D01*
X80591Y49724D01*
X81341Y50702D01*
X81813Y51841D01*
X81973Y53063D01*
X81813Y54285D01*
X81341Y55424D01*
X80591Y56402D01*
X79613Y57152D01*
X78474Y57624D01*
X77252Y57784D01*
D02*
G37*
G36*
X47252Y56784D02*
X46030Y56624D01*
X44891Y56152D01*
X43913Y55402D01*
X43163Y54424D01*
X42691Y53285D01*
X42531Y52063D01*
X42691Y50841D01*
X43163Y49702D01*
X43913Y48724D01*
X44891Y47974D01*
X46030Y47502D01*
X47252Y47341D01*
X48474Y47502D01*
X49613Y47974D01*
X50591Y48724D01*
X51341Y49702D01*
X51813Y50841D01*
X51973Y52063D01*
X51813Y53285D01*
X51341Y54424D01*
X50591Y55402D01*
X49613Y56152D01*
X48474Y56624D01*
X47252Y56784D01*
D02*
G37*
G36*
X11827Y50681D02*
X8374D01*
Y47228D01*
X11827D01*
Y50681D01*
D02*
G37*
G36*
X88252Y57784D02*
X87030Y57624D01*
X85891Y57152D01*
X84913Y56402D01*
X84163Y55424D01*
X83691Y54285D01*
X83530Y53063D01*
X83691Y51841D01*
X84163Y50702D01*
X84913Y49724D01*
X85891Y48974D01*
X87030Y48502D01*
X88252Y48342D01*
X89474Y48502D01*
X90613Y48974D01*
X91591Y49724D01*
X92341Y50702D01*
X92813Y51841D01*
X92974Y53063D01*
X92813Y54285D01*
X92341Y55424D01*
X91591Y56402D01*
X90613Y57152D01*
X89474Y57624D01*
X88252Y57784D01*
D02*
G37*
G36*
X7374Y55134D02*
X3921D01*
Y51681D01*
X7374D01*
Y55134D01*
D02*
G37*
G36*
X120965Y54326D02*
X119965D01*
Y50791D01*
X124933D01*
X124862Y51336D01*
X124459Y52309D01*
X123817Y53144D01*
X122982Y53785D01*
X122009Y54188D01*
X120965Y54326D01*
D02*
G37*
G36*
X118965D02*
X117965D01*
X116920Y54188D01*
X115947Y53785D01*
X115112Y53144D01*
X114471Y52309D01*
X114067Y51336D01*
X113996Y50791D01*
X118965D01*
Y54326D01*
D02*
G37*
G36*
X150965Y54509D02*
X147965D01*
X146873Y54365D01*
X145856Y53944D01*
X144983Y53273D01*
X144312Y52400D01*
X143891Y51383D01*
X143747Y50291D01*
X143891Y49200D01*
X144312Y48183D01*
X144983Y47309D01*
X145856Y46639D01*
X146873Y46218D01*
X147965Y46074D01*
X150965D01*
X152056Y46218D01*
X153073Y46639D01*
X153947Y47309D01*
X154617Y48183D01*
X155038Y49200D01*
X155182Y50291D01*
X155038Y51383D01*
X154617Y52400D01*
X153947Y53273D01*
X153073Y53944D01*
X152056Y54365D01*
X150965Y54509D01*
D02*
G37*
G36*
Y44326D02*
X149965D01*
Y40791D01*
X154933D01*
X154862Y41336D01*
X154459Y42309D01*
X153817Y43144D01*
X152982Y43785D01*
X152009Y44188D01*
X150965Y44326D01*
D02*
G37*
G36*
X148965D02*
X147965D01*
X146920Y44188D01*
X145947Y43785D01*
X145112Y43144D01*
X144471Y42309D01*
X144068Y41336D01*
X143996Y40791D01*
X148965D01*
Y44326D01*
D02*
G37*
G36*
X118965Y49791D02*
X113996D01*
X114067Y49247D01*
X114471Y48274D01*
X115112Y47438D01*
X115947Y46797D01*
X116920Y46394D01*
X117965Y46257D01*
X118965D01*
Y49791D01*
D02*
G37*
G36*
X7374Y50681D02*
X3921D01*
Y47228D01*
X7374D01*
Y50681D01*
D02*
G37*
G36*
X232480Y55315D02*
X224213D01*
Y47047D01*
X232480D01*
Y55315D01*
D02*
G37*
G36*
X124933Y49791D02*
X119965D01*
Y46257D01*
X120965D01*
X122009Y46394D01*
X122982Y46797D01*
X123817Y47438D01*
X124459Y48274D01*
X124862Y49247D01*
X124933Y49791D01*
D02*
G37*
G36*
X11827Y55134D02*
X8374D01*
Y51681D01*
X11827D01*
Y55134D01*
D02*
G37*
G36*
X7374Y65102D02*
X6842Y65032D01*
X5881Y64634D01*
X5055Y64000D01*
X4421Y63174D01*
X4023Y62213D01*
X3953Y61681D01*
X7374D01*
Y65102D01*
D02*
G37*
G36*
X125500Y65473D02*
Y61500D01*
X129473D01*
X129384Y62175D01*
X128931Y63269D01*
X128209Y64209D01*
X127269Y64931D01*
X126175Y65384D01*
X125500Y65473D01*
D02*
G37*
G36*
X124500D02*
X123825Y65384D01*
X122731Y64931D01*
X121791Y64209D01*
X121069Y63269D01*
X120616Y62175D01*
X120527Y61500D01*
X124500D01*
Y65473D01*
D02*
G37*
G36*
X8374Y65102D02*
Y61681D01*
X11795D01*
X11725Y62213D01*
X11327Y63174D01*
X10693Y64000D01*
X9867Y64634D01*
X8906Y65032D01*
X8374Y65102D01*
D02*
G37*
G36*
X175412Y75280D02*
X174320Y75137D01*
X173303Y74715D01*
X172430Y74045D01*
X171760Y73172D01*
X171338Y72154D01*
X171195Y71063D01*
X171338Y69972D01*
X171760Y68954D01*
X172430Y68081D01*
X173303Y67411D01*
X174320Y66989D01*
X175412Y66846D01*
X176503Y66989D01*
X177521Y67411D01*
X178394Y68081D01*
X179064Y68954D01*
X179485Y69972D01*
X179629Y71063D01*
X179485Y72154D01*
X179064Y73172D01*
X178394Y74045D01*
X177521Y74715D01*
X176503Y75137D01*
X175412Y75280D01*
D02*
G37*
G36*
X228847Y65102D02*
Y61681D01*
X232267D01*
X232197Y62213D01*
X231799Y63174D01*
X231166Y64000D01*
X230340Y64634D01*
X229378Y65032D01*
X228847Y65102D01*
D02*
G37*
G36*
X227847D02*
X227315Y65032D01*
X226353Y64634D01*
X225527Y64000D01*
X224894Y63174D01*
X224495Y62213D01*
X224425Y61681D01*
X227847D01*
Y65102D01*
D02*
G37*
G36*
X7374Y60681D02*
X3953D01*
X4023Y60149D01*
X4421Y59188D01*
X5055Y58362D01*
X5881Y57728D01*
X6842Y57330D01*
X7374Y57260D01*
Y60681D01*
D02*
G37*
G36*
X129473Y60500D02*
X125500D01*
Y56527D01*
X126175Y56616D01*
X127269Y57069D01*
X128209Y57791D01*
X128931Y58731D01*
X129384Y59825D01*
X129473Y60500D01*
D02*
G37*
G36*
X124500D02*
X120527D01*
X120616Y59825D01*
X121069Y58731D01*
X121791Y57791D01*
X122731Y57069D01*
X123825Y56616D01*
X124500Y56527D01*
Y60500D01*
D02*
G37*
G36*
X11795Y60681D02*
X8374D01*
Y57260D01*
X8906Y57330D01*
X9867Y57728D01*
X10693Y58362D01*
X11327Y59188D01*
X11725Y60149D01*
X11795Y60681D01*
D02*
G37*
G36*
X32000Y66721D02*
X30778Y66561D01*
X29639Y66089D01*
X28661Y65339D01*
X27911Y64361D01*
X27439Y63222D01*
X27279Y62000D01*
X27439Y60778D01*
X27911Y59639D01*
X28661Y58661D01*
X29639Y57911D01*
X30778Y57439D01*
X32000Y57279D01*
X33222Y57439D01*
X34361Y57911D01*
X35339Y58661D01*
X36089Y59639D01*
X36561Y60778D01*
X36722Y62000D01*
X36561Y63222D01*
X36089Y64361D01*
X35339Y65339D01*
X34361Y66089D01*
X33222Y66561D01*
X32000Y66721D01*
D02*
G37*
G36*
X232267Y60681D02*
X228847D01*
Y57260D01*
X229378Y57330D01*
X230340Y57728D01*
X231166Y58362D01*
X231799Y59188D01*
X232197Y60149D01*
X232267Y60681D01*
D02*
G37*
G36*
X227847D02*
X224425D01*
X224495Y60149D01*
X224894Y59188D01*
X225527Y58362D01*
X226353Y57728D01*
X227315Y57330D01*
X227847Y57260D01*
Y60681D01*
D02*
G37*
G36*
X173000Y22722D02*
X171778Y22561D01*
X170639Y22089D01*
X169661Y21339D01*
X168911Y20361D01*
X168439Y19222D01*
X168279Y18000D01*
X168439Y16778D01*
X168911Y15639D01*
X169661Y14661D01*
X170639Y13911D01*
X171778Y13439D01*
X173000Y13279D01*
X174222Y13439D01*
X175361Y13911D01*
X176339Y14661D01*
X177089Y15639D01*
X177561Y16778D01*
X177722Y18000D01*
X177561Y19222D01*
X177089Y20361D01*
X176339Y21339D01*
X175361Y22089D01*
X174222Y22561D01*
X173000Y22722D01*
D02*
G37*
G36*
X162000D02*
X160778Y22561D01*
X159639Y22089D01*
X158661Y21339D01*
X157911Y20361D01*
X157439Y19222D01*
X157279Y18000D01*
X157439Y16778D01*
X157911Y15639D01*
X158661Y14661D01*
X159639Y13911D01*
X160778Y13439D01*
X162000Y13279D01*
X163222Y13439D01*
X164361Y13911D01*
X165339Y14661D01*
X166089Y15639D01*
X166561Y16778D01*
X166721Y18000D01*
X166561Y19222D01*
X166089Y20361D01*
X165339Y21339D01*
X164361Y22089D01*
X163222Y22561D01*
X162000Y22722D01*
D02*
G37*
G36*
X47252Y21784D02*
X46030Y21624D01*
X44891Y21152D01*
X43913Y20402D01*
X43163Y19424D01*
X42691Y18285D01*
X42531Y17063D01*
X42691Y15841D01*
X43163Y14702D01*
X43913Y13724D01*
X44891Y12974D01*
X46030Y12502D01*
X47252Y12342D01*
X48474Y12502D01*
X49613Y12974D01*
X50591Y13724D01*
X51341Y14702D01*
X51813Y15841D01*
X51973Y17063D01*
X51813Y18285D01*
X51341Y19424D01*
X50591Y20402D01*
X49613Y21152D01*
X48474Y21624D01*
X47252Y21784D01*
D02*
G37*
G36*
X77252Y22784D02*
X76030Y22624D01*
X74891Y22152D01*
X73913Y21402D01*
X73163Y20424D01*
X72691Y19285D01*
X72531Y18063D01*
X72691Y16841D01*
X73163Y15702D01*
X73913Y14724D01*
X74891Y13974D01*
X76030Y13502D01*
X77252Y13341D01*
X78474Y13502D01*
X79613Y13974D01*
X80591Y14724D01*
X81341Y15702D01*
X81813Y16841D01*
X81973Y18063D01*
X81813Y19285D01*
X81341Y20424D01*
X80591Y21402D01*
X79613Y22152D01*
X78474Y22624D01*
X77252Y22784D01*
D02*
G37*
G36*
X61500Y23660D02*
X58031D01*
X58103Y23116D01*
X58506Y22143D01*
X59147Y21307D01*
X59983Y20666D01*
X60956Y20263D01*
X61500Y20191D01*
Y23660D01*
D02*
G37*
G36*
X155146Y24472D02*
X143783D01*
Y16110D01*
X155146D01*
Y24472D01*
D02*
G37*
G36*
X88252Y22784D02*
X87030Y22624D01*
X85891Y22152D01*
X84913Y21402D01*
X84163Y20424D01*
X83691Y19285D01*
X83530Y18063D01*
X83691Y16841D01*
X84163Y15702D01*
X84913Y14724D01*
X85891Y13974D01*
X87030Y13502D01*
X88252Y13341D01*
X89474Y13502D01*
X90613Y13974D01*
X91591Y14724D01*
X92341Y15702D01*
X92813Y16841D01*
X92974Y18063D01*
X92813Y19285D01*
X92341Y20424D01*
X91591Y21402D01*
X90613Y22152D01*
X89474Y22624D01*
X88252Y22784D01*
D02*
G37*
G36*
X149473Y7500D02*
X145500D01*
Y3527D01*
X146175Y3616D01*
X147269Y4069D01*
X148209Y4791D01*
X148931Y5731D01*
X149384Y6825D01*
X149473Y7500D01*
D02*
G37*
G36*
X144500D02*
X140527D01*
X140616Y6825D01*
X141069Y5731D01*
X141791Y4791D01*
X142731Y4069D01*
X143825Y3616D01*
X144500Y3527D01*
Y7500D01*
D02*
G37*
G36*
X120965Y24509D02*
X117965D01*
X116873Y24365D01*
X115856Y23944D01*
X114983Y23273D01*
X114312Y22400D01*
X113891Y21383D01*
X113747Y20291D01*
X113891Y19200D01*
X114312Y18183D01*
X114983Y17309D01*
X115856Y16639D01*
X115957Y16598D01*
X116042Y16314D01*
X116143Y15810D01*
X116275Y14380D01*
X116288Y13731D01*
Y13535D01*
X116396Y12713D01*
X116713Y11947D01*
X117218Y11289D01*
X119322Y9185D01*
X119691Y8797D01*
X120038Y8379D01*
X120149Y8225D01*
X120232Y8092D01*
X120279Y8004D01*
X120279Y8000D01*
X120439Y6778D01*
X120911Y5639D01*
X121661Y4661D01*
X122639Y3911D01*
X123778Y3439D01*
X125000Y3278D01*
X126222Y3439D01*
X127361Y3911D01*
X128339Y4661D01*
X129089Y5639D01*
X129561Y6778D01*
X129721Y8000D01*
X129561Y9222D01*
X129089Y10361D01*
X128339Y11339D01*
X127361Y12089D01*
X126222Y12561D01*
X125000Y12721D01*
X124996Y12721D01*
X124908Y12767D01*
X124775Y12851D01*
X124630Y12956D01*
X123954Y13539D01*
X123940Y13553D01*
X122681Y14811D01*
X122704Y15150D01*
X122783Y15792D01*
X122887Y16314D01*
X122973Y16598D01*
X123073Y16639D01*
X123947Y17309D01*
X124617Y18183D01*
X125038Y19200D01*
X125182Y20291D01*
X125038Y21383D01*
X124617Y22400D01*
X123947Y23273D01*
X123073Y23944D01*
X122056Y24365D01*
X120965Y24509D01*
D02*
G37*
G36*
X11811Y18932D02*
X10422Y18795D01*
X9086Y18390D01*
X7855Y17732D01*
X6776Y16846D01*
X5890Y15767D01*
X5232Y14536D01*
X4827Y13200D01*
X4690Y11811D01*
X4827Y10422D01*
X5232Y9086D01*
X5890Y7855D01*
X6776Y6776D01*
X7855Y5890D01*
X9086Y5232D01*
X10422Y4827D01*
X11811Y4690D01*
X13200Y4827D01*
X14536Y5232D01*
X15767Y5890D01*
X16846Y6776D01*
X17732Y7855D01*
X18390Y9086D01*
X18795Y10422D01*
X18932Y11811D01*
X18795Y13200D01*
X18390Y14536D01*
X17732Y15767D01*
X16846Y16846D01*
X15767Y17732D01*
X14536Y18390D01*
X13200Y18795D01*
X11811Y18932D01*
D02*
G37*
G36*
X145500Y12473D02*
Y8500D01*
X149473D01*
X149384Y9175D01*
X148931Y10269D01*
X148209Y11209D01*
X147269Y11931D01*
X146175Y12384D01*
X145500Y12473D01*
D02*
G37*
G36*
X144500D02*
X143825Y12384D01*
X142731Y11931D01*
X141791Y11209D01*
X141069Y10269D01*
X140616Y9175D01*
X140527Y8500D01*
X144500D01*
Y12473D01*
D02*
G37*
G36*
X224410Y18932D02*
X223020Y18795D01*
X221684Y18390D01*
X220453Y17732D01*
X219374Y16846D01*
X218489Y15767D01*
X217831Y14536D01*
X217425Y13200D01*
X217288Y11811D01*
X217425Y10422D01*
X217831Y9086D01*
X218489Y7855D01*
X219374Y6776D01*
X220453Y5890D01*
X221684Y5232D01*
X223020Y4827D01*
X224410Y4690D01*
X225799Y4827D01*
X227134Y5232D01*
X228366Y5890D01*
X229445Y6776D01*
X230330Y7855D01*
X230988Y9086D01*
X231394Y10422D01*
X231530Y11811D01*
X231394Y13200D01*
X230988Y14536D01*
X230330Y15767D01*
X229445Y16846D01*
X228366Y17732D01*
X227134Y18390D01*
X225799Y18795D01*
X224410Y18932D01*
D02*
G37*
G36*
X65969Y23660D02*
X62500D01*
Y20191D01*
X63044Y20263D01*
X64017Y20666D01*
X64853Y21307D01*
X65494Y22143D01*
X65897Y23116D01*
X65969Y23660D01*
D02*
G37*
G36*
X154933Y39791D02*
X149965D01*
Y36257D01*
X150965D01*
X152009Y36394D01*
X152982Y36797D01*
X153817Y37438D01*
X154459Y38274D01*
X154862Y39247D01*
X154933Y39791D01*
D02*
G37*
G36*
X148965D02*
X143996D01*
X144068Y39247D01*
X144471Y38274D01*
X145112Y37438D01*
X145947Y36797D01*
X146920Y36394D01*
X147965Y36257D01*
X148965D01*
Y39791D01*
D02*
G37*
G36*
X120965Y44508D02*
X117965D01*
X116873Y44365D01*
X115856Y43944D01*
X114983Y43273D01*
X114312Y42400D01*
X113891Y41383D01*
X113747Y40291D01*
X113891Y39200D01*
X114312Y38183D01*
X114983Y37309D01*
X115856Y36639D01*
X116873Y36218D01*
X117965Y36074D01*
X120965D01*
X122056Y36218D01*
X123073Y36639D01*
X123947Y37309D01*
X124617Y38183D01*
X125038Y39200D01*
X125182Y40291D01*
X125038Y41383D01*
X124617Y42400D01*
X123947Y43273D01*
X123073Y43944D01*
X122056Y44365D01*
X120965Y44508D01*
D02*
G37*
G36*
X62000Y48057D02*
X60909Y47914D01*
X59891Y47492D01*
X59018Y46822D01*
X58348Y45949D01*
X57926Y44932D01*
X57783Y43840D01*
X57926Y42748D01*
X58348Y41731D01*
X59018Y40858D01*
X59891Y40188D01*
X60909Y39766D01*
X62000Y39623D01*
X63091Y39766D01*
X64109Y40188D01*
X64982Y40858D01*
X65652Y41731D01*
X66074Y42748D01*
X66217Y43840D01*
X66074Y44932D01*
X65652Y45949D01*
X64982Y46822D01*
X64109Y47492D01*
X63091Y47914D01*
X62000Y48057D01*
D02*
G37*
G36*
X103252Y49120D02*
X102161Y48976D01*
X101143Y48555D01*
X100270Y47885D01*
X99600Y47012D01*
X99178Y45994D01*
X99035Y44903D01*
X99178Y43812D01*
X99600Y42794D01*
X100270Y41921D01*
X101143Y41251D01*
X102161Y40830D01*
X103252Y40686D01*
X104343Y40830D01*
X105360Y41251D01*
X106234Y41921D01*
X106904Y42794D01*
X107325Y43812D01*
X107469Y44903D01*
X107325Y45994D01*
X106904Y47012D01*
X106234Y47885D01*
X105360Y48555D01*
X104343Y48976D01*
X103252Y49120D01*
D02*
G37*
G36*
X32252D02*
X31161Y48976D01*
X30143Y48555D01*
X29270Y47885D01*
X28600Y47012D01*
X28179Y45994D01*
X28035Y44903D01*
X28179Y43812D01*
X28600Y42794D01*
X29270Y41921D01*
X30143Y41251D01*
X31161Y40830D01*
X32252Y40686D01*
X33343Y40830D01*
X34361Y41251D01*
X35234Y41921D01*
X35904Y42794D01*
X36325Y43812D01*
X36469Y44903D01*
X36325Y45994D01*
X35904Y47012D01*
X35234Y47885D01*
X34361Y48555D01*
X33343Y48976D01*
X32252Y49120D01*
D02*
G37*
G36*
X201231Y48881D02*
X188869D01*
Y40519D01*
X201231D01*
Y48881D01*
D02*
G37*
G36*
X61500Y28129D02*
X60956Y28057D01*
X59983Y27654D01*
X59147Y27013D01*
X58506Y26177D01*
X58103Y25204D01*
X58031Y24660D01*
X61500D01*
Y28129D01*
D02*
G37*
G36*
X96200Y65572D02*
X95224Y65444D01*
X94314Y65067D01*
X93533Y64468D01*
X92933Y63686D01*
X92556Y62776D01*
X92428Y61800D01*
X92556Y60824D01*
X92933Y59914D01*
X93533Y59132D01*
X93579Y59097D01*
X93650Y59021D01*
X93724Y58928D01*
X93788Y58832D01*
X93843Y58730D01*
X93891Y58621D01*
X93932Y58503D01*
X93965Y58373D01*
X93990Y58231D01*
X93992Y58205D01*
Y32275D01*
X94160Y31430D01*
X94639Y30714D01*
X98604Y26749D01*
X98653Y26685D01*
X98745Y26545D01*
X98824Y26398D01*
X98891Y26242D01*
X98946Y26075D01*
X98991Y25896D01*
X99023Y25701D01*
X99042Y25491D01*
X99046Y25310D01*
X99035Y25223D01*
X99178Y24132D01*
X99600Y23114D01*
X100270Y22241D01*
X101143Y21571D01*
X102161Y21149D01*
X103252Y21006D01*
X104343Y21149D01*
X105360Y21571D01*
X106234Y22241D01*
X106904Y23114D01*
X107325Y24132D01*
X107469Y25223D01*
X107325Y26314D01*
X106904Y27332D01*
X106234Y28205D01*
X105360Y28875D01*
X104343Y29296D01*
X103252Y29440D01*
X103165Y29429D01*
X102984Y29433D01*
X102774Y29452D01*
X102579Y29484D01*
X102400Y29528D01*
X102233Y29584D01*
X102077Y29651D01*
X101930Y29730D01*
X101790Y29822D01*
X101726Y29871D01*
X98408Y33189D01*
Y58205D01*
X98410Y58231D01*
X98435Y58373D01*
X98468Y58503D01*
X98509Y58621D01*
X98557Y58730D01*
X98612Y58832D01*
X98676Y58928D01*
X98750Y59021D01*
X98821Y59097D01*
X98867Y59132D01*
X99467Y59914D01*
X99844Y60824D01*
X99972Y61800D01*
X99844Y62776D01*
X99467Y63686D01*
X98867Y64468D01*
X98086Y65067D01*
X97176Y65444D01*
X96200Y65572D01*
D02*
G37*
G36*
X32252Y29440D02*
X31161Y29296D01*
X30143Y28875D01*
X29270Y28205D01*
X28600Y27332D01*
X28179Y26314D01*
X28035Y25223D01*
X28179Y24132D01*
X28600Y23114D01*
X29270Y22241D01*
X30143Y21571D01*
X31161Y21149D01*
X32252Y21006D01*
X33343Y21149D01*
X34361Y21571D01*
X35234Y22241D01*
X35904Y23114D01*
X36325Y24132D01*
X36469Y25223D01*
X36325Y26314D01*
X35904Y27332D01*
X35234Y28205D01*
X34361Y28875D01*
X33343Y29296D01*
X32252Y29440D01*
D02*
G37*
G36*
X62500Y28129D02*
Y24660D01*
X65969D01*
X65897Y25204D01*
X65494Y26177D01*
X64853Y27013D01*
X64017Y27654D01*
X63044Y28057D01*
X62500Y28129D01*
D02*
G37*
G36*
X196950Y35517D02*
X192950D01*
X191858Y35373D01*
X190841Y34952D01*
X189968Y34282D01*
X189298Y33409D01*
X188876Y32392D01*
X188733Y31300D01*
X188876Y30209D01*
X189298Y29191D01*
X189968Y28318D01*
X190841Y27648D01*
X191858Y27226D01*
X192950Y27083D01*
X196950D01*
X198041Y27226D01*
X199059Y27648D01*
X199932Y28318D01*
X200602Y29191D01*
X201024Y30209D01*
X201167Y31300D01*
X201024Y32392D01*
X200602Y33409D01*
X199932Y34282D01*
X199059Y34952D01*
X198041Y35373D01*
X196950Y35517D01*
D02*
G37*
G36*
X150965Y34508D02*
X147965D01*
X146873Y34365D01*
X145856Y33944D01*
X144983Y33273D01*
X144312Y32400D01*
X143891Y31383D01*
X143747Y30291D01*
X143891Y29200D01*
X144312Y28183D01*
X144983Y27309D01*
X145856Y26639D01*
X146873Y26218D01*
X147965Y26074D01*
X150965D01*
X152056Y26218D01*
X153073Y26639D01*
X153947Y27309D01*
X154617Y28183D01*
X155038Y29200D01*
X155182Y30291D01*
X155038Y31383D01*
X154617Y32400D01*
X153947Y33273D01*
X153073Y33944D01*
X152056Y34365D01*
X150965Y34508D01*
D02*
G37*
G36*
X120965D02*
X117965D01*
X116873Y34365D01*
X115856Y33944D01*
X114983Y33273D01*
X114312Y32400D01*
X113891Y31383D01*
X113747Y30291D01*
X113891Y29200D01*
X114312Y28183D01*
X114983Y27309D01*
X115856Y26639D01*
X116873Y26218D01*
X117965Y26074D01*
X120965D01*
X122056Y26218D01*
X123073Y26639D01*
X123947Y27309D01*
X124617Y28183D01*
X125038Y29200D01*
X125182Y30291D01*
X125038Y31383D01*
X124617Y32400D01*
X123947Y33273D01*
X123073Y33944D01*
X122056Y34365D01*
X120965Y34508D01*
D02*
G37*
G36*
X175357Y120123D02*
X174265Y119979D01*
X173248Y119558D01*
X172375Y118887D01*
X171705Y118014D01*
X171283Y116997D01*
X171140Y115905D01*
X171283Y114814D01*
X171705Y113797D01*
X172375Y112924D01*
X173248Y112253D01*
X174265Y111832D01*
X175357Y111688D01*
X176448Y111832D01*
X177465Y112253D01*
X178339Y112924D01*
X179009Y113797D01*
X179430Y114814D01*
X179574Y115905D01*
X179430Y116997D01*
X179009Y118014D01*
X178339Y118887D01*
X177465Y119558D01*
X176448Y119979D01*
X175357Y120123D01*
D02*
G37*
G36*
X50000Y120057D02*
X48908Y119913D01*
X47891Y119492D01*
X47018Y118822D01*
X46348Y117949D01*
X45926Y116931D01*
X45783Y115840D01*
X45926Y114749D01*
X46348Y113731D01*
X47018Y112858D01*
X47891Y112188D01*
X48908Y111767D01*
X50000Y111623D01*
X51091Y111767D01*
X52109Y112188D01*
X52982Y112858D01*
X53652Y113731D01*
X54074Y114749D01*
X54217Y115840D01*
X54074Y116931D01*
X53652Y117949D01*
X52982Y118822D01*
X52109Y119492D01*
X51091Y119913D01*
X50000Y120057D01*
D02*
G37*
G36*
X151303Y112342D02*
X150303D01*
Y108807D01*
X155272D01*
X155200Y109351D01*
X154797Y110324D01*
X154156Y111160D01*
X153320Y111801D01*
X152347Y112204D01*
X151303Y112342D01*
D02*
G37*
G36*
X195037Y120123D02*
X193945Y119979D01*
X192928Y119558D01*
X192055Y118887D01*
X191385Y118014D01*
X190963Y116997D01*
X190820Y115905D01*
X190963Y114814D01*
X191385Y113797D01*
X192055Y112924D01*
X192928Y112253D01*
X193945Y111832D01*
X195037Y111688D01*
X196128Y111832D01*
X197145Y112253D01*
X198019Y112924D01*
X198689Y113797D01*
X199110Y114814D01*
X199254Y115905D01*
X199110Y116997D01*
X198689Y118014D01*
X198019Y118887D01*
X197145Y119558D01*
X196128Y119979D01*
X195037Y120123D01*
D02*
G37*
G36*
X151303Y122524D02*
X148303D01*
X147212Y122381D01*
X146195Y121959D01*
X145321Y121289D01*
X144651Y120416D01*
X144230Y119399D01*
X144086Y118307D01*
X144230Y117216D01*
X144651Y116199D01*
X145321Y115325D01*
X146195Y114655D01*
X147212Y114234D01*
X148303Y114090D01*
X151303D01*
X152395Y114234D01*
X153412Y114655D01*
X154285Y115325D01*
X154955Y116199D01*
X155377Y117216D01*
X155520Y118307D01*
X155377Y119399D01*
X154955Y120416D01*
X154285Y121289D01*
X153412Y121959D01*
X152395Y122381D01*
X151303Y122524D01*
D02*
G37*
G36*
X97092Y120280D02*
X96000Y120136D01*
X94983Y119715D01*
X94110Y119045D01*
X93440Y118172D01*
X93019Y117155D01*
X92875Y116063D01*
X93019Y114971D01*
X93440Y113954D01*
X94110Y113081D01*
X94983Y112411D01*
X96000Y111989D01*
X97092Y111846D01*
X98184Y111989D01*
X99200Y112411D01*
X100074Y113081D01*
X100744Y113954D01*
X101165Y114971D01*
X101309Y116063D01*
X101165Y117155D01*
X100744Y118172D01*
X100074Y119045D01*
X99200Y119715D01*
X98184Y120136D01*
X97092Y120280D01*
D02*
G37*
G36*
X77412D02*
X76320Y120136D01*
X75303Y119715D01*
X74430Y119045D01*
X73760Y118172D01*
X73339Y117155D01*
X73195Y116063D01*
X73339Y114971D01*
X73760Y113954D01*
X74430Y113081D01*
X75303Y112411D01*
X76320Y111989D01*
X77412Y111846D01*
X78503Y111989D01*
X79521Y112411D01*
X80394Y113081D01*
X81064Y113954D01*
X81485Y114971D01*
X81629Y116063D01*
X81485Y117155D01*
X81064Y118172D01*
X80394Y119045D01*
X79521Y119715D01*
X78503Y120136D01*
X77412Y120280D01*
D02*
G37*
G36*
X149303Y112342D02*
X148303D01*
X147259Y112204D01*
X146286Y111801D01*
X145450Y111160D01*
X144809Y110324D01*
X144406Y109351D01*
X144334Y108807D01*
X149303D01*
Y112342D01*
D02*
G37*
G36*
X49500Y100129D02*
X48956Y100057D01*
X47983Y99654D01*
X47147Y99013D01*
X46506Y98177D01*
X46103Y97204D01*
X46031Y96660D01*
X49500D01*
Y100129D01*
D02*
G37*
G36*
X151303Y102524D02*
X148303D01*
X147212Y102381D01*
X146195Y101959D01*
X145321Y101289D01*
X144651Y100416D01*
X144230Y99399D01*
X144086Y98307D01*
X144230Y97216D01*
X144651Y96198D01*
X145321Y95325D01*
X146195Y94655D01*
X147212Y94234D01*
X148303Y94090D01*
X151303D01*
X152395Y94234D01*
X153412Y94655D01*
X154285Y95325D01*
X154955Y96198D01*
X155377Y97216D01*
X155520Y98307D01*
X155377Y99399D01*
X154955Y100416D01*
X154285Y101289D01*
X153412Y101959D01*
X152395Y102381D01*
X151303Y102524D01*
D02*
G37*
G36*
X121303D02*
X118303D01*
X117212Y102381D01*
X116195Y101959D01*
X115321Y101289D01*
X114651Y100416D01*
X114230Y99399D01*
X114086Y98307D01*
X114230Y97216D01*
X114651Y96198D01*
X115321Y95325D01*
X116195Y94655D01*
X117212Y94234D01*
X118303Y94090D01*
X121303D01*
X122395Y94234D01*
X123412Y94655D01*
X124285Y95325D01*
X124955Y96198D01*
X125377Y97216D01*
X125520Y98307D01*
X125377Y99399D01*
X124955Y100416D01*
X124285Y101289D01*
X123412Y101959D01*
X122395Y102381D01*
X121303Y102524D01*
D02*
G37*
G36*
X50500Y100129D02*
Y96660D01*
X53969D01*
X53897Y97204D01*
X53494Y98177D01*
X52853Y99013D01*
X52017Y99654D01*
X51044Y100057D01*
X50500Y100129D01*
D02*
G37*
G36*
X155272Y107807D02*
X150303D01*
Y104273D01*
X151303D01*
X152347Y104410D01*
X153320Y104813D01*
X154156Y105454D01*
X154797Y106290D01*
X155200Y107263D01*
X155272Y107807D01*
D02*
G37*
G36*
X149303D02*
X144334D01*
X144406Y107263D01*
X144809Y106290D01*
X145450Y105454D01*
X146286Y104813D01*
X147259Y104410D01*
X148303Y104273D01*
X149303D01*
Y107807D01*
D02*
G37*
G36*
X121303Y112524D02*
X118303D01*
X117212Y112381D01*
X116195Y111959D01*
X115321Y111289D01*
X114651Y110416D01*
X114230Y109399D01*
X114086Y108307D01*
X114230Y107216D01*
X114651Y106199D01*
X115321Y105325D01*
X116195Y104655D01*
X117212Y104234D01*
X118303Y104090D01*
X121303D01*
X122395Y104234D01*
X123412Y104655D01*
X124285Y105325D01*
X124955Y106199D01*
X125377Y107216D01*
X125520Y108307D01*
X125377Y109399D01*
X124955Y110416D01*
X124285Y111289D01*
X123412Y111959D01*
X122395Y112381D01*
X121303Y112524D01*
D02*
G37*
G36*
X145590Y135588D02*
X144369Y135427D01*
X143230Y134955D01*
X142252Y134205D01*
X141502Y133227D01*
X141030Y132088D01*
X140869Y130866D01*
X141030Y129644D01*
X141502Y128505D01*
X142252Y127527D01*
X143230Y126777D01*
X144369Y126305D01*
X145590Y126145D01*
X146813Y126305D01*
X147951Y126777D01*
X148929Y127527D01*
X149680Y128505D01*
X150151Y129644D01*
X150312Y130866D01*
X150151Y132088D01*
X149680Y133227D01*
X148929Y134205D01*
X147951Y134955D01*
X146813Y135427D01*
X145590Y135588D01*
D02*
G37*
G36*
X224410Y137042D02*
X223020Y136905D01*
X221684Y136500D01*
X220453Y135842D01*
X219374Y134957D01*
X218489Y133877D01*
X217831Y132646D01*
X217425Y131310D01*
X217288Y129921D01*
X217425Y128532D01*
X217831Y127196D01*
X218489Y125965D01*
X219374Y124886D01*
X220453Y124001D01*
X221684Y123342D01*
X223020Y122937D01*
X224410Y122800D01*
X225799Y122937D01*
X227134Y123342D01*
X228366Y124001D01*
X229445Y124886D01*
X230330Y125965D01*
X230988Y127196D01*
X231394Y128532D01*
X231530Y129921D01*
X231394Y131310D01*
X230988Y132646D01*
X230330Y133877D01*
X229445Y134957D01*
X228366Y135842D01*
X227134Y136500D01*
X225799Y136905D01*
X224410Y137042D01*
D02*
G37*
G36*
X11811D02*
X10422Y136905D01*
X9086Y136500D01*
X7855Y135842D01*
X6776Y134957D01*
X5890Y133877D01*
X5232Y132646D01*
X4827Y131310D01*
X4690Y129921D01*
X4827Y128532D01*
X5232Y127196D01*
X5890Y125965D01*
X6776Y124886D01*
X7855Y124001D01*
X9086Y123342D01*
X10422Y122937D01*
X11811Y122800D01*
X13200Y122937D01*
X14536Y123342D01*
X15767Y124001D01*
X16846Y124886D01*
X17732Y125965D01*
X18390Y127196D01*
X18795Y128532D01*
X18932Y129921D01*
X18795Y131310D01*
X18390Y132646D01*
X17732Y133877D01*
X16846Y134957D01*
X15767Y135842D01*
X14536Y136500D01*
X13200Y136905D01*
X11811Y137042D01*
D02*
G37*
G36*
X125091Y130366D02*
X121117D01*
X121206Y129691D01*
X121660Y128597D01*
X122381Y127657D01*
X123321Y126935D01*
X124416Y126482D01*
X125091Y126393D01*
Y130366D01*
D02*
G37*
G36*
X126091Y135339D02*
Y131366D01*
X130063D01*
X129975Y132041D01*
X129521Y133136D01*
X128800Y134076D01*
X127860Y134797D01*
X126765Y135250D01*
X126091Y135339D01*
D02*
G37*
G36*
X125091D02*
X124416Y135250D01*
X123321Y134797D01*
X122381Y134076D01*
X121660Y133136D01*
X121206Y132041D01*
X121117Y131366D01*
X125091D01*
Y135339D01*
D02*
G37*
G36*
X130063Y130366D02*
X126091D01*
Y126393D01*
X126765Y126482D01*
X127860Y126935D01*
X128800Y127657D01*
X129521Y128597D01*
X129975Y129691D01*
X130063Y130366D01*
D02*
G37*
G36*
X121303Y122342D02*
X120303D01*
Y118807D01*
X125272D01*
X125200Y119351D01*
X124797Y120324D01*
X124156Y121160D01*
X123320Y121801D01*
X122347Y122204D01*
X121303Y122342D01*
D02*
G37*
G36*
X208819Y124131D02*
X207597Y123970D01*
X206458Y123498D01*
X205480Y122748D01*
X204730Y121770D01*
X204258Y120632D01*
X204097Y119409D01*
X204258Y118187D01*
X204730Y117049D01*
X205480Y116071D01*
X206458Y115321D01*
X207597Y114849D01*
X208819Y114688D01*
X210041Y114849D01*
X211180Y115321D01*
X212158Y116071D01*
X212908Y117049D01*
X213380Y118187D01*
X213540Y119409D01*
X213380Y120632D01*
X212908Y121770D01*
X212158Y122748D01*
X211180Y123498D01*
X210041Y123970D01*
X208819Y124131D01*
D02*
G37*
G36*
X125272Y117807D02*
X120303D01*
Y114273D01*
X121303D01*
X122347Y114410D01*
X123320Y114813D01*
X124156Y115454D01*
X124797Y116290D01*
X125200Y117263D01*
X125272Y117807D01*
D02*
G37*
G36*
X119303D02*
X114334D01*
X114406Y117263D01*
X114809Y116290D01*
X115450Y115454D01*
X116286Y114813D01*
X117259Y114410D01*
X118303Y114273D01*
X119303D01*
Y117807D01*
D02*
G37*
G36*
X161575Y124564D02*
X160353Y124403D01*
X159214Y123931D01*
X158236Y123181D01*
X157486Y122203D01*
X157014Y121064D01*
X156853Y119843D01*
X157014Y118621D01*
X157486Y117482D01*
X158236Y116504D01*
X159214Y115754D01*
X160353Y115282D01*
X161575Y115121D01*
X162797Y115282D01*
X163935Y115754D01*
X164913Y116504D01*
X165664Y117482D01*
X166135Y118621D01*
X166296Y119843D01*
X166135Y121064D01*
X165664Y122203D01*
X164913Y123181D01*
X163935Y123931D01*
X162797Y124403D01*
X161575Y124564D01*
D02*
G37*
G36*
X119303Y122342D02*
X118303D01*
X117259Y122204D01*
X116286Y121801D01*
X115450Y121160D01*
X114809Y120324D01*
X114406Y119351D01*
X114334Y118807D01*
X119303D01*
Y122342D01*
D02*
G37*
G36*
X66000Y126722D02*
X64778Y126561D01*
X63639Y126089D01*
X62661Y125339D01*
X61911Y124361D01*
X61439Y123222D01*
X61278Y122000D01*
X61439Y120778D01*
X61911Y119639D01*
X62661Y118661D01*
X63639Y117911D01*
X64778Y117439D01*
X66000Y117279D01*
X67222Y117439D01*
X68361Y117911D01*
X69339Y118661D01*
X70089Y119639D01*
X70561Y120778D01*
X70722Y122000D01*
X70561Y123222D01*
X70089Y124361D01*
X69339Y125339D01*
X68361Y126089D01*
X67222Y126561D01*
X66000Y126722D01*
D02*
G37*
G36*
X108252Y125785D02*
X107030Y125624D01*
X105891Y125152D01*
X104913Y124402D01*
X104163Y123424D01*
X103691Y122285D01*
X103531Y121063D01*
X103691Y119841D01*
X104163Y118702D01*
X104913Y117724D01*
X105891Y116974D01*
X107030Y116502D01*
X108252Y116341D01*
X109474Y116502D01*
X110613Y116974D01*
X111591Y117724D01*
X112341Y118702D01*
X112813Y119841D01*
X112973Y121063D01*
X112813Y122285D01*
X112341Y123424D01*
X111591Y124402D01*
X110613Y125152D01*
X109474Y125624D01*
X108252Y125785D01*
D02*
G37*
G36*
X32000Y101722D02*
X30778Y101561D01*
X29639Y101089D01*
X28661Y100339D01*
X27911Y99361D01*
X27439Y98222D01*
X27279Y97000D01*
X27439Y95778D01*
X27911Y94639D01*
X28661Y93661D01*
X29639Y92911D01*
X30778Y92439D01*
X32000Y92278D01*
X33222Y92439D01*
X34361Y92911D01*
X35339Y93661D01*
X36089Y94639D01*
X36561Y95778D01*
X36722Y97000D01*
X36561Y98222D01*
X36089Y99361D01*
X35339Y100339D01*
X34361Y101089D01*
X33222Y101561D01*
X32000Y101722D01*
D02*
G37*
G36*
X208319Y83909D02*
X204346D01*
X204435Y83235D01*
X204888Y82140D01*
X205609Y81200D01*
X206550Y80479D01*
X207644Y80025D01*
X208319Y79936D01*
Y83909D01*
D02*
G37*
G36*
X232267Y80681D02*
X228847D01*
Y77260D01*
X229378Y77330D01*
X230340Y77728D01*
X231166Y78362D01*
X231799Y79188D01*
X232197Y80149D01*
X232267Y80681D01*
D02*
G37*
G36*
X227847D02*
X224425D01*
X224495Y80149D01*
X224894Y79188D01*
X225527Y78362D01*
X226353Y77728D01*
X227315Y77330D01*
X227847Y77260D01*
Y80681D01*
D02*
G37*
G36*
X108252Y90785D02*
X107030Y90624D01*
X105891Y90152D01*
X104913Y89402D01*
X104163Y88424D01*
X103691Y87285D01*
X103531Y86063D01*
X103691Y84841D01*
X104163Y83702D01*
X104913Y82724D01*
X105891Y81974D01*
X107030Y81502D01*
X108252Y81341D01*
X109474Y81502D01*
X110613Y81974D01*
X111591Y82724D01*
X112341Y83702D01*
X112813Y84841D01*
X112973Y86063D01*
X112813Y87285D01*
X112341Y88424D01*
X111591Y89402D01*
X110613Y90152D01*
X109474Y90624D01*
X108252Y90785D01*
D02*
G37*
G36*
X161575Y89564D02*
X160353Y89403D01*
X159214Y88931D01*
X158236Y88181D01*
X157486Y87203D01*
X157014Y86064D01*
X156853Y84842D01*
X157014Y83621D01*
X157486Y82482D01*
X158236Y81504D01*
X159214Y80754D01*
X160353Y80282D01*
X161575Y80121D01*
X162797Y80282D01*
X163935Y80754D01*
X164913Y81504D01*
X165664Y82482D01*
X166135Y83621D01*
X166296Y84842D01*
X166135Y86064D01*
X165664Y87203D01*
X164913Y88181D01*
X163935Y88931D01*
X162797Y89403D01*
X161575Y89564D01*
D02*
G37*
G36*
X213292Y83909D02*
X209319D01*
Y79936D01*
X209994Y80025D01*
X211088Y80479D01*
X212028Y81200D01*
X212750Y82140D01*
X213203Y83235D01*
X213292Y83909D01*
D02*
G37*
G36*
X228346Y95351D02*
X227267Y95209D01*
X226466Y94877D01*
X204600D01*
X203778Y94769D01*
X203012Y94451D01*
X202354Y93946D01*
X196584Y88177D01*
X176600D01*
X175778Y88068D01*
X175012Y87751D01*
X174354Y87246D01*
X158284Y71177D01*
X148187D01*
X148027Y71650D01*
X148209Y71791D01*
X148931Y72731D01*
X149384Y73825D01*
X149473Y74500D01*
X140527D01*
X140616Y73825D01*
X141069Y72731D01*
X141791Y71791D01*
X141973Y71650D01*
X141813Y71177D01*
X133316D01*
X130678Y73815D01*
X130309Y74203D01*
X129962Y74621D01*
X129851Y74775D01*
X129768Y74908D01*
X129721Y74996D01*
X129721Y75000D01*
X129561Y76222D01*
X129089Y77361D01*
X128339Y78339D01*
X127361Y79089D01*
X126222Y79561D01*
X125000Y79721D01*
X124182Y79614D01*
X124134Y79618D01*
X124124Y79617D01*
X124068Y79640D01*
X123957Y79698D01*
X123809Y79793D01*
X123642Y79916D01*
X123189Y80306D01*
X123120Y80373D01*
X122980Y80513D01*
Y81604D01*
X122995Y82342D01*
X123049Y83156D01*
X123137Y83849D01*
X123253Y84417D01*
X123314Y84615D01*
X123412Y84655D01*
X124285Y85325D01*
X124675Y85833D01*
X124691Y85848D01*
X124700Y85866D01*
X124955Y86199D01*
X125377Y87216D01*
X125520Y88307D01*
X125377Y89399D01*
X124955Y90416D01*
X124285Y91289D01*
X123412Y91959D01*
X122395Y92381D01*
X121303Y92524D01*
X118303D01*
X117212Y92381D01*
X116195Y91959D01*
X115321Y91289D01*
X114651Y90416D01*
X114230Y89399D01*
X114086Y88307D01*
X114230Y87216D01*
X114651Y86199D01*
X114906Y85866D01*
X114915Y85848D01*
X114931Y85833D01*
X115321Y85325D01*
X116195Y84655D01*
X116292Y84615D01*
X116353Y84417D01*
X116466Y83868D01*
X116612Y82325D01*
X116626Y81604D01*
Y79197D01*
X116735Y78375D01*
X117052Y77609D01*
X117557Y76951D01*
X119473Y75034D01*
X120068Y74396D01*
X120329Y74080D01*
X120398Y73986D01*
X120416Y73958D01*
X120439Y73778D01*
X120911Y72639D01*
X121661Y71661D01*
X122639Y70911D01*
X123778Y70439D01*
X125000Y70279D01*
X125004Y70279D01*
X125092Y70232D01*
X125225Y70149D01*
X125370Y70044D01*
X126046Y69461D01*
X126060Y69447D01*
X129754Y65754D01*
X130412Y65249D01*
X131178Y64931D01*
X132000Y64823D01*
X141515D01*
X141623Y64505D01*
X141650Y64323D01*
X140911Y63361D01*
X140439Y62222D01*
X140278Y61000D01*
X140439Y59778D01*
X140911Y58639D01*
X141661Y57661D01*
X142639Y56911D01*
X143778Y56439D01*
X145000Y56279D01*
X146222Y56439D01*
X147361Y56911D01*
X148339Y57661D01*
X148341Y57665D01*
X148436Y57694D01*
X148589Y57728D01*
X148766Y57757D01*
X149657Y57823D01*
X149676Y57823D01*
X160105D01*
X160205Y57323D01*
X159639Y57089D01*
X158661Y56339D01*
X157911Y55361D01*
X157439Y54222D01*
X157279Y53000D01*
X157439Y51778D01*
X157911Y50639D01*
X158661Y49661D01*
X159639Y48911D01*
X160778Y48439D01*
X162000Y48278D01*
X163222Y48439D01*
X164361Y48911D01*
X165339Y49661D01*
X166089Y50639D01*
X166561Y51778D01*
X166721Y53000D01*
X166561Y54222D01*
X166089Y55361D01*
X165339Y56339D01*
X164361Y57089D01*
X163795Y57323D01*
X163895Y57823D01*
X171105D01*
X171205Y57323D01*
X170639Y57089D01*
X169661Y56339D01*
X168911Y55361D01*
X168439Y54222D01*
X168279Y53000D01*
X168439Y51778D01*
X168911Y50639D01*
X169661Y49661D01*
X170639Y48911D01*
X171778Y48439D01*
X173000Y48278D01*
X174222Y48439D01*
X175361Y48911D01*
X176339Y49661D01*
X177089Y50639D01*
X177561Y51778D01*
X177722Y53000D01*
X177561Y54222D01*
X177089Y55361D01*
X176339Y56339D01*
X175361Y57089D01*
X174795Y57323D01*
X174895Y57823D01*
X200400D01*
X201222Y57932D01*
X201988Y58249D01*
X202646Y58754D01*
X211897Y68004D01*
X224828D01*
X225663Y67985D01*
X225728Y67980D01*
X226262Y67570D01*
X227267Y67154D01*
X228346Y67012D01*
X229426Y67154D01*
X230431Y67570D01*
X231295Y68233D01*
X231957Y69096D01*
X232374Y70102D01*
X232516Y71181D01*
X232374Y72260D01*
X231957Y73266D01*
X231295Y74129D01*
X230431Y74792D01*
X229426Y75209D01*
X228346Y75351D01*
X227267Y75209D01*
X226262Y74792D01*
X225790Y74430D01*
X224419Y74358D01*
X210581D01*
X209759Y74250D01*
X208993Y73932D01*
X208335Y73427D01*
X199084Y64177D01*
X149853D01*
X149318Y64191D01*
X148824Y64236D01*
X148761Y64263D01*
X148720Y64323D01*
X148980Y64823D01*
X159600D01*
X160422Y64931D01*
X161188Y65249D01*
X161846Y65754D01*
X177916Y81823D01*
X197900D01*
X198722Y81932D01*
X199488Y82249D01*
X200146Y82754D01*
X204873Y87480D01*
X205249Y87150D01*
X204888Y86679D01*
X204435Y85584D01*
X204346Y84909D01*
X213292D01*
X213203Y85584D01*
X212750Y86679D01*
X212028Y87619D01*
X211501Y88023D01*
X211671Y88523D01*
X224180D01*
X224853Y88509D01*
X225207Y88482D01*
X225398Y88233D01*
X226262Y87570D01*
X227267Y87154D01*
X228346Y87012D01*
X229426Y87154D01*
X230431Y87570D01*
X231295Y88233D01*
X231957Y89096D01*
X232374Y90102D01*
X232516Y91181D01*
X232374Y92260D01*
X231957Y93266D01*
X231295Y94129D01*
X230431Y94792D01*
X229426Y95209D01*
X228346Y95351D01*
D02*
G37*
G36*
X7874Y75351D02*
X6795Y75209D01*
X5789Y74792D01*
X4926Y74129D01*
X4263Y73266D01*
X3847Y72260D01*
X3704Y71181D01*
X3847Y70102D01*
X4263Y69096D01*
X4926Y68233D01*
X5789Y67570D01*
X6795Y67154D01*
X7874Y67012D01*
X8953Y67154D01*
X9959Y67570D01*
X10822Y68233D01*
X11485Y69096D01*
X11902Y70102D01*
X12043Y71181D01*
X11902Y72260D01*
X11485Y73266D01*
X10822Y74129D01*
X9959Y74792D01*
X8953Y75209D01*
X7874Y75351D01*
D02*
G37*
G36*
X195092Y75280D02*
X194000Y75137D01*
X192983Y74715D01*
X192110Y74045D01*
X191440Y73172D01*
X191018Y72154D01*
X190875Y71063D01*
X191018Y69972D01*
X191440Y68954D01*
X192110Y68081D01*
X192983Y67411D01*
X194000Y66989D01*
X195092Y66846D01*
X196183Y66989D01*
X197201Y67411D01*
X198074Y68081D01*
X198744Y68954D01*
X199165Y69972D01*
X199309Y71063D01*
X199165Y72154D01*
X198744Y73172D01*
X198074Y74045D01*
X197201Y74715D01*
X196183Y75137D01*
X195092Y75280D01*
D02*
G37*
G36*
X7874Y85351D02*
X6795Y85209D01*
X5789Y84792D01*
X4926Y84129D01*
X4263Y83266D01*
X3847Y82260D01*
X3704Y81181D01*
X3847Y80102D01*
X4263Y79096D01*
X4926Y78233D01*
X5789Y77570D01*
X6795Y77154D01*
X7874Y77012D01*
X8953Y77154D01*
X9959Y77570D01*
X10822Y78233D01*
X11485Y79096D01*
X11902Y80102D01*
X12043Y81181D01*
X11902Y82260D01*
X11485Y83266D01*
X10822Y84129D01*
X9959Y84792D01*
X8953Y85209D01*
X7874Y85351D01*
D02*
G37*
G36*
X145500Y79473D02*
Y75500D01*
X149473D01*
X149384Y76175D01*
X148931Y77269D01*
X148209Y78209D01*
X147269Y78931D01*
X146175Y79384D01*
X145500Y79473D01*
D02*
G37*
G36*
X144500D02*
X143825Y79384D01*
X142731Y78931D01*
X141791Y78209D01*
X141069Y77269D01*
X140616Y76175D01*
X140527Y75500D01*
X144500D01*
Y79473D01*
D02*
G37*
G36*
X227847Y85102D02*
X227315Y85032D01*
X226353Y84634D01*
X225527Y84000D01*
X224894Y83175D01*
X224495Y82213D01*
X224425Y81681D01*
X227847D01*
Y85102D01*
D02*
G37*
G36*
X175412Y98280D02*
X174320Y98137D01*
X173303Y97715D01*
X172430Y97045D01*
X171760Y96172D01*
X171338Y95155D01*
X171195Y94063D01*
X171338Y92971D01*
X171760Y91954D01*
X172430Y91081D01*
X173303Y90411D01*
X174320Y89990D01*
X175412Y89846D01*
X176503Y89990D01*
X177521Y90411D01*
X178394Y91081D01*
X179064Y91954D01*
X179485Y92971D01*
X179629Y94063D01*
X179485Y95155D01*
X179064Y96172D01*
X178394Y97045D01*
X177521Y97715D01*
X176503Y98137D01*
X175412Y98280D01*
D02*
G37*
G36*
X96840Y98217D02*
X95749Y98074D01*
X94731Y97652D01*
X93858Y96982D01*
X93188Y96109D01*
X92766Y95091D01*
X92623Y94000D01*
X92766Y92909D01*
X93188Y91891D01*
X93858Y91018D01*
X94731Y90348D01*
X95749Y89926D01*
X96840Y89783D01*
X97931Y89926D01*
X98949Y90348D01*
X99822Y91018D01*
X100492Y91891D01*
X100914Y92909D01*
X101057Y94000D01*
X100914Y95091D01*
X100492Y96109D01*
X99822Y96982D01*
X98949Y97652D01*
X97931Y98074D01*
X96840Y98217D01*
D02*
G37*
G36*
X77160D02*
X76069Y98074D01*
X75051Y97652D01*
X74178Y96982D01*
X73508Y96109D01*
X73087Y95091D01*
X72943Y94000D01*
X73087Y92909D01*
X73508Y91891D01*
X74178Y91018D01*
X75051Y90348D01*
X76069Y89926D01*
X77160Y89783D01*
X78251Y89926D01*
X79269Y90348D01*
X80142Y91018D01*
X80812Y91891D01*
X81234Y92909D01*
X81377Y94000D01*
X81234Y95091D01*
X80812Y96109D01*
X80142Y96982D01*
X79269Y97652D01*
X78251Y98074D01*
X77160Y98217D01*
D02*
G37*
G36*
X53969Y95660D02*
X50500D01*
Y92191D01*
X51044Y92263D01*
X52017Y92666D01*
X52853Y93307D01*
X53494Y94143D01*
X53897Y95116D01*
X53969Y95660D01*
D02*
G37*
G36*
X49500D02*
X46031D01*
X46103Y95116D01*
X46506Y94143D01*
X47147Y93307D01*
X47983Y92666D01*
X48956Y92263D01*
X49500Y92191D01*
Y95660D01*
D02*
G37*
G36*
X195092Y98280D02*
X194000Y98137D01*
X192983Y97715D01*
X192110Y97045D01*
X191440Y96172D01*
X191018Y95155D01*
X190875Y94063D01*
X191018Y92971D01*
X191440Y91954D01*
X192110Y91081D01*
X192983Y90411D01*
X194000Y89990D01*
X195092Y89846D01*
X196183Y89990D01*
X197201Y90411D01*
X198074Y91081D01*
X198744Y91954D01*
X199165Y92971D01*
X199309Y94063D01*
X199165Y95155D01*
X198744Y96172D01*
X198074Y97045D01*
X197201Y97715D01*
X196183Y98137D01*
X195092Y98280D01*
D02*
G37*
G36*
X7874Y95351D02*
X6795Y95209D01*
X5789Y94792D01*
X4926Y94129D01*
X4263Y93266D01*
X3847Y92260D01*
X3704Y91181D01*
X3847Y90102D01*
X4263Y89096D01*
X4926Y88233D01*
X5789Y87570D01*
X6795Y87154D01*
X7874Y87012D01*
X8953Y87154D01*
X9959Y87570D01*
X10822Y88233D01*
X11485Y89096D01*
X11902Y90102D01*
X12043Y91181D01*
X11902Y92260D01*
X11485Y93266D01*
X10822Y94129D01*
X9959Y94792D01*
X8953Y95209D01*
X7874Y95351D01*
D02*
G37*
G36*
X155484Y92488D02*
X144122D01*
Y84126D01*
X155484D01*
Y92488D01*
D02*
G37*
G36*
X66000Y91721D02*
X64778Y91561D01*
X63639Y91089D01*
X62661Y90339D01*
X61911Y89361D01*
X61439Y88222D01*
X61278Y87000D01*
X61439Y85778D01*
X61911Y84639D01*
X62661Y83661D01*
X63639Y82911D01*
X64778Y82439D01*
X66000Y82279D01*
X67222Y82439D01*
X68361Y82911D01*
X69339Y83661D01*
X70089Y84639D01*
X70561Y85778D01*
X70722Y87000D01*
X70561Y88222D01*
X70089Y89361D01*
X69339Y90339D01*
X68361Y91089D01*
X67222Y91561D01*
X66000Y91721D01*
D02*
G37*
G36*
X228847Y85102D02*
Y81681D01*
X232267D01*
X232197Y82213D01*
X231799Y83175D01*
X231166Y84000D01*
X230340Y84634D01*
X229378Y85032D01*
X228847Y85102D01*
D02*
G37*
%LPD*%
G36*
X100875Y29008D02*
X101090Y28840D01*
X101316Y28693D01*
X101554Y28566D01*
X101803Y28458D01*
X102064Y28371D01*
X102336Y28304D01*
X102620Y28257D01*
X102915Y28230D01*
X103222Y28223D01*
X100252Y25253D01*
X100245Y25560D01*
X100218Y25855D01*
X100171Y26139D01*
X100104Y26411D01*
X100017Y26672D01*
X99909Y26921D01*
X99782Y27159D01*
X99634Y27385D01*
X99467Y27600D01*
X99279Y27804D01*
X100671Y29196D01*
X100875Y29008D01*
D02*
G37*
G36*
X128513Y74823D02*
X128555Y74665D01*
X128625Y74492D01*
X128724Y74305D01*
X128852Y74102D01*
X129009Y73884D01*
X129409Y73403D01*
X129923Y72861D01*
X127139Y70077D01*
X126861Y70349D01*
X126116Y70991D01*
X125898Y71148D01*
X125695Y71276D01*
X125507Y71375D01*
X125335Y71445D01*
X125177Y71487D01*
X125035Y71500D01*
X128500Y74965D01*
X128513Y74823D01*
D02*
G37*
G36*
X123359Y86523D02*
X123026Y86368D01*
X122732Y86110D01*
X122477Y85748D01*
X122261Y85284D01*
X122085Y84716D01*
X121948Y84046D01*
X121850Y83271D01*
X121791Y82394D01*
X121772Y81414D01*
X117835D01*
X117815Y82394D01*
X117658Y84046D01*
X117521Y84716D01*
X117345Y85284D01*
X117129Y85748D01*
X116875Y86110D01*
X116581Y86368D01*
X116248Y86523D01*
X115875Y86574D01*
X123731D01*
X123359Y86523D01*
D02*
G37*
G36*
X226238Y69114D02*
X226202Y69133D01*
X226132Y69150D01*
X226029Y69164D01*
X225724Y69188D01*
X224711Y69212D01*
X224374Y69213D01*
Y73150D01*
X226238Y73248D01*
Y69114D01*
D02*
G37*
G36*
X122376Y79416D02*
X122891Y78973D01*
X123128Y78799D01*
X123351Y78657D01*
X123560Y78546D01*
X123755Y78467D01*
X123937Y78420D01*
X124105Y78404D01*
X124259Y78421D01*
X121565Y74327D01*
X121536Y74418D01*
X121478Y74530D01*
X121394Y74664D01*
X121281Y74818D01*
X120974Y75190D01*
X120306Y75907D01*
X120028Y76188D01*
X122099Y79685D01*
X122376Y79416D01*
D02*
G37*
G36*
X122871Y18287D02*
X122570Y18143D01*
X122303Y17903D01*
X122072Y17567D01*
X121877Y17135D01*
X121717Y16607D01*
X121593Y15983D01*
X121504Y15263D01*
X121451Y14447D01*
X121433Y13535D01*
X117496D01*
X117478Y14447D01*
X117336Y15983D01*
X117212Y16607D01*
X117052Y17135D01*
X116857Y17567D01*
X116626Y17903D01*
X116360Y18143D01*
X116058Y18287D01*
X115720Y18335D01*
X123209D01*
X122871Y18287D01*
D02*
G37*
G36*
X226634Y93586D02*
X225907Y89517D01*
X225862Y89558D01*
X225784Y89594D01*
X225674Y89626D01*
X225532Y89654D01*
X225358Y89678D01*
X224912Y89712D01*
X224002Y89732D01*
X224984Y93669D01*
X226634Y93586D01*
D02*
G37*
G36*
X97838Y59809D02*
X97701Y59636D01*
X97580Y59454D01*
X97475Y59262D01*
X97386Y59059D01*
X97313Y58847D01*
X97257Y58626D01*
X97216Y58394D01*
X97192Y58153D01*
X97184Y57902D01*
X95216D01*
X95208Y58153D01*
X95183Y58394D01*
X95143Y58626D01*
X95087Y58847D01*
X95014Y59059D01*
X94925Y59262D01*
X94820Y59454D01*
X94699Y59636D01*
X94562Y59809D01*
X94409Y59973D01*
X97991D01*
X97838Y59809D01*
D02*
G37*
G36*
X123139Y12652D02*
X123884Y12009D01*
X124102Y11852D01*
X124305Y11724D01*
X124493Y11625D01*
X124665Y11555D01*
X124823Y11513D01*
X124965Y11500D01*
X121500Y8035D01*
X121487Y8177D01*
X121445Y8335D01*
X121375Y8508D01*
X121276Y8695D01*
X121148Y8898D01*
X120991Y9116D01*
X120591Y9597D01*
X120077Y10139D01*
X122861Y12923D01*
X123139Y12652D01*
D02*
G37*
G36*
X147609Y63358D02*
X147750Y63277D01*
X147922Y63204D01*
X148125Y63142D01*
X148359Y63089D01*
X148624Y63046D01*
X149247Y62988D01*
X149994Y62968D01*
Y59031D01*
X149605Y59027D01*
X148624Y58955D01*
X148359Y58911D01*
X148125Y58858D01*
X147922Y58796D01*
X147750Y58723D01*
X147609Y58641D01*
X147500Y58550D01*
Y63450D01*
X147609Y63358D01*
D02*
G37*
D10*
X96200Y32275D02*
X103252Y25223D01*
X96200Y32275D02*
Y61800D01*
D11*
X210581Y71181D02*
X228346D01*
X200400Y61000D02*
X210581Y71181D01*
X145000Y61000D02*
X200400D01*
X227828Y91700D02*
X228346Y91181D01*
X204600Y91700D02*
X227828D01*
X197900Y85000D02*
X204600Y91700D01*
X176600Y85000D02*
X197900D01*
X159600Y68000D02*
X176600Y85000D01*
X132000Y68000D02*
X159600D01*
X125000Y75000D02*
X132000Y68000D01*
X119803Y79197D02*
Y88307D01*
X119465Y13535D02*
X125000Y8000D01*
X119465Y13535D02*
Y20291D01*
X119803Y79197D02*
X125000Y74000D01*
D12*
X224410Y11811D02*
D03*
Y129921D02*
D03*
X11811D02*
D03*
Y11811D02*
D03*
D13*
X119803Y118307D02*
D03*
Y108307D02*
D03*
Y98307D02*
D03*
Y88307D02*
D03*
X149803Y118307D02*
D03*
Y108307D02*
D03*
Y98307D02*
D03*
X119465Y50291D02*
D03*
Y40291D02*
D03*
Y30291D02*
D03*
Y20291D02*
D03*
X149465Y50291D02*
D03*
Y40291D02*
D03*
Y30291D02*
D03*
D14*
X149803Y88307D02*
D03*
X149465Y20291D02*
D03*
D15*
X208819Y84409D02*
D03*
Y119409D02*
D03*
X161575Y119843D02*
D03*
Y84842D02*
D03*
X66000Y122000D02*
D03*
Y87000D02*
D03*
X108252Y121063D02*
D03*
Y86063D02*
D03*
X32000Y97000D02*
D03*
Y62000D02*
D03*
X173000Y18000D02*
D03*
Y53000D02*
D03*
X162000D02*
D03*
Y18000D02*
D03*
X77252Y53063D02*
D03*
Y18063D02*
D03*
X47252Y52063D02*
D03*
Y17063D02*
D03*
X88252Y53063D02*
D03*
Y18063D02*
D03*
X145000Y8000D02*
D03*
X125000D02*
D03*
Y61000D02*
D03*
X145000D02*
D03*
Y75000D02*
D03*
X125000D02*
D03*
X145590Y130866D02*
D03*
X125591D02*
D03*
D16*
X194950Y31300D02*
D03*
D17*
X195050Y44700D02*
D03*
D18*
X96840Y94000D02*
D03*
X77160D02*
D03*
X32252Y25223D02*
D03*
Y44903D02*
D03*
X97092Y116063D02*
D03*
X77412D02*
D03*
X50000Y115840D02*
D03*
Y96160D02*
D03*
X103252Y44903D02*
D03*
Y25223D02*
D03*
X62000Y24160D02*
D03*
Y43840D02*
D03*
X195092Y71063D02*
D03*
X175412D02*
D03*
Y94063D02*
D03*
X195092D02*
D03*
X175357Y115905D02*
D03*
X195037D02*
D03*
D19*
X7700Y91000D02*
D03*
Y81000D02*
D03*
Y71000D02*
D03*
Y61000D02*
D03*
X228346Y91181D02*
D03*
Y81181D02*
D03*
Y71181D02*
D03*
Y61181D02*
D03*
D20*
X7700Y51000D02*
D03*
X228346Y51181D02*
D03*
D21*
X15500Y86500D02*
D03*
X16000Y76300D02*
D03*
X100000Y85000D02*
D03*
Y80000D02*
D03*
X95000D02*
D03*
Y85000D02*
D03*
X75000Y25000D02*
D03*
X90000Y40000D02*
D03*
X80000Y35000D02*
D03*
X70000D02*
D03*
Y45000D02*
D03*
X80000D02*
D03*
X90000D02*
D03*
X110000Y130000D02*
D03*
X100000D02*
D03*
X90000D02*
D03*
X80000D02*
D03*
X70000D02*
D03*
X60000D02*
D03*
X50000D02*
D03*
X40000D02*
D03*
X30000D02*
D03*
X15000Y45000D02*
D03*
Y25000D02*
D03*
Y35000D02*
D03*
X10000Y20000D02*
D03*
Y30000D02*
D03*
Y40000D02*
D03*
X20000Y20000D02*
D03*
Y30000D02*
D03*
Y40000D02*
D03*
X210000Y5000D02*
D03*
X200000D02*
D03*
X190000D02*
D03*
X180000D02*
D03*
X170000D02*
D03*
X160000D02*
D03*
X185000Y40000D02*
D03*
X175000Y30000D02*
D03*
X135000Y130000D02*
D03*
Y100000D02*
D03*
Y110000D02*
D03*
Y120000D02*
D03*
X90000Y105000D02*
D03*
X85000Y100000D02*
D03*
Y110000D02*
D03*
X55000Y100000D02*
D03*
X65000D02*
D03*
Y110000D02*
D03*
X55000D02*
D03*
X40000Y100000D02*
D03*
Y110000D02*
D03*
Y120000D02*
D03*
X30000Y110000D02*
D03*
Y120000D02*
D03*
X20000D02*
D03*
Y110000D02*
D03*
Y100000D02*
D03*
X60000Y50000D02*
D03*
X40000D02*
D03*
X20000D02*
D03*
Y60000D02*
D03*
X80000D02*
D03*
X70000D02*
D03*
X60000D02*
D03*
X50000D02*
D03*
X40000D02*
D03*
D22*
X96200Y61800D02*
D03*
M02*
