M48
;Layer_Color=9474304
;FILE_FORMAT=4:4
METRIC,LZ
;TYPE=PLATED
T1F00S00C0.3000
T2F00S00C0.5999
T3F00S00C0.7874
T4F00S00C0.8000
T5F00S00C0.9000
T6F00S00C1.0160
T7F00S00C3.0000
%
T01
X004064Y000127
X004318
X004572
X004826
X00508
X005334
X004445Y000762
X004699Y001016
X003429Y00254
Y002794
Y003048
Y003302
X002794
X00254
X002286
X002032
X001778
X001524
X00127
X001016
Y003048
X000762
X000508
Y002794
Y00254
X0003937Y0021971
X0004064Y00193802
X000508Y001524
Y00127
Y001016
Y000762
Y000508
X000254
Y000762
Y001016
X000381Y000889
Y000635
Y001143
X001016Y00127
Y001524
X00127
X001524
X001778
X002032
Y001143
X002286
Y001016
X002032Y000889
X001778
Y001143
X001524Y00127
X001905Y000635
X002413Y002032
Y002159
X00254
Y002032
X002159Y00254
Y002794
X002286Y002667
X001651Y002794
X001397
Y00254
X001651
X001016
Y002794
X000762
Y003302
T02
X00445546Y001805
X00495534
Y0023892
X00445546
X00445406Y002944
X00495394
X00246614Y002948
X00196626
X00195986Y0023876
X00245974
X00127Y00244246
Y00294234
X0015748Y00111354
Y00061366
X0008192Y00064066
Y00114054
X0026226
Y00064066
T03
X003683Y0002032
X0037964Y0005154
Y0007694
Y0010234
Y0012774
X003683Y0015494
Y001905
X003805Y002243
Y002497
Y002751
Y003005
X004104Y003044
X003698Y003324
X004104Y002155
X0041148Y0013462
X0043942
Y0004572
X0041148
X005304Y002144
Y003033
X003043Y003005
Y002751
Y002497
Y002243
X0027496Y002186
X003175Y001905
Y0015494
X0030344Y0012774
Y0010234
Y0007694
Y0005154
X003175Y0002032
X0022416Y0004588
X0019622
X0012002Y0004334
Y0013224
X0008128Y0015748
Y0024638
X0016764Y0022098
Y0030988
X0027496Y003075
X00319Y003324
X0022416Y0013478
X0019622
T04
X00244348Y00156972
T05
X0058Y0013
Y001554
Y001808
Y002062
Y002316
X00019558Y0023114
Y0020574
Y0018034
Y0015494
Y0012954
T06
X00495173Y00079502
X00495427Y00113538
T07
X0057Y0003
Y0033
X0003
Y0003
M30
