G04 Layer_Physical_Order=2*
G04 Layer_Color=16711680*
%FSLAX25Y25*%
%MOIN*%
G70*
G01*
G75*
%ADD10C,0.01969*%
%ADD11C,0.03937*%
%ADD12C,0.11811*%
%ADD13O,0.09000X0.06000*%
%ADD14R,0.09000X0.06000*%
%ADD15C,0.07000*%
%ADD16O,0.10000X0.06000*%
%ADD17R,0.10000X0.06000*%
%ADD18C,0.06000*%
%ADD19C,0.05906*%
%ADD20R,0.05906X0.05906*%
%ADD21C,0.02362*%
%ADD22C,0.05118*%
G36*
X234816Y1405D02*
X1405D01*
Y140327D01*
X234816D01*
Y1405D01*
D02*
G37*
%LPC*%
G36*
X125500Y65473D02*
Y61500D01*
X129473D01*
X129384Y62175D01*
X128931Y63269D01*
X128209Y64209D01*
X127269Y64931D01*
X126175Y65384D01*
X125500Y65473D01*
D02*
G37*
G36*
X124500D02*
X123825Y65384D01*
X122731Y64931D01*
X121791Y64209D01*
X121069Y63269D01*
X120616Y62175D01*
X120527Y61500D01*
X124500D01*
Y65473D01*
D02*
G37*
G36*
X7874Y75351D02*
X6795Y75209D01*
X5789Y74792D01*
X4926Y74129D01*
X4263Y73266D01*
X3847Y72260D01*
X3704Y71181D01*
X3847Y70102D01*
X4263Y69096D01*
X4926Y68233D01*
X5789Y67570D01*
X6795Y67154D01*
X7874Y67012D01*
X8953Y67154D01*
X9959Y67570D01*
X10822Y68233D01*
X10874Y68300D01*
X10999Y68420D01*
X11154Y68548D01*
X11308Y68657D01*
X11460Y68749D01*
X11613Y68824D01*
X11766Y68884D01*
X11922Y68931D01*
X12084Y68964D01*
X12159Y68973D01*
X22204D01*
X24739Y66439D01*
X25455Y65960D01*
X26300Y65792D01*
X28507D01*
X28547Y65675D01*
X28626Y65292D01*
X27911Y64361D01*
X27439Y63222D01*
X27279Y62000D01*
X27439Y60778D01*
X27911Y59639D01*
X28661Y58661D01*
X28757Y58588D01*
X28938Y58401D01*
X29139Y58167D01*
X29311Y57939D01*
X29453Y57720D01*
X29569Y57508D01*
X29660Y57304D01*
X29727Y57108D01*
X29774Y56917D01*
X29792Y56789D01*
Y49156D01*
X29783Y49079D01*
X29749Y48904D01*
X29701Y48730D01*
X29639Y48556D01*
X29560Y48380D01*
X29465Y48201D01*
X29351Y48020D01*
X29219Y47835D01*
X29045Y47621D01*
X28995Y47527D01*
X28600Y47012D01*
X28179Y45994D01*
X28035Y44903D01*
X28179Y43812D01*
X28600Y42794D01*
X29270Y41921D01*
X30143Y41251D01*
X31161Y40830D01*
X32252Y40686D01*
X33343Y40830D01*
X34361Y41251D01*
X35234Y41921D01*
X35904Y42794D01*
X36325Y43812D01*
X36469Y44903D01*
X36325Y45994D01*
X35904Y47012D01*
X35234Y47885D01*
X35006Y48060D01*
X34966Y48113D01*
X34776Y48282D01*
X34642Y48421D01*
X34530Y48559D01*
X34437Y48697D01*
X34361Y48834D01*
X34300Y48974D01*
X34253Y49119D01*
X34218Y49272D01*
X34208Y49354D01*
Y56789D01*
X34226Y56917D01*
X34273Y57108D01*
X34341Y57304D01*
X34431Y57508D01*
X34547Y57720D01*
X34689Y57939D01*
X34861Y58167D01*
X35062Y58401D01*
X35243Y58588D01*
X35339Y58661D01*
X36089Y59639D01*
X36561Y60778D01*
X36722Y62000D01*
X36561Y63222D01*
X36089Y64361D01*
X35374Y65292D01*
X35453Y65675D01*
X35493Y65792D01*
X89086D01*
X92097Y62781D01*
X92113Y62761D01*
X92196Y62643D01*
X92265Y62527D01*
X92320Y62415D01*
X92363Y62304D01*
X92396Y62193D01*
X92418Y62080D01*
X92432Y61962D01*
X92435Y61858D01*
X92428Y61800D01*
X92556Y60824D01*
X92933Y59914D01*
X93533Y59132D01*
X94314Y58533D01*
X95224Y58156D01*
X96200Y58028D01*
X97176Y58156D01*
X98086Y58533D01*
X98867Y59132D01*
X99467Y59914D01*
X99844Y60824D01*
X99972Y61800D01*
X99844Y62776D01*
X99467Y63686D01*
X98867Y64468D01*
X98086Y65067D01*
X97176Y65444D01*
X96200Y65572D01*
X96142Y65565D01*
X96038Y65568D01*
X95920Y65582D01*
X95807Y65605D01*
X95696Y65637D01*
X95585Y65680D01*
X95473Y65735D01*
X95358Y65804D01*
X95239Y65887D01*
X95219Y65904D01*
X91561Y69561D01*
X90845Y70040D01*
X90000Y70208D01*
X27215D01*
X24680Y72742D01*
X23964Y73221D01*
X23119Y73389D01*
X12159D01*
X12084Y73398D01*
X11922Y73431D01*
X11766Y73478D01*
X11613Y73538D01*
X11460Y73613D01*
X11308Y73705D01*
X11154Y73814D01*
X10999Y73943D01*
X10874Y74062D01*
X10822Y74129D01*
X9959Y74792D01*
X8953Y75209D01*
X7874Y75351D01*
D02*
G37*
G36*
X227847Y65102D02*
X227315Y65032D01*
X226353Y64634D01*
X225527Y64000D01*
X224894Y63174D01*
X224495Y62213D01*
X224425Y61681D01*
X227847D01*
Y65102D01*
D02*
G37*
G36*
X8374D02*
Y61681D01*
X11795D01*
X11725Y62213D01*
X11327Y63174D01*
X10693Y64000D01*
X9867Y64634D01*
X8906Y65032D01*
X8374Y65102D01*
D02*
G37*
G36*
X7374D02*
X6842Y65032D01*
X5881Y64634D01*
X5055Y64000D01*
X4421Y63174D01*
X4023Y62213D01*
X3953Y61681D01*
X7374D01*
Y65102D01*
D02*
G37*
G36*
X232267Y60681D02*
X228847D01*
Y57260D01*
X229378Y57330D01*
X230340Y57728D01*
X231166Y58362D01*
X231799Y59188D01*
X232197Y60149D01*
X232267Y60681D01*
D02*
G37*
G36*
X129473Y60500D02*
X125500D01*
Y56527D01*
X126175Y56616D01*
X127269Y57069D01*
X128209Y57791D01*
X128931Y58731D01*
X129384Y59825D01*
X129473Y60500D01*
D02*
G37*
G36*
X124500D02*
X120527D01*
X120616Y59825D01*
X121069Y58731D01*
X121791Y57791D01*
X122731Y57069D01*
X123825Y56616D01*
X124500Y56527D01*
Y60500D01*
D02*
G37*
G36*
X88252Y57784D02*
X87030Y57624D01*
X85891Y57152D01*
X84913Y56402D01*
X84840Y56306D01*
X84653Y56125D01*
X84419Y55924D01*
X84191Y55752D01*
X83972Y55610D01*
X83760Y55494D01*
X83556Y55404D01*
X83360Y55336D01*
X83169Y55289D01*
X83041Y55271D01*
X82463D01*
X82335Y55289D01*
X82144Y55336D01*
X81948Y55404D01*
X81744Y55494D01*
X81532Y55610D01*
X81313Y55752D01*
X81085Y55924D01*
X80851Y56125D01*
X80664Y56306D01*
X80591Y56402D01*
X79613Y57152D01*
X78474Y57624D01*
X77252Y57784D01*
X76030Y57624D01*
X74891Y57152D01*
X73913Y56402D01*
X73840Y56306D01*
X73653Y56125D01*
X73419Y55924D01*
X73191Y55752D01*
X72972Y55610D01*
X72760Y55494D01*
X72556Y55404D01*
X72360Y55336D01*
X72169Y55289D01*
X72041Y55271D01*
X71223D01*
X70378Y55103D01*
X69662Y54624D01*
X63526Y48488D01*
X63462Y48439D01*
X63322Y48347D01*
X63175Y48268D01*
X63019Y48201D01*
X62852Y48145D01*
X62673Y48101D01*
X62478Y48069D01*
X62268Y48050D01*
X62087Y48046D01*
X62000Y48057D01*
X60909Y47914D01*
X59891Y47492D01*
X59018Y46822D01*
X58348Y45949D01*
X57926Y44932D01*
X57783Y43840D01*
X57794Y43753D01*
X57790Y43572D01*
X57771Y43362D01*
X57739Y43167D01*
X57695Y42988D01*
X57639Y42821D01*
X57572Y42665D01*
X57493Y42518D01*
X57401Y42378D01*
X57352Y42314D01*
X45691Y30653D01*
X45212Y29937D01*
X45044Y29092D01*
Y22274D01*
X45026Y22146D01*
X44979Y21955D01*
X44911Y21759D01*
X44821Y21555D01*
X44705Y21343D01*
X44563Y21124D01*
X44391Y20896D01*
X44190Y20662D01*
X44009Y20475D01*
X43913Y20402D01*
X43163Y19424D01*
X42691Y18285D01*
X42531Y17063D01*
X42691Y15841D01*
X43163Y14702D01*
X43913Y13724D01*
X44891Y12974D01*
X46030Y12502D01*
X47252Y12342D01*
X48474Y12502D01*
X49613Y12974D01*
X50591Y13724D01*
X51341Y14702D01*
X51813Y15841D01*
X51973Y17063D01*
X51813Y18285D01*
X51341Y19424D01*
X50591Y20402D01*
X50494Y20475D01*
X50314Y20662D01*
X50113Y20896D01*
X49941Y21124D01*
X49799Y21343D01*
X49683Y21555D01*
X49593Y21759D01*
X49525Y21955D01*
X49478Y22146D01*
X49460Y22274D01*
Y28177D01*
X60474Y39192D01*
X60538Y39241D01*
X60678Y39333D01*
X60825Y39412D01*
X60981Y39479D01*
X61148Y39535D01*
X61327Y39579D01*
X61522Y39611D01*
X61732Y39630D01*
X61913Y39634D01*
X62000Y39623D01*
X63091Y39766D01*
X64109Y40188D01*
X64982Y40858D01*
X65652Y41731D01*
X66074Y42748D01*
X66217Y43840D01*
X66206Y43927D01*
X66210Y44108D01*
X66229Y44318D01*
X66261Y44513D01*
X66306Y44692D01*
X66361Y44859D01*
X66428Y45015D01*
X66507Y45162D01*
X66599Y45302D01*
X66648Y45366D01*
X72125Y50843D01*
X72169Y50837D01*
X72360Y50790D01*
X72556Y50722D01*
X72760Y50632D01*
X72972Y50516D01*
X73191Y50374D01*
X73419Y50202D01*
X73653Y50001D01*
X73840Y49820D01*
X73913Y49724D01*
X74891Y48974D01*
X76030Y48502D01*
X77252Y48342D01*
X78474Y48502D01*
X79613Y48974D01*
X80591Y49724D01*
X80664Y49820D01*
X80851Y50001D01*
X81085Y50202D01*
X81313Y50374D01*
X81532Y50516D01*
X81744Y50632D01*
X81948Y50722D01*
X82144Y50790D01*
X82335Y50837D01*
X82463Y50855D01*
X83041D01*
X83169Y50837D01*
X83360Y50790D01*
X83556Y50722D01*
X83760Y50632D01*
X83972Y50516D01*
X84191Y50374D01*
X84419Y50202D01*
X84653Y50001D01*
X84840Y49820D01*
X84913Y49724D01*
X85891Y48974D01*
X87030Y48502D01*
X88252Y48342D01*
X89474Y48502D01*
X90613Y48974D01*
X91591Y49724D01*
X92341Y50702D01*
X92813Y51841D01*
X92974Y53063D01*
X92813Y54285D01*
X92341Y55424D01*
X91591Y56402D01*
X90613Y57152D01*
X89474Y57624D01*
X88252Y57784D01*
D02*
G37*
G36*
X227847Y60681D02*
X224425D01*
X224495Y60149D01*
X224894Y59188D01*
X225527Y58362D01*
X226353Y57728D01*
X227315Y57330D01*
X227847Y57260D01*
Y60681D01*
D02*
G37*
G36*
X11795D02*
X8374D01*
Y57260D01*
X8906Y57330D01*
X9867Y57728D01*
X10693Y58362D01*
X11327Y59188D01*
X11725Y60149D01*
X11795Y60681D01*
D02*
G37*
G36*
X7374D02*
X3953D01*
X4023Y60149D01*
X4421Y59188D01*
X5055Y58362D01*
X5881Y57728D01*
X6842Y57330D01*
X7374Y57260D01*
Y60681D01*
D02*
G37*
G36*
X208319Y83909D02*
X204346D01*
X204435Y83235D01*
X204888Y82140D01*
X205609Y81200D01*
X206550Y80479D01*
X207644Y80025D01*
X208319Y79936D01*
Y83909D01*
D02*
G37*
G36*
X232267Y80681D02*
X228847D01*
Y77260D01*
X229378Y77330D01*
X230340Y77728D01*
X231166Y78362D01*
X231799Y79188D01*
X232197Y80149D01*
X232267Y80681D01*
D02*
G37*
G36*
X227847D02*
X224425D01*
X224495Y80149D01*
X224894Y79188D01*
X225527Y78362D01*
X226353Y77728D01*
X227315Y77330D01*
X227847Y77260D01*
Y80681D01*
D02*
G37*
G36*
X228847Y85102D02*
Y81681D01*
X232267D01*
X232197Y82213D01*
X231799Y83175D01*
X231166Y84000D01*
X230340Y84634D01*
X229378Y85032D01*
X228847Y85102D01*
D02*
G37*
G36*
X227847D02*
X227315Y85032D01*
X226353Y84634D01*
X225527Y84000D01*
X224894Y83175D01*
X224495Y82213D01*
X224425Y81681D01*
X227847D01*
Y85102D01*
D02*
G37*
G36*
X213292Y83909D02*
X209319D01*
Y79936D01*
X209994Y80025D01*
X211088Y80479D01*
X212028Y81200D01*
X212750Y82140D01*
X213203Y83235D01*
X213292Y83909D01*
D02*
G37*
G36*
X145500Y79473D02*
Y75500D01*
X149473D01*
X149384Y76175D01*
X148931Y77269D01*
X148209Y78209D01*
X147269Y78931D01*
X146175Y79384D01*
X145500Y79473D01*
D02*
G37*
G36*
X228346Y75351D02*
X227267Y75209D01*
X226262Y74792D01*
X225398Y74129D01*
X224736Y73266D01*
X224319Y72260D01*
X224177Y71181D01*
X224319Y70102D01*
X224736Y69096D01*
X225398Y68233D01*
X226262Y67570D01*
X227267Y67154D01*
X228346Y67012D01*
X229426Y67154D01*
X230431Y67570D01*
X231295Y68233D01*
X231957Y69096D01*
X232374Y70102D01*
X232516Y71181D01*
X232374Y72260D01*
X231957Y73266D01*
X231295Y74129D01*
X230431Y74792D01*
X229426Y75209D01*
X228346Y75351D01*
D02*
G37*
G36*
X145590Y135588D02*
X144369Y135427D01*
X143230Y134955D01*
X142252Y134205D01*
X141502Y133227D01*
X141030Y132088D01*
X140869Y130866D01*
X141030Y129644D01*
X141502Y128505D01*
X142252Y127527D01*
X143230Y126777D01*
X144369Y126305D01*
X145590Y126145D01*
X146250Y126232D01*
X146626Y125902D01*
Y125010D01*
X146612Y124272D01*
X146557Y123459D01*
X146469Y122765D01*
X146353Y122198D01*
X146292Y122000D01*
X146195Y121959D01*
X145321Y121289D01*
X144931Y120781D01*
X144915Y120766D01*
X144906Y120748D01*
X144651Y120416D01*
X144230Y119399D01*
X144086Y118307D01*
X144230Y117216D01*
X144651Y116199D01*
X145321Y115325D01*
X146195Y114655D01*
X147212Y114234D01*
X148303Y114090D01*
X151303D01*
X152395Y114234D01*
X153412Y114655D01*
X154285Y115325D01*
X154955Y116199D01*
X155377Y117216D01*
X155520Y118307D01*
X155377Y119399D01*
X154955Y120416D01*
X154700Y120748D01*
X154691Y120766D01*
X154675Y120781D01*
X154285Y121289D01*
X153412Y121959D01*
X153314Y122000D01*
X153253Y122198D01*
X153141Y122747D01*
X152994Y124289D01*
X152980Y125010D01*
Y127689D01*
X175818D01*
X181723Y121784D01*
Y88216D01*
X175684Y82177D01*
X169500D01*
X168678Y82069D01*
X167912Y81751D01*
X167254Y81246D01*
X150184Y64177D01*
X149853D01*
X149318Y64191D01*
X148777Y64241D01*
X148589Y64271D01*
X148436Y64306D01*
X148341Y64336D01*
X148339Y64339D01*
X147361Y65089D01*
X146222Y65561D01*
X145000Y65721D01*
X143778Y65561D01*
X142639Y65089D01*
X141661Y64339D01*
X140911Y63361D01*
X140439Y62222D01*
X140278Y61000D01*
X140439Y59778D01*
X140911Y58639D01*
X141661Y57661D01*
X141665Y57659D01*
X141694Y57564D01*
X141728Y57411D01*
X141757Y57234D01*
X141823Y56343D01*
X141823Y56324D01*
Y54756D01*
X141931Y53934D01*
X142249Y53167D01*
X142754Y52510D01*
X142895Y52368D01*
X143413Y51830D01*
X143862Y51308D01*
X143878Y51286D01*
X143747Y50291D01*
X143891Y49200D01*
X144312Y48183D01*
X144983Y47309D01*
X145856Y46639D01*
X146873Y46218D01*
X147965Y46074D01*
X150965D01*
X152056Y46218D01*
X153073Y46639D01*
X153947Y47309D01*
X154617Y48183D01*
X155038Y49200D01*
X155182Y50291D01*
X155038Y51383D01*
X154617Y52400D01*
X153947Y53273D01*
X153073Y53944D01*
X152056Y54365D01*
X150965Y54509D01*
X150003D01*
X149892Y54584D01*
X148177Y56108D01*
Y56147D01*
X148191Y56682D01*
X148241Y57223D01*
X148272Y57411D01*
X148306Y57564D01*
X148336Y57659D01*
X148339Y57661D01*
X148341Y57665D01*
X148436Y57694D01*
X148589Y57728D01*
X148766Y57757D01*
X149657Y57823D01*
X149676Y57823D01*
X151500D01*
X152322Y57932D01*
X153088Y58249D01*
X153746Y58754D01*
X170816Y75823D01*
X177000D01*
X177822Y75932D01*
X178588Y76249D01*
X179246Y76754D01*
X187146Y84654D01*
X187651Y85312D01*
X187969Y86078D01*
X188077Y86900D01*
Y123100D01*
X187969Y123922D01*
X187651Y124688D01*
X187146Y125346D01*
X179380Y133113D01*
X178722Y133617D01*
X177956Y133935D01*
X177134Y134043D01*
X149053D01*
X148929Y134205D01*
X147951Y134955D01*
X146813Y135427D01*
X145590Y135588D01*
D02*
G37*
G36*
X228847Y65102D02*
Y61681D01*
X232267D01*
X232197Y62213D01*
X231799Y63174D01*
X231166Y64000D01*
X230340Y64634D01*
X229378Y65032D01*
X228847Y65102D01*
D02*
G37*
G36*
X144500Y79473D02*
X143825Y79384D01*
X142731Y78931D01*
X141791Y78209D01*
X141069Y77269D01*
X140616Y76175D01*
X140527Y75500D01*
X144500D01*
Y79473D01*
D02*
G37*
G36*
X149473Y74500D02*
X145500D01*
Y70527D01*
X146175Y70616D01*
X147269Y71069D01*
X148209Y71791D01*
X148931Y72731D01*
X149384Y73825D01*
X149473Y74500D01*
D02*
G37*
G36*
X144500D02*
X140527D01*
X140616Y73825D01*
X141069Y72731D01*
X141791Y71791D01*
X142731Y71069D01*
X143825Y70616D01*
X144500Y70527D01*
Y74500D01*
D02*
G37*
G36*
X62500Y28129D02*
Y24660D01*
X65969D01*
X65897Y25204D01*
X65494Y26177D01*
X64853Y27013D01*
X64017Y27654D01*
X63044Y28057D01*
X62500Y28129D01*
D02*
G37*
G36*
X61500D02*
X60956Y28057D01*
X59983Y27654D01*
X59147Y27013D01*
X58506Y26177D01*
X58103Y25204D01*
X58031Y24660D01*
X61500D01*
Y28129D01*
D02*
G37*
G36*
X65969Y23660D02*
X62500D01*
Y20191D01*
X63044Y20263D01*
X64017Y20666D01*
X64853Y21307D01*
X65494Y22143D01*
X65897Y23116D01*
X65969Y23660D01*
D02*
G37*
G36*
X103252Y49120D02*
X102161Y48976D01*
X101143Y48555D01*
X100270Y47885D01*
X99600Y47012D01*
X99178Y45994D01*
X99035Y44903D01*
X99046Y44816D01*
X99042Y44635D01*
X99023Y44425D01*
X98991Y44230D01*
X98946Y44051D01*
X98891Y43884D01*
X98824Y43728D01*
X98745Y43581D01*
X98653Y43441D01*
X98604Y43377D01*
X78778Y23551D01*
X78682Y23477D01*
X78501Y23358D01*
X78294Y23244D01*
X78062Y23135D01*
X77803Y23032D01*
X77531Y22942D01*
X76852Y22771D01*
X76477Y22703D01*
X76399Y22672D01*
X76030Y22624D01*
X74891Y22152D01*
X73913Y21402D01*
X73163Y20424D01*
X72691Y19285D01*
X72531Y18063D01*
X72691Y16841D01*
X73163Y15702D01*
X73913Y14724D01*
X74891Y13974D01*
X76030Y13502D01*
X77252Y13341D01*
X78474Y13502D01*
X79613Y13974D01*
X80591Y14724D01*
X81341Y15702D01*
X81813Y16841D01*
X81973Y18063D01*
X81881Y18763D01*
X81887Y18867D01*
X81838Y19197D01*
X81819Y19461D01*
X81822Y19701D01*
X81844Y19916D01*
X81883Y20109D01*
X81937Y20283D01*
X82007Y20444D01*
X82093Y20594D01*
X82168Y20696D01*
X101726Y40255D01*
X101790Y40304D01*
X101930Y40396D01*
X102077Y40475D01*
X102233Y40542D01*
X102400Y40598D01*
X102579Y40642D01*
X102774Y40674D01*
X102984Y40693D01*
X103165Y40697D01*
X103252Y40686D01*
X103339Y40697D01*
X103520Y40693D01*
X103730Y40674D01*
X103925Y40642D01*
X104104Y40598D01*
X104271Y40542D01*
X104427Y40475D01*
X104574Y40396D01*
X104714Y40304D01*
X104778Y40255D01*
X106302Y38730D01*
X107019Y38252D01*
X107864Y38084D01*
X113757D01*
X113974Y38069D01*
X114276Y38030D01*
X114458Y37993D01*
X114983Y37309D01*
X115856Y36639D01*
X116873Y36218D01*
X117965Y36074D01*
X120965D01*
X122056Y36218D01*
X123073Y36639D01*
X123947Y37309D01*
X124617Y38183D01*
X125038Y39200D01*
X125182Y40291D01*
X125038Y41383D01*
X124617Y42400D01*
X123947Y43273D01*
X123073Y43944D01*
X122056Y44365D01*
X120965Y44508D01*
X117965D01*
X116873Y44365D01*
X115856Y43944D01*
X114983Y43273D01*
X114458Y42590D01*
X114294Y42556D01*
X113699Y42499D01*
X108778D01*
X107900Y43377D01*
X107851Y43441D01*
X107759Y43581D01*
X107680Y43728D01*
X107613Y43884D01*
X107557Y44051D01*
X107513Y44230D01*
X107481Y44425D01*
X107462Y44635D01*
X107458Y44816D01*
X107469Y44903D01*
X107325Y45994D01*
X106904Y47012D01*
X106234Y47885D01*
X105360Y48555D01*
X104343Y48976D01*
X103252Y49120D01*
D02*
G37*
G36*
X120965Y34508D02*
X117965D01*
X116873Y34365D01*
X115856Y33944D01*
X114983Y33273D01*
X114458Y32590D01*
X114294Y32556D01*
X113699Y32499D01*
X108320D01*
X107475Y32331D01*
X106759Y31852D01*
X104778Y29871D01*
X104714Y29822D01*
X104574Y29730D01*
X104427Y29651D01*
X104271Y29584D01*
X104104Y29528D01*
X103925Y29484D01*
X103730Y29452D01*
X103520Y29433D01*
X103339Y29429D01*
X103252Y29440D01*
X102161Y29296D01*
X101143Y28875D01*
X100270Y28205D01*
X100216Y28135D01*
X100086Y28010D01*
X99923Y27875D01*
X99763Y27760D01*
X99605Y27665D01*
X99448Y27586D01*
X99290Y27524D01*
X99130Y27475D01*
X98966Y27441D01*
X98886Y27431D01*
X95412D01*
X94567Y27263D01*
X93851Y26784D01*
X90375Y23309D01*
X90272Y23232D01*
X90104Y23130D01*
X89917Y23038D01*
X89709Y22958D01*
X89478Y22890D01*
X89222Y22836D01*
X88940Y22796D01*
X88632Y22773D01*
X88372Y22769D01*
X88252Y22784D01*
X87030Y22624D01*
X85891Y22152D01*
X84913Y21402D01*
X84163Y20424D01*
X83691Y19285D01*
X83530Y18063D01*
X83691Y16841D01*
X84163Y15702D01*
X84913Y14724D01*
X85891Y13974D01*
X87030Y13502D01*
X88252Y13341D01*
X89474Y13502D01*
X90613Y13974D01*
X91591Y14724D01*
X92341Y15702D01*
X92813Y16841D01*
X92974Y18063D01*
X92958Y18183D01*
X92962Y18443D01*
X92985Y18751D01*
X93025Y19033D01*
X93079Y19289D01*
X93147Y19520D01*
X93227Y19728D01*
X93318Y19915D01*
X93421Y20083D01*
X93498Y20186D01*
X96326Y23015D01*
X98886D01*
X98966Y23005D01*
X99130Y22971D01*
X99290Y22922D01*
X99448Y22860D01*
X99605Y22781D01*
X99763Y22685D01*
X99923Y22571D01*
X100086Y22436D01*
X100216Y22311D01*
X100270Y22241D01*
X101143Y21571D01*
X102161Y21149D01*
X103252Y21006D01*
X104343Y21149D01*
X105360Y21571D01*
X106234Y22241D01*
X106904Y23114D01*
X107325Y24132D01*
X107469Y25223D01*
X107458Y25310D01*
X107462Y25491D01*
X107481Y25701D01*
X107513Y25896D01*
X107557Y26075D01*
X107613Y26242D01*
X107680Y26398D01*
X107759Y26545D01*
X107851Y26685D01*
X107900Y26749D01*
X109235Y28084D01*
X113757D01*
X113974Y28069D01*
X114276Y28030D01*
X114458Y27993D01*
X114983Y27309D01*
X115856Y26639D01*
X116873Y26218D01*
X117965Y26074D01*
X120965D01*
X122056Y26218D01*
X123073Y26639D01*
X123947Y27309D01*
X124617Y28183D01*
X125038Y29200D01*
X125182Y30291D01*
X125038Y31383D01*
X124617Y32400D01*
X123947Y33273D01*
X123073Y33944D01*
X122056Y34365D01*
X120965Y34508D01*
D02*
G37*
G36*
X196950Y35517D02*
X192950D01*
X191858Y35373D01*
X190841Y34952D01*
X189968Y34282D01*
X189444Y33599D01*
X189280Y33565D01*
X188684Y33508D01*
X186300D01*
X185455Y33340D01*
X184739Y32861D01*
X175123Y23246D01*
X175020Y23169D01*
X174852Y23067D01*
X174665Y22975D01*
X174457Y22895D01*
X174226Y22827D01*
X173970Y22773D01*
X173688Y22733D01*
X173380Y22710D01*
X173120Y22706D01*
X173000Y22722D01*
X171778Y22561D01*
X170639Y22089D01*
X169661Y21339D01*
X168911Y20361D01*
X168439Y19222D01*
X168279Y18000D01*
X168439Y16778D01*
X168911Y15639D01*
X169661Y14661D01*
X170639Y13911D01*
X171778Y13439D01*
X173000Y13279D01*
X174222Y13439D01*
X175361Y13911D01*
X176339Y14661D01*
X177089Y15639D01*
X177561Y16778D01*
X177722Y18000D01*
X177706Y18120D01*
X177710Y18380D01*
X177733Y18688D01*
X177773Y18970D01*
X177827Y19226D01*
X177895Y19457D01*
X177975Y19665D01*
X178067Y19852D01*
X178169Y20020D01*
X178246Y20123D01*
X187215Y29092D01*
X188743D01*
X188959Y29078D01*
X189261Y29039D01*
X189444Y29002D01*
X189968Y28318D01*
X190841Y27648D01*
X191858Y27226D01*
X192950Y27083D01*
X196950D01*
X198041Y27226D01*
X199059Y27648D01*
X199932Y28318D01*
X200602Y29191D01*
X201024Y30209D01*
X201167Y31300D01*
X201024Y32392D01*
X200602Y33409D01*
X199932Y34282D01*
X199059Y34952D01*
X198041Y35373D01*
X196950Y35517D01*
D02*
G37*
G36*
X61500Y23660D02*
X58031D01*
X58103Y23116D01*
X58506Y22143D01*
X59147Y21307D01*
X59983Y20666D01*
X60956Y20263D01*
X61500Y20191D01*
Y23660D01*
D02*
G37*
G36*
X11811Y18932D02*
X10422Y18795D01*
X9086Y18390D01*
X7855Y17732D01*
X6776Y16846D01*
X5890Y15767D01*
X5232Y14536D01*
X4827Y13200D01*
X4690Y11811D01*
X4827Y10422D01*
X5232Y9086D01*
X5890Y7855D01*
X6776Y6776D01*
X7855Y5890D01*
X9086Y5232D01*
X10422Y4827D01*
X11811Y4690D01*
X13200Y4827D01*
X14536Y5232D01*
X15767Y5890D01*
X16846Y6776D01*
X17732Y7855D01*
X18390Y9086D01*
X18795Y10422D01*
X18932Y11811D01*
X18795Y13200D01*
X18390Y14536D01*
X17732Y15767D01*
X16846Y16846D01*
X15767Y17732D01*
X14536Y18390D01*
X13200Y18795D01*
X11811Y18932D01*
D02*
G37*
G36*
X149473Y7500D02*
X145500D01*
Y3527D01*
X146175Y3616D01*
X147269Y4069D01*
X148209Y4791D01*
X148931Y5731D01*
X149384Y6825D01*
X149473Y7500D01*
D02*
G37*
G36*
X144500D02*
X140527D01*
X140616Y6825D01*
X141069Y5731D01*
X141791Y4791D01*
X142731Y4069D01*
X143825Y3616D01*
X144500Y3527D01*
Y7500D01*
D02*
G37*
G36*
X145500Y12473D02*
Y8500D01*
X149473D01*
X149384Y9175D01*
X148931Y10269D01*
X148209Y11209D01*
X147269Y11931D01*
X146175Y12384D01*
X145500Y12473D01*
D02*
G37*
G36*
X144500D02*
X143825Y12384D01*
X142731Y11931D01*
X141791Y11209D01*
X141069Y10269D01*
X140616Y9175D01*
X140527Y8500D01*
X144500D01*
Y12473D01*
D02*
G37*
G36*
X224410Y18932D02*
X223020Y18795D01*
X221684Y18390D01*
X220453Y17732D01*
X219374Y16846D01*
X218489Y15767D01*
X217831Y14536D01*
X217425Y13200D01*
X217288Y11811D01*
X217425Y10422D01*
X217831Y9086D01*
X218489Y7855D01*
X219374Y6776D01*
X220453Y5890D01*
X221684Y5232D01*
X223020Y4827D01*
X224410Y4690D01*
X225799Y4827D01*
X227134Y5232D01*
X228366Y5890D01*
X229445Y6776D01*
X230330Y7855D01*
X230988Y9086D01*
X231394Y10422D01*
X231530Y11811D01*
X231394Y13200D01*
X230988Y14536D01*
X230330Y15767D01*
X229445Y16846D01*
X228366Y17732D01*
X227134Y18390D01*
X225799Y18795D01*
X224410Y18932D01*
D02*
G37*
G36*
X118965Y54326D02*
X117965D01*
X116920Y54188D01*
X115947Y53785D01*
X115112Y53144D01*
X114471Y52309D01*
X114067Y51336D01*
X113996Y50791D01*
X118965D01*
Y54326D01*
D02*
G37*
G36*
X11827Y50681D02*
X8374D01*
Y47228D01*
X11827D01*
Y50681D01*
D02*
G37*
G36*
X7374D02*
X3921D01*
Y47228D01*
X7374D01*
Y50681D01*
D02*
G37*
G36*
X11827Y55134D02*
X8374D01*
Y51681D01*
X11827D01*
Y55134D01*
D02*
G37*
G36*
X7374D02*
X3921D01*
Y51681D01*
X7374D01*
Y55134D01*
D02*
G37*
G36*
X120965Y54326D02*
X119965D01*
Y50791D01*
X124933D01*
X124862Y51336D01*
X124459Y52309D01*
X123817Y53144D01*
X122982Y53785D01*
X122009Y54188D01*
X120965Y54326D01*
D02*
G37*
G36*
X232480Y55315D02*
X224213D01*
Y51080D01*
X224201Y51024D01*
X224213Y50968D01*
Y50322D01*
X224060Y50102D01*
X223590Y49547D01*
X220951Y46908D01*
X201575D01*
X201445Y46919D01*
X201251Y46951D01*
X201231Y46957D01*
Y48881D01*
X188869D01*
Y40519D01*
X201231D01*
Y42443D01*
X201251Y42449D01*
X201445Y42481D01*
X201575Y42492D01*
X221865D01*
X222710Y42660D01*
X223427Y43139D01*
X226623Y46336D01*
X226972Y46660D01*
X227254Y46885D01*
X227487Y47047D01*
X228134D01*
X228190Y47036D01*
X228246Y47047D01*
X232480D01*
Y55315D01*
D02*
G37*
G36*
X148965Y44326D02*
X147965D01*
X146920Y44188D01*
X145947Y43785D01*
X145112Y43144D01*
X144471Y42309D01*
X144068Y41336D01*
X143996Y40791D01*
X148965D01*
Y44326D01*
D02*
G37*
G36*
X154933Y39791D02*
X149965D01*
Y36257D01*
X150965D01*
X152009Y36394D01*
X152982Y36797D01*
X153817Y37438D01*
X154459Y38274D01*
X154862Y39247D01*
X154933Y39791D01*
D02*
G37*
G36*
X148965D02*
X143996D01*
X144068Y39247D01*
X144471Y38274D01*
X145112Y37438D01*
X145947Y36797D01*
X146920Y36394D01*
X147965Y36257D01*
X148965D01*
Y39791D01*
D02*
G37*
G36*
X124933Y49791D02*
X119965D01*
Y46257D01*
X120965D01*
X122009Y46394D01*
X122982Y46797D01*
X123817Y47438D01*
X124459Y48274D01*
X124862Y49247D01*
X124933Y49791D01*
D02*
G37*
G36*
X118965D02*
X113996D01*
X114067Y49247D01*
X114471Y48274D01*
X115112Y47438D01*
X115947Y46797D01*
X116920Y46394D01*
X117965Y46257D01*
X118965D01*
Y49791D01*
D02*
G37*
G36*
X150965Y44326D02*
X149965D01*
Y40791D01*
X154933D01*
X154862Y41336D01*
X154459Y42309D01*
X153817Y43144D01*
X152982Y43785D01*
X152009Y44188D01*
X150965Y44326D01*
D02*
G37*
G36*
X208319Y88882D02*
X207644Y88794D01*
X206550Y88340D01*
X205609Y87619D01*
X204888Y86679D01*
X204435Y85584D01*
X204346Y84909D01*
X208319D01*
Y88882D01*
D02*
G37*
G36*
X49500Y95660D02*
X46031D01*
X46103Y95116D01*
X46506Y94143D01*
X47147Y93307D01*
X47983Y92666D01*
X48956Y92263D01*
X49500Y92191D01*
Y95660D01*
D02*
G37*
G36*
X53969D02*
X50500D01*
Y92191D01*
X51044Y92263D01*
X52017Y92666D01*
X52853Y93307D01*
X53494Y94143D01*
X53897Y95116D01*
X53969Y95660D01*
D02*
G37*
G36*
X121303Y122342D02*
X120303D01*
Y118807D01*
X125272D01*
X125200Y119351D01*
X124797Y120324D01*
X124156Y121160D01*
X123320Y121801D01*
X122347Y122204D01*
X121303Y122342D01*
D02*
G37*
G36*
X77412Y120280D02*
X76320Y120136D01*
X75303Y119715D01*
X74430Y119045D01*
X73760Y118172D01*
X73339Y117155D01*
X73195Y116063D01*
X73339Y114971D01*
X73760Y113954D01*
X74430Y113081D01*
X74500Y113027D01*
X74625Y112897D01*
X74760Y112734D01*
X74874Y112574D01*
X74970Y112416D01*
X75049Y112259D01*
X75111Y112101D01*
X75160Y111941D01*
X75194Y111777D01*
X75204Y111697D01*
Y98451D01*
X75194Y98369D01*
X75159Y98216D01*
X75112Y98071D01*
X75051Y97931D01*
X74975Y97794D01*
X74882Y97657D01*
X74770Y97518D01*
X74636Y97379D01*
X74446Y97210D01*
X74406Y97157D01*
X74178Y96982D01*
X73595Y96222D01*
X73552Y96216D01*
X73434Y96208D01*
X73000D01*
X72155Y96040D01*
X71439Y95561D01*
X68123Y92246D01*
X68020Y92169D01*
X67852Y92067D01*
X67665Y91975D01*
X67457Y91895D01*
X67226Y91827D01*
X66970Y91773D01*
X66688Y91733D01*
X66380Y91710D01*
X66120Y91706D01*
X66000Y91721D01*
X64778Y91561D01*
X63639Y91089D01*
X62661Y90339D01*
X62588Y90243D01*
X62401Y90062D01*
X62167Y89861D01*
X61939Y89689D01*
X61720Y89547D01*
X61508Y89431D01*
X61304Y89341D01*
X61108Y89273D01*
X60917Y89226D01*
X60789Y89208D01*
X41914D01*
X36844Y94278D01*
X36770Y94380D01*
X36687Y94527D01*
X36621Y94681D01*
X36571Y94849D01*
X36537Y95033D01*
X36520Y95239D01*
X36523Y95469D01*
X36548Y95724D01*
X36556Y95766D01*
X36561Y95778D01*
X36568Y95836D01*
X36606Y96046D01*
X36605Y96113D01*
X36722Y97000D01*
X36561Y98222D01*
X36089Y99361D01*
X35339Y100339D01*
X34361Y101089D01*
X33222Y101561D01*
X32000Y101722D01*
X30778Y101561D01*
X29639Y101089D01*
X28661Y100339D01*
X27911Y99361D01*
X27439Y98222D01*
X27279Y97000D01*
X27439Y95778D01*
X27911Y94639D01*
X28661Y93661D01*
X29639Y92911D01*
X30778Y92439D01*
X31032Y92406D01*
X31074Y92388D01*
X31453Y92306D01*
X32140Y92114D01*
X32417Y92015D01*
X32680Y91905D01*
X32915Y91790D01*
X33124Y91671D01*
X33308Y91549D01*
X33401Y91477D01*
X39439Y85439D01*
X40155Y84960D01*
X41000Y84792D01*
X60789D01*
X60917Y84774D01*
X61108Y84727D01*
X61304Y84659D01*
X61508Y84569D01*
X61720Y84453D01*
X61939Y84311D01*
X62167Y84139D01*
X62401Y83938D01*
X62588Y83757D01*
X62661Y83661D01*
X63639Y82911D01*
X64130Y82708D01*
X64031Y82208D01*
X34214D01*
X23680Y92742D01*
X22964Y93221D01*
X22119Y93389D01*
X12159D01*
X12084Y93398D01*
X11922Y93432D01*
X11766Y93478D01*
X11613Y93538D01*
X11460Y93613D01*
X11308Y93705D01*
X11154Y93814D01*
X10999Y93942D01*
X10874Y94062D01*
X10822Y94129D01*
X9959Y94792D01*
X8953Y95209D01*
X7874Y95351D01*
X6795Y95209D01*
X5789Y94792D01*
X4926Y94129D01*
X4263Y93266D01*
X3847Y92260D01*
X3704Y91181D01*
X3847Y90102D01*
X4263Y89096D01*
X4926Y88233D01*
X5789Y87570D01*
X6795Y87154D01*
X7874Y87012D01*
X8953Y87154D01*
X9959Y87570D01*
X10822Y88233D01*
X10874Y88300D01*
X10999Y88420D01*
X11154Y88548D01*
X11308Y88657D01*
X11460Y88749D01*
X11613Y88824D01*
X11766Y88884D01*
X11922Y88931D01*
X12084Y88964D01*
X12159Y88973D01*
X21204D01*
X31739Y78439D01*
X32455Y77960D01*
X33300Y77792D01*
X83000D01*
X83845Y77960D01*
X84561Y78439D01*
X95427Y89305D01*
X95490Y89354D01*
X95634Y89449D01*
X95785Y89533D01*
X95947Y89605D01*
X96120Y89666D01*
X96306Y89717D01*
X96507Y89756D01*
X96724Y89783D01*
X96802Y89788D01*
X96840Y89783D01*
X96938Y89796D01*
X96994Y89799D01*
X97025Y89807D01*
X97931Y89926D01*
X98949Y90348D01*
X99822Y91018D01*
X100492Y91891D01*
X100914Y92909D01*
X101057Y94000D01*
X101046Y94087D01*
X101050Y94268D01*
X101069Y94478D01*
X101101Y94673D01*
X101146Y94852D01*
X101201Y95019D01*
X101268Y95175D01*
X101347Y95322D01*
X101439Y95462D01*
X101488Y95526D01*
X102062Y96099D01*
X106044D01*
Y91274D01*
X106026Y91146D01*
X105979Y90955D01*
X105911Y90759D01*
X105821Y90555D01*
X105705Y90343D01*
X105562Y90124D01*
X105391Y89896D01*
X105190Y89662D01*
X105009Y89475D01*
X104913Y89402D01*
X104163Y88424D01*
X103691Y87285D01*
X103531Y86063D01*
X103691Y84841D01*
X104163Y83702D01*
X104913Y82724D01*
X105891Y81974D01*
X107030Y81502D01*
X108252Y81341D01*
X109474Y81502D01*
X110613Y81974D01*
X111591Y82724D01*
X112341Y83702D01*
X112813Y84841D01*
X112973Y86063D01*
X112813Y87285D01*
X112341Y88424D01*
X111591Y89402D01*
X111495Y89475D01*
X111314Y89662D01*
X111113Y89896D01*
X110941Y90123D01*
X110799Y90343D01*
X110683Y90555D01*
X110592Y90759D01*
X110525Y90955D01*
X110478Y91146D01*
X110460Y91274D01*
Y96099D01*
X114096D01*
X114312Y96085D01*
X114614Y96046D01*
X114797Y96009D01*
X115321Y95325D01*
X116195Y94655D01*
X117212Y94234D01*
X118303Y94090D01*
X121303D01*
X122395Y94234D01*
X123412Y94655D01*
X124285Y95325D01*
X124955Y96198D01*
X125377Y97216D01*
X125520Y98307D01*
X125377Y99399D01*
X124955Y100416D01*
X124285Y101289D01*
X123412Y101959D01*
X122395Y102381D01*
X121303Y102524D01*
X118303D01*
X117212Y102381D01*
X116195Y101959D01*
X115321Y101289D01*
X114797Y100606D01*
X114633Y100572D01*
X114037Y100515D01*
X101147D01*
X100302Y100347D01*
X99586Y99868D01*
X98366Y98648D01*
X98302Y98599D01*
X98162Y98507D01*
X98015Y98428D01*
X97859Y98361D01*
X97692Y98305D01*
X97513Y98261D01*
X97318Y98229D01*
X97108Y98210D01*
X96927Y98206D01*
X96840Y98217D01*
X95749Y98074D01*
X94731Y97652D01*
X93858Y96982D01*
X93188Y96109D01*
X92766Y95091D01*
X92623Y94000D01*
X92642Y93855D01*
X92639Y93841D01*
X92643Y93580D01*
X92631Y93378D01*
X92605Y93191D01*
X92567Y93018D01*
X92517Y92858D01*
X92455Y92708D01*
X92380Y92566D01*
X92292Y92429D01*
X92242Y92365D01*
X82086Y82208D01*
X67969D01*
X67870Y82708D01*
X68361Y82911D01*
X69339Y83661D01*
X70089Y84639D01*
X70561Y85778D01*
X70722Y87000D01*
X70706Y87120D01*
X70710Y87380D01*
X70733Y87688D01*
X70773Y87970D01*
X70827Y88226D01*
X70895Y88457D01*
X70975Y88665D01*
X71066Y88852D01*
X71169Y89020D01*
X71246Y89123D01*
X73459Y91337D01*
X73958Y91304D01*
X74178Y91018D01*
X75051Y90348D01*
X76069Y89926D01*
X77160Y89783D01*
X78251Y89926D01*
X79269Y90348D01*
X80142Y91018D01*
X80812Y91891D01*
X81234Y92909D01*
X81377Y94000D01*
X81234Y95091D01*
X80812Y96109D01*
X80417Y96624D01*
X80367Y96718D01*
X80193Y96932D01*
X80060Y97117D01*
X79947Y97298D01*
X79852Y97477D01*
X79773Y97653D01*
X79711Y97827D01*
X79663Y98001D01*
X79629Y98176D01*
X79620Y98253D01*
Y111697D01*
X79630Y111777D01*
X79664Y111941D01*
X79712Y112101D01*
X79775Y112259D01*
X79854Y112416D01*
X79949Y112574D01*
X80064Y112734D01*
X80199Y112897D01*
X80324Y113027D01*
X80394Y113081D01*
X81064Y113954D01*
X81485Y114971D01*
X81629Y116063D01*
X81485Y117155D01*
X81064Y118172D01*
X80394Y119045D01*
X79521Y119715D01*
X78503Y120136D01*
X77412Y120280D01*
D02*
G37*
G36*
X161575Y124564D02*
X160353Y124403D01*
X159214Y123931D01*
X158236Y123181D01*
X157486Y122203D01*
X157014Y121064D01*
X156853Y119843D01*
X157014Y118621D01*
X157486Y117482D01*
X158236Y116504D01*
X158332Y116430D01*
X158513Y116243D01*
X158714Y116009D01*
X158885Y115782D01*
X159028Y115562D01*
X159144Y115351D01*
X159234Y115147D01*
X159302Y114950D01*
X159348Y114759D01*
X159367Y114632D01*
Y109683D01*
X159535Y108838D01*
X160014Y108121D01*
X161894Y106242D01*
X161978Y106120D01*
X162031Y106014D01*
X162052Y105946D01*
X162056Y105903D01*
X162052Y105860D01*
X162031Y105792D01*
X161978Y105686D01*
X161894Y105564D01*
X156844Y100515D01*
X155510D01*
X155294Y100530D01*
X154992Y100568D01*
X154810Y100606D01*
X154285Y101289D01*
X153412Y101959D01*
X152395Y102381D01*
X151303Y102524D01*
X148303D01*
X147212Y102381D01*
X146195Y101959D01*
X145321Y101289D01*
X144651Y100416D01*
X144230Y99399D01*
X144086Y98307D01*
X144230Y97216D01*
X144651Y96198D01*
X145321Y95325D01*
X146195Y94655D01*
X147212Y94234D01*
X148303Y94090D01*
X151303D01*
X152395Y94234D01*
X153412Y94655D01*
X154285Y95325D01*
X154810Y96009D01*
X154973Y96042D01*
X155569Y96099D01*
X157758D01*
X158603Y96267D01*
X159319Y96746D01*
X166916Y104342D01*
X173831Y111257D01*
X173895Y111307D01*
X174035Y111398D01*
X174182Y111477D01*
X174338Y111544D01*
X174504Y111600D01*
X174684Y111644D01*
X174878Y111677D01*
X175089Y111696D01*
X175269Y111700D01*
X175357Y111688D01*
X176448Y111832D01*
X177465Y112253D01*
X178339Y112924D01*
X179009Y113797D01*
X179430Y114814D01*
X179574Y115905D01*
X179430Y116997D01*
X179009Y118014D01*
X178339Y118887D01*
X177465Y119558D01*
X176448Y119979D01*
X175357Y120123D01*
X174265Y119979D01*
X173248Y119558D01*
X172375Y118887D01*
X171705Y118014D01*
X171283Y116997D01*
X171140Y115905D01*
X171151Y115818D01*
X171147Y115637D01*
X171128Y115427D01*
X171096Y115233D01*
X171051Y115053D01*
X170996Y114886D01*
X170928Y114731D01*
X170850Y114584D01*
X170758Y114443D01*
X170709Y114379D01*
X165693Y109364D01*
X165572Y109279D01*
X165465Y109226D01*
X165398Y109205D01*
X165354Y109201D01*
X165311Y109205D01*
X165243Y109226D01*
X165137Y109279D01*
X165016Y109364D01*
X163783Y110597D01*
Y114632D01*
X163801Y114759D01*
X163848Y114950D01*
X163915Y115147D01*
X164006Y115351D01*
X164121Y115562D01*
X164264Y115782D01*
X164436Y116009D01*
X164637Y116243D01*
X164817Y116430D01*
X164913Y116504D01*
X165664Y117482D01*
X166135Y118621D01*
X166296Y119843D01*
X166135Y121064D01*
X165664Y122203D01*
X164913Y123181D01*
X163935Y123931D01*
X162797Y124403D01*
X161575Y124564D01*
D02*
G37*
G36*
X175412Y98280D02*
X174320Y98137D01*
X173303Y97715D01*
X172430Y97045D01*
X171760Y96172D01*
X171338Y95155D01*
X171195Y94063D01*
X171206Y93976D01*
X171202Y93795D01*
X171183Y93585D01*
X171151Y93390D01*
X171106Y93211D01*
X171051Y93044D01*
X170984Y92888D01*
X170905Y92741D01*
X170813Y92601D01*
X170764Y92537D01*
X168742Y90515D01*
X155828D01*
X155698Y90526D01*
X155504Y90558D01*
X155484Y90564D01*
Y92488D01*
X144122D01*
Y90564D01*
X144102Y90558D01*
X143908Y90526D01*
X143778Y90515D01*
X136307D01*
X135462Y90347D01*
X134746Y89868D01*
X129086Y84208D01*
X123618D01*
X123505Y84453D01*
X123481Y84708D01*
X124285Y85325D01*
X124955Y86199D01*
X125377Y87216D01*
X125520Y88307D01*
X125377Y89399D01*
X124955Y90416D01*
X124285Y91289D01*
X123412Y91959D01*
X122395Y92381D01*
X121303Y92524D01*
X118303D01*
X117212Y92381D01*
X116195Y91959D01*
X115321Y91289D01*
X114651Y90416D01*
X114230Y89399D01*
X114086Y88307D01*
X114230Y87216D01*
X114651Y86199D01*
X115321Y85325D01*
X116195Y84655D01*
X117212Y84234D01*
X117490Y84197D01*
X117612Y83677D01*
X117439Y83561D01*
X110085Y76208D01*
X29114D01*
X22580Y82742D01*
X21864Y83221D01*
X21019Y83389D01*
X12159D01*
X12084Y83398D01*
X11922Y83432D01*
X11766Y83478D01*
X11613Y83538D01*
X11460Y83613D01*
X11308Y83705D01*
X11154Y83814D01*
X10999Y83943D01*
X10874Y84062D01*
X10822Y84129D01*
X9959Y84792D01*
X8953Y85209D01*
X7874Y85351D01*
X6795Y85209D01*
X5789Y84792D01*
X4926Y84129D01*
X4263Y83266D01*
X3847Y82260D01*
X3704Y81181D01*
X3847Y80102D01*
X4263Y79096D01*
X4926Y78233D01*
X5789Y77570D01*
X6795Y77154D01*
X7874Y77012D01*
X8953Y77154D01*
X9959Y77570D01*
X10822Y78233D01*
X10874Y78300D01*
X10999Y78420D01*
X11154Y78548D01*
X11308Y78658D01*
X11460Y78749D01*
X11613Y78824D01*
X11766Y78884D01*
X11922Y78931D01*
X12084Y78964D01*
X12159Y78973D01*
X20104D01*
X26639Y72439D01*
X27355Y71960D01*
X28200Y71792D01*
X111000D01*
X111845Y71960D01*
X112561Y72439D01*
X119914Y79792D01*
X123031D01*
X123130Y79292D01*
X122639Y79089D01*
X121661Y78339D01*
X120911Y77361D01*
X120439Y76222D01*
X120279Y75000D01*
X120439Y73778D01*
X120911Y72639D01*
X121661Y71661D01*
X122639Y70911D01*
X123778Y70439D01*
X125000Y70279D01*
X125004Y70279D01*
X125092Y70232D01*
X125225Y70149D01*
X125370Y70044D01*
X126046Y69461D01*
X126060Y69447D01*
X132823Y62684D01*
Y34316D01*
X124624Y26116D01*
X124059Y25573D01*
X123418Y25009D01*
X122851Y24566D01*
X122369Y24247D01*
X122356Y24240D01*
X122056Y24365D01*
X120965Y24509D01*
X117965D01*
X116873Y24365D01*
X115856Y23944D01*
X114983Y23273D01*
X114312Y22400D01*
X113891Y21383D01*
X113747Y20291D01*
X113891Y19200D01*
X114312Y18183D01*
X114983Y17309D01*
X115856Y16639D01*
X116873Y16218D01*
X117965Y16074D01*
X120345D01*
X120552Y15574D01*
X113186Y8208D01*
X40914D01*
X34460Y14662D01*
Y20857D01*
X34470Y20937D01*
X34504Y21101D01*
X34552Y21261D01*
X34615Y21418D01*
X34694Y21576D01*
X34789Y21734D01*
X34904Y21894D01*
X35039Y22057D01*
X35164Y22187D01*
X35234Y22241D01*
X35904Y23114D01*
X36325Y24132D01*
X36469Y25223D01*
X36458Y25310D01*
X36462Y25491D01*
X36481Y25701D01*
X36513Y25896D01*
X36557Y26075D01*
X36613Y26242D01*
X36680Y26398D01*
X36759Y26545D01*
X36851Y26685D01*
X36900Y26749D01*
X48813Y38662D01*
X49292Y39378D01*
X49460Y40223D01*
Y46852D01*
X49478Y46980D01*
X49525Y47171D01*
X49593Y47367D01*
X49683Y47571D01*
X49799Y47783D01*
X49941Y48002D01*
X50113Y48230D01*
X50314Y48464D01*
X50494Y48651D01*
X50591Y48724D01*
X51341Y49702D01*
X51813Y50841D01*
X51973Y52063D01*
X51813Y53285D01*
X51341Y54424D01*
X50591Y55402D01*
X49613Y56152D01*
X48474Y56624D01*
X47252Y56784D01*
X46030Y56624D01*
X44891Y56152D01*
X43913Y55402D01*
X43163Y54424D01*
X42691Y53285D01*
X42531Y52063D01*
X42691Y50841D01*
X43163Y49702D01*
X43913Y48724D01*
X44009Y48651D01*
X44190Y48464D01*
X44391Y48230D01*
X44563Y48002D01*
X44705Y47783D01*
X44821Y47571D01*
X44911Y47367D01*
X44979Y47171D01*
X45026Y46980D01*
X45044Y46852D01*
Y41137D01*
X33778Y29871D01*
X33714Y29822D01*
X33574Y29730D01*
X33427Y29651D01*
X33271Y29584D01*
X33104Y29528D01*
X32925Y29484D01*
X32730Y29452D01*
X32520Y29433D01*
X32339Y29429D01*
X32252Y29440D01*
X31161Y29296D01*
X30143Y28875D01*
X29270Y28205D01*
X28600Y27332D01*
X28179Y26314D01*
X28035Y25223D01*
X28179Y24132D01*
X28600Y23114D01*
X29270Y22241D01*
X29340Y22187D01*
X29465Y22057D01*
X29600Y21894D01*
X29714Y21734D01*
X29810Y21576D01*
X29889Y21418D01*
X29951Y21261D01*
X30000Y21101D01*
X30034Y20937D01*
X30044Y20857D01*
Y13748D01*
X30212Y12903D01*
X30691Y12187D01*
X38439Y4439D01*
X39155Y3960D01*
X40000Y3792D01*
X114100D01*
X114945Y3960D01*
X115661Y4439D01*
X119889Y8666D01*
X120337Y8445D01*
X120279Y8000D01*
X120439Y6778D01*
X120911Y5639D01*
X121661Y4661D01*
X122639Y3911D01*
X123778Y3439D01*
X125000Y3278D01*
X126222Y3439D01*
X127361Y3911D01*
X128339Y4661D01*
X129089Y5639D01*
X129561Y6778D01*
X129721Y8000D01*
X129561Y9222D01*
X129089Y10361D01*
X128339Y11339D01*
X127361Y12089D01*
X126870Y12292D01*
X126969Y12792D01*
X142100D01*
X142945Y12960D01*
X143661Y13439D01*
X145649Y15426D01*
X146021Y15774D01*
X146320Y16016D01*
X146453Y16110D01*
X150687D01*
X150911Y15960D01*
X151756Y15792D01*
X156789D01*
X156917Y15774D01*
X157108Y15727D01*
X157304Y15660D01*
X157508Y15569D01*
X157720Y15453D01*
X157939Y15311D01*
X158167Y15139D01*
X158401Y14938D01*
X158588Y14757D01*
X158661Y14661D01*
X159639Y13911D01*
X160778Y13439D01*
X162000Y13279D01*
X163222Y13439D01*
X164361Y13911D01*
X165339Y14661D01*
X166089Y15639D01*
X166561Y16778D01*
X166721Y18000D01*
X166561Y19222D01*
X166089Y20361D01*
X165339Y21339D01*
X165243Y21412D01*
X165062Y21599D01*
X164861Y21833D01*
X164689Y22061D01*
X164547Y22280D01*
X164431Y22492D01*
X164340Y22696D01*
X164273Y22892D01*
X164226Y23083D01*
X164208Y23211D01*
Y28086D01*
X181561Y45439D01*
X182040Y46155D01*
X182208Y47000D01*
Y62000D01*
X182040Y62845D01*
X181561Y63561D01*
X177955Y67167D01*
X177921Y67427D01*
X177984Y67754D01*
X178001Y67780D01*
X178394Y68081D01*
X179064Y68954D01*
X179485Y69972D01*
X179629Y71063D01*
X179485Y72154D01*
X179064Y73172D01*
X178394Y74045D01*
X177521Y74715D01*
X176503Y75137D01*
X175412Y75280D01*
X174320Y75137D01*
X173303Y74715D01*
X172430Y74045D01*
X171760Y73172D01*
X171338Y72154D01*
X171195Y71063D01*
X171338Y69972D01*
X171760Y68954D01*
X172430Y68081D01*
X172822Y67780D01*
X172840Y67754D01*
X172893Y67718D01*
X172935Y67669D01*
X173011Y67607D01*
X173027Y67590D01*
X173049Y67559D01*
X173079Y67507D01*
X173112Y67428D01*
X173145Y67320D01*
X173176Y67182D01*
X173201Y67013D01*
X173204Y66975D01*
Y66588D01*
X173372Y65743D01*
X173851Y65027D01*
X177792Y61085D01*
Y54969D01*
X177292Y54870D01*
X177089Y55361D01*
X176339Y56339D01*
X175361Y57089D01*
X174222Y57561D01*
X173000Y57722D01*
X171778Y57561D01*
X170639Y57089D01*
X169661Y56339D01*
X169588Y56243D01*
X169401Y56062D01*
X169167Y55861D01*
X168939Y55689D01*
X168720Y55547D01*
X168508Y55431D01*
X168304Y55340D01*
X168108Y55273D01*
X167917Y55226D01*
X167789Y55208D01*
X167211D01*
X167083Y55226D01*
X166892Y55273D01*
X166696Y55340D01*
X166492Y55431D01*
X166280Y55547D01*
X166061Y55689D01*
X165833Y55861D01*
X165599Y56062D01*
X165412Y56243D01*
X165339Y56339D01*
X164361Y57089D01*
X163222Y57561D01*
X162000Y57722D01*
X160778Y57561D01*
X159639Y57089D01*
X158661Y56339D01*
X157911Y55361D01*
X157439Y54222D01*
X157279Y53000D01*
X157439Y51778D01*
X157911Y50639D01*
X158248Y50200D01*
X158291Y50108D01*
X158741Y49489D01*
X158898Y49234D01*
X159037Y48979D01*
X159150Y48735D01*
X159239Y48504D01*
X159305Y48285D01*
X159351Y48079D01*
X159367Y47955D01*
Y36505D01*
X155361Y32499D01*
X155172D01*
X154955Y32514D01*
X154654Y32552D01*
X154471Y32590D01*
X153947Y33273D01*
X153073Y33944D01*
X152056Y34365D01*
X150965Y34508D01*
X147965D01*
X146873Y34365D01*
X145856Y33944D01*
X144983Y33273D01*
X144312Y32400D01*
X143891Y31383D01*
X143747Y30291D01*
X143891Y29200D01*
X144312Y28183D01*
X144983Y27309D01*
X145856Y26639D01*
X146873Y26218D01*
X147965Y26074D01*
X150965D01*
X152056Y26218D01*
X153073Y26639D01*
X153947Y27309D01*
X154471Y27993D01*
X154635Y28027D01*
X155230Y28084D01*
X156276D01*
X157121Y28252D01*
X157837Y28730D01*
X163136Y34029D01*
X163614Y34746D01*
X163783Y35590D01*
Y47686D01*
X163802Y47813D01*
X163848Y47987D01*
X163914Y48160D01*
X164001Y48334D01*
X164114Y48512D01*
X164253Y48694D01*
X164423Y48881D01*
X164626Y49072D01*
X164891Y49290D01*
X164954Y49367D01*
X165339Y49661D01*
X165412Y49757D01*
X165599Y49938D01*
X165833Y50139D01*
X166060Y50311D01*
X166280Y50453D01*
X166492Y50569D01*
X166696Y50660D01*
X166892Y50727D01*
X167083Y50774D01*
X167211Y50792D01*
X167789D01*
X167917Y50774D01*
X168108Y50727D01*
X168304Y50660D01*
X168508Y50569D01*
X168720Y50453D01*
X168939Y50311D01*
X169167Y50139D01*
X169401Y49938D01*
X169588Y49757D01*
X169661Y49661D01*
X170639Y48911D01*
X171778Y48439D01*
X173000Y48278D01*
X174222Y48439D01*
X175361Y48911D01*
X176339Y49661D01*
X177089Y50639D01*
X177292Y51130D01*
X177792Y51031D01*
Y47914D01*
X160439Y30561D01*
X159960Y29845D01*
X159792Y29000D01*
Y23211D01*
X159774Y23083D01*
X159727Y22892D01*
X159660Y22696D01*
X159569Y22492D01*
X159453Y22280D01*
X159311Y22061D01*
X159139Y21833D01*
X158938Y21599D01*
X158757Y21412D01*
X158661Y21339D01*
X158588Y21243D01*
X158401Y21062D01*
X158167Y20861D01*
X157940Y20689D01*
X157720Y20547D01*
X157508Y20431D01*
X157304Y20340D01*
X157108Y20273D01*
X156917Y20226D01*
X156789Y20208D01*
X155491D01*
X155361Y20219D01*
X155168Y20251D01*
X155146Y20257D01*
Y24472D01*
X143783D01*
Y20002D01*
X143726Y19900D01*
X143572Y19678D01*
X143132Y19155D01*
X141185Y17208D01*
X125268D01*
X125098Y17708D01*
X125538Y18045D01*
X138246Y30754D01*
X138751Y31412D01*
X139068Y32178D01*
X139177Y33000D01*
Y64000D01*
X139068Y64822D01*
X138751Y65588D01*
X138246Y66246D01*
X130678Y73815D01*
X130309Y74203D01*
X129962Y74621D01*
X129851Y74775D01*
X129768Y74908D01*
X129721Y74996D01*
X129721Y75000D01*
X129561Y76222D01*
X129089Y77361D01*
X128339Y78339D01*
X127361Y79089D01*
X126870Y79292D01*
X126969Y79792D01*
X130000D01*
X130845Y79960D01*
X131561Y80439D01*
X137222Y86099D01*
X143778D01*
X143908Y86088D01*
X144102Y86056D01*
X144122Y86050D01*
Y84126D01*
X155484D01*
Y86050D01*
X155504Y86056D01*
X155698Y86088D01*
X155828Y86099D01*
X156514D01*
X156953Y85599D01*
X156853Y84842D01*
X157014Y83621D01*
X157486Y82482D01*
X158236Y81504D01*
X159214Y80754D01*
X160353Y80282D01*
X161575Y80121D01*
X162797Y80282D01*
X163935Y80754D01*
X164913Y81504D01*
X165664Y82482D01*
X166135Y83621D01*
X166296Y84842D01*
X166197Y85599D01*
X166635Y86099D01*
X169656D01*
X170501Y86267D01*
X171217Y86746D01*
X173886Y89415D01*
X173950Y89464D01*
X174090Y89556D01*
X174237Y89635D01*
X174393Y89702D01*
X174560Y89758D01*
X174739Y89802D01*
X174934Y89834D01*
X175144Y89853D01*
X175325Y89857D01*
X175412Y89846D01*
X176503Y89990D01*
X177521Y90411D01*
X178394Y91081D01*
X179064Y91954D01*
X179485Y92971D01*
X179629Y94063D01*
X179485Y95155D01*
X179064Y96172D01*
X178394Y97045D01*
X177521Y97715D01*
X176503Y98137D01*
X175412Y98280D01*
D02*
G37*
G36*
X66000Y126722D02*
X64778Y126561D01*
X63639Y126089D01*
X62661Y125339D01*
X62588Y125243D01*
X62401Y125062D01*
X62167Y124861D01*
X61939Y124689D01*
X61720Y124547D01*
X61508Y124431D01*
X61304Y124340D01*
X61108Y124273D01*
X60917Y124226D01*
X60789Y124208D01*
X56160D01*
X55315Y124040D01*
X54599Y123561D01*
X51526Y120488D01*
X51462Y120439D01*
X51322Y120347D01*
X51175Y120268D01*
X51019Y120201D01*
X50852Y120145D01*
X50673Y120101D01*
X50478Y120069D01*
X50268Y120050D01*
X50087Y120046D01*
X50000Y120057D01*
X48908Y119913D01*
X47891Y119492D01*
X47018Y118822D01*
X46348Y117949D01*
X45926Y116931D01*
X45783Y115840D01*
X45926Y114749D01*
X46348Y113731D01*
X47018Y112858D01*
X47891Y112188D01*
X48908Y111767D01*
X50000Y111623D01*
X51091Y111767D01*
X52109Y112188D01*
X52982Y112858D01*
X53652Y113731D01*
X54074Y114749D01*
X54217Y115840D01*
X54206Y115927D01*
X54210Y116108D01*
X54229Y116318D01*
X54261Y116513D01*
X54305Y116692D01*
X54361Y116859D01*
X54428Y117015D01*
X54507Y117162D01*
X54599Y117302D01*
X54648Y117366D01*
X57074Y119792D01*
X60789D01*
X60917Y119774D01*
X61108Y119727D01*
X61304Y119659D01*
X61508Y119569D01*
X61720Y119453D01*
X61939Y119311D01*
X62167Y119139D01*
X62401Y118938D01*
X62588Y118757D01*
X62661Y118661D01*
X63639Y117911D01*
X64778Y117439D01*
X66000Y117279D01*
X67222Y117439D01*
X68361Y117911D01*
X69339Y118661D01*
X70089Y119639D01*
X70561Y120778D01*
X70722Y122000D01*
X70561Y123222D01*
X70089Y124361D01*
X69339Y125339D01*
X68361Y126089D01*
X67222Y126561D01*
X66000Y126722D01*
D02*
G37*
G36*
X49500Y100129D02*
X48956Y100057D01*
X47983Y99654D01*
X47147Y99013D01*
X46506Y98177D01*
X46103Y97204D01*
X46031Y96660D01*
X49500D01*
Y100129D01*
D02*
G37*
G36*
X119303Y122342D02*
X118303D01*
X117259Y122204D01*
X116286Y121801D01*
X115450Y121160D01*
X114809Y120324D01*
X114406Y119351D01*
X114334Y118807D01*
X119303D01*
Y122342D01*
D02*
G37*
G36*
X149303Y112342D02*
X148303D01*
X147259Y112204D01*
X146286Y111801D01*
X145450Y111160D01*
X144809Y110324D01*
X144406Y109351D01*
X144334Y108807D01*
X149303D01*
Y112342D01*
D02*
G37*
G36*
X151303D02*
X150303D01*
Y108807D01*
X155272D01*
X155200Y109351D01*
X154797Y110324D01*
X154156Y111160D01*
X153320Y111801D01*
X152347Y112204D01*
X151303Y112342D01*
D02*
G37*
G36*
X108252Y125785D02*
X107030Y125624D01*
X105891Y125152D01*
X104913Y124402D01*
X104163Y123424D01*
X103691Y122285D01*
X103531Y121063D01*
X103691Y119841D01*
X104163Y118702D01*
X104913Y117724D01*
X105009Y117651D01*
X105190Y117464D01*
X105391Y117230D01*
X105562Y117002D01*
X105705Y116783D01*
X105821Y116571D01*
X105911Y116367D01*
X105979Y116171D01*
X106026Y115980D01*
X106044Y115852D01*
Y110940D01*
X105544Y110733D01*
X101740Y114537D01*
X101690Y114601D01*
X101599Y114741D01*
X101520Y114888D01*
X101453Y115044D01*
X101398Y115211D01*
X101353Y115390D01*
X101321Y115585D01*
X101302Y115795D01*
X101298Y115976D01*
X101309Y116063D01*
X101165Y117155D01*
X100744Y118172D01*
X100074Y119045D01*
X99200Y119715D01*
X98184Y120136D01*
X97092Y120280D01*
X96000Y120136D01*
X94983Y119715D01*
X94110Y119045D01*
X93440Y118172D01*
X93019Y117155D01*
X92875Y116063D01*
X93019Y114971D01*
X93440Y113954D01*
X94110Y113081D01*
X94983Y112411D01*
X96000Y111989D01*
X97092Y111846D01*
X97179Y111857D01*
X97360Y111853D01*
X97570Y111834D01*
X97764Y111802D01*
X97944Y111758D01*
X98111Y111702D01*
X98267Y111635D01*
X98414Y111556D01*
X98554Y111464D01*
X98618Y111415D01*
X103287Y106746D01*
X104003Y106267D01*
X104848Y106099D01*
X114096D01*
X114312Y106085D01*
X114614Y106046D01*
X114797Y106009D01*
X115321Y105325D01*
X116195Y104655D01*
X117212Y104234D01*
X118303Y104090D01*
X121303D01*
X122395Y104234D01*
X123412Y104655D01*
X124285Y105325D01*
X124955Y106199D01*
X125377Y107216D01*
X125520Y108307D01*
X125377Y109399D01*
X124955Y110416D01*
X124285Y111289D01*
X123412Y111959D01*
X122395Y112381D01*
X121303Y112524D01*
X118303D01*
X117212Y112381D01*
X116195Y111959D01*
X115321Y111289D01*
X114797Y110606D01*
X114633Y110572D01*
X114037Y110515D01*
X110460D01*
Y115852D01*
X110478Y115980D01*
X110525Y116171D01*
X110592Y116367D01*
X110683Y116571D01*
X110799Y116783D01*
X110941Y117002D01*
X111113Y117230D01*
X111314Y117464D01*
X111495Y117651D01*
X111591Y117724D01*
X112341Y118702D01*
X112813Y119841D01*
X112973Y121063D01*
X112813Y122285D01*
X112341Y123424D01*
X111591Y124402D01*
X110613Y125152D01*
X109474Y125624D01*
X108252Y125785D01*
D02*
G37*
G36*
X50500Y100129D02*
Y96660D01*
X53969D01*
X53897Y97204D01*
X53494Y98177D01*
X52853Y99013D01*
X52017Y99654D01*
X51044Y100057D01*
X50500Y100129D01*
D02*
G37*
G36*
X149303Y107807D02*
X144334D01*
X144406Y107263D01*
X144809Y106290D01*
X145450Y105454D01*
X146286Y104813D01*
X147259Y104410D01*
X148303Y104273D01*
X149303D01*
Y107807D01*
D02*
G37*
G36*
X155272D02*
X150303D01*
Y104273D01*
X151303D01*
X152347Y104410D01*
X153320Y104813D01*
X154156Y105454D01*
X154797Y106290D01*
X155200Y107263D01*
X155272Y107807D01*
D02*
G37*
G36*
X125091Y130366D02*
X121117D01*
X121206Y129691D01*
X121660Y128597D01*
X122381Y127657D01*
X123321Y126935D01*
X124416Y126482D01*
X125091Y126393D01*
Y130366D01*
D02*
G37*
G36*
X228346Y95351D02*
X227267Y95209D01*
X226262Y94792D01*
X225398Y94129D01*
X224736Y93266D01*
X224319Y92260D01*
X224177Y91181D01*
X224319Y90102D01*
X224736Y89096D01*
X225398Y88233D01*
X226262Y87570D01*
X227267Y87154D01*
X228346Y87012D01*
X229426Y87154D01*
X230431Y87570D01*
X231295Y88233D01*
X231957Y89096D01*
X232374Y90102D01*
X232516Y91181D01*
X232374Y92260D01*
X231957Y93266D01*
X231295Y94129D01*
X230431Y94792D01*
X229426Y95209D01*
X228346Y95351D01*
D02*
G37*
G36*
X224410Y137042D02*
X223020Y136905D01*
X221684Y136500D01*
X220453Y135842D01*
X219374Y134957D01*
X218489Y133877D01*
X217831Y132646D01*
X217425Y131310D01*
X217288Y129921D01*
X217425Y128532D01*
X217831Y127196D01*
X218489Y125965D01*
X219374Y124886D01*
X220453Y124001D01*
X221684Y123342D01*
X223020Y122937D01*
X224410Y122800D01*
X225799Y122937D01*
X227134Y123342D01*
X228366Y124001D01*
X229445Y124886D01*
X230330Y125965D01*
X230988Y127196D01*
X231394Y128532D01*
X231530Y129921D01*
X231394Y131310D01*
X230988Y132646D01*
X230330Y133877D01*
X229445Y134957D01*
X228366Y135842D01*
X227134Y136500D01*
X225799Y136905D01*
X224410Y137042D01*
D02*
G37*
G36*
X208819Y124131D02*
X207597Y123970D01*
X206458Y123498D01*
X205480Y122748D01*
X205407Y122652D01*
X205220Y122471D01*
X204986Y122270D01*
X204758Y122099D01*
X204539Y121956D01*
X204327Y121841D01*
X204123Y121750D01*
X203927Y121682D01*
X203736Y121636D01*
X203608Y121617D01*
X198541D01*
X197696Y121449D01*
X196980Y120971D01*
X196563Y120554D01*
X196499Y120504D01*
X196359Y120413D01*
X196212Y120334D01*
X196056Y120267D01*
X195889Y120211D01*
X195709Y120167D01*
X195515Y120134D01*
X195305Y120115D01*
X195124Y120111D01*
X195037Y120123D01*
X193945Y119979D01*
X192928Y119558D01*
X192055Y118887D01*
X191385Y118014D01*
X190963Y116997D01*
X190820Y115905D01*
X190963Y114814D01*
X191385Y113797D01*
X192055Y112924D01*
X192125Y112870D01*
X192250Y112739D01*
X192385Y112577D01*
X192499Y112417D01*
X192595Y112258D01*
X192674Y112101D01*
X192736Y111943D01*
X192785Y111784D01*
X192819Y111620D01*
X192829Y111539D01*
Y98407D01*
X192819Y98327D01*
X192785Y98161D01*
X192736Y97998D01*
X192674Y97837D01*
X192595Y97675D01*
X192499Y97512D01*
X192384Y97347D01*
X192250Y97180D01*
X192162Y97085D01*
X192110Y97045D01*
X191440Y96172D01*
X191018Y95155D01*
X190875Y94063D01*
X191018Y92971D01*
X191440Y91954D01*
X192110Y91081D01*
X192162Y91041D01*
X192250Y90946D01*
X192384Y90779D01*
X192499Y90614D01*
X192595Y90451D01*
X192674Y90289D01*
X192736Y90128D01*
X192785Y89965D01*
X192819Y89799D01*
X192829Y89719D01*
Y75407D01*
X192819Y75327D01*
X192785Y75161D01*
X192736Y74998D01*
X192674Y74836D01*
X192595Y74675D01*
X192499Y74512D01*
X192384Y74347D01*
X192250Y74180D01*
X192162Y74085D01*
X192110Y74045D01*
X191440Y73172D01*
X191018Y72154D01*
X190875Y71063D01*
X191018Y69972D01*
X191440Y68954D01*
X192110Y68081D01*
X192983Y67411D01*
X194000Y66989D01*
X195092Y66846D01*
X196183Y66989D01*
X197201Y67411D01*
X198074Y68081D01*
X198744Y68954D01*
X199165Y69972D01*
X199309Y71063D01*
X199165Y72154D01*
X198744Y73172D01*
X198074Y74045D01*
X197989Y74110D01*
X197823Y74278D01*
X197688Y74435D01*
X197573Y74590D01*
X197478Y74744D01*
X197400Y74897D01*
X197337Y75051D01*
X197289Y75208D01*
X197255Y75369D01*
X197245Y75450D01*
Y89676D01*
X197255Y89757D01*
X197289Y89918D01*
X197337Y90075D01*
X197400Y90229D01*
X197478Y90382D01*
X197573Y90536D01*
X197688Y90691D01*
X197823Y90848D01*
X197989Y91015D01*
X198074Y91081D01*
X198744Y91954D01*
X199165Y92971D01*
X199309Y94063D01*
X199165Y95155D01*
X198744Y96172D01*
X198074Y97045D01*
X197989Y97110D01*
X197823Y97278D01*
X197688Y97435D01*
X197573Y97590D01*
X197478Y97744D01*
X197400Y97897D01*
X197337Y98051D01*
X197289Y98208D01*
X197255Y98369D01*
X197245Y98450D01*
Y111539D01*
X197255Y111620D01*
X197289Y111784D01*
X197337Y111943D01*
X197400Y112101D01*
X197479Y112258D01*
X197574Y112417D01*
X197689Y112577D01*
X197824Y112739D01*
X197949Y112870D01*
X198019Y112924D01*
X198689Y113797D01*
X199110Y114814D01*
X199254Y115905D01*
X199242Y115993D01*
X199247Y116174D01*
X199266Y116384D01*
X199298Y116578D01*
X199342Y116758D01*
X199398Y116925D01*
X199465Y117080D01*
X199530Y117202D01*
X203608D01*
X203736Y117183D01*
X203927Y117137D01*
X204123Y117069D01*
X204327Y116978D01*
X204539Y116863D01*
X204758Y116720D01*
X204986Y116549D01*
X205220Y116348D01*
X205407Y116167D01*
X205480Y116071D01*
X206458Y115321D01*
X207597Y114849D01*
X208819Y114688D01*
X210041Y114849D01*
X211180Y115321D01*
X212158Y116071D01*
X212908Y117049D01*
X213380Y118187D01*
X213540Y119409D01*
X213380Y120632D01*
X212908Y121770D01*
X212158Y122748D01*
X211180Y123498D01*
X210041Y123970D01*
X208819Y124131D01*
D02*
G37*
G36*
X11811Y137042D02*
X10422Y136905D01*
X9086Y136500D01*
X7855Y135842D01*
X6776Y134957D01*
X5890Y133877D01*
X5232Y132646D01*
X4827Y131310D01*
X4690Y129921D01*
X4827Y128532D01*
X5232Y127196D01*
X5890Y125965D01*
X6776Y124886D01*
X7855Y124001D01*
X9086Y123342D01*
X10422Y122937D01*
X11811Y122800D01*
X13200Y122937D01*
X14536Y123342D01*
X15767Y124001D01*
X16846Y124886D01*
X17732Y125965D01*
X18390Y127196D01*
X18795Y128532D01*
X18932Y129921D01*
X18795Y131310D01*
X18390Y132646D01*
X17732Y133877D01*
X16846Y134957D01*
X15767Y135842D01*
X14536Y136500D01*
X13200Y136905D01*
X11811Y137042D01*
D02*
G37*
G36*
X119303Y117807D02*
X114334D01*
X114406Y117263D01*
X114809Y116290D01*
X115450Y115454D01*
X116286Y114813D01*
X117259Y114410D01*
X118303Y114273D01*
X119303D01*
Y117807D01*
D02*
G37*
G36*
X125272D02*
X120303D01*
Y114273D01*
X121303D01*
X122347Y114410D01*
X123320Y114813D01*
X124156Y115454D01*
X124797Y116290D01*
X125200Y117263D01*
X125272Y117807D01*
D02*
G37*
G36*
X209319Y88882D02*
Y84909D01*
X213292D01*
X213203Y85584D01*
X212750Y86679D01*
X212028Y87619D01*
X211088Y88340D01*
X209994Y88794D01*
X209319Y88882D01*
D02*
G37*
G36*
X126091Y135339D02*
Y131366D01*
X130063D01*
X129975Y132041D01*
X129521Y133136D01*
X128800Y134076D01*
X127860Y134797D01*
X126765Y135250D01*
X126091Y135339D01*
D02*
G37*
G36*
X130063Y130366D02*
X126091D01*
Y126393D01*
X126765Y126482D01*
X127860Y126935D01*
X128800Y127657D01*
X129521Y128597D01*
X129975Y129691D01*
X130063Y130366D01*
D02*
G37*
G36*
X125091Y135339D02*
X124416Y135250D01*
X123321Y134797D01*
X122381Y134076D01*
X121660Y133136D01*
X121206Y132041D01*
X121117Y131366D01*
X125091D01*
Y135339D01*
D02*
G37*
%LPD*%
G36*
X153231Y32067D02*
X153307Y31901D01*
X153435Y31754D01*
X153613Y31627D01*
X153843Y31520D01*
X154124Y31432D01*
X154455Y31363D01*
X154838Y31315D01*
X155272Y31285D01*
X155757Y31276D01*
Y29307D01*
X155272Y29297D01*
X154455Y29219D01*
X154124Y29151D01*
X153843Y29063D01*
X153613Y28956D01*
X153435Y28828D01*
X153307Y28682D01*
X153231Y28516D01*
X153205Y28330D01*
Y32252D01*
X153231Y32067D01*
D02*
G37*
G36*
X115724Y38331D02*
X115698Y38516D01*
X115622Y38682D01*
X115494Y38829D01*
X115316Y38956D01*
X115086Y39063D01*
X114805Y39151D01*
X114474Y39219D01*
X114091Y39268D01*
X113657Y39297D01*
X113172Y39307D01*
Y41276D01*
X113657Y41285D01*
X114474Y41363D01*
X114805Y41432D01*
X115086Y41520D01*
X115316Y41627D01*
X115494Y41754D01*
X115622Y41901D01*
X115698Y42067D01*
X115724Y42252D01*
Y38331D01*
D02*
G37*
G36*
X106259Y44566D02*
X106286Y44271D01*
X106333Y43987D01*
X106400Y43715D01*
X106487Y43454D01*
X106595Y43205D01*
X106722Y42967D01*
X106869Y42741D01*
X107037Y42526D01*
X107225Y42322D01*
X105833Y40930D01*
X105629Y41118D01*
X105414Y41285D01*
X105188Y41433D01*
X104950Y41560D01*
X104701Y41668D01*
X104440Y41755D01*
X104168Y41822D01*
X103884Y41869D01*
X103589Y41896D01*
X103282Y41903D01*
X106252Y44873D01*
X106259Y44566D01*
D02*
G37*
G36*
X103222Y41903D02*
X102915Y41896D01*
X102620Y41869D01*
X102336Y41822D01*
X102064Y41755D01*
X101803Y41668D01*
X101554Y41560D01*
X101316Y41433D01*
X101090Y41285D01*
X100875Y41118D01*
X100671Y40930D01*
X99279Y42322D01*
X99467Y42526D01*
X99634Y42741D01*
X99782Y42967D01*
X99909Y43205D01*
X100017Y43454D01*
X100104Y43715D01*
X100171Y43987D01*
X100218Y44271D01*
X100245Y44566D01*
X100252Y44873D01*
X103222Y41903D01*
D02*
G37*
G36*
X61970Y40840D02*
X61663Y40833D01*
X61368Y40806D01*
X61084Y40759D01*
X60812Y40692D01*
X60551Y40605D01*
X60302Y40497D01*
X60064Y40370D01*
X59838Y40223D01*
X59623Y40055D01*
X59419Y39867D01*
X58027Y41259D01*
X58215Y41463D01*
X58383Y41678D01*
X58530Y41904D01*
X58657Y42142D01*
X58765Y42391D01*
X58852Y42652D01*
X58919Y42924D01*
X58966Y43208D01*
X58993Y43503D01*
X59000Y43810D01*
X61970Y40840D01*
D02*
G37*
G36*
X163746Y117055D02*
X163497Y116765D01*
X163277Y116473D01*
X163087Y116180D01*
X162926Y115885D01*
X162794Y115588D01*
X162691Y115290D01*
X162618Y114989D01*
X162574Y114687D01*
X162559Y114384D01*
X160591D01*
X160576Y114687D01*
X160532Y114989D01*
X160459Y115290D01*
X160356Y115588D01*
X160224Y115885D01*
X160063Y116180D01*
X159872Y116473D01*
X159652Y116765D01*
X159403Y117055D01*
X159125Y117343D01*
X164025D01*
X163746Y117055D01*
D02*
G37*
G36*
X206319Y116959D02*
X206031Y117238D01*
X205741Y117487D01*
X205450Y117707D01*
X205156Y117897D01*
X204861Y118059D01*
X204564Y118191D01*
X204266Y118293D01*
X203966Y118367D01*
X203664Y118411D01*
X203360Y118425D01*
Y120394D01*
X203664Y120408D01*
X203966Y120452D01*
X204266Y120526D01*
X204564Y120628D01*
X204861Y120760D01*
X205156Y120921D01*
X205450Y121112D01*
X205741Y121332D01*
X206031Y121581D01*
X206319Y121859D01*
Y116959D01*
D02*
G37*
G36*
X190709Y29339D02*
X190684Y29525D01*
X190607Y29691D01*
X190480Y29837D01*
X190301Y29964D01*
X190071Y30072D01*
X189791Y30160D01*
X189459Y30228D01*
X189076Y30277D01*
X188643Y30306D01*
X188158Y30316D01*
Y32284D01*
X188643Y32294D01*
X189459Y32372D01*
X189791Y32441D01*
X190071Y32528D01*
X190301Y32636D01*
X190480Y32763D01*
X190607Y32909D01*
X190684Y33075D01*
X190709Y33261D01*
Y29339D01*
D02*
G37*
G36*
X199010Y118486D02*
X198822Y118283D01*
X198654Y118068D01*
X198507Y117841D01*
X198379Y117604D01*
X198272Y117354D01*
X198185Y117094D01*
X198118Y116821D01*
X198071Y116537D01*
X198044Y116242D01*
X198037Y115936D01*
X195067Y118905D01*
X195374Y118912D01*
X195669Y118939D01*
X195953Y118986D01*
X196225Y119053D01*
X196486Y119141D01*
X196735Y119248D01*
X196973Y119376D01*
X197199Y119523D01*
X197414Y119691D01*
X197618Y119878D01*
X199010Y118486D01*
D02*
G37*
G36*
X110424Y118275D02*
X110174Y117985D01*
X109954Y117694D01*
X109764Y117400D01*
X109603Y117105D01*
X109471Y116808D01*
X109368Y116510D01*
X109295Y116210D01*
X109251Y115908D01*
X109236Y115604D01*
X107268D01*
X107253Y115908D01*
X107209Y116210D01*
X107136Y116510D01*
X107033Y116808D01*
X106901Y117105D01*
X106740Y117400D01*
X106550Y117694D01*
X106330Y117985D01*
X106080Y118275D01*
X105802Y118563D01*
X110702D01*
X110424Y118275D01*
D02*
G37*
G36*
X53973Y118421D02*
X53785Y118217D01*
X53617Y118002D01*
X53470Y117776D01*
X53343Y117538D01*
X53235Y117289D01*
X53148Y117028D01*
X53081Y116756D01*
X53034Y116472D01*
X53007Y116177D01*
X53000Y115870D01*
X50030Y118840D01*
X50337Y118847D01*
X50632Y118874D01*
X50916Y118921D01*
X51188Y118988D01*
X51449Y119075D01*
X51698Y119183D01*
X51936Y119310D01*
X52162Y119457D01*
X52377Y119625D01*
X52581Y119813D01*
X53973Y118421D01*
D02*
G37*
G36*
X81472Y21731D02*
X81262Y21498D01*
X81081Y21249D01*
X80929Y20985D01*
X80807Y20704D01*
X80715Y20408D01*
X80652Y20096D01*
X80618Y19769D01*
X80614Y19425D01*
X80640Y19066D01*
X80695Y18691D01*
X76692Y21518D01*
X77107Y21594D01*
X77868Y21785D01*
X78215Y21900D01*
X78540Y22029D01*
X78843Y22171D01*
X79123Y22327D01*
X79381Y22495D01*
X79617Y22677D01*
X79830Y22873D01*
X81472Y21731D01*
D02*
G37*
G36*
X92808Y21227D02*
X92603Y21002D01*
X92421Y20757D01*
X92261Y20493D01*
X92122Y20210D01*
X92005Y19906D01*
X91911Y19584D01*
X91838Y19242D01*
X91787Y18880D01*
X91759Y18499D01*
X91752Y18098D01*
X88287Y21563D01*
X88688Y21570D01*
X89069Y21599D01*
X89431Y21649D01*
X89773Y21722D01*
X90095Y21817D01*
X90399Y21933D01*
X90682Y22072D01*
X90946Y22232D01*
X91191Y22414D01*
X91416Y22619D01*
X92808Y21227D01*
D02*
G37*
G36*
X151791Y124220D02*
X151948Y122569D01*
X152085Y121898D01*
X152261Y121330D01*
X152477Y120866D01*
X152732Y120504D01*
X153025Y120246D01*
X153359Y120092D01*
X153731Y120040D01*
X145875D01*
X146248Y120092D01*
X146581Y120246D01*
X146875Y120504D01*
X147129Y120866D01*
X147345Y121330D01*
X147521Y121898D01*
X147658Y122569D01*
X147756Y123343D01*
X147815Y124220D01*
X147835Y125200D01*
X151772D01*
X151791Y124220D01*
D02*
G37*
G36*
X48251Y22218D02*
X48295Y21916D01*
X48368Y21616D01*
X48471Y21317D01*
X48603Y21021D01*
X48764Y20726D01*
X48954Y20432D01*
X49174Y20141D01*
X49424Y19851D01*
X49702Y19563D01*
X44802D01*
X45081Y19851D01*
X45330Y20141D01*
X45549Y20432D01*
X45740Y20726D01*
X45901Y21021D01*
X46033Y21317D01*
X46136Y21616D01*
X46209Y21916D01*
X46253Y22218D01*
X46268Y22522D01*
X48236D01*
X48251Y22218D01*
D02*
G37*
G36*
X153961Y19782D02*
X154021Y19614D01*
X154121Y19466D01*
X154260Y19339D01*
X154438Y19230D01*
X154656Y19142D01*
X154913Y19073D01*
X155210Y19024D01*
X155546Y18994D01*
X155921Y18984D01*
Y17016D01*
X153953Y17303D01*
X153941Y19969D01*
X153961Y19782D01*
D02*
G37*
G36*
X159501Y15550D02*
X159212Y15829D01*
X158922Y16078D01*
X158631Y16297D01*
X158337Y16488D01*
X158042Y16649D01*
X157746Y16781D01*
X157447Y16884D01*
X157147Y16957D01*
X156845Y17001D01*
X156541Y17016D01*
Y18984D01*
X156845Y18999D01*
X157147Y19043D01*
X157447Y19116D01*
X157746Y19219D01*
X158042Y19351D01*
X158337Y19512D01*
X158631Y19703D01*
X158922Y19922D01*
X159212Y20172D01*
X159501Y20450D01*
Y15550D01*
D02*
G37*
G36*
X177556Y21164D02*
X177351Y20939D01*
X177169Y20694D01*
X177009Y20430D01*
X176870Y20147D01*
X176754Y19843D01*
X176659Y19521D01*
X176586Y19179D01*
X176535Y18817D01*
X176507Y18436D01*
X176500Y18035D01*
X173035Y21500D01*
X173436Y21507D01*
X173817Y21535D01*
X174179Y21586D01*
X174521Y21659D01*
X174843Y21754D01*
X175147Y21870D01*
X175430Y22009D01*
X175694Y22169D01*
X175939Y22352D01*
X176164Y22556D01*
X177556Y21164D01*
D02*
G37*
G36*
X147187Y17315D02*
X147061Y17451D01*
X146901Y17526D01*
X146707Y17539D01*
X146479Y17490D01*
X146218Y17381D01*
X145922Y17210D01*
X145593Y16977D01*
X145230Y16683D01*
X144403Y15911D01*
X143585Y17877D01*
X143950Y18256D01*
X144530Y18947D01*
X144746Y19259D01*
X144911Y19548D01*
X145027Y19815D01*
X145092Y20060D01*
X145107Y20283D01*
X145073Y20483D01*
X144989Y20660D01*
X147187Y17315D01*
D02*
G37*
G36*
X36225Y27804D02*
X36037Y27600D01*
X35869Y27385D01*
X35722Y27159D01*
X35594Y26921D01*
X35487Y26672D01*
X35400Y26411D01*
X35333Y26139D01*
X35286Y25855D01*
X35259Y25560D01*
X35252Y25253D01*
X32282Y28223D01*
X32589Y28230D01*
X32884Y28257D01*
X33168Y28304D01*
X33440Y28371D01*
X33701Y28458D01*
X33950Y28566D01*
X34188Y28693D01*
X34414Y28840D01*
X34629Y29008D01*
X34833Y29196D01*
X36225Y27804D01*
D02*
G37*
G36*
X63500Y119550D02*
X63212Y119828D01*
X62922Y120078D01*
X62631Y120298D01*
X62337Y120488D01*
X62042Y120649D01*
X61746Y120781D01*
X61447Y120884D01*
X61147Y120957D01*
X60845Y121001D01*
X60541Y121016D01*
Y122984D01*
X60845Y122999D01*
X61147Y123043D01*
X61447Y123116D01*
X61746Y123219D01*
X62042Y123351D01*
X62337Y123512D01*
X62631Y123703D01*
X62922Y123922D01*
X63212Y124171D01*
X63500Y124450D01*
Y119550D01*
D02*
G37*
G36*
X115724Y28330D02*
X115698Y28516D01*
X115622Y28682D01*
X115494Y28828D01*
X115316Y28956D01*
X115086Y29063D01*
X114805Y29151D01*
X114474Y29219D01*
X114091Y29268D01*
X113657Y29297D01*
X113172Y29307D01*
Y31276D01*
X113657Y31285D01*
X114474Y31363D01*
X114805Y31432D01*
X115086Y31520D01*
X115316Y31627D01*
X115494Y31754D01*
X115622Y31901D01*
X115698Y32067D01*
X115724Y32252D01*
Y28330D01*
D02*
G37*
G36*
X107225Y27804D02*
X107037Y27600D01*
X106869Y27385D01*
X106722Y27159D01*
X106595Y26921D01*
X106487Y26672D01*
X106400Y26411D01*
X106333Y26139D01*
X106286Y25855D01*
X106259Y25560D01*
X106252Y25253D01*
X103282Y28223D01*
X103589Y28230D01*
X103884Y28257D01*
X104168Y28304D01*
X104440Y28371D01*
X104701Y28458D01*
X104950Y28566D01*
X105188Y28693D01*
X105414Y28840D01*
X105629Y29008D01*
X105833Y29196D01*
X107225Y27804D01*
D02*
G37*
G36*
X34140Y22859D02*
X33950Y22631D01*
X33783Y22397D01*
X33638Y22157D01*
X33515Y21911D01*
X33415Y21659D01*
X33337Y21400D01*
X33281Y21136D01*
X33247Y20866D01*
X33236Y20589D01*
X31268D01*
X31256Y20866D01*
X31223Y21136D01*
X31167Y21400D01*
X31089Y21659D01*
X30989Y21911D01*
X30866Y22157D01*
X30721Y22397D01*
X30554Y22631D01*
X30364Y22859D01*
X30152Y23081D01*
X34352D01*
X34140Y22859D01*
D02*
G37*
G36*
X162999Y23155D02*
X163043Y22853D01*
X163116Y22553D01*
X163219Y22254D01*
X163351Y21958D01*
X163512Y21663D01*
X163702Y21369D01*
X163922Y21078D01*
X164172Y20788D01*
X164450Y20500D01*
X159550D01*
X159828Y20788D01*
X160078Y21078D01*
X160298Y21369D01*
X160488Y21663D01*
X160649Y21958D01*
X160781Y22254D01*
X160884Y22553D01*
X160957Y22853D01*
X161001Y23155D01*
X161016Y23459D01*
X162984D01*
X162999Y23155D01*
D02*
G37*
G36*
X101110Y23123D02*
X100888Y23335D01*
X100660Y23525D01*
X100426Y23692D01*
X100186Y23837D01*
X99940Y23960D01*
X99688Y24060D01*
X99429Y24138D01*
X99165Y24194D01*
X98895Y24228D01*
X98618Y24239D01*
Y26207D01*
X98895Y26218D01*
X99165Y26252D01*
X99429Y26308D01*
X99688Y26386D01*
X99940Y26486D01*
X100186Y26609D01*
X100426Y26754D01*
X100660Y26921D01*
X100888Y27111D01*
X101110Y27323D01*
Y23123D01*
D02*
G37*
G36*
X128078Y22294D02*
X127005Y21230D01*
X123420Y18100D01*
X123298Y18120D01*
X123312Y18294D01*
X123461Y18623D01*
X120726Y23282D01*
X120959Y22989D01*
X121250Y22808D01*
X121597Y22739D01*
X122001Y22783D01*
X122462Y22939D01*
X122980Y23208D01*
X123555Y23588D01*
X124187Y24081D01*
X124875Y24687D01*
X125620Y25404D01*
X128078Y22294D01*
D02*
G37*
G36*
X200046Y46481D02*
X200105Y46314D01*
X200204Y46167D01*
X200343Y46039D01*
X200521Y45930D01*
X200739Y45842D01*
X200996Y45773D01*
X201293Y45724D01*
X201630Y45694D01*
X202007Y45684D01*
Y43716D01*
X201630Y43706D01*
X201293Y43676D01*
X200996Y43627D01*
X200739Y43558D01*
X200521Y43470D01*
X200343Y43361D01*
X200204Y43233D01*
X200105Y43086D01*
X200046Y42919D01*
X200026Y42731D01*
Y46668D01*
X200046Y46481D01*
D02*
G37*
G36*
X175382Y91063D02*
X175075Y91056D01*
X174780Y91029D01*
X174496Y90982D01*
X174224Y90915D01*
X173963Y90828D01*
X173714Y90720D01*
X173476Y90593D01*
X173250Y90446D01*
X173035Y90278D01*
X172831Y90090D01*
X171439Y91482D01*
X171627Y91686D01*
X171794Y91901D01*
X171942Y92127D01*
X172069Y92365D01*
X172177Y92614D01*
X172264Y92875D01*
X172331Y93147D01*
X172378Y93431D01*
X172405Y93726D01*
X172412Y94033D01*
X175382Y91063D01*
D02*
G37*
G36*
X176993Y68493D02*
X176868Y68360D01*
X176757Y68207D01*
X176661Y68035D01*
X176580Y67843D01*
X176514Y67632D01*
X176462Y67400D01*
X176426Y67149D01*
X176404Y66878D01*
X176396Y66588D01*
X174428D01*
X174420Y66878D01*
X174398Y67149D01*
X174361Y67400D01*
X174310Y67632D01*
X174244Y67843D01*
X174163Y68035D01*
X174067Y68207D01*
X173956Y68360D01*
X173831Y68493D01*
X173691Y68606D01*
X177133D01*
X176993Y68493D01*
D02*
G37*
G36*
X128513Y74823D02*
X128555Y74665D01*
X128625Y74492D01*
X128724Y74305D01*
X128852Y74102D01*
X129009Y73884D01*
X129409Y73403D01*
X129923Y72861D01*
X127139Y70077D01*
X126861Y70349D01*
X126116Y70991D01*
X125898Y71148D01*
X125695Y71276D01*
X125507Y71375D01*
X125335Y71445D01*
X125177Y71487D01*
X125035Y71500D01*
X128500Y74965D01*
X128513Y74823D01*
D02*
G37*
G36*
X10198Y73042D02*
X10420Y72858D01*
X10649Y72696D01*
X10884Y72555D01*
X11125Y72436D01*
X11373Y72339D01*
X11627Y72263D01*
X11888Y72209D01*
X12156Y72176D01*
X12430Y72165D01*
Y70197D01*
X12156Y70186D01*
X11888Y70153D01*
X11627Y70099D01*
X11373Y70024D01*
X11125Y69926D01*
X10884Y69807D01*
X10649Y69666D01*
X10420Y69504D01*
X10198Y69320D01*
X9983Y69114D01*
Y73248D01*
X10198Y73042D01*
D02*
G37*
G36*
X94323Y65080D02*
X94511Y64927D01*
X94703Y64792D01*
X94899Y64675D01*
X95101Y64577D01*
X95306Y64496D01*
X95517Y64435D01*
X95731Y64391D01*
X95951Y64366D01*
X96174Y64359D01*
X93641Y61826D01*
X93634Y62049D01*
X93609Y62269D01*
X93565Y62483D01*
X93504Y62694D01*
X93423Y62899D01*
X93325Y63100D01*
X93208Y63297D01*
X93073Y63489D01*
X92920Y63677D01*
X92748Y63860D01*
X94140Y65252D01*
X94323Y65080D01*
D02*
G37*
G36*
X100813Y96581D02*
X100625Y96377D01*
X100457Y96162D01*
X100310Y95936D01*
X100183Y95698D01*
X100075Y95449D01*
X99988Y95188D01*
X99921Y94916D01*
X99874Y94632D01*
X99847Y94337D01*
X99840Y94030D01*
X96870Y97000D01*
X97177Y97007D01*
X97472Y97034D01*
X97756Y97081D01*
X98028Y97148D01*
X98289Y97235D01*
X98538Y97343D01*
X98776Y97470D01*
X99002Y97617D01*
X99217Y97785D01*
X99421Y97973D01*
X100813Y96581D01*
D02*
G37*
G36*
X147609Y63358D02*
X147750Y63277D01*
X147922Y63204D01*
X148125Y63142D01*
X148359Y63089D01*
X148624Y63046D01*
X149247Y62988D01*
X149994Y62968D01*
Y59031D01*
X149605Y59027D01*
X148624Y58955D01*
X148359Y58911D01*
X148125Y58858D01*
X147922Y58796D01*
X147750Y58723D01*
X147609Y58641D01*
X147500Y58550D01*
Y63450D01*
X147609Y63358D01*
D02*
G37*
G36*
X35355Y95890D02*
X35319Y95537D01*
X35315Y95198D01*
X35341Y94874D01*
X35399Y94565D01*
X35487Y94271D01*
X35606Y93992D01*
X35756Y93728D01*
X35936Y93478D01*
X36148Y93244D01*
X34456Y92152D01*
X34245Y92346D01*
X34012Y92527D01*
X33756Y92697D01*
X33478Y92856D01*
X33176Y93003D01*
X32852Y93139D01*
X32505Y93263D01*
X31743Y93476D01*
X31327Y93565D01*
X35421Y96259D01*
X35355Y95890D01*
D02*
G37*
G36*
X74483Y92647D02*
X74434Y92717D01*
X74364Y92779D01*
X74271Y92835D01*
X74156Y92883D01*
X74019Y92923D01*
X73859Y92957D01*
X73678Y92983D01*
X73248Y93012D01*
X73000Y93016D01*
Y94984D01*
X73248Y94988D01*
X73678Y95017D01*
X73859Y95043D01*
X74019Y95077D01*
X74156Y95117D01*
X74271Y95165D01*
X74364Y95221D01*
X74434Y95283D01*
X74483Y95353D01*
Y92647D01*
D02*
G37*
G36*
X96923Y91001D02*
X96614Y90983D01*
X96317Y90946D01*
X96032Y90891D01*
X95759Y90816D01*
X95498Y90723D01*
X95248Y90611D01*
X95011Y90481D01*
X94785Y90332D01*
X94571Y90164D01*
X94369Y89977D01*
X92921Y91313D01*
X93110Y91518D01*
X93277Y91734D01*
X93423Y91961D01*
X93547Y92198D01*
X93650Y92447D01*
X93731Y92707D01*
X93792Y92978D01*
X93830Y93260D01*
X93848Y93553D01*
X93843Y93857D01*
X96923Y91001D01*
D02*
G37*
G36*
X154299Y90089D02*
X154358Y89921D01*
X154457Y89774D01*
X154596Y89646D01*
X154774Y89537D01*
X154992Y89449D01*
X155250Y89380D01*
X155547Y89331D01*
X155883Y89301D01*
X156260Y89291D01*
Y87323D01*
X155883Y87313D01*
X155547Y87283D01*
X155250Y87234D01*
X154992Y87165D01*
X154774Y87077D01*
X154596Y86968D01*
X154457Y86840D01*
X154358Y86693D01*
X154299Y86526D01*
X154279Y86339D01*
Y90276D01*
X154299Y90089D01*
D02*
G37*
G36*
X10198Y83042D02*
X10420Y82858D01*
X10649Y82696D01*
X10884Y82555D01*
X11125Y82436D01*
X11373Y82339D01*
X11627Y82263D01*
X11888Y82209D01*
X12156Y82176D01*
X12430Y82165D01*
Y80197D01*
X12156Y80186D01*
X11888Y80154D01*
X11627Y80099D01*
X11373Y80024D01*
X11125Y79926D01*
X10884Y79807D01*
X10649Y79666D01*
X10420Y79504D01*
X10198Y79320D01*
X9983Y79114D01*
Y83248D01*
X10198Y83042D01*
D02*
G37*
G36*
X63500Y84550D02*
X63212Y84829D01*
X62922Y85078D01*
X62631Y85298D01*
X62337Y85488D01*
X62042Y85649D01*
X61746Y85781D01*
X61447Y85884D01*
X61147Y85957D01*
X60845Y86001D01*
X60541Y86016D01*
Y87984D01*
X60845Y87999D01*
X61147Y88043D01*
X61447Y88116D01*
X61746Y88219D01*
X62042Y88351D01*
X62337Y88512D01*
X62631Y88702D01*
X62922Y88922D01*
X63212Y89171D01*
X63500Y89450D01*
Y84550D01*
D02*
G37*
G36*
X145327Y86339D02*
X145307Y86526D01*
X145248Y86693D01*
X145149Y86840D01*
X145010Y86968D01*
X144832Y87077D01*
X144614Y87165D01*
X144357Y87234D01*
X144060Y87283D01*
X143723Y87313D01*
X143347Y87323D01*
Y89291D01*
X143723Y89301D01*
X144060Y89331D01*
X144357Y89380D01*
X144614Y89449D01*
X144832Y89537D01*
X145010Y89646D01*
X145149Y89774D01*
X145248Y89921D01*
X145307Y90089D01*
X145327Y90276D01*
Y86339D01*
D02*
G37*
G36*
X70556Y90164D02*
X70351Y89939D01*
X70169Y89694D01*
X70009Y89430D01*
X69870Y89147D01*
X69754Y88843D01*
X69659Y88521D01*
X69586Y88179D01*
X69535Y87817D01*
X69507Y87436D01*
X69500Y87035D01*
X66035Y90500D01*
X66436Y90507D01*
X66817Y90535D01*
X67179Y90586D01*
X67521Y90659D01*
X67843Y90754D01*
X68147Y90870D01*
X68430Y91009D01*
X68694Y91169D01*
X68939Y91351D01*
X69164Y91556D01*
X70556Y90164D01*
D02*
G37*
G36*
X10198Y93042D02*
X10420Y92858D01*
X10649Y92696D01*
X10884Y92555D01*
X11125Y92436D01*
X11373Y92339D01*
X11627Y92263D01*
X11888Y92209D01*
X12156Y92176D01*
X12430Y92165D01*
Y90197D01*
X12156Y90186D01*
X11888Y90153D01*
X11627Y90099D01*
X11373Y90024D01*
X11125Y89926D01*
X10884Y89807D01*
X10649Y89666D01*
X10420Y89504D01*
X10198Y89320D01*
X9983Y89114D01*
Y93248D01*
X10198Y93042D01*
D02*
G37*
G36*
X158924Y89237D02*
X158900Y89249D01*
X158891Y89281D01*
X158978Y89291D01*
X158924Y89237D01*
D02*
G37*
G36*
X166144Y87323D02*
X164355Y86969D01*
X161575Y87933D01*
X158795Y86969D01*
X157005Y87323D01*
X158924Y89237D01*
X159005Y89196D01*
X159207Y89122D01*
X159899Y88911D01*
X161516Y88480D01*
X164172Y89291D01*
X166144Y87323D01*
D02*
G37*
G36*
X109251Y91218D02*
X109295Y90916D01*
X109368Y90616D01*
X109471Y90317D01*
X109603Y90021D01*
X109764Y89726D01*
X109954Y89432D01*
X110174Y89141D01*
X110424Y88851D01*
X110702Y88563D01*
X105802D01*
X106080Y88851D01*
X106330Y89141D01*
X106550Y89432D01*
X106740Y89726D01*
X106901Y90021D01*
X107033Y90317D01*
X107136Y90616D01*
X107209Y90916D01*
X107253Y91218D01*
X107268Y91522D01*
X109236D01*
X109251Y91218D01*
D02*
G37*
G36*
X228190Y48240D02*
X228036Y48352D01*
X227855Y48407D01*
X227647D01*
X227410Y48352D01*
X227146Y48240D01*
X226853Y48073D01*
X226533Y47851D01*
X226185Y47572D01*
X225406Y46848D01*
X224014Y48240D01*
X224404Y48644D01*
X225016Y49368D01*
X225239Y49688D01*
X225406Y49980D01*
X225517Y50245D01*
X225573Y50481D01*
Y50690D01*
X225517Y50871D01*
X225406Y51024D01*
X228190Y48240D01*
D02*
G37*
G36*
X79300Y113699D02*
X79110Y113471D01*
X78943Y113237D01*
X78798Y112997D01*
X78675Y112751D01*
X78575Y112499D01*
X78497Y112240D01*
X78441Y111976D01*
X78407Y111706D01*
X78396Y111429D01*
X76428D01*
X76416Y111706D01*
X76383Y111976D01*
X76327Y112240D01*
X76249Y112499D01*
X76149Y112751D01*
X76026Y112997D01*
X75881Y113237D01*
X75714Y113471D01*
X75524Y113699D01*
X75312Y113921D01*
X79512D01*
X79300Y113699D01*
D02*
G37*
G36*
X170501Y50550D02*
X170212Y50828D01*
X169922Y51078D01*
X169631Y51297D01*
X169337Y51488D01*
X169042Y51649D01*
X168746Y51781D01*
X168447Y51884D01*
X168147Y51957D01*
X167845Y52001D01*
X167541Y52016D01*
Y53984D01*
X167845Y53999D01*
X168147Y54043D01*
X168447Y54116D01*
X168746Y54219D01*
X169042Y54351D01*
X169337Y54512D01*
X169631Y54703D01*
X169922Y54922D01*
X170212Y55172D01*
X170501Y55450D01*
Y50550D01*
D02*
G37*
G36*
X164788Y55172D02*
X165078Y54922D01*
X165369Y54703D01*
X165663Y54512D01*
X165958Y54351D01*
X166254Y54219D01*
X166553Y54116D01*
X166853Y54043D01*
X167155Y53999D01*
X167459Y53984D01*
Y52016D01*
X167155Y52001D01*
X166853Y51957D01*
X166553Y51884D01*
X166254Y51781D01*
X165958Y51649D01*
X165663Y51488D01*
X165369Y51297D01*
X165078Y51078D01*
X164788Y50828D01*
X164499Y50550D01*
Y55450D01*
X164788Y55172D01*
D02*
G37*
G36*
X175327Y112906D02*
X175020Y112899D01*
X174725Y112872D01*
X174441Y112825D01*
X174169Y112758D01*
X173908Y112670D01*
X173659Y112563D01*
X173421Y112435D01*
X173194Y112288D01*
X172979Y112120D01*
X172776Y111933D01*
X171384Y113325D01*
X171572Y113528D01*
X171739Y113743D01*
X171887Y113970D01*
X172014Y114207D01*
X172122Y114457D01*
X172209Y114717D01*
X172276Y114990D01*
X172323Y115274D01*
X172350Y115569D01*
X172357Y115875D01*
X175327Y112906D01*
D02*
G37*
G36*
X100099Y115726D02*
X100126Y115431D01*
X100173Y115147D01*
X100240Y114875D01*
X100327Y114614D01*
X100435Y114365D01*
X100562Y114127D01*
X100709Y113901D01*
X100877Y113686D01*
X101065Y113482D01*
X99673Y112090D01*
X99469Y112278D01*
X99254Y112445D01*
X99028Y112593D01*
X98790Y112720D01*
X98541Y112828D01*
X98280Y112915D01*
X98008Y112982D01*
X97724Y113029D01*
X97429Y113056D01*
X97122Y113063D01*
X100092Y116033D01*
X100099Y115726D01*
D02*
G37*
G36*
X65973Y46421D02*
X65785Y46217D01*
X65617Y46002D01*
X65470Y45776D01*
X65343Y45538D01*
X65235Y45289D01*
X65148Y45028D01*
X65081Y44756D01*
X65034Y44472D01*
X65007Y44177D01*
X65000Y43870D01*
X62030Y46840D01*
X62337Y46847D01*
X62632Y46874D01*
X62916Y46921D01*
X63188Y46988D01*
X63449Y47075D01*
X63698Y47183D01*
X63936Y47310D01*
X64162Y47458D01*
X64377Y47625D01*
X64581Y47813D01*
X65973Y46421D01*
D02*
G37*
G36*
X32996Y49332D02*
X33031Y49062D01*
X33090Y48799D01*
X33173Y48546D01*
X33279Y48302D01*
X33409Y48067D01*
X33563Y47840D01*
X33740Y47623D01*
X33940Y47414D01*
X34165Y47214D01*
X29979Y46861D01*
X30176Y47104D01*
X30353Y47349D01*
X30508Y47598D01*
X30643Y47851D01*
X30757Y48107D01*
X30850Y48366D01*
X30922Y48628D01*
X30974Y48894D01*
X31005Y49164D01*
X31016Y49437D01*
X32984Y49612D01*
X32996Y49332D01*
D02*
G37*
G36*
X49424Y49275D02*
X49174Y48985D01*
X48954Y48694D01*
X48764Y48400D01*
X48603Y48105D01*
X48471Y47809D01*
X48368Y47510D01*
X48295Y47210D01*
X48251Y46908D01*
X48236Y46604D01*
X46268D01*
X46253Y46908D01*
X46209Y47210D01*
X46136Y47510D01*
X46033Y47809D01*
X45901Y48105D01*
X45740Y48400D01*
X45549Y48694D01*
X45330Y48985D01*
X45081Y49275D01*
X44802Y49564D01*
X49702D01*
X49424Y49275D01*
D02*
G37*
G36*
X74752Y50613D02*
X74464Y50892D01*
X74174Y51141D01*
X73883Y51360D01*
X73589Y51551D01*
X73294Y51712D01*
X72997Y51844D01*
X72699Y51947D01*
X72399Y52020D01*
X72097Y52064D01*
X71793Y52079D01*
Y54047D01*
X72097Y54062D01*
X72399Y54106D01*
X72699Y54179D01*
X72997Y54282D01*
X73294Y54414D01*
X73589Y54575D01*
X73883Y54765D01*
X74174Y54985D01*
X74464Y55234D01*
X74752Y55513D01*
Y50613D01*
D02*
G37*
G36*
X153569Y100082D02*
X153646Y99916D01*
X153773Y99770D01*
X153952Y99643D01*
X154182Y99536D01*
X154462Y99448D01*
X154794Y99379D01*
X155177Y99330D01*
X155611Y99301D01*
X156096Y99291D01*
Y97323D01*
X155611Y97313D01*
X154794Y97235D01*
X154462Y97167D01*
X154182Y97079D01*
X153952Y96971D01*
X153773Y96844D01*
X153646Y96698D01*
X153569Y96532D01*
X153544Y96346D01*
Y100268D01*
X153569Y100082D01*
D02*
G37*
G36*
X34172Y59212D02*
X33922Y58922D01*
X33702Y58631D01*
X33512Y58337D01*
X33351Y58042D01*
X33219Y57745D01*
X33116Y57447D01*
X33043Y57147D01*
X32999Y56845D01*
X32984Y56541D01*
X31016D01*
X31001Y56845D01*
X30957Y57147D01*
X30884Y57447D01*
X30781Y57745D01*
X30649Y58042D01*
X30488Y58337D01*
X30297Y58631D01*
X30078Y58922D01*
X29829Y59212D01*
X29550Y59500D01*
X34450D01*
X34172Y59212D01*
D02*
G37*
G36*
X78396Y98533D02*
X78407Y98261D01*
X78438Y97991D01*
X78490Y97725D01*
X78562Y97463D01*
X78655Y97203D01*
X78769Y96948D01*
X78904Y96695D01*
X79059Y96446D01*
X79236Y96201D01*
X79432Y95959D01*
X75247Y96311D01*
X75472Y96511D01*
X75672Y96720D01*
X75849Y96937D01*
X76003Y97164D01*
X76133Y97399D01*
X76239Y97643D01*
X76322Y97896D01*
X76380Y98159D01*
X76416Y98429D01*
X76428Y98709D01*
X78396Y98533D01*
D02*
G37*
G36*
X116062Y96346D02*
X116037Y96532D01*
X115960Y96698D01*
X115833Y96844D01*
X115654Y96971D01*
X115425Y97079D01*
X115144Y97167D01*
X114812Y97235D01*
X114429Y97284D01*
X113996Y97313D01*
X113511Y97323D01*
Y99291D01*
X113996Y99301D01*
X114812Y99379D01*
X115144Y99448D01*
X115425Y99536D01*
X115654Y99643D01*
X115833Y99770D01*
X115960Y99916D01*
X116037Y100082D01*
X116062Y100268D01*
Y96346D01*
D02*
G37*
G36*
Y106346D02*
X116037Y106532D01*
X115960Y106698D01*
X115833Y106844D01*
X115654Y106971D01*
X115425Y107079D01*
X115144Y107167D01*
X114812Y107235D01*
X114429Y107284D01*
X113996Y107313D01*
X113511Y107323D01*
Y109291D01*
X113996Y109301D01*
X114812Y109379D01*
X115144Y109448D01*
X115425Y109536D01*
X115654Y109643D01*
X115833Y109770D01*
X115960Y109916D01*
X116037Y110082D01*
X116062Y110268D01*
Y106346D01*
D02*
G37*
G36*
X85752Y50613D02*
X85464Y50892D01*
X85174Y51141D01*
X84883Y51360D01*
X84589Y51551D01*
X84294Y51712D01*
X83997Y51844D01*
X83699Y51947D01*
X83399Y52020D01*
X83097Y52064D01*
X82793Y52079D01*
Y54047D01*
X83097Y54062D01*
X83399Y54106D01*
X83699Y54179D01*
X83997Y54282D01*
X84294Y54414D01*
X84589Y54575D01*
X84883Y54765D01*
X85174Y54985D01*
X85464Y55234D01*
X85752Y55513D01*
Y50613D01*
D02*
G37*
G36*
X80040Y55234D02*
X80330Y54985D01*
X80621Y54765D01*
X80915Y54575D01*
X81210Y54414D01*
X81506Y54282D01*
X81805Y54179D01*
X82105Y54106D01*
X82407Y54062D01*
X82711Y54047D01*
Y52079D01*
X82407Y52064D01*
X82105Y52020D01*
X81805Y51947D01*
X81506Y51844D01*
X81210Y51712D01*
X80915Y51551D01*
X80621Y51360D01*
X80330Y51141D01*
X80040Y50892D01*
X79751Y50613D01*
Y55513D01*
X80040Y55234D01*
D02*
G37*
G36*
X167442Y106599D02*
X166050Y105207D01*
X162571Y104511D01*
X162821Y104789D01*
X163016Y105068D01*
X163155Y105346D01*
X163239Y105625D01*
X163266Y105903D01*
X163239Y106181D01*
X163155Y106460D01*
X163016Y106738D01*
X162821Y107017D01*
X162571Y107295D01*
X163962Y108687D01*
X164241Y108436D01*
X164519Y108241D01*
X164798Y108102D01*
X165076Y108019D01*
X165354Y107991D01*
X165633Y108019D01*
X165911Y108102D01*
X166190Y108241D01*
X166468Y108436D01*
X166746Y108687D01*
X167442Y106599D01*
D02*
G37*
G36*
X147359Y58391D02*
X147277Y58250D01*
X147204Y58078D01*
X147142Y57875D01*
X147089Y57641D01*
X147046Y57376D01*
X146988Y56753D01*
X146968Y56006D01*
X146535D01*
X147037Y55510D01*
X149151Y53631D01*
X149422Y53447D01*
X149642Y53328D01*
X149812Y53273D01*
X149930Y53282D01*
X145122Y51173D01*
X145192Y51232D01*
X145212Y51327D01*
X145183Y51457D01*
X145106Y51623D01*
X144979Y51824D01*
X144803Y52061D01*
X144304Y52641D01*
X143608Y53364D01*
X146387Y56006D01*
X143032D01*
X143027Y56395D01*
X142955Y57376D01*
X142911Y57641D01*
X142858Y57875D01*
X142796Y58078D01*
X142723Y58250D01*
X142641Y58391D01*
X142550Y58500D01*
X147450D01*
X147359Y58391D01*
D02*
G37*
D10*
X90000Y68000D02*
X96200Y61800D01*
X26300Y68000D02*
X90000D01*
X23119Y71181D02*
X26300Y68000D01*
X83000Y80000D02*
X96840Y93840D01*
X33300Y80000D02*
X83000D01*
X22119Y91181D02*
X33300Y80000D01*
X130000Y82000D02*
X136307Y88307D01*
X119000Y82000D02*
X130000D01*
X111000Y74000D02*
X119000Y82000D01*
X136307Y88307D02*
X149803D01*
X7874Y71181D02*
X23119D01*
X96840Y93840D02*
Y94000D01*
X7874Y91181D02*
X22119D01*
X28200Y74000D02*
X111000D01*
X21019Y81181D02*
X28200Y74000D01*
X7874Y81181D02*
X21019D01*
X123100Y15000D02*
X142100D01*
X114100Y6000D02*
X123100Y15000D01*
X40000Y6000D02*
X114100D01*
X147391Y20291D02*
X149465D01*
X142100Y15000D02*
X147391Y20291D01*
X66000Y87000D02*
X73000Y94000D01*
X77160D01*
X41000Y87000D02*
X66000D01*
X32000Y96000D02*
X41000Y87000D01*
X32000Y96000D02*
Y97000D01*
X50000Y115840D02*
X56160Y122000D01*
X66000D01*
X32000Y45155D02*
X32252Y44903D01*
X32000Y45155D02*
Y62000D01*
X62000Y43840D02*
X71223Y53063D01*
X77252D01*
X47252Y29092D02*
X62000Y43840D01*
X47252Y17063D02*
Y29092D01*
X119465Y30291D02*
X122291D01*
X32252Y44903D02*
X33252Y45903D01*
X32252Y13748D02*
X40000Y6000D01*
X77160Y94000D02*
X77412Y94252D01*
Y116063D01*
X32252Y25223D02*
X47252Y40223D01*
Y52063D01*
X32252Y13748D02*
Y25223D01*
X77252Y53063D02*
X88252D01*
X77252Y18063D02*
Y18903D01*
X103252Y44903D01*
X107864Y40291D01*
X119465D01*
X88252Y18063D02*
X95412Y25223D01*
X103252D01*
X108320Y30291D01*
X119465D01*
X221865Y44700D02*
X228346Y51181D01*
X195050Y44700D02*
X221865D01*
X173000Y18000D02*
X186300Y31300D01*
X194950D01*
X162000Y18000D02*
Y29000D01*
X180000Y47000D01*
Y62000D01*
X175412Y66588D02*
X180000Y62000D01*
X175412Y66588D02*
Y71063D01*
X149465Y20291D02*
X151756Y18000D01*
X162000D01*
Y53000D02*
X173000D01*
X156276Y30291D02*
X161575Y35590D01*
X149465Y30291D02*
X156276D01*
X195037Y71118D02*
X195092Y71063D01*
X195037Y115905D02*
X198541Y119409D01*
X208819D01*
X149803Y88307D02*
X161417D01*
X161575Y88150D01*
Y84842D02*
Y88150D01*
X169656Y88307D02*
X175412Y94063D01*
X165354Y105903D02*
X175357Y115905D01*
X157758Y98307D02*
X165354Y105903D01*
X161575Y109683D02*
X165354Y105903D01*
X161575Y109683D02*
Y119843D01*
X149803Y98307D02*
X157758D01*
X108000Y108307D02*
X119803D01*
X104848D02*
X108000D01*
X108252Y108559D01*
Y121063D01*
X97092Y116063D02*
X104848Y108307D01*
X108000Y98307D02*
X119803D01*
X101147D02*
X108000D01*
X108252Y98055D01*
Y86063D02*
Y98055D01*
X96840Y94000D02*
X101147Y98307D01*
X161575Y35590D02*
Y53701D01*
X195037Y71118D02*
Y115905D01*
X161417Y88307D02*
X169656D01*
D11*
X150300Y130866D02*
X177134D01*
X145590D02*
X150300D01*
X184900Y86900D02*
Y123100D01*
X177134Y130866D02*
X184900Y123100D01*
X169500Y79000D02*
X177000D01*
X151500Y61000D02*
X169500Y79000D01*
X177000D02*
X184900Y86900D01*
X149803Y130369D02*
X150300Y130866D01*
X149803Y118307D02*
Y130369D01*
X145000Y61000D02*
X151500D01*
X145000Y54756D02*
X149465Y50291D01*
X145000Y54756D02*
Y61000D01*
X126000Y74000D02*
X136000Y64000D01*
Y33000D02*
Y64000D01*
X123291Y20291D02*
X136000Y33000D01*
X119465Y20291D02*
X123291D01*
X125000Y74000D02*
X126000D01*
D12*
X224410Y11811D02*
D03*
Y129921D02*
D03*
X11811D02*
D03*
Y11811D02*
D03*
D13*
X119803Y118307D02*
D03*
Y108307D02*
D03*
Y98307D02*
D03*
Y88307D02*
D03*
X149803Y118307D02*
D03*
Y108307D02*
D03*
Y98307D02*
D03*
X119465Y50291D02*
D03*
Y40291D02*
D03*
Y30291D02*
D03*
Y20291D02*
D03*
X149465Y50291D02*
D03*
Y40291D02*
D03*
Y30291D02*
D03*
D14*
X149803Y88307D02*
D03*
X149465Y20291D02*
D03*
D15*
X208819Y84409D02*
D03*
Y119409D02*
D03*
X161575Y119843D02*
D03*
Y84842D02*
D03*
X66000Y122000D02*
D03*
Y87000D02*
D03*
X108252Y121063D02*
D03*
Y86063D02*
D03*
X32000Y97000D02*
D03*
Y62000D02*
D03*
X173000Y18000D02*
D03*
Y53000D02*
D03*
X162000D02*
D03*
Y18000D02*
D03*
X77252Y53063D02*
D03*
Y18063D02*
D03*
X47252Y52063D02*
D03*
Y17063D02*
D03*
X88252Y53063D02*
D03*
Y18063D02*
D03*
X145000Y8000D02*
D03*
X125000D02*
D03*
Y61000D02*
D03*
X145000D02*
D03*
Y75000D02*
D03*
X125000D02*
D03*
X145590Y130866D02*
D03*
X125591D02*
D03*
D16*
X194950Y31300D02*
D03*
D17*
X195050Y44700D02*
D03*
D18*
X96840Y94000D02*
D03*
X77160D02*
D03*
X32252Y25223D02*
D03*
Y44903D02*
D03*
X97092Y116063D02*
D03*
X77412D02*
D03*
X50000Y115840D02*
D03*
Y96160D02*
D03*
X103252Y44903D02*
D03*
Y25223D02*
D03*
X62000Y24160D02*
D03*
Y43840D02*
D03*
X195092Y71063D02*
D03*
X175412D02*
D03*
Y94063D02*
D03*
X195092D02*
D03*
X175357Y115905D02*
D03*
X195037D02*
D03*
D19*
X7700Y91000D02*
D03*
Y81000D02*
D03*
Y71000D02*
D03*
Y61000D02*
D03*
X228346Y91181D02*
D03*
Y81181D02*
D03*
Y71181D02*
D03*
Y61181D02*
D03*
D20*
X7700Y51000D02*
D03*
X228346Y51181D02*
D03*
D21*
X15500Y86500D02*
D03*
X16000Y76300D02*
D03*
X100000Y85000D02*
D03*
Y80000D02*
D03*
X95000D02*
D03*
Y85000D02*
D03*
X75000Y25000D02*
D03*
X90000Y40000D02*
D03*
X80000Y35000D02*
D03*
X70000D02*
D03*
Y45000D02*
D03*
X80000D02*
D03*
X90000D02*
D03*
X110000Y130000D02*
D03*
X100000D02*
D03*
X90000D02*
D03*
X80000D02*
D03*
X70000D02*
D03*
X60000D02*
D03*
X50000D02*
D03*
X40000D02*
D03*
X30000D02*
D03*
X15000Y45000D02*
D03*
Y25000D02*
D03*
Y35000D02*
D03*
X10000Y20000D02*
D03*
Y30000D02*
D03*
Y40000D02*
D03*
X20000Y20000D02*
D03*
Y30000D02*
D03*
Y40000D02*
D03*
X210000Y5000D02*
D03*
X200000D02*
D03*
X190000D02*
D03*
X180000D02*
D03*
X170000D02*
D03*
X160000D02*
D03*
X185000Y40000D02*
D03*
X175000Y30000D02*
D03*
X135000Y130000D02*
D03*
Y100000D02*
D03*
Y110000D02*
D03*
Y120000D02*
D03*
X90000Y105000D02*
D03*
X85000Y100000D02*
D03*
Y110000D02*
D03*
X55000Y100000D02*
D03*
X65000D02*
D03*
Y110000D02*
D03*
X55000D02*
D03*
X40000Y100000D02*
D03*
Y110000D02*
D03*
Y120000D02*
D03*
X30000Y110000D02*
D03*
Y120000D02*
D03*
X20000D02*
D03*
Y110000D02*
D03*
Y100000D02*
D03*
X60000Y50000D02*
D03*
X40000D02*
D03*
X20000D02*
D03*
Y60000D02*
D03*
X80000D02*
D03*
X70000D02*
D03*
X60000D02*
D03*
X50000D02*
D03*
X40000D02*
D03*
D22*
X96200Y61800D02*
D03*
M02*
