G04 Layer_Color=65535*
%FSLAX44Y44*%
%MOMM*%
G71*
G01*
G75*
%ADD37C,0.1778*%
%ADD38C,0.2500*%
%ADD39C,0.2000*%
%ADD40C,0.1270*%
%ADD41C,0.1500*%
%ADD42C,0.1016*%
%ADD43R,0.5080X4.1656*%
D37*
X680080Y134620D02*
G03*
X680080Y134620I-40000J0D01*
G01*
X591500Y135000D02*
G03*
X591500Y135000I-41500J0D01*
G01*
X465720Y401364D02*
Y410000D01*
Y401364D02*
X475880D01*
X486040D01*
Y410000D01*
Y430320D02*
Y438956D01*
X475880D02*
X486040D01*
X465720D02*
X475880D01*
X465720Y430320D02*
Y438956D01*
X566040Y419840D02*
X574676D01*
Y430000D01*
Y440160D01*
X566040D02*
X574676D01*
X537084D02*
X545720D01*
X537084Y430000D02*
Y440160D01*
Y419840D02*
Y430000D01*
Y419840D02*
X545720D01*
X621284Y198120D02*
X629920D01*
X621284Y187960D02*
Y198120D01*
Y177800D02*
Y187960D01*
Y177800D02*
X629920D01*
X650240D02*
X658876D01*
Y187960D01*
Y198120D01*
X650240D02*
X658876D01*
X436204Y70160D02*
X444840D01*
X436204Y60000D02*
Y70160D01*
Y49840D02*
Y60000D01*
Y49840D02*
X444840D01*
X465160D02*
X473796D01*
Y60000D01*
Y70160D01*
X465160D02*
X473796D01*
X465160Y24840D02*
X473796D01*
Y35000D01*
Y45160D01*
X465160D02*
X473796D01*
X436204D02*
X444840D01*
X436204Y35000D02*
Y45160D01*
Y24840D02*
Y35000D01*
Y24840D02*
X444840D01*
X75500Y142900D02*
X84500D01*
Y167100D01*
X75500D02*
X84500D01*
X36500D02*
X45500D01*
X36500Y142900D02*
Y167100D01*
Y142900D02*
X45500D01*
X661750Y50061D02*
Y52346D01*
X593932Y50061D02*
X661750D01*
X593932Y89939D02*
X661750D01*
Y87654D02*
Y89939D01*
Y5061D02*
Y7346D01*
X593932Y5061D02*
X661750D01*
X593932Y44939D02*
X661750D01*
Y42654D02*
Y44939D01*
X108250Y137654D02*
Y139939D01*
X176068D01*
X108250Y100061D02*
X176068D01*
X108250D02*
Y102346D01*
X63500Y274320D02*
Y282956D01*
X53340D02*
X63500D01*
X43180D02*
X53340D01*
X43180Y274320D02*
Y282956D01*
Y245364D02*
Y254000D01*
Y245364D02*
X53340D01*
X63500D01*
Y254000D01*
X88900Y274320D02*
Y282956D01*
X78740D02*
X88900D01*
X68580D02*
X78740D01*
X68580Y274320D02*
Y282956D01*
Y245364D02*
Y254000D01*
Y245364D02*
X78740D01*
X88900D01*
Y254000D01*
X173990Y255524D02*
Y264160D01*
Y255524D02*
X184150D01*
X194310D01*
Y264160D01*
Y284480D02*
Y293116D01*
X184150D02*
X194310D01*
X173990D02*
X184150D01*
X173990Y284480D02*
Y293116D01*
X436204Y160160D02*
X444840D01*
X436204Y150000D02*
Y160160D01*
Y139840D02*
Y150000D01*
Y139840D02*
X444840D01*
X465160D02*
X473796D01*
Y150000D01*
Y160160D01*
X465160D02*
X473796D01*
X537084Y415160D02*
X545720D01*
X537084Y405000D02*
Y415160D01*
Y394840D02*
Y405000D01*
Y394840D02*
X545720D01*
X566040D02*
X574676D01*
Y405000D01*
Y415160D01*
X566040D02*
X574676D01*
X537244Y365160D02*
X545880D01*
X537244Y355000D02*
Y365160D01*
Y344840D02*
Y355000D01*
Y344840D02*
X545880D01*
X566200D02*
X574836D01*
Y355000D01*
Y365160D01*
X566200D02*
X574836D01*
X265430Y294640D02*
X274066D01*
Y304800D01*
Y314960D01*
X265430D02*
X274066D01*
X236474D02*
X245110D01*
X236474Y304800D02*
Y314960D01*
Y294640D02*
Y304800D01*
Y294640D02*
X245110D01*
X521200Y394840D02*
X529836D01*
Y405000D01*
Y415160D01*
X521200D02*
X529836D01*
X492244D02*
X500880D01*
X492244Y405000D02*
Y415160D01*
Y394840D02*
Y405000D01*
Y394840D02*
X500880D01*
X566040Y369840D02*
X574676D01*
Y380000D01*
Y390160D01*
X566040D02*
X574676D01*
X537084D02*
X545720D01*
X537084Y380000D02*
Y390160D01*
Y369840D02*
Y380000D01*
Y369840D02*
X545720D01*
X492084Y440160D02*
X500720D01*
X492084Y430000D02*
Y440160D01*
Y419840D02*
Y430000D01*
Y419840D02*
X500720D01*
X521040D02*
X529676D01*
Y430000D01*
Y440160D01*
X521040D02*
X529676D01*
X521040Y369840D02*
X529676D01*
Y380000D01*
Y390160D01*
X521040D02*
X529676D01*
X492084D02*
X500720D01*
X492084Y380000D02*
Y390160D01*
Y369840D02*
Y380000D01*
Y369840D02*
X500720D01*
X566200Y319840D02*
X574836D01*
Y330000D01*
Y340160D01*
X566200D02*
X574836D01*
X537244D02*
X545880D01*
X537244Y330000D02*
Y340160D01*
Y319840D02*
Y330000D01*
Y319840D02*
X545880D01*
X521040Y344840D02*
X529676D01*
Y355000D01*
Y365160D01*
X521040D02*
X529676D01*
X492084D02*
X500720D01*
X492084Y355000D02*
Y365160D01*
Y344840D02*
Y355000D01*
Y344840D02*
X500720D01*
X486040Y280160D02*
Y288796D01*
X475880D02*
X486040D01*
X465720D02*
X475880D01*
X465720Y280160D02*
Y288796D01*
Y251204D02*
Y259840D01*
Y251204D02*
X475880D01*
X486040D01*
Y259840D01*
X492084Y240160D02*
X500720D01*
X492084Y230000D02*
Y240160D01*
Y219840D02*
Y230000D01*
Y219840D02*
X500720D01*
X521040D02*
X529676D01*
Y230000D01*
Y240160D01*
X521040D02*
X529676D01*
X520880Y269840D02*
X529516D01*
Y280000D01*
Y290160D01*
X520880D02*
X529516D01*
X491924D02*
X500560D01*
X491924Y280000D02*
Y290160D01*
Y269840D02*
Y280000D01*
Y269840D02*
X500560D01*
X566040Y219840D02*
X574676D01*
Y230000D01*
Y240160D01*
X566040D02*
X574676D01*
X537084D02*
X545720D01*
X537084Y230000D02*
Y240160D01*
Y219840D02*
Y230000D01*
Y219840D02*
X545720D01*
X492084Y265160D02*
X500720D01*
X492084Y255000D02*
Y265160D01*
Y244840D02*
Y255000D01*
Y244840D02*
X500720D01*
X521040D02*
X529676D01*
Y255000D01*
Y265160D01*
X521040D02*
X529676D01*
X520880Y294840D02*
X529516D01*
Y305000D01*
Y315160D01*
X520880D02*
X529516D01*
X491924D02*
X500560D01*
X491924Y305000D02*
Y315160D01*
Y294840D02*
Y305000D01*
Y294840D02*
X500560D01*
X566040Y269840D02*
X574676D01*
Y280000D01*
Y290160D01*
X566040D02*
X574676D01*
X537084D02*
X545720D01*
X537084Y280000D02*
Y290160D01*
Y269840D02*
Y280000D01*
Y269840D02*
X545720D01*
X521040Y319840D02*
X529676D01*
Y330000D01*
Y340160D01*
X521040D02*
X529676D01*
X492084D02*
X500720D01*
X492084Y330000D02*
Y340160D01*
Y319840D02*
Y330000D01*
Y319840D02*
X500720D01*
X327084Y290160D02*
X335720D01*
X327084Y280000D02*
Y290160D01*
Y269840D02*
Y280000D01*
Y269840D02*
X335720D01*
X356040D02*
X364676D01*
Y280000D01*
Y290160D01*
X356040D02*
X364676D01*
X372084Y265160D02*
X380720D01*
X372084Y255000D02*
Y265160D01*
Y244840D02*
Y255000D01*
Y244840D02*
X380720D01*
X401040D02*
X409676D01*
Y255000D01*
Y265160D01*
X401040D02*
X409676D01*
X282084Y290160D02*
X290720D01*
X282084Y280000D02*
Y290160D01*
Y269840D02*
Y280000D01*
Y269840D02*
X290720D01*
X311040D02*
X319676D01*
Y280000D01*
Y290160D01*
X311040D02*
X319676D01*
X372084D02*
X380720D01*
X372084Y280000D02*
Y290160D01*
Y269840D02*
Y280000D01*
Y269840D02*
X380720D01*
X401040D02*
X409676D01*
Y280000D01*
Y290160D01*
X401040D02*
X409676D01*
X282084Y315160D02*
X290720D01*
X282084Y305000D02*
Y315160D01*
Y294840D02*
Y305000D01*
Y294840D02*
X290720D01*
X311040D02*
X319676D01*
Y305000D01*
Y315160D01*
X311040D02*
X319676D01*
X236924Y290160D02*
X245560D01*
X236924Y280000D02*
Y290160D01*
Y269840D02*
Y280000D01*
Y269840D02*
X245560D01*
X265880D02*
X274516D01*
Y280000D01*
Y290160D01*
X265880D02*
X274516D01*
X282084Y340160D02*
X290720D01*
X282084Y330000D02*
Y340160D01*
Y319840D02*
Y330000D01*
Y319840D02*
X290720D01*
X311040D02*
X319676D01*
Y330000D01*
Y340160D01*
X311040D02*
X319676D01*
X327084Y415160D02*
X335720D01*
X327084Y405000D02*
Y415160D01*
Y394840D02*
Y405000D01*
Y394840D02*
X335720D01*
X356040D02*
X364676D01*
Y405000D01*
Y415160D01*
X356040D02*
X364676D01*
X327084Y440160D02*
X335720D01*
X327084Y430000D02*
Y440160D01*
Y419840D02*
Y430000D01*
Y419840D02*
X335720D01*
X356040D02*
X364676D01*
Y430000D01*
Y440160D01*
X356040D02*
X364676D01*
X282084Y415160D02*
X290720D01*
X282084Y405000D02*
Y415160D01*
Y394840D02*
Y405000D01*
Y394840D02*
X290720D01*
X311040D02*
X319676D01*
Y405000D01*
Y415160D01*
X311040D02*
X319676D01*
X226880Y447100D02*
X235880D01*
X226880Y422900D02*
Y447100D01*
Y422900D02*
X235880D01*
X265880D02*
X274880D01*
Y447100D01*
X265880D02*
X274880D01*
X172380D02*
X181380D01*
X172380Y422900D02*
Y447100D01*
Y422900D02*
X181380D01*
X211380D02*
X220380D01*
Y447100D01*
X211380D02*
X220380D01*
X397244Y440160D02*
X405880D01*
X397244Y430000D02*
Y440160D01*
Y419840D02*
Y430000D01*
Y419840D02*
X405880D01*
X426200D02*
X434836D01*
Y430000D01*
Y440160D01*
X426200D02*
X434836D01*
X282244Y390160D02*
X290880D01*
X282244Y380000D02*
Y390160D01*
Y369840D02*
Y380000D01*
Y369840D02*
X290880D01*
X311200D02*
X319836D01*
Y380000D01*
Y390160D01*
X311200D02*
X319836D01*
X227460Y365160D02*
X236460D01*
X227460Y340960D02*
Y365160D01*
Y340960D02*
X236460D01*
X266460D02*
X275460D01*
Y365160D01*
X266460D02*
X275460D01*
X172380Y362100D02*
X181380D01*
X172380Y337900D02*
Y362100D01*
Y337900D02*
X181380D01*
X211380D02*
X220380D01*
Y362100D01*
X211380D02*
X220380D01*
X282084Y365160D02*
X290720D01*
X282084Y355000D02*
Y365160D01*
Y344840D02*
Y355000D01*
Y344840D02*
X290720D01*
X311040D02*
X319676D01*
Y355000D01*
Y365160D01*
X311040D02*
X319676D01*
X537084Y265160D02*
X545720D01*
X537084Y255000D02*
Y265160D01*
Y244840D02*
Y255000D01*
Y244840D02*
X545720D01*
X566040D02*
X574676D01*
Y255000D01*
Y265160D01*
X566040D02*
X574676D01*
X537084Y315160D02*
X545720D01*
X537084Y305000D02*
Y315160D01*
Y294840D02*
Y305000D01*
Y294840D02*
X545720D01*
X566040D02*
X574676D01*
Y305000D01*
Y315160D01*
X566040D02*
X574676D01*
X282084Y265160D02*
X290720D01*
X282084Y255000D02*
Y265160D01*
Y244840D02*
Y255000D01*
Y244840D02*
X290720D01*
X311040D02*
X319676D01*
Y255000D01*
Y265160D01*
X311040D02*
X319676D01*
X266040Y394840D02*
X274676D01*
Y405000D01*
Y415160D01*
X266040D02*
X274676D01*
X237084D02*
X245720D01*
X237084Y405000D02*
Y415160D01*
Y394840D02*
Y405000D01*
Y394840D02*
X245720D01*
X265880Y369840D02*
X274516D01*
Y380000D01*
Y390160D01*
X265880D02*
X274516D01*
X236924D02*
X245560D01*
X236924Y380000D02*
Y390160D01*
Y369840D02*
Y380000D01*
Y369840D02*
X245560D01*
X356040Y344840D02*
X364676D01*
Y355000D01*
Y365160D01*
X356040D02*
X364676D01*
X327084D02*
X335720D01*
X327084Y355000D02*
Y365160D01*
Y344840D02*
Y355000D01*
Y344840D02*
X335720D01*
X236924Y265160D02*
X245560D01*
X236924Y255000D02*
Y265160D01*
Y244840D02*
Y255000D01*
Y244840D02*
X245560D01*
X265880D02*
X274516D01*
Y255000D01*
Y265160D01*
X265880D02*
X274516D01*
X199990Y245240D02*
Y254240D01*
Y245240D02*
X224190D01*
Y254240D01*
Y284240D02*
Y293240D01*
X199990D02*
X224190D01*
X199990Y284240D02*
Y293240D01*
X173850Y25061D02*
Y27346D01*
X106032Y25061D02*
X173850D01*
X106032Y64939D02*
X173850D01*
Y62654D02*
Y64939D01*
X522060Y62858D02*
X528831D01*
X525446Y66244D02*
Y59473D01*
D38*
X393630Y401600D02*
G03*
X393630Y401600I-1250J0D01*
G01*
X99830Y255480D02*
G03*
X99830Y255480I-1250J0D01*
G01*
D39*
X577500Y40000D02*
G03*
X577500Y40000I-27500J0D01*
G01*
X28000Y42000D02*
G03*
X33530Y26640I26980J1038D01*
G01*
X56038Y15020D02*
G03*
X82000Y42000I-1038J26980D01*
G01*
Y108000D02*
G03*
X75986Y124988I-27000J0D01*
G01*
X55999Y134981D02*
G03*
X28000Y108000I-999J-26981D01*
G01*
X681990Y243840D02*
Y269240D01*
X631190Y243840D02*
X681990D01*
X631190D02*
Y269240D01*
X681990D01*
Y280670D02*
Y306070D01*
X631190Y280670D02*
X681990D01*
X631190D02*
Y306070D01*
X681990D01*
X278130Y445770D02*
Y471170D01*
X328930D01*
Y445770D02*
Y471170D01*
X278130Y445770D02*
X328930D01*
X405880Y311000D02*
X425880D01*
X405880Y399000D02*
X425880D01*
Y311000D02*
Y399000D01*
X405880Y311000D02*
Y399000D01*
X681990Y207010D02*
Y232410D01*
X631190Y207010D02*
X681990D01*
X631190D02*
Y232410D01*
X681990D01*
X36830Y418900D02*
X62230D01*
Y317300D02*
Y418900D01*
X36830Y317300D02*
Y418900D01*
Y317300D02*
X62230D01*
X632300Y444300D02*
X657700D01*
Y317300D02*
Y444300D01*
X632300Y317300D02*
Y444300D01*
Y317300D02*
X657700D01*
X96520Y354330D02*
Y403013D01*
Y354330D02*
Y430530D01*
X147320Y354330D02*
Y430530D01*
X96520D02*
X147320D01*
X96520Y354330D02*
X147320D01*
X462675Y129450D02*
X469290D01*
Y78650D02*
Y129450D01*
X450240Y78650D02*
X469290D01*
X450240D02*
Y129450D01*
X456325D01*
X98580Y270480D02*
X165580D01*
X98580Y298480D02*
X165580D01*
X98580Y270480D02*
Y298480D01*
X165580Y270480D02*
Y298480D01*
X82000Y42000D02*
Y108000D01*
X28000Y42000D02*
Y108000D01*
X368300Y161441D02*
X371632Y164774D01*
X378297D01*
X381629Y168106D01*
X318770Y161441D02*
X322102Y164774D01*
X328767D01*
X332099Y168106D01*
D40*
X249806Y34151D02*
G03*
X249806Y132209I-9806J49029D01*
G01*
X230000Y132238D02*
G03*
X230000Y34180I9806J-49029D01*
G01*
X300400Y30000D02*
X400400D01*
X350400D02*
Y150000D01*
X390400Y190000D02*
X400400D01*
X300400D02*
X310400D01*
X300400Y0D02*
Y190000D01*
Y0D02*
X400400D01*
Y190000D01*
X300400Y150000D02*
X400400D01*
X310400Y40000D02*
Y140000D01*
X340400D01*
Y40000D02*
Y140000D01*
X310400Y40000D02*
X340400D01*
X360400D02*
X390400D01*
Y140000D01*
X360400D02*
X390400D01*
X360400Y40000D02*
Y140000D01*
X188500Y32430D02*
Y135430D01*
X188500Y135430D01*
X227250D01*
X198500D02*
X227250D01*
X207000Y135430D02*
X207000Y135430D01*
X227250D01*
X188500Y125180D02*
X198500Y135180D01*
X213500Y135430D02*
X227250D01*
X228250Y25680D02*
Y32430D01*
X281500Y135180D02*
X291500Y125180D01*
X252250Y135180D02*
X281500D01*
X227250Y135430D02*
Y141930D01*
X252250Y135430D02*
Y141930D01*
X188500Y32430D02*
X228250D01*
X228250Y32430D01*
X291500D02*
Y125180D01*
X251750Y25430D02*
Y32430D01*
X291500D01*
X197164Y19761D02*
X195498Y21427D01*
X192166D01*
X190500Y19761D01*
Y13096D01*
X192166Y11430D01*
X195498D01*
X197164Y13096D01*
X207161Y11430D02*
X200497D01*
X207161Y18095D01*
Y19761D01*
X205495Y21427D01*
X202163D01*
X200497Y19761D01*
X210494D02*
X212160Y21427D01*
X215492D01*
X217158Y19761D01*
Y18095D01*
X215492Y16428D01*
X213826D01*
X215492D01*
X217158Y14762D01*
Y13096D01*
X215492Y11430D01*
X212160D01*
X210494Y13096D01*
X497840Y103977D02*
Y93980D01*
X504505D01*
X512835D02*
Y103977D01*
X507837Y98978D01*
X514501D01*
X376235Y357581D02*
X374568Y359247D01*
X371236D01*
X369570Y357581D01*
Y350916D01*
X371236Y349250D01*
X374568D01*
X376235Y350916D01*
X379567Y349250D02*
X382899D01*
X381233D01*
Y359247D01*
X379567Y357581D01*
X222544Y383331D02*
X220878Y384997D01*
X217546D01*
X215880Y383331D01*
Y376666D01*
X217546Y375000D01*
X220878D01*
X222544Y376666D01*
X225877Y383331D02*
X227543Y384997D01*
X230875D01*
X232541Y383331D01*
Y381665D01*
X230875Y379998D01*
X229209D01*
X230875D01*
X232541Y378332D01*
Y376666D01*
X230875Y375000D01*
X227543D01*
X225877Y376666D01*
X222544Y408331D02*
X220878Y409997D01*
X217546D01*
X215880Y408331D01*
Y401666D01*
X217546Y400000D01*
X220878D01*
X222544Y401666D01*
X230875Y400000D02*
Y409997D01*
X225877Y404998D01*
X232541D01*
X296224Y220421D02*
X294558Y222087D01*
X291226D01*
X289560Y220421D01*
Y213756D01*
X291226Y212090D01*
X294558D01*
X296224Y213756D01*
X299557Y220421D02*
X301223Y222087D01*
X304555D01*
X306221Y220421D01*
Y218755D01*
X304555Y217088D01*
X306221Y215422D01*
Y213756D01*
X304555Y212090D01*
X301223D01*
X299557Y213756D01*
Y215422D01*
X301223Y217088D01*
X299557Y218755D01*
Y220421D01*
X301223Y217088D02*
X304555D01*
X590864Y308051D02*
X589198Y309717D01*
X585866D01*
X584200Y308051D01*
Y301386D01*
X585866Y299720D01*
X589198D01*
X590864Y301386D01*
X594197Y299720D02*
X597529D01*
X595863D01*
Y309717D01*
X594197Y308051D01*
X602527Y299720D02*
X605860D01*
X604194D01*
Y309717D01*
X602527Y308051D01*
X590864Y258521D02*
X589198Y260187D01*
X585866D01*
X584200Y258521D01*
Y251856D01*
X585866Y250190D01*
X589198D01*
X590864Y251856D01*
X594197Y250190D02*
X597529D01*
X595863D01*
Y260187D01*
X594197Y258521D01*
X609192Y250190D02*
X602527D01*
X609192Y256854D01*
Y258521D01*
X607526Y260187D01*
X604194D01*
X602527Y258521D01*
X46279Y432114D02*
X44613Y430448D01*
Y427116D01*
X46279Y425450D01*
X52944D01*
X54610Y427116D01*
Y430448D01*
X52944Y432114D01*
X44613Y440445D02*
Y437113D01*
X46279Y435447D01*
X52944D01*
X54610Y437113D01*
Y440445D01*
X52944Y442111D01*
X46279D01*
X44613Y440445D01*
Y445444D02*
Y448776D01*
Y447110D01*
X54610D01*
Y445444D01*
Y448776D01*
X44613Y453774D02*
X54610D01*
Y460439D01*
Y463771D02*
Y467103D01*
Y465437D01*
X44613D01*
X46279Y463771D01*
X326390Y325120D02*
Y335117D01*
X331388D01*
X333055Y333451D01*
Y330118D01*
X331388Y328452D01*
X326390D01*
X329722D02*
X333055Y325120D01*
X336387D02*
X339719D01*
X338053D01*
Y335117D01*
X336387Y333451D01*
X186690Y322580D02*
Y332577D01*
X191688D01*
X193354Y330911D01*
Y327578D01*
X191688Y325912D01*
X186690D01*
X190022D02*
X193354Y322580D01*
X203351D02*
X196687D01*
X203351Y329244D01*
Y330911D01*
X201685Y332577D01*
X198353D01*
X196687Y330911D01*
X243840Y326390D02*
Y336387D01*
X248838D01*
X250504Y334721D01*
Y331388D01*
X248838Y329722D01*
X243840D01*
X247172D02*
X250504Y326390D01*
X253837Y334721D02*
X255503Y336387D01*
X258835D01*
X260501Y334721D01*
Y333055D01*
X258835Y331388D01*
X257169D01*
X258835D01*
X260501Y329722D01*
Y328056D01*
X258835Y326390D01*
X255503D01*
X253837Y328056D01*
X325120Y374650D02*
Y384647D01*
X330118D01*
X331785Y382981D01*
Y379648D01*
X330118Y377982D01*
X325120D01*
X328452D02*
X331785Y374650D01*
X340115D02*
Y384647D01*
X335117Y379648D01*
X341781D01*
X406400Y445770D02*
Y455767D01*
X411398D01*
X413064Y454101D01*
Y450768D01*
X411398Y449102D01*
X406400D01*
X409732D02*
X413064Y445770D01*
X423061Y455767D02*
X416397D01*
Y450768D01*
X419729Y452435D01*
X421395D01*
X423061Y450768D01*
Y447436D01*
X421395Y445770D01*
X418063D01*
X416397Y447436D01*
X189230Y452120D02*
Y462117D01*
X194228D01*
X195895Y460451D01*
Y457118D01*
X194228Y455452D01*
X189230D01*
X192562D02*
X195895Y452120D01*
X205891Y462117D02*
X202559Y460451D01*
X199227Y457118D01*
Y453786D01*
X200893Y452120D01*
X204225D01*
X205891Y453786D01*
Y455452D01*
X204225Y457118D01*
X199227D01*
X242570Y452120D02*
Y462117D01*
X247568D01*
X249235Y460451D01*
Y457118D01*
X247568Y455452D01*
X242570D01*
X245902D02*
X249235Y452120D01*
X252567Y462117D02*
X259231D01*
Y460451D01*
X252567Y453786D01*
Y452120D01*
X290830Y420370D02*
Y430367D01*
X295828D01*
X297495Y428701D01*
Y425368D01*
X295828Y423702D01*
X290830D01*
X294162D02*
X297495Y420370D01*
X300827Y428701D02*
X302493Y430367D01*
X305825D01*
X307491Y428701D01*
Y427034D01*
X305825Y425368D01*
X307491Y423702D01*
Y422036D01*
X305825Y420370D01*
X302493D01*
X300827Y422036D01*
Y423702D01*
X302493Y425368D01*
X300827Y427034D01*
Y428701D01*
X302493Y425368D02*
X305825D01*
X369570Y425450D02*
Y435447D01*
X374568D01*
X376235Y433781D01*
Y430448D01*
X374568Y428782D01*
X369570D01*
X372902D02*
X376235Y425450D01*
X379567Y427116D02*
X381233Y425450D01*
X384565D01*
X386231Y427116D01*
Y433781D01*
X384565Y435447D01*
X381233D01*
X379567Y433781D01*
Y432114D01*
X381233Y430448D01*
X386231D01*
X369570Y406400D02*
Y416397D01*
X374568D01*
X376235Y414731D01*
Y411398D01*
X374568Y409732D01*
X369570D01*
X372902D02*
X376235Y406400D01*
X379567D02*
X382899D01*
X381233D01*
Y416397D01*
X379567Y414731D01*
X387897D02*
X389564Y416397D01*
X392896D01*
X394562Y414731D01*
Y408066D01*
X392896Y406400D01*
X389564D01*
X387897Y408066D01*
Y414731D01*
X326390Y309880D02*
Y319877D01*
X331388D01*
X333055Y318211D01*
Y314878D01*
X331388Y313212D01*
X326390D01*
X329722D02*
X333055Y309880D01*
X336387D02*
X339719D01*
X338053D01*
Y319877D01*
X336387Y318211D01*
X344717Y309880D02*
X348050D01*
X346384D01*
Y319877D01*
X344717Y318211D01*
X243840Y212090D02*
Y222087D01*
X248838D01*
X250504Y220421D01*
Y217088D01*
X248838Y215422D01*
X243840D01*
X247172D02*
X250504Y212090D01*
X253837D02*
X257169D01*
X255503D01*
Y222087D01*
X253837Y220421D01*
X268832Y212090D02*
X262167D01*
X268832Y218755D01*
Y220421D01*
X267166Y222087D01*
X263834D01*
X262167Y220421D01*
X326390Y294640D02*
Y304637D01*
X331388D01*
X333055Y302971D01*
Y299638D01*
X331388Y297972D01*
X326390D01*
X329722D02*
X333055Y294640D01*
X336387D02*
X339719D01*
X338053D01*
Y304637D01*
X336387Y302971D01*
X344717D02*
X346384Y304637D01*
X349716D01*
X351382Y302971D01*
Y301304D01*
X349716Y299638D01*
X348050D01*
X349716D01*
X351382Y297972D01*
Y296306D01*
X349716Y294640D01*
X346384D01*
X344717Y296306D01*
X414020Y275590D02*
Y285587D01*
X419018D01*
X420685Y283921D01*
Y280588D01*
X419018Y278922D01*
X414020D01*
X417352D02*
X420685Y275590D01*
X424017D02*
X427349D01*
X425683D01*
Y285587D01*
X424017Y283921D01*
X437346Y275590D02*
Y285587D01*
X432347Y280588D01*
X439012D01*
X289560Y228600D02*
Y238597D01*
X294558D01*
X296224Y236931D01*
Y233598D01*
X294558Y231932D01*
X289560D01*
X292892D02*
X296224Y228600D01*
X299557D02*
X302889D01*
X301223D01*
Y238597D01*
X299557Y236931D01*
X314552Y238597D02*
X311220Y236931D01*
X307887Y233598D01*
Y230266D01*
X309554Y228600D01*
X312886D01*
X314552Y230266D01*
Y231932D01*
X312886Y233598D01*
X307887D01*
X414020Y250190D02*
Y260187D01*
X419018D01*
X420685Y258521D01*
Y255188D01*
X419018Y253522D01*
X414020D01*
X417352D02*
X420685Y250190D01*
X424017D02*
X427349D01*
X425683D01*
Y260187D01*
X424017Y258521D01*
X432347Y260187D02*
X439012D01*
Y258521D01*
X432347Y251856D01*
Y250190D01*
X335280Y254000D02*
Y263997D01*
X340278D01*
X341945Y262331D01*
Y258998D01*
X340278Y257332D01*
X335280D01*
X338612D02*
X341945Y254000D01*
X351941D02*
X345277D01*
X351941Y260665D01*
Y262331D01*
X350275Y263997D01*
X346943D01*
X345277Y262331D01*
X355274Y254000D02*
X358606D01*
X356940D01*
Y263997D01*
X355274Y262331D01*
X459740Y323850D02*
Y333847D01*
X464738D01*
X466404Y332181D01*
Y328848D01*
X464738Y327182D01*
X459740D01*
X463072D02*
X466404Y323850D01*
X476401D02*
X469737D01*
X476401Y330514D01*
Y332181D01*
X474735Y333847D01*
X471403D01*
X469737Y332181D01*
X486398Y323850D02*
X479734D01*
X486398Y330514D01*
Y332181D01*
X484732Y333847D01*
X481400D01*
X479734Y332181D01*
X584200Y274320D02*
Y284317D01*
X589198D01*
X590864Y282651D01*
Y279318D01*
X589198Y277652D01*
X584200D01*
X587532D02*
X590864Y274320D01*
X600861D02*
X594197D01*
X600861Y280984D01*
Y282651D01*
X599195Y284317D01*
X595863D01*
X594197Y282651D01*
X604194D02*
X605860Y284317D01*
X609192D01*
X610858Y282651D01*
Y280984D01*
X609192Y279318D01*
X607526D01*
X609192D01*
X610858Y277652D01*
Y275986D01*
X609192Y274320D01*
X605860D01*
X604194Y275986D01*
X459740Y299720D02*
Y309717D01*
X464738D01*
X466404Y308051D01*
Y304718D01*
X464738Y303052D01*
X459740D01*
X463072D02*
X466404Y299720D01*
X476401D02*
X469737D01*
X476401Y306385D01*
Y308051D01*
X474735Y309717D01*
X471403D01*
X469737Y308051D01*
X484732Y299720D02*
Y309717D01*
X479734Y304718D01*
X486398D01*
X500380Y186690D02*
Y196687D01*
X505378D01*
X507044Y195021D01*
Y191688D01*
X505378Y190022D01*
X500380D01*
X503712D02*
X507044Y186690D01*
X517041D02*
X510377D01*
X517041Y193354D01*
Y195021D01*
X515375Y196687D01*
X512043D01*
X510377Y195021D01*
X527038Y196687D02*
X520374D01*
Y191688D01*
X523706Y193354D01*
X525372D01*
X527038Y191688D01*
Y188356D01*
X525372Y186690D01*
X522040D01*
X520374Y188356D01*
X584200Y224790D02*
Y234787D01*
X589198D01*
X590864Y233121D01*
Y229788D01*
X589198Y228122D01*
X584200D01*
X587532D02*
X590864Y224790D01*
X600861D02*
X594197D01*
X600861Y231455D01*
Y233121D01*
X599195Y234787D01*
X595863D01*
X594197Y233121D01*
X610858Y234787D02*
X607526Y233121D01*
X604194Y229788D01*
Y226456D01*
X605860Y224790D01*
X609192D01*
X610858Y226456D01*
Y228122D01*
X609192Y229788D01*
X604194D01*
X500380Y201930D02*
Y211927D01*
X505378D01*
X507044Y210261D01*
Y206928D01*
X505378Y205262D01*
X500380D01*
X503712D02*
X507044Y201930D01*
X517041D02*
X510377D01*
X517041Y208594D01*
Y210261D01*
X515375Y211927D01*
X512043D01*
X510377Y210261D01*
X520374Y211927D02*
X527038D01*
Y210261D01*
X520374Y203596D01*
Y201930D01*
X457200Y224790D02*
Y234787D01*
X462198D01*
X463865Y233121D01*
Y229788D01*
X462198Y228122D01*
X457200D01*
X460532D02*
X463865Y224790D01*
X473861D02*
X467197D01*
X473861Y231455D01*
Y233121D01*
X472195Y234787D01*
X468863D01*
X467197Y233121D01*
X477194D02*
X478860Y234787D01*
X482192D01*
X483858Y233121D01*
Y231455D01*
X482192Y229788D01*
X483858Y228122D01*
Y226456D01*
X482192Y224790D01*
X478860D01*
X477194Y226456D01*
Y228122D01*
X478860Y229788D01*
X477194Y231455D01*
Y233121D01*
X478860Y229788D02*
X482192D01*
X449580Y284480D02*
X459577D01*
Y279482D01*
X457911Y277815D01*
X454578D01*
X452912Y279482D01*
Y284480D01*
Y281148D02*
X449580Y277815D01*
Y267819D02*
Y274483D01*
X456245Y267819D01*
X457911D01*
X459577Y269485D01*
Y272817D01*
X457911Y274483D01*
X451246Y264486D02*
X449580Y262820D01*
Y259488D01*
X451246Y257822D01*
X457911D01*
X459577Y259488D01*
Y262820D01*
X457911Y264486D01*
X456245D01*
X454578Y262820D01*
Y257822D01*
X459740Y349250D02*
Y359247D01*
X464738D01*
X466404Y357581D01*
Y354248D01*
X464738Y352582D01*
X459740D01*
X463072D02*
X466404Y349250D01*
X469737Y357581D02*
X471403Y359247D01*
X474735D01*
X476401Y357581D01*
Y355914D01*
X474735Y354248D01*
X473069D01*
X474735D01*
X476401Y352582D01*
Y350916D01*
X474735Y349250D01*
X471403D01*
X469737Y350916D01*
X479734Y357581D02*
X481400Y359247D01*
X484732D01*
X486398Y357581D01*
Y350916D01*
X484732Y349250D01*
X481400D01*
X479734Y350916D01*
Y357581D01*
X584200Y325120D02*
Y335117D01*
X589198D01*
X590864Y333451D01*
Y330118D01*
X589198Y328452D01*
X584200D01*
X587532D02*
X590864Y325120D01*
X594197Y333451D02*
X595863Y335117D01*
X599195D01*
X600861Y333451D01*
Y331785D01*
X599195Y330118D01*
X597529D01*
X599195D01*
X600861Y328452D01*
Y326786D01*
X599195Y325120D01*
X595863D01*
X594197Y326786D01*
X604194Y325120D02*
X607526D01*
X605860D01*
Y335117D01*
X604194Y333451D01*
X459740Y373380D02*
Y383377D01*
X464738D01*
X466404Y381711D01*
Y378378D01*
X464738Y376712D01*
X459740D01*
X463072D02*
X466404Y373380D01*
X469737Y381711D02*
X471403Y383377D01*
X474735D01*
X476401Y381711D01*
Y380045D01*
X474735Y378378D01*
X473069D01*
X474735D01*
X476401Y376712D01*
Y375046D01*
X474735Y373380D01*
X471403D01*
X469737Y375046D01*
X486398Y373380D02*
X479734D01*
X486398Y380045D01*
Y381711D01*
X484732Y383377D01*
X481400D01*
X479734Y381711D01*
X499110Y462280D02*
Y472277D01*
X504108D01*
X505774Y470611D01*
Y467278D01*
X504108Y465612D01*
X499110D01*
X502442D02*
X505774Y462280D01*
X509107Y470611D02*
X510773Y472277D01*
X514105D01*
X515771Y470611D01*
Y468945D01*
X514105Y467278D01*
X512439D01*
X514105D01*
X515771Y465612D01*
Y463946D01*
X514105Y462280D01*
X510773D01*
X509107Y463946D01*
X519104Y470611D02*
X520770Y472277D01*
X524102D01*
X525768Y470611D01*
Y468945D01*
X524102Y467278D01*
X522436D01*
X524102D01*
X525768Y465612D01*
Y463946D01*
X524102Y462280D01*
X520770D01*
X519104Y463946D01*
X584200Y375920D02*
Y385917D01*
X589198D01*
X590864Y384251D01*
Y380918D01*
X589198Y379252D01*
X584200D01*
X587532D02*
X590864Y375920D01*
X594197Y384251D02*
X595863Y385917D01*
X599195D01*
X600861Y384251D01*
Y382584D01*
X599195Y380918D01*
X597529D01*
X599195D01*
X600861Y379252D01*
Y377586D01*
X599195Y375920D01*
X595863D01*
X594197Y377586D01*
X609192Y375920D02*
Y385917D01*
X604194Y380918D01*
X610858D01*
X499110Y445770D02*
Y455767D01*
X504108D01*
X505774Y454101D01*
Y450768D01*
X504108Y449102D01*
X499110D01*
X502442D02*
X505774Y445770D01*
X509107Y454101D02*
X510773Y455767D01*
X514105D01*
X515771Y454101D01*
Y452435D01*
X514105Y450768D01*
X512439D01*
X514105D01*
X515771Y449102D01*
Y447436D01*
X514105Y445770D01*
X510773D01*
X509107Y447436D01*
X525768Y455767D02*
X519104D01*
Y450768D01*
X522436Y452435D01*
X524102D01*
X525768Y450768D01*
Y447436D01*
X524102Y445770D01*
X520770D01*
X519104Y447436D01*
X415880Y304997D02*
Y296666D01*
X417546Y295000D01*
X420878D01*
X422545Y296666D01*
Y304997D01*
X425877Y295000D02*
X429209D01*
X427543D01*
Y304997D01*
X425877Y303331D01*
X250054Y236731D02*
X248388Y238397D01*
X245056D01*
X243390Y236731D01*
Y230066D01*
X245056Y228400D01*
X248388D01*
X250054Y230066D01*
X253387Y238397D02*
X260051D01*
Y236731D01*
X253387Y230066D01*
Y228400D01*
X590864Y357581D02*
X589198Y359247D01*
X585866D01*
X584200Y357581D01*
Y350916D01*
X585866Y349250D01*
X589198D01*
X590864Y350916D01*
X594197Y349250D02*
X597529D01*
X595863D01*
Y359247D01*
X594197Y357581D01*
X609192Y359247D02*
X602527D01*
Y354248D01*
X605860Y355914D01*
X607526D01*
X609192Y354248D01*
Y350916D01*
X607526Y349250D01*
X604194D01*
X602527Y350916D01*
X590864Y408381D02*
X589198Y410047D01*
X585866D01*
X584200Y408381D01*
Y401716D01*
X585866Y400050D01*
X589198D01*
X590864Y401716D01*
X594197Y400050D02*
X597529D01*
X595863D01*
Y410047D01*
X594197Y408381D01*
X609192Y410047D02*
X605860Y408381D01*
X602527Y405048D01*
Y401716D01*
X604194Y400050D01*
X607526D01*
X609192Y401716D01*
Y403382D01*
X607526Y405048D01*
X602527D01*
X516665Y83331D02*
X514998Y84997D01*
X511666D01*
X510000Y83331D01*
Y76666D01*
X511666Y75000D01*
X514998D01*
X516665Y76666D01*
X526661Y75000D02*
X519997D01*
X526661Y81664D01*
Y83331D01*
X524995Y84997D01*
X521663D01*
X519997Y83331D01*
X529994Y75000D02*
X533326D01*
X531660D01*
Y84997D01*
X529994Y83331D01*
X448624Y173431D02*
X446958Y175097D01*
X443626D01*
X441960Y173431D01*
Y166766D01*
X443626Y165100D01*
X446958D01*
X448624Y166766D01*
X458621Y165100D02*
X451957D01*
X458621Y171765D01*
Y173431D01*
X456955Y175097D01*
X453623D01*
X451957Y173431D01*
X468618Y165100D02*
X461954D01*
X468618Y171765D01*
Y173431D01*
X466952Y175097D01*
X463620D01*
X461954Y173431D01*
X589594Y103581D02*
X587928Y105247D01*
X584596D01*
X582930Y103581D01*
Y96916D01*
X584596Y95250D01*
X587928D01*
X589594Y96916D01*
X599591Y95250D02*
X592927D01*
X599591Y101915D01*
Y103581D01*
X597925Y105247D01*
X594593D01*
X592927Y103581D01*
X607922Y95250D02*
Y105247D01*
X602924Y100248D01*
X609588D01*
X180899Y227645D02*
X179233Y225978D01*
Y222646D01*
X180899Y220980D01*
X187564D01*
X189230Y222646D01*
Y225978D01*
X187564Y227645D01*
X189230Y237641D02*
Y230977D01*
X182565Y237641D01*
X180899D01*
X179233Y235975D01*
Y232643D01*
X180899Y230977D01*
X179233Y247638D02*
Y240974D01*
X184232D01*
X182565Y244306D01*
Y245972D01*
X184232Y247638D01*
X187564D01*
X189230Y245972D01*
Y242640D01*
X187564Y240974D01*
X66599Y293685D02*
X64933Y292018D01*
Y288686D01*
X66599Y287020D01*
X73264D01*
X74930Y288686D01*
Y292018D01*
X73264Y293685D01*
X74930Y303681D02*
Y297017D01*
X68266Y303681D01*
X66599D01*
X64933Y302015D01*
Y298683D01*
X66599Y297017D01*
X64933Y313678D02*
X66599Y310346D01*
X69932Y307014D01*
X73264D01*
X74930Y308680D01*
Y312012D01*
X73264Y313678D01*
X71598D01*
X69932Y312012D01*
Y307014D01*
X48819Y293685D02*
X47153Y292018D01*
Y288686D01*
X48819Y287020D01*
X55484D01*
X57150Y288686D01*
Y292018D01*
X55484Y293685D01*
X57150Y303681D02*
Y297017D01*
X50486Y303681D01*
X48819D01*
X47153Y302015D01*
Y298683D01*
X48819Y297017D01*
X47153Y307014D02*
Y313678D01*
X48819D01*
X55484Y307014D01*
X57150D01*
X127000Y154777D02*
Y144780D01*
X131998D01*
X133665Y146446D01*
Y153111D01*
X131998Y154777D01*
X127000D01*
X136997Y153111D02*
X138663Y154777D01*
X141995D01*
X143661Y153111D01*
Y151445D01*
X141995Y149778D01*
X140329D01*
X141995D01*
X143661Y148112D01*
Y146446D01*
X141995Y144780D01*
X138663D01*
X136997Y146446D01*
X570000Y14997D02*
Y5000D01*
X574998D01*
X576665Y6666D01*
Y13331D01*
X574998Y14997D01*
X570000D01*
X584995Y5000D02*
Y14997D01*
X579997Y9998D01*
X586661D01*
X570000Y84997D02*
Y75000D01*
X574998D01*
X576665Y76666D01*
Y83331D01*
X574998Y84997D01*
X570000D01*
X586661D02*
X579997D01*
Y79998D01*
X583329Y81664D01*
X584995D01*
X586661Y79998D01*
Y76666D01*
X584995Y75000D01*
X581663D01*
X579997Y76666D01*
X127100Y79997D02*
Y70000D01*
X132098D01*
X133764Y71666D01*
Y78331D01*
X132098Y79997D01*
X127100D01*
X143761D02*
X140429Y78331D01*
X137097Y74998D01*
Y71666D01*
X138763Y70000D01*
X142095D01*
X143761Y71666D01*
Y73332D01*
X142095Y74998D01*
X137097D01*
X58734Y183987D02*
X52070D01*
Y178988D01*
X55402D01*
X52070D01*
Y173990D01*
X62067D02*
X65399D01*
X63733D01*
Y183987D01*
X62067Y182321D01*
X207173Y227645D02*
Y220980D01*
X212172D01*
Y224312D01*
Y220980D01*
X217170D01*
Y237641D02*
Y230977D01*
X210506Y237641D01*
X208839D01*
X207173Y235975D01*
Y232643D01*
X208839Y230977D01*
X480000Y30000D02*
Y39997D01*
X484998D01*
X486665Y38331D01*
Y34998D01*
X484998Y33332D01*
X480000D01*
X483332D02*
X486665Y30000D01*
X489997D02*
X493329D01*
X491663D01*
Y39997D01*
X489997Y38331D01*
X498327D02*
X499994Y39997D01*
X503326D01*
X504992Y38331D01*
Y36665D01*
X503326Y34998D01*
X504992Y33332D01*
Y31666D01*
X503326Y30000D01*
X499994D01*
X498327Y31666D01*
Y33332D01*
X499994Y34998D01*
X498327Y36665D01*
Y38331D01*
X499994Y34998D02*
X503326D01*
X480000Y55000D02*
Y64997D01*
X484998D01*
X486665Y63331D01*
Y59998D01*
X484998Y58332D01*
X480000D01*
X483332D02*
X486665Y55000D01*
X489997D02*
X493329D01*
X491663D01*
Y64997D01*
X489997Y63331D01*
X498327Y56666D02*
X499994Y55000D01*
X503326D01*
X504992Y56666D01*
Y63331D01*
X503326Y64997D01*
X499994D01*
X498327Y63331D01*
Y61665D01*
X499994Y59998D01*
X504992D01*
X590550Y181610D02*
Y191607D01*
X595548D01*
X597215Y189941D01*
Y186608D01*
X595548Y184942D01*
X590550D01*
X593882D02*
X597215Y181610D01*
X607211D02*
X600547D01*
X607211Y188274D01*
Y189941D01*
X605545Y191607D01*
X602213D01*
X600547Y189941D01*
X610544D02*
X612210Y191607D01*
X615542D01*
X617208Y189941D01*
Y183276D01*
X615542Y181610D01*
X612210D01*
X610544Y183276D01*
Y189941D01*
X584200Y425450D02*
Y435447D01*
X589198D01*
X590864Y433781D01*
Y430448D01*
X589198Y428782D01*
X584200D01*
X587532D02*
X590864Y425450D01*
X594197Y433781D02*
X595863Y435447D01*
X599195D01*
X600861Y433781D01*
Y432114D01*
X599195Y430448D01*
X597529D01*
X599195D01*
X600861Y428782D01*
Y427116D01*
X599195Y425450D01*
X595863D01*
X594197Y427116D01*
X610858Y435447D02*
X607526Y433781D01*
X604194Y430448D01*
Y427116D01*
X605860Y425450D01*
X609192D01*
X610858Y427116D01*
Y428782D01*
X609192Y430448D01*
X604194D01*
X449580Y433070D02*
X459577D01*
Y428072D01*
X457911Y426405D01*
X454578D01*
X452912Y428072D01*
Y433070D01*
Y429738D02*
X449580Y426405D01*
X457911Y423073D02*
X459577Y421407D01*
Y418075D01*
X457911Y416409D01*
X456245D01*
X454578Y418075D01*
Y419741D01*
Y418075D01*
X452912Y416409D01*
X451246D01*
X449580Y418075D01*
Y421407D01*
X451246Y423073D01*
X459577Y413076D02*
Y406412D01*
X457911D01*
X451246Y413076D01*
X449580D01*
X20320Y64770D02*
X10323D01*
Y69768D01*
X11989Y71434D01*
X15322D01*
X16988Y69768D01*
Y64770D01*
Y68102D02*
X20320Y71434D01*
X10323Y74767D02*
X16988D01*
X20320Y78099D01*
X16988Y81431D01*
X10323D01*
X20320Y84764D02*
Y88096D01*
Y86430D01*
X10323D01*
X11989Y84764D01*
X410000Y74997D02*
Y66666D01*
X411666Y65000D01*
X414998D01*
X416665Y66666D01*
Y74997D01*
X426661Y65000D02*
X419997D01*
X426661Y71665D01*
Y73331D01*
X424995Y74997D01*
X421663D01*
X419997Y73331D01*
X121920Y237537D02*
Y229206D01*
X123586Y227540D01*
X126918D01*
X128584Y229206D01*
Y237537D01*
X131917Y235871D02*
X133583Y237537D01*
X136915D01*
X138581Y235871D01*
Y234205D01*
X136915Y232538D01*
X135249D01*
X136915D01*
X138581Y230872D01*
Y229206D01*
X136915Y227540D01*
X133583D01*
X131917Y229206D01*
X407670Y6350D02*
Y16347D01*
X412668D01*
X414334Y14681D01*
Y11348D01*
X412668Y9682D01*
X407670D01*
X417667Y6350D02*
X420999D01*
X419333D01*
Y16347D01*
X417667Y14681D01*
X633951Y452809D02*
Y462806D01*
X638949D01*
X640615Y461140D01*
Y457807D01*
X638949Y456141D01*
X633951D01*
X650612Y452809D02*
X643948D01*
X650612Y459473D01*
Y461140D01*
X648946Y462806D01*
X645614D01*
X643948Y461140D01*
X243840Y195580D02*
Y205577D01*
X248838D01*
X250504Y203911D01*
Y200578D01*
X248838Y198912D01*
X243840D01*
X247172D02*
X250504Y195580D01*
X253837D02*
X257169D01*
X255503D01*
Y205577D01*
X253837Y203911D01*
X268832Y205577D02*
X262167D01*
Y200578D01*
X265500Y202244D01*
X267166D01*
X268832Y200578D01*
Y197246D01*
X267166Y195580D01*
X263834D01*
X262167Y197246D01*
X66040Y433070D02*
Y443067D01*
X71038D01*
X72705Y441401D01*
Y438068D01*
X71038Y436402D01*
X66040D01*
X76037Y441401D02*
X77703Y443067D01*
X81035D01*
X82701Y441401D01*
Y439734D01*
X81035Y438068D01*
X79369D01*
X81035D01*
X82701Y436402D01*
Y434736D01*
X81035Y433070D01*
X77703D01*
X76037Y434736D01*
X671665Y333331D02*
X669998Y334997D01*
X666666D01*
X665000Y333331D01*
Y326666D01*
X666666Y325000D01*
X669998D01*
X671665Y326666D01*
Y329998D01*
X668332D01*
X674997Y325000D02*
Y334997D01*
X681661Y325000D01*
Y334997D01*
X684994D02*
Y325000D01*
X689992D01*
X691658Y326666D01*
Y333331D01*
X689992Y334997D01*
X684994D01*
X671665Y413331D02*
X669998Y414997D01*
X666666D01*
X665000Y413331D01*
Y406666D01*
X666666Y405000D01*
X669998D01*
X671665Y406666D01*
X681661Y413331D02*
X679995Y414997D01*
X676663D01*
X674997Y413331D01*
Y411665D01*
X676663Y409998D01*
X679995D01*
X681661Y408332D01*
Y406666D01*
X679995Y405000D01*
X676663D01*
X674997Y406666D01*
X684994Y405000D02*
X688326D01*
X686660D01*
Y414997D01*
X684994Y413331D01*
X671665Y383331D02*
X669998Y384997D01*
X666666D01*
X665000Y383331D01*
Y376666D01*
X666666Y375000D01*
X669998D01*
X671665Y376666D01*
X681661Y383331D02*
X679995Y384997D01*
X676663D01*
X674997Y383331D01*
Y381665D01*
X676663Y379998D01*
X679995D01*
X681661Y378332D01*
Y376666D01*
X679995Y375000D01*
X676663D01*
X674997Y376666D01*
X691658Y375000D02*
X684994D01*
X691658Y381665D01*
Y383331D01*
X689992Y384997D01*
X686660D01*
X684994Y383331D01*
X671665Y358331D02*
X669998Y359997D01*
X666666D01*
X665000Y358331D01*
Y351666D01*
X666666Y350000D01*
X669998D01*
X671665Y351666D01*
X681661Y358331D02*
X679995Y359997D01*
X676663D01*
X674997Y358331D01*
Y356665D01*
X676663Y354998D01*
X679995D01*
X681661Y353332D01*
Y351666D01*
X679995Y350000D01*
X676663D01*
X674997Y351666D01*
X684994Y358331D02*
X686660Y359997D01*
X689992D01*
X691658Y358331D01*
Y356665D01*
X689992Y354998D01*
X688326D01*
X689992D01*
X691658Y353332D01*
Y351666D01*
X689992Y350000D01*
X686660D01*
X684994Y351666D01*
X665000Y439997D02*
Y433332D01*
X668332Y430000D01*
X671665Y433332D01*
Y439997D01*
X681661Y438331D02*
X679995Y439997D01*
X676663D01*
X674997Y438331D01*
Y436665D01*
X676663Y434998D01*
X679995D01*
X681661Y433332D01*
Y431666D01*
X679995Y430000D01*
X676663D01*
X674997Y431666D01*
X71120Y398617D02*
Y391952D01*
X74452Y388620D01*
X77785Y391952D01*
Y398617D01*
X81117Y396951D02*
X82783Y398617D01*
X86115D01*
X87781Y396951D01*
Y395285D01*
X86115Y393618D01*
X84449D01*
X86115D01*
X87781Y391952D01*
Y390286D01*
X86115Y388620D01*
X82783D01*
X81117Y390286D01*
X71120Y422747D02*
Y416082D01*
X74452Y412750D01*
X77785Y416082D01*
Y422747D01*
X81117Y421081D02*
X82783Y422747D01*
X86115D01*
X87781Y421081D01*
Y419414D01*
X86115Y417748D01*
X84449D01*
X86115D01*
X87781Y416082D01*
Y414416D01*
X86115Y412750D01*
X82783D01*
X81117Y414416D01*
X72705Y370281D02*
X71038Y371947D01*
X67706D01*
X66040Y370281D01*
Y363616D01*
X67706Y361950D01*
X71038D01*
X72705Y363616D01*
Y366948D01*
X69372D01*
X76037Y361950D02*
Y371947D01*
X82701Y361950D01*
Y371947D01*
X86034D02*
Y361950D01*
X91032D01*
X92698Y363616D01*
Y370281D01*
X91032Y371947D01*
X86034D01*
X159065Y377901D02*
X157398Y379567D01*
X154066D01*
X152400Y377901D01*
Y371236D01*
X154066Y369570D01*
X157398D01*
X159065Y371236D01*
Y374568D01*
X155732D01*
X162397Y369570D02*
Y379567D01*
X169061Y369570D01*
Y379567D01*
X172394D02*
Y369570D01*
X177392D01*
X179058Y371236D01*
Y377901D01*
X177392Y379567D01*
X172394D01*
X11745Y410921D02*
X10078Y412587D01*
X6746D01*
X5080Y410921D01*
Y404256D01*
X6746Y402590D01*
X10078D01*
X11745Y404256D01*
Y407588D01*
X8412D01*
X15077Y402590D02*
Y412587D01*
X21741Y402590D01*
Y412587D01*
X25074D02*
Y402590D01*
X30072D01*
X31738Y404256D01*
Y410921D01*
X30072Y412587D01*
X25074D01*
X11745Y382981D02*
X10078Y384647D01*
X6746D01*
X5080Y382981D01*
Y376316D01*
X6746Y374650D01*
X10078D01*
X11745Y376316D01*
X15077Y372984D02*
X21741D01*
X25074Y374650D02*
Y384647D01*
X31738Y374650D01*
Y384647D01*
X11745Y357581D02*
X10078Y359247D01*
X6746D01*
X5080Y357581D01*
Y350916D01*
X6746Y349250D01*
X10078D01*
X11745Y350916D01*
X15077Y347584D02*
X21741D01*
X25074Y349250D02*
Y359247D01*
X30072D01*
X31738Y357581D01*
Y354248D01*
X30072Y352582D01*
X25074D01*
X5080Y333847D02*
Y327182D01*
X8412Y323850D01*
X11745Y327182D01*
Y333847D01*
X21741Y332181D02*
X20075Y333847D01*
X16743D01*
X15077Y332181D01*
Y325516D01*
X16743Y323850D01*
X20075D01*
X21741Y325516D01*
X31738Y332181D02*
X30072Y333847D01*
X26740D01*
X25074Y332181D01*
Y325516D01*
X26740Y323850D01*
X30072D01*
X31738Y325516D01*
X152400Y398617D02*
Y391952D01*
X155732Y388620D01*
X159065Y391952D01*
Y398617D01*
X162397Y386954D02*
X169061D01*
X177392Y398617D02*
X174060D01*
X172394Y396951D01*
Y390286D01*
X174060Y388620D01*
X177392D01*
X179058Y390286D01*
Y396951D01*
X177392Y398617D01*
X189055D02*
X182390D01*
Y393618D01*
X185723D01*
X182390D01*
Y388620D01*
X159065Y416001D02*
X157398Y417667D01*
X154066D01*
X152400Y416001D01*
Y409336D01*
X154066Y407670D01*
X157398D01*
X159065Y409336D01*
X162397Y406004D02*
X169061D01*
X177392Y417667D02*
X174060D01*
X172394Y416001D01*
Y409336D01*
X174060Y407670D01*
X177392D01*
X179058Y409336D01*
Y416001D01*
X177392Y417667D01*
X189055D02*
X182390D01*
Y412668D01*
X185723D01*
X182390D01*
Y407670D01*
D41*
X670438Y177800D02*
Y167803D01*
X675436Y172802D02*
X665439D01*
D42*
X254193Y125180D02*
Y119255D01*
X257156Y122218D02*
X251231D01*
D43*
X593170Y70000D02*
D03*
X593170Y25000D02*
D03*
X176831Y120000D02*
D03*
X105269Y45000D02*
D03*
M02*
