G04 Layer_Physical_Order=2*
G04 Layer_Color=16711680*
%FSLAX44Y44*%
%MOMM*%
G71*
G01*
G75*
%ADD11R,1.2700X1.6002*%
%ADD21C,0.5000*%
%ADD22C,0.2540*%
%ADD23C,1.0000*%
%ADD24C,1.5000*%
%ADD25R,1.5000X1.5000*%
%ADD26C,1.5000*%
%ADD27C,1.7800*%
%ADD28R,1.7800X1.7800*%
%ADD29C,2.5000*%
%ADD30R,1.5000X1.5000*%
%ADD31R,1.6000X1.6000*%
%ADD32C,1.6000*%
%ADD33R,1.3500X1.3500*%
%ADD34C,1.3500*%
%ADD35C,1.7000*%
%ADD36C,0.8000*%
G36*
X333037Y180311D02*
X332400Y179496D01*
X331838Y178627D01*
X331350Y177704D01*
X330938Y176728D01*
X330600Y175698D01*
X330337Y174615D01*
X330150Y173478D01*
X330037Y172288D01*
X330000Y171044D01*
X320000D01*
X319963Y172288D01*
X319850Y173478D01*
X319662Y174615D01*
X319400Y175698D01*
X319062Y176728D01*
X318650Y177704D01*
X318162Y178627D01*
X317600Y179496D01*
X316963Y180311D01*
X316250Y181073D01*
X333750D01*
X333037Y180311D01*
D02*
G37*
G36*
X101967Y160142D02*
X102144Y160100D01*
X102405Y160063D01*
X103182Y160002D01*
X105755Y159943D01*
X106610Y159940D01*
Y149940D01*
X101876Y149690D01*
Y160190D01*
X101967Y160142D01*
D02*
G37*
G36*
X51137Y42670D02*
X51444Y42508D01*
X51833Y42365D01*
X52302Y42242D01*
X52852Y42137D01*
X53482Y42052D01*
X54987Y41938D01*
X56814Y41900D01*
Y31900D01*
X55860Y31890D01*
X52852Y31662D01*
X52302Y31558D01*
X51833Y31435D01*
X51444Y31292D01*
X51137Y31130D01*
X50910Y30950D01*
Y42850D01*
X51137Y42670D01*
D02*
G37*
G36*
X383838Y180311D02*
X383200Y179496D01*
X382637Y178627D01*
X382150Y177704D01*
X381738Y176728D01*
X381400Y175698D01*
X381138Y174615D01*
X380950Y173478D01*
X380838Y172288D01*
X380800Y171044D01*
X370800D01*
X370762Y172288D01*
X370650Y173478D01*
X370462Y174615D01*
X370200Y175698D01*
X369863Y176728D01*
X369450Y177704D01*
X368963Y178627D01*
X368400Y179496D01*
X367762Y180311D01*
X367050Y181073D01*
X384550D01*
X383838Y180311D01*
D02*
G37*
G36*
X696431Y3636D02*
X354330D01*
Y16510D01*
Y53340D01*
X379730Y78740D01*
X406400Y105410D01*
Y184150D01*
Y207010D01*
X403860Y209550D01*
X3569D01*
Y476431D01*
X696431D01*
Y3636D01*
D02*
G37*
%LPC*%
G36*
X134620Y428421D02*
X131879Y428060D01*
X129325Y427002D01*
X127131Y425319D01*
X125448Y423125D01*
X124390Y420571D01*
X124029Y417830D01*
X124390Y415089D01*
X125448Y412535D01*
X127131Y410341D01*
X129325Y408658D01*
X131879Y407600D01*
X134620Y407239D01*
X137361Y407600D01*
X139915Y408658D01*
X142109Y410341D01*
X142240Y410513D01*
X142558Y410816D01*
X142952Y411143D01*
X143342Y411420D01*
X143729Y411652D01*
X144116Y411843D01*
X144505Y411996D01*
X144902Y412114D01*
X145312Y412199D01*
X145504Y412222D01*
X185637D01*
X258925Y338935D01*
X260744Y337719D01*
X262890Y337292D01*
X275209D01*
X275870Y336786D01*
X277573Y336080D01*
X279400Y335840D01*
X281227Y336080D01*
X282930Y336786D01*
X284392Y337908D01*
X285515Y339370D01*
X286220Y341073D01*
X286325Y341869D01*
X286509Y342079D01*
X294423Y349992D01*
X303466D01*
X303797Y349963D01*
X304289Y349882D01*
X304340Y349868D01*
Y344599D01*
X323040D01*
Y366601D01*
X304340D01*
Y361332D01*
X304289Y361318D01*
X303797Y361237D01*
X303466Y361208D01*
X292100D01*
X289954Y360781D01*
X288135Y359565D01*
X278398Y349828D01*
X277573Y349720D01*
X275870Y349015D01*
X275233Y348526D01*
X274954Y348508D01*
X265213D01*
X191925Y421795D01*
X190106Y423011D01*
X187960Y423438D01*
X145504D01*
X145312Y423461D01*
X144902Y423546D01*
X144505Y423664D01*
X144116Y423817D01*
X143729Y424008D01*
X143342Y424240D01*
X142952Y424517D01*
X142558Y424844D01*
X142240Y425148D01*
X142109Y425319D01*
X139915Y427002D01*
X137361Y428060D01*
X134620Y428421D01*
D02*
G37*
G36*
X651980Y164020D02*
X628180D01*
Y140220D01*
X651980D01*
Y164020D01*
D02*
G37*
G36*
X60030Y340500D02*
X39030D01*
Y319500D01*
X60030D01*
Y340500D01*
D02*
G37*
G36*
X581660Y286460D02*
X579833Y286220D01*
X578130Y285515D01*
X576668Y284392D01*
X575546Y282930D01*
X574840Y281227D01*
X574604Y279434D01*
X574602Y279425D01*
X574602Y279418D01*
X574600Y279400D01*
X574601Y279387D01*
X574595Y279106D01*
X574578Y278912D01*
X574552Y278747D01*
X574519Y278610D01*
X574482Y278495D01*
X574441Y278398D01*
X574397Y278314D01*
X574361Y278258D01*
X563347Y267244D01*
X262153D01*
X260470Y268927D01*
X260408Y269018D01*
X260338Y269141D01*
X260270Y269283D01*
X260205Y269446D01*
X260144Y269633D01*
X260089Y269846D01*
X260041Y270088D01*
X259992Y270433D01*
X259898Y270701D01*
X259810Y271368D01*
X259104Y273071D01*
X257983Y274533D01*
X256520Y275655D01*
X254817Y276361D01*
X252990Y276601D01*
X251163Y276361D01*
X249460Y275655D01*
X247998Y274533D01*
X246876Y273071D01*
X246170Y271368D01*
X245930Y269541D01*
X246170Y267714D01*
X246876Y266011D01*
X247998Y264548D01*
X249460Y263426D01*
X251163Y262721D01*
X252990Y262481D01*
X253581Y262558D01*
X253832Y262534D01*
X254116Y262562D01*
X254254Y262565D01*
X254360Y262558D01*
X254438Y262545D01*
X254496Y262530D01*
X254541Y262514D01*
X254583Y262494D01*
X254600Y262483D01*
X256437Y260646D01*
X256159Y259363D01*
X256054Y259233D01*
X254732Y258349D01*
X246252Y249869D01*
X246196Y249833D01*
X246112Y249789D01*
X246015Y249748D01*
X245900Y249711D01*
X245763Y249678D01*
X245598Y249652D01*
X245404Y249635D01*
X245123Y249629D01*
X245110Y249630D01*
X245092Y249628D01*
X245085Y249628D01*
X245076Y249626D01*
X243283Y249390D01*
X241580Y248685D01*
X240118Y247562D01*
X238995Y246100D01*
X238290Y244397D01*
X238050Y242570D01*
X238290Y240743D01*
X238995Y239040D01*
X240118Y237578D01*
X241580Y236455D01*
X243283Y235750D01*
X245110Y235510D01*
X246937Y235750D01*
X248640Y236455D01*
X250102Y237578D01*
X251224Y239040D01*
X251930Y240743D01*
X252166Y242536D01*
X252168Y242545D01*
X252168Y242552D01*
X252170Y242570D01*
X252169Y242583D01*
X252175Y242864D01*
X252192Y243058D01*
X252218Y243223D01*
X252251Y243360D01*
X252288Y243475D01*
X252329Y243572D01*
X252373Y243656D01*
X252409Y243712D01*
X259613Y250916D01*
X586740D01*
X588406Y251248D01*
X589818Y252192D01*
X599978Y262351D01*
X600922Y263764D01*
X601254Y265430D01*
Y267082D01*
X601268Y267146D01*
X601296Y267237D01*
X601336Y267334D01*
X601390Y267442D01*
X601465Y267563D01*
X601562Y267698D01*
X601688Y267847D01*
X601882Y268050D01*
X601892Y268058D01*
X601903Y268072D01*
X601908Y268077D01*
X601913Y268084D01*
X603014Y269520D01*
X603720Y271223D01*
X603960Y273050D01*
X603720Y274877D01*
X603014Y276580D01*
X601892Y278042D01*
X600430Y279165D01*
X598727Y279870D01*
X596900Y280110D01*
X595073Y279870D01*
X593370Y279165D01*
X591908Y278042D01*
X590785Y276580D01*
X590080Y274877D01*
X589840Y273050D01*
X590080Y271223D01*
X590785Y269520D01*
X591887Y268084D01*
X591892Y268077D01*
X591897Y268072D01*
X591908Y268058D01*
X592131Y266818D01*
X584937Y259624D01*
X569837D01*
X569311Y260894D01*
X580518Y272101D01*
X580574Y272137D01*
X580658Y272181D01*
X580755Y272222D01*
X580870Y272259D01*
X581007Y272292D01*
X581172Y272318D01*
X581366Y272335D01*
X581647Y272341D01*
X581660Y272340D01*
X581678Y272342D01*
X581685Y272342D01*
X581694Y272344D01*
X583487Y272580D01*
X585190Y273286D01*
X586652Y274408D01*
X587775Y275870D01*
X588480Y277573D01*
X588720Y279400D01*
X588480Y281227D01*
X587775Y282930D01*
X586652Y284392D01*
X585190Y285515D01*
X583487Y286220D01*
X581660Y286460D01*
D02*
G37*
G36*
X134620Y403021D02*
X131879Y402660D01*
X129325Y401602D01*
X127131Y399919D01*
X125448Y397725D01*
X124390Y395171D01*
X124029Y392430D01*
X124390Y389689D01*
X125448Y387135D01*
X127131Y384941D01*
X129325Y383258D01*
X131879Y382200D01*
X134620Y381839D01*
X137361Y382200D01*
X139915Y383258D01*
X142109Y384941D01*
X142240Y385112D01*
X142558Y385416D01*
X142952Y385743D01*
X143342Y386020D01*
X143729Y386252D01*
X144116Y386443D01*
X144505Y386596D01*
X144902Y386714D01*
X145312Y386799D01*
X145504Y386822D01*
X189447D01*
X253845Y322425D01*
X255664Y321209D01*
X257810Y320782D01*
X272669D01*
X273330Y320275D01*
X275033Y319570D01*
X276860Y319330D01*
X278247Y319512D01*
X303466D01*
X303797Y319483D01*
X304289Y319402D01*
X304340Y319388D01*
Y314119D01*
X312388D01*
X312800Y313885D01*
X313355Y313503D01*
X314644Y312426D01*
X328775Y298295D01*
X330594Y297079D01*
X332740Y296652D01*
X487680D01*
X489826Y297079D01*
X491645Y298295D01*
X504345Y310995D01*
X505561Y312814D01*
X505988Y314960D01*
Y317047D01*
X506017Y317373D01*
X506098Y317859D01*
X506116Y317929D01*
X509730D01*
Y338546D01*
X514732D01*
X514796Y338532D01*
X514887Y338504D01*
X514984Y338464D01*
X515092Y338410D01*
X515213Y338335D01*
X515348Y338238D01*
X515497Y338112D01*
X515700Y337918D01*
X515708Y337908D01*
X515722Y337897D01*
X515727Y337892D01*
X515734Y337887D01*
X517170Y336786D01*
X518873Y336080D01*
X520700Y335840D01*
X522527Y336080D01*
X524230Y336786D01*
X525692Y337908D01*
X526814Y339370D01*
X527520Y341073D01*
X527760Y342900D01*
X527520Y344727D01*
X526814Y346430D01*
X525692Y347892D01*
X524230Y349015D01*
X522527Y349720D01*
X520700Y349960D01*
X518873Y349720D01*
X517170Y349015D01*
X515734Y347913D01*
X515727Y347908D01*
X515722Y347903D01*
X515708Y347892D01*
X515700Y347882D01*
X515497Y347688D01*
X515348Y347562D01*
X515213Y347465D01*
X515092Y347391D01*
X514984Y347336D01*
X514887Y347296D01*
X514796Y347268D01*
X514732Y347254D01*
X509730D01*
Y365331D01*
X491030D01*
Y343329D01*
X496026D01*
Y339931D01*
X491030D01*
Y317929D01*
X493622D01*
X494148Y316659D01*
X485357Y307868D01*
X335063D01*
X324748Y318183D01*
X323835Y319159D01*
X323200Y319939D01*
X323040Y320165D01*
Y336121D01*
X304340D01*
Y330852D01*
X304289Y330838D01*
X303797Y330757D01*
X303466Y330728D01*
X282355D01*
X281852Y331382D01*
X280390Y332505D01*
X278687Y333210D01*
X276860Y333450D01*
X275033Y333210D01*
X273330Y332505D01*
X272693Y332015D01*
X272414Y331998D01*
X260133D01*
X195735Y396395D01*
X193916Y397611D01*
X191770Y398038D01*
X145504D01*
X145312Y398061D01*
X144902Y398146D01*
X144505Y398264D01*
X144116Y398417D01*
X143729Y398608D01*
X143342Y398840D01*
X142952Y399117D01*
X142558Y399444D01*
X142240Y399748D01*
X142109Y399919D01*
X139915Y401602D01*
X137361Y402660D01*
X134620Y403021D01*
D02*
G37*
G36*
X480060Y230580D02*
X478233Y230340D01*
X476530Y229634D01*
X475068Y228512D01*
X473946Y227050D01*
X473240Y225347D01*
X473000Y223520D01*
X473240Y221693D01*
X473946Y219990D01*
X474435Y219353D01*
X474452Y219074D01*
Y187071D01*
X473946Y186410D01*
X473240Y184707D01*
X473000Y182880D01*
X473240Y181053D01*
X473946Y179350D01*
X475068Y177888D01*
X476530Y176765D01*
X478233Y176060D01*
X480060Y175820D01*
X481887Y176060D01*
X483590Y176765D01*
X485052Y177888D01*
X486175Y179350D01*
X486880Y181053D01*
X487120Y182880D01*
X486880Y184707D01*
X486175Y186410D01*
X485686Y187047D01*
X485668Y187326D01*
Y219329D01*
X486175Y219990D01*
X486880Y221693D01*
X487120Y223520D01*
X486880Y225347D01*
X486175Y227050D01*
X485052Y228512D01*
X483590Y229634D01*
X481887Y230340D01*
X480060Y230580D01*
D02*
G37*
G36*
X49530Y365991D02*
X46789Y365630D01*
X44235Y364572D01*
X42041Y362889D01*
X40358Y360695D01*
X39300Y358141D01*
X38939Y355400D01*
X39300Y352659D01*
X40358Y350105D01*
X42041Y347911D01*
X44235Y346228D01*
X46789Y345170D01*
X49530Y344809D01*
X52271Y345170D01*
X54825Y346228D01*
X57019Y347911D01*
X58702Y350105D01*
X59760Y352659D01*
X60121Y355400D01*
X59760Y358141D01*
X58702Y360695D01*
X57019Y362889D01*
X54825Y364572D01*
X52271Y365630D01*
X49530Y365991D01*
D02*
G37*
G36*
X560000Y49834D02*
X557455Y49499D01*
X555083Y48517D01*
X553046Y46954D01*
X551483Y44917D01*
X551020Y43798D01*
X549750Y44051D01*
Y49750D01*
X530250D01*
Y30250D01*
X549750D01*
Y35949D01*
X551020Y36202D01*
X551483Y35083D01*
X553046Y33046D01*
X555083Y31483D01*
X557455Y30501D01*
X560000Y30166D01*
X562545Y30501D01*
X564917Y31483D01*
X566954Y33046D01*
X568517Y35083D01*
X569499Y37455D01*
X569834Y40000D01*
X569499Y42545D01*
X568517Y44917D01*
X566954Y46954D01*
X564917Y48517D01*
X562545Y49499D01*
X560000Y49834D01*
D02*
G37*
G36*
X575000Y146095D02*
X572128Y145717D01*
X569453Y144608D01*
X567155Y142845D01*
X565392Y140547D01*
X564283Y137872D01*
X563905Y135000D01*
X564283Y132128D01*
X565392Y129453D01*
X567155Y127155D01*
X569453Y125392D01*
X572128Y124283D01*
X575000Y123905D01*
X577872Y124283D01*
X580547Y125392D01*
X582845Y127155D01*
X584608Y129453D01*
X585717Y132128D01*
X586095Y135000D01*
X585717Y137872D01*
X584608Y140547D01*
X582845Y142845D01*
X580547Y144608D01*
X577872Y145717D01*
X575000Y146095D01*
D02*
G37*
G36*
X645000Y442191D02*
X642259Y441830D01*
X639705Y440772D01*
X637511Y439089D01*
X635828Y436895D01*
X634770Y434341D01*
X634409Y431600D01*
X634770Y428859D01*
X635828Y426305D01*
X637511Y424111D01*
X639705Y422428D01*
X642259Y421370D01*
X645000Y421009D01*
X647741Y421370D01*
X650295Y422428D01*
X652489Y424111D01*
X654172Y426305D01*
X655230Y428859D01*
X655591Y431600D01*
X655230Y434341D01*
X654172Y436895D01*
X652489Y439089D01*
X650295Y440772D01*
X647741Y441830D01*
X645000Y442191D01*
D02*
G37*
G36*
Y416791D02*
X642259Y416430D01*
X639705Y415372D01*
X637511Y413689D01*
X635828Y411495D01*
X634770Y408941D01*
X634409Y406200D01*
X634770Y403459D01*
X635828Y400905D01*
X637511Y398711D01*
X639705Y397028D01*
X642259Y395970D01*
X645000Y395609D01*
X647741Y395970D01*
X650295Y397028D01*
X652489Y398711D01*
X654172Y400905D01*
X655230Y403459D01*
X655591Y406200D01*
X655230Y408941D01*
X654172Y411495D01*
X652489Y413689D01*
X650295Y415372D01*
X647741Y416430D01*
X645000Y416791D01*
D02*
G37*
G36*
X119720Y428330D02*
X98720D01*
Y410503D01*
X98692Y410360D01*
X98720Y410218D01*
Y407330D01*
X100568D01*
X100633Y407114D01*
X100791Y406331D01*
X101138Y402115D01*
X101149Y401283D01*
X101133Y400599D01*
X99244Y400499D01*
X96520D01*
X94432Y400224D01*
X92486Y399418D01*
X90814Y398136D01*
X75574Y382896D01*
X74292Y381225D01*
X73486Y379278D01*
X73211Y377190D01*
Y313690D01*
X73486Y311602D01*
X74292Y309655D01*
X75574Y307984D01*
X77164Y306395D01*
X77400Y304599D01*
X78458Y302045D01*
X80141Y299851D01*
X82335Y298168D01*
X84889Y297110D01*
X87630Y296749D01*
X90371Y297110D01*
X92925Y298168D01*
X95119Y299851D01*
X96802Y302045D01*
X97860Y304599D01*
X98221Y307340D01*
X97860Y310081D01*
X96802Y312635D01*
X95119Y314829D01*
X92925Y316512D01*
X90371Y317570D01*
X89349Y317704D01*
Y373848D01*
X99862Y384361D01*
X100282D01*
X102404Y384311D01*
X102569Y384299D01*
X103925Y383258D01*
X106479Y382200D01*
X109220Y381839D01*
X111961Y382200D01*
X114515Y383258D01*
X116709Y384941D01*
X118392Y387135D01*
X119450Y389689D01*
X119811Y392430D01*
X119450Y395171D01*
X118392Y397725D01*
X117473Y398923D01*
X117303Y402151D01*
X117489Y405164D01*
X117634Y406255D01*
X117807Y407114D01*
X117872Y407330D01*
X119720D01*
Y410218D01*
X119748Y410360D01*
X119720Y410503D01*
Y428330D01*
D02*
G37*
G36*
X645000Y365991D02*
X642259Y365630D01*
X639705Y364572D01*
X637511Y362889D01*
X635828Y360695D01*
X634770Y358141D01*
X634409Y355400D01*
X634770Y352659D01*
X635828Y350105D01*
X637511Y347911D01*
X639705Y346228D01*
X642259Y345170D01*
X645000Y344809D01*
X647741Y345170D01*
X650295Y346228D01*
X652489Y347911D01*
X654172Y350105D01*
X655230Y352659D01*
X655591Y355400D01*
X655230Y358141D01*
X654172Y360695D01*
X652489Y362889D01*
X650295Y364572D01*
X647741Y365630D01*
X645000Y365991D01*
D02*
G37*
G36*
X536000Y146000D02*
X514000D01*
Y124000D01*
X536000D01*
Y146000D01*
D02*
G37*
G36*
X645000Y391391D02*
X642259Y391030D01*
X639705Y389972D01*
X637511Y388289D01*
X635828Y386095D01*
X634770Y383541D01*
X634409Y380800D01*
X634770Y378059D01*
X635828Y375505D01*
X637511Y373311D01*
X639705Y371628D01*
X642259Y370570D01*
X645000Y370209D01*
X647741Y370570D01*
X650295Y371628D01*
X652489Y373311D01*
X654172Y375505D01*
X655230Y378059D01*
X655591Y380800D01*
X655230Y383541D01*
X654172Y386095D01*
X652489Y388289D01*
X650295Y389972D01*
X647741Y391030D01*
X645000Y391391D01*
D02*
G37*
G36*
X49530D02*
X46789Y391030D01*
X44235Y389972D01*
X42041Y388289D01*
X40358Y386095D01*
X39300Y383541D01*
X38939Y380800D01*
X39300Y378059D01*
X40358Y375505D01*
X42041Y373311D01*
X44235Y371628D01*
X46789Y370570D01*
X49530Y370209D01*
X52271Y370570D01*
X54825Y371628D01*
X57019Y373311D01*
X58702Y375505D01*
X59760Y378059D01*
X60121Y380800D01*
X59760Y383541D01*
X58702Y386095D01*
X57019Y388289D01*
X54825Y389972D01*
X52271Y391030D01*
X49530Y391391D01*
D02*
G37*
%LPD*%
G36*
X257024Y269575D02*
X257105Y269166D01*
X257206Y268776D01*
X257327Y268404D01*
X257468Y268050D01*
X257630Y267715D01*
X257811Y267399D01*
X258012Y267101D01*
X258234Y266821D01*
X258476Y266560D01*
X256919Y264525D01*
X256645Y264775D01*
X256357Y264993D01*
X256054Y265180D01*
X255737Y265333D01*
X255405Y265455D01*
X255059Y265544D01*
X254699Y265601D01*
X254324Y265625D01*
X253935Y265618D01*
X253531Y265578D01*
X256963Y270003D01*
X257024Y269575D01*
D02*
G37*
G36*
X599409Y269890D02*
X599149Y269580D01*
X598920Y269263D01*
X598721Y268940D01*
X598553Y268609D01*
X598415Y268272D01*
X598308Y267929D01*
X598231Y267578D01*
X598185Y267221D01*
X598170Y266857D01*
X595630D01*
X595615Y267221D01*
X595569Y267578D01*
X595492Y267929D01*
X595385Y268272D01*
X595247Y268609D01*
X595079Y268940D01*
X594880Y269263D01*
X594651Y269580D01*
X594391Y269890D01*
X594100Y270193D01*
X599700D01*
X599409Y269890D01*
D02*
G37*
G36*
X482563Y187949D02*
X482668Y186304D01*
X482707Y186100D01*
X482752Y185937D01*
X482803Y185816D01*
X482860Y185737D01*
X477260D01*
X477317Y185816D01*
X477368Y185937D01*
X477413Y186100D01*
X477452Y186304D01*
X477485Y186550D01*
X477533Y187166D01*
X477560Y188403D01*
X482560D01*
X482563Y187949D01*
D02*
G37*
G36*
X482803Y220584D02*
X482752Y220463D01*
X482707Y220300D01*
X482668Y220096D01*
X482635Y219850D01*
X482587Y219234D01*
X482560Y217997D01*
X477560D01*
X477557Y218451D01*
X477452Y220096D01*
X477413Y220300D01*
X477368Y220463D01*
X477317Y220584D01*
X477260Y220663D01*
X482860D01*
X482803Y220584D01*
D02*
G37*
G36*
X250387Y246051D02*
X250141Y245783D01*
X249921Y245498D01*
X249727Y245196D01*
X249559Y244877D01*
X249418Y244541D01*
X249304Y244189D01*
X249216Y243820D01*
X249154Y243433D01*
X249119Y243030D01*
X249110Y242610D01*
X245150Y246570D01*
X245570Y246579D01*
X245973Y246614D01*
X246360Y246676D01*
X246729Y246764D01*
X247081Y246878D01*
X247417Y247019D01*
X247736Y247187D01*
X248038Y247381D01*
X248323Y247601D01*
X248591Y247847D01*
X250387Y246051D01*
D02*
G37*
G36*
X285073Y345037D02*
X284754Y344714D01*
X283666Y343477D01*
X283549Y343305D01*
X283465Y343158D01*
X283416Y343037D01*
X283400Y342940D01*
X279440Y346900D01*
X279537Y346916D01*
X279658Y346965D01*
X279805Y347049D01*
X279977Y347165D01*
X280174Y347316D01*
X280644Y347718D01*
X281537Y348573D01*
X285073Y345037D01*
D02*
G37*
G36*
X307401Y350600D02*
X307351Y351075D01*
X307200Y351500D01*
X306948Y351875D01*
X306596Y352200D01*
X306143Y352475D01*
X305590Y352700D01*
X304936Y352875D01*
X304181Y353000D01*
X303326Y353075D01*
X302370Y353100D01*
Y358100D01*
X303326Y358125D01*
X304181Y358200D01*
X304936Y358325D01*
X305590Y358500D01*
X306143Y358725D01*
X306596Y359000D01*
X306948Y359325D01*
X307200Y359700D01*
X307351Y360125D01*
X307401Y360600D01*
Y350600D01*
D02*
G37*
G36*
X276543Y340100D02*
X276464Y340157D01*
X276343Y340208D01*
X276180Y340253D01*
X275976Y340292D01*
X275730Y340325D01*
X275114Y340373D01*
X273878Y340400D01*
Y345400D01*
X274331Y345403D01*
X275976Y345508D01*
X276180Y345547D01*
X276343Y345592D01*
X276464Y345643D01*
X276543Y345700D01*
Y340100D01*
D02*
G37*
G36*
X517843D02*
X517540Y340391D01*
X517230Y340651D01*
X516913Y340880D01*
X516590Y341079D01*
X516259Y341247D01*
X515922Y341385D01*
X515579Y341492D01*
X515228Y341569D01*
X514871Y341615D01*
X514507Y341630D01*
Y344170D01*
X514871Y344185D01*
X515228Y344231D01*
X515579Y344308D01*
X515922Y344415D01*
X516259Y344552D01*
X516590Y344721D01*
X516913Y344920D01*
X517230Y345149D01*
X517540Y345409D01*
X517843Y345700D01*
Y340100D01*
D02*
G37*
G36*
X116220Y410261D02*
X115801Y409961D01*
X115430Y409460D01*
X115109Y408760D01*
X114837Y407860D01*
X114615Y406760D01*
X114442Y405461D01*
X114245Y402261D01*
X114242Y402093D01*
X114470Y397786D01*
X103970D01*
X104017Y397878D01*
X104060Y398054D01*
X104097Y398315D01*
X104157Y399092D01*
X104208Y401267D01*
X104195Y402261D01*
X103825Y406760D01*
X103603Y407860D01*
X103331Y408760D01*
X103010Y409460D01*
X102640Y409961D01*
X102220Y410261D01*
X101750Y410360D01*
X116690D01*
X116220Y410261D01*
D02*
G37*
G36*
X140523Y422557D02*
X141087Y422090D01*
X141667Y421678D01*
X142264Y421320D01*
X142878Y421017D01*
X143507Y420770D01*
X144153Y420578D01*
X144816Y420440D01*
X145495Y420358D01*
X146191Y420330D01*
Y415330D01*
X145495Y415303D01*
X144816Y415220D01*
X144153Y415083D01*
X143507Y414890D01*
X142878Y414642D01*
X142264Y414340D01*
X141667Y413983D01*
X141087Y413570D01*
X140523Y413102D01*
X139976Y412580D01*
Y423080D01*
X140523Y422557D01*
D02*
G37*
G36*
X103864Y387180D02*
X103772Y387228D01*
X103596Y387270D01*
X103335Y387308D01*
X102558Y387368D01*
X99985Y387427D01*
X99130Y387430D01*
Y397430D01*
X103864Y397680D01*
Y387180D01*
D02*
G37*
G36*
X140523Y397158D02*
X141087Y396690D01*
X141667Y396278D01*
X142264Y395920D01*
X142878Y395617D01*
X143507Y395370D01*
X144153Y395177D01*
X144816Y395040D01*
X145495Y394958D01*
X146191Y394930D01*
Y389930D01*
X145495Y389902D01*
X144816Y389820D01*
X144153Y389683D01*
X143507Y389490D01*
X142878Y389243D01*
X142264Y388940D01*
X141667Y388582D01*
X141087Y388170D01*
X140523Y387702D01*
X139976Y387180D01*
Y397680D01*
X140523Y397158D01*
D02*
G37*
G36*
X504905Y320910D02*
X504480Y320760D01*
X504105Y320509D01*
X503780Y320159D01*
X503505Y319709D01*
X503280Y319160D01*
X503105Y318510D01*
X502980Y317759D01*
X502905Y316910D01*
X502880Y315959D01*
X497880D01*
X497855Y316910D01*
X497780Y317759D01*
X497655Y318510D01*
X497480Y319160D01*
X497255Y319709D01*
X496980Y320159D01*
X496655Y320509D01*
X496280Y320760D01*
X495855Y320910D01*
X495380Y320960D01*
X505380D01*
X504905Y320910D01*
D02*
G37*
G36*
X307401Y320120D02*
X307351Y320595D01*
X307200Y321020D01*
X306948Y321395D01*
X306596Y321720D01*
X306143Y321995D01*
X305590Y322220D01*
X304936Y322395D01*
X304181Y322520D01*
X303326Y322595D01*
X302370Y322620D01*
Y327620D01*
X303326Y327645D01*
X304181Y327720D01*
X304936Y327845D01*
X305590Y328020D01*
X306143Y328245D01*
X306596Y328520D01*
X306948Y328845D01*
X307200Y329220D01*
X307351Y329645D01*
X307401Y330120D01*
Y320120D01*
D02*
G37*
G36*
X581620Y275400D02*
X581200Y275391D01*
X580797Y275356D01*
X580410Y275294D01*
X580041Y275206D01*
X579689Y275092D01*
X579353Y274951D01*
X579034Y274783D01*
X578732Y274590D01*
X578447Y274369D01*
X578179Y274123D01*
X576383Y275919D01*
X576629Y276187D01*
X576850Y276472D01*
X577043Y276774D01*
X577211Y277093D01*
X577352Y277429D01*
X577466Y277781D01*
X577554Y278151D01*
X577616Y278537D01*
X577651Y278940D01*
X577660Y279360D01*
X581620Y275400D01*
D02*
G37*
G36*
X319603Y321772D02*
X319389Y321390D01*
X319338Y320915D01*
X319450Y320347D01*
X319726Y319686D01*
X320164Y318933D01*
X320765Y318086D01*
X321529Y317147D01*
X323545Y314991D01*
X317850Y313614D01*
X316919Y314510D01*
X315206Y315943D01*
X314424Y316479D01*
X313692Y316896D01*
X313010Y317193D01*
X312378Y317369D01*
X311795Y317426D01*
X311262Y317363D01*
X310779Y317180D01*
X319979Y322062D01*
X319603Y321772D01*
D02*
G37*
G36*
X501655Y335150D02*
X501894Y331391D01*
X501969Y331072D01*
X502054Y330840D01*
X502149Y330697D01*
X498611D01*
X498706Y330840D01*
X498791Y331072D01*
X498866Y331391D01*
X498930Y331798D01*
X499030Y332876D01*
X499105Y335150D01*
X499110Y336083D01*
X501650D01*
X501655Y335150D01*
D02*
G37*
G36*
X501668Y346359D02*
X502920D01*
X502679Y346334D01*
X502463Y346258D01*
X502272Y346131D01*
X502107Y345953D01*
X501968Y345724D01*
X501862Y345466D01*
X501879Y345415D01*
X502056Y345084D01*
X502285Y344805D01*
X502564Y344576D01*
X502895Y344399D01*
X503276Y344272D01*
X503707Y344195D01*
X504190Y344170D01*
Y341630D01*
X503707Y341605D01*
X503276Y341528D01*
X502895Y341401D01*
X502564Y341224D01*
X502285Y340995D01*
X502056Y340716D01*
X501879Y340385D01*
X501752Y340004D01*
X501675Y339573D01*
X501656Y339206D01*
X501663Y338952D01*
X501701Y338515D01*
X501764Y338130D01*
X501853Y337795D01*
X501968Y337513D01*
X502107Y337281D01*
X502272Y337101D01*
X502463Y336973D01*
X502679Y336896D01*
X502920Y336870D01*
X497840D01*
X498081Y336896D01*
X498297Y336973D01*
X498488Y337101D01*
X498653Y337281D01*
X498792Y337513D01*
X498907Y337795D01*
X498996Y338130D01*
X499059Y338515D01*
X499097Y338952D01*
X499110Y339440D01*
X501416D01*
X499110Y342900D01*
X499723Y343820D01*
X499110D01*
X499097Y344302D01*
X499059Y344734D01*
X498996Y345115D01*
X498907Y345445D01*
X498792Y345724D01*
X498653Y345953D01*
X498488Y346131D01*
X498297Y346258D01*
X498081Y346334D01*
X497840Y346359D01*
X501416D01*
X501650Y346710D01*
X501668Y346359D01*
D02*
G37*
G36*
X280529Y328040D02*
X280643Y327952D01*
X280798Y327874D01*
X280996Y327807D01*
X281236Y327749D01*
X281518Y327703D01*
X281842Y327667D01*
X282616Y327625D01*
X283066Y327620D01*
X280597Y322620D01*
X278680Y322828D01*
X280458Y328138D01*
X280529Y328040D01*
D02*
G37*
G36*
X274003Y323590D02*
X273924Y323647D01*
X273803Y323698D01*
X273640Y323743D01*
X273436Y323782D01*
X273190Y323815D01*
X272574Y323863D01*
X271338Y323890D01*
Y328890D01*
X271791Y328893D01*
X273436Y328998D01*
X273640Y329037D01*
X273803Y329082D01*
X273924Y329133D01*
X274003Y329190D01*
Y323590D01*
D02*
G37*
D11*
X500380Y328930D02*
D03*
X480060D02*
D03*
X500380Y354330D02*
D03*
X480060D02*
D03*
X313690Y325120D02*
D03*
X334010D02*
D03*
X313690Y355600D02*
D03*
X334010D02*
D03*
D21*
X332740Y302260D02*
X487680D01*
X313690Y321310D02*
X332740Y302260D01*
X487680D02*
X500380Y314960D01*
X664210Y125730D02*
Y187960D01*
X655600Y117120D02*
X664210Y125730D01*
X640080Y117120D02*
X655600D01*
X480060Y182880D02*
Y223520D01*
X292100Y355600D02*
X313690D01*
X279400Y342900D02*
X292100Y355600D01*
X500380Y314960D02*
Y328930D01*
X278130Y325120D02*
X313690D01*
X276860Y326390D02*
X278130Y325120D01*
X313690Y321310D02*
Y325120D01*
X262890Y342900D02*
X279400D01*
X187960Y417830D02*
X262890Y342900D01*
X134620Y417830D02*
X187960D01*
X257810Y326390D02*
X276860D01*
X191770Y392430D02*
X257810Y326390D01*
X134620Y392430D02*
X191770D01*
D22*
X260350Y262890D02*
X565150D01*
X581660Y279400D01*
X245110Y242570D02*
X257810Y255270D01*
X586740D01*
X596900Y265430D01*
Y273050D01*
X500380Y328930D02*
X500380Y328930D01*
X500380Y342900D02*
X520700D01*
X500380Y328930D02*
Y342900D01*
Y354330D01*
X252990Y269541D02*
X253699D01*
X260350Y262890D01*
D23*
X325000Y168790D02*
Y190000D01*
X311150Y154940D02*
X325000Y168790D01*
X96520Y154940D02*
X311150D01*
X96520Y392430D02*
X109220D01*
Y417830D01*
X81280Y313690D02*
X87630Y307340D01*
X81280Y313690D02*
Y377190D01*
X96520Y392430D01*
X44840Y36900D02*
X290900D01*
X375800Y121800D01*
Y190000D01*
X623290Y100330D02*
X640080Y117120D01*
X367660Y40000D02*
X423540D01*
X483870Y100330D01*
X623290D01*
D24*
X368300Y17780D02*
D03*
X96520Y154940D02*
D03*
X78740Y233680D02*
D03*
X87630Y307340D02*
D03*
X367660Y40000D02*
D03*
D25*
X643890Y256540D02*
D03*
Y293370D02*
D03*
X316230Y458470D02*
D03*
X643890Y219710D02*
D03*
D26*
X669290Y256540D02*
D03*
Y293370D02*
D03*
X290830Y458470D02*
D03*
X669290Y219710D02*
D03*
X49530Y355400D02*
D03*
Y380800D02*
D03*
Y406200D02*
D03*
X645000Y355400D02*
D03*
Y380800D02*
D03*
Y406200D02*
D03*
Y431600D02*
D03*
X134620Y367030D02*
D03*
X109220D02*
D03*
X134620Y392430D02*
D03*
X109220D02*
D03*
X134620Y417830D02*
D03*
D27*
X640080Y117120D02*
D03*
D28*
Y152120D02*
D03*
D29*
X375800Y190000D02*
D03*
X325000D02*
D03*
D30*
X49530Y330000D02*
D03*
X645000D02*
D03*
X109220Y417830D02*
D03*
D31*
X525000Y135000D02*
D03*
D32*
X575000D02*
D03*
D33*
X540000Y40000D02*
D03*
D34*
X560000D02*
D03*
D35*
X44840Y36900D02*
D03*
X66840Y111900D02*
D03*
D36*
X579120Y405130D02*
D03*
X500380Y215900D02*
D03*
X579120Y243840D02*
D03*
X577850Y304800D02*
D03*
Y355600D02*
D03*
X335280Y447040D02*
D03*
X245110Y392430D02*
D03*
X335880Y340000D02*
D03*
X185420Y299720D02*
D03*
X480060Y223520D02*
D03*
Y182880D02*
D03*
X581660Y279400D02*
D03*
X245110Y242570D02*
D03*
X596900Y273050D02*
D03*
X664210Y187960D02*
D03*
X453390Y355000D02*
D03*
X345440Y246380D02*
D03*
X276860Y326390D02*
D03*
X279400Y342900D02*
D03*
X520700D02*
D03*
X232410Y306070D02*
D03*
X252990Y269541D02*
D03*
X579120Y429260D02*
D03*
M02*
