G04 Layer_Color=8421504*
%FSLAX44Y44*%
%MOMM*%
G71*
G01*
G75*
%ADD10R,1.6002X1.2700*%
%ADD11R,1.2700X1.6002*%
%ADD12R,1.3000X1.8500*%
%ADD13R,2.1590X2.7430*%
%ADD14R,1.8500X1.3000*%
%ADD15O,1.9000X0.6000*%
%ADD16R,1.5000X4.0640*%
%ADD17O,1.5000X4.0640*%
%ADD18R,2.0000X0.6000*%
%ADD19R,1.0000X2.4000*%
%ADD20R,3.3000X2.4000*%
D10*
X475880Y410000D02*
D03*
Y430320D02*
D03*
X53340Y274320D02*
D03*
Y254000D02*
D03*
X78740Y274320D02*
D03*
Y254000D02*
D03*
X184150Y264160D02*
D03*
Y284480D02*
D03*
X475880Y280160D02*
D03*
Y259840D02*
D03*
D11*
X566040Y430000D02*
D03*
X545720D02*
D03*
X629920Y187960D02*
D03*
X650240D02*
D03*
X444840Y60000D02*
D03*
X465160D02*
D03*
X465160Y35000D02*
D03*
X444840D02*
D03*
X444840Y150000D02*
D03*
X465160D02*
D03*
X545720Y405000D02*
D03*
X566040D02*
D03*
X545880Y355000D02*
D03*
X566200D02*
D03*
X265430Y304800D02*
D03*
X245110D02*
D03*
X521200Y405000D02*
D03*
X500880D02*
D03*
X566040Y380000D02*
D03*
X545720D02*
D03*
X500720Y430000D02*
D03*
X521040D02*
D03*
X521040Y380000D02*
D03*
X500720D02*
D03*
X566200Y330000D02*
D03*
X545880D02*
D03*
X521040Y355000D02*
D03*
X500720D02*
D03*
X500720Y230000D02*
D03*
X521040D02*
D03*
X520880Y280000D02*
D03*
X500560D02*
D03*
X566040Y230000D02*
D03*
X545720D02*
D03*
X500720Y255000D02*
D03*
X521040D02*
D03*
X520880Y305000D02*
D03*
X500560D02*
D03*
X566040Y280000D02*
D03*
X545720D02*
D03*
X521040Y330000D02*
D03*
X500720D02*
D03*
X335720Y280000D02*
D03*
X356040D02*
D03*
X380720Y255000D02*
D03*
X401040D02*
D03*
X290720Y280000D02*
D03*
X311040D02*
D03*
X380720D02*
D03*
X401040D02*
D03*
X290720Y305000D02*
D03*
X311040D02*
D03*
X245560Y280000D02*
D03*
X265880D02*
D03*
X290720Y330000D02*
D03*
X311040D02*
D03*
X335720Y405000D02*
D03*
X356040D02*
D03*
X335720Y430000D02*
D03*
X356040D02*
D03*
X290720Y405000D02*
D03*
X311040D02*
D03*
X405880Y430000D02*
D03*
X426200D02*
D03*
X290880Y380000D02*
D03*
X311200D02*
D03*
X290720Y355000D02*
D03*
X311040D02*
D03*
X545720Y255000D02*
D03*
X566040D02*
D03*
X545720Y305000D02*
D03*
X566040D02*
D03*
X290720Y255000D02*
D03*
X311040D02*
D03*
X266040Y405000D02*
D03*
X245720D02*
D03*
X265880Y380000D02*
D03*
X245560D02*
D03*
X356040Y355000D02*
D03*
X335720D02*
D03*
X245560Y255000D02*
D03*
X265880D02*
D03*
D12*
X75000Y155000D02*
D03*
X46000D02*
D03*
X236380Y435000D02*
D03*
X265380D02*
D03*
X181880D02*
D03*
X210880D02*
D03*
X236960Y353060D02*
D03*
X265960D02*
D03*
X181880Y350000D02*
D03*
X210880D02*
D03*
D13*
X607900Y70000D02*
D03*
X652100D02*
D03*
X607900Y25000D02*
D03*
X652100D02*
D03*
X162100Y120000D02*
D03*
X117900D02*
D03*
X120000Y45000D02*
D03*
X164200D02*
D03*
D14*
X212090Y254740D02*
D03*
Y283740D02*
D03*
D15*
X439380Y316900D02*
D03*
Y329600D02*
D03*
Y342300D02*
D03*
Y355000D02*
D03*
Y367700D02*
D03*
Y380400D02*
D03*
Y393100D02*
D03*
X392380Y316900D02*
D03*
Y329600D02*
D03*
Y342300D02*
D03*
Y355000D02*
D03*
Y367700D02*
D03*
Y380400D02*
D03*
Y393100D02*
D03*
D16*
X240000Y127630D02*
D03*
D17*
Y40000D02*
D03*
D18*
X435000Y123100D02*
D03*
Y110400D02*
D03*
Y85000D02*
D03*
X484000Y123100D02*
D03*
Y110400D02*
D03*
Y97700D02*
D03*
Y85000D02*
D03*
D19*
X109080Y255480D02*
D03*
X132080Y255480D02*
D03*
X155080Y255480D02*
D03*
D20*
X132080Y313480D02*
D03*
M02*
