G04 Layer_Color=32896*
%FSLAX44Y44*%
%MOMM*%
G71*
G01*
G75*
%ADD16C,0.2000*%
%ADD17C,0.1270*%
D16*
X-179850Y595740D02*
Y621140D01*
X-256050D02*
X-179850D01*
X-256050Y595740D02*
Y621140D01*
Y595740D02*
X-179850D01*
D17*
X-160390Y602700D02*
Y612697D01*
X-165388D01*
X-167055Y611031D01*
Y607698D01*
X-165388Y606032D01*
X-160390D01*
X-170387Y602700D02*
X-173719D01*
X-172053D01*
Y612697D01*
X-170387Y611031D01*
X-188739Y570335D02*
X-187073Y568668D01*
Y565336D01*
X-188739Y563670D01*
X-195404D01*
X-197070Y565336D01*
Y568668D01*
X-195404Y570335D01*
X-192072D01*
Y567002D01*
X-197070Y573667D02*
X-187073D01*
X-197070Y580331D01*
X-187073D01*
Y583664D02*
X-197070D01*
Y588662D01*
X-195404Y590328D01*
X-188739D01*
X-187073Y588662D01*
Y583664D01*
X-212993Y571634D02*
Y564970D01*
X-217992D01*
X-216325Y568302D01*
Y569968D01*
X-217992Y571634D01*
X-221324D01*
X-222990Y569968D01*
Y566636D01*
X-221324Y564970D01*
X-212993Y574967D02*
X-219658D01*
X-222990Y578299D01*
X-219658Y581631D01*
X-212993D01*
X-240029Y570125D02*
X-238363Y568458D01*
Y565126D01*
X-240029Y563460D01*
X-241695D01*
X-243362Y565126D01*
Y568458D01*
X-245028Y570125D01*
X-246694D01*
X-248360Y568458D01*
Y565126D01*
X-246694Y563460D01*
X-238363Y573457D02*
Y576789D01*
Y575123D01*
X-248360D01*
Y573457D01*
Y576789D01*
X-240029Y588452D02*
X-238363Y586786D01*
Y583454D01*
X-240029Y581787D01*
X-246694D01*
X-248360Y583454D01*
Y586786D01*
X-246694Y588452D01*
X-243362D01*
Y585120D01*
M02*
