G04 Layer_Physical_Order=1*
G04 Layer_Color=255*
%FSLAX44Y44*%
%MOMM*%
G71*
G01*
G75*
%ADD10R,2.0000X3.0000*%
%ADD11C,1.0000*%
%ADD12C,2.0000*%
%ADD13C,1.5000*%
%ADD14R,1.5000X1.5000*%
%ADD15C,1.0000*%
D10*
X-192620Y488633D02*
D03*
X-218111D02*
D03*
X-243526D02*
D03*
X-268858D02*
D03*
Y582216D02*
D03*
X-243526D02*
D03*
X-218111D02*
D03*
X-192620D02*
D03*
D11*
X-192550Y576940D02*
Y608440D01*
X-268858Y510142D02*
X-268780Y510220D01*
X-192620Y488633D02*
Y509190D01*
X-192880Y509450D02*
X-192620Y509190D01*
X-269280Y560690D02*
X-268858Y561112D01*
X-243526Y582216D02*
X-243500Y582242D01*
X-268858Y488633D02*
Y510142D01*
Y561112D02*
Y582216D01*
X-192620Y576870D02*
X-192550Y576940D01*
X-193340Y560780D02*
X-192620Y561500D01*
Y576870D01*
Y582216D01*
X-243526Y488633D02*
X-243350Y488809D01*
X-268858Y582216D02*
Y600728D01*
X-269350Y601220D02*
X-268858Y600728D01*
X-243350Y488809D02*
Y608440D01*
D12*
X-217950Y582377D02*
Y608440D01*
X-218111Y582216D02*
X-217950Y582377D01*
X-218111Y488633D02*
Y582216D01*
D13*
X-243350Y608440D02*
D03*
X-217950D02*
D03*
D14*
X-192550D02*
D03*
D15*
X-268780Y510220D02*
D03*
X-192880Y509450D02*
D03*
X-269280Y560690D02*
D03*
X-193340Y560780D02*
D03*
X-269350Y601220D02*
D03*
M02*
