G04 Layer_Color=32896*
%FSLAX43Y43*%
%MOMM*%
G71*
G01*
G75*
%ADD17C,0.254*%
%ADD18C,0.200*%
%ADD46C,0.100*%
D17*
X24542Y1834D02*
X24376Y1667D01*
X24043D01*
X23876Y1834D01*
Y2500D01*
X24043Y2667D01*
X24376D01*
X24542Y2500D01*
X24876Y2667D02*
X25209D01*
X25042D01*
Y1667D01*
X24876Y1834D01*
X25709Y1667D02*
X26375D01*
Y1834D01*
X25709Y2500D01*
Y2667D01*
X25115Y8326D02*
X25281Y8493D01*
X25614D01*
X25781Y8326D01*
Y7660D01*
X25614Y7493D01*
X25281D01*
X25115Y7660D01*
X24781Y8326D02*
X24615Y8493D01*
X24281D01*
X24115Y8326D01*
Y8159D01*
X24281Y7993D01*
X24448D01*
X24281D01*
X24115Y7826D01*
Y7660D01*
X24281Y7493D01*
X24615D01*
X24781Y7660D01*
X15652Y7041D02*
X15486Y6874D01*
X15153D01*
X14986Y7041D01*
Y7707D01*
X15153Y7874D01*
X15486D01*
X15652Y7707D01*
X16652Y6874D02*
X16319Y7041D01*
X15986Y7374D01*
Y7707D01*
X16152Y7874D01*
X16486D01*
X16652Y7707D01*
Y7541D01*
X16486Y7374D01*
X15986D01*
X15652Y9327D02*
X15486Y9160D01*
X15153D01*
X14986Y9327D01*
Y9993D01*
X15153Y10160D01*
X15486D01*
X15652Y9993D01*
X15986Y9160D02*
X16652D01*
Y9327D01*
X15986Y9993D01*
Y10160D01*
X25654Y9906D02*
Y10906D01*
X25154D01*
X24988Y10739D01*
Y10406D01*
X25154Y10239D01*
X25654D01*
X25321D02*
X24988Y9906D01*
X24654Y10739D02*
X24488Y10906D01*
X24154D01*
X23988Y10739D01*
Y10572D01*
X24154Y10406D01*
X24321D01*
X24154D01*
X23988Y10239D01*
Y10073D01*
X24154Y9906D01*
X24488D01*
X24654Y10073D01*
X7335Y5151D02*
X7501Y5318D01*
X7834D01*
X8001Y5151D01*
Y4485D01*
X7834Y4318D01*
X7501D01*
X7335Y4485D01*
X7001Y5151D02*
X6835Y5318D01*
X6501D01*
X6335Y5151D01*
Y4984D01*
X6501Y4818D01*
X6335Y4651D01*
Y4485D01*
X6501Y4318D01*
X6835D01*
X7001Y4485D01*
Y4651D01*
X6835Y4818D01*
X7001Y4984D01*
Y5151D01*
X6835Y4818D02*
X6501D01*
X6889Y6787D02*
X6723Y6620D01*
X6390D01*
X6223Y6787D01*
Y7453D01*
X6390Y7620D01*
X6723D01*
X6889Y7453D01*
X7223D02*
X7389Y7620D01*
X7723D01*
X7889Y7453D01*
Y6787D01*
X7723Y6620D01*
X7389D01*
X7223Y6787D01*
Y6954D01*
X7389Y7120D01*
X7889D01*
X26416Y5588D02*
Y6588D01*
X25916D01*
X25750Y6421D01*
Y6088D01*
X25916Y5921D01*
X26416D01*
X26083D02*
X25750Y5588D01*
X25416D02*
X25083D01*
X25250D01*
Y6588D01*
X25416Y6421D01*
X24583D02*
X24417Y6588D01*
X24083D01*
X23917Y6421D01*
Y6254D01*
X24083Y6088D01*
X23917Y5921D01*
Y5755D01*
X24083Y5588D01*
X24417D01*
X24583Y5755D01*
Y5921D01*
X24417Y6088D01*
X24583Y6254D01*
Y6421D01*
X24417Y6088D02*
X24083D01*
X26289Y3810D02*
Y4810D01*
X25789D01*
X25623Y4643D01*
Y4310D01*
X25789Y4143D01*
X26289D01*
X25956D02*
X25623Y3810D01*
X25289D02*
X24956D01*
X25123D01*
Y4810D01*
X25289Y4643D01*
X24456Y3977D02*
X24290Y3810D01*
X23956D01*
X23790Y3977D01*
Y4643D01*
X23956Y4810D01*
X24290D01*
X24456Y4643D01*
Y4476D01*
X24290Y4310D01*
X23790D01*
X6889Y10978D02*
X6723Y10811D01*
X6390D01*
X6223Y10978D01*
Y11644D01*
X6390Y11811D01*
X6723D01*
X6889Y11644D01*
X7223Y11811D02*
X7556D01*
X7389D01*
Y10811D01*
X7223Y10978D01*
X8056D02*
X8222Y10811D01*
X8556D01*
X8722Y10978D01*
Y11145D01*
X8556Y11311D01*
X8389D01*
X8556D01*
X8722Y11478D01*
Y11644D01*
X8556Y11811D01*
X8222D01*
X8056Y11644D01*
X6889Y8819D02*
X6723Y8652D01*
X6390D01*
X6223Y8819D01*
Y9485D01*
X6390Y9652D01*
X6723D01*
X6889Y9485D01*
X7223Y9652D02*
X7556D01*
X7389D01*
Y8652D01*
X7223Y8819D01*
X8556Y9652D02*
Y8652D01*
X8056Y9152D01*
X8722D01*
D18*
X14446Y6366D02*
Y8366D01*
X10446Y6366D02*
Y8366D01*
X10446Y6366D02*
X14446D01*
X10446Y8366D02*
X14446D01*
X4445Y4403D02*
Y5503D01*
Y6562D02*
Y7662D01*
X10446Y10652D02*
X14446D01*
X10446Y8652D02*
X14446D01*
X10446D02*
Y10652D01*
X14446Y8652D02*
Y10652D01*
X4445Y8721D02*
Y9821D01*
Y10753D02*
Y11853D01*
X19590Y11541D02*
X23590D01*
X19590Y9541D02*
X23590D01*
Y9541D02*
Y11541D01*
X19590Y9541D02*
Y11541D01*
Y7128D02*
Y9128D01*
X23590Y7128D02*
Y9128D01*
X19590D02*
X23590D01*
X19590Y7128D02*
X23590D01*
X22225Y3768D02*
Y4868D01*
Y5546D02*
Y6646D01*
X13097Y12351D02*
Y16351D01*
X15097Y12351D02*
Y16351D01*
X13097Y12351D02*
X15097D01*
X13097Y16351D02*
X15097D01*
X10557Y12351D02*
Y16351D01*
X12557Y12351D02*
Y16351D01*
X10557Y12351D02*
X12557D01*
X10557Y16351D02*
X12557D01*
X22225Y1609D02*
Y2709D01*
X27432Y28161D02*
Y26162D01*
Y27162D01*
X26099D01*
Y28161D01*
Y26162D01*
X25433D02*
Y28161D01*
X24766Y27495D01*
X24100Y28161D01*
Y26162D01*
X23433Y27162D02*
X22100D01*
X21434Y26162D02*
X20767D01*
X21101D01*
Y28161D01*
X21434Y27828D01*
X19768Y26162D02*
X19101D01*
X19435D01*
Y28161D01*
X19768Y27828D01*
D46*
X16599Y12122D02*
X30099D01*
Y24622D02*
Y30622D01*
X16599D02*
X30099D01*
X16599Y24622D02*
Y30622D01*
M02*
