G04 Layer_Color=255*
%FSLAX43Y43*%
%MOMM*%
G71*
G01*
G75*
%ADD10O,0.600X2.300*%
%ADD11R,1.600X1.800*%
%ADD12R,1.000X1.300*%
%ADD13R,3.300X2.700*%
%ADD14R,1.000X2.700*%
%ADD15O,2.200X0.600*%
%ADD16R,1.250X1.300*%
%ADD21C,1.500*%
%ADD22O,2.000X1.500*%
%ADD23R,2.000X1.500*%
%ADD24O,2.500X1.500*%
%ADD25R,2.500X1.500*%
D10*
X6858Y13230D02*
D03*
X8128D02*
D03*
X9398D02*
D03*
X10668D02*
D03*
X11938D02*
D03*
X13208D02*
D03*
X14478D02*
D03*
X15748D02*
D03*
X17018D02*
D03*
X18288D02*
D03*
X19558D02*
D03*
X20828D02*
D03*
X22098D02*
D03*
X23368D02*
D03*
X6858Y22330D02*
D03*
X8128D02*
D03*
X9398D02*
D03*
X10668D02*
D03*
X11938D02*
D03*
X13208D02*
D03*
X14478D02*
D03*
X15748D02*
D03*
X17018D02*
D03*
X18288D02*
D03*
X19558D02*
D03*
X20828D02*
D03*
X22098D02*
D03*
X23368D02*
D03*
D11*
X7750Y27686D02*
D03*
X4950D02*
D03*
D12*
X5550Y25273D02*
D03*
X7150D02*
D03*
D13*
X3683Y2130D02*
D03*
D14*
X1383Y8030D02*
D03*
X3683D02*
D03*
X5983D02*
D03*
D15*
X18444Y5842D02*
D03*
Y4572D02*
D03*
Y3302D02*
D03*
Y2032D02*
D03*
X25244Y5842D02*
D03*
Y4572D02*
D03*
Y3302D02*
D03*
Y2032D02*
D03*
D16*
X14521Y24638D02*
D03*
X16721D02*
D03*
D21*
X35179Y29210D02*
D03*
Y26670D02*
D03*
Y11430D02*
D03*
D22*
Y24130D02*
D03*
Y21590D02*
D03*
Y19050D02*
D03*
Y16510D02*
D03*
Y13970D02*
D03*
Y8890D02*
D03*
Y6350D02*
D03*
Y3810D02*
D03*
D23*
Y1270D02*
D03*
D24*
X1524Y27559D02*
D03*
Y25019D02*
D03*
Y22479D02*
D03*
Y19939D02*
D03*
Y14859D02*
D03*
Y17399D02*
D03*
D25*
Y12319D02*
D03*
M02*
