G04 Layer_Color=8388736*
%FSLAX43Y43*%
%MOMM*%
G71*
G01*
G75*
%ADD31O,0.803X2.503*%
%ADD32R,1.803X2.003*%
%ADD33R,1.203X1.503*%
%ADD34R,3.503X2.903*%
%ADD35R,1.203X2.903*%
%ADD36O,2.403X0.803*%
%ADD37R,1.453X1.503*%
%ADD38C,1.703*%
%ADD39O,2.203X1.703*%
%ADD40R,2.203X1.703*%
%ADD41O,2.703X1.703*%
%ADD42R,2.703X1.703*%
%ADD43C,1.203*%
D31*
X6858Y13230D02*
D03*
X8128D02*
D03*
X9398D02*
D03*
X10668D02*
D03*
X11938D02*
D03*
X13208D02*
D03*
X14478D02*
D03*
X15748D02*
D03*
X17018D02*
D03*
X18288D02*
D03*
X19558D02*
D03*
X20828D02*
D03*
X22098D02*
D03*
X23368D02*
D03*
X6858Y22330D02*
D03*
X8128D02*
D03*
X9398D02*
D03*
X10668D02*
D03*
X11938D02*
D03*
X13208D02*
D03*
X14478D02*
D03*
X15748D02*
D03*
X17018D02*
D03*
X18288D02*
D03*
X19558D02*
D03*
X20828D02*
D03*
X22098D02*
D03*
X23368D02*
D03*
D32*
X7750Y27686D02*
D03*
X4950D02*
D03*
D33*
X5550Y25273D02*
D03*
X7150D02*
D03*
D34*
X3683Y2130D02*
D03*
D35*
X1383Y8030D02*
D03*
X3683D02*
D03*
X5983D02*
D03*
D36*
X18444Y5842D02*
D03*
Y4572D02*
D03*
Y3302D02*
D03*
Y2032D02*
D03*
X25244Y5842D02*
D03*
Y4572D02*
D03*
Y3302D02*
D03*
Y2032D02*
D03*
D37*
X14521Y24638D02*
D03*
X16721D02*
D03*
D38*
X35179Y29210D02*
D03*
Y26670D02*
D03*
Y11430D02*
D03*
D39*
Y24130D02*
D03*
Y21590D02*
D03*
Y19050D02*
D03*
Y16510D02*
D03*
Y13970D02*
D03*
Y8890D02*
D03*
Y6350D02*
D03*
Y3810D02*
D03*
D40*
Y1270D02*
D03*
D41*
X1524Y27559D02*
D03*
Y25019D02*
D03*
Y22479D02*
D03*
Y19939D02*
D03*
Y14859D02*
D03*
Y17399D02*
D03*
D42*
Y12319D02*
D03*
D43*
X13208Y11430D02*
D03*
X11684D02*
D03*
X4191Y14478D02*
D03*
X5080Y15875D02*
D03*
X33782Y12573D02*
D03*
X32766Y26670D02*
D03*
X6858Y20574D02*
D03*
X5080Y13208D02*
D03*
X20193Y5969D02*
D03*
Y4445D02*
D03*
X1397Y10287D02*
D03*
X2540Y4953D02*
D03*
X20193Y2032D02*
D03*
X25146Y7366D02*
D03*
X7366Y9271D02*
D03*
X6477Y4953D02*
D03*
X25019Y15621D02*
D03*
X26797D02*
D03*
X14478Y25908D02*
D03*
X26924Y3302D02*
D03*
M02*
