M48
;Layer_Color=9474304
;FILE_FORMAT=4:4
METRIC,TZ
;TYPE=PLATED
T1F00S00C0.3000
T2F00S00C0.3300
T3F00S00C0.7000
T4F00S00C0.8000
T5F00S00C0.9000
%
T01
X-467360Y-20320
X-454660
Y-7620
Y5080
X-467360
Y-7620
Y17780
X-454660
X-441960
X-429260
X-416560
X-403860
X-391160
X-378460
X-365760
X-353060
X-340360
X-327660
X-314960
X-302260
Y30480
X-314960
X-327660
X-340360
X-353060
X-365760
X-378460
X-391160
X-403860
X-416560
X-429260
X-441960
X-454660
X-467360
X-391160Y-20320
X-378460
X-365760
X-353060
X-340360
X-327660
X-314960
X-302260
X-314960Y-33020
X-306070Y-41910
X-318516Y-54356
X-318262Y-67310
X-339090Y-68580
X-278130
X-267462Y-75184
X-278384Y-45720
X-279400Y-12700
X-276860Y7620
Y17780
X-289560
Y30480
X-261620Y17780
X-251968Y-1016
X-254000Y-12700
X-227838Y-11938
X-228600Y0
X-240792Y7874
X-205740Y10160
X-196850Y0
X-212852Y-14224
X-227330Y-29210
Y-43180
X-221488Y-75184
X-212090Y-86360
X-231140
X-232410Y38100
X-218440Y78740
X-213360Y87630
X-188214Y95758
X-179070
X-156718Y81534
X-147574Y72390
X-144780Y62230
Y52070
X-133350Y57150
X-116840Y48260
X-104140
X-91440
X-74676
X-78740Y68580
X-91440
Y81280
X-104140
Y93980
X-116840
Y81280
Y68580
X-104140
X-83820Y104140
X-68580
X-71120Y91440
X-58420Y96520
Y83820
X-38100Y86360
X-27940
Y71120
X-38100
X-5080Y73660
Y86360
X7620
Y73660
X30480Y71120
Y81280
X45720
Y71120
X60960
Y81280
X76200
Y71120
X93980
Y81280
Y104140
X76200
X60960
X45720
X1270Y106172
X-18288Y96266
X-30480Y105918
X-50038Y29972
X-50800Y0
X-38100
X-25400
X-12700
X0
Y15240
X-18288Y17780
X22860Y15240
Y0
X45720
Y15240
X71120
Y0
X-63500
X-76200
X-88900
X-101600
X-146050Y14732
X-157480Y18288
X-266700Y60960
Y76200
Y91440
Y106680
X109220Y81280
Y71120
X134620
Y81280
X133096Y99314
X144780Y99060
X157480Y91440
X175514Y95250
X190500Y93980
X208280
Y73660
X190500
X172720
X149860
X147320Y25400
X162052Y23114
X137160Y15240
X129540Y25400
X117602Y24384
X99060Y15240
Y0
X180340
X190500Y10160
X200660Y17780
Y0
X203200Y-17780
X213360Y-10160
X233680Y-12700
Y0
X228600Y12700
X215900Y25400
X224536Y38100
X215646Y47498
X206248Y53340
X225806Y60960
X248920
Y43180
X276860
Y59690
X304800Y53340
Y40640
Y25400
Y12700
Y0
Y-50800
X292100
Y-63500
Y-76200
X304800
X317500
Y-63500
Y-50800
X304800Y-63500
X277114Y-57404
X266700Y-50800
Y-38100
Y-25400
X233680
X254000Y-63500
X279400Y-76200
X330200
X355600
X368300
X381000
Y-50800
Y-25400
X373380Y66040
X355600
Y83820
X373380
X391160
Y66040
X393700Y101600
X331470Y74930
Y63500
X318770Y67310
X304800
Y101600
Y114300
X279400
Y101600
X239522Y113284
X220980Y101600
X276860Y25400
X292100Y-38100
X190500Y-63500
X177800
X165100
X152400
X132588Y123444
X230124Y134366
X254000Y127000
X266700
X279400
X304800
X330200
X355600
X381000
X393700
X93980Y132080
Y119380
X76200
Y132080
X60960
Y119380
X45720
X38100Y132080
X20828Y129540
X1524Y121666
X-33274Y124460
X-68834Y123190
X-86360Y121920
X-99060
X-180848Y121412
X-195580Y121920
X-255524Y133604
X-266700Y132842
Y119380
T02
X-204690Y32038
Y44038
Y56038
Y68038
X-192690
Y56038
X-180690
Y68038
X-168690
Y56038
Y44038
X-180690
X-192690
Y32038
X-180690
X-168690
T03
X-192690Y44038
X-180690
Y56038
X-192690
T04
X160800Y-39980
X175800
X190800
X205800
X220800
X235800
T05
X-457708Y-62230
X-432308
X-406908
Y-36830
X-432308
X-457708
X342392
X367792
X393192
Y-62230
X367792
X342392
M30
