G04 Layer_Color=16711935*
%FSLAX44Y44*%
%MOMM*%
G71*
G01*
G75*
%ADD48R,0.9532X1.0032*%
%ADD49R,1.0032X0.9532*%
%ADD50R,1.2032X1.1532*%
%ADD51R,1.8034X1.4732*%
%ADD58R,1.2032X2.2032*%
%ADD59O,1.2032X2.2032*%
%ADD60C,1.7032*%
%ADD61R,1.7032X1.7032*%
%ADD62C,1.2032*%
%ADD63O,0.8532X0.4032*%
%ADD64O,0.4032X0.8532*%
%ADD65R,4.9032X4.9032*%
%ADD66R,1.5032X1.5032*%
%ADD67R,1.2032X1.2032*%
%ADD68R,1.4032X1.0532*%
%ADD69R,1.2032X1.0160*%
D48*
X-268370Y66040D02*
D03*
X-254870D02*
D03*
X-268370Y83820D02*
D03*
X-254870D02*
D03*
X-268370Y101600D02*
D03*
X-254870D02*
D03*
X-168364Y110490D02*
D03*
X-181864D02*
D03*
D49*
X-271780Y16110D02*
D03*
Y29610D02*
D03*
X-251460D02*
D03*
Y16110D02*
D03*
X-198120Y97390D02*
D03*
Y110890D02*
D03*
D50*
X-253620Y48260D02*
D03*
X-269620D02*
D03*
X-136398Y93218D02*
D03*
X-152398D02*
D03*
Y110490D02*
D03*
X-136398D02*
D03*
X196724Y132080D02*
D03*
X212724D02*
D03*
X10032Y131572D02*
D03*
X-5968D02*
D03*
D51*
X-215138Y-55880D02*
D03*
Y-35560D02*
D03*
X-240030Y-35560D02*
D03*
Y-55880D02*
D03*
X-265176Y-55880D02*
D03*
Y-35560D02*
D03*
X-431800Y10160D02*
D03*
Y-10160D02*
D03*
X-404622Y9906D02*
D03*
Y-10414D02*
D03*
X-340360Y-35560D02*
D03*
Y-55880D02*
D03*
X-291338Y-56134D02*
D03*
Y-35814D02*
D03*
D58*
X160800Y-39980D02*
D03*
D59*
X175800D02*
D03*
X190800D02*
D03*
X205800D02*
D03*
X220800D02*
D03*
X235800D02*
D03*
D60*
X-406908Y-36830D02*
D03*
Y-62230D02*
D03*
X-432308Y-36830D02*
D03*
Y-62230D02*
D03*
X-457708Y-36830D02*
D03*
X393192D02*
D03*
Y-62230D02*
D03*
X367792Y-36830D02*
D03*
Y-62230D02*
D03*
X342392Y-36830D02*
D03*
D61*
X-457708Y-62230D02*
D03*
X342392D02*
D03*
D62*
X-296926Y49784D02*
D03*
D63*
X-156440Y72038D02*
D03*
Y68038D02*
D03*
Y64038D02*
D03*
Y60038D02*
D03*
Y56038D02*
D03*
Y52038D02*
D03*
Y48038D02*
D03*
Y44038D02*
D03*
Y40038D02*
D03*
Y36038D02*
D03*
Y32038D02*
D03*
Y28038D02*
D03*
X-216940D02*
D03*
Y32038D02*
D03*
Y36038D02*
D03*
Y40038D02*
D03*
Y44038D02*
D03*
Y48038D02*
D03*
Y52038D02*
D03*
Y56038D02*
D03*
Y60038D02*
D03*
Y64038D02*
D03*
Y68038D02*
D03*
Y72038D02*
D03*
D64*
X-164690Y19788D02*
D03*
X-168690D02*
D03*
X-172690D02*
D03*
X-176690D02*
D03*
X-180690D02*
D03*
X-184690D02*
D03*
X-188690D02*
D03*
X-192690D02*
D03*
X-196690D02*
D03*
X-200690D02*
D03*
X-204690D02*
D03*
X-208690D02*
D03*
Y80288D02*
D03*
X-204690D02*
D03*
X-200690D02*
D03*
X-196690D02*
D03*
X-192690D02*
D03*
X-188690D02*
D03*
X-184690D02*
D03*
X-180690D02*
D03*
X-176690D02*
D03*
X-172690D02*
D03*
X-168690D02*
D03*
X-164690D02*
D03*
D65*
X-186690Y50038D02*
D03*
D66*
X-236220Y95250D02*
D03*
X-216520D02*
D03*
Y118250D02*
D03*
D67*
X-236220D02*
D03*
D68*
X-388620Y-55880D02*
D03*
X-363674Y-65278D02*
D03*
X-363620Y-46380D02*
D03*
D69*
X-23164Y135140D02*
D03*
X-41164D02*
D03*
X-241130Y135284D02*
D03*
X-223130D02*
D03*
X176920D02*
D03*
X158920D02*
D03*
M02*
