G04 Layer_Color=8421504*
%FSLAX44Y44*%
%MOMM*%
G71*
G01*
G75*
%ADD10R,0.7500X0.8000*%
%ADD11R,0.8000X0.7500*%
%ADD12R,1.0000X0.9500*%
%ADD13R,1.6002X1.2700*%
%ADD14R,1.8500X1.3000*%
%ADD15R,3.3000X2.4000*%
%ADD16R,1.0000X2.4000*%
%ADD17R,1.2700X1.6002*%
%ADD18R,1.4500X0.8000*%
%ADD19R,0.9000X1.5000*%
D10*
X-182010Y78740D02*
D03*
X-168510D02*
D03*
D11*
X-157480Y50400D02*
D03*
Y63900D02*
D03*
X-157734Y37846D02*
D03*
Y24346D02*
D03*
X-216916Y49746D02*
D03*
Y63246D02*
D03*
D12*
X213742Y113284D02*
D03*
X229742D02*
D03*
X14226Y114300D02*
D03*
X30226D02*
D03*
D13*
X264160Y58420D02*
D03*
Y78740D02*
D03*
X289560Y58420D02*
D03*
Y78740D02*
D03*
X-145542Y129286D02*
D03*
Y108966D02*
D03*
X122174Y78994D02*
D03*
Y58674D02*
D03*
D14*
X394208Y42716D02*
D03*
Y13716D02*
D03*
D15*
X342900Y102660D02*
D03*
D16*
X365900Y44660D02*
D03*
X342900Y44660D02*
D03*
X319900Y44660D02*
D03*
D17*
X337820Y12700D02*
D03*
X358140D02*
D03*
D18*
X200914Y133860D02*
D03*
X133452D02*
D03*
X-66700D02*
D03*
X762D02*
D03*
X-199390Y133858D02*
D03*
X-266852D02*
D03*
D19*
X188239Y115064D02*
D03*
X146228D02*
D03*
X-53924D02*
D03*
X-11913D02*
D03*
X-212065Y115062D02*
D03*
X-254076D02*
D03*
M02*
