G04 Layer_Physical_Order=2*
G04 Layer_Color=16711680*
%FSLAX44Y44*%
%MOMM*%
G71*
G01*
G75*
%ADD10R,0.7500X0.8000*%
%ADD11R,0.8000X0.7500*%
%ADD12R,1.0000X0.9500*%
%ADD13R,1.6002X1.2700*%
%ADD20C,0.2000*%
%ADD21C,0.5000*%
%ADD22C,1.0000*%
%ADD23R,1.0000X2.0000*%
%ADD24O,1.0000X2.0000*%
%ADD25C,1.5000*%
%ADD26R,1.5000X1.5000*%
%ADD27C,0.6000*%
%ADD28C,0.6600*%
%ADD29C,1.0000*%
%ADD30O,0.6500X0.2000*%
%ADD31O,0.2000X0.6500*%
%ADD32R,4.7000X4.7000*%
%ADD33R,1.3000X1.3000*%
%ADD34R,1.0000X1.0000*%
%ADD35R,1.2000X0.8500*%
%ADD36R,1.0000X0.8128*%
%ADD37C,0.3000*%
%ADD38C,0.8000*%
%ADD39C,1.0000*%
%ADD40C,1.2700*%
%ADD41R,0.7620X1.2700*%
G36*
X-261620Y40510D02*
X-257068D01*
Y36360D01*
X-258460D01*
Y22860D01*
X-244460D01*
Y36360D01*
X-245852D01*
Y40510D01*
X-245620D01*
Y41200D01*
X-226060D01*
X-224233Y41440D01*
X-222691Y42079D01*
X-222664Y42038D01*
X-222958Y41599D01*
X-223268Y40038D01*
X-222958Y38477D01*
X-222664Y38038D01*
X-222958Y37599D01*
X-223253Y36116D01*
X-226280D01*
X-226280Y36116D01*
X-227841Y35806D01*
X-229164Y34922D01*
X-233770Y30316D01*
X-234654Y28993D01*
X-234705Y28734D01*
X-234964Y27432D01*
X-234964Y27432D01*
Y15240D01*
X-234964Y15240D01*
X-234705Y13938D01*
X-234654Y13679D01*
X-233770Y12356D01*
X-213232Y-8182D01*
X-215193Y-8572D01*
X-217178Y-9898D01*
X-218504Y-11883D01*
X-218969Y-14224D01*
X-218911Y-14516D01*
X-219621Y-15226D01*
X-278384D01*
X-278384Y-15226D01*
X-279686Y-15485D01*
X-279945Y-15536D01*
X-281268Y-16420D01*
X-291312Y-26464D01*
X-302339D01*
Y-45164D01*
X-280337D01*
Y-27025D01*
X-276695Y-23382D01*
X-217932D01*
X-217932Y-23382D01*
X-216630Y-23123D01*
X-216371Y-23072D01*
X-215048Y-22188D01*
X-213144Y-20284D01*
X-212852Y-20341D01*
X-210511Y-19876D01*
X-208526Y-18550D01*
X-207200Y-16565D01*
X-206810Y-14604D01*
X-206722Y-14692D01*
X-206722Y-14692D01*
X-205399Y-15576D01*
X-205140Y-15627D01*
X-203838Y-15886D01*
X-203838Y-15886D01*
X-198061D01*
X-200561Y-18387D01*
X-201777Y-20206D01*
X-202204Y-22352D01*
Y-64733D01*
X-207047Y-69576D01*
X-219081D01*
X-219147Y-69532D01*
X-221488Y-69067D01*
X-223829Y-69532D01*
X-225814Y-70858D01*
X-227140Y-72843D01*
X-227605Y-75184D01*
X-227140Y-77525D01*
X-225814Y-79510D01*
X-223829Y-80836D01*
X-221488Y-81301D01*
X-219147Y-80836D01*
X-219081Y-80792D01*
X-204724D01*
X-202578Y-80365D01*
X-200759Y-79149D01*
X-192857Y-71248D01*
Y-74014D01*
X-192827Y-74166D01*
X-193134Y-77275D01*
X-194095Y-80444D01*
X-195656Y-83364D01*
X-197756Y-85924D01*
X-200316Y-88024D01*
X-203236Y-89585D01*
X-206405Y-90546D01*
X-209652Y-90866D01*
X-209700Y-90857D01*
X-245751D01*
X-245717Y-90833D01*
X-236065Y-81181D01*
X-234849Y-79362D01*
X-234422Y-77216D01*
Y-65230D01*
X-229029D01*
Y-61488D01*
X-226139D01*
Y-65230D01*
X-204137D01*
Y-46530D01*
X-226139D01*
Y-50272D01*
X-229029D01*
Y-46530D01*
X-246275D01*
X-247915Y-44891D01*
X-248710Y-43701D01*
X-254175Y-38235D01*
Y-26210D01*
X-276177D01*
Y-44910D01*
X-263362D01*
X-261742Y-46530D01*
X-276177D01*
Y-65230D01*
X-270784D01*
Y-70187D01*
X-271788Y-70858D01*
X-272580Y-72044D01*
X-354674D01*
Y-69866D01*
X-349758D01*
X-348002Y-69517D01*
X-346514Y-68522D01*
X-343221Y-65230D01*
X-329359D01*
Y-46530D01*
X-344841D01*
X-343221Y-44910D01*
X-329359D01*
Y-40148D01*
X-327020D01*
X-308044Y-59124D01*
X-306556Y-60119D01*
X-304800Y-60468D01*
X-302339D01*
Y-65484D01*
X-280337D01*
Y-46784D01*
X-302339D01*
Y-51292D01*
X-302899D01*
X-321876Y-32316D01*
X-323364Y-31321D01*
X-325120Y-30972D01*
X-329359D01*
Y-26210D01*
X-351361D01*
Y-40072D01*
X-353080Y-41792D01*
X-354620D01*
Y-39130D01*
X-372620D01*
Y-47612D01*
X-377756Y-42476D01*
X-379244Y-41481D01*
X-381000Y-41132D01*
X-396240D01*
X-397422Y-41367D01*
X-396678Y-39571D01*
X-396317Y-36830D01*
X-396678Y-34089D01*
X-397736Y-31535D01*
X-399419Y-29341D01*
X-401613Y-27658D01*
X-403084Y-27049D01*
Y-19764D01*
X-393621D01*
Y-9412D01*
X-263329D01*
X-263329Y-9412D01*
X-262027Y-9153D01*
X-261768Y-9102D01*
X-260445Y-8218D01*
X-257322Y-5094D01*
X-256459D01*
X-256294Y-5342D01*
X-254309Y-6668D01*
X-251968Y-7133D01*
X-249627Y-6668D01*
X-247642Y-5342D01*
X-246316Y-3357D01*
X-245851Y-1016D01*
X-246316Y1325D01*
X-246439Y1510D01*
X-243078D01*
X-243078Y1510D01*
X-241776Y1769D01*
X-241517Y1820D01*
X-241424Y1882D01*
X-240792Y1757D01*
X-238451Y2222D01*
X-236466Y3548D01*
X-235140Y5533D01*
X-234674Y7874D01*
X-235140Y10215D01*
X-236466Y12200D01*
X-238451Y13526D01*
X-240792Y13992D01*
X-243133Y13526D01*
X-245118Y12200D01*
X-246444Y10215D01*
X-246553Y9666D01*
X-258064D01*
X-259625Y9356D01*
X-260948Y8472D01*
X-260948Y8472D01*
X-266103Y3316D01*
X-425450D01*
X-427011Y3006D01*
X-428334Y2122D01*
X-428334Y2122D01*
X-431266Y-810D01*
X-442801D01*
Y-19510D01*
X-435878D01*
Y-26944D01*
X-437603Y-27658D01*
X-439797Y-29341D01*
X-441480Y-31535D01*
X-442538Y-34089D01*
X-442899Y-36830D01*
X-442538Y-39571D01*
X-441480Y-42125D01*
X-439797Y-44319D01*
X-438653Y-45196D01*
X-442854D01*
X-447771Y-40278D01*
X-447478Y-39571D01*
X-447117Y-36830D01*
X-447478Y-34089D01*
X-448536Y-31535D01*
X-450219Y-29341D01*
X-452413Y-27658D01*
X-454967Y-26600D01*
X-457708Y-26239D01*
X-460449Y-26600D01*
X-463003Y-27658D01*
X-465197Y-29341D01*
X-466880Y-31535D01*
X-467938Y-34089D01*
X-468299Y-36830D01*
X-467938Y-39571D01*
X-466880Y-42125D01*
X-465197Y-44319D01*
X-463003Y-46002D01*
X-460449Y-47060D01*
X-457708Y-47421D01*
X-454967Y-47060D01*
X-454260Y-46767D01*
X-449297Y-51730D01*
X-468208D01*
Y-72730D01*
X-463316D01*
Y-80010D01*
X-462889Y-82156D01*
X-461673Y-83975D01*
X-454815Y-90833D01*
X-454781Y-90857D01*
X-457200D01*
X-457248Y-90866D01*
X-460495Y-90546D01*
X-463664Y-89585D01*
X-466584Y-88024D01*
X-469144Y-85924D01*
X-471244Y-83364D01*
X-472805Y-80444D01*
X-473766Y-77275D01*
X-474086Y-74028D01*
X-474076Y-73980D01*
X-474076D01*
X-474076Y-73980D01*
Y36205D01*
X-279849D01*
Y29610D01*
X-279574Y27522D01*
X-278780Y25605D01*
Y22860D01*
X-276125D01*
X-275814Y22622D01*
X-273868Y21816D01*
X-271780Y21541D01*
X-269692Y21816D01*
X-267745Y22622D01*
X-267435Y22860D01*
X-264780D01*
Y25605D01*
X-263986Y27522D01*
X-263711Y29610D01*
Y40510D01*
X-261620D01*
Y43327D01*
X-261620Y43327D01*
Y40510D01*
D02*
G37*
G36*
X-176458Y76477D02*
X-175574Y75154D01*
X-174251Y74270D01*
X-172690Y73960D01*
X-171129Y74270D01*
X-170690Y74564D01*
X-170251Y74270D01*
X-168690Y73960D01*
X-167129Y74270D01*
X-166690Y74564D01*
X-166251Y74270D01*
X-164690Y73960D01*
X-163129Y74270D01*
X-161806Y75154D01*
X-161101Y76210D01*
X-159549D01*
X-159245Y76006D01*
X-160251Y75806D01*
X-161574Y74922D01*
X-162458Y73599D01*
X-162768Y72038D01*
X-162458Y70477D01*
X-162164Y70038D01*
X-162458Y69599D01*
X-162768Y68038D01*
X-162458Y66477D01*
X-162164Y66038D01*
X-162458Y65599D01*
X-162768Y64038D01*
X-162458Y62477D01*
X-162164Y62038D01*
X-162458Y61599D01*
X-162768Y60038D01*
X-162458Y58477D01*
X-162164Y58038D01*
X-162458Y57599D01*
X-162768Y56038D01*
X-162458Y54477D01*
X-162164Y54038D01*
X-162458Y53599D01*
X-162768Y52038D01*
X-162458Y50477D01*
X-162164Y50038D01*
X-162458Y49599D01*
X-162768Y48038D01*
X-162458Y46477D01*
X-162164Y46038D01*
X-162458Y45599D01*
X-162768Y44038D01*
X-162458Y42477D01*
X-162164Y42038D01*
X-162458Y41599D01*
X-162768Y40038D01*
X-162458Y38477D01*
X-162164Y38038D01*
X-162458Y37599D01*
X-162768Y36038D01*
X-162458Y34477D01*
X-162164Y34038D01*
X-162458Y33599D01*
X-162768Y32038D01*
X-162458Y30477D01*
X-162164Y30038D01*
X-162458Y29599D01*
X-162768Y28038D01*
X-162458Y26477D01*
X-161574Y25154D01*
X-160251Y24270D01*
X-159206Y24062D01*
X-159821Y23940D01*
X-160853Y23251D01*
X-160922Y23599D01*
X-161806Y24922D01*
X-163129Y25806D01*
X-164690Y26116D01*
X-166251Y25806D01*
X-166690Y25512D01*
X-167129Y25806D01*
X-168690Y26116D01*
X-170251Y25806D01*
X-170690Y25512D01*
X-171129Y25806D01*
X-172690Y26116D01*
X-174251Y25806D01*
X-174690Y25512D01*
X-175129Y25806D01*
X-176690Y26116D01*
X-178251Y25806D01*
X-178690Y25512D01*
X-179129Y25806D01*
X-180690Y26116D01*
X-182251Y25806D01*
X-182690Y25512D01*
X-183129Y25806D01*
X-184690Y26116D01*
X-186251Y25806D01*
X-186690Y25512D01*
X-187129Y25806D01*
X-188690Y26116D01*
X-190251Y25806D01*
X-190690Y25512D01*
X-191129Y25806D01*
X-192690Y26116D01*
X-194251Y25806D01*
X-194690Y25512D01*
X-195129Y25806D01*
X-196690Y26116D01*
X-198251Y25806D01*
X-198690Y25512D01*
X-199129Y25806D01*
X-200690Y26116D01*
X-202251Y25806D01*
X-202690Y25512D01*
X-203129Y25806D01*
X-204690Y26116D01*
X-206251Y25806D01*
X-206690Y25512D01*
X-207129Y25806D01*
X-208690Y26116D01*
X-210251Y25806D01*
X-211574Y24922D01*
X-212458Y23599D01*
X-212768Y22038D01*
Y17538D01*
X-212458Y15977D01*
X-211574Y14654D01*
X-210251Y13770D01*
X-208690Y13460D01*
X-207129Y13770D01*
X-206690Y14064D01*
X-206251Y13770D01*
X-204690Y13460D01*
X-203129Y13770D01*
X-202690Y14064D01*
X-202251Y13770D01*
X-200768Y13475D01*
Y10254D01*
X-200768Y10254D01*
X-200509Y8952D01*
X-200458Y8693D01*
X-199574Y7370D01*
X-188519Y-3685D01*
X-191812D01*
X-191951Y-3712D01*
X-198546D01*
X-221220Y18961D01*
Y23069D01*
X-220329Y23960D01*
X-214690D01*
X-213129Y24270D01*
X-211806Y25154D01*
X-210922Y26477D01*
X-210612Y28038D01*
X-210922Y29599D01*
X-211216Y30038D01*
X-210922Y30477D01*
X-210612Y32038D01*
X-210922Y33599D01*
X-211216Y34038D01*
X-210922Y34477D01*
X-210612Y36038D01*
X-210922Y37599D01*
X-211216Y38038D01*
X-210922Y38477D01*
X-210612Y40038D01*
X-210922Y41599D01*
X-211216Y42038D01*
X-210922Y42477D01*
X-210612Y44038D01*
X-210922Y45599D01*
X-211216Y46038D01*
X-210922Y46477D01*
X-210612Y48038D01*
X-210922Y49599D01*
X-211806Y50922D01*
X-213129Y51806D01*
X-214296Y52038D01*
X-213129Y52270D01*
X-211806Y53154D01*
X-210922Y54477D01*
X-210612Y56038D01*
X-210922Y57599D01*
X-211216Y58038D01*
X-210922Y58477D01*
X-210612Y60038D01*
X-210922Y61599D01*
X-211216Y62038D01*
X-210922Y62477D01*
X-210612Y64038D01*
X-210922Y65599D01*
X-211216Y66038D01*
X-210922Y66477D01*
X-210612Y68038D01*
X-210922Y69599D01*
X-211216Y70038D01*
X-210922Y70477D01*
X-210612Y72038D01*
X-210922Y73599D01*
X-211806Y74922D01*
X-213129Y75806D01*
X-213178Y75816D01*
X-212788Y76399D01*
X-212615Y77268D01*
X-212458Y76477D01*
X-211574Y75154D01*
X-210251Y74270D01*
X-208690Y73960D01*
X-207129Y74270D01*
X-206690Y74564D01*
X-206251Y74270D01*
X-204690Y73960D01*
X-203129Y74270D01*
X-202690Y74564D01*
X-202251Y74270D01*
X-200690Y73960D01*
X-199129Y74270D01*
X-198690Y74564D01*
X-198251Y74270D01*
X-196690Y73960D01*
X-195129Y74270D01*
X-194690Y74564D01*
X-194251Y74270D01*
X-192690Y73960D01*
X-191129Y74270D01*
X-190690Y74564D01*
X-190251Y74270D01*
X-188690Y73960D01*
X-187129Y74270D01*
X-186690Y74564D01*
X-186251Y74270D01*
X-184690Y73960D01*
X-183129Y74270D01*
X-182690Y74564D01*
X-182251Y74270D01*
X-180690Y73960D01*
X-179129Y74270D01*
X-177806Y75154D01*
X-176922Y76477D01*
X-176690Y77644D01*
X-176458Y76477D01*
D02*
G37*
G36*
X243064Y2375D02*
Y-51397D01*
X234531Y-59930D01*
X212763D01*
X209878Y-57045D01*
Y-51934D01*
X211506Y-50686D01*
X212788Y-49015D01*
X213300Y-47778D01*
X213812Y-49015D01*
X215094Y-50686D01*
X216765Y-51968D01*
X218712Y-52774D01*
X220800Y-53049D01*
X222888Y-52774D01*
X224834Y-51968D01*
X226506Y-50686D01*
X227788Y-49015D01*
X228594Y-47068D01*
X228869Y-44980D01*
Y-34980D01*
X228594Y-32892D01*
X227788Y-30945D01*
X226506Y-29274D01*
X224878Y-28026D01*
Y9070D01*
X224878Y9070D01*
X224619Y10372D01*
X224568Y10631D01*
X223684Y11954D01*
X223684Y11954D01*
X199076Y36562D01*
X208877D01*
X243064Y2375D01*
D02*
G37*
G36*
X216722Y7381D02*
Y-28026D01*
X215094Y-29274D01*
X213812Y-30945D01*
X213300Y-32182D01*
X212788Y-30945D01*
X211506Y-29274D01*
X209834Y-27992D01*
X207888Y-27186D01*
X205800Y-26911D01*
X203712Y-27186D01*
X201765Y-27992D01*
X200094Y-29274D01*
X198812Y-30945D01*
X198300Y-32182D01*
X197788Y-30945D01*
X196506Y-29274D01*
X194878Y-28026D01*
Y-18334D01*
X194568Y-16773D01*
X193684Y-15450D01*
X193684Y-15450D01*
X183113Y-4879D01*
X181790Y-3995D01*
X181531Y-3944D01*
X180229Y-3685D01*
X180229Y-3685D01*
X114849D01*
X114623Y-3730D01*
X-116072D01*
X-108547Y3796D01*
X146812D01*
X146812Y3796D01*
X148114Y4055D01*
X148373Y4106D01*
X149696Y4990D01*
X161760Y17055D01*
X162052Y16997D01*
X164393Y17462D01*
X166378Y18788D01*
X167704Y20773D01*
X168169Y23114D01*
X167704Y25455D01*
X166378Y27440D01*
X164393Y28766D01*
X162052Y29232D01*
X159711Y28766D01*
X157726Y27440D01*
X156400Y25455D01*
X155934Y23114D01*
X155992Y22822D01*
X145123Y11952D01*
X-16831D01*
X-15947Y12128D01*
X-13962Y13454D01*
X-12636Y15439D01*
X-12170Y17780D01*
X-12591Y19894D01*
X113523D01*
X115261Y18732D01*
X117602Y18267D01*
X119943Y18732D01*
X121928Y20058D01*
X123254Y22043D01*
X123720Y24384D01*
X123254Y26725D01*
X121928Y28710D01*
X119943Y30036D01*
X117602Y30501D01*
X115261Y30036D01*
X113276Y28710D01*
X112836Y28050D01*
X-44303D01*
X-43920Y29972D01*
X-44316Y31960D01*
X192143D01*
X216722Y7381D01*
D02*
G37*
G36*
X396096Y137586D02*
X399264Y136625D01*
X402184Y135064D01*
X404744Y132964D01*
X406845Y130404D01*
X408406Y127484D01*
X409367Y124315D01*
X409687Y121068D01*
X409677Y121020D01*
Y-73980D01*
X409687Y-74028D01*
X409367Y-77275D01*
X408406Y-80444D01*
X406845Y-83364D01*
X404744Y-85924D01*
X402184Y-88024D01*
X399264Y-89585D01*
X396096Y-90546D01*
X392849Y-90866D01*
X392800Y-90857D01*
X145300D01*
X145252Y-90866D01*
X142005Y-90546D01*
X138836Y-89585D01*
X135916Y-88024D01*
X133357Y-85924D01*
X131256Y-83364D01*
X129695Y-80444D01*
X128734Y-77275D01*
X128414Y-74028D01*
X128424Y-73980D01*
Y-31980D01*
X128390Y-31808D01*
Y-27014D01*
X128399D01*
X128375Y-26832D01*
X132314Y-30771D01*
Y-69850D01*
X132741Y-71996D01*
X133957Y-73815D01*
X143609Y-83467D01*
X145428Y-84683D01*
X147574Y-85110D01*
X255016D01*
X257162Y-84683D01*
X258981Y-83467D01*
X279377Y-63071D01*
X279455Y-63056D01*
X281440Y-61730D01*
X282766Y-59745D01*
X283232Y-57404D01*
X282766Y-55063D01*
X281440Y-53078D01*
X279455Y-51752D01*
X277114Y-51287D01*
X274773Y-51752D01*
X272788Y-53078D01*
X271462Y-55063D01*
X271447Y-55141D01*
X252693Y-73894D01*
X149897D01*
X143530Y-67527D01*
Y-28448D01*
X143103Y-26302D01*
X141887Y-24483D01*
X133246Y-15841D01*
X164252D01*
X171722Y-23311D01*
Y-28026D01*
X170094Y-29274D01*
X168812Y-30945D01*
X168800Y-30975D01*
Y-26980D01*
X152800D01*
Y-52980D01*
X168800D01*
Y-48986D01*
X168812Y-49015D01*
X170094Y-50686D01*
X171765Y-51968D01*
X173712Y-52774D01*
X175800Y-53049D01*
X177888Y-52774D01*
X179834Y-51968D01*
X181506Y-50686D01*
X182788Y-49015D01*
X183300Y-47778D01*
X183812Y-49015D01*
X185094Y-50686D01*
X186765Y-51968D01*
X188712Y-52774D01*
X190800Y-53049D01*
X192888Y-52774D01*
X194834Y-51968D01*
X196506Y-50686D01*
X197788Y-49015D01*
X198300Y-47778D01*
X198812Y-49015D01*
X200094Y-50686D01*
X201722Y-51934D01*
Y-58734D01*
X201722Y-58734D01*
X201981Y-60036D01*
X202032Y-60295D01*
X202916Y-61618D01*
X208190Y-66892D01*
X208190Y-66892D01*
X209513Y-67776D01*
X211074Y-68086D01*
X236220D01*
X236220Y-68086D01*
X237522Y-67827D01*
X237781Y-67776D01*
X239104Y-66892D01*
X250026Y-55970D01*
X250026Y-55970D01*
X250910Y-54647D01*
X250961Y-54388D01*
X251220Y-53086D01*
X251220Y-53086D01*
Y4064D01*
X251220Y4064D01*
X250910Y5625D01*
X250617Y6064D01*
X250026Y6948D01*
X250026Y6948D01*
X213450Y43524D01*
X212127Y44408D01*
X211868Y44459D01*
X210566Y44718D01*
X210566Y44718D01*
X-147446D01*
X-149649Y46922D01*
X-150253Y47326D01*
X-150112Y48038D01*
X-150422Y49599D01*
X-150716Y50038D01*
X-150422Y50477D01*
X-150112Y52038D01*
X-150422Y53599D01*
X-150716Y54038D01*
X-150422Y54477D01*
X-150112Y56038D01*
X-150422Y57599D01*
X-150716Y58038D01*
X-150422Y58477D01*
X-150112Y60038D01*
X-150422Y61599D01*
X-150716Y62038D01*
X-150422Y62477D01*
X-150112Y64038D01*
X-150422Y65599D01*
X-150716Y66038D01*
X-150422Y66477D01*
X-150317Y67007D01*
X-149915Y66738D01*
X-147574Y66273D01*
X-145233Y66738D01*
X-143248Y68064D01*
X-141922Y70049D01*
X-141456Y72390D01*
X-141922Y74731D01*
X-143248Y76716D01*
X-145233Y78042D01*
X-147574Y78507D01*
X-149915Y78042D01*
X-151900Y76716D01*
X-152300Y76116D01*
X-154026D01*
X-152392Y77208D01*
X-151066Y79193D01*
X-150601Y81534D01*
X-151066Y83875D01*
X-152130Y85468D01*
X-144398D01*
Y100968D01*
X-160398D01*
Y97272D01*
X-161576Y97037D01*
X-161835Y96986D01*
X-163158Y96102D01*
X-163158Y96102D01*
X-164286Y94974D01*
Y103490D01*
X-161614D01*
Y106412D01*
X-160398D01*
Y102740D01*
X-144398D01*
Y115302D01*
X-144398D01*
Y102740D01*
X-140476D01*
Y100968D01*
X-144398D01*
Y85468D01*
X-128398D01*
Y100968D01*
X-132320D01*
Y102740D01*
X-128398D01*
Y115302D01*
X-118783D01*
X-66239Y62758D01*
X-130943D01*
X-131009Y62802D01*
X-133350Y63267D01*
X-135691Y62802D01*
X-137676Y61476D01*
X-139002Y59491D01*
X-139467Y57150D01*
X-139002Y54809D01*
X-137676Y52824D01*
X-135691Y51498D01*
X-133350Y51033D01*
X-131009Y51498D01*
X-130943Y51542D01*
X-66585D01*
X-64417Y49375D01*
X-62598Y48159D01*
X-60452Y47732D01*
X203841D01*
X203907Y47688D01*
X206248Y47222D01*
X208589Y47688D01*
X210574Y49014D01*
X211900Y50999D01*
X212365Y53340D01*
X211900Y55681D01*
X210574Y57666D01*
X209086Y58660D01*
X211417D01*
X309790Y-39714D01*
X309790Y-39714D01*
X311113Y-40598D01*
X312674Y-40908D01*
X332716D01*
X333220Y-42125D01*
X334903Y-44319D01*
X337097Y-46002D01*
X339651Y-47060D01*
X342392Y-47421D01*
X345133Y-47060D01*
X347687Y-46002D01*
X349881Y-44319D01*
X351564Y-42125D01*
X352622Y-39571D01*
X352983Y-36830D01*
X352622Y-34089D01*
X351564Y-31535D01*
X349881Y-29341D01*
X347687Y-27658D01*
X345133Y-26600D01*
X342392Y-26239D01*
X339651Y-26600D01*
X337097Y-27658D01*
X334903Y-29341D01*
X333220Y-31535D01*
X332716Y-32752D01*
X314363D01*
X215990Y65622D01*
X214667Y66506D01*
X214408Y66557D01*
X213106Y66816D01*
X213106Y66816D01*
X-58763D01*
X-100644Y108698D01*
X-45242D01*
Y101108D01*
X-45242Y101108D01*
X-44984Y99806D01*
X-44932Y99547D01*
X-44048Y98224D01*
X-39206Y93382D01*
X-37883Y92498D01*
X-37624Y92447D01*
X-36322Y92188D01*
X-36322Y92188D01*
X-22779D01*
X-22614Y91940D01*
X-20629Y90614D01*
X-18288Y90148D01*
X-15947Y90614D01*
X-13962Y91940D01*
X-12636Y93925D01*
X-12170Y96266D01*
X-12636Y98607D01*
X-13962Y100592D01*
X-15947Y101918D01*
X-18288Y102383D01*
X-20629Y101918D01*
X-22614Y100592D01*
X-22779Y100344D01*
X-34633D01*
X-37086Y102797D01*
Y112776D01*
Y119791D01*
X-35615Y118808D01*
X-33274Y118343D01*
X-30933Y118808D01*
X-28948Y120134D01*
X-27622Y122119D01*
X-27157Y124460D01*
X-27218Y124772D01*
X-23914Y128076D01*
X-15164D01*
Y131062D01*
X-13968D01*
Y123822D01*
X2032D01*
Y137897D01*
X2032D01*
Y123822D01*
X16240D01*
Y100942D01*
X16589Y99186D01*
X17584Y97698D01*
X28760Y86522D01*
X30248Y85527D01*
X32004Y85178D01*
X142268D01*
X147886Y79560D01*
X149374Y78565D01*
X151130Y78216D01*
X215646D01*
X217402Y78565D01*
X218890Y79560D01*
X242766Y103436D01*
X243761Y104924D01*
X244110Y106680D01*
Y109351D01*
X245174Y110943D01*
X245639Y113284D01*
X245174Y115625D01*
X243848Y117610D01*
X241863Y118936D01*
X239522Y119402D01*
X238560Y119210D01*
X222446Y135324D01*
X220958Y136319D01*
X220724Y136365D01*
Y137897D01*
X392800D01*
X392849Y137906D01*
X396096Y137586D01*
D02*
G37*
G36*
X-117796Y123458D02*
X-171467D01*
X-171467Y123458D01*
X-172768Y123199D01*
X-173027Y123148D01*
X-174350Y122264D01*
X-174350Y122264D01*
X-177998Y118617D01*
X-178882Y117293D01*
X-178933Y117034D01*
X-179192Y115733D01*
X-179192Y115732D01*
Y102306D01*
X-179192Y102306D01*
X-179105Y101868D01*
X-181411Y101410D01*
X-183396Y100084D01*
X-183642Y99715D01*
X-183888Y100084D01*
X-185873Y101410D01*
X-188214Y101875D01*
X-190555Y101410D01*
X-192540Y100084D01*
X-193866Y98099D01*
X-194331Y95758D01*
X-194180Y94997D01*
X-195574Y93603D01*
X-196458Y92280D01*
X-196509Y92021D01*
X-196768Y90719D01*
X-196768Y90719D01*
Y86601D01*
X-198251Y86306D01*
X-198690Y86012D01*
X-199129Y86306D01*
X-200690Y86616D01*
X-202251Y86306D01*
X-202690Y86012D01*
X-203129Y86306D01*
X-204690Y86616D01*
X-206251Y86306D01*
X-206690Y86012D01*
X-207129Y86306D01*
X-208690Y86616D01*
X-210251Y86306D01*
X-211574Y85422D01*
X-212458Y84099D01*
X-212768Y82538D01*
Y80982D01*
X-212788Y81081D01*
X-214114Y83066D01*
X-216099Y84392D01*
X-218440Y84858D01*
X-220781Y84392D01*
X-221982Y83590D01*
Y102705D01*
X-215936Y108750D01*
X-207990D01*
X-207246Y108006D01*
X-205923Y107122D01*
X-205120Y106962D01*
Y104140D01*
X-191120D01*
Y117640D01*
X-205120D01*
Y117416D01*
X-207020Y119316D01*
Y124963D01*
X-206462Y125336D01*
X-205321Y126478D01*
X-120815D01*
X-117796Y123458D01*
D02*
G37*
G36*
X204724Y124330D02*
X220463D01*
X233910Y110884D01*
X234934Y109351D01*
Y108581D01*
X213745Y87392D01*
X153031D01*
X147412Y93010D01*
X145924Y94005D01*
X144168Y94354D01*
X33905D01*
X25416Y102843D01*
Y125607D01*
X26480Y127199D01*
X26946Y129540D01*
X26480Y131881D01*
X25154Y133866D01*
X23169Y135192D01*
X20828Y135658D01*
X18487Y135192D01*
X18032Y134888D01*
Y137897D01*
X150920D01*
Y128220D01*
X154842D01*
Y102954D01*
X154842Y102954D01*
X155101Y101652D01*
X155152Y101393D01*
X156036Y100070D01*
X163740Y92366D01*
X163740Y92366D01*
X165063Y91482D01*
X166624Y91172D01*
X171023D01*
X171188Y90924D01*
X173173Y89598D01*
X175514Y89132D01*
X177855Y89598D01*
X179840Y90924D01*
X181166Y92909D01*
X181632Y95250D01*
X181166Y97591D01*
X179840Y99576D01*
X177855Y100902D01*
X175514Y101368D01*
X173173Y100902D01*
X171188Y99576D01*
X171023Y99328D01*
X168313D01*
X162998Y104643D01*
Y128220D01*
X166920D01*
Y137897D01*
X168920D01*
Y128220D01*
X184920D01*
Y131206D01*
X188724D01*
Y124330D01*
X204724D01*
Y137897D01*
X204724D01*
Y124330D01*
D02*
G37*
G36*
X-249130Y128220D02*
X-240380D01*
X-237496Y125336D01*
X-236173Y124452D01*
X-235914Y124401D01*
X-234612Y124142D01*
X-234612Y124142D01*
X-226020D01*
Y110202D01*
X-228591Y107631D01*
X-229475Y106307D01*
X-229527Y106049D01*
X-229531Y106028D01*
X-229828Y105584D01*
X-229879Y105325D01*
X-229994Y104750D01*
X-242131D01*
X-243055Y105368D01*
X-243314Y105419D01*
X-244616Y105678D01*
X-244616Y105678D01*
X-248120D01*
Y108600D01*
X-261620D01*
Y94600D01*
X-248120D01*
Y97522D01*
X-246305D01*
X-245720Y96936D01*
Y85750D01*
X-240242D01*
Y77354D01*
X-248120Y85232D01*
Y90820D01*
X-261620D01*
Y76820D01*
X-251244D01*
X-234540Y60116D01*
X-234689D01*
X-243496Y68924D01*
X-244819Y69808D01*
X-245078Y69859D01*
X-246380Y70118D01*
X-246380Y70118D01*
X-248120D01*
Y73040D01*
X-261620D01*
Y59040D01*
X-248120D01*
Y61962D01*
X-248069D01*
X-241428Y55320D01*
X-245620D01*
Y56010D01*
X-261620D01*
Y53193D01*
X-261620Y53193D01*
Y56010D01*
X-264361D01*
X-264905Y56427D01*
X-267179Y57369D01*
X-269620Y57691D01*
X-274101D01*
X-274066Y137897D01*
X-249130D01*
Y128220D01*
D02*
G37*
G36*
X-49164Y128076D02*
X-45242D01*
Y116854D01*
X-99657D01*
X-113598Y130796D01*
X-82207D01*
X-74893Y123482D01*
X-74952Y123190D01*
X-74486Y120849D01*
X-73160Y118864D01*
X-71175Y117538D01*
X-68834Y117072D01*
X-66493Y117538D01*
X-64508Y118864D01*
X-63182Y120849D01*
X-62716Y123190D01*
X-63182Y125531D01*
X-64508Y127516D01*
X-66493Y128842D01*
X-68834Y129307D01*
X-69126Y129249D01*
X-77634Y137758D01*
X-77842Y137897D01*
X-49164D01*
Y128076D01*
D02*
G37*
%LPC*%
G36*
X393192Y-51639D02*
X390451Y-52000D01*
X387897Y-53058D01*
X385703Y-54741D01*
X384020Y-56935D01*
X382962Y-59489D01*
X382601Y-62230D01*
X382962Y-64971D01*
X384020Y-67525D01*
X385703Y-69719D01*
X387897Y-71402D01*
X390451Y-72460D01*
X393192Y-72821D01*
X395933Y-72460D01*
X398487Y-71402D01*
X400681Y-69719D01*
X402364Y-67525D01*
X403422Y-64971D01*
X403783Y-62230D01*
X403422Y-59489D01*
X402364Y-56935D01*
X400681Y-54741D01*
X398487Y-53058D01*
X395933Y-52000D01*
X393192Y-51639D01*
D02*
G37*
G36*
X352892Y-51730D02*
X331892D01*
Y-72730D01*
X352892D01*
Y-51730D01*
D02*
G37*
G36*
X393192Y-26239D02*
X390451Y-26600D01*
X387897Y-27658D01*
X385703Y-29341D01*
X384020Y-31535D01*
X382962Y-34089D01*
X382601Y-36830D01*
X382962Y-39571D01*
X384020Y-42125D01*
X385703Y-44319D01*
X387897Y-46002D01*
X390451Y-47060D01*
X393192Y-47421D01*
X395933Y-47060D01*
X398487Y-46002D01*
X400681Y-44319D01*
X402364Y-42125D01*
X403422Y-39571D01*
X403783Y-36830D01*
X403422Y-34089D01*
X402364Y-31535D01*
X400681Y-29341D01*
X398487Y-27658D01*
X395933Y-26600D01*
X393192Y-26239D01*
D02*
G37*
%LPD*%
D10*
X-268370Y66040D02*
D03*
X-254870D02*
D03*
X-268370Y83820D02*
D03*
X-254870D02*
D03*
X-268370Y101600D02*
D03*
X-254870D02*
D03*
X-168364Y110490D02*
D03*
X-181864D02*
D03*
D11*
X-271780Y16110D02*
D03*
Y29610D02*
D03*
X-251460D02*
D03*
Y16110D02*
D03*
X-198120Y97390D02*
D03*
Y110890D02*
D03*
D12*
X-253620Y48260D02*
D03*
X-269620D02*
D03*
X-136398Y93218D02*
D03*
X-152398D02*
D03*
Y110490D02*
D03*
X-136398D02*
D03*
X196724Y132080D02*
D03*
X212724D02*
D03*
X10032Y131572D02*
D03*
X-5968D02*
D03*
D13*
X-215138Y-55880D02*
D03*
Y-35560D02*
D03*
X-240030Y-35560D02*
D03*
Y-55880D02*
D03*
X-265176Y-55880D02*
D03*
Y-35560D02*
D03*
X-431800Y10160D02*
D03*
Y-10160D02*
D03*
X-404622Y9906D02*
D03*
Y-10414D02*
D03*
X-340360Y-35560D02*
D03*
Y-55880D02*
D03*
X-291338Y-56134D02*
D03*
Y-35814D02*
D03*
D20*
X-224410Y133350D02*
X-223950Y133810D01*
X-216520Y119012D02*
X-216330Y118822D01*
X210566Y40640D02*
X247142Y4064D01*
X-152533Y44038D02*
X-149135Y40640D01*
X-156440Y44038D02*
X-152533D01*
X175514Y95250D02*
Y95504D01*
X175006Y96012D02*
X175514Y95504D01*
X-236164Y76398D02*
Y93148D01*
X-254870Y101600D02*
X-244616D01*
X-252476Y83820D02*
X-228694Y60038D01*
X-254870Y83820D02*
X-252476D01*
X-225707Y104747D02*
X-215385Y115069D01*
X-225707Y104376D02*
Y104747D01*
X-226060Y104023D02*
X-225707Y104376D01*
X-226060Y73251D02*
Y104023D01*
X-175114Y102306D02*
Y115733D01*
Y102306D02*
X-173070Y100262D01*
Y93273D02*
Y100262D01*
X-179805Y86538D02*
X-173070Y93273D01*
X-223804Y64038D02*
X-216940D01*
X-236164Y76398D02*
X-223804Y64038D01*
X-228694Y60038D02*
X-216940D01*
X-236378Y56038D02*
X-216940D01*
X-226060Y73251D02*
X-220847Y68038D01*
X-216940D01*
X-60452Y62738D02*
X213106D01*
X-225425Y133350D02*
X-224965Y133810D01*
X-204362Y110890D02*
X-200660D01*
X-211081Y117609D02*
X-204362Y110890D01*
X-215385Y117609D02*
X-211081D01*
X-192690Y90719D02*
X-188214Y95195D01*
X-192690Y80288D02*
Y90719D01*
X-188690Y85852D02*
X-184004Y90538D01*
X-188690Y80288D02*
Y85852D01*
X-184690Y84195D02*
X-182347Y86538D01*
X-184690Y80288D02*
Y84195D01*
X-179070Y94742D02*
Y95758D01*
X-168364Y92322D02*
Y110490D01*
X-188690Y52038D02*
X-186690Y50038D01*
X-246380Y66040D02*
X-236378Y56038D01*
X-254870Y66040D02*
X-246380D01*
X-112014Y17780D02*
X-18288D01*
X-129602Y192D02*
X-112014Y17780D01*
X-172434Y192D02*
X-129602D01*
X-134746Y4192D02*
X-114966Y23972D01*
X-140398Y8192D02*
X-118618Y29972D01*
X-121918Y-3808D02*
X-110236Y7874D01*
X-169120Y8192D02*
X-140398D01*
X-170777Y4192D02*
X-134746D01*
X-174091Y-3808D02*
X-121918D01*
X-172478Y8209D02*
X-169137D01*
X-174135Y4209D02*
X-170794D01*
X-167463Y12192D02*
X-149098D01*
X-167481Y12209D02*
X-167463Y12192D01*
X-170197Y12209D02*
X-167481D01*
X-172690Y14702D02*
X-170197Y12209D01*
X-169137Y8209D02*
X-169120Y8192D01*
X-170794Y4209D02*
X-170777Y4192D01*
X-172451Y209D02*
X-172434Y192D01*
X-174108Y-3791D02*
X-174091Y-3808D01*
X-163190Y18288D02*
X-157480D01*
X-164690Y19788D02*
X-163190Y18288D01*
X146812Y7874D02*
X162052Y23114D01*
X-110236Y7874D02*
X146812D01*
X193832Y36038D02*
X220800Y9070D01*
X213106Y62738D02*
X312674Y-36830D01*
X-114966Y23972D02*
X117190D01*
X-118618Y29972D02*
X-50038D01*
X117190Y23972D02*
X117602Y24384D01*
X-180690Y10764D02*
X-174135Y4209D01*
X-176690Y12421D02*
X-172478Y8209D01*
X-225298Y17272D02*
X-200235Y-7791D01*
X-196690Y10254D02*
Y19788D01*
X-192690Y11911D02*
Y19788D01*
X-136398Y93218D02*
Y110490D01*
X-176690Y12421D02*
Y19788D01*
X-180690Y10764D02*
Y19788D01*
X-172690Y14702D02*
Y19788D01*
X211074Y-64008D02*
X236220D01*
X205800Y-58734D02*
X211074Y-64008D01*
X205800Y-58734D02*
Y-39980D01*
X312674Y-36830D02*
X342392D01*
X-215138Y-35560D02*
X-215138Y-35560D01*
X-278384Y-19304D02*
X-217932D01*
X-291338Y-32258D02*
X-278384Y-19304D01*
X-291338Y-35560D02*
Y-32258D01*
X-217932Y-19304D02*
X-212852Y-14224D01*
X-230886Y27432D02*
X-226280Y32038D01*
X-230886Y15240D02*
Y27432D01*
X-225298Y17272D02*
Y24758D01*
X-222018Y28038D01*
X-243078Y5588D02*
X-240792Y7874D01*
X-258064Y5588D02*
X-243078D01*
X-264414Y-762D02*
X-258064Y5588D01*
X-399542Y-5334D02*
X-263329D01*
X-259011Y-1016D01*
X-251968D01*
X-425450Y-762D02*
X-264414D01*
X-404622Y-10414D02*
X-399542Y-5334D01*
X-431800Y-7112D02*
X-425450Y-762D01*
X-431800Y-10160D02*
Y-7112D01*
X-407162Y-12954D02*
X-404622Y-10414D01*
X-407162Y-36576D02*
Y-12954D01*
Y-36576D02*
X-406908Y-36830D01*
X-432308D02*
X-431800Y-36322D01*
Y-10160D01*
X-175114Y115733D02*
X-171467Y119380D01*
X-168364Y110490D02*
X-152398D01*
X-172690Y87996D02*
X-168364Y92322D01*
X-182347Y86538D02*
X-179805D01*
X-183274Y90538D02*
X-179070Y94742D01*
X-184004Y90538D02*
X-183274D01*
X-172690Y80288D02*
Y87996D01*
X-226280Y32038D02*
X-216940D01*
X-222018Y28038D02*
X-216940D01*
X-188214Y95195D02*
Y95758D01*
X-180690Y56038D02*
X-176690Y60038D01*
X-186690Y50038D02*
X-180690Y56038D01*
X-183896Y110490D02*
X-181864D01*
X-160274Y93218D02*
X-152398D01*
X-168690Y84802D02*
X-160274Y93218D01*
X-168690Y80288D02*
Y84802D01*
X-157964Y80288D02*
X-156718Y81534D01*
X-164690Y80288D02*
X-157964D01*
X-164690D02*
X-164592Y80386D01*
X-147926Y72038D02*
X-147574Y72390D01*
X-156440Y72038D02*
X-147926D01*
X-218440Y73538D02*
X-216940Y72038D01*
X-218440Y73538D02*
Y78740D01*
X-231140Y48038D02*
X-216940D01*
X-253620Y48260D02*
X-253398Y48038D01*
X-171467Y119380D02*
X-117094D01*
X-60452Y62738D01*
X-223130Y135284D02*
X-222720Y134874D01*
X-33274Y124460D02*
Y124484D01*
X-23164Y134594D02*
Y135140D01*
X-33274Y124484D02*
X-23164Y134594D01*
X-41164Y101108D02*
X-36322Y96266D01*
X-18288D01*
X-180848Y111506D02*
Y121412D01*
X-181864Y110490D02*
X-180848Y111506D01*
X-222720Y134874D02*
X-80518D01*
X-209346Y128220D02*
X-207010Y130556D01*
X-119126D01*
X-101346Y112776D01*
X-41164D01*
Y101108D02*
Y112776D01*
Y135140D01*
X166624Y95250D02*
X175514D01*
X158920Y102954D02*
X166624Y95250D01*
X158920Y102954D02*
Y135284D01*
X-23164Y135140D02*
X-9536D01*
X-5968Y131572D01*
X176920Y135284D02*
X193520D01*
X196724Y132080D01*
X-241130Y135284D02*
X-238880D01*
X-234612Y128220D02*
X-209346D01*
X-238880Y132488D02*
X-234612Y128220D01*
X-240030Y-35560D02*
X-215138D01*
X-156440Y36038D02*
X193832D01*
X-149135Y40640D02*
X210566D01*
X-80518Y134874D02*
X-68834Y123190D01*
X-51054Y29464D02*
X-50800Y29210D01*
X-149098Y12192D02*
X-146177Y15113D01*
X-216464Y118688D02*
X-215385Y117609D01*
X-244616Y101600D02*
X-236164Y93148D01*
X236220Y-64008D02*
X247142Y-53086D01*
Y4064D01*
X220800Y-39980D02*
Y9070D01*
X190800Y-39980D02*
Y-18334D01*
X175800Y-39980D02*
Y-21622D01*
X-200235Y-7791D02*
X-191840D01*
X-191812Y-7763D01*
X-180799D01*
X-196690Y10254D02*
X-182673Y-3763D01*
X-179142D01*
X-179114Y-3791D01*
X-174108D01*
X-192690Y11911D02*
X-181016Y237D01*
X-177485D01*
X-177458Y209D01*
X-172451D01*
X114849Y-7763D02*
X180229D01*
X-180799D02*
X-180754Y-7808D01*
X114804D01*
X114849Y-7763D01*
X116506Y-11763D02*
X165941D01*
X116461Y-11808D02*
X116506Y-11763D01*
X165941D02*
X175800Y-21622D01*
X180229Y-7763D02*
X190800Y-18334D01*
X-238880Y132488D02*
Y135284D01*
X-182456Y-11763D02*
X-182411Y-11808D01*
X-190001Y-11763D02*
X-182456D01*
X-190046Y-11808D02*
X-190001Y-11763D01*
X-182411Y-11808D02*
X116461D01*
X-203838D02*
X-190046D01*
X-230886Y15240D02*
X-203838Y-11808D01*
X-216940Y52038D02*
X-188690D01*
X-216464Y93148D02*
X-213092Y96520D01*
X-197866D01*
X-183896Y110490D01*
X-176690Y60038D02*
Y80288D01*
D21*
X-265176Y-35560D02*
X-264781D01*
X-252675Y-47666D01*
Y-48061D02*
Y-47666D01*
Y-48061D02*
X-244856Y-55880D01*
X-240030D01*
X-60452Y53340D02*
X206248D01*
X-64262Y57150D02*
X-60452Y53340D01*
X-133350Y57150D02*
X-64262D01*
X147574Y-79502D02*
X255016D01*
X277114Y-57404D01*
X137922Y-69850D02*
X147574Y-79502D01*
X137922Y-69850D02*
Y-28448D01*
X-204724Y-75184D02*
X-196596Y-67056D01*
X-221488Y-75184D02*
X-204724D01*
X-267462D02*
X-265176Y-72898D01*
X-269930Y-77652D02*
X-267462Y-75184D01*
X-265176Y-72898D02*
Y-55880D01*
X-426030Y-77652D02*
X-269930D01*
X-450850Y-86868D02*
X-249682D01*
X-240030Y-77216D01*
Y-55880D01*
X-215138D02*
X-215138Y-55880D01*
X-240030Y-55880D02*
X-215138D01*
X-457708Y-80010D02*
X-450850Y-86868D01*
X-457708Y-80010D02*
Y-62230D01*
X-432308Y-71374D02*
X-426030Y-77652D01*
X-432308Y-71374D02*
Y-62230D01*
X-251460Y29610D02*
Y46100D01*
X118891Y-17308D02*
X118936Y-17263D01*
X126737D01*
X137922Y-28448D01*
X-184734Y-17263D02*
X-184689Y-17308D01*
X-187723Y-17263D02*
X-184734D01*
X-187768Y-17308D02*
X-187723Y-17263D01*
X-184689Y-17308D02*
X118891D01*
X-196596Y-67056D02*
Y-22352D01*
X-191552Y-17308D01*
X-187768D01*
D22*
X-180690Y44038D02*
D03*
X-192690D02*
D03*
X-180690Y56038D02*
D03*
X-192690D02*
D03*
D23*
X160800Y-39980D02*
D03*
D24*
X175800D02*
D03*
X190800D02*
D03*
X205800D02*
D03*
X220800D02*
D03*
X235800D02*
D03*
D25*
X-406908Y-36830D02*
D03*
Y-62230D02*
D03*
X-432308Y-36830D02*
D03*
Y-62230D02*
D03*
X-457708Y-36830D02*
D03*
X393192D02*
D03*
Y-62230D02*
D03*
X367792Y-36830D02*
D03*
Y-62230D02*
D03*
X342392Y-36830D02*
D03*
D26*
X-457708Y-62230D02*
D03*
X342392D02*
D03*
D27*
X225806Y60960D02*
D03*
X224536Y38100D02*
D03*
X215646Y47498D02*
D03*
X-278384Y-45720D02*
D03*
X-227838Y-11938D02*
D03*
X-33274Y124460D02*
D03*
X60960Y132080D02*
D03*
X38100D02*
D03*
X-91440Y48260D02*
D03*
X-104140D02*
D03*
X-116840D02*
D03*
X-144780Y52070D02*
D03*
Y62230D02*
D03*
X175514Y95250D02*
D03*
X-180848Y121412D02*
D03*
X-179070Y95758D02*
D03*
X-318262Y-67310D02*
D03*
X-279400Y-12700D02*
D03*
X-254000D02*
D03*
X-25400Y0D02*
D03*
X-38100D02*
D03*
X-50800D02*
D03*
X-63500D02*
D03*
X-76200D02*
D03*
X-88900D02*
D03*
X-101600D02*
D03*
X-12700D02*
D03*
X-91440Y81280D02*
D03*
Y68580D02*
D03*
X-104140Y93980D02*
D03*
X-116840D02*
D03*
X-318516Y-54356D02*
D03*
X-302260Y-20320D02*
D03*
X-314960D02*
D03*
X-327660D02*
D03*
X-340360D02*
D03*
X-353060D02*
D03*
X-365760D02*
D03*
X-378460D02*
D03*
X-391160D02*
D03*
X-454660D02*
D03*
Y-7620D02*
D03*
Y5080D02*
D03*
X-467360Y-20320D02*
D03*
Y-7620D02*
D03*
Y5080D02*
D03*
X-289560Y17780D02*
D03*
X-302260D02*
D03*
X-314960D02*
D03*
X-327660D02*
D03*
X-340360D02*
D03*
X-353060D02*
D03*
X-365760D02*
D03*
X-378460D02*
D03*
X-391160D02*
D03*
X-403860D02*
D03*
X-416560D02*
D03*
X-429260D02*
D03*
X-441960D02*
D03*
X-454660D02*
D03*
X-467360D02*
D03*
X-289560Y30480D02*
D03*
X-302260D02*
D03*
X-314960D02*
D03*
X-327660D02*
D03*
X-340360D02*
D03*
X-353060D02*
D03*
X-365760D02*
D03*
X-378460D02*
D03*
X-391160D02*
D03*
X-403860D02*
D03*
X-416560D02*
D03*
X-429260D02*
D03*
X-441960D02*
D03*
X-454660D02*
D03*
X-467360D02*
D03*
X-266700Y60960D02*
D03*
Y76200D02*
D03*
Y91440D02*
D03*
X-58420Y83820D02*
D03*
Y96520D02*
D03*
X-68580Y104140D02*
D03*
X-83820D02*
D03*
X-86360Y121920D02*
D03*
X-99060D02*
D03*
X-195580D02*
D03*
X-266700Y106680D02*
D03*
Y119380D02*
D03*
X-228600Y0D02*
D03*
X-104140Y68580D02*
D03*
Y81280D02*
D03*
X-116840D02*
D03*
Y68580D02*
D03*
X99060Y0D02*
D03*
X71120D02*
D03*
X45720D02*
D03*
X22860D02*
D03*
X0D02*
D03*
X99060Y15240D02*
D03*
X71120D02*
D03*
X45720D02*
D03*
X22860D02*
D03*
X0D02*
D03*
X20828Y129540D02*
D03*
X162052Y23114D02*
D03*
X-18288Y96266D02*
D03*
Y17780D02*
D03*
X-157480Y18288D02*
D03*
X-50038Y29972D02*
D03*
X-146050Y14732D02*
D03*
X239522Y113284D02*
D03*
X206248Y53340D02*
D03*
X-133350Y57150D02*
D03*
X117602Y24384D02*
D03*
X277114Y-57404D02*
D03*
X-221488Y-75184D02*
D03*
X-267462D02*
D03*
X-212852Y-14224D02*
D03*
X-251968Y-1016D02*
D03*
X-240792Y7874D02*
D03*
X-188214Y95758D02*
D03*
X-156718Y81534D02*
D03*
X-147574Y72390D02*
D03*
X-218440Y78740D02*
D03*
X-71120Y91440D02*
D03*
X-38100Y86360D02*
D03*
X-5080D02*
D03*
X7620Y73660D02*
D03*
X30480Y71120D02*
D03*
Y81280D02*
D03*
X45720D02*
D03*
Y71120D02*
D03*
X60960Y81280D02*
D03*
Y71120D02*
D03*
X76200D02*
D03*
Y81280D02*
D03*
X93980D02*
D03*
Y71120D02*
D03*
X109220Y81280D02*
D03*
Y71120D02*
D03*
X134620Y81280D02*
D03*
Y71120D02*
D03*
X149860Y73660D02*
D03*
X172720D02*
D03*
X190500D02*
D03*
X208280D02*
D03*
X45720Y104140D02*
D03*
X60960D02*
D03*
X76200D02*
D03*
X93980D02*
D03*
X45720Y119380D02*
D03*
X60960D02*
D03*
X76200D02*
D03*
X93980D02*
D03*
X144780Y99060D02*
D03*
X157480Y91440D02*
D03*
X93980Y132080D02*
D03*
X76200D02*
D03*
X180340Y0D02*
D03*
X200660Y17780D02*
D03*
X190500Y10160D02*
D03*
X200660Y0D02*
D03*
X213360Y-10160D02*
D03*
X203200Y-17780D02*
D03*
X152400Y-63500D02*
D03*
X165100D02*
D03*
X177800D02*
D03*
X190500D02*
D03*
X254000D02*
D03*
X266700Y-50800D02*
D03*
X129540Y25400D02*
D03*
X147320D02*
D03*
X137160Y15240D02*
D03*
X190500Y93980D02*
D03*
X208280D02*
D03*
X220980Y101600D02*
D03*
X-227330Y-43180D02*
D03*
Y-29210D02*
D03*
X-231140Y-86360D02*
D03*
X-212090D02*
D03*
X-278130Y-68580D02*
D03*
X-339090D02*
D03*
X-314960Y-33020D02*
D03*
X-306070Y-41910D02*
D03*
X-213360Y87630D02*
D03*
X-232410Y38100D02*
D03*
X-205740Y10160D02*
D03*
X-196850Y0D02*
D03*
X248920Y60960D02*
D03*
Y43180D02*
D03*
X276860Y59690D02*
D03*
Y43180D02*
D03*
X331470Y74930D02*
D03*
Y63500D02*
D03*
X304800Y67310D02*
D03*
X318770D02*
D03*
X355600Y83820D02*
D03*
Y66040D02*
D03*
X373380Y83820D02*
D03*
Y66040D02*
D03*
X391160Y83820D02*
D03*
Y66040D02*
D03*
X304800Y53340D02*
D03*
Y40640D02*
D03*
X276860Y25400D02*
D03*
X292100Y-50800D02*
D03*
X317500Y-76200D02*
D03*
X292100D02*
D03*
Y-63500D02*
D03*
X317500D02*
D03*
Y-50800D02*
D03*
X304800D02*
D03*
Y-63500D02*
D03*
Y-76200D02*
D03*
X368300D02*
D03*
X381000D02*
D03*
X355600D02*
D03*
X330200D02*
D03*
X381000Y-50800D02*
D03*
Y-25400D02*
D03*
X292100Y-38100D02*
D03*
X266700Y-25400D02*
D03*
Y-38100D02*
D03*
X279400Y-76200D02*
D03*
X254000Y127000D02*
D03*
X266700D02*
D03*
X279400D02*
D03*
X304800D02*
D03*
X330200D02*
D03*
X355600D02*
D03*
X393700D02*
D03*
X381000D02*
D03*
X393700Y101600D02*
D03*
X304800Y114300D02*
D03*
Y101600D02*
D03*
X279400Y114300D02*
D03*
Y101600D02*
D03*
X304800Y25400D02*
D03*
Y12700D02*
D03*
Y0D02*
D03*
X215900Y25400D02*
D03*
X228600Y12700D02*
D03*
X233680Y0D02*
D03*
Y-12700D02*
D03*
Y-25400D02*
D03*
X-276860Y7620D02*
D03*
Y17780D02*
D03*
X-261620D02*
D03*
X-255524Y133604D02*
D03*
X-27940Y71120D02*
D03*
X-5080Y73660D02*
D03*
X7620Y86360D02*
D03*
X133096Y99314D02*
D03*
X-74676Y48260D02*
D03*
X-78740Y68580D02*
D03*
X-27940Y86360D02*
D03*
X-38100Y71120D02*
D03*
X230124Y134366D02*
D03*
X132588Y123444D02*
D03*
X-266700Y132842D02*
D03*
X-30480Y105918D02*
D03*
X1270Y106172D02*
D03*
X1524Y121666D02*
D03*
X-68834Y123190D02*
D03*
D28*
X-168690Y68038D02*
D03*
X-180690D02*
D03*
X-192690D02*
D03*
X-204690D02*
D03*
X-168690Y56038D02*
D03*
X-180690D02*
D03*
X-192690D02*
D03*
X-204690D02*
D03*
X-168690Y44038D02*
D03*
X-180690D02*
D03*
X-192690D02*
D03*
X-204690D02*
D03*
X-168690Y32038D02*
D03*
X-180690D02*
D03*
X-192690D02*
D03*
X-204690D02*
D03*
D29*
X-296926Y49784D02*
D03*
D30*
X-156440Y72038D02*
D03*
Y68038D02*
D03*
Y64038D02*
D03*
Y60038D02*
D03*
Y56038D02*
D03*
Y52038D02*
D03*
Y48038D02*
D03*
Y44038D02*
D03*
Y40038D02*
D03*
Y36038D02*
D03*
Y32038D02*
D03*
Y28038D02*
D03*
X-216940D02*
D03*
Y32038D02*
D03*
Y36038D02*
D03*
Y40038D02*
D03*
Y44038D02*
D03*
Y48038D02*
D03*
Y52038D02*
D03*
Y56038D02*
D03*
Y60038D02*
D03*
Y64038D02*
D03*
Y68038D02*
D03*
Y72038D02*
D03*
D31*
X-164690Y19788D02*
D03*
X-168690D02*
D03*
X-172690D02*
D03*
X-176690D02*
D03*
X-180690D02*
D03*
X-184690D02*
D03*
X-188690D02*
D03*
X-192690D02*
D03*
X-196690D02*
D03*
X-200690D02*
D03*
X-204690D02*
D03*
X-208690D02*
D03*
Y80288D02*
D03*
X-204690D02*
D03*
X-200690D02*
D03*
X-196690D02*
D03*
X-192690D02*
D03*
X-188690D02*
D03*
X-184690D02*
D03*
X-180690D02*
D03*
X-176690D02*
D03*
X-172690D02*
D03*
X-168690D02*
D03*
X-164690D02*
D03*
D32*
X-186690Y50038D02*
D03*
D33*
X-236220Y95250D02*
D03*
X-216520D02*
D03*
Y118250D02*
D03*
D34*
X-236220D02*
D03*
D35*
X-388620Y-55880D02*
D03*
X-363674Y-65278D02*
D03*
X-363620Y-46380D02*
D03*
D36*
X-23164Y135140D02*
D03*
X-41164D02*
D03*
X-241130Y135284D02*
D03*
X-223130D02*
D03*
X176920D02*
D03*
X158920D02*
D03*
D37*
X-363674Y-65278D02*
Y-63046D01*
X-381000Y-45720D02*
X-363674Y-63046D01*
X-396240Y-45720D02*
X-381000D01*
X-400304Y-49784D02*
X-396240Y-45720D01*
X-444754Y-49784D02*
X-400304D01*
X-457708Y-36830D02*
X-444754Y-49784D01*
X-400558Y-55880D02*
X-388620D01*
X-406908Y-62230D02*
X-400558Y-55880D01*
X-351180Y-46380D02*
X-340360Y-35560D01*
X-363420Y-46380D02*
X-351180D01*
X-291338Y-56134D02*
X-291084Y-55880D01*
X-325120Y-35560D02*
X-304800Y-55880D01*
X-340360Y-35560D02*
X-325120D01*
X-349758Y-65278D02*
X-340360Y-55880D01*
X-363674Y-65278D02*
X-349758D01*
X239522Y106680D02*
Y113284D01*
X215646Y82804D02*
X239522Y106680D01*
X12064Y129540D02*
X20828D01*
X10032Y131572D02*
X12064Y129540D01*
X20828Y100942D02*
Y129540D01*
Y100942D02*
X32004Y89766D01*
X144168D01*
X151130Y82804D01*
X215646D01*
X212724Y132080D02*
X219202D01*
X237998Y113284D01*
X239522D01*
X-304800Y-55880D02*
X-291084D01*
D38*
X-253620Y48260D02*
X-226060D01*
D39*
X-271780Y46100D02*
X-269620Y48260D01*
X-271780Y29610D02*
Y46100D01*
D40*
X-296926Y49784D02*
X-295402Y48260D01*
X-269620D01*
X-312520Y112268D02*
X-296926Y96674D01*
X-312520Y112268D02*
X-312520D01*
X-470934D02*
X-312520D01*
X-296926Y96674D02*
X-296926D01*
Y49784D02*
Y96674D01*
D41*
X-473598Y112300D02*
D03*
M02*
