G04 Layer_Color=128*
%FSLAX44Y44*%
%MOMM*%
G71*
G01*
G75*
%ADD10R,0.7500X0.8000*%
%ADD11R,0.8000X0.7500*%
%ADD12R,1.0000X0.9500*%
%ADD13R,1.6002X1.2700*%
%ADD29C,1.0000*%
%ADD30O,0.6500X0.2000*%
%ADD31O,0.2000X0.6500*%
%ADD32R,4.7000X4.7000*%
%ADD33R,1.3000X1.3000*%
%ADD34R,1.0000X1.0000*%
%ADD35R,1.2000X0.8500*%
%ADD36R,1.0000X0.8128*%
D10*
X-268370Y66040D02*
D03*
X-254870D02*
D03*
X-268370Y83820D02*
D03*
X-254870D02*
D03*
X-268370Y101600D02*
D03*
X-254870D02*
D03*
X-168364Y110490D02*
D03*
X-181864D02*
D03*
D11*
X-271780Y16110D02*
D03*
Y29610D02*
D03*
X-251460D02*
D03*
Y16110D02*
D03*
X-198120Y97390D02*
D03*
Y110890D02*
D03*
D12*
X-253620Y48260D02*
D03*
X-269620D02*
D03*
X-136398Y93218D02*
D03*
X-152398D02*
D03*
Y110490D02*
D03*
X-136398D02*
D03*
X196724Y132080D02*
D03*
X212724D02*
D03*
X10032Y131572D02*
D03*
X-5968D02*
D03*
D13*
X-215138Y-55880D02*
D03*
Y-35560D02*
D03*
X-240030Y-35560D02*
D03*
Y-55880D02*
D03*
X-265176Y-55880D02*
D03*
Y-35560D02*
D03*
X-431800Y10160D02*
D03*
Y-10160D02*
D03*
X-404622Y9906D02*
D03*
Y-10414D02*
D03*
X-340360Y-35560D02*
D03*
Y-55880D02*
D03*
X-291338Y-56134D02*
D03*
Y-35814D02*
D03*
D29*
X-296926Y49784D02*
D03*
D30*
X-156440Y72038D02*
D03*
Y68038D02*
D03*
Y64038D02*
D03*
Y60038D02*
D03*
Y56038D02*
D03*
Y52038D02*
D03*
Y48038D02*
D03*
Y44038D02*
D03*
Y40038D02*
D03*
Y36038D02*
D03*
Y32038D02*
D03*
Y28038D02*
D03*
X-216940D02*
D03*
Y32038D02*
D03*
Y36038D02*
D03*
Y40038D02*
D03*
Y44038D02*
D03*
Y48038D02*
D03*
Y52038D02*
D03*
Y56038D02*
D03*
Y60038D02*
D03*
Y64038D02*
D03*
Y68038D02*
D03*
Y72038D02*
D03*
D31*
X-164690Y19788D02*
D03*
X-168690D02*
D03*
X-172690D02*
D03*
X-176690D02*
D03*
X-180690D02*
D03*
X-184690D02*
D03*
X-188690D02*
D03*
X-192690D02*
D03*
X-196690D02*
D03*
X-200690D02*
D03*
X-204690D02*
D03*
X-208690D02*
D03*
Y80288D02*
D03*
X-204690D02*
D03*
X-200690D02*
D03*
X-196690D02*
D03*
X-192690D02*
D03*
X-188690D02*
D03*
X-184690D02*
D03*
X-180690D02*
D03*
X-176690D02*
D03*
X-172690D02*
D03*
X-168690D02*
D03*
X-164690D02*
D03*
D32*
X-186690Y50038D02*
D03*
D33*
X-236220Y95250D02*
D03*
X-216520D02*
D03*
Y118250D02*
D03*
D34*
X-236220D02*
D03*
D35*
X-388620Y-55880D02*
D03*
X-363674Y-65278D02*
D03*
X-363620Y-46380D02*
D03*
D36*
X-23164Y135140D02*
D03*
X-41164D02*
D03*
X-241130Y135284D02*
D03*
X-223130D02*
D03*
X176920D02*
D03*
X158920D02*
D03*
M02*
