G04 Layer_Color=32896*
%FSLAX44Y44*%
%MOMM*%
G71*
G01*
G75*
%ADD20C,0.2000*%
%ADD42C,0.2500*%
%ADD43C,0.1524*%
%ADD44C,0.1000*%
%ADD45C,0.1778*%
%ADD46C,0.1270*%
%ADD70R,0.1524X1.0414*%
D20*
X-274780Y21860D02*
Y23860D01*
X-268780Y21860D02*
Y23860D01*
X-248460Y21860D02*
Y23860D01*
X-254460Y21860D02*
Y23860D01*
X-161690Y80038D02*
X-156690Y75038D01*
X-216690Y80038D02*
X-211690D01*
X-216690Y75038D02*
Y80038D01*
Y20038D02*
Y25038D01*
Y20038D02*
X-211690D01*
X-161690D02*
X-156690D01*
Y25038D01*
X-262620Y69040D02*
X-260620D01*
X-262620Y63040D02*
X-260620D01*
X-262620Y86820D02*
X-260620D01*
X-262620Y80820D02*
X-260620D01*
X-201120Y103140D02*
Y105140D01*
X-195120Y103140D02*
Y105140D01*
X-262620Y104600D02*
X-260620D01*
X-262620Y98600D02*
X-260620D01*
X-176114Y107490D02*
X-174114D01*
X-176114Y113490D02*
X-174114D01*
D42*
X-146440Y72038D02*
G03*
X-146440Y72038I-1250J0D01*
G01*
X-372330Y-64790D02*
G03*
X-372330Y-64790I-1250J0D01*
G01*
D43*
X-276780Y11110D02*
X-266780D01*
X-276780Y34610D02*
X-266780Y34610D01*
X-276780Y25360D02*
Y34610D01*
Y11110D02*
Y20360D01*
X-266780Y25360D02*
Y34610D01*
Y11110D02*
Y20360D01*
X-256460Y34610D02*
X-246460D01*
X-256460Y11110D02*
X-246460Y11110D01*
Y20360D01*
Y25360D02*
Y34610D01*
X-256460Y11110D02*
Y20360D01*
Y25360D02*
Y34610D01*
X-273370Y61040D02*
Y71040D01*
X-249870D02*
X-249870Y61040D01*
X-259120Y71040D02*
X-249870D01*
X-273370D02*
X-264120D01*
X-259120Y61040D02*
X-249870D01*
X-273370D02*
X-264120D01*
X-273370Y78820D02*
Y88820D01*
X-249870D02*
X-249870Y78820D01*
X-259120Y88820D02*
X-249870D01*
X-273370D02*
X-264120D01*
X-259120Y78820D02*
X-249870D01*
X-273370D02*
X-264120D01*
X-203120Y92390D02*
X-193120D01*
X-203120Y115890D02*
X-193120Y115890D01*
X-203120Y106640D02*
Y115890D01*
Y92390D02*
Y101640D01*
X-193120Y106640D02*
Y115890D01*
Y92390D02*
Y101640D01*
X-273370Y96600D02*
Y106600D01*
X-249870D02*
X-249870Y96600D01*
X-259120Y106600D02*
X-249870D01*
X-273370D02*
X-264120D01*
X-259120Y96600D02*
X-249870D01*
X-273370D02*
X-264120D01*
X-163364Y105490D02*
Y115490D01*
X-186864D02*
X-186864Y105490D01*
X-177614D01*
X-172614D02*
X-163364D01*
X-186864Y115490D02*
X-177614D01*
X-172614D02*
X-163364D01*
D44*
X-244341Y86629D02*
G03*
X-244341Y86629I-500J0D01*
G01*
D45*
X-225298Y-64516D02*
Y-55880D01*
Y-64516D02*
X-215138D01*
X-204978D01*
Y-55880D01*
Y-35560D02*
Y-26924D01*
X-215138D02*
X-204978D01*
X-225298D02*
X-215138D01*
X-225298Y-35560D02*
Y-26924D01*
X-229870Y-35560D02*
Y-26924D01*
X-240030D02*
X-229870D01*
X-250190D02*
X-240030D01*
X-250190Y-35560D02*
Y-26924D01*
Y-64516D02*
Y-55880D01*
Y-64516D02*
X-240030D01*
X-229870D01*
Y-55880D01*
X-275336Y-64516D02*
Y-55880D01*
Y-64516D02*
X-265176D01*
X-255016D01*
Y-55880D01*
Y-35560D02*
Y-26924D01*
X-265176D02*
X-255016D01*
X-275336D02*
X-265176D01*
X-275336Y-35560D02*
Y-26924D01*
X-252984Y55186D02*
X-246385D01*
Y41351D02*
Y55186D01*
X-252984Y41351D02*
X-246385D01*
X-276856D02*
X-270256D01*
X-276856D02*
Y55186D01*
X-270256D01*
X-135762Y100144D02*
X-129163D01*
Y86309D02*
Y100144D01*
X-135762Y86309D02*
X-129163D01*
X-159634D02*
X-153034D01*
X-159634D02*
Y100144D01*
X-153034D01*
X-159634Y103564D02*
X-153034D01*
X-159634D02*
Y117399D01*
X-153034D01*
X-135762D02*
X-129163D01*
Y103564D02*
Y117399D01*
X-135762Y103564D02*
X-129163D01*
X189489Y125154D02*
X196088D01*
X189489D02*
Y138989D01*
X196088D01*
X213360D02*
X219960D01*
Y125154D02*
Y138989D01*
X213360Y125154D02*
X219960D01*
X10668Y124646D02*
X17268D01*
Y138481D01*
X10668D02*
X17268D01*
X-13204D02*
X-6604D01*
X-13204Y124646D02*
Y138481D01*
Y124646D02*
X-6604D01*
X-421640Y10160D02*
Y18796D01*
X-431800D02*
X-421640D01*
X-441960D02*
X-431800D01*
X-441960Y10160D02*
Y18796D01*
Y-18796D02*
Y-10160D01*
Y-18796D02*
X-431800D01*
X-421640D01*
Y-10160D01*
X-394462Y9906D02*
Y18542D01*
X-404622D02*
X-394462D01*
X-414782D02*
X-404622D01*
X-414782Y9906D02*
Y18542D01*
Y-19050D02*
Y-10414D01*
Y-19050D02*
X-404622D01*
X-394462D01*
Y-10414D01*
X-330200Y-35560D02*
Y-26924D01*
X-340360D02*
X-330200D01*
X-350520D02*
X-340360D01*
X-350520Y-35560D02*
Y-26924D01*
Y-64516D02*
Y-55880D01*
Y-64516D02*
X-340360D01*
X-330200D01*
Y-55880D01*
X-301498Y-64770D02*
Y-56134D01*
Y-64770D02*
X-291338D01*
X-281178D01*
Y-56134D01*
Y-35814D02*
Y-27178D01*
X-291338D02*
X-281178D01*
X-301498D02*
X-291338D01*
X-301498Y-35814D02*
Y-27178D01*
D46*
X-18448Y140220D02*
X-15654D01*
Y130060D02*
Y140220D01*
X-18448Y130060D02*
X-15654D01*
X-47150Y140220D02*
X-42578D01*
X-47404Y130060D02*
X-41816D01*
X-42578D02*
X-33688D01*
X-42578Y140220D02*
X-33688D01*
X-27338Y130060D02*
X-18448D01*
X-27338Y140220D02*
X-18448D01*
X-227304Y140364D02*
X-218414D01*
X-227304Y130204D02*
X-218414D01*
X-242544Y140364D02*
X-233654D01*
X-242544Y130204D02*
X-233654D01*
X-247370D02*
X-241782D01*
X-247116Y140364D02*
X-242544D01*
X-218414Y130204D02*
X-215620D01*
Y140364D01*
X-218414D02*
X-215620D01*
X181636D02*
X184430D01*
Y130204D02*
Y140364D01*
X181636Y130204D02*
X184430D01*
X152934Y140364D02*
X157506D01*
X152680Y130204D02*
X158268D01*
X157506D02*
X166396D01*
X157506Y140364D02*
X166396D01*
X172746Y130204D02*
X181636D01*
X172746Y140364D02*
X181636D01*
X-242372Y73385D02*
X-235707Y83382D01*
Y73385D02*
X-242372Y83382D01*
X-232375D02*
X-229043D01*
X-230709D01*
Y73385D01*
X-232375Y75051D01*
X-127000Y77053D02*
Y68722D01*
X-128666Y67056D01*
X-131998D01*
X-133665Y68722D01*
Y77053D01*
X-136997Y67056D02*
X-140329D01*
X-138663D01*
Y77053D01*
X-136997Y75387D01*
X245110Y127000D02*
Y136997D01*
X240112D01*
X238445Y135331D01*
Y131998D01*
X240112Y130332D01*
X245110D01*
X241778D02*
X238445Y127000D01*
X228449Y136997D02*
X231781Y135331D01*
X235113Y131998D01*
Y128666D01*
X233447Y127000D01*
X230115D01*
X228449Y128666D01*
Y130332D01*
X230115Y131998D01*
X235113D01*
X184150Y124551D02*
Y114554D01*
X177486D01*
X167489Y124551D02*
X174153D01*
Y114554D01*
X167489D01*
X174153Y119552D02*
X170821D01*
X164156Y124551D02*
Y114554D01*
X159158D01*
X157492Y116220D01*
Y122885D01*
X159158Y124551D01*
X164156D01*
X147495Y114554D02*
X154160D01*
X147495Y121219D01*
Y122885D01*
X149161Y124551D01*
X152493D01*
X154160Y122885D01*
X-304038Y52923D02*
Y42926D01*
X-310702D01*
X-314035Y51257D02*
X-315701Y52923D01*
X-319033D01*
X-320699Y51257D01*
Y49591D01*
X-319033Y47924D01*
X-317367D01*
X-319033D01*
X-320699Y46258D01*
Y44592D01*
X-319033Y42926D01*
X-315701D01*
X-314035Y44592D01*
X-107442Y98389D02*
Y88392D01*
X-114107D01*
X-124103D02*
X-117439D01*
X-124103Y95056D01*
Y96723D01*
X-122437Y98389D01*
X-119105D01*
X-117439Y96723D01*
X-108868Y114867D02*
Y104870D01*
X-115533D01*
X-118865D02*
X-122197D01*
X-120531D01*
Y114867D01*
X-118865Y113201D01*
X-290271Y28895D02*
X-291937Y30562D01*
Y33894D01*
X-290271Y35560D01*
X-283606D01*
X-281940Y33894D01*
Y30562D01*
X-283606Y28895D01*
X-281940Y25563D02*
Y22231D01*
Y23897D01*
X-291937D01*
X-290271Y25563D01*
X-281940Y10568D02*
Y17233D01*
X-288605Y10568D01*
X-290271D01*
X-291937Y12234D01*
Y15566D01*
X-290271Y17233D01*
X-239471Y26356D02*
X-241137Y28022D01*
Y31354D01*
X-239471Y33020D01*
X-232806D01*
X-231140Y31354D01*
Y28022D01*
X-232806Y26356D01*
X-231140Y23023D02*
Y19691D01*
Y21357D01*
X-241137D01*
X-239471Y23023D01*
X-231140Y14693D02*
Y11360D01*
Y13026D01*
X-241137D01*
X-239471Y14693D01*
X-287334Y69291D02*
X-285668Y70957D01*
X-282336D01*
X-280670Y69291D01*
Y62626D01*
X-282336Y60960D01*
X-285668D01*
X-287334Y62626D01*
X-290667Y60960D02*
X-293999D01*
X-292333D01*
Y70957D01*
X-290667Y69291D01*
X-298997D02*
X-300664Y70957D01*
X-303996D01*
X-305662Y69291D01*
Y62626D01*
X-303996Y60960D01*
X-300664D01*
X-298997Y62626D01*
Y69291D01*
X-287535Y83151D02*
X-285868Y84817D01*
X-282536D01*
X-280870Y83151D01*
Y76486D01*
X-282536Y74820D01*
X-285868D01*
X-287535Y76486D01*
X-290867D02*
X-292533Y74820D01*
X-295865D01*
X-297531Y76486D01*
Y83151D01*
X-295865Y84817D01*
X-292533D01*
X-290867Y83151D01*
Y81484D01*
X-292533Y79818D01*
X-297531D01*
X-284182Y105829D02*
X-282516Y107495D01*
X-279184D01*
X-277518Y105829D01*
Y99164D01*
X-279184Y97498D01*
X-282516D01*
X-284182Y99164D01*
X-287515Y107495D02*
X-294179D01*
Y105829D01*
X-287515Y99164D01*
Y97498D01*
X-194107Y126045D02*
X-192441Y124378D01*
Y121046D01*
X-194107Y119380D01*
X-200772D01*
X-202438Y121046D01*
Y124378D01*
X-200772Y126045D01*
X-202438Y134375D02*
X-192441D01*
X-197440Y129377D01*
Y136041D01*
X-176749Y120409D02*
X-178416Y118743D01*
X-181748D01*
X-183414Y120409D01*
Y127074D01*
X-181748Y128740D01*
X-178416D01*
X-176749Y127074D01*
X-173417Y120409D02*
X-171751Y118743D01*
X-168419D01*
X-166753Y120409D01*
Y122076D01*
X-168419Y123742D01*
X-170085D01*
X-168419D01*
X-166753Y125408D01*
Y127074D01*
X-168419Y128740D01*
X-171751D01*
X-173417Y127074D01*
X-250926Y140455D02*
Y130458D01*
X-257591D01*
X-267587Y140455D02*
X-260923D01*
Y130458D01*
X-267587D01*
X-260923Y135456D02*
X-264255D01*
X-270919Y140455D02*
Y130458D01*
X-275918D01*
X-277584Y132124D01*
Y138789D01*
X-275918Y140455D01*
X-270919D01*
X-280916Y130458D02*
X-284249D01*
X-282582D01*
Y140455D01*
X-280916Y138789D01*
X7620Y110744D02*
Y120741D01*
X2622D01*
X956Y119075D01*
Y115742D01*
X2622Y114076D01*
X7620D01*
X4288D02*
X956Y110744D01*
X-2377D02*
X-5709D01*
X-4043D01*
Y120741D01*
X-2377Y119075D01*
X-26670Y126837D02*
Y116840D01*
X-33335D01*
X-43331Y126837D02*
X-36667D01*
Y116840D01*
X-43331D01*
X-36667Y121838D02*
X-39999D01*
X-46664Y126837D02*
Y116840D01*
X-51662D01*
X-53328Y118506D01*
Y125171D01*
X-51662Y126837D01*
X-46664D01*
X-56660Y125171D02*
X-58327Y126837D01*
X-61659D01*
X-63325Y125171D01*
Y123504D01*
X-61659Y121838D01*
X-59993D01*
X-61659D01*
X-63325Y120172D01*
Y118506D01*
X-61659Y116840D01*
X-58327D01*
X-56660Y118506D01*
X-376743Y-32116D02*
Y-25451D01*
X-375076Y-23785D01*
X-371744D01*
X-370078Y-25451D01*
Y-32116D01*
X-371744Y-33782D01*
X-375076D01*
X-373410Y-30450D02*
X-376743Y-33782D01*
X-375076D02*
X-376743Y-32116D01*
X-380075Y-33782D02*
X-383407D01*
X-381741D01*
Y-23785D01*
X-380075Y-25451D01*
X-296926Y-19812D02*
X-286929D01*
Y-14814D01*
X-288595Y-13147D01*
X-291928D01*
X-293594Y-14814D01*
Y-19812D01*
Y-16480D02*
X-296926Y-13147D01*
X-288595Y-9815D02*
X-286929Y-8149D01*
Y-4817D01*
X-288595Y-3151D01*
X-290261D01*
X-291928Y-4817D01*
Y-6483D01*
Y-4817D01*
X-293594Y-3151D01*
X-295260D01*
X-296926Y-4817D01*
Y-8149D01*
X-295260Y-9815D01*
Y182D02*
X-296926Y1848D01*
Y5180D01*
X-295260Y6846D01*
X-288595D01*
X-286929Y5180D01*
Y1848D01*
X-288595Y182D01*
X-290261D01*
X-291928Y1848D01*
Y6846D01*
X-333248Y4064D02*
X-343245D01*
Y-934D01*
X-341579Y-2600D01*
X-338246D01*
X-336580Y-934D01*
Y4064D01*
Y732D02*
X-333248Y-2600D01*
Y-10931D02*
X-343245D01*
X-338246Y-5933D01*
Y-12597D01*
X-341579Y-15930D02*
X-343245Y-17596D01*
Y-20928D01*
X-341579Y-22594D01*
X-334914D01*
X-333248Y-20928D01*
Y-17596D01*
X-334914Y-15930D01*
X-341579D01*
X-455371Y3241D02*
X-457037Y4908D01*
Y8240D01*
X-455371Y9906D01*
X-448706D01*
X-447040Y8240D01*
Y4908D01*
X-448706Y3241D01*
X-447040Y-6755D02*
Y-91D01*
X-453704Y-6755D01*
X-455371D01*
X-457037Y-5089D01*
Y-1757D01*
X-455371Y-91D01*
X-387553Y5781D02*
X-389219Y7448D01*
Y10780D01*
X-387553Y12446D01*
X-380888D01*
X-379222Y10780D01*
Y7448D01*
X-380888Y5781D01*
X-379222Y2449D02*
Y-883D01*
Y783D01*
X-389219D01*
X-387553Y2449D01*
X-379222Y-10880D02*
X-389219D01*
X-384220Y-5881D01*
Y-12546D01*
X-236779Y-13656D02*
X-235113Y-15322D01*
Y-18654D01*
X-236779Y-20320D01*
X-243444D01*
X-245110Y-18654D01*
Y-15322D01*
X-243444Y-13656D01*
X-245110Y-10323D02*
Y-6991D01*
Y-8657D01*
X-235113D01*
X-236779Y-10323D01*
X-235113Y4672D02*
Y-1993D01*
X-240112D01*
X-238445Y1340D01*
Y3006D01*
X-240112Y4672D01*
X-243444D01*
X-245110Y3006D01*
Y-327D01*
X-243444Y-1993D01*
X-222758Y-20320D02*
X-212761D01*
Y-15322D01*
X-214427Y-13656D01*
X-217760D01*
X-219426Y-15322D01*
Y-20320D01*
Y-16988D02*
X-222758Y-13656D01*
Y-3659D02*
Y-10323D01*
X-216094Y-3659D01*
X-214427D01*
X-212761Y-5325D01*
Y-8657D01*
X-214427Y-10323D01*
X-269748Y-20066D02*
X-259751D01*
Y-15068D01*
X-261417Y-13401D01*
X-264750D01*
X-266416Y-15068D01*
Y-20066D01*
Y-16734D02*
X-269748Y-13401D01*
Y-10069D02*
Y-6737D01*
Y-8403D01*
X-259751D01*
X-261417Y-10069D01*
X-269748Y-1739D02*
Y1594D01*
Y-72D01*
X-259751D01*
X-261417Y-1739D01*
D70*
X-16416Y135013D02*
D03*
X-216382Y135157D02*
D03*
X183668D02*
D03*
M02*
