G04 Layer_Physical_Order=2*
G04 Layer_Color=16711680*
%FSLAX44Y44*%
%MOMM*%
G71*
G01*
G75*
%ADD11C,0.2540*%
%ADD12C,1.0000*%
%ADD13C,0.9000*%
%ADD14O,1.2000X2.0000*%
%ADD15C,3.0000*%
%ADD16C,1.0000*%
%ADD17C,1.5000*%
%ADD18R,1.2700X1.3970*%
%ADD19R,3.7500X1.5000*%
%ADD20O,0.6000X2.0000*%
G36*
X-74830Y414469D02*
X-69964Y412993D01*
X-65481Y410597D01*
X-61551Y407371D01*
X-58326Y403441D01*
X-55929Y398957D01*
X-54453Y394092D01*
X-53980Y389293D01*
X-54032Y389033D01*
Y89033D01*
X-53980Y88772D01*
X-54453Y83973D01*
X-55929Y79108D01*
X-58326Y74624D01*
X-61551Y70694D01*
X-65481Y67469D01*
X-69964Y65072D01*
X-74830Y63597D01*
X-79629Y63124D01*
X-79889Y63176D01*
X-379889D01*
X-380150Y63124D01*
X-384949Y63597D01*
X-389814Y65072D01*
X-394298Y67469D01*
X-398228Y70694D01*
X-401453Y74624D01*
X-403850Y79108D01*
X-405326Y83973D01*
X-405798Y88772D01*
X-405746Y89033D01*
Y389033D01*
X-405798Y389293D01*
X-405326Y394092D01*
X-403850Y398957D01*
X-401453Y403441D01*
X-398228Y407371D01*
X-394298Y410597D01*
X-389814Y412993D01*
X-384949Y414469D01*
X-380150Y414941D01*
X-379889Y414890D01*
X-79889D01*
X-79889D01*
D01*
D01*
X-79629Y414941D01*
X-74830Y414469D01*
D02*
G37*
%LPC*%
G36*
X-374890Y403122D02*
X-378615Y402755D01*
X-382196Y401669D01*
X-385497Y399904D01*
X-388390Y397530D01*
X-390764Y394637D01*
X-392529Y391336D01*
X-393615Y387755D01*
X-393982Y384030D01*
X-393615Y380305D01*
X-392529Y376724D01*
X-390764Y373423D01*
X-388390Y370530D01*
X-385497Y368156D01*
X-382196Y366391D01*
X-378615Y365305D01*
X-374890Y364938D01*
X-371165Y365305D01*
X-367584Y366391D01*
X-364283Y368156D01*
X-361390Y370530D01*
X-359016Y373423D01*
X-357251Y376724D01*
X-356165Y380305D01*
X-355798Y384030D01*
X-356165Y387755D01*
X-357251Y391336D01*
X-359016Y394637D01*
X-361390Y397530D01*
X-364283Y399904D01*
X-367584Y401669D01*
X-371165Y402755D01*
X-374890Y403122D01*
D02*
G37*
G36*
X-84890D02*
X-88615Y402755D01*
X-92196Y401669D01*
X-95497Y399904D01*
X-98390Y397530D01*
X-100764Y394637D01*
X-102529Y391336D01*
X-103615Y387755D01*
X-103982Y384030D01*
X-103615Y380305D01*
X-102529Y376724D01*
X-100764Y373423D01*
X-98390Y370530D01*
X-95497Y368156D01*
X-92196Y366391D01*
X-88615Y365305D01*
X-84890Y364938D01*
X-81165Y365305D01*
X-77584Y366391D01*
X-74283Y368156D01*
X-71390Y370530D01*
X-69016Y373423D01*
X-67251Y376724D01*
X-66165Y380305D01*
X-65798Y384030D01*
X-66165Y387755D01*
X-67251Y391336D01*
X-69016Y394637D01*
X-71390Y397530D01*
X-74283Y399904D01*
X-77584Y401669D01*
X-81165Y402755D01*
X-84890Y403122D01*
D02*
G37*
G36*
X-108220Y236985D02*
X-128920D01*
Y215015D01*
X-126812D01*
X-127078Y213000D01*
X-126768Y210651D01*
X-125861Y208461D01*
X-124419Y206581D01*
X-122539Y205139D01*
X-120350Y204232D01*
X-118000Y203922D01*
X-115651Y204232D01*
X-113461Y205139D01*
X-111581Y206581D01*
X-110139Y208461D01*
X-109232Y210651D01*
X-108922Y213000D01*
X-109188Y215015D01*
X-108220D01*
Y236985D01*
D02*
G37*
G36*
X-353000Y200078D02*
X-354302Y199819D01*
X-354561Y199768D01*
X-355884Y198884D01*
X-360884Y193884D01*
X-360884Y193884D01*
X-363884Y190884D01*
X-364768Y189561D01*
X-364819Y189302D01*
X-365078Y188000D01*
X-365078Y188000D01*
Y177000D01*
X-365078Y165000D01*
X-365078Y165000D01*
X-364768Y163439D01*
X-363884Y162116D01*
X-353884Y152116D01*
X-353884Y152116D01*
X-352561Y151232D01*
X-352302Y151181D01*
X-351000Y150922D01*
X-351000Y150922D01*
X-322000Y150922D01*
X-303000D01*
X-303000Y150922D01*
X-301439Y151232D01*
X-301000Y151525D01*
X-300116Y152116D01*
X-300116Y152116D01*
X-293116Y159116D01*
X-293116Y159116D01*
X-291116Y161116D01*
X-290232Y162439D01*
X-290181Y162698D01*
X-289922Y164000D01*
X-289922Y164000D01*
Y185000D01*
X-289922Y185000D01*
X-290232Y186561D01*
X-290823Y187445D01*
X-291116Y187884D01*
X-291116D01*
Y187884D01*
X-302116Y198884D01*
X-302773Y199323D01*
X-303439Y199768D01*
X-303439D01*
X-303439Y199768D01*
X-305000Y200078D01*
X-305000Y200078D01*
X-320000Y200078D01*
X-353000D01*
X-353000Y200078D01*
D02*
G37*
G36*
X-250000Y203573D02*
X-252219Y203281D01*
X-254287Y202425D01*
X-256062Y201062D01*
X-257425Y199287D01*
X-258281Y197219D01*
X-258573Y195000D01*
X-258281Y192781D01*
X-257425Y190713D01*
X-256062Y188938D01*
X-254287Y187575D01*
X-252219Y186719D01*
X-250000Y186427D01*
X-247781Y186719D01*
X-245713Y187575D01*
X-243938Y188938D01*
X-242575Y190713D01*
X-241719Y192781D01*
X-241427Y195000D01*
X-241719Y197219D01*
X-242575Y199287D01*
X-243938Y201062D01*
X-245713Y202425D01*
X-247781Y203281D01*
X-250000Y203573D01*
D02*
G37*
G36*
X-374890Y113122D02*
X-378615Y112755D01*
X-382196Y111669D01*
X-385497Y109904D01*
X-388390Y107530D01*
X-390764Y104637D01*
X-392529Y101336D01*
X-393615Y97755D01*
X-393982Y94030D01*
X-393615Y90305D01*
X-392529Y86724D01*
X-390764Y83423D01*
X-388390Y80530D01*
X-385497Y78156D01*
X-382196Y76391D01*
X-378615Y75305D01*
X-374890Y74938D01*
X-371165Y75305D01*
X-367584Y76391D01*
X-364283Y78156D01*
X-361390Y80530D01*
X-359016Y83423D01*
X-357251Y86724D01*
X-356165Y90305D01*
X-355798Y94030D01*
X-356165Y97755D01*
X-357251Y101336D01*
X-359016Y104637D01*
X-361390Y107530D01*
X-364283Y109904D01*
X-367584Y111669D01*
X-371165Y112755D01*
X-374890Y113122D01*
D02*
G37*
G36*
X-129000Y403373D02*
X-224000D01*
X-226056Y402964D01*
X-227799Y401800D01*
X-233799Y395799D01*
X-234964Y394056D01*
X-235207Y392838D01*
X-237390Y393743D01*
X-240000Y394086D01*
X-242610Y393743D01*
X-245043Y392735D01*
X-247132Y391132D01*
X-248735Y389043D01*
X-249743Y386610D01*
X-250000Y384655D01*
X-250257Y386610D01*
X-251265Y389043D01*
X-252868Y391132D01*
X-254957Y392735D01*
X-257390Y393743D01*
X-260000Y394086D01*
X-262610Y393743D01*
X-265043Y392735D01*
X-267132Y391132D01*
X-268735Y389043D01*
X-269743Y386610D01*
X-270000Y384655D01*
X-270257Y386610D01*
X-271265Y389043D01*
X-272868Y391132D01*
X-274957Y392735D01*
X-277390Y393743D01*
X-280000Y394086D01*
X-282610Y393743D01*
X-285043Y392735D01*
X-287132Y391132D01*
X-288735Y389043D01*
X-289743Y386610D01*
X-290086Y384000D01*
Y376000D01*
X-289743Y373390D01*
X-288735Y370957D01*
X-287132Y368868D01*
X-285043Y367265D01*
X-282610Y366257D01*
X-280000Y365914D01*
X-277390Y366257D01*
X-274957Y367265D01*
X-272868Y368868D01*
X-271265Y370957D01*
X-270257Y373390D01*
X-270000Y375345D01*
X-269743Y373390D01*
X-268735Y370957D01*
X-267132Y368868D01*
X-265043Y367265D01*
X-262610Y366257D01*
X-260000Y365914D01*
X-257390Y366257D01*
X-254957Y367265D01*
X-252868Y368868D01*
X-251265Y370957D01*
X-250257Y373390D01*
X-250000Y375345D01*
X-249743Y373390D01*
X-248735Y370957D01*
X-247132Y368868D01*
X-245043Y367265D01*
X-242610Y366257D01*
X-240000Y365914D01*
X-237390Y366257D01*
X-235373Y367093D01*
Y364226D01*
X-241600Y357999D01*
X-242764Y356256D01*
X-243173Y354200D01*
Y352496D01*
X-243539Y352020D01*
X-243608Y351956D01*
X-243640Y351888D01*
X-243915Y351530D01*
X-244150Y350962D01*
X-244386Y351530D01*
X-245508Y352993D01*
X-246970Y354114D01*
X-248673Y354820D01*
X-250500Y355060D01*
X-252327Y354820D01*
X-254030Y354114D01*
X-255492Y352993D01*
X-256614Y351530D01*
X-256850Y350962D01*
X-257085Y351530D01*
X-258208Y352993D01*
X-259670Y354114D01*
X-261373Y354820D01*
X-263200Y355060D01*
X-265027Y354820D01*
X-266730Y354114D01*
X-268193Y352993D01*
X-269314Y351530D01*
X-269550Y350962D01*
X-269785Y351530D01*
X-270908Y352993D01*
X-272370Y354114D01*
X-274073Y354820D01*
X-275900Y355060D01*
X-277727Y354820D01*
X-279430Y354114D01*
X-280893Y352993D01*
X-282015Y351530D01*
X-282720Y349827D01*
X-282960Y348000D01*
Y346583D01*
X-283762Y345539D01*
X-284668Y343349D01*
X-284978Y341000D01*
Y322760D01*
X-285078Y322000D01*
X-284768Y319650D01*
X-283862Y317461D01*
X-282419Y315581D01*
X-280539Y314139D01*
X-278349Y313232D01*
X-276000Y312922D01*
X-273651Y313232D01*
X-272368Y313763D01*
X-271461Y314139D01*
X-269581Y315581D01*
X-269481Y315681D01*
X-268039Y317561D01*
X-267938Y317805D01*
X-266999Y316401D01*
X-245303Y294704D01*
X-245281Y294656D01*
X-245238Y294535D01*
X-245190Y294360D01*
X-245145Y294128D01*
X-245108Y293838D01*
X-245085Y293491D01*
X-245078Y292991D01*
X-245075Y292977D01*
X-244768Y290651D01*
X-243862Y288461D01*
X-242419Y286581D01*
X-240539Y285138D01*
X-238349Y284232D01*
X-236000Y283922D01*
X-233650Y284232D01*
X-231461Y285138D01*
X-229581Y286581D01*
X-228139Y288461D01*
X-227232Y290651D01*
X-226922Y293000D01*
X-227232Y295350D01*
X-228139Y297539D01*
X-229581Y299419D01*
X-231461Y300861D01*
X-233650Y301768D01*
X-235977Y302075D01*
X-235991Y302078D01*
X-236491Y302085D01*
X-236838Y302108D01*
X-237128Y302145D01*
X-237360Y302190D01*
X-237535Y302238D01*
X-237656Y302281D01*
X-237704Y302303D01*
X-257827Y322426D01*
Y329504D01*
X-257461Y329980D01*
X-257391Y330044D01*
X-257360Y330112D01*
X-257085Y330470D01*
X-256850Y331038D01*
X-256614Y330470D01*
X-255492Y329007D01*
X-254030Y327886D01*
X-252327Y327180D01*
X-250500Y326940D01*
X-248673Y327180D01*
X-246970Y327886D01*
X-245508Y329007D01*
X-244386Y330470D01*
X-244150Y331038D01*
X-243915Y330470D01*
X-242792Y329007D01*
X-241330Y327886D01*
X-239627Y327180D01*
X-237800Y326940D01*
X-235973Y327180D01*
X-234270Y327886D01*
X-232808Y329007D01*
X-231686Y330470D01*
X-231450Y331038D01*
X-231215Y330470D01*
X-230093Y329007D01*
X-228630Y327886D01*
X-226927Y327180D01*
X-226875Y327173D01*
X-226870Y327172D01*
X-226843Y327155D01*
X-226805Y327128D01*
X-226304Y326705D01*
X-151093Y251494D01*
X-151068Y251465D01*
X-150948Y251306D01*
X-150865Y251181D01*
X-150815Y251091D01*
X-150797Y251052D01*
X-150792Y250947D01*
X-150780Y250900D01*
Y241015D01*
X-130080D01*
Y260015D01*
Y279015D01*
X-130080D01*
Y298015D01*
X-129650D01*
Y317015D01*
Y338985D01*
X-140271D01*
X-139139Y340461D01*
X-138232Y342650D01*
X-137922Y345000D01*
X-138232Y347350D01*
X-139139Y349539D01*
X-140581Y351419D01*
X-142461Y352861D01*
X-144650Y353768D01*
X-144815Y353790D01*
X-144200Y354201D01*
X-136201Y362201D01*
X-135036Y363944D01*
X-134627Y366000D01*
Y367518D01*
X-132868Y368868D01*
X-131265Y370957D01*
X-130257Y373390D01*
X-129914Y376000D01*
Y384000D01*
X-130257Y386610D01*
X-131265Y389043D01*
X-132868Y391132D01*
X-134816Y392627D01*
X-131226D01*
X-122513Y383914D01*
Y338985D01*
X-127490D01*
Y317015D01*
Y300985D01*
X-127920D01*
Y281985D01*
X-127920D01*
Y260015D01*
Y241015D01*
X-107220D01*
Y260015D01*
Y279015D01*
X-107220D01*
Y298015D01*
X-106790D01*
Y317015D01*
Y338985D01*
X-111767D01*
Y386140D01*
X-112176Y388196D01*
X-113341Y389939D01*
X-125201Y401800D01*
X-126944Y402964D01*
X-129000Y403373D01*
D02*
G37*
G36*
X-238000Y270078D02*
X-240350Y269768D01*
X-242539Y268862D01*
X-244419Y267419D01*
X-245861Y265539D01*
X-246768Y263349D01*
X-247078Y261000D01*
X-246768Y258650D01*
X-246033Y256876D01*
X-246970Y257595D01*
X-248673Y258300D01*
X-250500Y258540D01*
X-252327Y258300D01*
X-254030Y257595D01*
X-255492Y256472D01*
X-256614Y255010D01*
X-256850Y254442D01*
X-257085Y255010D01*
X-258208Y256472D01*
X-259670Y257595D01*
X-261373Y258300D01*
X-263200Y258540D01*
X-265027Y258300D01*
X-266730Y257595D01*
X-268193Y256472D01*
X-269314Y255010D01*
X-270020Y253307D01*
X-270260Y251480D01*
Y237480D01*
X-270020Y235653D01*
X-269314Y233950D01*
X-269040Y233592D01*
X-269009Y233524D01*
X-268939Y233460D01*
X-268579Y232991D01*
X-268573Y232925D01*
Y220200D01*
X-268164Y218144D01*
X-266999Y216401D01*
X-256800Y206201D01*
X-255056Y205036D01*
X-253000Y204627D01*
X-214226D01*
X-212687Y203088D01*
X-214287Y202425D01*
X-216062Y201062D01*
X-217425Y199287D01*
X-218281Y197219D01*
X-218573Y195000D01*
X-218281Y192781D01*
X-217425Y190713D01*
X-216062Y188938D01*
X-214287Y187575D01*
X-212219Y186719D01*
X-210000Y186427D01*
X-207781Y186719D01*
X-205713Y187575D01*
X-204373Y188604D01*
Y169226D01*
X-243799Y129799D01*
X-244964Y128056D01*
X-245373Y126000D01*
Y111482D01*
X-247132Y110132D01*
X-248735Y108043D01*
X-249743Y105611D01*
X-250000Y103655D01*
X-250257Y105611D01*
X-251265Y108043D01*
X-252868Y110132D01*
X-254957Y111735D01*
X-257390Y112743D01*
X-260000Y113086D01*
X-262610Y112743D01*
X-265043Y111735D01*
X-267132Y110132D01*
X-268735Y108043D01*
X-269743Y105611D01*
X-270000Y103655D01*
X-270257Y105611D01*
X-271265Y108043D01*
X-272868Y110132D01*
X-274957Y111735D01*
X-277390Y112743D01*
X-280000Y113086D01*
X-282610Y112743D01*
X-285043Y111735D01*
X-287132Y110132D01*
X-288735Y108043D01*
X-289743Y105611D01*
X-290086Y103000D01*
Y95000D01*
X-289743Y92389D01*
X-288735Y89957D01*
X-287132Y87868D01*
X-285043Y86265D01*
X-282610Y85257D01*
X-280000Y84914D01*
X-277390Y85257D01*
X-274957Y86265D01*
X-272868Y87868D01*
X-271265Y89957D01*
X-270257Y92389D01*
X-270000Y94345D01*
X-269743Y92389D01*
X-268735Y89957D01*
X-267132Y87868D01*
X-265043Y86265D01*
X-262610Y85257D01*
X-260000Y84914D01*
X-257390Y85257D01*
X-254957Y86265D01*
X-252868Y87868D01*
X-251265Y89957D01*
X-250257Y92389D01*
X-250000Y94345D01*
X-249743Y92389D01*
X-248735Y89957D01*
X-247132Y87868D01*
X-245043Y86265D01*
X-242610Y85257D01*
X-240000Y84914D01*
X-237390Y85257D01*
X-234957Y86265D01*
X-232868Y87868D01*
X-231265Y89957D01*
X-230257Y92389D01*
X-230000Y94345D01*
X-229743Y92389D01*
X-228735Y89957D01*
X-227132Y87868D01*
X-225043Y86265D01*
X-222610Y85257D01*
X-220000Y84914D01*
X-217390Y85257D01*
X-214957Y86265D01*
X-212868Y87868D01*
X-211265Y89957D01*
X-210257Y92389D01*
X-210000Y94345D01*
X-209743Y92389D01*
X-208735Y89957D01*
X-207132Y87868D01*
X-205043Y86265D01*
X-202610Y85257D01*
X-200000Y84914D01*
X-197390Y85257D01*
X-194957Y86265D01*
X-192868Y87868D01*
X-191265Y89957D01*
X-190257Y92389D01*
X-190000Y94345D01*
X-189743Y92389D01*
X-188735Y89957D01*
X-187132Y87868D01*
X-185043Y86265D01*
X-182610Y85257D01*
X-180000Y84914D01*
X-177390Y85257D01*
X-174957Y86265D01*
X-172868Y87868D01*
X-171265Y89957D01*
X-170257Y92389D01*
X-170000Y94345D01*
X-169743Y92389D01*
X-168735Y89957D01*
X-167132Y87868D01*
X-165043Y86265D01*
X-162610Y85257D01*
X-160000Y84914D01*
X-157389Y85257D01*
X-154957Y86265D01*
X-152868Y87868D01*
X-151265Y89957D01*
X-150257Y92389D01*
X-150000Y94345D01*
X-149743Y92389D01*
X-148735Y89957D01*
X-147132Y87868D01*
X-145043Y86265D01*
X-142611Y85257D01*
X-140000Y84914D01*
X-137389Y85257D01*
X-134957Y86265D01*
X-132868Y87868D01*
X-131265Y89957D01*
X-130257Y92389D01*
X-129914Y95000D01*
Y103000D01*
X-130257Y105611D01*
X-131265Y108043D01*
X-132868Y110132D01*
X-134627Y111482D01*
Y186000D01*
X-135036Y188056D01*
X-136201Y189799D01*
X-168927Y222526D01*
Y232984D01*
X-168561Y233460D01*
X-168491Y233524D01*
X-168460Y233592D01*
X-168186Y233950D01*
X-167480Y235653D01*
X-167240Y237480D01*
Y251480D01*
X-167480Y253307D01*
X-168186Y255010D01*
X-169308Y256472D01*
X-170770Y257595D01*
X-172473Y258300D01*
X-174300Y258540D01*
X-176127Y258300D01*
X-177830Y257595D01*
X-179293Y256472D01*
X-180415Y255010D01*
X-180650Y254442D01*
X-180886Y255010D01*
X-182008Y256472D01*
X-183470Y257595D01*
X-185173Y258300D01*
X-187000Y258540D01*
X-188827Y258300D01*
X-190530Y257595D01*
X-191992Y256472D01*
X-193114Y255010D01*
X-193350Y254442D01*
X-193585Y255010D01*
X-194708Y256472D01*
X-196170Y257595D01*
X-197873Y258300D01*
X-199700Y258540D01*
X-201527Y258300D01*
X-203230Y257595D01*
X-204692Y256472D01*
X-205814Y255010D01*
X-206050Y254442D01*
X-206285Y255010D01*
X-207408Y256472D01*
X-208870Y257595D01*
X-210573Y258300D01*
X-212400Y258540D01*
X-214227Y258300D01*
X-215930Y257595D01*
X-217393Y256472D01*
X-218514Y255010D01*
X-218750Y254442D01*
X-218986Y255010D01*
X-220108Y256472D01*
X-221570Y257595D01*
X-223273Y258300D01*
X-225100Y258540D01*
X-226927Y258300D01*
X-228630Y257595D01*
X-230093Y256472D01*
X-231215Y255010D01*
X-231450Y254442D01*
X-231526Y254625D01*
X-231328Y254844D01*
X-231152Y255140D01*
X-230139Y256461D01*
X-229232Y258650D01*
X-228922Y261000D01*
X-229232Y263349D01*
X-230139Y265539D01*
X-231581Y267419D01*
X-233461Y268862D01*
X-235651Y269768D01*
X-238000Y270078D01*
D02*
G37*
G36*
X-84890Y113122D02*
X-88615Y112755D01*
X-92196Y111669D01*
X-95497Y109904D01*
X-98390Y107530D01*
X-100764Y104637D01*
X-102529Y101336D01*
X-103615Y97755D01*
X-103982Y94030D01*
X-103615Y90305D01*
X-102529Y86724D01*
X-100764Y83423D01*
X-98390Y80530D01*
X-95497Y78156D01*
X-92196Y76391D01*
X-88615Y75305D01*
X-84890Y74938D01*
X-81165Y75305D01*
X-77584Y76391D01*
X-74283Y78156D01*
X-71390Y80530D01*
X-69016Y83423D01*
X-67251Y86724D01*
X-66165Y90305D01*
X-65798Y94030D01*
X-66165Y97755D01*
X-67251Y101336D01*
X-69016Y104637D01*
X-71390Y107530D01*
X-74283Y109904D01*
X-77584Y111669D01*
X-81165Y112755D01*
X-84890Y113122D01*
D02*
G37*
%LPD*%
G36*
X-260921Y235894D02*
X-261133Y235784D01*
X-261320Y235600D01*
X-261481Y235342D01*
X-261619Y235011D01*
X-261731Y234606D01*
X-261818Y234128D01*
X-261880Y233576D01*
X-261918Y232951D01*
X-261930Y232252D01*
X-264470D01*
X-264482Y232951D01*
X-264582Y234128D01*
X-264669Y234606D01*
X-264781Y235011D01*
X-264918Y235342D01*
X-265081Y235600D01*
X-265267Y235784D01*
X-265479Y235894D01*
X-265716Y235931D01*
X-260684D01*
X-260921Y235894D01*
D02*
G37*
G36*
X-231215Y233950D02*
X-230442Y232943D01*
X-230064Y231044D01*
X-228899Y229301D01*
X-214972Y215373D01*
X-250774D01*
X-257827Y222426D01*
Y232984D01*
X-257461Y233460D01*
X-257391Y233524D01*
X-257360Y233592D01*
X-257085Y233950D01*
X-256850Y234518D01*
X-256614Y233950D01*
X-255492Y232488D01*
X-254030Y231366D01*
X-252327Y230660D01*
X-250500Y230420D01*
X-248673Y230660D01*
X-246970Y231366D01*
X-245508Y232488D01*
X-244386Y233950D01*
X-244150Y234518D01*
X-243915Y233950D01*
X-242792Y232488D01*
X-241330Y231366D01*
X-239627Y230660D01*
X-237800Y230420D01*
X-235973Y230660D01*
X-234270Y231366D01*
X-232808Y232488D01*
X-231686Y233950D01*
X-231450Y234518D01*
X-231215Y233950D01*
D02*
G37*
G36*
X-117276Y220522D02*
X-117205Y220099D01*
X-117087Y219683D01*
X-116921Y219273D01*
X-116800Y219046D01*
X-116030D01*
X-116271Y219020D01*
X-116487Y218944D01*
X-116674Y218819D01*
X-116447Y218472D01*
X-116139Y218081D01*
X-115783Y217697D01*
X-115380Y217318D01*
X-114930Y216947D01*
X-117296Y216675D01*
X-117300Y216506D01*
X-118773D01*
X-121884Y216148D01*
X-121496Y216647D01*
X-120842Y217613D01*
X-120576Y218079D01*
X-120351Y218535D01*
X-120305Y218647D01*
X-120462Y218817D01*
X-120653Y218944D01*
X-120869Y219020D01*
X-121110Y219046D01*
X-120145D01*
X-120024Y219413D01*
X-119922Y219836D01*
X-119860Y220248D01*
X-119840Y220649D01*
X-117300Y220951D01*
X-117276Y220522D01*
D02*
G37*
G36*
X-172021Y235894D02*
X-172233Y235784D01*
X-172419Y235600D01*
X-172582Y235342D01*
X-172719Y235011D01*
X-172831Y234606D01*
X-172918Y234128D01*
X-172980Y233576D01*
X-173018Y232951D01*
X-173030Y232252D01*
X-175570D01*
X-175583Y232951D01*
X-175682Y234128D01*
X-175769Y234606D01*
X-175882Y235011D01*
X-176019Y235342D01*
X-176180Y235600D01*
X-176367Y235784D01*
X-176579Y235894D01*
X-176816Y235931D01*
X-171784D01*
X-172021Y235894D01*
D02*
G37*
G36*
X-223746Y234850D02*
X-223764Y234797D01*
X-223780Y234708D01*
X-223793Y234585D01*
X-223821Y234002D01*
X-223830Y233100D01*
X-226370D01*
X-226371Y233436D01*
X-226454Y234850D01*
X-226473Y234868D01*
X-223727D01*
X-223746Y234850D01*
D02*
G37*
G36*
X-234772Y257114D02*
X-235467Y256213D01*
X-235749Y255770D01*
X-235987Y255332D01*
X-236183Y254900D01*
X-236335Y254472D01*
X-236345Y254432D01*
X-236331Y254354D01*
X-236219Y253949D01*
X-236082Y253618D01*
X-235919Y253360D01*
X-235733Y253176D01*
X-235521Y253066D01*
X-235284Y253029D01*
X-240316D01*
X-240079Y253066D01*
X-239867Y253176D01*
X-239681Y253360D01*
X-239519Y253618D01*
X-239382Y253949D01*
X-239269Y254354D01*
X-239269Y254354D01*
X-239276Y254378D01*
X-239436Y254797D01*
X-239641Y255215D01*
X-239892Y255632D01*
X-240189Y256048D01*
X-240532Y256464D01*
X-240920Y256878D01*
X-241354Y257292D01*
X-234360Y257572D01*
X-234772Y257114D01*
D02*
G37*
G36*
X-210121Y235894D02*
X-210333Y235784D01*
X-210520Y235600D01*
X-210681Y235342D01*
X-210819Y235011D01*
X-210931Y234606D01*
X-211018Y234128D01*
X-211080Y233576D01*
X-211118Y232951D01*
X-211130Y232252D01*
X-213670D01*
X-213682Y232951D01*
X-213782Y234128D01*
X-213869Y234606D01*
X-213981Y235011D01*
X-214118Y235342D01*
X-214280Y235600D01*
X-214467Y235784D01*
X-214679Y235894D01*
X-214916Y235931D01*
X-209884D01*
X-210121Y235894D01*
D02*
G37*
G36*
X-197421D02*
X-197633Y235784D01*
X-197819Y235600D01*
X-197981Y235342D01*
X-198119Y235011D01*
X-198231Y234606D01*
X-198318Y234128D01*
X-198380Y233576D01*
X-198418Y232951D01*
X-198430Y232252D01*
X-200970D01*
X-200982Y232951D01*
X-201082Y234128D01*
X-201169Y234606D01*
X-201282Y235011D01*
X-201418Y235342D01*
X-201581Y235600D01*
X-201767Y235784D01*
X-201979Y235894D01*
X-202216Y235931D01*
X-197184D01*
X-197421Y235894D01*
D02*
G37*
G36*
X-184721D02*
X-184933Y235784D01*
X-185119Y235600D01*
X-185282Y235342D01*
X-185419Y235011D01*
X-185531Y234606D01*
X-185618Y234128D01*
X-185680Y233576D01*
X-185718Y232951D01*
X-185730Y232252D01*
X-188270D01*
X-188283Y232951D01*
X-188382Y234128D01*
X-188469Y234606D01*
X-188582Y235011D01*
X-188718Y235342D01*
X-188881Y235600D01*
X-189067Y235784D01*
X-189279Y235894D01*
X-189516Y235931D01*
X-184484D01*
X-184721Y235894D01*
D02*
G37*
G36*
X-190373Y148226D02*
X-203799Y134799D01*
X-204964Y133056D01*
X-205373Y131000D01*
Y111482D01*
X-207132Y110132D01*
X-208735Y108043D01*
X-209743Y105611D01*
X-210000Y103655D01*
X-210257Y105611D01*
X-211265Y108043D01*
X-212868Y110132D01*
X-214627Y111482D01*
Y124774D01*
X-190373Y149028D01*
Y148226D01*
D02*
G37*
G36*
X-145373Y183774D02*
Y111482D01*
X-147132Y110132D01*
X-148735Y108043D01*
X-149743Y105611D01*
X-150000Y103655D01*
X-150257Y105611D01*
X-151265Y108043D01*
X-152868Y110132D01*
X-154627Y111482D01*
Y193028D01*
X-145373Y183774D01*
D02*
G37*
G36*
X-178650Y111369D02*
X-178638Y110797D01*
X-178537Y109834D01*
X-178449Y109441D01*
X-178336Y109109D01*
X-178198Y108836D01*
X-178035Y108623D01*
X-177846Y108469D01*
X-177633Y108376D01*
X-177394Y108342D01*
X-182446Y108427D01*
X-182207Y108453D01*
X-181994Y108540D01*
X-181805Y108687D01*
X-181642Y108895D01*
X-181504Y109164D01*
X-181391Y109493D01*
X-181303Y109883D01*
X-181240Y110334D01*
X-181203Y110845D01*
X-181190Y111417D01*
X-178650Y111369D01*
D02*
G37*
G36*
X-197373Y157226D02*
X-223799Y130800D01*
X-224964Y129056D01*
X-225373Y127000D01*
Y111482D01*
X-227132Y110132D01*
X-228735Y108043D01*
X-229743Y105611D01*
X-230000Y103655D01*
X-230257Y105611D01*
X-231265Y108043D01*
X-232868Y110132D01*
X-234627Y111482D01*
Y123774D01*
X-197373Y161028D01*
Y157226D01*
D02*
G37*
G36*
X-185293Y111543D02*
X-187132Y110132D01*
X-188735Y108043D01*
X-189743Y105611D01*
X-190000Y103655D01*
X-190257Y105611D01*
X-191265Y108043D01*
X-192868Y110132D01*
X-194627Y111482D01*
Y128774D01*
X-185293Y138108D01*
Y111543D01*
D02*
G37*
G36*
X-165373Y191774D02*
Y111482D01*
X-167132Y110132D01*
X-168735Y108043D01*
X-169743Y105611D01*
X-170000Y103655D01*
X-170257Y105611D01*
X-171265Y108043D01*
X-172868Y110132D01*
X-174547Y111420D01*
Y200948D01*
X-165373Y191774D01*
D02*
G37*
G36*
X-158717Y110821D02*
X-158617Y109859D01*
X-158529Y109467D01*
X-158416Y109136D01*
X-158278Y108866D01*
X-158115Y108655D01*
X-157926Y108505D01*
X-157713Y108414D01*
X-157474Y108384D01*
X-162526D01*
X-162287Y108414D01*
X-162074Y108505D01*
X-161885Y108655D01*
X-161722Y108866D01*
X-161584Y109136D01*
X-161471Y109467D01*
X-161383Y109859D01*
X-161320Y110310D01*
X-161283Y110821D01*
X-161270Y111393D01*
X-158730D01*
X-158717Y110821D01*
D02*
G37*
G36*
X-138717D02*
X-138617Y109859D01*
X-138529Y109467D01*
X-138416Y109136D01*
X-138278Y108866D01*
X-138115Y108655D01*
X-137926Y108505D01*
X-137713Y108414D01*
X-137474Y108384D01*
X-142526D01*
X-142287Y108414D01*
X-142074Y108505D01*
X-141885Y108655D01*
X-141722Y108866D01*
X-141584Y109136D01*
X-141471Y109467D01*
X-141383Y109859D01*
X-141320Y110310D01*
X-141283Y110821D01*
X-141270Y111393D01*
X-138730D01*
X-138717Y110821D01*
D02*
G37*
G36*
X-305000Y196000D02*
X-294000Y185000D01*
Y164000D01*
X-296000Y162000D01*
X-303000Y155000D01*
X-322000D01*
X-351000Y155000D01*
X-361000Y165000D01*
X-361000Y177000D01*
Y188000D01*
X-358000Y191000D01*
X-353000Y196000D01*
X-320000D01*
X-305000Y196000D01*
D02*
G37*
G36*
X-238717Y110821D02*
X-238617Y109859D01*
X-238529Y109467D01*
X-238416Y109136D01*
X-238278Y108866D01*
X-238115Y108655D01*
X-237926Y108505D01*
X-237713Y108414D01*
X-237474Y108384D01*
X-242526D01*
X-242287Y108414D01*
X-242074Y108505D01*
X-241885Y108655D01*
X-241722Y108866D01*
X-241584Y109136D01*
X-241471Y109467D01*
X-241383Y109859D01*
X-241320Y110310D01*
X-241283Y110821D01*
X-241270Y111393D01*
X-238730D01*
X-238717Y110821D01*
D02*
G37*
G36*
X-218717D02*
X-218617Y109859D01*
X-218529Y109467D01*
X-218416Y109136D01*
X-218278Y108866D01*
X-218115Y108655D01*
X-217926Y108505D01*
X-217713Y108414D01*
X-217474Y108384D01*
X-222526D01*
X-222287Y108414D01*
X-222074Y108505D01*
X-221885Y108655D01*
X-221722Y108866D01*
X-221584Y109136D01*
X-221471Y109467D01*
X-221383Y109859D01*
X-221320Y110310D01*
X-221283Y110821D01*
X-221270Y111393D01*
X-218730D01*
X-218717Y110821D01*
D02*
G37*
G36*
X-198717D02*
X-198617Y109859D01*
X-198529Y109467D01*
X-198416Y109136D01*
X-198278Y108866D01*
X-198115Y108655D01*
X-197926Y108505D01*
X-197713Y108414D01*
X-197474Y108384D01*
X-202526D01*
X-202287Y108414D01*
X-202074Y108505D01*
X-201885Y108655D01*
X-201722Y108866D01*
X-201584Y109136D01*
X-201471Y109467D01*
X-201383Y109859D01*
X-201320Y110310D01*
X-201283Y110821D01*
X-201270Y111393D01*
X-198730D01*
X-198717Y110821D01*
D02*
G37*
G36*
X-236518Y352529D02*
X-236418Y351352D01*
X-236331Y350874D01*
X-236219Y350469D01*
X-236082Y350138D01*
X-235919Y349880D01*
X-235733Y349696D01*
X-235521Y349586D01*
X-235284Y349549D01*
X-240316D01*
X-240079Y349586D01*
X-239867Y349696D01*
X-239681Y349880D01*
X-239519Y350138D01*
X-239382Y350469D01*
X-239269Y350874D01*
X-239182Y351352D01*
X-239120Y351904D01*
X-239083Y352529D01*
X-239070Y353228D01*
X-236530D01*
X-236518Y352529D01*
D02*
G37*
G36*
X-223818D02*
X-223718Y351352D01*
X-223631Y350874D01*
X-223519Y350469D01*
X-223382Y350138D01*
X-223220Y349880D01*
X-223033Y349696D01*
X-222821Y349586D01*
X-222584Y349549D01*
X-227616D01*
X-227379Y349586D01*
X-227167Y349696D01*
X-226980Y349880D01*
X-226819Y350138D01*
X-226681Y350469D01*
X-226569Y350874D01*
X-226482Y351352D01*
X-226420Y351904D01*
X-226383Y352529D01*
X-226370Y353228D01*
X-223830D01*
X-223818Y352529D01*
D02*
G37*
G36*
X-211118D02*
X-211018Y351352D01*
X-210931Y350874D01*
X-210819Y350469D01*
X-210681Y350138D01*
X-210520Y349880D01*
X-210333Y349696D01*
X-210121Y349586D01*
X-209884Y349549D01*
X-214916D01*
X-214679Y349586D01*
X-214467Y349696D01*
X-214280Y349880D01*
X-214118Y350138D01*
X-213981Y350469D01*
X-213869Y350874D01*
X-213782Y351352D01*
X-213720Y351904D01*
X-213682Y352529D01*
X-213670Y353228D01*
X-211130D01*
X-211118Y352529D01*
D02*
G37*
G36*
X-198411Y331338D02*
X-198415Y331288D01*
X-198424Y330941D01*
X-198430Y329700D01*
X-200970D01*
X-200993Y331354D01*
X-198407D01*
X-198411Y331338D01*
D02*
G37*
G36*
X-158638Y348107D02*
X-158406Y347665D01*
X-158020Y347274D01*
X-157480Y346936D01*
X-156786Y346650D01*
X-155937Y346416D01*
X-154935Y346234D01*
X-153777Y346104D01*
X-152466Y346026D01*
X-151000Y346000D01*
Y336000D01*
X-152466Y335974D01*
X-154935Y335766D01*
X-155937Y335584D01*
X-156786Y335350D01*
X-157480Y335064D01*
X-158020Y334726D01*
X-158406Y334336D01*
X-158638Y333893D01*
X-158715Y333399D01*
Y348601D01*
X-158638Y348107D01*
D02*
G37*
G36*
X-115857Y337012D02*
X-115819Y336580D01*
X-115756Y336199D01*
X-115667Y335869D01*
X-115553Y335589D01*
X-115413Y335361D01*
X-115248Y335183D01*
X-115057Y335056D01*
X-114841Y334980D01*
X-114600Y334954D01*
X-119680D01*
X-119439Y334980D01*
X-119223Y335056D01*
X-119032Y335183D01*
X-118867Y335361D01*
X-118728Y335589D01*
X-118613Y335869D01*
X-118524Y336199D01*
X-118461Y336580D01*
X-118423Y337012D01*
X-118410Y337495D01*
X-115870D01*
X-115857Y337012D01*
D02*
G37*
G36*
X-198418Y352529D02*
X-198318Y351352D01*
X-198231Y350874D01*
X-198119Y350469D01*
X-197981Y350138D01*
X-197819Y349880D01*
X-197633Y349696D01*
X-197421Y349586D01*
X-197184Y349549D01*
X-202216D01*
X-201979Y349586D01*
X-201767Y349696D01*
X-201581Y349880D01*
X-201418Y350138D01*
X-201282Y350469D01*
X-201169Y350874D01*
X-201082Y351352D01*
X-201020Y351904D01*
X-200982Y352529D01*
X-200970Y353228D01*
X-198430D01*
X-198418Y352529D01*
D02*
G37*
G36*
X-197713Y370586D02*
X-197926Y370495D01*
X-198115Y370345D01*
X-198278Y370134D01*
X-198416Y369864D01*
X-198529Y369533D01*
X-198617Y369142D01*
X-198680Y368690D01*
X-198717Y368179D01*
X-198730Y367607D01*
X-201270D01*
X-201283Y368179D01*
X-201383Y369142D01*
X-201471Y369533D01*
X-201584Y369864D01*
X-201722Y370134D01*
X-201885Y370345D01*
X-202074Y370495D01*
X-202287Y370586D01*
X-202526Y370616D01*
X-197474D01*
X-197713Y370586D01*
D02*
G37*
G36*
X-137713D02*
X-137926Y370495D01*
X-138115Y370345D01*
X-138278Y370134D01*
X-138416Y369864D01*
X-138529Y369533D01*
X-138617Y369142D01*
X-138680Y368690D01*
X-138717Y368179D01*
X-138730Y367607D01*
X-141270D01*
X-141283Y368179D01*
X-141383Y369142D01*
X-141471Y369533D01*
X-141584Y369864D01*
X-141722Y370134D01*
X-141885Y370345D01*
X-142074Y370495D01*
X-142287Y370586D01*
X-142526Y370616D01*
X-137474D01*
X-137713Y370586D01*
D02*
G37*
G36*
X-181254Y370174D02*
X-181466Y370300D01*
X-181700Y370368D01*
X-181956Y370377D01*
X-182236Y370329D01*
X-182537Y370223D01*
X-182862Y370058D01*
X-183209Y369835D01*
X-183578Y369555D01*
X-183970Y369216D01*
X-184385Y368819D01*
X-186396Y370400D01*
X-186005Y370809D01*
X-185675Y371192D01*
X-185408Y371548D01*
X-185204Y371878D01*
X-185061Y372180D01*
X-184982Y372456D01*
X-184964Y372706D01*
X-185009Y372928D01*
X-185117Y373124D01*
X-185287Y373293D01*
X-181254Y370174D01*
D02*
G37*
G36*
X-185718Y352529D02*
X-185618Y351352D01*
X-185531Y350874D01*
X-185419Y350469D01*
X-185282Y350138D01*
X-185119Y349880D01*
X-184933Y349696D01*
X-184721Y349586D01*
X-184484Y349549D01*
X-189516D01*
X-189279Y349586D01*
X-189067Y349696D01*
X-188881Y349880D01*
X-188718Y350138D01*
X-188582Y350469D01*
X-188469Y350874D01*
X-188382Y351352D01*
X-188320Y351904D01*
X-188283Y352529D01*
X-188270Y353228D01*
X-185730D01*
X-185718Y352529D01*
D02*
G37*
G36*
X-173018D02*
X-172918Y351352D01*
X-172831Y350874D01*
X-172719Y350469D01*
X-172582Y350138D01*
X-172419Y349880D01*
X-172233Y349696D01*
X-172021Y349586D01*
X-171784Y349549D01*
X-176816D01*
X-176579Y349586D01*
X-176367Y349696D01*
X-176180Y349880D01*
X-176019Y350138D01*
X-175882Y350469D01*
X-175769Y350874D01*
X-175682Y351352D01*
X-175620Y351904D01*
X-175583Y352529D01*
X-175570Y353228D01*
X-173030D01*
X-173018Y352529D01*
D02*
G37*
G36*
X-217713Y370586D02*
X-217926Y370495D01*
X-218115Y370345D01*
X-218278Y370134D01*
X-218416Y369864D01*
X-218529Y369533D01*
X-218617Y369142D01*
X-218680Y368690D01*
X-218717Y368179D01*
X-218730Y367607D01*
X-221270D01*
X-221283Y368179D01*
X-221383Y369142D01*
X-221471Y369533D01*
X-221584Y369864D01*
X-221722Y370134D01*
X-221885Y370345D01*
X-222074Y370495D01*
X-222287Y370586D01*
X-222526Y370616D01*
X-217474D01*
X-217713Y370586D01*
D02*
G37*
G36*
X-146719Y268460D02*
X-146745Y268701D01*
X-146822Y268917D01*
X-146950Y269108D01*
X-147130Y269273D01*
X-147362Y269412D01*
X-147644Y269527D01*
X-147979Y269616D01*
X-148364Y269679D01*
X-148801Y269717D01*
X-149290Y269730D01*
Y272270D01*
X-148801Y272283D01*
X-148364Y272321D01*
X-147979Y272384D01*
X-147644Y272473D01*
X-147362Y272588D01*
X-147130Y272727D01*
X-146950Y272892D01*
X-146822Y273083D01*
X-146745Y273299D01*
X-146719Y273540D01*
Y268460D01*
D02*
G37*
G36*
X-146719Y287460D02*
X-146745Y287701D01*
X-146822Y287917D01*
X-146950Y288108D01*
X-147130Y288273D01*
X-147362Y288412D01*
X-147644Y288527D01*
X-147979Y288616D01*
X-148364Y288679D01*
X-148801Y288717D01*
X-149290Y288730D01*
Y291270D01*
X-148801Y291283D01*
X-148364Y291321D01*
X-147979Y291384D01*
X-147644Y291473D01*
X-147362Y291588D01*
X-147130Y291727D01*
X-146950Y291892D01*
X-146822Y292083D01*
X-146745Y292299D01*
X-146719Y292540D01*
Y287460D01*
D02*
G37*
G36*
X-240332Y299160D02*
X-239989Y298911D01*
X-239612Y298692D01*
X-239202Y298503D01*
X-238759Y298344D01*
X-238284Y298215D01*
X-237775Y298116D01*
X-237233Y298047D01*
X-236658Y298008D01*
X-236050Y298000D01*
X-241000Y293050D01*
X-241008Y293658D01*
X-241047Y294233D01*
X-241116Y294775D01*
X-241215Y295284D01*
X-241344Y295760D01*
X-241503Y296202D01*
X-241692Y296612D01*
X-241911Y296989D01*
X-242160Y297332D01*
X-242439Y297643D01*
X-240643Y299439D01*
X-240332Y299160D01*
D02*
G37*
G36*
X-146719Y251157D02*
X-146737Y251511D01*
X-146792Y251866D01*
X-146883Y252222D01*
X-147011Y252580D01*
X-147176Y252938D01*
X-147377Y253298D01*
X-147614Y253659D01*
X-147888Y254021D01*
X-148199Y254385D01*
X-148546Y254750D01*
Y258342D01*
X-148199Y258013D01*
X-147888Y257757D01*
X-147614Y257575D01*
X-147377Y257465D01*
X-147176Y257428D01*
X-147011Y257465D01*
X-146883Y257575D01*
X-146792Y257757D01*
X-146737Y258013D01*
X-146719Y258342D01*
Y251157D01*
D02*
G37*
G36*
X-116287Y261012D02*
X-116249Y260580D01*
X-116186Y260199D01*
X-116097Y259869D01*
X-115983Y259590D01*
X-115843Y259361D01*
X-115678Y259183D01*
X-115487Y259056D01*
X-115271Y258980D01*
X-115030Y258955D01*
X-120110D01*
X-119869Y258980D01*
X-119653Y259056D01*
X-119462Y259183D01*
X-119297Y259361D01*
X-119157Y259590D01*
X-119043Y259869D01*
X-118954Y260199D01*
X-118891Y260580D01*
X-118853Y261012D01*
X-118840Y261495D01*
X-116300D01*
X-116287Y261012D01*
D02*
G37*
G36*
X-115271Y264050D02*
X-115487Y263973D01*
X-115678Y263845D01*
X-115843Y263665D01*
X-115983Y263433D01*
X-116097Y263151D01*
X-116186Y262816D01*
X-116249Y262431D01*
X-116287Y261994D01*
X-116300Y261506D01*
X-118840D01*
X-118853Y261994D01*
X-118891Y262431D01*
X-118954Y262816D01*
X-119043Y263151D01*
X-119157Y263433D01*
X-119297Y263665D01*
X-119462Y263845D01*
X-119653Y263973D01*
X-119869Y264050D01*
X-120110Y264076D01*
X-115030D01*
X-115271Y264050D01*
D02*
G37*
G36*
X-146289Y306460D02*
X-146315Y306701D01*
X-146392Y306917D01*
X-146520Y307108D01*
X-146700Y307273D01*
X-146932Y307412D01*
X-147214Y307527D01*
X-147549Y307616D01*
X-147934Y307679D01*
X-148371Y307717D01*
X-148860Y307730D01*
Y310270D01*
X-148371Y310283D01*
X-147934Y310321D01*
X-147549Y310384D01*
X-147214Y310473D01*
X-146932Y310588D01*
X-146700Y310727D01*
X-146520Y310892D01*
X-146392Y311083D01*
X-146315Y311299D01*
X-146289Y311540D01*
Y306460D01*
D02*
G37*
G36*
X-172021Y332414D02*
X-172233Y332304D01*
X-172419Y332120D01*
X-172582Y331862D01*
X-172719Y331531D01*
X-172831Y331126D01*
X-172918Y330648D01*
X-172980Y330096D01*
X-173018Y329471D01*
X-173030Y328772D01*
X-175570D01*
X-175583Y329471D01*
X-175682Y330648D01*
X-175769Y331126D01*
X-175882Y331531D01*
X-176019Y331862D01*
X-176180Y332120D01*
X-176367Y332304D01*
X-176579Y332414D01*
X-176816Y332451D01*
X-171784D01*
X-172021Y332414D01*
D02*
G37*
G36*
X-222343Y333573D02*
X-222447Y333375D01*
X-222481Y333145D01*
X-222447Y332881D01*
X-222345Y332583D01*
X-222173Y332252D01*
X-221932Y331888D01*
X-221623Y331489D01*
X-221244Y331058D01*
X-220797Y330593D01*
X-223040Y329244D01*
X-223377Y329571D01*
X-224317Y330365D01*
X-224606Y330567D01*
X-224884Y330738D01*
X-225150Y330877D01*
X-225403Y330985D01*
X-225645Y331062D01*
X-225875Y331107D01*
X-222170Y333736D01*
X-222343Y333573D01*
D02*
G37*
G36*
X-209789Y333026D02*
X-209931Y332866D01*
X-209999Y332667D01*
X-209994Y332430D01*
X-209914Y332155D01*
X-209759Y331840D01*
X-209531Y331487D01*
X-209228Y331096D01*
X-208852Y330666D01*
X-208401Y330197D01*
X-211066Y329270D01*
X-211390Y329587D01*
X-212596Y330626D01*
X-212875Y330828D01*
X-213404Y331163D01*
X-213656Y331296D01*
X-213898Y331406D01*
X-209572Y333148D01*
X-209789Y333026D01*
D02*
G37*
G36*
X-146289Y322088D02*
X-146307Y322417D01*
X-146362Y322673D01*
X-146453Y322855D01*
X-146581Y322965D01*
X-146746Y323002D01*
X-146947Y322965D01*
X-147184Y322855D01*
X-147458Y322673D01*
X-147768Y322417D01*
X-148116Y322088D01*
Y325681D01*
X-147768Y326045D01*
X-147458Y326409D01*
X-147184Y326771D01*
X-146947Y327132D01*
X-146746Y327492D01*
X-146581Y327850D01*
X-146453Y328208D01*
X-146362Y328564D01*
X-146307Y328919D01*
X-146289Y329273D01*
Y322088D01*
D02*
G37*
G36*
X-260921Y332414D02*
X-261133Y332304D01*
X-261320Y332120D01*
X-261481Y331862D01*
X-261619Y331531D01*
X-261731Y331126D01*
X-261818Y330648D01*
X-261880Y330096D01*
X-261918Y329471D01*
X-261930Y328772D01*
X-264470D01*
X-264482Y329471D01*
X-264582Y330648D01*
X-264669Y331126D01*
X-264781Y331531D01*
X-264918Y331862D01*
X-265081Y332120D01*
X-265267Y332304D01*
X-265479Y332414D01*
X-265716Y332451D01*
X-260684D01*
X-260921Y332414D01*
D02*
G37*
G36*
X-184721D02*
X-184933Y332304D01*
X-185119Y332120D01*
X-185282Y331862D01*
X-185419Y331531D01*
X-185531Y331126D01*
X-185618Y330648D01*
X-185680Y330096D01*
X-185718Y329471D01*
X-185730Y328772D01*
X-188270D01*
X-188283Y329471D01*
X-188382Y330648D01*
X-188469Y331126D01*
X-188582Y331531D01*
X-188718Y331862D01*
X-188881Y332120D01*
X-189067Y332304D01*
X-189279Y332414D01*
X-189516Y332451D01*
X-184484D01*
X-184721Y332414D01*
D02*
G37*
D11*
X-160000Y290000D02*
X-140430D01*
X-199700Y329700D02*
X-160000Y290000D01*
X-199700Y329700D02*
Y341000D01*
X-151000Y271000D02*
X-140430D01*
X-212400Y332400D02*
X-151000Y271000D01*
X-212400Y332400D02*
Y341000D01*
X-144000Y252000D02*
X-140430D01*
X-225100Y333100D02*
X-144000Y252000D01*
X-225100Y333100D02*
Y341000D01*
X-170000Y309000D02*
X-140000D01*
X-187000Y326000D02*
X-170000Y309000D01*
X-187000Y326000D02*
Y341000D01*
X-263200Y320200D02*
X-236000Y293000D01*
X-263200Y320200D02*
Y341000D01*
X-118570Y213570D02*
X-118000Y213000D01*
X-118570Y213570D02*
Y226000D01*
X-238000Y261000D02*
X-237800Y260800D01*
Y244480D02*
Y260800D01*
X-192000Y155000D02*
Y200000D01*
X-225100Y233100D02*
X-192000Y200000D01*
X-225100Y233100D02*
Y244480D01*
X-185000Y146000D02*
Y203000D01*
X-212400Y230400D02*
X-185000Y203000D01*
X-212400Y230400D02*
Y244480D01*
X-179920Y99080D02*
Y205920D01*
X-199700Y225700D02*
X-179920Y205920D01*
X-199700Y225700D02*
Y244480D01*
X-199000Y167000D02*
Y197000D01*
X-240000Y126000D02*
X-199000Y167000D01*
X-240000Y99000D02*
Y126000D01*
X-263200Y220200D02*
Y244480D01*
Y220200D02*
X-253000Y210000D01*
X-212000D01*
X-199000Y197000D01*
X-220000Y127000D02*
X-192000Y155000D01*
X-180000Y99000D02*
X-179920Y99080D01*
X-200000Y131000D02*
X-185000Y146000D01*
X-220000Y99000D02*
Y127000D01*
X-200000Y99000D02*
Y131000D01*
X-160000Y99000D02*
Y194000D01*
X-187000Y221000D02*
X-160000Y194000D01*
X-187000Y221000D02*
Y244480D01*
X-140000Y99000D02*
Y186000D01*
X-174300Y220300D02*
X-140000Y186000D01*
X-174300Y220300D02*
Y244480D01*
X-117140Y328000D02*
Y386140D01*
X-129000Y398000D02*
X-117140Y386140D01*
X-224000Y398000D02*
X-129000D01*
X-230000Y392000D02*
X-224000Y398000D01*
X-230000Y362000D02*
Y392000D01*
X-237800Y354200D02*
X-230000Y362000D01*
X-237800Y341000D02*
Y354200D01*
X-117570Y252000D02*
Y271000D01*
Y327570D02*
X-117140Y328000D01*
X-174300Y324300D02*
Y341000D01*
Y324300D02*
X-169000Y319000D01*
X-153000D01*
X-144000Y328000D01*
X-140000D01*
Y366000D02*
Y380000D01*
X-148000Y358000D02*
X-140000Y366000D01*
X-170000Y358000D02*
X-148000D01*
X-174300Y353700D02*
X-170000Y358000D01*
X-174300Y341000D02*
Y353700D01*
X-160000Y369000D02*
Y380000D01*
X-165000Y364000D02*
X-160000Y369000D01*
X-177000Y364000D02*
X-165000D01*
X-187000Y354000D02*
X-177000Y364000D01*
X-187000Y341000D02*
Y354000D01*
X-180000Y375000D02*
Y380000D01*
X-199700Y355300D02*
X-180000Y375000D01*
X-199700Y341000D02*
Y355300D01*
X-200000Y367000D02*
Y380000D01*
X-212400Y354600D02*
X-200000Y367000D01*
X-212400Y341000D02*
Y354600D01*
X-220000Y361000D02*
Y380000D01*
X-225100Y355900D02*
X-220000Y361000D01*
X-225100Y341000D02*
Y355900D01*
X-117570Y271000D02*
Y327570D01*
D12*
X-253000Y175000D02*
X-246000D01*
X-275900Y197900D02*
X-253000Y175000D01*
X-275900Y197900D02*
Y244480D01*
X-263040Y275000D02*
X-182914D01*
X-163760Y255846D01*
Y255760D02*
X-161600Y253600D01*
X-163760Y255760D02*
Y255846D01*
X-275900Y262140D02*
X-263040Y275000D01*
X-293000Y145000D02*
X-265000D01*
X-300000Y138000D02*
X-293000Y145000D01*
X-300000Y99000D02*
Y138000D01*
X-320000Y380000D02*
X-300000D01*
Y204000D02*
Y380000D01*
Y204000D02*
X-271000Y175000D01*
X-246000D01*
X-320000Y99000D02*
X-300000D01*
X-265000Y145000D02*
X-246000Y164000D01*
Y175000D01*
X-276000Y322000D02*
X-275900Y322100D01*
Y341000D01*
X-151000D02*
X-147000Y345000D01*
X-161600Y341000D02*
X-151000D01*
X-275900Y244480D02*
Y262140D01*
X-161600Y244480D02*
Y253600D01*
X-245000Y175000D02*
X-230000Y190000D01*
X-246000Y175000D02*
X-245000D01*
X-326000D02*
Y189000D01*
X-157000Y228000D02*
X-155000Y226000D01*
X-161600Y232600D02*
X-157000Y228000D01*
X-155000Y226000D02*
X-141430D01*
X-161600Y232600D02*
Y244480D01*
D13*
X-250000Y195000D02*
D03*
X-210000D02*
D03*
D14*
X-140000Y380000D02*
D03*
X-160000D02*
D03*
X-180000D02*
D03*
X-200000D02*
D03*
X-220000D02*
D03*
X-240000D02*
D03*
X-260000D02*
D03*
X-280000D02*
D03*
X-300000D02*
D03*
X-320000D02*
D03*
Y99000D02*
D03*
X-300000D02*
D03*
X-280000D02*
D03*
X-260000D02*
D03*
X-240000D02*
D03*
X-220000D02*
D03*
X-200000D02*
D03*
X-180000D02*
D03*
X-160000D02*
D03*
X-140000D02*
D03*
D15*
X-374890Y384030D02*
D03*
X-84890D02*
D03*
Y94030D02*
D03*
X-374890D02*
D03*
D16*
X-301000Y175000D02*
D03*
X-351000D02*
D03*
X-326000Y161000D02*
D03*
X-276000Y322000D02*
D03*
X-147000Y345000D02*
D03*
X-236000Y293000D02*
D03*
X-326000Y189000D02*
D03*
X-157000Y228000D02*
D03*
X-118000Y213000D02*
D03*
X-238000Y261000D02*
D03*
D17*
X-230000Y190000D02*
D03*
D18*
X-141430Y226000D02*
D03*
X-118570D02*
D03*
X-140000Y309000D02*
D03*
X-117140D02*
D03*
X-140430Y290000D02*
D03*
X-117570D02*
D03*
X-140430Y271000D02*
D03*
X-117570D02*
D03*
X-140430Y252000D02*
D03*
X-117570D02*
D03*
X-140000Y328000D02*
D03*
X-117140D02*
D03*
D19*
X-326000Y175000D02*
D03*
X-246000D02*
D03*
D20*
X-225100Y341000D02*
D03*
X-212400D02*
D03*
X-199700D02*
D03*
X-187000D02*
D03*
X-174300D02*
D03*
X-161600Y244480D02*
D03*
X-174300D02*
D03*
X-187000D02*
D03*
X-199700D02*
D03*
X-212400D02*
D03*
X-275900Y341000D02*
D03*
Y244480D02*
D03*
X-250500D02*
D03*
X-225100D02*
D03*
X-237800D02*
D03*
X-263200Y341000D02*
D03*
X-250500D02*
D03*
X-237800D02*
D03*
X-263200Y244480D02*
D03*
X-161600Y341000D02*
D03*
M02*
