G04 Layer_Physical_Order=1*
G04 Layer_Color=255*
%FSLAX44Y44*%
%MOMM*%
G71*
G01*
G75*
%ADD10R,1.6000X2.0000*%
%ADD11C,0.2540*%
%ADD12C,1.0000*%
%ADD13C,0.9000*%
%ADD14O,1.2000X2.0000*%
%ADD15C,3.0000*%
%ADD16C,1.0000*%
%ADD17C,1.5000*%
G36*
X-74830Y414469D02*
X-69964Y412993D01*
X-65481Y410597D01*
X-61551Y407371D01*
X-58326Y403441D01*
X-55929Y398957D01*
X-54453Y394092D01*
X-53980Y389293D01*
X-54032Y389033D01*
Y89033D01*
X-53980Y88772D01*
X-54453Y83973D01*
X-55929Y79108D01*
X-58326Y74624D01*
X-61551Y70694D01*
X-65481Y67469D01*
X-69964Y65072D01*
X-74830Y63597D01*
X-79629Y63124D01*
X-79889Y63176D01*
X-379889D01*
X-380150Y63124D01*
X-384949Y63597D01*
X-389814Y65072D01*
X-394298Y67469D01*
X-398228Y70694D01*
X-401453Y74624D01*
X-403850Y79108D01*
X-405326Y83973D01*
X-405798Y88772D01*
X-405746Y89033D01*
Y389033D01*
X-405798Y389293D01*
X-405326Y394092D01*
X-403850Y398957D01*
X-401453Y403441D01*
X-398228Y407371D01*
X-394298Y410597D01*
X-389814Y412993D01*
X-384949Y414469D01*
X-380150Y414941D01*
X-379889Y414890D01*
X-79889D01*
X-79889D01*
D01*
D01*
X-79629Y414941D01*
X-74830Y414469D01*
D02*
G37*
%LPC*%
G36*
X-210000Y203573D02*
X-212219Y203281D01*
X-214287Y202425D01*
X-216062Y201062D01*
X-217425Y199287D01*
X-218281Y197219D01*
X-218573Y195000D01*
X-218281Y192781D01*
X-217425Y190713D01*
X-216062Y188938D01*
X-214287Y187575D01*
X-212219Y186719D01*
X-210000Y186427D01*
X-207781Y186719D01*
X-205713Y187575D01*
X-203938Y188938D01*
X-202575Y190713D01*
X-201719Y192781D01*
X-201427Y195000D01*
X-201719Y197219D01*
X-202575Y199287D01*
X-203938Y201062D01*
X-205713Y202425D01*
X-207781Y203281D01*
X-210000Y203573D01*
D02*
G37*
G36*
X-140000Y113086D02*
X-142611Y112743D01*
X-145043Y111735D01*
X-147132Y110132D01*
X-148735Y108043D01*
X-149743Y105611D01*
X-150000Y103655D01*
X-150257Y105611D01*
X-151265Y108043D01*
X-152868Y110132D01*
X-154957Y111735D01*
X-157389Y112743D01*
X-160000Y113086D01*
X-162610Y112743D01*
X-165043Y111735D01*
X-167132Y110132D01*
X-168735Y108043D01*
X-169743Y105611D01*
X-170000Y103655D01*
X-170257Y105611D01*
X-171265Y108043D01*
X-172868Y110132D01*
X-174957Y111735D01*
X-177390Y112743D01*
X-180000Y113086D01*
X-182610Y112743D01*
X-185043Y111735D01*
X-187132Y110132D01*
X-188735Y108043D01*
X-189743Y105611D01*
X-190000Y103655D01*
X-190257Y105611D01*
X-191265Y108043D01*
X-192868Y110132D01*
X-194957Y111735D01*
X-197390Y112743D01*
X-200000Y113086D01*
X-202610Y112743D01*
X-205043Y111735D01*
X-207132Y110132D01*
X-208735Y108043D01*
X-209743Y105611D01*
X-210000Y103655D01*
X-210257Y105611D01*
X-211265Y108043D01*
X-212868Y110132D01*
X-214957Y111735D01*
X-217390Y112743D01*
X-220000Y113086D01*
X-222610Y112743D01*
X-225043Y111735D01*
X-227132Y110132D01*
X-228735Y108043D01*
X-229743Y105611D01*
X-230000Y103655D01*
X-230257Y105611D01*
X-231265Y108043D01*
X-232868Y110132D01*
X-234957Y111735D01*
X-237390Y112743D01*
X-240000Y113086D01*
X-242610Y112743D01*
X-245043Y111735D01*
X-247132Y110132D01*
X-248735Y108043D01*
X-249743Y105611D01*
X-250086Y103000D01*
Y95000D01*
X-249743Y92389D01*
X-248735Y89957D01*
X-247132Y87868D01*
X-245043Y86265D01*
X-242610Y85257D01*
X-240000Y84914D01*
X-237390Y85257D01*
X-234957Y86265D01*
X-232868Y87868D01*
X-231265Y89957D01*
X-230257Y92389D01*
X-230000Y94345D01*
X-229743Y92389D01*
X-228735Y89957D01*
X-227132Y87868D01*
X-225043Y86265D01*
X-222610Y85257D01*
X-220000Y84914D01*
X-217390Y85257D01*
X-214957Y86265D01*
X-212868Y87868D01*
X-211265Y89957D01*
X-210257Y92389D01*
X-210000Y94345D01*
X-209743Y92389D01*
X-208735Y89957D01*
X-207132Y87868D01*
X-205043Y86265D01*
X-202610Y85257D01*
X-200000Y84914D01*
X-197390Y85257D01*
X-194957Y86265D01*
X-192868Y87868D01*
X-191265Y89957D01*
X-190257Y92389D01*
X-190000Y94345D01*
X-189743Y92389D01*
X-188735Y89957D01*
X-187132Y87868D01*
X-185043Y86265D01*
X-182610Y85257D01*
X-180000Y84914D01*
X-177390Y85257D01*
X-174957Y86265D01*
X-172868Y87868D01*
X-171265Y89957D01*
X-170257Y92389D01*
X-170000Y94345D01*
X-169743Y92389D01*
X-168735Y89957D01*
X-167132Y87868D01*
X-165043Y86265D01*
X-162610Y85257D01*
X-160000Y84914D01*
X-157389Y85257D01*
X-154957Y86265D01*
X-152868Y87868D01*
X-151265Y89957D01*
X-150257Y92389D01*
X-150000Y94345D01*
X-149743Y92389D01*
X-148735Y89957D01*
X-147132Y87868D01*
X-145043Y86265D01*
X-142611Y85257D01*
X-140000Y84914D01*
X-137389Y85257D01*
X-134957Y86265D01*
X-132868Y87868D01*
X-131265Y89957D01*
X-130257Y92389D01*
X-129914Y95000D01*
Y103000D01*
X-130257Y105611D01*
X-131265Y108043D01*
X-132868Y110132D01*
X-134957Y111735D01*
X-137389Y112743D01*
X-140000Y113086D01*
D02*
G37*
G36*
X-300000D02*
X-302610Y112743D01*
X-305043Y111735D01*
X-307132Y110132D01*
X-308735Y108043D01*
X-309743Y105611D01*
X-310000Y103655D01*
X-310257Y105611D01*
X-311265Y108043D01*
X-312868Y110132D01*
X-314957Y111735D01*
X-317390Y112743D01*
X-320000Y113086D01*
X-322611Y112743D01*
X-325043Y111735D01*
X-327132Y110132D01*
X-328735Y108043D01*
X-329743Y105611D01*
X-330086Y103000D01*
Y95000D01*
X-329743Y92389D01*
X-328735Y89957D01*
X-327132Y87868D01*
X-325043Y86265D01*
X-322611Y85257D01*
X-320000Y84914D01*
X-317390Y85257D01*
X-314957Y86265D01*
X-312868Y87868D01*
X-311265Y89957D01*
X-310257Y92389D01*
X-310000Y94345D01*
X-309743Y92389D01*
X-308735Y89957D01*
X-307132Y87868D01*
X-305043Y86265D01*
X-302610Y85257D01*
X-300000Y84914D01*
X-297390Y85257D01*
X-294957Y86265D01*
X-292868Y87868D01*
X-291265Y89957D01*
X-290257Y92389D01*
X-289914Y95000D01*
Y103000D01*
X-290257Y105611D01*
X-291265Y108043D01*
X-292868Y110132D01*
X-294957Y111735D01*
X-297390Y112743D01*
X-300000Y113086D01*
D02*
G37*
G36*
X-236000Y302078D02*
X-238349Y301768D01*
X-240539Y300861D01*
X-242419Y299419D01*
X-243862Y297539D01*
X-244768Y295350D01*
X-245078Y293000D01*
X-244768Y290651D01*
X-243862Y288461D01*
X-242419Y286581D01*
X-240539Y285138D01*
X-238349Y284232D01*
X-236000Y283922D01*
X-233650Y284232D01*
X-231461Y285138D01*
X-229600Y286567D01*
X-229587Y286575D01*
X-229229Y286923D01*
X-228967Y287152D01*
X-228736Y287331D01*
X-228540Y287463D01*
X-228382Y287554D01*
X-228266Y287608D01*
X-228216Y287627D01*
X-223226D01*
X-197123Y261524D01*
Y240000D01*
X-203750D01*
Y212000D01*
X-179750D01*
Y230106D01*
X-179739Y230148D01*
X-179732Y230267D01*
X-179710Y230316D01*
X-179660Y230406D01*
X-179577Y230531D01*
X-179458Y230689D01*
X-179435Y230716D01*
X-175524Y234627D01*
X-163148D01*
X-163419Y234419D01*
X-164861Y232539D01*
X-165768Y230350D01*
X-166078Y228000D01*
X-165768Y225651D01*
X-164861Y223461D01*
X-163419Y221581D01*
X-161539Y220138D01*
X-159349Y219232D01*
X-157000Y218922D01*
X-154650Y219232D01*
X-152461Y220138D01*
X-150581Y221581D01*
X-149138Y223461D01*
X-148232Y225651D01*
X-147922Y228000D01*
X-148232Y230350D01*
X-149138Y232539D01*
X-150581Y234419D01*
X-150852Y234627D01*
X-135226D01*
X-123373Y222774D01*
Y220784D01*
X-123392Y220734D01*
X-123446Y220618D01*
X-123537Y220460D01*
X-123669Y220264D01*
X-123848Y220033D01*
X-124077Y219771D01*
X-124425Y219413D01*
X-124433Y219400D01*
X-125861Y217539D01*
X-126768Y215350D01*
X-127078Y213000D01*
X-126768Y210651D01*
X-125861Y208461D01*
X-124419Y206581D01*
X-122539Y205139D01*
X-120350Y204232D01*
X-118000Y203922D01*
X-115651Y204232D01*
X-113461Y205139D01*
X-111581Y206581D01*
X-110139Y208461D01*
X-109232Y210651D01*
X-108922Y213000D01*
X-109232Y215350D01*
X-110139Y217539D01*
X-111567Y219400D01*
X-111575Y219413D01*
X-111923Y219771D01*
X-112152Y220033D01*
X-112331Y220264D01*
X-112463Y220460D01*
X-112554Y220618D01*
X-112608Y220734D01*
X-112627Y220784D01*
Y225000D01*
X-113036Y227056D01*
X-114200Y228799D01*
X-129200Y243799D01*
X-130944Y244964D01*
X-133000Y245373D01*
X-177750D01*
X-179806Y244964D01*
X-181549Y243799D01*
X-185349Y240000D01*
X-186377D01*
Y263750D01*
X-186786Y265806D01*
X-187950Y267549D01*
X-217201Y296800D01*
X-218944Y297964D01*
X-221000Y298373D01*
X-228216D01*
X-228266Y298392D01*
X-228382Y298446D01*
X-228540Y298537D01*
X-228736Y298669D01*
X-228967Y298848D01*
X-229229Y299077D01*
X-229587Y299425D01*
X-229600Y299433D01*
X-231461Y300861D01*
X-233650Y301768D01*
X-236000Y302078D01*
D02*
G37*
G36*
X-238000Y270078D02*
X-240350Y269768D01*
X-242539Y268862D01*
X-244419Y267419D01*
X-245861Y265539D01*
X-246768Y263349D01*
X-247078Y261000D01*
X-246768Y258650D01*
X-245861Y256461D01*
X-244419Y254581D01*
X-242539Y253139D01*
X-240818Y252426D01*
X-240583Y252298D01*
X-239426Y251936D01*
X-239058Y251802D01*
X-238290Y251474D01*
X-238072Y251363D01*
X-237880Y251252D01*
X-237793Y251194D01*
X-226599Y240000D01*
X-229250D01*
Y212000D01*
X-205250D01*
Y240000D01*
X-212225D01*
X-212286Y240306D01*
X-213451Y242050D01*
X-229398Y257997D01*
X-229376Y258117D01*
X-229278Y258488D01*
X-229274Y258549D01*
X-229232Y258650D01*
X-228922Y261000D01*
X-229232Y263349D01*
X-230139Y265539D01*
X-231581Y267419D01*
X-233461Y268862D01*
X-235651Y269768D01*
X-238000Y270078D01*
D02*
G37*
G36*
X-230750Y240000D02*
X-254750D01*
Y212000D01*
X-251828D01*
Y211750D01*
X-251518Y209401D01*
X-250611Y207211D01*
X-249169Y205331D01*
X-246651Y202813D01*
X-247781Y203281D01*
X-250000Y203573D01*
X-252219Y203281D01*
X-254287Y202425D01*
X-256062Y201062D01*
X-257425Y199287D01*
X-258281Y197219D01*
X-258573Y195000D01*
X-258281Y192781D01*
X-257425Y190713D01*
X-256062Y188938D01*
X-254287Y187575D01*
X-252219Y186719D01*
X-250000Y186427D01*
X-247781Y186719D01*
X-245713Y187575D01*
X-243938Y188938D01*
X-242575Y190713D01*
X-241719Y192781D01*
X-241427Y195000D01*
X-241719Y197219D01*
X-242187Y198349D01*
X-239868Y196030D01*
X-240045Y195800D01*
X-241204Y193002D01*
X-241599Y190000D01*
X-241204Y186998D01*
X-240045Y184200D01*
X-238202Y181798D01*
X-235800Y179955D01*
X-233002Y178796D01*
X-230000Y178401D01*
X-226998Y178796D01*
X-224200Y179955D01*
X-221798Y181798D01*
X-219955Y184200D01*
X-218796Y186998D01*
X-218401Y190000D01*
X-218796Y193002D01*
X-219955Y195800D01*
X-220922Y197061D01*
Y199000D01*
X-221232Y201350D01*
X-222139Y203539D01*
X-223581Y205419D01*
X-230750Y212588D01*
Y240000D01*
D02*
G37*
G36*
X-84890Y403122D02*
X-88615Y402755D01*
X-92196Y401669D01*
X-95497Y399904D01*
X-98390Y397530D01*
X-100764Y394637D01*
X-102529Y391336D01*
X-103615Y387755D01*
X-103982Y384030D01*
X-103615Y380305D01*
X-102529Y376724D01*
X-100764Y373423D01*
X-98390Y370530D01*
X-95497Y368156D01*
X-92196Y366391D01*
X-88615Y365305D01*
X-84890Y364938D01*
X-81165Y365305D01*
X-77584Y366391D01*
X-74283Y368156D01*
X-71390Y370530D01*
X-69016Y373423D01*
X-67251Y376724D01*
X-66165Y380305D01*
X-65798Y384030D01*
X-66165Y387755D01*
X-67251Y391336D01*
X-69016Y394637D01*
X-71390Y397530D01*
X-74283Y399904D01*
X-77584Y401669D01*
X-81165Y402755D01*
X-84890Y403122D01*
D02*
G37*
G36*
X-140000Y394086D02*
X-142611Y393743D01*
X-145043Y392735D01*
X-147132Y391132D01*
X-148735Y389043D01*
X-149743Y386610D01*
X-150000Y384655D01*
X-150257Y386610D01*
X-151265Y389043D01*
X-152868Y391132D01*
X-154957Y392735D01*
X-157389Y393743D01*
X-160000Y394086D01*
X-162610Y393743D01*
X-165043Y392735D01*
X-167132Y391132D01*
X-168735Y389043D01*
X-169743Y386610D01*
X-170000Y384655D01*
X-170257Y386610D01*
X-171265Y389043D01*
X-172868Y391132D01*
X-174957Y392735D01*
X-177390Y393743D01*
X-180000Y394086D01*
X-182610Y393743D01*
X-185043Y392735D01*
X-187132Y391132D01*
X-188735Y389043D01*
X-189743Y386610D01*
X-190000Y384655D01*
X-190257Y386610D01*
X-191265Y389043D01*
X-192868Y391132D01*
X-194957Y392735D01*
X-197390Y393743D01*
X-200000Y394086D01*
X-202610Y393743D01*
X-205043Y392735D01*
X-207132Y391132D01*
X-208735Y389043D01*
X-209743Y386610D01*
X-210000Y384655D01*
X-210257Y386610D01*
X-211265Y389043D01*
X-212868Y391132D01*
X-214957Y392735D01*
X-217390Y393743D01*
X-220000Y394086D01*
X-222610Y393743D01*
X-225043Y392735D01*
X-227132Y391132D01*
X-228735Y389043D01*
X-229743Y386610D01*
X-230000Y384655D01*
X-230257Y386610D01*
X-231265Y389043D01*
X-232868Y391132D01*
X-234957Y392735D01*
X-237390Y393743D01*
X-240000Y394086D01*
X-242610Y393743D01*
X-245043Y392735D01*
X-247132Y391132D01*
X-248735Y389043D01*
X-249743Y386610D01*
X-250086Y384000D01*
Y376000D01*
X-249743Y373390D01*
X-248735Y370957D01*
X-247132Y368868D01*
X-245043Y367265D01*
X-242610Y366257D01*
X-240000Y365914D01*
X-237390Y366257D01*
X-234957Y367265D01*
X-232868Y368868D01*
X-231265Y370957D01*
X-230257Y373390D01*
X-230000Y375345D01*
X-229743Y373390D01*
X-228735Y370957D01*
X-227132Y368868D01*
X-225043Y367265D01*
X-222610Y366257D01*
X-220000Y365914D01*
X-217390Y366257D01*
X-214957Y367265D01*
X-212868Y368868D01*
X-211265Y370957D01*
X-210257Y373390D01*
X-210000Y375345D01*
X-209743Y373390D01*
X-208735Y370957D01*
X-207132Y368868D01*
X-205043Y367265D01*
X-202610Y366257D01*
X-200000Y365914D01*
X-197390Y366257D01*
X-194957Y367265D01*
X-192868Y368868D01*
X-191265Y370957D01*
X-190257Y373390D01*
X-190000Y375345D01*
X-189743Y373390D01*
X-188735Y370957D01*
X-187132Y368868D01*
X-185043Y367265D01*
X-182610Y366257D01*
X-180000Y365914D01*
X-177390Y366257D01*
X-174957Y367265D01*
X-172868Y368868D01*
X-171265Y370957D01*
X-170257Y373390D01*
X-170000Y375345D01*
X-169743Y373390D01*
X-168735Y370957D01*
X-167132Y368868D01*
X-165043Y367265D01*
X-162610Y366257D01*
X-160000Y365914D01*
X-157389Y366257D01*
X-154957Y367265D01*
X-152868Y368868D01*
X-151265Y370957D01*
X-150257Y373390D01*
X-150000Y375345D01*
X-149743Y373390D01*
X-148735Y370957D01*
X-147132Y368868D01*
X-145043Y367265D01*
X-142611Y366257D01*
X-140000Y365914D01*
X-137389Y366257D01*
X-134957Y367265D01*
X-132868Y368868D01*
X-131265Y370957D01*
X-130257Y373390D01*
X-129914Y376000D01*
Y384000D01*
X-130257Y386610D01*
X-131265Y389043D01*
X-132868Y391132D01*
X-134957Y392735D01*
X-137389Y393743D01*
X-140000Y394086D01*
D02*
G37*
G36*
X-300000D02*
X-302610Y393743D01*
X-305043Y392735D01*
X-307132Y391132D01*
X-308735Y389043D01*
X-309743Y386610D01*
X-310000Y384655D01*
X-310257Y386610D01*
X-311265Y389043D01*
X-312868Y391132D01*
X-314957Y392735D01*
X-317390Y393743D01*
X-320000Y394086D01*
X-322611Y393743D01*
X-325043Y392735D01*
X-327132Y391132D01*
X-328735Y389043D01*
X-329743Y386610D01*
X-330086Y384000D01*
Y376000D01*
X-329743Y373390D01*
X-328735Y370957D01*
X-327132Y368868D01*
X-325043Y367265D01*
X-322611Y366257D01*
X-320000Y365914D01*
X-317390Y366257D01*
X-314957Y367265D01*
X-312868Y368868D01*
X-311265Y370957D01*
X-310257Y373390D01*
X-310000Y375345D01*
X-309743Y373390D01*
X-308735Y370957D01*
X-307132Y368868D01*
X-305043Y367265D01*
X-302610Y366257D01*
X-300000Y365914D01*
X-297390Y366257D01*
X-294957Y367265D01*
X-292868Y368868D01*
X-291265Y370957D01*
X-290257Y373390D01*
X-289914Y376000D01*
Y384000D01*
X-290257Y386610D01*
X-291265Y389043D01*
X-292868Y391132D01*
X-294957Y392735D01*
X-297390Y393743D01*
X-300000Y394086D01*
D02*
G37*
G36*
X-84890Y113122D02*
X-88615Y112755D01*
X-92196Y111669D01*
X-95497Y109904D01*
X-98390Y107530D01*
X-100764Y104637D01*
X-102529Y101336D01*
X-103615Y97755D01*
X-103982Y94030D01*
X-103615Y90305D01*
X-102529Y86724D01*
X-100764Y83423D01*
X-98390Y80530D01*
X-95497Y78156D01*
X-92196Y76391D01*
X-88615Y75305D01*
X-84890Y74938D01*
X-81165Y75305D01*
X-77584Y76391D01*
X-74283Y78156D01*
X-71390Y80530D01*
X-69016Y83423D01*
X-67251Y86724D01*
X-66165Y90305D01*
X-65798Y94030D01*
X-66165Y97755D01*
X-67251Y101336D01*
X-69016Y104637D01*
X-71390Y107530D01*
X-74283Y109904D01*
X-77584Y111669D01*
X-81165Y112755D01*
X-84890Y113122D01*
D02*
G37*
G36*
X-374890D02*
X-378615Y112755D01*
X-382196Y111669D01*
X-385497Y109904D01*
X-388390Y107530D01*
X-390764Y104637D01*
X-392529Y101336D01*
X-393615Y97755D01*
X-393982Y94030D01*
X-393615Y90305D01*
X-392529Y86724D01*
X-390764Y83423D01*
X-388390Y80530D01*
X-385497Y78156D01*
X-382196Y76391D01*
X-378615Y75305D01*
X-374890Y74938D01*
X-371165Y75305D01*
X-367584Y76391D01*
X-364283Y78156D01*
X-361390Y80530D01*
X-359016Y83423D01*
X-357251Y86724D01*
X-356165Y90305D01*
X-355798Y94030D01*
X-356165Y97755D01*
X-357251Y101336D01*
X-359016Y104637D01*
X-361390Y107530D01*
X-364283Y109904D01*
X-367584Y111669D01*
X-371165Y112755D01*
X-374890Y113122D01*
D02*
G37*
G36*
Y403122D02*
X-378615Y402755D01*
X-382196Y401669D01*
X-385497Y399904D01*
X-388390Y397530D01*
X-390764Y394637D01*
X-392529Y391336D01*
X-393615Y387755D01*
X-393982Y384030D01*
X-393615Y380305D01*
X-392529Y376724D01*
X-390764Y373423D01*
X-388390Y370530D01*
X-385497Y368156D01*
X-382196Y366391D01*
X-378615Y365305D01*
X-374890Y364938D01*
X-371165Y365305D01*
X-367584Y366391D01*
X-364283Y368156D01*
X-361390Y370530D01*
X-359016Y373423D01*
X-357251Y376724D01*
X-356165Y380305D01*
X-355798Y384030D01*
X-356165Y387755D01*
X-357251Y391336D01*
X-359016Y394637D01*
X-361390Y397530D01*
X-364283Y399904D01*
X-367584Y401669D01*
X-371165Y402755D01*
X-374890Y403122D01*
D02*
G37*
%LPD*%
G36*
X-190467Y238027D02*
X-190429Y237595D01*
X-190366Y237214D01*
X-190277Y236884D01*
X-190163Y236604D01*
X-190023Y236376D01*
X-189858Y236198D01*
X-189667Y236071D01*
X-189451Y235995D01*
X-189210Y235970D01*
X-194290D01*
X-194049Y235995D01*
X-193833Y236071D01*
X-193642Y236198D01*
X-193477Y236376D01*
X-193337Y236604D01*
X-193223Y236884D01*
X-193134Y237214D01*
X-193071Y237595D01*
X-193033Y238027D01*
X-193020Y238510D01*
X-190480D01*
X-190467Y238027D01*
D02*
G37*
G36*
X-233359Y259009D02*
X-233452Y258503D01*
X-233496Y258018D01*
X-233491Y257556D01*
X-233438Y257115D01*
X-233337Y256696D01*
X-233187Y256300D01*
X-232988Y255926D01*
X-232742Y255573D01*
X-232447Y255243D01*
X-234794Y253998D01*
X-235064Y254244D01*
X-235376Y254485D01*
X-235730Y254719D01*
X-236125Y254948D01*
X-236561Y255170D01*
X-237559Y255596D01*
X-238120Y255800D01*
X-239366Y256190D01*
X-233219Y259538D01*
X-233359Y259009D01*
D02*
G37*
G36*
X-231993Y296076D02*
X-231559Y295697D01*
X-231127Y295363D01*
X-230698Y295073D01*
X-230270Y294827D01*
X-229845Y294627D01*
X-229421Y294471D01*
X-229000Y294359D01*
X-228581Y294292D01*
X-228164Y294270D01*
Y291730D01*
X-228581Y291708D01*
X-229000Y291641D01*
X-229421Y291529D01*
X-229845Y291373D01*
X-230270Y291173D01*
X-230698Y290927D01*
X-231127Y290637D01*
X-231559Y290303D01*
X-231993Y289924D01*
X-232429Y289500D01*
Y296500D01*
X-231993Y296076D01*
D02*
G37*
G36*
X-116708Y220419D02*
X-116641Y220000D01*
X-116529Y219579D01*
X-116373Y219155D01*
X-116173Y218730D01*
X-115927Y218302D01*
X-115637Y217873D01*
X-115303Y217441D01*
X-114924Y217007D01*
X-114500Y216571D01*
X-121500D01*
X-121076Y217007D01*
X-120697Y217441D01*
X-120363Y217873D01*
X-120073Y218302D01*
X-119827Y218730D01*
X-119627Y219155D01*
X-119471Y219579D01*
X-119359Y220000D01*
X-119292Y220419D01*
X-119270Y220836D01*
X-116730D01*
X-116708Y220419D01*
D02*
G37*
G36*
X-181984Y233969D02*
X-182330Y233606D01*
X-182639Y233244D01*
X-182912Y232883D01*
X-183149Y232523D01*
X-183349Y232163D01*
X-183514Y231804D01*
X-183643Y231446D01*
X-183735Y231089D01*
X-183791Y230733D01*
X-183811Y230377D01*
X-183780Y235970D01*
X-183726Y235985D01*
X-183643Y236033D01*
X-183533Y236113D01*
X-183395Y236224D01*
X-182815Y236750D01*
X-181984Y237562D01*
Y233969D01*
D02*
G37*
G36*
X-215970Y237817D02*
X-215940Y237429D01*
X-215889Y237087D01*
X-215818Y236791D01*
X-215727Y236540D01*
X-215616Y236334D01*
X-215485Y236175D01*
X-215333Y236061D01*
X-215161Y235992D01*
X-214970Y235970D01*
X-219531D01*
X-219338Y235992D01*
X-219167Y236061D01*
X-219015Y236175D01*
X-218884Y236334D01*
X-218773Y236540D01*
X-218682Y236791D01*
X-218611Y237087D01*
X-218560Y237429D01*
X-218530Y237817D01*
X-218520Y238250D01*
X-215980D01*
X-215970Y237817D01*
D02*
G37*
D10*
X-268000Y226000D02*
D03*
X-242750D02*
D03*
X-217250D02*
D03*
X-191750D02*
D03*
D11*
X-217250D02*
Y238250D01*
X-238000Y259000D02*
X-217250Y238250D01*
X-238000Y259000D02*
Y261000D01*
X-191750Y226000D02*
Y263750D01*
X-236000Y293000D02*
X-221000D01*
X-191750Y263750D01*
Y226000D02*
X-177750Y240000D01*
X-133000D01*
X-118000Y225000D01*
Y213000D02*
Y225000D01*
D12*
X-280000Y380000D02*
X-260000D01*
X-280000Y357000D02*
Y380000D01*
X-293000Y344000D02*
X-280000Y357000D01*
X-320000Y344000D02*
X-293000D01*
X-357000Y307000D02*
X-320000Y344000D01*
X-357000Y203000D02*
Y307000D01*
Y203000D02*
X-343000Y189000D01*
X-326000D01*
X-290000Y322000D02*
X-276000D01*
X-326000Y286000D02*
X-290000Y322000D01*
X-326000Y191000D02*
Y286000D01*
Y189000D02*
Y191000D01*
X-291000Y226000D02*
X-268000D01*
X-326000Y191000D02*
X-291000Y226000D01*
X-280000Y99000D02*
Y143000D01*
Y99000D02*
X-260000D01*
X-188000Y345000D02*
X-147000D01*
X-211000Y322000D02*
X-188000Y345000D01*
X-276000Y322000D02*
X-211000D01*
X-230000Y190000D02*
Y199000D01*
X-242750Y211750D02*
X-230000Y199000D01*
X-242750Y211750D02*
Y226000D01*
X-326000Y189000D02*
X-280000Y143000D01*
D13*
X-250000Y195000D02*
D03*
X-210000D02*
D03*
D14*
X-140000Y380000D02*
D03*
X-160000D02*
D03*
X-180000D02*
D03*
X-200000D02*
D03*
X-220000D02*
D03*
X-240000D02*
D03*
X-260000D02*
D03*
X-280000D02*
D03*
X-300000D02*
D03*
X-320000D02*
D03*
Y99000D02*
D03*
X-300000D02*
D03*
X-280000D02*
D03*
X-260000D02*
D03*
X-240000D02*
D03*
X-220000D02*
D03*
X-200000D02*
D03*
X-180000D02*
D03*
X-160000D02*
D03*
X-140000D02*
D03*
D15*
X-374890Y384030D02*
D03*
X-84890D02*
D03*
Y94030D02*
D03*
X-374890D02*
D03*
D16*
X-301000Y175000D02*
D03*
X-351000D02*
D03*
X-326000Y161000D02*
D03*
X-276000Y322000D02*
D03*
X-147000Y345000D02*
D03*
X-236000Y293000D02*
D03*
X-326000Y189000D02*
D03*
X-157000Y228000D02*
D03*
X-118000Y213000D02*
D03*
X-238000Y261000D02*
D03*
D17*
X-230000Y190000D02*
D03*
M02*
