G04 Layer_Color=32896*
%FSLAX44Y44*%
%MOMM*%
G71*
G01*
G75*
%ADD11C,0.2540*%
%ADD21C,0.2000*%
%ADD22C,0.1270*%
%ADD30C,0.1016*%
D11*
X-241000Y175000D02*
G03*
X-241000Y175000I-45000J0D01*
G01*
X-282250Y286390D02*
G03*
X-282250Y299090I0J6350D01*
G01*
X-256000Y225000D02*
X-236000Y205000D01*
Y145000D02*
Y205000D01*
X-256000Y125000D02*
X-236000Y145000D01*
X-336000Y125000D02*
X-256000D01*
X-336000D02*
Y225000D01*
X-256000D01*
X-236000Y145000D02*
Y205000D01*
X-256000Y195000D02*
Y205000D01*
X-261000Y200000D02*
X-256000D01*
X-251000D01*
X-282250Y299090D02*
Y325760D01*
Y259720D02*
Y286390D01*
Y259720D02*
X-155250D01*
Y325760D01*
X-282250D02*
X-155250D01*
D21*
X-120000Y363000D02*
Y380000D01*
X-340000Y363000D02*
X-120000D01*
Y408000D01*
X-340000Y363000D02*
Y408000D01*
X-120000D01*
X-340000Y99000D02*
Y116000D01*
X-120000D01*
X-340000Y71000D02*
Y116000D01*
X-120000Y71000D02*
Y116000D01*
X-340000Y71000D02*
X-120000D01*
D22*
X-149558Y217618D02*
Y234636D01*
Y217618D02*
X-110696D01*
Y234636D01*
X-149558D02*
X-110696D01*
X-147874Y300364D02*
X-109012D01*
X-147874D02*
Y317382D01*
X-109012D01*
Y300364D02*
Y317382D01*
X-148304Y281364D02*
X-109442D01*
X-148304D02*
Y298382D01*
X-109442D01*
Y281364D02*
Y298382D01*
X-148304Y262364D02*
X-109442D01*
X-148304D02*
Y279382D01*
X-109442D01*
Y262364D02*
Y279382D01*
X-148304Y243364D02*
X-109442D01*
X-148304D02*
Y260382D01*
X-109442D01*
Y243364D02*
Y260382D01*
X-147874Y319364D02*
X-109012D01*
X-147874D02*
Y336382D01*
X-109012D01*
Y319364D02*
Y336382D01*
X-87000Y246000D02*
Y255997D01*
X-91998D01*
X-93665Y254331D01*
Y250998D01*
X-91998Y249332D01*
X-87000D01*
X-90332D02*
X-93665Y246000D01*
X-103661Y255997D02*
X-100329Y254331D01*
X-96997Y250998D01*
Y247666D01*
X-98663Y246000D01*
X-101995D01*
X-103661Y247666D01*
Y249332D01*
X-101995Y250998D01*
X-96997D01*
X-87000Y267000D02*
Y276997D01*
X-91998D01*
X-93665Y275331D01*
Y271998D01*
X-91998Y270332D01*
X-87000D01*
X-90332D02*
X-93665Y267000D01*
X-103661Y276997D02*
X-96997D01*
Y271998D01*
X-100329Y273664D01*
X-101995D01*
X-103661Y271998D01*
Y268666D01*
X-101995Y267000D01*
X-98663D01*
X-96997Y268666D01*
X-87000Y285000D02*
Y294997D01*
X-91998D01*
X-93665Y293331D01*
Y289998D01*
X-91998Y288332D01*
X-87000D01*
X-90332D02*
X-93665Y285000D01*
X-101995D02*
Y294997D01*
X-96997Y289998D01*
X-103661D01*
X-87000Y304000D02*
Y313997D01*
X-91998D01*
X-93665Y312331D01*
Y308998D01*
X-91998Y307332D01*
X-87000D01*
X-90332D02*
X-93665Y304000D01*
X-96997Y312331D02*
X-98663Y313997D01*
X-101995D01*
X-103661Y312331D01*
Y310665D01*
X-101995Y308998D01*
X-100329D01*
X-101995D01*
X-103661Y307332D01*
Y305666D01*
X-101995Y304000D01*
X-98663D01*
X-96997Y305666D01*
X-87000Y322000D02*
Y331997D01*
X-91998D01*
X-93665Y330331D01*
Y326998D01*
X-91998Y325332D01*
X-87000D01*
X-90332D02*
X-93665Y322000D01*
X-103661D02*
X-96997D01*
X-103661Y328665D01*
Y330331D01*
X-101995Y331997D01*
X-98663D01*
X-96997Y330331D01*
X-225747Y291740D02*
X-217416D01*
X-215750Y290074D01*
Y286742D01*
X-217416Y285075D01*
X-225747D01*
X-215750Y281743D02*
Y278411D01*
Y280077D01*
X-225747D01*
X-224081Y281743D01*
X-344000Y397000D02*
Y406997D01*
X-348998D01*
X-350664Y405331D01*
Y401998D01*
X-348998Y400332D01*
X-344000D01*
X-353997Y397000D02*
X-357329D01*
X-355663D01*
Y406997D01*
X-353997Y405331D01*
X-99000Y72000D02*
Y81997D01*
X-103998D01*
X-105665Y80331D01*
Y76998D01*
X-103998Y75332D01*
X-99000D01*
X-115661Y72000D02*
X-108997D01*
X-115661Y78664D01*
Y80331D01*
X-113995Y81997D01*
X-110663D01*
X-108997Y80331D01*
X-321665Y239331D02*
X-319998Y240997D01*
X-316666D01*
X-315000Y239331D01*
Y232666D01*
X-316666Y231000D01*
X-319998D01*
X-321665Y232666D01*
X-324997Y231000D02*
X-328329D01*
X-326663D01*
Y240997D01*
X-324997Y239331D01*
X-88000Y220000D02*
Y229997D01*
X-92998D01*
X-94664Y228331D01*
Y224998D01*
X-92998Y223332D01*
X-88000D01*
X-91332D02*
X-94664Y220000D01*
X-97997D02*
X-101329D01*
X-99663D01*
Y229997D01*
X-97997Y228331D01*
X-323997Y349336D02*
Y356000D01*
X-318998D01*
X-320664Y352668D01*
Y351002D01*
X-318998Y349336D01*
X-315666D01*
X-314000Y351002D01*
Y354334D01*
X-315666Y356000D01*
X-323997Y346003D02*
X-317332D01*
X-314000Y342671D01*
X-317332Y339339D01*
X-323997D01*
X-99000Y366997D02*
X-102332D01*
X-100666D01*
Y357000D01*
X-99000D01*
X-102332D01*
X-107331D02*
Y366997D01*
X-113995Y357000D01*
Y366997D01*
X-93998Y125997D02*
X-90666D01*
X-89000Y124331D01*
Y117666D01*
X-90666Y116000D01*
X-93998D01*
X-95665Y117666D01*
Y124331D01*
X-93998Y125997D01*
X-98997D02*
Y117666D01*
X-100663Y116000D01*
X-103995D01*
X-105661Y117666D01*
Y125997D01*
X-108994D02*
X-115658D01*
X-112326D01*
Y116000D01*
X-308000Y314000D02*
Y323997D01*
X-312998D01*
X-314664Y322331D01*
Y318998D01*
X-312998Y317332D01*
X-308000D01*
X-311332D02*
X-314664Y314000D01*
X-324661D02*
X-317997D01*
X-324661Y320664D01*
Y322331D01*
X-322995Y323997D01*
X-319663D01*
X-317997Y322331D01*
X-327994Y318998D02*
X-334658D01*
X-354652Y322331D02*
X-352985Y323997D01*
X-349653D01*
X-347987Y322331D01*
Y320664D01*
X-349653Y318998D01*
X-352985D01*
X-354652Y317332D01*
Y315666D01*
X-352985Y314000D01*
X-349653D01*
X-347987Y315666D01*
X-364648Y323997D02*
X-357984D01*
Y314000D01*
X-364648D01*
X-357984Y318998D02*
X-361316D01*
X-367981Y323997D02*
Y317332D01*
X-371313Y314000D01*
X-374645Y317332D01*
Y323997D01*
X-384642D02*
X-377977D01*
Y318998D01*
X-381310Y320664D01*
X-382976D01*
X-384642Y318998D01*
Y315666D01*
X-382976Y314000D01*
X-379644D01*
X-377977Y315666D01*
X-308000Y299000D02*
Y308997D01*
X-312998D01*
X-314664Y307331D01*
Y303998D01*
X-312998Y302332D01*
X-308000D01*
X-311332D02*
X-314664Y299000D01*
X-317997Y307331D02*
X-319663Y308997D01*
X-322995D01*
X-324661Y307331D01*
Y305665D01*
X-322995Y303998D01*
X-321329D01*
X-322995D01*
X-324661Y302332D01*
Y300666D01*
X-322995Y299000D01*
X-319663D01*
X-317997Y300666D01*
X-327994Y303998D02*
X-334658D01*
X-354652Y307331D02*
X-352985Y308997D01*
X-349653D01*
X-347987Y307331D01*
Y305665D01*
X-349653Y303998D01*
X-352985D01*
X-354652Y302332D01*
Y300666D01*
X-352985Y299000D01*
X-349653D01*
X-347987Y300666D01*
X-364648Y308997D02*
X-357984D01*
Y299000D01*
X-364648D01*
X-357984Y303998D02*
X-361316D01*
X-367981Y308997D02*
Y302332D01*
X-371313Y299000D01*
X-374645Y302332D01*
Y308997D01*
X-382976Y299000D02*
Y308997D01*
X-377977Y303998D01*
X-384642D01*
X-308000Y285000D02*
Y294997D01*
X-312998D01*
X-314664Y293331D01*
Y289998D01*
X-312998Y288332D01*
X-308000D01*
X-311332D02*
X-314664Y285000D01*
X-322995D02*
Y294997D01*
X-317997Y289998D01*
X-324661D01*
X-327994D02*
X-334658D01*
X-354652Y293331D02*
X-352985Y294997D01*
X-349653D01*
X-347987Y293331D01*
Y291665D01*
X-349653Y289998D01*
X-352985D01*
X-354652Y288332D01*
Y286666D01*
X-352985Y285000D01*
X-349653D01*
X-347987Y286666D01*
X-364648Y294997D02*
X-357984D01*
Y285000D01*
X-364648D01*
X-357984Y289998D02*
X-361316D01*
X-367981Y294997D02*
Y288332D01*
X-371313Y285000D01*
X-374645Y288332D01*
Y294997D01*
X-377977Y293331D02*
X-379644Y294997D01*
X-382976D01*
X-384642Y293331D01*
Y291665D01*
X-382976Y289998D01*
X-381310D01*
X-382976D01*
X-384642Y288332D01*
Y286666D01*
X-382976Y285000D01*
X-379644D01*
X-377977Y286666D01*
X-308000Y269000D02*
Y278997D01*
X-312998D01*
X-314664Y277331D01*
Y273998D01*
X-312998Y272332D01*
X-308000D01*
X-311332D02*
X-314664Y269000D01*
X-324661Y278997D02*
X-317997D01*
Y273998D01*
X-321329Y275665D01*
X-322995D01*
X-324661Y273998D01*
Y270666D01*
X-322995Y269000D01*
X-319663D01*
X-317997Y270666D01*
X-327994Y273998D02*
X-334658D01*
X-354652Y277331D02*
X-352985Y278997D01*
X-349653D01*
X-347987Y277331D01*
Y275665D01*
X-349653Y273998D01*
X-352985D01*
X-354652Y272332D01*
Y270666D01*
X-352985Y269000D01*
X-349653D01*
X-347987Y270666D01*
X-364648Y278997D02*
X-357984D01*
Y269000D01*
X-364648D01*
X-357984Y273998D02*
X-361316D01*
X-367981Y278997D02*
Y272332D01*
X-371313Y269000D01*
X-374645Y272332D01*
Y278997D01*
X-384642Y269000D02*
X-377977D01*
X-384642Y275665D01*
Y277331D01*
X-382976Y278997D01*
X-379644D01*
X-377977Y277331D01*
X-308000Y255000D02*
Y264997D01*
X-312998D01*
X-314664Y263331D01*
Y259998D01*
X-312998Y258332D01*
X-308000D01*
X-311332D02*
X-314664Y255000D01*
X-324661Y264997D02*
X-321329Y263331D01*
X-317997Y259998D01*
Y256666D01*
X-319663Y255000D01*
X-322995D01*
X-324661Y256666D01*
Y258332D01*
X-322995Y259998D01*
X-317997D01*
X-327994D02*
X-334658D01*
X-354652Y263331D02*
X-352985Y264997D01*
X-349653D01*
X-347987Y263331D01*
Y261665D01*
X-349653Y259998D01*
X-352985D01*
X-354652Y258332D01*
Y256666D01*
X-352985Y255000D01*
X-349653D01*
X-347987Y256666D01*
X-364648Y264997D02*
X-357984D01*
Y255000D01*
X-364648D01*
X-357984Y259998D02*
X-361316D01*
X-367981Y264997D02*
Y258332D01*
X-371313Y255000D01*
X-374645Y258332D01*
Y264997D01*
X-377977Y255000D02*
X-381310D01*
X-379644D01*
Y264997D01*
X-377977Y263331D01*
X-224331Y152336D02*
X-225997Y154002D01*
Y157334D01*
X-224331Y159000D01*
X-222665D01*
X-220998Y157334D01*
Y154002D01*
X-219332Y152336D01*
X-217666D01*
X-216000Y154002D01*
Y157334D01*
X-217666Y159000D01*
X-225997Y142339D02*
Y149003D01*
X-216000D01*
Y142339D01*
X-220998Y149003D02*
Y145671D01*
X-225997Y139007D02*
X-219332D01*
X-216000Y135674D01*
X-219332Y132342D01*
X-225997D01*
X-216000Y129010D02*
Y125677D01*
Y127344D01*
X-225997D01*
X-224331Y129010D01*
X-204331Y153336D02*
X-205997Y155002D01*
Y158334D01*
X-204331Y160000D01*
X-202665D01*
X-200998Y158334D01*
Y155002D01*
X-199332Y153336D01*
X-197666D01*
X-196000Y155002D01*
Y158334D01*
X-197666Y160000D01*
X-205997Y143339D02*
Y150003D01*
X-196000D01*
Y143339D01*
X-200998Y150003D02*
Y146671D01*
X-205997Y140007D02*
X-199332D01*
X-196000Y136674D01*
X-199332Y133342D01*
X-205997D01*
X-196000Y123345D02*
Y130010D01*
X-202665Y123345D01*
X-204331D01*
X-205997Y125011D01*
Y128343D01*
X-204331Y130010D01*
X-184331Y153336D02*
X-185997Y155002D01*
Y158334D01*
X-184331Y160000D01*
X-182665D01*
X-180998Y158334D01*
Y155002D01*
X-179332Y153336D01*
X-177666D01*
X-176000Y155002D01*
Y158334D01*
X-177666Y160000D01*
X-185997Y143339D02*
Y150003D01*
X-176000D01*
Y143339D01*
X-180998Y150003D02*
Y146671D01*
X-185997Y140007D02*
X-179332D01*
X-176000Y136674D01*
X-179332Y133342D01*
X-185997D01*
X-184331Y130010D02*
X-185997Y128343D01*
Y125011D01*
X-184331Y123345D01*
X-182665D01*
X-180998Y125011D01*
Y126677D01*
Y125011D01*
X-179332Y123345D01*
X-177666D01*
X-176000Y125011D01*
Y128343D01*
X-177666Y130010D01*
X-162331Y152336D02*
X-163997Y154002D01*
Y157334D01*
X-162331Y159000D01*
X-160665D01*
X-158998Y157334D01*
Y154002D01*
X-157332Y152336D01*
X-155666D01*
X-154000Y154002D01*
Y157334D01*
X-155666Y159000D01*
X-163997Y142339D02*
Y149003D01*
X-154000D01*
Y142339D01*
X-158998Y149003D02*
Y145671D01*
X-163997Y139007D02*
X-157332D01*
X-154000Y135674D01*
X-157332Y132342D01*
X-163997D01*
X-154000Y124011D02*
X-163997D01*
X-158998Y129010D01*
Y122345D01*
X-141331Y152336D02*
X-142997Y154002D01*
Y157334D01*
X-141331Y159000D01*
X-139664D01*
X-137998Y157334D01*
Y154002D01*
X-136332Y152336D01*
X-134666D01*
X-133000Y154002D01*
Y157334D01*
X-134666Y159000D01*
X-142997Y142339D02*
Y149003D01*
X-133000D01*
Y142339D01*
X-137998Y149003D02*
Y145671D01*
X-142997Y139007D02*
X-136332D01*
X-133000Y135674D01*
X-136332Y132342D01*
X-142997D01*
Y122345D02*
Y129010D01*
X-137998D01*
X-139664Y125677D01*
Y124011D01*
X-137998Y122345D01*
X-134666D01*
X-133000Y124011D01*
Y127344D01*
X-134666Y129010D01*
X-305997Y349336D02*
Y356000D01*
X-300998D01*
X-302665Y352668D01*
Y351002D01*
X-300998Y349336D01*
X-297666D01*
X-296000Y351002D01*
Y354334D01*
X-297666Y356000D01*
X-305997Y346003D02*
X-299332D01*
X-296000Y342671D01*
X-299332Y339339D01*
X-305997D01*
D30*
X-134318Y232350D02*
X-125682D01*
X-134318Y219650D02*
X-125682D01*
X-132888Y315350D02*
X-124252D01*
X-132888Y302650D02*
X-124252D01*
X-133318Y296350D02*
X-124682D01*
X-133318Y283650D02*
X-124682D01*
X-133318Y277350D02*
X-124682D01*
X-133318Y264650D02*
X-124682D01*
X-133318Y258350D02*
X-124682D01*
X-133318Y245650D02*
X-124682D01*
X-132888Y334350D02*
X-124252D01*
X-132888Y321650D02*
X-124252D01*
M02*
