M48
;Layer_Color=9474304
;FILE_FORMAT=4:4
METRIC,TZ
;TYPE=PLATED
T1F00S00C0.6000
T2F00S00C0.8000
T3F00S00C0.9000
T4F00S00C1.0000
T5F00S00C3.0000
%
T01
X-157000Y228000
X-118000Y213000
X-147000Y345000
X-236000Y293000
X-238000Y261000
X-276000Y322000
X-301000Y175000
X-326000Y161000
Y189000
X-351000Y175000
T02
X-320000Y99000
X-300000
X-280000
X-260000
X-240000
X-220000
X-200000
X-180000
X-160000
X-140000
Y380000
X-160000
X-180000
X-200000
X-220000
X-240000
X-260000
X-280000
X-300000
X-320000
T03
X-210000Y195000
X-250000
T04
X-230000Y190000
T05
X-374890Y94030
X-84890
Y384030
X-374890
M30
