G04 Layer_Color=16711935*
%FSLAX44Y44*%
%MOMM*%
G71*
G01*
G75*
%ADD55R,1.4732X1.8034*%
%ADD68C,1.7032*%
%ADD69R,1.7032X1.7032*%
%ADD70O,2.2352X1.8542*%
%ADD71O,3.7592X3.2512*%
%ADD72R,1.7032X1.7032*%
%ADD73C,2.7032*%
%ADD74C,1.9032*%
%ADD75R,1.2032X2.6032*%
%ADD76R,3.5032X2.6032*%
D55*
X494792Y-42418D02*
D03*
X515112D02*
D03*
X535432Y-184912D02*
D03*
X555752D02*
D03*
X494792Y-65786D02*
D03*
X515112D02*
D03*
D68*
X816102Y-339414D02*
D03*
X492252Y-19558D02*
D03*
X517652D02*
D03*
X543052D02*
D03*
X568452D02*
D03*
X593852D02*
D03*
X619252D02*
D03*
X644652D02*
D03*
X216224Y-287274D02*
D03*
D69*
X816102Y-189414D02*
D03*
D70*
X470230Y-148082D02*
D03*
X670230D02*
D03*
X470230Y-91948D02*
D03*
X670230D02*
D03*
D71*
X887222Y-314452D02*
D03*
Y-263652D02*
D03*
X885190Y-193548D02*
D03*
Y-41148D02*
D03*
Y-91948D02*
D03*
Y-142748D02*
D03*
X106680Y-83566D02*
D03*
Y-32766D02*
D03*
D72*
X670052Y-19558D02*
D03*
X66224Y-287274D02*
D03*
D73*
X258196Y-189738D02*
D03*
X20696D02*
D03*
D74*
X171450Y-105410D02*
D03*
X193450Y-30410D02*
D03*
D75*
X556908Y-151384D02*
D03*
X533908Y-151384D02*
D03*
X510908Y-151384D02*
D03*
D76*
X533908Y-93384D02*
D03*
M02*
