M48
;Layer_Color=9474304
;FILE_FORMAT=4:4
METRIC,LZ
;TYPE=PLATED
T1F00S00C0.6000
T2F00S00C0.9000
T3F00S00C0.9906
T4F00S00C1.0160
T5F00S00C1.0668
T6F00S00C1.5240
T7F00S00C1.6000
T8F00S00C1.7000
%
T01
X00400558Y-0033274
X00416814Y-00332994
X00586232Y-0027432
X00797052Y-00333502
X00834136Y-00339344
X00828294Y-00119888
X00845566Y-00097028
X0077343Y-00041148
X0070739Y-0015621
X00693928Y-00226314
X00623824Y-00212852
X0057658Y-0019304
X00586232Y-00258572
X00590804Y-00131064
X0057785Y-0011557
X0063754Y-00076962
X00378206Y-00202184
X00377698Y-00216408
T02
X00492252Y-00019558
X00517652
X00543052
X00568452
X00593852
X00619252
X00644652
X00670052
T03
X00066224Y-00287274
X00216224
X00816102Y-00339414
Y-00189414
T04
X0047023Y-00148082
Y-00091948
X0067023
Y-00148082
T05
X0017145Y-0010541
X0019345Y-0003041
T06
X0088519Y-00193548
Y-00142748
Y-00091948
Y-00041148
T07
X00887222Y-00314452
Y-00263652
X0010668Y-00083566
Y-00032766
T08
X00020696Y-00189738
X00258196
M30
