G04 Layer_Color=65535*
%FSLAX44Y44*%
%MOMM*%
G71*
G01*
G75*
%ADD28C,0.7620*%
%ADD31C,0.2540*%
%ADD43C,0.1000*%
%ADD44C,0.2000*%
%ADD45C,0.1270*%
%ADD46C,0.1778*%
%ADD47C,0.1780*%
%ADD48C,0.1016*%
%ADD49R,0.5080X4.1656*%
%ADD50R,4.1656X0.5080*%
G36*
X915162Y-286512D02*
X921512D01*
Y-291592D01*
X915162D01*
Y-295402D01*
X908812Y-289052D01*
X915162Y-282702D01*
Y-286512D01*
D02*
G37*
G36*
X913130Y-114808D02*
X919480D01*
Y-119888D01*
X913130D01*
Y-123698D01*
X906780Y-117348D01*
X913130Y-110998D01*
Y-114808D01*
D02*
G37*
G36*
X85090Y-58166D02*
X78740Y-64516D01*
Y-60706D01*
X72390D01*
Y-55626D01*
X78740D01*
Y-51816D01*
X85090Y-58166D01*
D02*
G37*
D28*
X678561Y-181864D02*
G03*
X678584Y-181857I-318J1030D01*
G01*
X813689Y-109220D02*
G03*
X813666Y-109227I318J-1030D01*
G01*
D31*
X267967Y-25418D02*
G03*
X286667Y-25319I9350J49D01*
G01*
X255727Y-45542D02*
G03*
X255727Y-30531I-1702J7506D01*
G01*
Y-45517D02*
G03*
X255727Y-60528I1702J-7506D01*
G01*
Y-90246D02*
G03*
X255727Y-75235I-1702J7506D01*
G01*
Y-90221D02*
G03*
X255727Y-105232I1702J-7506D01*
G01*
X635870Y-241808D02*
G03*
X635870Y-241808I-25000J0D01*
G01*
X671703Y-175260D02*
X709549D01*
Y-226060D02*
Y-175260D01*
X671703Y-226060D02*
X709549D01*
X671703D02*
Y-175260D01*
X481076Y-148590D02*
X506730D01*
X506476Y-148336D02*
X506730Y-148082D01*
Y-135382D01*
X633730D01*
Y-160782D02*
Y-135382D01*
X506730Y-160782D02*
X633730D01*
X506730D02*
Y-148590D01*
X633730Y-148082D02*
X660146D01*
X481076Y-92456D02*
X506730D01*
X506476Y-92202D02*
X506730Y-91948D01*
Y-79248D01*
X633730D01*
Y-104648D02*
Y-79248D01*
X506730Y-104648D02*
X633730D01*
X506730D02*
Y-92456D01*
X633730Y-91948D02*
X660146D01*
X782701Y-115824D02*
X820547D01*
X782701D02*
Y-65024D01*
X820547D01*
Y-115824D02*
Y-65024D01*
X309870Y-110419D02*
Y-25418D01*
X244866Y-110419D02*
X309867D01*
X244869D02*
Y-25418D01*
X286768D02*
X309870D01*
X244869D02*
X267970D01*
X552290Y-238318D02*
X562290Y-248318D01*
X532290Y-238318D02*
X552290D01*
X522290Y-248318D02*
X532290Y-238318D01*
X522290Y-278318D02*
Y-248318D01*
Y-278318D02*
X562290D01*
Y-248318D01*
X633370Y-261808D02*
X638370D01*
X580870Y-271808D02*
Y-211808D01*
X643870Y-223808D02*
Y-221808D01*
X633870Y-211808D02*
X643870Y-221808D01*
Y-262808D02*
Y-260808D01*
X635870Y-270808D02*
X643870Y-262808D01*
X580870Y-211808D02*
X633870D01*
X635870Y-213808D02*
X643870Y-221808D01*
X580870Y-271808D02*
X634870D01*
X643870Y-262808D01*
Y-221808D01*
X611870Y-265808D02*
Y-217808D01*
X635870Y-264308D02*
Y-259308D01*
D43*
X559790Y-258318D02*
G03*
X559790Y-258318I-17500J0D01*
G01*
X529790Y-248318D02*
Y-245818D01*
Y-250818D02*
Y-248318D01*
X527290D02*
X532290D01*
X844804Y-149196D02*
Y-155194D01*
X847803D01*
X848803Y-154194D01*
Y-150196D01*
X847803Y-149196D01*
X844804D01*
X853801Y-155194D02*
Y-149196D01*
X850802Y-152195D01*
X854801D01*
X720090Y-345790D02*
Y-351788D01*
X723089D01*
X724089Y-350788D01*
Y-346790D01*
X723089Y-345790D01*
X720090D01*
X730087D02*
X726088D01*
Y-348789D01*
X728087Y-347789D01*
X729087D01*
X730087Y-348789D01*
Y-350788D01*
X729087Y-351788D01*
X727088D01*
X726088Y-350788D01*
X307467Y-355629D02*
Y-349631D01*
X304468D01*
X303468Y-350631D01*
Y-354629D01*
X304468Y-355629D01*
X307467D01*
X301469Y-349631D02*
X299470D01*
X300469D01*
Y-355629D01*
X301469Y-354629D01*
X855661Y-350164D02*
X854661Y-349164D01*
X852662D01*
X851662Y-350164D01*
Y-354162D01*
X852662Y-355162D01*
X854661D01*
X855661Y-354162D01*
X857660Y-350164D02*
X858660Y-349164D01*
X860659D01*
X861659Y-350164D01*
Y-351163D01*
X860659Y-352163D01*
X861659Y-353163D01*
Y-354162D01*
X860659Y-355162D01*
X858660D01*
X857660Y-354162D01*
Y-353163D01*
X858660Y-352163D01*
X857660Y-351163D01*
Y-350164D01*
X858660Y-352163D02*
X860659D01*
X681990Y-161134D02*
Y-166132D01*
X682990Y-167132D01*
X684989D01*
X685989Y-166132D01*
Y-161134D01*
X687988Y-162134D02*
X688988Y-161134D01*
X690987D01*
X691987Y-162134D01*
Y-163133D01*
X690987Y-164133D01*
X689987D01*
X690987D01*
X691987Y-165133D01*
Y-166132D01*
X690987Y-167132D01*
X688988D01*
X687988Y-166132D01*
X556006Y-150368D02*
Y-144370D01*
X559005D01*
X560005Y-145370D01*
Y-147369D01*
X559005Y-148369D01*
X556006D01*
X558005D02*
X560005Y-150368D01*
X562004D02*
X565003D01*
X566003Y-149368D01*
X565003Y-148369D01*
X563004D01*
X562004Y-147369D01*
X563004Y-146369D01*
X566003D01*
X571001Y-150368D02*
X569002D01*
X568002Y-149368D01*
Y-147369D01*
X569002Y-146369D01*
X571001D01*
X572001Y-147369D01*
Y-148369D01*
X568002D01*
X574000Y-150368D02*
Y-146369D01*
X576999D01*
X577999Y-147369D01*
Y-150368D01*
X727202Y-252066D02*
Y-258064D01*
X731201D01*
X737199D02*
X733200D01*
X737199Y-254065D01*
Y-253066D01*
X736199Y-252066D01*
X734200D01*
X733200Y-253066D01*
X970215Y-346284D02*
X969215Y-345284D01*
X967216D01*
X966216Y-346284D01*
Y-350282D01*
X967216Y-351282D01*
X969215D01*
X970215Y-350282D01*
X975213Y-345284D02*
X973214D01*
X972214Y-346284D01*
Y-350282D01*
X973214Y-351282D01*
X975213D01*
X976213Y-350282D01*
Y-346284D01*
X975213Y-345284D01*
X978212Y-351282D02*
Y-345284D01*
X982211Y-351282D01*
Y-345284D01*
X984210Y-346284D02*
X985210Y-345284D01*
X987209D01*
X988209Y-346284D01*
Y-347283D01*
X987209Y-348283D01*
X986209D01*
X987209D01*
X988209Y-349283D01*
Y-350282D01*
X987209Y-351282D01*
X985210D01*
X984210Y-350282D01*
X718247Y-242652D02*
X717247Y-241652D01*
X715248D01*
X714248Y-242652D01*
Y-246650D01*
X715248Y-247650D01*
X717247D01*
X718247Y-246650D01*
X720246Y-241652D02*
X724245D01*
Y-242652D01*
X720246Y-246650D01*
Y-247650D01*
X554482Y-94742D02*
Y-88744D01*
X557481D01*
X558481Y-89744D01*
Y-91743D01*
X557481Y-92743D01*
X554482D01*
X556481D02*
X558481Y-94742D01*
X564479Y-90743D02*
X561480D01*
X560480Y-91743D01*
Y-93742D01*
X561480Y-94742D01*
X564479D01*
X566478D02*
X569477D01*
X570477Y-93742D01*
X569477Y-92743D01*
X567478D01*
X566478Y-91743D01*
X567478Y-90743D01*
X570477D01*
X828824Y-44450D02*
Y-38452D01*
X831823D01*
X832823Y-39452D01*
Y-41451D01*
X831823Y-42451D01*
X828824D01*
X830823D02*
X832823Y-44450D01*
X837821D02*
Y-38452D01*
X834822Y-41451D01*
X838821D01*
X967675Y-224872D02*
X966675Y-223872D01*
X964676D01*
X963676Y-224872D01*
Y-228870D01*
X964676Y-229870D01*
X966675D01*
X967675Y-228870D01*
X972673Y-223872D02*
X970674D01*
X969674Y-224872D01*
Y-228870D01*
X970674Y-229870D01*
X972673D01*
X973673Y-228870D01*
Y-224872D01*
X972673Y-223872D01*
X975672Y-229870D02*
Y-223872D01*
X979671Y-229870D01*
Y-223872D01*
X985669Y-229870D02*
X981670D01*
X985669Y-225871D01*
Y-224872D01*
X984669Y-223872D01*
X982670D01*
X981670Y-224872D01*
X720299Y-160212D02*
X719299Y-161212D01*
Y-163211D01*
X720299Y-164211D01*
X724297D01*
X725297Y-163211D01*
Y-161212D01*
X724297Y-160212D01*
X719299Y-154214D02*
X720299Y-156214D01*
X722298Y-158213D01*
X724297D01*
X725297Y-157213D01*
Y-155214D01*
X724297Y-154214D01*
X723298D01*
X722298Y-155214D01*
Y-158213D01*
X840994Y-110080D02*
Y-115078D01*
X841994Y-116078D01*
X843993D01*
X844993Y-115078D01*
Y-110080D01*
X850991Y-116078D02*
X846992D01*
X850991Y-112079D01*
Y-111080D01*
X849991Y-110080D01*
X847992D01*
X846992Y-111080D01*
X459486Y-22860D02*
Y-16862D01*
X462485D01*
X463485Y-17862D01*
Y-19861D01*
X462485Y-20861D01*
X459486D01*
X465484Y-22860D02*
X467483D01*
X466484D01*
Y-16862D01*
X465484Y-17862D01*
D44*
X154610Y-100310D02*
G03*
X160140Y-115670I26980J1038D01*
G01*
X182648Y-127290D02*
G03*
X208610Y-100310I-1038J26980D01*
G01*
Y-34310D02*
G03*
X202596Y-17322I-27000J0D01*
G01*
X182609Y-7329D02*
G03*
X154610Y-34310I-999J-26981D01*
G01*
X479552Y-32258D02*
X682752D01*
Y-6858D01*
X479552D02*
X682752D01*
X479552Y-32258D02*
Y-6858D01*
X208610Y-100310D02*
Y-34310D01*
X154610Y-100310D02*
Y-34310D01*
X493141Y-302514D02*
X499756D01*
Y-353314D02*
Y-302514D01*
X480706Y-353314D02*
X499756D01*
X480706D02*
Y-302514D01*
X486791D01*
D45*
X368400Y-240531D02*
G03*
X368400Y-338589I9806J-49029D01*
G01*
X388206Y-338618D02*
G03*
X388206Y-240560I-9806J49029D01*
G01*
X251946Y-237738D02*
Y-201738D01*
X26946Y-237738D02*
X251946D01*
X26946D02*
Y-201738D01*
Y-177738D02*
Y-141738D01*
X251946D01*
Y-177738D02*
Y-141738D01*
X472694Y-250952D02*
X511556D01*
Y-233934D01*
X472694D02*
X511556D01*
X472694Y-250952D02*
Y-233934D01*
X278384Y-256794D02*
Y-206502D01*
Y-256794D02*
X297942D01*
Y-206502D01*
X278384D02*
X297942D01*
X473456Y-276606D02*
X512318D01*
X473456Y-293624D02*
Y-276606D01*
Y-293624D02*
X512318D01*
Y-276606D01*
X473456Y-255270D02*
X512318D01*
X473456Y-272288D02*
Y-255270D01*
Y-272288D02*
X512318D01*
Y-255270D01*
X429706Y-341810D02*
Y-238810D01*
X429706Y-341810D02*
X429706Y-341810D01*
X390956Y-341810D02*
X429706D01*
X390956D02*
X419706D01*
X411206D02*
X411206Y-341810D01*
X390956Y-341810D02*
X411206D01*
X419706Y-341560D02*
X429706Y-331560D01*
X390956Y-341810D02*
X404706D01*
X389956Y-238810D02*
Y-232060D01*
X326706Y-331560D02*
X336706Y-341560D01*
X365956D01*
X390956Y-348310D02*
Y-341810D01*
X365956Y-348310D02*
Y-341810D01*
X389956Y-238810D02*
X429706D01*
X389956Y-238810D02*
X389956Y-238810D01*
X326706Y-331560D02*
Y-238810D01*
X366456D02*
Y-231810D01*
X326706Y-238810D02*
X366456D01*
X593090Y-204470D02*
X631952D01*
Y-187452D01*
X593090D02*
X631952D01*
X593090Y-204470D02*
Y-187452D01*
X495503Y-37846D02*
X497169Y-39512D01*
Y-42844D01*
X495503Y-44510D01*
X493837D01*
X492170Y-42844D01*
Y-41178D01*
Y-42844D01*
X490504Y-44510D01*
X488838D01*
X487172Y-42844D01*
Y-39512D01*
X488838Y-37846D01*
X487172Y-47843D02*
X488838D01*
Y-49509D01*
X487172D01*
Y-47843D01*
X495503Y-56173D02*
X497169Y-57840D01*
Y-61172D01*
X495503Y-62838D01*
X493837D01*
X492170Y-61172D01*
Y-59506D01*
Y-61172D01*
X490504Y-62838D01*
X488838D01*
X487172Y-61172D01*
Y-57840D01*
X488838Y-56173D01*
X497169Y-66170D02*
X490504D01*
X487172Y-69503D01*
X490504Y-72835D01*
X497169D01*
X519379Y-43748D02*
X521045Y-42082D01*
Y-38750D01*
X519379Y-37084D01*
X512714D01*
X511048Y-38750D01*
Y-42082D01*
X512714Y-43748D01*
X516046D01*
Y-40416D01*
X511048Y-47081D02*
X521045D01*
X511048Y-53745D01*
X521045D01*
Y-57078D02*
X511048D01*
Y-62076D01*
X512714Y-63742D01*
X519379D01*
X521045Y-62076D01*
Y-57078D01*
X547461Y-36576D02*
X537464D01*
Y-41574D01*
X539130Y-43240D01*
X545795D01*
X547461Y-41574D01*
Y-36576D01*
Y-46573D02*
Y-49905D01*
Y-48239D01*
X537464D01*
Y-46573D01*
Y-49905D01*
Y-54903D02*
X547461D01*
X544128Y-58236D01*
X547461Y-61568D01*
X537464D01*
Y-71565D02*
Y-64900D01*
X544128Y-71565D01*
X545795D01*
X547461Y-69899D01*
Y-66566D01*
X545795Y-64900D01*
X547461Y-36576D02*
X537464D01*
Y-41574D01*
X539130Y-43240D01*
X545795D01*
X547461Y-41574D01*
Y-36576D01*
Y-46573D02*
Y-49905D01*
Y-48239D01*
X537464D01*
Y-46573D01*
Y-49905D01*
Y-54903D02*
X547461D01*
X544128Y-58236D01*
X547461Y-61568D01*
X537464D01*
Y-71565D02*
Y-64900D01*
X544128Y-71565D01*
X545795D01*
X547461Y-69899D01*
Y-66566D01*
X545795Y-64900D01*
X573369Y-37592D02*
X566704D01*
X563372Y-40924D01*
X566704Y-44257D01*
X573369D01*
Y-47589D02*
X563372D01*
Y-52587D01*
X565038Y-54253D01*
X571703D01*
X573369Y-52587D01*
Y-47589D01*
Y-57586D02*
X563372D01*
Y-62584D01*
X565038Y-64250D01*
X571703D01*
X573369Y-62584D01*
Y-57586D01*
X563372Y-74247D02*
Y-67582D01*
X570037Y-74247D01*
X571703D01*
X573369Y-72581D01*
Y-69248D01*
X571703Y-67582D01*
X596849Y-43495D02*
X598515Y-41828D01*
Y-38496D01*
X596849Y-36830D01*
X590184D01*
X588518Y-38496D01*
Y-41828D01*
X590184Y-43495D01*
X593516D01*
Y-40162D01*
X588518Y-46827D02*
X598515D01*
X588518Y-53491D01*
X598515D01*
Y-56824D02*
X588518D01*
Y-61822D01*
X590184Y-63488D01*
X596849D01*
X598515Y-61822D01*
Y-56824D01*
X623153Y-36830D02*
X616488D01*
X613156Y-40162D01*
X616488Y-43495D01*
X623153D01*
Y-46827D02*
X613156D01*
Y-51825D01*
X614822Y-53491D01*
X621487D01*
X623153Y-51825D01*
Y-46827D01*
Y-56824D02*
X613156D01*
Y-61822D01*
X614822Y-63488D01*
X621487D01*
X623153Y-61822D01*
Y-56824D01*
X613156Y-66820D02*
Y-70153D01*
Y-68486D01*
X623153D01*
X621487Y-66820D01*
X647649Y-43495D02*
X649315Y-41828D01*
Y-38496D01*
X647649Y-36830D01*
X640984D01*
X639318Y-38496D01*
Y-41828D01*
X640984Y-43495D01*
X644316D01*
Y-40162D01*
X639318Y-46827D02*
X649315D01*
X639318Y-53491D01*
X649315D01*
Y-56824D02*
X639318D01*
Y-61822D01*
X640984Y-63488D01*
X647649D01*
X649315Y-61822D01*
Y-56824D01*
X675477Y-36830D02*
X665480D01*
Y-41828D01*
X667146Y-43495D01*
X673811D01*
X675477Y-41828D01*
Y-36830D01*
Y-46827D02*
Y-50159D01*
Y-48493D01*
X665480D01*
Y-46827D01*
Y-50159D01*
Y-55157D02*
X675477D01*
X672144Y-58490D01*
X675477Y-61822D01*
X665480D01*
Y-65154D02*
Y-68486D01*
Y-66820D01*
X675477D01*
X673811Y-65154D01*
X310388Y-9401D02*
Y-15748D01*
X311658Y-17018D01*
X314197D01*
X315466Y-15748D01*
Y-9401D01*
X318006Y-17018D02*
Y-9401D01*
X321814D01*
X323084Y-10670D01*
Y-13209D01*
X321814Y-14479D01*
X318006D01*
X320545D02*
X323084Y-17018D01*
X325623D02*
X328162D01*
X326893D01*
Y-9401D01*
X325623Y-10670D01*
X530352Y-318519D02*
Y-324866D01*
X531622Y-326136D01*
X534161D01*
X535430Y-324866D01*
Y-318519D01*
X537970Y-326136D02*
X540509D01*
X539239D01*
Y-318519D01*
X537970Y-319788D01*
X137160Y-36830D02*
X144777D01*
Y-40639D01*
X143508Y-41908D01*
X140969D01*
X139699Y-40639D01*
Y-36830D01*
Y-39369D02*
X137160Y-41908D01*
X144777Y-44447D02*
X139699D01*
X137160Y-46987D01*
X139699Y-49526D01*
X144777D01*
X137160Y-52065D02*
Y-54604D01*
Y-53335D01*
X144777D01*
X143508Y-52065D01*
X574548Y-200660D02*
Y-193043D01*
X578357D01*
X579626Y-194312D01*
Y-196851D01*
X578357Y-198121D01*
X574548D01*
X577087D02*
X579626Y-200660D01*
X582165Y-194312D02*
X583435Y-193043D01*
X585974D01*
X587244Y-194312D01*
Y-195582D01*
X585974Y-196851D01*
X584705D01*
X585974D01*
X587244Y-198121D01*
Y-199390D01*
X585974Y-200660D01*
X583435D01*
X582165Y-199390D01*
X455930Y-268732D02*
Y-261115D01*
X459739D01*
X461008Y-262384D01*
Y-264923D01*
X459739Y-266193D01*
X455930D01*
X458469D02*
X461008Y-268732D01*
X468626D02*
X463548D01*
X468626Y-263654D01*
Y-262384D01*
X467356Y-261115D01*
X464817D01*
X463548Y-262384D01*
X455422Y-246380D02*
Y-238762D01*
X459231D01*
X460500Y-240032D01*
Y-242571D01*
X459231Y-243841D01*
X455422D01*
X457961D02*
X460500Y-246380D01*
X463040D02*
X465579D01*
X464309D01*
Y-238762D01*
X463040Y-240032D01*
X620776Y-344935D02*
Y-352552D01*
X625854D01*
X628394D02*
X630933D01*
X629663D01*
Y-344935D01*
X628394Y-346204D01*
X307089Y-235206D02*
Y-240284D01*
X310897D01*
Y-237745D01*
Y-240284D01*
X314706D01*
Y-232666D02*
Y-230127D01*
Y-231397D01*
X307089D01*
X308358Y-232666D01*
X32002Y-127256D02*
X26924D01*
Y-131065D01*
X29463D01*
X26924D01*
Y-134874D01*
X39620D02*
X34541D01*
X39620Y-129796D01*
Y-128526D01*
X38350Y-127256D01*
X35811D01*
X34541Y-128526D01*
X560830Y-338836D02*
X553212D01*
Y-342645D01*
X554482Y-343914D01*
X559560D01*
X560830Y-342645D01*
Y-338836D01*
X559560Y-346454D02*
X560830Y-347723D01*
Y-350262D01*
X559560Y-351532D01*
X558290D01*
X557021Y-350262D01*
Y-348993D01*
Y-350262D01*
X555751Y-351532D01*
X554482D01*
X553212Y-350262D01*
Y-347723D01*
X554482Y-346454D01*
X437388Y-199646D02*
Y-207264D01*
X441197D01*
X442466Y-205994D01*
Y-200916D01*
X441197Y-199646D01*
X437388D01*
X450084Y-207264D02*
X445005D01*
X450084Y-202186D01*
Y-200916D01*
X448814Y-199646D01*
X446275D01*
X445005Y-200916D01*
X145032Y-84834D02*
X146301Y-83565D01*
Y-81026D01*
X145032Y-79756D01*
X139954D01*
X138684Y-81026D01*
Y-83565D01*
X139954Y-84834D01*
X146301Y-91182D02*
Y-88643D01*
X145032Y-87374D01*
X139954D01*
X138684Y-88643D01*
Y-91182D01*
X139954Y-92452D01*
X145032D01*
X146301Y-91182D01*
X138684Y-94991D02*
X146301D01*
X138684Y-100069D01*
X146301D01*
X138684Y-102609D02*
Y-105148D01*
Y-103878D01*
X146301D01*
X145032Y-102609D01*
X574292Y-262380D02*
X575561Y-261111D01*
Y-258572D01*
X574292Y-257302D01*
X569214D01*
X567944Y-258572D01*
Y-261111D01*
X569214Y-262380D01*
X567944Y-268728D02*
X575561D01*
X571753Y-264919D01*
Y-269998D01*
X314200Y-323852D02*
X312931Y-325121D01*
Y-327660D01*
X314200Y-328930D01*
X319278D01*
X320548Y-327660D01*
Y-325121D01*
X319278Y-323852D01*
X314200Y-321312D02*
X312931Y-320043D01*
Y-317504D01*
X314200Y-316234D01*
X315470D01*
X316739Y-317504D01*
Y-318773D01*
Y-317504D01*
X318009Y-316234D01*
X319278D01*
X320548Y-317504D01*
Y-320043D01*
X319278Y-321312D01*
X57402Y-325884D02*
X56133Y-324614D01*
X53594D01*
X52324Y-325884D01*
Y-330962D01*
X53594Y-332232D01*
X56133D01*
X57402Y-330962D01*
X65020Y-324614D02*
X59942D01*
Y-328423D01*
X62481Y-327154D01*
X63750D01*
X65020Y-328423D01*
Y-330962D01*
X63750Y-332232D01*
X61211D01*
X59942Y-330962D01*
X523238Y-286448D02*
X521969Y-285179D01*
X519430D01*
X518160Y-286448D01*
Y-291526D01*
X519430Y-292796D01*
X521969D01*
X523238Y-291526D01*
X530856Y-292796D02*
X525778D01*
X530856Y-287718D01*
Y-286448D01*
X529586Y-285179D01*
X527047D01*
X525778Y-286448D01*
X460246Y-282450D02*
X458977Y-281180D01*
X456438D01*
X455168Y-282450D01*
Y-287528D01*
X456438Y-288798D01*
X458977D01*
X460246Y-287528D01*
X462785Y-288798D02*
X465325D01*
X464055D01*
Y-281180D01*
X462785Y-282450D01*
X290581Y-87498D02*
X294172Y-91089D01*
Y-87498D02*
X290581Y-91089D01*
X294538Y-40794D02*
X299617D01*
X364647Y-331560D02*
Y-326482D01*
X362108Y-329021D02*
X367186D01*
D46*
X768094Y-167767D02*
Y-165482D01*
Y-167767D02*
X835912D01*
X768094Y-127889D02*
X835912D01*
X768094Y-130174D02*
Y-127889D01*
X733933Y-279906D02*
X736218D01*
X733933Y-347724D02*
Y-279906D01*
X773811Y-347724D02*
Y-279906D01*
X771526D02*
X773811D01*
X267081Y-270764D02*
X269366D01*
X267081Y-338582D02*
Y-270764D01*
X306959Y-338582D02*
Y-270764D01*
X304674D02*
X306959D01*
X816102Y-174414D02*
X846102D01*
X786102D02*
X816102D01*
X786102Y-354414D02*
X846102D01*
Y-264414D01*
Y-174414D01*
X786102Y-264414D02*
Y-174414D01*
Y-354414D02*
Y-264414D01*
X883412Y-341122D02*
X891032D01*
X974852Y-257302D02*
X988822D01*
X974852Y-271272D02*
Y-257302D01*
Y-271272D02*
X988822D01*
X974852Y-308102D02*
X988822D01*
X974852Y-322072D02*
Y-308102D01*
Y-322072D02*
X988822D01*
Y-339852D02*
Y-238252D01*
X891032D02*
X988822D01*
X867664Y-339852D02*
X988822D01*
X861822D02*
Y-238252D01*
X883412Y-240792D02*
Y-238252D01*
Y-240792D02*
X891032D01*
Y-238252D01*
X867664D02*
X883412D01*
X701802Y-234442D02*
X710438D01*
Y-244602D02*
Y-234442D01*
Y-254762D02*
Y-244602D01*
X701802Y-254762D02*
X710438D01*
X672846D02*
X681482D01*
X672846D02*
Y-244602D01*
Y-234442D01*
X681482D01*
X776862Y-53502D02*
X785862D01*
X776862D02*
Y-29302D01*
X785862D01*
X815862D02*
X824862D01*
Y-53502D02*
Y-29302D01*
X815862Y-53502D02*
X824862D01*
X881430Y-220268D02*
X889050D01*
X881430Y-18338D02*
Y-15798D01*
Y-18338D02*
X889050D01*
Y-15798D01*
X973074Y-34848D02*
X985570D01*
X972870Y-48818D02*
Y-34848D01*
X973074Y-48818D02*
X985570D01*
X972870Y-85648D02*
X986840D01*
X972870Y-99618D02*
Y-85648D01*
Y-99618D02*
X986840D01*
X972870Y-136448D02*
X986840D01*
X972870Y-150418D02*
Y-136448D01*
Y-150418D02*
X986840D01*
X972870Y-187248D02*
X986840D01*
X972870Y-201218D02*
Y-187248D01*
Y-201218D02*
X986840D01*
X859840Y-218998D02*
Y-15798D01*
Y-218998D02*
X986840D01*
X889050Y-15798D02*
X986840D01*
Y-218998D02*
Y-15798D01*
X859840D02*
X881430D01*
X754126Y-165862D02*
Y-157226D01*
X743966Y-165862D02*
X754126D01*
X733806D02*
X743966D01*
X733806D02*
Y-157226D01*
Y-136906D02*
Y-128270D01*
X743966D01*
X754126D01*
Y-136906D02*
Y-128270D01*
X528318Y-225425D02*
Y-223140D01*
X460500Y-225425D02*
X528318D01*
X460500Y-185547D02*
X528318D01*
Y-187832D02*
Y-185547D01*
X110490Y-108966D02*
X126238D01*
X102870D02*
Y-106426D01*
X110490D01*
Y-108966D02*
Y-106426D01*
X132080Y-108966D02*
Y-7366D01*
X5080D02*
X126238D01*
X5080Y-108966D02*
X102870D01*
X5080D02*
Y-7366D01*
Y-25146D02*
X19050D01*
Y-39116D02*
Y-25146D01*
X5080Y-39116D02*
X19050D01*
X5080Y-75946D02*
X19050D01*
Y-89916D02*
Y-75946D01*
X5080Y-89916D02*
X19050D01*
X102870Y-6096D02*
X110490D01*
X51224Y-287274D02*
Y-257274D01*
Y-317274D02*
Y-287274D01*
X231224Y-317274D02*
Y-257274D01*
X141224D02*
X231224D01*
X51224D02*
X141224D01*
X51224Y-317274D02*
X141224D01*
X231224D01*
X604902Y-283210D02*
X607187D01*
Y-351028D02*
Y-283210D01*
X567309Y-351028D02*
Y-283210D01*
X569594D01*
D47*
X861822Y-339852D02*
X867664D01*
X861822Y-238252D02*
X867918D01*
X125984Y-108966D02*
X132080D01*
X126238Y-7366D02*
X132080D01*
D48*
X487934Y-235966D02*
X496570D01*
X487934Y-248666D02*
X496570D01*
X295656Y-239522D02*
Y-223774D01*
X280416Y-239522D02*
Y-223774D01*
X488442Y-270256D02*
X497078D01*
X488442Y-257556D02*
X497078D01*
X608330Y-189484D02*
X616966D01*
X608330Y-202184D02*
X616966D01*
D49*
X836675Y-147828D02*
D03*
X459737Y-205486D02*
D03*
D50*
X753872Y-348487D02*
D03*
X287020Y-339345D02*
D03*
X587248Y-351791D02*
D03*
M02*
