G04 Layer_Color=65535*
%FSLAX44Y44*%
%MOMM*%
G71*
G01*
G75*
%ADD23C,0.1778*%
%ADD24C,0.2540*%
%ADD25C,0.3810*%
%ADD26C,0.1270*%
G36*
X482219Y86360D02*
X479933Y77470D01*
X484759Y71120D01*
X494919Y69088D01*
X506349Y71374D01*
X510413Y76962D01*
Y82550D01*
X505079Y89662D01*
X532765D01*
X528447Y77978D01*
X519303Y66294D01*
X499745Y58420D01*
X480441Y60452D01*
X463169Y74676D01*
X457581Y89662D01*
X486537Y89916D01*
X482219Y86360D01*
D02*
G37*
D23*
X319000Y342560D02*
G03*
X319000Y322240I0J-10160D01*
G01*
X369800D02*
G03*
X369800Y342560I0J10160D01*
G01*
X317500Y200660D02*
G03*
X317500Y180340I0J-10160D01*
G01*
X368300D02*
G03*
X368300Y200660I0J10160D01*
G01*
Y144780D02*
G03*
X368300Y165100I0J10160D01*
G01*
X317500D02*
G03*
X317500Y144780I0J-10160D01*
G01*
Y30480D02*
G03*
X317500Y10160I0J-10160D01*
G01*
X368300D02*
G03*
X368300Y30480I0J10160D01*
G01*
X354228Y38744D02*
G03*
X328840Y38840I-12693J430D01*
G01*
X355088Y211504D02*
G03*
X329700Y211600I-12693J430D01*
G01*
X331700Y332400D02*
X339320D01*
X350750D02*
X358370D01*
X339320Y324780D02*
Y338750D01*
X350750Y324780D02*
Y338750D01*
X319000Y342560D02*
X369800D01*
X319000Y322240D02*
X369800D01*
X330200Y190500D02*
X337820D01*
X349250D02*
X356870D01*
X337820Y182880D02*
Y196850D01*
X349250Y182880D02*
Y196850D01*
X317500Y200660D02*
X368300D01*
X317500Y180340D02*
X368300D01*
X347980Y154940D02*
X355600D01*
X328930D02*
X336550D01*
X347980Y148590D02*
Y162560D01*
X336550Y148590D02*
Y162560D01*
X317500Y144780D02*
X368300D01*
X317500Y165100D02*
X368300D01*
X330200Y20320D02*
X337820D01*
X349250D02*
X356870D01*
X337820Y12700D02*
Y26670D01*
X349250Y12700D02*
Y26670D01*
X317500Y30480D02*
X368300D01*
X317500Y10160D02*
X368300D01*
X214508Y113698D02*
X233812D01*
X214508Y66708D02*
X233812D01*
X214508D02*
Y113698D01*
X224160Y58072D02*
Y66708D01*
X233812D02*
Y113698D01*
X224160D02*
Y122588D01*
X110368Y111158D02*
X129672D01*
X110368Y64168D02*
X129672D01*
X110368D02*
Y111158D01*
X120020Y55532D02*
Y64168D01*
X129672D02*
Y111158D01*
X120020D02*
Y120048D01*
X186568Y113698D02*
X205872D01*
X186568Y66708D02*
X205872D01*
X186568D02*
Y113698D01*
X196220Y58072D02*
Y66708D01*
X205872D02*
Y113698D01*
X196220D02*
Y122588D01*
X401828Y113538D02*
X421132D01*
X401828Y66548D02*
X421132D01*
X401828D02*
Y113538D01*
X411480Y57912D02*
Y66548D01*
X421132D02*
Y113538D01*
X411480D02*
Y122428D01*
X429768Y66802D02*
X449072D01*
X429768Y113792D02*
X449072D01*
Y66802D02*
Y113792D01*
X439420D02*
Y122428D01*
X429768Y66802D02*
Y113792D01*
X439420Y57912D02*
Y66802D01*
X71628Y225298D02*
X90932D01*
X71628Y178308D02*
X90932D01*
X71628D02*
Y225298D01*
X81280Y169672D02*
Y178308D01*
X90932D02*
Y225298D01*
X81280D02*
Y234188D01*
X265308Y286418D02*
X284612D01*
X265308Y239428D02*
X284612D01*
X265308D02*
Y286418D01*
X274960Y230792D02*
Y239428D01*
X284612D02*
Y286418D01*
X274960D02*
Y295308D01*
X157988Y288798D02*
X177292D01*
X157988Y241808D02*
X177292D01*
X157988D02*
Y288798D01*
X167640Y233172D02*
Y241808D01*
X177292D02*
Y288798D01*
X167640D02*
Y297688D01*
X400748Y283318D02*
X420052D01*
X400748Y236328D02*
X420052D01*
X400748D02*
Y283318D01*
X410400Y227692D02*
Y236328D01*
X420052D02*
Y283318D01*
X410400D02*
Y292208D01*
X520748Y235482D02*
X540052D01*
X520748Y282472D02*
X540052D01*
Y235482D02*
Y282472D01*
X530400D02*
Y291108D01*
X520748Y235482D02*
Y282472D01*
X530400Y226592D02*
Y235482D01*
X328840Y64494D02*
Y115548D01*
Y64494D02*
X354240D01*
Y115548D01*
X328840D02*
X354240D01*
X290740Y38840D02*
Y140440D01*
X392340D01*
Y38840D02*
Y140440D01*
X290740Y38840D02*
X328586D01*
X354240D02*
X392340D01*
X329700Y237254D02*
Y288308D01*
Y237254D02*
X355100D01*
Y288308D01*
X329700D02*
X355100D01*
X291600Y211600D02*
Y313200D01*
X393200D01*
Y211600D02*
Y313200D01*
X291600Y211600D02*
X329446D01*
X355100D02*
X393200D01*
D24*
X533019Y96520D02*
G03*
X533019Y96520I-38100J0D01*
G01*
X510179Y80007D02*
G03*
X501269Y89408I-9545J-124D01*
G01*
Y69596D02*
G03*
X510159Y80010I-762J9652D01*
G01*
X489331Y89408D02*
G03*
X480187Y79502I381J-9525D01*
G01*
X480187D02*
G03*
X489839Y69596I9779J-127D01*
G01*
X434840Y271540D02*
Y317260D01*
Y271540D02*
X505960D01*
Y317260D01*
X434840D02*
X505960D01*
X434980Y216060D02*
Y261780D01*
Y216060D02*
X506100D01*
Y261780D01*
X434980D02*
X506100D01*
Y157640D02*
Y203360D01*
X434980D02*
X506100D01*
X434980Y157640D02*
Y203360D01*
Y157640D02*
X506100D01*
X134620Y50800D02*
X180340D01*
Y121920D01*
X134620D02*
X180340D01*
X134620Y50800D02*
Y121920D01*
X239400Y124620D02*
X285120D01*
X239400Y53500D02*
Y124620D01*
Y53500D02*
X285120D01*
Y124620D01*
X104140Y304800D02*
X149860D01*
X104140Y233680D02*
Y304800D01*
Y233680D02*
X149860D01*
Y304800D01*
X257180Y271940D02*
Y317660D01*
X186060D02*
X257180D01*
X186060Y271940D02*
Y317660D01*
Y271940D02*
X257180D01*
X59060Y53500D02*
X104780D01*
Y124620D01*
X59060D02*
X104780D01*
X59060Y53500D02*
Y124620D01*
X256540Y215900D02*
Y261620D01*
X185420D02*
X256540D01*
X185420Y215900D02*
Y261620D01*
Y215900D02*
X256540D01*
X458343Y89662D02*
X532511D01*
X494919Y121920D02*
Y132080D01*
X488569Y127000D02*
X501269D01*
X488823Y89408D02*
X501269D01*
X488061Y69596D02*
X502031D01*
D25*
X362114Y51794D02*
G03*
X362114Y51794I-2032J0D01*
G01*
X362974Y224554D02*
G03*
X362974Y224554I-2032J0D01*
G01*
D26*
X395285Y335991D02*
X393618Y337657D01*
X390286D01*
X388620Y335991D01*
Y329326D01*
X390286Y327660D01*
X393618D01*
X395285Y329326D01*
X398617Y335991D02*
X400283Y337657D01*
X403615D01*
X405281Y335991D01*
Y334324D01*
X403615Y332658D01*
X401949D01*
X403615D01*
X405281Y330992D01*
Y329326D01*
X403615Y327660D01*
X400283D01*
X398617Y329326D01*
X415278Y337657D02*
X411946Y335991D01*
X408614Y332658D01*
Y329326D01*
X410280Y327660D01*
X413612D01*
X415278Y329326D01*
Y330992D01*
X413612Y332658D01*
X408614D01*
X280984Y193243D02*
X279318Y194909D01*
X275986D01*
X274320Y193243D01*
Y186578D01*
X275986Y184912D01*
X279318D01*
X280984Y186578D01*
X284317Y193243D02*
X285983Y194909D01*
X289315D01*
X290981Y193243D01*
Y191576D01*
X289315Y189910D01*
X287649D01*
X289315D01*
X290981Y188244D01*
Y186578D01*
X289315Y184912D01*
X285983D01*
X284317Y186578D01*
X300978Y194909D02*
X294314D01*
Y189910D01*
X297646Y191576D01*
X299312D01*
X300978Y189910D01*
Y186578D01*
X299312Y184912D01*
X295980D01*
X294314Y186578D01*
X553720Y246380D02*
X543723D01*
Y251378D01*
X545389Y253044D01*
X548722D01*
X550388Y251378D01*
Y246380D01*
Y249712D02*
X553720Y253044D01*
X545389Y256377D02*
X543723Y258043D01*
Y261375D01*
X545389Y263041D01*
X547056D01*
X548722Y261375D01*
Y259709D01*
Y261375D01*
X550388Y263041D01*
X552054D01*
X553720Y261375D01*
Y258043D01*
X552054Y256377D01*
X553720Y271372D02*
X543723D01*
X548722Y266374D01*
Y273038D01*
X416560Y175260D02*
X406563D01*
Y180258D01*
X408229Y181924D01*
X411562D01*
X413228Y180258D01*
Y175260D01*
Y178592D02*
X416560Y181924D01*
X408229Y185257D02*
X406563Y186923D01*
Y190255D01*
X408229Y191921D01*
X409896D01*
X411562Y190255D01*
Y188589D01*
Y190255D01*
X413228Y191921D01*
X414894D01*
X416560Y190255D01*
Y186923D01*
X414894Y185257D01*
X408229Y195254D02*
X406563Y196920D01*
Y200252D01*
X408229Y201918D01*
X409896D01*
X411562Y200252D01*
Y198586D01*
Y200252D01*
X413228Y201918D01*
X414894D01*
X416560Y200252D01*
Y196920D01*
X414894Y195254D01*
X172720Y325120D02*
X162723D01*
Y330118D01*
X164389Y331785D01*
X167722D01*
X169388Y330118D01*
Y325120D01*
Y328452D02*
X172720Y331785D01*
Y341781D02*
Y335117D01*
X166056Y341781D01*
X164389D01*
X162723Y340115D01*
Y336783D01*
X164389Y335117D01*
Y345114D02*
X162723Y346780D01*
Y350112D01*
X164389Y351778D01*
X166056D01*
X167722Y350112D01*
X169388Y351778D01*
X171054D01*
X172720Y350112D01*
Y346780D01*
X171054Y345114D01*
X169388D01*
X167722Y346780D01*
X166056Y345114D01*
X164389D01*
X167722Y346780D02*
Y350112D01*
X279400Y322580D02*
X269403D01*
Y327578D01*
X271069Y329244D01*
X274402D01*
X276068Y327578D01*
Y322580D01*
Y325912D02*
X279400Y329244D01*
Y339241D02*
Y332577D01*
X272736Y339241D01*
X271069D01*
X269403Y337575D01*
Y334243D01*
X271069Y332577D01*
X269403Y342574D02*
Y349238D01*
X271069D01*
X277734Y342574D01*
X279400D01*
X106680Y185420D02*
X96683D01*
Y190418D01*
X98349Y192085D01*
X101682D01*
X103348Y190418D01*
Y185420D01*
Y188752D02*
X106680Y192085D01*
Y202081D02*
Y195417D01*
X100015Y202081D01*
X98349D01*
X96683Y200415D01*
Y197083D01*
X98349Y195417D01*
X96683Y212078D02*
X98349Y208746D01*
X101682Y205414D01*
X105014D01*
X106680Y207080D01*
Y210412D01*
X105014Y212078D01*
X103348D01*
X101682Y210412D01*
Y205414D01*
X416560Y5080D02*
X406563D01*
Y10078D01*
X408229Y11745D01*
X411562D01*
X413228Y10078D01*
Y5080D01*
Y8412D02*
X416560Y11745D01*
Y21741D02*
Y15077D01*
X409896Y21741D01*
X408229D01*
X406563Y20075D01*
Y16743D01*
X408229Y15077D01*
X406563Y31738D02*
Y25074D01*
X411562D01*
X409896Y28406D01*
Y30072D01*
X411562Y31738D01*
X414894D01*
X416560Y30072D01*
Y26740D01*
X414894Y25074D01*
X444500Y5080D02*
X434503D01*
Y10078D01*
X436169Y11745D01*
X439502D01*
X441168Y10078D01*
Y5080D01*
Y8412D02*
X444500Y11745D01*
Y21741D02*
Y15077D01*
X437836Y21741D01*
X436169D01*
X434503Y20075D01*
Y16743D01*
X436169Y15077D01*
X444500Y30072D02*
X434503D01*
X439502Y25074D01*
Y31738D01*
X203200Y7620D02*
X193203D01*
Y12618D01*
X194869Y14284D01*
X198202D01*
X199868Y12618D01*
Y7620D01*
Y10952D02*
X203200Y14284D01*
Y24281D02*
Y17617D01*
X196535Y24281D01*
X194869D01*
X193203Y22615D01*
Y19283D01*
X194869Y17617D01*
X203200Y27614D02*
Y30946D01*
Y29280D01*
X193203D01*
X194869Y27614D01*
X228600Y7620D02*
X218603D01*
Y12618D01*
X220269Y14284D01*
X223602D01*
X225268Y12618D01*
Y7620D01*
Y10952D02*
X228600Y14284D01*
Y24281D02*
Y17617D01*
X221936Y24281D01*
X220269D01*
X218603Y22615D01*
Y19283D01*
X220269Y17617D01*
Y27614D02*
X218603Y29280D01*
Y32612D01*
X220269Y34278D01*
X226934D01*
X228600Y32612D01*
Y29280D01*
X226934Y27614D01*
X220269D01*
X127000Y5080D02*
X117003D01*
Y10078D01*
X118669Y11745D01*
X122002D01*
X123668Y10078D01*
Y5080D01*
Y8412D02*
X127000Y11745D01*
Y15077D02*
Y18409D01*
Y16743D01*
X117003D01*
X118669Y15077D01*
X125334Y23407D02*
X127000Y25074D01*
Y28406D01*
X125334Y30072D01*
X118669D01*
X117003Y28406D01*
Y25074D01*
X118669Y23407D01*
X120336D01*
X122002Y25074D01*
Y30072D01*
X463865Y330911D02*
X462198Y332577D01*
X458866D01*
X457200Y330911D01*
Y324246D01*
X458866Y322580D01*
X462198D01*
X463865Y324246D01*
X467197Y330911D02*
X468863Y332577D01*
X472195D01*
X473861Y330911D01*
Y329244D01*
X472195Y327578D01*
X470529D01*
X472195D01*
X473861Y325912D01*
Y324246D01*
X472195Y322580D01*
X468863D01*
X467197Y324246D01*
X477194Y330911D02*
X478860Y332577D01*
X482192D01*
X483858Y330911D01*
Y329244D01*
X482192Y327578D01*
X480526D01*
X482192D01*
X483858Y325912D01*
Y324246D01*
X482192Y322580D01*
X478860D01*
X477194Y324246D01*
X519744Y198831D02*
X518078Y200497D01*
X514746D01*
X513080Y198831D01*
Y192166D01*
X514746Y190500D01*
X518078D01*
X519744Y192166D01*
X523077Y198831D02*
X524743Y200497D01*
X528075D01*
X529741Y198831D01*
Y197164D01*
X528075Y195498D01*
X526409D01*
X528075D01*
X529741Y193832D01*
Y192166D01*
X528075Y190500D01*
X524743D01*
X523077Y192166D01*
X539738Y190500D02*
X533074D01*
X539738Y197164D01*
Y198831D01*
X538072Y200497D01*
X534740D01*
X533074Y198831D01*
X463865Y150571D02*
X462198Y152237D01*
X458866D01*
X457200Y150571D01*
Y143906D01*
X458866Y142240D01*
X462198D01*
X463865Y143906D01*
X467197Y150571D02*
X468863Y152237D01*
X472195D01*
X473861Y150571D01*
Y148904D01*
X472195Y147238D01*
X470529D01*
X472195D01*
X473861Y145572D01*
Y143906D01*
X472195Y142240D01*
X468863D01*
X467197Y143906D01*
X477194Y142240D02*
X480526D01*
X478860D01*
Y152237D01*
X477194Y150571D01*
X123749Y321624D02*
X122083Y319958D01*
Y316626D01*
X123749Y314960D01*
X130414D01*
X132080Y316626D01*
Y319958D01*
X130414Y321624D01*
X132080Y331621D02*
Y324957D01*
X125415Y331621D01*
X123749D01*
X122083Y329955D01*
Y326623D01*
X123749Y324957D01*
X122083Y334954D02*
Y341618D01*
X123749D01*
X130414Y334954D01*
X132080D01*
X212404Y330911D02*
X210738Y332577D01*
X207406D01*
X205740Y330911D01*
Y324246D01*
X207406Y322580D01*
X210738D01*
X212404Y324246D01*
X222401Y322580D02*
X215737D01*
X222401Y329244D01*
Y330911D01*
X220735Y332577D01*
X217403D01*
X215737Y330911D01*
X232398Y332577D02*
X225734D01*
Y327578D01*
X229066Y329244D01*
X230732D01*
X232398Y327578D01*
Y324246D01*
X230732Y322580D01*
X227400D01*
X225734Y324246D01*
X78029Y14284D02*
X76363Y12618D01*
Y9286D01*
X78029Y7620D01*
X84694D01*
X86360Y9286D01*
Y12618D01*
X84694Y14284D01*
X86360Y24281D02*
Y17617D01*
X79696Y24281D01*
X78029D01*
X76363Y22615D01*
Y19283D01*
X78029Y17617D01*
X86360Y32612D02*
X76363D01*
X81362Y27614D01*
Y34278D01*
X214944Y206451D02*
X213278Y208117D01*
X209946D01*
X208280Y206451D01*
Y199786D01*
X209946Y198120D01*
X213278D01*
X214944Y199786D01*
X224941Y198120D02*
X218277D01*
X224941Y204785D01*
Y206451D01*
X223275Y208117D01*
X219943D01*
X218277Y206451D01*
X234938Y198120D02*
X228274D01*
X234938Y204785D01*
Y206451D01*
X233272Y208117D01*
X229940D01*
X228274Y206451D01*
X490280Y47193D02*
X488614Y48859D01*
X485282D01*
X483616Y47193D01*
Y40528D01*
X485282Y38862D01*
X488614D01*
X490280Y40528D01*
X500277Y38862D02*
X493613D01*
X500277Y45526D01*
Y47193D01*
X498611Y48859D01*
X495279D01*
X493613Y47193D01*
X503610Y38862D02*
X506942D01*
X505276D01*
Y48859D01*
X503610Y47193D01*
X154229Y24444D02*
X152563Y22778D01*
Y19446D01*
X154229Y17780D01*
X160894D01*
X162560Y19446D01*
Y22778D01*
X160894Y24444D01*
X162560Y27777D02*
Y31109D01*
Y29443D01*
X152563D01*
X154229Y27777D01*
X160894Y36107D02*
X162560Y37774D01*
Y41106D01*
X160894Y42772D01*
X154229D01*
X152563Y41106D01*
Y37774D01*
X154229Y36107D01*
X155896D01*
X157562Y37774D01*
Y42772D01*
X250749Y26985D02*
X249083Y25318D01*
Y21986D01*
X250749Y20320D01*
X257414D01*
X259080Y21986D01*
Y25318D01*
X257414Y26985D01*
X259080Y30317D02*
Y33649D01*
Y31983D01*
X249083D01*
X250749Y30317D01*
Y38647D02*
X249083Y40314D01*
Y43646D01*
X250749Y45312D01*
X252416D01*
X254082Y43646D01*
X255748Y45312D01*
X257414D01*
X259080Y43646D01*
Y40314D01*
X257414Y38647D01*
X255748D01*
X254082Y40314D01*
X252416Y38647D01*
X250749D01*
X254082Y40314D02*
Y43646D01*
X386243Y185420D02*
X394574D01*
X396240Y187086D01*
Y190418D01*
X394574Y192085D01*
X386243D01*
X396240Y202081D02*
Y195417D01*
X389576Y202081D01*
X387909D01*
X386243Y200415D01*
Y197083D01*
X387909Y195417D01*
X386243Y20320D02*
X394574D01*
X396240Y21986D01*
Y25318D01*
X394574Y26985D01*
X386243D01*
X396240Y30317D02*
Y33649D01*
Y31983D01*
X386243D01*
X387909Y30317D01*
X280984Y157175D02*
X279318Y158841D01*
X275986D01*
X274320Y157175D01*
Y150510D01*
X275986Y148844D01*
X279318D01*
X280984Y150510D01*
X284317Y148844D02*
X287649D01*
X285983D01*
Y158841D01*
X284317Y157175D01*
X292647Y158841D02*
X299312D01*
Y157175D01*
X292647Y150510D01*
Y148844D01*
X278745Y22231D02*
X277078Y23897D01*
X273746D01*
X272080Y22231D01*
Y15566D01*
X273746Y13900D01*
X277078D01*
X278745Y15566D01*
X282077Y13900D02*
X285409D01*
X283743D01*
Y23897D01*
X282077Y22231D01*
X297072Y13900D02*
X290407D01*
X297072Y20564D01*
Y22231D01*
X295406Y23897D01*
X292074D01*
X290407Y22231D01*
X40640Y226060D02*
Y236057D01*
X43972Y232724D01*
X47305Y236057D01*
Y226060D01*
X50637Y236057D02*
X53969D01*
X52303D01*
Y226060D01*
X50637D01*
X53969D01*
X58967Y236057D02*
Y226060D01*
X63966D01*
X65632Y227726D01*
Y234391D01*
X63966Y236057D01*
X58967D01*
X40640Y213197D02*
Y203200D01*
Y208198D01*
X47305D01*
Y213197D01*
Y203200D01*
X50637Y213197D02*
X53969D01*
X52303D01*
Y203200D01*
X50637D01*
X53969D01*
X40640Y185257D02*
Y175260D01*
X47305D01*
X55635Y185257D02*
X52303D01*
X50637Y183591D01*
Y176926D01*
X52303Y175260D01*
X55635D01*
X57301Y176926D01*
Y183591D01*
X55635Y185257D01*
X60634D02*
Y175260D01*
X63966Y178592D01*
X67298Y175260D01*
Y185257D01*
X47305Y158191D02*
X45638Y159857D01*
X42306D01*
X40640Y158191D01*
Y151526D01*
X42306Y149860D01*
X45638D01*
X47305Y151526D01*
Y154858D01*
X43972D01*
X50637Y149860D02*
Y159857D01*
X57301Y149860D01*
Y159857D01*
X60634D02*
Y149860D01*
X65632D01*
X67298Y151526D01*
Y158191D01*
X65632Y159857D01*
X60634D01*
X47305Y137871D02*
X45638Y139537D01*
X42306D01*
X40640Y137871D01*
Y131206D01*
X42306Y129540D01*
X45638D01*
X47305Y131206D01*
Y134538D01*
X43972D01*
X50637Y129540D02*
Y139537D01*
X57301Y129540D01*
Y139537D01*
X60634D02*
Y129540D01*
X65632D01*
X67298Y131206D01*
Y137871D01*
X65632Y139537D01*
X60634D01*
X548640Y236057D02*
Y229392D01*
X551972Y226060D01*
X555304Y229392D01*
Y236057D01*
X558637Y231058D02*
X565301D01*
X561969Y234391D02*
Y227726D01*
X555304Y208991D02*
X553638Y210657D01*
X550306D01*
X548640Y208991D01*
Y202326D01*
X550306Y200660D01*
X553638D01*
X555304Y202326D01*
Y205658D01*
X551972D01*
X548640Y185257D02*
Y178592D01*
X551972Y175260D01*
X555304Y178592D01*
Y185257D01*
X558637Y180258D02*
X565301D01*
X542604Y158191D02*
X540938Y159857D01*
X537606D01*
X535940Y158191D01*
Y151526D01*
X537606Y149860D01*
X540938D01*
X542604Y151526D01*
Y154858D01*
X539272D01*
X545937Y149860D02*
Y159857D01*
X552601Y149860D01*
Y159857D01*
X555934D02*
Y149860D01*
X560932D01*
X562598Y151526D01*
Y158191D01*
X560932Y159857D01*
X555934D01*
X546100Y134457D02*
X549432D01*
X547766D01*
Y124460D01*
X546100D01*
X549432D01*
X554431D02*
Y134457D01*
X561095Y124460D01*
Y134457D01*
M02*
