G04 Layer_Physical_Order=2*
G04 Layer_Color=16711680*
%FSLAX44Y44*%
%MOMM*%
G71*
G01*
G75*
%ADD10C,1.0000*%
%ADD11C,0.5000*%
%ADD12R,1.5000X1.5000*%
%ADD13C,1.5000*%
%ADD14C,1.7780*%
%ADD15C,1.5240*%
%ADD16R,2.5400X1.5240*%
%ADD17O,2.5400X1.5240*%
%ADD18R,2.2860X1.5240*%
%ADD19O,2.2860X1.5240*%
%ADD20C,3.0000*%
%ADD21C,1.3000*%
%ADD22C,0.6000*%
G36*
X596431Y3569D02*
X3569D01*
Y356431D01*
X596431D01*
Y3569D01*
D02*
G37*
%LPC*%
G36*
X151130Y132396D02*
X150238Y132219D01*
X148406Y130994D01*
X147181Y129162D01*
X147004Y128270D01*
X151130D01*
Y132396D01*
D02*
G37*
G36*
X102870D02*
Y128270D01*
X106996D01*
X106819Y129162D01*
X105594Y130994D01*
X103762Y132219D01*
X102870Y132396D01*
D02*
G37*
G36*
X153670D02*
Y128270D01*
X157796D01*
X157619Y129162D01*
X156394Y130994D01*
X154562Y132219D01*
X153670Y132396D01*
D02*
G37*
G36*
X307250Y137988D02*
X304710D01*
Y129010D01*
X317330D01*
X317148Y130392D01*
X316125Y132864D01*
X314496Y134986D01*
X312374Y136615D01*
X309902Y137639D01*
X307250Y137988D01*
D02*
G37*
G36*
X302170D02*
X299630D01*
X296978Y137639D01*
X294506Y136615D01*
X292384Y134986D01*
X290755Y132864D01*
X289732Y130392D01*
X289550Y129010D01*
X302170D01*
Y137988D01*
D02*
G37*
G36*
X100330Y132396D02*
X99438Y132219D01*
X97606Y130994D01*
X96381Y129162D01*
X96204Y128270D01*
X100330D01*
Y132396D01*
D02*
G37*
G36*
Y125730D02*
X96204D01*
X96381Y124838D01*
X97606Y123006D01*
X99438Y121781D01*
X100330Y121604D01*
Y125730D01*
D02*
G37*
G36*
X56196D02*
X52070D01*
Y121604D01*
X52962Y121781D01*
X54794Y123006D01*
X56019Y124838D01*
X56196Y125730D01*
D02*
G37*
G36*
X106996D02*
X102870D01*
Y121604D01*
X103762Y121781D01*
X105594Y123006D01*
X106819Y124838D01*
X106996Y125730D01*
D02*
G37*
G36*
X52070Y132396D02*
Y128270D01*
X56196D01*
X56019Y129162D01*
X54794Y130994D01*
X52962Y132219D01*
X52070Y132396D01*
D02*
G37*
G36*
X49530D02*
X48638Y132219D01*
X46806Y130994D01*
X45581Y129162D01*
X45404Y128270D01*
X49530D01*
Y132396D01*
D02*
G37*
G36*
X578730Y154130D02*
X570041D01*
X570218Y152779D01*
X571230Y150337D01*
X572839Y148239D01*
X574937Y146630D01*
X577379Y145618D01*
X578730Y145441D01*
Y154130D01*
D02*
G37*
G36*
X29517Y153670D02*
X20828D01*
Y144981D01*
X22179Y145158D01*
X24621Y146170D01*
X26719Y147779D01*
X28328Y149877D01*
X29340Y152319D01*
X29517Y153670D01*
D02*
G37*
G36*
X589959Y154130D02*
X581270D01*
Y145441D01*
X582621Y145618D01*
X585063Y146630D01*
X587161Y148239D01*
X588770Y150337D01*
X589782Y152779D01*
X589959Y154130D01*
D02*
G37*
G36*
X56196Y151130D02*
X52070D01*
Y147004D01*
X52962Y147181D01*
X54794Y148406D01*
X56019Y150238D01*
X56196Y151130D01*
D02*
G37*
G36*
X49530D02*
X45404D01*
X45581Y150238D01*
X46806Y148406D01*
X48638Y147181D01*
X49530Y147004D01*
Y151130D01*
D02*
G37*
G36*
X18288Y153670D02*
X9599D01*
X9776Y152319D01*
X10788Y149877D01*
X12397Y147779D01*
X14495Y146170D01*
X16937Y145158D01*
X18288Y144981D01*
Y153670D01*
D02*
G37*
G36*
X29598Y139580D02*
X20828D01*
Y130810D01*
X29598D01*
Y139580D01*
D02*
G37*
G36*
X18288D02*
X9518D01*
Y130810D01*
X18288D01*
Y139580D01*
D02*
G37*
G36*
X224160Y146773D02*
X221056Y146364D01*
X218164Y145166D01*
X215680Y143260D01*
X215493Y143016D01*
X215018Y142557D01*
X214423Y142046D01*
X213846Y141611D01*
X213288Y141249D01*
X212751Y140955D01*
X212233Y140725D01*
X211734Y140553D01*
X211249Y140435D01*
X210925Y140388D01*
X209455D01*
X209131Y140435D01*
X208646Y140553D01*
X208147Y140725D01*
X207630Y140955D01*
X207092Y141249D01*
X206534Y141611D01*
X205957Y142046D01*
X205362Y142557D01*
X204887Y143016D01*
X204700Y143260D01*
X202216Y145166D01*
X199324Y146364D01*
X196220Y146773D01*
X193116Y146364D01*
X190224Y145166D01*
X187740Y143260D01*
X187553Y143016D01*
X187078Y142557D01*
X186483Y142046D01*
X185906Y141611D01*
X185348Y141249D01*
X184811Y140955D01*
X184293Y140725D01*
X183794Y140553D01*
X183309Y140435D01*
X182985Y140388D01*
X180906D01*
X178760Y139961D01*
X176941Y138745D01*
X161356Y123160D01*
X161194Y123034D01*
X160838Y122802D01*
X160464Y122602D01*
X160068Y122431D01*
X159645Y122290D01*
X159188Y122177D01*
X158695Y122095D01*
X158161Y122046D01*
X157702Y122036D01*
X157480Y122065D01*
X157148Y122022D01*
X156848Y122413D01*
X156539Y123222D01*
X157619Y124838D01*
X157796Y125730D01*
X147004D01*
X147181Y124838D01*
X148406Y123006D01*
X150238Y121781D01*
X151271Y121576D01*
X151587Y120218D01*
X149906Y118928D01*
X148203Y116709D01*
X147133Y114126D01*
X146768Y111354D01*
X146798Y111132D01*
X146787Y110672D01*
X146738Y110139D01*
X146657Y109645D01*
X146544Y109189D01*
X146402Y108765D01*
X146232Y108369D01*
X146032Y107996D01*
X145800Y107640D01*
X145673Y107477D01*
X116055Y77859D01*
X114839Y76040D01*
X114412Y73894D01*
Y56575D01*
X114365Y56251D01*
X114247Y55766D01*
X114075Y55267D01*
X113845Y54749D01*
X113551Y54212D01*
X113189Y53654D01*
X112754Y53077D01*
X112243Y52482D01*
X111784Y52007D01*
X111540Y51820D01*
X109634Y49336D01*
X108436Y46444D01*
X108027Y43340D01*
X108436Y40236D01*
X109634Y37344D01*
X111540Y34860D01*
X114024Y32954D01*
X116916Y31756D01*
X120020Y31347D01*
X123124Y31756D01*
X126016Y32954D01*
X128500Y34860D01*
X130406Y37344D01*
X131604Y40236D01*
X132013Y43340D01*
X131604Y46444D01*
X130406Y49336D01*
X128500Y51820D01*
X128256Y52007D01*
X127797Y52482D01*
X127286Y53077D01*
X126851Y53654D01*
X126489Y54212D01*
X126195Y54749D01*
X125965Y55267D01*
X125793Y55766D01*
X125675Y56251D01*
X125628Y56575D01*
Y71571D01*
X153604Y99547D01*
X153766Y99673D01*
X154122Y99906D01*
X154496Y100106D01*
X154892Y100276D01*
X155315Y100418D01*
X155772Y100530D01*
X156265Y100612D01*
X156799Y100661D01*
X157258Y100671D01*
X157480Y100642D01*
X160252Y101007D01*
X162836Y102077D01*
X165054Y103779D01*
X166757Y105998D01*
X167827Y108581D01*
X168192Y111354D01*
X168162Y111575D01*
X168173Y112035D01*
X168222Y112569D01*
X168303Y113062D01*
X168416Y113518D01*
X168558Y113942D01*
X168728Y114338D01*
X168928Y114711D01*
X169160Y115068D01*
X169287Y115230D01*
X172132Y118075D01*
X173119Y117266D01*
X172581Y116462D01*
X172404Y115570D01*
X176530D01*
Y119696D01*
X175638Y119519D01*
X174834Y118981D01*
X174025Y119968D01*
X183198Y129141D01*
X183309Y129125D01*
X183794Y129007D01*
X184293Y128835D01*
X184811Y128605D01*
X185348Y128311D01*
X185906Y127949D01*
X186483Y127514D01*
X187078Y127003D01*
X187553Y126544D01*
X187740Y126300D01*
X190224Y124394D01*
X193116Y123196D01*
X196220Y122787D01*
X199324Y123196D01*
X202216Y124394D01*
X204700Y126300D01*
X204887Y126544D01*
X205362Y127003D01*
X205957Y127514D01*
X206534Y127949D01*
X207092Y128311D01*
X207629Y128605D01*
X208147Y128835D01*
X208646Y129007D01*
X209131Y129125D01*
X209455Y129172D01*
X210925D01*
X211249Y129125D01*
X211734Y129007D01*
X212233Y128835D01*
X212750Y128605D01*
X213288Y128311D01*
X213846Y127949D01*
X214423Y127514D01*
X215018Y127003D01*
X215493Y126544D01*
X215680Y126300D01*
X218164Y124394D01*
X221056Y123196D01*
X224160Y122787D01*
X227264Y123196D01*
X230156Y124394D01*
X232640Y126300D01*
X234546Y128784D01*
X235744Y131676D01*
X236153Y134780D01*
X235744Y137884D01*
X234546Y140776D01*
X232640Y143260D01*
X230156Y145166D01*
X227264Y146364D01*
X224160Y146773D01*
D02*
G37*
G36*
X328861Y153670D02*
X318770D01*
Y143579D01*
X320484Y143804D01*
X323264Y144956D01*
X325652Y146788D01*
X327484Y149176D01*
X328636Y151956D01*
X328861Y153670D01*
D02*
G37*
G36*
X316230D02*
X306139D01*
X306364Y151956D01*
X307516Y149176D01*
X309348Y146788D01*
X311736Y144956D01*
X314516Y143804D01*
X316230Y143579D01*
Y153670D01*
D02*
G37*
G36*
X49530Y125730D02*
X45404D01*
X45581Y124838D01*
X46806Y123006D01*
X48638Y121781D01*
X49530Y121604D01*
Y125730D01*
D02*
G37*
G36*
X208596Y113030D02*
X204470D01*
Y108904D01*
X205362Y109081D01*
X207194Y110306D01*
X208419Y112138D01*
X208596Y113030D01*
D02*
G37*
G36*
X201930D02*
X197804D01*
X197981Y112138D01*
X199206Y110306D01*
X201038Y109081D01*
X201930Y108904D01*
Y113030D01*
D02*
G37*
G36*
X227330D02*
X223204D01*
X223381Y112138D01*
X224606Y110306D01*
X226438Y109081D01*
X227330Y108904D01*
Y113030D01*
D02*
G37*
G36*
X36830Y119696D02*
X35938Y119519D01*
X34106Y118294D01*
X32881Y116462D01*
X32704Y115570D01*
X36830D01*
Y119696D01*
D02*
G37*
G36*
X233996Y113030D02*
X229870D01*
Y108904D01*
X230762Y109081D01*
X232594Y110306D01*
X233819Y112138D01*
X233996Y113030D01*
D02*
G37*
G36*
X183196D02*
X179070D01*
Y108904D01*
X179962Y109081D01*
X181794Y110306D01*
X183019Y112138D01*
X183196Y113030D01*
D02*
G37*
G36*
X383450Y112588D02*
X380910D01*
Y103610D01*
X393531D01*
X393349Y104992D01*
X392325Y107464D01*
X390696Y109586D01*
X388574Y111215D01*
X386102Y112239D01*
X383450Y112588D01*
D02*
G37*
G36*
X378370D02*
X375830D01*
X373178Y112239D01*
X370706Y111215D01*
X368584Y109586D01*
X366955Y107464D01*
X365932Y104992D01*
X365750Y103610D01*
X378370D01*
Y112588D01*
D02*
G37*
G36*
X36830Y113030D02*
X32704D01*
X32881Y112138D01*
X34106Y110306D01*
X35938Y109081D01*
X36830Y108904D01*
Y113030D01*
D02*
G37*
G36*
X176530D02*
X172404D01*
X172581Y112138D01*
X173806Y110306D01*
X175638Y109081D01*
X176530Y108904D01*
Y113030D01*
D02*
G37*
G36*
X43496D02*
X39370D01*
Y108904D01*
X40262Y109081D01*
X42094Y110306D01*
X43319Y112138D01*
X43496Y113030D01*
D02*
G37*
G36*
X317330Y126470D02*
X304710D01*
Y117492D01*
X307250D01*
X309902Y117842D01*
X312374Y118865D01*
X314496Y120494D01*
X316125Y122616D01*
X317148Y125088D01*
X317330Y126470D01*
D02*
G37*
G36*
X302170D02*
X289550D01*
X289732Y125088D01*
X290755Y122616D01*
X292384Y120494D01*
X294506Y118865D01*
X296978Y117842D01*
X299630Y117492D01*
X302170D01*
Y126470D01*
D02*
G37*
G36*
X590500Y140500D02*
X569500D01*
Y129744D01*
X569472Y129601D01*
X569500Y129459D01*
Y127817D01*
X569112Y127260D01*
X567919Y125849D01*
X561215Y119146D01*
X512001D01*
X511670Y119175D01*
X511178Y119256D01*
X511127Y119270D01*
Y124158D01*
X479727D01*
Y102918D01*
X511127D01*
Y107806D01*
X511178Y107820D01*
X511670Y107901D01*
X512001Y107930D01*
X563538D01*
X565684Y108357D01*
X567503Y109573D01*
X575623Y117692D01*
X576509Y118515D01*
X577225Y119088D01*
X577817Y119500D01*
X579459D01*
X579602Y119472D01*
X579744Y119500D01*
X590500D01*
Y140500D01*
D02*
G37*
G36*
X29598Y128270D02*
X20828D01*
Y119500D01*
X29598D01*
Y128270D01*
D02*
G37*
G36*
X18288D02*
X9518D01*
Y119500D01*
X18288D01*
Y128270D01*
D02*
G37*
G36*
X229870Y119696D02*
Y115570D01*
X233996D01*
X233819Y116462D01*
X232594Y118294D01*
X230762Y119519D01*
X229870Y119696D01*
D02*
G37*
G36*
X179070D02*
Y115570D01*
X183196D01*
X183019Y116462D01*
X181794Y118294D01*
X179962Y119519D01*
X179070Y119696D01*
D02*
G37*
G36*
X39370D02*
Y115570D01*
X43496D01*
X43319Y116462D01*
X42094Y118294D01*
X40262Y119519D01*
X39370Y119696D01*
D02*
G37*
G36*
X201930D02*
X201038Y119519D01*
X199206Y118294D01*
X197981Y116462D01*
X197804Y115570D01*
X201930D01*
Y119696D01*
D02*
G37*
G36*
X227330D02*
X226438Y119519D01*
X224606Y118294D01*
X223381Y116462D01*
X223204Y115570D01*
X227330D01*
Y119696D01*
D02*
G37*
G36*
X204470D02*
Y115570D01*
X208596D01*
X208419Y116462D01*
X207194Y118294D01*
X205362Y119519D01*
X204470Y119696D01*
D02*
G37*
G36*
X100330Y151130D02*
X96204D01*
X96381Y150238D01*
X97606Y148406D01*
X99438Y147181D01*
X100330Y147004D01*
Y151130D01*
D02*
G37*
G36*
X367030Y189230D02*
X356939D01*
X357164Y187516D01*
X358316Y184736D01*
X360148Y182348D01*
X362536Y180516D01*
X365316Y179364D01*
X367030Y179139D01*
Y189230D01*
D02*
G37*
G36*
X580000Y191391D02*
X577259Y191030D01*
X574705Y189972D01*
X572511Y188289D01*
X570828Y186095D01*
X569770Y183541D01*
X569409Y180800D01*
X569770Y178059D01*
X570828Y175505D01*
X572511Y173311D01*
X574705Y171628D01*
X577259Y170570D01*
X580000Y170209D01*
X582741Y170570D01*
X585295Y171628D01*
X587489Y173311D01*
X589172Y175505D01*
X590230Y178059D01*
X590591Y180800D01*
X590230Y183541D01*
X589172Y186095D01*
X587489Y188289D01*
X585295Y189972D01*
X582741Y191030D01*
X580000Y191391D01*
D02*
G37*
G36*
X379661Y189230D02*
X369570D01*
Y179139D01*
X371284Y179364D01*
X374064Y180516D01*
X376452Y182348D01*
X378284Y184736D01*
X379436Y187516D01*
X379661Y189230D01*
D02*
G37*
G36*
X46036Y192532D02*
X41910D01*
Y188406D01*
X42802Y188583D01*
X44634Y189808D01*
X45859Y191640D01*
X46036Y192532D01*
D02*
G37*
G36*
X39370D02*
X35244D01*
X35421Y191640D01*
X36646Y189808D01*
X38478Y188583D01*
X39370Y188406D01*
Y192532D01*
D02*
G37*
G36*
X369800Y344393D02*
X366696Y343984D01*
X363804Y342786D01*
X361320Y340880D01*
X359414Y338396D01*
X358216Y335504D01*
X357807Y332400D01*
X358216Y329296D01*
X359414Y326404D01*
X361320Y323920D01*
X363804Y322014D01*
X366696Y320816D01*
X369800Y320407D01*
X371476Y320628D01*
X372431Y319791D01*
Y317526D01*
X372393Y315652D01*
X372255Y313585D01*
X372032Y311823D01*
X371738Y310382D01*
X371581Y309879D01*
X371334Y309776D01*
X369116Y308074D01*
X368125Y306784D01*
X368084Y306747D01*
X368062Y306701D01*
X367413Y305856D01*
X366343Y303272D01*
X365978Y300500D01*
X366343Y297728D01*
X367413Y295144D01*
X369116Y292926D01*
X371334Y291223D01*
X373918Y290153D01*
X376690Y289788D01*
X384310D01*
X387082Y290153D01*
X389666Y291223D01*
X391884Y292926D01*
X393587Y295144D01*
X394657Y297728D01*
X395022Y300500D01*
X394657Y303272D01*
X393587Y305856D01*
X392938Y306701D01*
X392916Y306747D01*
X392875Y306784D01*
X391884Y308074D01*
X389666Y309776D01*
X389419Y309879D01*
X389263Y310382D01*
X388978Y311776D01*
X388606Y315694D01*
X388569Y317526D01*
Y324331D01*
X446578D01*
X461577Y309332D01*
Y224068D01*
X446238Y208729D01*
X430530D01*
X428442Y208454D01*
X426496Y207648D01*
X424824Y206366D01*
X381468Y163009D01*
X380626D01*
X379268Y163044D01*
X377894Y163172D01*
X377417Y163249D01*
X377028Y163338D01*
X376786Y163412D01*
X376780Y163420D01*
X374296Y165326D01*
X371404Y166524D01*
X368300Y166933D01*
X365196Y166524D01*
X362304Y165326D01*
X359820Y163420D01*
X357914Y160936D01*
X356716Y158044D01*
X356307Y154940D01*
X356716Y151836D01*
X357914Y148944D01*
X359820Y146460D01*
X359828Y146454D01*
X359902Y146213D01*
X359991Y145823D01*
X360064Y145375D01*
X360230Y143112D01*
X360231Y143064D01*
Y139080D01*
X360506Y136992D01*
X361312Y135045D01*
X362594Y133374D01*
X362954Y133015D01*
X364268Y131649D01*
X365409Y130323D01*
X365451Y130267D01*
X365118Y127740D01*
X365483Y124968D01*
X366553Y122384D01*
X368256Y120166D01*
X370474Y118463D01*
X373058Y117393D01*
X375830Y117028D01*
X383450D01*
X386222Y117393D01*
X388806Y118463D01*
X391024Y120166D01*
X392727Y122384D01*
X393797Y124968D01*
X394162Y127740D01*
X393797Y130512D01*
X392727Y133096D01*
X391024Y135314D01*
X388806Y137017D01*
X386222Y138087D01*
X383450Y138452D01*
X381007D01*
X380725Y138642D01*
X376369Y142514D01*
Y142614D01*
X376404Y143972D01*
X376531Y145346D01*
X376609Y145823D01*
X376698Y146213D01*
X376772Y146454D01*
X376780Y146460D01*
X376786Y146468D01*
X377028Y146542D01*
X377417Y146630D01*
X377865Y146704D01*
X380128Y146870D01*
X380176Y146871D01*
X384810D01*
X386898Y147146D01*
X388844Y147952D01*
X390516Y149234D01*
X433872Y192591D01*
X449580D01*
X451668Y192866D01*
X453615Y193672D01*
X455286Y194954D01*
X475352Y215020D01*
X476634Y216691D01*
X477440Y218638D01*
X477715Y220726D01*
Y312674D01*
X477440Y314762D01*
X476634Y316709D01*
X475352Y318380D01*
X455626Y338106D01*
X453955Y339388D01*
X452008Y340194D01*
X449920Y340469D01*
X378595D01*
X378280Y340880D01*
X375796Y342786D01*
X372904Y343984D01*
X369800Y344393D01*
D02*
G37*
G36*
X316230Y166301D02*
X314516Y166076D01*
X311736Y164924D01*
X309348Y163092D01*
X307516Y160704D01*
X306364Y157924D01*
X306139Y156210D01*
X316230D01*
Y166301D01*
D02*
G37*
G36*
X20828Y164899D02*
Y156210D01*
X29517D01*
X29340Y157561D01*
X28328Y160003D01*
X26719Y162101D01*
X24621Y163710D01*
X22179Y164722D01*
X20828Y164899D01*
D02*
G37*
G36*
X318770Y166301D02*
Y156210D01*
X328861D01*
X328636Y157924D01*
X327484Y160704D01*
X325652Y163092D01*
X323264Y164924D01*
X320484Y166076D01*
X318770Y166301D01*
D02*
G37*
G36*
X581270Y165359D02*
Y156670D01*
X589959D01*
X589782Y158021D01*
X588770Y160463D01*
X587161Y162561D01*
X585063Y164170D01*
X582621Y165182D01*
X581270Y165359D01*
D02*
G37*
G36*
X578730D02*
X577379Y165182D01*
X574937Y164170D01*
X572839Y162561D01*
X571230Y160463D01*
X570218Y158021D01*
X570041Y156670D01*
X578730D01*
Y165359D01*
D02*
G37*
G36*
X246696Y201930D02*
X242570D01*
Y197804D01*
X243462Y197981D01*
X245294Y199206D01*
X246519Y201038D01*
X246696Y201930D01*
D02*
G37*
G36*
X240030D02*
X235904D01*
X236081Y201038D01*
X237306Y199206D01*
X239138Y197981D01*
X240030Y197804D01*
Y201930D01*
D02*
G37*
G36*
X252730D02*
X248604D01*
X248781Y201038D01*
X250006Y199206D01*
X251838Y197981D01*
X252730Y197804D01*
Y201930D01*
D02*
G37*
G36*
X529130Y213130D02*
X519039D01*
X519264Y211416D01*
X520416Y208636D01*
X522248Y206248D01*
X524636Y204416D01*
X527416Y203264D01*
X529130Y203039D01*
Y213130D01*
D02*
G37*
G36*
X259396Y201930D02*
X255270D01*
Y197804D01*
X256162Y197981D01*
X257994Y199206D01*
X259219Y201038D01*
X259396Y201930D01*
D02*
G37*
G36*
X589959Y204930D02*
X581270D01*
Y196241D01*
X582621Y196418D01*
X585063Y197430D01*
X587161Y199039D01*
X588770Y201137D01*
X589782Y203579D01*
X589959Y204930D01*
D02*
G37*
G36*
X369570Y201861D02*
Y191770D01*
X379661D01*
X379436Y193484D01*
X378284Y196264D01*
X376452Y198652D01*
X374064Y200484D01*
X371284Y201636D01*
X369570Y201861D01*
D02*
G37*
G36*
X367030D02*
X365316Y201636D01*
X362536Y200484D01*
X360148Y198652D01*
X358316Y196264D01*
X357164Y193484D01*
X356939Y191770D01*
X367030D01*
Y201861D01*
D02*
G37*
G36*
X39370Y199198D02*
X38478Y199021D01*
X36646Y197796D01*
X35421Y195964D01*
X35244Y195072D01*
X39370D01*
Y199198D01*
D02*
G37*
G36*
X578730Y204930D02*
X570041D01*
X570218Y203579D01*
X571230Y201137D01*
X572839Y199039D01*
X574937Y197430D01*
X577379Y196418D01*
X578730Y196241D01*
Y204930D01*
D02*
G37*
G36*
X41910Y199198D02*
Y195072D01*
X46036D01*
X45859Y195964D01*
X44634Y197796D01*
X42802Y199021D01*
X41910Y199198D01*
D02*
G37*
G36*
X18288Y164899D02*
X16937Y164722D01*
X14495Y163710D01*
X12397Y162101D01*
X10788Y160003D01*
X9776Y157561D01*
X9599Y156210D01*
X18288D01*
Y164899D01*
D02*
G37*
G36*
X201930Y151130D02*
X197804D01*
X197981Y150238D01*
X199206Y148406D01*
X201038Y147181D01*
X201930Y147004D01*
Y151130D01*
D02*
G37*
G36*
X183196D02*
X179070D01*
Y147004D01*
X179962Y147181D01*
X181794Y148406D01*
X183019Y150238D01*
X183196Y151130D01*
D02*
G37*
G36*
X208596D02*
X204470D01*
Y147004D01*
X205362Y147181D01*
X207194Y148406D01*
X208419Y150238D01*
X208596Y151130D01*
D02*
G37*
G36*
X49530Y157796D02*
X48638Y157619D01*
X46806Y156394D01*
X45581Y154562D01*
X45404Y153670D01*
X49530D01*
Y157796D01*
D02*
G37*
G36*
X19558Y190931D02*
X16817Y190570D01*
X14263Y189512D01*
X12069Y187829D01*
X10386Y185635D01*
X9328Y183081D01*
X8967Y180340D01*
X9328Y177599D01*
X10386Y175045D01*
X12069Y172851D01*
X14263Y171168D01*
X16817Y170110D01*
X19558Y169749D01*
X22299Y170110D01*
X24853Y171168D01*
X27047Y172851D01*
X27374Y173277D01*
X27468Y173337D01*
X27938Y173786D01*
X28332Y174113D01*
X28722Y174390D01*
X29109Y174622D01*
X29496Y174813D01*
X29885Y174966D01*
X30282Y175084D01*
X30692Y175169D01*
X30884Y175192D01*
X56399D01*
X62837Y168755D01*
X64656Y167539D01*
X66802Y167112D01*
X72409D01*
X72510Y166813D01*
X72710Y165842D01*
X70894Y163476D01*
X69696Y160584D01*
X69287Y157480D01*
X69696Y154376D01*
X70894Y151484D01*
X72800Y149000D01*
X73044Y148813D01*
X73503Y148338D01*
X74014Y147743D01*
X74449Y147166D01*
X74811Y146608D01*
X75105Y146071D01*
X75335Y145553D01*
X75507Y145054D01*
X75625Y144569D01*
X75672Y144245D01*
Y124855D01*
X75650Y124660D01*
X75563Y124216D01*
X75441Y123775D01*
X75282Y123332D01*
X75083Y122885D01*
X74841Y122432D01*
X74553Y121970D01*
X74216Y121501D01*
X73774Y120958D01*
X73648Y120719D01*
X72643Y119409D01*
X71573Y116826D01*
X71208Y114054D01*
X71573Y111281D01*
X72643Y108698D01*
X74346Y106479D01*
X76564Y104777D01*
X79148Y103707D01*
X81920Y103342D01*
X84692Y103707D01*
X87276Y104777D01*
X89494Y106479D01*
X91196Y108698D01*
X92267Y111281D01*
X92632Y114054D01*
X92267Y116826D01*
X91196Y119409D01*
X89494Y121628D01*
X88916Y122072D01*
X88813Y122208D01*
X88331Y122637D01*
X87992Y122990D01*
X87706Y123341D01*
X87470Y123690D01*
X87277Y124039D01*
X87122Y124395D01*
X87002Y124763D01*
X86915Y125152D01*
X86888Y125358D01*
Y144245D01*
X86935Y144569D01*
X87053Y145054D01*
X87225Y145553D01*
X87455Y146070D01*
X87749Y146608D01*
X88111Y147166D01*
X88546Y147743D01*
X89057Y148338D01*
X89516Y148813D01*
X89760Y149000D01*
X91666Y151484D01*
X92864Y154376D01*
X93273Y157480D01*
X92864Y160584D01*
X91666Y163476D01*
X89850Y165842D01*
X90050Y166813D01*
X90151Y167112D01*
X226277D01*
X233925Y159464D01*
X233967Y159413D01*
X234179Y159112D01*
X234352Y158820D01*
X234492Y158534D01*
X234602Y158253D01*
X234685Y157971D01*
X234743Y157683D01*
X234777Y157383D01*
X234785Y157120D01*
X234766Y156972D01*
X235093Y154492D01*
X236050Y152181D01*
X237573Y150197D01*
X239557Y148674D01*
X241868Y147717D01*
X244348Y147390D01*
X246828Y147717D01*
X249139Y148674D01*
X251123Y150197D01*
X252646Y152181D01*
X253603Y154492D01*
X253930Y156972D01*
X253603Y159452D01*
X252646Y161763D01*
X251123Y163748D01*
X249139Y165270D01*
X246828Y166227D01*
X244348Y166554D01*
X244200Y166535D01*
X243937Y166543D01*
X243637Y166577D01*
X243349Y166635D01*
X243067Y166718D01*
X242785Y166828D01*
X242500Y166968D01*
X242208Y167141D01*
X241907Y167353D01*
X241856Y167395D01*
X232565Y176685D01*
X230746Y177901D01*
X228600Y178328D01*
X69125D01*
X62687Y184765D01*
X60868Y185981D01*
X58722Y186408D01*
X30884D01*
X30692Y186431D01*
X30282Y186516D01*
X29885Y186634D01*
X29496Y186787D01*
X29109Y186978D01*
X28722Y187210D01*
X28332Y187487D01*
X27938Y187814D01*
X27468Y188263D01*
X26994Y188564D01*
X26527Y188876D01*
X26491Y188883D01*
X26461Y188902D01*
X25907Y188999D01*
X25386Y189103D01*
X24853Y189512D01*
X22299Y190570D01*
X19558Y190931D01*
D02*
G37*
G36*
X176530Y151130D02*
X172404D01*
X172581Y150238D01*
X173806Y148406D01*
X175638Y147181D01*
X176530Y147004D01*
Y151130D01*
D02*
G37*
G36*
X125730D02*
X121604D01*
X121781Y150238D01*
X123006Y148406D01*
X124838Y147181D01*
X125730Y147004D01*
Y151130D01*
D02*
G37*
G36*
X106996D02*
X102870D01*
Y147004D01*
X103762Y147181D01*
X105594Y148406D01*
X106819Y150238D01*
X106996Y151130D01*
D02*
G37*
G36*
X132396D02*
X128270D01*
Y147004D01*
X129162Y147181D01*
X130994Y148406D01*
X132219Y150238D01*
X132396Y151130D01*
D02*
G37*
G36*
X157796D02*
X153670D01*
Y147004D01*
X154562Y147181D01*
X156394Y148406D01*
X157619Y150238D01*
X157796Y151130D01*
D02*
G37*
G36*
X151130D02*
X147004D01*
X147181Y150238D01*
X148406Y148406D01*
X150238Y147181D01*
X151130Y147004D01*
Y151130D01*
D02*
G37*
G36*
X176530Y157796D02*
X175638Y157619D01*
X173806Y156394D01*
X172581Y154562D01*
X172404Y153670D01*
X176530D01*
Y157796D01*
D02*
G37*
G36*
X153670D02*
Y153670D01*
X157796D01*
X157619Y154562D01*
X156394Y156394D01*
X154562Y157619D01*
X153670Y157796D01*
D02*
G37*
G36*
X179070D02*
Y153670D01*
X183196D01*
X183019Y154562D01*
X181794Y156394D01*
X179962Y157619D01*
X179070Y157796D01*
D02*
G37*
G36*
X204470D02*
Y153670D01*
X208596D01*
X208419Y154562D01*
X207194Y156394D01*
X205362Y157619D01*
X204470Y157796D01*
D02*
G37*
G36*
X201930D02*
X201038Y157619D01*
X199206Y156394D01*
X197981Y154562D01*
X197804Y153670D01*
X201930D01*
Y157796D01*
D02*
G37*
G36*
X151130D02*
X150238Y157619D01*
X148406Y156394D01*
X147181Y154562D01*
X147004Y153670D01*
X151130D01*
Y157796D01*
D02*
G37*
G36*
X100330D02*
X99438Y157619D01*
X97606Y156394D01*
X96381Y154562D01*
X96204Y153670D01*
X100330D01*
Y157796D01*
D02*
G37*
G36*
X52070D02*
Y153670D01*
X56196D01*
X56019Y154562D01*
X54794Y156394D01*
X52962Y157619D01*
X52070Y157796D01*
D02*
G37*
G36*
X102870D02*
Y153670D01*
X106996D01*
X106819Y154562D01*
X105594Y156394D01*
X103762Y157619D01*
X102870Y157796D01*
D02*
G37*
G36*
X128270D02*
Y153670D01*
X132396D01*
X132219Y154562D01*
X130994Y156394D01*
X129162Y157619D01*
X128270Y157796D01*
D02*
G37*
G36*
X125730D02*
X124838Y157619D01*
X123006Y156394D01*
X121781Y154562D01*
X121604Y153670D01*
X125730D01*
Y157796D01*
D02*
G37*
G36*
X49530Y49530D02*
X45404D01*
X45581Y48638D01*
X46806Y46806D01*
X48638Y45581D01*
X49530Y45404D01*
Y49530D01*
D02*
G37*
G36*
X369570Y31681D02*
Y21590D01*
X379661D01*
X379436Y23304D01*
X378284Y26084D01*
X376452Y28472D01*
X374064Y30304D01*
X371284Y31456D01*
X369570Y31681D01*
D02*
G37*
G36*
X56196Y49530D02*
X52070D01*
Y45404D01*
X52962Y45581D01*
X54794Y46806D01*
X56019Y48638D01*
X56196Y49530D01*
D02*
G37*
G36*
X167561Y60096D02*
X158750D01*
Y51286D01*
X160132Y51468D01*
X162604Y52492D01*
X164726Y54120D01*
X166355Y56243D01*
X167379Y58714D01*
X167561Y60096D01*
D02*
G37*
G36*
X156210D02*
X147400D01*
X147582Y58714D01*
X148605Y56243D01*
X150234Y54120D01*
X152356Y52492D01*
X154828Y51468D01*
X156210Y51286D01*
Y60096D01*
D02*
G37*
G36*
X367030Y31681D02*
X365316Y31456D01*
X362536Y30304D01*
X360148Y28472D01*
X358316Y26084D01*
X357164Y23304D01*
X356939Y21590D01*
X367030D01*
Y31681D01*
D02*
G37*
G36*
X506730Y18096D02*
X505838Y17919D01*
X504006Y16694D01*
X502781Y14862D01*
X502604Y13970D01*
X506730D01*
Y18096D01*
D02*
G37*
G36*
X483870D02*
Y13970D01*
X487996D01*
X487819Y14862D01*
X486594Y16694D01*
X484762Y17919D01*
X483870Y18096D01*
D02*
G37*
G36*
X509270D02*
Y13970D01*
X513396D01*
X513219Y14862D01*
X511994Y16694D01*
X510162Y17919D01*
X509270Y18096D01*
D02*
G37*
G36*
X534670D02*
Y13970D01*
X538796D01*
X538619Y14862D01*
X537394Y16694D01*
X535562Y17919D01*
X534670Y18096D01*
D02*
G37*
G36*
X532130D02*
X531238Y17919D01*
X529406Y16694D01*
X528181Y14862D01*
X528004Y13970D01*
X532130D01*
Y18096D01*
D02*
G37*
G36*
X158750Y71447D02*
Y62636D01*
X167561D01*
X167379Y64019D01*
X166355Y66490D01*
X164726Y68613D01*
X162604Y70241D01*
X160132Y71265D01*
X158750Y71447D01*
D02*
G37*
G36*
X156210D02*
X154828Y71265D01*
X152356Y70241D01*
X150234Y68613D01*
X148605Y66490D01*
X147582Y64019D01*
X147400Y62636D01*
X156210D01*
Y71447D01*
D02*
G37*
G36*
X36830Y68896D02*
X35938Y68719D01*
X34106Y67494D01*
X32881Y65662D01*
X32704Y64770D01*
X36830D01*
Y68896D01*
D02*
G37*
G36*
X189230D02*
X188338Y68719D01*
X186506Y67494D01*
X185281Y65662D01*
X185104Y64770D01*
X189230D01*
Y68896D01*
D02*
G37*
G36*
X39370D02*
Y64770D01*
X43496D01*
X43319Y65662D01*
X42094Y67494D01*
X40262Y68719D01*
X39370Y68896D01*
D02*
G37*
G36*
X43496Y62230D02*
X39370D01*
Y58104D01*
X40262Y58281D01*
X42094Y59506D01*
X43319Y61338D01*
X43496Y62230D01*
D02*
G37*
G36*
X26670Y56196D02*
Y52070D01*
X30796D01*
X30619Y52962D01*
X29394Y54794D01*
X27562Y56019D01*
X26670Y56196D01*
D02*
G37*
G36*
X24130D02*
X23238Y56019D01*
X21406Y54794D01*
X20181Y52962D01*
X20004Y52070D01*
X24130D01*
Y56196D01*
D02*
G37*
G36*
X49530D02*
X48638Y56019D01*
X46806Y54794D01*
X45581Y52962D01*
X45404Y52070D01*
X49530D01*
Y56196D01*
D02*
G37*
G36*
X36830Y62230D02*
X32704D01*
X32881Y61338D01*
X34106Y59506D01*
X35938Y58281D01*
X36830Y58104D01*
Y62230D01*
D02*
G37*
G36*
X52070Y56196D02*
Y52070D01*
X56196D01*
X56019Y52962D01*
X54794Y54794D01*
X52962Y56019D01*
X52070Y56196D01*
D02*
G37*
G36*
X481330Y18096D02*
X480438Y17919D01*
X478606Y16694D01*
X477381Y14862D01*
X477204Y13970D01*
X481330D01*
Y18096D01*
D02*
G37*
G36*
X487996Y11430D02*
X483870D01*
Y7304D01*
X484762Y7481D01*
X486594Y8706D01*
X487819Y10538D01*
X487996Y11430D01*
D02*
G37*
G36*
X481330D02*
X477204D01*
X477381Y10538D01*
X478606Y8706D01*
X480438Y7481D01*
X481330Y7304D01*
Y11430D01*
D02*
G37*
G36*
X506730D02*
X502604D01*
X502781Y10538D01*
X504006Y8706D01*
X505838Y7481D01*
X506730Y7304D01*
Y11430D01*
D02*
G37*
G36*
X532130D02*
X528004D01*
X528181Y10538D01*
X529406Y8706D01*
X531238Y7481D01*
X532130Y7304D01*
Y11430D01*
D02*
G37*
G36*
X513396D02*
X509270D01*
Y7304D01*
X510162Y7481D01*
X511994Y8706D01*
X513219Y10538D01*
X513396Y11430D01*
D02*
G37*
G36*
X462596D02*
X458470D01*
Y7304D01*
X459362Y7481D01*
X461194Y8706D01*
X462419Y10538D01*
X462596Y11430D01*
D02*
G37*
G36*
X411796D02*
X407670D01*
Y7304D01*
X408562Y7481D01*
X410394Y8706D01*
X411619Y10538D01*
X411796Y11430D01*
D02*
G37*
G36*
X405130D02*
X401004D01*
X401181Y10538D01*
X402406Y8706D01*
X404238Y7481D01*
X405130Y7304D01*
Y11430D01*
D02*
G37*
G36*
X430530D02*
X426404D01*
X426581Y10538D01*
X427806Y8706D01*
X429638Y7481D01*
X430530Y7304D01*
Y11430D01*
D02*
G37*
G36*
X455930D02*
X451804D01*
X451981Y10538D01*
X453206Y8706D01*
X455038Y7481D01*
X455930Y7304D01*
Y11430D01*
D02*
G37*
G36*
X437196D02*
X433070D01*
Y7304D01*
X433962Y7481D01*
X435794Y8706D01*
X437019Y10538D01*
X437196Y11430D01*
D02*
G37*
G36*
X430530Y18096D02*
X429638Y17919D01*
X427806Y16694D01*
X426581Y14862D01*
X426404Y13970D01*
X430530D01*
Y18096D01*
D02*
G37*
G36*
X407670D02*
Y13970D01*
X411796D01*
X411619Y14862D01*
X410394Y16694D01*
X408562Y17919D01*
X407670Y18096D01*
D02*
G37*
G36*
X433070D02*
Y13970D01*
X437196D01*
X437019Y14862D01*
X435794Y16694D01*
X433962Y17919D01*
X433070Y18096D01*
D02*
G37*
G36*
X458470D02*
Y13970D01*
X462596D01*
X462419Y14862D01*
X461194Y16694D01*
X459362Y17919D01*
X458470Y18096D01*
D02*
G37*
G36*
X455930D02*
X455038Y17919D01*
X453206Y16694D01*
X451981Y14862D01*
X451804Y13970D01*
X455930D01*
Y18096D01*
D02*
G37*
G36*
X405130D02*
X404238Y17919D01*
X402406Y16694D01*
X401181Y14862D01*
X401004Y13970D01*
X405130D01*
Y18096D01*
D02*
G37*
G36*
X367030Y19050D02*
X356939D01*
X357164Y17336D01*
X358316Y14556D01*
X360148Y12168D01*
X362536Y10336D01*
X365316Y9184D01*
X367030Y8959D01*
Y19050D01*
D02*
G37*
G36*
X538796Y11430D02*
X534670D01*
Y7304D01*
X535562Y7481D01*
X537394Y8706D01*
X538619Y10538D01*
X538796Y11430D01*
D02*
G37*
G36*
X379661Y19050D02*
X369570D01*
Y8959D01*
X371284Y9184D01*
X374064Y10336D01*
X376452Y12168D01*
X378284Y14556D01*
X379436Y17336D01*
X379661Y19050D01*
D02*
G37*
G36*
X570000Y48087D02*
X566471Y47740D01*
X563078Y46710D01*
X559951Y45039D01*
X557211Y42790D01*
X554961Y40049D01*
X553290Y36922D01*
X552261Y33529D01*
X551913Y30000D01*
X552261Y26471D01*
X553290Y23078D01*
X554961Y19951D01*
X557211Y17211D01*
X559951Y14961D01*
X563078Y13290D01*
X566471Y12261D01*
X570000Y11913D01*
X573529Y12261D01*
X576922Y13290D01*
X580049Y14961D01*
X582789Y17211D01*
X585039Y19951D01*
X586710Y23078D01*
X587739Y26471D01*
X588087Y30000D01*
X587739Y33529D01*
X586710Y36922D01*
X585039Y40049D01*
X582789Y42790D01*
X580049Y45039D01*
X576922Y46710D01*
X573529Y47740D01*
X570000Y48087D01*
D02*
G37*
G36*
X30796Y49530D02*
X20004D01*
X20181Y48638D01*
X21184Y47138D01*
X21055Y45629D01*
X19951Y45039D01*
X17211Y42790D01*
X14961Y40049D01*
X13290Y36922D01*
X12261Y33529D01*
X11913Y30000D01*
X12261Y26471D01*
X13290Y23078D01*
X14961Y19951D01*
X17211Y17211D01*
X19951Y14961D01*
X23078Y13290D01*
X26471Y12261D01*
X30000Y11913D01*
X33529Y12261D01*
X36922Y13290D01*
X40049Y14961D01*
X42790Y17211D01*
X45039Y19951D01*
X46710Y23078D01*
X47740Y26471D01*
X48087Y30000D01*
X47740Y33529D01*
X46710Y36922D01*
X45039Y40049D01*
X42790Y42790D01*
X40049Y45039D01*
X36922Y46710D01*
X33529Y47740D01*
X31559Y47934D01*
X30748Y49290D01*
X30796Y49530D01*
D02*
G37*
G36*
X191770Y68896D02*
Y64770D01*
X195896D01*
X195719Y65662D01*
X194494Y67494D01*
X192662Y68719D01*
X191770Y68896D01*
D02*
G37*
G36*
X30796Y100330D02*
X26670D01*
Y96204D01*
X27562Y96381D01*
X29394Y97606D01*
X30619Y99438D01*
X30796Y100330D01*
D02*
G37*
G36*
X24130D02*
X20004D01*
X20181Y99438D01*
X21406Y97606D01*
X23238Y96381D01*
X24130Y96204D01*
Y100330D01*
D02*
G37*
G36*
X49530D02*
X45404D01*
X45581Y99438D01*
X46806Y97606D01*
X48638Y96381D01*
X49530Y96204D01*
Y100330D01*
D02*
G37*
G36*
X227330D02*
X223204D01*
X223381Y99438D01*
X224606Y97606D01*
X226438Y96381D01*
X227330Y96204D01*
Y100330D01*
D02*
G37*
G36*
X56196D02*
X52070D01*
Y96204D01*
X52962Y96381D01*
X54794Y97606D01*
X56019Y99438D01*
X56196Y100330D01*
D02*
G37*
G36*
X393531Y101070D02*
X380910D01*
Y92092D01*
X383450D01*
X386102Y92442D01*
X388574Y93465D01*
X390696Y95094D01*
X392325Y97216D01*
X393349Y99688D01*
X393531Y101070D01*
D02*
G37*
G36*
X201930Y94296D02*
X201038Y94119D01*
X199206Y92894D01*
X197981Y91062D01*
X197804Y90170D01*
X201930D01*
Y94296D01*
D02*
G37*
G36*
X179070D02*
Y90170D01*
X183196D01*
X183019Y91062D01*
X181794Y92894D01*
X179962Y94119D01*
X179070Y94296D01*
D02*
G37*
G36*
X204470D02*
Y90170D01*
X208596D01*
X208419Y91062D01*
X207194Y92894D01*
X205362Y94119D01*
X204470Y94296D01*
D02*
G37*
G36*
X378370Y101070D02*
X365750D01*
X365932Y99688D01*
X366955Y97216D01*
X368584Y95094D01*
X370706Y93465D01*
X373178Y92442D01*
X375830Y92092D01*
X378370D01*
Y101070D01*
D02*
G37*
G36*
X262260Y124765D02*
X259488Y124400D01*
X256904Y123330D01*
X254686Y121628D01*
X252983Y119409D01*
X251913Y116826D01*
X251548Y114054D01*
X251577Y113832D01*
X251567Y113372D01*
X251518Y112838D01*
X251437Y112345D01*
X251324Y111889D01*
X251182Y111465D01*
X251012Y111069D01*
X250812Y110696D01*
X250580Y110339D01*
X250453Y110177D01*
X200096Y59820D01*
X199852Y59632D01*
X199391Y59330D01*
X198867Y59039D01*
X198277Y58762D01*
X197619Y58501D01*
X196929Y58272D01*
X195204Y57839D01*
X194250Y57665D01*
X194172Y57763D01*
X194425Y59460D01*
X194494Y59506D01*
X195719Y61338D01*
X195896Y62230D01*
X185104D01*
X185281Y61338D01*
X186506Y59506D01*
X188338Y58281D01*
X190500Y57852D01*
X190948Y57941D01*
X191319Y56719D01*
X190224Y56266D01*
X187740Y54360D01*
X185834Y51876D01*
X184636Y48984D01*
X184227Y45880D01*
X184636Y42776D01*
X185834Y39884D01*
X187740Y37400D01*
X190224Y35494D01*
X193116Y34296D01*
X196220Y33887D01*
X199324Y34296D01*
X202216Y35494D01*
X204700Y37400D01*
X206606Y39884D01*
X207804Y42776D01*
X208213Y45880D01*
X207978Y47658D01*
X207992Y47921D01*
X207868Y48760D01*
X207821Y49432D01*
X207828Y50039D01*
X207883Y50585D01*
X207982Y51076D01*
X208121Y51520D01*
X208298Y51927D01*
X208517Y52309D01*
X208706Y52569D01*
X258384Y102247D01*
X258546Y102373D01*
X258902Y102605D01*
X259276Y102806D01*
X259672Y102976D01*
X260095Y103118D01*
X260552Y103230D01*
X261045Y103312D01*
X261579Y103361D01*
X262038Y103371D01*
X262260Y103342D01*
X262482Y103371D01*
X262941Y103361D01*
X263475Y103312D01*
X263968Y103230D01*
X264425Y103118D01*
X264848Y102976D01*
X265244Y102806D01*
X265618Y102605D01*
X265974Y102373D01*
X266136Y102247D01*
X270008Y98375D01*
X271828Y97159D01*
X273974Y96732D01*
X288943D01*
X289494Y96695D01*
X290260Y96597D01*
X290724Y96502D01*
X292056Y94766D01*
X294274Y93063D01*
X296858Y91993D01*
X299630Y91628D01*
X307250D01*
X310022Y91993D01*
X312606Y93063D01*
X314824Y94766D01*
X316527Y96984D01*
X317597Y99568D01*
X317962Y102340D01*
X317597Y105112D01*
X316527Y107696D01*
X314824Y109914D01*
X312606Y111617D01*
X310022Y112687D01*
X307250Y113052D01*
X299630D01*
X296858Y112687D01*
X294274Y111617D01*
X292056Y109914D01*
X290724Y108178D01*
X290307Y108092D01*
X288795Y107948D01*
X276296D01*
X274067Y110177D01*
X273940Y110339D01*
X273708Y110696D01*
X273508Y111070D01*
X273338Y111465D01*
X273196Y111889D01*
X273083Y112345D01*
X273002Y112838D01*
X272953Y113372D01*
X272942Y113832D01*
X272972Y114054D01*
X272607Y116826D01*
X271537Y119409D01*
X269834Y121628D01*
X267616Y123330D01*
X265032Y124400D01*
X262260Y124765D01*
D02*
G37*
G36*
X227330Y106996D02*
X226438Y106819D01*
X224606Y105594D01*
X223381Y103762D01*
X223204Y102870D01*
X227330D01*
Y106996D01*
D02*
G37*
G36*
X52070D02*
Y102870D01*
X56196D01*
X56019Y103762D01*
X54794Y105594D01*
X52962Y106819D01*
X52070Y106996D01*
D02*
G37*
G36*
X229870D02*
Y102870D01*
X233996D01*
X233819Y103762D01*
X232594Y105594D01*
X230762Y106819D01*
X229870Y106996D01*
D02*
G37*
G36*
X471170D02*
Y102870D01*
X475296D01*
X475119Y103762D01*
X473894Y105594D01*
X472062Y106819D01*
X471170Y106996D01*
D02*
G37*
G36*
X468630D02*
X467738Y106819D01*
X465906Y105594D01*
X464681Y103762D01*
X464504Y102870D01*
X468630D01*
Y106996D01*
D02*
G37*
G36*
X49530D02*
X48638Y106819D01*
X46806Y105594D01*
X45581Y103762D01*
X45404Y102870D01*
X49530D01*
Y106996D01*
D02*
G37*
G36*
X468630Y100330D02*
X464504D01*
X464681Y99438D01*
X465906Y97606D01*
X467738Y96381D01*
X468630Y96204D01*
Y100330D01*
D02*
G37*
G36*
X233996D02*
X229870D01*
Y96204D01*
X230762Y96381D01*
X232594Y97606D01*
X233819Y99438D01*
X233996Y100330D01*
D02*
G37*
G36*
X475296D02*
X471170D01*
Y96204D01*
X472062Y96381D01*
X473894Y97606D01*
X475119Y99438D01*
X475296Y100330D01*
D02*
G37*
G36*
X26670Y106996D02*
Y102870D01*
X30796D01*
X30619Y103762D01*
X29394Y105594D01*
X27562Y106819D01*
X26670Y106996D01*
D02*
G37*
G36*
X24130D02*
X23238Y106819D01*
X21406Y105594D01*
X20181Y103762D01*
X20004Y102870D01*
X24130D01*
Y106996D01*
D02*
G37*
G36*
X176530Y94296D02*
X175638Y94119D01*
X173806Y92894D01*
X172581Y91062D01*
X172404Y90170D01*
X176530D01*
Y94296D01*
D02*
G37*
G36*
X307250Y87652D02*
X299630D01*
X296858Y87287D01*
X294274Y86217D01*
X292056Y84514D01*
X290724Y82778D01*
X290307Y82692D01*
X288795Y82548D01*
X275134D01*
X272988Y82121D01*
X271168Y80905D01*
X266136Y75873D01*
X265974Y75747D01*
X265618Y75514D01*
X265244Y75314D01*
X264848Y75144D01*
X264425Y75002D01*
X263968Y74890D01*
X263475Y74808D01*
X262941Y74759D01*
X262482Y74749D01*
X262260Y74778D01*
X259488Y74413D01*
X256904Y73343D01*
X254686Y71641D01*
X254550Y71463D01*
X254217Y71146D01*
X253805Y70803D01*
X253399Y70512D01*
X252996Y70269D01*
X252597Y70069D01*
X252196Y69910D01*
X251791Y69787D01*
X251374Y69699D01*
X251170Y69674D01*
X242346D01*
X240200Y69247D01*
X238381Y68032D01*
X229553Y59204D01*
X229291Y59008D01*
X228864Y58749D01*
X228390Y58517D01*
X227861Y58314D01*
X227273Y58141D01*
X226623Y58003D01*
X225907Y57903D01*
X225125Y57844D01*
X224465Y57832D01*
X224160Y57873D01*
X221056Y57464D01*
X218164Y56266D01*
X215680Y54360D01*
X213774Y51876D01*
X212576Y48984D01*
X212167Y45880D01*
X212576Y42776D01*
X213774Y39884D01*
X215680Y37400D01*
X218164Y35494D01*
X221056Y34296D01*
X224160Y33887D01*
X227264Y34296D01*
X230156Y35494D01*
X232640Y37400D01*
X234546Y39884D01*
X235744Y42776D01*
X236153Y45880D01*
X236112Y46185D01*
X236124Y46845D01*
X236183Y47627D01*
X236283Y48343D01*
X236422Y48993D01*
X236594Y49581D01*
X236797Y50110D01*
X237029Y50584D01*
X237288Y51011D01*
X237484Y51273D01*
X244669Y58459D01*
X251170D01*
X251374Y58433D01*
X251791Y58345D01*
X252196Y58223D01*
X252597Y58064D01*
X252996Y57864D01*
X253398Y57621D01*
X253805Y57330D01*
X254217Y56987D01*
X254550Y56670D01*
X254686Y56492D01*
X256904Y54790D01*
X259488Y53720D01*
X262260Y53355D01*
X265032Y53720D01*
X267616Y54790D01*
X269834Y56492D01*
X271537Y58711D01*
X272607Y61294D01*
X272972Y64066D01*
X272942Y64288D01*
X272953Y64748D01*
X273002Y65282D01*
X273083Y65775D01*
X273196Y66231D01*
X273338Y66655D01*
X273508Y67051D01*
X273708Y67424D01*
X273940Y67780D01*
X274067Y67943D01*
X277456Y71332D01*
X288943D01*
X289494Y71295D01*
X290260Y71197D01*
X290724Y71102D01*
X292056Y69366D01*
X294274Y67663D01*
X296858Y66593D01*
X299630Y66228D01*
X307250D01*
X310022Y66593D01*
X312606Y67663D01*
X314824Y69366D01*
X316527Y71584D01*
X317597Y74168D01*
X317962Y76940D01*
X317597Y79712D01*
X316527Y82296D01*
X314824Y84514D01*
X312606Y86217D01*
X310022Y87287D01*
X307250Y87652D01*
D02*
G37*
G36*
X449896Y74930D02*
X445770D01*
Y70804D01*
X446662Y70981D01*
X448494Y72206D01*
X449719Y74038D01*
X449896Y74930D01*
D02*
G37*
G36*
X24130Y81596D02*
X23238Y81419D01*
X21406Y80194D01*
X20181Y78362D01*
X20004Y77470D01*
X24130D01*
Y81596D01*
D02*
G37*
G36*
X49530D02*
X48638Y81419D01*
X46806Y80194D01*
X45581Y78362D01*
X45404Y77470D01*
X49530D01*
Y81596D01*
D02*
G37*
G36*
X26670D02*
Y77470D01*
X30796D01*
X30619Y78362D01*
X29394Y80194D01*
X27562Y81419D01*
X26670Y81596D01*
D02*
G37*
G36*
X443230Y74930D02*
X439104D01*
X439281Y74038D01*
X440506Y72206D01*
X442338Y70981D01*
X443230Y70804D01*
Y74930D01*
D02*
G37*
G36*
X24130D02*
X20004D01*
X20181Y74038D01*
X21406Y72206D01*
X23238Y70981D01*
X24130Y70804D01*
Y74930D01*
D02*
G37*
G36*
X500253Y90214D02*
X490093D01*
X487321Y89849D01*
X484737Y88779D01*
X482519Y87076D01*
X481187Y85340D01*
X480770Y85254D01*
X479258Y85110D01*
X473202D01*
X471056Y84683D01*
X469237Y83467D01*
X444813Y59044D01*
X444551Y58848D01*
X444124Y58589D01*
X443650Y58357D01*
X443121Y58154D01*
X442533Y57982D01*
X441883Y57843D01*
X441167Y57743D01*
X440385Y57684D01*
X439725Y57673D01*
X439420Y57713D01*
X436316Y57304D01*
X433424Y56106D01*
X430940Y54200D01*
X429034Y51716D01*
X427836Y48824D01*
X427427Y45720D01*
X427836Y42616D01*
X429034Y39724D01*
X430940Y37240D01*
X433424Y35334D01*
X436316Y34136D01*
X439420Y33727D01*
X442524Y34136D01*
X445416Y35334D01*
X447900Y37240D01*
X449806Y39724D01*
X451004Y42616D01*
X451413Y45720D01*
X451372Y46025D01*
X451384Y46685D01*
X451443Y47467D01*
X451543Y48183D01*
X451682Y48833D01*
X451854Y49421D01*
X452057Y49950D01*
X452289Y50424D01*
X452548Y50851D01*
X452744Y51113D01*
X475525Y73894D01*
X479406D01*
X479957Y73857D01*
X480723Y73759D01*
X481187Y73664D01*
X482519Y71928D01*
X484737Y70225D01*
X487321Y69155D01*
X490093Y68790D01*
X500253D01*
X503025Y69155D01*
X505609Y70225D01*
X507827Y71928D01*
X509530Y74146D01*
X510600Y76730D01*
X510965Y79502D01*
X510600Y82274D01*
X509530Y84858D01*
X507827Y87076D01*
X505609Y88779D01*
X503025Y89849D01*
X500253Y90214D01*
D02*
G37*
G36*
X30796Y74930D02*
X26670D01*
Y70804D01*
X27562Y70981D01*
X29394Y72206D01*
X30619Y74038D01*
X30796Y74930D01*
D02*
G37*
G36*
X56196D02*
X52070D01*
Y70804D01*
X52962Y70981D01*
X54794Y72206D01*
X56019Y74038D01*
X56196Y74930D01*
D02*
G37*
G36*
X49530D02*
X45404D01*
X45581Y74038D01*
X46806Y72206D01*
X48638Y70981D01*
X49530Y70804D01*
Y74930D01*
D02*
G37*
G36*
X201930Y87630D02*
X197804D01*
X197981Y86738D01*
X199206Y84906D01*
X201038Y83681D01*
X201930Y83504D01*
Y87630D01*
D02*
G37*
G36*
X183196D02*
X179070D01*
Y83504D01*
X179962Y83681D01*
X181794Y84906D01*
X183019Y86738D01*
X183196Y87630D01*
D02*
G37*
G36*
X208596D02*
X204470D01*
Y83504D01*
X205362Y83681D01*
X207194Y84906D01*
X208419Y86738D01*
X208596Y87630D01*
D02*
G37*
G36*
X39370Y94296D02*
Y90170D01*
X43496D01*
X43319Y91062D01*
X42094Y92894D01*
X40262Y94119D01*
X39370Y94296D01*
D02*
G37*
G36*
X36830D02*
X35938Y94119D01*
X34106Y92894D01*
X32881Y91062D01*
X32704Y90170D01*
X36830D01*
Y94296D01*
D02*
G37*
G36*
X176530Y87630D02*
X172404D01*
X172581Y86738D01*
X173806Y84906D01*
X175638Y83681D01*
X176530Y83504D01*
Y87630D01*
D02*
G37*
G36*
X443230Y81596D02*
X442338Y81419D01*
X440506Y80194D01*
X439281Y78362D01*
X439104Y77470D01*
X443230D01*
Y81596D01*
D02*
G37*
G36*
X52070D02*
Y77470D01*
X56196D01*
X56019Y78362D01*
X54794Y80194D01*
X52962Y81419D01*
X52070Y81596D01*
D02*
G37*
G36*
X445770D02*
Y77470D01*
X449896D01*
X449719Y78362D01*
X448494Y80194D01*
X446662Y81419D01*
X445770Y81596D01*
D02*
G37*
G36*
X43496Y87630D02*
X39370D01*
Y83504D01*
X40262Y83681D01*
X42094Y84906D01*
X43319Y86738D01*
X43496Y87630D01*
D02*
G37*
G36*
X36830D02*
X32704D01*
X32881Y86738D01*
X34106Y84906D01*
X35938Y83681D01*
X36830Y83504D01*
Y87630D01*
D02*
G37*
G36*
X81596Y303530D02*
X77470D01*
Y299404D01*
X78362Y299581D01*
X80194Y300806D01*
X81419Y302638D01*
X81596Y303530D01*
D02*
G37*
G36*
X74930D02*
X70804D01*
X70981Y302638D01*
X72206Y300806D01*
X74038Y299581D01*
X74930Y299404D01*
Y303530D01*
D02*
G37*
G36*
X100330D02*
X96204D01*
X96381Y302638D01*
X97606Y300806D01*
X99438Y299581D01*
X100330Y299404D01*
Y303530D01*
D02*
G37*
G36*
X341630D02*
X337504D01*
X337681Y302638D01*
X338906Y300806D01*
X340738Y299581D01*
X341630Y299404D01*
Y303530D01*
D02*
G37*
G36*
X106996D02*
X102870D01*
Y299404D01*
X103762Y299581D01*
X105594Y300806D01*
X106819Y302638D01*
X106996Y303530D01*
D02*
G37*
G36*
X56196D02*
X52070D01*
Y299404D01*
X52962Y299581D01*
X54794Y300806D01*
X56019Y302638D01*
X56196Y303530D01*
D02*
G37*
G36*
X410400Y316393D02*
X407296Y315984D01*
X404404Y314786D01*
X401920Y312880D01*
X400014Y310396D01*
X398816Y307504D01*
X398407Y304400D01*
X398816Y301296D01*
X400014Y298404D01*
X401920Y295920D01*
X402164Y295733D01*
X402623Y295258D01*
X403134Y294663D01*
X403569Y294086D01*
X403931Y293528D01*
X404225Y292991D01*
X404455Y292473D01*
X404627Y291974D01*
X404745Y291489D01*
X404792Y291165D01*
Y278594D01*
X405219Y276448D01*
X406435Y274628D01*
X411210Y269853D01*
X411425Y269545D01*
X411560Y269276D01*
X411612Y269104D01*
X411623Y268994D01*
X411612Y268884D01*
X411560Y268711D01*
X411425Y268442D01*
X411210Y268134D01*
X398384Y255308D01*
X394997D01*
X394446Y255345D01*
X393680Y255443D01*
X393216Y255538D01*
X391884Y257274D01*
X389666Y258976D01*
X387082Y260047D01*
X384310Y260412D01*
X376690D01*
X373918Y260047D01*
X371334Y258976D01*
X369116Y257274D01*
X367413Y255056D01*
X366343Y252472D01*
X365978Y249700D01*
X366343Y246928D01*
X367413Y244344D01*
X369116Y242126D01*
X371334Y240423D01*
X373918Y239353D01*
X376690Y238988D01*
X384310D01*
X387082Y239353D01*
X389666Y240423D01*
X391884Y242126D01*
X393216Y243862D01*
X393633Y243948D01*
X395145Y244092D01*
X400706D01*
X402852Y244519D01*
X404672Y245735D01*
X423965Y265028D01*
X441530Y282593D01*
X441692Y282720D01*
X442049Y282952D01*
X442422Y283152D01*
X442818Y283322D01*
X443242Y283464D01*
X443698Y283577D01*
X444191Y283658D01*
X444725Y283707D01*
X445185Y283717D01*
X445406Y283688D01*
X448179Y284053D01*
X450762Y285123D01*
X452981Y286826D01*
X454683Y289044D01*
X455753Y291628D01*
X456118Y294400D01*
X455753Y297172D01*
X454683Y299756D01*
X452981Y301974D01*
X450762Y303677D01*
X448179Y304747D01*
X445406Y305112D01*
X442634Y304747D01*
X440051Y303677D01*
X437832Y301974D01*
X436130Y299756D01*
X435060Y297172D01*
X434695Y294400D01*
X434724Y294178D01*
X434714Y293719D01*
X434665Y293185D01*
X434583Y292692D01*
X434470Y292235D01*
X434329Y291812D01*
X434158Y291416D01*
X433958Y291042D01*
X433726Y290686D01*
X433600Y290524D01*
X420860Y277784D01*
X420552Y277568D01*
X420282Y277434D01*
X420110Y277382D01*
X420000Y277371D01*
X419890Y277382D01*
X419718Y277434D01*
X419448Y277568D01*
X419140Y277784D01*
X416008Y280917D01*
Y291165D01*
X416055Y291489D01*
X416173Y291974D01*
X416345Y292473D01*
X416575Y292990D01*
X416869Y293528D01*
X417231Y294086D01*
X417666Y294663D01*
X418177Y295258D01*
X418636Y295733D01*
X418880Y295920D01*
X420786Y298404D01*
X421984Y301296D01*
X422393Y304400D01*
X421984Y307504D01*
X420786Y310396D01*
X418880Y312880D01*
X416396Y314786D01*
X413504Y315984D01*
X410400Y316393D01*
D02*
G37*
G36*
X274960Y319493D02*
X271856Y319084D01*
X268964Y317886D01*
X266480Y315980D01*
X264574Y313496D01*
X263376Y310604D01*
X262967Y307500D01*
X263376Y304396D01*
X264574Y301504D01*
X266480Y299020D01*
X266724Y298833D01*
X267183Y298358D01*
X267694Y297763D01*
X268129Y297186D01*
X268491Y296628D01*
X268785Y296091D01*
X269015Y295573D01*
X269187Y295074D01*
X269305Y294589D01*
X269352Y294265D01*
Y281788D01*
X268082Y281262D01*
X258420Y290924D01*
X258294Y291086D01*
X258062Y291442D01*
X257862Y291816D01*
X257691Y292212D01*
X257550Y292635D01*
X257437Y293092D01*
X257355Y293585D01*
X257306Y294119D01*
X257296Y294578D01*
X257325Y294800D01*
X256960Y297572D01*
X255890Y300156D01*
X254188Y302374D01*
X251969Y304077D01*
X249386Y305147D01*
X246614Y305512D01*
X243841Y305147D01*
X241258Y304077D01*
X239039Y302374D01*
X237337Y300156D01*
X236267Y297572D01*
X235902Y294800D01*
X236267Y292028D01*
X237337Y289444D01*
X239039Y287226D01*
X241258Y285523D01*
X243841Y284453D01*
X246614Y284088D01*
X246835Y284118D01*
X247295Y284107D01*
X247829Y284058D01*
X248322Y283976D01*
X248778Y283864D01*
X249202Y283722D01*
X249598Y283552D01*
X249971Y283352D01*
X250328Y283120D01*
X250490Y282993D01*
X262348Y271135D01*
X264168Y269919D01*
X266314Y269492D01*
X289803D01*
X290354Y269455D01*
X291120Y269357D01*
X291584Y269262D01*
X292916Y267526D01*
X295134Y265823D01*
X297718Y264753D01*
X300490Y264388D01*
X308110D01*
X310882Y264753D01*
X313466Y265823D01*
X315684Y267526D01*
X317386Y269744D01*
X318457Y272328D01*
X318822Y275100D01*
X318457Y277872D01*
X317386Y280456D01*
X315684Y282674D01*
X313466Y284377D01*
X310882Y285447D01*
X308110Y285812D01*
X300490D01*
X297718Y285447D01*
X295134Y284377D01*
X292916Y282674D01*
X291584Y280938D01*
X291167Y280852D01*
X289655Y280708D01*
X280568D01*
Y294265D01*
X280615Y294589D01*
X280733Y295074D01*
X280905Y295573D01*
X281135Y296091D01*
X281429Y296628D01*
X281791Y297186D01*
X282226Y297763D01*
X282737Y298358D01*
X283196Y298833D01*
X283440Y299020D01*
X285346Y301504D01*
X286544Y304396D01*
X286953Y307500D01*
X286544Y310604D01*
X285346Y313496D01*
X283440Y315980D01*
X280956Y317886D01*
X278064Y319084D01*
X274960Y319493D01*
D02*
G37*
G36*
X303030Y299230D02*
X290410D01*
X290592Y297848D01*
X291615Y295376D01*
X293244Y293254D01*
X295366Y291625D01*
X297838Y290602D01*
X300490Y290252D01*
X303030D01*
Y299230D01*
D02*
G37*
G36*
X49530Y303530D02*
X45404D01*
X45581Y302638D01*
X46806Y300806D01*
X48638Y299581D01*
X49530Y299404D01*
Y303530D01*
D02*
G37*
G36*
X318190Y299230D02*
X305570D01*
Y290252D01*
X308110D01*
X310762Y290602D01*
X313234Y291625D01*
X315356Y293254D01*
X316985Y295376D01*
X318008Y297848D01*
X318190Y299230D01*
D02*
G37*
G36*
X348296Y303530D02*
X344170D01*
Y299404D01*
X345062Y299581D01*
X346894Y300806D01*
X348119Y302638D01*
X348296Y303530D01*
D02*
G37*
G36*
X77470Y310196D02*
Y306070D01*
X81596D01*
X81419Y306962D01*
X80194Y308794D01*
X78362Y310019D01*
X77470Y310196D01*
D02*
G37*
G36*
X74930D02*
X74038Y310019D01*
X72206Y308794D01*
X70981Y306962D01*
X70804Y306070D01*
X74930D01*
Y310196D01*
D02*
G37*
G36*
X100330D02*
X99438Y310019D01*
X97606Y308794D01*
X96381Y306962D01*
X96204Y306070D01*
X100330D01*
Y310196D01*
D02*
G37*
G36*
X341630D02*
X340738Y310019D01*
X338906Y308794D01*
X337681Y306962D01*
X337504Y306070D01*
X341630D01*
Y310196D01*
D02*
G37*
G36*
X102870D02*
Y306070D01*
X106996D01*
X106819Y306962D01*
X105594Y308794D01*
X103762Y310019D01*
X102870Y310196D01*
D02*
G37*
G36*
X52070D02*
Y306070D01*
X56196D01*
X56019Y306962D01*
X54794Y308794D01*
X52962Y310019D01*
X52070Y310196D01*
D02*
G37*
G36*
X308110Y310748D02*
X305570D01*
Y301770D01*
X318190D01*
X318008Y303152D01*
X316985Y305624D01*
X315356Y307746D01*
X313234Y309375D01*
X310762Y310399D01*
X308110Y310748D01*
D02*
G37*
G36*
X303030D02*
X300490D01*
X297838Y310399D01*
X295366Y309375D01*
X293244Y307746D01*
X291615Y305624D01*
X290592Y303152D01*
X290410Y301770D01*
X303030D01*
Y310748D01*
D02*
G37*
G36*
X167640Y321873D02*
X164536Y321464D01*
X161644Y320266D01*
X159160Y318360D01*
X158973Y318116D01*
X158498Y317657D01*
X157903Y317146D01*
X157326Y316711D01*
X156768Y316349D01*
X156231Y316055D01*
X155713Y315825D01*
X155214Y315653D01*
X154729Y315535D01*
X154405Y315488D01*
X142646D01*
X140500Y315061D01*
X138681Y313845D01*
X130876Y306040D01*
X130714Y305914D01*
X130358Y305682D01*
X129984Y305482D01*
X129588Y305311D01*
X129165Y305170D01*
X128708Y305057D01*
X128215Y304975D01*
X127681Y304926D01*
X127222Y304916D01*
X127000Y304945D01*
X124228Y304580D01*
X121644Y303510D01*
X119426Y301808D01*
X117723Y299589D01*
X116653Y297006D01*
X116288Y294234D01*
X116653Y291461D01*
X117723Y288878D01*
X119426Y286659D01*
X121644Y284957D01*
X124228Y283887D01*
X127000Y283522D01*
X129772Y283887D01*
X132356Y284957D01*
X134574Y286659D01*
X136277Y288878D01*
X137347Y291461D01*
X137712Y294234D01*
X137683Y294455D01*
X137693Y294915D01*
X137742Y295449D01*
X137823Y295942D01*
X137936Y296399D01*
X138078Y296822D01*
X138248Y297218D01*
X138448Y297591D01*
X138680Y297948D01*
X138807Y298110D01*
X144969Y304272D01*
X154405D01*
X154729Y304225D01*
X155214Y304107D01*
X155713Y303935D01*
X156230Y303705D01*
X156768Y303411D01*
X157326Y303049D01*
X157903Y302614D01*
X158498Y302103D01*
X158973Y301644D01*
X159160Y301400D01*
X161644Y299494D01*
X164536Y298296D01*
X167640Y297887D01*
X170744Y298296D01*
X173636Y299494D01*
X176120Y301400D01*
X178026Y303884D01*
X179224Y306776D01*
X179633Y309880D01*
X179224Y312984D01*
X178026Y315876D01*
X176120Y318360D01*
X173636Y320266D01*
X170744Y321464D01*
X167640Y321873D01*
D02*
G37*
G36*
X49530Y310196D02*
X48638Y310019D01*
X46806Y308794D01*
X45581Y306962D01*
X45404Y306070D01*
X49530D01*
Y310196D01*
D02*
G37*
G36*
X530400Y315293D02*
X527296Y314884D01*
X524404Y313686D01*
X521920Y311780D01*
X521733Y311536D01*
X521258Y311077D01*
X520663Y310566D01*
X520086Y310131D01*
X519528Y309769D01*
X518991Y309475D01*
X518473Y309245D01*
X517974Y309073D01*
X517489Y308955D01*
X517165Y308908D01*
X504294D01*
X502148Y308481D01*
X500328Y307265D01*
X499270Y306207D01*
X499108Y306080D01*
X498751Y305848D01*
X498378Y305648D01*
X497982Y305478D01*
X497558Y305336D01*
X497102Y305223D01*
X496609Y305142D01*
X496075Y305093D01*
X495615Y305082D01*
X495394Y305112D01*
X492621Y304747D01*
X490038Y303677D01*
X487819Y301974D01*
X486117Y299756D01*
X485047Y297172D01*
X484682Y294400D01*
X485047Y291628D01*
X486117Y289044D01*
X487819Y286826D01*
X489786Y285317D01*
Y247896D01*
X487959Y246494D01*
X486257Y244276D01*
X485187Y241692D01*
X484822Y238920D01*
X485187Y236148D01*
X486257Y233564D01*
X487959Y231346D01*
X489786Y229944D01*
Y189476D01*
X487959Y188074D01*
X486257Y185856D01*
X485187Y183272D01*
X484822Y180500D01*
X485187Y177728D01*
X486257Y175144D01*
X487959Y172926D01*
X490178Y171223D01*
X492761Y170153D01*
X495534Y169788D01*
X498306Y170153D01*
X500889Y171223D01*
X503108Y172926D01*
X504810Y175144D01*
X505880Y177728D01*
X506245Y180500D01*
X505880Y183272D01*
X504810Y185856D01*
X503108Y188074D01*
X501001Y189691D01*
Y229729D01*
X503108Y231346D01*
X504810Y233564D01*
X505880Y236148D01*
X506245Y238920D01*
X505880Y241692D01*
X504810Y244276D01*
X503108Y246494D01*
X501001Y248111D01*
Y285317D01*
X502968Y286826D01*
X504670Y289044D01*
X505740Y291628D01*
X506105Y294400D01*
X506076Y294622D01*
X506086Y295081D01*
X506135Y295615D01*
X506217Y296108D01*
X506330Y296565D01*
X506471Y296988D01*
X506642Y297384D01*
X506807Y297692D01*
X517165D01*
X517489Y297645D01*
X517974Y297527D01*
X518473Y297355D01*
X518991Y297125D01*
X519528Y296831D01*
X520086Y296469D01*
X520663Y296034D01*
X521258Y295523D01*
X521733Y295064D01*
X521920Y294820D01*
X524404Y292914D01*
X527296Y291716D01*
X530400Y291307D01*
X533504Y291716D01*
X536396Y292914D01*
X538880Y294820D01*
X540786Y297304D01*
X541984Y300196D01*
X542393Y303300D01*
X541984Y306404D01*
X540786Y309296D01*
X538880Y311780D01*
X536396Y313686D01*
X533504Y314884D01*
X530400Y315293D01*
D02*
G37*
G36*
X344170Y284796D02*
Y280670D01*
X348296D01*
X348119Y281562D01*
X346894Y283394D01*
X345062Y284619D01*
X344170Y284796D01*
D02*
G37*
G36*
X348296Y278130D02*
X344170D01*
Y274004D01*
X345062Y274181D01*
X346894Y275406D01*
X348119Y277238D01*
X348296Y278130D01*
D02*
G37*
G36*
X341630D02*
X337504D01*
X337681Y277238D01*
X338906Y275406D01*
X340738Y274181D01*
X341630Y274004D01*
Y278130D01*
D02*
G37*
G36*
X379230Y285348D02*
X376690D01*
X374038Y284998D01*
X371566Y283975D01*
X369444Y282346D01*
X367815Y280224D01*
X366791Y277752D01*
X366609Y276370D01*
X379230D01*
Y285348D01*
D02*
G37*
G36*
X49530Y284796D02*
X48638Y284619D01*
X46806Y283394D01*
X45581Y281562D01*
X45404Y280670D01*
X49530D01*
Y284796D01*
D02*
G37*
G36*
X384310Y285348D02*
X381770D01*
Y276370D01*
X394390D01*
X394208Y277752D01*
X393185Y280224D01*
X391556Y282346D01*
X389434Y283975D01*
X386962Y284998D01*
X384310Y285348D01*
D02*
G37*
G36*
X221296Y278130D02*
X217170D01*
Y274004D01*
X218062Y274181D01*
X219894Y275406D01*
X221119Y277238D01*
X221296Y278130D01*
D02*
G37*
G36*
X145096D02*
X140970D01*
Y274004D01*
X141862Y274181D01*
X143694Y275406D01*
X144919Y277238D01*
X145096Y278130D01*
D02*
G37*
G36*
X138430D02*
X134304D01*
X134481Y277238D01*
X135706Y275406D01*
X137538Y274181D01*
X138430Y274004D01*
Y278130D01*
D02*
G37*
G36*
X163830D02*
X159704D01*
X159881Y277238D01*
X161106Y275406D01*
X162938Y274181D01*
X163830Y274004D01*
Y278130D01*
D02*
G37*
G36*
X214630D02*
X210504D01*
X210681Y277238D01*
X211906Y275406D01*
X213738Y274181D01*
X214630Y274004D01*
Y278130D01*
D02*
G37*
G36*
X170496D02*
X166370D01*
Y274004D01*
X167262Y274181D01*
X169094Y275406D01*
X170319Y277238D01*
X170496Y278130D01*
D02*
G37*
G36*
X52070Y284796D02*
Y280670D01*
X56196D01*
X56019Y281562D01*
X54794Y283394D01*
X52962Y284619D01*
X52070Y284796D01*
D02*
G37*
G36*
X166370D02*
Y280670D01*
X170496D01*
X170319Y281562D01*
X169094Y283394D01*
X167262Y284619D01*
X166370Y284796D01*
D02*
G37*
G36*
X163830D02*
X162938Y284619D01*
X161106Y283394D01*
X159881Y281562D01*
X159704Y280670D01*
X163830D01*
Y284796D01*
D02*
G37*
G36*
X214630D02*
X213738Y284619D01*
X211906Y283394D01*
X210681Y281562D01*
X210504Y280670D01*
X214630D01*
Y284796D01*
D02*
G37*
G36*
X341630D02*
X340738Y284619D01*
X338906Y283394D01*
X337681Y281562D01*
X337504Y280670D01*
X341630D01*
Y284796D01*
D02*
G37*
G36*
X217170D02*
Y280670D01*
X221296D01*
X221119Y281562D01*
X219894Y283394D01*
X218062Y284619D01*
X217170Y284796D01*
D02*
G37*
G36*
X140970D02*
Y280670D01*
X145096D01*
X144919Y281562D01*
X143694Y283394D01*
X141862Y284619D01*
X140970Y284796D01*
D02*
G37*
G36*
X77470D02*
Y280670D01*
X81596D01*
X81419Y281562D01*
X80194Y283394D01*
X78362Y284619D01*
X77470Y284796D01*
D02*
G37*
G36*
X74930D02*
X74038Y284619D01*
X72206Y283394D01*
X70981Y281562D01*
X70804Y280670D01*
X74930D01*
Y284796D01*
D02*
G37*
G36*
X100330D02*
X99438Y284619D01*
X97606Y283394D01*
X96381Y281562D01*
X96204Y280670D01*
X100330D01*
Y284796D01*
D02*
G37*
G36*
X138430D02*
X137538Y284619D01*
X135706Y283394D01*
X134481Y281562D01*
X134304Y280670D01*
X138430D01*
Y284796D01*
D02*
G37*
G36*
X102870D02*
Y280670D01*
X106996D01*
X106819Y281562D01*
X105594Y283394D01*
X103762Y284619D01*
X102870Y284796D01*
D02*
G37*
G36*
X151130Y335596D02*
X150238Y335419D01*
X148406Y334194D01*
X147181Y332362D01*
X147004Y331470D01*
X151130D01*
Y335596D01*
D02*
G37*
G36*
X128270D02*
Y331470D01*
X132396D01*
X132219Y332362D01*
X130994Y334194D01*
X129162Y335419D01*
X128270Y335596D01*
D02*
G37*
G36*
X153670D02*
Y331470D01*
X157796D01*
X157619Y332362D01*
X156394Y334194D01*
X154562Y335419D01*
X153670Y335596D01*
D02*
G37*
G36*
X179070D02*
Y331470D01*
X183196D01*
X183019Y332362D01*
X181794Y334194D01*
X179962Y335419D01*
X179070Y335596D01*
D02*
G37*
G36*
X176530D02*
X175638Y335419D01*
X173806Y334194D01*
X172581Y332362D01*
X172404Y331470D01*
X176530D01*
Y335596D01*
D02*
G37*
G36*
X125730D02*
X124838Y335419D01*
X123006Y334194D01*
X121781Y332362D01*
X121604Y331470D01*
X125730D01*
Y335596D01*
D02*
G37*
G36*
X74930D02*
X74038Y335419D01*
X72206Y334194D01*
X70981Y332362D01*
X70804Y331470D01*
X74930D01*
Y335596D01*
D02*
G37*
G36*
X348296Y328930D02*
X344170D01*
Y324804D01*
X345062Y324981D01*
X346894Y326206D01*
X348119Y328038D01*
X348296Y328930D01*
D02*
G37*
G36*
X77470Y335596D02*
Y331470D01*
X81596D01*
X81419Y332362D01*
X80194Y334194D01*
X78362Y335419D01*
X77470Y335596D01*
D02*
G37*
G36*
X102870D02*
Y331470D01*
X106996D01*
X106819Y332362D01*
X105594Y334194D01*
X103762Y335419D01*
X102870Y335596D01*
D02*
G37*
G36*
X100330D02*
X99438Y335419D01*
X97606Y334194D01*
X96381Y332362D01*
X96204Y331470D01*
X100330D01*
Y335596D01*
D02*
G37*
G36*
X201930D02*
X201038Y335419D01*
X199206Y334194D01*
X197981Y332362D01*
X197804Y331470D01*
X201930D01*
Y335596D01*
D02*
G37*
G36*
X341630D02*
X340738Y335419D01*
X338906Y334194D01*
X337681Y332362D01*
X337504Y331470D01*
X341630D01*
Y335596D01*
D02*
G37*
G36*
X280670D02*
Y331470D01*
X284796D01*
X284619Y332362D01*
X283394Y334194D01*
X281562Y335419D01*
X280670Y335596D01*
D02*
G37*
G36*
X344170D02*
Y331470D01*
X348296D01*
X348119Y332362D01*
X346894Y334194D01*
X345062Y335419D01*
X344170Y335596D01*
D02*
G37*
G36*
X320270Y343761D02*
Y333670D01*
X330361D01*
X330136Y335384D01*
X328984Y338164D01*
X327152Y340552D01*
X324764Y342384D01*
X321984Y343536D01*
X320270Y343761D01*
D02*
G37*
G36*
X317730D02*
X316016Y343536D01*
X313236Y342384D01*
X310848Y340552D01*
X309016Y338164D01*
X307864Y335384D01*
X307639Y333670D01*
X317730D01*
Y343761D01*
D02*
G37*
G36*
X278130Y335596D02*
X277238Y335419D01*
X275406Y334194D01*
X274181Y332362D01*
X274004Y331470D01*
X278130D01*
Y335596D01*
D02*
G37*
G36*
X227330D02*
X226438Y335419D01*
X224606Y334194D01*
X223381Y332362D01*
X223204Y331470D01*
X227330D01*
Y335596D01*
D02*
G37*
G36*
X204470D02*
Y331470D01*
X208596D01*
X208419Y332362D01*
X207194Y334194D01*
X205362Y335419D01*
X204470Y335596D01*
D02*
G37*
G36*
X229870D02*
Y331470D01*
X233996D01*
X233819Y332362D01*
X232594Y334194D01*
X230762Y335419D01*
X229870Y335596D01*
D02*
G37*
G36*
X255270D02*
Y331470D01*
X259396D01*
X259219Y332362D01*
X257994Y334194D01*
X256162Y335419D01*
X255270Y335596D01*
D02*
G37*
G36*
X252730D02*
X251838Y335419D01*
X250006Y334194D01*
X248781Y332362D01*
X248604Y331470D01*
X252730D01*
Y335596D01*
D02*
G37*
G36*
X341630Y328930D02*
X337504D01*
X337681Y328038D01*
X338906Y326206D01*
X340738Y324981D01*
X341630Y324804D01*
Y328930D01*
D02*
G37*
G36*
X100330D02*
X96204D01*
X96381Y328038D01*
X97606Y326206D01*
X99438Y324981D01*
X100330Y324804D01*
Y328930D01*
D02*
G37*
G36*
X81596D02*
X77470D01*
Y324804D01*
X78362Y324981D01*
X80194Y326206D01*
X81419Y328038D01*
X81596Y328930D01*
D02*
G37*
G36*
X106996D02*
X102870D01*
Y324804D01*
X103762Y324981D01*
X105594Y326206D01*
X106819Y328038D01*
X106996Y328930D01*
D02*
G37*
G36*
X132396D02*
X128270D01*
Y324804D01*
X129162Y324981D01*
X130994Y326206D01*
X132219Y328038D01*
X132396Y328930D01*
D02*
G37*
G36*
X125730D02*
X121604D01*
X121781Y328038D01*
X123006Y326206D01*
X124838Y324981D01*
X125730Y324804D01*
Y328930D01*
D02*
G37*
G36*
X74930D02*
X70804D01*
X70981Y328038D01*
X72206Y326206D01*
X74038Y324981D01*
X74930Y324804D01*
Y328930D01*
D02*
G37*
G36*
X30000Y348087D02*
X26471Y347739D01*
X23078Y346710D01*
X19951Y345039D01*
X17211Y342789D01*
X14961Y340049D01*
X13290Y336922D01*
X12261Y333529D01*
X11913Y330000D01*
X12261Y326471D01*
X13290Y323078D01*
X14961Y319951D01*
X17211Y317211D01*
X19951Y314961D01*
X23078Y313290D01*
X26471Y312260D01*
X30000Y311913D01*
X33529Y312260D01*
X36922Y313290D01*
X40049Y314961D01*
X42790Y317211D01*
X45039Y319951D01*
X46710Y323078D01*
X47740Y326471D01*
X48087Y330000D01*
X47740Y333529D01*
X46710Y336922D01*
X45039Y340049D01*
X42790Y342789D01*
X40049Y345039D01*
X36922Y346710D01*
X33529Y347739D01*
X30000Y348087D01*
D02*
G37*
G36*
X344170Y310196D02*
Y306070D01*
X348296D01*
X348119Y306962D01*
X346894Y308794D01*
X345062Y310019D01*
X344170Y310196D01*
D02*
G37*
G36*
X570000Y348087D02*
X566471Y347739D01*
X563078Y346710D01*
X559951Y345039D01*
X557211Y342789D01*
X554961Y340049D01*
X553290Y336922D01*
X552261Y333529D01*
X551913Y330000D01*
X552261Y326471D01*
X553290Y323078D01*
X554961Y319951D01*
X557211Y317211D01*
X559951Y314961D01*
X563078Y313290D01*
X566471Y312260D01*
X570000Y311913D01*
X573529Y312260D01*
X576922Y313290D01*
X580049Y314961D01*
X582789Y317211D01*
X585039Y319951D01*
X586710Y323078D01*
X587739Y326471D01*
X588087Y330000D01*
X587739Y333529D01*
X586710Y336922D01*
X585039Y340049D01*
X582789Y342789D01*
X580049Y345039D01*
X576922Y346710D01*
X573529Y347739D01*
X570000Y348087D01*
D02*
G37*
G36*
X330361Y331130D02*
X320270D01*
Y321039D01*
X321984Y321264D01*
X324764Y322416D01*
X327152Y324248D01*
X328984Y326636D01*
X330136Y329416D01*
X330361Y331130D01*
D02*
G37*
G36*
X317730D02*
X307639D01*
X307864Y329416D01*
X309016Y326636D01*
X310848Y324248D01*
X313236Y322416D01*
X316016Y321264D01*
X317730Y321039D01*
Y331130D01*
D02*
G37*
G36*
X151130Y328930D02*
X147004D01*
X147181Y328038D01*
X148406Y326206D01*
X150238Y324981D01*
X151130Y324804D01*
Y328930D01*
D02*
G37*
G36*
X252730D02*
X248604D01*
X248781Y328038D01*
X250006Y326206D01*
X251838Y324981D01*
X252730Y324804D01*
Y328930D01*
D02*
G37*
G36*
X233996D02*
X229870D01*
Y324804D01*
X230762Y324981D01*
X232594Y326206D01*
X233819Y328038D01*
X233996Y328930D01*
D02*
G37*
G36*
X259396D02*
X255270D01*
Y324804D01*
X256162Y324981D01*
X257994Y326206D01*
X259219Y328038D01*
X259396Y328930D01*
D02*
G37*
G36*
X284796D02*
X280670D01*
Y324804D01*
X281562Y324981D01*
X283394Y326206D01*
X284619Y328038D01*
X284796Y328930D01*
D02*
G37*
G36*
X278130D02*
X274004D01*
X274181Y328038D01*
X275406Y326206D01*
X277238Y324981D01*
X278130Y324804D01*
Y328930D01*
D02*
G37*
G36*
X227330D02*
X223204D01*
X223381Y328038D01*
X224606Y326206D01*
X226438Y324981D01*
X227330Y324804D01*
Y328930D01*
D02*
G37*
G36*
X176530D02*
X172404D01*
X172581Y328038D01*
X173806Y326206D01*
X175638Y324981D01*
X176530Y324804D01*
Y328930D01*
D02*
G37*
G36*
X157796D02*
X153670D01*
Y324804D01*
X154562Y324981D01*
X156394Y326206D01*
X157619Y328038D01*
X157796Y328930D01*
D02*
G37*
G36*
X183196D02*
X179070D01*
Y324804D01*
X179962Y324981D01*
X181794Y326206D01*
X183019Y328038D01*
X183196Y328930D01*
D02*
G37*
G36*
X208596D02*
X204470D01*
Y324804D01*
X205362Y324981D01*
X207194Y326206D01*
X208419Y328038D01*
X208596Y328930D01*
D02*
G37*
G36*
X201930D02*
X197804D01*
X197981Y328038D01*
X199206Y326206D01*
X201038Y324981D01*
X201930Y324804D01*
Y328930D01*
D02*
G37*
G36*
X100330Y252730D02*
X96204D01*
X96381Y251838D01*
X97606Y250006D01*
X99438Y248781D01*
X100330Y248604D01*
Y252730D01*
D02*
G37*
G36*
X56196D02*
X52070D01*
Y248604D01*
X52962Y248781D01*
X54794Y250006D01*
X56019Y251838D01*
X56196Y252730D01*
D02*
G37*
G36*
X106996D02*
X102870D01*
Y248604D01*
X103762Y248781D01*
X105594Y250006D01*
X106819Y251838D01*
X106996Y252730D01*
D02*
G37*
G36*
X145096D02*
X140970D01*
Y248604D01*
X141862Y248781D01*
X143694Y250006D01*
X144919Y251838D01*
X145096Y252730D01*
D02*
G37*
G36*
X128270Y254327D02*
Y245516D01*
X137080D01*
X136898Y246899D01*
X136450Y247981D01*
X137476Y248823D01*
X137538Y248781D01*
X138430Y248604D01*
Y252730D01*
X133624D01*
X133077Y252390D01*
X132124Y253121D01*
X129652Y254145D01*
X128270Y254327D01*
D02*
G37*
G36*
X125730Y242976D02*
X116919D01*
X117101Y241594D01*
X118125Y239123D01*
X119754Y237000D01*
X121876Y235372D01*
X124348Y234348D01*
X125730Y234166D01*
Y242976D01*
D02*
G37*
G36*
X196626Y305512D02*
X193854Y305147D01*
X191271Y304077D01*
X189052Y302374D01*
X187350Y300156D01*
X186280Y297572D01*
X185915Y294800D01*
X186280Y292028D01*
X187350Y289444D01*
X189052Y287226D01*
X189230Y287090D01*
X189547Y286757D01*
X189890Y286345D01*
X190181Y285939D01*
X190424Y285536D01*
X190623Y285137D01*
X190783Y284736D01*
X190905Y284331D01*
X190993Y283914D01*
X191019Y283710D01*
Y250064D01*
X190992Y249858D01*
X190904Y249470D01*
X190784Y249101D01*
X190629Y248745D01*
X190436Y248396D01*
X190200Y248048D01*
X189915Y247697D01*
X189575Y247343D01*
X189094Y246914D01*
X188991Y246778D01*
X188412Y246334D01*
X186931Y244404D01*
X186821Y244388D01*
X186521Y244368D01*
X185420D01*
X183274Y243941D01*
X181455Y242725D01*
X173033Y234304D01*
X172771Y234108D01*
X172344Y233849D01*
X171870Y233617D01*
X171341Y233414D01*
X170753Y233242D01*
X170103Y233103D01*
X169387Y233003D01*
X168605Y232944D01*
X167945Y232932D01*
X167640Y232973D01*
X164536Y232564D01*
X161644Y231366D01*
X159160Y229460D01*
X158973Y229216D01*
X158498Y228757D01*
X157903Y228246D01*
X157326Y227811D01*
X156768Y227449D01*
X156231Y227155D01*
X155713Y226925D01*
X155214Y226753D01*
X154729Y226635D01*
X154405Y226588D01*
X106463D01*
X93583Y239467D01*
X93396Y239725D01*
X93185Y240098D01*
X93017Y240491D01*
X92890Y240916D01*
X92803Y241385D01*
X92760Y241907D01*
X92768Y242491D01*
X92832Y243139D01*
X92852Y243246D01*
X92864Y243276D01*
X92883Y243423D01*
X92979Y243957D01*
X92976Y244126D01*
X93273Y246380D01*
X92864Y249484D01*
X91666Y252376D01*
X89760Y254860D01*
X87276Y256766D01*
X84384Y257964D01*
X81280Y258373D01*
X78176Y257964D01*
X75284Y256766D01*
X72800Y254860D01*
X70894Y252376D01*
X69696Y249484D01*
X69287Y246380D01*
X69696Y243276D01*
X70894Y240384D01*
X72800Y237900D01*
X75284Y235994D01*
X78176Y234796D01*
X78823Y234711D01*
X78928Y234665D01*
X79891Y234458D01*
X81635Y233970D01*
X82338Y233719D01*
X83006Y233440D01*
X83604Y233148D01*
X84136Y232845D01*
X84601Y232536D01*
X84837Y232352D01*
X100175Y217015D01*
X101994Y215799D01*
X104140Y215372D01*
X154405D01*
X154729Y215325D01*
X155214Y215207D01*
X155713Y215035D01*
X156230Y214805D01*
X156768Y214511D01*
X157326Y214149D01*
X157903Y213714D01*
X158498Y213203D01*
X158973Y212744D01*
X159160Y212500D01*
X161644Y210594D01*
X162890Y210078D01*
X162638Y208808D01*
X86905D01*
X60147Y235565D01*
X58328Y236781D01*
X56182Y237208D01*
X30884D01*
X30692Y237231D01*
X30282Y237316D01*
X29885Y237434D01*
X29496Y237587D01*
X29109Y237778D01*
X28722Y238010D01*
X28332Y238287D01*
X27938Y238614D01*
X27468Y239062D01*
X26994Y239364D01*
X26527Y239676D01*
X26491Y239683D01*
X26461Y239702D01*
X25907Y239799D01*
X25386Y239903D01*
X24853Y240312D01*
X22299Y241370D01*
X19558Y241731D01*
X16817Y241370D01*
X14263Y240312D01*
X12069Y238629D01*
X10386Y236435D01*
X9328Y233881D01*
X8967Y231140D01*
X9328Y228399D01*
X10386Y225845D01*
X12069Y223651D01*
X14263Y221968D01*
X16817Y220910D01*
X19558Y220549D01*
X22299Y220910D01*
X24853Y221968D01*
X27047Y223651D01*
X27374Y224077D01*
X27468Y224137D01*
X27938Y224586D01*
X28332Y224913D01*
X28722Y225190D01*
X29109Y225422D01*
X29496Y225613D01*
X29885Y225766D01*
X30282Y225884D01*
X30692Y225969D01*
X30884Y225992D01*
X36542D01*
X36900Y224722D01*
X35376Y223704D01*
X34151Y221872D01*
X33974Y220980D01*
X44766D01*
X44589Y221872D01*
X43364Y223704D01*
X41840Y224722D01*
X42198Y225992D01*
X53859D01*
X80617Y199235D01*
X82436Y198019D01*
X84582Y197592D01*
X210820D01*
X212966Y198019D01*
X214785Y199235D01*
X242385Y226835D01*
X242545Y226960D01*
X242909Y227201D01*
X243295Y227412D01*
X243704Y227596D01*
X244144Y227753D01*
X244617Y227881D01*
X245128Y227981D01*
X245679Y228049D01*
X245878Y228061D01*
X245974Y228048D01*
X246222Y228081D01*
X246364Y228089D01*
X246444Y228110D01*
X248746Y228413D01*
X251329Y229483D01*
X253548Y231186D01*
X255250Y233404D01*
X256320Y235988D01*
X256685Y238760D01*
X256656Y238982D01*
X256666Y239441D01*
X256715Y239975D01*
X256797Y240468D01*
X256910Y240925D01*
X257051Y241348D01*
X257222Y241744D01*
X257422Y242118D01*
X257654Y242474D01*
X257780Y242636D01*
X259236Y244092D01*
X269352D01*
Y231835D01*
X269305Y231511D01*
X269187Y231026D01*
X269015Y230527D01*
X268785Y230009D01*
X268491Y229472D01*
X268129Y228914D01*
X267694Y228337D01*
X267183Y227742D01*
X266724Y227267D01*
X266480Y227080D01*
X264574Y224596D01*
X263376Y221704D01*
X262967Y218600D01*
X263376Y215496D01*
X264574Y212604D01*
X266480Y210120D01*
X268964Y208214D01*
X271856Y207016D01*
X274960Y206607D01*
X278064Y207016D01*
X280956Y208214D01*
X283440Y210120D01*
X285346Y212604D01*
X286544Y215496D01*
X286953Y218600D01*
X286544Y221704D01*
X285346Y224596D01*
X283440Y227080D01*
X283196Y227267D01*
X282737Y227742D01*
X282226Y228337D01*
X281791Y228914D01*
X281429Y229472D01*
X281135Y230009D01*
X280905Y230527D01*
X280733Y231026D01*
X280615Y231511D01*
X280568Y231835D01*
Y244092D01*
X289803D01*
X290354Y244055D01*
X291120Y243957D01*
X291584Y243862D01*
X292916Y242126D01*
X295134Y240423D01*
X297718Y239353D01*
X300490Y238988D01*
X308110D01*
X310882Y239353D01*
X313466Y240423D01*
X315684Y242126D01*
X317386Y244344D01*
X318457Y246928D01*
X318822Y249700D01*
X318457Y252472D01*
X317386Y255056D01*
X315684Y257274D01*
X313466Y258976D01*
X310882Y260047D01*
X308110Y260412D01*
X300490D01*
X297718Y260047D01*
X295134Y258976D01*
X292916Y257274D01*
X291584Y255538D01*
X291167Y255452D01*
X289655Y255308D01*
X256914D01*
X254768Y254881D01*
X252948Y253665D01*
X249850Y250567D01*
X249688Y250440D01*
X249331Y250208D01*
X248958Y250008D01*
X248562Y249838D01*
X248139Y249696D01*
X247682Y249583D01*
X247189Y249502D01*
X246655Y249453D01*
X246195Y249443D01*
X245974Y249472D01*
X243201Y249107D01*
X240618Y248037D01*
X238399Y246334D01*
X236697Y244116D01*
X235627Y241532D01*
X235262Y238760D01*
X235310Y238391D01*
X235304Y238356D01*
X235313Y237694D01*
X235282Y237179D01*
X235217Y236704D01*
X235120Y236266D01*
X234993Y235860D01*
X234835Y235479D01*
X234646Y235118D01*
X234423Y234770D01*
X234296Y234606D01*
X208497Y208808D01*
X172642D01*
X172390Y210078D01*
X173636Y210594D01*
X176120Y212500D01*
X178026Y214984D01*
X179224Y217876D01*
X179633Y220980D01*
X179592Y221285D01*
X179604Y221945D01*
X179663Y222727D01*
X179763Y223443D01*
X179902Y224093D01*
X180074Y224681D01*
X180277Y225210D01*
X180509Y225684D01*
X180768Y226111D01*
X180964Y226373D01*
X186587Y231996D01*
X187854Y231913D01*
X188412Y231186D01*
X190631Y229483D01*
X193214Y228413D01*
X195986Y228048D01*
X198759Y228413D01*
X201342Y229483D01*
X203561Y231186D01*
X205263Y233404D01*
X206333Y235988D01*
X206698Y238760D01*
X206333Y241532D01*
X205263Y244116D01*
X204258Y245425D01*
X204132Y245664D01*
X203690Y246208D01*
X203354Y246677D01*
X203066Y247138D01*
X202824Y247592D01*
X202624Y248039D01*
X202465Y248481D01*
X202343Y248923D01*
X202257Y249366D01*
X202234Y249562D01*
Y283710D01*
X202259Y283914D01*
X202347Y284331D01*
X202470Y284736D01*
X202629Y285137D01*
X202829Y285536D01*
X203072Y285938D01*
X203363Y286345D01*
X203706Y286757D01*
X204023Y287090D01*
X204201Y287226D01*
X205903Y289444D01*
X206973Y292028D01*
X207338Y294800D01*
X206973Y297572D01*
X205903Y300156D01*
X204201Y302374D01*
X201982Y304077D01*
X199399Y305147D01*
X196626Y305512D01*
D02*
G37*
G36*
X137080Y242976D02*
X128270D01*
Y234166D01*
X129652Y234348D01*
X132124Y235372D01*
X134246Y237000D01*
X135875Y239123D01*
X136898Y241594D01*
X137080Y242976D01*
D02*
G37*
G36*
X49530Y252730D02*
X45404D01*
X45581Y251838D01*
X46806Y250006D01*
X48638Y248781D01*
X49530Y248604D01*
Y252730D01*
D02*
G37*
G36*
X125730Y254327D02*
X124348Y254145D01*
X121876Y253121D01*
X119754Y251493D01*
X118125Y249370D01*
X117101Y246899D01*
X116919Y245516D01*
X125730D01*
Y254327D01*
D02*
G37*
G36*
X163830Y252730D02*
X159704D01*
X159881Y251838D01*
X161106Y250006D01*
X162938Y248781D01*
X163830Y248604D01*
Y252730D01*
D02*
G37*
G36*
X52070Y259396D02*
Y255270D01*
X56196D01*
X56019Y256162D01*
X54794Y257994D01*
X52962Y259219D01*
X52070Y259396D01*
D02*
G37*
G36*
X49530D02*
X48638Y259219D01*
X46806Y257994D01*
X45581Y256162D01*
X45404Y255270D01*
X49530D01*
Y259396D01*
D02*
G37*
G36*
X100330D02*
X99438Y259219D01*
X97606Y257994D01*
X96381Y256162D01*
X96204Y255270D01*
X100330D01*
Y259396D01*
D02*
G37*
G36*
X138430D02*
X137538Y259219D01*
X135706Y257994D01*
X134481Y256162D01*
X134304Y255270D01*
X138430D01*
Y259396D01*
D02*
G37*
G36*
X102870D02*
Y255270D01*
X106996D01*
X106819Y256162D01*
X105594Y257994D01*
X103762Y259219D01*
X102870Y259396D01*
D02*
G37*
G36*
X214630Y252730D02*
X210504D01*
X210681Y251838D01*
X211906Y250006D01*
X213738Y248781D01*
X214630Y248604D01*
Y252730D01*
D02*
G37*
G36*
X170496D02*
X166370D01*
Y248604D01*
X167262Y248781D01*
X169094Y250006D01*
X170319Y251838D01*
X170496Y252730D01*
D02*
G37*
G36*
X221296D02*
X217170D01*
Y248604D01*
X218062Y248781D01*
X219894Y250006D01*
X221119Y251838D01*
X221296Y252730D01*
D02*
G37*
G36*
X348296D02*
X344170D01*
Y248604D01*
X345062Y248781D01*
X346894Y250006D01*
X348119Y251838D01*
X348296Y252730D01*
D02*
G37*
G36*
X341630D02*
X337504D01*
X337681Y251838D01*
X338906Y250006D01*
X340738Y248781D01*
X341630Y248604D01*
Y252730D01*
D02*
G37*
G36*
X581270Y216159D02*
Y207470D01*
X589959D01*
X589782Y208821D01*
X588770Y211263D01*
X587161Y213361D01*
X585063Y214970D01*
X582621Y215982D01*
X581270Y216159D01*
D02*
G37*
G36*
X578730D02*
X577379Y215982D01*
X574937Y214970D01*
X572839Y213361D01*
X571230Y211263D01*
X570218Y208821D01*
X570041Y207470D01*
X578730D01*
Y216159D01*
D02*
G37*
G36*
X240030Y214630D02*
X235904D01*
X236081Y213738D01*
X237306Y211906D01*
X239138Y210681D01*
X240030Y210504D01*
Y214630D01*
D02*
G37*
G36*
X252730D02*
X248604D01*
X248781Y213738D01*
X250006Y211906D01*
X251838Y210681D01*
X252730Y210504D01*
Y214630D01*
D02*
G37*
G36*
X246696D02*
X242570D01*
Y210504D01*
X243462Y210681D01*
X245294Y211906D01*
X246519Y213738D01*
X246696Y214630D01*
D02*
G37*
G36*
X240030Y208596D02*
X239138Y208419D01*
X237306Y207194D01*
X236081Y205362D01*
X235904Y204470D01*
X240030D01*
Y208596D01*
D02*
G37*
G36*
X541761Y213130D02*
X531670D01*
Y203039D01*
X533384Y203264D01*
X536164Y204416D01*
X538552Y206248D01*
X540384Y208636D01*
X541536Y211416D01*
X541761Y213130D01*
D02*
G37*
G36*
X242570Y208596D02*
Y204470D01*
X246696D01*
X246519Y205362D01*
X245294Y207194D01*
X243462Y208419D01*
X242570Y208596D01*
D02*
G37*
G36*
X255270D02*
Y204470D01*
X259396D01*
X259219Y205362D01*
X257994Y207194D01*
X256162Y208419D01*
X255270Y208596D01*
D02*
G37*
G36*
X252730D02*
X251838Y208419D01*
X250006Y207194D01*
X248781Y205362D01*
X248604Y204470D01*
X252730D01*
Y208596D01*
D02*
G37*
G36*
X259396Y214630D02*
X255270D01*
Y210504D01*
X256162Y210681D01*
X257994Y211906D01*
X259219Y213738D01*
X259396Y214630D01*
D02*
G37*
G36*
X252730Y221296D02*
X251838Y221119D01*
X250006Y219894D01*
X248781Y218062D01*
X248604Y217170D01*
X252730D01*
Y221296D01*
D02*
G37*
G36*
X242570D02*
Y217170D01*
X246696D01*
X246519Y218062D01*
X245294Y219894D01*
X243462Y221119D01*
X242570Y221296D01*
D02*
G37*
G36*
X255270D02*
Y217170D01*
X259396D01*
X259219Y218062D01*
X257994Y219894D01*
X256162Y221119D01*
X255270Y221296D01*
D02*
G37*
G36*
X445546Y249632D02*
X442774Y249267D01*
X440191Y248197D01*
X437972Y246494D01*
X436270Y244276D01*
X435200Y241692D01*
X434835Y238920D01*
X434864Y238698D01*
X434854Y238239D01*
X434805Y237705D01*
X434723Y237212D01*
X434610Y236755D01*
X434469Y236332D01*
X434298Y235936D01*
X434098Y235562D01*
X433866Y235206D01*
X433740Y235044D01*
X428604Y229908D01*
X395804D01*
X395473Y229937D01*
X394981Y230018D01*
X394930Y230032D01*
Y234920D01*
X366070D01*
Y230032D01*
X366019Y230018D01*
X365527Y229937D01*
X365196Y229908D01*
X346220D01*
X344074Y229481D01*
X342255Y228265D01*
X327877Y213888D01*
X313990D01*
X313702Y214512D01*
X313641Y215158D01*
X315684Y216726D01*
X317386Y218944D01*
X318457Y221528D01*
X318822Y224300D01*
X318457Y227072D01*
X317386Y229656D01*
X315684Y231874D01*
X313466Y233577D01*
X310882Y234647D01*
X308110Y235012D01*
X300490D01*
X297718Y234647D01*
X295134Y233577D01*
X292916Y231874D01*
X291213Y229656D01*
X290143Y227072D01*
X289778Y224300D01*
X290143Y221528D01*
X291213Y218944D01*
X292916Y216726D01*
X295134Y215023D01*
X297718Y213953D01*
X298426Y213860D01*
X298734Y212539D01*
X298295Y212245D01*
X279617Y193568D01*
X73951D01*
X57353Y210165D01*
X55534Y211381D01*
X53388Y211808D01*
X30884D01*
X30692Y211831D01*
X30282Y211916D01*
X29885Y212034D01*
X29496Y212187D01*
X29109Y212378D01*
X28722Y212610D01*
X28332Y212887D01*
X27938Y213214D01*
X27468Y213662D01*
X26994Y213964D01*
X26527Y214276D01*
X26491Y214283D01*
X26461Y214302D01*
X25907Y214399D01*
X25386Y214503D01*
X24853Y214912D01*
X22299Y215970D01*
X19558Y216331D01*
X16817Y215970D01*
X14263Y214912D01*
X12069Y213229D01*
X10386Y211035D01*
X9328Y208481D01*
X8967Y205740D01*
X9328Y202999D01*
X10386Y200445D01*
X12069Y198251D01*
X14263Y196568D01*
X16817Y195510D01*
X19558Y195149D01*
X22299Y195510D01*
X24853Y196568D01*
X27047Y198251D01*
X27374Y198678D01*
X27468Y198738D01*
X27938Y199186D01*
X28332Y199513D01*
X28722Y199790D01*
X29109Y200022D01*
X29496Y200213D01*
X29885Y200366D01*
X30282Y200484D01*
X30692Y200569D01*
X30884Y200592D01*
X39870D01*
X39879Y200504D01*
X41401D01*
X41410Y200592D01*
X51065D01*
X67663Y183995D01*
X69482Y182779D01*
X71628Y182352D01*
X281940D01*
X284086Y182779D01*
X285905Y183995D01*
X304583Y202672D01*
X312498D01*
X312750Y201402D01*
X311504Y200886D01*
X309020Y198980D01*
X307114Y196496D01*
X305916Y193604D01*
X305507Y190500D01*
X305916Y187396D01*
X307114Y184504D01*
X309020Y182020D01*
X311504Y180114D01*
X314396Y178916D01*
X317500Y178507D01*
X317510Y178509D01*
X317733Y178391D01*
X318071Y178177D01*
X318440Y177913D01*
X320158Y176430D01*
X320192Y176397D01*
X337371Y159218D01*
Y87162D01*
X316544Y66336D01*
X315111Y64956D01*
X313481Y63523D01*
X312041Y62399D01*
X310817Y61588D01*
X310785Y61571D01*
X310022Y61887D01*
X307250Y62252D01*
X299630D01*
X296858Y61887D01*
X294274Y60817D01*
X292056Y59114D01*
X290353Y56896D01*
X289283Y54312D01*
X288918Y51540D01*
X289283Y48768D01*
X290353Y46184D01*
X292056Y43966D01*
X294274Y42263D01*
X296858Y41193D01*
X299630Y40828D01*
X305676D01*
X306202Y39558D01*
X287491Y20848D01*
X103923D01*
X87528Y37243D01*
Y52977D01*
X87553Y53181D01*
X87641Y53597D01*
X87764Y54003D01*
X87923Y54403D01*
X88122Y54803D01*
X88365Y55205D01*
X88656Y55612D01*
X88999Y56024D01*
X89317Y56356D01*
X89494Y56492D01*
X91196Y58711D01*
X92267Y61294D01*
X92632Y64066D01*
X92602Y64288D01*
X92613Y64748D01*
X92662Y65282D01*
X92743Y65775D01*
X92856Y66231D01*
X92998Y66655D01*
X93168Y67051D01*
X93368Y67424D01*
X93600Y67780D01*
X93727Y67943D01*
X123985Y98201D01*
X125201Y100020D01*
X125628Y102166D01*
Y119005D01*
X125675Y119329D01*
X125793Y119814D01*
X125965Y120313D01*
X126195Y120830D01*
X126489Y121368D01*
X126851Y121926D01*
X127286Y122503D01*
X127797Y123098D01*
X128256Y123573D01*
X128500Y123760D01*
X130406Y126244D01*
X131604Y129136D01*
X132013Y132240D01*
X131604Y135344D01*
X130406Y138236D01*
X128500Y140720D01*
X126016Y142626D01*
X123124Y143824D01*
X120020Y144233D01*
X116916Y143824D01*
X114024Y142626D01*
X111540Y140720D01*
X109634Y138236D01*
X108436Y135344D01*
X108027Y132240D01*
X108436Y129136D01*
X109634Y126244D01*
X111540Y123760D01*
X111784Y123573D01*
X112243Y123098D01*
X112754Y122503D01*
X113189Y121926D01*
X113551Y121368D01*
X113845Y120831D01*
X114075Y120313D01*
X114247Y119814D01*
X114365Y119329D01*
X114412Y119005D01*
Y104489D01*
X85796Y75873D01*
X85634Y75747D01*
X85278Y75514D01*
X84904Y75314D01*
X84508Y75144D01*
X84085Y75002D01*
X83628Y74890D01*
X83135Y74808D01*
X82601Y74759D01*
X82142Y74749D01*
X81920Y74778D01*
X79148Y74413D01*
X76564Y73343D01*
X74346Y71641D01*
X72643Y69422D01*
X71573Y66839D01*
X71208Y64066D01*
X71573Y61294D01*
X72643Y58711D01*
X74346Y56492D01*
X74523Y56356D01*
X74841Y56024D01*
X75184Y55612D01*
X75475Y55205D01*
X75718Y54803D01*
X75917Y54403D01*
X76076Y54003D01*
X76199Y53597D01*
X76287Y53181D01*
X76312Y52977D01*
Y34920D01*
X76739Y32774D01*
X77955Y30955D01*
X97635Y11275D01*
X99454Y10059D01*
X101600Y9632D01*
X289814D01*
X291960Y10059D01*
X293779Y11275D01*
X304517Y22013D01*
X305656Y21451D01*
X305507Y20320D01*
X305916Y17216D01*
X307114Y14324D01*
X309020Y11840D01*
X311504Y9934D01*
X314396Y8736D01*
X317500Y8327D01*
X320604Y8736D01*
X323496Y9934D01*
X325980Y11840D01*
X327886Y14324D01*
X329084Y17216D01*
X329493Y20320D01*
X329084Y23424D01*
X327886Y26316D01*
X325980Y28800D01*
X323496Y30706D01*
X322250Y31222D01*
X322502Y32492D01*
X360934D01*
X363080Y32919D01*
X364899Y34135D01*
X369948Y39183D01*
X370894Y40066D01*
X371654Y40682D01*
X371991Y40920D01*
X382744D01*
X383314Y40539D01*
X385460Y40112D01*
X398245D01*
X398569Y40065D01*
X399054Y39947D01*
X399553Y39775D01*
X400070Y39545D01*
X400608Y39251D01*
X401166Y38889D01*
X401743Y38454D01*
X402338Y37943D01*
X402813Y37484D01*
X403000Y37240D01*
X405484Y35334D01*
X408376Y34136D01*
X411480Y33727D01*
X414584Y34136D01*
X417476Y35334D01*
X419960Y37240D01*
X421866Y39724D01*
X423064Y42616D01*
X423473Y45720D01*
X423064Y48824D01*
X421866Y51716D01*
X419960Y54200D01*
X419716Y54387D01*
X419257Y54862D01*
X418746Y55457D01*
X418311Y56034D01*
X417949Y56592D01*
X417655Y57129D01*
X417425Y57647D01*
X417253Y58146D01*
X417135Y58631D01*
X417088Y58955D01*
Y71337D01*
X461165Y115415D01*
X462381Y117234D01*
X462808Y119380D01*
Y157480D01*
X462381Y159626D01*
X461165Y161445D01*
X452006Y170605D01*
X451919Y171265D01*
X452080Y172095D01*
X452124Y172161D01*
X453121Y172926D01*
X454823Y175144D01*
X455893Y177728D01*
X456258Y180500D01*
X455893Y183272D01*
X454823Y185856D01*
X453121Y188074D01*
X450902Y189777D01*
X448319Y190847D01*
X445546Y191212D01*
X442774Y190847D01*
X440191Y189777D01*
X437972Y188074D01*
X436270Y185856D01*
X435200Y183272D01*
X434835Y180500D01*
X435200Y177728D01*
X436270Y175144D01*
X437972Y172926D01*
X438969Y172161D01*
X439013Y172095D01*
X439149Y172004D01*
X439254Y171878D01*
X439448Y171722D01*
X439488Y171679D01*
X439546Y171600D01*
X439619Y171467D01*
X439704Y171268D01*
X439790Y170993D01*
X439868Y170642D01*
X439931Y170212D01*
X439939Y170118D01*
Y169134D01*
X440365Y166988D01*
X441581Y165168D01*
X451592Y155157D01*
Y139622D01*
X450322Y139370D01*
X449806Y140616D01*
X447900Y143100D01*
X445416Y145006D01*
X442524Y146204D01*
X439420Y146613D01*
X436316Y146204D01*
X433424Y145006D01*
X430940Y143100D01*
X430753Y142856D01*
X430278Y142397D01*
X429683Y141886D01*
X429106Y141451D01*
X428548Y141089D01*
X428011Y140795D01*
X427493Y140565D01*
X426994Y140393D01*
X426509Y140275D01*
X426185Y140228D01*
X424715D01*
X424391Y140275D01*
X423906Y140393D01*
X423407Y140565D01*
X422890Y140795D01*
X422352Y141089D01*
X421794Y141451D01*
X421217Y141886D01*
X420622Y142397D01*
X420147Y142856D01*
X419960Y143100D01*
X417476Y145006D01*
X414584Y146204D01*
X411480Y146613D01*
X408376Y146204D01*
X405484Y145006D01*
X403000Y143100D01*
X401094Y140616D01*
X399896Y137724D01*
X399487Y134620D01*
X399896Y131516D01*
X401094Y128624D01*
X403000Y126140D01*
X404792Y124765D01*
Y92723D01*
X394617Y82548D01*
X394137D01*
X393586Y82585D01*
X392820Y82683D01*
X392356Y82778D01*
X391024Y84514D01*
X388806Y86217D01*
X386222Y87287D01*
X383450Y87652D01*
X375830D01*
X373058Y87287D01*
X370474Y86217D01*
X368256Y84514D01*
X366553Y82296D01*
X365483Y79712D01*
X365118Y76940D01*
X365483Y74168D01*
X366553Y71584D01*
X368256Y69366D01*
X370474Y67663D01*
X373058Y66593D01*
X375830Y66228D01*
X383450D01*
X386222Y66593D01*
X388806Y67663D01*
X391024Y69366D01*
X392356Y71102D01*
X392773Y71188D01*
X394285Y71332D01*
X396940D01*
X399086Y71759D01*
X400905Y72975D01*
X414365Y86435D01*
X415581Y88254D01*
X416008Y90400D01*
Y123626D01*
X417476Y124234D01*
X419960Y126140D01*
X420147Y126384D01*
X420622Y126843D01*
X421217Y127354D01*
X421794Y127789D01*
X422352Y128151D01*
X422889Y128445D01*
X423407Y128675D01*
X423906Y128847D01*
X424391Y128965D01*
X424715Y129012D01*
X426185D01*
X426509Y128965D01*
X426994Y128847D01*
X427493Y128675D01*
X428010Y128445D01*
X428548Y128151D01*
X429106Y127789D01*
X429683Y127354D01*
X430278Y126843D01*
X430753Y126384D01*
X430940Y126140D01*
X433424Y124234D01*
X436316Y123036D01*
X439420Y122627D01*
X442524Y123036D01*
X445416Y124234D01*
X447900Y126140D01*
X449806Y128624D01*
X450322Y129870D01*
X451592Y129618D01*
Y121703D01*
X407515Y77625D01*
X406299Y75806D01*
X405872Y73660D01*
Y58955D01*
X405825Y58631D01*
X405707Y58146D01*
X405535Y57647D01*
X405305Y57130D01*
X405011Y56592D01*
X404649Y56034D01*
X404214Y55457D01*
X403703Y54862D01*
X403244Y54387D01*
X403000Y54200D01*
X402813Y53956D01*
X402338Y53497D01*
X401743Y52986D01*
X401166Y52551D01*
X400608Y52189D01*
X400071Y51895D01*
X399553Y51665D01*
X399054Y51493D01*
X398569Y51375D01*
X398245Y51328D01*
X394947D01*
X394617Y51357D01*
X394126Y51438D01*
X394070Y51453D01*
Y62160D01*
X365210D01*
Y50804D01*
X365063Y50547D01*
X364673Y49981D01*
X363556Y48653D01*
X358611Y43708D01*
X318180D01*
X317749Y44978D01*
X318866Y45834D01*
X351146Y78114D01*
X352428Y79785D01*
X353234Y81732D01*
X353509Y83820D01*
Y162560D01*
X353234Y164648D01*
X352428Y166595D01*
X351146Y168266D01*
X331921Y187490D01*
X330986Y188475D01*
X330104Y189537D01*
X329823Y189929D01*
X329609Y190267D01*
X329491Y190490D01*
X329493Y190500D01*
X329084Y193604D01*
X327886Y196496D01*
X325980Y198980D01*
X323496Y200886D01*
X322250Y201402D01*
X322502Y202672D01*
X330200D01*
X332346Y203099D01*
X334165Y204315D01*
X348543Y218692D01*
X365196D01*
X365527Y218663D01*
X366019Y218582D01*
X366070Y218568D01*
Y213680D01*
X394930D01*
Y218568D01*
X394981Y218582D01*
X395473Y218663D01*
X395804Y218692D01*
X397547D01*
X398660Y217422D01*
X398407Y215500D01*
X398816Y212396D01*
X400014Y209504D01*
X401920Y207020D01*
X404404Y205114D01*
X407296Y203916D01*
X410400Y203507D01*
X413504Y203916D01*
X416396Y205114D01*
X418880Y207020D01*
X420786Y209504D01*
X421984Y212396D01*
X422393Y215500D01*
X422140Y217422D01*
X423253Y218692D01*
X430926D01*
X433072Y219119D01*
X434892Y220335D01*
X441670Y227113D01*
X441832Y227240D01*
X442189Y227472D01*
X442562Y227672D01*
X442958Y227842D01*
X443382Y227984D01*
X443838Y228097D01*
X444331Y228178D01*
X444865Y228227D01*
X445325Y228237D01*
X445546Y228208D01*
X448319Y228573D01*
X450902Y229643D01*
X453121Y231346D01*
X454823Y233564D01*
X455893Y236148D01*
X456258Y238920D01*
X455893Y241692D01*
X454823Y244276D01*
X453121Y246494D01*
X450902Y248197D01*
X448319Y249267D01*
X445546Y249632D01*
D02*
G37*
G36*
X580000Y242191D02*
X577259Y241830D01*
X574705Y240772D01*
X572511Y239089D01*
X570828Y236895D01*
X569770Y234341D01*
X569409Y231600D01*
X569770Y228859D01*
X570828Y226305D01*
X572511Y224111D01*
X574705Y222428D01*
X577259Y221370D01*
X580000Y221009D01*
X582741Y221370D01*
X585295Y222428D01*
X587489Y224111D01*
X589172Y226305D01*
X590230Y228859D01*
X590591Y231600D01*
X590230Y234341D01*
X589172Y236895D01*
X587489Y239089D01*
X585295Y240772D01*
X582741Y241830D01*
X580000Y242191D01*
D02*
G37*
G36*
X44766Y218440D02*
X40640D01*
Y214314D01*
X41532Y214491D01*
X43364Y215716D01*
X44589Y217548D01*
X44766Y218440D01*
D02*
G37*
G36*
X38100D02*
X33974D01*
X34151Y217548D01*
X35376Y215716D01*
X37208Y214491D01*
X38100Y214314D01*
Y218440D01*
D02*
G37*
G36*
X529130Y225761D02*
X527416Y225536D01*
X524636Y224384D01*
X522248Y222552D01*
X520416Y220164D01*
X519264Y217384D01*
X519039Y215670D01*
X529130D01*
Y225761D01*
D02*
G37*
G36*
X240030Y221296D02*
X239138Y221119D01*
X237306Y219894D01*
X236081Y218062D01*
X235904Y217170D01*
X240030D01*
Y221296D01*
D02*
G37*
G36*
X531670Y225761D02*
Y215670D01*
X541761D01*
X541536Y217384D01*
X540384Y220164D01*
X538552Y222552D01*
X536164Y224384D01*
X533384Y225536D01*
X531670Y225761D01*
D02*
G37*
G36*
X227330Y272096D02*
X226438Y271919D01*
X224606Y270694D01*
X223381Y268862D01*
X223204Y267970D01*
X227330D01*
Y272096D01*
D02*
G37*
G36*
X214630Y259396D02*
X213738Y259219D01*
X211906Y257994D01*
X210681Y256162D01*
X210504Y255270D01*
X214630D01*
Y259396D01*
D02*
G37*
G36*
X394390Y273830D02*
X381770D01*
Y264852D01*
X384310D01*
X386962Y265201D01*
X389434Y266225D01*
X391556Y267854D01*
X393185Y269976D01*
X394208Y272448D01*
X394390Y273830D01*
D02*
G37*
G36*
X229870Y272096D02*
Y267970D01*
X233996D01*
X233819Y268862D01*
X232594Y270694D01*
X230762Y271919D01*
X229870Y272096D01*
D02*
G37*
G36*
X163830Y259396D02*
X162938Y259219D01*
X161106Y257994D01*
X159881Y256162D01*
X159704Y255270D01*
X163830D01*
Y259396D01*
D02*
G37*
G36*
X166370D02*
Y255270D01*
X170496D01*
X170319Y256162D01*
X169094Y257994D01*
X167262Y259219D01*
X166370Y259396D01*
D02*
G37*
G36*
X217170D02*
Y255270D01*
X221296D01*
X221119Y256162D01*
X219894Y257994D01*
X218062Y259219D01*
X217170Y259396D01*
D02*
G37*
G36*
X341630D02*
X340738Y259219D01*
X338906Y257994D01*
X337681Y256162D01*
X337504Y255270D01*
X341630D01*
Y259396D01*
D02*
G37*
G36*
X344170D02*
Y255270D01*
X348296D01*
X348119Y256162D01*
X346894Y257994D01*
X345062Y259219D01*
X344170Y259396D01*
D02*
G37*
G36*
X379230Y273830D02*
X366609D01*
X366791Y272448D01*
X367815Y269976D01*
X369444Y267854D01*
X371566Y266225D01*
X374038Y265201D01*
X376690Y264852D01*
X379230D01*
Y273830D01*
D02*
G37*
G36*
X233996Y265430D02*
X229870D01*
Y261304D01*
X230762Y261481D01*
X232594Y262706D01*
X233819Y264538D01*
X233996Y265430D01*
D02*
G37*
G36*
X227330D02*
X223204D01*
X223381Y264538D01*
X224606Y262706D01*
X226438Y261481D01*
X227330Y261304D01*
Y265430D01*
D02*
G37*
G36*
X56196Y278130D02*
X52070D01*
Y274004D01*
X52962Y274181D01*
X54794Y275406D01*
X56019Y277238D01*
X56196Y278130D01*
D02*
G37*
G36*
X106996D02*
X102870D01*
Y274004D01*
X103762Y274181D01*
X105594Y275406D01*
X106819Y277238D01*
X106996Y278130D01*
D02*
G37*
G36*
X100330D02*
X96204D01*
X96381Y277238D01*
X97606Y275406D01*
X99438Y274181D01*
X100330Y274004D01*
Y278130D01*
D02*
G37*
G36*
X49530D02*
X45404D01*
X45581Y277238D01*
X46806Y275406D01*
X48638Y274181D01*
X49530Y274004D01*
Y278130D01*
D02*
G37*
G36*
X140970Y259396D02*
Y255270D01*
X145096D01*
X144919Y256162D01*
X143694Y257994D01*
X141862Y259219D01*
X140970Y259396D01*
D02*
G37*
G36*
X81596Y278130D02*
X77470D01*
Y274004D01*
X78362Y274181D01*
X80194Y275406D01*
X81419Y277238D01*
X81596Y278130D01*
D02*
G37*
G36*
X74930D02*
X70804D01*
X70981Y277238D01*
X72206Y275406D01*
X74038Y274181D01*
X74930Y274004D01*
Y278130D01*
D02*
G37*
%LPD*%
G36*
X179212Y229016D02*
X178693Y228445D01*
X178230Y227824D01*
X177822Y227153D01*
X177470Y226432D01*
X177174Y225662D01*
X176934Y224843D01*
X176749Y223974D01*
X176620Y223055D01*
X176547Y222087D01*
X176530Y221069D01*
X167729Y229869D01*
X168747Y229887D01*
X169715Y229960D01*
X170634Y230089D01*
X171503Y230274D01*
X172322Y230514D01*
X173092Y230810D01*
X173813Y231162D01*
X174484Y231570D01*
X175105Y232033D01*
X175676Y232552D01*
X179212Y229016D01*
D02*
G37*
G36*
X422006Y221800D02*
X417461Y220901D01*
X410400Y223350D01*
X403339Y220901D01*
X398794Y221800D01*
X403666Y226662D01*
X403873Y226558D01*
X404385Y226370D01*
X406144Y225833D01*
X410249Y224739D01*
X416996Y226800D01*
X422006Y221800D01*
D02*
G37*
G36*
X277497Y231694D02*
X277609Y230927D01*
X277795Y230165D01*
X278056Y229406D01*
X278391Y228652D01*
X278800Y227903D01*
X279284Y227158D01*
X279843Y226417D01*
X280476Y225681D01*
X281183Y224949D01*
X268737D01*
X269444Y225681D01*
X270077Y226417D01*
X270636Y227158D01*
X271120Y227903D01*
X271529Y228652D01*
X271864Y229406D01*
X272125Y230165D01*
X272311Y230927D01*
X272423Y231694D01*
X272460Y232465D01*
X277460D01*
X277497Y231694D01*
D02*
G37*
G36*
X450992Y53756D02*
X450473Y53185D01*
X450010Y52564D01*
X449602Y51893D01*
X449250Y51172D01*
X448954Y50402D01*
X448714Y49583D01*
X448529Y48714D01*
X448400Y47795D01*
X448327Y46827D01*
X448310Y45809D01*
X439509Y54609D01*
X440527Y54627D01*
X441495Y54700D01*
X442414Y54829D01*
X443283Y55014D01*
X444102Y55254D01*
X444872Y55550D01*
X445593Y55902D01*
X446264Y56310D01*
X446885Y56773D01*
X447456Y57292D01*
X450992Y53756D01*
D02*
G37*
G36*
X403666Y226662D02*
X403605Y226693D01*
X403582Y226773D01*
X403804Y226800D01*
X403666Y226662D01*
D02*
G37*
G36*
X206940Y55198D02*
X206405Y54605D01*
X205945Y53973D01*
X205560Y53301D01*
X205250Y52589D01*
X205016Y51837D01*
X204855Y51045D01*
X204771Y50212D01*
X204761Y49340D01*
X204826Y48428D01*
X204965Y47476D01*
X194799Y54656D01*
X195851Y54848D01*
X197785Y55333D01*
X198667Y55626D01*
X199492Y55953D01*
X200261Y56315D01*
X200973Y56709D01*
X201628Y57138D01*
X202226Y57601D01*
X202768Y58097D01*
X206940Y55198D01*
D02*
G37*
G36*
X235732Y53916D02*
X235213Y53345D01*
X234750Y52723D01*
X234342Y52053D01*
X233990Y51332D01*
X233694Y50562D01*
X233454Y49743D01*
X233269Y48874D01*
X233140Y47955D01*
X233067Y46987D01*
X233050Y45969D01*
X224249Y54770D01*
X225267Y54787D01*
X226235Y54860D01*
X227154Y54989D01*
X228023Y55174D01*
X228842Y55414D01*
X229612Y55710D01*
X230333Y56062D01*
X231003Y56470D01*
X231625Y56933D01*
X232196Y57452D01*
X235732Y53916D01*
D02*
G37*
G36*
X25903Y236327D02*
X26467Y235860D01*
X27048Y235448D01*
X27644Y235090D01*
X28258Y234788D01*
X28887Y234540D01*
X29534Y234347D01*
X30196Y234210D01*
X30875Y234128D01*
X31571Y234100D01*
Y229100D01*
X30875Y229072D01*
X30196Y228990D01*
X29534Y228853D01*
X28887Y228660D01*
X28258Y228412D01*
X27644Y228110D01*
X27048Y227752D01*
X26467Y227340D01*
X25903Y226873D01*
X25356Y226350D01*
Y236850D01*
X25903Y236327D01*
D02*
G37*
G36*
X391061Y50245D02*
X391214Y49820D01*
X391466Y49445D01*
X391819Y49120D01*
X392272Y48845D01*
X392825Y48620D01*
X393479Y48445D01*
X394232Y48320D01*
X395086Y48245D01*
X396040Y48220D01*
Y43220D01*
X391040Y43951D01*
X391009Y50720D01*
X391061Y50245D01*
D02*
G37*
G36*
X405131Y39497D02*
X404399Y40204D01*
X403663Y40837D01*
X402922Y41396D01*
X402177Y41880D01*
X401427Y42289D01*
X400674Y42624D01*
X399916Y42885D01*
X399153Y43071D01*
X398386Y43183D01*
X397615Y43220D01*
Y48220D01*
X398386Y48257D01*
X399153Y48369D01*
X399916Y48555D01*
X400674Y48816D01*
X401427Y49151D01*
X402177Y49560D01*
X402922Y50044D01*
X403663Y50603D01*
X404399Y51236D01*
X405131Y51943D01*
Y39497D01*
D02*
G37*
G36*
X373856Y43981D02*
X373535Y44326D01*
X373128Y44515D01*
X372635Y44548D01*
X372057Y44426D01*
X371393Y44147D01*
X370643Y43712D01*
X369807Y43122D01*
X368885Y42375D01*
X366785Y40415D01*
X364705Y45406D01*
X365633Y46369D01*
X367107Y48124D01*
X367654Y48917D01*
X368074Y49652D01*
X368368Y50331D01*
X368534Y50953D01*
X368573Y51518D01*
X368485Y52026D01*
X368271Y52477D01*
X373856Y43981D01*
D02*
G37*
G36*
X25903Y210928D02*
X26467Y210460D01*
X27048Y210047D01*
X27644Y209690D01*
X28258Y209387D01*
X28887Y209140D01*
X29534Y208948D01*
X30196Y208810D01*
X30875Y208727D01*
X31571Y208700D01*
Y203700D01*
X30875Y203673D01*
X30196Y203590D01*
X29534Y203452D01*
X28887Y203260D01*
X28258Y203013D01*
X27644Y202710D01*
X27048Y202353D01*
X26467Y201940D01*
X25903Y201472D01*
X25356Y200950D01*
Y211450D01*
X25903Y210928D01*
D02*
G37*
G36*
X269897Y113198D02*
X269966Y112448D01*
X270085Y111728D01*
X270256Y111036D01*
X270478Y110374D01*
X270750Y109740D01*
X271074Y109136D01*
X271448Y108561D01*
X271874Y108015D01*
X272351Y107499D01*
X268815Y103963D01*
X268298Y104440D01*
X267752Y104865D01*
X267178Y105240D01*
X266573Y105563D01*
X265940Y105836D01*
X265278Y106058D01*
X264586Y106228D01*
X263865Y106348D01*
X263115Y106416D01*
X262336Y106434D01*
X269880Y113977D01*
X269897Y113198D01*
D02*
G37*
G36*
X326423Y190049D02*
X326529Y189649D01*
X326708Y189211D01*
X326960Y188734D01*
X327285Y188219D01*
X327683Y187665D01*
X328698Y186442D01*
X330005Y185066D01*
X322934Y177995D01*
X322227Y178685D01*
X320335Y180317D01*
X319781Y180715D01*
X319266Y181040D01*
X318789Y181292D01*
X318351Y181471D01*
X317951Y181577D01*
X317589Y181611D01*
X326390Y190411D01*
X326423Y190049D01*
D02*
G37*
G36*
X25903Y185527D02*
X26467Y185060D01*
X27048Y184648D01*
X27644Y184290D01*
X28258Y183988D01*
X28887Y183740D01*
X29534Y183547D01*
X30196Y183410D01*
X30875Y183328D01*
X31571Y183300D01*
Y178300D01*
X30875Y178272D01*
X30196Y178190D01*
X29534Y178053D01*
X28887Y177860D01*
X28258Y177612D01*
X27644Y177310D01*
X27048Y176952D01*
X26467Y176540D01*
X25903Y176073D01*
X25356Y175550D01*
Y186050D01*
X25903Y185527D01*
D02*
G37*
G36*
X161291Y214757D02*
X160559Y215464D01*
X159823Y216097D01*
X159082Y216656D01*
X158337Y217140D01*
X157587Y217549D01*
X156834Y217884D01*
X156075Y218145D01*
X155313Y218331D01*
X154546Y218443D01*
X153775Y218480D01*
Y223480D01*
X154546Y223517D01*
X155313Y223629D01*
X156075Y223815D01*
X156834Y224076D01*
X157587Y224411D01*
X158337Y224820D01*
X159082Y225304D01*
X159823Y225863D01*
X160559Y226496D01*
X161291Y227203D01*
Y214757D01*
D02*
G37*
G36*
X294799Y270119D02*
X294734Y270591D01*
X294540Y271012D01*
X294215Y271385D01*
X293762Y271707D01*
X293178Y271980D01*
X292465Y272203D01*
X291623Y272377D01*
X290651Y272501D01*
X289549Y272575D01*
X288317Y272600D01*
Y277600D01*
X289549Y277625D01*
X291623Y277823D01*
X292465Y277997D01*
X293178Y278220D01*
X293762Y278493D01*
X294215Y278815D01*
X294540Y279188D01*
X294734Y279609D01*
X294799Y280081D01*
Y270119D01*
D02*
G37*
G36*
X425303Y270761D02*
X421768Y267226D01*
X412929Y265458D01*
X413565Y266165D01*
X414060Y266872D01*
X414414Y267579D01*
X414626Y268286D01*
X414697Y268994D01*
X414626Y269701D01*
X414414Y270408D01*
X414060Y271115D01*
X413565Y271822D01*
X412929Y272529D01*
X416465Y276065D01*
X417172Y275428D01*
X417879Y274933D01*
X418586Y274580D01*
X419293Y274368D01*
X420000Y274297D01*
X420707Y274368D01*
X421414Y274580D01*
X422121Y274933D01*
X422828Y275428D01*
X423535Y276065D01*
X425303Y270761D01*
D02*
G37*
G36*
X508116Y118063D02*
X508267Y117638D01*
X508519Y117263D01*
X508871Y116938D01*
X509324Y116663D01*
X509877Y116438D01*
X510531Y116263D01*
X511286Y116138D01*
X512141Y116063D01*
X513097Y116038D01*
Y111038D01*
X512141Y111013D01*
X511286Y110938D01*
X510531Y110813D01*
X509877Y110638D01*
X509324Y110413D01*
X508871Y110138D01*
X508519Y109813D01*
X508267Y109438D01*
X508116Y109013D01*
X508066Y108538D01*
Y118538D01*
X508116Y118063D01*
D02*
G37*
G36*
X262184Y106434D02*
X261405Y106416D01*
X260655Y106348D01*
X259934Y106228D01*
X259242Y106058D01*
X258580Y105836D01*
X257947Y105563D01*
X257342Y105240D01*
X256768Y104865D01*
X256222Y104440D01*
X255705Y103963D01*
X252169Y107499D01*
X252646Y108015D01*
X253072Y108561D01*
X253446Y109136D01*
X253770Y109740D01*
X254042Y110374D01*
X254264Y111036D01*
X254435Y111728D01*
X254554Y112448D01*
X254623Y113198D01*
X254640Y113977D01*
X262184Y106434D01*
D02*
G37*
G36*
X167571Y117909D02*
X167094Y117392D01*
X166668Y116846D01*
X166294Y116271D01*
X165970Y115667D01*
X165697Y115034D01*
X165476Y114371D01*
X165305Y113680D01*
X165186Y112959D01*
X165117Y112209D01*
X165100Y111430D01*
X157556Y118973D01*
X158335Y118991D01*
X159085Y119059D01*
X159806Y119179D01*
X160497Y119349D01*
X161160Y119571D01*
X161793Y119844D01*
X162397Y120167D01*
X162973Y120542D01*
X163518Y120968D01*
X164035Y121444D01*
X167571Y117909D01*
D02*
G37*
G36*
X369131Y219300D02*
X369081Y219775D01*
X368930Y220200D01*
X368678Y220575D01*
X368326Y220900D01*
X367873Y221175D01*
X367320Y221400D01*
X366666Y221575D01*
X365911Y221700D01*
X365056Y221775D01*
X364100Y221800D01*
Y226800D01*
X365056Y226825D01*
X365911Y226900D01*
X366666Y227025D01*
X367320Y227200D01*
X367873Y227425D01*
X368326Y227700D01*
X368678Y228025D01*
X368930Y228400D01*
X369081Y228825D01*
X369131Y229300D01*
Y219300D01*
D02*
G37*
G36*
X391919Y228825D02*
X392070Y228400D01*
X392322Y228025D01*
X392674Y227700D01*
X393127Y227425D01*
X393680Y227200D01*
X394334Y227025D01*
X395089Y226900D01*
X395944Y226825D01*
X396899Y226800D01*
Y221800D01*
X395944Y221775D01*
X395089Y221700D01*
X394334Y221575D01*
X393680Y221400D01*
X393127Y221175D01*
X392674Y220900D01*
X392322Y220575D01*
X392070Y220200D01*
X391919Y219775D01*
X391869Y219300D01*
Y229300D01*
X391919Y228825D01*
D02*
G37*
G36*
X239581Y165304D02*
X240057Y164914D01*
X240545Y164571D01*
X241045Y164275D01*
X241556Y164024D01*
X242078Y163821D01*
X242612Y163664D01*
X243158Y163553D01*
X243715Y163489D01*
X244283Y163472D01*
X237848Y157037D01*
X237831Y157605D01*
X237767Y158162D01*
X237656Y158708D01*
X237499Y159242D01*
X237296Y159764D01*
X237045Y160275D01*
X236749Y160775D01*
X236406Y161263D01*
X236016Y161739D01*
X235580Y162205D01*
X239115Y165740D01*
X239581Y165304D01*
D02*
G37*
G36*
X449562Y173971D02*
X449244Y173634D01*
X448963Y173247D01*
X448720Y172809D01*
X448514Y172322D01*
X448346Y171784D01*
X448215Y171197D01*
X448121Y170559D01*
X448065Y169872D01*
X448046Y169134D01*
X443046D01*
X443028Y169872D01*
X442972Y170559D01*
X442878Y171197D01*
X442747Y171784D01*
X442579Y172322D01*
X442373Y172809D01*
X442130Y173247D01*
X441849Y173634D01*
X441531Y173971D01*
X441176Y174258D01*
X449917D01*
X449562Y173971D01*
D02*
G37*
G36*
X83810Y125304D02*
X83900Y124616D01*
X84050Y123951D01*
X84260Y123308D01*
X84529Y122687D01*
X84859Y122090D01*
X85249Y121514D01*
X85699Y120962D01*
X86208Y120432D01*
X86778Y119924D01*
X76148Y119028D01*
X76648Y119643D01*
X77095Y120267D01*
X77490Y120900D01*
X77832Y121541D01*
X78122Y122190D01*
X78359Y122849D01*
X78543Y123516D01*
X78675Y124191D01*
X78754Y124876D01*
X78780Y125569D01*
X83780Y126015D01*
X83810Y125304D01*
D02*
G37*
G36*
X125536Y125159D02*
X124903Y124423D01*
X124344Y123682D01*
X123860Y122937D01*
X123451Y122188D01*
X123116Y121434D01*
X122855Y120675D01*
X122669Y119913D01*
X122557Y119146D01*
X122520Y118375D01*
X117520D01*
X117483Y119146D01*
X117371Y119913D01*
X117185Y120675D01*
X116924Y121434D01*
X116589Y122188D01*
X116180Y122937D01*
X115696Y123682D01*
X115137Y124423D01*
X114504Y125159D01*
X113797Y125891D01*
X126243D01*
X125536Y125159D01*
D02*
G37*
G36*
X203301Y140296D02*
X204037Y139663D01*
X204778Y139104D01*
X205523Y138620D01*
X206273Y138211D01*
X207026Y137876D01*
X207785Y137615D01*
X208547Y137429D01*
X209314Y137317D01*
X210085Y137280D01*
Y132280D01*
X209314Y132243D01*
X208547Y132131D01*
X207785Y131945D01*
X207026Y131684D01*
X206273Y131349D01*
X205523Y130940D01*
X204778Y130456D01*
X204037Y129897D01*
X203301Y129264D01*
X202569Y128557D01*
Y141003D01*
X203301Y140296D01*
D02*
G37*
G36*
X201422Y288795D02*
X200940Y288216D01*
X200515Y287622D01*
X200147Y287012D01*
X199835Y286387D01*
X199580Y285747D01*
X199381Y285091D01*
X199240Y284419D01*
X199155Y283732D01*
X199126Y283030D01*
X194126D01*
X194098Y283732D01*
X194013Y284419D01*
X193871Y285091D01*
X193673Y285747D01*
X193418Y286387D01*
X193106Y287012D01*
X192738Y287622D01*
X192313Y288216D01*
X191831Y288795D01*
X191292Y289358D01*
X201960D01*
X201422Y288795D01*
D02*
G37*
G36*
X161291Y303657D02*
X160559Y304364D01*
X159823Y304997D01*
X159082Y305556D01*
X158337Y306040D01*
X157587Y306449D01*
X156834Y306784D01*
X156075Y307045D01*
X155313Y307231D01*
X154546Y307343D01*
X153775Y307380D01*
Y312380D01*
X154546Y312417D01*
X155313Y312529D01*
X156075Y312715D01*
X156834Y312976D01*
X157587Y313311D01*
X158337Y313720D01*
X159082Y314204D01*
X159823Y314763D01*
X160559Y315396D01*
X161291Y316103D01*
Y303657D01*
D02*
G37*
G36*
X385550Y315519D02*
X385948Y311324D01*
X386296Y309620D01*
X386744Y308178D01*
X387291Y306999D01*
X387938Y306081D01*
X388685Y305426D01*
X389531Y305033D01*
X390476Y304902D01*
X370523D01*
X371469Y305033D01*
X372315Y305426D01*
X373061Y306081D01*
X373708Y306999D01*
X374256Y308178D01*
X374704Y309620D01*
X375052Y311324D01*
X375301Y313290D01*
X375450Y315519D01*
X375500Y318009D01*
X385500D01*
X385550Y315519D01*
D02*
G37*
G36*
X484402Y74521D02*
X484337Y74993D01*
X484142Y75414D01*
X483819Y75786D01*
X483365Y76109D01*
X482781Y76382D01*
X482068Y76605D01*
X481226Y76779D01*
X480254Y76903D01*
X479152Y76977D01*
X477920Y77002D01*
Y82002D01*
X479152Y82027D01*
X481226Y82225D01*
X482068Y82399D01*
X482781Y82622D01*
X483365Y82895D01*
X483819Y83217D01*
X484142Y83590D01*
X484337Y84011D01*
X484402Y84483D01*
Y74521D01*
D02*
G37*
G36*
X189871Y128557D02*
X189139Y129264D01*
X188403Y129897D01*
X187662Y130456D01*
X186917Y130940D01*
X186168Y131349D01*
X185414Y131684D01*
X184655Y131945D01*
X183893Y132131D01*
X183126Y132243D01*
X182355Y132280D01*
Y137280D01*
X183126Y137317D01*
X183893Y137429D01*
X184655Y137615D01*
X185414Y137876D01*
X186168Y138211D01*
X186917Y138620D01*
X187662Y139104D01*
X188403Y139663D01*
X189139Y140296D01*
X189871Y141003D01*
Y128557D01*
D02*
G37*
G36*
X433071Y128397D02*
X432339Y129104D01*
X431603Y129737D01*
X430862Y130296D01*
X430117Y130780D01*
X429367Y131189D01*
X428614Y131524D01*
X427855Y131785D01*
X427093Y131971D01*
X426326Y132083D01*
X425555Y132120D01*
Y137120D01*
X426326Y137157D01*
X427093Y137269D01*
X427855Y137455D01*
X428614Y137716D01*
X429367Y138051D01*
X430117Y138460D01*
X430862Y138944D01*
X431603Y139503D01*
X432339Y140136D01*
X433071Y140843D01*
Y128397D01*
D02*
G37*
G36*
X389206Y81449D02*
X389400Y81028D01*
X389725Y80655D01*
X390178Y80333D01*
X390762Y80060D01*
X391474Y79837D01*
X392317Y79663D01*
X393289Y79539D01*
X394391Y79465D01*
X395623Y79440D01*
Y74440D01*
X394391Y74415D01*
X392317Y74217D01*
X391474Y74043D01*
X390762Y73820D01*
X390178Y73547D01*
X389725Y73225D01*
X389400Y72852D01*
X389206Y72431D01*
X389141Y71959D01*
Y81921D01*
X389206Y81449D01*
D02*
G37*
G36*
X293939Y71959D02*
X293874Y72431D01*
X293680Y72852D01*
X293355Y73225D01*
X292902Y73547D01*
X292318Y73820D01*
X291605Y74043D01*
X290763Y74217D01*
X289791Y74341D01*
X288689Y74415D01*
X287457Y74440D01*
Y79440D01*
X288689Y79465D01*
X290763Y79663D01*
X291605Y79837D01*
X292318Y80060D01*
X292902Y80333D01*
X293355Y80655D01*
X293680Y81028D01*
X293874Y81449D01*
X293939Y81921D01*
Y71959D01*
D02*
G37*
G36*
X445330Y286780D02*
X444551Y286763D01*
X443801Y286694D01*
X443080Y286575D01*
X442389Y286404D01*
X441726Y286182D01*
X441093Y285910D01*
X440489Y285586D01*
X439914Y285212D01*
X439368Y284786D01*
X438851Y284309D01*
X435316Y287845D01*
X435792Y288362D01*
X436218Y288908D01*
X436593Y289482D01*
X436916Y290087D01*
X437189Y290720D01*
X437411Y291382D01*
X437581Y292074D01*
X437701Y292795D01*
X437769Y293545D01*
X437787Y294324D01*
X445330Y286780D01*
D02*
G37*
G36*
X374291Y148312D02*
X374083Y147954D01*
X373899Y147518D01*
X373740Y147002D01*
X373606Y146408D01*
X373496Y145735D01*
X373349Y144153D01*
X373300Y142255D01*
X372198D01*
X373474Y140994D01*
X378844Y136222D01*
X379532Y135756D01*
X380091Y135453D01*
X380522Y135313D01*
X380823Y135336D01*
X368610Y129980D01*
X368787Y130130D01*
X368839Y130371D01*
X368766Y130701D01*
X368568Y131122D01*
X368246Y131633D01*
X367799Y132235D01*
X366531Y133709D01*
X364765Y135545D01*
X371822Y142255D01*
X363300D01*
X363288Y143243D01*
X363104Y145735D01*
X362994Y146408D01*
X362860Y147002D01*
X362701Y147518D01*
X362517Y147954D01*
X362309Y148312D01*
X362077Y148591D01*
X374523D01*
X374291Y148312D01*
D02*
G37*
G36*
X137091Y300789D02*
X136614Y300272D01*
X136188Y299726D01*
X135814Y299151D01*
X135490Y298547D01*
X135218Y297914D01*
X134996Y297251D01*
X134825Y296560D01*
X134706Y295839D01*
X134637Y295089D01*
X134620Y294310D01*
X127076Y301853D01*
X127855Y301871D01*
X128605Y301939D01*
X129326Y302059D01*
X130017Y302229D01*
X130680Y302451D01*
X131313Y302724D01*
X131917Y303047D01*
X132493Y303422D01*
X133038Y303848D01*
X133555Y304324D01*
X137091Y300789D01*
D02*
G37*
G36*
X524051Y297077D02*
X523319Y297784D01*
X522583Y298417D01*
X521842Y298976D01*
X521097Y299460D01*
X520348Y299869D01*
X519594Y300204D01*
X518835Y300465D01*
X518073Y300651D01*
X517306Y300763D01*
X516535Y300800D01*
Y305800D01*
X517306Y305837D01*
X518073Y305949D01*
X518835Y306135D01*
X519594Y306396D01*
X520348Y306731D01*
X521097Y307140D01*
X521842Y307624D01*
X522583Y308183D01*
X523319Y308816D01*
X524051Y309523D01*
Y297077D01*
D02*
G37*
G36*
X505484Y300955D02*
X505008Y300438D01*
X504582Y299893D01*
X504207Y299317D01*
X503884Y298713D01*
X503611Y298080D01*
X503390Y297418D01*
X503219Y296726D01*
X503099Y296005D01*
X503031Y295255D01*
X503013Y294476D01*
X495470Y302020D01*
X496249Y302037D01*
X496999Y302106D01*
X497719Y302225D01*
X498411Y302396D01*
X499074Y302617D01*
X499707Y302890D01*
X500311Y303214D01*
X500886Y303588D01*
X501432Y304014D01*
X501949Y304491D01*
X505484Y300955D01*
D02*
G37*
G36*
X280476Y300419D02*
X279843Y299683D01*
X279284Y298942D01*
X278800Y298197D01*
X278391Y297447D01*
X278056Y296694D01*
X277795Y295935D01*
X277609Y295173D01*
X277497Y294406D01*
X277460Y293635D01*
X272460D01*
X272423Y294406D01*
X272311Y295173D01*
X272125Y295935D01*
X271864Y296694D01*
X271529Y297447D01*
X271120Y298197D01*
X270636Y298942D01*
X270077Y299683D01*
X269444Y300419D01*
X268737Y301151D01*
X281183D01*
X280476Y300419D01*
D02*
G37*
G36*
X86796Y150399D02*
X86163Y149663D01*
X85604Y148922D01*
X85120Y148177D01*
X84711Y147428D01*
X84376Y146674D01*
X84115Y145915D01*
X83929Y145153D01*
X83817Y144386D01*
X83780Y143615D01*
X78780D01*
X78743Y144386D01*
X78631Y145153D01*
X78445Y145915D01*
X78184Y146674D01*
X77849Y147428D01*
X77440Y148177D01*
X76956Y148922D01*
X76397Y149663D01*
X75764Y150399D01*
X75057Y151131D01*
X87503D01*
X86796Y150399D01*
D02*
G37*
G36*
X254251Y293945D02*
X254319Y293195D01*
X254439Y292474D01*
X254610Y291782D01*
X254831Y291120D01*
X255104Y290487D01*
X255427Y289883D01*
X255802Y289307D01*
X256227Y288762D01*
X256704Y288245D01*
X253169Y284709D01*
X252652Y285186D01*
X252106Y285612D01*
X251531Y285986D01*
X250927Y286310D01*
X250294Y286583D01*
X249631Y286804D01*
X248939Y286975D01*
X248219Y287094D01*
X247469Y287163D01*
X246690Y287180D01*
X254233Y294724D01*
X254251Y293945D01*
D02*
G37*
G36*
X415916Y297319D02*
X415283Y296583D01*
X414724Y295842D01*
X414240Y295097D01*
X413831Y294347D01*
X413496Y293594D01*
X413235Y292836D01*
X413049Y292073D01*
X412937Y291306D01*
X412900Y290535D01*
X407900D01*
X407863Y291306D01*
X407751Y292073D01*
X407565Y292836D01*
X407304Y293594D01*
X406969Y294347D01*
X406560Y295097D01*
X406076Y295842D01*
X405517Y296583D01*
X404884Y297319D01*
X404177Y298051D01*
X416623D01*
X415916Y297319D01*
D02*
G37*
G36*
X217811Y128557D02*
X217079Y129264D01*
X216343Y129897D01*
X215602Y130456D01*
X214857Y130940D01*
X214107Y131349D01*
X213354Y131684D01*
X212596Y131945D01*
X211833Y132131D01*
X211066Y132243D01*
X210295Y132280D01*
Y137280D01*
X211066Y137317D01*
X211833Y137429D01*
X212596Y137615D01*
X213354Y137876D01*
X214107Y138211D01*
X214857Y138620D01*
X215602Y139104D01*
X216343Y139663D01*
X217079Y140296D01*
X217811Y141003D01*
Y128557D01*
D02*
G37*
G36*
X418561Y140136D02*
X419297Y139503D01*
X420038Y138944D01*
X420783Y138460D01*
X421533Y138051D01*
X422286Y137716D01*
X423045Y137455D01*
X423807Y137269D01*
X424574Y137157D01*
X425345Y137120D01*
Y132120D01*
X424574Y132083D01*
X423807Y131971D01*
X423045Y131785D01*
X422286Y131524D01*
X421533Y131189D01*
X420783Y130780D01*
X420038Y130296D01*
X419297Y129737D01*
X418561Y129104D01*
X417829Y128397D01*
Y140843D01*
X418561Y140136D01*
D02*
G37*
G36*
X86715Y58061D02*
X86234Y57483D01*
X85809Y56888D01*
X85440Y56279D01*
X85128Y55654D01*
X84873Y55013D01*
X84675Y54357D01*
X84533Y53685D01*
X84448Y52998D01*
X84420Y52296D01*
X79420D01*
X79392Y52998D01*
X79307Y53685D01*
X79165Y54357D01*
X78966Y55013D01*
X78712Y55654D01*
X78400Y56279D01*
X78031Y56888D01*
X77606Y57483D01*
X77124Y58061D01*
X76586Y58625D01*
X87254D01*
X86715Y58061D01*
D02*
G37*
G36*
X89801Y243561D02*
X89711Y242663D01*
X89700Y241802D01*
X89767Y240980D01*
X89913Y240195D01*
X90137Y239448D01*
X90439Y238739D01*
X90820Y238068D01*
X91279Y237435D01*
X91816Y236840D01*
X87517Y234067D01*
X86983Y234558D01*
X86391Y235019D01*
X85741Y235452D01*
X85033Y235854D01*
X84267Y236228D01*
X83444Y236572D01*
X82562Y236887D01*
X80626Y237429D01*
X79571Y237656D01*
X89968Y244497D01*
X89801Y243561D01*
D02*
G37*
G36*
X374928Y160931D02*
X375286Y160723D01*
X375722Y160539D01*
X376238Y160380D01*
X376832Y160246D01*
X377505Y160136D01*
X379087Y159989D01*
X380985Y159940D01*
Y149940D01*
X379997Y149928D01*
X377505Y149744D01*
X376832Y149634D01*
X376238Y149500D01*
X375722Y149341D01*
X375286Y149157D01*
X374928Y148949D01*
X374649Y148717D01*
Y161163D01*
X374928Y160931D01*
D02*
G37*
G36*
X325317Y56626D02*
X322593Y53925D01*
X313487Y45974D01*
X313177Y46024D01*
X313211Y46467D01*
X313591Y47303D01*
X306644Y59136D01*
X307237Y58391D01*
X307975Y57932D01*
X308857Y57758D01*
X309883Y57869D01*
X311054Y58266D01*
X312370Y58947D01*
X313829Y59914D01*
X315434Y61167D01*
X317183Y62704D01*
X319076Y64527D01*
X325317Y56626D01*
D02*
G37*
G36*
X579602Y122530D02*
X579213Y122813D01*
X578753Y122955D01*
X578223D01*
X577622Y122813D01*
X576950Y122530D01*
X576208Y122106D01*
X575394Y121540D01*
X574510Y120833D01*
X572531Y118995D01*
X568995Y122530D01*
X569985Y123556D01*
X571541Y125394D01*
X572106Y126207D01*
X572531Y126950D01*
X572813Y127622D01*
X572955Y128223D01*
Y128753D01*
X572813Y129213D01*
X572531Y129601D01*
X579602Y122530D01*
D02*
G37*
G36*
X246185Y231143D02*
X245400Y231097D01*
X244646Y231003D01*
X243922Y230862D01*
X243228Y230674D01*
X242564Y230437D01*
X241931Y230153D01*
X241327Y229822D01*
X240753Y229443D01*
X240210Y229016D01*
X239697Y228541D01*
X236020Y231936D01*
X236499Y232456D01*
X236923Y233004D01*
X237293Y233580D01*
X237609Y234184D01*
X237871Y234816D01*
X238078Y235476D01*
X238230Y236164D01*
X238329Y236880D01*
X238373Y237624D01*
X238362Y238396D01*
X246185Y231143D01*
D02*
G37*
G36*
X122557Y56434D02*
X122669Y55667D01*
X122855Y54904D01*
X123116Y54146D01*
X123451Y53393D01*
X123860Y52643D01*
X124344Y51898D01*
X124903Y51157D01*
X125536Y50421D01*
X126243Y49689D01*
X113797D01*
X114504Y50421D01*
X115137Y51157D01*
X115696Y51898D01*
X116180Y52643D01*
X116589Y53393D01*
X116924Y54146D01*
X117185Y54904D01*
X117371Y55667D01*
X117483Y56434D01*
X117520Y57205D01*
X122520D01*
X122557Y56434D01*
D02*
G37*
G36*
X414017Y58814D02*
X414129Y58047D01*
X414315Y57284D01*
X414576Y56526D01*
X414911Y55773D01*
X415320Y55023D01*
X415804Y54278D01*
X416363Y53537D01*
X416996Y52801D01*
X417703Y52069D01*
X405257D01*
X405964Y52801D01*
X406597Y53537D01*
X407156Y54278D01*
X407640Y55023D01*
X408049Y55773D01*
X408384Y56526D01*
X408645Y57284D01*
X408831Y58047D01*
X408943Y58814D01*
X408980Y59585D01*
X413980D01*
X414017Y58814D01*
D02*
G37*
G36*
X445470Y231300D02*
X444691Y231283D01*
X443941Y231214D01*
X443220Y231095D01*
X442529Y230924D01*
X441866Y230702D01*
X441233Y230430D01*
X440629Y230106D01*
X440054Y229732D01*
X439508Y229306D01*
X438991Y228829D01*
X435456Y232365D01*
X435932Y232882D01*
X436358Y233428D01*
X436733Y234002D01*
X437056Y234607D01*
X437329Y235240D01*
X437551Y235902D01*
X437721Y236594D01*
X437841Y237315D01*
X437909Y238065D01*
X437927Y238844D01*
X445470Y231300D01*
D02*
G37*
G36*
X256818Y58732D02*
X256255Y59271D01*
X255676Y59753D01*
X255082Y60178D01*
X254472Y60546D01*
X253847Y60858D01*
X253207Y61113D01*
X252551Y61311D01*
X251879Y61453D01*
X251192Y61538D01*
X250490Y61566D01*
Y66566D01*
X251192Y66595D01*
X251879Y66680D01*
X252551Y66821D01*
X253207Y67020D01*
X253847Y67275D01*
X254472Y67587D01*
X255082Y67955D01*
X255676Y68380D01*
X256255Y68862D01*
X256818Y69400D01*
Y58732D01*
D02*
G37*
G36*
X390066Y254209D02*
X390260Y253788D01*
X390584Y253416D01*
X391038Y253093D01*
X391622Y252820D01*
X392335Y252597D01*
X393177Y252423D01*
X394149Y252299D01*
X395251Y252225D01*
X396483Y252200D01*
Y247200D01*
X395251Y247175D01*
X393177Y246977D01*
X392335Y246803D01*
X391622Y246580D01*
X391038Y246307D01*
X390584Y245984D01*
X390260Y245612D01*
X390066Y245191D01*
X390001Y244719D01*
Y254681D01*
X390066Y254209D01*
D02*
G37*
G36*
X294799Y244719D02*
X294734Y245191D01*
X294540Y245612D01*
X294215Y245984D01*
X293762Y246307D01*
X293178Y246580D01*
X292465Y246803D01*
X291623Y246977D01*
X290651Y247101D01*
X289549Y247175D01*
X288317Y247200D01*
Y252200D01*
X289549Y252225D01*
X291623Y252423D01*
X292465Y252597D01*
X293178Y252820D01*
X293762Y253093D01*
X294215Y253416D01*
X294540Y253788D01*
X294734Y254209D01*
X294799Y254681D01*
Y244719D01*
D02*
G37*
G36*
X293939Y97359D02*
X293874Y97831D01*
X293680Y98252D01*
X293355Y98624D01*
X292902Y98947D01*
X292318Y99220D01*
X291605Y99443D01*
X290763Y99617D01*
X289791Y99741D01*
X288689Y99815D01*
X287457Y99840D01*
Y104840D01*
X288689Y104865D01*
X290763Y105063D01*
X291605Y105237D01*
X292318Y105460D01*
X292902Y105733D01*
X293355Y106055D01*
X293680Y106428D01*
X293874Y106849D01*
X293939Y107321D01*
Y97359D01*
D02*
G37*
G36*
X157404Y103734D02*
X156625Y103716D01*
X155875Y103648D01*
X155154Y103528D01*
X154462Y103358D01*
X153800Y103136D01*
X153167Y102864D01*
X152563Y102540D01*
X151987Y102165D01*
X151442Y101740D01*
X150925Y101263D01*
X147389Y104798D01*
X147866Y105315D01*
X148292Y105861D01*
X148666Y106436D01*
X148990Y107040D01*
X149263Y107674D01*
X149484Y108336D01*
X149655Y109028D01*
X149774Y109748D01*
X149843Y110498D01*
X149860Y111277D01*
X157404Y103734D01*
D02*
G37*
G36*
X199126Y250275D02*
X199153Y249582D01*
X199232Y248898D01*
X199363Y248222D01*
X199548Y247555D01*
X199784Y246897D01*
X200074Y246247D01*
X200416Y245606D01*
X200811Y244974D01*
X201259Y244350D01*
X201759Y243735D01*
X191128Y244631D01*
X191698Y245138D01*
X192208Y245668D01*
X192657Y246221D01*
X193047Y246796D01*
X193377Y247394D01*
X193647Y248014D01*
X193857Y248657D01*
X194007Y249323D01*
X194096Y250011D01*
X194126Y250721D01*
X199126Y250275D01*
D02*
G37*
G36*
X256064Y245315D02*
X255588Y244798D01*
X255162Y244252D01*
X254787Y243678D01*
X254464Y243073D01*
X254191Y242440D01*
X253969Y241777D01*
X253799Y241086D01*
X253679Y240365D01*
X253611Y239615D01*
X253593Y238836D01*
X246050Y246380D01*
X246829Y246397D01*
X247579Y246466D01*
X248300Y246585D01*
X248991Y246756D01*
X249654Y246978D01*
X250287Y247250D01*
X250891Y247574D01*
X251466Y247948D01*
X252012Y248374D01*
X252529Y248851D01*
X256064Y245315D01*
D02*
G37*
G36*
X189186Y235322D02*
X189063Y235501D01*
X188883Y235660D01*
X188648Y235801D01*
X188356Y235923D01*
X188007Y236026D01*
X187603Y236110D01*
X187141Y236176D01*
X186050Y236251D01*
X185420Y236260D01*
Y241260D01*
X186050Y241269D01*
X187141Y241344D01*
X187603Y241410D01*
X188007Y241494D01*
X188356Y241597D01*
X188648Y241719D01*
X188883Y241860D01*
X189063Y242019D01*
X189186Y242197D01*
Y235322D01*
D02*
G37*
G36*
X272351Y70621D02*
X271874Y70105D01*
X271448Y69559D01*
X271074Y68984D01*
X270750Y68380D01*
X270478Y67746D01*
X270256Y67084D01*
X270085Y66392D01*
X269966Y65672D01*
X269897Y64922D01*
X269880Y64143D01*
X262336Y71686D01*
X263115Y71704D01*
X263865Y71772D01*
X264586Y71892D01*
X265278Y72062D01*
X265940Y72284D01*
X266573Y72557D01*
X267178Y72880D01*
X267752Y73255D01*
X268298Y73680D01*
X268815Y74157D01*
X272351Y70621D01*
D02*
G37*
G36*
X92010D02*
X91534Y70105D01*
X91108Y69559D01*
X90734Y68984D01*
X90410Y68380D01*
X90138Y67746D01*
X89916Y67084D01*
X89745Y66392D01*
X89626Y65672D01*
X89557Y64922D01*
X89540Y64143D01*
X81996Y71686D01*
X82775Y71704D01*
X83525Y71772D01*
X84246Y71892D01*
X84937Y72062D01*
X85600Y72284D01*
X86233Y72557D01*
X86838Y72880D01*
X87413Y73255D01*
X87958Y73680D01*
X88475Y74157D01*
X92010Y70621D01*
D02*
G37*
D10*
X317500Y187960D02*
X320040D01*
X303440Y51540D02*
X313160D01*
X345440Y83820D01*
Y162560D01*
X320040Y187960D02*
X345440Y162560D01*
X368300Y139080D02*
Y154940D01*
Y139080D02*
X379640Y127740D01*
X368300Y154940D02*
X384810D01*
X380500Y300500D02*
Y331138D01*
X381762Y332400D01*
X449580Y200660D02*
X469646Y220726D01*
X384810Y154940D02*
X430530Y200660D01*
X449580D01*
X449920Y332400D02*
X469646Y312674D01*
Y220726D02*
Y312674D01*
X369800Y332400D02*
X381762D01*
X449920D01*
D11*
X410000Y224300D02*
X430926D01*
X495394Y180640D02*
Y294400D01*
X410400Y90400D02*
Y136400D01*
X245974Y238760D02*
X256914Y249700D01*
X274960Y218600D02*
Y249060D01*
X274320Y249700D02*
X274960Y249060D01*
X256914Y249700D02*
X274320D01*
X304300D01*
X246614Y294800D02*
X266314Y275100D01*
X274960Y275740D02*
Y307500D01*
X274320Y275100D02*
X274960Y275740D01*
X266314Y275100D02*
X274320D01*
X304300D01*
X380500Y249700D02*
X400706D01*
X410400Y278594D02*
Y304400D01*
Y278594D02*
X420000Y268994D01*
X400706Y249700D02*
X420000Y268994D01*
X445406Y294400D01*
X430926Y224300D02*
X445546Y238920D01*
X410400Y215500D02*
Y223900D01*
X410000Y224300D02*
X410400Y223900D01*
X380500Y224300D02*
X410000D01*
X504294Y303300D02*
X530400D01*
X495394Y294400D02*
X504294Y303300D01*
X495394Y180640D02*
X495534Y180500D01*
X379640Y76940D02*
X396940D01*
X410400Y90400D01*
X411480Y134620D02*
X439420D01*
X385460Y45720D02*
X411480D01*
X379640Y51540D02*
X385460Y45720D01*
X445546Y169134D02*
Y180500D01*
Y169134D02*
X457200Y157480D01*
Y119380D02*
Y157480D01*
X411480Y73660D02*
X457200Y119380D01*
X411480Y45720D02*
Y73660D01*
X473202Y79502D02*
X495173D01*
X439420Y45720D02*
X473202Y79502D01*
X495427Y113538D02*
X563538D01*
X580000Y130000D01*
X275134Y76940D02*
X303440D01*
X262260Y64066D02*
X275134Y76940D01*
X242346Y64066D02*
X262260D01*
X224160Y45880D02*
X242346Y64066D01*
X273974Y102340D02*
X303440D01*
X262260Y114054D02*
X273974Y102340D01*
X196220Y48014D02*
X262260Y114054D01*
X196220Y45880D02*
Y48014D01*
Y134780D02*
X224160D01*
X81920Y34920D02*
Y64066D01*
X120020Y102166D02*
Y132240D01*
X81920Y64066D02*
X120020Y102166D01*
X196626Y239400D02*
Y294800D01*
X195986Y238760D02*
X196626Y239400D01*
X81920Y34920D02*
X101600Y15240D01*
X81920Y114054D02*
X84460Y116594D01*
X303440Y76940D02*
X310620D01*
X120020Y43340D02*
Y73894D01*
X157480Y111354D01*
X180906Y134780D02*
X196220D01*
X157480Y111354D02*
X180906Y134780D01*
X81280Y114694D02*
Y157480D01*
Y114694D02*
X81920Y114054D01*
X142646Y309880D02*
X167640D01*
X127000Y294234D02*
X142646Y309880D01*
X81280Y243840D02*
Y246380D01*
Y243840D02*
X104140Y220980D01*
X167640D01*
X185420Y238760D02*
X195986D01*
X167640Y220980D02*
X185420Y238760D01*
X360934Y38100D02*
X374374Y51540D01*
X379640D01*
X101600Y15240D02*
X289814D01*
X312674Y38100D01*
X360934D01*
X20000Y206200D02*
X53388D01*
X71628Y187960D01*
X281940D01*
X20000Y231600D02*
X56182D01*
X245974Y238354D02*
Y238760D01*
X20000Y180800D02*
X58722D01*
X346220Y224300D02*
X380500D01*
X281940Y187960D02*
X302260Y208280D01*
X330200D01*
X346220Y224300D01*
X56182Y231600D02*
X84582Y203200D01*
X210820D01*
X245974Y238354D01*
X58722Y180800D02*
X66802Y172720D01*
X228600D01*
X244348Y156972D01*
D12*
X580000Y130000D02*
D03*
X19558Y129540D02*
D03*
D13*
X580000Y155400D02*
D03*
Y180800D02*
D03*
Y206200D02*
D03*
Y231600D02*
D03*
X19558Y154940D02*
D03*
Y180340D02*
D03*
Y205740D02*
D03*
Y231140D02*
D03*
D14*
X319000Y332400D02*
D03*
X369800D02*
D03*
X317500Y190500D02*
D03*
X368300D02*
D03*
Y154940D02*
D03*
X317500D02*
D03*
Y20320D02*
D03*
X368300D02*
D03*
X224160Y45880D02*
D03*
Y134780D02*
D03*
X120020Y43340D02*
D03*
Y132240D02*
D03*
X196220Y45880D02*
D03*
Y134780D02*
D03*
X411480Y45720D02*
D03*
Y134620D02*
D03*
X439420D02*
D03*
Y45720D02*
D03*
X81280Y157480D02*
D03*
Y246380D02*
D03*
X274960Y218600D02*
D03*
Y307500D02*
D03*
X167640Y220980D02*
D03*
Y309880D02*
D03*
X410400Y215500D02*
D03*
Y304400D02*
D03*
X530400Y303300D02*
D03*
Y214400D02*
D03*
D15*
X495394Y294400D02*
D03*
X445406D02*
D03*
X495534Y238920D02*
D03*
X445546D02*
D03*
Y180500D02*
D03*
X495534D02*
D03*
X157480Y111354D02*
D03*
Y61366D02*
D03*
X262260Y64066D02*
D03*
Y114054D02*
D03*
X127000Y244246D02*
D03*
Y294234D02*
D03*
X196626Y294800D02*
D03*
X246614D02*
D03*
X81920Y114054D02*
D03*
Y64066D02*
D03*
X195986Y238760D02*
D03*
X245974D02*
D03*
D16*
X495427Y113538D02*
D03*
D17*
X495173Y79502D02*
D03*
D18*
X379640Y51540D02*
D03*
X380500Y224300D02*
D03*
D19*
X379640Y76940D02*
D03*
Y102340D02*
D03*
Y127740D02*
D03*
X303440Y51540D02*
D03*
Y76940D02*
D03*
Y102340D02*
D03*
Y127740D02*
D03*
X380500Y249700D02*
D03*
Y275100D02*
D03*
Y300500D02*
D03*
X304300Y224300D02*
D03*
Y249700D02*
D03*
Y275100D02*
D03*
Y300500D02*
D03*
D20*
X30000Y30000D02*
D03*
Y330000D02*
D03*
X570000D02*
D03*
Y30000D02*
D03*
D21*
X244348Y156972D02*
D03*
D22*
X101600Y152400D02*
D03*
X127000D02*
D03*
X152400D02*
D03*
X177800D02*
D03*
X203200D02*
D03*
X50800D02*
D03*
Y127000D02*
D03*
X101600D02*
D03*
X152400D02*
D03*
X50800Y254000D02*
D03*
Y279400D02*
D03*
Y304800D02*
D03*
X76200D02*
D03*
Y279400D02*
D03*
X101600Y304800D02*
D03*
Y279400D02*
D03*
Y254000D02*
D03*
X139700Y279400D02*
D03*
X165100D02*
D03*
Y254000D02*
D03*
X139700D02*
D03*
X215900Y279400D02*
D03*
Y254000D02*
D03*
X228600Y266700D02*
D03*
X342900Y304800D02*
D03*
Y279400D02*
D03*
Y254000D02*
D03*
Y330200D02*
D03*
X444500Y76200D02*
D03*
X469900Y101600D02*
D03*
X406400Y12700D02*
D03*
X431800D02*
D03*
X457200D02*
D03*
X482600D02*
D03*
X508000D02*
D03*
X533400D02*
D03*
X50800Y101600D02*
D03*
Y76200D02*
D03*
Y50800D02*
D03*
X25400Y101600D02*
D03*
Y76200D02*
D03*
Y50800D02*
D03*
X38100Y88900D02*
D03*
Y63500D02*
D03*
Y114300D02*
D03*
X76200Y330200D02*
D03*
X101600D02*
D03*
X127000D02*
D03*
X152400D02*
D03*
X177800D02*
D03*
X203200D02*
D03*
X228600D02*
D03*
X254000D02*
D03*
X279400D02*
D03*
X228600Y114300D02*
D03*
X203200D02*
D03*
X177800D02*
D03*
Y88900D02*
D03*
X203200D02*
D03*
X228600Y101600D02*
D03*
X190500Y63500D02*
D03*
X241300Y215900D02*
D03*
Y203200D02*
D03*
X254000D02*
D03*
Y215900D02*
D03*
X40640Y193802D02*
D03*
X39370Y219710D02*
D03*
M02*
