G04 Layer_Physical_Order=1*
G04 Layer_Color=255*
%FSLAX44Y44*%
%MOMM*%
G71*
G01*
G75*
%ADD10C,1.0000*%
%ADD11C,0.5000*%
%ADD12R,1.5000X1.5000*%
%ADD13C,1.5000*%
%ADD14C,1.7780*%
%ADD15C,1.5240*%
%ADD16R,2.5400X1.5240*%
%ADD17O,2.5400X1.5240*%
%ADD18R,2.2860X1.5240*%
%ADD19O,2.2860X1.5240*%
%ADD20C,3.0000*%
%ADD21C,1.3000*%
%ADD22C,0.6000*%
G36*
X596431Y3569D02*
X3569D01*
Y356431D01*
X596431D01*
Y3569D01*
D02*
G37*
%LPC*%
G36*
X56196Y125730D02*
X52070D01*
Y121604D01*
X52962Y121781D01*
X54794Y123006D01*
X56019Y124838D01*
X56196Y125730D01*
D02*
G37*
G36*
X49530D02*
X45404D01*
X45581Y124838D01*
X46806Y123006D01*
X48638Y121781D01*
X49530Y121604D01*
Y125730D01*
D02*
G37*
G36*
X196220Y146773D02*
X193116Y146364D01*
X190224Y145166D01*
X187740Y143260D01*
X185834Y140776D01*
X184636Y137884D01*
X184227Y134780D01*
X184636Y131676D01*
X185834Y128784D01*
X187740Y126300D01*
X190224Y124394D01*
X193116Y123196D01*
X196220Y122787D01*
X199324Y123196D01*
X202216Y124394D01*
X204700Y126300D01*
X206606Y128784D01*
X207804Y131676D01*
X208213Y134780D01*
X207804Y137884D01*
X206606Y140776D01*
X204700Y143260D01*
X202216Y145166D01*
X199324Y146364D01*
X196220Y146773D01*
D02*
G37*
G36*
X106996Y125730D02*
X102870D01*
Y121604D01*
X103762Y121781D01*
X105594Y123006D01*
X106819Y124838D01*
X106996Y125730D01*
D02*
G37*
G36*
X100330D02*
X96204D01*
X96381Y124838D01*
X97606Y123006D01*
X99438Y121781D01*
X100330Y121604D01*
Y125730D01*
D02*
G37*
G36*
X18288Y128270D02*
X9518D01*
Y119500D01*
X18288D01*
Y128270D01*
D02*
G37*
G36*
X317330Y126470D02*
X304710D01*
Y117492D01*
X307250D01*
X309902Y117842D01*
X312374Y118865D01*
X314496Y120494D01*
X316125Y122616D01*
X317148Y125088D01*
X317330Y126470D01*
D02*
G37*
G36*
X302170D02*
X289550D01*
X289732Y125088D01*
X290755Y122616D01*
X292384Y120494D01*
X294506Y118865D01*
X296978Y117842D01*
X299630Y117492D01*
X302170D01*
Y126470D01*
D02*
G37*
G36*
X120020Y144233D02*
X116916Y143824D01*
X114024Y142626D01*
X111540Y140720D01*
X109634Y138236D01*
X108436Y135344D01*
X108027Y132240D01*
X108436Y129136D01*
X109634Y126244D01*
X111540Y123760D01*
X114024Y121854D01*
X116916Y120656D01*
X120020Y120247D01*
X123124Y120656D01*
X126016Y121854D01*
X128500Y123760D01*
X130406Y126244D01*
X131604Y129136D01*
X132013Y132240D01*
X131604Y135344D01*
X130406Y138236D01*
X128500Y140720D01*
X126016Y142626D01*
X123124Y143824D01*
X120020Y144233D01*
D02*
G37*
G36*
X590500Y140500D02*
X569500D01*
Y119500D01*
X590500D01*
Y140500D01*
D02*
G37*
G36*
X29598Y128270D02*
X20828D01*
Y119500D01*
X29598D01*
Y128270D01*
D02*
G37*
G36*
X302170Y137988D02*
X299630D01*
X296978Y137639D01*
X294506Y136615D01*
X292384Y134986D01*
X290755Y132864D01*
X289732Y130392D01*
X289550Y129010D01*
X302170D01*
Y137988D01*
D02*
G37*
G36*
X153670Y132396D02*
Y128270D01*
X157796D01*
X157619Y129162D01*
X156394Y130994D01*
X154562Y132219D01*
X153670Y132396D01*
D02*
G37*
G36*
X307250Y137988D02*
X304710D01*
Y129010D01*
X317330D01*
X317148Y130392D01*
X316125Y132864D01*
X314496Y134986D01*
X312374Y136615D01*
X309902Y137639D01*
X307250Y137988D01*
D02*
G37*
G36*
X29598Y139580D02*
X20828D01*
Y130810D01*
X29598D01*
Y139580D01*
D02*
G37*
G36*
X18288D02*
X9518D01*
Y130810D01*
X18288D01*
Y139580D01*
D02*
G37*
G36*
X151130Y132396D02*
X150238Y132219D01*
X148406Y130994D01*
X147181Y129162D01*
X147004Y128270D01*
X151130D01*
Y132396D01*
D02*
G37*
G36*
X49530D02*
X48638Y132219D01*
X46806Y130994D01*
X45581Y129162D01*
X45404Y128270D01*
X49530D01*
Y132396D01*
D02*
G37*
G36*
X224160Y146773D02*
X221056Y146364D01*
X218164Y145166D01*
X215680Y143260D01*
X213774Y140776D01*
X212576Y137884D01*
X212167Y134780D01*
X212576Y131676D01*
X213774Y128784D01*
X215680Y126300D01*
X218164Y124394D01*
X221056Y123196D01*
X224160Y122787D01*
X227264Y123196D01*
X230156Y124394D01*
X232640Y126300D01*
X234546Y128784D01*
X235744Y131676D01*
X236153Y134780D01*
X235744Y137884D01*
X234546Y140776D01*
X232640Y143260D01*
X230156Y145166D01*
X227264Y146364D01*
X224160Y146773D01*
D02*
G37*
G36*
X52070Y132396D02*
Y128270D01*
X56196D01*
X56019Y129162D01*
X54794Y130994D01*
X52962Y132219D01*
X52070Y132396D01*
D02*
G37*
G36*
X102870D02*
Y128270D01*
X106996D01*
X106819Y129162D01*
X105594Y130994D01*
X103762Y132219D01*
X102870Y132396D01*
D02*
G37*
G36*
X100330D02*
X99438Y132219D01*
X97606Y130994D01*
X96381Y129162D01*
X96204Y128270D01*
X100330D01*
Y132396D01*
D02*
G37*
G36*
X383450Y138452D02*
X375830D01*
X373058Y138087D01*
X370474Y137017D01*
X368256Y135314D01*
X366553Y133096D01*
X365483Y130512D01*
X365118Y127740D01*
X365483Y124968D01*
X366553Y122384D01*
X368256Y120166D01*
X370474Y118463D01*
X373058Y117393D01*
X375830Y117028D01*
X383450D01*
X386222Y117393D01*
X388806Y118463D01*
X391024Y120166D01*
X392727Y122384D01*
X393797Y124968D01*
X394162Y127740D01*
X393797Y130512D01*
X392727Y133096D01*
X391024Y135314D01*
X388806Y137017D01*
X386222Y138087D01*
X383450Y138452D01*
D02*
G37*
G36*
X36830Y113030D02*
X32704D01*
X32881Y112138D01*
X34106Y110306D01*
X35938Y109081D01*
X36830Y108904D01*
Y113030D01*
D02*
G37*
G36*
X383450Y112588D02*
X380910D01*
Y103610D01*
X393531D01*
X393349Y104992D01*
X392325Y107464D01*
X390696Y109586D01*
X388574Y111215D01*
X386102Y112239D01*
X383450Y112588D01*
D02*
G37*
G36*
X43496Y113030D02*
X39370D01*
Y108904D01*
X40262Y109081D01*
X42094Y110306D01*
X43319Y112138D01*
X43496Y113030D01*
D02*
G37*
G36*
X183196D02*
X179070D01*
Y108904D01*
X179962Y109081D01*
X181794Y110306D01*
X183019Y112138D01*
X183196Y113030D01*
D02*
G37*
G36*
X176530D02*
X172404D01*
X172581Y112138D01*
X173806Y110306D01*
X175638Y109081D01*
X176530Y108904D01*
Y113030D01*
D02*
G37*
G36*
X378370Y112588D02*
X375830D01*
X373178Y112239D01*
X370706Y111215D01*
X368584Y109586D01*
X366955Y107464D01*
X365932Y104992D01*
X365750Y103610D01*
X378370D01*
Y112588D01*
D02*
G37*
G36*
X471170Y106996D02*
Y102870D01*
X475296D01*
X475119Y103762D01*
X473894Y105594D01*
X472062Y106819D01*
X471170Y106996D01*
D02*
G37*
G36*
X468630D02*
X467738Y106819D01*
X465906Y105594D01*
X464681Y103762D01*
X464504Y102870D01*
X468630D01*
Y106996D01*
D02*
G37*
G36*
X511127Y124158D02*
X479727D01*
Y102918D01*
X511127D01*
Y124158D01*
D02*
G37*
G36*
X262260Y124765D02*
X259488Y124400D01*
X256904Y123330D01*
X254686Y121628D01*
X252983Y119409D01*
X251913Y116826D01*
X251548Y114054D01*
X251913Y111281D01*
X252983Y108698D01*
X254686Y106479D01*
X256904Y104777D01*
X259488Y103707D01*
X262260Y103342D01*
X265032Y103707D01*
X267616Y104777D01*
X269834Y106479D01*
X271537Y108698D01*
X272607Y111281D01*
X272972Y114054D01*
X272607Y116826D01*
X271537Y119409D01*
X269834Y121628D01*
X267616Y123330D01*
X265032Y124400D01*
X262260Y124765D01*
D02*
G37*
G36*
X81920D02*
X79148Y124400D01*
X76564Y123330D01*
X74346Y121628D01*
X72643Y119409D01*
X71573Y116826D01*
X71208Y114054D01*
X71573Y111281D01*
X72643Y108698D01*
X74346Y106479D01*
X76564Y104777D01*
X79148Y103707D01*
X81920Y103342D01*
X84692Y103707D01*
X87276Y104777D01*
X89494Y106479D01*
X91196Y108698D01*
X92267Y111281D01*
X92632Y114054D01*
X92267Y116826D01*
X91196Y119409D01*
X89494Y121628D01*
X87276Y123330D01*
X84692Y124400D01*
X81920Y124765D01*
D02*
G37*
G36*
X201930Y113030D02*
X197804D01*
X197981Y112138D01*
X199206Y110306D01*
X201038Y109081D01*
X201930Y108904D01*
Y113030D01*
D02*
G37*
G36*
Y119696D02*
X201038Y119519D01*
X199206Y118294D01*
X197981Y116462D01*
X197804Y115570D01*
X201930D01*
Y119696D01*
D02*
G37*
G36*
X179070D02*
Y115570D01*
X183196D01*
X183019Y116462D01*
X181794Y118294D01*
X179962Y119519D01*
X179070Y119696D01*
D02*
G37*
G36*
X204470D02*
Y115570D01*
X208596D01*
X208419Y116462D01*
X207194Y118294D01*
X205362Y119519D01*
X204470Y119696D01*
D02*
G37*
G36*
X229870D02*
Y115570D01*
X233996D01*
X233819Y116462D01*
X232594Y118294D01*
X230762Y119519D01*
X229870Y119696D01*
D02*
G37*
G36*
X227330D02*
X226438Y119519D01*
X224606Y118294D01*
X223381Y116462D01*
X223204Y115570D01*
X227330D01*
Y119696D01*
D02*
G37*
G36*
X176530D02*
X175638Y119519D01*
X173806Y118294D01*
X172581Y116462D01*
X172404Y115570D01*
X176530D01*
Y119696D01*
D02*
G37*
G36*
X227330Y113030D02*
X223204D01*
X223381Y112138D01*
X224606Y110306D01*
X226438Y109081D01*
X227330Y108904D01*
Y113030D01*
D02*
G37*
G36*
X208596D02*
X204470D01*
Y108904D01*
X205362Y109081D01*
X207194Y110306D01*
X208419Y112138D01*
X208596Y113030D01*
D02*
G37*
G36*
X233996D02*
X229870D01*
Y108904D01*
X230762Y109081D01*
X232594Y110306D01*
X233819Y112138D01*
X233996Y113030D01*
D02*
G37*
G36*
X39370Y119696D02*
Y115570D01*
X43496D01*
X43319Y116462D01*
X42094Y118294D01*
X40262Y119519D01*
X39370Y119696D01*
D02*
G37*
G36*
X36830D02*
X35938Y119519D01*
X34106Y118294D01*
X32881Y116462D01*
X32704Y115570D01*
X36830D01*
Y119696D01*
D02*
G37*
G36*
X179070Y157796D02*
Y153670D01*
X183196D01*
X183019Y154562D01*
X181794Y156394D01*
X179962Y157619D01*
X179070Y157796D01*
D02*
G37*
G36*
X176530D02*
X175638Y157619D01*
X173806Y156394D01*
X172581Y154562D01*
X172404Y153670D01*
X176530D01*
Y157796D01*
D02*
G37*
G36*
X201930D02*
X201038Y157619D01*
X199206Y156394D01*
X197981Y154562D01*
X197804Y153670D01*
X201930D01*
Y157796D01*
D02*
G37*
G36*
X18288Y164899D02*
X16937Y164722D01*
X14495Y163710D01*
X12397Y162101D01*
X10788Y160003D01*
X9776Y157561D01*
X9599Y156210D01*
X18288D01*
Y164899D01*
D02*
G37*
G36*
X204470Y157796D02*
Y153670D01*
X208596D01*
X208419Y154562D01*
X207194Y156394D01*
X205362Y157619D01*
X204470Y157796D01*
D02*
G37*
G36*
X153670D02*
Y153670D01*
X157796D01*
X157619Y154562D01*
X156394Y156394D01*
X154562Y157619D01*
X153670Y157796D01*
D02*
G37*
G36*
X102870D02*
Y153670D01*
X106996D01*
X106819Y154562D01*
X105594Y156394D01*
X103762Y157619D01*
X102870Y157796D01*
D02*
G37*
G36*
X100330D02*
X99438Y157619D01*
X97606Y156394D01*
X96381Y154562D01*
X96204Y153670D01*
X100330D01*
Y157796D01*
D02*
G37*
G36*
X125730D02*
X124838Y157619D01*
X123006Y156394D01*
X121781Y154562D01*
X121604Y153670D01*
X125730D01*
Y157796D01*
D02*
G37*
G36*
X151130D02*
X150238Y157619D01*
X148406Y156394D01*
X147181Y154562D01*
X147004Y153670D01*
X151130D01*
Y157796D01*
D02*
G37*
G36*
X128270D02*
Y153670D01*
X132396D01*
X132219Y154562D01*
X130994Y156394D01*
X129162Y157619D01*
X128270Y157796D01*
D02*
G37*
G36*
X20828Y164899D02*
Y156210D01*
X29517D01*
X29340Y157561D01*
X28328Y160003D01*
X26719Y162101D01*
X24621Y163710D01*
X22179Y164722D01*
X20828Y164899D01*
D02*
G37*
G36*
X437196Y11430D02*
X433070D01*
Y7304D01*
X433962Y7481D01*
X435794Y8706D01*
X437019Y10538D01*
X437196Y11430D01*
D02*
G37*
G36*
X495534Y191212D02*
X492761Y190847D01*
X490178Y189777D01*
X487959Y188074D01*
X486257Y185856D01*
X485187Y183272D01*
X484822Y180500D01*
X485187Y177728D01*
X486257Y175144D01*
X487959Y172926D01*
X490178Y171223D01*
X492761Y170153D01*
X495534Y169788D01*
X498306Y170153D01*
X500889Y171223D01*
X503108Y172926D01*
X504810Y175144D01*
X505880Y177728D01*
X506245Y180500D01*
X505880Y183272D01*
X504810Y185856D01*
X503108Y188074D01*
X500889Y189777D01*
X498306Y190847D01*
X495534Y191212D01*
D02*
G37*
G36*
X430530Y11430D02*
X426404D01*
X426581Y10538D01*
X427806Y8706D01*
X429638Y7481D01*
X430530Y7304D01*
Y11430D01*
D02*
G37*
G36*
X39370Y192532D02*
X35244D01*
X35421Y191640D01*
X36646Y189808D01*
X38478Y188583D01*
X39370Y188406D01*
Y192532D01*
D02*
G37*
G36*
X580000Y242191D02*
X577259Y241830D01*
X575224Y240987D01*
X519684D01*
X517596Y240712D01*
X515649Y239906D01*
X513978Y238624D01*
X499324Y223969D01*
X448564D01*
X446476Y223694D01*
X444529Y222888D01*
X442858Y221606D01*
X402042Y180789D01*
X376396D01*
X375988Y181992D01*
X376452Y182348D01*
X378284Y184736D01*
X379436Y187516D01*
X379661Y189230D01*
X356939D01*
X357164Y187516D01*
X358316Y184736D01*
X360148Y182348D01*
X360612Y181992D01*
X360204Y180789D01*
X338622D01*
X331921Y187490D01*
X330986Y188475D01*
X330104Y189537D01*
X329823Y189929D01*
X329609Y190267D01*
X329491Y190490D01*
X329493Y190500D01*
X329084Y193604D01*
X327886Y196496D01*
X325980Y198980D01*
X323496Y200886D01*
X320604Y202084D01*
X317500Y202493D01*
X315423Y202219D01*
X315300Y202231D01*
X315275Y202228D01*
X315134Y202285D01*
X314851Y202434D01*
X314475Y202674D01*
X314050Y202987D01*
X312899Y203978D01*
X312725Y204147D01*
X312369Y204502D01*
Y207274D01*
X312407Y209148D01*
X312545Y211215D01*
X312768Y212977D01*
X313062Y214418D01*
X313219Y214921D01*
X313466Y215023D01*
X315684Y216726D01*
X316675Y218016D01*
X316716Y218053D01*
X316738Y218099D01*
X317386Y218944D01*
X318457Y221528D01*
X318822Y224300D01*
X318457Y227072D01*
X317386Y229656D01*
X315684Y231874D01*
X313466Y233577D01*
X310882Y234647D01*
X308110Y235012D01*
X300490D01*
X297718Y234647D01*
X295134Y233577D01*
X292916Y231874D01*
X291213Y229656D01*
X290143Y227072D01*
X289778Y224300D01*
X290143Y221528D01*
X291213Y218944D01*
X291862Y218099D01*
X291884Y218053D01*
X291925Y218016D01*
X292916Y216726D01*
X295134Y215023D01*
X295381Y214921D01*
X295537Y214418D01*
X295823Y213024D01*
X296194Y209106D01*
X296231Y207274D01*
Y201160D01*
X296506Y199072D01*
X297312Y197125D01*
X298594Y195454D01*
X303462Y190587D01*
X304974Y188965D01*
X305637Y188162D01*
X305811Y187924D01*
X305856Y187852D01*
X305916Y187396D01*
X307114Y184504D01*
X309020Y182020D01*
X311504Y180114D01*
X314396Y178916D01*
X317500Y178507D01*
X317510Y178509D01*
X317733Y178391D01*
X318071Y178177D01*
X318440Y177913D01*
X320158Y176430D01*
X320192Y176397D01*
X329574Y167014D01*
X331245Y165732D01*
X333192Y164926D01*
X335280Y164651D01*
X359449D01*
X359723Y163844D01*
X359790Y163381D01*
X357914Y160936D01*
X356716Y158044D01*
X356307Y154940D01*
X356716Y151836D01*
X357914Y148944D01*
X359820Y146460D01*
X362304Y144554D01*
X365196Y143356D01*
X368300Y142947D01*
X371404Y143356D01*
X374296Y144554D01*
X376780Y146460D01*
X376786Y146468D01*
X377028Y146542D01*
X377417Y146630D01*
X377865Y146704D01*
X380128Y146870D01*
X380176Y146871D01*
X406668D01*
X406920Y145601D01*
X405484Y145006D01*
X403000Y143100D01*
X401094Y140616D01*
X399896Y137724D01*
X399487Y134620D01*
X399896Y131516D01*
X401094Y128624D01*
X403000Y126140D01*
X405484Y124234D01*
X408376Y123036D01*
X411480Y122627D01*
X414584Y123036D01*
X417476Y124234D01*
X419960Y126140D01*
X421866Y128624D01*
X423064Y131516D01*
X423473Y134620D01*
X423064Y137724D01*
X421866Y140616D01*
X419960Y143100D01*
X417476Y145006D01*
X416040Y145601D01*
X416292Y146871D01*
X434608D01*
X434860Y145601D01*
X433424Y145006D01*
X430940Y143100D01*
X429034Y140616D01*
X427836Y137724D01*
X427427Y134620D01*
X427836Y131516D01*
X429034Y128624D01*
X430940Y126140D01*
X433424Y124234D01*
X436316Y123036D01*
X439420Y122627D01*
X442524Y123036D01*
X445416Y124234D01*
X447900Y126140D01*
X449806Y128624D01*
X451004Y131516D01*
X451413Y134620D01*
X451004Y137724D01*
X449806Y140616D01*
X447900Y143100D01*
X445416Y145006D01*
X443980Y145601D01*
X444232Y146871D01*
X509016D01*
X511104Y147146D01*
X513050Y147952D01*
X514722Y149234D01*
X538218Y172731D01*
X571062D01*
X573184Y172682D01*
X573349Y172669D01*
X574705Y171628D01*
X577259Y170570D01*
X580000Y170209D01*
X582741Y170570D01*
X585295Y171628D01*
X587489Y173311D01*
X589172Y175505D01*
X590230Y178059D01*
X590591Y180800D01*
X590230Y183541D01*
X589172Y186095D01*
X587489Y188289D01*
X585295Y189972D01*
X582741Y191030D01*
X580000Y191391D01*
X577259Y191030D01*
X574705Y189972D01*
X573507Y189053D01*
X570024Y188869D01*
X534876D01*
X532788Y188594D01*
X530841Y187788D01*
X529170Y186506D01*
X505674Y163009D01*
X380626D01*
X379268Y163044D01*
X378013Y163160D01*
X377854Y163228D01*
X377747Y163381D01*
X378409Y164651D01*
X405384D01*
X407472Y164926D01*
X409418Y165732D01*
X411090Y167014D01*
X451906Y207831D01*
X502666D01*
X504754Y208106D01*
X506701Y208912D01*
X508372Y210194D01*
X520377Y222199D01*
X521333Y221360D01*
X520416Y220164D01*
X519264Y217384D01*
X519039Y215670D01*
X541761D01*
X541536Y217384D01*
X540384Y220164D01*
X538552Y222552D01*
X537214Y223579D01*
X537645Y224849D01*
X569417D01*
X571128Y224813D01*
X572026Y224743D01*
X572511Y224111D01*
X574705Y222428D01*
X577259Y221370D01*
X580000Y221009D01*
X582741Y221370D01*
X585295Y222428D01*
X587489Y224111D01*
X589172Y226305D01*
X590230Y228859D01*
X590591Y231600D01*
X590230Y234341D01*
X589172Y236895D01*
X587489Y239089D01*
X585295Y240772D01*
X582741Y241830D01*
X580000Y242191D01*
D02*
G37*
G36*
X445546Y191212D02*
X442774Y190847D01*
X440191Y189777D01*
X437972Y188074D01*
X436270Y185856D01*
X435200Y183272D01*
X434835Y180500D01*
X435200Y177728D01*
X436270Y175144D01*
X437972Y172926D01*
X440191Y171223D01*
X442774Y170153D01*
X445546Y169788D01*
X448319Y170153D01*
X450902Y171223D01*
X453121Y172926D01*
X454823Y175144D01*
X455893Y177728D01*
X456258Y180500D01*
X455893Y183272D01*
X454823Y185856D01*
X453121Y188074D01*
X450902Y189777D01*
X448319Y190847D01*
X445546Y191212D01*
D02*
G37*
G36*
X318770Y166301D02*
Y156210D01*
X328861D01*
X328636Y157924D01*
X327484Y160704D01*
X325652Y163092D01*
X323264Y164924D01*
X320484Y166076D01*
X318770Y166301D01*
D02*
G37*
G36*
X316230D02*
X314516Y166076D01*
X311736Y164924D01*
X309348Y163092D01*
X307516Y160704D01*
X306364Y157924D01*
X306139Y156210D01*
X316230D01*
Y166301D01*
D02*
G37*
G36*
X578730Y165359D02*
X577379Y165182D01*
X574937Y164170D01*
X572839Y162561D01*
X571230Y160463D01*
X570218Y158021D01*
X570041Y156670D01*
X578730D01*
Y165359D01*
D02*
G37*
G36*
X19558Y190931D02*
X16817Y190570D01*
X14263Y189512D01*
X12069Y187829D01*
X10386Y185635D01*
X9328Y183081D01*
X8967Y180340D01*
X9328Y177599D01*
X10386Y175045D01*
X12069Y172851D01*
X14263Y171168D01*
X16817Y170110D01*
X19558Y169749D01*
X22299Y170110D01*
X24853Y171168D01*
X27047Y172851D01*
X28730Y175045D01*
X29788Y177599D01*
X30149Y180340D01*
X29788Y183081D01*
X28730Y185635D01*
X27047Y187829D01*
X24853Y189512D01*
X22299Y190570D01*
X19558Y190931D01*
D02*
G37*
G36*
X581270Y165359D02*
Y156670D01*
X589959D01*
X589782Y158021D01*
X588770Y160463D01*
X587161Y162561D01*
X585063Y164170D01*
X582621Y165182D01*
X581270Y165359D01*
D02*
G37*
G36*
X49530Y151130D02*
X45404D01*
X45581Y150238D01*
X46806Y148406D01*
X48638Y147181D01*
X49530Y147004D01*
Y151130D01*
D02*
G37*
G36*
X81280Y169473D02*
X78176Y169064D01*
X75284Y167866D01*
X72800Y165960D01*
X70894Y163476D01*
X69696Y160584D01*
X69287Y157480D01*
X69696Y154376D01*
X70894Y151484D01*
X72800Y149000D01*
X75284Y147094D01*
X78176Y145896D01*
X81280Y145487D01*
X84384Y145896D01*
X87276Y147094D01*
X89760Y149000D01*
X91666Y151484D01*
X92864Y154376D01*
X93273Y157480D01*
X92864Y160584D01*
X91666Y163476D01*
X89760Y165960D01*
X87276Y167866D01*
X84384Y169064D01*
X81280Y169473D01*
D02*
G37*
G36*
X56196Y151130D02*
X52070D01*
Y147004D01*
X52962Y147181D01*
X54794Y148406D01*
X56019Y150238D01*
X56196Y151130D01*
D02*
G37*
G36*
X106996D02*
X102870D01*
Y147004D01*
X103762Y147181D01*
X105594Y148406D01*
X106819Y150238D01*
X106996Y151130D01*
D02*
G37*
G36*
X100330D02*
X96204D01*
X96381Y150238D01*
X97606Y148406D01*
X99438Y147181D01*
X100330Y147004D01*
Y151130D01*
D02*
G37*
G36*
X589959Y154130D02*
X581270D01*
Y145441D01*
X582621Y145618D01*
X585063Y146630D01*
X587161Y148239D01*
X588770Y150337D01*
X589782Y152779D01*
X589959Y154130D01*
D02*
G37*
G36*
X328861Y153670D02*
X318770D01*
Y143579D01*
X320484Y143804D01*
X323264Y144956D01*
X325652Y146788D01*
X327484Y149176D01*
X328636Y151956D01*
X328861Y153670D01*
D02*
G37*
G36*
X316230D02*
X306139D01*
X306364Y151956D01*
X307516Y149176D01*
X309348Y146788D01*
X311736Y144956D01*
X314516Y143804D01*
X316230Y143579D01*
Y153670D01*
D02*
G37*
G36*
X18288D02*
X9599D01*
X9776Y152319D01*
X10788Y149877D01*
X12397Y147779D01*
X14495Y146170D01*
X16937Y145158D01*
X18288Y144981D01*
Y153670D01*
D02*
G37*
G36*
X578730Y154130D02*
X570041D01*
X570218Y152779D01*
X571230Y150337D01*
X572839Y148239D01*
X574937Y146630D01*
X577379Y145618D01*
X578730Y145441D01*
Y154130D01*
D02*
G37*
G36*
X29517Y153670D02*
X20828D01*
Y144981D01*
X22179Y145158D01*
X24621Y146170D01*
X26719Y147779D01*
X28328Y149877D01*
X29340Y152319D01*
X29517Y153670D01*
D02*
G37*
G36*
X125730Y151130D02*
X121604D01*
X121781Y150238D01*
X123006Y148406D01*
X124838Y147181D01*
X125730Y147004D01*
Y151130D01*
D02*
G37*
G36*
X462596Y11430D02*
X458470D01*
Y7304D01*
X459362Y7481D01*
X461194Y8706D01*
X462419Y10538D01*
X462596Y11430D01*
D02*
G37*
G36*
X208596Y151130D02*
X204470D01*
Y147004D01*
X205362Y147181D01*
X207194Y148406D01*
X208419Y150238D01*
X208596Y151130D01*
D02*
G37*
G36*
X455930Y11430D02*
X451804D01*
X451981Y10538D01*
X453206Y8706D01*
X455038Y7481D01*
X455930Y7304D01*
Y11430D01*
D02*
G37*
G36*
X52070Y157796D02*
Y153670D01*
X56196D01*
X56019Y154562D01*
X54794Y156394D01*
X52962Y157619D01*
X52070Y157796D01*
D02*
G37*
G36*
X49530D02*
X48638Y157619D01*
X46806Y156394D01*
X45581Y154562D01*
X45404Y153670D01*
X49530D01*
Y157796D01*
D02*
G37*
G36*
X201930Y151130D02*
X197804D01*
X197981Y150238D01*
X199206Y148406D01*
X201038Y147181D01*
X201930Y147004D01*
Y151130D01*
D02*
G37*
G36*
X151130D02*
X147004D01*
X147181Y150238D01*
X148406Y148406D01*
X150238Y147181D01*
X151130Y147004D01*
Y151130D01*
D02*
G37*
G36*
X132396D02*
X128270D01*
Y147004D01*
X129162Y147181D01*
X130994Y148406D01*
X132219Y150238D01*
X132396Y151130D01*
D02*
G37*
G36*
X157796D02*
X153670D01*
Y147004D01*
X154562Y147181D01*
X156394Y148406D01*
X157619Y150238D01*
X157796Y151130D01*
D02*
G37*
G36*
X183196D02*
X179070D01*
Y147004D01*
X179962Y147181D01*
X181794Y148406D01*
X183019Y150238D01*
X183196Y151130D01*
D02*
G37*
G36*
X176530D02*
X172404D01*
X172581Y150238D01*
X173806Y148406D01*
X175638Y147181D01*
X176530Y147004D01*
Y151130D01*
D02*
G37*
G36*
X229870Y106996D02*
Y102870D01*
X233996D01*
X233819Y103762D01*
X232594Y105594D01*
X230762Y106819D01*
X229870Y106996D01*
D02*
G37*
G36*
X49530Y49530D02*
X45404D01*
X45581Y48638D01*
X46806Y46806D01*
X48638Y45581D01*
X49530Y45404D01*
Y49530D01*
D02*
G37*
G36*
X394070Y62160D02*
X365210D01*
Y40920D01*
X394070D01*
Y62160D01*
D02*
G37*
G36*
X56196Y49530D02*
X52070D01*
Y45404D01*
X52962Y45581D01*
X54794Y46806D01*
X56019Y48638D01*
X56196Y49530D01*
D02*
G37*
G36*
X167561Y60096D02*
X158750D01*
Y51286D01*
X160132Y51468D01*
X162604Y52492D01*
X164726Y54120D01*
X166355Y56243D01*
X167379Y58714D01*
X167561Y60096D01*
D02*
G37*
G36*
X156210D02*
X147400D01*
X147582Y58714D01*
X148605Y56243D01*
X150234Y54120D01*
X152356Y52492D01*
X154828Y51468D01*
X156210Y51286D01*
Y60096D01*
D02*
G37*
G36*
X487996Y11430D02*
X483870D01*
Y7304D01*
X484762Y7481D01*
X486594Y8706D01*
X487819Y10538D01*
X487996Y11430D01*
D02*
G37*
G36*
X411480Y57713D02*
X408376Y57304D01*
X405484Y56106D01*
X403000Y54200D01*
X401094Y51716D01*
X399896Y48824D01*
X399487Y45720D01*
X399896Y42616D01*
X401094Y39724D01*
X403000Y37240D01*
X405484Y35334D01*
X408376Y34136D01*
X411480Y33727D01*
X414584Y34136D01*
X417476Y35334D01*
X419960Y37240D01*
X421866Y39724D01*
X423064Y42616D01*
X423473Y45720D01*
X423064Y48824D01*
X421866Y51716D01*
X419960Y54200D01*
X417476Y56106D01*
X414584Y57304D01*
X411480Y57713D01*
D02*
G37*
G36*
X120020Y55333D02*
X116916Y54924D01*
X114024Y53726D01*
X111540Y51820D01*
X109634Y49336D01*
X108436Y46444D01*
X108027Y43340D01*
X108436Y40236D01*
X109634Y37344D01*
X111540Y34860D01*
X114024Y32954D01*
X116916Y31756D01*
X120020Y31347D01*
X123124Y31756D01*
X126016Y32954D01*
X128500Y34860D01*
X130406Y37344D01*
X131604Y40236D01*
X132013Y43340D01*
X131604Y46444D01*
X130406Y49336D01*
X128500Y51820D01*
X126016Y53726D01*
X123124Y54924D01*
X120020Y55333D01*
D02*
G37*
G36*
X439420Y57713D02*
X436316Y57304D01*
X433424Y56106D01*
X430940Y54200D01*
X429034Y51716D01*
X427836Y48824D01*
X427427Y45720D01*
X427836Y42616D01*
X429034Y39724D01*
X430940Y37240D01*
X433424Y35334D01*
X436316Y34136D01*
X439420Y33727D01*
X442524Y34136D01*
X445416Y35334D01*
X447900Y37240D01*
X449806Y39724D01*
X451004Y42616D01*
X451413Y45720D01*
X451004Y48824D01*
X449806Y51716D01*
X447900Y54200D01*
X445416Y56106D01*
X442524Y57304D01*
X439420Y57713D01*
D02*
G37*
G36*
X224160Y57873D02*
X221056Y57464D01*
X218164Y56266D01*
X215680Y54360D01*
X213774Y51876D01*
X212576Y48984D01*
X212167Y45880D01*
X212576Y42776D01*
X213774Y39884D01*
X215680Y37400D01*
X218164Y35494D01*
X221056Y34296D01*
X224160Y33887D01*
X227264Y34296D01*
X230156Y35494D01*
X232640Y37400D01*
X234546Y39884D01*
X235744Y42776D01*
X236153Y45880D01*
X235744Y48984D01*
X234546Y51876D01*
X232640Y54360D01*
X230156Y56266D01*
X227264Y57464D01*
X224160Y57873D01*
D02*
G37*
G36*
X195896Y62230D02*
X185104D01*
X185281Y61338D01*
X186506Y59506D01*
X188338Y58281D01*
X190500Y57852D01*
X190948Y57941D01*
X191319Y56719D01*
X190224Y56266D01*
X187740Y54360D01*
X185834Y51876D01*
X184636Y48984D01*
X184227Y45880D01*
X184636Y42776D01*
X185834Y39884D01*
X187740Y37400D01*
X190224Y35494D01*
X193116Y34296D01*
X196220Y33887D01*
X199324Y34296D01*
X202216Y35494D01*
X204700Y37400D01*
X206606Y39884D01*
X207804Y42776D01*
X208213Y45880D01*
X207804Y48984D01*
X206606Y51876D01*
X204700Y54360D01*
X202216Y56266D01*
X199324Y57464D01*
X196220Y57873D01*
X193873Y57564D01*
X193414Y58784D01*
X194494Y59506D01*
X195719Y61338D01*
X195896Y62230D01*
D02*
G37*
G36*
X24130Y56196D02*
X23238Y56019D01*
X21406Y54794D01*
X20181Y52962D01*
X20004Y52070D01*
X24130D01*
Y56196D01*
D02*
G37*
G36*
X156210Y71447D02*
X154828Y71265D01*
X152356Y70241D01*
X150234Y68613D01*
X148605Y66490D01*
X147582Y64019D01*
X147400Y62636D01*
X156210D01*
Y71447D01*
D02*
G37*
G36*
X43496Y62230D02*
X39370D01*
Y58104D01*
X40262Y58281D01*
X42094Y59506D01*
X43319Y61338D01*
X43496Y62230D01*
D02*
G37*
G36*
X158750Y71447D02*
Y62636D01*
X167561D01*
X167379Y64019D01*
X166355Y66490D01*
X164726Y68613D01*
X162604Y70241D01*
X160132Y71265D01*
X158750Y71447D01*
D02*
G37*
G36*
X36830Y68896D02*
X35938Y68719D01*
X34106Y67494D01*
X32881Y65662D01*
X32704Y64770D01*
X36830D01*
Y68896D01*
D02*
G37*
G36*
X481330Y11430D02*
X477204D01*
X477381Y10538D01*
X478606Y8706D01*
X480438Y7481D01*
X481330Y7304D01*
Y11430D01*
D02*
G37*
G36*
X36830Y62230D02*
X32704D01*
X32881Y61338D01*
X34106Y59506D01*
X35938Y58281D01*
X36830Y58104D01*
Y62230D01*
D02*
G37*
G36*
X49530Y56196D02*
X48638Y56019D01*
X46806Y54794D01*
X45581Y52962D01*
X45404Y52070D01*
X49530D01*
Y56196D01*
D02*
G37*
G36*
X26670D02*
Y52070D01*
X30796D01*
X30619Y52962D01*
X29394Y54794D01*
X27562Y56019D01*
X26670Y56196D01*
D02*
G37*
G36*
X52070D02*
Y52070D01*
X56196D01*
X56019Y52962D01*
X54794Y54794D01*
X52962Y56019D01*
X52070Y56196D01*
D02*
G37*
G36*
X244348Y166554D02*
X241868Y166227D01*
X239557Y165270D01*
X237573Y163748D01*
X236050Y161763D01*
X235093Y159452D01*
X234766Y156972D01*
X235093Y154492D01*
X236050Y152181D01*
X237573Y150197D01*
X237691Y150106D01*
X237871Y149914D01*
X238059Y149678D01*
X238221Y149433D01*
X238362Y149175D01*
X238484Y148898D01*
X238587Y148597D01*
X238670Y148268D01*
X238734Y147906D01*
X238740Y147840D01*
Y81978D01*
X239167Y79832D01*
X240383Y78013D01*
X250453Y67943D01*
X250580Y67780D01*
X250812Y67424D01*
X251012Y67050D01*
X251182Y66655D01*
X251324Y66231D01*
X251437Y65775D01*
X251518Y65282D01*
X251567Y64748D01*
X251577Y64288D01*
X251548Y64066D01*
X251913Y61294D01*
X252983Y58711D01*
X254686Y56492D01*
X256904Y54790D01*
X259488Y53720D01*
X262260Y53355D01*
X265032Y53720D01*
X267616Y54790D01*
X269834Y56492D01*
X271537Y58711D01*
X272607Y61294D01*
X272972Y64066D01*
X272607Y66839D01*
X271537Y69422D01*
X269834Y71641D01*
X267616Y73343D01*
X265032Y74413D01*
X262260Y74778D01*
X262038Y74749D01*
X261579Y74759D01*
X261045Y74808D01*
X260552Y74890D01*
X260095Y75002D01*
X259672Y75144D01*
X259276Y75314D01*
X258902Y75514D01*
X258546Y75747D01*
X258384Y75873D01*
X249956Y84301D01*
Y147840D01*
X249962Y147906D01*
X250026Y148268D01*
X250110Y148598D01*
X250212Y148898D01*
X250334Y149174D01*
X250475Y149433D01*
X250637Y149677D01*
X250825Y149914D01*
X251005Y150106D01*
X251123Y150197D01*
X252646Y152181D01*
X253603Y154492D01*
X253930Y156972D01*
X253603Y159452D01*
X252646Y161763D01*
X251123Y163748D01*
X249139Y165270D01*
X246828Y166227D01*
X244348Y166554D01*
D02*
G37*
G36*
X81920Y74778D02*
X79148Y74413D01*
X76564Y73343D01*
X74346Y71641D01*
X72643Y69422D01*
X71573Y66839D01*
X71208Y64066D01*
X71573Y61294D01*
X72643Y58711D01*
X74346Y56492D01*
X76564Y54790D01*
X79148Y53720D01*
X81920Y53355D01*
X84692Y53720D01*
X87276Y54790D01*
X89494Y56492D01*
X91196Y58711D01*
X92267Y61294D01*
X92632Y64066D01*
X92267Y66839D01*
X91196Y69422D01*
X89494Y71641D01*
X87276Y73343D01*
X84692Y74413D01*
X81920Y74778D01*
D02*
G37*
G36*
X570000Y48087D02*
X566471Y47740D01*
X563078Y46710D01*
X559951Y45039D01*
X557211Y42790D01*
X554961Y40049D01*
X553290Y36922D01*
X552261Y33529D01*
X551913Y30000D01*
X552261Y26471D01*
X553290Y23078D01*
X554961Y19951D01*
X557211Y17211D01*
X559951Y14961D01*
X563078Y13290D01*
X566471Y12261D01*
X570000Y11913D01*
X573529Y12261D01*
X576922Y13290D01*
X580049Y14961D01*
X582789Y17211D01*
X585039Y19951D01*
X586710Y23078D01*
X587739Y26471D01*
X588087Y30000D01*
X587739Y33529D01*
X586710Y36922D01*
X585039Y40049D01*
X582789Y42790D01*
X580049Y45039D01*
X576922Y46710D01*
X573529Y47740D01*
X570000Y48087D01*
D02*
G37*
G36*
X30796Y49530D02*
X20004D01*
X20181Y48638D01*
X21184Y47138D01*
X21055Y45629D01*
X19951Y45039D01*
X17211Y42790D01*
X14961Y40049D01*
X13290Y36922D01*
X12261Y33529D01*
X11913Y30000D01*
X12261Y26471D01*
X13290Y23078D01*
X14961Y19951D01*
X17211Y17211D01*
X19951Y14961D01*
X23078Y13290D01*
X26471Y12261D01*
X30000Y11913D01*
X33529Y12261D01*
X36922Y13290D01*
X40049Y14961D01*
X42790Y17211D01*
X45039Y19951D01*
X46710Y23078D01*
X47740Y26471D01*
X48087Y30000D01*
X47740Y33529D01*
X46710Y36922D01*
X45039Y40049D01*
X42790Y42790D01*
X40049Y45039D01*
X36922Y46710D01*
X33529Y47740D01*
X31559Y47934D01*
X30748Y49290D01*
X30796Y49530D01*
D02*
G37*
G36*
X405130Y18096D02*
X404238Y17919D01*
X402406Y16694D01*
X401181Y14862D01*
X401004Y13970D01*
X405130D01*
Y18096D01*
D02*
G37*
G36*
X430530D02*
X429638Y17919D01*
X427806Y16694D01*
X426581Y14862D01*
X426404Y13970D01*
X430530D01*
Y18096D01*
D02*
G37*
G36*
X407670D02*
Y13970D01*
X411796D01*
X411619Y14862D01*
X410394Y16694D01*
X408562Y17919D01*
X407670Y18096D01*
D02*
G37*
G36*
X379661Y19050D02*
X369570D01*
Y8959D01*
X371284Y9184D01*
X374064Y10336D01*
X376452Y12168D01*
X378284Y14556D01*
X379436Y17336D01*
X379661Y19050D01*
D02*
G37*
G36*
X532130Y11430D02*
X528004D01*
X528181Y10538D01*
X529406Y8706D01*
X531238Y7481D01*
X532130Y7304D01*
Y11430D01*
D02*
G37*
G36*
X513396D02*
X509270D01*
Y7304D01*
X510162Y7481D01*
X511994Y8706D01*
X513219Y10538D01*
X513396Y11430D01*
D02*
G37*
G36*
X538796D02*
X534670D01*
Y7304D01*
X535562Y7481D01*
X537394Y8706D01*
X538619Y10538D01*
X538796Y11430D01*
D02*
G37*
G36*
X367030Y19050D02*
X356939D01*
X357164Y17336D01*
X358316Y14556D01*
X360148Y12168D01*
X362536Y10336D01*
X365316Y9184D01*
X367030Y8959D01*
Y19050D01*
D02*
G37*
G36*
X307250Y62252D02*
X299630D01*
X296858Y61887D01*
X294274Y60817D01*
X292056Y59114D01*
X290353Y56896D01*
X289283Y54312D01*
X288918Y51540D01*
X289283Y48768D01*
X290353Y46184D01*
X292056Y43966D01*
X294274Y42263D01*
X294530Y42158D01*
X294748Y41438D01*
X295003Y40156D01*
X295339Y36525D01*
X295371Y34877D01*
Y34380D01*
X295646Y32292D01*
X296452Y30345D01*
X297734Y28674D01*
X303079Y23330D01*
X304014Y22345D01*
X304896Y21283D01*
X305177Y20891D01*
X305391Y20553D01*
X305509Y20330D01*
X305507Y20320D01*
X305916Y17216D01*
X307114Y14324D01*
X309020Y11840D01*
X311504Y9934D01*
X314396Y8736D01*
X317500Y8327D01*
X320604Y8736D01*
X323496Y9934D01*
X325980Y11840D01*
X327886Y14324D01*
X329084Y17216D01*
X329493Y20320D01*
X329084Y23424D01*
X327886Y26316D01*
X325980Y28800D01*
X323496Y30706D01*
X320604Y31904D01*
X317500Y32313D01*
X317490Y32311D01*
X317267Y32429D01*
X316929Y32643D01*
X316560Y32908D01*
X314842Y34390D01*
X314808Y34423D01*
X311611Y37621D01*
X311667Y38481D01*
X311868Y40111D01*
X312132Y41438D01*
X312350Y42158D01*
X312606Y42263D01*
X314824Y43966D01*
X316527Y46184D01*
X317597Y48768D01*
X317962Y51540D01*
X317597Y54312D01*
X316527Y56896D01*
X314824Y59114D01*
X312606Y60817D01*
X310022Y61887D01*
X307250Y62252D01*
D02*
G37*
G36*
X433070Y18096D02*
Y13970D01*
X437196D01*
X437019Y14862D01*
X435794Y16694D01*
X433962Y17919D01*
X433070Y18096D01*
D02*
G37*
G36*
X534670D02*
Y13970D01*
X538796D01*
X538619Y14862D01*
X537394Y16694D01*
X535562Y17919D01*
X534670Y18096D01*
D02*
G37*
G36*
X532130D02*
X531238Y17919D01*
X529406Y16694D01*
X528181Y14862D01*
X528004Y13970D01*
X532130D01*
Y18096D01*
D02*
G37*
G36*
X506730Y11430D02*
X502604D01*
X502781Y10538D01*
X504006Y8706D01*
X505838Y7481D01*
X506730Y7304D01*
Y11430D01*
D02*
G37*
G36*
X369570Y31681D02*
Y21590D01*
X379661D01*
X379436Y23304D01*
X378284Y26084D01*
X376452Y28472D01*
X374064Y30304D01*
X371284Y31456D01*
X369570Y31681D01*
D02*
G37*
G36*
X367030D02*
X365316Y31456D01*
X362536Y30304D01*
X360148Y28472D01*
X358316Y26084D01*
X357164Y23304D01*
X356939Y21590D01*
X367030D01*
Y31681D01*
D02*
G37*
G36*
X509270Y18096D02*
Y13970D01*
X513396D01*
X513219Y14862D01*
X511994Y16694D01*
X510162Y17919D01*
X509270Y18096D01*
D02*
G37*
G36*
X458470D02*
Y13970D01*
X462596D01*
X462419Y14862D01*
X461194Y16694D01*
X459362Y17919D01*
X458470Y18096D01*
D02*
G37*
G36*
X455930D02*
X455038Y17919D01*
X453206Y16694D01*
X451981Y14862D01*
X451804Y13970D01*
X455930D01*
Y18096D01*
D02*
G37*
G36*
X481330D02*
X480438Y17919D01*
X478606Y16694D01*
X477381Y14862D01*
X477204Y13970D01*
X481330D01*
Y18096D01*
D02*
G37*
G36*
X506730D02*
X505838Y17919D01*
X504006Y16694D01*
X502781Y14862D01*
X502604Y13970D01*
X506730D01*
Y18096D01*
D02*
G37*
G36*
X483870D02*
Y13970D01*
X487996D01*
X487819Y14862D01*
X486594Y16694D01*
X484762Y17919D01*
X483870Y18096D01*
D02*
G37*
G36*
X39370Y68896D02*
Y64770D01*
X43496D01*
X43319Y65662D01*
X42094Y67494D01*
X40262Y68719D01*
X39370Y68896D01*
D02*
G37*
G36*
X378370Y101070D02*
X365750D01*
X365932Y99688D01*
X366955Y97216D01*
X368584Y95094D01*
X370706Y93465D01*
X373178Y92442D01*
X375830Y92092D01*
X378370D01*
Y101070D01*
D02*
G37*
G36*
X307250Y113052D02*
X299630D01*
X296858Y112687D01*
X294274Y111617D01*
X292056Y109914D01*
X290353Y107696D01*
X289283Y105112D01*
X288918Y102340D01*
X289283Y99568D01*
X290353Y96984D01*
X292056Y94766D01*
X294274Y93063D01*
X296858Y91993D01*
X299630Y91628D01*
X307250D01*
X310022Y91993D01*
X312606Y93063D01*
X314824Y94766D01*
X316527Y96984D01*
X317597Y99568D01*
X317962Y102340D01*
X317597Y105112D01*
X316527Y107696D01*
X314824Y109914D01*
X312606Y111617D01*
X310022Y112687D01*
X307250Y113052D01*
D02*
G37*
G36*
X393531Y101070D02*
X380910D01*
Y92092D01*
X383450D01*
X386102Y92442D01*
X388574Y93465D01*
X390696Y95094D01*
X392325Y97216D01*
X393349Y99688D01*
X393531Y101070D01*
D02*
G37*
G36*
X30796Y100330D02*
X26670D01*
Y96204D01*
X27562Y96381D01*
X29394Y97606D01*
X30619Y99438D01*
X30796Y100330D01*
D02*
G37*
G36*
X24130D02*
X20004D01*
X20181Y99438D01*
X21406Y97606D01*
X23238Y96381D01*
X24130Y96204D01*
Y100330D01*
D02*
G37*
G36*
X204470Y94296D02*
Y90170D01*
X208596D01*
X208419Y91062D01*
X207194Y92894D01*
X205362Y94119D01*
X204470Y94296D01*
D02*
G37*
G36*
X39370D02*
Y90170D01*
X43496D01*
X43319Y91062D01*
X42094Y92894D01*
X40262Y94119D01*
X39370Y94296D01*
D02*
G37*
G36*
X36830D02*
X35938Y94119D01*
X34106Y92894D01*
X32881Y91062D01*
X32704Y90170D01*
X36830D01*
Y94296D01*
D02*
G37*
G36*
X176530D02*
X175638Y94119D01*
X173806Y92894D01*
X172581Y91062D01*
X172404Y90170D01*
X176530D01*
Y94296D01*
D02*
G37*
G36*
X201930D02*
X201038Y94119D01*
X199206Y92894D01*
X197981Y91062D01*
X197804Y90170D01*
X201930D01*
Y94296D01*
D02*
G37*
G36*
X179070D02*
Y90170D01*
X183196D01*
X183019Y91062D01*
X181794Y92894D01*
X179962Y94119D01*
X179070Y94296D01*
D02*
G37*
G36*
X49530Y100330D02*
X45404D01*
X45581Y99438D01*
X46806Y97606D01*
X48638Y96381D01*
X49530Y96204D01*
Y100330D01*
D02*
G37*
G36*
X26670Y106996D02*
Y102870D01*
X30796D01*
X30619Y103762D01*
X29394Y105594D01*
X27562Y106819D01*
X26670Y106996D01*
D02*
G37*
G36*
X24130D02*
X23238Y106819D01*
X21406Y105594D01*
X20181Y103762D01*
X20004Y102870D01*
X24130D01*
Y106996D01*
D02*
G37*
G36*
X49530D02*
X48638Y106819D01*
X46806Y105594D01*
X45581Y103762D01*
X45404Y102870D01*
X49530D01*
Y106996D01*
D02*
G37*
G36*
X227330D02*
X226438Y106819D01*
X224606Y105594D01*
X223381Y103762D01*
X223204Y102870D01*
X227330D01*
Y106996D01*
D02*
G37*
G36*
X52070D02*
Y102870D01*
X56196D01*
X56019Y103762D01*
X54794Y105594D01*
X52962Y106819D01*
X52070Y106996D01*
D02*
G37*
G36*
X157796Y125730D02*
X147004D01*
X147181Y124838D01*
X148406Y123006D01*
X150238Y121781D01*
X151271Y121576D01*
X151587Y120218D01*
X149906Y118928D01*
X148203Y116709D01*
X147133Y114126D01*
X146768Y111354D01*
X147133Y108581D01*
X148203Y105998D01*
X149906Y103779D01*
X152124Y102077D01*
X154708Y101007D01*
X157480Y100642D01*
X160252Y101007D01*
X162836Y102077D01*
X165054Y103779D01*
X166757Y105998D01*
X167827Y108581D01*
X168192Y111354D01*
X167827Y114126D01*
X166757Y116709D01*
X165054Y118928D01*
X162836Y120630D01*
X160252Y121700D01*
X157480Y122065D01*
X157148Y122022D01*
X156848Y122413D01*
X156539Y123222D01*
X157619Y124838D01*
X157796Y125730D01*
D02*
G37*
G36*
X227330Y100330D02*
X223204D01*
X223381Y99438D01*
X224606Y97606D01*
X226438Y96381D01*
X227330Y96204D01*
Y100330D01*
D02*
G37*
G36*
X56196D02*
X52070D01*
Y96204D01*
X52962Y96381D01*
X54794Y97606D01*
X56019Y99438D01*
X56196Y100330D01*
D02*
G37*
G36*
X233996D02*
X229870D01*
Y96204D01*
X230762Y96381D01*
X232594Y97606D01*
X233819Y99438D01*
X233996Y100330D01*
D02*
G37*
G36*
X475296D02*
X471170D01*
Y96204D01*
X472062Y96381D01*
X473894Y97606D01*
X475119Y99438D01*
X475296Y100330D01*
D02*
G37*
G36*
X468630D02*
X464504D01*
X464681Y99438D01*
X465906Y97606D01*
X467738Y96381D01*
X468630Y96204D01*
Y100330D01*
D02*
G37*
G36*
X49530Y74930D02*
X45404D01*
X45581Y74038D01*
X46806Y72206D01*
X48638Y70981D01*
X49530Y70804D01*
Y74930D01*
D02*
G37*
G36*
X30796D02*
X26670D01*
Y70804D01*
X27562Y70981D01*
X29394Y72206D01*
X30619Y74038D01*
X30796Y74930D01*
D02*
G37*
G36*
X56196D02*
X52070D01*
Y70804D01*
X52962Y70981D01*
X54794Y72206D01*
X56019Y74038D01*
X56196Y74930D01*
D02*
G37*
G36*
X449896D02*
X445770D01*
Y70804D01*
X446662Y70981D01*
X448494Y72206D01*
X449719Y74038D01*
X449896Y74930D01*
D02*
G37*
G36*
X443230D02*
X439104D01*
X439281Y74038D01*
X440506Y72206D01*
X442338Y70981D01*
X443230Y70804D01*
Y74930D01*
D02*
G37*
G36*
X24130D02*
X20004D01*
X20181Y74038D01*
X21406Y72206D01*
X23238Y70981D01*
X24130Y70804D01*
Y74930D01*
D02*
G37*
G36*
X191770Y68896D02*
Y64770D01*
X195896D01*
X195719Y65662D01*
X194494Y67494D01*
X192662Y68719D01*
X191770Y68896D01*
D02*
G37*
G36*
X189230D02*
X188338Y68719D01*
X186506Y67494D01*
X185281Y65662D01*
X185104Y64770D01*
X189230D01*
Y68896D01*
D02*
G37*
G36*
X307250Y87652D02*
X299630D01*
X296858Y87287D01*
X294274Y86217D01*
X292056Y84514D01*
X290353Y82296D01*
X289283Y79712D01*
X288918Y76940D01*
X289283Y74168D01*
X290353Y71584D01*
X292056Y69366D01*
X294274Y67663D01*
X296858Y66593D01*
X299630Y66228D01*
X307250D01*
X310022Y66593D01*
X312606Y67663D01*
X314824Y69366D01*
X316527Y71584D01*
X317597Y74168D01*
X317962Y76940D01*
X317597Y79712D01*
X316527Y82296D01*
X314824Y84514D01*
X312606Y86217D01*
X310022Y87287D01*
X307250Y87652D01*
D02*
G37*
G36*
X500253Y90214D02*
X490093D01*
X487321Y89849D01*
X484737Y88779D01*
X482519Y87076D01*
X480816Y84858D01*
X479746Y82274D01*
X479381Y79502D01*
X479746Y76730D01*
X480816Y74146D01*
X482519Y71928D01*
X484737Y70225D01*
X487321Y69155D01*
X490093Y68790D01*
X500253D01*
X503025Y69155D01*
X505609Y70225D01*
X507827Y71928D01*
X509530Y74146D01*
X510600Y76730D01*
X510965Y79502D01*
X510600Y82274D01*
X509530Y84858D01*
X507827Y87076D01*
X505609Y88779D01*
X503025Y89849D01*
X500253Y90214D01*
D02*
G37*
G36*
X383450Y87652D02*
X375830D01*
X373058Y87287D01*
X370474Y86217D01*
X368256Y84514D01*
X366553Y82296D01*
X365483Y79712D01*
X365118Y76940D01*
X365483Y74168D01*
X366553Y71584D01*
X368256Y69366D01*
X370474Y67663D01*
X373058Y66593D01*
X375830Y66228D01*
X383450D01*
X386222Y66593D01*
X388806Y67663D01*
X391024Y69366D01*
X392727Y71584D01*
X393797Y74168D01*
X394162Y76940D01*
X393797Y79712D01*
X392727Y82296D01*
X391024Y84514D01*
X388806Y86217D01*
X386222Y87287D01*
X383450Y87652D01*
D02*
G37*
G36*
X24130Y81596D02*
X23238Y81419D01*
X21406Y80194D01*
X20181Y78362D01*
X20004Y77470D01*
X24130D01*
Y81596D01*
D02*
G37*
G36*
X176530Y87630D02*
X172404D01*
X172581Y86738D01*
X173806Y84906D01*
X175638Y83681D01*
X176530Y83504D01*
Y87630D01*
D02*
G37*
G36*
X43496D02*
X39370D01*
Y83504D01*
X40262Y83681D01*
X42094Y84906D01*
X43319Y86738D01*
X43496Y87630D01*
D02*
G37*
G36*
X183196D02*
X179070D01*
Y83504D01*
X179962Y83681D01*
X181794Y84906D01*
X183019Y86738D01*
X183196Y87630D01*
D02*
G37*
G36*
X208596D02*
X204470D01*
Y83504D01*
X205362Y83681D01*
X207194Y84906D01*
X208419Y86738D01*
X208596Y87630D01*
D02*
G37*
G36*
X201930D02*
X197804D01*
X197981Y86738D01*
X199206Y84906D01*
X201038Y83681D01*
X201930Y83504D01*
Y87630D01*
D02*
G37*
G36*
X36830D02*
X32704D01*
X32881Y86738D01*
X34106Y84906D01*
X35938Y83681D01*
X36830Y83504D01*
Y87630D01*
D02*
G37*
G36*
X49530Y81596D02*
X48638Y81419D01*
X46806Y80194D01*
X45581Y78362D01*
X45404Y77470D01*
X49530D01*
Y81596D01*
D02*
G37*
G36*
X26670D02*
Y77470D01*
X30796D01*
X30619Y78362D01*
X29394Y80194D01*
X27562Y81419D01*
X26670Y81596D01*
D02*
G37*
G36*
X52070D02*
Y77470D01*
X56196D01*
X56019Y78362D01*
X54794Y80194D01*
X52962Y81419D01*
X52070Y81596D01*
D02*
G37*
G36*
X445770D02*
Y77470D01*
X449896D01*
X449719Y78362D01*
X448494Y80194D01*
X446662Y81419D01*
X445770Y81596D01*
D02*
G37*
G36*
X443230D02*
X442338Y81419D01*
X440506Y80194D01*
X439281Y78362D01*
X439104Y77470D01*
X443230D01*
Y81596D01*
D02*
G37*
G36*
X46036Y192532D02*
X41910D01*
Y188406D01*
X42802Y188583D01*
X44634Y189808D01*
X45859Y191640D01*
X46036Y192532D01*
D02*
G37*
G36*
X74930Y303530D02*
X70804D01*
X70981Y302638D01*
X72206Y300806D01*
X74038Y299581D01*
X74930Y299404D01*
Y303530D01*
D02*
G37*
G36*
X56196D02*
X52070D01*
Y299404D01*
X52962Y299581D01*
X54794Y300806D01*
X56019Y302638D01*
X56196Y303530D01*
D02*
G37*
G36*
X81596D02*
X77470D01*
Y299404D01*
X78362Y299581D01*
X80194Y300806D01*
X81419Y302638D01*
X81596Y303530D01*
D02*
G37*
G36*
X106996D02*
X102870D01*
Y299404D01*
X103762Y299581D01*
X105594Y300806D01*
X106819Y302638D01*
X106996Y303530D01*
D02*
G37*
G36*
X100330D02*
X96204D01*
X96381Y302638D01*
X97606Y300806D01*
X99438Y299581D01*
X100330Y299404D01*
Y303530D01*
D02*
G37*
G36*
X49530D02*
X45404D01*
X45581Y302638D01*
X46806Y300806D01*
X48638Y299581D01*
X49530Y299404D01*
Y303530D01*
D02*
G37*
G36*
X530400Y315293D02*
X527296Y314884D01*
X524404Y313686D01*
X521920Y311780D01*
X520014Y309296D01*
X518816Y306404D01*
X518407Y303300D01*
X518816Y300196D01*
X520014Y297304D01*
X521920Y294820D01*
X524404Y292914D01*
X527296Y291716D01*
X530400Y291307D01*
X533504Y291716D01*
X536396Y292914D01*
X538880Y294820D01*
X540786Y297304D01*
X541984Y300196D01*
X542393Y303300D01*
X541984Y306404D01*
X540786Y309296D01*
X538880Y311780D01*
X536396Y313686D01*
X533504Y314884D01*
X530400Y315293D01*
D02*
G37*
G36*
X318190Y299230D02*
X305570D01*
Y290252D01*
X308110D01*
X310762Y290602D01*
X313234Y291625D01*
X315356Y293254D01*
X316985Y295376D01*
X318008Y297848D01*
X318190Y299230D01*
D02*
G37*
G36*
X410400Y316393D02*
X407296Y315984D01*
X404404Y314786D01*
X401920Y312880D01*
X400014Y310396D01*
X398816Y307504D01*
X398407Y304400D01*
X398816Y301296D01*
X400014Y298404D01*
X401920Y295920D01*
X404404Y294014D01*
X407296Y292816D01*
X410400Y292407D01*
X413504Y292816D01*
X416396Y294014D01*
X418880Y295920D01*
X420786Y298404D01*
X421984Y301296D01*
X422393Y304400D01*
X421984Y307504D01*
X420786Y310396D01*
X418880Y312880D01*
X416396Y314786D01*
X413504Y315984D01*
X410400Y316393D01*
D02*
G37*
G36*
X167640Y321873D02*
X164536Y321464D01*
X161644Y320266D01*
X159160Y318360D01*
X157254Y315876D01*
X156056Y312984D01*
X155647Y309880D01*
X156056Y306776D01*
X157254Y303884D01*
X159160Y301400D01*
X161644Y299494D01*
X164536Y298296D01*
X167640Y297887D01*
X170744Y298296D01*
X173636Y299494D01*
X176120Y301400D01*
X178026Y303884D01*
X179224Y306776D01*
X179633Y309880D01*
X179224Y312984D01*
X178026Y315876D01*
X176120Y318360D01*
X173636Y320266D01*
X170744Y321464D01*
X167640Y321873D01*
D02*
G37*
G36*
X274960Y319493D02*
X271856Y319084D01*
X268964Y317886D01*
X266480Y315980D01*
X264574Y313496D01*
X263376Y310604D01*
X262967Y307500D01*
X263376Y304396D01*
X264574Y301504D01*
X266480Y299020D01*
X268964Y297114D01*
X271856Y295916D01*
X274960Y295507D01*
X278064Y295916D01*
X280956Y297114D01*
X283440Y299020D01*
X285346Y301504D01*
X286544Y304396D01*
X286953Y307500D01*
X286544Y310604D01*
X285346Y313496D01*
X283440Y315980D01*
X280956Y317886D01*
X278064Y319084D01*
X274960Y319493D01*
D02*
G37*
G36*
X341630Y303530D02*
X337504D01*
X337681Y302638D01*
X338906Y300806D01*
X340738Y299581D01*
X341630Y299404D01*
Y303530D01*
D02*
G37*
G36*
X100330Y310196D02*
X99438Y310019D01*
X97606Y308794D01*
X96381Y306962D01*
X96204Y306070D01*
X100330D01*
Y310196D01*
D02*
G37*
G36*
X77470D02*
Y306070D01*
X81596D01*
X81419Y306962D01*
X80194Y308794D01*
X78362Y310019D01*
X77470Y310196D01*
D02*
G37*
G36*
X102870D02*
Y306070D01*
X106996D01*
X106819Y306962D01*
X105594Y308794D01*
X103762Y310019D01*
X102870Y310196D01*
D02*
G37*
G36*
X344170D02*
Y306070D01*
X348296D01*
X348119Y306962D01*
X346894Y308794D01*
X345062Y310019D01*
X344170Y310196D01*
D02*
G37*
G36*
X341630D02*
X340738Y310019D01*
X338906Y308794D01*
X337681Y306962D01*
X337504Y306070D01*
X341630D01*
Y310196D01*
D02*
G37*
G36*
X74930D02*
X74038Y310019D01*
X72206Y308794D01*
X70981Y306962D01*
X70804Y306070D01*
X74930D01*
Y310196D01*
D02*
G37*
G36*
X303030Y310748D02*
X300490D01*
X297838Y310399D01*
X295366Y309375D01*
X293244Y307746D01*
X291615Y305624D01*
X290592Y303152D01*
X290410Y301770D01*
X303030D01*
Y310748D01*
D02*
G37*
G36*
X348296Y303530D02*
X344170D01*
Y299404D01*
X345062Y299581D01*
X346894Y300806D01*
X348119Y302638D01*
X348296Y303530D01*
D02*
G37*
G36*
X308110Y310748D02*
X305570D01*
Y301770D01*
X318190D01*
X318008Y303152D01*
X316985Y305624D01*
X315356Y307746D01*
X313234Y309375D01*
X310762Y310399D01*
X308110Y310748D01*
D02*
G37*
G36*
X52070Y310196D02*
Y306070D01*
X56196D01*
X56019Y306962D01*
X54794Y308794D01*
X52962Y310019D01*
X52070Y310196D01*
D02*
G37*
G36*
X49530D02*
X48638Y310019D01*
X46806Y308794D01*
X45581Y306962D01*
X45404Y306070D01*
X49530D01*
Y310196D01*
D02*
G37*
G36*
X102870Y284796D02*
Y280670D01*
X106996D01*
X106819Y281562D01*
X105594Y283394D01*
X103762Y284619D01*
X102870Y284796D01*
D02*
G37*
G36*
X100330D02*
X99438Y284619D01*
X97606Y283394D01*
X96381Y281562D01*
X96204Y280670D01*
X100330D01*
Y284796D01*
D02*
G37*
G36*
X138430D02*
X137538Y284619D01*
X135706Y283394D01*
X134481Y281562D01*
X134304Y280670D01*
X138430D01*
Y284796D01*
D02*
G37*
G36*
X163830D02*
X162938Y284619D01*
X161106Y283394D01*
X159881Y281562D01*
X159704Y280670D01*
X163830D01*
Y284796D01*
D02*
G37*
G36*
X140970D02*
Y280670D01*
X145096D01*
X144919Y281562D01*
X143694Y283394D01*
X141862Y284619D01*
X140970Y284796D01*
D02*
G37*
G36*
X77470D02*
Y280670D01*
X81596D01*
X81419Y281562D01*
X80194Y283394D01*
X78362Y284619D01*
X77470Y284796D01*
D02*
G37*
G36*
X384310Y285348D02*
X381770D01*
Y276370D01*
X394390D01*
X394208Y277752D01*
X393185Y280224D01*
X391556Y282346D01*
X389434Y283975D01*
X386962Y284998D01*
X384310Y285348D01*
D02*
G37*
G36*
X379230D02*
X376690D01*
X374038Y284998D01*
X371566Y283975D01*
X369444Y282346D01*
X367815Y280224D01*
X366791Y277752D01*
X366609Y276370D01*
X379230D01*
Y285348D01*
D02*
G37*
G36*
X49530Y284796D02*
X48638Y284619D01*
X46806Y283394D01*
X45581Y281562D01*
X45404Y280670D01*
X49530D01*
Y284796D01*
D02*
G37*
G36*
X74930D02*
X74038Y284619D01*
X72206Y283394D01*
X70981Y281562D01*
X70804Y280670D01*
X74930D01*
Y284796D01*
D02*
G37*
G36*
X52070D02*
Y280670D01*
X56196D01*
X56019Y281562D01*
X54794Y283394D01*
X52962Y284619D01*
X52070Y284796D01*
D02*
G37*
G36*
X166370D02*
Y280670D01*
X170496D01*
X170319Y281562D01*
X169094Y283394D01*
X167262Y284619D01*
X166370Y284796D01*
D02*
G37*
G36*
X196626Y305512D02*
X193854Y305147D01*
X191271Y304077D01*
X189052Y302374D01*
X187350Y300156D01*
X186280Y297572D01*
X185915Y294800D01*
X186280Y292028D01*
X187350Y289444D01*
X189052Y287226D01*
X191271Y285523D01*
X193854Y284453D01*
X196626Y284088D01*
X199399Y284453D01*
X201982Y285523D01*
X204201Y287226D01*
X205903Y289444D01*
X206973Y292028D01*
X207338Y294800D01*
X206973Y297572D01*
X205903Y300156D01*
X204201Y302374D01*
X201982Y304077D01*
X199399Y305147D01*
X196626Y305512D01*
D02*
G37*
G36*
X495394Y305112D02*
X492621Y304747D01*
X490038Y303677D01*
X487819Y301974D01*
X486117Y299756D01*
X485047Y297172D01*
X484682Y294400D01*
X485047Y291628D01*
X486117Y289044D01*
X487819Y286826D01*
X490038Y285123D01*
X492621Y284053D01*
X495394Y283688D01*
X498166Y284053D01*
X500749Y285123D01*
X502968Y286826D01*
X504670Y289044D01*
X505740Y291628D01*
X506105Y294400D01*
X505740Y297172D01*
X504670Y299756D01*
X502968Y301974D01*
X500749Y303677D01*
X498166Y304747D01*
X495394Y305112D01*
D02*
G37*
G36*
X246614Y305512D02*
X243841Y305147D01*
X241258Y304077D01*
X239039Y302374D01*
X237337Y300156D01*
X236267Y297572D01*
X235902Y294800D01*
X236267Y292028D01*
X237337Y289444D01*
X239039Y287226D01*
X241258Y285523D01*
X243841Y284453D01*
X246614Y284088D01*
X249386Y284453D01*
X251969Y285523D01*
X254188Y287226D01*
X255890Y289444D01*
X256960Y292028D01*
X257325Y294800D01*
X256960Y297572D01*
X255890Y300156D01*
X254188Y302374D01*
X251969Y304077D01*
X249386Y305147D01*
X246614Y305512D01*
D02*
G37*
G36*
X303030Y299230D02*
X290410D01*
X290592Y297848D01*
X291615Y295376D01*
X293244Y293254D01*
X295366Y291625D01*
X297838Y290602D01*
X300490Y290252D01*
X303030D01*
Y299230D01*
D02*
G37*
G36*
X384310Y311212D02*
X376690D01*
X373918Y310847D01*
X371334Y309776D01*
X369116Y308074D01*
X367413Y305856D01*
X366343Y303272D01*
X365978Y300500D01*
X366343Y297728D01*
X367413Y295144D01*
X369116Y292926D01*
X371334Y291223D01*
X373918Y290153D01*
X376690Y289788D01*
X384310D01*
X387082Y290153D01*
X389666Y291223D01*
X391884Y292926D01*
X393587Y295144D01*
X394657Y297728D01*
X395022Y300500D01*
X394657Y303272D01*
X393587Y305856D01*
X391884Y308074D01*
X389666Y309776D01*
X387082Y310847D01*
X384310Y311212D01*
D02*
G37*
G36*
X445406Y305112D02*
X442634Y304747D01*
X440051Y303677D01*
X437832Y301974D01*
X436130Y299756D01*
X435060Y297172D01*
X434695Y294400D01*
X435060Y291628D01*
X436130Y289044D01*
X437832Y286826D01*
X440051Y285123D01*
X442634Y284053D01*
X445406Y283688D01*
X448179Y284053D01*
X450762Y285123D01*
X452981Y286826D01*
X454683Y289044D01*
X455753Y291628D01*
X456118Y294400D01*
X455753Y297172D01*
X454683Y299756D01*
X452981Y301974D01*
X450762Y303677D01*
X448179Y304747D01*
X445406Y305112D01*
D02*
G37*
G36*
X217170Y284796D02*
Y280670D01*
X221296D01*
X221119Y281562D01*
X219894Y283394D01*
X218062Y284619D01*
X217170Y284796D01*
D02*
G37*
G36*
X214630D02*
X213738Y284619D01*
X211906Y283394D01*
X210681Y281562D01*
X210504Y280670D01*
X214630D01*
Y284796D01*
D02*
G37*
G36*
X341630D02*
X340738Y284619D01*
X338906Y283394D01*
X337681Y281562D01*
X337504Y280670D01*
X341630D01*
Y284796D01*
D02*
G37*
G36*
X127000Y304945D02*
X124228Y304580D01*
X121644Y303510D01*
X119426Y301808D01*
X117723Y299589D01*
X116653Y297006D01*
X116288Y294234D01*
X116653Y291461D01*
X117723Y288878D01*
X119426Y286659D01*
X121644Y284957D01*
X124228Y283887D01*
X127000Y283522D01*
X129772Y283887D01*
X132356Y284957D01*
X134574Y286659D01*
X136277Y288878D01*
X137347Y291461D01*
X137712Y294234D01*
X137347Y297006D01*
X136277Y299589D01*
X134574Y301808D01*
X132356Y303510D01*
X129772Y304580D01*
X127000Y304945D01*
D02*
G37*
G36*
X344170Y284796D02*
Y280670D01*
X348296D01*
X348119Y281562D01*
X346894Y283394D01*
X345062Y284619D01*
X344170Y284796D01*
D02*
G37*
G36*
X30000Y348087D02*
X26471Y347739D01*
X23078Y346710D01*
X19951Y345039D01*
X17211Y342789D01*
X14961Y340049D01*
X13290Y336922D01*
X12261Y333529D01*
X11913Y330000D01*
X12261Y326471D01*
X13290Y323078D01*
X14961Y319951D01*
X17211Y317211D01*
X19951Y314961D01*
X23078Y313290D01*
X26471Y312260D01*
X30000Y311913D01*
X33529Y312260D01*
X36922Y313290D01*
X40049Y314961D01*
X42790Y317211D01*
X45039Y319951D01*
X46710Y323078D01*
X47740Y326471D01*
X48087Y330000D01*
X47740Y333529D01*
X46710Y336922D01*
X45039Y340049D01*
X42790Y342789D01*
X40049Y345039D01*
X36922Y346710D01*
X33529Y347739D01*
X30000Y348087D01*
D02*
G37*
G36*
X151130Y335596D02*
X150238Y335419D01*
X148406Y334194D01*
X147181Y332362D01*
X147004Y331470D01*
X151130D01*
Y335596D01*
D02*
G37*
G36*
X128270D02*
Y331470D01*
X132396D01*
X132219Y332362D01*
X130994Y334194D01*
X129162Y335419D01*
X128270Y335596D01*
D02*
G37*
G36*
X153670D02*
Y331470D01*
X157796D01*
X157619Y332362D01*
X156394Y334194D01*
X154562Y335419D01*
X153670Y335596D01*
D02*
G37*
G36*
X179070D02*
Y331470D01*
X183196D01*
X183019Y332362D01*
X181794Y334194D01*
X179962Y335419D01*
X179070Y335596D01*
D02*
G37*
G36*
X176530D02*
X175638Y335419D01*
X173806Y334194D01*
X172581Y332362D01*
X172404Y331470D01*
X176530D01*
Y335596D01*
D02*
G37*
G36*
X125730D02*
X124838Y335419D01*
X123006Y334194D01*
X121781Y332362D01*
X121604Y331470D01*
X125730D01*
Y335596D01*
D02*
G37*
G36*
X74930D02*
X74038Y335419D01*
X72206Y334194D01*
X70981Y332362D01*
X70804Y331470D01*
X74930D01*
Y335596D01*
D02*
G37*
G36*
X348296Y328930D02*
X344170D01*
Y324804D01*
X345062Y324981D01*
X346894Y326206D01*
X348119Y328038D01*
X348296Y328930D01*
D02*
G37*
G36*
X77470Y335596D02*
Y331470D01*
X81596D01*
X81419Y332362D01*
X80194Y334194D01*
X78362Y335419D01*
X77470Y335596D01*
D02*
G37*
G36*
X102870D02*
Y331470D01*
X106996D01*
X106819Y332362D01*
X105594Y334194D01*
X103762Y335419D01*
X102870Y335596D01*
D02*
G37*
G36*
X100330D02*
X99438Y335419D01*
X97606Y334194D01*
X96381Y332362D01*
X96204Y331470D01*
X100330D01*
Y335596D01*
D02*
G37*
G36*
X201930D02*
X201038Y335419D01*
X199206Y334194D01*
X197981Y332362D01*
X197804Y331470D01*
X201930D01*
Y335596D01*
D02*
G37*
G36*
X341630D02*
X340738Y335419D01*
X338906Y334194D01*
X337681Y332362D01*
X337504Y331470D01*
X341630D01*
Y335596D01*
D02*
G37*
G36*
X280670D02*
Y331470D01*
X284796D01*
X284619Y332362D01*
X283394Y334194D01*
X281562Y335419D01*
X280670Y335596D01*
D02*
G37*
G36*
X344170D02*
Y331470D01*
X348296D01*
X348119Y332362D01*
X346894Y334194D01*
X345062Y335419D01*
X344170Y335596D01*
D02*
G37*
G36*
X320270Y343761D02*
Y333670D01*
X330361D01*
X330136Y335384D01*
X328984Y338164D01*
X327152Y340552D01*
X324764Y342384D01*
X321984Y343536D01*
X320270Y343761D01*
D02*
G37*
G36*
X317730D02*
X316016Y343536D01*
X313236Y342384D01*
X310848Y340552D01*
X309016Y338164D01*
X307864Y335384D01*
X307639Y333670D01*
X317730D01*
Y343761D01*
D02*
G37*
G36*
X278130Y335596D02*
X277238Y335419D01*
X275406Y334194D01*
X274181Y332362D01*
X274004Y331470D01*
X278130D01*
Y335596D01*
D02*
G37*
G36*
X227330D02*
X226438Y335419D01*
X224606Y334194D01*
X223381Y332362D01*
X223204Y331470D01*
X227330D01*
Y335596D01*
D02*
G37*
G36*
X204470D02*
Y331470D01*
X208596D01*
X208419Y332362D01*
X207194Y334194D01*
X205362Y335419D01*
X204470Y335596D01*
D02*
G37*
G36*
X229870D02*
Y331470D01*
X233996D01*
X233819Y332362D01*
X232594Y334194D01*
X230762Y335419D01*
X229870Y335596D01*
D02*
G37*
G36*
X255270D02*
Y331470D01*
X259396D01*
X259219Y332362D01*
X257994Y334194D01*
X256162Y335419D01*
X255270Y335596D01*
D02*
G37*
G36*
X252730D02*
X251838Y335419D01*
X250006Y334194D01*
X248781Y332362D01*
X248604Y331470D01*
X252730D01*
Y335596D01*
D02*
G37*
G36*
X106996Y328930D02*
X102870D01*
Y324804D01*
X103762Y324981D01*
X105594Y326206D01*
X106819Y328038D01*
X106996Y328930D01*
D02*
G37*
G36*
X100330D02*
X96204D01*
X96381Y328038D01*
X97606Y326206D01*
X99438Y324981D01*
X100330Y324804D01*
Y328930D01*
D02*
G37*
G36*
X125730D02*
X121604D01*
X121781Y328038D01*
X123006Y326206D01*
X124838Y324981D01*
X125730Y324804D01*
Y328930D01*
D02*
G37*
G36*
X151130D02*
X147004D01*
X147181Y328038D01*
X148406Y326206D01*
X150238Y324981D01*
X151130Y324804D01*
Y328930D01*
D02*
G37*
G36*
X132396D02*
X128270D01*
Y324804D01*
X129162Y324981D01*
X130994Y326206D01*
X132219Y328038D01*
X132396Y328930D01*
D02*
G37*
G36*
X81596D02*
X77470D01*
Y324804D01*
X78362Y324981D01*
X80194Y326206D01*
X81419Y328038D01*
X81596Y328930D01*
D02*
G37*
G36*
X369800Y344393D02*
X366696Y343984D01*
X363804Y342786D01*
X361320Y340880D01*
X359414Y338396D01*
X358216Y335504D01*
X357807Y332400D01*
X358216Y329296D01*
X359414Y326404D01*
X361320Y323920D01*
X363804Y322014D01*
X366696Y320816D01*
X369800Y320407D01*
X372904Y320816D01*
X375796Y322014D01*
X378280Y323920D01*
X380186Y326404D01*
X381384Y329296D01*
X381793Y332400D01*
X381384Y335504D01*
X380186Y338396D01*
X378280Y340880D01*
X375796Y342786D01*
X372904Y343984D01*
X369800Y344393D01*
D02*
G37*
G36*
X570000Y348087D02*
X566471Y347739D01*
X563078Y346710D01*
X559951Y345039D01*
X557211Y342789D01*
X554961Y340049D01*
X553290Y336922D01*
X552261Y333529D01*
X551913Y330000D01*
X552261Y326471D01*
X553290Y323078D01*
X554961Y319951D01*
X557211Y317211D01*
X559951Y314961D01*
X563078Y313290D01*
X566471Y312260D01*
X570000Y311913D01*
X573529Y312260D01*
X576922Y313290D01*
X580049Y314961D01*
X582789Y317211D01*
X585039Y319951D01*
X586710Y323078D01*
X587739Y326471D01*
X588087Y330000D01*
X587739Y333529D01*
X586710Y336922D01*
X585039Y340049D01*
X582789Y342789D01*
X580049Y345039D01*
X576922Y346710D01*
X573529Y347739D01*
X570000Y348087D01*
D02*
G37*
G36*
X317730Y331130D02*
X307639D01*
X307864Y329416D01*
X309016Y326636D01*
X310848Y324248D01*
X313236Y322416D01*
X316016Y321264D01*
X317730Y321039D01*
Y331130D01*
D02*
G37*
G36*
X74930Y328930D02*
X70804D01*
X70981Y328038D01*
X72206Y326206D01*
X74038Y324981D01*
X74930Y324804D01*
Y328930D01*
D02*
G37*
G36*
X330361Y331130D02*
X320270D01*
Y321039D01*
X321984Y321264D01*
X324764Y322416D01*
X327152Y324248D01*
X328984Y326636D01*
X330136Y329416D01*
X330361Y331130D01*
D02*
G37*
G36*
X157796Y328930D02*
X153670D01*
Y324804D01*
X154562Y324981D01*
X156394Y326206D01*
X157619Y328038D01*
X157796Y328930D01*
D02*
G37*
G36*
X259396D02*
X255270D01*
Y324804D01*
X256162Y324981D01*
X257994Y326206D01*
X259219Y328038D01*
X259396Y328930D01*
D02*
G37*
G36*
X252730D02*
X248604D01*
X248781Y328038D01*
X250006Y326206D01*
X251838Y324981D01*
X252730Y324804D01*
Y328930D01*
D02*
G37*
G36*
X278130D02*
X274004D01*
X274181Y328038D01*
X275406Y326206D01*
X277238Y324981D01*
X278130Y324804D01*
Y328930D01*
D02*
G37*
G36*
X341630D02*
X337504D01*
X337681Y328038D01*
X338906Y326206D01*
X340738Y324981D01*
X341630Y324804D01*
Y328930D01*
D02*
G37*
G36*
X284796D02*
X280670D01*
Y324804D01*
X281562Y324981D01*
X283394Y326206D01*
X284619Y328038D01*
X284796Y328930D01*
D02*
G37*
G36*
X233996D02*
X229870D01*
Y324804D01*
X230762Y324981D01*
X232594Y326206D01*
X233819Y328038D01*
X233996Y328930D01*
D02*
G37*
G36*
X183196D02*
X179070D01*
Y324804D01*
X179962Y324981D01*
X181794Y326206D01*
X183019Y328038D01*
X183196Y328930D01*
D02*
G37*
G36*
X176530D02*
X172404D01*
X172581Y328038D01*
X173806Y326206D01*
X175638Y324981D01*
X176530Y324804D01*
Y328930D01*
D02*
G37*
G36*
X201930D02*
X197804D01*
X197981Y328038D01*
X199206Y326206D01*
X201038Y324981D01*
X201930Y324804D01*
Y328930D01*
D02*
G37*
G36*
X227330D02*
X223204D01*
X223381Y328038D01*
X224606Y326206D01*
X226438Y324981D01*
X227330Y324804D01*
Y328930D01*
D02*
G37*
G36*
X208596D02*
X204470D01*
Y324804D01*
X205362Y324981D01*
X207194Y326206D01*
X208419Y328038D01*
X208596Y328930D01*
D02*
G37*
G36*
X44766Y218440D02*
X40640D01*
Y214314D01*
X41532Y214491D01*
X43364Y215716D01*
X44589Y217548D01*
X44766Y218440D01*
D02*
G37*
G36*
X38100D02*
X33974D01*
X34151Y217548D01*
X35376Y215716D01*
X37208Y214491D01*
X38100Y214314D01*
Y218440D01*
D02*
G37*
G36*
X240030Y221296D02*
X239138Y221119D01*
X237306Y219894D01*
X236081Y218062D01*
X235904Y217170D01*
X240030D01*
Y221296D01*
D02*
G37*
G36*
X252730D02*
X251838Y221119D01*
X250006Y219894D01*
X248781Y218062D01*
X248604Y217170D01*
X252730D01*
Y221296D01*
D02*
G37*
G36*
X242570D02*
Y217170D01*
X246696D01*
X246519Y218062D01*
X245294Y219894D01*
X243462Y221119D01*
X242570Y221296D01*
D02*
G37*
G36*
X394930Y234920D02*
X366070D01*
Y213680D01*
X394930D01*
Y234920D01*
D02*
G37*
G36*
X240030Y214630D02*
X235904D01*
X236081Y213738D01*
X237306Y211906D01*
X239138Y210681D01*
X240030Y210504D01*
Y214630D01*
D02*
G37*
G36*
X167640Y232973D02*
X164536Y232564D01*
X161644Y231366D01*
X159160Y229460D01*
X157254Y226976D01*
X156056Y224084D01*
X155647Y220980D01*
X156056Y217876D01*
X157254Y214984D01*
X159160Y212500D01*
X161644Y210594D01*
X164536Y209396D01*
X167640Y208987D01*
X170744Y209396D01*
X173636Y210594D01*
X176120Y212500D01*
X178026Y214984D01*
X179224Y217876D01*
X179633Y220980D01*
X179224Y224084D01*
X178026Y226976D01*
X176120Y229460D01*
X173636Y231366D01*
X170744Y232564D01*
X167640Y232973D01*
D02*
G37*
G36*
X246696Y214630D02*
X242570D01*
Y210504D01*
X243462Y210681D01*
X245294Y211906D01*
X246519Y213738D01*
X246696Y214630D01*
D02*
G37*
G36*
X259396D02*
X255270D01*
Y210504D01*
X256162Y210681D01*
X257994Y211906D01*
X259219Y213738D01*
X259396Y214630D01*
D02*
G37*
G36*
X252730D02*
X248604D01*
X248781Y213738D01*
X250006Y211906D01*
X251838Y210681D01*
X252730Y210504D01*
Y214630D01*
D02*
G37*
G36*
X255270Y221296D02*
Y217170D01*
X259396D01*
X259219Y218062D01*
X257994Y219894D01*
X256162Y221119D01*
X255270Y221296D01*
D02*
G37*
G36*
X125730Y242976D02*
X116919D01*
X117101Y241594D01*
X118125Y239123D01*
X119754Y237000D01*
X121876Y235372D01*
X124348Y234348D01*
X125730Y234166D01*
Y242976D01*
D02*
G37*
G36*
X495534Y249632D02*
X492761Y249267D01*
X490178Y248197D01*
X487959Y246494D01*
X486257Y244276D01*
X485187Y241692D01*
X484822Y238920D01*
X485187Y236148D01*
X486257Y233564D01*
X487959Y231346D01*
X490178Y229643D01*
X492761Y228573D01*
X495534Y228208D01*
X498306Y228573D01*
X500889Y229643D01*
X503108Y231346D01*
X504810Y233564D01*
X505880Y236148D01*
X506245Y238920D01*
X505880Y241692D01*
X504810Y244276D01*
X503108Y246494D01*
X500889Y248197D01*
X498306Y249267D01*
X495534Y249632D01*
D02*
G37*
G36*
X137080Y242976D02*
X128270D01*
Y234166D01*
X129652Y234348D01*
X132124Y235372D01*
X134246Y237000D01*
X135875Y239123D01*
X136898Y241594D01*
X137080Y242976D01*
D02*
G37*
G36*
X308110Y260412D02*
X300490D01*
X297718Y260047D01*
X295134Y258976D01*
X292916Y257274D01*
X291213Y255056D01*
X290143Y252472D01*
X289778Y249700D01*
X290143Y246928D01*
X291213Y244344D01*
X292916Y242126D01*
X295134Y240423D01*
X297718Y239353D01*
X300490Y238988D01*
X308110D01*
X310882Y239353D01*
X313466Y240423D01*
X315684Y242126D01*
X317386Y244344D01*
X318457Y246928D01*
X318822Y249700D01*
X318457Y252472D01*
X317386Y255056D01*
X315684Y257274D01*
X313466Y258976D01*
X310882Y260047D01*
X308110Y260412D01*
D02*
G37*
G36*
X81280Y258373D02*
X78176Y257964D01*
X75284Y256766D01*
X72800Y254860D01*
X70894Y252376D01*
X69696Y249484D01*
X69287Y246380D01*
X69696Y243276D01*
X70894Y240384D01*
X72800Y237900D01*
X75284Y235994D01*
X78176Y234796D01*
X81280Y234387D01*
X84384Y234796D01*
X87276Y235994D01*
X89760Y237900D01*
X91666Y240384D01*
X92864Y243276D01*
X93273Y246380D01*
X92864Y249484D01*
X91666Y252376D01*
X89760Y254860D01*
X87276Y256766D01*
X84384Y257964D01*
X81280Y258373D01*
D02*
G37*
G36*
X445546Y249632D02*
X442774Y249267D01*
X440191Y248197D01*
X437972Y246494D01*
X436270Y244276D01*
X435200Y241692D01*
X434835Y238920D01*
X435200Y236148D01*
X436270Y233564D01*
X437972Y231346D01*
X440191Y229643D01*
X442774Y228573D01*
X445546Y228208D01*
X448319Y228573D01*
X450902Y229643D01*
X453121Y231346D01*
X454823Y233564D01*
X455893Y236148D01*
X456258Y238920D01*
X455893Y241692D01*
X454823Y244276D01*
X453121Y246494D01*
X450902Y248197D01*
X448319Y249267D01*
X445546Y249632D01*
D02*
G37*
G36*
X38100Y225106D02*
X37208Y224929D01*
X35376Y223704D01*
X34151Y221872D01*
X33974Y220980D01*
X38100D01*
Y225106D01*
D02*
G37*
G36*
X19558Y241731D02*
X16817Y241370D01*
X14263Y240312D01*
X12069Y238629D01*
X10386Y236435D01*
X9328Y233881D01*
X8967Y231140D01*
X9328Y228399D01*
X10386Y225845D01*
X12069Y223651D01*
X14263Y221968D01*
X16817Y220910D01*
X19558Y220549D01*
X22299Y220910D01*
X24853Y221968D01*
X27047Y223651D01*
X28730Y225845D01*
X29788Y228399D01*
X30149Y231140D01*
X29788Y233881D01*
X28730Y236435D01*
X27047Y238629D01*
X24853Y240312D01*
X22299Y241370D01*
X19558Y241731D01*
D02*
G37*
G36*
X40640Y225106D02*
Y220980D01*
X44766D01*
X44589Y221872D01*
X43364Y223704D01*
X41532Y224929D01*
X40640Y225106D01*
D02*
G37*
G36*
X245974Y249472D02*
X243201Y249107D01*
X240618Y248037D01*
X238399Y246334D01*
X236697Y244116D01*
X235627Y241532D01*
X235262Y238760D01*
X235627Y235988D01*
X236697Y233404D01*
X238399Y231186D01*
X240618Y229483D01*
X243201Y228413D01*
X245974Y228048D01*
X248746Y228413D01*
X251329Y229483D01*
X253548Y231186D01*
X255250Y233404D01*
X256320Y235988D01*
X256685Y238760D01*
X256320Y241532D01*
X255250Y244116D01*
X253548Y246334D01*
X251329Y248037D01*
X248746Y249107D01*
X245974Y249472D01*
D02*
G37*
G36*
X195986D02*
X193214Y249107D01*
X190631Y248037D01*
X188412Y246334D01*
X186710Y244116D01*
X185640Y241532D01*
X185275Y238760D01*
X185640Y235988D01*
X186710Y233404D01*
X188412Y231186D01*
X190631Y229483D01*
X193214Y228413D01*
X195986Y228048D01*
X198759Y228413D01*
X201342Y229483D01*
X203561Y231186D01*
X205263Y233404D01*
X206333Y235988D01*
X206698Y238760D01*
X206333Y241532D01*
X205263Y244116D01*
X203561Y246334D01*
X201342Y248037D01*
X198759Y249107D01*
X195986Y249472D01*
D02*
G37*
G36*
X589959Y204930D02*
X581270D01*
Y196241D01*
X582621Y196418D01*
X585063Y197430D01*
X587161Y199039D01*
X588770Y201137D01*
X589782Y203579D01*
X589959Y204930D01*
D02*
G37*
G36*
X578730D02*
X570041D01*
X570218Y203579D01*
X571230Y201137D01*
X572839Y199039D01*
X574937Y197430D01*
X577379Y196418D01*
X578730Y196241D01*
Y204930D01*
D02*
G37*
G36*
X240030Y201930D02*
X235904D01*
X236081Y201038D01*
X237306Y199206D01*
X239138Y197981D01*
X240030Y197804D01*
Y201930D01*
D02*
G37*
G36*
X252730D02*
X248604D01*
X248781Y201038D01*
X250006Y199206D01*
X251838Y197981D01*
X252730Y197804D01*
Y201930D01*
D02*
G37*
G36*
X246696D02*
X242570D01*
Y197804D01*
X243462Y197981D01*
X245294Y199206D01*
X246519Y201038D01*
X246696Y201930D01*
D02*
G37*
G36*
X19558Y216331D02*
X16817Y215970D01*
X14263Y214912D01*
X12069Y213229D01*
X10386Y211035D01*
X9328Y208481D01*
X8967Y205740D01*
X9328Y202999D01*
X10386Y200445D01*
X12069Y198251D01*
X14263Y196568D01*
X16817Y195510D01*
X19558Y195149D01*
X22299Y195510D01*
X24853Y196568D01*
X27047Y198251D01*
X28730Y200445D01*
X29788Y202999D01*
X30149Y205740D01*
X29788Y208481D01*
X28730Y211035D01*
X27047Y213229D01*
X24853Y214912D01*
X22299Y215970D01*
X19558Y216331D01*
D02*
G37*
G36*
X367030Y201861D02*
X365316Y201636D01*
X362536Y200484D01*
X360148Y198652D01*
X358316Y196264D01*
X357164Y193484D01*
X356939Y191770D01*
X367030D01*
Y201861D01*
D02*
G37*
G36*
X411796Y11430D02*
X407670D01*
Y7304D01*
X408562Y7481D01*
X410394Y8706D01*
X411619Y10538D01*
X411796Y11430D01*
D02*
G37*
G36*
X369570Y201861D02*
Y191770D01*
X379661D01*
X379436Y193484D01*
X378284Y196264D01*
X376452Y198652D01*
X374064Y200484D01*
X371284Y201636D01*
X369570Y201861D01*
D02*
G37*
G36*
X41910Y199198D02*
Y195072D01*
X46036D01*
X45859Y195964D01*
X44634Y197796D01*
X42802Y199021D01*
X41910Y199198D01*
D02*
G37*
G36*
X39370D02*
X38478Y199021D01*
X36646Y197796D01*
X35421Y195964D01*
X35244Y195072D01*
X39370D01*
Y199198D01*
D02*
G37*
G36*
X259396Y201930D02*
X255270D01*
Y197804D01*
X256162Y197981D01*
X257994Y199206D01*
X259219Y201038D01*
X259396Y201930D01*
D02*
G37*
G36*
X274960Y230593D02*
X271856Y230184D01*
X268964Y228986D01*
X266480Y227080D01*
X264574Y224596D01*
X263376Y221704D01*
X262967Y218600D01*
X263376Y215496D01*
X264574Y212604D01*
X266480Y210120D01*
X268964Y208214D01*
X271856Y207016D01*
X274960Y206607D01*
X278064Y207016D01*
X280956Y208214D01*
X283440Y210120D01*
X285346Y212604D01*
X286544Y215496D01*
X286953Y218600D01*
X286544Y221704D01*
X285346Y224596D01*
X283440Y227080D01*
X280956Y228986D01*
X278064Y230184D01*
X274960Y230593D01*
D02*
G37*
G36*
X255270Y208596D02*
Y204470D01*
X259396D01*
X259219Y205362D01*
X257994Y207194D01*
X256162Y208419D01*
X255270Y208596D01*
D02*
G37*
G36*
X405130Y11430D02*
X401004D01*
X401181Y10538D01*
X402406Y8706D01*
X404238Y7481D01*
X405130Y7304D01*
Y11430D01*
D02*
G37*
G36*
X581270Y216159D02*
Y207470D01*
X589959D01*
X589782Y208821D01*
X588770Y211263D01*
X587161Y213361D01*
X585063Y214970D01*
X582621Y215982D01*
X581270Y216159D01*
D02*
G37*
G36*
X578730D02*
X577379Y215982D01*
X574937Y214970D01*
X572839Y213361D01*
X571230Y211263D01*
X570218Y208821D01*
X570041Y207470D01*
X578730D01*
Y216159D01*
D02*
G37*
G36*
X252730Y208596D02*
X251838Y208419D01*
X250006Y207194D01*
X248781Y205362D01*
X248604Y204470D01*
X252730D01*
Y208596D01*
D02*
G37*
G36*
X541761Y213130D02*
X531670D01*
Y203039D01*
X533384Y203264D01*
X536164Y204416D01*
X538552Y206248D01*
X540384Y208636D01*
X541536Y211416D01*
X541761Y213130D01*
D02*
G37*
G36*
X529130D02*
X519039D01*
X519264Y211416D01*
X520416Y208636D01*
X522248Y206248D01*
X524636Y204416D01*
X527416Y203264D01*
X529130Y203039D01*
Y213130D01*
D02*
G37*
G36*
X410400Y227493D02*
X407296Y227084D01*
X404404Y225886D01*
X401920Y223980D01*
X400014Y221496D01*
X398816Y218604D01*
X398407Y215500D01*
X398816Y212396D01*
X400014Y209504D01*
X401920Y207020D01*
X404404Y205114D01*
X407296Y203916D01*
X410400Y203507D01*
X413504Y203916D01*
X416396Y205114D01*
X418880Y207020D01*
X420786Y209504D01*
X421984Y212396D01*
X422393Y215500D01*
X421984Y218604D01*
X420786Y221496D01*
X418880Y223980D01*
X416396Y225886D01*
X413504Y227084D01*
X410400Y227493D01*
D02*
G37*
G36*
X242570Y208596D02*
Y204470D01*
X246696D01*
X246519Y205362D01*
X245294Y207194D01*
X243462Y208419D01*
X242570Y208596D01*
D02*
G37*
G36*
X240030D02*
X239138Y208419D01*
X237306Y207194D01*
X236081Y205362D01*
X235904Y204470D01*
X240030D01*
Y208596D01*
D02*
G37*
G36*
X384310Y260412D02*
X376690D01*
X373918Y260047D01*
X371334Y258976D01*
X369116Y257274D01*
X367413Y255056D01*
X366343Y252472D01*
X365978Y249700D01*
X366343Y246928D01*
X367413Y244344D01*
X369116Y242126D01*
X371334Y240423D01*
X373918Y239353D01*
X376690Y238988D01*
X384310D01*
X387082Y239353D01*
X389666Y240423D01*
X391884Y242126D01*
X393587Y244344D01*
X394657Y246928D01*
X395022Y249700D01*
X394657Y252472D01*
X393587Y255056D01*
X391884Y257274D01*
X389666Y258976D01*
X387082Y260047D01*
X384310Y260412D01*
D02*
G37*
G36*
X227330Y272096D02*
X226438Y271919D01*
X224606Y270694D01*
X223381Y268862D01*
X223204Y267970D01*
X227330D01*
Y272096D01*
D02*
G37*
G36*
X394390Y273830D02*
X381770D01*
Y264852D01*
X384310D01*
X386962Y265201D01*
X389434Y266225D01*
X391556Y267854D01*
X393185Y269976D01*
X394208Y272448D01*
X394390Y273830D01*
D02*
G37*
G36*
X229870Y272096D02*
Y267970D01*
X233996D01*
X233819Y268862D01*
X232594Y270694D01*
X230762Y271919D01*
X229870Y272096D01*
D02*
G37*
G36*
X56196Y278130D02*
X52070D01*
Y274004D01*
X52962Y274181D01*
X54794Y275406D01*
X56019Y277238D01*
X56196Y278130D01*
D02*
G37*
G36*
X49530D02*
X45404D01*
X45581Y277238D01*
X46806Y275406D01*
X48638Y274181D01*
X49530Y274004D01*
Y278130D01*
D02*
G37*
G36*
X379230Y273830D02*
X366609D01*
X366791Y272448D01*
X367815Y269976D01*
X369444Y267854D01*
X371566Y266225D01*
X374038Y265201D01*
X376690Y264852D01*
X379230D01*
Y273830D01*
D02*
G37*
G36*
X344170Y259396D02*
Y255270D01*
X348296D01*
X348119Y256162D01*
X346894Y257994D01*
X345062Y259219D01*
X344170Y259396D01*
D02*
G37*
G36*
X341630D02*
X340738Y259219D01*
X338906Y257994D01*
X337681Y256162D01*
X337504Y255270D01*
X341630D01*
Y259396D01*
D02*
G37*
G36*
X227330Y265430D02*
X223204D01*
X223381Y264538D01*
X224606Y262706D01*
X226438Y261481D01*
X227330Y261304D01*
Y265430D01*
D02*
G37*
G36*
X308110Y285812D02*
X300490D01*
X297718Y285447D01*
X295134Y284377D01*
X292916Y282674D01*
X291213Y280456D01*
X290143Y277872D01*
X289778Y275100D01*
X290143Y272328D01*
X291213Y269744D01*
X292916Y267526D01*
X295134Y265823D01*
X297718Y264753D01*
X300490Y264388D01*
X308110D01*
X310882Y264753D01*
X313466Y265823D01*
X315684Y267526D01*
X317386Y269744D01*
X318457Y272328D01*
X318822Y275100D01*
X318457Y277872D01*
X317386Y280456D01*
X315684Y282674D01*
X313466Y284377D01*
X310882Y285447D01*
X308110Y285812D01*
D02*
G37*
G36*
X233996Y265430D02*
X229870D01*
Y261304D01*
X230762Y261481D01*
X232594Y262706D01*
X233819Y264538D01*
X233996Y265430D01*
D02*
G37*
G36*
X74930Y278130D02*
X70804D01*
X70981Y277238D01*
X72206Y275406D01*
X74038Y274181D01*
X74930Y274004D01*
Y278130D01*
D02*
G37*
G36*
X214630D02*
X210504D01*
X210681Y277238D01*
X211906Y275406D01*
X213738Y274181D01*
X214630Y274004D01*
Y278130D01*
D02*
G37*
G36*
X170496D02*
X166370D01*
Y274004D01*
X167262Y274181D01*
X169094Y275406D01*
X170319Y277238D01*
X170496Y278130D01*
D02*
G37*
G36*
X221296D02*
X217170D01*
Y274004D01*
X218062Y274181D01*
X219894Y275406D01*
X221119Y277238D01*
X221296Y278130D01*
D02*
G37*
G36*
X348296D02*
X344170D01*
Y274004D01*
X345062Y274181D01*
X346894Y275406D01*
X348119Y277238D01*
X348296Y278130D01*
D02*
G37*
G36*
X341630D02*
X337504D01*
X337681Y277238D01*
X338906Y275406D01*
X340738Y274181D01*
X341630Y274004D01*
Y278130D01*
D02*
G37*
G36*
X163830D02*
X159704D01*
X159881Y277238D01*
X161106Y275406D01*
X162938Y274181D01*
X163830Y274004D01*
Y278130D01*
D02*
G37*
G36*
X100330D02*
X96204D01*
X96381Y277238D01*
X97606Y275406D01*
X99438Y274181D01*
X100330Y274004D01*
Y278130D01*
D02*
G37*
G36*
X81596D02*
X77470D01*
Y274004D01*
X78362Y274181D01*
X80194Y275406D01*
X81419Y277238D01*
X81596Y278130D01*
D02*
G37*
G36*
X106996D02*
X102870D01*
Y274004D01*
X103762Y274181D01*
X105594Y275406D01*
X106819Y277238D01*
X106996Y278130D01*
D02*
G37*
G36*
X145096D02*
X140970D01*
Y274004D01*
X141862Y274181D01*
X143694Y275406D01*
X144919Y277238D01*
X145096Y278130D01*
D02*
G37*
G36*
X138430D02*
X134304D01*
X134481Y277238D01*
X135706Y275406D01*
X137538Y274181D01*
X138430Y274004D01*
Y278130D01*
D02*
G37*
G36*
X163830Y252730D02*
X159704D01*
X159881Y251838D01*
X161106Y250006D01*
X162938Y248781D01*
X163830Y248604D01*
Y252730D01*
D02*
G37*
G36*
X145096D02*
X140970D01*
Y248604D01*
X141862Y248781D01*
X143694Y250006D01*
X144919Y251838D01*
X145096Y252730D01*
D02*
G37*
G36*
X170496D02*
X166370D01*
Y248604D01*
X167262Y248781D01*
X169094Y250006D01*
X170319Y251838D01*
X170496Y252730D01*
D02*
G37*
G36*
X221296D02*
X217170D01*
Y248604D01*
X218062Y248781D01*
X219894Y250006D01*
X221119Y251838D01*
X221296Y252730D01*
D02*
G37*
G36*
X214630D02*
X210504D01*
X210681Y251838D01*
X211906Y250006D01*
X213738Y248781D01*
X214630Y248604D01*
Y252730D01*
D02*
G37*
G36*
X128270Y254327D02*
Y245516D01*
X137080D01*
X136898Y246899D01*
X136450Y247981D01*
X137476Y248823D01*
X137538Y248781D01*
X138430Y248604D01*
Y252730D01*
X133624D01*
X133077Y252390D01*
X132124Y253121D01*
X129652Y254145D01*
X128270Y254327D01*
D02*
G37*
G36*
X49530Y252730D02*
X45404D01*
X45581Y251838D01*
X46806Y250006D01*
X48638Y248781D01*
X49530Y248604D01*
Y252730D01*
D02*
G37*
G36*
X125730Y254327D02*
X124348Y254145D01*
X121876Y253121D01*
X119754Y251493D01*
X118125Y249370D01*
X117101Y246899D01*
X116919Y245516D01*
X125730D01*
Y254327D01*
D02*
G37*
G36*
X56196Y252730D02*
X52070D01*
Y248604D01*
X52962Y248781D01*
X54794Y250006D01*
X56019Y251838D01*
X56196Y252730D01*
D02*
G37*
G36*
X106996D02*
X102870D01*
Y248604D01*
X103762Y248781D01*
X105594Y250006D01*
X106819Y251838D01*
X106996Y252730D01*
D02*
G37*
G36*
X100330D02*
X96204D01*
X96381Y251838D01*
X97606Y250006D01*
X99438Y248781D01*
X100330Y248604D01*
Y252730D01*
D02*
G37*
G36*
X341630D02*
X337504D01*
X337681Y251838D01*
X338906Y250006D01*
X340738Y248781D01*
X341630Y248604D01*
Y252730D01*
D02*
G37*
G36*
X163830Y259396D02*
X162938Y259219D01*
X161106Y257994D01*
X159881Y256162D01*
X159704Y255270D01*
X163830D01*
Y259396D01*
D02*
G37*
G36*
X140970D02*
Y255270D01*
X145096D01*
X144919Y256162D01*
X143694Y257994D01*
X141862Y259219D01*
X140970Y259396D01*
D02*
G37*
G36*
X166370D02*
Y255270D01*
X170496D01*
X170319Y256162D01*
X169094Y257994D01*
X167262Y259219D01*
X166370Y259396D01*
D02*
G37*
G36*
X217170D02*
Y255270D01*
X221296D01*
X221119Y256162D01*
X219894Y257994D01*
X218062Y259219D01*
X217170Y259396D01*
D02*
G37*
G36*
X214630D02*
X213738Y259219D01*
X211906Y257994D01*
X210681Y256162D01*
X210504Y255270D01*
X214630D01*
Y259396D01*
D02*
G37*
G36*
X138430D02*
X137538Y259219D01*
X135706Y257994D01*
X134481Y256162D01*
X134304Y255270D01*
X138430D01*
Y259396D01*
D02*
G37*
G36*
X49530D02*
X48638Y259219D01*
X46806Y257994D01*
X45581Y256162D01*
X45404Y255270D01*
X49530D01*
Y259396D01*
D02*
G37*
G36*
X348296Y252730D02*
X344170D01*
Y248604D01*
X345062Y248781D01*
X346894Y250006D01*
X348119Y251838D01*
X348296Y252730D01*
D02*
G37*
G36*
X52070Y259396D02*
Y255270D01*
X56196D01*
X56019Y256162D01*
X54794Y257994D01*
X52962Y259219D01*
X52070Y259396D01*
D02*
G37*
G36*
X102870D02*
Y255270D01*
X106996D01*
X106819Y256162D01*
X105594Y257994D01*
X103762Y259219D01*
X102870Y259396D01*
D02*
G37*
G36*
X100330D02*
X99438Y259219D01*
X97606Y257994D01*
X96381Y256162D01*
X96204Y255270D01*
X100330D01*
Y259396D01*
D02*
G37*
%LPD*%
G36*
X326423Y190049D02*
X326529Y189649D01*
X326708Y189211D01*
X326960Y188734D01*
X327285Y188219D01*
X327683Y187665D01*
X328698Y186442D01*
X330005Y185066D01*
X322934Y177995D01*
X322227Y178685D01*
X320335Y180317D01*
X319781Y180715D01*
X319266Y181040D01*
X318789Y181292D01*
X318351Y181471D01*
X317951Y181577D01*
X317589Y181611D01*
X326390Y190411D01*
X326423Y190049D01*
D02*
G37*
G36*
X574644Y175550D02*
X574552Y175597D01*
X574376Y175640D01*
X574115Y175678D01*
X573338Y175737D01*
X570765Y175798D01*
X569910Y175800D01*
Y185800D01*
X574644Y186050D01*
Y175550D01*
D02*
G37*
G36*
X310836Y201718D02*
X312143Y200592D01*
X312745Y200150D01*
X313311Y199789D01*
X313842Y199508D01*
X314338Y199307D01*
X314799Y199187D01*
X315226Y199147D01*
X315617Y199188D01*
X308776Y188791D01*
X308701Y189022D01*
X308556Y189307D01*
X308340Y189646D01*
X308055Y190038D01*
X307274Y190984D01*
X305576Y192805D01*
X304870Y193519D01*
X310130Y202401D01*
X310836Y201718D01*
D02*
G37*
G36*
X575650Y237710D02*
X573805Y227373D01*
X573689Y227477D01*
X573492Y227569D01*
X573213Y227651D01*
X572852Y227722D01*
X572409Y227782D01*
X571278Y227869D01*
X568966Y227918D01*
X571459Y237918D01*
X575650Y237710D01*
D02*
G37*
G36*
X313331Y219767D02*
X312485Y219374D01*
X311738Y218719D01*
X311091Y217801D01*
X310544Y216622D01*
X310096Y215180D01*
X309748Y213476D01*
X309499Y211510D01*
X309350Y209281D01*
X309300Y206791D01*
X299300D01*
X299250Y209281D01*
X298852Y213476D01*
X298504Y215180D01*
X298056Y216622D01*
X297508Y217801D01*
X296861Y218719D01*
X296115Y219374D01*
X295269Y219767D01*
X294324Y219898D01*
X314276D01*
X313331Y219767D01*
D02*
G37*
G36*
X312093Y46448D02*
X311327Y46083D01*
X310650Y45473D01*
X310064Y44620D01*
X309568Y43523D01*
X309162Y42182D01*
X308846Y40597D01*
X308620Y38768D01*
X308485Y36696D01*
X308440Y34380D01*
X298440D01*
X298395Y36696D01*
X298034Y40597D01*
X297718Y42182D01*
X297312Y43523D01*
X296816Y44620D01*
X296230Y45473D01*
X295553Y46083D01*
X294787Y46448D01*
X293930Y46570D01*
X312950D01*
X312093Y46448D01*
D02*
G37*
G36*
X312773Y32135D02*
X314665Y30503D01*
X315219Y30105D01*
X315734Y29780D01*
X316211Y29528D01*
X316649Y29349D01*
X317049Y29243D01*
X317411Y29209D01*
X308610Y20409D01*
X308577Y20771D01*
X308471Y21171D01*
X308292Y21609D01*
X308040Y22086D01*
X307715Y22601D01*
X307317Y23155D01*
X306302Y24378D01*
X304995Y25754D01*
X312066Y32825D01*
X312773Y32135D01*
D02*
G37*
G36*
X256222Y73680D02*
X256768Y73255D01*
X257342Y72880D01*
X257947Y72557D01*
X258580Y72284D01*
X259242Y72062D01*
X259934Y71892D01*
X260655Y71772D01*
X261405Y71704D01*
X262184Y71686D01*
X254640Y64143D01*
X254623Y64922D01*
X254554Y65672D01*
X254435Y66392D01*
X254264Y67084D01*
X254042Y67746D01*
X253770Y68380D01*
X253446Y68984D01*
X253072Y69559D01*
X252646Y70105D01*
X252169Y70621D01*
X255705Y74157D01*
X256222Y73680D01*
D02*
G37*
G36*
X374928Y160931D02*
X375286Y160723D01*
X375722Y160539D01*
X376238Y160380D01*
X376832Y160246D01*
X377505Y160136D01*
X379087Y159989D01*
X380985Y159940D01*
Y149940D01*
X379997Y149928D01*
X377505Y149744D01*
X376832Y149634D01*
X376238Y149500D01*
X375722Y149341D01*
X375286Y149157D01*
X374928Y148949D01*
X374649Y148717D01*
Y161163D01*
X374928Y160931D01*
D02*
G37*
G36*
X248508Y151916D02*
X248160Y151477D01*
X247852Y151013D01*
X247586Y150524D01*
X247360Y150011D01*
X247176Y149473D01*
X247033Y148910D01*
X246930Y148322D01*
X246868Y147709D01*
X246848Y147072D01*
X241848D01*
X241828Y147709D01*
X241766Y148322D01*
X241663Y148910D01*
X241520Y149473D01*
X241336Y150011D01*
X241110Y150524D01*
X240844Y151013D01*
X240536Y151477D01*
X240187Y151916D01*
X239798Y152330D01*
X248898D01*
X248508Y151916D01*
D02*
G37*
D10*
X304300Y201160D02*
X317500Y187960D01*
X303440Y34380D02*
Y51540D01*
Y34380D02*
X317500Y20320D01*
X304300Y201160D02*
Y224300D01*
X317500Y190500D02*
X335280Y172720D01*
X405384D01*
X448564Y215900D01*
X502666D01*
X519684Y232918D01*
X578682D01*
X580000Y231600D01*
X368300Y154940D02*
X509016D01*
X534876Y180800D01*
X580000D01*
D11*
X244348Y81978D02*
Y156972D01*
Y81978D02*
X262260Y64066D01*
D12*
X580000Y130000D02*
D03*
X19558Y129540D02*
D03*
D13*
X580000Y155400D02*
D03*
Y180800D02*
D03*
Y206200D02*
D03*
Y231600D02*
D03*
X19558Y154940D02*
D03*
Y180340D02*
D03*
Y205740D02*
D03*
Y231140D02*
D03*
D14*
X319000Y332400D02*
D03*
X369800D02*
D03*
X317500Y190500D02*
D03*
X368300D02*
D03*
Y154940D02*
D03*
X317500D02*
D03*
Y20320D02*
D03*
X368300D02*
D03*
X224160Y45880D02*
D03*
Y134780D02*
D03*
X120020Y43340D02*
D03*
Y132240D02*
D03*
X196220Y45880D02*
D03*
Y134780D02*
D03*
X411480Y45720D02*
D03*
Y134620D02*
D03*
X439420D02*
D03*
Y45720D02*
D03*
X81280Y157480D02*
D03*
Y246380D02*
D03*
X274960Y218600D02*
D03*
Y307500D02*
D03*
X167640Y220980D02*
D03*
Y309880D02*
D03*
X410400Y215500D02*
D03*
Y304400D02*
D03*
X530400Y303300D02*
D03*
Y214400D02*
D03*
D15*
X495394Y294400D02*
D03*
X445406D02*
D03*
X495534Y238920D02*
D03*
X445546D02*
D03*
Y180500D02*
D03*
X495534D02*
D03*
X157480Y111354D02*
D03*
Y61366D02*
D03*
X262260Y64066D02*
D03*
Y114054D02*
D03*
X127000Y244246D02*
D03*
Y294234D02*
D03*
X196626Y294800D02*
D03*
X246614D02*
D03*
X81920Y114054D02*
D03*
Y64066D02*
D03*
X195986Y238760D02*
D03*
X245974D02*
D03*
D16*
X495427Y113538D02*
D03*
D17*
X495173Y79502D02*
D03*
D18*
X379640Y51540D02*
D03*
X380500Y224300D02*
D03*
D19*
X379640Y76940D02*
D03*
Y102340D02*
D03*
Y127740D02*
D03*
X303440Y51540D02*
D03*
Y76940D02*
D03*
Y102340D02*
D03*
Y127740D02*
D03*
X380500Y249700D02*
D03*
Y275100D02*
D03*
Y300500D02*
D03*
X304300Y224300D02*
D03*
Y249700D02*
D03*
Y275100D02*
D03*
Y300500D02*
D03*
D20*
X30000Y30000D02*
D03*
Y330000D02*
D03*
X570000D02*
D03*
Y30000D02*
D03*
D21*
X244348Y156972D02*
D03*
D22*
X101600Y152400D02*
D03*
X127000D02*
D03*
X152400D02*
D03*
X177800D02*
D03*
X203200D02*
D03*
X50800D02*
D03*
Y127000D02*
D03*
X101600D02*
D03*
X152400D02*
D03*
X50800Y254000D02*
D03*
Y279400D02*
D03*
Y304800D02*
D03*
X76200D02*
D03*
Y279400D02*
D03*
X101600Y304800D02*
D03*
Y279400D02*
D03*
Y254000D02*
D03*
X139700Y279400D02*
D03*
X165100D02*
D03*
Y254000D02*
D03*
X139700D02*
D03*
X215900Y279400D02*
D03*
Y254000D02*
D03*
X228600Y266700D02*
D03*
X342900Y304800D02*
D03*
Y279400D02*
D03*
Y254000D02*
D03*
Y330200D02*
D03*
X444500Y76200D02*
D03*
X469900Y101600D02*
D03*
X406400Y12700D02*
D03*
X431800D02*
D03*
X457200D02*
D03*
X482600D02*
D03*
X508000D02*
D03*
X533400D02*
D03*
X50800Y101600D02*
D03*
Y76200D02*
D03*
Y50800D02*
D03*
X25400Y101600D02*
D03*
Y76200D02*
D03*
Y50800D02*
D03*
X38100Y88900D02*
D03*
Y63500D02*
D03*
Y114300D02*
D03*
X76200Y330200D02*
D03*
X101600D02*
D03*
X127000D02*
D03*
X152400D02*
D03*
X177800D02*
D03*
X203200D02*
D03*
X228600D02*
D03*
X254000D02*
D03*
X279400D02*
D03*
X228600Y114300D02*
D03*
X203200D02*
D03*
X177800D02*
D03*
Y88900D02*
D03*
X203200D02*
D03*
X228600Y101600D02*
D03*
X190500Y63500D02*
D03*
X241300Y215900D02*
D03*
Y203200D02*
D03*
X254000D02*
D03*
Y215900D02*
D03*
X40640Y193802D02*
D03*
X39370Y219710D02*
D03*
M02*
