G04 Layer_Color=16711935*
%FSLAX44Y44*%
%MOMM*%
G71*
G01*
G75*
%ADD27R,1.7032X1.7032*%
%ADD28C,1.7032*%
%ADD29C,1.9812*%
%ADD30C,1.7272*%
%ADD31R,2.7432X1.7272*%
%ADD32O,2.7432X1.7272*%
%ADD33R,2.4892X1.7272*%
%ADD34O,2.4892X1.7272*%
%ADD35C,3.0020*%
D27*
X580000Y130000D02*
D03*
X19558Y129540D02*
D03*
D28*
X580000Y155400D02*
D03*
Y180800D02*
D03*
Y206200D02*
D03*
Y231600D02*
D03*
X19558Y154940D02*
D03*
Y180340D02*
D03*
Y205740D02*
D03*
Y231140D02*
D03*
D29*
X319000Y332400D02*
D03*
X369800D02*
D03*
X317500Y190500D02*
D03*
X368300D02*
D03*
Y154940D02*
D03*
X317500D02*
D03*
Y20320D02*
D03*
X368300D02*
D03*
X224160Y45880D02*
D03*
Y134780D02*
D03*
X120020Y43340D02*
D03*
Y132240D02*
D03*
X196220Y45880D02*
D03*
Y134780D02*
D03*
X411480Y45720D02*
D03*
Y134620D02*
D03*
X439420D02*
D03*
Y45720D02*
D03*
X81280Y157480D02*
D03*
Y246380D02*
D03*
X274960Y218600D02*
D03*
Y307500D02*
D03*
X167640Y220980D02*
D03*
Y309880D02*
D03*
X410400Y215500D02*
D03*
Y304400D02*
D03*
X530400Y303300D02*
D03*
Y214400D02*
D03*
D30*
X495394Y294400D02*
D03*
X445406D02*
D03*
X495534Y238920D02*
D03*
X445546D02*
D03*
Y180500D02*
D03*
X495534D02*
D03*
X157480Y111354D02*
D03*
Y61366D02*
D03*
X262260Y64066D02*
D03*
Y114054D02*
D03*
X127000Y244246D02*
D03*
Y294234D02*
D03*
X196626Y294800D02*
D03*
X246614D02*
D03*
X81920Y114054D02*
D03*
Y64066D02*
D03*
X195986Y238760D02*
D03*
X245974D02*
D03*
D31*
X495427Y113538D02*
D03*
D32*
X495173Y79502D02*
D03*
D33*
X379640Y51540D02*
D03*
X380500Y224300D02*
D03*
D34*
X379640Y76940D02*
D03*
Y102340D02*
D03*
Y127740D02*
D03*
X303440Y51540D02*
D03*
Y76940D02*
D03*
Y102340D02*
D03*
Y127740D02*
D03*
X380500Y249700D02*
D03*
Y275100D02*
D03*
Y300500D02*
D03*
X304300Y224300D02*
D03*
Y249700D02*
D03*
Y275100D02*
D03*
Y300500D02*
D03*
D35*
X30000Y30000D02*
D03*
Y330000D02*
D03*
X570000D02*
D03*
Y30000D02*
D03*
M02*
