G04 Layer_Color=128*
%FSLAX44Y44*%
%MOMM*%
G71*
G01*
G75*
%ADD10R,0.9500X1.0000*%
%ADD12R,1.0000X0.9500*%
%ADD13R,0.8000X0.7500*%
%ADD27R,1.6002X1.2700*%
%ADD28R,1.8500X1.3000*%
%ADD29R,2.4000X3.3000*%
%ADD30R,2.4000X1.0000*%
%ADD31R,0.7500X0.8000*%
%ADD32C,1.0000*%
%ADD33O,0.6500X0.2000*%
%ADD34O,0.2000X0.6500*%
%ADD35R,4.7000X4.7000*%
%ADD36R,1.3000X1.3000*%
%ADD37R,1.0000X1.0000*%
%ADD38R,1.0000X0.8128*%
D10*
X51011Y50048D02*
D03*
Y66048D02*
D03*
X24879Y50124D02*
D03*
Y66124D02*
D03*
D12*
X763807Y-599D02*
D03*
X747807D02*
D03*
X225212Y22805D02*
D03*
X209212D02*
D03*
X225504Y4722D02*
D03*
X209503D02*
D03*
X208790Y-12700D02*
D03*
X224790D02*
D03*
X217000Y132000D02*
D03*
X201000D02*
D03*
D13*
X199000Y102250D02*
D03*
Y115750D02*
D03*
X219000D02*
D03*
Y102250D02*
D03*
X235384Y213411D02*
D03*
Y199911D02*
D03*
D27*
X764000Y76000D02*
D03*
Y96320D02*
D03*
X789000Y75840D02*
D03*
Y96160D02*
D03*
X818000Y75680D02*
D03*
Y96000D02*
D03*
D28*
X846458Y101300D02*
D03*
Y72300D02*
D03*
D29*
X776000Y164000D02*
D03*
D30*
X834000Y141000D02*
D03*
X834000Y164000D02*
D03*
X834000Y187000D02*
D03*
D31*
X334819Y112954D02*
D03*
X321319D02*
D03*
X334210Y159659D02*
D03*
X320710D02*
D03*
X334210Y174039D02*
D03*
X320710D02*
D03*
X201250Y149000D02*
D03*
X214750D02*
D03*
X201250Y165000D02*
D03*
X214750D02*
D03*
X200956Y223245D02*
D03*
X214456D02*
D03*
D32*
X168631Y162875D02*
D03*
D33*
X301312Y164088D02*
D03*
Y160088D02*
D03*
Y156088D02*
D03*
Y152088D02*
D03*
Y148088D02*
D03*
Y144088D02*
D03*
Y140088D02*
D03*
Y136088D02*
D03*
Y132088D02*
D03*
Y128088D02*
D03*
Y124088D02*
D03*
Y120088D02*
D03*
X240812D02*
D03*
Y124088D02*
D03*
Y128088D02*
D03*
Y132088D02*
D03*
Y136088D02*
D03*
Y140088D02*
D03*
Y144088D02*
D03*
Y148088D02*
D03*
Y152088D02*
D03*
Y156088D02*
D03*
Y160088D02*
D03*
Y164088D02*
D03*
D34*
X293062Y111838D02*
D03*
X289062D02*
D03*
X285062D02*
D03*
X281062D02*
D03*
X277062D02*
D03*
X273062D02*
D03*
X269062D02*
D03*
X265062D02*
D03*
X261062D02*
D03*
X257062D02*
D03*
X253062D02*
D03*
X249062D02*
D03*
Y172338D02*
D03*
X253062D02*
D03*
X257062D02*
D03*
X261062D02*
D03*
X265062D02*
D03*
X269062D02*
D03*
X273062D02*
D03*
X277062D02*
D03*
X281062D02*
D03*
X285062D02*
D03*
X289062D02*
D03*
X293062D02*
D03*
D35*
X271062Y142088D02*
D03*
D36*
X199161Y184065D02*
D03*
X218862D02*
D03*
Y207065D02*
D03*
D37*
X199161D02*
D03*
D38*
X416376Y199590D02*
D03*
X434376D02*
D03*
M02*
