G04 Layer_Color=32896*
%FSLAX44Y44*%
%MOMM*%
G71*
G01*
G75*
%ADD17C,0.2000*%
%ADD43C,0.2500*%
%ADD44C,0.1778*%
%ADD45C,0.1524*%
%ADD46C,0.1270*%
%ADD70C,0.1000*%
%ADD71R,0.1524X1.0414*%
D17*
X791000Y130500D02*
X819000D01*
X791000Y197500D02*
X819000D01*
X791000Y130500D02*
Y197500D01*
X819000Y130500D02*
Y197500D01*
X327069Y109954D02*
X329069D01*
X327069Y115954D02*
X329069D01*
X326460Y156659D02*
X328460D01*
X326460Y162659D02*
X328460D01*
X326460Y171040D02*
X328460D01*
X326460Y177040D02*
X328460D01*
X196000Y108000D02*
Y110000D01*
X202000Y108000D02*
Y110000D01*
X222000Y108000D02*
Y110000D01*
X216000Y108000D02*
Y110000D01*
X296062Y172088D02*
X301062Y167088D01*
X241062Y172088D02*
X246062D01*
X241062Y167088D02*
Y172088D01*
Y112088D02*
Y117088D01*
Y112088D02*
X246062D01*
X296062D02*
X301062D01*
Y117088D01*
X207000Y152000D02*
X209000D01*
X207000Y146000D02*
X209000D01*
X207000Y168000D02*
X209000D01*
X207000Y162000D02*
X209000D01*
X238384Y205661D02*
Y207661D01*
X232384Y205661D02*
Y207661D01*
X206706Y226245D02*
X208706D01*
X206706Y220245D02*
X208706D01*
D43*
X835250Y197500D02*
G03*
X835250Y197500I-1250J0D01*
G01*
X311312Y164088D02*
G03*
X311312Y164088I-1250J0D01*
G01*
D44*
X764443Y6326D02*
X771042D01*
Y-7508D02*
Y6326D01*
X764443Y-7508D02*
X771042D01*
X740572D02*
X747171D01*
X740572D02*
Y6326D01*
X747171D01*
X753840Y67364D02*
Y76000D01*
Y67364D02*
X764000D01*
X774160D01*
Y76000D01*
Y96320D02*
Y104956D01*
X764000D02*
X774160D01*
X753840D02*
X764000D01*
X753840Y96320D02*
Y104956D01*
X778840Y67204D02*
Y75840D01*
Y67204D02*
X789000D01*
X799160D01*
Y75840D01*
Y96160D02*
Y104796D01*
X789000D02*
X799160D01*
X778840D02*
X789000D01*
X778840Y96160D02*
Y104796D01*
X225848Y15880D02*
X232447D01*
Y29714D01*
X225848D02*
X232447D01*
X201976D02*
X208576D01*
X201976Y15880D02*
Y29714D01*
Y15880D02*
X208576D01*
X226140Y-2204D02*
X232739D01*
Y11631D01*
X226140D02*
X232739D01*
X202268D02*
X208867D01*
X202268Y-2204D02*
Y11631D01*
Y-2204D02*
X208867D01*
X44086Y42812D02*
Y49412D01*
Y42812D02*
X57920D01*
Y49412D01*
Y66684D02*
Y73283D01*
X44086D02*
X57920D01*
X44086Y66684D02*
Y73283D01*
X17953Y42888D02*
Y49488D01*
Y42888D02*
X31788D01*
Y49488D01*
Y66760D02*
Y73359D01*
X17953D02*
X31788D01*
X17953Y66760D02*
Y73359D01*
X201555Y-5774D02*
X208154D01*
X201555Y-19609D02*
Y-5774D01*
Y-19609D02*
X208154D01*
X225426D02*
X232026D01*
Y-5774D01*
X225426D02*
X232026D01*
X807840Y67044D02*
Y75680D01*
Y67044D02*
X818000D01*
X828160D01*
Y75680D01*
Y96000D02*
Y104636D01*
X818000D02*
X828160D01*
X807840D02*
X818000D01*
X807840Y96000D02*
Y104636D01*
X858558Y101800D02*
Y110800D01*
X834358D02*
X858558D01*
X834358Y101800D02*
Y110800D01*
Y62800D02*
Y71800D01*
Y62800D02*
X858558D01*
Y71800D01*
X217636Y138926D02*
X224235D01*
Y125091D02*
Y138926D01*
X217636Y125091D02*
X224235D01*
X193764D02*
X200364D01*
X193764D02*
Y138926D01*
X200364D01*
D45*
X339819Y107954D02*
Y117954D01*
X316319D02*
X316319Y107954D01*
X325569D01*
X330569D02*
X339819D01*
X316319Y117954D02*
X325569D01*
X330569D02*
X339819D01*
X339210Y154659D02*
Y164659D01*
X315710D02*
X315710Y154659D01*
X324960D01*
X329960D02*
X339210D01*
X315710Y164659D02*
X324960D01*
X329960D02*
X339210D01*
Y169039D02*
Y179039D01*
X315710D02*
X315710Y169039D01*
X324960D01*
X329960D02*
X339210D01*
X315710Y179039D02*
X324960D01*
X329960D02*
X339210D01*
X194000Y97250D02*
X204000D01*
X194000Y120750D02*
X204000Y120750D01*
X194000Y111500D02*
Y120750D01*
Y97250D02*
Y106500D01*
X204000Y111500D02*
Y120750D01*
Y97250D02*
Y106500D01*
X214000Y120750D02*
X224000D01*
X214000Y97250D02*
X224000Y97250D01*
Y106500D01*
Y111500D02*
Y120750D01*
X214000Y97250D02*
Y106500D01*
Y111500D02*
Y120750D01*
X196250Y144000D02*
Y154000D01*
X219750D02*
X219750Y144000D01*
X210500Y154000D02*
X219750D01*
X196250D02*
X205500D01*
X210500Y144000D02*
X219750D01*
X196250D02*
X205500D01*
X196250Y160000D02*
Y170000D01*
X219750D02*
X219750Y160000D01*
X210500Y170000D02*
X219750D01*
X196250D02*
X205500D01*
X210500Y160000D02*
X219750D01*
X196250D02*
X205500D01*
X230384Y218411D02*
X240384D01*
X230384Y194911D02*
X240384Y194911D01*
Y204161D01*
Y209161D02*
Y218411D01*
X230384Y194911D02*
Y204161D01*
Y209161D02*
Y218411D01*
X195956Y218245D02*
Y228245D01*
X219456D02*
X219456Y218245D01*
X210206Y228245D02*
X219456D01*
X195956D02*
X205206D01*
X210206Y218245D02*
X219456D01*
X195956D02*
X205206D01*
D46*
X430202Y204670D02*
X439092D01*
X430202Y194510D02*
X439092D01*
X414962Y204670D02*
X423852D01*
X414962Y194510D02*
X423852D01*
X410136D02*
X415724D01*
X410390Y204670D02*
X414962D01*
X439092Y194510D02*
X441886D01*
Y204670D01*
X439092D02*
X441886D01*
X811000Y214997D02*
Y206666D01*
X809334Y205000D01*
X806002D01*
X804335Y206666D01*
Y214997D01*
X801003Y213331D02*
X799337Y214997D01*
X796005D01*
X794339Y213331D01*
Y211665D01*
X796005Y209998D01*
X797671D01*
X796005D01*
X794339Y208332D01*
Y206666D01*
X796005Y205000D01*
X799337D01*
X801003Y206666D01*
X851997Y46665D02*
Y40000D01*
X846998D01*
Y43332D01*
Y40000D01*
X842000D01*
Y56661D02*
Y49997D01*
X848664Y56661D01*
X850331D01*
X851997Y54995D01*
Y51663D01*
X850331Y49997D01*
X820331Y44665D02*
X821997Y42998D01*
Y39666D01*
X820331Y38000D01*
X813666D01*
X812000Y39666D01*
Y42998D01*
X813666Y44665D01*
X812000Y54661D02*
Y47997D01*
X818664Y54661D01*
X820331D01*
X821997Y52995D01*
Y49663D01*
X820331Y47997D01*
X821997Y64658D02*
Y57994D01*
X816998D01*
X818664Y61326D01*
Y62992D01*
X816998Y64658D01*
X813666D01*
X812000Y62992D01*
Y59660D01*
X813666Y57994D01*
X187997Y190000D02*
X178000Y196665D01*
X187997D02*
X178000Y190000D01*
Y199997D02*
Y203329D01*
Y201663D01*
X187997D01*
X186331Y199997D01*
X314000Y193997D02*
Y185666D01*
X312334Y184000D01*
X309002D01*
X307335Y185666D01*
Y193997D01*
X304003Y184000D02*
X300671D01*
X302337D01*
Y193997D01*
X304003Y192331D01*
X768075Y-21178D02*
Y-11181D01*
X763077D01*
X761411Y-12847D01*
Y-16180D01*
X763077Y-17846D01*
X768075D01*
X764743D02*
X761411Y-21178D01*
X758078D02*
X754746D01*
X756412D01*
Y-11181D01*
X758078Y-12847D01*
X743083Y-21178D02*
X749748D01*
X743083Y-14513D01*
Y-12847D01*
X744749Y-11181D01*
X748082D01*
X749748Y-12847D01*
X611000Y25000D02*
Y34997D01*
X606002D01*
X604336Y33331D01*
Y29998D01*
X606002Y28332D01*
X611000D01*
X594339Y25000D02*
X601003D01*
X594339Y31665D01*
Y33331D01*
X596005Y34997D01*
X599337D01*
X601003Y33331D01*
X190000Y136997D02*
Y127000D01*
X183335D01*
X180003Y135331D02*
X178337Y136997D01*
X175005D01*
X173339Y135331D01*
Y133665D01*
X175005Y131998D01*
X176671D01*
X175005D01*
X173339Y130332D01*
Y128666D01*
X175005Y127000D01*
X178337D01*
X180003Y128666D01*
X767061Y44394D02*
X768727Y42728D01*
Y39396D01*
X767061Y37730D01*
X760396D01*
X758730Y39396D01*
Y42728D01*
X760396Y44394D01*
X758730Y54391D02*
Y47727D01*
X765395Y54391D01*
X767061D01*
X768727Y52725D01*
Y49393D01*
X767061Y47727D01*
X768727Y57724D02*
Y64388D01*
X767061D01*
X760396Y57724D01*
X758730D01*
X794331Y44665D02*
X795997Y42998D01*
Y39666D01*
X794331Y38000D01*
X787666D01*
X786000Y39666D01*
Y42998D01*
X787666Y44665D01*
X786000Y54661D02*
Y47997D01*
X792664Y54661D01*
X794331D01*
X795997Y52995D01*
Y49663D01*
X794331Y47997D01*
X795997Y64658D02*
X794331Y61326D01*
X790998Y57994D01*
X787666D01*
X786000Y59660D01*
Y62992D01*
X787666Y64658D01*
X789332D01*
X790998Y62992D01*
Y57994D01*
X331335Y132331D02*
X333002Y133997D01*
X336334D01*
X338000Y132331D01*
Y125666D01*
X336334Y124000D01*
X333002D01*
X331335Y125666D01*
X328003Y124000D02*
X324671D01*
X326337D01*
Y133997D01*
X328003Y132331D01*
X319673D02*
X318006Y133997D01*
X314674D01*
X313008Y132331D01*
Y130665D01*
X314674Y128998D01*
X316340D01*
X314674D01*
X313008Y127332D01*
Y125666D01*
X314674Y124000D01*
X318006D01*
X319673Y125666D01*
X203331Y74665D02*
X204997Y72998D01*
Y69666D01*
X203331Y68000D01*
X196666D01*
X195000Y69666D01*
Y72998D01*
X196666Y74665D01*
X195000Y77997D02*
Y81329D01*
Y79663D01*
X204997D01*
X203331Y77997D01*
X195000Y92992D02*
Y86327D01*
X201665Y92992D01*
X203331D01*
X204997Y91326D01*
Y87994D01*
X203331Y86327D01*
X222331Y76665D02*
X223997Y74998D01*
Y71666D01*
X222331Y70000D01*
X215666D01*
X214000Y71666D01*
Y74998D01*
X215666Y76665D01*
X214000Y79997D02*
Y83329D01*
Y81663D01*
X223997D01*
X222331Y79997D01*
X214000Y88327D02*
Y91660D01*
Y89994D01*
X223997D01*
X222331Y88327D01*
X180026Y151841D02*
X181692Y153507D01*
X185024D01*
X186690Y151841D01*
Y145176D01*
X185024Y143510D01*
X181692D01*
X180026Y145176D01*
X176693Y143510D02*
X173361D01*
X175027D01*
Y153507D01*
X176693Y151841D01*
X168363D02*
X166696Y153507D01*
X163364D01*
X161698Y151841D01*
Y145176D01*
X163364Y143510D01*
X166696D01*
X168363Y145176D01*
Y151841D01*
X180026Y168351D02*
X181692Y170017D01*
X185024D01*
X186690Y168351D01*
Y161686D01*
X185024Y160020D01*
X181692D01*
X180026Y161686D01*
X176693D02*
X175027Y160020D01*
X171695D01*
X170029Y161686D01*
Y168351D01*
X171695Y170017D01*
X175027D01*
X176693Y168351D01*
Y166684D01*
X175027Y165018D01*
X170029D01*
X185336Y227331D02*
X187002Y228997D01*
X190334D01*
X192000Y227331D01*
Y220666D01*
X190334Y219000D01*
X187002D01*
X185336Y220666D01*
X182003Y228997D02*
X175339D01*
Y227331D01*
X182003Y220666D01*
Y219000D01*
X355336Y178331D02*
X357002Y179997D01*
X360334D01*
X362000Y178331D01*
Y171666D01*
X360334Y170000D01*
X357002D01*
X355336Y171666D01*
X345339Y179997D02*
X348671Y178331D01*
X352003Y174998D01*
Y171666D01*
X350337Y170000D01*
X347005D01*
X345339Y171666D01*
Y173332D01*
X347005Y174998D01*
X352003D01*
X355336Y163331D02*
X357002Y164997D01*
X360334D01*
X362000Y163331D01*
Y156666D01*
X360334Y155000D01*
X357002D01*
X355336Y156666D01*
X345339Y164997D02*
X352003D01*
Y159998D01*
X348671Y161665D01*
X347005D01*
X345339Y159998D01*
Y156666D01*
X347005Y155000D01*
X350337D01*
X352003Y156666D01*
X254331Y204664D02*
X255997Y202998D01*
Y199666D01*
X254331Y198000D01*
X247666D01*
X246000Y199666D01*
Y202998D01*
X247666Y204664D01*
X246000Y212995D02*
X255997D01*
X250998Y207997D01*
Y214661D01*
X442000Y188997D02*
Y179000D01*
X435336D01*
X425339Y188997D02*
X432003D01*
Y179000D01*
X425339D01*
X432003Y183998D02*
X428671D01*
X422006Y188997D02*
Y179000D01*
X417008D01*
X415342Y180666D01*
Y187331D01*
X417008Y188997D01*
X422006D01*
X412010Y179000D02*
X408677D01*
X410344D01*
Y188997D01*
X412010Y187331D01*
X27331Y84664D02*
X28997Y82998D01*
Y79666D01*
X27331Y78000D01*
X20666D01*
X19000Y79666D01*
Y82998D01*
X20666Y84664D01*
X19000Y94661D02*
Y87997D01*
X25665Y94661D01*
X27331D01*
X28997Y92995D01*
Y89663D01*
X27331Y87997D01*
X54331Y84664D02*
X55997Y82998D01*
Y79666D01*
X54331Y78000D01*
X47666D01*
X46000Y79666D01*
Y82998D01*
X47666Y84664D01*
X46000Y87997D02*
Y91329D01*
Y89663D01*
X55997D01*
X54331Y87997D01*
X46000Y101326D02*
X55997D01*
X50998Y96327D01*
Y102992D01*
X187884Y-8237D02*
X189550Y-6571D01*
X192882D01*
X194548Y-8237D01*
Y-14901D01*
X192882Y-16567D01*
X189550D01*
X187884Y-14901D01*
X184552Y-16567D02*
X181219D01*
X182885D01*
Y-6571D01*
X184552Y-8237D01*
X169556Y-6571D02*
X176221D01*
Y-11569D01*
X172889Y-9903D01*
X171222D01*
X169556Y-11569D01*
Y-14901D01*
X171222Y-16567D01*
X174555D01*
X176221Y-14901D01*
X194000Y1000D02*
Y10997D01*
X189002D01*
X187335Y9331D01*
Y5998D01*
X189002Y4332D01*
X194000D01*
X190668D02*
X187335Y1000D01*
X177339D02*
X184003D01*
X177339Y7664D01*
Y9331D01*
X179005Y10997D01*
X182337D01*
X184003Y9331D01*
X195000Y18000D02*
Y27997D01*
X190002D01*
X188335Y26331D01*
Y22998D01*
X190002Y21332D01*
X195000D01*
X191668D02*
X188335Y18000D01*
X185003D02*
X181671D01*
X183337D01*
Y27997D01*
X185003Y26331D01*
X176673Y18000D02*
X173340D01*
X175006D01*
Y27997D01*
X176673Y26331D01*
X621331Y-19336D02*
X622997Y-21002D01*
Y-24334D01*
X621331Y-26000D01*
X614666D01*
X613000Y-24334D01*
Y-21002D01*
X614666Y-19336D01*
X617998D01*
Y-22668D01*
X613000Y-16003D02*
X622997D01*
X613000Y-9339D01*
X622997D01*
Y-6006D02*
X613000D01*
Y-1008D01*
X614666Y658D01*
X621331D01*
X622997Y-1008D01*
Y-6006D01*
X639997Y-27000D02*
Y-20336D01*
Y-23668D01*
X630000D01*
X639997Y-17003D02*
X630000Y-10339D01*
X639997D02*
X630000Y-17003D01*
X639997Y-7006D02*
X630000D01*
Y-2008D01*
X631666Y-342D01*
X638331D01*
X639997Y-2008D01*
Y-7006D01*
X647000Y-26000D02*
X656997D01*
Y-21002D01*
X655331Y-19336D01*
X651998D01*
X650332Y-21002D01*
Y-26000D01*
Y-22668D02*
X647000Y-19336D01*
X656997Y-16003D02*
X647000Y-9339D01*
X656997D02*
X647000Y-16003D01*
X656997Y-6006D02*
X647000D01*
Y-1008D01*
X648666Y658D01*
X655331D01*
X656997Y-1008D01*
Y-6006D01*
X670331Y-19336D02*
X671997Y-21002D01*
Y-24334D01*
X670331Y-26000D01*
X663666D01*
X662000Y-24334D01*
Y-21002D01*
X663666Y-19336D01*
X671997Y-16003D02*
X662000D01*
Y-9339D01*
X671997Y-6006D02*
X662000D01*
X665332D01*
X671997Y658D01*
X666998Y-4340D01*
X662000Y658D01*
X686997Y-26000D02*
X677000D01*
Y-21002D01*
X678666Y-19336D01*
X685331D01*
X686997Y-21002D01*
Y-26000D01*
Y-16003D02*
Y-12671D01*
Y-14337D01*
X677000D01*
Y-16003D01*
Y-12671D01*
X686997Y-2674D02*
Y-6006D01*
X685331Y-7673D01*
X678666D01*
X677000Y-6006D01*
Y-2674D01*
X678666Y-1008D01*
X685331D01*
X686997Y-2674D01*
X702997Y-26000D02*
X696332D01*
X693000Y-22668D01*
X696332Y-19336D01*
X702997D01*
Y-16003D02*
X693000D01*
Y-11005D01*
X694666Y-9339D01*
X701331D01*
X702997Y-11005D01*
Y-16003D01*
Y-6006D02*
X693000D01*
Y-1008D01*
X694666Y658D01*
X701331D01*
X702997Y-1008D01*
Y-6006D01*
D70*
X191040Y175443D02*
G03*
X191040Y175443I-500J0D01*
G01*
X600452Y17768D02*
X615452D01*
X705452D02*
X720452D01*
X600452Y-32232D02*
Y17768D01*
Y-32232D02*
X720452D01*
Y17768D01*
D71*
X441124Y199463D02*
D03*
M02*
