G04 Layer_Color=16711935*
%FSLAX44Y44*%
%MOMM*%
G71*
G01*
G75*
%ADD47R,1.1532X1.2032*%
%ADD49R,1.2032X1.1532*%
%ADD50R,1.0032X0.9532*%
%ADD53R,1.2032X2.2032*%
%ADD54O,1.2032X2.2032*%
%ADD55C,1.7032*%
%ADD56R,1.7032X1.7032*%
%ADD57C,1.2032*%
%ADD58R,1.8034X1.4732*%
%ADD59R,2.0532X1.5032*%
%ADD60R,2.6032X3.5032*%
%ADD61R,2.6032X1.2032*%
%ADD62R,0.9532X1.0032*%
%ADD63C,1.2032*%
%ADD64O,0.8532X0.4032*%
%ADD65O,0.4032X0.8532*%
%ADD66R,4.9032X4.9032*%
%ADD67R,1.5032X1.5032*%
%ADD68R,1.2032X1.2032*%
%ADD69R,1.2032X1.0160*%
D47*
X51011Y50048D02*
D03*
Y66048D02*
D03*
X24879Y50124D02*
D03*
Y66124D02*
D03*
D49*
X763807Y-599D02*
D03*
X747807D02*
D03*
X225212Y22805D02*
D03*
X209212D02*
D03*
X225504Y4722D02*
D03*
X209503D02*
D03*
X208790Y-12700D02*
D03*
X224790D02*
D03*
X217000Y132000D02*
D03*
X201000D02*
D03*
D50*
X199000Y102250D02*
D03*
Y115750D02*
D03*
X219000D02*
D03*
Y102250D02*
D03*
X235384Y213411D02*
D03*
Y199911D02*
D03*
D53*
X697952Y17768D02*
D03*
D54*
X682952D02*
D03*
X667952D02*
D03*
X652952D02*
D03*
X637952D02*
D03*
X622952D02*
D03*
D55*
X50800Y25400D02*
D03*
Y0D02*
D03*
X25400Y25400D02*
D03*
Y0D02*
D03*
X0Y25400D02*
D03*
X850900D02*
D03*
Y0D02*
D03*
X825500Y25400D02*
D03*
Y0D02*
D03*
X800100Y25400D02*
D03*
D56*
X0Y0D02*
D03*
X800100D02*
D03*
D57*
X265062Y148088D02*
D03*
X277062D02*
D03*
X265062Y136088D02*
D03*
X277062D02*
D03*
D58*
X764000Y76000D02*
D03*
Y96320D02*
D03*
X789000Y75840D02*
D03*
Y96160D02*
D03*
X818000Y75680D02*
D03*
Y96000D02*
D03*
D59*
X846458Y101300D02*
D03*
Y72300D02*
D03*
D60*
X776000Y164000D02*
D03*
D61*
X834000Y141000D02*
D03*
X834000Y164000D02*
D03*
X834000Y187000D02*
D03*
D62*
X334819Y112954D02*
D03*
X321319D02*
D03*
X334210Y159659D02*
D03*
X320710D02*
D03*
X334210Y174039D02*
D03*
X320710D02*
D03*
X201250Y149000D02*
D03*
X214750D02*
D03*
X201250Y165000D02*
D03*
X214750D02*
D03*
X200956Y223245D02*
D03*
X214456D02*
D03*
D63*
X168631Y162875D02*
D03*
D64*
X301312Y164088D02*
D03*
Y160088D02*
D03*
Y156088D02*
D03*
Y152088D02*
D03*
Y148088D02*
D03*
Y144088D02*
D03*
Y140088D02*
D03*
Y136088D02*
D03*
Y132088D02*
D03*
Y128088D02*
D03*
Y124088D02*
D03*
Y120088D02*
D03*
X240812D02*
D03*
Y124088D02*
D03*
Y128088D02*
D03*
Y132088D02*
D03*
Y136088D02*
D03*
Y140088D02*
D03*
Y144088D02*
D03*
Y148088D02*
D03*
Y152088D02*
D03*
Y156088D02*
D03*
Y160088D02*
D03*
Y164088D02*
D03*
D65*
X293062Y111838D02*
D03*
X289062D02*
D03*
X285062D02*
D03*
X281062D02*
D03*
X277062D02*
D03*
X273062D02*
D03*
X269062D02*
D03*
X265062D02*
D03*
X261062D02*
D03*
X257062D02*
D03*
X253062D02*
D03*
X249062D02*
D03*
Y172338D02*
D03*
X253062D02*
D03*
X257062D02*
D03*
X261062D02*
D03*
X265062D02*
D03*
X269062D02*
D03*
X273062D02*
D03*
X277062D02*
D03*
X281062D02*
D03*
X285062D02*
D03*
X289062D02*
D03*
X293062D02*
D03*
D66*
X271062Y142088D02*
D03*
D67*
X199161Y184065D02*
D03*
X218862D02*
D03*
Y207065D02*
D03*
D68*
X199161D02*
D03*
D69*
X416376Y199590D02*
D03*
X434376D02*
D03*
M02*
