G04 Layer_Color=65535*
%FSLAX44Y44*%
%MOMM*%
G71*
G01*
G75*
%ADD17C,0.2000*%
%ADD43C,0.2500*%
%ADD44C,0.1778*%
%ADD45C,0.1524*%
%ADD46C,0.1270*%
D17*
X232588Y206101D02*
Y208101D01*
X238588Y206101D02*
Y208101D01*
X253452Y206283D02*
Y208283D01*
X247452Y206283D02*
Y208283D01*
X14817Y-12700D02*
X63500D01*
X-12700D02*
X63500D01*
X-12700Y38100D02*
X63500D01*
X-12700Y-12700D02*
Y38100D01*
X63500Y-12700D02*
Y38100D01*
X814917Y-12700D02*
X863600D01*
X787400D02*
X863600D01*
X787400Y38100D02*
X863600D01*
X787400Y-12700D02*
Y38100D01*
X863600Y-12700D02*
Y38100D01*
X382604Y202833D02*
X468608D01*
Y190539D02*
Y202833D01*
X382604Y190539D02*
Y202808D01*
X453114Y190539D02*
X468608D01*
X398098Y168474D02*
Y190031D01*
X453114Y168474D02*
Y190031D01*
X382604Y190539D02*
X398098D01*
Y168474D02*
X453114D01*
D43*
X93790Y10910D02*
G03*
X93790Y10910I-1250J0D01*
G01*
D44*
X133643Y10446D02*
Y17046D01*
X147478D01*
Y10446D02*
Y17046D01*
Y-13426D02*
Y-6826D01*
X133643Y-13426D02*
X147478D01*
X133643D02*
Y-6826D01*
X113463Y10012D02*
Y16612D01*
X127297D01*
Y10012D02*
Y16612D01*
Y-13859D02*
Y-7260D01*
X113463Y-13859D02*
X127297D01*
X113463D02*
Y-7260D01*
X501636Y160926D02*
X508236D01*
Y147091D02*
Y160926D01*
X501636Y147091D02*
X508236D01*
X477765D02*
X484364D01*
X477765D02*
Y160926D01*
X484364D01*
X501535Y198440D02*
X508134D01*
Y184605D02*
Y198440D01*
X501535Y184605D02*
X508134D01*
X477663D02*
X484263D01*
X477663D02*
Y198440D01*
X484263D01*
X260747Y192347D02*
Y198946D01*
Y192347D02*
X274581D01*
Y198946D01*
Y216218D02*
Y222817D01*
X260747D02*
X274581D01*
X260747Y216218D02*
Y222817D01*
X293421Y216460D02*
Y223060D01*
X279586D02*
X293421D01*
X279586Y216460D02*
Y223060D01*
Y192589D02*
Y199188D01*
Y192589D02*
X293421D01*
Y199188D01*
X477985Y179507D02*
X484584D01*
X477985Y165673D02*
Y179507D01*
Y165673D02*
X484584D01*
X501856D02*
X508456D01*
Y179507D01*
X501856D02*
X508456D01*
D45*
X230588Y218851D02*
X240588D01*
X230588Y195351D02*
X240588Y195351D01*
X230588Y195351D02*
Y204601D01*
Y209601D02*
Y218851D01*
X240588Y195351D02*
Y204601D01*
Y209601D02*
Y218851D01*
X245452Y195533D02*
X255452D01*
X245452Y219033D02*
X255452Y219033D01*
Y209783D02*
Y219033D01*
Y195533D02*
Y204783D01*
X245452Y209783D02*
Y219033D01*
Y195533D02*
Y204783D01*
D46*
X127000Y23000D02*
X117003D01*
Y27998D01*
X118669Y29664D01*
X122002D01*
X123668Y27998D01*
Y23000D01*
Y26332D02*
X127000Y29664D01*
Y37995D02*
X117003D01*
X122002Y32997D01*
Y39661D01*
X118669Y42994D02*
X117003Y44660D01*
Y47992D01*
X118669Y49658D01*
X125334D01*
X127000Y47992D01*
Y44660D01*
X125334Y42994D01*
X118669D01*
X145000Y23000D02*
X135003D01*
Y27998D01*
X136669Y29664D01*
X140002D01*
X141668Y27998D01*
Y23000D01*
Y26332D02*
X145000Y29664D01*
X136669Y32997D02*
X135003Y34663D01*
Y37995D01*
X136669Y39661D01*
X138336D01*
X140002Y37995D01*
Y36329D01*
Y37995D01*
X141668Y39661D01*
X143334D01*
X145000Y37995D01*
Y34663D01*
X143334Y32997D01*
Y42994D02*
X145000Y44660D01*
Y47992D01*
X143334Y49658D01*
X136669D01*
X135003Y47992D01*
Y44660D01*
X136669Y42994D01*
X138336D01*
X140002Y44660D01*
Y49658D01*
X18000Y-28000D02*
Y-18003D01*
X22998D01*
X24664Y-19669D01*
Y-23002D01*
X22998Y-24668D01*
X18000D01*
X27997Y-26334D02*
X29663Y-28000D01*
X32995D01*
X34661Y-26334D01*
Y-19669D01*
X32995Y-18003D01*
X29663D01*
X27997Y-19669D01*
Y-21335D01*
X29663Y-23002D01*
X34661D01*
X818000Y-27000D02*
Y-17003D01*
X822998D01*
X824665Y-18669D01*
Y-22002D01*
X822998Y-23668D01*
X818000D01*
X827997Y-18669D02*
X829663Y-17003D01*
X832995D01*
X834661Y-18669D01*
Y-20336D01*
X832995Y-22002D01*
X834661Y-23668D01*
Y-25334D01*
X832995Y-27000D01*
X829663D01*
X827997Y-25334D01*
Y-23668D01*
X829663Y-22002D01*
X827997Y-20336D01*
Y-18669D01*
X829663Y-22002D02*
X832995D01*
X280949Y172391D02*
X290946D01*
Y179056D01*
Y189053D02*
Y182388D01*
X284281Y189053D01*
X282615D01*
X280949Y187386D01*
Y184054D01*
X282615Y182388D01*
X261674Y175936D02*
X271670D01*
Y182601D01*
Y185933D02*
Y189265D01*
Y187599D01*
X261674D01*
X263340Y185933D01*
X231903Y181512D02*
X230237Y179846D01*
Y176513D01*
X231903Y174847D01*
X238568D01*
X240234Y176513D01*
Y179846D01*
X238568Y181512D01*
X231903Y184844D02*
X230237Y186510D01*
Y189842D01*
X231903Y191509D01*
X233569D01*
X235235Y189842D01*
X236901Y191509D01*
X238568D01*
X240234Y189842D01*
Y186510D01*
X238568Y184844D01*
X236901D01*
X235235Y186510D01*
X233569Y184844D01*
X231903D01*
X235235Y186510D02*
Y189842D01*
X246280Y181493D02*
X244614Y179827D01*
Y176494D01*
X246280Y174828D01*
X252945D01*
X254611Y176494D01*
Y179827D01*
X252945Y181493D01*
X246280Y184825D02*
X244614Y186491D01*
Y189823D01*
X246280Y191490D01*
X247946D01*
X249613Y189823D01*
Y188157D01*
Y189823D01*
X251279Y191490D01*
X252945D01*
X254611Y189823D01*
Y186491D01*
X252945Y184825D01*
X514000Y148000D02*
Y157997D01*
X518998D01*
X520664Y156331D01*
Y152998D01*
X518998Y151332D01*
X514000D01*
X517332D02*
X520664Y148000D01*
X523997D02*
X527329D01*
X525663D01*
Y157997D01*
X523997Y156331D01*
X520664Y193331D02*
X518998Y194997D01*
X515666D01*
X514000Y193331D01*
Y186666D01*
X515666Y185000D01*
X518998D01*
X520664Y186666D01*
X523997Y185000D02*
X527329D01*
X525663D01*
Y194997D01*
X523997Y193331D01*
X92334Y30665D02*
X85669D01*
X84003Y28998D01*
Y25666D01*
X85669Y24000D01*
X92334D01*
X94000Y25666D01*
Y28998D01*
X90668Y27332D02*
X94000Y30665D01*
Y28998D02*
X92334Y30665D01*
X94000Y33997D02*
Y37329D01*
Y35663D01*
X84003D01*
X85669Y33997D01*
X514000Y167000D02*
Y176997D01*
X518998D01*
X520664Y175331D01*
Y171998D01*
X518998Y170332D01*
X514000D01*
X517332D02*
X520664Y167000D01*
X523997Y175331D02*
X525663Y176997D01*
X528995D01*
X530661Y175331D01*
Y173664D01*
X528995Y171998D01*
X527329D01*
X528995D01*
X530661Y170332D01*
Y168666D01*
X528995Y167000D01*
X525663D01*
X523997Y168666D01*
X420664Y160331D02*
X418998Y161997D01*
X415666D01*
X414000Y160331D01*
Y158665D01*
X415666Y156998D01*
X418998D01*
X420664Y155332D01*
Y153666D01*
X418998Y152000D01*
X415666D01*
X414000Y153666D01*
X423997Y161997D02*
Y152000D01*
X427329Y155332D01*
X430661Y152000D01*
Y161997D01*
X433994Y152000D02*
X437326D01*
X435660D01*
Y161997D01*
X433994Y160331D01*
M02*
