M48
;Layer_Color=9474304
;FILE_FORMAT=4:4
METRIC,TZ
;TYPE=PLATED
T1F00S00C0.3000
T2F00S00C0.3300
T3F00S00C0.6000
T4F00S00C0.8000
T5F00S00C0.9000
%
T01
X591820Y-12700
X604520Y-25400
X654050Y-6350
X695960Y-17780
X708660
X721360
X734060
X746760
X762000
X777240
X792480
X807720
X822960
X840740
X858520
X861060Y12700
Y40640
Y55880
Y86360
X843280
X833120
X822960Y60960
X810260
Y48260
X822960
X795020
Y60960
X782320
X769620
X756920
X731520Y71120
X723900Y35560
X708660
X707390Y48260
X693420
X680720
Y35560
X693420
X666750
Y48260
Y62230
X680720
X693420
X666750Y83820
X629920
X623570Y60960
Y46990
Y34290
X585000Y61000
X574000Y73000
X561340Y62230
X594890Y83370
X708660Y5080
X721360
X734060
X782320Y35560
Y48260
X804000Y75680
X543560Y62230
X525780
X508000
X490220
X472440
X454660
X436880
X419100
X401320
X383540
X365760
X347980
X330200
X312420
X294640
X276860
X256540Y61152
X238760Y60960
X228600Y50800
X220980Y40640
X238760
X256540
Y22860
X238760
Y5080
X256540
Y-12700
X238760
X246380Y-25400
X226060
X208280
X167640Y-2540
Y10160
X180340
Y22860
X167640
X193040
Y38100
X180340
X193040Y50800
X203200Y60960
X213360Y71120
X248920Y50800
X167640Y83820
X154940
X142240
X129540
X116840
X104140
X91440
X78740
X66040
X53340
X40640
X27940
X15240
X2540
X-10160
Y71120
X2540
X15240
X27940
X40640
X53340
X66040
X78740
X91440
X104140
X116840
X129540
X142240
X154940
X142240Y58420
X129540
X116840
X104140
X91440
X78740
X66040
X40640
X15240
X2540
X-10160
Y45720
X2540
X12700Y35560
X74930
X91440
X111760
X130810
Y19050
Y1270
X154940Y-2540
Y10160
X88900Y-7620
X73660
X78740Y96520
Y109220
Y121920
Y134620
X66040
X53340
X40640
X27940
X15240
X2540
X-10160
Y121920
X2540
X15240
X27940
X40640
X53340
X66040
Y109220
X53340
X40640
X27940
X15240
X2540
X-10160
Y96520
X2540
X15240
X27940
X40640
X53340
X66040
X91440
Y109220
Y121920
Y134620
X104140
X116840
X129540
X142240
X154940
Y121920
X142240
X129540
X116840
X104140
Y109220
X116840
X129540
X142240
X154940
Y96520
X142240
X129540
X116840
X104140
X167640
Y109220
Y121920
X184150Y118110
Y96520
X208280Y101600
X248920Y102870
X257810Y101600
X228600Y129540
X237000Y170000
X228600Y182880
X254000Y185420
X283322Y182518
X291514Y182326
X311150Y196850
X323850
X336550
X349250
X363220
X377190
X402590
X389890Y181610
Y165100
X391160Y142240
X387024Y131302
X401320Y132080
X416095Y132352
X431800Y133350
X455930
X472440
X487680
X502920
X520700
X538480
Y106680
X520700
X502920
X487680
X472440
X457200
X444500Y109220
X414020Y93980
X368356Y108743
X345440Y116840
X334010Y121920
X332740Y147320
X320040
X345440
Y162560
X375590Y138287
X430530Y163830
X435610Y172720
X422910
X430530Y182880
X445770Y195580
X472440
Y182880
Y163830
X471000Y154000
X462280Y165100
X452120Y161290
X518160Y165100
X533400
Y184150
Y195580
X518160
Y184150
X549910
Y195580
X281940Y228600
X264160
X246380
Y215900
X231140Y228600
X193040Y223520
Y210820
Y198120
X192000Y165000
Y149000
X556260Y133350
X571500
X589280
X609600
X627380
X645160
X666750
Y110490
X666107Y96553
X630141Y96721
X614680Y88900
X609600Y106680
X589280
X571500
X556260
X563880Y160020
X576580
X589280
X601980
X614680
X627380
X640080
X652780
X665480
X678180
X690880
X703580
X716280
X728980
X741680
X754380
Y147320
X741680
Y134620
X754380
X789940
X802640
Y121920
X789940
Y109220
X802640
X815340
Y121920
X855980Y119380
Y132080
Y144780
Y160020
Y172720
Y185420
X843280
X830580
X817880
Y198120
X805180
X792480
X779780
X767080
X754380
X741680
X728980
X716280
X703580
X690880
X678180
X665480
X652780
X640080
X627380
X614680
X601980
X589280
X576580
X563880
Y210820
Y223520
X576580
Y210820
X589280
Y223520
X601980
Y210820
X614680
Y223520
X627380
Y210820
X640080
Y223520
X652780
Y210820
X665480
Y223520
X678180
Y210820
X690880
Y223520
X703580
Y210820
X716280
Y223520
X728980
Y210820
X741680
Y223520
X754380
Y210820
X767080
Y223520
X779780
Y210820
X792480
Y223520
X805180
Y210820
X817880
Y223520
X830580
Y210820
Y198120
X843280
Y210820
Y223520
X855980
Y210820
Y198120
X843280Y152400
X830580
X805180Y185420
X754380
X741680
X728980
X716280
X703580
X690880
X678180
X665480
X652780
X640080
X627380
X614680
X601980
X589280
X576580
X563880
X690880Y133350
Y120650
X709930
Y133350
X728980Y147320
X722630Y105410
Y90170
X708660Y91440
X741680Y93980
Y105410
T02
X253062Y124088
Y136088
Y148088
Y160088
X265062
X277062
X289062
Y148088
Y136088
X277062
Y148088
X265062
Y136088
Y124088
X277062
X289062
T03
X739000Y17768
X769000Y34000
X540000Y150000
X411000Y153000
X309000Y173000
Y112000
X776000Y115000
T04
X622952Y17768
X637952
X652952
X667952
X682952
X697952
X277062Y136088
Y148088
X265062
Y136088
T05
X800100Y0
X825500
X850900
Y25400
X825500
X800100
X50800
Y0
X25400
Y25400
X0
Y0
M30
