G04 Layer_Physical_Order=2*
G04 Layer_Color=16711680*
%FSLAX44Y44*%
%MOMM*%
G71*
G01*
G75*
%ADD10R,0.9500X1.0000*%
%ADD12R,1.0000X0.9500*%
%ADD13R,0.8000X0.7500*%
%ADD16C,0.5000*%
%ADD17C,0.2000*%
%ADD18C,0.3000*%
%ADD19R,1.0000X2.0000*%
%ADD20O,1.0000X2.0000*%
%ADD21C,1.5000*%
%ADD22R,1.5000X1.5000*%
%ADD23C,1.0000*%
%ADD24C,0.6000*%
%ADD25C,1.0000*%
%ADD26C,0.6600*%
%ADD27R,1.6002X1.2700*%
%ADD28R,1.8500X1.3000*%
%ADD29R,2.4000X3.3000*%
%ADD30R,2.4000X1.0000*%
%ADD31R,0.7500X0.8000*%
%ADD32C,1.0000*%
%ADD33O,0.6500X0.2000*%
%ADD34O,0.2000X0.6500*%
%ADD35R,4.7000X4.7000*%
%ADD36R,1.3000X1.3000*%
%ADD37R,1.0000X1.0000*%
%ADD38R,1.0000X0.8128*%
%ADD39C,0.6000*%
%ADD40C,1.2700*%
%ADD41C,1.0000*%
%ADD42R,0.7620X1.2700*%
G36*
X625815Y92395D02*
X627800Y91069D01*
X630141Y90603D01*
X632482Y91069D01*
X633874Y91999D01*
Y29722D01*
X632246Y28473D01*
X630964Y26802D01*
X630158Y24856D01*
X629883Y22768D01*
Y12768D01*
X630158Y10679D01*
X630964Y8733D01*
X632246Y7062D01*
X633918Y5780D01*
X635863Y4974D01*
X637952Y4699D01*
X640040Y4974D01*
X641986Y5780D01*
X643658Y7062D01*
X644940Y8733D01*
X645452Y9969D01*
X645964Y8733D01*
X647246Y7062D01*
X648917Y5780D01*
X650863Y4974D01*
X652952Y4699D01*
X655040Y4974D01*
X656986Y5780D01*
X658658Y7062D01*
X659940Y8733D01*
X660452Y9969D01*
X660964Y8733D01*
X662246Y7062D01*
X663874Y5814D01*
Y-8808D01*
X658951Y-13731D01*
X616068D01*
X601443Y894D01*
Y68292D01*
X601443Y68292D01*
X601184Y69594D01*
X601133Y69853D01*
X600248Y71176D01*
X584063Y87362D01*
X597751D01*
X604252Y80861D01*
Y6350D01*
X604252Y6350D01*
X604511Y5048D01*
X604562Y4789D01*
X605446Y3466D01*
X618146Y-9234D01*
X618146Y-9234D01*
X619469Y-10118D01*
X619728Y-10169D01*
X621030Y-10428D01*
X621030Y-10428D01*
X649559D01*
X649724Y-10676D01*
X651709Y-12002D01*
X654050Y-12467D01*
X656391Y-12002D01*
X658376Y-10676D01*
X659702Y-8691D01*
X660167Y-6350D01*
X659702Y-4009D01*
X658376Y-2024D01*
X656391Y-698D01*
X654050Y-233D01*
X651709Y-698D01*
X649724Y-2024D01*
X649559Y-2272D01*
X622719D01*
X612408Y8039D01*
Y82550D01*
X612408Y82550D01*
X612149Y83852D01*
X612098Y84111D01*
X611214Y85434D01*
X611214Y85434D01*
X604137Y92511D01*
X625738D01*
X625815Y92395D01*
D02*
G37*
G36*
X633874Y103442D02*
Y101443D01*
X632482Y102373D01*
X630141Y102838D01*
X627800Y102373D01*
X625815Y101047D01*
X625562Y100668D01*
X457434D01*
X454548Y103553D01*
X453225Y104437D01*
X452966Y104489D01*
X451665Y104748D01*
X451664Y104748D01*
X448607D01*
X448826Y104894D01*
X450152Y106879D01*
X450617Y109220D01*
X450152Y111561D01*
X449591Y112401D01*
X624915D01*
X633874Y103442D01*
D02*
G37*
G36*
X159200Y139369D02*
X159521Y136929D01*
X160463Y134654D01*
X161962Y132701D01*
X169331Y125331D01*
X171285Y123833D01*
X173559Y122891D01*
X176000Y122569D01*
X190931D01*
Y117000D01*
X191206Y114912D01*
X192000Y112994D01*
Y109000D01*
X198476D01*
X199000Y108931D01*
X199524Y109000D01*
X206000D01*
Y112994D01*
X206794Y114912D01*
X207069Y117000D01*
Y124250D01*
X209000D01*
Y127067D01*
X209000Y127067D01*
Y124250D01*
X210882D01*
Y120000D01*
X211348Y117659D01*
X212000Y116683D01*
Y109000D01*
X226000D01*
Y122500D01*
X223151D01*
X223118Y122534D01*
Y124250D01*
X225000D01*
Y131348D01*
X227622Y133971D01*
X234000D01*
X235029Y134175D01*
X235087Y134088D01*
X234794Y133649D01*
X234483Y132088D01*
X234794Y130527D01*
X235087Y130088D01*
X234794Y129649D01*
X234483Y128088D01*
X234506Y127974D01*
X234170Y127907D01*
X233911Y127856D01*
X232588Y126972D01*
X232588Y126972D01*
X228122Y122506D01*
X227238Y121183D01*
X227187Y120924D01*
X226928Y119622D01*
X226928Y119622D01*
Y104189D01*
X226928Y104189D01*
X227187Y102887D01*
X227238Y102628D01*
X228122Y101305D01*
X250311Y79116D01*
X250311Y79116D01*
X251072Y78608D01*
X231000D01*
X228854Y78181D01*
X227035Y76965D01*
X205246Y55177D01*
X204031Y53358D01*
X203604Y51212D01*
Y30555D01*
X201212D01*
Y22736D01*
X167559Y-10917D01*
X33847D01*
X31491Y-8561D01*
X32889Y-7489D01*
X34572Y-5295D01*
X35630Y-2741D01*
X35991Y0D01*
X35630Y2741D01*
X34572Y5295D01*
X32889Y7489D01*
X30695Y9172D01*
X28141Y10230D01*
X25400Y10591D01*
X22659Y10230D01*
X20105Y9172D01*
X17911Y7489D01*
X16228Y5295D01*
X15170Y2741D01*
X14809Y0D01*
X15170Y-2741D01*
X16228Y-5295D01*
X17911Y-7489D01*
X19792Y-8932D01*
Y-10400D01*
X20219Y-12546D01*
X21435Y-14365D01*
X26889Y-19819D01*
X9750D01*
X5608Y-15677D01*
Y-10500D01*
X10500D01*
Y10500D01*
X-10500D01*
Y-10500D01*
X-5608D01*
Y-18000D01*
X-5181Y-20146D01*
X-3965Y-21965D01*
X2846Y-28777D01*
X400D01*
X352Y-28786D01*
X-2895Y-28466D01*
X-6064Y-27505D01*
X-8984Y-25944D01*
X-11544Y-23844D01*
X-13644Y-21284D01*
X-15205Y-18364D01*
X-16166Y-15195D01*
X-16486Y-11948D01*
X-16477Y-11900D01*
Y140281D01*
X159200D01*
Y139369D01*
D02*
G37*
G36*
X283695Y234666D02*
X286864Y233705D01*
X289784Y232144D01*
X292344Y230044D01*
X294444Y227484D01*
X296005Y224564D01*
X296966Y221395D01*
X297286Y218148D01*
X297277Y218100D01*
Y213100D01*
X297224D01*
X297673Y209690D01*
X298989Y206512D01*
X301083Y203783D01*
X303812Y201689D01*
X306990Y200373D01*
X310400Y199924D01*
Y199977D01*
X408376D01*
Y197357D01*
X399706Y188687D01*
X398822Y187364D01*
X398771Y187105D01*
X398512Y185803D01*
X398512Y185803D01*
Y145858D01*
X398512Y145857D01*
X398771Y144556D01*
X398822Y144297D01*
X399706Y142974D01*
X410036Y132644D01*
X409978Y132352D01*
X410443Y130011D01*
X411769Y128027D01*
X413754Y126700D01*
X416095Y126235D01*
X418436Y126700D01*
X420421Y128027D01*
X421747Y130011D01*
X422213Y132352D01*
X421747Y134693D01*
X420421Y136678D01*
X418436Y138004D01*
X416095Y138470D01*
X415803Y138412D01*
X409024Y145191D01*
X411000Y144931D01*
X411122Y144947D01*
X416035Y140035D01*
X417854Y138819D01*
X420000Y138392D01*
X713997D01*
X752729Y99660D01*
X738035Y84965D01*
X736819Y83146D01*
X736392Y81000D01*
Y61000D01*
X736819Y58854D01*
X738035Y57035D01*
X760947Y34122D01*
X760931Y34000D01*
X761029Y33259D01*
X666848Y127440D01*
X665525Y128324D01*
X665266Y128375D01*
X663964Y128634D01*
X663964Y128634D01*
X434436D01*
X434436Y128634D01*
X433134Y128375D01*
X432875Y128324D01*
X431552Y127440D01*
X431552Y127440D01*
X425031Y120918D01*
X382689D01*
X376457Y127150D01*
X376408Y127224D01*
X382533D01*
X382699Y126976D01*
X384683Y125650D01*
X387024Y125184D01*
X389366Y125650D01*
X391350Y126976D01*
X392676Y128961D01*
X393142Y131302D01*
X392676Y133643D01*
X391350Y135628D01*
X389366Y136954D01*
X387024Y137420D01*
X384683Y136954D01*
X382699Y135628D01*
X382533Y135380D01*
X380864D01*
X381242Y135945D01*
X381707Y138287D01*
X381242Y140628D01*
X379916Y142612D01*
X379668Y142778D01*
Y176373D01*
X379668Y176373D01*
X379358Y177934D01*
X379064Y178372D01*
X378474Y179257D01*
X378474Y179257D01*
X365807Y191923D01*
X364484Y192807D01*
X364225Y192859D01*
X362923Y193118D01*
X362923Y193118D01*
X306289D01*
X298602Y200805D01*
X297279Y201689D01*
X297020Y201740D01*
X295718Y201999D01*
X295718Y201999D01*
X277106D01*
X277106Y201999D01*
X275805Y201740D01*
X275546Y201689D01*
X274222Y200805D01*
X262178Y188760D01*
X261294Y187437D01*
X261242Y187178D01*
X260983Y185877D01*
X260983Y185876D01*
Y178651D01*
X259501Y178356D01*
X259062Y178062D01*
X258622Y178356D01*
X257062Y178666D01*
X255501Y178356D01*
X255062Y178062D01*
X254622Y178356D01*
X253062Y178666D01*
X251501Y178356D01*
X251062Y178062D01*
X250622Y178356D01*
X249062Y178666D01*
X247501Y178356D01*
X246178Y177472D01*
X245294Y176149D01*
X244983Y174588D01*
Y170088D01*
X245294Y168527D01*
X246178Y167204D01*
X247501Y166320D01*
X249062Y166010D01*
X250622Y166320D01*
X251062Y166614D01*
X251501Y166320D01*
X253062Y166010D01*
X254622Y166320D01*
X255062Y166614D01*
X255501Y166320D01*
X257062Y166010D01*
X258622Y166320D01*
X259062Y166614D01*
X259501Y166320D01*
X261062Y166010D01*
X262622Y166320D01*
X263062Y166614D01*
X263501Y166320D01*
X265062Y166010D01*
X266622Y166320D01*
X267062Y166614D01*
X267501Y166320D01*
X269062Y166010D01*
X270622Y166320D01*
X271062Y166614D01*
X271501Y166320D01*
X273062Y166010D01*
X274622Y166320D01*
X275062Y166614D01*
X275501Y166320D01*
X277062Y166010D01*
X278622Y166320D01*
X279946Y167204D01*
X280830Y168527D01*
X281062Y169694D01*
X281294Y168527D01*
X282178Y167204D01*
X283501Y166320D01*
X285062Y166010D01*
X286622Y166320D01*
X287062Y166614D01*
X287501Y166320D01*
X289062Y166010D01*
X290622Y166320D01*
X291062Y166614D01*
X291501Y166320D01*
X293062Y166010D01*
X294622Y166320D01*
X295945Y167204D01*
X296651Y168260D01*
X302554D01*
X302625Y168167D01*
X299062D01*
X297501Y167856D01*
X296178Y166972D01*
X295294Y165649D01*
X294983Y164088D01*
X295294Y162527D01*
X295587Y162088D01*
X295294Y161649D01*
X294983Y160088D01*
X295294Y158527D01*
X295587Y158088D01*
X295294Y157649D01*
X294983Y156088D01*
X295294Y154527D01*
X295587Y154088D01*
X295294Y153649D01*
X294983Y152088D01*
X295294Y150527D01*
X295587Y150088D01*
X295294Y149649D01*
X294983Y148088D01*
X295294Y146527D01*
X295587Y146088D01*
X295294Y145649D01*
X294983Y144088D01*
X295294Y142527D01*
X295587Y142088D01*
X295294Y141649D01*
X294983Y140088D01*
X295294Y138527D01*
X295587Y138088D01*
X295294Y137649D01*
X294983Y136088D01*
X295294Y134527D01*
X295587Y134088D01*
X295294Y133649D01*
X294983Y132088D01*
X295294Y130527D01*
X295587Y130088D01*
X295294Y129649D01*
X294983Y128088D01*
X295294Y126527D01*
X295587Y126088D01*
X295294Y125649D01*
X294983Y124088D01*
X295294Y122527D01*
X295587Y122088D01*
X295294Y121649D01*
X294983Y120088D01*
X295294Y118527D01*
X296178Y117204D01*
X297342Y116426D01*
X296310D01*
X295945Y116972D01*
X294622Y117856D01*
X293062Y118167D01*
X291501Y117856D01*
X291062Y117563D01*
X290622Y117856D01*
X289062Y118167D01*
X287501Y117856D01*
X287062Y117563D01*
X286622Y117856D01*
X285062Y118167D01*
X283501Y117856D01*
X283062Y117563D01*
X282622Y117856D01*
X281062Y118167D01*
X279501Y117856D01*
X279062Y117563D01*
X278622Y117856D01*
X277062Y118167D01*
X275501Y117856D01*
X275062Y117563D01*
X274622Y117856D01*
X273062Y118167D01*
X271501Y117856D01*
X271062Y117563D01*
X270622Y117856D01*
X269062Y118167D01*
X267501Y117856D01*
X267062Y117563D01*
X266622Y117856D01*
X265062Y118167D01*
X263501Y117856D01*
X263062Y117563D01*
X262622Y117856D01*
X261062Y118167D01*
X259501Y117856D01*
X259062Y117563D01*
X258622Y117856D01*
X257062Y118167D01*
X255501Y117856D01*
X255062Y117563D01*
X254622Y117856D01*
X253062Y118167D01*
X251501Y117856D01*
X251062Y117563D01*
X250622Y117856D01*
X249062Y118167D01*
X247501Y117856D01*
X246178Y116972D01*
X245294Y115649D01*
X244983Y114088D01*
Y109588D01*
X245294Y108027D01*
X246178Y106704D01*
X247501Y105820D01*
X249062Y105510D01*
X250622Y105820D01*
X251062Y106114D01*
X251501Y105820D01*
X253062Y105510D01*
X254622Y105820D01*
X255062Y106114D01*
X255501Y105820D01*
X257062Y105510D01*
X258622Y105820D01*
X259062Y106114D01*
X259501Y105820D01*
X260983Y105525D01*
Y102363D01*
X260983Y102363D01*
X261242Y101061D01*
X261294Y100802D01*
X262178Y99479D01*
X271440Y90217D01*
X257163D01*
X239964Y107416D01*
Y116010D01*
X243062D01*
X244622Y116320D01*
X245945Y117204D01*
X246830Y118527D01*
X247140Y120088D01*
X246830Y121649D01*
X246536Y122088D01*
X246830Y122527D01*
X247140Y124088D01*
X246830Y125649D01*
X246536Y126088D01*
X246830Y126527D01*
X247140Y128088D01*
X246830Y129649D01*
X246536Y130088D01*
X246830Y130527D01*
X247140Y132088D01*
X246830Y133649D01*
X246536Y134088D01*
X246830Y134527D01*
X247140Y136088D01*
X246830Y137649D01*
X246536Y138088D01*
X246830Y138527D01*
X247140Y140088D01*
X246830Y141649D01*
X245945Y142972D01*
X244622Y143856D01*
X243456Y144088D01*
X244622Y144320D01*
X245945Y145204D01*
X246830Y146527D01*
X247140Y148088D01*
X246830Y149649D01*
X246536Y150088D01*
X246830Y150527D01*
X247140Y152088D01*
X246830Y153649D01*
X246536Y154088D01*
X246830Y154527D01*
X247140Y156088D01*
X246830Y157649D01*
X246536Y158088D01*
X246830Y158527D01*
X247140Y160088D01*
X246830Y161649D01*
X246536Y162088D01*
X246830Y162527D01*
X247140Y164088D01*
X246830Y165649D01*
X245945Y166972D01*
X244622Y167856D01*
X243062Y168167D01*
X242753D01*
X243118Y170000D01*
X242652Y172341D01*
X241326Y174326D01*
X239341Y175652D01*
X238483Y175823D01*
X239152Y176823D01*
X239463Y178384D01*
X239462Y178384D01*
Y193161D01*
X242384D01*
Y206661D01*
X228384D01*
Y203989D01*
X228361D01*
Y216565D01*
X221206D01*
Y230245D01*
X207706D01*
Y222263D01*
X205116Y219673D01*
X204232Y218350D01*
X204181Y218091D01*
X203922Y216789D01*
X203922Y216789D01*
Y194592D01*
X202894Y193565D01*
X189662D01*
Y174565D01*
X202894D01*
X207342Y170116D01*
X207342Y170116D01*
X208000Y169677D01*
Y158000D01*
X220232D01*
X226066Y152167D01*
X221500D01*
Y156000D01*
X208000D01*
Y142000D01*
X218349D01*
X216098Y139750D01*
X209000D01*
Y136933D01*
X209000Y136933D01*
Y139750D01*
X206259D01*
X205715Y140167D01*
X203441Y141109D01*
X201000Y141431D01*
X199000Y141167D01*
X197000Y141431D01*
X187362D01*
X189212Y143281D01*
Y234977D01*
X280400D01*
X280448Y234986D01*
X283695Y234666D01*
D02*
G37*
G36*
X223131Y197027D02*
X223132Y197027D01*
X224455Y196143D01*
X224713Y196092D01*
X226015Y195833D01*
X226015Y195833D01*
X228384D01*
Y193161D01*
X231306D01*
Y180073D01*
X228116Y176884D01*
X227232Y175561D01*
X227181Y175302D01*
X227062Y174706D01*
X225884Y175884D01*
X224561Y176768D01*
X224302Y176819D01*
X223000Y177078D01*
X223000Y177078D01*
X211916D01*
X208661Y180332D01*
Y187797D01*
X210884Y190019D01*
X210884Y190019D01*
X211768Y191343D01*
X212078Y192903D01*
Y197565D01*
X222594D01*
X223131Y197027D01*
D02*
G37*
G36*
X853696Y234666D02*
X856864Y233705D01*
X859784Y232144D01*
X862344Y230044D01*
X864445Y227484D01*
X866006Y224564D01*
X866967Y221395D01*
X867287Y218148D01*
X867277Y218100D01*
Y-11900D01*
X867287Y-11948D01*
X866967Y-15195D01*
X866006Y-18364D01*
X864445Y-21284D01*
X862344Y-23844D01*
X859784Y-25944D01*
X856864Y-27505D01*
X853696Y-28466D01*
X850449Y-28786D01*
X850400Y-28777D01*
X602900D01*
X602852Y-28786D01*
X599605Y-28466D01*
X596437Y-27505D01*
X593516Y-25944D01*
X590957Y-23844D01*
X588856Y-21284D01*
X587295Y-18364D01*
X586334Y-15195D01*
X586014Y-11948D01*
X586024Y-11900D01*
Y49100D01*
X586033D01*
X585756Y51205D01*
X584944Y53167D01*
X583651Y54851D01*
X581967Y56143D01*
X580005Y56956D01*
X577900Y57233D01*
Y57224D01*
X272900D01*
Y57233D01*
X270795Y56956D01*
X268834Y56143D01*
X267149Y54851D01*
X265857Y53167D01*
X265044Y51205D01*
X264767Y49100D01*
X264777D01*
Y-11900D01*
X264786Y-11948D01*
X264466Y-15195D01*
X263505Y-18364D01*
X261944Y-21284D01*
X259844Y-23844D01*
X257284Y-25944D01*
X254364Y-27505D01*
X251195Y-28466D01*
X247948Y-28786D01*
X247900Y-28777D01*
X196780D01*
X205107Y-20450D01*
X216790D01*
Y-4950D01*
X214849D01*
Y-3028D01*
X217504D01*
Y7166D01*
X219697Y9360D01*
X220041Y9590D01*
X225506Y15055D01*
X233212D01*
Y30555D01*
X217212D01*
Y22622D01*
X217212Y22622D01*
Y30555D01*
X214819D01*
Y48889D01*
X233323Y67392D01*
X571593D01*
X571659Y67348D01*
X574000Y66883D01*
X576341Y67348D01*
X578326Y68674D01*
X579652Y70659D01*
X580117Y73000D01*
X579841Y74392D01*
X589286Y64946D01*
Y-2453D01*
X589286Y-2453D01*
X589545Y-3754D01*
X589597Y-4013D01*
X590481Y-5336D01*
X609838Y-24693D01*
X611161Y-25577D01*
X611420Y-25629D01*
X612721Y-25888D01*
X612721Y-25888D01*
X671325D01*
X671325Y-25888D01*
X672627Y-25629D01*
X672886Y-25577D01*
X674209Y-24693D01*
X685836Y-13067D01*
X685836Y-13067D01*
X686720Y-11744D01*
X687030Y-10183D01*
Y5814D01*
X688658Y7062D01*
X689940Y8733D01*
X689952Y8762D01*
Y4768D01*
X705952D01*
Y30768D01*
X689952D01*
Y26773D01*
X689940Y26802D01*
X688658Y28473D01*
X686986Y29756D01*
X685040Y30562D01*
X682952Y30837D01*
X680864Y30562D01*
X678917Y29756D01*
X677246Y28473D01*
X675964Y26802D01*
X675452Y25566D01*
X674940Y26802D01*
X673658Y28473D01*
X671986Y29756D01*
X670040Y30562D01*
X667952Y30837D01*
X665864Y30562D01*
X663917Y29756D01*
X662246Y28473D01*
X660964Y26802D01*
X660452Y25566D01*
X659940Y26802D01*
X658658Y28473D01*
X657030Y29722D01*
Y104277D01*
X657030Y104277D01*
X656771Y105578D01*
X656720Y105837D01*
X655836Y107161D01*
X642519Y120478D01*
X662274D01*
X760236Y22516D01*
X760236Y22516D01*
X761559Y21632D01*
X761818Y21581D01*
X763120Y21322D01*
X763120Y21322D01*
X790424D01*
X790928Y20105D01*
X792611Y17911D01*
X794805Y16228D01*
X797359Y15170D01*
X800100Y14809D01*
X802841Y15170D01*
X805395Y16228D01*
X807589Y17911D01*
X809272Y20105D01*
X810330Y22659D01*
X810691Y25400D01*
X810330Y28141D01*
X809272Y30695D01*
X807589Y32889D01*
X805395Y34572D01*
X802841Y35630D01*
X800100Y35991D01*
X797359Y35630D01*
X794805Y34572D01*
X792611Y32889D01*
X790928Y30695D01*
X790424Y29478D01*
X775614D01*
X775988Y29966D01*
X776794Y31912D01*
X777069Y34000D01*
X776794Y36088D01*
X775988Y38035D01*
X774706Y39706D01*
X773035Y40988D01*
X771088Y41794D01*
X769000Y42069D01*
X768878Y42053D01*
X747608Y63323D01*
Y78677D01*
X755900Y86970D01*
X775001D01*
Y88091D01*
X777999D01*
Y86810D01*
X800001D01*
Y105510D01*
X784069D01*
Y115000D01*
X784069Y115000D01*
X784069Y115000D01*
Y144500D01*
X791000D01*
Y158392D01*
X819000D01*
Y156000D01*
X849000D01*
Y172000D01*
X819000D01*
Y169608D01*
X791000D01*
Y183500D01*
X761000D01*
Y144500D01*
X767931D01*
Y105670D01*
X762580D01*
X720285Y147965D01*
X718466Y149181D01*
X716320Y149608D01*
X548017D01*
X548069Y150000D01*
X547794Y152088D01*
X546988Y154035D01*
X545706Y155706D01*
X544035Y156988D01*
X542088Y157794D01*
X540000Y158069D01*
X537912Y157794D01*
X535965Y156988D01*
X534294Y155706D01*
X533012Y154035D01*
X532206Y152088D01*
X531931Y150000D01*
X531983Y149608D01*
X475226D01*
X475326Y149674D01*
X476652Y151659D01*
X477118Y154000D01*
X476652Y156341D01*
X475326Y158326D01*
X473341Y159652D01*
X471000Y160117D01*
X468659Y159652D01*
X466674Y158326D01*
X466509Y158078D01*
X426809D01*
X418098Y166789D01*
Y177544D01*
X433080Y192526D01*
X442376D01*
Y199977D01*
X540400D01*
Y199924D01*
X543811Y200373D01*
X546988Y201689D01*
X549717Y203783D01*
X551811Y206512D01*
X553128Y209690D01*
X553577Y213100D01*
X553524D01*
Y218100D01*
X553514Y218148D01*
X553834Y221395D01*
X554795Y224564D01*
X556356Y227484D01*
X558457Y230044D01*
X561016Y232144D01*
X563937Y233705D01*
X567105Y234666D01*
X570352Y234986D01*
X570400Y234977D01*
X850400D01*
X850449Y234986D01*
X853696Y234666D01*
D02*
G37*
G36*
X357139Y113595D02*
X358462Y112711D01*
X358721Y112659D01*
X360022Y112400D01*
X360023Y112401D01*
X363583D01*
X362704Y111084D01*
X362238Y108743D01*
X362253Y108668D01*
X328069D01*
Y119954D01*
X314569D01*
Y117810D01*
X313034Y118988D01*
X311088Y119794D01*
X309000Y120069D01*
X307600Y119885D01*
X307640Y120088D01*
X307330Y121649D01*
X307036Y122088D01*
X307330Y122527D01*
X307624Y124010D01*
X346724D01*
X357139Y113595D01*
D02*
G37*
G36*
X351881Y170403D02*
Y136696D01*
X349604Y138972D01*
X348281Y139856D01*
X348022Y139908D01*
X346721Y140167D01*
X346721Y140166D01*
X307624D01*
X307330Y141649D01*
X307036Y142088D01*
X307330Y142527D01*
X307640Y144088D01*
X307330Y145649D01*
X307036Y146088D01*
X307330Y146527D01*
X307640Y148088D01*
X307330Y149649D01*
X307036Y150088D01*
X307330Y150527D01*
X307640Y152088D01*
X307330Y153649D01*
X307036Y154088D01*
X307330Y154527D01*
X307640Y156088D01*
X307330Y157649D01*
X307036Y158088D01*
X307330Y158527D01*
X307624Y160010D01*
X313960D01*
Y152659D01*
X327460D01*
Y166659D01*
X319478D01*
X319165Y166972D01*
X319064Y167040D01*
X327460D01*
Y176961D01*
X345323D01*
X351881Y170403D01*
D02*
G37*
%LPC*%
G36*
X0Y35991D02*
X-2741Y35630D01*
X-5295Y34572D01*
X-7489Y32889D01*
X-9172Y30695D01*
X-10230Y28141D01*
X-10591Y25400D01*
X-10230Y22659D01*
X-9172Y20105D01*
X-7489Y17911D01*
X-5295Y16228D01*
X-2741Y15170D01*
X0Y14809D01*
X2741Y15170D01*
X5295Y16228D01*
X7489Y17911D01*
X9172Y20105D01*
X10230Y22659D01*
X10591Y25400D01*
X10230Y28141D01*
X9172Y30695D01*
X7489Y32889D01*
X5295Y34572D01*
X2741Y35630D01*
X0Y35991D01*
D02*
G37*
G36*
X50800Y10591D02*
X48059Y10230D01*
X45505Y9172D01*
X43311Y7489D01*
X41628Y5295D01*
X40570Y2741D01*
X40209Y0D01*
X40570Y-2741D01*
X41628Y-5295D01*
X43311Y-7489D01*
X45505Y-9172D01*
X48059Y-10230D01*
X50800Y-10591D01*
X53541Y-10230D01*
X56095Y-9172D01*
X58289Y-7489D01*
X59972Y-5295D01*
X61030Y-2741D01*
X61391Y0D01*
X61030Y2741D01*
X59972Y5295D01*
X58289Y7489D01*
X56095Y9172D01*
X53541Y10230D01*
X50800Y10591D01*
D02*
G37*
G36*
X32629Y58124D02*
X17129D01*
Y42124D01*
X20744D01*
Y34836D01*
X20105Y34572D01*
X17911Y32889D01*
X16228Y30695D01*
X15170Y28141D01*
X14809Y25400D01*
X15170Y22659D01*
X16228Y20105D01*
X17911Y17911D01*
X20105Y16228D01*
X22659Y15170D01*
X25400Y14809D01*
X28141Y15170D01*
X30695Y16228D01*
X32889Y17911D01*
X34572Y20105D01*
X35630Y22659D01*
X35991Y25400D01*
X35630Y28141D01*
X34572Y30695D01*
X32889Y32889D01*
X30695Y34572D01*
X28900Y35315D01*
Y42124D01*
X32629D01*
Y58124D01*
D02*
G37*
G36*
X858708Y81800D02*
X834208D01*
Y62800D01*
X840850D01*
Y58841D01*
X834235Y52225D01*
X833019Y50406D01*
X832592Y48260D01*
Y33193D01*
X830795Y34572D01*
X828241Y35630D01*
X825500Y35991D01*
X822759Y35630D01*
X820205Y34572D01*
X818011Y32889D01*
X816328Y30695D01*
X815270Y28141D01*
X814909Y25400D01*
X815270Y22659D01*
X816328Y20105D01*
X818011Y17911D01*
X820205Y16228D01*
X822759Y15170D01*
X825500Y14809D01*
X828241Y15170D01*
X830795Y16228D01*
X832592Y17607D01*
Y12700D01*
X833019Y10554D01*
X834235Y8735D01*
X840619Y2351D01*
X840309Y0D01*
X840670Y-2741D01*
X841728Y-5295D01*
X843411Y-7489D01*
X845605Y-9172D01*
X848159Y-10230D01*
X850900Y-10591D01*
X853641Y-10230D01*
X856195Y-9172D01*
X858389Y-7489D01*
X860072Y-5295D01*
X861130Y-2741D01*
X861491Y0D01*
X861130Y2741D01*
X860072Y5295D01*
X858389Y7489D01*
X856195Y9172D01*
X853641Y10230D01*
X850900Y10591D01*
X848549Y10281D01*
X843808Y15023D01*
Y17607D01*
X845605Y16228D01*
X848159Y15170D01*
X850900Y14809D01*
X853641Y15170D01*
X856195Y16228D01*
X858389Y17911D01*
X860072Y20105D01*
X861130Y22659D01*
X861491Y25400D01*
X861130Y28141D01*
X860072Y30695D01*
X858389Y32889D01*
X856195Y34572D01*
X853641Y35630D01*
X850900Y35991D01*
X848159Y35630D01*
X845605Y34572D01*
X843808Y33193D01*
Y45937D01*
X850423Y52552D01*
X851639Y54372D01*
X852066Y56518D01*
Y62800D01*
X858708D01*
Y81800D01*
D02*
G37*
G36*
X849000Y149000D02*
X819000D01*
Y133000D01*
X828392D01*
Y106907D01*
X823299D01*
X821154Y106480D01*
X819462Y105350D01*
X806999D01*
Y86650D01*
X829001D01*
Y95692D01*
X834208D01*
Y91800D01*
X858708D01*
Y110800D01*
X839608D01*
Y133000D01*
X849000D01*
Y149000D01*
D02*
G37*
G36*
X58761Y58048D02*
X43261D01*
Y42048D01*
X46933D01*
Y35163D01*
X45505Y34572D01*
X43311Y32889D01*
X41628Y30695D01*
X40570Y28141D01*
X40209Y25400D01*
X40570Y22659D01*
X41628Y20105D01*
X43311Y17911D01*
X45505Y16228D01*
X48059Y15170D01*
X50800Y14809D01*
X53541Y15170D01*
X56095Y16228D01*
X58289Y17911D01*
X59972Y20105D01*
X61030Y22659D01*
X61391Y25400D01*
X61030Y28141D01*
X59972Y30695D01*
X58289Y32889D01*
X56095Y34572D01*
X55090Y34988D01*
Y42048D01*
X58761D01*
Y58048D01*
D02*
G37*
G36*
X666107Y102671D02*
X663766Y102205D01*
X661781Y100879D01*
X660455Y98894D01*
X659989Y96553D01*
X660455Y94212D01*
X661781Y92227D01*
X663766Y90901D01*
X666107Y90435D01*
X668448Y90901D01*
X670433Y92227D01*
X670598Y92475D01*
X674758D01*
X742082Y25150D01*
X741088Y25562D01*
X739000Y25837D01*
X736912Y25562D01*
X734966Y24756D01*
X733294Y23473D01*
X732012Y21802D01*
X731206Y19856D01*
X730931Y17768D01*
X731206Y15679D01*
X732012Y13733D01*
X733294Y12062D01*
X734966Y10780D01*
X736912Y9974D01*
X739000Y9699D01*
X739122Y9715D01*
X741687Y7151D01*
X739807D01*
Y-8349D01*
X755807D01*
Y7151D01*
X753415D01*
Y8961D01*
X752988Y11107D01*
X751772Y12926D01*
X747053Y17645D01*
X747069Y17768D01*
X746794Y19856D01*
X746383Y20850D01*
X759729Y7504D01*
Y7151D01*
X755807D01*
Y-8349D01*
X771807D01*
Y-4678D01*
X789600D01*
Y-10500D01*
X810600D01*
Y10500D01*
X789600D01*
Y3479D01*
X771807D01*
Y7151D01*
X767885D01*
Y9193D01*
X767885Y9193D01*
X767626Y10495D01*
X767575Y10754D01*
X766691Y12077D01*
X766691Y12077D01*
X679331Y99437D01*
X678008Y100321D01*
X677749Y100372D01*
X676447Y100631D01*
X676447Y100631D01*
X670598D01*
X670433Y100879D01*
X668448Y102205D01*
X666107Y102671D01*
D02*
G37*
%LPD*%
D10*
X51011Y50048D02*
D03*
Y66048D02*
D03*
X24879Y50124D02*
D03*
Y66124D02*
D03*
D12*
X763807Y-599D02*
D03*
X747807D02*
D03*
X225212Y22805D02*
D03*
X209212D02*
D03*
X225504Y4722D02*
D03*
X209503D02*
D03*
X208790Y-12700D02*
D03*
X224790D02*
D03*
X217000Y132000D02*
D03*
X201000D02*
D03*
D13*
X199000Y102250D02*
D03*
Y115750D02*
D03*
X219000D02*
D03*
Y102250D02*
D03*
X235384Y213411D02*
D03*
Y199911D02*
D03*
D16*
X818000Y54730D02*
Y75680D01*
X764320D02*
X804000D01*
X812100Y13400D02*
Y48830D01*
X312420Y61152D02*
X585000D01*
X227750Y182880D02*
X228935Y184065D01*
X218862D02*
X228935D01*
X256540Y61152D02*
X312420D01*
X240851Y48181D02*
X253821Y61152D01*
X240851Y12658D02*
Y48181D01*
X232915Y4722D02*
X240851Y12658D01*
X225504Y-12871D02*
Y4722D01*
X804000Y75680D02*
X818000D01*
X764000Y76000D02*
X764320Y75680D01*
X834000Y101300D02*
X846458D01*
X823299D02*
X834000D01*
X834000Y101300D02*
X834000Y101300D01*
X834000Y101300D02*
Y141000D01*
X776000Y164000D02*
X834000D01*
X818000Y96000D02*
X823299Y101300D01*
X777000Y96320D02*
X788840D01*
X789000Y96160D01*
X209212Y22805D02*
Y51212D01*
X7427Y-25427D02*
X192199D01*
X0Y-18000D02*
X7427Y-25427D01*
X0Y-18000D02*
Y0D01*
X199161Y207065D02*
X200956Y208859D01*
X225504Y4722D02*
X232915D01*
X216076Y13555D02*
X225212Y22691D01*
X215962Y13555D02*
X216076D01*
X225212Y22691D02*
Y22805D01*
X225242Y-13133D02*
X225504Y-12871D01*
X169882Y-16525D02*
X209212Y22805D01*
X209503Y7097D02*
X215962Y13555D01*
X209503Y4722D02*
Y7097D01*
X209242Y-8384D02*
X209719Y-7907D01*
X209242Y-8384D02*
Y4460D01*
X209503Y4722D01*
X747807Y-599D02*
Y8961D01*
X739000Y17768D02*
X747807Y8961D01*
X310040Y174039D02*
X320710D01*
X309000Y173000D02*
X310040Y174039D01*
X411000Y153000D02*
X420000Y144000D01*
X540000Y145000D02*
X541000Y144000D01*
X716320D01*
X540000Y145000D02*
Y150000D01*
X334210Y167210D02*
Y174039D01*
X334000Y167000D02*
X334210Y167210D01*
Y159659D02*
Y166790D01*
X334000Y167000D02*
X334210Y166790D01*
X334819Y112954D02*
X344954D01*
X219000Y93000D02*
Y102250D01*
X199000Y93000D02*
Y102250D01*
X192000Y165000D02*
X201250D01*
X192000Y149000D02*
X201250D01*
X209212Y51212D02*
X231000Y73000D01*
X574000D01*
X25400Y-10400D02*
Y0D01*
Y-10400D02*
X31525Y-16525D01*
X169882D01*
X760730Y96320D02*
X761730Y97320D01*
X760730Y96320D02*
X764000D01*
X761730Y97320D02*
X763000D01*
X757320Y96320D02*
X760730D01*
X716320Y144000D02*
X763000Y97320D01*
X812100Y13400D02*
X825500Y0D01*
X812100Y48830D02*
X818000Y54730D01*
X846458Y56518D02*
Y72300D01*
X838200Y48260D02*
X846458Y56518D01*
X838200Y12700D02*
Y48260D01*
Y12700D02*
X850900Y0D01*
X742000Y61000D02*
X769000Y34000D01*
X742000Y61000D02*
Y81000D01*
X757320Y96320D01*
X420000Y144000D02*
X541000D01*
X763000Y97320D02*
X764000D01*
X192199Y-25427D02*
X209242Y-8384D01*
Y-13133D02*
Y-8384D01*
X253821Y61152D02*
X256540D01*
X235384Y213411D02*
Y226896D01*
X200956Y208859D02*
Y223245D01*
X227750Y182880D02*
X228600D01*
X832420Y185420D02*
X834000Y187000D01*
X805180Y185420D02*
X817880D01*
X830580D01*
X832420D01*
X344954Y112954D02*
X345440Y113440D01*
Y116840D01*
X233680Y228600D02*
X235384Y226896D01*
X231140Y228600D02*
X233680D01*
D17*
X281062Y152088D02*
Y172338D01*
X412966Y92000D02*
X414020Y93054D01*
X265062Y102363D02*
X275425Y92000D01*
X400800Y96000D02*
X405470Y100669D01*
X277062Y103543D02*
X284605Y96000D01*
X389560Y100000D02*
X394230Y104670D01*
X281062Y105287D02*
X286348Y100000D01*
X363474Y104000D02*
X368217Y108743D01*
X285062Y107533D02*
X288595Y104000D01*
X363474D01*
X286348Y100000D02*
X389560D01*
X284605Y96000D02*
X400800D01*
X275425Y92000D02*
X412966D01*
X597365Y-796D02*
Y68292D01*
X593365Y-2453D02*
Y66635D01*
X234000Y140088D02*
X240812D01*
X237000Y166000D02*
Y170000D01*
Y166000D02*
X238912Y164088D01*
X240812D01*
X234562Y162431D02*
X236905Y160088D01*
X234562Y162431D02*
Y162438D01*
X231000Y166000D02*
X234562Y162438D01*
X226000Y165000D02*
X234912Y156088D01*
X231000Y166000D02*
Y174000D01*
X236905Y160088D02*
X240812D01*
X226000Y165000D02*
Y170000D01*
X234912Y156088D02*
X240812D01*
X235384Y178384D02*
Y199911D01*
X231000Y174000D02*
X235384Y178384D01*
X199161Y184065D02*
X208000Y192903D01*
Y216789D01*
X214456Y223245D01*
X218862Y207065D02*
X226015Y199911D01*
X235384D01*
X219000Y165000D02*
X231912Y152088D01*
X240812D01*
X199161Y184065D02*
X210226Y173000D01*
X223000D01*
X226000Y170000D01*
X214750Y165000D02*
X219000D01*
X214750Y149000D02*
X215662Y148088D01*
X240812D01*
X763120Y25400D02*
X800100D01*
X799501Y-599D02*
X800100Y0D01*
X763807Y-599D02*
X799501D01*
X235885Y105727D02*
X255473Y86139D01*
X368217Y108743D02*
X368356D01*
X362923Y189039D02*
X375590Y176373D01*
Y138287D02*
Y176373D01*
X354483Y185040D02*
X364468Y175055D01*
X355959Y135007D02*
Y172093D01*
X347012Y181040D02*
X355959Y172093D01*
X301286Y181040D02*
X347012D01*
X302943Y185040D02*
X354483D01*
X301312Y128088D02*
X348413D01*
X293162Y189163D02*
X301286Y181040D01*
X50800Y25400D02*
X51011Y25611D01*
Y50048D01*
X24822Y25978D02*
X25400Y25400D01*
X667952Y-10497D02*
Y17768D01*
X660640Y-17809D02*
X667952Y-10497D01*
X614378Y-17809D02*
X660640D01*
X597365Y-796D02*
X614378Y-17809D01*
X671325Y-21809D02*
X682952Y-10183D01*
X593365Y-2453D02*
X612721Y-21809D01*
X671325D01*
X682952Y-10183D02*
Y17768D01*
X277062Y103543D02*
Y111838D01*
X281062Y105287D02*
Y111838D01*
X285062Y107533D02*
Y111838D01*
X231006Y104189D02*
Y119622D01*
X235472Y124088D01*
X240812D01*
X237624Y120088D02*
X240812D01*
X235885Y118349D02*
X237624Y120088D01*
X235885Y105727D02*
Y118349D01*
X265062Y102363D02*
Y111838D01*
X277062Y148088D02*
X281062Y152088D01*
X271062Y142088D02*
X277062Y148088D01*
X283322Y182518D02*
X285062Y180779D01*
Y172338D02*
Y180779D01*
X291514Y182225D02*
Y182326D01*
X289062Y179772D02*
X291514Y182225D01*
X289062Y172338D02*
Y179772D01*
X304599Y189039D02*
X362923D01*
X295718Y197921D02*
X304599Y189039D01*
X294303Y193679D02*
X302943Y185040D01*
X280208Y189163D02*
X293162D01*
X279067Y193679D02*
X294303D01*
X277106Y197921D02*
X295718D01*
X269062Y183674D02*
X279067Y193679D01*
X273062Y182017D02*
X280208Y189163D01*
X273062Y172338D02*
Y182017D01*
X265062Y185877D02*
X277106Y197921D01*
X265062Y172338D02*
Y185877D01*
X269062Y172338D02*
Y183674D01*
X666107Y96553D02*
X676447D01*
X763807Y9193D01*
Y-599D02*
Y9193D01*
X301312Y136088D02*
X346721D01*
X293062Y172338D02*
X308338D01*
X309000Y173000D01*
X301312Y164088D02*
X316281D01*
X320710Y159659D01*
X355959Y135007D02*
X366409Y124556D01*
X346721Y136088D02*
X362330Y120479D01*
X348413Y128088D02*
X360022Y116479D01*
X364468Y140923D02*
Y175055D01*
Y140923D02*
X374089Y131302D01*
X387024D01*
X414020Y179233D02*
X434376Y199590D01*
X414020Y93054D02*
Y93980D01*
X439949Y104670D02*
X444500Y109220D01*
X362330Y120479D02*
X371704D01*
X360022Y116479D02*
X370047D01*
X377857Y108670D01*
X373380Y124460D02*
Y124556D01*
X371704Y120479D02*
X379343Y112840D01*
X366409Y124556D02*
X373380D01*
Y124460D02*
X381000Y116840D01*
X377857Y108670D02*
X434366D01*
X379343Y112840D02*
X432880D01*
X434366Y108670D02*
X442176Y116479D01*
X626604D01*
X432880Y112840D02*
X440519Y120479D01*
X636750D01*
X381000Y116840D02*
X426720D01*
X434436Y124556D01*
X663964D01*
X394230Y104670D02*
X439949D01*
X402590Y145857D02*
X416095Y132352D01*
X402590Y145857D02*
Y185803D01*
X416376Y199590D01*
X414020Y165100D02*
Y179233D01*
Y165100D02*
X425120Y154000D01*
X471000D01*
X405470Y100669D02*
X451665D01*
X455745Y96589D01*
X630009D01*
X414020Y93980D02*
X440690D01*
X443230Y91440D01*
X630009Y96589D02*
X630141Y96721D01*
X663964Y124556D02*
X763120Y25400D01*
X636750Y120479D02*
X652952Y104277D01*
X626604Y116479D02*
X637952Y105131D01*
X652952Y17768D02*
Y104277D01*
X637952Y17768D02*
Y105131D01*
X231006Y104189D02*
X253195Y82000D01*
X578000D01*
X593365Y66635D01*
X255473Y86139D02*
X579518D01*
X597365Y68292D01*
X443230Y91440D02*
X599440D01*
X608330Y82550D01*
Y6350D02*
Y82550D01*
Y6350D02*
X621030Y-6350D01*
X654050D01*
X240812Y144088D02*
X249062D01*
X253062Y148088D01*
X265062D01*
X271062Y142088D01*
X24822Y25978D02*
Y50239D01*
D18*
X0Y25295D02*
Y25400D01*
X50800Y0D02*
X51098Y-298D01*
X320204Y111838D02*
X321319Y112954D01*
X294090Y111838D02*
X320204D01*
D19*
X697952Y17768D02*
D03*
D20*
X682952D02*
D03*
X667952D02*
D03*
X652952D02*
D03*
X637952D02*
D03*
X622952D02*
D03*
D21*
X50800Y25400D02*
D03*
Y0D02*
D03*
X25400Y25400D02*
D03*
Y0D02*
D03*
X0Y25400D02*
D03*
X850900D02*
D03*
Y0D02*
D03*
X825500Y25400D02*
D03*
Y0D02*
D03*
X800100Y25400D02*
D03*
D22*
X0Y0D02*
D03*
X800100D02*
D03*
D23*
X265062Y148088D02*
D03*
X277062D02*
D03*
X265062Y136088D02*
D03*
X277062D02*
D03*
D24*
X431800Y133350D02*
D03*
X585000Y61000D02*
D03*
X804000Y75680D02*
D03*
X237000Y170000D02*
D03*
X444500Y109220D02*
D03*
X666107Y96553D02*
D03*
X387024Y131302D02*
D03*
X368356Y108743D02*
D03*
X375590Y138287D02*
D03*
X283322Y182518D02*
D03*
X291514Y182326D02*
D03*
X416095Y132352D02*
D03*
X471000Y154000D02*
D03*
X192000Y165000D02*
D03*
Y149000D02*
D03*
X574000Y73000D02*
D03*
X457200Y106680D02*
D03*
X472440D02*
D03*
X487680D02*
D03*
X502920D02*
D03*
X520700D02*
D03*
X538480D02*
D03*
X556260D02*
D03*
X571500D02*
D03*
X589280D02*
D03*
X609600D02*
D03*
X320040Y147320D02*
D03*
X332740D02*
D03*
X345440D02*
D03*
Y162560D02*
D03*
X184150Y96520D02*
D03*
X389890Y181610D02*
D03*
Y165100D02*
D03*
X401320Y132080D02*
D03*
X391160Y142240D02*
D03*
X414020Y93980D02*
D03*
X311150Y196850D02*
D03*
X323850D02*
D03*
X336550D02*
D03*
X349250D02*
D03*
X363220D02*
D03*
X422910Y172720D02*
D03*
X435610D02*
D03*
X430530Y182880D02*
D03*
Y163830D02*
D03*
X445770Y195580D02*
D03*
X472440D02*
D03*
Y182880D02*
D03*
X452120Y161290D02*
D03*
X472440Y163830D02*
D03*
X462280Y165100D02*
D03*
X455930Y133350D02*
D03*
X472440D02*
D03*
X487680D02*
D03*
X502920D02*
D03*
X520700D02*
D03*
X538480D02*
D03*
X556260D02*
D03*
X571500D02*
D03*
X589280D02*
D03*
X609600D02*
D03*
X627380D02*
D03*
X645160D02*
D03*
X666750D02*
D03*
X690880D02*
D03*
X709930D02*
D03*
X690880Y120650D02*
D03*
X709930D02*
D03*
X722630Y105410D02*
D03*
X741680D02*
D03*
X708660Y91440D02*
D03*
X722630Y90170D02*
D03*
X741680Y93980D02*
D03*
X377190Y196850D02*
D03*
X402590D02*
D03*
X334010Y121920D02*
D03*
X257810Y101600D02*
D03*
X248920Y102870D02*
D03*
X228600Y129540D02*
D03*
X208280Y101600D02*
D03*
X518160Y195580D02*
D03*
Y184150D02*
D03*
Y165100D02*
D03*
X533400Y195580D02*
D03*
Y184150D02*
D03*
Y165100D02*
D03*
X630141Y96721D02*
D03*
X654050Y-6350D02*
D03*
X594890Y83370D02*
D03*
X130810Y19050D02*
D03*
X74930Y35560D02*
D03*
X91440D02*
D03*
X111760D02*
D03*
X130810D02*
D03*
Y1270D02*
D03*
X-10160Y134620D02*
D03*
X2540D02*
D03*
X15240D02*
D03*
X27940D02*
D03*
X40640D02*
D03*
X53340D02*
D03*
X66040D02*
D03*
X78740D02*
D03*
X91440D02*
D03*
X104140D02*
D03*
X116840D02*
D03*
X129540D02*
D03*
X142240D02*
D03*
X154940D02*
D03*
X-10160Y121920D02*
D03*
X2540D02*
D03*
X15240D02*
D03*
X27940D02*
D03*
X40640D02*
D03*
X53340D02*
D03*
X66040D02*
D03*
X78740D02*
D03*
X91440D02*
D03*
X104140D02*
D03*
X116840D02*
D03*
X129540D02*
D03*
X142240D02*
D03*
X154940D02*
D03*
Y109220D02*
D03*
X167640D02*
D03*
X184150Y118110D02*
D03*
X167640Y121920D02*
D03*
X-10160Y109220D02*
D03*
Y96520D02*
D03*
Y83820D02*
D03*
X2540Y109220D02*
D03*
X15240D02*
D03*
X27940D02*
D03*
X40640D02*
D03*
X53340D02*
D03*
X66040D02*
D03*
X78740D02*
D03*
X91440D02*
D03*
X104140D02*
D03*
X116840D02*
D03*
X129540D02*
D03*
X142240D02*
D03*
X2540Y96520D02*
D03*
Y83820D02*
D03*
X15240D02*
D03*
Y96520D02*
D03*
X27940D02*
D03*
Y83820D02*
D03*
X40640Y96520D02*
D03*
Y83820D02*
D03*
X53340Y96520D02*
D03*
Y83820D02*
D03*
X66040Y96520D02*
D03*
Y83820D02*
D03*
X78740Y96520D02*
D03*
Y83820D02*
D03*
X91440Y96520D02*
D03*
Y83820D02*
D03*
X104140Y96520D02*
D03*
Y83820D02*
D03*
X116840Y96520D02*
D03*
Y83820D02*
D03*
X129540Y96520D02*
D03*
Y83820D02*
D03*
X142240Y96520D02*
D03*
Y83820D02*
D03*
X154940Y96520D02*
D03*
Y83820D02*
D03*
X167640Y96520D02*
D03*
Y83820D02*
D03*
X-10160Y71120D02*
D03*
X2540D02*
D03*
X15240D02*
D03*
X27940D02*
D03*
X40640D02*
D03*
X53340D02*
D03*
X66040D02*
D03*
X78740D02*
D03*
X91440D02*
D03*
X104140D02*
D03*
X116840D02*
D03*
X129540D02*
D03*
X142240D02*
D03*
X154940D02*
D03*
X-10160Y58420D02*
D03*
X2540D02*
D03*
X15240D02*
D03*
X40640D02*
D03*
X66040D02*
D03*
X78740D02*
D03*
X91440D02*
D03*
X104140D02*
D03*
X116840D02*
D03*
X129540D02*
D03*
X142240D02*
D03*
X-10160Y45720D02*
D03*
X2540D02*
D03*
X12700Y35560D02*
D03*
X73660Y-7620D02*
D03*
X88900D02*
D03*
X154940Y10160D02*
D03*
Y-2540D02*
D03*
X167640Y10160D02*
D03*
Y-2540D02*
D03*
X180340Y10160D02*
D03*
X167640Y22860D02*
D03*
X180340D02*
D03*
Y38100D02*
D03*
X193040D02*
D03*
Y22860D02*
D03*
Y50800D02*
D03*
X203200Y60960D02*
D03*
X213360Y71120D02*
D03*
X220980Y40640D02*
D03*
X238760Y60960D02*
D03*
X228600Y50800D02*
D03*
X256540Y61152D02*
D03*
Y40640D02*
D03*
X238760D02*
D03*
X256540Y22860D02*
D03*
X238760D02*
D03*
X256540Y5080D02*
D03*
X238760D02*
D03*
X256540Y-12700D02*
D03*
X238760D02*
D03*
X248920Y50800D02*
D03*
X591820Y-12700D02*
D03*
X604520Y-25400D02*
D03*
X246380Y228600D02*
D03*
X264160D02*
D03*
X281940D02*
D03*
X254000Y185420D02*
D03*
X193040Y198120D02*
D03*
Y223520D02*
D03*
Y210820D02*
D03*
X228600Y182880D02*
D03*
X276860Y62230D02*
D03*
X294640D02*
D03*
X312420D02*
D03*
X330200D02*
D03*
X347980D02*
D03*
X365760D02*
D03*
X383540D02*
D03*
X401320D02*
D03*
X419100D02*
D03*
X436880D02*
D03*
X454660D02*
D03*
X472440D02*
D03*
X490220D02*
D03*
X508000D02*
D03*
X525780D02*
D03*
X543560D02*
D03*
X561340D02*
D03*
X629920Y83820D02*
D03*
X623570Y60960D02*
D03*
Y34290D02*
D03*
Y46990D02*
D03*
X666750Y110490D02*
D03*
Y83820D02*
D03*
Y62230D02*
D03*
Y48260D02*
D03*
Y35560D02*
D03*
X680720Y62230D02*
D03*
Y35560D02*
D03*
Y48260D02*
D03*
X693420Y62230D02*
D03*
Y48260D02*
D03*
Y35560D02*
D03*
X707390Y48260D02*
D03*
X563880Y160020D02*
D03*
X576580D02*
D03*
X589280D02*
D03*
X549910Y195580D02*
D03*
Y184150D02*
D03*
X563880Y223520D02*
D03*
Y210820D02*
D03*
Y198120D02*
D03*
Y185420D02*
D03*
X576580Y223520D02*
D03*
Y210820D02*
D03*
Y198120D02*
D03*
Y185420D02*
D03*
X589280Y223520D02*
D03*
Y210820D02*
D03*
Y198120D02*
D03*
Y185420D02*
D03*
X601980Y223520D02*
D03*
Y210820D02*
D03*
Y198120D02*
D03*
Y185420D02*
D03*
X614680Y223520D02*
D03*
Y210820D02*
D03*
Y198120D02*
D03*
Y185420D02*
D03*
X627380Y223520D02*
D03*
Y210820D02*
D03*
Y198120D02*
D03*
Y185420D02*
D03*
X601980Y160020D02*
D03*
X614680D02*
D03*
X627380D02*
D03*
X640080Y223520D02*
D03*
Y210820D02*
D03*
Y198120D02*
D03*
Y185420D02*
D03*
X652780Y223520D02*
D03*
Y210820D02*
D03*
Y198120D02*
D03*
Y185420D02*
D03*
X640080Y160020D02*
D03*
X652780D02*
D03*
X665480Y223520D02*
D03*
Y210820D02*
D03*
Y198120D02*
D03*
Y185420D02*
D03*
Y160020D02*
D03*
X678180Y223520D02*
D03*
Y210820D02*
D03*
Y198120D02*
D03*
Y185420D02*
D03*
X690880Y223520D02*
D03*
Y210820D02*
D03*
Y198120D02*
D03*
Y185420D02*
D03*
X703580Y223520D02*
D03*
Y210820D02*
D03*
Y198120D02*
D03*
Y185420D02*
D03*
X716280Y223520D02*
D03*
Y210820D02*
D03*
Y198120D02*
D03*
Y185420D02*
D03*
X728980Y223520D02*
D03*
Y210820D02*
D03*
Y198120D02*
D03*
Y185420D02*
D03*
X741680Y223520D02*
D03*
Y210820D02*
D03*
Y198120D02*
D03*
Y185420D02*
D03*
X754380Y198120D02*
D03*
Y210820D02*
D03*
Y223520D02*
D03*
X767080D02*
D03*
Y210820D02*
D03*
Y198120D02*
D03*
X779780D02*
D03*
Y210820D02*
D03*
Y223520D02*
D03*
X792480D02*
D03*
Y210820D02*
D03*
Y198120D02*
D03*
X805180Y223520D02*
D03*
Y210820D02*
D03*
Y198120D02*
D03*
X817880Y223520D02*
D03*
Y210820D02*
D03*
Y198120D02*
D03*
X805180Y185420D02*
D03*
X817880D02*
D03*
X830580Y223520D02*
D03*
Y210820D02*
D03*
Y198120D02*
D03*
Y185420D02*
D03*
X843280Y223520D02*
D03*
Y210820D02*
D03*
Y198120D02*
D03*
Y185420D02*
D03*
X855980Y223520D02*
D03*
Y210820D02*
D03*
Y198120D02*
D03*
Y185420D02*
D03*
X678180Y160020D02*
D03*
X690880D02*
D03*
X703580D02*
D03*
X716280D02*
D03*
X728980D02*
D03*
X741680D02*
D03*
X754380D02*
D03*
Y185420D02*
D03*
Y147320D02*
D03*
X741680D02*
D03*
Y134620D02*
D03*
X754380D02*
D03*
X728980Y147320D02*
D03*
X830580Y152400D02*
D03*
X843280D02*
D03*
X731520Y71120D02*
D03*
X756920Y60960D02*
D03*
X769620D02*
D03*
X782320D02*
D03*
X795020D02*
D03*
X810260D02*
D03*
X822960D02*
D03*
X782320Y35560D02*
D03*
X795020Y48260D02*
D03*
X782320D02*
D03*
X810260D02*
D03*
X822960D02*
D03*
X789940Y134620D02*
D03*
X802640D02*
D03*
X789940Y121920D02*
D03*
X802640D02*
D03*
X815340D02*
D03*
X802640Y109220D02*
D03*
X833120Y86360D02*
D03*
X843280D02*
D03*
X708660Y35560D02*
D03*
X723900D02*
D03*
X708660Y5080D02*
D03*
X734060D02*
D03*
X345440Y116840D02*
D03*
X614680Y88900D02*
D03*
X708660Y-17780D02*
D03*
X734060D02*
D03*
X721360D02*
D03*
X695960D02*
D03*
X721360Y5080D02*
D03*
X746760Y-17780D02*
D03*
X762000D02*
D03*
X777240D02*
D03*
X792480D02*
D03*
X807720D02*
D03*
X822960D02*
D03*
X840740D02*
D03*
X858520D02*
D03*
X861060Y12700D02*
D03*
Y40640D02*
D03*
Y55880D02*
D03*
X208280Y-25400D02*
D03*
X226060D02*
D03*
X246380D02*
D03*
X855980Y172720D02*
D03*
Y160020D02*
D03*
Y144780D02*
D03*
Y132080D02*
D03*
Y119380D02*
D03*
X861060Y86360D02*
D03*
X789940Y109220D02*
D03*
X815340D02*
D03*
X231140Y228600D02*
D03*
X246380Y215900D02*
D03*
D25*
X776000Y115000D02*
D03*
X769000Y34000D02*
D03*
X739000Y17768D02*
D03*
X540000Y150000D02*
D03*
X309000Y173000D02*
D03*
X411000Y153000D02*
D03*
X309000Y112000D02*
D03*
D26*
X289062Y160088D02*
D03*
X277062D02*
D03*
X265062D02*
D03*
X253062D02*
D03*
X289062Y148088D02*
D03*
X277062Y148088D02*
D03*
X265062D02*
D03*
X253062Y148088D02*
D03*
X289062Y136088D02*
D03*
X277062D02*
D03*
X265062D02*
D03*
X253062D02*
D03*
X289062Y124088D02*
D03*
X277062D02*
D03*
X265062D02*
D03*
X253062D02*
D03*
D27*
X764000Y76000D02*
D03*
Y96320D02*
D03*
X789000Y75840D02*
D03*
Y96160D02*
D03*
X818000Y75680D02*
D03*
Y96000D02*
D03*
D28*
X846458Y101300D02*
D03*
Y72300D02*
D03*
D29*
X776000Y164000D02*
D03*
D30*
X834000Y141000D02*
D03*
X834000Y164000D02*
D03*
X834000Y187000D02*
D03*
D31*
X334819Y112954D02*
D03*
X321319D02*
D03*
X334210Y159659D02*
D03*
X320710D02*
D03*
X334210Y174039D02*
D03*
X320710D02*
D03*
X201250Y149000D02*
D03*
X214750D02*
D03*
X201250Y165000D02*
D03*
X214750D02*
D03*
X200956Y223245D02*
D03*
X214456D02*
D03*
D32*
X168631Y162875D02*
D03*
D33*
X301312Y164088D02*
D03*
Y160088D02*
D03*
Y156088D02*
D03*
Y152088D02*
D03*
Y148088D02*
D03*
Y144088D02*
D03*
Y140088D02*
D03*
Y136088D02*
D03*
Y132088D02*
D03*
Y128088D02*
D03*
Y124088D02*
D03*
Y120088D02*
D03*
X240812D02*
D03*
Y124088D02*
D03*
Y128088D02*
D03*
Y132088D02*
D03*
Y136088D02*
D03*
Y140088D02*
D03*
Y144088D02*
D03*
Y148088D02*
D03*
Y152088D02*
D03*
Y156088D02*
D03*
Y160088D02*
D03*
Y164088D02*
D03*
D34*
X293062Y111838D02*
D03*
X289062D02*
D03*
X285062D02*
D03*
X281062D02*
D03*
X277062D02*
D03*
X273062D02*
D03*
X269062D02*
D03*
X265062D02*
D03*
X261062D02*
D03*
X257062D02*
D03*
X253062D02*
D03*
X249062D02*
D03*
Y172338D02*
D03*
X253062D02*
D03*
X257062D02*
D03*
X261062D02*
D03*
X265062D02*
D03*
X269062D02*
D03*
X273062D02*
D03*
X277062D02*
D03*
X281062D02*
D03*
X285062D02*
D03*
X289062D02*
D03*
X293062D02*
D03*
D35*
X271062Y142088D02*
D03*
D36*
X199161Y184065D02*
D03*
X218862D02*
D03*
Y207065D02*
D03*
D37*
X199161D02*
D03*
D38*
X416376Y199590D02*
D03*
X434376D02*
D03*
D39*
X219000Y115750D02*
Y118000D01*
X217000Y120000D02*
X219000Y118000D01*
X217000Y120000D02*
Y132000D01*
X225088Y140088D01*
X234000D01*
D40*
X199000Y130000D02*
X201000Y132000D01*
X176000D02*
X197000D01*
X168631Y139369D02*
X176000Y132000D01*
X168631Y139369D02*
Y162875D01*
X153037Y225358D02*
X168631Y209764D01*
X153036Y225358D02*
X153037D01*
X-5378D02*
X153036D01*
X168630Y209764D02*
X168631D01*
Y162875D02*
Y209764D01*
X197000Y132000D02*
X199000Y130000D01*
D41*
Y117000D02*
Y130000D01*
X764000Y96320D02*
X775000D01*
X776000Y97320D01*
X764160Y96160D02*
X789000D01*
X764000Y96320D02*
X764160Y96160D01*
X776000Y97320D02*
Y164000D01*
D42*
X-8042Y225390D02*
D03*
M02*
