G04 Layer_Color=8388736*
%FSLAX44Y44*%
%MOMM*%
G71*
G01*
G75*
%ADD47R,1.1532X1.2032*%
%ADD48R,1.4032X1.0532*%
%ADD49R,1.2032X1.1532*%
%ADD50R,1.0032X0.9532*%
%ADD51R,1.6532X1.0032*%
%ADD52R,1.1032X1.7032*%
%ADD53R,1.2032X2.2032*%
%ADD54O,1.2032X2.2032*%
%ADD55C,1.7032*%
%ADD56R,1.7032X1.7032*%
%ADD57C,1.2032*%
D47*
X140569Y9810D02*
D03*
Y-6190D02*
D03*
X120388Y9376D02*
D03*
Y-6624D02*
D03*
X267673Y199582D02*
D03*
Y215582D02*
D03*
X286495Y215824D02*
D03*
Y199824D02*
D03*
D48*
X77500Y2000D02*
D03*
X102446Y11398D02*
D03*
X102500Y-7500D02*
D03*
D49*
X501000Y154000D02*
D03*
X485000D02*
D03*
X500899Y191514D02*
D03*
X484899D02*
D03*
X485220Y172582D02*
D03*
X501220D02*
D03*
D50*
X235588Y213851D02*
D03*
Y200351D02*
D03*
X250452Y200533D02*
D03*
Y214033D02*
D03*
D51*
X459286Y196534D02*
D03*
X391824D02*
D03*
D52*
X446612Y177738D02*
D03*
X404600D02*
D03*
D53*
X697952Y17768D02*
D03*
D54*
X682952D02*
D03*
X667952D02*
D03*
X652952D02*
D03*
X637952D02*
D03*
X622952D02*
D03*
D55*
X50800Y25400D02*
D03*
Y0D02*
D03*
X25400Y25400D02*
D03*
Y0D02*
D03*
X0Y25400D02*
D03*
X850900D02*
D03*
Y0D02*
D03*
X825500Y25400D02*
D03*
Y0D02*
D03*
X800100Y25400D02*
D03*
D56*
X0Y0D02*
D03*
X800100D02*
D03*
D57*
X265062Y148088D02*
D03*
X277062D02*
D03*
X265062Y136088D02*
D03*
X277062D02*
D03*
M02*
