G04 Layer_Color=16711935*
%FSLAX44Y44*%
%MOMM*%
G71*
G01*
G75*
%ADD72C,0.0127*%
D72*
X570400Y238100D02*
G03*
X550400Y218100I0J-20000D01*
G01*
X540400Y203100D02*
G03*
X550400Y213100I0J10000D01*
G01*
X300400D02*
G03*
X310400Y203100I10000J0D01*
G01*
X300400Y218100D02*
G03*
X280400Y238100I-20000J0D01*
G01*
X400D02*
G03*
X-19600Y218100I0J-20000D01*
G01*
Y-11900D02*
G03*
X400Y-31900I20000J0D01*
G01*
X247900D02*
G03*
X267900Y-11900I0J20000D01*
G01*
X272900Y54100D02*
G03*
X267900Y49100I0J-5000D01*
G01*
X582900D02*
G03*
X577900Y54100I-5000J0D01*
G01*
X582900Y-11900D02*
G03*
X602900Y-31900I20000J0D01*
G01*
X850400D02*
G03*
X870400Y-11900I0J20000D01*
G01*
Y218100D02*
G03*
X850400Y238100I-20000J0D01*
G01*
X550400Y213100D02*
Y218100D01*
X310400Y203100D02*
X540400D01*
X300400Y213100D02*
Y218100D01*
X400Y238100D02*
X280400D01*
X-19600Y-11900D02*
Y218100D01*
X400Y-31900D02*
X247900D01*
X267900Y-11900D02*
Y49100D01*
X272900Y54100D02*
X577900D01*
X582900Y-11900D02*
Y49100D01*
X602900Y-31900D02*
X850400D01*
X870400Y-11900D02*
Y218100D01*
X570400Y238100D02*
X850400D01*
M02*
