G04 Layer_Color=8388736*
%FSLAX44Y44*%
%MOMM*%
G71*
G01*
G75*
%ADD43C,2.0000*%
%ADD44R,3.5032X2.6032*%
%ADD45R,1.2032X2.6032*%
%ADD46R,1.4732X1.8034*%
%ADD47R,1.8034X1.4732*%
%ADD48O,0.8032X2.5032*%
%ADD49R,1.1032X1.5032*%
%ADD50R,1.8542X1.7272*%
%ADD51R,1.9558X1.9558*%
%ADD52C,1.9558*%
%ADD53O,1.8542X2.2352*%
%ADD54O,2.9972X3.7592*%
%ADD55C,2.7032*%
%ADD56C,2.4892*%
%ADD57R,2.4892X2.4892*%
%ADD58O,3.2032X2.7032*%
%ADD59R,1.7272X1.9812*%
%ADD60O,1.7272X1.9812*%
%ADD61C,3.2032*%
D43*
X-280800Y40800D02*
X-200000Y-40000D01*
X-280800Y40800D02*
Y375000D01*
X-2000Y300000D02*
X0Y298000D01*
X-61000Y300000D02*
X-2000D01*
X-69000Y308000D02*
X-61000Y300000D01*
X-91000Y330000D02*
X-69000Y308000D01*
X-125000Y364000D02*
X-91000Y330000D01*
X-125000Y364000D02*
Y375000D01*
X174000Y333000D02*
X208500Y298500D01*
X49000Y333000D02*
X174000D01*
X29200Y352800D02*
X49000Y333000D01*
X29200Y352800D02*
Y375000D01*
D44*
X221000Y-184000D02*
D03*
D45*
X244000Y-242000D02*
D03*
X221000Y-242000D02*
D03*
X198000Y-242000D02*
D03*
D46*
X199680Y-296000D02*
D03*
X220000D02*
D03*
X199680Y-271000D02*
D03*
X220000D02*
D03*
X-129840Y15000D02*
D03*
X-150160D02*
D03*
D47*
X247000Y-296000D02*
D03*
Y-275680D02*
D03*
X70000Y-209840D02*
D03*
Y-230160D02*
D03*
X0Y-210000D02*
D03*
Y-230320D02*
D03*
X-70000Y-209680D02*
D03*
Y-230000D02*
D03*
X-140000Y-209840D02*
D03*
Y-230160D02*
D03*
D48*
X20800Y-53001D02*
D03*
X8100D02*
D03*
X-4600D02*
D03*
X-17300D02*
D03*
X-30000D02*
D03*
X-42700D02*
D03*
X-55400D02*
D03*
X-68100D02*
D03*
X-80800D02*
D03*
X20800Y-156999D02*
D03*
X8100D02*
D03*
X-4600D02*
D03*
X-17300D02*
D03*
X-30000D02*
D03*
X-42700D02*
D03*
X-55400D02*
D03*
X-68100D02*
D03*
X-80800D02*
D03*
D49*
X-153500Y110000D02*
D03*
X-126500D02*
D03*
Y40000D02*
D03*
X-153500D02*
D03*
D50*
X-412238Y-244982D02*
D03*
Y-278002D02*
D03*
D51*
X343600Y-68470D02*
D03*
X115000Y-245000D02*
D03*
Y-144670D02*
D03*
X343600Y-245000D02*
D03*
D52*
X115000Y-270400D02*
D03*
Y-168800D02*
D03*
Y-194200D02*
D03*
Y-219600D02*
D03*
Y-118000D02*
D03*
Y-92600D02*
D03*
Y-65930D02*
D03*
Y85200D02*
D03*
Y59800D02*
D03*
Y34400D02*
D03*
Y9000D02*
D03*
Y-16400D02*
D03*
Y-41800D02*
D03*
X343600Y-270400D02*
D03*
Y-168800D02*
D03*
Y-194200D02*
D03*
Y-219600D02*
D03*
Y-143400D02*
D03*
Y-118000D02*
D03*
Y-92600D02*
D03*
Y85200D02*
D03*
Y59800D02*
D03*
Y34400D02*
D03*
Y10270D02*
D03*
Y-16400D02*
D03*
Y-41800D02*
D03*
D53*
X75000Y-123000D02*
D03*
Y77000D02*
D03*
D54*
X234200Y375000D02*
D03*
X285000D02*
D03*
X183400D02*
D03*
X80000D02*
D03*
X130800D02*
D03*
X29200D02*
D03*
X-74200D02*
D03*
X-23400D02*
D03*
X-125000D02*
D03*
X-230000D02*
D03*
X-179200D02*
D03*
X-280800D02*
D03*
X-264600Y-374000D02*
D03*
X-315400D02*
D03*
D55*
X-208400Y190800D02*
D03*
Y89200D02*
D03*
X-411600Y38400D02*
D03*
Y241600D02*
D03*
D56*
X-20000Y36900D02*
D03*
D57*
Y113100D02*
D03*
D58*
X-200000Y-167000D02*
D03*
Y-40000D02*
D03*
X-321600Y-167000D02*
D03*
Y-40000D02*
D03*
X-347000Y-103500D02*
D03*
X3500Y171500D02*
D03*
Y298500D02*
D03*
X-118100Y171500D02*
D03*
Y298500D02*
D03*
X-143500Y235000D02*
D03*
X208500Y171500D02*
D03*
Y298500D02*
D03*
X86900Y171500D02*
D03*
Y298500D02*
D03*
X61500Y235000D02*
D03*
X412000Y171500D02*
D03*
Y298500D02*
D03*
X290400Y171500D02*
D03*
Y298500D02*
D03*
X265000Y235000D02*
D03*
D59*
X-152700Y-269000D02*
D03*
X-82700D02*
D03*
X-12700Y-270000D02*
D03*
X57300Y-269000D02*
D03*
D60*
X-127300D02*
D03*
X-57300D02*
D03*
X12700Y-270000D02*
D03*
X82700Y-269000D02*
D03*
D61*
X-425000Y400000D02*
D03*
X425000D02*
D03*
X-425000Y-400000D02*
D03*
X425000D02*
D03*
M02*
