M48
;Layer_Color=9474304
;FILE_FORMAT=4:4
METRIC,TZ
;TYPE=PLATED
T1F00S00C0.6000
T2F00S00C0.8000
T3F00S00C0.8890
T4F00S00C1.0160
T5F00S00C1.2700
T6F00S00C1.3000
T7F00S00C1.5000
T8F00S00C5.0000
;TYPE=NON_PLATED
T9F00S00C2.9210
%
T01
X-352000Y-408000
Y-388000
Y-368000
X-330000Y-408000
X-307000
X-151999Y-156999
X247000Y-230000
Y-261000
X270000Y-296000
X283000
X220000Y-315000
X21000Y-75000
X8000Y-86000
X-5000Y-97000
X-29000Y-75000
X-43000
X-58000
X-419000Y18000
X-445000
X-433000Y32000
X-445000Y46000
T02
X-81000Y-75000
T03
X-152700Y-269000
X-127300
X-82700
X-57300
X-12700Y-270000
X12700
X57300Y-269000
X82700
X115000Y-270400
Y-245000
Y-219600
Y-194200
Y-168800
Y-144670
X343600Y-143400
Y-168800
Y-194200
Y-219600
Y-245000
Y-270400
Y-118000
Y-92600
Y-68470
Y-41800
Y-16400
Y10270
Y34400
Y59800
Y85200
X115000
Y59800
Y34400
Y9000
Y-16400
Y-41800
Y-65930
Y-92600
Y-118000
X-20000Y36900
Y113100
T04
X75000Y-123000
Y77000
T05
X-315400Y-374000
X-264600
X-280800Y375000
X-230000
X-179200
X-125000
X-74200
X-23400
X29200
X80000
X130800
X183400
X234200
X285000
T06
X-321600Y-167000
X-200000
X86900Y171500
X61500Y235000
X265000Y235000
X290400Y171500
X208500Y171500
X412000Y171500
X3500Y171500
X-118100
X-143500Y235000
X-200000Y-40000
X-321600
X-347000Y-103500
X-118100Y298500
X3500
X86900
X208500
X290400Y298500
X412000
T07
X-208400Y89200
Y190800
X-411600Y241600
Y38400
T08
X-425000Y-400000
X425000
X-425000Y400000
X425000
T09
X125160Y-311040
X333440
Y125840
X125160
M30
