G04 Layer_Color=255*
%FSLAX44Y44*%
%MOMM*%
G71*
G01*
G75*
%ADD10R,3.3000X2.4000*%
%ADD11R,1.0000X2.4000*%
%ADD12R,1.2700X1.6002*%
%ADD13R,1.6002X1.2700*%
%ADD14O,0.6000X2.3000*%
%ADD15R,0.9000X1.3000*%
%ADD16R,1.6510X1.5240*%
%ADD21R,1.7526X1.7526*%
%ADD22C,2.9210*%
%ADD23C,1.7526*%
%ADD24O,1.6510X2.0320*%
%ADD25O,2.7940X3.5560*%
%ADD26C,2.5000*%
%ADD27C,2.2860*%
%ADD28R,2.2860X2.2860*%
%ADD29O,3.0000X2.5000*%
%ADD30R,1.5240X1.7780*%
%ADD31O,1.5240X1.7780*%
%ADD32C,3.0000*%
D10*
X221000Y-184000D02*
D03*
D11*
X244000Y-242000D02*
D03*
X221000Y-242000D02*
D03*
X198000Y-242000D02*
D03*
D12*
X199680Y-296000D02*
D03*
X220000D02*
D03*
X199680Y-271000D02*
D03*
X220000D02*
D03*
X-129840Y15000D02*
D03*
X-150160D02*
D03*
D13*
X247000Y-296000D02*
D03*
Y-275680D02*
D03*
X70000Y-209840D02*
D03*
Y-230160D02*
D03*
X0Y-210000D02*
D03*
Y-230320D02*
D03*
X-70000Y-209680D02*
D03*
Y-230000D02*
D03*
X-140000Y-209840D02*
D03*
Y-230160D02*
D03*
D14*
X20800Y-53001D02*
D03*
X8100D02*
D03*
X-4600D02*
D03*
X-17300D02*
D03*
X-30000D02*
D03*
X-42700D02*
D03*
X-55400D02*
D03*
X-68100D02*
D03*
X-80800D02*
D03*
X20800Y-156999D02*
D03*
X8100D02*
D03*
X-4600D02*
D03*
X-17300D02*
D03*
X-30000D02*
D03*
X-42700D02*
D03*
X-55400D02*
D03*
X-68100D02*
D03*
X-80800D02*
D03*
D15*
X-153500Y110000D02*
D03*
X-126500D02*
D03*
Y40000D02*
D03*
X-153500D02*
D03*
D16*
X-412238Y-244982D02*
D03*
Y-278002D02*
D03*
D21*
X343600Y-68470D02*
D03*
X115000Y-245000D02*
D03*
Y-144670D02*
D03*
X343600Y-245000D02*
D03*
D22*
X333440Y125840D02*
D03*
X125160D02*
D03*
X333440Y-311040D02*
D03*
X125160D02*
D03*
D23*
X115000Y-270400D02*
D03*
Y-168800D02*
D03*
Y-194200D02*
D03*
Y-219600D02*
D03*
Y-118000D02*
D03*
Y-92600D02*
D03*
Y-65930D02*
D03*
Y85200D02*
D03*
Y59800D02*
D03*
Y34400D02*
D03*
Y9000D02*
D03*
Y-16400D02*
D03*
Y-41800D02*
D03*
X343600Y-270400D02*
D03*
Y-168800D02*
D03*
Y-194200D02*
D03*
Y-219600D02*
D03*
Y-143400D02*
D03*
Y-118000D02*
D03*
Y-92600D02*
D03*
Y85200D02*
D03*
Y59800D02*
D03*
Y34400D02*
D03*
Y10270D02*
D03*
Y-16400D02*
D03*
Y-41800D02*
D03*
D24*
X75000Y-123000D02*
D03*
Y77000D02*
D03*
D25*
X234200Y375000D02*
D03*
X285000D02*
D03*
X183400D02*
D03*
X80000D02*
D03*
X130800D02*
D03*
X29200D02*
D03*
X-74200D02*
D03*
X-23400D02*
D03*
X-125000D02*
D03*
X-230000D02*
D03*
X-179200D02*
D03*
X-280800D02*
D03*
X-264600Y-374000D02*
D03*
X-315400D02*
D03*
D26*
X-208400Y190800D02*
D03*
Y89200D02*
D03*
X-411600Y38400D02*
D03*
Y241600D02*
D03*
D27*
X-20000Y36900D02*
D03*
D28*
Y113100D02*
D03*
D29*
X-200000Y-167000D02*
D03*
Y-40000D02*
D03*
X-321600Y-167000D02*
D03*
Y-40000D02*
D03*
X-347000Y-103500D02*
D03*
X3500Y171500D02*
D03*
Y298500D02*
D03*
X-118100Y171500D02*
D03*
Y298500D02*
D03*
X-143500Y235000D02*
D03*
X208500Y171500D02*
D03*
Y298500D02*
D03*
X86900Y171500D02*
D03*
Y298500D02*
D03*
X61500Y235000D02*
D03*
X412000Y171500D02*
D03*
Y298500D02*
D03*
X290400Y171500D02*
D03*
Y298500D02*
D03*
X265000Y235000D02*
D03*
D30*
X-152700Y-269000D02*
D03*
X-82700D02*
D03*
X-12700Y-270000D02*
D03*
X57300Y-269000D02*
D03*
D31*
X-127300D02*
D03*
X-57300D02*
D03*
X12700Y-270000D02*
D03*
X82700Y-269000D02*
D03*
D32*
X-425000Y400000D02*
D03*
X425000D02*
D03*
X-425000Y-400000D02*
D03*
X425000D02*
D03*
M02*
