G04 Layer_Color=16711935*
%FSLAX44Y44*%
%MOMM*%
G71*
G01*
G75*
%ADD43C,2.0000*%
%ADD51R,1.9558X1.9558*%
%ADD52C,1.9558*%
%ADD53O,1.8542X2.2352*%
%ADD54O,2.9972X3.7592*%
%ADD55C,2.7032*%
%ADD56C,2.4892*%
%ADD57R,2.4892X2.4892*%
%ADD58O,3.2032X2.7032*%
%ADD59R,1.7272X1.9812*%
%ADD60O,1.7272X1.9812*%
%ADD61C,3.2032*%
D43*
X-344000Y-106000D02*
X-343000Y-105000D01*
X-311000D01*
X-289000Y-83000D01*
Y287000D01*
X-230000Y346000D01*
Y375000D01*
X-246000Y-124000D02*
X-201000Y-169000D01*
X-246000Y-124000D02*
Y260000D01*
X-242000Y264000D01*
Y264000D01*
X-207000Y299000D01*
X-179200Y326800D01*
Y375000D01*
X-32000Y204000D02*
X3000Y169000D01*
X-32000Y204000D02*
Y342000D01*
X-25000Y349000D01*
Y377000D01*
X-139000Y235000D02*
X-138000Y236000D01*
X-98000D01*
X-74200Y259800D01*
Y375000D01*
X131000D02*
X133000Y377000D01*
X409000Y304000D02*
X411000Y302000D01*
X409000Y304000D02*
Y343000D01*
X386000Y366000D02*
X409000Y343000D01*
X337000Y415000D02*
X386000Y366000D01*
X198000Y415000D02*
X337000D01*
X183400Y400400D02*
X198000Y415000D01*
X183400Y375000D02*
Y400400D01*
X410000Y177000D02*
X412000Y175000D01*
X410000Y177000D02*
Y236000D01*
X377000Y269000D02*
X410000Y236000D01*
X341000Y305000D02*
X377000Y269000D01*
X341000Y305000D02*
Y316000D01*
X285000Y372000D02*
X341000Y316000D01*
X285000Y372000D02*
Y375000D01*
X245000Y255000D02*
X265000Y235000D01*
X245000Y255000D02*
Y335000D01*
X234000Y346000D02*
X245000Y335000D01*
X234000Y346000D02*
Y379000D01*
X208500Y171500D02*
X209000Y172000D01*
Y188000D01*
X185000Y212000D02*
X209000Y188000D01*
X185000Y212000D02*
Y212000D01*
X131000Y266000D02*
X185000Y212000D01*
X131000Y266000D02*
Y375000D01*
X50000Y246500D02*
X61500Y235000D01*
X50000Y246500D02*
Y329000D01*
X52000Y330000D02*
X81000Y359000D01*
Y379000D01*
D51*
X343600Y-68470D02*
D03*
X115000Y-245000D02*
D03*
Y-144670D02*
D03*
X343600Y-245000D02*
D03*
D52*
X115000Y-270400D02*
D03*
Y-168800D02*
D03*
Y-194200D02*
D03*
Y-219600D02*
D03*
Y-118000D02*
D03*
Y-92600D02*
D03*
Y-65930D02*
D03*
Y85200D02*
D03*
Y59800D02*
D03*
Y34400D02*
D03*
Y9000D02*
D03*
Y-16400D02*
D03*
Y-41800D02*
D03*
X343600Y-270400D02*
D03*
Y-168800D02*
D03*
Y-194200D02*
D03*
Y-219600D02*
D03*
Y-143400D02*
D03*
Y-118000D02*
D03*
Y-92600D02*
D03*
Y85200D02*
D03*
Y59800D02*
D03*
Y34400D02*
D03*
Y10270D02*
D03*
Y-16400D02*
D03*
Y-41800D02*
D03*
D53*
X75000Y-123000D02*
D03*
Y77000D02*
D03*
D54*
X234200Y375000D02*
D03*
X285000D02*
D03*
X183400D02*
D03*
X80000D02*
D03*
X130800D02*
D03*
X29200D02*
D03*
X-74200D02*
D03*
X-23400D02*
D03*
X-125000D02*
D03*
X-230000D02*
D03*
X-179200D02*
D03*
X-280800D02*
D03*
X-264600Y-374000D02*
D03*
X-315400D02*
D03*
D55*
X-208400Y190800D02*
D03*
Y89200D02*
D03*
X-411600Y38400D02*
D03*
Y241600D02*
D03*
D56*
X-20000Y36900D02*
D03*
D57*
Y113100D02*
D03*
D58*
X-200000Y-167000D02*
D03*
Y-40000D02*
D03*
X-321600Y-167000D02*
D03*
Y-40000D02*
D03*
X-347000Y-103500D02*
D03*
X3500Y171500D02*
D03*
Y298500D02*
D03*
X-118100Y171500D02*
D03*
Y298500D02*
D03*
X-143500Y235000D02*
D03*
X208500Y171500D02*
D03*
Y298500D02*
D03*
X86900Y171500D02*
D03*
Y298500D02*
D03*
X61500Y235000D02*
D03*
X412000Y171500D02*
D03*
Y298500D02*
D03*
X290400Y171500D02*
D03*
Y298500D02*
D03*
X265000Y235000D02*
D03*
D59*
X-152700Y-269000D02*
D03*
X-82700D02*
D03*
X-12700Y-270000D02*
D03*
X57300Y-269000D02*
D03*
D60*
X-127300D02*
D03*
X-57300D02*
D03*
X12700Y-270000D02*
D03*
X82700Y-269000D02*
D03*
D61*
X-425000Y400000D02*
D03*
X425000D02*
D03*
X-425000Y-400000D02*
D03*
X425000D02*
D03*
M02*
