G04 Layer_Color=65535*
%FSLAX44Y44*%
%MOMM*%
G71*
G01*
G75*
%ADD22C,0.2000*%
%ADD34C,0.2540*%
%ADD77C,0.1778*%
%ADD78C,0.3810*%
%ADD79C,0.1270*%
%ADD80C,0.2500*%
%ADD81C,0.1524*%
%ADD82C,0.1000*%
%ADD83C,0.2032*%
%ADD84C,0.7620*%
%ADD85C,0.1016*%
%ADD86R,0.5080X4.1656*%
%ADD87R,4.1656X0.5080*%
G36*
X1678940Y1150239D02*
X1687830Y1147953D01*
X1694180Y1152779D01*
X1696212Y1162939D01*
X1693926Y1174369D01*
X1688338Y1178433D01*
X1682750D01*
X1675638Y1173099D01*
Y1200785D01*
X1687322Y1196467D01*
X1699006Y1187323D01*
X1706880Y1167765D01*
X1704848Y1148461D01*
X1690624Y1131189D01*
X1675638Y1125601D01*
X1675384Y1154557D01*
X1678940Y1150239D01*
D02*
G37*
D22*
X1103613Y1097673D02*
X1101613D01*
X1103613Y1091673D02*
X1101613D01*
X1081833Y1117263D02*
Y1115263D01*
X1087833Y1117263D02*
Y1115263D01*
X1088087Y1143317D02*
Y1141317D01*
X1082087Y1143317D02*
Y1141317D01*
X1141269Y1117917D02*
Y1115917D01*
X1147269Y1117917D02*
Y1115917D01*
X1370244Y1248343D02*
X1321561D01*
X1397761D02*
X1321561D01*
X1397761Y1197543D02*
X1321561D01*
X1397761Y1248343D02*
Y1197543D01*
X1321561Y1248343D02*
Y1197543D01*
X570144Y1248343D02*
X521461D01*
X597661D02*
X521461D01*
X597661Y1197543D02*
X521461D01*
X597661Y1248343D02*
Y1197543D01*
X521461Y1248343D02*
Y1197543D01*
X550953Y1113753D02*
Y1085753D01*
X617953Y1113753D02*
Y1085753D01*
X550953D01*
X617953Y1113753D02*
X550953D01*
X803121Y1033253D02*
X717117D01*
Y1045547D02*
Y1033253D01*
X803121Y1045547D02*
Y1033279D01*
X732611Y1045547D02*
X717117D01*
X787627Y1067613D02*
Y1046055D01*
X732611Y1067613D02*
Y1046055D01*
X803121Y1045547D02*
X787627D01*
Y1067613D02*
X732611D01*
X987779D02*
X932763D01*
X1003273Y1045547D02*
X987779D01*
X932763Y1067613D02*
Y1046055D01*
X987779Y1067613D02*
Y1046055D01*
X932763Y1045547D02*
X917269D01*
X1003273D02*
Y1033279D01*
X917269Y1045547D02*
Y1033253D01*
X1003273D02*
X917269D01*
X1203425Y1033255D02*
X1117421D01*
Y1045549D02*
Y1033255D01*
X1203425Y1045549D02*
Y1033281D01*
X1132915Y1045549D02*
X1117421D01*
X1187931Y1067615D02*
Y1046057D01*
X1132915Y1067615D02*
Y1046057D01*
X1203425Y1045549D02*
X1187931D01*
Y1067615D02*
X1132915D01*
X593598Y954034D02*
Y1004834D01*
X517398Y954034D02*
Y1004834D01*
X593598D01*
X517398Y954034D02*
X593598D01*
X544915D02*
X593598D01*
X789454Y980386D02*
Y986386D01*
X760454Y980386D02*
X789454D01*
X760454D02*
Y986386D01*
X789454D01*
X790954Y989886D02*
Y1001886D01*
X1393698Y954034D02*
Y1004834D01*
X1317498Y954034D02*
Y1004834D01*
X1393698D01*
X1317498Y954034D02*
X1393698D01*
X1345015D02*
X1393698D01*
X1248664Y758353D02*
Y764968D01*
X1299464D01*
Y745918D02*
Y764968D01*
X1248664Y745918D02*
X1299464D01*
X1248664D02*
Y752003D01*
X872680Y854538D02*
Y877538D01*
X801180Y854538D02*
Y877538D01*
X729486Y989886D02*
Y1001886D01*
X698986Y986386D02*
X727986D01*
X698986Y980386D02*
Y986386D01*
Y980386D02*
X727986D01*
Y986386D01*
D34*
X1685798Y1148207D02*
G03*
X1695704Y1157859I127J9779D01*
G01*
X1675892Y1157351D02*
G03*
X1685798Y1148207I9525J381D01*
G01*
X1695704Y1169289D02*
G03*
X1685290Y1178179I-9652J-762D01*
G01*
X1685293Y1178199D02*
G03*
X1675892Y1169289I124J-9545D01*
G01*
X1668780Y1201039D02*
G03*
X1668780Y1201039I0J-38100D01*
G01*
X1695704Y1156081D02*
Y1170051D01*
X1675892Y1156843D02*
Y1169289D01*
X1638300Y1156589D02*
Y1169289D01*
X1643380Y1162939D02*
X1633220D01*
X1675638Y1126363D02*
Y1200531D01*
X1549400Y853440D02*
Y924560D01*
Y853440D02*
X1503680D01*
Y924560D01*
X1549400D02*
X1503680D01*
X1711800Y727080D02*
X1640680D01*
Y772800D01*
X1711800D02*
X1640680D01*
X1711800Y727080D02*
Y772800D01*
X1493360Y854080D02*
Y925200D01*
Y854080D02*
X1447640D01*
Y925200D01*
X1493360D02*
X1447640D01*
X1531620Y817880D02*
X1460500D01*
X1531620Y772160D02*
Y817880D01*
Y772160D02*
X1460500D01*
Y817880D01*
X1711800Y953140D02*
X1640680D01*
X1711800Y907420D02*
Y953140D01*
Y907420D02*
X1640680D01*
Y953140D01*
X1714500Y802640D02*
X1643380D01*
Y848360D01*
X1714500D02*
X1643380D01*
X1714500Y802640D02*
Y848360D01*
X1607660Y1103000D02*
Y1174120D01*
Y1103000D02*
X1561940D01*
Y1174120D01*
X1607660D02*
X1561940D01*
X1503520Y1103000D02*
Y1174120D01*
X1549240D02*
X1503520D01*
X1549240Y1103000D02*
Y1174120D01*
Y1103000D02*
X1503520D01*
X1448040Y1102860D02*
Y1173980D01*
X1493760D02*
X1448040D01*
X1493760Y1102860D02*
Y1173980D01*
Y1102860D02*
X1448040D01*
X1147318Y958541D02*
X1198118D01*
Y986464D01*
X1147318D02*
X1198118D01*
X1147318Y958541D02*
Y986464D01*
D77*
X1553796Y1023108D02*
G03*
X1553700Y997720I-430J-12693D01*
G01*
X1726556Y1022248D02*
G03*
X1726460Y996860I-430J-12693D01*
G01*
X1755140Y1036320D02*
G03*
X1734820Y1036320I-10160J0D01*
G01*
Y985520D02*
G03*
X1755140Y985520I10160J0D01*
G01*
X1600200D02*
G03*
X1620520Y985520I10160J0D01*
G01*
Y1036320D02*
G03*
X1600200Y1036320I-10160J0D01*
G01*
X1584960D02*
G03*
X1564640Y1036320I-10160J0D01*
G01*
Y985520D02*
G03*
X1584960Y985520I10160J0D01*
G01*
X1443060Y1037820D02*
G03*
X1422740Y1037820I-10160J0D01*
G01*
Y987020D02*
G03*
X1443060Y987020I10160J0D01*
G01*
X1553700Y1023120D02*
Y1061220D01*
Y959620D02*
Y997466D01*
Y1061220D02*
X1452100D01*
Y959620D02*
Y1061220D01*
X1553700Y959620D02*
X1452100D01*
X1476992Y997720D02*
Y1023120D01*
X1528046D02*
X1476992D01*
X1528046Y997720D02*
Y1023120D01*
Y997720D02*
X1476992D01*
X1726460Y1022260D02*
Y1060360D01*
Y958760D02*
Y996606D01*
Y1060360D02*
X1624860D01*
Y958760D02*
Y1060360D01*
X1726460Y958760D02*
X1624860D01*
X1649752Y996860D02*
Y1022260D01*
X1700806D02*
X1649752D01*
X1700806Y996860D02*
Y1022260D01*
Y996860D02*
X1649752D01*
X1538708Y1198420D02*
X1529818D01*
Y1188768D02*
X1482828D01*
Y1198420D02*
X1474192D01*
X1529818Y1208072D02*
X1482828D01*
Y1188768D02*
Y1208072D01*
X1529818Y1188768D02*
Y1208072D01*
X1481982Y1078420D02*
X1473092D01*
X1528972Y1088072D02*
X1481982D01*
X1537608Y1078420D02*
X1528972D01*
Y1068768D02*
X1481982D01*
X1528972D02*
Y1088072D01*
X1481982Y1068768D02*
Y1088072D01*
X1476502Y835660D02*
X1467612D01*
X1523492Y845312D02*
X1476502D01*
X1532128Y835660D02*
X1523492D01*
Y826008D02*
X1476502D01*
X1523492D02*
Y845312D01*
X1476502Y826008D02*
Y845312D01*
X1478882Y942980D02*
X1469992D01*
X1525872Y952632D02*
X1478882D01*
X1534508Y942980D02*
X1525872D01*
Y933328D02*
X1478882D01*
X1525872D02*
Y952632D01*
X1478882Y933328D02*
Y952632D01*
X1540002Y749300D02*
X1531112D01*
X1586992Y758952D02*
X1540002D01*
X1595628Y749300D02*
X1586992D01*
Y739648D02*
X1540002D01*
X1586992D02*
Y758952D01*
X1540002Y739648D02*
Y758952D01*
X1707388Y1107440D02*
X1698498D01*
Y1097788D02*
X1651508D01*
Y1107440D02*
X1642872D01*
X1698498Y1117092D02*
X1651508D01*
Y1097788D02*
Y1117092D01*
X1698498Y1097788D02*
Y1117092D01*
X1651762Y1079500D02*
X1642872D01*
X1698752Y1089152D02*
X1651762D01*
X1707388Y1079500D02*
X1698752D01*
Y1069848D02*
X1651762D01*
X1698752D02*
Y1089152D01*
X1651762Y1069848D02*
Y1089152D01*
X1651602Y864240D02*
X1642712D01*
X1698592Y873892D02*
X1651602D01*
X1707228Y864240D02*
X1698592D01*
Y854588D02*
X1651602D01*
X1698592D02*
Y873892D01*
X1651602Y854588D02*
Y873892D01*
X1654142Y788040D02*
X1645252D01*
X1701132Y797692D02*
X1654142D01*
X1709768Y788040D02*
X1701132D01*
Y778388D02*
X1654142D01*
X1701132D02*
Y797692D01*
X1654142Y778388D02*
Y797692D01*
X1651602Y892180D02*
X1642712D01*
X1698592Y901832D02*
X1651602D01*
X1707228Y892180D02*
X1698592D01*
Y882528D02*
X1651602D01*
X1698592D02*
Y901832D01*
X1651602Y882528D02*
Y901832D01*
X1755140Y985520D02*
Y1036320D01*
X1734820Y985520D02*
Y1036320D01*
X1752600Y1017270D02*
X1738630D01*
X1752600Y1005840D02*
X1738630D01*
X1744980Y1017270D02*
Y1024890D01*
Y998220D02*
Y1005840D01*
X1600200Y985520D02*
Y1036320D01*
X1620520Y985520D02*
Y1036320D01*
X1616710Y1004570D02*
X1602740D01*
X1616710Y1016000D02*
X1602740D01*
X1610360Y996950D02*
Y1004570D01*
Y1016000D02*
Y1023620D01*
X1584960Y985520D02*
Y1036320D01*
X1564640Y985520D02*
Y1036320D01*
X1582420Y1017270D02*
X1568450D01*
X1582420Y1005840D02*
X1568450D01*
X1574800Y1017270D02*
Y1024890D01*
Y998220D02*
Y1005840D01*
X1443060Y987020D02*
Y1037820D01*
X1422740Y987020D02*
Y1037820D01*
X1440520Y1018770D02*
X1426550D01*
X1440520Y1007340D02*
X1426550D01*
X1432900Y1018770D02*
Y1026390D01*
Y999720D02*
Y1007340D01*
X720846Y1053203D02*
X714247D01*
X720846Y1067038D02*
Y1053203D01*
Y1067038D02*
X714247D01*
X696975D02*
X690375D01*
Y1053203D01*
X696975D02*
X690375D01*
X653033Y1123629D02*
Y1114993D01*
X663193Y1123629D02*
X653033D01*
X673353D02*
X663193D01*
X673353D02*
Y1114993D01*
Y1094673D02*
Y1086037D01*
X663193D01*
X653033D01*
Y1094673D02*
Y1086037D01*
X627633Y1123629D02*
Y1114993D01*
X637793Y1123629D02*
X627633D01*
X647953D02*
X637793D01*
X647953D02*
Y1114993D01*
Y1094673D02*
Y1086037D01*
X637793D01*
X627633D01*
Y1094673D02*
Y1086037D01*
X1083055Y1044127D02*
Y1035491D01*
X1072895D01*
X1062735D01*
Y1044127D02*
Y1035491D01*
Y1073083D02*
Y1064447D01*
X1072895Y1073083D02*
X1062735D01*
X1083055D02*
X1072895D01*
X1083055D02*
Y1064447D01*
X545245Y1130197D02*
Y1121197D01*
X521045D01*
Y1130197D02*
Y1121197D01*
Y1169197D02*
Y1160197D01*
X545245Y1169197D02*
X521045D01*
X545245D02*
Y1160197D01*
X598169Y1170873D02*
X589533D01*
X598169D02*
Y1160713D01*
Y1150553D01*
X589533D01*
X569213D02*
X560577D01*
Y1160713D02*
Y1150553D01*
Y1170873D02*
Y1160713D01*
X569213Y1170873D02*
X560577D01*
X815339Y1094419D02*
Y1085783D01*
X805179D01*
X795019D01*
Y1094419D02*
Y1085783D01*
Y1123375D02*
Y1114739D01*
X805179Y1123375D02*
X795019D01*
X815339D02*
X805179D01*
X815339D02*
Y1114739D01*
X920362Y1052187D02*
X913763D01*
X920362Y1066021D02*
Y1052187D01*
Y1066021D02*
X913763D01*
X896491D02*
X889891D01*
Y1052187D01*
X896491D02*
X889891D01*
X1244600Y671347D02*
Y673632D01*
X1176782Y671347D02*
X1244600D01*
X1176782Y711225D02*
X1244600D01*
Y708940D02*
Y711225D01*
X1285876Y864768D02*
X1288161D01*
Y796950D02*
Y864768D01*
X1248283Y796950D02*
Y864768D01*
X1250568D01*
X1227582Y911250D02*
X1236218D01*
X1227582Y901090D02*
Y911250D01*
Y890930D02*
Y901090D01*
Y890930D02*
X1236218D01*
X1256538D02*
X1265174D01*
Y901090D01*
Y911250D01*
X1256538D02*
X1265174D01*
X1194816Y736498D02*
X1203452D01*
X1194816Y726338D02*
Y736498D01*
Y716178D02*
Y726338D01*
Y716178D02*
X1203452D01*
X1223772D02*
X1232408D01*
Y726338D01*
Y736498D01*
X1223772D02*
X1232408D01*
X1217422Y753008D02*
Y761644D01*
Y753008D02*
X1227582D01*
X1237742D01*
Y761644D01*
Y781964D02*
Y790600D01*
X1227582D02*
X1237742D01*
X1217422D02*
X1227582D01*
X1217422Y781964D02*
Y790600D01*
X1199388Y761263D02*
Y763548D01*
X1131570Y761263D02*
X1199388D01*
X1131570Y801141D02*
X1199388D01*
Y798856D02*
Y801141D01*
X1128360Y610136D02*
Y619136D01*
Y610136D02*
X1152560D01*
Y619136D01*
Y649136D02*
Y658136D01*
X1128360D02*
X1152560D01*
X1128360Y649136D02*
Y658136D01*
X1174748Y666268D02*
Y668553D01*
X1242566D01*
X1174748Y628675D02*
X1242566D01*
X1174748D02*
Y630960D01*
X1151382Y736752D02*
X1160018D01*
X1151382Y726592D02*
Y736752D01*
Y716432D02*
Y726592D01*
Y716432D02*
X1160018D01*
X1180338D02*
X1188974D01*
Y726592D01*
Y736752D01*
X1180338D02*
X1188974D01*
X615190Y1011200D02*
Y1013485D01*
X683008D01*
X615190Y973607D02*
X683008D01*
X615190D02*
Y975892D01*
X734568Y996594D02*
Y1005230D01*
X744728D01*
X754888D01*
Y996594D02*
Y1005230D01*
Y967638D02*
Y976274D01*
X744728Y967638D02*
X754888D01*
X734568D02*
X744728D01*
X734568D02*
Y976274D01*
X794258Y996594D02*
Y1005230D01*
X804418D01*
X814578D01*
Y996594D02*
Y1005230D01*
Y967638D02*
Y976274D01*
X804418Y967638D02*
X814578D01*
X794258D02*
X804418D01*
X794258D02*
Y976274D01*
X1070610Y846226D02*
Y854862D01*
Y846226D02*
X1080770D01*
X1090930D01*
Y854862D01*
Y875182D02*
Y883818D01*
X1080770D02*
X1090930D01*
X1070610D02*
X1080770D01*
X1070610Y875182D02*
Y883818D01*
X1049528Y861974D02*
Y870610D01*
X1039368D02*
X1049528D01*
X1029208D02*
X1039368D01*
X1029208Y861974D02*
Y870610D01*
Y833018D02*
Y841654D01*
Y833018D02*
X1039368D01*
X1049528D01*
Y841654D01*
X1069848Y784758D02*
Y793394D01*
Y784758D02*
X1080008D01*
X1090168D01*
Y793394D01*
Y813714D02*
Y822350D01*
X1080008D02*
X1090168D01*
X1069848D02*
X1080008D01*
X1069848Y813714D02*
Y822350D01*
X1142492Y905154D02*
X1151128D01*
X1142492Y894994D02*
Y905154D01*
Y884834D02*
Y894994D01*
Y884834D02*
X1151128D01*
X1171448D02*
X1180084D01*
Y894994D01*
Y905154D01*
X1171448D02*
X1180084D01*
X1115568Y875944D02*
Y884580D01*
X1105408D02*
X1115568D01*
X1095248D02*
X1105408D01*
X1095248Y875944D02*
Y884580D01*
Y846988D02*
Y855624D01*
Y846988D02*
X1105408D01*
X1115568D01*
Y855624D01*
X1139698Y983894D02*
Y992530D01*
X1129538D02*
X1139698D01*
X1119378D02*
X1129538D01*
X1119378Y983894D02*
Y992530D01*
Y954938D02*
Y963574D01*
Y954938D02*
X1129538D01*
X1139698D01*
Y963574D01*
X1227582Y938174D02*
X1236218D01*
X1227582Y928014D02*
Y938174D01*
Y917854D02*
Y928014D01*
Y917854D02*
X1236218D01*
X1256538D02*
X1265174D01*
Y928014D01*
Y938174D01*
X1256538D02*
X1265174D01*
X1171448Y912774D02*
X1180084D01*
Y922934D01*
Y933094D01*
X1171448D02*
X1180084D01*
X1142492D02*
X1151128D01*
X1142492Y922934D02*
Y933094D01*
Y912774D02*
Y922934D01*
Y912774D02*
X1151128D01*
X1227582Y963574D02*
X1236218D01*
X1227582Y953414D02*
Y963574D01*
Y943254D02*
Y953414D01*
Y943254D02*
X1236218D01*
X1256538D02*
X1265174D01*
Y953414D01*
Y963574D01*
X1256538D02*
X1265174D01*
X1051214Y913826D02*
Y922826D01*
X1027014D02*
X1051214D01*
X1027014Y913826D02*
Y922826D01*
Y874826D02*
Y883826D01*
Y874826D02*
X1051214D01*
Y883826D01*
X1031348Y780094D02*
X1040348D01*
X1031348Y755894D02*
Y780094D01*
Y755894D02*
X1040348D01*
X1070348D02*
X1079348D01*
Y780094D01*
X1070348D02*
X1079348D01*
X1029208Y792378D02*
Y801014D01*
Y792378D02*
X1039368D01*
X1049528D01*
Y801014D01*
Y821334D02*
Y829970D01*
X1039368D02*
X1049528D01*
X1029208D02*
X1039368D01*
X1029208Y821334D02*
Y829970D01*
D78*
X1540746Y1030994D02*
G03*
X1540746Y1030994I0J-2032D01*
G01*
X1713506Y1030134D02*
G03*
X1713506Y1030134I0J-2032D01*
G01*
D79*
X1743069Y946765D02*
X1741403Y945098D01*
Y941766D01*
X1743069Y940100D01*
X1749734D01*
X1751400Y941766D01*
Y945098D01*
X1749734Y946765D01*
X1751400Y950097D02*
Y953429D01*
Y951763D01*
X1741403D01*
X1743069Y950097D01*
X1751400Y965092D02*
Y958427D01*
X1744736Y965092D01*
X1743069D01*
X1741403Y963426D01*
Y960094D01*
X1743069Y958427D01*
X1608125Y949005D02*
X1606459Y947338D01*
Y944006D01*
X1608125Y942340D01*
X1614790D01*
X1616456Y944006D01*
Y947338D01*
X1614790Y949005D01*
X1616456Y952337D02*
Y955669D01*
Y954003D01*
X1606459D01*
X1608125Y952337D01*
X1606459Y960667D02*
Y967332D01*
X1608125D01*
X1614790Y960667D01*
X1616456D01*
X1744980Y1054263D02*
Y1062594D01*
X1743314Y1064260D01*
X1739982D01*
X1738315Y1062594D01*
Y1054263D01*
X1734983Y1064260D02*
X1731651D01*
X1733317D01*
Y1054263D01*
X1734983Y1055929D01*
X1579880Y1054263D02*
Y1062594D01*
X1578214Y1064260D01*
X1574882D01*
X1573215Y1062594D01*
Y1054263D01*
X1563219Y1064260D02*
X1569883D01*
X1563219Y1057596D01*
Y1055929D01*
X1564885Y1054263D01*
X1568217D01*
X1569883Y1055929D01*
X1738315Y918769D02*
X1739982Y917103D01*
X1743314D01*
X1744980Y918769D01*
Y925434D01*
X1743314Y927100D01*
X1739982D01*
X1738315Y925434D01*
X1734983Y927100D02*
X1731651D01*
X1733317D01*
Y917103D01*
X1734983Y918769D01*
X1726653D02*
X1724986Y917103D01*
X1721654D01*
X1719988Y918769D01*
Y920435D01*
X1721654Y922102D01*
X1719988Y923768D01*
Y925434D01*
X1721654Y927100D01*
X1724986D01*
X1726653Y925434D01*
Y923768D01*
X1724986Y922102D01*
X1726653Y920435D01*
Y918769D01*
X1724986Y922102D02*
X1721654D01*
X1740856Y822249D02*
X1742522Y820583D01*
X1745854D01*
X1747520Y822249D01*
Y828914D01*
X1745854Y830580D01*
X1742522D01*
X1740856Y828914D01*
X1737523Y830580D02*
X1734191D01*
X1735857D01*
Y820583D01*
X1737523Y822249D01*
X1729193Y828914D02*
X1727526Y830580D01*
X1724194D01*
X1722528Y828914D01*
Y822249D01*
X1724194Y820583D01*
X1727526D01*
X1729193Y822249D01*
Y823915D01*
X1727526Y825582D01*
X1722528D01*
X1718107Y1158300D02*
X1716441Y1156634D01*
Y1153302D01*
X1718107Y1151636D01*
X1724772D01*
X1726438Y1153302D01*
Y1156634D01*
X1724772Y1158300D01*
X1726438Y1168297D02*
Y1161633D01*
X1719774Y1168297D01*
X1718107D01*
X1716441Y1166631D01*
Y1163299D01*
X1718107Y1161633D01*
X1726438Y1171630D02*
Y1174962D01*
Y1173296D01*
X1716441D01*
X1718107Y1171630D01*
X1558849Y882964D02*
X1557183Y881298D01*
Y877966D01*
X1558849Y876300D01*
X1565514D01*
X1567180Y877966D01*
Y881298D01*
X1565514Y882964D01*
X1567180Y892961D02*
Y886297D01*
X1560515Y892961D01*
X1558849D01*
X1557183Y891295D01*
Y887963D01*
X1558849Y886297D01*
X1567180Y902958D02*
Y896294D01*
X1560515Y902958D01*
X1558849D01*
X1557183Y901292D01*
Y897960D01*
X1558849Y896294D01*
X1751015Y746049D02*
X1752682Y744383D01*
X1756014D01*
X1757680Y746049D01*
Y752714D01*
X1756014Y754380D01*
X1752682D01*
X1751015Y752714D01*
X1741019Y754380D02*
X1747683D01*
X1741019Y747716D01*
Y746049D01*
X1742685Y744383D01*
X1746017D01*
X1747683Y746049D01*
X1732688Y754380D02*
Y744383D01*
X1737686Y749382D01*
X1731022D01*
X1434389Y880424D02*
X1432723Y878758D01*
Y875426D01*
X1434389Y873760D01*
X1441054D01*
X1442720Y875426D01*
Y878758D01*
X1441054Y880424D01*
X1442720Y890421D02*
Y883757D01*
X1436055Y890421D01*
X1434389D01*
X1432723Y888755D01*
Y885423D01*
X1434389Y883757D01*
X1432723Y900418D02*
Y893754D01*
X1437722D01*
X1436055Y897086D01*
Y898752D01*
X1437722Y900418D01*
X1441054D01*
X1442720Y898752D01*
Y895420D01*
X1441054Y893754D01*
X1443676Y791769D02*
X1445342Y790103D01*
X1448674D01*
X1450340Y791769D01*
Y798434D01*
X1448674Y800100D01*
X1445342D01*
X1443676Y798434D01*
X1433679Y800100D02*
X1440343D01*
X1433679Y793436D01*
Y791769D01*
X1435345Y790103D01*
X1438677D01*
X1440343Y791769D01*
X1430346Y790103D02*
X1423682D01*
Y791769D01*
X1430346Y798434D01*
Y800100D01*
X1614729Y1131885D02*
X1613063Y1130218D01*
Y1126886D01*
X1614729Y1125220D01*
X1621394D01*
X1623060Y1126886D01*
Y1130218D01*
X1621394Y1131885D01*
X1614729Y1135217D02*
X1613063Y1136883D01*
Y1140215D01*
X1614729Y1141881D01*
X1616396D01*
X1618062Y1140215D01*
Y1138549D01*
Y1140215D01*
X1619728Y1141881D01*
X1621394D01*
X1623060Y1140215D01*
Y1136883D01*
X1621394Y1135217D01*
X1623060Y1145214D02*
Y1148546D01*
Y1146880D01*
X1613063D01*
X1614729Y1145214D01*
X1566469Y1187765D02*
X1564803Y1186098D01*
Y1182766D01*
X1566469Y1181100D01*
X1573134D01*
X1574800Y1182766D01*
Y1186098D01*
X1573134Y1187765D01*
X1566469Y1191097D02*
X1564803Y1192763D01*
Y1196095D01*
X1566469Y1197761D01*
X1568136D01*
X1569802Y1196095D01*
Y1194429D01*
Y1196095D01*
X1571468Y1197761D01*
X1573134D01*
X1574800Y1196095D01*
Y1192763D01*
X1573134Y1191097D01*
X1574800Y1207758D02*
Y1201094D01*
X1568136Y1207758D01*
X1566469D01*
X1564803Y1206092D01*
Y1202760D01*
X1566469Y1201094D01*
X1434389Y1131885D02*
X1432723Y1130218D01*
Y1126886D01*
X1434389Y1125220D01*
X1441054D01*
X1442720Y1126886D01*
Y1130218D01*
X1441054Y1131885D01*
X1434389Y1135217D02*
X1432723Y1136883D01*
Y1140215D01*
X1434389Y1141881D01*
X1436055D01*
X1437722Y1140215D01*
Y1138549D01*
Y1140215D01*
X1439388Y1141881D01*
X1441054D01*
X1442720Y1140215D01*
Y1136883D01*
X1441054Y1135217D01*
X1434389Y1145214D02*
X1432723Y1146880D01*
Y1150212D01*
X1434389Y1151878D01*
X1436055D01*
X1437722Y1150212D01*
Y1148546D01*
Y1150212D01*
X1439388Y1151878D01*
X1441054D01*
X1442720Y1150212D01*
Y1146880D01*
X1441054Y1145214D01*
X1760220Y795020D02*
Y785023D01*
X1755222D01*
X1753555Y786689D01*
Y790022D01*
X1755222Y791688D01*
X1760220D01*
X1756888D02*
X1753555Y795020D01*
X1750223D02*
X1746891D01*
X1748557D01*
Y785023D01*
X1750223Y786689D01*
X1741893Y793354D02*
X1740226Y795020D01*
X1736894D01*
X1735228Y793354D01*
Y786689D01*
X1736894Y785023D01*
X1740226D01*
X1741893Y786689D01*
Y788355D01*
X1740226Y790022D01*
X1735228D01*
X1757680Y896620D02*
Y886623D01*
X1752682D01*
X1751015Y888289D01*
Y891622D01*
X1752682Y893288D01*
X1757680D01*
X1754348D02*
X1751015Y896620D01*
X1741019D02*
X1747683D01*
X1741019Y889956D01*
Y888289D01*
X1742685Y886623D01*
X1746017D01*
X1747683Y888289D01*
X1737686D02*
X1736020Y886623D01*
X1732688D01*
X1731022Y888289D01*
Y894954D01*
X1732688Y896620D01*
X1736020D01*
X1737686Y894954D01*
Y888289D01*
X1757680Y871220D02*
Y861223D01*
X1752682D01*
X1751015Y862889D01*
Y866222D01*
X1752682Y867888D01*
X1757680D01*
X1754348D02*
X1751015Y871220D01*
X1741019D02*
X1747683D01*
X1741019Y864556D01*
Y862889D01*
X1742685Y861223D01*
X1746017D01*
X1747683Y862889D01*
X1737686Y871220D02*
X1734354D01*
X1736020D01*
Y861223D01*
X1737686Y862889D01*
X1760220Y1112520D02*
Y1102523D01*
X1755222D01*
X1753555Y1104189D01*
Y1107522D01*
X1755222Y1109188D01*
X1760220D01*
X1756888D02*
X1753555Y1112520D01*
X1743559D02*
X1750223D01*
X1743559Y1105855D01*
Y1104189D01*
X1745225Y1102523D01*
X1748557D01*
X1750223Y1104189D01*
X1735228Y1112520D02*
Y1102523D01*
X1740226Y1107522D01*
X1733562D01*
X1760220Y1084580D02*
Y1074583D01*
X1755222D01*
X1753555Y1076249D01*
Y1079582D01*
X1755222Y1081248D01*
X1760220D01*
X1756888D02*
X1753555Y1084580D01*
X1743559D02*
X1750223D01*
X1743559Y1077915D01*
Y1076249D01*
X1745225Y1074583D01*
X1748557D01*
X1750223Y1076249D01*
X1733562Y1074583D02*
X1740226D01*
Y1079582D01*
X1736894Y1077915D01*
X1735228D01*
X1733562Y1079582D01*
Y1082914D01*
X1735228Y1084580D01*
X1738560D01*
X1740226Y1082914D01*
X1579880Y774700D02*
Y764703D01*
X1574882D01*
X1573215Y766369D01*
Y769702D01*
X1574882Y771368D01*
X1579880D01*
X1576548D02*
X1573215Y774700D01*
X1563219D02*
X1569883D01*
X1563219Y768036D01*
Y766369D01*
X1564885Y764703D01*
X1568217D01*
X1569883Y766369D01*
X1553222Y764703D02*
X1556554Y766369D01*
X1559886Y769702D01*
Y773034D01*
X1558220Y774700D01*
X1554888D01*
X1553222Y773034D01*
Y771368D01*
X1554888Y769702D01*
X1559886D01*
X1442720Y947420D02*
Y937423D01*
X1437722D01*
X1436055Y939089D01*
Y942422D01*
X1437722Y944088D01*
X1442720D01*
X1439388D02*
X1436055Y947420D01*
X1426059D02*
X1432723D01*
X1426059Y940755D01*
Y939089D01*
X1427725Y937423D01*
X1431057D01*
X1432723Y939089D01*
X1422726Y937423D02*
X1416062D01*
Y939089D01*
X1422726Y945754D01*
Y947420D01*
X1440180Y840740D02*
Y830743D01*
X1435182D01*
X1433515Y832409D01*
Y835742D01*
X1435182Y837408D01*
X1440180D01*
X1436848D02*
X1433515Y840740D01*
X1423519D02*
X1430183D01*
X1423519Y834075D01*
Y832409D01*
X1425185Y830743D01*
X1428517D01*
X1430183Y832409D01*
X1420186D02*
X1418520Y830743D01*
X1415188D01*
X1413522Y832409D01*
Y834075D01*
X1415188Y835742D01*
X1413522Y837408D01*
Y839074D01*
X1415188Y840740D01*
X1418520D01*
X1420186Y839074D01*
Y837408D01*
X1418520Y835742D01*
X1420186Y834075D01*
Y832409D01*
X1418520Y835742D02*
X1415188D01*
X1590040Y1084580D02*
Y1074583D01*
X1585042D01*
X1583376Y1076249D01*
Y1079582D01*
X1585042Y1081248D01*
X1590040D01*
X1586708D02*
X1583376Y1084580D01*
X1580043Y1076249D02*
X1578377Y1074583D01*
X1575045D01*
X1573379Y1076249D01*
Y1077915D01*
X1575045Y1079582D01*
X1576711D01*
X1575045D01*
X1573379Y1081248D01*
Y1082914D01*
X1575045Y1084580D01*
X1578377D01*
X1580043Y1082914D01*
X1570046Y1076249D02*
X1568380Y1074583D01*
X1565048D01*
X1563382Y1076249D01*
Y1077915D01*
X1565048Y1079582D01*
X1566714D01*
X1565048D01*
X1563382Y1081248D01*
Y1082914D01*
X1565048Y1084580D01*
X1568380D01*
X1570046Y1082914D01*
X1518920Y1221740D02*
Y1211743D01*
X1513922D01*
X1512256Y1213409D01*
Y1216742D01*
X1513922Y1218408D01*
X1518920D01*
X1515588D02*
X1512256Y1221740D01*
X1508923Y1213409D02*
X1507257Y1211743D01*
X1503925D01*
X1502259Y1213409D01*
Y1215076D01*
X1503925Y1216742D01*
X1505591D01*
X1503925D01*
X1502259Y1218408D01*
Y1220074D01*
X1503925Y1221740D01*
X1507257D01*
X1508923Y1220074D01*
X1493928Y1221740D02*
Y1211743D01*
X1498926Y1216742D01*
X1492262D01*
X1572057Y949005D02*
X1570391Y947338D01*
Y944006D01*
X1572057Y942340D01*
X1578722D01*
X1580388Y944006D01*
Y947338D01*
X1578722Y949005D01*
X1572057Y952337D02*
X1570391Y954003D01*
Y957335D01*
X1572057Y959001D01*
X1573723D01*
X1575390Y957335D01*
Y955669D01*
Y957335D01*
X1577056Y959001D01*
X1578722D01*
X1580388Y957335D01*
Y954003D01*
X1578722Y952337D01*
X1570391Y968998D02*
Y962334D01*
X1575390D01*
X1573723Y965666D01*
Y967332D01*
X1575390Y968998D01*
X1578722D01*
X1580388Y967332D01*
Y964000D01*
X1578722Y962334D01*
X1429309Y1063305D02*
X1427643Y1061638D01*
Y1058306D01*
X1429309Y1056640D01*
X1435974D01*
X1437640Y1058306D01*
Y1061638D01*
X1435974Y1063305D01*
X1429309Y1066637D02*
X1427643Y1068303D01*
Y1071635D01*
X1429309Y1073301D01*
X1430975D01*
X1432642Y1071635D01*
Y1069969D01*
Y1071635D01*
X1434308Y1073301D01*
X1435974D01*
X1437640Y1071635D01*
Y1068303D01*
X1435974Y1066637D01*
X1427643Y1083298D02*
X1429309Y1079966D01*
X1432642Y1076634D01*
X1435974D01*
X1437640Y1078300D01*
Y1081632D01*
X1435974Y1083298D01*
X1434308D01*
X1432642Y1081632D01*
Y1076634D01*
X1630843Y1214120D02*
Y1217452D01*
Y1215786D01*
X1640840D01*
Y1214120D01*
Y1217452D01*
Y1222451D02*
X1630843D01*
X1640840Y1229115D01*
X1630843D01*
X1607109Y1210624D02*
X1605443Y1208958D01*
Y1205626D01*
X1607109Y1203960D01*
X1613774D01*
X1615440Y1205626D01*
Y1208958D01*
X1613774Y1210624D01*
X1610442D01*
Y1207292D01*
X1615440Y1213957D02*
X1605443D01*
X1615440Y1220621D01*
X1605443D01*
Y1223954D02*
X1615440D01*
Y1228952D01*
X1613774Y1230618D01*
X1607109D01*
X1605443Y1228952D01*
Y1223954D01*
X1580043Y1216660D02*
X1586708D01*
X1590040Y1219992D01*
X1586708Y1223325D01*
X1580043D01*
X1585042Y1226657D02*
Y1233321D01*
X1556309Y1223325D02*
X1554643Y1221658D01*
Y1218326D01*
X1556309Y1216660D01*
X1562974D01*
X1564640Y1218326D01*
Y1221658D01*
X1562974Y1223325D01*
X1559642D01*
Y1219992D01*
X1529243Y1216660D02*
X1535908D01*
X1539240Y1219992D01*
X1535908Y1223325D01*
X1529243D01*
X1534242Y1226657D02*
Y1233321D01*
X1530909Y1229989D02*
X1537574D01*
X1627429Y715324D02*
X1625763Y713658D01*
Y710326D01*
X1627429Y708660D01*
X1634094D01*
X1635760Y710326D01*
Y713658D01*
X1634094Y715324D01*
X1630762D01*
Y711992D01*
X1635760Y718657D02*
X1625763D01*
X1635760Y725321D01*
X1625763D01*
Y728654D02*
X1635760D01*
Y733652D01*
X1634094Y735318D01*
X1627429D01*
X1625763Y733652D01*
Y728654D01*
X1607109Y715324D02*
X1605443Y713658D01*
Y710326D01*
X1607109Y708660D01*
X1613774D01*
X1615440Y710326D01*
Y713658D01*
X1613774Y715324D01*
X1610442D01*
Y711992D01*
X1615440Y718657D02*
X1605443D01*
X1615440Y725321D01*
X1605443D01*
Y728654D02*
X1615440D01*
Y733652D01*
X1613774Y735318D01*
X1607109D01*
X1605443Y733652D01*
Y728654D01*
X1580043Y708660D02*
X1590040D01*
Y715324D01*
X1580043Y723655D02*
Y720323D01*
X1581709Y718657D01*
X1588374D01*
X1590040Y720323D01*
Y723655D01*
X1588374Y725321D01*
X1581709D01*
X1580043Y723655D01*
Y728654D02*
X1590040D01*
X1586708Y731986D01*
X1590040Y735318D01*
X1580043D01*
X1552103Y708660D02*
X1562100D01*
X1557102D01*
Y715324D01*
X1552103D01*
X1562100D01*
X1552103Y718657D02*
Y721989D01*
Y720323D01*
X1562100D01*
Y718657D01*
Y721989D01*
X1539240Y708660D02*
X1529243D01*
X1532576Y711992D01*
X1529243Y715324D01*
X1539240D01*
X1529243Y718657D02*
Y721989D01*
Y720323D01*
X1539240D01*
Y718657D01*
Y721989D01*
X1529243Y726987D02*
X1539240D01*
Y731986D01*
X1537574Y733652D01*
X1530909D01*
X1529243Y731986D01*
Y726987D01*
X622553Y1150716D02*
Y1159047D01*
X620886Y1160713D01*
X617554D01*
X615888Y1159047D01*
Y1150716D01*
X612556Y1152382D02*
X610890Y1150716D01*
X607557D01*
X605891Y1152382D01*
Y1154048D01*
X607557Y1155714D01*
X609224D01*
X607557D01*
X605891Y1157380D01*
Y1159047D01*
X607557Y1160713D01*
X610890D01*
X612556Y1159047D01*
X525952Y1102757D02*
Y1096093D01*
X530950D01*
Y1099425D01*
Y1096093D01*
X535949D01*
Y1112754D02*
Y1106089D01*
X529284Y1112754D01*
X527618D01*
X525952Y1111088D01*
Y1107756D01*
X527618Y1106089D01*
X586932Y1177528D02*
X588598Y1175862D01*
X591931D01*
X593597Y1177528D01*
Y1184193D01*
X591931Y1185859D01*
X588598D01*
X586932Y1184193D01*
X576935Y1185859D02*
X583600D01*
X576935Y1179194D01*
Y1177528D01*
X578601Y1175862D01*
X581934D01*
X583600Y1177528D01*
X566939Y1175862D02*
X573603D01*
Y1180860D01*
X570271Y1179194D01*
X568605D01*
X566939Y1180860D01*
Y1184193D01*
X568605Y1185859D01*
X571937D01*
X573603Y1184193D01*
X1316481Y1208719D02*
Y1198722D01*
X1311482D01*
X1309816Y1200388D01*
Y1203720D01*
X1311482Y1205386D01*
X1316481D01*
X1306484Y1207053D02*
X1304818Y1208719D01*
X1301485D01*
X1299819Y1207053D01*
Y1200388D01*
X1301485Y1198722D01*
X1304818D01*
X1306484Y1200388D01*
Y1202054D01*
X1304818Y1203720D01*
X1299819D01*
X621791Y1208719D02*
Y1198722D01*
X616792D01*
X615126Y1200388D01*
Y1203720D01*
X616792Y1205386D01*
X621791D01*
X611794Y1200388D02*
X610128Y1198722D01*
X606796D01*
X605129Y1200388D01*
Y1202054D01*
X606796Y1203720D01*
X605129Y1205386D01*
Y1207053D01*
X606796Y1208719D01*
X610128D01*
X611794Y1207053D01*
Y1205386D01*
X610128Y1203720D01*
X611794Y1202054D01*
Y1200388D01*
X610128Y1203720D02*
X606796D01*
X716025Y1081211D02*
Y1071214D01*
X711026D01*
X709360Y1072880D01*
Y1076212D01*
X711026Y1077878D01*
X716025D01*
X712692D02*
X709360Y1081211D01*
X706028D02*
X702696D01*
X704362D01*
Y1071214D01*
X706028Y1072880D01*
X691033Y1081211D02*
X697697D01*
X691033Y1074546D01*
Y1072880D01*
X692699Y1071214D01*
X696031D01*
X697697Y1072880D01*
X795527Y1209735D02*
Y1199738D01*
X790528D01*
X788862Y1201404D01*
Y1204736D01*
X790528Y1206402D01*
X795527D01*
X778865Y1209735D02*
X785530D01*
X778865Y1203070D01*
Y1201404D01*
X780531Y1199738D01*
X783864D01*
X785530Y1201404D01*
X668523Y1073328D02*
X670189Y1074994D01*
Y1078326D01*
X668523Y1079993D01*
X661859D01*
X660193Y1078326D01*
Y1074994D01*
X661859Y1073328D01*
X660193Y1063331D02*
Y1069996D01*
X666857Y1063331D01*
X668523D01*
X670189Y1064997D01*
Y1068330D01*
X668523Y1069996D01*
X670189Y1059999D02*
Y1053335D01*
X668523D01*
X661859Y1059999D01*
X660193D01*
X643123Y1073008D02*
X644789Y1074674D01*
Y1078007D01*
X643123Y1079673D01*
X636459D01*
X634793Y1078007D01*
Y1074674D01*
X636459Y1073008D01*
X634793Y1063011D02*
Y1069676D01*
X641457Y1063011D01*
X643123D01*
X644789Y1064678D01*
Y1068010D01*
X643123Y1069676D01*
X644789Y1053015D02*
X643123Y1056347D01*
X639791Y1059679D01*
X636459D01*
X634793Y1058013D01*
Y1054681D01*
X636459Y1053015D01*
X638125D01*
X639791Y1054681D01*
Y1059679D01*
X1066596Y1136897D02*
X1064930Y1135231D01*
Y1131899D01*
X1066596Y1130233D01*
X1073260D01*
X1074927Y1131899D01*
Y1135231D01*
X1073260Y1136897D01*
X1074927Y1140229D02*
Y1143562D01*
Y1141896D01*
X1064930D01*
X1066596Y1140229D01*
Y1148560D02*
X1064930Y1150226D01*
Y1153559D01*
X1066596Y1155225D01*
X1068262D01*
X1069928Y1153559D01*
Y1151892D01*
Y1153559D01*
X1071594Y1155225D01*
X1073260D01*
X1074927Y1153559D01*
Y1150226D01*
X1073260Y1148560D01*
X1155218Y1116119D02*
X1153552Y1114453D01*
Y1111121D01*
X1155218Y1109455D01*
X1161882D01*
X1163549Y1111121D01*
Y1114453D01*
X1161882Y1116119D01*
X1155218Y1119452D02*
X1153552Y1121118D01*
Y1124450D01*
X1155218Y1126116D01*
X1156884D01*
X1158550Y1124450D01*
X1160216Y1126116D01*
X1161882D01*
X1163549Y1124450D01*
Y1121118D01*
X1161882Y1119452D01*
X1160216D01*
X1158550Y1121118D01*
X1156884Y1119452D01*
X1155218D01*
X1158550Y1121118D02*
Y1124450D01*
X1129566Y1090842D02*
X1131232Y1089176D01*
X1134565D01*
X1136231Y1090842D01*
Y1097506D01*
X1134565Y1099173D01*
X1131232D01*
X1129566Y1097506D01*
X1119569Y1089176D02*
X1122902Y1090842D01*
X1126234Y1094174D01*
Y1097506D01*
X1124568Y1099173D01*
X1121236D01*
X1119569Y1097506D01*
Y1095840D01*
X1121236Y1094174D01*
X1126234D01*
X1066342Y1112767D02*
X1064676Y1111101D01*
Y1107769D01*
X1066342Y1106103D01*
X1073007D01*
X1074673Y1107769D01*
Y1111101D01*
X1073007Y1112767D01*
X1064676Y1122764D02*
Y1116099D01*
X1069674D01*
X1068008Y1119432D01*
Y1121098D01*
X1069674Y1122764D01*
X1073007D01*
X1074673Y1121098D01*
Y1117766D01*
X1073007Y1116099D01*
X1087424Y1056125D02*
X1085758Y1054459D01*
Y1051127D01*
X1087424Y1049461D01*
X1094089D01*
X1095755Y1051127D01*
Y1054459D01*
X1094089Y1056125D01*
X1095755Y1059457D02*
Y1062790D01*
Y1061124D01*
X1085758D01*
X1087424Y1059457D01*
X823010Y1099051D02*
X821344Y1097385D01*
Y1094053D01*
X823010Y1092387D01*
X829675D01*
X831341Y1094053D01*
Y1097385D01*
X829675Y1099051D01*
X831341Y1102383D02*
Y1105716D01*
Y1104050D01*
X821344D01*
X823010Y1102383D01*
X821344Y1117379D02*
X823010Y1114046D01*
X826342Y1110714D01*
X829675D01*
X831341Y1112380D01*
Y1115713D01*
X829675Y1117379D01*
X828008D01*
X826342Y1115713D01*
Y1110714D01*
X913509Y1079941D02*
Y1069944D01*
X908510D01*
X906844Y1071610D01*
Y1074942D01*
X908510Y1076608D01*
X913509D01*
X910176D02*
X906844Y1079941D01*
X903512Y1071610D02*
X901846Y1069944D01*
X898513D01*
X896847Y1071610D01*
Y1073276D01*
X898513Y1074942D01*
X900180D01*
X898513D01*
X896847Y1076608D01*
Y1078275D01*
X898513Y1079941D01*
X901846D01*
X903512Y1078275D01*
X1223456Y1048242D02*
X1225122Y1046576D01*
X1228455D01*
X1230121Y1048242D01*
Y1049908D01*
X1228455Y1051574D01*
X1225122D01*
X1223456Y1053240D01*
Y1054907D01*
X1225122Y1056573D01*
X1228455D01*
X1230121Y1054907D01*
X1220124Y1046576D02*
Y1056573D01*
X1216792Y1053240D01*
X1213459Y1056573D01*
Y1046576D01*
X1210127Y1056573D02*
X1206795D01*
X1208461D01*
Y1046576D01*
X1210127Y1048242D01*
X1022288Y1053068D02*
X1023954Y1051402D01*
X1027287D01*
X1028953Y1053068D01*
Y1054734D01*
X1027287Y1056400D01*
X1023954D01*
X1022288Y1058066D01*
Y1059733D01*
X1023954Y1061399D01*
X1027287D01*
X1028953Y1059733D01*
X1018956Y1051402D02*
Y1061399D01*
X1015624Y1058066D01*
X1012291Y1061399D01*
Y1051402D01*
X1002295Y1061399D02*
X1008959D01*
X1002295Y1054734D01*
Y1053068D01*
X1003961Y1051402D01*
X1007293D01*
X1008959Y1053068D01*
X818072Y1054084D02*
X819738Y1052418D01*
X823071D01*
X824737Y1054084D01*
Y1055750D01*
X823071Y1057416D01*
X819738D01*
X818072Y1059082D01*
Y1060749D01*
X819738Y1062415D01*
X823071D01*
X824737Y1060749D01*
X814740Y1052418D02*
Y1062415D01*
X811408Y1059082D01*
X808075Y1062415D01*
Y1052418D01*
X804743Y1054084D02*
X803077Y1052418D01*
X799745D01*
X798079Y1054084D01*
Y1055750D01*
X799745Y1057416D01*
X801411D01*
X799745D01*
X798079Y1059082D01*
Y1060749D01*
X799745Y1062415D01*
X803077D01*
X804743Y1060749D01*
X771649Y1258493D02*
X764985D01*
X761652Y1255161D01*
X764985Y1251828D01*
X771649D01*
Y1248496D02*
X761652D01*
Y1243498D01*
X763318Y1241832D01*
X769983D01*
X771649Y1243498D01*
Y1248496D01*
Y1238499D02*
X761652D01*
Y1233501D01*
X763318Y1231835D01*
X769983D01*
X771649Y1233501D01*
Y1238499D01*
X756649Y1258493D02*
X746652D01*
Y1253494D01*
X748318Y1251828D01*
X754983D01*
X756649Y1253494D01*
Y1258493D01*
Y1248496D02*
Y1245164D01*
Y1246830D01*
X746652D01*
Y1248496D01*
Y1245164D01*
X756649Y1235167D02*
Y1238499D01*
X754983Y1240165D01*
X748318D01*
X746652Y1238499D01*
Y1235167D01*
X748318Y1233501D01*
X754983D01*
X756649Y1235167D01*
X739983Y1251828D02*
X741649Y1253494D01*
Y1256827D01*
X739983Y1258493D01*
X733318D01*
X731652Y1256827D01*
Y1253494D01*
X733318Y1251828D01*
X741649Y1248496D02*
X731652D01*
Y1241832D01*
X741649Y1238499D02*
X731652D01*
X734985D01*
X741649Y1231835D01*
X736651Y1236833D01*
X731652Y1231835D01*
X716652Y1258493D02*
X726649D01*
Y1253494D01*
X724983Y1251828D01*
X721651D01*
X719985Y1253494D01*
Y1258493D01*
Y1255161D02*
X716652Y1251828D01*
X726649Y1248496D02*
X716652Y1241832D01*
X726649D02*
X716652Y1248496D01*
X726649Y1238499D02*
X716652D01*
Y1233501D01*
X718318Y1231835D01*
X724983D01*
X726649Y1233501D01*
Y1238499D01*
X710649Y1258493D02*
Y1251828D01*
Y1255161D01*
X700652D01*
X710649Y1248496D02*
X700652Y1241832D01*
X710649D02*
X700652Y1248496D01*
X710649Y1238499D02*
X700652D01*
Y1233501D01*
X702318Y1231835D01*
X708983D01*
X710649Y1233501D01*
Y1238499D01*
X692983Y1251828D02*
X694649Y1253494D01*
Y1256827D01*
X692983Y1258493D01*
X686319D01*
X684652Y1256827D01*
Y1253494D01*
X686319Y1251828D01*
X689651D01*
Y1255161D01*
X684652Y1248496D02*
X694649D01*
X684652Y1241832D01*
X694649D01*
Y1238499D02*
X684652D01*
Y1233501D01*
X686319Y1231835D01*
X692983D01*
X694649Y1233501D01*
Y1238499D01*
X1375954Y675124D02*
G03*
X1277896Y675124I-49029J-9806D01*
G01*
X1277867Y655318D02*
G03*
X1375925Y655318I49029J9806D01*
G01*
X1276146Y613624D02*
Y653374D01*
X1269146D02*
X1276146D01*
Y613624D02*
X1368896D01*
X1276146Y676874D02*
X1276146Y676874D01*
X1276146Y676874D02*
Y716624D01*
X1379146Y652874D02*
X1385646D01*
X1379146Y677874D02*
X1385646D01*
X1378896Y623624D02*
Y652874D01*
X1368896Y613624D02*
X1378896Y623624D01*
X1269396Y676874D02*
X1276146D01*
X1379146Y677874D02*
Y691624D01*
X1368896Y716624D02*
X1378896Y706624D01*
X1379146Y677874D02*
Y698124D01*
X1379146Y698124D01*
X1379146Y677874D02*
Y706624D01*
Y677874D02*
Y716624D01*
X1379146Y716624D01*
X1276146D02*
X1379146D01*
X547198Y1011734D02*
Y1021731D01*
X552196D01*
X553862Y1020065D01*
Y1016733D01*
X552196Y1015067D01*
X547198D01*
X557195Y1013400D02*
X558861Y1011734D01*
X562193D01*
X563859Y1013400D01*
Y1020065D01*
X562193Y1021731D01*
X558861D01*
X557195Y1020065D01*
Y1018399D01*
X558861Y1016733D01*
X563859D01*
X769620Y1020561D02*
Y1012230D01*
X771286Y1010564D01*
X774618D01*
X776284Y1012230D01*
Y1020561D01*
X784615Y1010564D02*
Y1020561D01*
X779617Y1015563D01*
X786281D01*
X1134059Y942940D02*
X1135725Y944606D01*
Y947938D01*
X1134059Y949604D01*
X1127394D01*
X1125728Y947938D01*
Y944606D01*
X1127394Y942940D01*
X1125728Y939607D02*
Y936275D01*
Y937941D01*
X1135725D01*
X1134059Y939607D01*
X1109929Y901030D02*
X1111595Y902696D01*
Y906028D01*
X1109929Y907694D01*
X1103264D01*
X1101598Y906028D01*
Y902696D01*
X1103264Y901030D01*
X1101598Y891033D02*
Y897697D01*
X1108262Y891033D01*
X1109929D01*
X1111595Y892699D01*
Y896031D01*
X1109929Y897697D01*
X1015289Y807171D02*
X1013623Y805505D01*
Y802172D01*
X1015289Y800506D01*
X1021954D01*
X1023620Y802172D01*
Y805505D01*
X1021954Y807171D01*
X1015289Y810503D02*
X1013623Y812169D01*
Y815501D01*
X1015289Y817168D01*
X1016955D01*
X1018622Y815501D01*
Y813835D01*
Y815501D01*
X1020288Y817168D01*
X1021954D01*
X1023620Y815501D01*
Y812169D01*
X1021954Y810503D01*
X1015797Y850859D02*
X1014131Y849193D01*
Y845860D01*
X1015797Y844194D01*
X1022462D01*
X1024128Y845860D01*
Y849193D01*
X1022462Y850859D01*
X1024128Y859189D02*
X1014131D01*
X1019130Y854191D01*
Y860855D01*
X1218499Y748131D02*
X1216832Y749797D01*
X1213500D01*
X1211834Y748131D01*
Y741466D01*
X1213500Y739800D01*
X1216832D01*
X1218499Y741466D01*
X1228495Y739800D02*
X1221831D01*
X1228495Y746465D01*
Y748131D01*
X1226829Y749797D01*
X1223497D01*
X1221831Y748131D01*
X1238492Y739800D02*
X1231828D01*
X1238492Y746465D01*
Y748131D01*
X1236826Y749797D01*
X1233494D01*
X1231828Y748131D01*
X1262939Y621497D02*
X1261273Y619831D01*
Y616498D01*
X1262939Y614832D01*
X1269604D01*
X1271270Y616498D01*
Y619831D01*
X1269604Y621497D01*
X1271270Y631493D02*
Y624829D01*
X1264605Y631493D01*
X1262939D01*
X1261273Y629827D01*
Y626495D01*
X1262939Y624829D01*
Y634826D02*
X1261273Y636492D01*
Y639824D01*
X1262939Y641490D01*
X1264605D01*
X1266272Y639824D01*
Y638158D01*
Y639824D01*
X1267938Y641490D01*
X1269604D01*
X1271270Y639824D01*
Y636492D01*
X1269604Y634826D01*
X1189482Y623559D02*
Y613562D01*
X1194480D01*
X1196146Y615228D01*
Y621893D01*
X1194480Y623559D01*
X1189482D01*
X1199479Y621893D02*
X1201145Y623559D01*
X1204477D01*
X1206143Y621893D01*
Y620227D01*
X1204477Y618561D01*
X1202811D01*
X1204477D01*
X1206143Y616894D01*
Y615228D01*
X1204477Y613562D01*
X1201145D01*
X1199479Y615228D01*
X1108964Y786881D02*
Y776884D01*
X1113962D01*
X1115629Y778550D01*
Y785215D01*
X1113962Y786881D01*
X1108964D01*
X1123959Y776884D02*
Y786881D01*
X1118961Y781883D01*
X1125625D01*
X1233079Y818794D02*
X1243076D01*
Y823793D01*
X1241410Y825459D01*
X1234745D01*
X1233079Y823793D01*
Y818794D01*
Y835455D02*
Y828791D01*
X1238078D01*
X1236412Y832123D01*
Y833789D01*
X1238078Y835455D01*
X1241410D01*
X1243076Y833789D01*
Y830457D01*
X1241410Y828791D01*
X1152400Y683249D02*
Y673252D01*
X1157398D01*
X1159064Y674918D01*
Y681583D01*
X1157398Y683249D01*
X1152400D01*
X1169061D02*
X1165729Y681583D01*
X1162397Y678251D01*
Y674918D01*
X1164063Y673252D01*
X1167395D01*
X1169061Y674918D01*
Y676584D01*
X1167395Y678251D01*
X1162397D01*
X1138234Y672835D02*
X1131570D01*
Y667837D01*
X1134902D01*
X1131570D01*
Y662838D01*
X1141567D02*
X1144899D01*
X1143233D01*
Y672835D01*
X1141567Y671169D01*
X1213768Y805947D02*
Y795950D01*
X1220433D01*
X1228763D02*
Y805947D01*
X1223765Y800949D01*
X1230429D01*
X1122426Y888898D02*
Y898895D01*
X1127424D01*
X1129090Y897229D01*
Y893897D01*
X1127424Y892231D01*
X1122426D01*
X1125758D02*
X1129090Y888898D01*
X1132423D02*
X1135755D01*
X1134089D01*
Y898895D01*
X1132423Y897229D01*
X1009396Y763168D02*
Y773165D01*
X1014394D01*
X1016060Y771499D01*
Y768167D01*
X1014394Y766500D01*
X1009396D01*
X1012728D02*
X1016060Y763168D01*
X1019393Y771499D02*
X1021059Y773165D01*
X1024391D01*
X1026057Y771499D01*
Y769833D01*
X1024391Y768167D01*
X1022725D01*
X1024391D01*
X1026057Y766500D01*
Y764834D01*
X1024391Y763168D01*
X1021059D01*
X1019393Y764834D01*
X1066292Y800506D02*
X1056295D01*
Y805505D01*
X1057961Y807171D01*
X1061294D01*
X1062960Y805505D01*
Y800506D01*
Y803839D02*
X1066292Y807171D01*
Y815501D02*
X1056295D01*
X1061294Y810503D01*
Y817168D01*
X1270508Y948334D02*
Y958331D01*
X1275506D01*
X1277172Y956665D01*
Y953333D01*
X1275506Y951666D01*
X1270508D01*
X1273840D02*
X1277172Y948334D01*
X1287169Y958331D02*
X1280505D01*
Y953333D01*
X1283837Y954999D01*
X1285503D01*
X1287169Y953333D01*
Y950000D01*
X1285503Y948334D01*
X1282171D01*
X1280505Y950000D01*
X1021842Y890676D02*
X1011845D01*
Y895675D01*
X1013511Y897341D01*
X1016844D01*
X1018510Y895675D01*
Y890676D01*
Y894008D02*
X1021842Y897341D01*
X1011845Y900673D02*
Y907337D01*
X1013511D01*
X1020176Y900673D01*
X1021842D01*
X1074928Y907694D02*
X1084925D01*
Y902696D01*
X1083259Y901030D01*
X1079926D01*
X1078260Y902696D01*
Y907694D01*
Y904362D02*
X1074928Y901030D01*
X1083259Y897697D02*
X1084925Y896031D01*
Y892699D01*
X1083259Y891033D01*
X1081592D01*
X1079926Y892699D01*
X1078260Y891033D01*
X1076594D01*
X1074928Y892699D01*
Y896031D01*
X1076594Y897697D01*
X1078260D01*
X1079926Y896031D01*
X1081592Y897697D01*
X1083259D01*
X1079926Y896031D02*
Y892699D01*
X1270508Y922934D02*
Y932931D01*
X1275506D01*
X1277172Y931265D01*
Y927933D01*
X1275506Y926266D01*
X1270508D01*
X1273840D02*
X1277172Y922934D01*
X1280505Y924600D02*
X1282171Y922934D01*
X1285503D01*
X1287169Y924600D01*
Y931265D01*
X1285503Y932931D01*
X1282171D01*
X1280505Y931265D01*
Y929599D01*
X1282171Y927933D01*
X1287169D01*
X1112012Y916838D02*
Y926835D01*
X1117010D01*
X1118677Y925169D01*
Y921837D01*
X1117010Y920171D01*
X1112012D01*
X1115344D02*
X1118677Y916838D01*
X1122009D02*
X1125341D01*
X1123675D01*
Y926835D01*
X1122009Y925169D01*
X1130339D02*
X1132006Y926835D01*
X1135338D01*
X1137004Y925169D01*
Y918504D01*
X1135338Y916838D01*
X1132006D01*
X1130339Y918504D01*
Y925169D01*
X1124458Y743864D02*
Y753861D01*
X1129456D01*
X1131123Y752195D01*
Y748863D01*
X1129456Y747197D01*
X1124458D01*
X1127790D02*
X1131123Y743864D01*
X1134455D02*
X1137787D01*
X1136121D01*
Y753861D01*
X1134455Y752195D01*
X1142785D02*
X1144452Y753861D01*
X1147784D01*
X1149450Y752195D01*
Y750529D01*
X1147784Y748863D01*
X1149450Y747197D01*
Y745530D01*
X1147784Y743864D01*
X1144452D01*
X1142785Y745530D01*
Y747197D01*
X1144452Y748863D01*
X1142785Y750529D01*
Y752195D01*
X1144452Y748863D02*
X1147784D01*
X1249172Y700684D02*
Y710681D01*
X1254170D01*
X1255836Y709015D01*
Y705683D01*
X1254170Y704016D01*
X1249172D01*
X1252504D02*
X1255836Y700684D01*
X1259169D02*
X1262501D01*
X1260835D01*
Y710681D01*
X1259169Y709015D01*
X1267499Y702350D02*
X1269166Y700684D01*
X1272498D01*
X1274164Y702350D01*
Y709015D01*
X1272498Y710681D01*
X1269166D01*
X1267499Y709015D01*
Y707349D01*
X1269166Y705683D01*
X1274164D01*
X1271016Y897026D02*
Y907023D01*
X1276014D01*
X1277681Y905357D01*
Y902025D01*
X1276014Y900359D01*
X1271016D01*
X1274348D02*
X1277681Y897026D01*
X1287677D02*
X1281013D01*
X1287677Y903691D01*
Y905357D01*
X1286011Y907023D01*
X1282679D01*
X1281013Y905357D01*
X1291010D02*
X1292676Y907023D01*
X1296008D01*
X1297674Y905357D01*
Y898692D01*
X1296008Y897026D01*
X1292676D01*
X1291010Y898692D01*
Y905357D01*
X1164082Y977889D02*
Y969558D01*
X1165748Y967892D01*
X1169080D01*
X1170747Y969558D01*
Y977889D01*
X1174079Y967892D02*
X1177411D01*
X1175745D01*
Y977889D01*
X1174079Y976223D01*
X1308100Y743469D02*
Y735138D01*
X1309766Y733472D01*
X1313098D01*
X1314765Y735138D01*
Y743469D01*
X1324761Y733472D02*
X1318097D01*
X1324761Y740137D01*
Y741803D01*
X1323095Y743469D01*
X1319763D01*
X1318097Y741803D01*
X645414Y1029197D02*
Y1019200D01*
X650412D01*
X652078Y1020866D01*
Y1027531D01*
X650412Y1029197D01*
X645414D01*
X655411Y1019200D02*
X658743D01*
X657077D01*
Y1029197D01*
X655411Y1027531D01*
X582168Y928776D02*
Y938773D01*
X587166D01*
X588833Y937107D01*
Y933775D01*
X587166Y932109D01*
X582168D01*
X585500D02*
X588833Y928776D01*
X592165Y938773D02*
Y928776D01*
X598829D01*
X602162D02*
X605494D01*
X603828D01*
Y938773D01*
X602162Y937107D01*
X1346198Y1010734D02*
Y1020731D01*
X1351196D01*
X1352863Y1019065D01*
Y1015733D01*
X1351196Y1014066D01*
X1346198D01*
X1356195Y1019065D02*
X1357861Y1020731D01*
X1361193D01*
X1362859Y1019065D01*
Y1017399D01*
X1361193Y1015733D01*
X1362859Y1014066D01*
Y1012400D01*
X1361193Y1010734D01*
X1357861D01*
X1356195Y1012400D01*
Y1014066D01*
X1357861Y1015733D01*
X1356195Y1017399D01*
Y1019065D01*
X1357861Y1015733D02*
X1361193D01*
X807212Y861974D02*
Y871971D01*
X812210D01*
X813876Y870305D01*
Y866973D01*
X812210Y865306D01*
X807212D01*
X810544D02*
X813876Y861974D01*
X817209D02*
X822207D01*
X823873Y863640D01*
X822207Y865306D01*
X818875D01*
X817209Y866973D01*
X818875Y868639D01*
X823873D01*
X827206Y871971D02*
Y861974D01*
Y866973D01*
X828872Y868639D01*
X832204D01*
X833870Y866973D01*
Y861974D01*
X837202Y868639D02*
Y863640D01*
X838868Y861974D01*
X843867D01*
Y868639D01*
X847199Y861974D02*
Y868639D01*
X852197D01*
X853864Y866973D01*
Y861974D01*
X858862Y870305D02*
Y868639D01*
X857196D01*
X860528D01*
X858862D01*
Y863640D01*
X860528Y861974D01*
X865527D02*
X868859D01*
X867193D01*
Y871971D01*
X865527Y870305D01*
X704850Y1019799D02*
Y1011468D01*
X706516Y1009802D01*
X709848D01*
X711515Y1011468D01*
Y1019799D01*
X714847Y1018133D02*
X716513Y1019799D01*
X719845D01*
X721511Y1018133D01*
Y1016467D01*
X719845Y1014801D01*
X718179D01*
X719845D01*
X721511Y1013135D01*
Y1011468D01*
X719845Y1009802D01*
X716513D01*
X714847Y1011468D01*
X743264Y1018895D02*
X741598Y1020561D01*
X738266D01*
X736600Y1018895D01*
Y1012230D01*
X738266Y1010564D01*
X741598D01*
X743264Y1012230D01*
X746597Y1020561D02*
X753261D01*
Y1018895D01*
X746597Y1012230D01*
Y1010564D01*
X803463Y1019657D02*
X801796Y1021323D01*
X798464D01*
X796798Y1019657D01*
Y1012992D01*
X798464Y1011326D01*
X801796D01*
X803463Y1012992D01*
X806795Y1019657D02*
X808461Y1021323D01*
X811793D01*
X813459Y1019657D01*
Y1017991D01*
X811793Y1016325D01*
X813459Y1014659D01*
Y1012992D01*
X811793Y1011326D01*
X808461D01*
X806795Y1012992D01*
Y1014659D01*
X808461Y1016325D01*
X806795Y1017991D01*
Y1019657D01*
X808461Y1016325D02*
X811793D01*
X930462Y797661D02*
X928796Y799327D01*
X925464D01*
X923798Y797661D01*
Y795995D01*
X925464Y794329D01*
X928796D01*
X930462Y792663D01*
Y790996D01*
X928796Y789330D01*
X925464D01*
X923798Y790996D01*
X938793Y799327D02*
X935461D01*
X933795Y797661D01*
Y790996D01*
X935461Y789330D01*
X938793D01*
X940459Y790996D01*
Y797661D01*
X938793Y799327D01*
X950456Y797661D02*
X948790Y799327D01*
X945458D01*
X943792Y797661D01*
Y790996D01*
X945458Y789330D01*
X948790D01*
X950456Y790996D01*
X953788Y799327D02*
Y789330D01*
Y792663D01*
X960453Y799327D01*
X955454Y794329D01*
X960453Y789330D01*
X970450Y799327D02*
X963785D01*
Y789330D01*
X970450D01*
X963785Y794329D02*
X967117D01*
X973782Y799327D02*
X980446D01*
X977114D01*
Y789330D01*
X983779D02*
X987111D01*
X985445D01*
Y799327D01*
X983779Y797661D01*
X767842Y945794D02*
Y952459D01*
X771174Y955791D01*
X774507Y952459D01*
Y945794D01*
Y950793D01*
X767842D01*
X777839Y945794D02*
X781171D01*
X779505D01*
Y955791D01*
X777839Y954125D01*
X707136Y945286D02*
Y951951D01*
X710468Y955283D01*
X713801Y951951D01*
Y945286D01*
Y950285D01*
X707136D01*
X722131Y945286D02*
Y955283D01*
X717133Y950285D01*
X723797D01*
D80*
X616703Y1128753D02*
G03*
X616703Y1128753I1250J0D01*
G01*
D81*
X1114363Y1099673D02*
Y1089673D01*
X1090863Y1099673D02*
X1090863Y1089673D01*
X1100113Y1099673D02*
X1090863D01*
X1114363D02*
X1105113D01*
X1100113Y1089673D02*
X1090863D01*
X1114363D02*
X1105113D01*
X1089833Y1128013D02*
X1079833D01*
X1089833Y1104513D02*
X1079833Y1104513D01*
Y1113763D02*
Y1104513D01*
Y1128013D02*
Y1118763D01*
X1089833Y1113763D02*
Y1104513D01*
Y1128013D02*
Y1118763D01*
X1090087Y1130567D02*
X1080087D01*
X1090087Y1154067D02*
X1080087Y1154067D01*
X1090087Y1154067D02*
Y1144817D01*
Y1139817D02*
Y1130567D01*
X1080087Y1154067D02*
Y1144817D01*
Y1139817D02*
Y1130567D01*
X1149269Y1128667D02*
X1139269D01*
X1149269Y1105167D02*
X1139269Y1105167D01*
Y1114417D02*
Y1105167D01*
Y1128667D02*
Y1119417D01*
X1149269Y1114417D02*
Y1105167D01*
Y1128667D02*
Y1119417D01*
D82*
X684053Y1213393D02*
X669053D01*
X789053D02*
X774053D01*
X669053Y1263393D02*
Y1213393D01*
X789053Y1263393D02*
X669053D01*
X789053D02*
Y1213393D01*
D83*
X605281Y1240723D02*
X601049D01*
X603165D01*
Y1228027D01*
X605281Y1230143D01*
D84*
X1153922Y965399D02*
G03*
X1153915Y965422I-1030J-318D01*
G01*
D85*
X1368896Y650931D02*
X1362971D01*
X1365934Y647968D02*
Y653893D01*
D86*
X1176019Y691286D02*
D03*
X1130807Y781202D02*
D03*
X1243329Y648615D02*
D03*
X683771Y993547D02*
D03*
D87*
X1268222Y796187D02*
D03*
M02*
