G04 Layer_Physical_Order=1*
G04 Layer_Color=255*
%FSLAX44Y44*%
%MOMM*%
G71*
G01*
G75*
%ADD10C,0.5000*%
%ADD11C,1.0000*%
%ADD12R,0.7500X0.8000*%
%ADD13R,0.8000X0.7500*%
%ADD14R,1.0000X0.9500*%
%ADD15R,1.6002X1.2700*%
%ADD16R,1.8500X1.3000*%
%ADD17R,3.3000X2.4000*%
%ADD18R,1.0000X2.4000*%
%ADD19R,1.2700X1.6002*%
%ADD20R,1.4500X0.8000*%
%ADD21R,0.9000X1.5000*%
%ADD22C,0.2000*%
%ADD23R,0.6000X1.2000*%
%ADD24R,0.6000X2.0000*%
%ADD25R,7.3500X2.4000*%
%ADD26R,3.5000X3.5000*%
%ADD27R,2.1590X2.7430*%
%ADD28R,2.7430X2.1590*%
%ADD29O,4.0640X1.5000*%
%ADD30R,4.0640X1.5000*%
%ADD31R,0.5080X1.5240*%
%ADD32R,1.3000X1.8500*%
%ADD33C,0.3000*%
%ADD34C,0.2540*%
%ADD35C,0.7000*%
%ADD36C,1.5000*%
%ADD37C,3.0000*%
%ADD38O,1.5240X2.2860*%
%ADD39R,1.5240X2.2860*%
%ADD40C,1.7780*%
%ADD41O,1.5240X2.5400*%
%ADD42R,1.5240X2.5400*%
%ADD43C,1.5240*%
%ADD44C,1.5000*%
%ADD45R,1.5000X1.5000*%
%ADD46C,0.6000*%
%ADD47C,1.3000*%
%ADD48C,1.0000*%
%ADD49R,1.0000X2.0000*%
%ADD50O,1.0000X2.0000*%
%ADD51C,0.6600*%
%ADD52O,4.5000X1.5000*%
%ADD53O,1.5000X4.5000*%
%ADD54O,2.0000X3.0000*%
%ADD55O,3.0000X2.0000*%
%ADD56O,6.0000X3.2000*%
%ADD57O,5.5000X1.5000*%
%ADD58C,2.0000*%
%ADD59R,1.2500X1.2500*%
%ADD60C,1.2500*%
%ADD61C,1.7000*%
%ADD62O,1.5000X6.5000*%
%ADD63O,5.0000X1.5000*%
%ADD64O,2.5000X1.5000*%
%ADD65C,2.0000*%
G36*
X1761731Y1264451D02*
Y671589D01*
X1408869D01*
Y1264451D01*
X1761731D01*
D02*
G37*
%LPC*%
G36*
X1618527Y864240D02*
X1618936Y861136D01*
X1620134Y858244D01*
X1622040Y855760D01*
X1624524Y853854D01*
X1627416Y852656D01*
X1630520Y852247D01*
X1633624Y852656D01*
X1636516Y853854D01*
X1639000Y855760D01*
X1640906Y858244D01*
X1642104Y861136D01*
X1642513Y864240D01*
X1642104Y867344D01*
X1640906Y870236D01*
X1639000Y872720D01*
X1636516Y874626D01*
X1633624Y875824D01*
X1630520Y876233D01*
X1627416Y875824D01*
X1624524Y874626D01*
X1622040Y872720D01*
X1620134Y870236D01*
X1618936Y867344D01*
X1618527Y864240D01*
D02*
G37*
G36*
X1621067Y788040D02*
X1621476Y784936D01*
X1622674Y782044D01*
X1624580Y779560D01*
X1627064Y777654D01*
X1629956Y776456D01*
X1633060Y776047D01*
X1636164Y776456D01*
X1639056Y777654D01*
X1641540Y779560D01*
X1643446Y782044D01*
X1644644Y784936D01*
X1645053Y788040D01*
X1644644Y791144D01*
X1643446Y794036D01*
X1641540Y796520D01*
X1639056Y798426D01*
X1636164Y799624D01*
X1633060Y800033D01*
X1629956Y799624D01*
X1627064Y798426D01*
X1624580Y796520D01*
X1622674Y794036D01*
X1621476Y791144D01*
X1621067Y788040D01*
D02*
G37*
G36*
X1636570Y698060D02*
Y689290D01*
X1645340D01*
Y698060D01*
X1636570D01*
D02*
G37*
G36*
X1618527Y892180D02*
X1618936Y889076D01*
X1620134Y886184D01*
X1622040Y883700D01*
X1624524Y881794D01*
X1627416Y880596D01*
X1630520Y880187D01*
X1633624Y880596D01*
X1636516Y881794D01*
X1639000Y883700D01*
X1640906Y886184D01*
X1642104Y889076D01*
X1642513Y892180D01*
X1642104Y895284D01*
X1640906Y898176D01*
X1639000Y900660D01*
X1636516Y902566D01*
X1633624Y903764D01*
X1630520Y904173D01*
X1627416Y903764D01*
X1624524Y902566D01*
X1622040Y900660D01*
X1620134Y898176D01*
X1618936Y895284D01*
X1618527Y892180D01*
D02*
G37*
G36*
X1625260Y686750D02*
Y677980D01*
X1634030D01*
Y686750D01*
X1625260D01*
D02*
G37*
G36*
X1627312Y975270D02*
Y972730D01*
X1636290D01*
Y985350D01*
X1634908Y985169D01*
X1632436Y984145D01*
X1630314Y982516D01*
X1628685Y980394D01*
X1627661Y977922D01*
X1627312Y975270D01*
D02*
G37*
G36*
Y970190D02*
Y967650D01*
X1627661Y964998D01*
X1628685Y962526D01*
X1630314Y960404D01*
X1632436Y958775D01*
X1634908Y957751D01*
X1636290Y957570D01*
Y970190D01*
X1627312D01*
D02*
G37*
G36*
X1626848Y1051470D02*
Y1043850D01*
X1627213Y1041078D01*
X1628283Y1038494D01*
X1629986Y1036276D01*
X1632204Y1034573D01*
X1634788Y1033503D01*
X1637560Y1033138D01*
X1640332Y1033503D01*
X1642916Y1034573D01*
X1645134Y1036276D01*
X1646837Y1038494D01*
X1647907Y1041078D01*
X1648272Y1043850D01*
Y1051470D01*
X1647907Y1054242D01*
X1646837Y1056826D01*
X1645134Y1059044D01*
X1642916Y1060747D01*
X1640332Y1061817D01*
X1637560Y1062182D01*
X1634788Y1061817D01*
X1632204Y1060747D01*
X1629986Y1059044D01*
X1628283Y1056826D01*
X1627213Y1054242D01*
X1626848Y1051470D01*
D02*
G37*
G36*
X1652712D02*
Y1048930D01*
X1661690D01*
Y1061551D01*
X1660308Y1061368D01*
X1657836Y1060345D01*
X1655714Y1058716D01*
X1654085Y1056594D01*
X1653062Y1054122D01*
X1652712Y1051470D01*
D02*
G37*
G36*
Y1046390D02*
Y1043850D01*
X1653062Y1041198D01*
X1654085Y1038726D01*
X1655714Y1036604D01*
X1657836Y1034975D01*
X1660308Y1033951D01*
X1661690Y1033770D01*
Y1046390D01*
X1652712D01*
D02*
G37*
G36*
X1638830Y970190D02*
Y957570D01*
X1640212Y957751D01*
X1642684Y958775D01*
X1644806Y960404D01*
X1646435Y962526D01*
X1647458Y964998D01*
X1647808Y967650D01*
Y970190D01*
X1638830D01*
D02*
G37*
G36*
X1636570Y686750D02*
Y677980D01*
X1645340D01*
Y686750D01*
X1636570D01*
D02*
G37*
G36*
X1624800Y1258520D02*
Y1237520D01*
X1645800D01*
Y1258520D01*
X1624800D01*
D02*
G37*
G36*
X1638830Y985350D02*
Y972730D01*
X1647808D01*
Y975270D01*
X1647458Y977922D01*
X1646435Y980394D01*
X1644806Y982516D01*
X1642684Y984145D01*
X1640212Y985169D01*
X1638830Y985350D01*
D02*
G37*
G36*
X1625260Y698060D02*
Y689290D01*
X1634030D01*
Y698060D01*
X1625260D01*
D02*
G37*
G36*
X1599941Y686750D02*
X1600118Y685399D01*
X1601130Y682957D01*
X1602739Y680859D01*
X1604837Y679250D01*
X1607279Y678238D01*
X1608630Y678061D01*
Y686750D01*
X1599941D01*
D02*
G37*
G36*
X1598999Y986790D02*
X1609090D01*
Y996881D01*
X1607376Y996656D01*
X1604596Y995504D01*
X1602208Y993672D01*
X1600376Y991284D01*
X1599224Y988504D01*
X1598999Y986790D01*
D02*
G37*
G36*
Y984250D02*
X1599224Y982536D01*
X1600376Y979756D01*
X1602208Y977368D01*
X1604596Y975536D01*
X1607376Y974384D01*
X1609090Y974159D01*
Y984250D01*
X1598999D01*
D02*
G37*
G36*
X1599941Y689290D02*
X1608630D01*
Y697979D01*
X1607279Y697802D01*
X1604837Y696790D01*
X1602739Y695181D01*
X1601130Y693083D01*
X1600118Y690641D01*
X1599941Y689290D01*
D02*
G37*
G36*
X1574088Y1113566D02*
X1574453Y1110794D01*
X1575523Y1108211D01*
X1577226Y1105992D01*
X1579444Y1104290D01*
X1582028Y1103220D01*
X1584800Y1102855D01*
X1587572Y1103220D01*
X1590156Y1104290D01*
X1592374Y1105992D01*
X1594077Y1108211D01*
X1595147Y1110794D01*
X1595512Y1113566D01*
X1595147Y1116339D01*
X1594077Y1118922D01*
X1592374Y1121141D01*
X1590156Y1122843D01*
X1587572Y1123913D01*
X1584800Y1124278D01*
X1582028Y1123913D01*
X1579444Y1122843D01*
X1577226Y1121141D01*
X1575523Y1118922D01*
X1574453Y1116339D01*
X1574088Y1113566D01*
D02*
G37*
G36*
X1599941Y1249290D02*
X1608630D01*
Y1257979D01*
X1607279Y1257802D01*
X1604837Y1256790D01*
X1602739Y1255181D01*
X1601130Y1253083D01*
X1600118Y1250641D01*
X1599941Y1249290D01*
D02*
G37*
G36*
Y1246750D02*
X1600118Y1245399D01*
X1601130Y1242957D01*
X1602739Y1240859D01*
X1604837Y1239250D01*
X1607279Y1238238D01*
X1608630Y1238061D01*
Y1246750D01*
X1599941D01*
D02*
G37*
G36*
X1611170Y686750D02*
Y678061D01*
X1612521Y678238D01*
X1614963Y679250D01*
X1617061Y680859D01*
X1618670Y682957D01*
X1619682Y685399D01*
X1619859Y686750D01*
X1611170D01*
D02*
G37*
G36*
X1611630Y996881D02*
Y986790D01*
X1621721D01*
X1621496Y988504D01*
X1620344Y991284D01*
X1618512Y993672D01*
X1616124Y995504D01*
X1613344Y996656D01*
X1611630Y996881D01*
D02*
G37*
G36*
Y984250D02*
Y974159D01*
X1613344Y974384D01*
X1616124Y975536D01*
X1618512Y977368D01*
X1620344Y979756D01*
X1621496Y982536D01*
X1621721Y984250D01*
X1611630D01*
D02*
G37*
G36*
X1611170Y697979D02*
Y689290D01*
X1619859D01*
X1619682Y690641D01*
X1618670Y693083D01*
X1617061Y695181D01*
X1614963Y696790D01*
X1612521Y697802D01*
X1611170Y697979D01*
D02*
G37*
G36*
X1595827Y749300D02*
X1596236Y746196D01*
X1597434Y743304D01*
X1599340Y740820D01*
X1601824Y738914D01*
X1604716Y737716D01*
X1607820Y737307D01*
X1610924Y737716D01*
X1613816Y738914D01*
X1616300Y740820D01*
X1618206Y743304D01*
X1619404Y746196D01*
X1619813Y749300D01*
X1619404Y752404D01*
X1618206Y755296D01*
X1616300Y757780D01*
X1613816Y759686D01*
X1610924Y760884D01*
X1607820Y761293D01*
X1604716Y760884D01*
X1601824Y759686D01*
X1599340Y757780D01*
X1597434Y755296D01*
X1596236Y752404D01*
X1595827Y749300D01*
D02*
G37*
G36*
X1611170Y1257979D02*
Y1249290D01*
X1619859D01*
X1619682Y1250641D01*
X1618670Y1253083D01*
X1617061Y1255181D01*
X1614963Y1256790D01*
X1612521Y1257802D01*
X1611170Y1257979D01*
D02*
G37*
G36*
Y1246750D02*
Y1238061D01*
X1612521Y1238238D01*
X1614963Y1239250D01*
X1617061Y1240859D01*
X1618670Y1242957D01*
X1619682Y1245399D01*
X1619859Y1246750D01*
X1611170D01*
D02*
G37*
G36*
X1707587Y1107440D02*
X1707996Y1104336D01*
X1709194Y1101444D01*
X1711100Y1098960D01*
X1713584Y1097054D01*
X1716476Y1095856D01*
X1719580Y1095447D01*
X1722684Y1095856D01*
X1725576Y1097054D01*
X1728060Y1098960D01*
X1729966Y1101444D01*
X1731164Y1104336D01*
X1731573Y1107440D01*
X1731164Y1110544D01*
X1729966Y1113436D01*
X1728060Y1115920D01*
X1725576Y1117826D01*
X1722684Y1119024D01*
X1719580Y1119433D01*
X1716476Y1119024D01*
X1713584Y1117826D01*
X1711100Y1115920D01*
X1709194Y1113436D01*
X1707996Y1110544D01*
X1707587Y1107440D01*
D02*
G37*
G36*
Y1079500D02*
X1707996Y1076396D01*
X1709194Y1073504D01*
X1711100Y1071020D01*
X1713584Y1069114D01*
X1716476Y1067916D01*
X1719580Y1067507D01*
X1722684Y1067916D01*
X1725576Y1069114D01*
X1728060Y1071020D01*
X1729966Y1073504D01*
X1731164Y1076396D01*
X1731573Y1079500D01*
X1731164Y1082604D01*
X1729966Y1085496D01*
X1728060Y1087980D01*
X1725576Y1089886D01*
X1722684Y1091084D01*
X1719580Y1091493D01*
X1716476Y1091084D01*
X1713584Y1089886D01*
X1711100Y1087980D01*
X1709194Y1085496D01*
X1707996Y1082604D01*
X1707587Y1079500D01*
D02*
G37*
G36*
X1709967Y788040D02*
X1710376Y784936D01*
X1711574Y782044D01*
X1713480Y779560D01*
X1715964Y777654D01*
X1718856Y776456D01*
X1721960Y776047D01*
X1725064Y776456D01*
X1727956Y777654D01*
X1730440Y779560D01*
X1732346Y782044D01*
X1733544Y784936D01*
X1733953Y788040D01*
X1733544Y791144D01*
X1732346Y794036D01*
X1730440Y796520D01*
X1727956Y798426D01*
X1725064Y799624D01*
X1721960Y800033D01*
X1718856Y799624D01*
X1715964Y798426D01*
X1713480Y796520D01*
X1711574Y794036D01*
X1710376Y791144D01*
X1709967Y788040D01*
D02*
G37*
G36*
X1707427Y864240D02*
X1707836Y861136D01*
X1709034Y858244D01*
X1710940Y855760D01*
X1713424Y853854D01*
X1716316Y852656D01*
X1719420Y852247D01*
X1722524Y852656D01*
X1725416Y853854D01*
X1727900Y855760D01*
X1729806Y858244D01*
X1731004Y861136D01*
X1731413Y864240D01*
X1731004Y867344D01*
X1729806Y870236D01*
X1727900Y872720D01*
X1725416Y874626D01*
X1722524Y875824D01*
X1719420Y876233D01*
X1716316Y875824D01*
X1713424Y874626D01*
X1710940Y872720D01*
X1709034Y870236D01*
X1707836Y867344D01*
X1707427Y864240D01*
D02*
G37*
G36*
X1705204Y824230D02*
Y815419D01*
X1706586Y815602D01*
X1709057Y816625D01*
X1711180Y818254D01*
X1712808Y820376D01*
X1713832Y822848D01*
X1714014Y824230D01*
X1705204D01*
D02*
G37*
G36*
X1703140Y1062090D02*
Y1033230D01*
X1724380D01*
Y1062090D01*
X1703140D01*
D02*
G37*
G36*
X1707427Y892180D02*
X1707836Y889076D01*
X1709034Y886184D01*
X1710940Y883700D01*
X1713424Y881794D01*
X1716316Y880596D01*
X1719420Y880187D01*
X1722524Y880596D01*
X1725416Y881794D01*
X1727900Y883700D01*
X1729806Y886184D01*
X1731004Y889076D01*
X1731413Y892180D01*
X1731004Y895284D01*
X1729806Y898176D01*
X1727900Y900660D01*
X1725416Y902566D01*
X1722524Y903764D01*
X1719420Y904173D01*
X1716316Y903764D01*
X1713424Y902566D01*
X1710940Y900660D01*
X1709034Y898176D01*
X1707836Y895284D01*
X1707427Y892180D01*
D02*
G37*
G36*
X1746250Y1047681D02*
Y1037590D01*
X1756341D01*
X1756116Y1039304D01*
X1754964Y1042084D01*
X1753132Y1044472D01*
X1750744Y1046304D01*
X1747964Y1047456D01*
X1746250Y1047681D01*
D02*
G37*
G36*
Y1035050D02*
Y1024959D01*
X1747964Y1025184D01*
X1750744Y1026336D01*
X1753132Y1028168D01*
X1754964Y1030556D01*
X1756116Y1033336D01*
X1756341Y1035050D01*
X1746250D01*
D02*
G37*
G36*
X1703048Y975270D02*
Y967650D01*
X1703413Y964878D01*
X1704483Y962294D01*
X1706186Y960076D01*
X1708404Y958373D01*
X1710988Y957303D01*
X1713760Y956938D01*
X1716532Y957303D01*
X1719116Y958373D01*
X1721334Y960076D01*
X1723037Y962294D01*
X1723143Y962550D01*
X1723862Y962768D01*
X1725144Y963023D01*
X1728775Y963359D01*
X1730423Y963391D01*
X1730920D01*
X1733008Y963666D01*
X1734955Y964472D01*
X1736626Y965754D01*
X1741970Y971099D01*
X1742955Y972034D01*
X1744017Y972916D01*
X1744409Y973197D01*
X1744747Y973411D01*
X1744970Y973529D01*
X1744980Y973527D01*
X1748084Y973936D01*
X1750976Y975134D01*
X1753460Y977040D01*
X1755366Y979524D01*
X1756564Y982416D01*
X1756973Y985520D01*
X1756564Y988624D01*
X1755366Y991516D01*
X1753460Y994000D01*
X1750976Y995906D01*
X1748084Y997104D01*
X1744980Y997513D01*
X1741876Y997104D01*
X1738984Y995906D01*
X1736500Y994000D01*
X1734594Y991516D01*
X1733396Y988624D01*
X1732987Y985520D01*
X1732989Y985510D01*
X1732870Y985287D01*
X1732657Y984949D01*
X1732392Y984580D01*
X1730910Y982862D01*
X1730877Y982828D01*
X1727679Y979631D01*
X1726819Y979687D01*
X1725190Y979888D01*
X1723862Y980152D01*
X1723143Y980370D01*
X1723037Y980626D01*
X1721334Y982844D01*
X1719116Y984547D01*
X1716532Y985617D01*
X1713760Y985982D01*
X1710988Y985617D01*
X1708404Y984547D01*
X1706186Y982844D01*
X1704483Y980626D01*
X1703413Y978042D01*
X1703048Y975270D01*
D02*
G37*
G36*
X1717213Y698020D02*
X1717560Y694491D01*
X1718590Y691098D01*
X1720261Y687971D01*
X1722511Y685230D01*
X1725251Y682981D01*
X1728378Y681310D01*
X1731771Y680281D01*
X1735300Y679933D01*
X1738829Y680281D01*
X1742222Y681310D01*
X1745349Y682981D01*
X1748089Y685230D01*
X1750339Y687971D01*
X1752010Y691098D01*
X1753040Y694491D01*
X1753387Y698020D01*
X1753040Y701549D01*
X1752010Y704942D01*
X1750339Y708069D01*
X1748089Y710809D01*
X1745349Y713059D01*
X1742222Y714730D01*
X1738829Y715760D01*
X1735300Y716107D01*
X1731771Y715760D01*
X1728378Y714730D01*
X1725251Y713059D01*
X1722511Y710809D01*
X1720261Y708069D01*
X1718590Y704942D01*
X1717560Y701549D01*
X1717213Y698020D01*
D02*
G37*
G36*
X1733619Y1037590D02*
X1743710D01*
Y1047681D01*
X1741996Y1047456D01*
X1739216Y1046304D01*
X1736828Y1044472D01*
X1734996Y1042084D01*
X1733844Y1039304D01*
X1733619Y1037590D01*
D02*
G37*
G36*
Y1035050D02*
X1733844Y1033336D01*
X1734996Y1030556D01*
X1736828Y1028168D01*
X1739216Y1026336D01*
X1741996Y1025184D01*
X1743710Y1024959D01*
Y1035050D01*
X1733619D01*
D02*
G37*
G36*
X1717213Y1238020D02*
X1717560Y1234491D01*
X1718590Y1231098D01*
X1720261Y1227971D01*
X1722511Y1225230D01*
X1725251Y1222981D01*
X1728378Y1221310D01*
X1731771Y1220281D01*
X1735300Y1219933D01*
X1738829Y1220281D01*
X1742222Y1221310D01*
X1745349Y1222981D01*
X1748089Y1225230D01*
X1750339Y1227971D01*
X1752010Y1231098D01*
X1753040Y1234491D01*
X1753387Y1238020D01*
X1753040Y1241549D01*
X1752010Y1244942D01*
X1750339Y1248069D01*
X1748089Y1250809D01*
X1745349Y1253059D01*
X1742222Y1254730D01*
X1738829Y1255760D01*
X1735300Y1256107D01*
X1731771Y1255760D01*
X1728378Y1254730D01*
X1725251Y1253059D01*
X1722511Y1250809D01*
X1720261Y1248069D01*
X1718590Y1244942D01*
X1717560Y1241549D01*
X1717213Y1238020D01*
D02*
G37*
G36*
X1705204Y835581D02*
Y826770D01*
X1714014D01*
X1713832Y828152D01*
X1712808Y830624D01*
X1711180Y832746D01*
X1709057Y834375D01*
X1706586Y835398D01*
X1705204Y835581D01*
D02*
G37*
G36*
X1664230Y1061551D02*
Y1048930D01*
X1673208D01*
Y1051470D01*
X1672858Y1054122D01*
X1671835Y1056594D01*
X1670206Y1058716D01*
X1668084Y1060345D01*
X1665612Y1061368D01*
X1664230Y1061551D01*
D02*
G37*
G36*
Y1046390D02*
Y1033770D01*
X1665612Y1033951D01*
X1668084Y1034975D01*
X1670206Y1036604D01*
X1671835Y1038726D01*
X1672858Y1041198D01*
X1673208Y1043850D01*
Y1046390D01*
X1664230D01*
D02*
G37*
G36*
X1652248Y975270D02*
Y967650D01*
X1652613Y964878D01*
X1653683Y962294D01*
X1655386Y960076D01*
X1657604Y958373D01*
X1660188Y957303D01*
X1662960Y956938D01*
X1665732Y957303D01*
X1668316Y958373D01*
X1670534Y960076D01*
X1672237Y962294D01*
X1673307Y964878D01*
X1673672Y967650D01*
Y975270D01*
X1673307Y978042D01*
X1672237Y980626D01*
X1670534Y982844D01*
X1668316Y984547D01*
X1665732Y985617D01*
X1662960Y985982D01*
X1660188Y985617D01*
X1657604Y984547D01*
X1655386Y982844D01*
X1653683Y980626D01*
X1652613Y978042D01*
X1652248Y975270D01*
D02*
G37*
G36*
X1643235Y825500D02*
X1643600Y822728D01*
X1644670Y820144D01*
X1646372Y817926D01*
X1648591Y816223D01*
X1651174Y815153D01*
X1653946Y814788D01*
X1656719Y815153D01*
X1659302Y816223D01*
X1661521Y817926D01*
X1663223Y820144D01*
X1664293Y822728D01*
X1664658Y825500D01*
X1664293Y828272D01*
X1663223Y830856D01*
X1661521Y833074D01*
X1659302Y834777D01*
X1656719Y835847D01*
X1653946Y836212D01*
X1651174Y835847D01*
X1648591Y834777D01*
X1646372Y833074D01*
X1644670Y830856D01*
X1643600Y828272D01*
X1643235Y825500D01*
D02*
G37*
G36*
X1640535Y930280D02*
X1640900Y927508D01*
X1641970Y924924D01*
X1643672Y922706D01*
X1645891Y921003D01*
X1648474Y919933D01*
X1651246Y919568D01*
X1654019Y919933D01*
X1656602Y921003D01*
X1658821Y922706D01*
X1660523Y924924D01*
X1661593Y927508D01*
X1661958Y930280D01*
X1661593Y933052D01*
X1660523Y935636D01*
X1658821Y937854D01*
X1656602Y939557D01*
X1654019Y940627D01*
X1651246Y940992D01*
X1648474Y940627D01*
X1645891Y939557D01*
X1643672Y937854D01*
X1641970Y935636D01*
X1640900Y933052D01*
X1640535Y930280D01*
D02*
G37*
G36*
Y749940D02*
X1640900Y747168D01*
X1641970Y744584D01*
X1643672Y742366D01*
X1645891Y740663D01*
X1648474Y739593D01*
X1651246Y739228D01*
X1654019Y739593D01*
X1656602Y740663D01*
X1658821Y742366D01*
X1660523Y744584D01*
X1661593Y747168D01*
X1661958Y749940D01*
X1661593Y752712D01*
X1660523Y755296D01*
X1658821Y757514D01*
X1656602Y759217D01*
X1654019Y760287D01*
X1651246Y760652D01*
X1648474Y760287D01*
X1645891Y759217D01*
X1643672Y757514D01*
X1641970Y755296D01*
X1640900Y752712D01*
X1640535Y749940D01*
D02*
G37*
G36*
X1641142Y1179147D02*
Y1147747D01*
X1662382D01*
Y1179147D01*
X1641142D01*
D02*
G37*
G36*
X1693853Y824230D02*
X1694035Y822848D01*
X1695059Y820376D01*
X1696687Y818254D01*
X1698810Y816625D01*
X1701281Y815602D01*
X1702664Y815419D01*
Y824230D01*
X1693853D01*
D02*
G37*
G36*
X1598746Y912368D02*
X1599073Y909888D01*
X1600030Y907577D01*
X1601552Y905592D01*
X1603537Y904070D01*
X1605848Y903112D01*
X1608328Y902786D01*
X1610808Y903112D01*
X1613119Y904070D01*
X1615103Y905592D01*
X1615194Y905711D01*
X1615386Y905891D01*
X1615622Y906079D01*
X1615867Y906241D01*
X1616125Y906382D01*
X1616402Y906504D01*
X1616703Y906607D01*
X1617032Y906690D01*
X1617394Y906754D01*
X1617460Y906760D01*
X1683322D01*
X1685468Y907187D01*
X1687287Y908403D01*
X1697357Y918473D01*
X1697520Y918600D01*
X1697876Y918832D01*
X1698250Y919032D01*
X1698645Y919202D01*
X1699069Y919344D01*
X1699525Y919456D01*
X1700018Y919538D01*
X1700552Y919587D01*
X1701012Y919597D01*
X1701234Y919568D01*
X1704006Y919933D01*
X1706589Y921003D01*
X1708808Y922706D01*
X1710510Y924924D01*
X1711580Y927508D01*
X1711945Y930280D01*
X1711580Y933052D01*
X1710510Y935636D01*
X1708808Y937854D01*
X1706589Y939557D01*
X1704006Y940627D01*
X1701234Y940992D01*
X1698461Y940627D01*
X1695878Y939557D01*
X1693659Y937854D01*
X1691957Y935636D01*
X1690887Y933052D01*
X1690522Y930280D01*
X1690551Y930058D01*
X1690541Y929599D01*
X1690492Y929065D01*
X1690410Y928572D01*
X1690298Y928115D01*
X1690156Y927692D01*
X1689986Y927296D01*
X1689785Y926922D01*
X1689553Y926566D01*
X1689427Y926404D01*
X1680999Y917976D01*
X1617460D01*
X1617394Y917982D01*
X1617032Y918046D01*
X1616702Y918130D01*
X1616402Y918232D01*
X1616125Y918354D01*
X1615867Y918495D01*
X1615623Y918657D01*
X1615386Y918845D01*
X1615194Y919025D01*
X1615103Y919143D01*
X1613119Y920666D01*
X1610808Y921624D01*
X1608328Y921950D01*
X1605848Y921624D01*
X1603537Y920666D01*
X1601552Y919143D01*
X1600030Y917159D01*
X1599073Y914848D01*
X1598746Y912368D01*
D02*
G37*
G36*
X1690522Y749940D02*
X1690887Y747168D01*
X1691957Y744584D01*
X1693659Y742366D01*
X1695878Y740663D01*
X1698461Y739593D01*
X1701234Y739228D01*
X1704006Y739593D01*
X1706589Y740663D01*
X1708808Y742366D01*
X1710510Y744584D01*
X1711580Y747168D01*
X1711945Y749940D01*
X1711580Y752712D01*
X1710510Y755296D01*
X1708808Y757514D01*
X1706589Y759217D01*
X1704006Y760287D01*
X1701234Y760652D01*
X1698461Y760287D01*
X1695878Y759217D01*
X1693659Y757514D01*
X1691957Y755296D01*
X1690887Y752712D01*
X1690522Y749940D01*
D02*
G37*
G36*
X1693853Y826770D02*
X1702664D01*
Y835581D01*
X1701281Y835398D01*
X1698810Y834375D01*
X1696687Y832746D01*
X1695059Y830624D01*
X1694035Y828152D01*
X1693853Y826770D01*
D02*
G37*
G36*
X1675086Y1168273D02*
Y1158113D01*
X1675451Y1155341D01*
X1676521Y1152757D01*
X1678224Y1150539D01*
X1680442Y1148836D01*
X1683026Y1147766D01*
X1685798Y1147401D01*
X1688570Y1147766D01*
X1691154Y1148836D01*
X1693372Y1150539D01*
X1695075Y1152757D01*
X1696145Y1155341D01*
X1696510Y1158113D01*
Y1168273D01*
X1696145Y1171045D01*
X1695075Y1173629D01*
X1693372Y1175847D01*
X1691154Y1177550D01*
X1688570Y1178620D01*
X1685798Y1178985D01*
X1683026Y1178620D01*
X1680442Y1177550D01*
X1678224Y1175847D01*
X1676521Y1173629D01*
X1675451Y1171045D01*
X1675086Y1168273D01*
D02*
G37*
G36*
X1677648Y1051470D02*
Y1043850D01*
X1678013Y1041078D01*
X1679083Y1038494D01*
X1680786Y1036276D01*
X1683004Y1034573D01*
X1685588Y1033503D01*
X1688360Y1033138D01*
X1691132Y1033503D01*
X1693716Y1034573D01*
X1695934Y1036276D01*
X1697637Y1038494D01*
X1698707Y1041078D01*
X1699072Y1043850D01*
Y1051470D01*
X1698707Y1054242D01*
X1697637Y1056826D01*
X1695934Y1059044D01*
X1693716Y1060747D01*
X1691132Y1061817D01*
X1688360Y1062182D01*
X1685588Y1061817D01*
X1683004Y1060747D01*
X1680786Y1059044D01*
X1679083Y1056826D01*
X1678013Y1054242D01*
X1677648Y1051470D01*
D02*
G37*
G36*
Y975270D02*
Y967650D01*
X1678013Y964878D01*
X1679083Y962294D01*
X1680786Y960076D01*
X1683004Y958373D01*
X1685588Y957303D01*
X1688360Y956938D01*
X1691132Y957303D01*
X1693716Y958373D01*
X1695934Y960076D01*
X1697637Y962294D01*
X1698707Y964878D01*
X1699072Y967650D01*
Y975270D01*
X1698707Y978042D01*
X1697637Y980626D01*
X1695934Y982844D01*
X1693716Y984547D01*
X1691132Y985617D01*
X1688360Y985982D01*
X1685588Y985617D01*
X1683004Y984547D01*
X1680786Y982844D01*
X1679083Y980626D01*
X1678013Y978042D01*
X1677648Y975270D01*
D02*
G37*
G36*
X1460188Y1113426D02*
X1460553Y1110654D01*
X1461623Y1108071D01*
X1463326Y1105852D01*
X1465544Y1104150D01*
X1468128Y1103080D01*
X1470900Y1102715D01*
X1473672Y1103080D01*
X1476256Y1104150D01*
X1478474Y1105852D01*
X1480177Y1108071D01*
X1481247Y1110654D01*
X1481612Y1113426D01*
X1481247Y1116199D01*
X1480177Y1118782D01*
X1478474Y1121001D01*
X1476256Y1122703D01*
X1473672Y1123773D01*
X1470900Y1124138D01*
X1468128Y1123773D01*
X1465544Y1122703D01*
X1463326Y1121001D01*
X1461623Y1118782D01*
X1460553Y1116199D01*
X1460188Y1113426D01*
D02*
G37*
G36*
X1460355Y795020D02*
X1460720Y792248D01*
X1461790Y789664D01*
X1463492Y787446D01*
X1465711Y785743D01*
X1468294Y784673D01*
X1471066Y784308D01*
X1473839Y784673D01*
X1476422Y785743D01*
X1478641Y787446D01*
X1480343Y789664D01*
X1481413Y792248D01*
X1481778Y795020D01*
X1481413Y797792D01*
X1480343Y800376D01*
X1478641Y802594D01*
X1476422Y804297D01*
X1473839Y805367D01*
X1471066Y805732D01*
X1468294Y805367D01*
X1465711Y804297D01*
X1463492Y802594D01*
X1461790Y800376D01*
X1460720Y797792D01*
X1460355Y795020D01*
D02*
G37*
G36*
X1479952Y1052330D02*
Y1049790D01*
X1488930D01*
Y1062411D01*
X1487548Y1062228D01*
X1485076Y1061205D01*
X1482954Y1059576D01*
X1481325Y1057454D01*
X1480302Y1054982D01*
X1479952Y1052330D01*
D02*
G37*
G36*
X1460188Y1163414D02*
X1460553Y1160641D01*
X1461623Y1158058D01*
X1463326Y1155839D01*
X1465544Y1154137D01*
X1468128Y1153067D01*
X1470900Y1152702D01*
X1473672Y1153067D01*
X1476256Y1154137D01*
X1478474Y1155839D01*
X1480177Y1158058D01*
X1481247Y1160641D01*
X1481612Y1163414D01*
X1481247Y1166186D01*
X1480177Y1168769D01*
X1478474Y1170988D01*
X1476256Y1172690D01*
X1473672Y1173760D01*
X1470900Y1174125D01*
X1468128Y1173760D01*
X1465544Y1172690D01*
X1463326Y1170988D01*
X1461623Y1168769D01*
X1460553Y1166186D01*
X1460188Y1163414D01*
D02*
G37*
G36*
X1454088Y1052330D02*
Y1044710D01*
X1454453Y1041938D01*
X1455524Y1039354D01*
X1457226Y1037136D01*
X1459444Y1035433D01*
X1462028Y1034363D01*
X1464800Y1033998D01*
X1467572Y1034363D01*
X1470156Y1035433D01*
X1472374Y1037136D01*
X1474077Y1039354D01*
X1475147Y1041938D01*
X1475512Y1044710D01*
Y1052330D01*
X1475147Y1055102D01*
X1474077Y1057686D01*
X1472374Y1059904D01*
X1470156Y1061607D01*
X1467572Y1062677D01*
X1464800Y1063042D01*
X1462028Y1062677D01*
X1459444Y1061607D01*
X1457226Y1059904D01*
X1455524Y1057686D01*
X1454453Y1055102D01*
X1454088Y1052330D01*
D02*
G37*
G36*
X1459788Y914634D02*
X1460153Y911861D01*
X1461223Y909278D01*
X1462926Y907059D01*
X1465144Y905357D01*
X1467728Y904287D01*
X1470500Y903922D01*
X1473272Y904287D01*
X1475856Y905357D01*
X1478074Y907059D01*
X1479777Y909278D01*
X1480847Y911861D01*
X1481212Y914634D01*
X1480847Y917406D01*
X1479777Y919989D01*
X1478074Y922208D01*
X1475856Y923910D01*
X1473272Y924980D01*
X1470500Y925345D01*
X1467728Y924980D01*
X1465144Y923910D01*
X1462926Y922208D01*
X1461223Y919989D01*
X1460153Y917406D01*
X1459788Y914634D01*
D02*
G37*
G36*
Y864646D02*
X1460153Y861874D01*
X1461223Y859291D01*
X1462926Y857072D01*
X1465144Y855370D01*
X1467728Y854300D01*
X1470500Y853935D01*
X1473272Y854300D01*
X1475856Y855370D01*
X1478074Y857072D01*
X1479777Y859291D01*
X1480847Y861874D01*
X1481212Y864646D01*
X1480847Y867419D01*
X1479777Y870002D01*
X1478074Y872221D01*
X1475856Y873923D01*
X1473272Y874993D01*
X1470500Y875358D01*
X1467728Y874993D01*
X1465144Y873923D01*
X1462926Y872221D01*
X1461223Y870002D01*
X1460153Y867419D01*
X1459788Y864646D01*
D02*
G37*
G36*
X1479952Y1047250D02*
Y1044710D01*
X1480302Y1042058D01*
X1481325Y1039586D01*
X1482954Y1037464D01*
X1485076Y1035835D01*
X1487548Y1034811D01*
X1488930Y1034630D01*
Y1047250D01*
X1479952D01*
D02*
G37*
G36*
X1510973Y793750D02*
X1511155Y792368D01*
X1512179Y789896D01*
X1513807Y787774D01*
X1515930Y786145D01*
X1518401Y785122D01*
X1519784Y784939D01*
Y793750D01*
X1510973D01*
D02*
G37*
G36*
X1504888Y1052330D02*
Y1044710D01*
X1505253Y1041938D01*
X1506324Y1039354D01*
X1508026Y1037136D01*
X1510244Y1035433D01*
X1512828Y1034363D01*
X1515600Y1033998D01*
X1518372Y1034363D01*
X1520956Y1035433D01*
X1523174Y1037136D01*
X1524877Y1039354D01*
X1525947Y1041938D01*
X1526312Y1044710D01*
Y1052330D01*
X1525947Y1055102D01*
X1524877Y1057686D01*
X1523174Y1059904D01*
X1520956Y1061607D01*
X1518372Y1062677D01*
X1515600Y1063042D01*
X1512828Y1062677D01*
X1510244Y1061607D01*
X1508026Y1059904D01*
X1506324Y1057686D01*
X1505253Y1055102D01*
X1504888Y1052330D01*
D02*
G37*
G36*
Y976130D02*
Y968510D01*
X1505253Y965738D01*
X1506324Y963154D01*
X1508026Y960936D01*
X1510244Y959233D01*
X1512828Y958163D01*
X1515600Y957798D01*
X1518372Y958163D01*
X1520956Y959233D01*
X1523174Y960936D01*
X1524877Y963154D01*
X1525947Y965738D01*
X1526312Y968510D01*
Y976130D01*
X1525947Y978902D01*
X1524877Y981486D01*
X1523174Y983704D01*
X1520956Y985406D01*
X1518372Y986477D01*
X1515600Y986842D01*
X1512828Y986477D01*
X1510244Y985406D01*
X1508026Y983704D01*
X1506324Y981486D01*
X1505253Y978902D01*
X1504888Y976130D01*
D02*
G37*
G36*
X1510973Y796290D02*
X1519784D01*
Y805100D01*
X1518401Y804919D01*
X1515930Y803895D01*
X1513807Y802266D01*
X1512179Y800144D01*
X1511155Y797672D01*
X1510973Y796290D01*
D02*
G37*
G36*
X1491470Y1062411D02*
Y1049790D01*
X1500448D01*
Y1052330D01*
X1500099Y1054982D01*
X1499075Y1057454D01*
X1497446Y1059576D01*
X1495324Y1061205D01*
X1492852Y1062228D01*
X1491470Y1062411D01*
D02*
G37*
G36*
Y1047250D02*
Y1034630D01*
X1492852Y1034811D01*
X1495324Y1035835D01*
X1497446Y1037464D01*
X1499075Y1039586D01*
X1500099Y1042058D01*
X1500448Y1044710D01*
Y1047250D01*
X1491470D01*
D02*
G37*
G36*
X1479488Y976130D02*
Y968510D01*
X1479853Y965738D01*
X1480923Y963154D01*
X1482626Y960936D01*
X1484844Y959233D01*
X1487428Y958163D01*
X1490200Y957798D01*
X1492972Y958163D01*
X1495556Y959233D01*
X1497774Y960936D01*
X1499477Y963154D01*
X1500547Y965738D01*
X1500912Y968510D01*
Y976130D01*
X1500547Y978902D01*
X1499477Y981486D01*
X1497774Y983704D01*
X1495556Y985406D01*
X1492972Y986477D01*
X1490200Y986842D01*
X1487428Y986477D01*
X1484844Y985406D01*
X1482626Y983704D01*
X1480923Y981486D01*
X1479853Y978902D01*
X1479488Y976130D01*
D02*
G37*
G36*
X1420907Y1037820D02*
X1421316Y1034716D01*
X1422514Y1031824D01*
X1424420Y1029340D01*
X1426904Y1027434D01*
X1429796Y1026236D01*
X1432900Y1025827D01*
X1436004Y1026236D01*
X1438896Y1027434D01*
X1441380Y1029340D01*
X1443286Y1031824D01*
X1444484Y1034716D01*
X1444893Y1037820D01*
X1444484Y1040924D01*
X1443286Y1043816D01*
X1441380Y1046300D01*
X1438896Y1048206D01*
X1436004Y1049404D01*
X1432900Y1049813D01*
X1429796Y1049404D01*
X1426904Y1048206D01*
X1424420Y1046300D01*
X1422514Y1043816D01*
X1421316Y1040924D01*
X1420907Y1037820D01*
D02*
G37*
G36*
X1417213Y1238020D02*
X1417560Y1234491D01*
X1418590Y1231098D01*
X1420261Y1227971D01*
X1422511Y1225230D01*
X1425251Y1222981D01*
X1428378Y1221310D01*
X1431771Y1220281D01*
X1435300Y1219933D01*
X1438829Y1220281D01*
X1442222Y1221310D01*
X1445349Y1222981D01*
X1448089Y1225230D01*
X1450339Y1227971D01*
X1452010Y1231098D01*
X1453040Y1234491D01*
X1453387Y1238020D01*
X1453040Y1241549D01*
X1452010Y1244942D01*
X1450339Y1248069D01*
X1448089Y1250809D01*
X1445349Y1253059D01*
X1442222Y1254730D01*
X1438829Y1255760D01*
X1435300Y1256107D01*
X1431771Y1255760D01*
X1428378Y1254730D01*
X1425251Y1253059D01*
X1422511Y1250809D01*
X1420261Y1248069D01*
X1418590Y1244942D01*
X1417560Y1241549D01*
X1417213Y1238020D01*
D02*
G37*
G36*
Y698020D02*
X1417560Y694491D01*
X1418590Y691098D01*
X1420261Y687971D01*
X1422511Y685230D01*
X1425251Y682981D01*
X1428378Y681310D01*
X1431771Y680281D01*
X1435300Y679933D01*
X1438829Y680281D01*
X1442222Y681310D01*
X1445349Y682981D01*
X1448089Y685230D01*
X1450339Y687971D01*
X1452010Y691098D01*
X1453040Y694491D01*
X1453387Y698020D01*
X1453040Y701549D01*
X1452010Y704942D01*
X1450339Y708069D01*
X1448089Y710809D01*
X1445349Y713059D01*
X1442222Y714730D01*
X1438829Y715760D01*
X1435300Y716107D01*
X1431771Y715760D01*
X1428378Y714730D01*
X1425251Y713059D01*
X1422511Y710809D01*
X1420261Y708069D01*
X1418590Y704942D01*
X1417560Y701549D01*
X1417213Y698020D01*
D02*
G37*
G36*
X1434170Y985750D02*
Y975659D01*
X1435884Y975884D01*
X1438664Y977036D01*
X1441052Y978868D01*
X1442884Y981256D01*
X1444036Y984036D01*
X1444261Y985750D01*
X1434170D01*
D02*
G37*
G36*
X1421539Y988290D02*
X1431630D01*
Y998381D01*
X1429916Y998156D01*
X1427136Y997004D01*
X1424748Y995172D01*
X1422916Y992784D01*
X1421764Y990004D01*
X1421539Y988290D01*
D02*
G37*
G36*
Y985750D02*
X1421764Y984036D01*
X1422916Y981256D01*
X1424748Y978868D01*
X1427136Y977036D01*
X1429916Y975884D01*
X1431630Y975659D01*
Y985750D01*
X1421539D01*
D02*
G37*
G36*
X1434170Y998381D02*
Y988290D01*
X1444261D01*
X1444036Y990004D01*
X1442884Y992784D01*
X1441052Y995172D01*
X1438664Y997004D01*
X1435884Y998156D01*
X1434170Y998381D01*
D02*
G37*
G36*
X1454552Y976130D02*
Y973590D01*
X1463530D01*
Y986210D01*
X1462148Y986029D01*
X1459676Y985005D01*
X1457554Y983376D01*
X1455925Y981254D01*
X1454901Y978782D01*
X1454552Y976130D01*
D02*
G37*
G36*
X1450007Y1198420D02*
X1450416Y1195316D01*
X1451614Y1192424D01*
X1453520Y1189940D01*
X1456004Y1188034D01*
X1458896Y1186836D01*
X1462000Y1186427D01*
X1465104Y1186836D01*
X1467996Y1188034D01*
X1470480Y1189940D01*
X1472386Y1192424D01*
X1473584Y1195316D01*
X1473993Y1198420D01*
X1473584Y1201524D01*
X1472386Y1204416D01*
X1470480Y1206900D01*
X1467996Y1208806D01*
X1465104Y1210004D01*
X1462000Y1210413D01*
X1458896Y1210004D01*
X1456004Y1208806D01*
X1453520Y1206900D01*
X1451614Y1204416D01*
X1450416Y1201524D01*
X1450007Y1198420D01*
D02*
G37*
G36*
X1466070Y986210D02*
Y973590D01*
X1475048D01*
Y976130D01*
X1474698Y978782D01*
X1473675Y981254D01*
X1472046Y983376D01*
X1469924Y985005D01*
X1467452Y986029D01*
X1466070Y986210D01*
D02*
G37*
G36*
Y971050D02*
Y958429D01*
X1467452Y958612D01*
X1469924Y959635D01*
X1472046Y961264D01*
X1473675Y963386D01*
X1474698Y965858D01*
X1475048Y968510D01*
Y971050D01*
X1466070D01*
D02*
G37*
G36*
X1448907Y1078420D02*
X1449316Y1075316D01*
X1450514Y1072424D01*
X1452420Y1069940D01*
X1454904Y1068034D01*
X1457796Y1066836D01*
X1460900Y1066427D01*
X1464004Y1066836D01*
X1466896Y1068034D01*
X1469380Y1069940D01*
X1471286Y1072424D01*
X1472484Y1075316D01*
X1472893Y1078420D01*
X1472484Y1081524D01*
X1471286Y1084416D01*
X1469380Y1086900D01*
X1466896Y1088806D01*
X1464004Y1090004D01*
X1460900Y1090413D01*
X1457796Y1090004D01*
X1454904Y1088806D01*
X1452420Y1086900D01*
X1450514Y1084416D01*
X1449316Y1081524D01*
X1448907Y1078420D01*
D02*
G37*
G36*
X1454552Y971050D02*
Y968510D01*
X1454901Y965858D01*
X1455925Y963386D01*
X1457554Y961264D01*
X1459676Y959635D01*
X1462148Y958612D01*
X1463530Y958429D01*
Y971050D01*
X1454552D01*
D02*
G37*
G36*
X1443427Y835660D02*
X1443836Y832556D01*
X1445034Y829664D01*
X1446940Y827180D01*
X1449424Y825274D01*
X1452316Y824076D01*
X1455420Y823667D01*
X1458524Y824076D01*
X1461416Y825274D01*
X1463900Y827180D01*
X1465806Y829664D01*
X1467004Y832556D01*
X1467413Y835660D01*
X1467004Y838764D01*
X1465806Y841656D01*
X1463900Y844140D01*
X1461416Y846046D01*
X1458524Y847244D01*
X1455420Y847653D01*
X1452316Y847244D01*
X1449424Y846046D01*
X1446940Y844140D01*
X1445034Y841656D01*
X1443836Y838764D01*
X1443427Y835660D01*
D02*
G37*
G36*
X1445807Y942980D02*
X1446216Y939876D01*
X1447414Y936984D01*
X1449320Y934500D01*
X1451804Y932594D01*
X1454696Y931396D01*
X1457800Y930987D01*
X1460904Y931396D01*
X1463796Y932594D01*
X1466280Y934500D01*
X1468186Y936984D01*
X1469384Y939876D01*
X1469793Y942980D01*
X1469384Y946084D01*
X1468186Y948976D01*
X1466280Y951460D01*
X1463796Y953366D01*
X1460904Y954564D01*
X1457800Y954973D01*
X1454696Y954564D01*
X1451804Y953366D01*
X1449320Y951460D01*
X1447414Y948976D01*
X1446216Y946084D01*
X1445807Y942980D01*
D02*
G37*
G36*
X1506927Y749300D02*
X1507336Y746196D01*
X1508534Y743304D01*
X1510440Y740820D01*
X1512924Y738914D01*
X1515816Y737716D01*
X1518920Y737307D01*
X1522024Y737716D01*
X1524916Y738914D01*
X1527400Y740820D01*
X1529306Y743304D01*
X1530504Y746196D01*
X1530913Y749300D01*
X1530504Y752404D01*
X1529306Y755296D01*
X1527400Y757780D01*
X1524916Y759686D01*
X1522024Y760884D01*
X1518920Y761293D01*
X1515816Y760884D01*
X1512924Y759686D01*
X1510440Y757780D01*
X1508534Y755296D01*
X1507336Y752404D01*
X1506927Y749300D01*
D02*
G37*
G36*
X1552170Y1197150D02*
Y1187059D01*
X1553884Y1187284D01*
X1556664Y1188436D01*
X1559052Y1190268D01*
X1560884Y1192656D01*
X1562036Y1195436D01*
X1562261Y1197150D01*
X1552170D01*
D02*
G37*
G36*
X1560370Y1257979D02*
Y1249290D01*
X1569059D01*
X1568882Y1250641D01*
X1567870Y1253083D01*
X1566261Y1255181D01*
X1564163Y1256790D01*
X1561721Y1257802D01*
X1560370Y1257979D01*
D02*
G37*
G36*
Y1246750D02*
Y1238061D01*
X1561721Y1238238D01*
X1564163Y1239250D01*
X1566261Y1240859D01*
X1567870Y1242957D01*
X1568882Y1245399D01*
X1569059Y1246750D01*
X1560370D01*
D02*
G37*
G36*
X1534707Y942980D02*
X1535116Y939876D01*
X1536314Y936984D01*
X1538220Y934500D01*
X1540704Y932594D01*
X1543596Y931396D01*
X1546700Y930987D01*
X1549804Y931396D01*
X1552696Y932594D01*
X1555180Y934500D01*
X1557086Y936984D01*
X1558284Y939876D01*
X1558693Y942980D01*
X1558284Y946084D01*
X1557086Y948976D01*
X1555180Y951460D01*
X1552696Y953366D01*
X1549804Y954564D01*
X1546700Y954973D01*
X1543596Y954564D01*
X1540704Y953366D01*
X1538220Y951460D01*
X1536314Y948976D01*
X1535116Y946084D01*
X1534707Y942980D01*
D02*
G37*
G36*
X1537807Y1078420D02*
X1538216Y1075316D01*
X1539414Y1072424D01*
X1541320Y1069940D01*
X1543804Y1068034D01*
X1546696Y1066836D01*
X1549800Y1066427D01*
X1552904Y1066836D01*
X1555796Y1068034D01*
X1558280Y1069940D01*
X1560186Y1072424D01*
X1561384Y1075316D01*
X1561793Y1078420D01*
X1561384Y1081524D01*
X1560186Y1084416D01*
X1558280Y1086900D01*
X1555796Y1088806D01*
X1552904Y1090004D01*
X1549800Y1090413D01*
X1546696Y1090004D01*
X1543804Y1088806D01*
X1541320Y1086900D01*
X1539414Y1084416D01*
X1538216Y1081524D01*
X1537807Y1078420D01*
D02*
G37*
G36*
X1552170Y1209781D02*
Y1199690D01*
X1562261D01*
X1562036Y1201404D01*
X1560884Y1204184D01*
X1559052Y1206572D01*
X1556664Y1208404D01*
X1553884Y1209556D01*
X1552170Y1209781D01*
D02*
G37*
G36*
X1523109Y1248020D02*
X1523470Y1245279D01*
X1524313Y1243244D01*
Y1187704D01*
X1524588Y1185616D01*
X1525394Y1183670D01*
X1526676Y1181998D01*
X1541331Y1167344D01*
Y1116584D01*
X1541606Y1114496D01*
X1542412Y1112550D01*
X1543694Y1110878D01*
X1584511Y1070062D01*
Y1044416D01*
X1583308Y1044007D01*
X1582952Y1044472D01*
X1580564Y1046304D01*
X1577784Y1047456D01*
X1576070Y1047681D01*
Y1024959D01*
X1577784Y1025184D01*
X1580564Y1026336D01*
X1582952Y1028168D01*
X1583308Y1028633D01*
X1584511Y1028224D01*
Y1006642D01*
X1577810Y999941D01*
X1576825Y999006D01*
X1575763Y998124D01*
X1575371Y997842D01*
X1575033Y997629D01*
X1574810Y997511D01*
X1574800Y997513D01*
X1571696Y997104D01*
X1568804Y995906D01*
X1566320Y994000D01*
X1564414Y991516D01*
X1563216Y988624D01*
X1562807Y985520D01*
X1563081Y983443D01*
X1563069Y983320D01*
X1563072Y983295D01*
X1563015Y983154D01*
X1562866Y982871D01*
X1562626Y982495D01*
X1562313Y982070D01*
X1561322Y980919D01*
X1561153Y980745D01*
X1560798Y980389D01*
X1558026D01*
X1556152Y980426D01*
X1554085Y980565D01*
X1552323Y980788D01*
X1550882Y981083D01*
X1550379Y981239D01*
X1550277Y981486D01*
X1548574Y983704D01*
X1547284Y984695D01*
X1547247Y984736D01*
X1547201Y984758D01*
X1546356Y985406D01*
X1543772Y986477D01*
X1541000Y986842D01*
X1538228Y986477D01*
X1535644Y985406D01*
X1533426Y983704D01*
X1531723Y981486D01*
X1530653Y978902D01*
X1530288Y976130D01*
Y968510D01*
X1530653Y965738D01*
X1531723Y963154D01*
X1533426Y960936D01*
X1535644Y959233D01*
X1538228Y958163D01*
X1541000Y957798D01*
X1543772Y958163D01*
X1546356Y959233D01*
X1547201Y959882D01*
X1547247Y959904D01*
X1547284Y959945D01*
X1548574Y960936D01*
X1550277Y963154D01*
X1550379Y963401D01*
X1550882Y963558D01*
X1552276Y963842D01*
X1556194Y964214D01*
X1558026Y964251D01*
X1564140D01*
X1566228Y964526D01*
X1568174Y965332D01*
X1569846Y966614D01*
X1574713Y971482D01*
X1576335Y972994D01*
X1577137Y973657D01*
X1577376Y973830D01*
X1577448Y973876D01*
X1577904Y973936D01*
X1580796Y975134D01*
X1583280Y977040D01*
X1585186Y979524D01*
X1586384Y982416D01*
X1586793Y985520D01*
X1586791Y985530D01*
X1586909Y985753D01*
X1587123Y986091D01*
X1587388Y986460D01*
X1588870Y988178D01*
X1588903Y988212D01*
X1598286Y997594D01*
X1599568Y999266D01*
X1600374Y1001212D01*
X1600649Y1003300D01*
Y1027469D01*
X1601456Y1027743D01*
X1601919Y1027810D01*
X1604364Y1025934D01*
X1607256Y1024736D01*
X1610360Y1024327D01*
X1613464Y1024736D01*
X1616356Y1025934D01*
X1618840Y1027840D01*
X1620746Y1030324D01*
X1621944Y1033216D01*
X1622353Y1036320D01*
X1621944Y1039424D01*
X1620746Y1042316D01*
X1618840Y1044800D01*
X1618832Y1044806D01*
X1618758Y1045048D01*
X1618669Y1045437D01*
X1618596Y1045885D01*
X1618430Y1048148D01*
X1618429Y1048196D01*
Y1074688D01*
X1619699Y1074940D01*
X1620294Y1073504D01*
X1622200Y1071020D01*
X1624684Y1069114D01*
X1627576Y1067916D01*
X1630680Y1067507D01*
X1633784Y1067916D01*
X1636676Y1069114D01*
X1639160Y1071020D01*
X1641066Y1073504D01*
X1642264Y1076396D01*
X1642673Y1079500D01*
X1642264Y1082604D01*
X1641066Y1085496D01*
X1639160Y1087980D01*
X1636676Y1089886D01*
X1633784Y1091084D01*
X1630680Y1091493D01*
X1627576Y1091084D01*
X1624684Y1089886D01*
X1622200Y1087980D01*
X1620294Y1085496D01*
X1619699Y1084060D01*
X1618429Y1084312D01*
Y1102628D01*
X1619699Y1102880D01*
X1620294Y1101444D01*
X1622200Y1098960D01*
X1624684Y1097054D01*
X1627576Y1095856D01*
X1630680Y1095447D01*
X1633784Y1095856D01*
X1636676Y1097054D01*
X1639160Y1098960D01*
X1641066Y1101444D01*
X1642264Y1104336D01*
X1642673Y1107440D01*
X1642264Y1110544D01*
X1641066Y1113436D01*
X1639160Y1115920D01*
X1636676Y1117826D01*
X1633784Y1119024D01*
X1630680Y1119433D01*
X1627576Y1119024D01*
X1624684Y1117826D01*
X1622200Y1115920D01*
X1620294Y1113436D01*
X1619699Y1112000D01*
X1618429Y1112252D01*
Y1177036D01*
X1618154Y1179124D01*
X1617348Y1181070D01*
X1616066Y1182742D01*
X1592569Y1206238D01*
Y1239082D01*
X1592619Y1241204D01*
X1592631Y1241369D01*
X1593672Y1242725D01*
X1594730Y1245279D01*
X1595091Y1248020D01*
X1594730Y1250761D01*
X1593672Y1253315D01*
X1591989Y1255509D01*
X1589795Y1257192D01*
X1587241Y1258250D01*
X1584500Y1258611D01*
X1581759Y1258250D01*
X1579205Y1257192D01*
X1577011Y1255509D01*
X1575328Y1253315D01*
X1574270Y1250761D01*
X1573909Y1248020D01*
X1574270Y1245279D01*
X1575328Y1242725D01*
X1576247Y1241527D01*
X1576431Y1238044D01*
Y1202896D01*
X1576706Y1200808D01*
X1577512Y1198861D01*
X1578794Y1197190D01*
X1602291Y1173694D01*
Y1048646D01*
X1602256Y1047288D01*
X1602139Y1046033D01*
X1602072Y1045874D01*
X1601919Y1045768D01*
X1600649Y1046429D01*
Y1073404D01*
X1600374Y1075492D01*
X1599568Y1077439D01*
X1598286Y1079110D01*
X1557469Y1119926D01*
Y1170686D01*
X1557194Y1172774D01*
X1556388Y1174721D01*
X1555106Y1176392D01*
X1543101Y1188397D01*
X1543940Y1189353D01*
X1545136Y1188436D01*
X1547916Y1187284D01*
X1549630Y1187059D01*
Y1209781D01*
X1547916Y1209556D01*
X1545136Y1208404D01*
X1542748Y1206572D01*
X1541721Y1205234D01*
X1540451Y1205665D01*
Y1237437D01*
X1540487Y1239147D01*
X1540557Y1240046D01*
X1541189Y1240531D01*
X1542872Y1242725D01*
X1543930Y1245279D01*
X1544291Y1248020D01*
X1543930Y1250761D01*
X1542872Y1253315D01*
X1541189Y1255509D01*
X1538995Y1257192D01*
X1536441Y1258250D01*
X1533700Y1258611D01*
X1530959Y1258250D01*
X1528405Y1257192D01*
X1526211Y1255509D01*
X1524528Y1253315D01*
X1523470Y1250761D01*
X1523109Y1248020D01*
D02*
G37*
G36*
X1573909Y688020D02*
X1574270Y685279D01*
X1575328Y682725D01*
X1577011Y680531D01*
X1579205Y678848D01*
X1581759Y677790D01*
X1584500Y677429D01*
X1587241Y677790D01*
X1589795Y678848D01*
X1591989Y680531D01*
X1593672Y682725D01*
X1594730Y685279D01*
X1595091Y688020D01*
X1594730Y690761D01*
X1593672Y693315D01*
X1591989Y695509D01*
X1589795Y697192D01*
X1587241Y698250D01*
X1584500Y698611D01*
X1581759Y698250D01*
X1579205Y697192D01*
X1577011Y695509D01*
X1575328Y693315D01*
X1574270Y690761D01*
X1573909Y688020D01*
D02*
G37*
G36*
X1574088Y1163554D02*
X1574453Y1160781D01*
X1575523Y1158198D01*
X1577226Y1155979D01*
X1579444Y1154277D01*
X1582028Y1153207D01*
X1584800Y1152842D01*
X1587572Y1153207D01*
X1590156Y1154277D01*
X1592374Y1155979D01*
X1594077Y1158198D01*
X1595147Y1160781D01*
X1595512Y1163554D01*
X1595147Y1166326D01*
X1594077Y1168909D01*
X1592374Y1171128D01*
X1590156Y1172830D01*
X1587572Y1173900D01*
X1584800Y1174265D01*
X1582028Y1173900D01*
X1579444Y1172830D01*
X1577226Y1171128D01*
X1575523Y1168909D01*
X1574453Y1166326D01*
X1574088Y1163554D01*
D02*
G37*
G36*
X1548509Y688020D02*
X1548870Y685279D01*
X1549928Y682725D01*
X1551611Y680531D01*
X1553805Y678848D01*
X1556359Y677790D01*
X1559100Y677429D01*
X1561841Y677790D01*
X1564395Y678848D01*
X1566589Y680531D01*
X1568272Y682725D01*
X1569330Y685279D01*
X1569691Y688020D01*
X1569330Y690761D01*
X1568272Y693315D01*
X1566589Y695509D01*
X1564395Y697192D01*
X1561841Y698250D01*
X1559100Y698611D01*
X1556359Y698250D01*
X1553805Y697192D01*
X1551611Y695509D01*
X1549928Y693315D01*
X1548870Y690761D01*
X1548509Y688020D01*
D02*
G37*
G36*
X1563439Y1037590D02*
X1573530D01*
Y1047681D01*
X1571816Y1047456D01*
X1569036Y1046304D01*
X1566648Y1044472D01*
X1564816Y1042084D01*
X1563664Y1039304D01*
X1563439Y1037590D01*
D02*
G37*
G36*
Y1035050D02*
X1563664Y1033336D01*
X1564816Y1030556D01*
X1566648Y1028168D01*
X1569036Y1026336D01*
X1571816Y1025184D01*
X1573530Y1024959D01*
Y1035050D01*
X1563439D01*
D02*
G37*
G36*
X1549141Y1246750D02*
X1549318Y1245399D01*
X1550330Y1242957D01*
X1551939Y1240859D01*
X1554037Y1239250D01*
X1556479Y1238238D01*
X1557830Y1238061D01*
Y1246750D01*
X1549141D01*
D02*
G37*
G36*
X1515668Y1113566D02*
X1516033Y1110794D01*
X1517103Y1108211D01*
X1518806Y1105992D01*
X1521024Y1104290D01*
X1523608Y1103220D01*
X1526380Y1102855D01*
X1529152Y1103220D01*
X1531736Y1104290D01*
X1533954Y1105992D01*
X1535657Y1108211D01*
X1536727Y1110794D01*
X1537092Y1113566D01*
X1536727Y1116339D01*
X1535657Y1118922D01*
X1533954Y1121141D01*
X1531736Y1122843D01*
X1529152Y1123913D01*
X1526380Y1124278D01*
X1523608Y1123913D01*
X1521024Y1122843D01*
X1518806Y1121141D01*
X1517103Y1118922D01*
X1516033Y1116339D01*
X1515668Y1113566D01*
D02*
G37*
G36*
X1515828Y913994D02*
X1516193Y911221D01*
X1517263Y908638D01*
X1518966Y906419D01*
X1521184Y904717D01*
X1523768Y903647D01*
X1526540Y903282D01*
X1529312Y903647D01*
X1531896Y904717D01*
X1534114Y906419D01*
X1535817Y908638D01*
X1536887Y911221D01*
X1537252Y913994D01*
X1536887Y916766D01*
X1535817Y919349D01*
X1534114Y921568D01*
X1531896Y923270D01*
X1529312Y924340D01*
X1526540Y924705D01*
X1523768Y924340D01*
X1521184Y923270D01*
X1518966Y921568D01*
X1517263Y919349D01*
X1516193Y916766D01*
X1515828Y913994D01*
D02*
G37*
G36*
Y864006D02*
X1516193Y861234D01*
X1517263Y858651D01*
X1518966Y856432D01*
X1521184Y854730D01*
X1523768Y853660D01*
X1526540Y853295D01*
X1529312Y853660D01*
X1531896Y854730D01*
X1534114Y856432D01*
X1535817Y858651D01*
X1536887Y861234D01*
X1537252Y864006D01*
X1536887Y866779D01*
X1535817Y869362D01*
X1534114Y871581D01*
X1531896Y873283D01*
X1529312Y874353D01*
X1526540Y874718D01*
X1523768Y874353D01*
X1521184Y873283D01*
X1518966Y871581D01*
X1517263Y869362D01*
X1516193Y866779D01*
X1515828Y864006D01*
D02*
G37*
G36*
X1522324Y805100D02*
Y796290D01*
X1531134D01*
X1530952Y797672D01*
X1529928Y800144D01*
X1528300Y802266D01*
X1526177Y803895D01*
X1523706Y804919D01*
X1522324Y805100D01*
D02*
G37*
G36*
Y793750D02*
Y784939D01*
X1523706Y785122D01*
X1526177Y786145D01*
X1528300Y787774D01*
X1529928Y789896D01*
X1530952Y792368D01*
X1531134Y793750D01*
X1522324D01*
D02*
G37*
G36*
X1515668Y1163554D02*
X1516033Y1160781D01*
X1517103Y1158198D01*
X1518806Y1155979D01*
X1521024Y1154277D01*
X1523608Y1153207D01*
X1526380Y1152842D01*
X1529152Y1153207D01*
X1531736Y1154277D01*
X1533954Y1155979D01*
X1535657Y1158198D01*
X1536727Y1160781D01*
X1537092Y1163554D01*
X1536727Y1166326D01*
X1535657Y1168909D01*
X1533954Y1171128D01*
X1531736Y1172830D01*
X1529152Y1173900D01*
X1526380Y1174265D01*
X1523608Y1173900D01*
X1521024Y1172830D01*
X1518806Y1171128D01*
X1517103Y1168909D01*
X1516033Y1166326D01*
X1515668Y1163554D01*
D02*
G37*
G36*
X1523109Y688020D02*
X1523470Y685279D01*
X1524528Y682725D01*
X1526211Y680531D01*
X1528405Y678848D01*
X1530959Y677790D01*
X1533700Y677429D01*
X1536441Y677790D01*
X1538995Y678848D01*
X1541189Y680531D01*
X1542872Y682725D01*
X1543930Y685279D01*
X1544291Y688020D01*
X1543930Y690761D01*
X1542872Y693315D01*
X1541189Y695509D01*
X1538995Y697192D01*
X1536441Y698250D01*
X1533700Y698611D01*
X1530959Y698250D01*
X1528405Y697192D01*
X1526211Y695509D01*
X1524528Y693315D01*
X1523470Y690761D01*
X1523109Y688020D01*
D02*
G37*
G36*
X1530380Y1062950D02*
Y1034090D01*
X1551620D01*
Y1062950D01*
X1530380D01*
D02*
G37*
G36*
X1532327Y835660D02*
X1532736Y832556D01*
X1533934Y829664D01*
X1535840Y827180D01*
X1538324Y825274D01*
X1541216Y824076D01*
X1544320Y823667D01*
X1547424Y824076D01*
X1550316Y825274D01*
X1552800Y827180D01*
X1554706Y829664D01*
X1555904Y832556D01*
X1556313Y835660D01*
X1555904Y838764D01*
X1554706Y841656D01*
X1552800Y844140D01*
X1550316Y846046D01*
X1547424Y847244D01*
X1544320Y847653D01*
X1541216Y847244D01*
X1538324Y846046D01*
X1535840Y844140D01*
X1533934Y841656D01*
X1532736Y838764D01*
X1532327Y835660D01*
D02*
G37*
G36*
X1549141Y1249290D02*
X1557830D01*
Y1257979D01*
X1556479Y1257802D01*
X1554037Y1256790D01*
X1551939Y1255181D01*
X1550330Y1253083D01*
X1549318Y1250641D01*
X1549141Y1249290D01*
D02*
G37*
%LPD*%
G36*
X1691620Y924242D02*
X1692045Y924788D01*
X1692420Y925362D01*
X1692744Y925967D01*
X1693016Y926600D01*
X1693238Y927262D01*
X1693408Y927954D01*
X1693528Y928675D01*
X1693596Y929425D01*
X1693614Y930204D01*
X1701157Y922660D01*
X1700378Y922643D01*
X1699628Y922574D01*
X1698908Y922455D01*
X1698216Y922284D01*
X1697554Y922063D01*
X1696920Y921790D01*
X1696316Y921466D01*
X1695741Y921092D01*
X1695195Y920666D01*
X1694679Y920189D01*
X1691143Y923725D01*
X1691620Y924242D01*
D02*
G37*
G36*
X1575251Y994443D02*
X1575651Y994549D01*
X1576089Y994728D01*
X1576566Y994980D01*
X1577081Y995305D01*
X1577635Y995703D01*
X1578858Y996718D01*
X1580234Y998025D01*
X1587305Y990954D01*
X1586615Y990247D01*
X1584983Y988355D01*
X1584585Y987801D01*
X1584260Y987286D01*
X1584008Y986809D01*
X1583829Y986371D01*
X1583723Y985971D01*
X1583690Y985609D01*
X1574889Y994409D01*
X1575251Y994443D01*
D02*
G37*
G36*
X1545533Y981351D02*
X1545926Y980505D01*
X1546581Y979758D01*
X1547499Y979111D01*
X1548678Y978564D01*
X1550120Y978116D01*
X1551824Y977768D01*
X1553790Y977519D01*
X1556019Y977370D01*
X1558509Y977320D01*
Y967320D01*
X1556019Y967270D01*
X1551824Y966872D01*
X1550120Y966524D01*
X1548678Y966076D01*
X1547499Y965528D01*
X1546581Y964882D01*
X1545926Y964135D01*
X1545533Y963289D01*
X1545402Y962344D01*
Y982296D01*
X1545533Y981351D01*
D02*
G37*
G36*
X1589750Y1242664D02*
X1589702Y1242572D01*
X1589660Y1242396D01*
X1589622Y1242135D01*
X1589563Y1241358D01*
X1589503Y1238785D01*
X1589500Y1237930D01*
X1579500D01*
X1579250Y1242664D01*
X1589750D01*
D02*
G37*
G36*
X1563582Y978856D02*
X1564708Y980163D01*
X1565150Y980764D01*
X1565511Y981331D01*
X1565792Y981862D01*
X1565993Y982358D01*
X1566113Y982819D01*
X1566152Y983246D01*
X1566112Y983637D01*
X1576509Y976796D01*
X1576278Y976721D01*
X1575993Y976575D01*
X1575654Y976360D01*
X1575262Y976075D01*
X1574316Y975294D01*
X1572496Y973596D01*
X1571781Y972890D01*
X1562899Y978150D01*
X1563582Y978856D01*
D02*
G37*
G36*
X1718852Y980113D02*
X1719217Y979346D01*
X1719827Y978670D01*
X1720680Y978084D01*
X1721777Y977588D01*
X1723118Y977182D01*
X1724703Y976866D01*
X1726532Y976640D01*
X1728604Y976505D01*
X1730920Y976460D01*
Y966460D01*
X1728604Y966415D01*
X1724703Y966054D01*
X1723118Y965738D01*
X1721777Y965332D01*
X1720680Y964836D01*
X1719827Y964250D01*
X1719217Y963574D01*
X1718852Y962807D01*
X1718730Y961950D01*
Y980970D01*
X1718852Y980113D01*
D02*
G37*
G36*
X1527590Y1243670D02*
X1537927Y1241825D01*
X1537823Y1241709D01*
X1537731Y1241512D01*
X1537649Y1241233D01*
X1537578Y1240872D01*
X1537518Y1240429D01*
X1537431Y1239297D01*
X1537382Y1236986D01*
X1527382Y1239479D01*
X1527590Y1243670D01*
D02*
G37*
G36*
X1613384Y916528D02*
X1613823Y916180D01*
X1614287Y915872D01*
X1614776Y915606D01*
X1615289Y915380D01*
X1615827Y915196D01*
X1616390Y915052D01*
X1616978Y914950D01*
X1617591Y914889D01*
X1618228Y914868D01*
Y909868D01*
X1617591Y909847D01*
X1616978Y909786D01*
X1616390Y909684D01*
X1615827Y909540D01*
X1615289Y909355D01*
X1614776Y909130D01*
X1614287Y908864D01*
X1613823Y908556D01*
X1613384Y908207D01*
X1612970Y907818D01*
Y916918D01*
X1613384Y916528D01*
D02*
G37*
G36*
X1733165Y980793D02*
X1734797Y982685D01*
X1735195Y983239D01*
X1735520Y983754D01*
X1735772Y984231D01*
X1735951Y984669D01*
X1736057Y985069D01*
X1736091Y985431D01*
X1744891Y976630D01*
X1744529Y976597D01*
X1744129Y976491D01*
X1743691Y976312D01*
X1743214Y976060D01*
X1742699Y975735D01*
X1742145Y975337D01*
X1740922Y974322D01*
X1739546Y973015D01*
X1732475Y980086D01*
X1733165Y980793D01*
D02*
G37*
G36*
X1604369Y1042948D02*
X1604577Y1043306D01*
X1604761Y1043742D01*
X1604920Y1044258D01*
X1605054Y1044852D01*
X1605164Y1045525D01*
X1605311Y1047107D01*
X1605360Y1049005D01*
X1615360D01*
X1615372Y1048017D01*
X1615556Y1045525D01*
X1615666Y1044852D01*
X1615800Y1044258D01*
X1615959Y1043742D01*
X1616143Y1043306D01*
X1616351Y1042948D01*
X1616583Y1042669D01*
X1604137D01*
X1604369Y1042948D01*
D02*
G37*
G36*
X531257Y1035826D02*
X528088Y1036787D01*
X525168Y1038348D01*
X522609Y1040449D01*
X520508Y1043008D01*
X518947Y1045929D01*
X517986Y1049097D01*
X517666Y1052344D01*
X517676Y1052393D01*
Y1247393D01*
X517666Y1247441D01*
X517986Y1250688D01*
X518947Y1253857D01*
X520508Y1256777D01*
X522609Y1259336D01*
X525168Y1261437D01*
X528088Y1262998D01*
X531257Y1263959D01*
X534504Y1264279D01*
X534552Y1264269D01*
X782052D01*
X782101Y1264279D01*
X785348Y1263959D01*
X788516Y1262998D01*
X791436Y1261437D01*
X793996Y1259336D01*
X796097Y1256777D01*
X797657Y1253857D01*
X798619Y1250688D01*
X798938Y1247441D01*
X798929Y1247393D01*
Y1205393D01*
X798963Y1205221D01*
Y1200426D01*
X798953D01*
X799230Y1198322D01*
X800043Y1196360D01*
X801336Y1194676D01*
X803020Y1193383D01*
X804982Y1192571D01*
X807086Y1192293D01*
Y1192303D01*
X811877D01*
X812054Y1192268D01*
X1107054D01*
X1107231Y1192303D01*
X1112087D01*
Y1192293D01*
X1114192Y1192571D01*
X1116153Y1193383D01*
X1117838Y1194676D01*
X1119130Y1196360D01*
X1119943Y1198322D01*
X1120220Y1200426D01*
X1120210D01*
Y1247427D01*
X1120180Y1247578D01*
X1120486Y1250688D01*
X1121447Y1253857D01*
X1123008Y1256777D01*
X1125109Y1259336D01*
X1127669Y1261437D01*
X1130589Y1262998D01*
X1133757Y1263959D01*
X1137004Y1264279D01*
X1137053Y1264269D01*
X1384553D01*
X1384601Y1264279D01*
X1387848Y1263959D01*
X1391017Y1262998D01*
X1393937Y1261437D01*
X1396496Y1259336D01*
X1398597Y1256777D01*
X1400158Y1253857D01*
X1401119Y1250688D01*
X1401439Y1247441D01*
X1401429Y1247393D01*
X1401429D01*
X1401429Y1247393D01*
Y1137169D01*
X1201299D01*
X1201254Y1035516D01*
X534552D01*
X534504Y1035507D01*
X531257Y1035826D01*
D02*
G37*
%LPC*%
G36*
X1148841Y1242479D02*
X1151182Y1242945D01*
X1151248Y1242989D01*
X1192408D01*
X1192474Y1242945D01*
X1194815Y1242479D01*
X1197156Y1242945D01*
X1199140Y1244271D01*
X1200467Y1246256D01*
X1200932Y1248597D01*
X1200467Y1250938D01*
X1199140Y1252922D01*
X1197156Y1254249D01*
X1194815Y1254714D01*
X1192474Y1254249D01*
X1192408Y1254204D01*
X1151248D01*
X1151182Y1254249D01*
X1148841Y1254714D01*
X1146500Y1254249D01*
X1144515Y1252922D01*
X1143189Y1250938D01*
X1142723Y1248597D01*
X1143189Y1246256D01*
X1144515Y1244271D01*
X1146500Y1242945D01*
X1148841Y1242479D01*
D02*
G37*
G36*
X574461Y1225143D02*
X595461D01*
Y1246143D01*
X574461D01*
Y1225143D01*
D02*
G37*
G36*
X1359661Y1199652D02*
X1362402Y1200013D01*
X1364956Y1201071D01*
X1367149Y1202754D01*
X1368832Y1204947D01*
X1369890Y1207502D01*
X1370251Y1210243D01*
X1369890Y1212984D01*
X1368832Y1215538D01*
X1367149Y1217731D01*
X1364956Y1219414D01*
X1362402Y1220472D01*
X1359661Y1220833D01*
X1356920Y1220472D01*
X1354365Y1219414D01*
X1352172Y1217731D01*
X1350489Y1215538D01*
X1349431Y1212984D01*
X1349070Y1210243D01*
X1349431Y1207502D01*
X1350489Y1204947D01*
X1352172Y1202754D01*
X1354365Y1201071D01*
X1356920Y1200013D01*
X1359661Y1199652D01*
D02*
G37*
G36*
X1385061D02*
X1387802Y1200013D01*
X1390356Y1201071D01*
X1392549Y1202754D01*
X1394232Y1204947D01*
X1395290Y1207502D01*
X1395651Y1210243D01*
X1395290Y1212984D01*
X1394232Y1215538D01*
X1392549Y1217731D01*
X1390356Y1219414D01*
X1387802Y1220472D01*
X1385061Y1220833D01*
X1382320Y1220472D01*
X1379765Y1219414D01*
X1377572Y1217731D01*
X1375889Y1215538D01*
X1374831Y1212984D01*
X1374470Y1210243D01*
X1374831Y1207502D01*
X1375889Y1204947D01*
X1377572Y1202754D01*
X1379765Y1201071D01*
X1382320Y1200013D01*
X1385061Y1199652D01*
D02*
G37*
G36*
X1334261Y1225052D02*
X1337002Y1225413D01*
X1339556Y1226471D01*
X1341749Y1228154D01*
X1343432Y1230347D01*
X1344490Y1232902D01*
X1344851Y1235643D01*
X1344490Y1238384D01*
X1343432Y1240938D01*
X1341749Y1243131D01*
X1339556Y1244814D01*
X1337002Y1245872D01*
X1334261Y1246233D01*
X1331520Y1245872D01*
X1328965Y1244814D01*
X1326772Y1243131D01*
X1325089Y1240938D01*
X1324031Y1238384D01*
X1323670Y1235643D01*
X1324031Y1232902D01*
X1325089Y1230347D01*
X1326772Y1228154D01*
X1328965Y1226471D01*
X1331520Y1225413D01*
X1334261Y1225052D01*
D02*
G37*
G36*
X1359661D02*
X1362402Y1225413D01*
X1364956Y1226471D01*
X1367149Y1228154D01*
X1368832Y1230347D01*
X1369890Y1232902D01*
X1370251Y1235643D01*
X1369890Y1238384D01*
X1368832Y1240938D01*
X1367149Y1243131D01*
X1364956Y1244814D01*
X1362402Y1245872D01*
X1359661Y1246233D01*
X1356920Y1245872D01*
X1354365Y1244814D01*
X1352172Y1243131D01*
X1350489Y1240938D01*
X1349431Y1238384D01*
X1349070Y1235643D01*
X1349431Y1232902D01*
X1350489Y1230347D01*
X1352172Y1228154D01*
X1354365Y1226471D01*
X1356920Y1225413D01*
X1359661Y1225052D01*
D02*
G37*
G36*
X1374561Y1225143D02*
X1395561D01*
Y1246143D01*
X1374561D01*
Y1225143D01*
D02*
G37*
G36*
X520895Y1150197D02*
X545395D01*
Y1169197D01*
X539768D01*
Y1201311D01*
X541649Y1202754D01*
X543332Y1204947D01*
X544390Y1207502D01*
X544751Y1210243D01*
X544390Y1212984D01*
X543332Y1215538D01*
X541649Y1217731D01*
X539768Y1219175D01*
Y1226711D01*
X541649Y1228154D01*
X543332Y1230347D01*
X544390Y1232902D01*
X544751Y1235643D01*
X544390Y1238384D01*
X543332Y1240938D01*
X541649Y1243131D01*
X539456Y1244814D01*
X536902Y1245872D01*
X534161Y1246233D01*
X531420Y1245872D01*
X528865Y1244814D01*
X526672Y1243131D01*
X524989Y1240938D01*
X523931Y1238384D01*
X523570Y1235643D01*
X523931Y1232902D01*
X524989Y1230347D01*
X526672Y1228154D01*
X528553Y1226711D01*
Y1219175D01*
X526672Y1217731D01*
X524989Y1215538D01*
X523931Y1212984D01*
X523570Y1210243D01*
X523931Y1207502D01*
X524989Y1204947D01*
X526672Y1202754D01*
X528553Y1201311D01*
Y1169197D01*
X520895D01*
Y1150197D01*
D02*
G37*
G36*
X1334261Y1199652D02*
X1337002Y1200013D01*
X1339556Y1201071D01*
X1341749Y1202754D01*
X1343432Y1204947D01*
X1344490Y1207502D01*
X1344851Y1210243D01*
X1344490Y1212984D01*
X1343432Y1215538D01*
X1341749Y1217731D01*
X1339556Y1219414D01*
X1337002Y1220472D01*
X1334261Y1220833D01*
X1331520Y1220472D01*
X1328965Y1219414D01*
X1326772Y1217731D01*
X1325089Y1215538D01*
X1324031Y1212984D01*
X1323670Y1210243D01*
X1324031Y1207502D01*
X1325089Y1204947D01*
X1326772Y1202754D01*
X1328965Y1201071D01*
X1331520Y1200013D01*
X1334261Y1199652D01*
D02*
G37*
G36*
X906525Y1037755D02*
X908866Y1038221D01*
X910850Y1039547D01*
X912177Y1041532D01*
X912642Y1043873D01*
X912177Y1046214D01*
X910850Y1048198D01*
X908866Y1049525D01*
X906525Y1049990D01*
X904184Y1049525D01*
X902916Y1048677D01*
X901205Y1050388D01*
Y1051363D01*
X905127D01*
Y1066863D01*
X889127D01*
Y1051363D01*
X893048D01*
Y1048699D01*
X893048Y1048699D01*
X893359Y1047138D01*
X893652Y1046699D01*
X894243Y1045815D01*
X894243Y1045815D01*
X899069Y1040989D01*
X900392Y1040105D01*
X900651Y1040053D01*
X901953Y1039794D01*
X901953Y1039794D01*
X902034D01*
X902199Y1039547D01*
X904184Y1038221D01*
X906525Y1037755D01*
D02*
G37*
G36*
X689611Y1052379D02*
X705611D01*
Y1067879D01*
X689611D01*
Y1065892D01*
X687831Y1066246D01*
X685529Y1065788D01*
X672434Y1078884D01*
X673607Y1078651D01*
X685291D01*
X687437Y1079078D01*
X689256Y1080293D01*
X723368Y1114405D01*
X723446Y1114421D01*
X725430Y1115747D01*
X726757Y1117732D01*
X727222Y1120073D01*
X726757Y1122414D01*
X726712Y1122480D01*
Y1129942D01*
X770518Y1173747D01*
X771733Y1175567D01*
X772160Y1177713D01*
Y1200393D01*
X774553D01*
Y1226393D01*
X758553D01*
Y1222398D01*
X758541Y1222427D01*
X757258Y1224098D01*
X755587Y1225381D01*
X753641Y1226187D01*
X751553Y1226462D01*
X749464Y1226187D01*
X747518Y1225381D01*
X745847Y1224098D01*
X744565Y1222427D01*
X744053Y1221191D01*
X743541Y1222427D01*
X742258Y1224098D01*
X740587Y1225381D01*
X738641Y1226187D01*
X736553Y1226462D01*
X734464Y1226187D01*
X732518Y1225381D01*
X730847Y1224098D01*
X729565Y1222427D01*
X729053Y1221191D01*
X728541Y1222427D01*
X727258Y1224098D01*
X725587Y1225381D01*
X723641Y1226187D01*
X721553Y1226462D01*
X719464Y1226187D01*
X717518Y1225381D01*
X715847Y1224098D01*
X714565Y1222427D01*
X714053Y1221191D01*
X713541Y1222427D01*
X712258Y1224098D01*
X710587Y1225381D01*
X708641Y1226187D01*
X706553Y1226462D01*
X704464Y1226187D01*
X702518Y1225381D01*
X700847Y1224098D01*
X699565Y1222427D01*
X698759Y1220481D01*
X698484Y1218393D01*
Y1208393D01*
X698759Y1206304D01*
X699565Y1204358D01*
X700847Y1202687D01*
X702518Y1201405D01*
X704464Y1200599D01*
X706553Y1200324D01*
X708641Y1200599D01*
X710587Y1201405D01*
X712258Y1202687D01*
X713541Y1204358D01*
X714053Y1205594D01*
X714565Y1204358D01*
X715847Y1202687D01*
X717518Y1201405D01*
X719464Y1200599D01*
X721553Y1200324D01*
X723641Y1200599D01*
X725587Y1201405D01*
X727258Y1202687D01*
X728541Y1204358D01*
X729053Y1205594D01*
X729565Y1204358D01*
X730847Y1202687D01*
X732518Y1201405D01*
X734464Y1200599D01*
X736553Y1200324D01*
X738641Y1200599D01*
X740587Y1201405D01*
X742258Y1202687D01*
X743541Y1204358D01*
X744053Y1205594D01*
X744565Y1204358D01*
X745847Y1202687D01*
X747518Y1201405D01*
X749464Y1200599D01*
X751553Y1200324D01*
X753641Y1200599D01*
X755587Y1201405D01*
X757258Y1202687D01*
X758541Y1204358D01*
X758553Y1204387D01*
Y1200393D01*
X760945D01*
Y1180035D01*
X717139Y1136230D01*
X715924Y1134411D01*
X715497Y1132265D01*
Y1122480D01*
X715453Y1122414D01*
X715437Y1122336D01*
X682968Y1089866D01*
X678599D01*
X679858Y1090707D01*
X696876Y1107725D01*
X698092Y1109545D01*
X698518Y1111691D01*
Y1144711D01*
X698092Y1146857D01*
X696876Y1148676D01*
X655846Y1189706D01*
Y1228410D01*
X655891Y1228476D01*
X656356Y1230817D01*
X655891Y1233158D01*
X654564Y1235142D01*
X652580Y1236469D01*
X650239Y1236934D01*
X647898Y1236469D01*
X645913Y1235142D01*
X644587Y1233158D01*
X644121Y1230817D01*
X644587Y1228476D01*
X644631Y1228410D01*
Y1187383D01*
X645058Y1185237D01*
X646273Y1183417D01*
X687303Y1142388D01*
Y1114014D01*
X674194Y1100904D01*
Y1104023D01*
X652192D01*
Y1100280D01*
X648794D01*
Y1104023D01*
X626792D01*
Y1100280D01*
X608373D01*
X606227Y1099854D01*
X604407Y1098638D01*
X591522Y1085753D01*
X590060D01*
Y1113753D01*
X592453D01*
Y1143753D01*
X576453D01*
Y1113753D01*
X578845D01*
Y1085753D01*
X564953D01*
Y1055753D01*
X603953D01*
Y1082322D01*
X610695Y1089065D01*
X626792D01*
Y1085323D01*
X648794D01*
Y1089065D01*
X652192D01*
Y1085323D01*
X657585D01*
Y1080195D01*
X658012Y1078049D01*
X659227Y1076229D01*
X679293Y1056163D01*
X681113Y1054948D01*
X683259Y1054521D01*
X685424D01*
X685490Y1054477D01*
X687831Y1054011D01*
X689611Y1054365D01*
Y1052379D01*
D02*
G37*
G36*
X960627Y1042835D02*
X962968Y1043301D01*
X963670Y1043770D01*
X987020D01*
X988580Y1044081D01*
X989903Y1044965D01*
X989903Y1044965D01*
X991083Y1046144D01*
X991696D01*
X991861Y1045897D01*
X993846Y1044571D01*
X996187Y1044105D01*
X998528Y1044571D01*
X1000512Y1045897D01*
X1001839Y1047882D01*
X1002304Y1050223D01*
X1001839Y1052564D01*
X1000512Y1054548D01*
X998528Y1055875D01*
X996187Y1056340D01*
X993846Y1055875D01*
X991861Y1054548D01*
X991696Y1054301D01*
X989394D01*
X989393Y1054301D01*
X988092Y1054042D01*
X987833Y1053991D01*
X986510Y1053107D01*
X985330Y1051927D01*
X965855D01*
X964952Y1053278D01*
X962968Y1054605D01*
X960627Y1055070D01*
X958286Y1054605D01*
X956301Y1053278D01*
X954975Y1051294D01*
X954509Y1048953D01*
X954975Y1046612D01*
X956301Y1044627D01*
X958286Y1043301D01*
X960627Y1042835D01*
D02*
G37*
G36*
X731613Y1047849D02*
X746613D01*
Y1054270D01*
X754631D01*
X754631Y1054270D01*
X755932Y1054529D01*
X756191Y1054581D01*
X757514Y1055465D01*
X757514Y1055465D01*
X774931Y1072881D01*
X775242Y1073089D01*
X775242Y1073089D01*
X788504Y1086352D01*
X789389Y1087675D01*
X789440Y1087934D01*
X789699Y1089235D01*
X789699Y1089236D01*
Y1108477D01*
X791882Y1110660D01*
X794178D01*
Y1105389D01*
X816180D01*
Y1124089D01*
X809257D01*
Y1142767D01*
X809459Y1142969D01*
X809751Y1142911D01*
X812092Y1143377D01*
X814076Y1144703D01*
X815403Y1146688D01*
X815868Y1149029D01*
X815403Y1151370D01*
X814076Y1153354D01*
X812092Y1154681D01*
X809751Y1155146D01*
X807410Y1154681D01*
X805425Y1153354D01*
X804099Y1151370D01*
X803633Y1149029D01*
X803691Y1148737D01*
X802295Y1147341D01*
X802295Y1147340D01*
X801411Y1146017D01*
X801100Y1144457D01*
Y1124089D01*
X794178D01*
Y1118817D01*
X790193D01*
X790193Y1118817D01*
X788891Y1118558D01*
X788632Y1118507D01*
X787309Y1117623D01*
X782737Y1113051D01*
X782737Y1113051D01*
X781853Y1111727D01*
X781542Y1110167D01*
Y1090925D01*
X769682Y1079064D01*
X769371Y1078857D01*
X752941Y1062427D01*
X746613D01*
Y1068849D01*
X731613D01*
Y1062427D01*
X721611D01*
Y1067879D01*
X705611D01*
Y1052379D01*
X721611D01*
Y1054270D01*
X731613D01*
Y1047849D01*
D02*
G37*
G36*
X751839Y1072045D02*
X754180Y1072511D01*
X756164Y1073837D01*
X757490Y1075822D01*
X757728Y1077014D01*
X762757Y1082043D01*
X763641Y1083366D01*
X763692Y1083625D01*
X763827Y1084301D01*
X768185Y1088659D01*
X769069Y1089982D01*
X769120Y1090241D01*
X769379Y1091543D01*
X769379Y1091543D01*
Y1145808D01*
X769626Y1145973D01*
X770953Y1147958D01*
X771418Y1150299D01*
X770953Y1152640D01*
X769626Y1154624D01*
X767642Y1155951D01*
X765301Y1156416D01*
X762960Y1155951D01*
X760975Y1154624D01*
X759649Y1152640D01*
X759183Y1150299D01*
X759649Y1147958D01*
X760975Y1145973D01*
X761222Y1145808D01*
Y1093232D01*
X756989Y1088999D01*
X756989Y1088999D01*
X756105Y1087675D01*
X755919Y1086740D01*
X753190Y1084012D01*
X751839Y1084280D01*
X749498Y1083815D01*
X747513Y1082488D01*
X746187Y1080504D01*
X745721Y1078163D01*
X746187Y1075822D01*
X747513Y1073837D01*
X749498Y1072511D01*
X751839Y1072045D01*
D02*
G37*
G36*
X945641Y1071029D02*
X947982Y1071495D01*
X949966Y1072821D01*
X951292Y1074806D01*
X951758Y1077147D01*
X951292Y1079488D01*
X949966Y1081472D01*
X949719Y1081638D01*
Y1151142D01*
X949966Y1151307D01*
X951292Y1153292D01*
X951758Y1155633D01*
X951292Y1157974D01*
X949966Y1159958D01*
X947982Y1161285D01*
X945641Y1161750D01*
X943300Y1161285D01*
X941315Y1159958D01*
X939989Y1157974D01*
X939523Y1155633D01*
X939989Y1153292D01*
X941315Y1151307D01*
X941562Y1151142D01*
Y1081638D01*
X941315Y1081472D01*
X939989Y1079488D01*
X939523Y1077147D01*
X939989Y1074806D01*
X941315Y1072821D01*
X943300Y1071495D01*
X945641Y1071029D01*
D02*
G37*
G36*
X584961Y1199652D02*
X587702Y1200013D01*
X590256Y1201071D01*
X592449Y1202754D01*
X594132Y1204947D01*
X595190Y1207502D01*
X595551Y1210243D01*
X595190Y1212984D01*
X594132Y1215538D01*
X592449Y1217731D01*
X590256Y1219414D01*
X587702Y1220472D01*
X584961Y1220833D01*
X582220Y1220472D01*
X579665Y1219414D01*
X577472Y1217731D01*
X575789Y1215538D01*
X574731Y1212984D01*
X574370Y1210243D01*
X574731Y1207502D01*
X575789Y1204947D01*
X577472Y1202754D01*
X579665Y1201071D01*
X582220Y1200013D01*
X584961Y1199652D01*
D02*
G37*
G36*
X931765Y1047849D02*
X946765D01*
Y1056050D01*
X960881D01*
X962441Y1056361D01*
X963764Y1057245D01*
X980461Y1073941D01*
X981345Y1075264D01*
X981396Y1075523D01*
X981655Y1076825D01*
X981655Y1076825D01*
Y1093134D01*
X993481D01*
X1025053Y1061563D01*
X1026376Y1060679D01*
X1026635Y1060627D01*
X1027937Y1060368D01*
X1027937Y1060368D01*
X1061894D01*
Y1055097D01*
X1083896D01*
Y1061638D01*
X1103209D01*
X1109381Y1055467D01*
X1110704Y1054583D01*
X1110963Y1054531D01*
X1112265Y1054272D01*
X1112265Y1054272D01*
X1131917D01*
Y1047851D01*
X1146917D01*
Y1067730D01*
X1147703Y1067887D01*
X1148142Y1068180D01*
X1149026Y1068771D01*
X1149027Y1068771D01*
X1175601Y1095345D01*
X1176485Y1096668D01*
X1176536Y1096927D01*
X1176795Y1098229D01*
X1176795Y1098229D01*
Y1156229D01*
X1182205Y1161639D01*
X1183089Y1162962D01*
X1183140Y1163221D01*
X1183399Y1164523D01*
X1183399Y1164523D01*
Y1169938D01*
X1183646Y1170103D01*
X1184973Y1172088D01*
X1185438Y1174429D01*
X1184973Y1176770D01*
X1183646Y1178754D01*
X1181662Y1180081D01*
X1179321Y1180546D01*
X1176980Y1180081D01*
X1174995Y1178754D01*
X1173669Y1176770D01*
X1173203Y1174429D01*
X1173669Y1172088D01*
X1174995Y1170103D01*
X1175242Y1169938D01*
Y1166212D01*
X1174186Y1165156D01*
X1174262Y1165539D01*
X1173796Y1167880D01*
X1172470Y1169864D01*
X1170486Y1171191D01*
X1168145Y1171656D01*
X1165804Y1171191D01*
X1163819Y1169864D01*
X1162493Y1167880D01*
X1162027Y1165539D01*
X1162493Y1163198D01*
X1163819Y1161213D01*
X1164066Y1161048D01*
Y1103220D01*
X1142579Y1081733D01*
X1123258D01*
X1130590Y1089065D01*
X1143385D01*
X1143452Y1089021D01*
X1145793Y1088555D01*
X1148134Y1089021D01*
X1150118Y1090347D01*
X1151444Y1092332D01*
X1151910Y1094673D01*
X1151444Y1097014D01*
X1150118Y1098998D01*
X1149871Y1099164D01*
Y1103417D01*
X1151269D01*
Y1116917D01*
X1137269D01*
Y1103417D01*
X1141714D01*
Y1100280D01*
X1128267D01*
X1126121Y1099854D01*
X1124301Y1098638D01*
X1116546Y1090882D01*
X1104427D01*
X1102613Y1092697D01*
Y1101673D01*
X1089113D01*
Y1097486D01*
X1086478D01*
X1086412Y1097531D01*
X1084071Y1097996D01*
X1082448Y1097673D01*
X1083145Y1098139D01*
X1083145Y1098139D01*
X1087717Y1102711D01*
X1087751Y1102763D01*
X1091833D01*
Y1116263D01*
X1077833D01*
Y1106297D01*
X1077268Y1106675D01*
X1074927Y1107140D01*
X1072586Y1106675D01*
X1070601Y1105348D01*
X1069275Y1103364D01*
X1068809Y1101023D01*
X1069275Y1098682D01*
X1070073Y1097486D01*
X1068614D01*
X1066310Y1099790D01*
Y1113856D01*
X1066355Y1113922D01*
X1066820Y1116263D01*
X1066355Y1118604D01*
X1066310Y1118670D01*
Y1141118D01*
X1068652Y1143459D01*
X1078087D01*
Y1142317D01*
X1092087D01*
Y1155817D01*
X1090813D01*
X1090484Y1157466D01*
X1089158Y1159450D01*
X1087174Y1160777D01*
X1084833Y1161242D01*
X1082492Y1160777D01*
X1080507Y1159450D01*
X1079320Y1157674D01*
X1079481Y1158483D01*
X1090332Y1169334D01*
X1109978D01*
X1109979Y1169334D01*
X1111539Y1169645D01*
X1111978Y1169938D01*
X1112862Y1170529D01*
X1112862Y1170529D01*
X1125892Y1183558D01*
X1135714D01*
X1135879Y1183311D01*
X1137864Y1181985D01*
X1140205Y1181519D01*
X1142546Y1181985D01*
X1144530Y1183311D01*
X1145856Y1185296D01*
X1146322Y1187637D01*
X1145856Y1189978D01*
X1144530Y1191962D01*
X1142546Y1193289D01*
X1140205Y1193754D01*
X1137864Y1193289D01*
X1135879Y1191962D01*
X1135714Y1191715D01*
X1124203D01*
X1124203Y1191715D01*
X1122901Y1191456D01*
X1122642Y1191405D01*
X1121319Y1190520D01*
X1108289Y1177491D01*
X1088643D01*
X1088643Y1177491D01*
X1087341Y1177232D01*
X1087082Y1177181D01*
X1085759Y1176296D01*
X1074118Y1164656D01*
X1073403Y1164798D01*
X1071062Y1164333D01*
X1069077Y1163006D01*
X1067751Y1161022D01*
X1067285Y1158681D01*
X1067751Y1156340D01*
X1068863Y1154674D01*
X1066329D01*
X1064183Y1154248D01*
X1062363Y1153032D01*
X1056737Y1147406D01*
X1055522Y1145587D01*
X1055095Y1143441D01*
Y1118670D01*
X1055051Y1118604D01*
X1054585Y1116263D01*
X1055051Y1113922D01*
X1055095Y1113856D01*
Y1097467D01*
X1055522Y1095321D01*
X1056737Y1093501D01*
X1062325Y1087913D01*
X1064145Y1086698D01*
X1066291Y1086271D01*
X1081664D01*
X1081730Y1086227D01*
X1084071Y1085761D01*
X1086412Y1086227D01*
X1086478Y1086271D01*
X1093069D01*
X1093160Y1086289D01*
X1098139Y1081309D01*
X1099959Y1080094D01*
X1100759Y1079935D01*
X1100305Y1077655D01*
X1100771Y1075314D01*
X1102097Y1073329D01*
X1104082Y1072003D01*
X1106423Y1071537D01*
X1106714Y1071595D01*
X1109539Y1068771D01*
X1110862Y1067887D01*
X1111121Y1067835D01*
X1112423Y1067576D01*
X1112423Y1067576D01*
X1131917D01*
Y1062429D01*
X1113954D01*
X1107783Y1068600D01*
X1106459Y1069485D01*
X1106200Y1069536D01*
X1104899Y1069795D01*
X1104899Y1069795D01*
X1083896D01*
Y1073797D01*
X1061894D01*
Y1068525D01*
X1029626D01*
X998055Y1100097D01*
X996731Y1100981D01*
X995171Y1101291D01*
X995171Y1101291D01*
X981655D01*
Y1139074D01*
X981716Y1139115D01*
X983043Y1141100D01*
X983508Y1143441D01*
X983043Y1145782D01*
X981716Y1147766D01*
X979732Y1149093D01*
X977391Y1149558D01*
X975050Y1149093D01*
X973065Y1147766D01*
X971739Y1145782D01*
X971273Y1143441D01*
X971739Y1141100D01*
X973065Y1139115D01*
X973498Y1138825D01*
Y1097213D01*
Y1078514D01*
X959191Y1064207D01*
X946765D01*
Y1068849D01*
X931765D01*
Y1064207D01*
X927861D01*
X926300Y1063897D01*
X925244Y1063191D01*
X921127D01*
Y1066863D01*
X905127D01*
Y1051363D01*
X921127D01*
Y1055034D01*
X927861D01*
X929421Y1055345D01*
X930477Y1056050D01*
X931765D01*
Y1047849D01*
D02*
G37*
G36*
X553453Y1113753D02*
X569453D01*
Y1143753D01*
X567060D01*
Y1149712D01*
X578563D01*
Y1171714D01*
X559863D01*
Y1159293D01*
X557487Y1156918D01*
X556272Y1155099D01*
X555845Y1152953D01*
Y1143753D01*
X553453D01*
Y1136304D01*
X545395D01*
Y1140197D01*
X520895D01*
Y1121197D01*
X545395D01*
Y1125089D01*
X553453D01*
Y1113753D01*
D02*
G37*
%LPD*%
G36*
X1355598Y731418D02*
X1395984Y691032D01*
Y665632D01*
Y636676D01*
X1395730Y636422D01*
X1382776Y623468D01*
X1255522D01*
X1254760Y624230D01*
X1248410Y630580D01*
X1219962D01*
X1218946Y631596D01*
X1215644Y634898D01*
Y664362D01*
Y664870D01*
Y665378D01*
X1217676Y667410D01*
X1247140D01*
X1254506Y660044D01*
X1268222Y646328D01*
X1311402D01*
X1312418Y647344D01*
X1318260Y653186D01*
Y658520D01*
Y682904D01*
X1295400Y705764D01*
X1286764Y714400D01*
Y728370D01*
Y740308D01*
X1289812Y743356D01*
X1292098Y745642D01*
X1341374D01*
X1355598Y731418D01*
D02*
G37*
G36*
X1159002Y793648D02*
Y783996D01*
Y774344D01*
X1162304Y771042D01*
X1172718Y760628D01*
Y756310D01*
Y740562D01*
X1171448Y739292D01*
X1168654Y736498D01*
Y730910D01*
Y718718D01*
X1167130Y717194D01*
X1148080D01*
X1147826Y717448D01*
X1144778Y720496D01*
Y724814D01*
Y734974D01*
X1128522Y751230D01*
X1122172Y757580D01*
Y788568D01*
Y791616D01*
X1123950Y793394D01*
X1126998Y796442D01*
X1156208D01*
X1159002Y793648D01*
D02*
G37*
G36*
X1114298Y729894D02*
Y632104D01*
Y609244D01*
X1113028Y607974D01*
X1109855Y604801D01*
X996011D01*
X988568Y612244D01*
Y662584D01*
Y705764D01*
X1001268Y718464D01*
X1017778Y734974D01*
X1109218D01*
X1114298Y729894D01*
D02*
G37*
G36*
X924433Y718464D02*
Y658774D01*
Y613054D01*
X923163Y611784D01*
X916813Y605434D01*
X796163D01*
X794893Y606704D01*
X788543Y613054D01*
Y705764D01*
Y721004D01*
X791083Y723544D01*
X794893Y727354D01*
X915543D01*
X924433Y718464D01*
D02*
G37*
G36*
X1363218Y1016406D02*
X1363472Y1016152D01*
Y1005738D01*
Y943009D01*
X1343650Y934799D01*
D01*
X1343635Y934836D01*
X1336257Y931346D01*
X1329257Y927150D01*
X1322702Y922289D01*
X1316655Y916808D01*
X1311174Y910761D01*
X1306312Y904206D01*
X1302117Y897205D01*
X1298627Y889828D01*
X1295878Y882143D01*
X1293895Y874227D01*
X1292697Y866154D01*
X1292297Y858002D01*
X1292337D01*
Y842670D01*
X1253998D01*
X1247394Y849274D01*
X1245362Y851306D01*
X1245362Y861212D01*
X1245870Y861720D01*
X1270508Y886358D01*
X1275588Y891438D01*
X1348232Y964082D01*
Y1007008D01*
Y1016406D01*
X1349248Y1017422D01*
X1349502Y1017676D01*
X1361948D01*
X1363218Y1016406D01*
D02*
G37*
G36*
X889508Y959764D02*
Y888644D01*
X885698Y884834D01*
X880618Y879754D01*
X801878D01*
X799338Y882294D01*
Y889914D01*
Y912774D01*
X813308Y926744D01*
X826008Y939444D01*
Y945794D01*
Y954684D01*
X832358Y961034D01*
X834898Y963574D01*
X885698D01*
X889508Y959764D01*
D02*
G37*
G36*
X875538Y850544D02*
Y762914D01*
Y743864D01*
X874268Y742594D01*
X870458Y738784D01*
X804418D01*
X801878Y741324D01*
X799338Y743864D01*
Y755294D01*
Y850544D01*
X801878Y853084D01*
X872998D01*
X875538Y850544D01*
D02*
G37*
G36*
X1233170Y848004D02*
X1252474Y828700D01*
X1280414D01*
X1280668Y828954D01*
X1295284Y828954D01*
Y821038D01*
X1295171D01*
X1295400Y816953D01*
Y816552D01*
X1295440Y816237D01*
X1295676Y812048D01*
X1297184Y803172D01*
X1299363Y795607D01*
X1300480Y790092D01*
Y780694D01*
Y769264D01*
X1298956Y767740D01*
X1242822D01*
X1242314Y768248D01*
X1238504Y772058D01*
X1220216D01*
X1214882Y766724D01*
Y760628D01*
Y752754D01*
X1216660Y750976D01*
X1237234Y730402D01*
Y727862D01*
Y719988D01*
X1236726Y719480D01*
X1234694Y717448D01*
X1218438D01*
X1217930Y717956D01*
X1216406Y719480D01*
Y720242D01*
Y735482D01*
X1213866Y738022D01*
X1210310Y741578D01*
X1182624D01*
X1182370Y741832D01*
X1180084Y744118D01*
Y756310D01*
X1181100Y757326D01*
X1201674D01*
X1202182Y757834D01*
X1205230Y760882D01*
Y762152D01*
Y769772D01*
X1205992Y770534D01*
X1212088Y776630D01*
Y795680D01*
Y804316D01*
X1212342Y804570D01*
X1204976Y811936D01*
X1186942D01*
X1183386Y815492D01*
Y844956D01*
Y850290D01*
X1183132Y850544D01*
X1185164Y852576D01*
X1228598D01*
X1233170Y848004D01*
D02*
G37*
%LPC*%
G36*
X806848Y640314D02*
X806723Y640262D01*
X806672Y640137D01*
X806584D01*
X806984Y638122D01*
X808126Y636414D01*
X809834Y635273D01*
X811848Y634872D01*
Y634960D01*
X811974Y635012D01*
X812025Y635137D01*
X811974Y635262D01*
X811848Y635314D01*
Y635335D01*
X810011Y635700D01*
X808453Y636741D01*
X807412Y638299D01*
X807047Y640137D01*
X807025D01*
X806973Y640262D01*
X806848Y640314D01*
D02*
G37*
G36*
X811848Y629402D02*
X809834Y629001D01*
X808126Y627859D01*
X806984Y626152D01*
X806584Y624137D01*
X806672D01*
X806723Y624012D01*
X806848Y623960D01*
X806973Y624012D01*
X807025Y624137D01*
X807047D01*
X807412Y625974D01*
X808453Y627532D01*
X810011Y628573D01*
X811848Y628939D01*
Y628960D01*
X811974Y629012D01*
X812025Y629137D01*
X811974Y629262D01*
X811848Y629314D01*
Y629402D01*
D02*
G37*
%LPD*%
D10*
X1683322Y912368D02*
X1701234Y930280D01*
X1683322Y912368D02*
X1608328D01*
X1118869Y1085275D02*
X1102105D01*
X1128267Y1094673D02*
X1118869Y1085275D01*
X1084833Y1155125D02*
Y1152585D01*
X687831Y1060129D02*
X683259D01*
X697611D02*
X687831D01*
X1102105Y1085275D02*
X1095863Y1091517D01*
X766553Y1213393D02*
Y1177713D01*
X721105Y1132265D01*
Y1120073D01*
X675893Y1094673D02*
X663193D01*
X692911Y1111691D02*
X675893Y1094673D01*
X692911Y1144711D02*
Y1111691D01*
X650239Y1230817D02*
Y1187383D01*
X692911Y1144711D02*
X650239Y1187383D01*
X673607Y1084259D02*
X663193Y1094673D01*
X685291Y1084259D02*
X673607D01*
X721105Y1120073D02*
X685291Y1084259D01*
X663193Y1094673D02*
X637793D01*
X683259Y1060129D02*
X663193Y1080195D01*
Y1094673D02*
Y1080195D01*
X1060703Y1116263D02*
Y1097467D01*
Y1143441D02*
Y1116263D01*
X534161Y1235643D02*
Y1210243D01*
X584453Y1128753D02*
Y1070753D01*
X637793Y1094673D02*
X608373D01*
X584453Y1070753D01*
X1194815Y1248597D02*
X1148841D01*
X1066291Y1091879D02*
X1060703Y1097467D01*
X1066329Y1149067D02*
X1060703Y1143441D01*
X1084071Y1091879D02*
X1066291D01*
X1085087Y1149067D02*
X1066329D01*
X1093069Y1091879D02*
X1084071D01*
X1095863Y1094673D02*
X1093069Y1091879D01*
X1145793Y1094673D02*
X1128267D01*
X534161Y1160713D02*
X533145Y1159697D01*
X534161Y1210243D02*
Y1160713D01*
X559509Y1130697D02*
X533145D01*
X561453Y1128753D02*
X559509Y1130697D01*
X561453Y1152953D02*
Y1128753D01*
X569213Y1160713D02*
X561453Y1152953D01*
X1189229Y780693D02*
X1190498Y779424D01*
X530098Y992134D02*
Y995634D01*
Y989134D02*
Y992134D01*
Y995634D02*
X553598Y1019134D01*
X1355598Y992134D02*
Y999134D01*
Y966734D02*
Y992134D01*
Y952906D02*
Y966734D01*
X585008Y959624D02*
X630548D01*
X580898Y963734D02*
X585008Y959624D01*
X827612Y994134D02*
X1073070D01*
X809752Y976274D02*
X827612Y994134D01*
X1073070D02*
X1111758Y955446D01*
X1130098Y984134D02*
X1175098D01*
X1144143Y998499D02*
X1153668D01*
X1129538Y983894D02*
X1144143Y998499D01*
X1201058Y974134D02*
X1209548Y982624D01*
X1146448Y974134D02*
X1201058D01*
X1135888Y963574D02*
X1146448Y974134D01*
X1275098D02*
X1287780Y961452D01*
Y936650D02*
Y961452D01*
X1078564Y1004134D02*
X1119124Y963574D01*
X815098Y1004134D02*
X1078564D01*
X807558Y996594D02*
X815098Y1004134D01*
X804418Y996594D02*
X807558D01*
X804418Y976274D02*
X809752D01*
X730711Y984386D02*
X739363Y993038D01*
X1125728Y884834D02*
X1135888Y894994D01*
X1125728Y875944D02*
Y884834D01*
Y875944D02*
Y875944D01*
X1119378Y925474D02*
Y935634D01*
X1111758Y943254D02*
X1119378Y935634D01*
X1111758Y943254D02*
Y955446D01*
X1119124Y963574D02*
X1129538D01*
X1272540Y879500D02*
Y921410D01*
X1272286Y879246D02*
X1272540Y879500D01*
X1260856Y711352D02*
X1267714Y718210D01*
X1212850Y711352D02*
X1260856D01*
X1203452Y720750D02*
X1212850Y711352D01*
X1236218Y895248D02*
Y901090D01*
X1301201Y912988D02*
X1325436Y937222D01*
X1301201Y900876D02*
Y912988D01*
X1276604Y883564D02*
X1283890D01*
X1271016Y879246D02*
X1272286D01*
X1283890Y883564D02*
X1301201Y900876D01*
X1129538Y947064D02*
Y963574D01*
X1135888D01*
X1105408Y875944D02*
X1125728D01*
X1135888Y894994D02*
X1151128D01*
X1121918Y855624D02*
X1146048Y879754D01*
X1105408Y855624D02*
X1121918D01*
X1105408Y845464D02*
Y855624D01*
X1092708Y832764D02*
X1105408Y845464D01*
X1059688Y832764D02*
X1092708D01*
X1048258Y821334D02*
X1059688Y832764D01*
X1039368Y821334D02*
X1048258D01*
X1039368D02*
Y841654D01*
X1201928Y936269D02*
X1210183Y928014D01*
X1191768Y946429D02*
X1201928Y936269D01*
X1210183Y928014D02*
X1236218D01*
X1256538Y893724D02*
X1271016Y879246D01*
X1256538Y893724D02*
Y901090D01*
X1190498Y779424D02*
X1192278D01*
X1271016Y857912D02*
Y879246D01*
X1211326Y748436D02*
X1223772Y735990D01*
X1209548Y750214D02*
X1211326Y748436D01*
X1209548Y767994D02*
X1223518Y781964D01*
X1209548Y750214D02*
Y767994D01*
X1223518Y781964D02*
X1227582D01*
X1203452Y720750D02*
Y726338D01*
X1267714Y718210D02*
Y730678D01*
X1267714Y779678D02*
X1268222Y780186D01*
Y810918D01*
X1227582Y781964D02*
Y812190D01*
X1208008Y831764D02*
X1227582Y812190D01*
X1203608Y831764D02*
X1208008D01*
X1280414Y779678D02*
X1293114D01*
X1267714D02*
X1280414D01*
X1255014D02*
X1267714D01*
X1229868D02*
X1255014D01*
X1227582Y781964D02*
X1229868Y779678D01*
X1187558Y748436D02*
X1211326D01*
X1223772Y726338D02*
Y735990D01*
X1180338Y726592D02*
X1180592Y726338D01*
X1203452D01*
X713486Y986942D02*
X716042Y984386D01*
X624840Y965332D02*
X630548Y959624D01*
X624840Y965332D02*
Y993546D01*
X774954Y988608D02*
Y995886D01*
X789732Y984386D02*
X797876Y992530D01*
X713486Y986942D02*
Y995886D01*
X669040Y967632D02*
Y993546D01*
Y967632D02*
X677048Y959624D01*
X1272540Y921410D02*
X1287780Y936650D01*
X1325436Y937222D02*
X1339914D01*
X1355598Y952906D01*
X1240098Y974134D02*
X1275098D01*
X553598Y1019134D02*
X1195098D01*
X1240098Y974134D01*
X716042Y984386D02*
X730711D01*
X739363Y993038D02*
X744728D01*
X774954Y988608D02*
X779176Y984386D01*
X789732D01*
X797876Y992530D02*
X806196D01*
X1268222Y855118D02*
X1271016Y857912D01*
D11*
X1584500Y1202896D02*
Y1248020D01*
X1610360Y1177036D02*
X1584500Y1202896D01*
X1610360Y1036320D02*
Y1177036D01*
X1532382Y1246702D02*
X1533700Y1248020D01*
X1532382Y1187704D02*
Y1246702D01*
X1549400Y1170686D02*
X1532382Y1187704D01*
X1549400Y1116584D02*
Y1170686D01*
X1592580Y1073404D02*
X1549400Y1116584D01*
X1592580Y1003300D02*
Y1073404D01*
X1574800Y985520D02*
X1592580Y1003300D01*
X1564140Y972320D02*
X1541000D01*
X1730920Y971460D02*
X1744980Y985520D01*
X1730920Y971460D02*
X1713760D01*
X1564140Y972320D02*
X1577340Y985520D01*
X1164492Y628294D02*
Y646956D01*
X1189738Y781202D02*
Y783740D01*
X1154608Y818870D02*
X1189738Y783740D01*
X1154608Y818870D02*
Y831764D01*
X1220216Y879246D02*
X1236218Y895248D01*
X1185164Y879246D02*
X1220216D01*
X1154608Y831764D02*
Y848690D01*
X1185164Y879246D01*
X1145538Y765456D02*
X1162558Y748436D01*
X1145538Y765456D02*
Y781202D01*
X1160018Y745896D02*
X1162558Y748436D01*
X1160018Y726592D02*
Y745896D01*
X1162812Y648636D02*
X1177520D01*
X1140460D02*
X1162812D01*
X1177520D02*
X1178558Y647598D01*
X1162812Y648636D02*
X1164492Y646956D01*
X1101039Y619636D02*
X1140460D01*
X1088546Y632129D02*
X1101039Y619636D01*
X1143098Y701348D02*
Y703294D01*
Y701348D02*
X1152652Y691794D01*
X1190748D01*
X1234948D02*
X1234950D01*
D12*
X1109363Y1094673D02*
D03*
X1095863D02*
D03*
D13*
X1084833Y1123013D02*
D03*
Y1109513D02*
D03*
X1085087Y1135567D02*
D03*
Y1149067D02*
D03*
X1144269Y1123667D02*
D03*
Y1110167D02*
D03*
D14*
X713611Y1060129D02*
D03*
X697611D02*
D03*
X913127Y1059113D02*
D03*
X897127D02*
D03*
D15*
X663193Y1114993D02*
D03*
Y1094673D02*
D03*
X637793Y1114993D02*
D03*
Y1094673D02*
D03*
X1072895Y1044127D02*
D03*
Y1064447D02*
D03*
X805179Y1094419D02*
D03*
Y1114739D02*
D03*
X1227582Y761644D02*
D03*
Y781964D02*
D03*
X744728Y996594D02*
D03*
Y976274D02*
D03*
X804418Y996594D02*
D03*
Y976274D02*
D03*
X1080770Y854862D02*
D03*
Y875182D02*
D03*
X1039368Y861974D02*
D03*
Y841654D02*
D03*
X1080008Y793394D02*
D03*
Y813714D02*
D03*
X1105408Y875944D02*
D03*
Y855624D02*
D03*
X1129538Y983894D02*
D03*
Y963574D02*
D03*
X1039368Y801014D02*
D03*
Y821334D02*
D03*
D16*
X533145Y1130697D02*
D03*
Y1159697D02*
D03*
X1140460Y619636D02*
D03*
Y648636D02*
D03*
X1039114Y913326D02*
D03*
Y884326D02*
D03*
D17*
X584453Y1070753D02*
D03*
D18*
X561453Y1128753D02*
D03*
X584453Y1128753D02*
D03*
X607453Y1128753D02*
D03*
D19*
X589533Y1160713D02*
D03*
X569213D02*
D03*
X1236218Y901090D02*
D03*
X1256538D02*
D03*
X1203452Y726338D02*
D03*
X1223772D02*
D03*
X1160018Y726592D02*
D03*
X1180338D02*
D03*
X1151128Y894994D02*
D03*
X1171448D02*
D03*
X1236218Y928014D02*
D03*
X1256538D02*
D03*
X1171448Y922934D02*
D03*
X1151128D02*
D03*
X1236218Y953414D02*
D03*
X1256538D02*
D03*
D20*
X726439Y1039553D02*
D03*
X793901D02*
D03*
X994053D02*
D03*
X926591D02*
D03*
X1126743Y1039555D02*
D03*
X1194205D02*
D03*
D21*
X739113Y1058349D02*
D03*
X781125D02*
D03*
X981277D02*
D03*
X939265D02*
D03*
X1139417Y1058351D02*
D03*
X1181429D02*
D03*
D22*
X752093Y1078163D02*
X751839D01*
X752601Y1077655D02*
X752093Y1078163D01*
X1112423Y1071655D02*
X1106423Y1077655D01*
X1146143Y1071655D02*
X1112423D01*
X906907Y1044255D02*
X906525Y1043873D01*
X977577Y1143627D02*
X977391Y1143441D01*
X1109979Y1173413D02*
X1088643D01*
X1124203Y1187637D02*
X1109979Y1173413D01*
X1140205Y1187637D02*
X1124203D01*
X1073911Y1158681D02*
X1073403D01*
X1088643Y1173413D02*
X1073911Y1158681D01*
X1095863Y1094673D02*
Y1091517D01*
X1179321Y1164523D02*
X1172717Y1157919D01*
X1179321Y1174429D02*
Y1164523D01*
X1172717Y1098229D02*
X1146143Y1071655D01*
X1172717Y1157919D02*
Y1098229D01*
X1144269Y1077655D02*
X1115567D01*
X1168145Y1101531D02*
X1144269Y1077655D01*
X1168145Y1165539D02*
Y1101531D01*
X1145793Y1109125D02*
Y1094673D01*
X1137751Y1123667D02*
X1132043Y1129375D01*
X1144269Y1123667D02*
X1137751D01*
X1084833Y1129163D02*
Y1123013D01*
Y1135313D02*
Y1129163D01*
X1085045Y1129375D02*
X1084833Y1129163D01*
X1096043Y1129375D02*
X1085045D01*
X1085087Y1135567D02*
X1084833Y1135313D01*
Y1109513D02*
Y1105595D01*
Y1110783D02*
Y1109513D01*
X1109363Y1104055D02*
X1108043Y1105375D01*
X1109363Y1104055D02*
Y1094673D01*
X1080261Y1101023D02*
X1074927D01*
X1084833Y1105595D02*
X1080261Y1101023D01*
X621213Y1114993D02*
X607453Y1128753D01*
X637793Y1114993D02*
X621213D01*
X607453Y1142793D02*
X589533Y1160713D01*
X607453Y1142793D02*
Y1128753D01*
X993958Y1044050D02*
X993958D01*
X1139417Y1058351D02*
X1112265D01*
X1104899Y1065717D01*
X1074165D01*
X1072895Y1064447D01*
X906525Y1043873D02*
X901953D01*
X897127Y1048699D01*
Y1059113D02*
Y1048699D01*
X977577Y1076825D02*
X960881Y1060129D01*
X1072895Y1064447D02*
X1027937D01*
X805179Y1144457D02*
Y1114739D01*
X809751Y1149029D02*
X805179Y1144457D01*
Y1114739D02*
X790193D01*
X785621Y1110167D01*
X765301Y1150299D02*
Y1091543D01*
X759873Y1086115D01*
Y1084927D01*
X752601Y1077655D01*
X785621Y1089235D02*
X772358Y1075973D01*
X785621Y1110167D02*
Y1089235D01*
X772358Y1075973D02*
X772255D01*
X754631Y1058349D01*
X739113D01*
X715611D01*
X713721Y1060239D02*
X713611Y1060129D01*
X1027937Y1064447D02*
X995171Y1097213D01*
X977577D01*
X927861Y1059113D02*
X913127D01*
X805179Y1094419D02*
X795019D01*
X792733Y1092133D01*
X726439Y1039553D02*
X697735D01*
X697229Y1039047D01*
X781125Y1072905D02*
Y1058349D01*
X782573Y1074353D02*
X781125Y1072905D01*
X926845Y1050985D02*
X926083Y1051747D01*
X925829D01*
X961731Y1047849D02*
X960627Y1048953D01*
X987020Y1047849D02*
X961731D01*
X989393Y1050223D02*
X987020Y1047849D01*
X996187Y1050223D02*
X989393D01*
X945641Y1155633D02*
Y1077147D01*
X977577Y1097213D02*
Y1076825D01*
Y1143627D02*
Y1097213D01*
X960881Y1060129D02*
X927861D01*
X715611Y1058349D02*
X713721Y1060239D01*
X1145793Y1109125D02*
X1144293Y1110625D01*
X1072861Y1045721D02*
X993958Y1044050D01*
X663193Y1114993D02*
X637793D01*
X993958Y1044050D02*
X993758Y1044046D01*
D23*
X784454Y995886D02*
D03*
X774954D02*
D03*
X765454D02*
D03*
Y970886D02*
D03*
X774954D02*
D03*
X784454D02*
D03*
X722986D02*
D03*
X713486D02*
D03*
X703986D02*
D03*
Y995886D02*
D03*
X713486D02*
D03*
X722986D02*
D03*
D24*
X1255014Y730678D02*
D03*
X1267714D02*
D03*
X1293114D02*
D03*
X1255014Y779678D02*
D03*
X1267714D02*
D03*
X1280414D02*
D03*
X1293114D02*
D03*
D25*
X836930Y893288D02*
D03*
Y838788D02*
D03*
D26*
X1154608Y831764D02*
D03*
X1203608D02*
D03*
D27*
X1190750Y691286D02*
D03*
X1234950D02*
D03*
X1145538Y781202D02*
D03*
X1189738D02*
D03*
X1228598Y648614D02*
D03*
X1184398D02*
D03*
X669040Y993546D02*
D03*
X624840D02*
D03*
D28*
X1268222Y810918D02*
D03*
Y855118D02*
D03*
D29*
X1283716Y665124D02*
D03*
D30*
X1371346D02*
D03*
D31*
X1153668Y998499D02*
D03*
X1166368D02*
D03*
X1179068D02*
D03*
X1191768D02*
D03*
Y946429D02*
D03*
X1179068D02*
D03*
X1166368D02*
D03*
X1153668D02*
D03*
D32*
X1040848Y767994D02*
D03*
X1069848D02*
D03*
D33*
X731012Y970886D02*
X736400Y976274D01*
X722986Y970886D02*
X731012D01*
X1227582Y761644D02*
X1255014Y734212D01*
Y730678D02*
Y734212D01*
X784454Y970886D02*
X792988D01*
X774954Y959256D02*
Y970886D01*
X713486Y959510D02*
Y970886D01*
X792988D02*
X799425D01*
X736400Y976274D02*
X744728D01*
X804418Y975879D02*
Y976274D01*
X799425Y970886D02*
X804418Y975879D01*
D34*
X779098Y1009134D02*
X784454Y1003778D01*
X759098Y1009134D02*
X779098D01*
X784454Y995886D02*
Y1003778D01*
X1171448Y921664D02*
Y930554D01*
X722986Y995886D02*
Y1008684D01*
X828548Y838860D02*
X842518Y824890D01*
Y811174D02*
Y824890D01*
X828548Y893978D02*
X855040Y920470D01*
X1039114Y868578D02*
X1052830Y854862D01*
X1256538Y953414D02*
X1268222D01*
X1069848Y783234D02*
X1080008Y793394D01*
X1069848Y767994D02*
Y783234D01*
X842048Y772124D02*
X842518Y772594D01*
X1171448Y921664D02*
X1171448Y921664D01*
X1166368Y935634D02*
X1171448Y930554D01*
X1166368Y935634D02*
Y946429D01*
X1052830Y854862D02*
X1080770D01*
X1039114Y868578D02*
Y884326D01*
X1021563Y632129D02*
X1088546D01*
X1001048Y652644D02*
X1021563Y632129D01*
X1001048Y652644D02*
Y674637D01*
X1055549Y723887D02*
X1062307Y717129D01*
X1088546D01*
X1153668Y946429D02*
Y958494D01*
X1100328Y908964D02*
X1161288D01*
X1080770Y889406D02*
X1100328Y908964D01*
X1080770Y875182D02*
Y889406D01*
X1223518Y966114D02*
X1236218Y953414D01*
X1151128Y922934D02*
X1153668Y925474D01*
Y946429D01*
X1256538Y928014D02*
Y953414D01*
X1080008Y813714D02*
X1095248D01*
X1171448Y889914D01*
Y894994D01*
X1171448Y921664D02*
Y922934D01*
Y919124D02*
Y921664D01*
X1161288Y908964D02*
X1171448Y919124D01*
X1171448Y894994D02*
X1184148Y907694D01*
Y931824D01*
X1179068Y936904D02*
X1184148Y931824D01*
X1179068Y936904D02*
Y946429D01*
X1039114Y913326D02*
X1055040Y929252D01*
Y947066D01*
X695960Y983640D02*
X703986Y991666D01*
X695960Y957478D02*
Y983640D01*
Y957478D02*
X703326Y950112D01*
Y949858D02*
Y950112D01*
X722122Y941222D02*
X765302D01*
X703986Y959358D02*
X722122Y941222D01*
X703986Y959358D02*
Y970886D01*
Y991666D02*
Y995886D01*
X757682Y984910D02*
X765454Y992682D01*
X757682Y949858D02*
Y984910D01*
X765454Y992682D02*
Y995886D01*
Y941374D02*
Y970886D01*
X765302Y941222D02*
X765454Y941374D01*
X855040Y920470D02*
Y950366D01*
X828548Y893360D02*
Y893978D01*
X796798Y868832D02*
X827024D01*
X798068Y858926D02*
X826262D01*
X827024Y868832D02*
X836930Y878738D01*
Y893288D01*
X826262Y858926D02*
X836930Y848258D01*
Y838788D02*
Y848258D01*
X1039368Y801014D02*
X1054608D01*
X1062228Y793394D01*
X1080008D01*
X784098Y872896D02*
X798068Y858926D01*
X792988Y872642D02*
X796798Y868832D01*
X1001048Y674637D02*
Y691574D01*
X1033361Y723887D01*
X1055549D01*
X910049Y674637D02*
X935851D01*
X953008Y691794D01*
Y751484D01*
X969518Y767994D01*
X1040848D01*
X792988Y872642D02*
Y936904D01*
X765302Y941222D02*
X777748D01*
X784098Y934872D01*
Y872896D02*
Y934872D01*
X775208Y949604D02*
X780288D01*
X792988Y936904D01*
X1153668Y958494D02*
X1161288Y966114D01*
X1223518D01*
X842518Y772594D02*
Y811174D01*
D35*
X1360678Y665124D02*
X1371346D01*
X1295124Y730678D02*
X1360678Y665124D01*
X1293114Y730678D02*
X1295124D01*
X1338326Y632104D02*
X1371346Y665124D01*
X1262888Y632104D02*
X1338326D01*
X1246378Y648614D02*
X1262888Y632104D01*
X1228598Y648614D02*
X1246378D01*
D36*
X1234950Y691286D02*
X1256538D01*
X1257554D01*
X1265174Y683666D01*
X1283716Y665124D01*
D37*
X1735300Y1238020D02*
D03*
X1435300D02*
D03*
Y698020D02*
D03*
X1735300D02*
D03*
D38*
X1464800Y972320D02*
D03*
X1490200D02*
D03*
X1515600D02*
D03*
X1541000D02*
D03*
X1464800Y1048520D02*
D03*
X1490200D02*
D03*
X1515600D02*
D03*
X1637560Y971460D02*
D03*
X1662960D02*
D03*
X1688360D02*
D03*
X1713760D02*
D03*
X1637560Y1047660D02*
D03*
X1662960D02*
D03*
X1688360D02*
D03*
D39*
X1541000Y1048520D02*
D03*
X1713760Y1047660D02*
D03*
D40*
X1550900Y1198420D02*
D03*
X1462000D02*
D03*
X1460900Y1078420D02*
D03*
X1549800D02*
D03*
X1455420Y835660D02*
D03*
X1544320D02*
D03*
X1457800Y942980D02*
D03*
X1546700D02*
D03*
X1518920Y749300D02*
D03*
X1607820D02*
D03*
X1719580Y1107440D02*
D03*
X1630680D02*
D03*
Y1079500D02*
D03*
X1719580D02*
D03*
X1630520Y864240D02*
D03*
X1719420D02*
D03*
X1633060Y788040D02*
D03*
X1721960D02*
D03*
X1630520Y892180D02*
D03*
X1719420D02*
D03*
X1744980Y1036320D02*
D03*
Y985520D02*
D03*
X1610360D02*
D03*
Y1036320D02*
D03*
X1574800D02*
D03*
Y985520D02*
D03*
X1432900Y1037820D02*
D03*
Y987020D02*
D03*
D41*
X1685798Y1163193D02*
D03*
D42*
X1651762Y1163447D02*
D03*
D43*
X1526540Y913994D02*
D03*
Y864006D02*
D03*
X1701234Y749940D02*
D03*
X1651246D02*
D03*
X1470500Y914634D02*
D03*
Y864646D02*
D03*
X1471066Y795020D02*
D03*
X1521054D02*
D03*
X1651246Y930280D02*
D03*
X1701234D02*
D03*
X1703934Y825500D02*
D03*
X1653946D02*
D03*
X1584800Y1163554D02*
D03*
Y1113566D02*
D03*
X1526380D02*
D03*
Y1163554D02*
D03*
X1470900Y1113426D02*
D03*
Y1163414D02*
D03*
D44*
X1534160Y687578D02*
D03*
X1559560D02*
D03*
X1584960D02*
D03*
X1610360D02*
D03*
X1533700Y1248020D02*
D03*
X1559100D02*
D03*
X1584500D02*
D03*
X1609900D02*
D03*
X1334261Y1210243D02*
D03*
Y1235643D02*
D03*
X1359661Y1210243D02*
D03*
Y1235643D02*
D03*
X1385061Y1210243D02*
D03*
X534161D02*
D03*
Y1235643D02*
D03*
X559561Y1210243D02*
D03*
Y1235643D02*
D03*
X584961Y1210243D02*
D03*
X530098Y992134D02*
D03*
X555498Y966734D02*
D03*
Y992134D02*
D03*
X580898Y966734D02*
D03*
Y992134D02*
D03*
X1330198D02*
D03*
X1355598Y966734D02*
D03*
Y992134D02*
D03*
X1380998Y966734D02*
D03*
Y992134D02*
D03*
D45*
X1635760Y687578D02*
D03*
X1635300Y1248020D02*
D03*
X1385061Y1235643D02*
D03*
X584961D02*
D03*
X530098Y966734D02*
D03*
X1330198D02*
D03*
D46*
X1545590Y707390D02*
D03*
X1571498Y708660D02*
D03*
X1549400Y922020D02*
D03*
X1562100D02*
D03*
Y909320D02*
D03*
X1549400D02*
D03*
X1701800Y858520D02*
D03*
X1663700Y896620D02*
D03*
X1676400Y871220D02*
D03*
Y845820D02*
D03*
X1651000D02*
D03*
Y871220D02*
D03*
Y896620D02*
D03*
X1435100Y947420D02*
D03*
Y922020D02*
D03*
Y896620D02*
D03*
Y871220D02*
D03*
Y845820D02*
D03*
Y820420D02*
D03*
Y795020D02*
D03*
Y769620D02*
D03*
Y744220D02*
D03*
X1651000Y706120D02*
D03*
X1701800D02*
D03*
X1676400D02*
D03*
X1714500Y693420D02*
D03*
X1689100D02*
D03*
X1663700D02*
D03*
X1714500Y718820D02*
D03*
X1689100D02*
D03*
X1663700D02*
D03*
X1752600Y1201420D02*
D03*
Y1176020D02*
D03*
Y1150620D02*
D03*
Y1125220D02*
D03*
Y1099820D02*
D03*
Y1074420D02*
D03*
X1663700Y1137920D02*
D03*
X1689100Y1112520D02*
D03*
X1435100Y1010920D02*
D03*
X1511300D02*
D03*
X1485900D02*
D03*
X1460500D02*
D03*
X1498600Y896620D02*
D03*
X1511300Y883920D02*
D03*
X1485900D02*
D03*
X1511300Y807720D02*
D03*
Y833120D02*
D03*
X1485900D02*
D03*
Y807720D02*
D03*
X1511300Y769620D02*
D03*
X1485900D02*
D03*
X1460500D02*
D03*
X1485900Y744220D02*
D03*
X1460500D02*
D03*
Y718820D02*
D03*
X1485900D02*
D03*
X1511300D02*
D03*
X1638300Y820420D02*
D03*
Y769620D02*
D03*
Y718820D02*
D03*
X1612900D02*
D03*
Y871220D02*
D03*
Y845820D02*
D03*
Y820420D02*
D03*
Y795020D02*
D03*
Y769620D02*
D03*
X701547Y1112453D02*
D03*
X702817Y1135313D02*
D03*
X711707Y1125915D02*
D03*
X1205737Y1219133D02*
D03*
X1155191Y1185351D02*
D03*
X960627Y1048953D02*
D03*
X866393Y1041333D02*
D03*
X889253D02*
D03*
X1018793Y1125153D02*
D03*
X1031493D02*
D03*
X1044193D02*
D03*
X1072133Y1121343D02*
D03*
Y1111183D02*
D03*
X751839Y1078163D02*
D03*
X1108201Y1052001D02*
D03*
X1106423Y1077655D02*
D03*
X1245615Y1240723D02*
D03*
X1206753Y1186113D02*
D03*
X1181353D02*
D03*
X952753Y1173413D02*
D03*
X965453D02*
D03*
X978153D02*
D03*
X990853D02*
D03*
X1003553D02*
D03*
X1016253D02*
D03*
X1028953D02*
D03*
X940053D02*
D03*
X1018793Y1092133D02*
D03*
Y1104833D02*
D03*
X1031493Y1079433D02*
D03*
X1044193D02*
D03*
X1245869Y1227769D02*
D03*
X1229613Y1193733D02*
D03*
X1242313D02*
D03*
X1255013D02*
D03*
X1267713D02*
D03*
X1280413D02*
D03*
X1293113D02*
D03*
X1305813D02*
D03*
X1318513D02*
D03*
X1382013D02*
D03*
Y1181033D02*
D03*
Y1168333D02*
D03*
X1394713Y1193733D02*
D03*
Y1181033D02*
D03*
Y1168333D02*
D03*
X1216913Y1155633D02*
D03*
X1229613D02*
D03*
X1242313D02*
D03*
X1255013D02*
D03*
X1267713D02*
D03*
X1280413D02*
D03*
X1293113D02*
D03*
X1305813D02*
D03*
X1318513D02*
D03*
X1331213D02*
D03*
X1343913D02*
D03*
X1356613D02*
D03*
X1369313D02*
D03*
X1382013D02*
D03*
X1394713D02*
D03*
X1216913Y1142933D02*
D03*
X1229613D02*
D03*
X1242313D02*
D03*
X1255013D02*
D03*
X1267713D02*
D03*
X1280413D02*
D03*
X1293113D02*
D03*
X1305813D02*
D03*
X1318513D02*
D03*
X1331213D02*
D03*
X1343913D02*
D03*
X1356613D02*
D03*
X1369313D02*
D03*
X1382013D02*
D03*
X1394713D02*
D03*
X1194053Y1112453D02*
D03*
Y1097213D02*
D03*
Y1081973D02*
D03*
X985773Y1089593D02*
D03*
Y1076893D02*
D03*
X995933Y1069273D02*
D03*
X1011173D02*
D03*
X1013713Y1051493D02*
D03*
X1026413D02*
D03*
X1122933D02*
D03*
X1194053Y1066733D02*
D03*
Y1054033D02*
D03*
X1155953Y1173413D02*
D03*
X1031493Y1104833D02*
D03*
Y1092133D02*
D03*
X1044193D02*
D03*
Y1104833D02*
D03*
X828293Y1173413D02*
D03*
X856233D02*
D03*
X881633D02*
D03*
X904493D02*
D03*
X927353D02*
D03*
X828293Y1158173D02*
D03*
X856233D02*
D03*
X881633D02*
D03*
X904493D02*
D03*
X927353D02*
D03*
X906525Y1043873D02*
D03*
X765301Y1150299D02*
D03*
X945641Y1077147D02*
D03*
Y1155633D02*
D03*
X1084833Y1155125D02*
D03*
X977391Y1143441D02*
D03*
X1073403Y1158681D02*
D03*
X687831Y1060129D02*
D03*
X721105Y1120073D02*
D03*
X1060703Y1116263D02*
D03*
X809751Y1149029D02*
D03*
X650239Y1230817D02*
D03*
X1148841Y1248597D02*
D03*
X1194815D02*
D03*
X1140205Y1187637D02*
D03*
X1179321Y1174429D02*
D03*
X1168145Y1165539D02*
D03*
X1115567Y1077655D02*
D03*
X1084071Y1091879D02*
D03*
X1074927Y1101023D02*
D03*
X1145793Y1094673D02*
D03*
X998473Y1081973D02*
D03*
X965453Y1087053D02*
D03*
X932433D02*
D03*
X919733Y1099753D02*
D03*
X896873Y1102293D02*
D03*
Y1092133D02*
D03*
X881633D02*
D03*
Y1102293D02*
D03*
X866393Y1092133D02*
D03*
Y1102293D02*
D03*
X851153D02*
D03*
Y1092133D02*
D03*
X833373D02*
D03*
Y1102293D02*
D03*
X818133Y1092133D02*
D03*
Y1102293D02*
D03*
X792733Y1092133D02*
D03*
Y1102293D02*
D03*
X777493Y1099753D02*
D03*
X754633D02*
D03*
X736853D02*
D03*
X719073D02*
D03*
X881633Y1069273D02*
D03*
X866393D02*
D03*
X851153D02*
D03*
X833373D02*
D03*
X881633Y1054033D02*
D03*
X866393D02*
D03*
X851153D02*
D03*
X833373D02*
D03*
X782573Y1074353D02*
D03*
X769873Y1081973D02*
D03*
X833373Y1041333D02*
D03*
X851153D02*
D03*
X747013Y1173413D02*
D03*
X726693Y1155633D02*
D03*
X736853Y1163253D02*
D03*
X726693Y1173413D02*
D03*
X713993Y1183573D02*
D03*
X724153Y1191193D02*
D03*
X774953Y1236913D02*
D03*
X762253D02*
D03*
X749553D02*
D03*
X736853D02*
D03*
X673353D02*
D03*
X660653Y1224213D02*
D03*
X797813Y1148013D02*
D03*
X780033D02*
D03*
X790193Y1158173D02*
D03*
X736853Y1079433D02*
D03*
X719073D02*
D03*
X706373Y1071813D02*
D03*
X1154683Y1216593D02*
D03*
Y1202623D02*
D03*
X1158493Y1259773D02*
D03*
X1139443D02*
D03*
X1205483Y1241993D02*
D03*
X1266443D02*
D03*
X1242313Y1206433D02*
D03*
X1233423Y1215323D02*
D03*
X1140713Y1085783D02*
D03*
X1159763Y1135313D02*
D03*
X1133093Y1163253D02*
D03*
X1124203Y1173413D02*
D03*
X678433Y1112453D02*
D03*
Y1130233D02*
D03*
X650493Y1113723D02*
D03*
Y1130233D02*
D03*
X595883Y1098483D02*
D03*
Y1109913D02*
D03*
X622553Y1106103D02*
D03*
X608583D02*
D03*
X571753Y1089593D02*
D03*
Y1107373D02*
D03*
X553973Y1089593D02*
D03*
Y1107373D02*
D03*
X536193Y1089593D02*
D03*
Y1107373D02*
D03*
X622553Y1120073D02*
D03*
Y1132773D02*
D03*
X650493Y1148013D02*
D03*
X635253Y1224213D02*
D03*
X609853Y1249613D02*
D03*
X635253D02*
D03*
Y1236913D02*
D03*
X609853D02*
D03*
Y1224213D02*
D03*
X622553D02*
D03*
Y1236913D02*
D03*
Y1249613D02*
D03*
X559053D02*
D03*
X546353D02*
D03*
X571753D02*
D03*
X597153D02*
D03*
X546353Y1224213D02*
D03*
Y1198813D02*
D03*
X635253Y1211513D02*
D03*
X660653Y1198813D02*
D03*
Y1211513D02*
D03*
X647953Y1249613D02*
D03*
X673353Y1046413D02*
D03*
X660653D02*
D03*
X647953D02*
D03*
X622553D02*
D03*
X597153D02*
D03*
X571753D02*
D03*
X533653D02*
D03*
X546353D02*
D03*
X533653Y1071813D02*
D03*
X622553Y1059113D02*
D03*
Y1071813D02*
D03*
X647953Y1059113D02*
D03*
Y1071813D02*
D03*
X622553Y1148013D02*
D03*
Y1160713D02*
D03*
Y1173413D02*
D03*
X711453Y1148013D02*
D03*
X698753Y1160713D02*
D03*
X693673Y1173413D02*
D03*
Y1186113D02*
D03*
Y1198813D02*
D03*
X1204213Y1165793D02*
D03*
Y1155633D02*
D03*
X1188973D02*
D03*
X1182877Y1039809D02*
D03*
X955293Y1102293D02*
D03*
X932433Y1099753D02*
D03*
X919733Y1087053D02*
D03*
X794257Y1074099D02*
D03*
X1002029Y1125153D02*
D03*
X1006093Y1104833D02*
D03*
X955293Y1087053D02*
D03*
X965453Y1102293D02*
D03*
X697229Y1039047D02*
D03*
X794765Y1049969D02*
D03*
X1194053Y1040571D02*
D03*
X957833Y1067495D02*
D03*
X926083Y1067241D02*
D03*
X925829Y1051747D02*
D03*
X996187Y1050223D02*
D03*
X759098Y1009134D02*
D03*
X722986Y1008684D02*
D03*
X1175098Y984134D02*
D03*
X1340358Y948334D02*
D03*
X1355598Y1011834D02*
D03*
X1281938Y892454D02*
D03*
X1259078Y846734D02*
D03*
X1281938D02*
D03*
X1271778Y854354D02*
D03*
X1281938Y861974D02*
D03*
X1259078D02*
D03*
X1129538Y947064D02*
D03*
X1209548Y982624D02*
D03*
X1146048Y879754D02*
D03*
X1119378Y925474D02*
D03*
X1201928Y936269D02*
D03*
X1125728Y875944D02*
D03*
X784098Y983640D02*
D03*
X724154D02*
D03*
X703326Y949858D02*
D03*
X713486Y959510D02*
D03*
X774954Y959256D02*
D03*
X792988Y970886D02*
D03*
X731012Y970940D02*
D03*
X757682Y949858D02*
D03*
X775208Y949604D02*
D03*
X803148Y849274D02*
D03*
X815848D02*
D03*
X828548D02*
D03*
X841248D02*
D03*
X853948D02*
D03*
X866648D02*
D03*
X803148Y836574D02*
D03*
X815848D02*
D03*
X828548D02*
D03*
X841248D02*
D03*
X853948D02*
D03*
X866648D02*
D03*
X803148Y823874D02*
D03*
X828548D02*
D03*
X815848D02*
D03*
X841248D02*
D03*
X853948D02*
D03*
X866648D02*
D03*
X803148Y811174D02*
D03*
X815848D02*
D03*
X828548D02*
D03*
X842518D02*
D03*
X853948D02*
D03*
X866648D02*
D03*
X803148Y798474D02*
D03*
X815848D02*
D03*
X828548D02*
D03*
X853948D02*
D03*
X866648D02*
D03*
X803148Y785774D02*
D03*
Y773074D02*
D03*
Y760374D02*
D03*
Y747674D02*
D03*
X815848D02*
D03*
Y760374D02*
D03*
Y773074D02*
D03*
Y785774D02*
D03*
X828548D02*
D03*
Y773074D02*
D03*
Y760374D02*
D03*
Y747674D02*
D03*
X853948D02*
D03*
Y760374D02*
D03*
Y773074D02*
D03*
Y785774D02*
D03*
X866648D02*
D03*
Y773074D02*
D03*
Y760374D02*
D03*
Y747674D02*
D03*
X790448Y709574D02*
D03*
Y696874D02*
D03*
Y684174D02*
D03*
Y671474D02*
D03*
Y658774D02*
D03*
Y646074D02*
D03*
Y633374D02*
D03*
Y620674D02*
D03*
X803148Y696874D02*
D03*
X815848D02*
D03*
X828548D02*
D03*
X841248D02*
D03*
X853948D02*
D03*
Y684174D02*
D03*
Y671474D02*
D03*
Y658774D02*
D03*
Y646074D02*
D03*
Y633374D02*
D03*
Y620674D02*
D03*
Y607974D02*
D03*
X841248D02*
D03*
Y620674D02*
D03*
X828548D02*
D03*
Y607974D02*
D03*
X815848Y620674D02*
D03*
Y607974D02*
D03*
X841248Y646074D02*
D03*
X828548D02*
D03*
X815848D02*
D03*
X841248Y658774D02*
D03*
X828548D02*
D03*
X815848D02*
D03*
X841248Y671474D02*
D03*
X828548D02*
D03*
X815848D02*
D03*
X841248Y684174D02*
D03*
X828548D02*
D03*
X815848D02*
D03*
X803148D02*
D03*
X853948Y709574D02*
D03*
X803148D02*
D03*
X815848D02*
D03*
X828548D02*
D03*
X841248D02*
D03*
X1256538Y691286D02*
D03*
X1275588Y675538D02*
D03*
X1265174Y683666D02*
D03*
X774954Y984402D02*
D03*
X1199388Y982624D02*
D03*
X1218184Y982878D02*
D03*
X1268222Y953414D02*
D03*
D47*
X1608328Y912368D02*
D03*
D48*
X1108043Y1129375D02*
D03*
X1120043D02*
D03*
X1108043Y1117375D02*
D03*
X1120043D02*
D03*
D49*
X766553Y1213393D02*
D03*
D50*
X751553D02*
D03*
X736553D02*
D03*
X721553D02*
D03*
X706553D02*
D03*
X691553D02*
D03*
D51*
X1096043Y1105375D02*
D03*
X1108043D02*
D03*
X1120043D02*
D03*
X1132043D02*
D03*
X1096043Y1117375D02*
D03*
X1108043D02*
D03*
X1120043D02*
D03*
X1132043D02*
D03*
X1096043Y1129375D02*
D03*
X1108043D02*
D03*
X1120043D02*
D03*
X1132043D02*
D03*
X1096043Y1141375D02*
D03*
X1108043D02*
D03*
X1120043D02*
D03*
X1132043D02*
D03*
D52*
X1055549Y723887D02*
D03*
X822551Y632129D02*
D03*
X822551Y717129D02*
D03*
X1088546D02*
D03*
X1088546Y632129D02*
D03*
D53*
X910049Y674637D02*
D03*
X1001048D02*
D03*
D54*
X932549Y830137D02*
D03*
X978549D02*
D03*
D55*
X955548Y961850D02*
D03*
D56*
X1055040Y947066D02*
D03*
D57*
X955040Y950366D02*
D03*
X855040D02*
D03*
D58*
X1220216Y879246D02*
D03*
X1271016D02*
D03*
D59*
X1162558Y748436D02*
D03*
D60*
X1187558D02*
D03*
D61*
X1143098Y703294D02*
D03*
X1165098Y628294D02*
D03*
D62*
X842048Y772124D02*
D03*
X804048Y641624D02*
D03*
D63*
X630548Y959624D02*
D03*
D64*
X677048D02*
D03*
D65*
X1245616Y992642D02*
D03*
M02*
