G04 Layer_Color=32896*
%FSLAX44Y44*%
%MOMM*%
G71*
G01*
G75*
%ADD22C,0.2000*%
%ADD34C,0.2540*%
%ADD77C,0.1778*%
%ADD79C,0.1270*%
%ADD80C,0.2500*%
%ADD81C,0.1524*%
%ADD82C,0.1000*%
%ADD142R,0.1524X1.0414*%
%ADD143R,0.7500X3.0000*%
D22*
X1648460Y674878D02*
Y700278D01*
X1521460D01*
X1648460Y674878D02*
X1521460D01*
Y700278D01*
X1648000Y1235320D02*
Y1260720D01*
X1521000D01*
X1648000Y1235320D02*
X1521000D01*
Y1260720D01*
X1202133Y1151553D02*
Y1149553D01*
X1196133Y1151553D02*
Y1149553D01*
X1175813Y1151553D02*
Y1149553D01*
X1181813Y1151553D02*
Y1149553D01*
X1089043Y1093375D02*
X1084043Y1098375D01*
X1144043Y1093375D02*
X1139043D01*
X1144043Y1098375D02*
Y1093375D01*
Y1153375D02*
Y1148375D01*
Y1153375D02*
X1139043D01*
X1089043D02*
X1084043D01*
Y1148375D01*
X1189973Y1104373D02*
X1187973D01*
X1189973Y1110373D02*
X1187973D01*
X1189973Y1086593D02*
X1187973D01*
X1189973Y1092593D02*
X1187973D01*
X1128473Y1070273D02*
Y1068273D01*
X1122473Y1070273D02*
Y1068273D01*
X1189973Y1068813D02*
X1187973D01*
X1189973Y1074813D02*
X1187973D01*
X1103467Y1065923D02*
X1101467D01*
X1103467Y1059923D02*
X1101467D01*
X1131787Y713554D02*
G03*
X1126258Y698194I21451J-16397D01*
G01*
X1180258D02*
G03*
X1154296Y725174I-27000J0D01*
G01*
X1174244Y615206D02*
G03*
X1180258Y632194I-20986J16988D01*
G01*
X1126258D02*
G03*
X1154257Y605213I27000J0D01*
G01*
X1275616Y759246D02*
Y779246D01*
Y794246D02*
Y814246D01*
Y829246D02*
Y849246D01*
X1265616Y749246D02*
Y859246D01*
X1285616D01*
X1205616Y749246D02*
X1285616D01*
X1205616D02*
Y879246D01*
X1285616Y749246D02*
Y879246D01*
X1193058Y768436D02*
Y788436D01*
Y803436D02*
Y818436D01*
Y833436D02*
Y853436D01*
X1180258Y632194D02*
Y698194D01*
X1126258Y632194D02*
Y698194D01*
D34*
X1482087Y1241303D02*
X1477008D01*
X1479547D01*
Y1253999D01*
X1477008Y1256538D01*
X1474469D01*
X1471930Y1253999D01*
X1487165Y1256538D02*
Y1241303D01*
X1494783D01*
X1497322Y1243842D01*
Y1248921D01*
X1494783Y1251460D01*
X1487165D01*
X1502400Y1256538D02*
X1507478D01*
X1504939D01*
Y1241303D01*
X1502400Y1243842D01*
X1480817Y677677D02*
X1475738D01*
X1478277D01*
Y690373D01*
X1475738Y692912D01*
X1473199D01*
X1470660Y690373D01*
X1485895Y692912D02*
Y677677D01*
X1493513D01*
X1496052Y680216D01*
Y685294D01*
X1493513Y687834D01*
X1485895D01*
X1511287Y692912D02*
X1501130D01*
X1511287Y682755D01*
Y680216D01*
X1508748Y677677D01*
X1503669D01*
X1501130Y680216D01*
X1253516Y879246D02*
X1258516D01*
X1233516D02*
X1238516D01*
X1246016Y864246D02*
X1253516D01*
X1246016Y894246D02*
X1253516D01*
X1246016Y864246D02*
Y894246D01*
X1238516Y864246D02*
Y894246D01*
X1253516Y864246D02*
Y894246D01*
X1220613Y839246D02*
Y852575D01*
X1227277Y845911D02*
X1213948D01*
X1155058Y765819D02*
X1165215D01*
X1160136Y760740D02*
Y770897D01*
D77*
X1152651Y1237929D02*
Y1229293D01*
Y1237929D02*
X1142491D01*
X1132331D01*
Y1229293D01*
Y1208973D02*
Y1200337D01*
X1142491D02*
X1132331D01*
X1152651D02*
X1142491D01*
X1152651Y1208973D02*
Y1200337D01*
X1157223Y1208973D02*
Y1200337D01*
X1167383D02*
X1157223D01*
X1177543D02*
X1167383D01*
X1177543Y1208973D02*
Y1200337D01*
Y1237929D02*
Y1229293D01*
Y1237929D02*
X1167383D01*
X1157223D01*
Y1229293D01*
X1202689Y1237929D02*
Y1229293D01*
Y1237929D02*
X1192529D01*
X1182369D01*
Y1229293D01*
Y1208973D02*
Y1200337D01*
X1192529D02*
X1182369D01*
X1202689D02*
X1192529D01*
X1202689Y1208973D02*
Y1200337D01*
X1180337Y1118227D02*
X1173737D01*
Y1132061D02*
Y1118227D01*
X1180337Y1132061D02*
X1173737D01*
X1204208D02*
X1197609D01*
X1204208D02*
Y1118227D01*
X1197609D01*
X1063115Y1073269D02*
X1056515D01*
Y1087104D02*
Y1073269D01*
X1063115Y1087104D02*
X1056515D01*
X1086986D02*
X1080387D01*
X1086986D02*
Y1073269D01*
X1080387D01*
X1086986Y1069848D02*
X1080387D01*
X1086986D02*
Y1056014D01*
X1080387D01*
X1063115D02*
X1056515D01*
Y1069848D02*
Y1056014D01*
X1063115Y1069848D02*
X1056515D01*
X737864Y1048258D02*
X731265D01*
X737864D02*
Y1034424D01*
X731265D01*
X713993D02*
X707393D01*
Y1048258D02*
Y1034424D01*
X713993Y1048258D02*
X707393D01*
X916685Y1048766D02*
X910085D01*
Y1034932D01*
X916685D02*
X910085D01*
X940556D02*
X933957D01*
X940556Y1048766D02*
Y1034932D01*
Y1048766D02*
X933957D01*
X1348993Y1163253D02*
Y1154617D01*
X1359153D02*
X1348993D01*
X1369313D02*
X1359153D01*
X1369313Y1163253D02*
Y1154617D01*
Y1192209D02*
Y1183573D01*
Y1192209D02*
X1359153D01*
X1348993D01*
Y1183573D01*
X1321815Y1163507D02*
Y1154871D01*
X1331975D02*
X1321815D01*
X1342135D02*
X1331975D01*
X1342135Y1163507D02*
Y1154871D01*
Y1192463D02*
Y1183827D01*
Y1192463D02*
X1331975D01*
X1321815D01*
Y1183827D01*
X1257553Y1208973D02*
Y1200337D01*
X1267713D02*
X1257553D01*
X1277873D02*
X1267713D01*
X1277873Y1208973D02*
Y1200337D01*
Y1237929D02*
Y1229293D01*
Y1237929D02*
X1267713D01*
X1257553D01*
Y1229293D01*
X1228851Y1238183D02*
Y1229547D01*
Y1238183D02*
X1218691D01*
X1208531D01*
Y1229547D01*
Y1209227D02*
Y1200591D01*
X1218691D02*
X1208531D01*
X1228851D02*
X1218691D01*
X1228851Y1209227D02*
Y1200591D01*
D79*
X945801Y1033193D02*
X943007D01*
Y1043353D02*
Y1033193D01*
X945801Y1043353D02*
X943007D01*
X974503Y1033193D02*
X969931D01*
X974757Y1043353D02*
X969169D01*
X969931D02*
X961041D01*
X969931Y1033193D02*
X961041D01*
X954691Y1043353D02*
X945801D01*
X954691Y1033193D02*
X945801D01*
X1154657Y1033049D02*
X1145767D01*
X1154657Y1043209D02*
X1145767D01*
X1169897Y1033049D02*
X1161007D01*
X1169897Y1043209D02*
X1161007D01*
X1174723D02*
X1169135D01*
X1174469Y1033049D02*
X1169897D01*
X1145767Y1043209D02*
X1142973D01*
Y1033049D01*
X1145767D02*
X1142973D01*
X745717D02*
X742923D01*
Y1043209D02*
Y1033049D01*
X745717Y1043209D02*
X742923D01*
X774419Y1033049D02*
X769847D01*
X774673Y1043209D02*
X769085D01*
X769847D02*
X760957D01*
X769847Y1033049D02*
X760957D01*
X754607Y1043209D02*
X745717D01*
X754607Y1033049D02*
X745717D01*
X1169725Y1100027D02*
X1163060Y1090031D01*
Y1100027D02*
X1169725Y1090031D01*
X1159728D02*
X1156396D01*
X1158062D01*
Y1100027D01*
X1159728Y1098361D01*
X1054353Y1096360D02*
Y1104691D01*
X1056019Y1106357D01*
X1059351D01*
X1061017Y1104691D01*
Y1096360D01*
X1064349Y1106357D02*
X1067682D01*
X1066016D01*
Y1096360D01*
X1064349Y1098026D01*
X682243Y1046413D02*
Y1036416D01*
X687241D01*
X688907Y1038082D01*
Y1041414D01*
X687241Y1043080D01*
X682243D01*
X685575D02*
X688907Y1046413D01*
X698904Y1036416D02*
X695572Y1038082D01*
X692239Y1041414D01*
Y1044747D01*
X693906Y1046413D01*
X697238D01*
X698904Y1044747D01*
Y1043080D01*
X697238Y1041414D01*
X692239D01*
X743203Y1048862D02*
Y1058859D01*
X749867D01*
X759864Y1048862D02*
X753199D01*
Y1058859D01*
X759864D01*
X753199Y1053860D02*
X756532D01*
X763196Y1048862D02*
Y1058859D01*
X768195D01*
X769861Y1057193D01*
Y1050528D01*
X768195Y1048862D01*
X763196D01*
X779857Y1058859D02*
X773193D01*
X779857Y1052194D01*
Y1050528D01*
X778191Y1048862D01*
X774859D01*
X773193Y1050528D01*
X1231391Y1120490D02*
Y1130487D01*
X1238055D01*
X1241387Y1122156D02*
X1243054Y1120490D01*
X1246386D01*
X1248052Y1122156D01*
Y1123822D01*
X1246386Y1125488D01*
X1244720D01*
X1246386D01*
X1248052Y1127154D01*
Y1128821D01*
X1246386Y1130487D01*
X1243054D01*
X1241387Y1128821D01*
X1034795Y1075024D02*
Y1085021D01*
X1041459D01*
X1051456D02*
X1044791D01*
X1051456Y1078356D01*
Y1076690D01*
X1049790Y1075024D01*
X1046458D01*
X1044791Y1076690D01*
X1036221Y1058546D02*
Y1068543D01*
X1042885D01*
X1046217D02*
X1049550D01*
X1047884D01*
Y1058546D01*
X1046217Y1060212D01*
X1217623Y1144517D02*
X1219289Y1142851D01*
Y1139519D01*
X1217623Y1137853D01*
X1210959D01*
X1209293Y1139519D01*
Y1142851D01*
X1210959Y1144517D01*
X1209293Y1147850D02*
Y1151182D01*
Y1149516D01*
X1219289D01*
X1217623Y1147850D01*
X1209293Y1162845D02*
Y1156180D01*
X1215957Y1162845D01*
X1217623D01*
X1219289Y1161179D01*
Y1157846D01*
X1217623Y1156180D01*
X1166823Y1147057D02*
X1168489Y1145391D01*
Y1142059D01*
X1166823Y1140393D01*
X1160159D01*
X1158493Y1142059D01*
Y1145391D01*
X1160159Y1147057D01*
X1158493Y1150389D02*
Y1153722D01*
Y1152056D01*
X1168489D01*
X1166823Y1150389D01*
X1158493Y1158720D02*
Y1162052D01*
Y1160386D01*
X1168489D01*
X1166823Y1158720D01*
X1214687Y1104122D02*
X1213021Y1102456D01*
X1209689D01*
X1208023Y1104122D01*
Y1110787D01*
X1209689Y1112453D01*
X1213021D01*
X1214687Y1110787D01*
X1218019Y1112453D02*
X1221352D01*
X1219686D01*
Y1102456D01*
X1218019Y1104122D01*
X1226350D02*
X1228016Y1102456D01*
X1231348D01*
X1233015Y1104122D01*
Y1110787D01*
X1231348Y1112453D01*
X1228016D01*
X1226350Y1110787D01*
Y1104122D01*
X1214887Y1090262D02*
X1213221Y1088596D01*
X1209889D01*
X1208223Y1090262D01*
Y1096927D01*
X1209889Y1098593D01*
X1213221D01*
X1214887Y1096927D01*
X1218219D02*
X1219886Y1098593D01*
X1223218D01*
X1224884Y1096927D01*
Y1090262D01*
X1223218Y1088596D01*
X1219886D01*
X1218219Y1090262D01*
Y1091928D01*
X1219886Y1093594D01*
X1224884D01*
X1211535Y1067584D02*
X1209869Y1065918D01*
X1206537D01*
X1204871Y1067584D01*
Y1074249D01*
X1206537Y1075915D01*
X1209869D01*
X1211535Y1074249D01*
X1214867Y1065918D02*
X1221532D01*
Y1067584D01*
X1214867Y1074249D01*
Y1075915D01*
X1121460Y1047368D02*
X1119794Y1049034D01*
Y1052367D01*
X1121460Y1054033D01*
X1128124D01*
X1129791Y1052367D01*
Y1049034D01*
X1128124Y1047368D01*
X1129791Y1039037D02*
X1119794D01*
X1124792Y1044036D01*
Y1037371D01*
X1104102Y1053003D02*
X1105768Y1054669D01*
X1109100D01*
X1110767Y1053003D01*
Y1046339D01*
X1109100Y1044673D01*
X1105768D01*
X1104102Y1046339D01*
X1100770Y1053003D02*
X1099104Y1054669D01*
X1095771D01*
X1094105Y1053003D01*
Y1051337D01*
X1095771Y1049671D01*
X1097438D01*
X1095771D01*
X1094105Y1048005D01*
Y1046339D01*
X1095771Y1044673D01*
X1099104D01*
X1100770Y1046339D01*
X1178279Y1032958D02*
Y1042955D01*
X1184943D01*
X1194940Y1032958D02*
X1188275D01*
Y1042955D01*
X1194940D01*
X1188275Y1037956D02*
X1191608D01*
X1198272Y1032958D02*
Y1042955D01*
X1203271D01*
X1204937Y1041289D01*
Y1034624D01*
X1203271Y1032958D01*
X1198272D01*
X1208269Y1042955D02*
X1211601D01*
X1209935D01*
Y1032958D01*
X1208269Y1034624D01*
X919733Y1062669D02*
Y1052672D01*
X924731D01*
X926397Y1054338D01*
Y1057670D01*
X924731Y1059336D01*
X919733D01*
X923065D02*
X926397Y1062669D01*
X929729D02*
X933062D01*
X931396D01*
Y1052672D01*
X929729Y1054338D01*
X954023Y1046576D02*
Y1056573D01*
X960687D01*
X970684Y1046576D02*
X964019D01*
Y1056573D01*
X970684D01*
X964019Y1051574D02*
X967352D01*
X974016Y1046576D02*
Y1056573D01*
X979015D01*
X980681Y1054907D01*
Y1048242D01*
X979015Y1046576D01*
X974016D01*
X984013Y1048242D02*
X985679Y1046576D01*
X989011D01*
X990677Y1048242D01*
Y1049908D01*
X989011Y1051574D01*
X987345D01*
X989011D01*
X990677Y1053240D01*
Y1054907D01*
X989011Y1056573D01*
X985679D01*
X984013Y1054907D01*
X1304095Y1205529D02*
Y1198864D01*
X1302429Y1197198D01*
X1299097D01*
X1297431Y1198864D01*
Y1205529D01*
X1299097Y1207195D01*
X1302429D01*
X1300763Y1203862D02*
X1304095Y1207195D01*
X1302429D02*
X1304095Y1205529D01*
X1307427Y1207195D02*
X1310760D01*
X1309094D01*
Y1197198D01*
X1307427Y1198864D01*
X1224279Y1193225D02*
X1214282D01*
Y1188226D01*
X1215948Y1186560D01*
X1219280D01*
X1220946Y1188226D01*
Y1193225D01*
Y1189892D02*
X1224279Y1186560D01*
X1215948Y1183228D02*
X1214282Y1181562D01*
Y1178230D01*
X1215948Y1176563D01*
X1217614D01*
X1219280Y1178230D01*
Y1179896D01*
Y1178230D01*
X1220946Y1176563D01*
X1222613D01*
X1224279Y1178230D01*
Y1181562D01*
X1222613Y1183228D01*
Y1173231D02*
X1224279Y1171565D01*
Y1168233D01*
X1222613Y1166567D01*
X1215948D01*
X1214282Y1168233D01*
Y1171565D01*
X1215948Y1173231D01*
X1217614D01*
X1219280Y1171565D01*
Y1166567D01*
X1260601Y1169349D02*
X1270597D01*
Y1174347D01*
X1268931Y1176013D01*
X1265599D01*
X1263933Y1174347D01*
Y1169349D01*
Y1172681D02*
X1260601Y1176013D01*
Y1184344D02*
X1270597D01*
X1265599Y1179345D01*
Y1186010D01*
X1268931Y1189342D02*
X1270597Y1191008D01*
Y1194341D01*
X1268931Y1196007D01*
X1262267D01*
X1260601Y1194341D01*
Y1191008D01*
X1262267Y1189342D01*
X1268931D01*
X1382723Y1170171D02*
X1384389Y1168505D01*
Y1165173D01*
X1382723Y1163507D01*
X1376059D01*
X1374393Y1165173D01*
Y1168505D01*
X1376059Y1170171D01*
X1374393Y1180168D02*
Y1173503D01*
X1381057Y1180168D01*
X1382723D01*
X1384389Y1178502D01*
Y1175170D01*
X1382723Y1173503D01*
X1314905Y1167631D02*
X1316571Y1165965D01*
Y1162633D01*
X1314905Y1160967D01*
X1308241D01*
X1306575Y1162633D01*
Y1165965D01*
X1308241Y1167631D01*
X1306575Y1170964D02*
Y1174296D01*
Y1172630D01*
X1316571D01*
X1314905Y1170964D01*
X1306575Y1184293D02*
X1316571D01*
X1311573Y1179294D01*
Y1185959D01*
X1164132Y1187068D02*
X1162466Y1188734D01*
Y1192067D01*
X1164132Y1193733D01*
X1170797D01*
X1172463Y1192067D01*
Y1188734D01*
X1170797Y1187068D01*
X1172463Y1183736D02*
Y1180404D01*
Y1182070D01*
X1162466D01*
X1164132Y1183736D01*
X1162466Y1168741D02*
Y1175405D01*
X1167464D01*
X1165798Y1172073D01*
Y1170407D01*
X1167464Y1168741D01*
X1170797D01*
X1172463Y1170407D01*
Y1173739D01*
X1170797Y1175405D01*
X1150111Y1193733D02*
X1140114D01*
Y1188734D01*
X1141780Y1187068D01*
X1145112D01*
X1146778Y1188734D01*
Y1193733D01*
Y1190400D02*
X1150111Y1187068D01*
Y1177071D02*
Y1183736D01*
X1143446Y1177071D01*
X1141780D01*
X1140114Y1178737D01*
Y1182070D01*
X1141780Y1183736D01*
X1197101Y1193479D02*
X1187104D01*
Y1188480D01*
X1188770Y1186814D01*
X1192102D01*
X1193768Y1188480D01*
Y1193479D01*
Y1190146D02*
X1197101Y1186814D01*
Y1183482D02*
Y1180150D01*
Y1181816D01*
X1187104D01*
X1188770Y1183482D01*
X1197101Y1175151D02*
Y1171819D01*
Y1173485D01*
X1187104D01*
X1188770Y1175151D01*
X1175207Y813775D02*
X1176873Y812109D01*
Y808776D01*
X1175207Y807110D01*
X1168542D01*
X1166876Y808776D01*
Y812109D01*
X1168542Y813775D01*
X1166876Y823772D02*
Y817107D01*
X1173540Y823772D01*
X1175207D01*
X1176873Y822105D01*
Y818773D01*
X1175207Y817107D01*
X1166876Y827104D02*
Y830436D01*
Y828770D01*
X1176873D01*
X1175207Y827104D01*
X1244041Y817185D02*
X1245707Y815519D01*
Y812186D01*
X1244041Y810520D01*
X1237376D01*
X1235710Y812186D01*
Y815519D01*
X1237376Y817185D01*
X1235710Y827181D02*
Y820517D01*
X1242374Y827181D01*
X1244041D01*
X1245707Y825515D01*
Y822183D01*
X1244041Y820517D01*
X1235710Y835512D02*
X1245707D01*
X1240708Y830514D01*
Y837178D01*
X1191444Y615030D02*
X1201441D01*
Y620029D01*
X1199775Y621695D01*
X1196442D01*
X1194776Y620029D01*
Y615030D01*
Y618363D02*
X1191444Y621695D01*
X1201441Y625027D02*
X1194776D01*
X1191444Y628359D01*
X1194776Y631692D01*
X1201441D01*
X1191444Y635024D02*
Y638356D01*
Y636690D01*
X1201441D01*
X1199775Y635024D01*
D80*
X1073793Y1101375D02*
G03*
X1073793Y1101375I1250J0D01*
G01*
X1299683Y1238203D02*
G03*
X1299683Y1238203I1250J0D01*
G01*
D81*
X1204133Y1162303D02*
X1194133D01*
X1204133Y1138803D02*
X1194133Y1138803D01*
X1204133Y1148053D02*
Y1138803D01*
Y1162303D02*
Y1153053D01*
X1194133Y1148053D02*
Y1138803D01*
Y1162303D02*
Y1153053D01*
X1183813Y1138803D02*
X1173813D01*
X1183813Y1162303D02*
X1173813Y1162303D01*
Y1153053D01*
Y1148053D02*
Y1138803D01*
X1183813Y1162303D02*
Y1153053D01*
Y1148053D02*
Y1138803D01*
X1200723Y1112373D02*
Y1102373D01*
X1177223D02*
X1177223Y1112373D01*
X1186473Y1102373D02*
X1177223D01*
X1200723D02*
X1191473D01*
X1186473Y1112373D02*
X1177223D01*
X1200723D02*
X1191473D01*
X1200723Y1094593D02*
Y1084593D01*
X1177223D02*
X1177223Y1094593D01*
X1186473Y1084593D02*
X1177223D01*
X1200723D02*
X1191473D01*
X1186473Y1094593D02*
X1177223D01*
X1200723D02*
X1191473D01*
X1130473Y1081023D02*
X1120473D01*
X1130473Y1057523D02*
X1120473Y1057523D01*
X1130473Y1066773D02*
Y1057523D01*
Y1081023D02*
Y1071773D01*
X1120473Y1066773D02*
Y1057523D01*
Y1081023D02*
Y1071773D01*
X1200723Y1076813D02*
Y1066813D01*
X1177223D02*
X1177223Y1076813D01*
X1186473Y1066813D02*
X1177223D01*
X1200723D02*
X1191473D01*
X1186473Y1076813D02*
X1177223D01*
X1200723D02*
X1191473D01*
X1090717Y1067923D02*
Y1057923D01*
X1114217D02*
X1114217Y1067923D01*
X1104967D01*
X1099967D02*
X1090717D01*
X1114217Y1057923D02*
X1104967D01*
X1099967D02*
X1090717D01*
D82*
X1171694Y1086784D02*
G03*
X1171694Y1086784I500J0D01*
G01*
X1185058Y758436D02*
X1200058D01*
X1185058D02*
Y868436D01*
X1197058Y748436D02*
X1200058D01*
X1150058D02*
X1153058D01*
X1200058D02*
Y868436D01*
X1150058D02*
X1200058D01*
X1150058Y748436D02*
Y868436D01*
D142*
X943769Y1038400D02*
D03*
X1143735Y1038256D02*
D03*
X743685D02*
D03*
D143*
X1249766Y879246D02*
D03*
M02*
