M48
;Layer_Color=9474304
;FILE_FORMAT=4:4
METRIC,LZ
;TYPE=PLATED
T1F00S00C0.3000
T2F00S00C0.3300
T4F00S00C0.5999
T6F00S00C0.7000
T7F00S00C0.7500
T8F00S00C0.7874
T9F00S00C0.8000
T10F00S00C0.9000
T11F00S00C1.0160
T12F00S00C1.0668
T13F00S00C1.2000
T15F00S00C2.0000
T16F00S00C3.0000
%
T01
X016129Y0071882
X016383
X01651Y0070612
X016764
X017018
X017145Y0069342
X016891
X016637
Y0071882
X016891
X017145
X016383Y0076962
X016129
X015113
X014859
X014605
X014351
Y0074422
X014605
X014859
Y0071882
X014605
X015113
X0154559Y0070739
X01571498Y0070866
X01275588Y00675538
X01265174Y00683666
X01256538Y00691286
X00853948Y00696874
X00841248
X00828548
X00815848
X00803148
Y00684174
X00815848
Y00671474
Y00658774
Y00646074
X00828548
X00841248
X00853948
Y00658774
Y00671474
Y00684174
X00841248
Y00671474
Y00658774
X00828548
Y00671474
Y00684174
Y00709574
X00815848
X00803148
Y00747674
Y00760374
Y00773074
Y00785774
X00815848
Y00773074
Y00760374
Y00747674
X00828548
Y00760374
Y00773074
Y00785774
X00853948
Y00773074
Y00760374
Y00747674
X00866648
Y00760374
Y00773074
Y00785774
X00853948Y00709574
X00841248
X00853948Y00633374
Y00620674
Y00607974
X00841248
Y00620674
X00828548
Y00607974
X00815848
Y00620674
X00790448
Y00633374
Y00646074
Y00658774
Y00671474
Y00684174
Y00696874
Y00709574
X00775208Y00949604
X00774954Y00959256
Y00984402
X00784098Y0098364
X00792988Y00970886
X00757682Y00949858
X00731012Y0097094
X00724154Y0098364
X00722986Y01008684
X00759098Y01009134
X00751839Y01078163
X00736853Y01079433
X00719073
Y01099753
X00736853
X00754633
X00777493
X00792733Y01102293
Y01092133
X00782573Y01074353
X00769873Y01081973
X00765301Y01150299
X00780033Y01148013
X00790193Y01158173
X00747013Y01173413
X00736853Y01163253
X00726693Y01155633
Y01173413
X00713993Y01183573
X00693673Y01186113
Y01173413
X00698753Y01160713
X00711453Y01148013
X00702817Y01135313
X00711707Y01125915
X00721105Y01120073
X00701547Y01112453
X00678433
Y01130233
X00650493
Y01113723
X00622553Y01120073
Y01132773
Y01148013
Y01160713
Y01173413
X00650493Y01148013
X00622553Y01106103
X00608583
X00595883Y01109913
Y01098483
X00571753Y01089593
Y01107373
X00553973
Y01089593
X00536193
Y01107373
X00533653Y01071813
Y01046413
X00546353
X00571753
X00597153
X00622553
Y01059113
Y01071813
X00647953
Y01059113
Y01046413
X00660653
X00673353
X00687831Y01060129
X00706373Y01071813
X00697229Y01039047
X00703326Y00949858
X00713486Y0095951
X00794765Y01049969
X00794257Y01074099
X00818133Y01092133
Y01102293
X00833373
Y01092133
X00851153
Y01102293
X00866393
Y01092133
X00881633
Y01102293
X00896873
Y01092133
X00919733Y01087053
X00932433
Y01099753
X00919733
X00955293Y01102293
X00965453
Y01087053
X00955293
X00945641Y01077147
X00957833Y01067495
X00960627Y01048953
X00996187Y01050223
X01013713Y01051493
X01026413
X01031493Y01079433
X01044193
Y01092133
X01031493
X01018793
Y01104833
X01031493
X01044193
Y01125153
X01031493
X01018793
X01002029
X01006093Y01104833
X00998473Y01081973
X00995933Y01069273
X01011173
X00985773Y01076893
Y01089593
X00977391Y01143441
X00978153Y01173413
X00965453
X00952753
X00940053
X00927353
Y01158173
X00945641Y01155633
X00904493Y01158173
Y01173413
X00881633
Y01158173
X00856233
Y01173413
X00828293
Y01158173
X00809751Y01149029
X00797813Y01148013
X00833373Y01069273
Y01054033
Y01041333
X00851153
Y01054033
Y01069273
X00866393
X00881633
Y01054033
X00866393
Y01041333
X00889253
X00906525Y01043873
X00925829Y01051747
X00926083Y01067241
X00990853Y01173413
X01003553
X01016253
X01028953
X01073403Y01158681
X01084833Y01155125
X01072133Y01121343
Y01111183
X01074927Y01101023
X01084071Y01091879
X01106423Y01077655
X01115567
X01108201Y01052001
X01122933Y01051493
X01140713Y01085783
X01145793Y01094673
X01159763Y01135313
X01168145Y01165539
X01155953Y01173413
X01155191Y01185351
X01140205Y01187637
X01124203Y01173413
X01133093Y01163253
X01179321Y01174429
X01181353Y01186113
X01188973Y01155633
X01182877Y01039809
X01175098Y00984134
X01129538Y00947064
X01119378Y00925474
X01125728Y00875944
X01146048Y00879754
X00866648Y00849274
X00853948
X00841248
X00828548
X00815848
X00803148
Y00836574
X00815848
X00828548
X00841248
X00853948
X00866648
Y00823874
X00853948
X00841248
X00828548
X00815848
X00803148
Y00811174
X00815848
X00828548
Y00798474
X00815848
X00803148
X00853948
Y00811174
X00842518
X00866648
Y00798474
X01060703Y01116263
X01194053Y01112453
Y01097213
Y01081973
Y01066733
Y01054033
Y01040571
X01199388Y00982624
X01209548
X01218184Y00982878
X01201928Y00936269
X01268222Y00953414
X01281938Y00892454
Y00861974
Y00846734
X01271778Y00854354
X01259078Y00846734
Y00861974
X01340358Y00948334
X01355598Y01011834
X014351Y0101092
X014605
X014859
X015113
X015494Y0092202
X015621
Y0090932
X015494
X014986Y0089662
X015113Y0088392
X014859
Y0083312
X015113
Y0080772
X014859
X014351Y0082042
Y0084582
Y0087122
Y0089662
Y0092202
Y0094742
Y0079502
X01394713Y01142933
Y01155633
Y01168333
X01382013
Y01181033
X01394713
X01382013Y01155633
X01369313
X01356613
X01343913
X01331213
X01318513
X01305813
X01293113
X01280413
X01267713
X01255013
X01242313
X01229613
X01216913
Y01142933
X01229613
X01242313
X01255013
X01267713
X01280413
X01293113
X01305813
X01318513
X01331213
X01343913
X01356613
X01369313
X01382013
X01204213Y01155633
Y01165793
X01206753Y01186113
X016637Y0113792
X016891Y0111252
X017526Y0112522
Y0115062
Y0117602
Y0109982
Y0107442
X017018Y0085852
X016764Y0087122
Y0084582
X01651
Y0087122
Y0089662
X016637
X016129Y0087122
Y0084582
Y0082042
X016383
X016129Y0079502
X017526Y0120142
X01394713Y01193733
X01382013
X01318513
X01305813
X01293113
X01280413
X01267713
X01255013
X01242313
X01229613
X01242313Y01206433
X01233423Y01215323
X01245869Y01227769
X01245615Y01240723
X01266443Y01241993
X01205483
X01194815Y01248597
X01205737Y01219133
X01154683Y01216593
Y01202623
X01148841Y01248597
X01139443Y01259773
X01158493
X00774953Y01236913
X00762253
X00749553
X00736853
X00724153Y01191193
X00693673Y01198813
X00660653
Y01211513
Y01224213
X00650239Y01230817
X00635253Y01236913
Y01224213
X00622553
X00609853
Y01236913
Y01249613
X00622553
X00635253
X00647953
X00673353Y01236913
X00622553
X00597153Y01249613
X00571753
X00559053
X00546353
Y01224213
Y01198813
X00635253Y01211513
T02
X01096043Y01105375
X01108043
Y01117375
X01096043
Y01129375
X01108043
X01120043
Y01117375
Y01105375
X01132043
Y01117375
Y01129375
Y01141375
X01120043
X01108043
X01096043
T04
X01651246Y0074994
X01701234
X01521054Y0079502
X01471066
X014705Y00864646
Y00914634
X0152654Y00913994
Y00864006
X0152638Y01113566
Y01163554
X014709Y01163414
Y01113426
X015848Y01113566
Y01163554
X01651246Y0093028
X01701234
X01703934Y008255
X01653946
T06
X01108043Y01117375
Y01129375
X01120043
Y01117375
T07
X01162558Y00748436
X01187558
T08
X0160782Y007493
X0163306Y0078804
X0172196
X0151892Y007493
X0154432Y0083566
X0145542
X014578Y0094298
X014648Y0097232
X014902
X015156
X01541
X015467Y0094298
X015748Y0098552
Y0103632
X01541Y0104852
X015156
X014902
X014648
X014609Y0107842
X014329Y0103782
Y0098702
X015498Y0107842
X0163068Y010795
Y0110744
X0163756Y0104766
X0166296
X0168836
X0171376
X0171958Y010795
Y0110744
X0174498Y0103632
Y0098552
X0171376Y0097146
X0168836
X0166296
X0163756
X0161036Y0098552
Y0103632
X0163052Y0089218
Y0086424
X0171942
Y0089218
X015509Y0119842
X01462
T09
X01608328Y00912368
X00766553Y01213393
X00751553
X00736553
X00721553
X00706553
X00691553
T10
X0161036Y00687578
X0163576
X0158496
X0155956
X0153416
X00580898Y00966734
X00555498
X00530098
Y00992134
X00555498
X00580898
X01330198
Y00966734
X01355598
Y00992134
X01380998
Y00966734
X016099Y0124802
X016353
X015845
X015591
X015337
X01385061Y01235643
X01359661
X01334261
Y01210243
X01359661
X01385061
X00584961
X00559561
X00534161
Y01235643
X00559561
X00584961
T11
X01651762Y01163447
X01685798Y01163193
T12
X01165098Y00628294
X01143098Y00703294
T13
X01220216Y00879246
X01271016
T15
X01245616Y00992642
T16
X017353Y0069802
X014353
X017353Y0123802
X014353
M30
