G04 Layer_Color=16711935*
%FSLAX44Y44*%
%MOMM*%
G71*
G01*
G75*
%ADD82C,0.1000*%
%ADD144C,0.0127*%
%ADD145C,0.0130*%
D82*
X1765300Y668020D02*
X1405300D01*
Y1268020D01*
X1765300D02*
X1405300D01*
X1765300Y668020D02*
Y1268020D01*
D144*
X802052Y1247393D02*
G03*
X782052Y1267393I-20000J0D01*
G01*
X1137053D02*
G03*
X1117053Y1247393I0J-20000D01*
G01*
X534552Y1267393D02*
G03*
X514552Y1247393I0J-20000D01*
G01*
Y1052393D02*
G03*
X534552Y1032393I20000J0D01*
G01*
X1384553D02*
G03*
X1404553Y1052393I0J20000D01*
G01*
Y1247393D02*
G03*
X1384553Y1267393I-20000J0D01*
G01*
X802086Y1200426D02*
G03*
X807086Y1195426I5000J0D01*
G01*
X1112087D02*
G03*
X1117087Y1200426I0J5000D01*
G01*
X1384553Y1032393D02*
X534552D01*
X782052Y1267393D02*
X534552D01*
X802052Y1247393D02*
Y1205393D01*
X1107053Y1195393D02*
X812052D01*
X1384553Y1267393D02*
X1137053D01*
X514552Y1247393D02*
Y1052393D01*
X1404553Y1247393D02*
Y1052393D01*
X1117053Y1247393D02*
Y1205393D01*
X1117087Y1247427D02*
Y1200426D01*
X802086Y1247427D02*
Y1200426D01*
X1112087Y1195426D02*
X807086D01*
X802054Y1247391D02*
Y1205391D01*
X1107054Y1195391D02*
X812054D01*
X1117054Y1247391D02*
Y1205391D01*
X978048Y934637D02*
G03*
X973048Y939637I-5000J0D01*
G01*
X938048D02*
G03*
X933048Y934637I0J-5000D01*
G01*
X933048Y898089D02*
G03*
X978048Y898089I22500J-23452D01*
G01*
X600831Y904117D02*
G03*
X566075Y931913I-65371J-46115D01*
G01*
X600831Y904117D02*
G03*
X614460Y908440I6129J4323D01*
G01*
X628585Y933020D02*
G03*
X614460Y918895I-7408J-6718D01*
G01*
X776460D02*
G03*
X762335Y933020I-6718J7408D01*
G01*
Y626020D02*
G03*
X776460Y640145I7408J6718D01*
G01*
X1250460Y619520D02*
G03*
X1240460Y619520I-5000J0D01*
G01*
X1385461Y604520D02*
G03*
X1405461Y624520I0J20000D01*
G01*
Y708656D02*
G03*
X1393114Y727134I-20000J0D01*
G01*
X1295460Y821038D02*
G03*
X1344846Y747128I80000J0D01*
G01*
Y931913D02*
G03*
X1295460Y858002I30615J-73910D01*
G01*
X1393114Y951906D02*
G03*
X1405461Y970384I-7654J18478D01*
G01*
X505460D02*
G03*
X517806Y951906I20000J0D01*
G01*
X933048Y898150D02*
G03*
X978048Y898150I22500J-23452D01*
G01*
X938048Y939698D02*
G03*
X933048Y934698I0J-5000D01*
G01*
X978048D02*
G03*
X973048Y939698I-5000J0D01*
G01*
X505460Y970384D02*
Y1032134D01*
X1405461D01*
X978048Y898089D02*
Y934637D01*
X938048Y939637D02*
X973048D01*
X933048Y898089D02*
Y934637D01*
X614460Y908440D02*
Y918895D01*
X628585Y933020D02*
X762335D01*
X776460Y640145D02*
Y918895D01*
X746460Y626020D02*
X762335D01*
X746460Y604520D02*
Y626020D01*
Y604520D02*
X1240460D01*
Y619520D01*
X1250460Y604520D02*
Y619520D01*
Y604520D02*
X1385461D01*
X1405461Y624520D02*
Y708656D01*
X1344846Y747128D02*
X1393114Y727134D01*
X1295460Y821038D02*
Y858002D01*
X1344846Y931913D02*
X1393114Y951906D01*
X1405461Y970384D02*
Y1032134D01*
X517806Y951906D02*
X566075Y931913D01*
X933048Y898150D02*
Y934698D01*
X938048Y939698D02*
X973048D01*
X978048Y898150D02*
Y934698D01*
D145*
X938048Y939698D02*
G03*
X933048Y934698I0J-5000D01*
G01*
X978048D02*
G03*
X973048Y939698I-5000J0D01*
G01*
X933048Y898150D02*
G03*
X978048Y898150I22500J-23452D01*
G01*
X1250460Y619520D02*
G03*
X1240460Y619520I-5000J0D01*
G01*
X1385461Y604520D02*
G03*
X1405461Y624520I0J20000D01*
G01*
Y708656D02*
G03*
X1393114Y727134I-20000J0D01*
G01*
X1295460Y821038D02*
G03*
X1344846Y747128I80000J0D01*
G01*
Y931913D02*
G03*
X1295460Y858002I30615J-73910D01*
G01*
X1393114Y951906D02*
G03*
X1405461Y970384I-7654J18478D01*
G01*
X505460D02*
G03*
X517806Y951906I20000J0D01*
G01*
X600831Y904117D02*
G03*
X566075Y931913I-65371J-46115D01*
G01*
X600831Y904117D02*
G03*
X614460Y908440I6129J4323D01*
G01*
X628585Y933020D02*
G03*
X614460Y918895I-7408J-6718D01*
G01*
X776460D02*
G03*
X762335Y933020I-6718J7408D01*
G01*
Y626020D02*
G03*
X776460Y640145I7408J6718D01*
G01*
X933048Y898150D02*
Y934698D01*
X933048D02*
X933048D01*
X938048Y939698D02*
Y939698D01*
Y939698D02*
X973048D01*
Y939698D01*
X978048Y934698D02*
X978048D01*
X978048Y898150D02*
Y934698D01*
X1084580Y735482D02*
X1110234D01*
X1115822Y729894D01*
Y688746D02*
Y729894D01*
Y688746D02*
X1126744D01*
Y734212D01*
X1115822Y745134D02*
X1126744Y734212D01*
X1084580Y745134D02*
X1115822D01*
X1084580Y735482D02*
Y745134D01*
X976122Y643280D02*
Y711352D01*
X1010412Y745642D01*
X1048258D01*
Y735482D02*
Y745642D01*
X1016000Y735482D02*
X1048258D01*
X987044Y706526D02*
X1016000Y735482D01*
X987044Y643280D02*
Y706526D01*
X976122Y643280D02*
X987044D01*
X1013968Y935634D02*
X1024128D01*
Y959764D01*
X1029208Y964844D01*
X1080008D01*
X1085088Y959764D01*
Y935634D02*
Y959764D01*
Y935634D02*
X1095248D01*
Y964844D01*
X1085088Y975004D02*
X1095248Y964844D01*
X1024128Y975004D02*
X1085088D01*
X1013968Y964844D02*
X1024128Y975004D01*
X1013968Y935634D02*
Y964844D01*
X789178Y728624D02*
X874268D01*
Y738784D01*
X789178D02*
X874268D01*
X789178Y728624D02*
Y738784D01*
X801878Y931824D02*
X812038D01*
Y941984D01*
X822198Y952144D01*
X834898Y964844D01*
X885698D01*
X890778Y959764D01*
Y938174D02*
Y959764D01*
Y938174D02*
X900938D01*
Y963574D01*
X889508Y975004D02*
X900938Y963574D01*
X828548Y975004D02*
X889508D01*
X801878Y948334D02*
X828548Y975004D01*
X801878Y931824D02*
Y948334D01*
X746460Y604520D02*
Y626020D01*
Y604520D02*
X1240460D01*
Y619520D01*
X1240460D02*
X1240460D01*
X1250460Y604520D02*
Y619520D01*
Y604520D02*
X1385461D01*
X1405461Y624520D02*
Y708656D01*
X1393114Y727134D02*
Y727134D01*
X1344846Y747128D02*
X1393114Y727134D01*
X1344846Y747128D02*
Y747128D01*
X1295460Y821038D02*
Y858002D01*
X1344846Y931913D02*
Y931913D01*
X1393114Y951906D01*
Y951906D02*
Y951906D01*
X1405461Y970384D02*
Y1032134D01*
X505460D02*
X1405461D01*
X505460Y970384D02*
Y1032134D01*
X517806Y951906D02*
X517806Y951906D01*
X566075Y931913D01*
Y931913D02*
Y931913D01*
X600831Y904117D02*
X600831Y904117D01*
X614460Y908440D02*
Y918895D01*
X628585Y933020D02*
X762335D01*
X776460Y640145D02*
Y918895D01*
X746460Y626020D02*
X762335D01*
M02*
