G04 Layer_Color=128*
%FSLAX44Y44*%
%MOMM*%
G71*
G01*
G75*
%ADD12R,0.7500X0.8000*%
%ADD13R,0.8000X0.7500*%
%ADD14R,1.0000X0.9500*%
%ADD15R,1.6002X1.2700*%
%ADD66C,1.0000*%
%ADD67O,0.6500X0.2000*%
%ADD68O,0.2000X0.6500*%
%ADD69R,4.7000X4.7000*%
%ADD70R,1.3000X1.3000*%
%ADD71R,1.0000X1.0000*%
%ADD72R,1.2000X0.8500*%
%ADD73R,1.0000X0.8128*%
D12*
X1195723Y1107373D02*
D03*
X1182223D02*
D03*
X1195723Y1089593D02*
D03*
X1182223D02*
D03*
X1195723Y1071813D02*
D03*
X1182223D02*
D03*
X1095717Y1062923D02*
D03*
X1109217D02*
D03*
D13*
X1199133Y1157303D02*
D03*
Y1143803D02*
D03*
X1178813D02*
D03*
Y1157303D02*
D03*
X1125473Y1076023D02*
D03*
Y1062523D02*
D03*
D14*
X1180973Y1125153D02*
D03*
X1196973D02*
D03*
X1063751Y1080195D02*
D03*
X1079751D02*
D03*
Y1062923D02*
D03*
X1063751D02*
D03*
X730629Y1041333D02*
D03*
X714629D02*
D03*
X917321Y1041841D02*
D03*
X933321D02*
D03*
D15*
X1142491Y1229293D02*
D03*
Y1208973D02*
D03*
X1167383Y1208973D02*
D03*
Y1229293D02*
D03*
X1192529Y1229293D02*
D03*
Y1208973D02*
D03*
X1359153Y1163253D02*
D03*
Y1183573D02*
D03*
X1331975Y1163507D02*
D03*
Y1183827D02*
D03*
X1267713Y1208973D02*
D03*
Y1229293D02*
D03*
X1218691Y1229547D02*
D03*
Y1209227D02*
D03*
D66*
X1224279Y1123629D02*
D03*
D67*
X1083793Y1101375D02*
D03*
Y1105375D02*
D03*
Y1109375D02*
D03*
Y1113375D02*
D03*
Y1117375D02*
D03*
Y1121375D02*
D03*
Y1125375D02*
D03*
Y1129375D02*
D03*
Y1133375D02*
D03*
Y1137375D02*
D03*
Y1141375D02*
D03*
Y1145375D02*
D03*
X1144293D02*
D03*
Y1141375D02*
D03*
Y1137375D02*
D03*
Y1133375D02*
D03*
Y1129375D02*
D03*
Y1125375D02*
D03*
Y1121375D02*
D03*
Y1117375D02*
D03*
Y1113375D02*
D03*
Y1109375D02*
D03*
Y1105375D02*
D03*
Y1101375D02*
D03*
D68*
X1092043Y1153625D02*
D03*
X1096043D02*
D03*
X1100043D02*
D03*
X1104043D02*
D03*
X1108043D02*
D03*
X1112043D02*
D03*
X1116043D02*
D03*
X1120043D02*
D03*
X1124043D02*
D03*
X1128043D02*
D03*
X1132043D02*
D03*
X1136043D02*
D03*
Y1093125D02*
D03*
X1132043D02*
D03*
X1128043D02*
D03*
X1124043D02*
D03*
X1120043D02*
D03*
X1116043D02*
D03*
X1112043D02*
D03*
X1108043D02*
D03*
X1104043D02*
D03*
X1100043D02*
D03*
X1096043D02*
D03*
X1092043D02*
D03*
D69*
X1114043Y1123375D02*
D03*
D70*
X1163573Y1078163D02*
D03*
X1143873D02*
D03*
Y1055163D02*
D03*
D71*
X1163573D02*
D03*
D72*
X1315973Y1229293D02*
D03*
X1291027Y1238691D02*
D03*
X1290972Y1219793D02*
D03*
D73*
X950517Y1038273D02*
D03*
X968517D02*
D03*
X1168483Y1038129D02*
D03*
X1150483D02*
D03*
X750433D02*
D03*
X768433D02*
D03*
M02*
