G04 Layer_Color=8388736*
%FSLAX44Y44*%
%MOMM*%
G71*
G01*
G75*
%ADD88C,6.0000*%
%ADD89R,0.9532X1.0032*%
%ADD90R,1.0032X0.9532*%
%ADD91R,1.2032X1.1532*%
%ADD92R,1.8034X1.4732*%
%ADD93R,2.0532X1.5032*%
%ADD94R,3.5032X2.6032*%
%ADD95R,1.2032X2.6032*%
%ADD96R,1.4732X1.8034*%
%ADD97R,1.6532X1.0032*%
%ADD98R,1.1032X1.7032*%
%ADD99R,0.8032X1.4032*%
%ADD100R,0.8032X2.2032*%
%ADD101R,7.5532X2.6032*%
%ADD102R,3.7032X3.7032*%
%ADD103R,2.3622X2.9462*%
%ADD104R,2.9462X2.3622*%
%ADD105O,4.2672X1.7032*%
%ADD106R,4.2672X1.7032*%
%ADD107R,0.7112X1.7272*%
%ADD108R,1.5032X2.0532*%
%ADD109C,3.0020*%
%ADD110O,1.7272X2.4892*%
%ADD111R,1.7272X2.4892*%
%ADD112C,1.9812*%
%ADD113O,1.7272X2.7432*%
%ADD114R,1.7272X2.7432*%
%ADD115C,1.7272*%
%ADD116C,1.7032*%
%ADD117R,1.7032X1.7032*%
%ADD118R,1.2032X2.2032*%
%ADD119O,1.2032X2.2032*%
%ADD120O,4.7032X1.7032*%
%ADD121O,1.7032X4.7032*%
%ADD122O,2.2032X3.2032*%
%ADD123O,3.2032X2.2032*%
%ADD124O,6.2032X3.4032*%
%ADD125O,5.7032X1.7032*%
%ADD126C,2.2032*%
%ADD127R,1.4532X1.4532*%
%ADD128C,1.4532*%
%ADD129C,1.9032*%
%ADD130O,1.7032X6.7032*%
%ADD131O,5.2032X1.7032*%
%ADD132O,2.7032X1.7032*%
D88*
X855726Y921664D02*
Y929030D01*
X844296Y910234D02*
X855726Y921664D01*
X841756Y774852D02*
Y818032D01*
X838200Y821588D02*
X841756Y818032D01*
X819150Y636168D02*
Y660552D01*
Y636168D02*
X890016D01*
X890524Y636676D01*
X819150Y660552D02*
X820674Y662076D01*
D89*
X1109363Y1094673D02*
D03*
X1095863D02*
D03*
D90*
X1084833Y1123013D02*
D03*
Y1109513D02*
D03*
X1085087Y1135567D02*
D03*
Y1149067D02*
D03*
X1144269Y1123667D02*
D03*
Y1110167D02*
D03*
D91*
X713611Y1060129D02*
D03*
X697611D02*
D03*
X913127Y1059113D02*
D03*
X897127D02*
D03*
D92*
X663193Y1114993D02*
D03*
Y1094673D02*
D03*
X637793Y1114993D02*
D03*
Y1094673D02*
D03*
X1072895Y1044127D02*
D03*
Y1064447D02*
D03*
X805179Y1094419D02*
D03*
Y1114739D02*
D03*
X1227582Y761644D02*
D03*
Y781964D02*
D03*
X744728Y996594D02*
D03*
Y976274D02*
D03*
X804418Y996594D02*
D03*
Y976274D02*
D03*
X1080770Y854862D02*
D03*
Y875182D02*
D03*
X1039368Y861974D02*
D03*
Y841654D02*
D03*
X1080008Y793394D02*
D03*
Y813714D02*
D03*
X1105408Y875944D02*
D03*
Y855624D02*
D03*
X1129538Y983894D02*
D03*
Y963574D02*
D03*
X1039368Y801014D02*
D03*
Y821334D02*
D03*
D93*
X533145Y1130697D02*
D03*
Y1159697D02*
D03*
X1140460Y619636D02*
D03*
Y648636D02*
D03*
X1039114Y913326D02*
D03*
Y884326D02*
D03*
D94*
X584453Y1070753D02*
D03*
D95*
X561453Y1128753D02*
D03*
X584453Y1128753D02*
D03*
X607453Y1128753D02*
D03*
D96*
X589533Y1160713D02*
D03*
X569213D02*
D03*
X1236218Y901090D02*
D03*
X1256538D02*
D03*
X1203452Y726338D02*
D03*
X1223772D02*
D03*
X1160018Y726592D02*
D03*
X1180338D02*
D03*
X1151128Y894994D02*
D03*
X1171448D02*
D03*
X1236218Y928014D02*
D03*
X1256538D02*
D03*
X1171448Y922934D02*
D03*
X1151128D02*
D03*
X1236218Y953414D02*
D03*
X1256538D02*
D03*
D97*
X726439Y1039553D02*
D03*
X793901D02*
D03*
X994053D02*
D03*
X926591D02*
D03*
X1126743Y1039555D02*
D03*
X1194205D02*
D03*
D98*
X739113Y1058349D02*
D03*
X781125D02*
D03*
X981277D02*
D03*
X939265D02*
D03*
X1139417Y1058351D02*
D03*
X1181429D02*
D03*
D99*
X784454Y995886D02*
D03*
X774954D02*
D03*
X765454D02*
D03*
Y970886D02*
D03*
X774954D02*
D03*
X784454D02*
D03*
X722986D02*
D03*
X713486D02*
D03*
X703986D02*
D03*
Y995886D02*
D03*
X713486D02*
D03*
X722986D02*
D03*
D100*
X1255014Y730678D02*
D03*
X1267714D02*
D03*
X1293114D02*
D03*
X1255014Y779678D02*
D03*
X1267714D02*
D03*
X1280414D02*
D03*
X1293114D02*
D03*
D101*
X836930Y893288D02*
D03*
Y838788D02*
D03*
D102*
X1154608Y831764D02*
D03*
X1203608D02*
D03*
D103*
X1190750Y691286D02*
D03*
X1234950D02*
D03*
X1145538Y781202D02*
D03*
X1189738D02*
D03*
X1228598Y648614D02*
D03*
X1184398D02*
D03*
X669040Y993546D02*
D03*
X624840D02*
D03*
D104*
X1268222Y810918D02*
D03*
Y855118D02*
D03*
D105*
X1283716Y665124D02*
D03*
D106*
X1371346D02*
D03*
D107*
X1153668Y998499D02*
D03*
X1166368D02*
D03*
X1179068D02*
D03*
X1191768D02*
D03*
Y946429D02*
D03*
X1179068D02*
D03*
X1166368D02*
D03*
X1153668D02*
D03*
D108*
X1040848Y767994D02*
D03*
X1069848D02*
D03*
D109*
X1735300Y1238020D02*
D03*
X1435300D02*
D03*
Y698020D02*
D03*
X1735300D02*
D03*
D110*
X1464800Y972320D02*
D03*
X1490200D02*
D03*
X1515600D02*
D03*
X1541000D02*
D03*
X1464800Y1048520D02*
D03*
X1490200D02*
D03*
X1515600D02*
D03*
X1637560Y971460D02*
D03*
X1662960D02*
D03*
X1688360D02*
D03*
X1713760D02*
D03*
X1637560Y1047660D02*
D03*
X1662960D02*
D03*
X1688360D02*
D03*
D111*
X1541000Y1048520D02*
D03*
X1713760Y1047660D02*
D03*
D112*
X1550900Y1198420D02*
D03*
X1462000D02*
D03*
X1460900Y1078420D02*
D03*
X1549800D02*
D03*
X1455420Y835660D02*
D03*
X1544320D02*
D03*
X1457800Y942980D02*
D03*
X1546700D02*
D03*
X1518920Y749300D02*
D03*
X1607820D02*
D03*
X1719580Y1107440D02*
D03*
X1630680D02*
D03*
Y1079500D02*
D03*
X1719580D02*
D03*
X1630520Y864240D02*
D03*
X1719420D02*
D03*
X1633060Y788040D02*
D03*
X1721960D02*
D03*
X1630520Y892180D02*
D03*
X1719420D02*
D03*
X1744980Y1036320D02*
D03*
Y985520D02*
D03*
X1610360D02*
D03*
Y1036320D02*
D03*
X1574800D02*
D03*
Y985520D02*
D03*
X1432900Y1037820D02*
D03*
Y987020D02*
D03*
D113*
X1685798Y1163193D02*
D03*
D114*
X1651762Y1163447D02*
D03*
D115*
X1526540Y913994D02*
D03*
Y864006D02*
D03*
X1701234Y749940D02*
D03*
X1651246D02*
D03*
X1470500Y914634D02*
D03*
Y864646D02*
D03*
X1471066Y795020D02*
D03*
X1521054D02*
D03*
X1651246Y930280D02*
D03*
X1701234D02*
D03*
X1703934Y825500D02*
D03*
X1653946D02*
D03*
X1584800Y1163554D02*
D03*
Y1113566D02*
D03*
X1526380D02*
D03*
Y1163554D02*
D03*
X1470900Y1113426D02*
D03*
Y1163414D02*
D03*
D116*
X1534160Y687578D02*
D03*
X1559560D02*
D03*
X1584960D02*
D03*
X1610360D02*
D03*
X1533700Y1248020D02*
D03*
X1559100D02*
D03*
X1584500D02*
D03*
X1609900D02*
D03*
X1334261Y1210243D02*
D03*
Y1235643D02*
D03*
X1359661Y1210243D02*
D03*
Y1235643D02*
D03*
X1385061Y1210243D02*
D03*
X534161D02*
D03*
Y1235643D02*
D03*
X559561Y1210243D02*
D03*
Y1235643D02*
D03*
X584961Y1210243D02*
D03*
X530098Y992134D02*
D03*
X555498Y966734D02*
D03*
Y992134D02*
D03*
X580898Y966734D02*
D03*
Y992134D02*
D03*
X1330198D02*
D03*
X1355598Y966734D02*
D03*
Y992134D02*
D03*
X1380998Y966734D02*
D03*
Y992134D02*
D03*
D117*
X1635760Y687578D02*
D03*
X1635300Y1248020D02*
D03*
X1385061Y1235643D02*
D03*
X584961D02*
D03*
X530098Y966734D02*
D03*
X1330198D02*
D03*
D118*
X766553Y1213393D02*
D03*
D119*
X751553D02*
D03*
X736553D02*
D03*
X721553D02*
D03*
X706553D02*
D03*
X691553D02*
D03*
D120*
X1055549Y723887D02*
D03*
X822551Y632129D02*
D03*
X822551Y717129D02*
D03*
X1088546D02*
D03*
X1088546Y632129D02*
D03*
D121*
X910049Y674637D02*
D03*
X1001048D02*
D03*
D122*
X932549Y830137D02*
D03*
X978549D02*
D03*
D123*
X955548Y961850D02*
D03*
D124*
X1055040Y947066D02*
D03*
D125*
X955040Y950366D02*
D03*
X855040D02*
D03*
D126*
X1220216Y879246D02*
D03*
X1271016D02*
D03*
D127*
X1162558Y748436D02*
D03*
D128*
X1187558D02*
D03*
D129*
X1143098Y703294D02*
D03*
X1165098Y628294D02*
D03*
D130*
X842048Y772124D02*
D03*
X804048Y641624D02*
D03*
D131*
X630548Y959624D02*
D03*
D132*
X677048D02*
D03*
M02*
