M48
;Layer_Color=9474304
;FILE_FORMAT=4:4
METRIC,LZ
;TYPE=PLATED
T3F00S00C0.5000
T5F00S00C0.6000
T14F00S00C1.2500
%
G90
G05
T03
G00X00932549Y00834137
M15
G01Y00826137
M16
G00X00978549Y00834137
M15
G01Y00826137
M16
G00X00951548Y0096185
M15
G01X00959548
M16
T05
G00X00804048Y00619624
M15
G01Y00663624
M16
G00X00836551Y00632129
M15
G01X0080855
M16
G00X00836551Y00717129
M15
G01X0080855
M16
G00X00842048Y00750124
M15
G01Y00794124
M16
G00X00910049Y00688637
M15
G01Y00660637
M16
G00X01001048Y00688637
M15
G01Y00660637
M16
G00X01041549Y00723887
M15
G01X01069549
M16
G00X01074546Y00717129
M15
G01X01102546
M16
G00X01074546Y00632129
M15
G01X01102546
M16
G00X00671048Y00959624
M15
G01X00683048
M16
G00X00613548Y00959624
M15
G01X00647548
M16
G00X0087504Y00950366
M15
G01X0083504
M16
G00X0097504Y00950366
M15
G01X0093504
M16
T14
G00X0107179Y00947066
M15
G01X0103829
M16
M17
M30
