G04 Layer_Color=8421504*
%FSLAX44Y44*%
%MOMM*%
G71*
G01*
G75*
%ADD12R,0.7500X0.8000*%
%ADD13R,0.8000X0.7500*%
%ADD14R,1.0000X0.9500*%
%ADD15R,1.6002X1.2700*%
%ADD16R,1.8500X1.3000*%
%ADD17R,3.3000X2.4000*%
%ADD18R,1.0000X2.4000*%
%ADD19R,1.2700X1.6002*%
%ADD20R,1.4500X0.8000*%
%ADD21R,0.9000X1.5000*%
%ADD23R,0.6000X1.2000*%
%ADD24R,0.6000X2.0000*%
%ADD25R,7.3500X2.4000*%
%ADD26R,3.5000X3.5000*%
%ADD27R,2.1590X2.7430*%
%ADD28R,2.7430X2.1590*%
%ADD29O,4.0640X1.5000*%
%ADD30R,4.0640X1.5000*%
%ADD31R,0.5080X1.5240*%
%ADD32R,1.3000X1.8500*%
D12*
X1109363Y1094673D02*
D03*
X1095863D02*
D03*
D13*
X1084833Y1123013D02*
D03*
Y1109513D02*
D03*
X1085087Y1135567D02*
D03*
Y1149067D02*
D03*
X1144269Y1123667D02*
D03*
Y1110167D02*
D03*
D14*
X713611Y1060129D02*
D03*
X697611D02*
D03*
X913127Y1059113D02*
D03*
X897127D02*
D03*
D15*
X663193Y1114993D02*
D03*
Y1094673D02*
D03*
X637793Y1114993D02*
D03*
Y1094673D02*
D03*
X1072895Y1044127D02*
D03*
Y1064447D02*
D03*
X805179Y1094419D02*
D03*
Y1114739D02*
D03*
X1227582Y761644D02*
D03*
Y781964D02*
D03*
X744728Y996594D02*
D03*
Y976274D02*
D03*
X804418Y996594D02*
D03*
Y976274D02*
D03*
X1080770Y854862D02*
D03*
Y875182D02*
D03*
X1039368Y861974D02*
D03*
Y841654D02*
D03*
X1080008Y793394D02*
D03*
Y813714D02*
D03*
X1105408Y875944D02*
D03*
Y855624D02*
D03*
X1129538Y983894D02*
D03*
Y963574D02*
D03*
X1039368Y801014D02*
D03*
Y821334D02*
D03*
D16*
X533145Y1130697D02*
D03*
Y1159697D02*
D03*
X1140460Y619636D02*
D03*
Y648636D02*
D03*
X1039114Y913326D02*
D03*
Y884326D02*
D03*
D17*
X584453Y1070753D02*
D03*
D18*
X561453Y1128753D02*
D03*
X584453Y1128753D02*
D03*
X607453Y1128753D02*
D03*
D19*
X589533Y1160713D02*
D03*
X569213D02*
D03*
X1236218Y901090D02*
D03*
X1256538D02*
D03*
X1203452Y726338D02*
D03*
X1223772D02*
D03*
X1160018Y726592D02*
D03*
X1180338D02*
D03*
X1151128Y894994D02*
D03*
X1171448D02*
D03*
X1236218Y928014D02*
D03*
X1256538D02*
D03*
X1171448Y922934D02*
D03*
X1151128D02*
D03*
X1236218Y953414D02*
D03*
X1256538D02*
D03*
D20*
X726439Y1039553D02*
D03*
X793901D02*
D03*
X994053D02*
D03*
X926591D02*
D03*
X1126743Y1039555D02*
D03*
X1194205D02*
D03*
D21*
X739113Y1058349D02*
D03*
X781125D02*
D03*
X981277D02*
D03*
X939265D02*
D03*
X1139417Y1058351D02*
D03*
X1181429D02*
D03*
D23*
X784454Y995886D02*
D03*
X774954D02*
D03*
X765454D02*
D03*
Y970886D02*
D03*
X774954D02*
D03*
X784454D02*
D03*
X722986D02*
D03*
X713486D02*
D03*
X703986D02*
D03*
Y995886D02*
D03*
X713486D02*
D03*
X722986D02*
D03*
D24*
X1255014Y730678D02*
D03*
X1267714D02*
D03*
X1293114D02*
D03*
X1255014Y779678D02*
D03*
X1267714D02*
D03*
X1280414D02*
D03*
X1293114D02*
D03*
D25*
X836930Y893288D02*
D03*
Y838788D02*
D03*
D26*
X1154608Y831764D02*
D03*
X1203608D02*
D03*
D27*
X1190750Y691286D02*
D03*
X1234950D02*
D03*
X1145538Y781202D02*
D03*
X1189738D02*
D03*
X1228598Y648614D02*
D03*
X1184398D02*
D03*
X669040Y993546D02*
D03*
X624840D02*
D03*
D28*
X1268222Y810918D02*
D03*
Y855118D02*
D03*
D29*
X1283716Y665124D02*
D03*
D30*
X1371346D02*
D03*
D31*
X1153668Y998499D02*
D03*
X1166368D02*
D03*
X1179068D02*
D03*
X1191768D02*
D03*
Y946429D02*
D03*
X1179068D02*
D03*
X1166368D02*
D03*
X1153668D02*
D03*
D32*
X1040848Y767994D02*
D03*
X1069848D02*
D03*
M02*
