M48
;Layer_Color=9474304
;FILE_FORMAT=4:3
METRIC,TZ
;TYPE=PLATED
T1F00S00C0.300
T2F00S00C0.600
T3F00S00C1.067
T4F00S00C1.500
%
T01
X11301Y-44658
X16101Y-44708
X19001Y-46908
X18801Y-48408
X19501
X25101Y-49908
X25201Y-35908
X14901Y-39208
X12367Y-39408
X11301Y-37608
X9501Y-38708
X27801Y-36008
X26201Y-44208
X25301
X26701Y-20508
X12601Y-13208
X8001Y-26408
X7901Y-31708
X10101Y-33408
X15501Y-32208
T02
X1396Y-50191
Y-48691
Y-47191
Y-45691
Y-44191
Y-42691
Y-41191
Y-39691
X10500Y-51000
X14301Y-32608
X21901Y-30808
X21100Y-1500
X10200Y-5000
T03
X590Y-4416
X8090Y-2216
T04
X28201Y-1508
M30
