G04 Layer_Color=16711935*
%FSLAX44Y44*%
%MOMM*%
G71*
G01*
G75*
%ADD53R,1.8034X1.4732*%
%ADD59R,1.4732X1.8034*%
%ADD61R,1.5032X2.0532*%
%ADD64O,9.2032X4.1032*%
%ADD65R,1.7032X1.0032*%
%ADD66O,1.7032X1.0032*%
%ADD67C,2.7032*%
%ADD68C,1.9032*%
%ADD69R,0.8032X1.4032*%
%ADD70R,3.5032X2.6032*%
%ADD71R,1.2032X2.6032*%
%ADD72R,2.0532X1.5032*%
D53*
X29008Y-315239D02*
D03*
Y-294919D02*
D03*
X117008Y-362399D02*
D03*
Y-342079D02*
D03*
X143008Y-362399D02*
D03*
Y-342079D02*
D03*
X251008Y-482239D02*
D03*
Y-461919D02*
D03*
X252008Y-327919D02*
D03*
Y-348239D02*
D03*
X278008Y-327919D02*
D03*
Y-348239D02*
D03*
D59*
X188168Y-322079D02*
D03*
X167848D02*
D03*
D61*
X164508Y-293079D02*
D03*
X193508D02*
D03*
D64*
X36960Y-365906D02*
D03*
X37008Y-156079D02*
D03*
D65*
X13958Y-396909D02*
D03*
D66*
Y-411909D02*
D03*
Y-426909D02*
D03*
Y-441909D02*
D03*
Y-456909D02*
D03*
Y-471909D02*
D03*
Y-486909D02*
D03*
Y-501909D02*
D03*
D67*
X282008Y-15079D02*
D03*
D68*
X5900Y-44160D02*
D03*
X80900Y-22160D02*
D03*
D69*
X49508Y-317579D02*
D03*
X59008D02*
D03*
X68508D02*
D03*
Y-292579D02*
D03*
X59008D02*
D03*
X49508D02*
D03*
D70*
X191008Y-411079D02*
D03*
D71*
X214008Y-353079D02*
D03*
X191008Y-353079D02*
D03*
X168008Y-353079D02*
D03*
D72*
X278008Y-260579D02*
D03*
Y-289579D02*
D03*
X246008Y-260579D02*
D03*
Y-289579D02*
D03*
M02*
