G04 Layer_Color=32896*
%FSLAX44Y44*%
%MOMM*%
G71*
G01*
G75*
%ADD42C,0.1270*%
%ADD45C,0.2000*%
%ADD46C,0.1778*%
%ADD73C,0.2500*%
D42*
X79011Y-295079D02*
X87342D01*
X89008Y-296745D01*
Y-300077D01*
X87342Y-301744D01*
X79011D01*
Y-311740D02*
Y-305076D01*
X84010D01*
X82344Y-308408D01*
Y-310074D01*
X84010Y-311740D01*
X87342D01*
X89008Y-310074D01*
Y-306742D01*
X87342Y-305076D01*
X25677Y-270744D02*
X24011Y-269077D01*
Y-265745D01*
X25677Y-264079D01*
X32342D01*
X34008Y-265745D01*
Y-269077D01*
X32342Y-270744D01*
Y-274076D02*
X34008Y-275742D01*
Y-279074D01*
X32342Y-280740D01*
X25677D01*
X24011Y-279074D01*
Y-275742D01*
X25677Y-274076D01*
X27344D01*
X29010Y-275742D01*
Y-280740D01*
X226011Y-344079D02*
X234342D01*
X236008Y-345745D01*
Y-349077D01*
X234342Y-350743D01*
X226011D01*
Y-360740D02*
X227677Y-357408D01*
X231010Y-354076D01*
X234342D01*
X236008Y-355742D01*
Y-359074D01*
X234342Y-360740D01*
X232676D01*
X231010Y-359074D01*
Y-354076D01*
X137614Y-287352D02*
X144278D01*
Y-292351D01*
X140946D01*
X144278D01*
Y-297349D01*
X127617D02*
X134281D01*
X127617Y-290685D01*
Y-289018D01*
X129283Y-287352D01*
X132615D01*
X134281Y-289018D01*
X112677Y-385743D02*
X111011Y-384077D01*
Y-380745D01*
X112677Y-379079D01*
X119342D01*
X121008Y-380745D01*
Y-384077D01*
X119342Y-385743D01*
X121008Y-395740D02*
Y-389076D01*
X114344Y-395740D01*
X112677D01*
X111011Y-394074D01*
Y-390742D01*
X112677Y-389076D01*
X111011Y-399072D02*
Y-405737D01*
X112677D01*
X119342Y-399072D01*
X121008D01*
X139677Y-384743D02*
X138011Y-383077D01*
Y-379745D01*
X139677Y-378079D01*
X146342D01*
X148008Y-379745D01*
Y-383077D01*
X146342Y-384743D01*
X148008Y-394740D02*
Y-388076D01*
X141344Y-394740D01*
X139677D01*
X138011Y-393074D01*
Y-389742D01*
X139677Y-388076D01*
X138011Y-404737D02*
X139677Y-401405D01*
X143010Y-398073D01*
X146342D01*
X148008Y-399739D01*
Y-403071D01*
X146342Y-404737D01*
X144676D01*
X143010Y-403071D01*
Y-398073D01*
X138344Y-309748D02*
X140010Y-308082D01*
X143342D01*
X145008Y-309748D01*
Y-316413D01*
X143342Y-318079D01*
X140010D01*
X138344Y-316413D01*
X128347Y-318079D02*
X135011D01*
X128347Y-311415D01*
Y-309748D01*
X130013Y-308082D01*
X133345D01*
X135011Y-309748D01*
X118350Y-308082D02*
X125015D01*
Y-313081D01*
X121682Y-311415D01*
X120016D01*
X118350Y-313081D01*
Y-316413D01*
X120016Y-318079D01*
X123349D01*
X125015Y-316413D01*
X247757Y-436833D02*
X246091Y-435167D01*
Y-431835D01*
X247757Y-430169D01*
X254422D01*
X256088Y-431835D01*
Y-435167D01*
X254422Y-436833D01*
X256088Y-446830D02*
Y-440166D01*
X249424Y-446830D01*
X247757D01*
X246091Y-445164D01*
Y-441832D01*
X247757Y-440166D01*
X248678Y-372743D02*
X247011Y-371077D01*
Y-367745D01*
X248678Y-366079D01*
X255342D01*
X257008Y-367745D01*
Y-371077D01*
X255342Y-372743D01*
X257008Y-381074D02*
X247011D01*
X252010Y-376076D01*
Y-382740D01*
X249008Y-227079D02*
X239011D01*
Y-232077D01*
X240678Y-233743D01*
X244010D01*
X245676Y-232077D01*
Y-227079D01*
Y-230411D02*
X249008Y-233743D01*
X240678Y-237076D02*
X239011Y-238742D01*
Y-242074D01*
X240678Y-243740D01*
X242344D01*
X244010Y-242074D01*
Y-240408D01*
Y-242074D01*
X245676Y-243740D01*
X247342D01*
X249008Y-242074D01*
Y-238742D01*
X247342Y-237076D01*
X282008Y-227079D02*
X272011D01*
Y-232077D01*
X273678Y-233743D01*
X277010D01*
X278676Y-232077D01*
Y-227079D01*
Y-230411D02*
X282008Y-233743D01*
X272011Y-237076D02*
Y-243740D01*
X273678D01*
X280342Y-237076D01*
X282008D01*
X283008Y-366079D02*
X273011D01*
Y-371077D01*
X274678Y-372743D01*
X278010D01*
X279676Y-371077D01*
Y-366079D01*
Y-369411D02*
X283008Y-372743D01*
X274678Y-376076D02*
X273011Y-377742D01*
Y-381074D01*
X274678Y-382740D01*
X276344D01*
X278010Y-381074D01*
X279676Y-382740D01*
X281342D01*
X283008Y-381074D01*
Y-377742D01*
X281342Y-376076D01*
X279676D01*
X278010Y-377742D01*
X276344Y-376076D01*
X274678D01*
X278010Y-377742D02*
Y-381074D01*
X260008Y-21079D02*
Y-11082D01*
X253344Y-21079D01*
Y-11082D01*
X61008Y-393748D02*
X59342Y-392082D01*
X56010D01*
X54344Y-393748D01*
Y-395415D01*
X56010Y-397081D01*
X57676D01*
X56010D01*
X54344Y-398747D01*
Y-400413D01*
X56010Y-402079D01*
X59342D01*
X61008Y-400413D01*
X51011Y-402079D02*
Y-400413D01*
X49345D01*
Y-402079D01*
X51011D01*
X42681Y-393748D02*
X41015Y-392082D01*
X37682D01*
X36016Y-393748D01*
Y-395415D01*
X37682Y-397081D01*
X39348D01*
X37682D01*
X36016Y-398747D01*
Y-400413D01*
X37682Y-402079D01*
X41015D01*
X42681Y-400413D01*
X32684Y-392082D02*
Y-398747D01*
X29352Y-402079D01*
X26019Y-398747D01*
Y-392082D01*
X54344Y-408748D02*
X56010Y-407082D01*
X59342D01*
X61008Y-408748D01*
Y-415413D01*
X59342Y-417079D01*
X56010D01*
X54344Y-415413D01*
Y-412081D01*
X57676D01*
X51011Y-417079D02*
Y-407082D01*
X44347Y-417079D01*
Y-407082D01*
X41015D02*
Y-417079D01*
X36016D01*
X34350Y-415413D01*
Y-408748D01*
X36016Y-407082D01*
X41015D01*
X53344Y-423748D02*
X55010Y-422082D01*
X58342D01*
X60008Y-423748D01*
Y-430413D01*
X58342Y-432079D01*
X55010D01*
X53344Y-430413D01*
X43347Y-423748D02*
X45013Y-422082D01*
X48345D01*
X50011Y-423748D01*
Y-425415D01*
X48345Y-427081D01*
X45013D01*
X43347Y-428747D01*
Y-430413D01*
X45013Y-432079D01*
X48345D01*
X50011Y-430413D01*
X40015Y-432079D02*
X36682D01*
X38349D01*
Y-422082D01*
X40015Y-423748D01*
X53344Y-438748D02*
X55010Y-437082D01*
X58342D01*
X60008Y-438748D01*
Y-445413D01*
X58342Y-447079D01*
X55010D01*
X53344Y-445413D01*
X43347Y-438748D02*
X45013Y-437082D01*
X48345D01*
X50011Y-438748D01*
Y-440415D01*
X48345Y-442081D01*
X45013D01*
X43347Y-443747D01*
Y-445413D01*
X45013Y-447079D01*
X48345D01*
X50011Y-445413D01*
X33350Y-447079D02*
X40015D01*
X33350Y-440415D01*
Y-438748D01*
X35016Y-437082D01*
X38349D01*
X40015Y-438748D01*
X53344Y-453748D02*
X55010Y-452082D01*
X58342D01*
X60008Y-453748D01*
Y-460413D01*
X58342Y-462079D01*
X55010D01*
X53344Y-460413D01*
X43347Y-453748D02*
X45013Y-452082D01*
X48345D01*
X50011Y-453748D01*
Y-455415D01*
X48345Y-457081D01*
X45013D01*
X43347Y-458747D01*
Y-460413D01*
X45013Y-462079D01*
X48345D01*
X50011Y-460413D01*
X40015Y-453748D02*
X38349Y-452082D01*
X35016D01*
X33350Y-453748D01*
Y-455415D01*
X35016Y-457081D01*
X36682D01*
X35016D01*
X33350Y-458747D01*
Y-460413D01*
X35016Y-462079D01*
X38349D01*
X40015Y-460413D01*
X53344Y-468748D02*
X55010Y-467082D01*
X58342D01*
X60008Y-468748D01*
Y-475413D01*
X58342Y-477079D01*
X55010D01*
X53344Y-475413D01*
Y-472081D01*
X56676D01*
X50011Y-477079D02*
Y-467082D01*
X43347Y-477079D01*
Y-467082D01*
X40015D02*
Y-477079D01*
X35016D01*
X33350Y-475413D01*
Y-468748D01*
X35016Y-467082D01*
X40015D01*
X60008Y-482082D02*
Y-488747D01*
X56676Y-492079D01*
X53344Y-488747D01*
Y-482082D01*
X43347Y-483748D02*
X45013Y-482082D01*
X48345D01*
X50011Y-483748D01*
Y-485415D01*
X48345Y-487081D01*
X45013D01*
X43347Y-488747D01*
Y-490413D01*
X45013Y-492079D01*
X48345D01*
X50011Y-490413D01*
X60008Y-497082D02*
Y-503747D01*
X56676Y-507079D01*
X53344Y-503747D01*
Y-497082D01*
X45013D02*
X48345D01*
X50011Y-498748D01*
Y-505413D01*
X48345Y-507079D01*
X45013D01*
X43347Y-505413D01*
Y-498748D01*
X45013Y-497082D01*
X33350D02*
X40015D01*
Y-502081D01*
X36682D01*
X40015D01*
Y-507079D01*
D45*
X43008Y-298579D02*
Y-286579D01*
X44508Y-302079D02*
X73508D01*
Y-308079D02*
Y-302079D01*
X44508Y-308079D02*
X73508D01*
X44508D02*
Y-302079D01*
X224508Y-396079D02*
Y-368079D01*
X157508Y-396079D02*
Y-368079D01*
Y-396079D02*
X224508D01*
X157508Y-368079D02*
X224508D01*
D46*
X39168Y-323875D02*
Y-315239D01*
X29008Y-323875D02*
X39168D01*
X18848D02*
X29008D01*
X18848D02*
Y-315239D01*
Y-294919D02*
Y-286283D01*
X29008D01*
X39168D01*
Y-294919D02*
Y-286283D01*
X155008Y-280979D02*
X164008D01*
X155008Y-305179D02*
Y-280979D01*
Y-305179D02*
X164008D01*
X194008D02*
X203008D01*
Y-280979D01*
X194008D02*
X203008D01*
X127168Y-371035D02*
Y-362399D01*
X117008Y-371035D02*
X127168D01*
X106848D02*
X117008D01*
X106848D02*
Y-362399D01*
Y-342079D02*
Y-333443D01*
X117008D01*
X127168D01*
Y-342079D02*
Y-333443D01*
X153168Y-371035D02*
Y-362399D01*
X143008Y-371035D02*
X153168D01*
X132848D02*
X143008D01*
X132848D02*
Y-362399D01*
Y-342079D02*
Y-333443D01*
X143008D01*
X153168D01*
Y-342079D02*
Y-333443D01*
X188168Y-311919D02*
X196804D01*
Y-322079D02*
Y-311919D01*
Y-332239D02*
Y-322079D01*
X188168Y-332239D02*
X196804D01*
X159212D02*
X167848D01*
X159212D02*
Y-322079D01*
Y-311919D01*
X167848D01*
X261168Y-490875D02*
Y-482239D01*
X251008Y-490875D02*
X261168D01*
X240848D02*
X251008D01*
X240848D02*
Y-482239D01*
Y-461919D02*
Y-453283D01*
X251008D01*
X261168D01*
Y-461919D02*
Y-453283D01*
X241848Y-327919D02*
Y-319283D01*
X252008D01*
X262168D01*
Y-327919D02*
Y-319283D01*
Y-356875D02*
Y-348239D01*
X252008Y-356875D02*
X262168D01*
X241848D02*
X252008D01*
X241848D02*
Y-348239D01*
X267848Y-327919D02*
Y-319283D01*
X278008D01*
X288168D01*
Y-327919D02*
Y-319283D01*
Y-356875D02*
Y-348239D01*
X278008Y-356875D02*
X288168D01*
X267848D02*
X278008D01*
X267848D02*
Y-348239D01*
X265908Y-260079D02*
Y-251079D01*
X290108D01*
Y-260079D02*
Y-251079D01*
Y-299079D02*
Y-290079D01*
X265908Y-299079D02*
X290108D01*
X265908D02*
Y-290079D01*
X233908Y-260079D02*
Y-251079D01*
X258108D01*
Y-260079D02*
Y-251079D01*
Y-299079D02*
Y-290079D01*
X233908Y-299079D02*
X258108D01*
X233908D02*
Y-290079D01*
D73*
X158758Y-353079D02*
G03*
X158758Y-353079I-1250J0D01*
G01*
M02*
