G04 Layer_Color=8388736*
%FSLAX44Y44*%
%MOMM*%
G71*
G01*
G75*
%ADD85C,2.0000*%
%ADD86R,4.5720X2.5146*%
%ADD87R,2.0532X1.5032*%
%ADD88R,1.4732X1.8034*%
%ADD89R,1.9812X1.9812*%
%ADD90R,1.8034X1.4732*%
%ADD91R,2.9032X1.5032*%
%ADD92R,2.4932X2.4932*%
%ADD93O,0.8032X2.2032*%
%ADD94R,2.7032X1.4732*%
%ADD95O,0.8032X2.2032*%
%ADD96R,1.3032X1.2032*%
%ADD97R,2.2032X3.2032*%
%ADD98R,10.2032X6.2032*%
%ADD99R,1.2732X2.9532*%
%ADD100R,1.7032X2.7032*%
%ADD101R,1.4732X1.6002*%
%ADD102R,1.6002X1.4732*%
%ADD103R,1.6032X2.3032*%
%ADD104R,1.2032X1.3032*%
%ADD105R,0.7532X1.6532*%
%ADD106R,2.7032X1.7032*%
%ADD107R,0.7112X1.7272*%
%ADD108R,1.6532X0.7532*%
%ADD109R,10.9032X10.2032*%
%ADD110R,1.7032X3.2032*%
%ADD111R,1.8032X3.2032*%
%ADD112O,1.8032X3.2032*%
%ADD113R,1.3032X2.3532*%
%ADD114R,1.3032X2.3532*%
%ADD115R,3.7032X2.3532*%
%ADD116R,1.7032X1.7032*%
%ADD117R,1.7032X1.7032*%
%ADD118C,1.7032*%
%ADD119R,2.7432X1.7272*%
%ADD120O,2.7432X1.7272*%
%ADD121C,2.5032*%
%ADD122R,1.7272X2.7432*%
%ADD123O,1.7272X2.7432*%
%ADD124O,2.4892X1.9812*%
%ADD125R,2.4892X1.9812*%
%ADD126O,3.7592X3.2512*%
%ADD127R,5.2032X5.2032*%
%ADD128R,1.4031X1.4031*%
%ADD129C,1.4031*%
%ADD130O,3.2512X3.7592*%
G36*
X-873102Y772922D02*
X-886818D01*
Y786638D01*
X-873102D01*
Y772922D01*
D02*
G37*
G36*
X-933288Y786461D02*
X-931619Y785770D01*
X-930187Y784671D01*
X-929088Y783239D01*
X-928397Y781570D01*
X-928161Y779780D01*
X-928397Y777990D01*
X-929088Y776321D01*
X-930187Y774889D01*
X-931619Y773790D01*
X-933288Y773099D01*
X-935078Y772863D01*
X-936868Y773099D01*
X-938537Y773790D01*
X-939969Y774889D01*
X-941068Y776321D01*
X-941759Y777990D01*
X-941995Y779780D01*
X-941759Y781570D01*
X-941068Y783239D01*
X-939969Y784671D01*
X-938537Y785770D01*
X-936868Y786461D01*
X-935078Y786697D01*
X-933288Y786461D01*
D02*
G37*
G36*
X-873483Y916432D02*
X-887199D01*
Y930148D01*
X-873483D01*
Y916432D01*
D02*
G37*
G36*
X-933669Y929971D02*
X-932000Y929280D01*
X-930568Y928181D01*
X-929469Y926749D01*
X-928777Y925080D01*
X-928542Y923290D01*
X-928777Y921500D01*
X-929469Y919831D01*
X-930568Y918399D01*
X-932000Y917299D01*
X-933669Y916609D01*
X-935459Y916373D01*
X-937249Y916609D01*
X-938918Y917299D01*
X-940350Y918399D01*
X-941450Y919831D01*
X-942141Y921500D01*
X-942376Y923290D01*
X-942141Y925080D01*
X-941450Y926749D01*
X-940350Y928181D01*
X-938918Y929280D01*
X-937249Y929971D01*
X-935459Y930207D01*
X-933669Y929971D01*
D02*
G37*
D85*
X-158750Y924560D02*
X-156210Y927100D01*
X-817880Y924560D02*
X-158750D01*
X-857250Y925830D02*
X-855980Y927100D01*
Y1035050D01*
X-880341Y923290D02*
X-703580D01*
D86*
X-832716Y328803D02*
D03*
Y153797D02*
D03*
X-889970Y328422D02*
D03*
X-889866Y153797D02*
D03*
D87*
X-910590Y523980D02*
D03*
Y552980D02*
D03*
D88*
X-525780Y276860D02*
D03*
X-546100D02*
D03*
X-546100Y251460D02*
D03*
X-525780D02*
D03*
X-722630Y312420D02*
D03*
X-702310D02*
D03*
X-389890Y218440D02*
D03*
X-410210D02*
D03*
X-166370Y416560D02*
D03*
X-186690D02*
D03*
X-722630Y339090D02*
D03*
X-702310D02*
D03*
X-722630Y367030D02*
D03*
X-702310D02*
D03*
D89*
X-561340Y306070D02*
D03*
X-525780D02*
D03*
X-617220Y231140D02*
D03*
X-652780D02*
D03*
D90*
X-911860Y491490D02*
D03*
Y471170D02*
D03*
X-749300Y340360D02*
D03*
Y360680D02*
D03*
X-224790Y421640D02*
D03*
Y401320D02*
D03*
X-448310Y327660D02*
D03*
Y307340D02*
D03*
X-63500Y260350D02*
D03*
Y280670D02*
D03*
X-350520Y400050D02*
D03*
Y420370D02*
D03*
X-325120Y400050D02*
D03*
Y420370D02*
D03*
D91*
X-878840Y470640D02*
D03*
Y499640D02*
D03*
D92*
X-720090Y422910D02*
D03*
D93*
X-739140Y397910D02*
D03*
X-726440D02*
D03*
X-713740D02*
D03*
X-701040D02*
D03*
X-739140Y447910D02*
D03*
X-726440D02*
D03*
X-713740D02*
D03*
X-701040D02*
D03*
D94*
X-486540Y343700D02*
D03*
Y368700D02*
D03*
Y393700D02*
D03*
Y418700D02*
D03*
Y443700D02*
D03*
X-661540D02*
D03*
Y418700D02*
D03*
Y393700D02*
D03*
Y368700D02*
D03*
Y343700D02*
D03*
D95*
X-345440Y355600D02*
D03*
X-243840Y259080D02*
D03*
X-269240Y355600D02*
D03*
X-256540D02*
D03*
X-243840D02*
D03*
X-269240Y259080D02*
D03*
X-281940D02*
D03*
X-256540D02*
D03*
X-231140D02*
D03*
Y355600D02*
D03*
X-294640Y259080D02*
D03*
X-307340D02*
D03*
X-320040D02*
D03*
X-332740D02*
D03*
X-345440D02*
D03*
X-332740Y355600D02*
D03*
X-320040D02*
D03*
X-307340D02*
D03*
X-294640D02*
D03*
X-281940D02*
D03*
X-201930D02*
D03*
X-100330Y259080D02*
D03*
X-125730Y355600D02*
D03*
X-113030D02*
D03*
X-100330D02*
D03*
X-125730Y259080D02*
D03*
X-138430D02*
D03*
X-113030D02*
D03*
X-87630D02*
D03*
Y355600D02*
D03*
X-151130Y259080D02*
D03*
X-163830D02*
D03*
X-176530D02*
D03*
X-189230D02*
D03*
X-201930D02*
D03*
X-189230Y355600D02*
D03*
X-176530D02*
D03*
X-163830D02*
D03*
X-151130D02*
D03*
X-138430D02*
D03*
D96*
X-254000Y405130D02*
D03*
Y419131D02*
D03*
D97*
X-426190Y254000D02*
D03*
X-377190D02*
D03*
D98*
X-642620Y36830D02*
D03*
D99*
X-676620Y189974D02*
D03*
X-659620D02*
D03*
X-642620D02*
D03*
X-625620D02*
D03*
X-608620D02*
D03*
D100*
X-401320Y343770D02*
D03*
Y293770D02*
D03*
D101*
X-953770Y179070D02*
D03*
X-930910D02*
D03*
X-902970D02*
D03*
X-880110D02*
D03*
X-257810Y515620D02*
D03*
X-234950D02*
D03*
X-257810Y492760D02*
D03*
X-234950D02*
D03*
X-533250Y627380D02*
D03*
X-556110D02*
D03*
X-738990D02*
D03*
X-761850D02*
D03*
X-554840Y792480D02*
D03*
X-531980D02*
D03*
X-758040D02*
D03*
X-735180D02*
D03*
X-647550Y589280D02*
D03*
X-624690D02*
D03*
X-601830Y627380D02*
D03*
X-578970D02*
D03*
X-850750Y589280D02*
D03*
X-827890D02*
D03*
X-807570Y627380D02*
D03*
X-784710D02*
D03*
X-624840Y535686D02*
D03*
X-647700D02*
D03*
X-678180Y535940D02*
D03*
X-701040D02*
D03*
X-110340Y627380D02*
D03*
X-133200D02*
D03*
X-328780D02*
D03*
X-351640D02*
D03*
X-225910Y589280D02*
D03*
X-203050D02*
D03*
X-177650Y627380D02*
D03*
X-154790D02*
D03*
X-439270Y589534D02*
D03*
X-416410D02*
D03*
X-396090Y627380D02*
D03*
X-373230D02*
D03*
X-236220Y535940D02*
D03*
X-259080D02*
D03*
X-439420D02*
D03*
X-416560D02*
D03*
X-150980Y792480D02*
D03*
X-128120D02*
D03*
X-354180D02*
D03*
X-331320D02*
D03*
D102*
X10160Y241300D02*
D03*
Y218440D02*
D03*
X-614530Y684530D02*
D03*
Y661670D02*
D03*
X-825350Y684530D02*
D03*
Y661670D02*
D03*
X-411330Y687070D02*
D03*
Y664210D02*
D03*
X-195430Y661670D02*
D03*
Y684530D02*
D03*
X-825350Y742950D02*
D03*
Y765810D02*
D03*
X-298300Y767080D02*
D03*
Y744220D02*
D03*
X-82400Y767080D02*
D03*
Y744220D02*
D03*
X-411330Y765810D02*
D03*
Y742950D02*
D03*
X-195430Y765810D02*
D03*
Y742950D02*
D03*
X-614530Y765810D02*
D03*
Y742950D02*
D03*
D103*
X11738Y710834D02*
D03*
Y619834D02*
D03*
X-33262Y710834D02*
D03*
Y619834D02*
D03*
D104*
X-205709Y441960D02*
D03*
X-219710D02*
D03*
X-240000D02*
D03*
X-254000D02*
D03*
D105*
X-591670Y766130D02*
D03*
Y742630D02*
D03*
X-276710Y743900D02*
D03*
Y767400D02*
D03*
X-60810Y743900D02*
D03*
Y767400D02*
D03*
X-172570Y742630D02*
D03*
Y766130D02*
D03*
X-388470Y742630D02*
D03*
Y766130D02*
D03*
X-802490Y742630D02*
D03*
Y766130D02*
D03*
X-172570Y684850D02*
D03*
Y661350D02*
D03*
X-388470Y687390D02*
D03*
Y663890D02*
D03*
X-591670Y684850D02*
D03*
Y661350D02*
D03*
X-799950Y684850D02*
D03*
Y661350D02*
D03*
D106*
X-776770Y736600D02*
D03*
X-736770D02*
D03*
X-365290D02*
D03*
X-325290D02*
D03*
X-109390D02*
D03*
X-149390D02*
D03*
X-568170D02*
D03*
X-528170D02*
D03*
D107*
X-768200Y652145D02*
D03*
X-755500D02*
D03*
X-742800D02*
D03*
X-730100D02*
D03*
Y704215D02*
D03*
X-742800D02*
D03*
X-755500D02*
D03*
X-768200D02*
D03*
X-562460D02*
D03*
X-549760D02*
D03*
X-537060D02*
D03*
X-524360D02*
D03*
Y652145D02*
D03*
X-537060D02*
D03*
X-549760D02*
D03*
X-562460D02*
D03*
X-140820Y704215D02*
D03*
X-128120D02*
D03*
X-115420D02*
D03*
X-102720D02*
D03*
Y652145D02*
D03*
X-115420D02*
D03*
X-128120D02*
D03*
X-140820D02*
D03*
X-359260Y704215D02*
D03*
X-346560D02*
D03*
X-333860D02*
D03*
X-321160D02*
D03*
Y652145D02*
D03*
X-333860D02*
D03*
X-346560D02*
D03*
X-359260D02*
D03*
D108*
X-151300Y772160D02*
D03*
X-127800D02*
D03*
X-555160Y769620D02*
D03*
X-531660D02*
D03*
X-758360D02*
D03*
X-734860D02*
D03*
X-354500Y772160D02*
D03*
X-331000D02*
D03*
D109*
X-747268Y930656D02*
D03*
X-544068D02*
D03*
X-342392D02*
D03*
X-139446D02*
D03*
D110*
X-772922Y822272D02*
D03*
X-722122D02*
D03*
X-518922D02*
D03*
X-569722D02*
D03*
X-368046D02*
D03*
X-317246D02*
D03*
X-114300D02*
D03*
X-165100D02*
D03*
D111*
X-806300Y490271D02*
D03*
X-600560D02*
D03*
X-392280D02*
D03*
X-180190D02*
D03*
D112*
X-780900D02*
D03*
X-755500D02*
D03*
X-730100D02*
D03*
Y589280D02*
D03*
X-755500D02*
D03*
X-780900D02*
D03*
X-806300D02*
D03*
X-575160Y490271D02*
D03*
X-549760D02*
D03*
X-524360D02*
D03*
Y589280D02*
D03*
X-549760D02*
D03*
X-575160D02*
D03*
X-600560D02*
D03*
X-366880Y490271D02*
D03*
X-341480D02*
D03*
X-316080D02*
D03*
Y589280D02*
D03*
X-341480D02*
D03*
X-366880D02*
D03*
X-392280D02*
D03*
X-154790Y490271D02*
D03*
X-129390D02*
D03*
X-103990D02*
D03*
Y589280D02*
D03*
X-129390D02*
D03*
X-154790D02*
D03*
X-180190D02*
D03*
D113*
X-425590Y377940D02*
D03*
X-379590D02*
D03*
D114*
X-402590D02*
D03*
D115*
X-402590Y439940D02*
D03*
D116*
X-284480Y492760D02*
D03*
X-638810Y499110D02*
D03*
X-487680Y491490D02*
D03*
X-74930Y626110D02*
D03*
X-46990Y327660D02*
D03*
X-723900Y210820D02*
D03*
X-641350Y635000D02*
D03*
X-675640D02*
D03*
X-438150Y638810D02*
D03*
X-469900D02*
D03*
X-904240Y25400D02*
D03*
D117*
X-15240Y828040D02*
D03*
X-180000Y150000D02*
D03*
X-220000D02*
D03*
X-260000D02*
D03*
X-300000D02*
D03*
X-260000Y20000D02*
D03*
X-20000D02*
D03*
X-300000D02*
D03*
X-60000D02*
D03*
X-20000Y150000D02*
D03*
X-100000Y20000D02*
D03*
X-60000Y150000D02*
D03*
X-140000Y20000D02*
D03*
X-100000Y150000D02*
D03*
X-180000Y20000D02*
D03*
X-140000Y150000D02*
D03*
X-220000Y20000D02*
D03*
X-15240Y259080D02*
D03*
D118*
Y802640D02*
D03*
Y777240D02*
D03*
Y751840D02*
D03*
X-878840Y25400D02*
D03*
X-180000Y175400D02*
D03*
Y200800D02*
D03*
X-220000Y175400D02*
D03*
Y200800D02*
D03*
X-260000Y175400D02*
D03*
Y200800D02*
D03*
X-300000Y175400D02*
D03*
Y200800D02*
D03*
X-260000Y45400D02*
D03*
Y70800D02*
D03*
X-20000Y45400D02*
D03*
Y70800D02*
D03*
X-300000Y45400D02*
D03*
Y70800D02*
D03*
X-60000Y45400D02*
D03*
Y70800D02*
D03*
X-20000Y175400D02*
D03*
Y200800D02*
D03*
X-100000Y45400D02*
D03*
Y70800D02*
D03*
X-60000Y175400D02*
D03*
Y200800D02*
D03*
X-140000Y45400D02*
D03*
Y70800D02*
D03*
X-100000Y175400D02*
D03*
Y200800D02*
D03*
X-180000Y45400D02*
D03*
Y70800D02*
D03*
X-140000Y175400D02*
D03*
Y200800D02*
D03*
X-220000Y45400D02*
D03*
Y70800D02*
D03*
X-15240Y335280D02*
D03*
Y309880D02*
D03*
Y284480D02*
D03*
D119*
X-802640Y382270D02*
D03*
X-801370Y278130D02*
D03*
X-377063Y72898D02*
D03*
X-374396Y181356D02*
D03*
D120*
X-802386Y416306D02*
D03*
X-801116Y312166D02*
D03*
X-377317Y38862D02*
D03*
X-374650Y147320D02*
D03*
D121*
X-969010Y21590D02*
D03*
Y1115060D02*
D03*
X16510D02*
D03*
Y21590D02*
D03*
D122*
X-817626Y164978D02*
D03*
Y56521D02*
D03*
D123*
X-783590Y164724D02*
D03*
Y56266D02*
D03*
D124*
X-36830Y552450D02*
D03*
Y527050D02*
D03*
Y577850D02*
D03*
D125*
Y501650D02*
D03*
D126*
X-887730Y87630D02*
D03*
Y138430D02*
D03*
X-889000Y273050D02*
D03*
Y222250D02*
D03*
Y323850D02*
D03*
Y374650D02*
D03*
Y425450D02*
D03*
D127*
X-461010Y119380D02*
D03*
X-544830D02*
D03*
D128*
X-52070Y376174D02*
D03*
D129*
Y391160D02*
D03*
Y406171D02*
D03*
Y421157D02*
D03*
Y436169D02*
D03*
Y451155D02*
D03*
D130*
X-370690Y1033780D02*
D03*
X-523090D02*
D03*
X-472290D02*
D03*
X-421490D02*
D03*
X-855980Y1035050D02*
D03*
X-906780D02*
D03*
M02*
