G04 Layer_Color=8421504*
%FSLAX44Y44*%
%MOMM*%
G71*
G01*
G75*
%ADD10R,1.8500X1.3000*%
%ADD11R,1.2700X1.6002*%
%ADD12R,1.7780X1.7780*%
%ADD13R,1.6002X1.2700*%
%ADD14R,2.7000X1.3000*%
%ADD15R,2.2900X2.2900*%
%ADD16O,0.6000X2.0000*%
%ADD17R,2.5000X1.2700*%
%ADD18O,0.6000X2.0000*%
%ADD19R,1.1000X1.0000*%
%ADD20R,2.0000X3.0000*%
%ADD21R,10.0000X6.0000*%
%ADD22R,1.0700X2.7500*%
%ADD23R,1.5000X2.5000*%
%ADD24R,1.2700X1.3970*%
%ADD25R,1.3970X1.2700*%
%ADD26R,1.4000X2.1000*%
%ADD27R,1.0000X1.1000*%
%ADD28R,0.5500X1.4500*%
%ADD29R,2.5000X1.5000*%
%ADD30R,0.5080X1.5240*%
%ADD31R,1.4500X0.5500*%
%ADD32R,10.7000X10.0000*%
%ADD33R,1.5000X3.0000*%
%ADD34R,1.6000X3.0000*%
%ADD35O,1.6000X3.0000*%
%ADD36R,1.1000X2.1500*%
%ADD37R,1.1000X2.1500*%
%ADD38R,3.5000X2.1500*%
%ADD83R,1.4940X1.2190*%
%ADD84R,1.4940X1.2190*%
G36*
X-873102Y772922D02*
X-886818D01*
Y786638D01*
X-873102D01*
Y772922D01*
D02*
G37*
G36*
X-933288Y786461D02*
X-931619Y785770D01*
X-930187Y784671D01*
X-929088Y783239D01*
X-928397Y781570D01*
X-928161Y779780D01*
X-928397Y777990D01*
X-929088Y776321D01*
X-930187Y774889D01*
X-931619Y773790D01*
X-933288Y773099D01*
X-935078Y772863D01*
X-936868Y773099D01*
X-938537Y773790D01*
X-939969Y774889D01*
X-941068Y776321D01*
X-941759Y777990D01*
X-941995Y779780D01*
X-941759Y781570D01*
X-941068Y783239D01*
X-939969Y784671D01*
X-938537Y785770D01*
X-936868Y786461D01*
X-935078Y786697D01*
X-933288Y786461D01*
D02*
G37*
G36*
X-873483Y916432D02*
X-887199D01*
Y930148D01*
X-873483D01*
Y916432D01*
D02*
G37*
G36*
X-933669Y929971D02*
X-932000Y929280D01*
X-930568Y928181D01*
X-929469Y926749D01*
X-928777Y925080D01*
X-928542Y923290D01*
X-928777Y921500D01*
X-929469Y919831D01*
X-930568Y918399D01*
X-932000Y917299D01*
X-933669Y916609D01*
X-935459Y916373D01*
X-937249Y916609D01*
X-938918Y917299D01*
X-940350Y918399D01*
X-941450Y919831D01*
X-942141Y921500D01*
X-942376Y923290D01*
X-942141Y925080D01*
X-941450Y926749D01*
X-940350Y928181D01*
X-938918Y929280D01*
X-937249Y929971D01*
X-935459Y930207D01*
X-933669Y929971D01*
D02*
G37*
D10*
X-910590Y523980D02*
D03*
Y552980D02*
D03*
D11*
X-525780Y276860D02*
D03*
X-546100D02*
D03*
X-546100Y251460D02*
D03*
X-525780D02*
D03*
X-722630Y312420D02*
D03*
X-702310D02*
D03*
X-389890Y218440D02*
D03*
X-410210D02*
D03*
X-166370Y416560D02*
D03*
X-186690D02*
D03*
X-722630Y339090D02*
D03*
X-702310D02*
D03*
X-722630Y367030D02*
D03*
X-702310D02*
D03*
D12*
X-561340Y306070D02*
D03*
X-525780D02*
D03*
X-617220Y231140D02*
D03*
X-652780D02*
D03*
D13*
X-911860Y491490D02*
D03*
Y471170D02*
D03*
X-749300Y340360D02*
D03*
Y360680D02*
D03*
X-224790Y421640D02*
D03*
Y401320D02*
D03*
X-448310Y327660D02*
D03*
Y307340D02*
D03*
X-63500Y260350D02*
D03*
Y280670D02*
D03*
X-350520Y400050D02*
D03*
Y420370D02*
D03*
X-325120Y400050D02*
D03*
Y420370D02*
D03*
D14*
X-878840Y470640D02*
D03*
Y499640D02*
D03*
D15*
X-720090Y422910D02*
D03*
D16*
X-739140Y397910D02*
D03*
X-726440D02*
D03*
X-713740D02*
D03*
X-701040D02*
D03*
X-739140Y447910D02*
D03*
X-726440D02*
D03*
X-713740D02*
D03*
X-701040D02*
D03*
D17*
X-486540Y343700D02*
D03*
Y368700D02*
D03*
Y393700D02*
D03*
Y418700D02*
D03*
Y443700D02*
D03*
X-661540D02*
D03*
Y418700D02*
D03*
Y393700D02*
D03*
Y368700D02*
D03*
Y343700D02*
D03*
D18*
X-345440Y355600D02*
D03*
X-243840Y259080D02*
D03*
X-269240Y355600D02*
D03*
X-256540D02*
D03*
X-243840D02*
D03*
X-269240Y259080D02*
D03*
X-281940D02*
D03*
X-256540D02*
D03*
X-231140D02*
D03*
Y355600D02*
D03*
X-294640Y259080D02*
D03*
X-307340D02*
D03*
X-320040D02*
D03*
X-332740D02*
D03*
X-345440D02*
D03*
X-332740Y355600D02*
D03*
X-320040D02*
D03*
X-307340D02*
D03*
X-294640D02*
D03*
X-281940D02*
D03*
X-201930D02*
D03*
X-100330Y259080D02*
D03*
X-125730Y355600D02*
D03*
X-113030D02*
D03*
X-100330D02*
D03*
X-125730Y259080D02*
D03*
X-138430D02*
D03*
X-113030D02*
D03*
X-87630D02*
D03*
Y355600D02*
D03*
X-151130Y259080D02*
D03*
X-163830D02*
D03*
X-176530D02*
D03*
X-189230D02*
D03*
X-201930D02*
D03*
X-189230Y355600D02*
D03*
X-176530D02*
D03*
X-163830D02*
D03*
X-151130D02*
D03*
X-138430D02*
D03*
D19*
X-254000Y405130D02*
D03*
Y419131D02*
D03*
D20*
X-426190Y254000D02*
D03*
X-377190D02*
D03*
D21*
X-642620Y36830D02*
D03*
D22*
X-676620Y189974D02*
D03*
X-659620D02*
D03*
X-642620D02*
D03*
X-625620D02*
D03*
X-608620D02*
D03*
D23*
X-401320Y343770D02*
D03*
Y293770D02*
D03*
D24*
X-953770Y179070D02*
D03*
X-930910D02*
D03*
X-902970D02*
D03*
X-880110D02*
D03*
X-257810Y515620D02*
D03*
X-234950D02*
D03*
X-257810Y492760D02*
D03*
X-234950D02*
D03*
X-533250Y627380D02*
D03*
X-556110D02*
D03*
X-738990D02*
D03*
X-761850D02*
D03*
X-554840Y792480D02*
D03*
X-531980D02*
D03*
X-758040D02*
D03*
X-735180D02*
D03*
X-647550Y589280D02*
D03*
X-624690D02*
D03*
X-601830Y627380D02*
D03*
X-578970D02*
D03*
X-850750Y589280D02*
D03*
X-827890D02*
D03*
X-807570Y627380D02*
D03*
X-784710D02*
D03*
X-624840Y535686D02*
D03*
X-647700D02*
D03*
X-678180Y535940D02*
D03*
X-701040D02*
D03*
X-110340Y627380D02*
D03*
X-133200D02*
D03*
X-328780D02*
D03*
X-351640D02*
D03*
X-225910Y589280D02*
D03*
X-203050D02*
D03*
X-177650Y627380D02*
D03*
X-154790D02*
D03*
X-439270Y589534D02*
D03*
X-416410D02*
D03*
X-396090Y627380D02*
D03*
X-373230D02*
D03*
X-236220Y535940D02*
D03*
X-259080D02*
D03*
X-439420D02*
D03*
X-416560D02*
D03*
X-150980Y792480D02*
D03*
X-128120D02*
D03*
X-354180D02*
D03*
X-331320D02*
D03*
D25*
X10160Y241300D02*
D03*
Y218440D02*
D03*
X-614530Y684530D02*
D03*
Y661670D02*
D03*
X-825350Y684530D02*
D03*
Y661670D02*
D03*
X-411330Y687070D02*
D03*
Y664210D02*
D03*
X-195430Y661670D02*
D03*
Y684530D02*
D03*
X-825350Y742950D02*
D03*
Y765810D02*
D03*
X-298300Y767080D02*
D03*
Y744220D02*
D03*
X-82400Y767080D02*
D03*
Y744220D02*
D03*
X-411330Y765810D02*
D03*
Y742950D02*
D03*
X-195430Y765810D02*
D03*
Y742950D02*
D03*
X-614530Y765810D02*
D03*
Y742950D02*
D03*
D26*
X11738Y710834D02*
D03*
Y619834D02*
D03*
X-33262Y710834D02*
D03*
Y619834D02*
D03*
D27*
X-205709Y441960D02*
D03*
X-219710D02*
D03*
X-240000D02*
D03*
X-254000D02*
D03*
D28*
X-591670Y766130D02*
D03*
Y742630D02*
D03*
X-276710Y743900D02*
D03*
Y767400D02*
D03*
X-60810Y743900D02*
D03*
Y767400D02*
D03*
X-172570Y742630D02*
D03*
Y766130D02*
D03*
X-388470Y742630D02*
D03*
Y766130D02*
D03*
X-802490Y742630D02*
D03*
Y766130D02*
D03*
X-172570Y684850D02*
D03*
Y661350D02*
D03*
X-388470Y687390D02*
D03*
Y663890D02*
D03*
X-591670Y684850D02*
D03*
Y661350D02*
D03*
X-799950Y684850D02*
D03*
Y661350D02*
D03*
D29*
X-776770Y736600D02*
D03*
X-736770D02*
D03*
X-365290D02*
D03*
X-325290D02*
D03*
X-109390D02*
D03*
X-149390D02*
D03*
X-568170D02*
D03*
X-528170D02*
D03*
D30*
X-768200Y652145D02*
D03*
X-755500D02*
D03*
X-742800D02*
D03*
X-730100D02*
D03*
Y704215D02*
D03*
X-742800D02*
D03*
X-755500D02*
D03*
X-768200D02*
D03*
X-562460D02*
D03*
X-549760D02*
D03*
X-537060D02*
D03*
X-524360D02*
D03*
Y652145D02*
D03*
X-537060D02*
D03*
X-549760D02*
D03*
X-562460D02*
D03*
X-140820Y704215D02*
D03*
X-128120D02*
D03*
X-115420D02*
D03*
X-102720D02*
D03*
Y652145D02*
D03*
X-115420D02*
D03*
X-128120D02*
D03*
X-140820D02*
D03*
X-359260Y704215D02*
D03*
X-346560D02*
D03*
X-333860D02*
D03*
X-321160D02*
D03*
Y652145D02*
D03*
X-333860D02*
D03*
X-346560D02*
D03*
X-359260D02*
D03*
D31*
X-151300Y772160D02*
D03*
X-127800D02*
D03*
X-555160Y769620D02*
D03*
X-531660D02*
D03*
X-758360D02*
D03*
X-734860D02*
D03*
X-354500Y772160D02*
D03*
X-331000D02*
D03*
D32*
X-747268Y930656D02*
D03*
X-544068D02*
D03*
X-342392D02*
D03*
X-139446D02*
D03*
D33*
X-772922Y822272D02*
D03*
X-722122D02*
D03*
X-518922D02*
D03*
X-569722D02*
D03*
X-368046D02*
D03*
X-317246D02*
D03*
X-114300D02*
D03*
X-165100D02*
D03*
D34*
X-806300Y490271D02*
D03*
X-600560D02*
D03*
X-392280D02*
D03*
X-180190D02*
D03*
D35*
X-780900D02*
D03*
X-755500D02*
D03*
X-730100D02*
D03*
Y589280D02*
D03*
X-755500D02*
D03*
X-780900D02*
D03*
X-806300D02*
D03*
X-575160Y490271D02*
D03*
X-549760D02*
D03*
X-524360D02*
D03*
Y589280D02*
D03*
X-549760D02*
D03*
X-575160D02*
D03*
X-600560D02*
D03*
X-366880Y490271D02*
D03*
X-341480D02*
D03*
X-316080D02*
D03*
Y589280D02*
D03*
X-341480D02*
D03*
X-366880D02*
D03*
X-392280D02*
D03*
X-154790Y490271D02*
D03*
X-129390D02*
D03*
X-103990D02*
D03*
Y589280D02*
D03*
X-129390D02*
D03*
X-154790D02*
D03*
X-180190D02*
D03*
D36*
X-425590Y377940D02*
D03*
X-379590D02*
D03*
D37*
X-402590D02*
D03*
D38*
X-402590Y439940D02*
D03*
D83*
X-702575Y891423D02*
D03*
X-702575Y906613D02*
D03*
Y921803D02*
D03*
Y936993D02*
D03*
Y952182D02*
D03*
Y967372D02*
D03*
X-720515Y891423D02*
D03*
X-738455Y967372D02*
D03*
Y952182D02*
D03*
Y936993D02*
D03*
Y921803D02*
D03*
Y906613D02*
D03*
X-756393Y967372D02*
D03*
Y952182D02*
D03*
Y936993D02*
D03*
Y921803D02*
D03*
Y906613D02*
D03*
X-756393Y891423D02*
D03*
X-792273Y967372D02*
D03*
Y952182D02*
D03*
Y936993D02*
D03*
Y921803D02*
D03*
Y906613D02*
D03*
X-792273Y891423D02*
D03*
X-589073D02*
D03*
X-589073Y906613D02*
D03*
Y921803D02*
D03*
Y936993D02*
D03*
Y952182D02*
D03*
Y967372D02*
D03*
X-553193Y891423D02*
D03*
X-553193Y906613D02*
D03*
Y921803D02*
D03*
Y936993D02*
D03*
Y952182D02*
D03*
Y967372D02*
D03*
X-535255Y906613D02*
D03*
Y921803D02*
D03*
Y936993D02*
D03*
Y952182D02*
D03*
Y967372D02*
D03*
X-517315Y891423D02*
D03*
X-499375Y967372D02*
D03*
Y952182D02*
D03*
Y936993D02*
D03*
Y921803D02*
D03*
Y906613D02*
D03*
X-499375Y891423D02*
D03*
X-297699D02*
D03*
X-297699Y906613D02*
D03*
Y921803D02*
D03*
Y936993D02*
D03*
Y952182D02*
D03*
Y967372D02*
D03*
X-315639Y891423D02*
D03*
X-333579Y967372D02*
D03*
Y952182D02*
D03*
Y936993D02*
D03*
Y921803D02*
D03*
Y906613D02*
D03*
X-351517Y967372D02*
D03*
Y952182D02*
D03*
Y936993D02*
D03*
Y921803D02*
D03*
Y906613D02*
D03*
X-351517Y891423D02*
D03*
X-387397Y967372D02*
D03*
Y952182D02*
D03*
Y936993D02*
D03*
Y921803D02*
D03*
Y906613D02*
D03*
X-387397Y891423D02*
D03*
X-184451D02*
D03*
X-184451Y906613D02*
D03*
Y921803D02*
D03*
Y936993D02*
D03*
Y952182D02*
D03*
Y967372D02*
D03*
X-148571Y891423D02*
D03*
X-148571Y906613D02*
D03*
Y921803D02*
D03*
Y936993D02*
D03*
Y952182D02*
D03*
Y967372D02*
D03*
X-130633Y906613D02*
D03*
Y921803D02*
D03*
Y936993D02*
D03*
Y952182D02*
D03*
Y967372D02*
D03*
X-112693Y891423D02*
D03*
X-94753Y967372D02*
D03*
Y952182D02*
D03*
Y936993D02*
D03*
Y921803D02*
D03*
Y906613D02*
D03*
X-94753Y891423D02*
D03*
D84*
X-720515Y967372D02*
D03*
Y952182D02*
D03*
Y936993D02*
D03*
Y921803D02*
D03*
Y906613D02*
D03*
X-738455Y891423D02*
D03*
X-774333Y967372D02*
D03*
Y952182D02*
D03*
Y936993D02*
D03*
Y921803D02*
D03*
Y906613D02*
D03*
X-774333Y891423D02*
D03*
X-571133D02*
D03*
X-571133Y906613D02*
D03*
Y921803D02*
D03*
Y936993D02*
D03*
Y952182D02*
D03*
Y967372D02*
D03*
X-535255Y891423D02*
D03*
X-517315Y906613D02*
D03*
Y921803D02*
D03*
Y936993D02*
D03*
Y952182D02*
D03*
Y967372D02*
D03*
X-315639D02*
D03*
Y952182D02*
D03*
Y936993D02*
D03*
Y921803D02*
D03*
Y906613D02*
D03*
X-333579Y891423D02*
D03*
X-369457Y967372D02*
D03*
Y952182D02*
D03*
Y936993D02*
D03*
Y921803D02*
D03*
Y906613D02*
D03*
X-369457Y891423D02*
D03*
X-166511D02*
D03*
X-166511Y906613D02*
D03*
Y921803D02*
D03*
Y936993D02*
D03*
Y952182D02*
D03*
Y967372D02*
D03*
X-130633Y891423D02*
D03*
X-112693Y906613D02*
D03*
Y921803D02*
D03*
Y936993D02*
D03*
Y952182D02*
D03*
Y967372D02*
D03*
M02*
