G04 Layer_Color=65535*
%FSLAX44Y44*%
%MOMM*%
G71*
G01*
G75*
%ADD40C,0.2540*%
%ADD42C,0.5000*%
%ADD72C,0.2500*%
%ADD73C,0.4000*%
%ADD74C,0.1270*%
%ADD75C,0.1524*%
%ADD76C,0.1000*%
%ADD77C,0.7620*%
%ADD78C,0.2000*%
%ADD79C,0.1778*%
%ADD80C,0.1780*%
%ADD81C,0.1016*%
%ADD82R,0.3500X2.8000*%
G36*
X-387604Y154178D02*
X-389890Y145288D01*
X-385064Y138938D01*
X-374904Y136906D01*
X-363474Y139192D01*
X-359410Y144780D01*
Y150368D01*
X-364744Y157480D01*
X-337058D01*
X-341376Y145796D01*
X-350520Y134112D01*
X-370078Y126238D01*
X-389382Y128270D01*
X-406654Y142494D01*
X-412242Y157480D01*
X-383286Y157734D01*
X-387604Y154178D01*
D02*
G37*
G36*
X-782066Y197998D02*
X-770382Y188854D01*
X-762508Y169296D01*
X-764540Y149992D01*
X-778764Y132720D01*
X-793750Y127132D01*
X-794004Y156088D01*
X-790448Y151770D01*
X-781558Y149484D01*
X-775208Y154310D01*
X-773176Y164470D01*
X-775462Y175900D01*
X-781050Y179964D01*
X-786638D01*
X-793750Y174630D01*
Y202316D01*
X-782066Y197998D01*
D02*
G37*
G36*
X-909320Y113030D02*
X-915670Y106680D01*
Y110490D01*
X-922020D01*
Y115570D01*
X-915670D01*
Y119380D01*
X-909320Y113030D01*
D02*
G37*
G36*
X-390271Y45720D02*
X-392557Y36830D01*
X-387731Y30480D01*
X-377571Y28448D01*
X-366141Y30734D01*
X-362077Y36322D01*
Y41910D01*
X-367411Y49022D01*
X-339725D01*
X-344043Y37338D01*
X-353187Y25654D01*
X-372745Y17780D01*
X-392049Y19812D01*
X-409321Y34036D01*
X-414909Y49022D01*
X-385953Y49276D01*
X-390271Y45720D01*
D02*
G37*
G36*
X-782066Y89541D02*
X-770382Y80396D01*
X-762508Y60838D01*
X-764540Y41535D01*
X-778764Y24262D01*
X-793750Y18674D01*
X-794004Y47631D01*
X-790448Y43313D01*
X-781558Y41027D01*
X-775208Y45852D01*
X-773176Y56013D01*
X-775462Y67442D01*
X-781050Y71507D01*
X-786638D01*
X-793750Y66172D01*
Y93858D01*
X-782066Y89541D01*
D02*
G37*
G36*
X-444350Y1061720D02*
X-440540D01*
X-446890Y1055370D01*
X-453240Y1061720D01*
X-449430D01*
Y1068070D01*
X-444350D01*
Y1061720D01*
D02*
G37*
G36*
X-878840Y1062990D02*
X-875030D01*
X-881380Y1056640D01*
X-887730Y1062990D01*
X-883920D01*
Y1069340D01*
X-878840D01*
Y1062990D01*
D02*
G37*
G36*
X-787654Y435356D02*
X-770382Y421132D01*
X-764794Y406146D01*
X-793750Y405892D01*
X-789432Y409448D01*
X-787146Y418338D01*
X-791972Y424688D01*
X-802132Y426720D01*
X-813562Y424434D01*
X-817626Y418846D01*
Y413258D01*
X-812292Y406146D01*
X-839978D01*
X-835660Y417830D01*
X-826516Y429514D01*
X-806958Y437388D01*
X-787654Y435356D01*
D02*
G37*
G36*
X-786384Y331216D02*
X-769112Y316992D01*
X-763524Y302006D01*
X-792480Y301752D01*
X-788162Y305308D01*
X-785876Y314198D01*
X-790702Y320548D01*
X-800862Y322580D01*
X-812292Y320294D01*
X-816356Y314706D01*
Y309118D01*
X-811022Y302006D01*
X-838708D01*
X-834390Y313690D01*
X-825246Y325374D01*
X-805688Y333248D01*
X-786384Y331216D01*
D02*
G37*
G36*
X-910590Y323850D02*
X-916940Y317500D01*
Y321310D01*
X-923290D01*
Y326390D01*
X-916940D01*
Y330200D01*
X-910590Y323850D01*
D02*
G37*
D40*
X-764032Y399288D02*
G03*
X-764032Y399288I-38100J0D01*
G01*
X-817392Y415801D02*
G03*
X-808482Y406400I9545J124D01*
G01*
Y426212D02*
G03*
X-817372Y415798I762J-9652D01*
G01*
X-796544Y406400D02*
G03*
X-787400Y416306I-381J9525D01*
G01*
X-787400D02*
G03*
X-797052Y426212I-9779J127D01*
G01*
X-762762Y295148D02*
G03*
X-762762Y295148I-38100J0D01*
G01*
X-816122Y311661D02*
G03*
X-807212Y302260I9545J124D01*
G01*
Y322072D02*
G03*
X-816102Y311658I762J-9652D01*
G01*
X-795274Y302260D02*
G03*
X-786130Y312166I-381J9525D01*
G01*
X-786130D02*
G03*
X-795782Y322072I-9779J127D01*
G01*
X-762508Y164470D02*
G03*
X-762508Y164470I-38100J0D01*
G01*
X-784095Y179730D02*
G03*
X-793496Y170820I124J-9545D01*
G01*
X-773684D02*
G03*
X-784098Y179710I-9652J-762D01*
G01*
X-793496Y158882D02*
G03*
X-783590Y149738I9525J381D01*
G01*
Y149738D02*
G03*
X-773684Y159390I127J9779D01*
G01*
X-339471Y55880D02*
G03*
X-339471Y55880I-38100J0D01*
G01*
X-362311Y39367D02*
G03*
X-371221Y48768I-9545J-124D01*
G01*
Y28956D02*
G03*
X-362331Y39370I-762J9652D01*
G01*
X-383159Y48768D02*
G03*
X-392303Y38862I381J-9525D01*
G01*
X-392303D02*
G03*
X-382651Y28956I9779J-127D01*
G01*
X-336804Y164338D02*
G03*
X-336804Y164338I-38100J0D01*
G01*
X-359644Y147825D02*
G03*
X-368554Y157226I-9545J-124D01*
G01*
Y137414D02*
G03*
X-359664Y147828I-762J9652D01*
G01*
X-380492Y157226D02*
G03*
X-389636Y147320I381J-9525D01*
G01*
X-389636D02*
G03*
X-379984Y137414I9779J-127D01*
G01*
X-224790Y313690D02*
G03*
X-224790Y300990I0J-6350D01*
G01*
X-81280Y313690D02*
G03*
X-81280Y300990I0J-6350D01*
G01*
X-376320Y318770D02*
G03*
X-376320Y318770I-25000J0D01*
G01*
X-815190Y529768D02*
G03*
X-815190Y549783I0J10008D01*
G01*
X-609450Y529768D02*
G03*
X-609450Y549783I0J10008D01*
G01*
X-401170Y529768D02*
G03*
X-401170Y549783I0J10008D01*
G01*
X-189080Y529768D02*
G03*
X-189080Y549783I0J10008D01*
G01*
X-762508Y56013D02*
G03*
X-762508Y56013I-38100J0D01*
G01*
X-784095Y71273D02*
G03*
X-793496Y62362I124J-9545D01*
G01*
X-773684D02*
G03*
X-784098Y71252I-9652J-762D01*
G01*
X-793496Y50424D02*
G03*
X-783590Y41280I9525J381D01*
G01*
Y41280D02*
G03*
X-773684Y50932I127J9779D01*
G01*
X-839724Y406146D02*
X-765556D01*
X-802132Y363728D02*
Y373888D01*
X-808482Y368808D02*
X-795782D01*
X-808482Y406400D02*
X-796036D01*
X-809244Y426212D02*
X-795274D01*
X-838454Y302006D02*
X-764286D01*
X-800862Y259588D02*
Y269748D01*
X-807212Y264668D02*
X-794512D01*
X-807212Y302260D02*
X-794766D01*
X-807974Y322072D02*
X-794004D01*
X-793750Y127894D02*
Y202062D01*
X-836168Y164470D02*
X-826008D01*
X-831088Y158120D02*
Y170820D01*
X-793496Y158374D02*
Y170820D01*
X-773684Y157612D02*
Y171582D01*
X-414147Y49022D02*
X-339979D01*
X-377571Y81280D02*
Y91440D01*
X-383921Y86360D02*
X-371221D01*
X-383667Y48768D02*
X-371221D01*
X-384429Y28956D02*
X-370459D01*
X-411480Y157480D02*
X-337312D01*
X-374904Y189738D02*
Y199898D01*
X-381254Y194818D02*
X-368554D01*
X-381000Y157226D02*
X-368554D01*
X-381762Y137414D02*
X-367792D01*
X-351790Y340360D02*
X-224790D01*
X-351790Y274320D02*
Y340360D01*
Y274320D02*
X-224790D01*
Y300990D01*
Y313690D02*
Y340360D01*
X-208280D02*
X-81280D01*
X-208280Y274320D02*
Y340360D01*
Y274320D02*
X-81280D01*
Y300990D01*
Y313690D02*
Y340360D01*
X-381320Y341270D02*
Y346270D01*
X-431320Y288770D02*
X-371320D01*
X-421320Y351770D02*
X-419320D01*
X-431320Y341770D02*
X-421320Y351770D01*
X-382320D02*
X-380320D01*
X-372320Y343770D01*
X-431320Y288770D02*
Y341770D01*
X-429320Y343770D02*
X-421320Y351770D01*
X-371320Y288770D02*
Y342770D01*
X-380320Y351770D02*
X-371320Y342770D01*
X-421320Y351770D02*
X-380320D01*
X-425320Y319770D02*
X-377320D01*
X-383820Y343770D02*
X-378820D01*
X-61468Y352196D02*
Y475640D01*
X-2794D01*
Y352196D02*
Y475640D01*
X-61468Y352196D02*
X-2794D01*
X-776770Y746600D02*
X-766770Y756600D01*
X-776770Y726600D02*
Y746600D01*
Y726600D02*
X-766770Y716600D01*
X-736770D01*
Y756600D01*
X-766770D02*
X-736770D01*
X-365290Y746600D02*
X-355290Y756600D01*
X-365290Y726600D02*
Y746600D01*
Y726600D02*
X-355290Y716600D01*
X-325290D01*
Y756600D01*
X-355290D02*
X-325290D01*
X-139390D02*
X-109390D01*
Y716600D02*
Y756600D01*
X-139390Y716600D02*
X-109390D01*
X-149390Y726600D02*
X-139390Y716600D01*
X-149390Y726600D02*
Y746600D01*
X-139390Y756600D01*
X-774550Y659257D02*
Y697103D01*
X-723750D01*
Y659257D02*
Y697103D01*
X-774550Y659257D02*
X-723750D01*
X-568170Y746600D02*
X-558170Y756600D01*
X-568170Y726600D02*
Y746600D01*
Y726600D02*
X-558170Y716600D01*
X-528170D01*
Y756600D01*
X-558170D02*
X-528170D01*
X-568810Y659257D02*
X-518010D01*
Y697103D01*
X-568810D02*
X-518010D01*
X-568810Y659257D02*
Y697103D01*
X-147170Y659257D02*
X-96370D01*
Y697103D01*
X-147170D02*
X-96370D01*
X-147170Y659257D02*
Y697103D01*
X-365610Y659257D02*
X-314810D01*
Y697103D01*
X-365610D02*
X-314810D01*
X-365610Y659257D02*
Y697103D01*
X-815200Y508775D02*
Y529775D01*
Y508775D02*
X-721200D01*
Y570776D01*
X-815200D02*
X-721200D01*
X-815200Y549775D02*
Y570776D01*
X-609460Y508775D02*
Y529775D01*
Y508775D02*
X-515460D01*
Y570776D01*
X-609460D02*
X-515460D01*
X-609460Y549775D02*
Y570776D01*
X-401180Y508775D02*
Y529775D01*
Y508775D02*
X-307180D01*
Y570776D01*
X-401180D02*
X-307180D01*
X-401180Y549775D02*
Y570776D01*
X-189090Y508775D02*
Y529775D01*
Y508775D02*
X-95090D01*
Y570776D01*
X-189090D02*
X-95090D01*
X-189090Y549775D02*
Y570776D01*
X-793750Y19437D02*
Y93604D01*
X-836168Y56013D02*
X-826008D01*
X-831088Y49662D02*
Y62362D01*
X-793496Y49917D02*
Y62362D01*
X-773684Y49155D02*
Y63124D01*
D42*
X-627919Y346236D02*
G03*
X-627753Y346131I-2121J-3536D01*
G01*
D72*
X-283230Y513260D02*
G03*
X-283230Y513260I-1250J0D01*
G01*
X-637560Y519610D02*
G03*
X-637560Y519610I-1250J0D01*
G01*
X-486430Y511990D02*
G03*
X-486430Y511990I-1250J0D01*
G01*
X-73680Y646610D02*
G03*
X-73680Y646610I-1250J0D01*
G01*
X-45740Y348160D02*
G03*
X-45740Y348160I-1250J0D01*
G01*
X-722650Y231320D02*
G03*
X-722650Y231320I-1250J0D01*
G01*
X-640100Y655500D02*
G03*
X-640100Y655500I-1250J0D01*
G01*
X-674390D02*
G03*
X-674390Y655500I-1250J0D01*
G01*
X-436900Y659310D02*
G03*
X-436900Y659310I-1250J0D01*
G01*
X-468650D02*
G03*
X-468650Y659310I-1250J0D01*
G01*
X-691290Y447910D02*
G03*
X-691290Y447910I-1250J0D01*
G01*
X-782672Y822272D02*
G03*
X-782672Y822272I-1250J0D01*
G01*
X-579472D02*
G03*
X-579472Y822272I-1250J0D01*
G01*
X-377796D02*
G03*
X-377796Y822272I-1250J0D01*
G01*
X-174850D02*
G03*
X-174850Y822272I-1250J0D01*
G01*
X-427990Y396240D02*
G03*
X-427990Y396240I-1250J0D01*
G01*
D73*
X13738Y728834D02*
G03*
X13738Y728834I-2000J0D01*
G01*
X-822200Y486766D02*
G03*
X-822175Y486766I13J-2000D01*
G01*
X-616460D02*
G03*
X-616435Y486766I13J-2000D01*
G01*
X-408180D02*
G03*
X-408155Y486766I13J-2000D01*
G01*
X-196090D02*
G03*
X-196065Y486766I13J-2000D01*
G01*
D74*
X6738Y665334D02*
G03*
X6738Y665334I-17500J0D01*
G01*
X-639040Y461200D02*
X-509040D01*
Y326200D02*
Y461200D01*
X-639040Y326200D02*
Y461200D01*
Y326200D02*
X-509040D01*
X-961898Y170434D02*
Y187452D01*
X-923036D01*
Y170434D02*
Y187452D01*
X-961898Y170434D02*
X-923036D01*
X1524Y249428D02*
X18542D01*
Y210566D02*
Y249428D01*
X1524Y210566D02*
X18542D01*
X1524D02*
Y249428D01*
X-910844Y187706D02*
X-871982D01*
X-910844Y170688D02*
Y187706D01*
Y170688D02*
X-871982D01*
Y187706D01*
X-40759Y635311D02*
Y695255D01*
Y635311D02*
X19238Y635334D01*
Y695334D01*
X-40762D02*
X19238D01*
X-265938Y506984D02*
Y524002D01*
X-227076D01*
Y506984D02*
Y524002D01*
X-265938Y506984D02*
X-227076D01*
X-265938Y484124D02*
Y501142D01*
X-227076D01*
Y484124D02*
Y501142D01*
X-265938Y484124D02*
X-227076D01*
X-623166Y692658D02*
X-606148D01*
Y653796D02*
Y692658D01*
X-623166Y653796D02*
X-606148D01*
X-623166D02*
Y692658D01*
X-833986D02*
X-816968D01*
Y653796D02*
Y692658D01*
X-833986Y653796D02*
X-816968D01*
X-833986D02*
Y692658D01*
X-419966Y695198D02*
X-402948D01*
Y656336D02*
Y695198D01*
X-419966Y656336D02*
X-402948D01*
X-419966D02*
Y695198D01*
X-204066Y653796D02*
Y692658D01*
Y653796D02*
X-187048D01*
Y692658D01*
X-204066D02*
X-187048D01*
X-833986Y735076D02*
Y773938D01*
Y735076D02*
X-816968D01*
Y773938D01*
X-833986D02*
X-816968D01*
X-306936Y775208D02*
X-289918D01*
Y736346D02*
Y775208D01*
X-306936Y736346D02*
X-289918D01*
X-306936D02*
Y775208D01*
X-91036D02*
X-74018D01*
Y736346D02*
Y775208D01*
X-91036Y736346D02*
X-74018D01*
X-91036D02*
Y775208D01*
X-419966Y773938D02*
X-402948D01*
Y735076D02*
Y773938D01*
X-419966Y735076D02*
X-402948D01*
X-419966D02*
Y773938D01*
X-204066D02*
X-187048D01*
Y735076D02*
Y773938D01*
X-204066Y735076D02*
X-187048D01*
X-204066D02*
Y773938D01*
X-525122Y618998D02*
Y636016D01*
X-563984Y618998D02*
X-525122D01*
X-563984D02*
Y636016D01*
X-525122D01*
X-730862Y618998D02*
Y636016D01*
X-769724Y618998D02*
X-730862D01*
X-769724D02*
Y636016D01*
X-730862D01*
X-562968Y783844D02*
Y800862D01*
X-524106D01*
Y783844D02*
Y800862D01*
X-562968Y783844D02*
X-524106D01*
X-766168D02*
Y800862D01*
X-727306D01*
Y783844D02*
Y800862D01*
X-766168Y783844D02*
X-727306D01*
X-655424Y597916D02*
X-616562D01*
X-655424Y580898D02*
Y597916D01*
Y580898D02*
X-616562D01*
Y597916D01*
X-609958Y618744D02*
Y635762D01*
X-571096D01*
Y618744D02*
Y635762D01*
X-609958Y618744D02*
X-571096D01*
X-858624Y597916D02*
X-819762D01*
X-858624Y580898D02*
Y597916D01*
Y580898D02*
X-819762D01*
Y597916D01*
X-815698Y618744D02*
Y635762D01*
X-776836D01*
Y618744D02*
Y635762D01*
X-815698Y618744D02*
X-776836D01*
X-616712Y527304D02*
Y544322D01*
X-655574Y527304D02*
X-616712D01*
X-655574D02*
Y544322D01*
X-616712D01*
X-670052Y527558D02*
Y544576D01*
X-708914Y527558D02*
X-670052D01*
X-708914D02*
Y544576D01*
X-670052D01*
X-102212Y618998D02*
Y636016D01*
X-141074Y618998D02*
X-102212D01*
X-141074D02*
Y636016D01*
X-102212D01*
X-320652Y618998D02*
Y636016D01*
X-359514Y618998D02*
X-320652D01*
X-359514D02*
Y636016D01*
X-320652D01*
X-233784Y597916D02*
X-194922D01*
X-233784Y580898D02*
Y597916D01*
Y580898D02*
X-194922D01*
Y597916D01*
X-185778Y618744D02*
Y635762D01*
X-146916D01*
Y618744D02*
Y635762D01*
X-185778Y618744D02*
X-146916D01*
X-447144Y598170D02*
X-408282D01*
X-447144Y581152D02*
Y598170D01*
Y581152D02*
X-408282D01*
Y598170D01*
X-404218Y618744D02*
Y635762D01*
X-365356D01*
Y618744D02*
Y635762D01*
X-404218Y618744D02*
X-365356D01*
X-228092Y527558D02*
Y544576D01*
X-266954Y527558D02*
X-228092D01*
X-266954D02*
Y544576D01*
X-228092D01*
X-447548Y527304D02*
Y544322D01*
X-408686D01*
Y527304D02*
Y544322D01*
X-447548Y527304D02*
X-408686D01*
X-159108Y783844D02*
Y800862D01*
X-120246D01*
Y783844D02*
Y800862D01*
X-159108Y783844D02*
X-120246D01*
X-623166Y773938D02*
X-606148D01*
Y735076D02*
Y773938D01*
X-623166Y735076D02*
X-606148D01*
X-623166D02*
Y773938D01*
X-798904Y864078D02*
X-798804D01*
X-696204D02*
Y878578D01*
X-798804Y864078D02*
X-696204D01*
X-779854Y848078D02*
Y864078D01*
X-696204D02*
X-696104D01*
X-729054Y848078D02*
Y864078D01*
X-765954Y848078D02*
Y864078D01*
X-798804D02*
Y878578D01*
X-696104Y864078D02*
Y878578D01*
X-715154Y848078D02*
Y864078D01*
X-511954Y848078D02*
Y864078D01*
X-492904D02*
Y878578D01*
X-595604Y864078D02*
Y878578D01*
X-562754Y848078D02*
Y864078D01*
X-525854Y848078D02*
Y864078D01*
X-493004D02*
X-492904D01*
X-576654Y848078D02*
Y864078D01*
X-595604D02*
X-493004D01*
Y878578D01*
X-595704Y864078D02*
X-595604D01*
X-394028D02*
X-393928D01*
X-291328D02*
Y878578D01*
X-393928Y864078D02*
X-291328D01*
X-374978Y848078D02*
Y864078D01*
X-291328D02*
X-291228D01*
X-324178Y848078D02*
Y864078D01*
X-361078Y848078D02*
Y864078D01*
X-393928D02*
Y878578D01*
X-291228Y864078D02*
Y878578D01*
X-310278Y848078D02*
Y864078D01*
X-107332Y848078D02*
Y864078D01*
X-88282D02*
Y878578D01*
X-190982Y864078D02*
Y878578D01*
X-158132Y848078D02*
Y864078D01*
X-121232Y848078D02*
Y864078D01*
X-88382D02*
X-88282D01*
X-172032Y848078D02*
Y864078D01*
X-190982D02*
X-88382D01*
Y878578D01*
X-191082Y864078D02*
X-190982D01*
X-362308Y783844D02*
Y800862D01*
X-323446D01*
Y783844D02*
Y800862D01*
X-362308Y783844D02*
X-323446D01*
X-966155Y590387D02*
X-972820D01*
Y585388D01*
X-969488Y587054D01*
X-967822D01*
X-966155Y585388D01*
Y582056D01*
X-967822Y580390D01*
X-971154D01*
X-972820Y582056D01*
X-962823Y590387D02*
Y583722D01*
X-959491Y580390D01*
X-956159Y583722D01*
Y590387D01*
X-952826Y578724D02*
X-946162D01*
X-942830Y580390D02*
Y590387D01*
X-939497Y587054D01*
X-936165Y590387D01*
Y580390D01*
X-926168Y588721D02*
X-927834Y590387D01*
X-931167D01*
X-932833Y588721D01*
Y582056D01*
X-931167Y580390D01*
X-927834D01*
X-926168Y582056D01*
X-922836Y590387D02*
Y582056D01*
X-921170Y580390D01*
X-917838D01*
X-916172Y582056D01*
Y590387D01*
X-967426Y610311D02*
X-969092Y611977D01*
X-972424D01*
X-974090Y610311D01*
Y603646D01*
X-972424Y601980D01*
X-969092D01*
X-967426Y603646D01*
Y606978D01*
X-970758D01*
X-964093Y601980D02*
Y611977D01*
X-957429Y601980D01*
Y611977D01*
X-954096D02*
Y601980D01*
X-949098D01*
X-947432Y603646D01*
Y610311D01*
X-949098Y611977D01*
X-954096D01*
X-944100Y600314D02*
X-937435D01*
X-934103Y601980D02*
Y611977D01*
X-930771Y608644D01*
X-927438Y611977D01*
Y601980D01*
X-917442Y610311D02*
X-919108Y611977D01*
X-922440D01*
X-924106Y610311D01*
Y603646D01*
X-922440Y601980D01*
X-919108D01*
X-917442Y603646D01*
X-914109Y611977D02*
Y603646D01*
X-912443Y601980D01*
X-909111D01*
X-907445Y603646D01*
Y611977D01*
X-974090Y622300D02*
X-970758D01*
X-972424D01*
Y632297D01*
X-974090Y630631D01*
X-959095Y622300D02*
X-965759D01*
X-959095Y628965D01*
Y630631D01*
X-960761Y632297D01*
X-964093D01*
X-965759Y630631D01*
X-955763Y632297D02*
Y625632D01*
X-952430Y622300D01*
X-949098Y625632D01*
Y632297D01*
X-945766Y620634D02*
X-939101D01*
X-935769Y632297D02*
Y622300D01*
X-930771D01*
X-929105Y623966D01*
Y630631D01*
X-930771Y632297D01*
X-935769D01*
X-925772Y622300D02*
Y632297D01*
X-920774D01*
X-919108Y630631D01*
Y627298D01*
X-920774Y625632D01*
X-925772D01*
X-922440D02*
X-919108Y622300D01*
X-915776Y632297D02*
Y625632D01*
X-912443Y622300D01*
X-909111Y625632D01*
Y632297D01*
X-967426Y650951D02*
X-969092Y652617D01*
X-972424D01*
X-974090Y650951D01*
Y644286D01*
X-972424Y642620D01*
X-969092D01*
X-967426Y644286D01*
Y647618D01*
X-970758D01*
X-964093Y642620D02*
Y652617D01*
X-957429Y642620D01*
Y652617D01*
X-954096D02*
Y642620D01*
X-949098D01*
X-947432Y644286D01*
Y650951D01*
X-949098Y652617D01*
X-954096D01*
X-944100Y640954D02*
X-937435D01*
X-934103Y642620D02*
Y652617D01*
X-930771Y649285D01*
X-927438Y652617D01*
Y642620D01*
X-919108Y652617D02*
X-922440D01*
X-924106Y650951D01*
Y644286D01*
X-922440Y642620D01*
X-919108D01*
X-917442Y644286D01*
Y650951D01*
X-919108Y652617D01*
X9204Y262331D02*
X7538Y263997D01*
X4206D01*
X2540Y262331D01*
Y255666D01*
X4206Y254000D01*
X7538D01*
X9204Y255666D01*
X12537Y263997D02*
Y254000D01*
X19201D01*
X22534Y263997D02*
Y254000D01*
Y257332D01*
X29198Y263997D01*
X24200Y258998D01*
X29198Y254000D01*
X9204Y286461D02*
X7538Y288127D01*
X4206D01*
X2540Y286461D01*
Y279796D01*
X4206Y278130D01*
X7538D01*
X9204Y279796D01*
Y283128D01*
X5872D01*
X12537Y278130D02*
Y288127D01*
X19201Y278130D01*
Y288127D01*
X22534D02*
Y278130D01*
X27532D01*
X29198Y279796D01*
Y286461D01*
X27532Y288127D01*
X22534D01*
X2540Y314797D02*
Y304800D01*
X7538D01*
X9204Y306466D01*
Y313131D01*
X7538Y314797D01*
X2540D01*
X12537D02*
X15869D01*
X14203D01*
Y304800D01*
X12537D01*
X15869D01*
X25866Y314797D02*
X22534D01*
X20867Y313131D01*
Y306466D01*
X22534Y304800D01*
X25866D01*
X27532Y306466D01*
Y313131D01*
X25866Y314797D01*
X2540Y331470D02*
Y341467D01*
X7538D01*
X9204Y339801D01*
Y336468D01*
X7538Y334802D01*
X2540D01*
X5872D02*
X9204Y331470D01*
X19201Y339801D02*
X17535Y341467D01*
X14203D01*
X12537Y339801D01*
Y338134D01*
X14203Y336468D01*
X17535D01*
X19201Y334802D01*
Y333136D01*
X17535Y331470D01*
X14203D01*
X12537Y333136D01*
X22534Y341467D02*
X29198D01*
X25866D01*
Y331470D01*
X7934Y377901D02*
X6268Y379567D01*
X2936D01*
X1270Y377901D01*
Y371236D01*
X2936Y369570D01*
X6268D01*
X7934Y371236D01*
Y374568D01*
X4602D01*
X11267Y369570D02*
Y379567D01*
X17931Y369570D01*
Y379567D01*
X21264D02*
Y369570D01*
X26262D01*
X27928Y371236D01*
Y377901D01*
X26262Y379567D01*
X21264D01*
X1270Y395681D02*
X2936Y397347D01*
X6268D01*
X7934Y395681D01*
Y394015D01*
X6268Y392348D01*
X4602D01*
X6268D01*
X7934Y390682D01*
Y389016D01*
X6268Y387350D01*
X2936D01*
X1270Y389016D01*
X11267Y387350D02*
Y389016D01*
X12933D01*
Y387350D01*
X11267D01*
X19597Y395681D02*
X21264Y397347D01*
X24596D01*
X26262Y395681D01*
Y394015D01*
X24596Y392348D01*
X22930D01*
X24596D01*
X26262Y390682D01*
Y389016D01*
X24596Y387350D01*
X21264D01*
X19597Y389016D01*
X29594Y397347D02*
Y390682D01*
X32926Y387350D01*
X36259Y390682D01*
Y397347D01*
X7934Y412191D02*
X6268Y413857D01*
X2936D01*
X1270Y412191D01*
Y405526D01*
X2936Y403860D01*
X6268D01*
X7934Y405526D01*
X17931Y412191D02*
X16265Y413857D01*
X12933D01*
X11267Y412191D01*
Y410524D01*
X12933Y408858D01*
X16265D01*
X17931Y407192D01*
Y405526D01*
X16265Y403860D01*
X12933D01*
X11267Y405526D01*
X7934Y427431D02*
X6268Y429097D01*
X2936D01*
X1270Y427431D01*
Y420766D01*
X2936Y419100D01*
X6268D01*
X7934Y420766D01*
X11267Y429097D02*
Y419100D01*
X17931D01*
X21264Y429097D02*
Y419100D01*
Y422432D01*
X27928Y429097D01*
X22930Y424098D01*
X27928Y419100D01*
X1270Y435610D02*
Y445607D01*
X4602Y442275D01*
X7934Y445607D01*
Y435610D01*
X16265Y445607D02*
X12933D01*
X11267Y443941D01*
Y437276D01*
X12933Y435610D01*
X16265D01*
X17931Y437276D01*
Y443941D01*
X16265Y445607D01*
X27928Y443941D02*
X26262Y445607D01*
X22930D01*
X21264Y443941D01*
Y442275D01*
X22930Y440608D01*
X26262D01*
X27928Y438942D01*
Y437276D01*
X26262Y435610D01*
X22930D01*
X21264Y437276D01*
X31260Y445607D02*
X34593D01*
X32926D01*
Y435610D01*
X31260D01*
X34593D01*
X1270Y452120D02*
Y462117D01*
X4602Y458784D01*
X7934Y462117D01*
Y452120D01*
X11267Y462117D02*
X14599D01*
X12933D01*
Y452120D01*
X11267D01*
X14599D01*
X26262Y460451D02*
X24596Y462117D01*
X21264D01*
X19597Y460451D01*
Y458784D01*
X21264Y457118D01*
X24596D01*
X26262Y455452D01*
Y453786D01*
X24596Y452120D01*
X21264D01*
X19597Y453786D01*
X34593Y462117D02*
X31260D01*
X29594Y460451D01*
Y453786D01*
X31260Y452120D01*
X34593D01*
X36259Y453786D01*
Y460451D01*
X34593Y462117D01*
X6665Y503631D02*
X4998Y505297D01*
X1666D01*
X0Y503631D01*
Y496966D01*
X1666Y495300D01*
X4998D01*
X6665Y496966D01*
Y500298D01*
X3332D01*
X9997Y495300D02*
Y505297D01*
X16661Y495300D01*
Y505297D01*
X19994D02*
Y495300D01*
X24992D01*
X26658Y496966D01*
Y503631D01*
X24992Y505297D01*
X19994D01*
X3810Y531967D02*
X10474D01*
X7142D01*
Y521970D01*
X13807Y531967D02*
X20471Y521970D01*
Y531967D02*
X13807Y521970D01*
X5080Y547370D02*
Y557367D01*
X10078D01*
X11745Y555701D01*
Y552368D01*
X10078Y550702D01*
X5080D01*
X8412D02*
X11745Y547370D01*
X15077Y557367D02*
X21741Y547370D01*
Y557367D02*
X15077Y547370D01*
X0Y582371D02*
X1666Y584037D01*
X4998D01*
X6665Y582371D01*
Y580704D01*
X4998Y579038D01*
X3332D01*
X4998D01*
X6665Y577372D01*
Y575706D01*
X4998Y574040D01*
X1666D01*
X0Y575706D01*
X9997Y574040D02*
Y575706D01*
X11663D01*
Y574040D01*
X9997D01*
X18327Y582371D02*
X19994Y584037D01*
X23326D01*
X24992Y582371D01*
Y580704D01*
X23326Y579038D01*
X21660D01*
X23326D01*
X24992Y577372D01*
Y575706D01*
X23326Y574040D01*
X19994D01*
X18327Y575706D01*
X28324Y584037D02*
Y577372D01*
X31656Y574040D01*
X34989Y577372D01*
Y584037D01*
X6665Y201371D02*
X4998Y203037D01*
X1666D01*
X0Y201371D01*
Y199704D01*
X1666Y198038D01*
X4998D01*
X6665Y196372D01*
Y194706D01*
X4998Y193040D01*
X1666D01*
X0Y194706D01*
X9997Y203037D02*
X13329D01*
X11663D01*
Y193040D01*
X9997D01*
X13329D01*
X24992Y201371D02*
X23326Y203037D01*
X19994D01*
X18327Y201371D01*
Y194706D01*
X19994Y193040D01*
X23326D01*
X24992Y194706D01*
Y198038D01*
X21660D01*
X7934Y181447D02*
X1270D01*
Y176448D01*
X4602Y178114D01*
X6268D01*
X7934Y176448D01*
Y173116D01*
X6268Y171450D01*
X2936D01*
X1270Y173116D01*
X11267Y181447D02*
Y174782D01*
X14599Y171450D01*
X17931Y174782D01*
Y181447D01*
X6665Y151841D02*
X4998Y153507D01*
X1666D01*
X0Y151841D01*
Y145176D01*
X1666Y143510D01*
X4998D01*
X6665Y145176D01*
Y148508D01*
X3332D01*
X9997Y143510D02*
Y153507D01*
X16661Y143510D01*
Y153507D01*
X19994D02*
Y143510D01*
X24992D01*
X26658Y145176D01*
Y151841D01*
X24992Y153507D01*
X19994D01*
X10474Y48971D02*
X8808Y50637D01*
X5476D01*
X3810Y48971D01*
Y42306D01*
X5476Y40640D01*
X8808D01*
X10474Y42306D01*
Y45638D01*
X7142D01*
X13807Y40640D02*
Y50637D01*
X20471Y40640D01*
Y50637D01*
X23804D02*
Y40640D01*
X28802D01*
X30468Y42306D01*
Y48971D01*
X28802Y50637D01*
X23804D01*
X11745Y78577D02*
X5080D01*
Y73578D01*
X8412Y75244D01*
X10078D01*
X11745Y73578D01*
Y70246D01*
X10078Y68580D01*
X6746D01*
X5080Y70246D01*
X15077Y78577D02*
Y71912D01*
X18409Y68580D01*
X21741Y71912D01*
Y78577D01*
X10474Y98501D02*
X8808Y100167D01*
X5476D01*
X3810Y98501D01*
Y96834D01*
X5476Y95168D01*
X8808D01*
X10474Y93502D01*
Y91836D01*
X8808Y90170D01*
X5476D01*
X3810Y91836D01*
X13807Y100167D02*
X17139D01*
X15473D01*
Y90170D01*
X13807D01*
X17139D01*
X28802Y98501D02*
X27136Y100167D01*
X23804D01*
X22137Y98501D01*
Y91836D01*
X23804Y90170D01*
X27136D01*
X28802Y91836D01*
Y95168D01*
X25470D01*
X3810Y772160D02*
Y782157D01*
X8808D01*
X10474Y780491D01*
Y777158D01*
X8808Y775492D01*
X3810D01*
X13807Y772160D02*
Y778824D01*
X17139Y782157D01*
X20471Y778824D01*
Y772160D01*
Y777158D01*
X13807D01*
X23804Y780491D02*
X25470Y782157D01*
X28802D01*
X30468Y780491D01*
Y773826D01*
X28802Y772160D01*
X25470D01*
X23804Y773826D01*
Y780491D01*
X3810Y745490D02*
Y755487D01*
X8808D01*
X10474Y753821D01*
Y750488D01*
X8808Y748822D01*
X3810D01*
X13807Y745490D02*
Y752154D01*
X17139Y755487D01*
X20471Y752154D01*
Y745490D01*
Y750488D01*
X13807D01*
X23804Y745490D02*
X27136D01*
X25470D01*
Y755487D01*
X23804Y753821D01*
X9204Y804621D02*
X7538Y806287D01*
X4206D01*
X2540Y804621D01*
Y797956D01*
X4206Y796290D01*
X7538D01*
X9204Y797956D01*
Y801288D01*
X5872D01*
X12537Y796290D02*
Y806287D01*
X19201Y796290D01*
Y806287D01*
X22534D02*
Y796290D01*
X27532D01*
X29198Y797956D01*
Y804621D01*
X27532Y806287D01*
X22534D01*
X1270Y831291D02*
X2936Y832957D01*
X6268D01*
X7934Y831291D01*
Y829624D01*
X6268Y827958D01*
X4602D01*
X6268D01*
X7934Y826292D01*
Y824626D01*
X6268Y822960D01*
X2936D01*
X1270Y824626D01*
X11267Y822960D02*
Y824626D01*
X12933D01*
Y822960D01*
X11267D01*
X19597Y831291D02*
X21264Y832957D01*
X24596D01*
X26262Y831291D01*
Y829624D01*
X24596Y827958D01*
X22930D01*
X24596D01*
X26262Y826292D01*
Y824626D01*
X24596Y822960D01*
X21264D01*
X19597Y824626D01*
X29594Y832957D02*
Y826292D01*
X32926Y822960D01*
X36259Y826292D01*
Y832957D01*
D75*
X-843765Y779780D02*
G03*
X-843765Y779780I-63754J0D01*
G01*
X-844146Y923290D02*
G03*
X-844146Y923290I-63754J0D01*
G01*
X-842495Y779780D02*
X-829795D01*
X-836145Y773430D02*
Y786130D01*
X-842876Y923290D02*
X-830176D01*
X-836526Y916940D02*
Y929640D01*
D76*
X-739270Y736600D02*
G03*
X-739270Y736600I-17500J0D01*
G01*
X-327790D02*
G03*
X-327790Y736600I-17500J0D01*
G01*
X-111890D02*
G03*
X-111890Y736600I-17500J0D01*
G01*
X-530670D02*
G03*
X-530670Y736600I-17500J0D01*
G01*
X-939800Y179070D02*
X-937260D01*
X-947420D02*
X-944880D01*
X-939800Y176530D02*
Y181610D01*
X-944880Y184150D02*
X-939800Y179070D01*
X-944880Y173990D02*
X-939800Y179070D01*
X-944880Y173990D02*
Y184150D01*
X10160Y224790D02*
Y227330D01*
Y232410D02*
Y234950D01*
X7620Y227330D02*
X12700D01*
X10160D02*
X15240Y232410D01*
X5080D02*
X10160Y227330D01*
X5080Y232410D02*
X15240D01*
X-769270Y724100D02*
X-766770D01*
X-764270D01*
X-766770Y721600D02*
Y726600D01*
X-357790Y724100D02*
X-355290D01*
X-352790D01*
X-355290Y721600D02*
Y726600D01*
X-139390Y721600D02*
Y726600D01*
Y724100D02*
X-136890D01*
X-141890D02*
X-139390D01*
X-560670D02*
X-558170D01*
X-555670D01*
X-558170Y721600D02*
Y726600D01*
X-294640Y473358D02*
X-290641D01*
X-292641D01*
Y467360D01*
X-288642D02*
Y473358D01*
X-285643D01*
X-284643Y472358D01*
Y470359D01*
X-285643Y469359D01*
X-288642D01*
X-282644Y468360D02*
X-281644Y467360D01*
X-279645D01*
X-278645Y468360D01*
Y472358D01*
X-279645Y473358D01*
X-281644D01*
X-282644Y472358D01*
Y471359D01*
X-281644Y470359D01*
X-278645D01*
X-673100Y501298D02*
X-669101D01*
X-671101D01*
Y495300D01*
X-667102D02*
Y501298D01*
X-664103D01*
X-663103Y500298D01*
Y498299D01*
X-664103Y497299D01*
X-667102D01*
X-661104Y501298D02*
X-657105D01*
Y500298D01*
X-661104Y496300D01*
Y495300D01*
X-467360Y493678D02*
X-463361D01*
X-465361D01*
Y487680D01*
X-461362D02*
Y493678D01*
X-458363D01*
X-457363Y492678D01*
Y490679D01*
X-458363Y489679D01*
X-461362D01*
X-455364Y492678D02*
X-454364Y493678D01*
X-452365D01*
X-451365Y492678D01*
Y491679D01*
X-452365Y490679D01*
X-451365Y489679D01*
Y488680D01*
X-452365Y487680D01*
X-454364D01*
X-455364Y488680D01*
Y489679D01*
X-454364Y490679D01*
X-455364Y491679D01*
Y492678D01*
X-454364Y490679D02*
X-452365D01*
X-85090Y606708D02*
X-81091D01*
X-83091D01*
Y600710D01*
X-79092D02*
Y606708D01*
X-76093D01*
X-75093Y605708D01*
Y603709D01*
X-76093Y602709D01*
X-79092D01*
X-73094Y600710D02*
X-71094D01*
X-72094D01*
Y606708D01*
X-73094Y605708D01*
X-68095D02*
X-67096Y606708D01*
X-65097D01*
X-64097Y605708D01*
Y601710D01*
X-65097Y600710D01*
X-67096D01*
X-68095Y601710D01*
Y605708D01*
X-43098Y273239D02*
X-44098Y272239D01*
Y270240D01*
X-43098Y269240D01*
X-39100D01*
X-38100Y270240D01*
Y272239D01*
X-39100Y273239D01*
X-41099D01*
Y271239D01*
X-38100Y275238D02*
X-44098D01*
X-38100Y279237D01*
X-44098D01*
Y281236D02*
X-38100D01*
Y284235D01*
X-39100Y285235D01*
X-43098D01*
X-44098Y284235D01*
Y281236D01*
X-37100Y287234D02*
Y291233D01*
X-38100Y293232D02*
X-44098D01*
X-42099Y295232D01*
X-44098Y297231D01*
X-38100D01*
X-43098Y303229D02*
X-44098Y302229D01*
Y300230D01*
X-43098Y299230D01*
X-39100D01*
X-38100Y300230D01*
Y302229D01*
X-39100Y303229D01*
X-44098Y305228D02*
X-39100D01*
X-38100Y306228D01*
Y308227D01*
X-39100Y309227D01*
X-44098D01*
X-72038Y320040D02*
Y324039D01*
Y322039D01*
X-66040D01*
Y326038D02*
X-72038D01*
Y329037D01*
X-71038Y330037D01*
X-69039D01*
X-68039Y329037D01*
Y326038D01*
X-72038Y336035D02*
X-71038Y334035D01*
X-69039Y332036D01*
X-67040D01*
X-66040Y333036D01*
Y335035D01*
X-67040Y336035D01*
X-68039D01*
X-69039Y335035D01*
Y332036D01*
X-738951Y245028D02*
X-739951Y246028D01*
X-741950D01*
X-742950Y245028D01*
Y241030D01*
X-741950Y240030D01*
X-739951D01*
X-738951Y241030D01*
Y243029D01*
X-740951D01*
X-736952Y240030D02*
Y246028D01*
X-732953Y240030D01*
Y246028D01*
X-730954D02*
Y240030D01*
X-727955D01*
X-726955Y241030D01*
Y245028D01*
X-727955Y246028D01*
X-730954D01*
X-724956Y239030D02*
X-720957D01*
X-718958Y240030D02*
Y246028D01*
X-716958Y244029D01*
X-714959Y246028D01*
Y240030D01*
X-708961Y245028D02*
X-709961Y246028D01*
X-711960D01*
X-712960Y245028D01*
Y241030D01*
X-711960Y240030D01*
X-709961D01*
X-708961Y241030D01*
X-706962Y246028D02*
Y241030D01*
X-705962Y240030D01*
X-703963D01*
X-702963Y241030D01*
Y246028D01*
X-731520Y190148D02*
X-727521D01*
X-729521D01*
Y184150D01*
X-725522D02*
Y190148D01*
X-722523D01*
X-721523Y189148D01*
Y187149D01*
X-722523Y186149D01*
X-725522D01*
X-715525Y190148D02*
X-719524D01*
Y187149D01*
X-717524Y188149D01*
X-716525D01*
X-715525Y187149D01*
Y185150D01*
X-716525Y184150D01*
X-718524D01*
X-719524Y185150D01*
X-661481Y666668D02*
X-662481Y667668D01*
X-664480D01*
X-665480Y666668D01*
Y662670D01*
X-664480Y661670D01*
X-662481D01*
X-661481Y662670D01*
Y664669D01*
X-663481D01*
X-659482Y661670D02*
Y667668D01*
X-655483Y661670D01*
Y667668D01*
X-653484D02*
Y661670D01*
X-650485D01*
X-649485Y662670D01*
Y666668D01*
X-650485Y667668D01*
X-653484D01*
X-647486Y660670D02*
X-643487D01*
X-641488Y661670D02*
Y667668D01*
X-639488Y665669D01*
X-637489Y667668D01*
Y661670D01*
X-631491Y666668D02*
X-632491Y667668D01*
X-634490D01*
X-635490Y666668D01*
Y662670D01*
X-634490Y661670D01*
X-632491D01*
X-631491Y662670D01*
X-629492Y667668D02*
Y662670D01*
X-628492Y661670D01*
X-626493D01*
X-625493Y662670D01*
Y667668D01*
X-647700Y615598D02*
X-643701D01*
X-645701D01*
Y609600D01*
X-641702D02*
Y615598D01*
X-638703D01*
X-637703Y614598D01*
Y612599D01*
X-638703Y611599D01*
X-641702D01*
X-632705Y609600D02*
Y615598D01*
X-635704Y612599D01*
X-631705D01*
X-683260Y667668D02*
X-681261D01*
X-682260D01*
Y661670D01*
X-683260D01*
X-681261D01*
X-678262D02*
Y665669D01*
X-676262Y667668D01*
X-674263Y665669D01*
Y661670D01*
Y664669D01*
X-678262D01*
X-681990Y615598D02*
X-677991D01*
X-679991D01*
Y609600D01*
X-675992D02*
Y615598D01*
X-672993D01*
X-671993Y614598D01*
Y612599D01*
X-672993Y611599D01*
X-675992D01*
X-669994Y609600D02*
X-667995D01*
X-668994D01*
Y615598D01*
X-669994Y614598D01*
X-441960Y675288D02*
X-439961D01*
X-440960D01*
Y669290D01*
X-441960D01*
X-439961D01*
X-436962Y675288D02*
Y669290D01*
X-433963D01*
X-432963Y670290D01*
Y671289D01*
X-433963Y672289D01*
X-436962D01*
X-433963D01*
X-432963Y673289D01*
Y674288D01*
X-433963Y675288D01*
X-436962D01*
X-445770Y619408D02*
X-441771D01*
X-443771D01*
Y613410D01*
X-439772D02*
Y619408D01*
X-436773D01*
X-435773Y618408D01*
Y616409D01*
X-436773Y615409D01*
X-439772D01*
X-429775Y613410D02*
X-433774D01*
X-429775Y617409D01*
Y618408D01*
X-430775Y619408D01*
X-432774D01*
X-433774Y618408D01*
X-486221Y674288D02*
X-487221Y675288D01*
X-489220D01*
X-490220Y674288D01*
Y670290D01*
X-489220Y669290D01*
X-487221D01*
X-486221Y670290D01*
Y672289D01*
X-488221D01*
X-484222Y669290D02*
Y675288D01*
X-480223Y669290D01*
Y675288D01*
X-478224D02*
Y669290D01*
X-475225D01*
X-474225Y670290D01*
Y674288D01*
X-475225Y675288D01*
X-478224D01*
X-472226Y668290D02*
X-468227D01*
X-466228Y669290D02*
Y675288D01*
X-464228Y673289D01*
X-462229Y675288D01*
Y669290D01*
X-456231Y674288D02*
X-457231Y675288D01*
X-459230D01*
X-460230Y674288D01*
Y670290D01*
X-459230Y669290D01*
X-457231D01*
X-456231Y670290D01*
X-454232Y675288D02*
Y670290D01*
X-453232Y669290D01*
X-451233D01*
X-450233Y670290D01*
Y675288D01*
X-477520Y619408D02*
X-473521D01*
X-475521D01*
Y613410D01*
X-471522D02*
Y619408D01*
X-468523D01*
X-467523Y618408D01*
Y616409D01*
X-468523Y615409D01*
X-471522D01*
X-465524Y618408D02*
X-464524Y619408D01*
X-462525D01*
X-461525Y618408D01*
Y617409D01*
X-462525Y616409D01*
X-463525D01*
X-462525D01*
X-461525Y615409D01*
Y614410D01*
X-462525Y613410D01*
X-464524D01*
X-465524Y614410D01*
X-927452Y537021D02*
Y541020D01*
X-930451D01*
Y539021D01*
Y541020D01*
X-933450D01*
Y535022D02*
Y533023D01*
Y534022D01*
X-927452D01*
X-928452Y535022D01*
X-34290Y741680D02*
X-40288D01*
Y744679D01*
X-39288Y745679D01*
X-37289D01*
X-36289Y744679D01*
Y741680D01*
X-34290Y747678D02*
Y749677D01*
Y748678D01*
X-40288D01*
X-39288Y747678D01*
X-862330Y21590D02*
Y27588D01*
X-859331D01*
X-858331Y26588D01*
Y24589D01*
X-859331Y23589D01*
X-862330D01*
X-852333Y21590D02*
X-856332D01*
X-852333Y25589D01*
Y26588D01*
X-853333Y27588D01*
X-855332D01*
X-856332Y26588D01*
X-858520Y111760D02*
X-856521D01*
X-857520D01*
Y117758D01*
X-858520Y116758D01*
X-849523Y111760D02*
X-853522D01*
X-849523Y115759D01*
Y116758D01*
X-850523Y117758D01*
X-852522D01*
X-853522Y116758D01*
X-847524Y117758D02*
Y113759D01*
X-845524Y111760D01*
X-843525Y113759D01*
Y117758D01*
X-841525Y110760D02*
X-837527D01*
X-835527Y111760D02*
Y117758D01*
X-833528Y115759D01*
X-831529Y117758D01*
Y111760D01*
X-825531Y116758D02*
X-826530Y117758D01*
X-828530D01*
X-829529Y116758D01*
Y112760D01*
X-828530Y111760D01*
X-826530D01*
X-825531Y112760D01*
X-823531Y117758D02*
Y112760D01*
X-822532Y111760D01*
X-820532D01*
X-819533Y112760D01*
Y117758D01*
X-854521Y98978D02*
X-855521Y99978D01*
X-857520D01*
X-858520Y98978D01*
Y94980D01*
X-857520Y93980D01*
X-855521D01*
X-854521Y94980D01*
Y96979D01*
X-856521D01*
X-852522Y93980D02*
Y99978D01*
X-848523Y93980D01*
Y99978D01*
X-846524D02*
Y93980D01*
X-843525D01*
X-842525Y94980D01*
Y98978D01*
X-843525Y99978D01*
X-846524D01*
X-840526Y92980D02*
X-836527D01*
X-834528Y93980D02*
Y99978D01*
X-832528Y97979D01*
X-830529Y99978D01*
Y93980D01*
X-824531Y98978D02*
X-825531Y99978D01*
X-827530D01*
X-828530Y98978D01*
Y94980D01*
X-827530Y93980D01*
X-825531D01*
X-824531Y94980D01*
X-822532Y99978D02*
Y94980D01*
X-821532Y93980D01*
X-819533D01*
X-818533Y94980D01*
Y99978D01*
X-309528Y88900D02*
X-303530D01*
Y91899D01*
X-304530Y92899D01*
X-305529D01*
X-306529Y91899D01*
Y88900D01*
Y91899D01*
X-307529Y92899D01*
X-308528D01*
X-309528Y91899D01*
Y88900D01*
Y94898D02*
Y98897D01*
X-308528D01*
X-304530Y94898D01*
X-303530D01*
X-268888Y88900D02*
X-262890D01*
Y91899D01*
X-263890Y92899D01*
X-264889D01*
X-265889Y91899D01*
Y88900D01*
Y91899D01*
X-266889Y92899D01*
X-267888D01*
X-268888Y91899D01*
Y88900D01*
Y98897D02*
X-267888Y96897D01*
X-265889Y94898D01*
X-263890D01*
X-262890Y95898D01*
Y97897D01*
X-263890Y98897D01*
X-264889D01*
X-265889Y97897D01*
Y94898D01*
X-230788Y88900D02*
X-224790D01*
Y91899D01*
X-225790Y92899D01*
X-226789D01*
X-227789Y91899D01*
Y88900D01*
Y91899D01*
X-228789Y92899D01*
X-229788D01*
X-230788Y91899D01*
Y88900D01*
Y98897D02*
Y94898D01*
X-227789D01*
X-228789Y96897D01*
Y97897D01*
X-227789Y98897D01*
X-225790D01*
X-224790Y97897D01*
Y95898D01*
X-225790Y94898D01*
X-190148Y88900D02*
X-184150D01*
Y91899D01*
X-185150Y92899D01*
X-186149D01*
X-187149Y91899D01*
Y88900D01*
Y91899D01*
X-188149Y92899D01*
X-189148D01*
X-190148Y91899D01*
Y88900D01*
X-184150Y97897D02*
X-190148D01*
X-187149Y94898D01*
Y98897D01*
X-149508Y88900D02*
X-143510D01*
Y91899D01*
X-144510Y92899D01*
X-145509D01*
X-146509Y91899D01*
Y88900D01*
Y91899D01*
X-147509Y92899D01*
X-148508D01*
X-149508Y91899D01*
Y88900D01*
X-148508Y94898D02*
X-149508Y95898D01*
Y97897D01*
X-148508Y98897D01*
X-147509D01*
X-146509Y97897D01*
Y96897D01*
Y97897D01*
X-145509Y98897D01*
X-144510D01*
X-143510Y97897D01*
Y95898D01*
X-144510Y94898D01*
X-111408Y88900D02*
X-105410D01*
Y91899D01*
X-106410Y92899D01*
X-107409D01*
X-108409Y91899D01*
Y88900D01*
Y91899D01*
X-109409Y92899D01*
X-110408D01*
X-111408Y91899D01*
Y88900D01*
X-105410Y98897D02*
Y94898D01*
X-109409Y98897D01*
X-110408D01*
X-111408Y97897D01*
Y95898D01*
X-110408Y94898D01*
X-70768Y88900D02*
X-64770D01*
Y91899D01*
X-65770Y92899D01*
X-66769D01*
X-67769Y91899D01*
Y88900D01*
Y91899D01*
X-68769Y92899D01*
X-69768D01*
X-70768Y91899D01*
Y88900D01*
X-64770Y94898D02*
Y96897D01*
Y95898D01*
X-70768D01*
X-69768Y94898D01*
X-30128Y88900D02*
X-24130D01*
Y91899D01*
X-25130Y92899D01*
X-26129D01*
X-27129Y91899D01*
Y88900D01*
Y91899D01*
X-28129Y92899D01*
X-29128D01*
X-30128Y91899D01*
Y88900D01*
X-29128Y94898D02*
X-30128Y95898D01*
Y97897D01*
X-29128Y98897D01*
X-25130D01*
X-24130Y97897D01*
Y95898D01*
X-25130Y94898D01*
X-29128D01*
X-28858Y219710D02*
X-22860D01*
Y222709D01*
X-23860Y223709D01*
X-24859D01*
X-25859Y222709D01*
Y219710D01*
Y222709D01*
X-26859Y223709D01*
X-27858D01*
X-28858Y222709D01*
Y219710D01*
X-27858Y225708D02*
X-28858Y226708D01*
Y228707D01*
X-27858Y229707D01*
X-26859D01*
X-25859Y228707D01*
X-24859Y229707D01*
X-23860D01*
X-22860Y228707D01*
Y226708D01*
X-23860Y225708D01*
X-24859D01*
X-25859Y226708D01*
X-26859Y225708D01*
X-27858D01*
X-25859Y226708D02*
Y228707D01*
X-69498Y219710D02*
X-63500D01*
Y222709D01*
X-64500Y223709D01*
X-65499D01*
X-66499Y222709D01*
Y219710D01*
Y222709D01*
X-67499Y223709D01*
X-68498D01*
X-69498Y222709D01*
Y219710D01*
X-64500Y225708D02*
X-63500Y226708D01*
Y228707D01*
X-64500Y229707D01*
X-68498D01*
X-69498Y228707D01*
Y226708D01*
X-68498Y225708D01*
X-67499D01*
X-66499Y226708D01*
Y229707D01*
X-110138Y219710D02*
X-104140D01*
Y222709D01*
X-105140Y223709D01*
X-106139D01*
X-107139Y222709D01*
Y219710D01*
Y222709D01*
X-108139Y223709D01*
X-109138D01*
X-110138Y222709D01*
Y219710D01*
X-104140Y225708D02*
Y227707D01*
Y226708D01*
X-110138D01*
X-109138Y225708D01*
Y230706D02*
X-110138Y231706D01*
Y233706D01*
X-109138Y234705D01*
X-105140D01*
X-104140Y233706D01*
Y231706D01*
X-105140Y230706D01*
X-109138D01*
X-150778Y219710D02*
X-144780D01*
Y222709D01*
X-145780Y223709D01*
X-146779D01*
X-147779Y222709D01*
Y219710D01*
Y222709D01*
X-148779Y223709D01*
X-149778D01*
X-150778Y222709D01*
Y219710D01*
X-144780Y225708D02*
Y227707D01*
Y226708D01*
X-150778D01*
X-149778Y225708D01*
X-144780Y230706D02*
Y232706D01*
Y231706D01*
X-150778D01*
X-149778Y230706D01*
X-188878Y219710D02*
X-182880D01*
Y222709D01*
X-183880Y223709D01*
X-184879D01*
X-185879Y222709D01*
Y219710D01*
Y222709D01*
X-186879Y223709D01*
X-187878D01*
X-188878Y222709D01*
Y219710D01*
X-182880Y225708D02*
Y227707D01*
Y226708D01*
X-188878D01*
X-187878Y225708D01*
X-182880Y234705D02*
Y230706D01*
X-186879Y234705D01*
X-187878D01*
X-188878Y233706D01*
Y231706D01*
X-187878Y230706D01*
X-228248Y219710D02*
X-222250D01*
Y222709D01*
X-223250Y223709D01*
X-224249D01*
X-225249Y222709D01*
Y219710D01*
Y222709D01*
X-226249Y223709D01*
X-227248D01*
X-228248Y222709D01*
Y219710D01*
X-222250Y225708D02*
Y227707D01*
Y226708D01*
X-228248D01*
X-227248Y225708D01*
Y230706D02*
X-228248Y231706D01*
Y233706D01*
X-227248Y234705D01*
X-226249D01*
X-225249Y233706D01*
Y232706D01*
Y233706D01*
X-224249Y234705D01*
X-223250D01*
X-222250Y233706D01*
Y231706D01*
X-223250Y230706D01*
X-270158Y219710D02*
X-264160D01*
Y222709D01*
X-265160Y223709D01*
X-266159D01*
X-267159Y222709D01*
Y219710D01*
Y222709D01*
X-268159Y223709D01*
X-269158D01*
X-270158Y222709D01*
Y219710D01*
X-264160Y225708D02*
Y227707D01*
Y226708D01*
X-270158D01*
X-269158Y225708D01*
X-264160Y233706D02*
X-270158D01*
X-267159Y230706D01*
Y234705D01*
X-308258Y219710D02*
X-302260D01*
Y222709D01*
X-303260Y223709D01*
X-304259D01*
X-305259Y222709D01*
Y219710D01*
Y222709D01*
X-306259Y223709D01*
X-307258D01*
X-308258Y222709D01*
Y219710D01*
X-302260Y225708D02*
Y227707D01*
Y226708D01*
X-308258D01*
X-307258Y225708D01*
X-308258Y234705D02*
Y230706D01*
X-305259D01*
X-306259Y232706D01*
Y233706D01*
X-305259Y234705D01*
X-303260D01*
X-302260Y233706D01*
Y231706D01*
X-303260Y230706D01*
X-511810Y273050D02*
Y279048D01*
X-508811D01*
X-507811Y278048D01*
Y276049D01*
X-508811Y275049D01*
X-511810D01*
X-509811D02*
X-507811Y273050D01*
X-505812Y278048D02*
X-504812Y279048D01*
X-502813D01*
X-501813Y278048D01*
Y277049D01*
X-502813Y276049D01*
X-503813D01*
X-502813D01*
X-501813Y275049D01*
Y274050D01*
X-502813Y273050D01*
X-504812D01*
X-505812Y274050D01*
X-496815Y273050D02*
Y279048D01*
X-499814Y276049D01*
X-495815D01*
X-510351Y253918D02*
X-511351Y254918D01*
X-513350D01*
X-514350Y253918D01*
Y249920D01*
X-513350Y248920D01*
X-511351D01*
X-510351Y249920D01*
X-508352Y253918D02*
X-507352Y254918D01*
X-505353D01*
X-504353Y253918D01*
Y252919D01*
X-505353Y251919D01*
X-506353D01*
X-505353D01*
X-504353Y250919D01*
Y249920D01*
X-505353Y248920D01*
X-507352D01*
X-508352Y249920D01*
X-502354Y253918D02*
X-501354Y254918D01*
X-499355D01*
X-498355Y253918D01*
Y249920D01*
X-499355Y248920D01*
X-501354D01*
X-502354Y249920D01*
Y253918D01*
X-929722Y486221D02*
X-928722Y487221D01*
Y489220D01*
X-929722Y490220D01*
X-933720D01*
X-934720Y489220D01*
Y487221D01*
X-933720Y486221D01*
X-929722Y484222D02*
X-928722Y483222D01*
Y481223D01*
X-929722Y480223D01*
X-930721D01*
X-931721Y481223D01*
Y482223D01*
Y481223D01*
X-932721Y480223D01*
X-933720D01*
X-934720Y481223D01*
Y483222D01*
X-933720Y484222D01*
X-929722Y478224D02*
X-928722Y477224D01*
Y475225D01*
X-929722Y474225D01*
X-930721D01*
X-931721Y475225D01*
X-932721Y474225D01*
X-933720D01*
X-934720Y475225D01*
Y477224D01*
X-933720Y478224D01*
X-932721D01*
X-931721Y477224D01*
X-930721Y478224D01*
X-929722D01*
X-931721Y477224D02*
Y475225D01*
X-873842Y524321D02*
X-872842Y525321D01*
Y527320D01*
X-873842Y528320D01*
X-877840D01*
X-878840Y527320D01*
Y525321D01*
X-877840Y524321D01*
X-873842Y522322D02*
X-872842Y521322D01*
Y519323D01*
X-873842Y518323D01*
X-874841D01*
X-875841Y519323D01*
Y520323D01*
Y519323D01*
X-876841Y518323D01*
X-877840D01*
X-878840Y519323D01*
Y521322D01*
X-877840Y522322D01*
X-872842Y516324D02*
Y512325D01*
X-873842D01*
X-877840Y516324D01*
X-878840D01*
X-806261Y355518D02*
X-807261Y356518D01*
X-809260D01*
X-810260Y355518D01*
Y351520D01*
X-809260Y350520D01*
X-807261D01*
X-806261Y351520D01*
X-800263Y350520D02*
X-804262D01*
X-800263Y354519D01*
Y355518D01*
X-801263Y356518D01*
X-803262D01*
X-804262Y355518D01*
X-798264Y351520D02*
X-797264Y350520D01*
X-795265D01*
X-794265Y351520D01*
Y355518D01*
X-795265Y356518D01*
X-797264D01*
X-798264Y355518D01*
Y354519D01*
X-797264Y353519D01*
X-794265D01*
X-804991Y248838D02*
X-805991Y249838D01*
X-807990D01*
X-808990Y248838D01*
Y244840D01*
X-807990Y243840D01*
X-805991D01*
X-804991Y244840D01*
X-798993Y243840D02*
X-802992D01*
X-798993Y247839D01*
Y248838D01*
X-799993Y249838D01*
X-801992D01*
X-802992Y248838D01*
X-796994D02*
X-795994Y249838D01*
X-793995D01*
X-792995Y248838D01*
Y247839D01*
X-793995Y246839D01*
X-792995Y245839D01*
Y244840D01*
X-793995Y243840D01*
X-795994D01*
X-796994Y244840D01*
Y245839D01*
X-795994Y246839D01*
X-796994Y247839D01*
Y248838D01*
X-795994Y246839D02*
X-793995D01*
X-748112Y323661D02*
X-747112Y324661D01*
Y326660D01*
X-748112Y327660D01*
X-752110D01*
X-753110Y326660D01*
Y324661D01*
X-752110Y323661D01*
X-748112Y321662D02*
X-747112Y320662D01*
Y318663D01*
X-748112Y317663D01*
X-749111D01*
X-750111Y318663D01*
Y319663D01*
Y318663D01*
X-751111Y317663D01*
X-752110D01*
X-753110Y318663D01*
Y320662D01*
X-752110Y321662D01*
X-748112Y315664D02*
X-747112Y314664D01*
Y312665D01*
X-748112Y311665D01*
X-749111D01*
X-750111Y312665D01*
Y313664D01*
Y312665D01*
X-751111Y311665D01*
X-752110D01*
X-753110Y312665D01*
Y314664D01*
X-752110Y315664D01*
X-685611Y314878D02*
X-686611Y315878D01*
X-688610D01*
X-689610Y314878D01*
Y310880D01*
X-688610Y309880D01*
X-686611D01*
X-685611Y310880D01*
X-683612Y314878D02*
X-682612Y315878D01*
X-680613D01*
X-679613Y314878D01*
Y313879D01*
X-680613Y312879D01*
X-681613D01*
X-680613D01*
X-679613Y311879D01*
Y310880D01*
X-680613Y309880D01*
X-682612D01*
X-683612Y310880D01*
X-677614Y309880D02*
X-675614D01*
X-676614D01*
Y315878D01*
X-677614Y314878D01*
X-635000Y319688D02*
X-631001D01*
X-633001D01*
Y313690D01*
X-629002D02*
X-627003D01*
X-628002D01*
Y319688D01*
X-629002Y318688D01*
X-499081Y308737D02*
X-505079D01*
Y305738D01*
X-504079Y304738D01*
X-500081D01*
X-499081Y305738D01*
Y308737D01*
X-505079Y299740D02*
X-499081D01*
X-502080Y302739D01*
Y298740D01*
X-804991Y11348D02*
X-805991Y12348D01*
X-807990D01*
X-808990Y11348D01*
Y7350D01*
X-807990Y6350D01*
X-805991D01*
X-804991Y7350D01*
X-798993Y12348D02*
X-802992D01*
Y9349D01*
X-800993Y10349D01*
X-799993D01*
X-798993Y9349D01*
Y7350D01*
X-799993Y6350D01*
X-801992D01*
X-802992Y7350D01*
X-796994Y11348D02*
X-795994Y12348D01*
X-793995D01*
X-792995Y11348D01*
Y7350D01*
X-793995Y6350D01*
X-795994D01*
X-796994Y7350D01*
Y11348D01*
X-343854Y25826D02*
X-344854Y26826D01*
X-346853D01*
X-347853Y25826D01*
Y21828D01*
X-346853Y20828D01*
X-344854D01*
X-343854Y21828D01*
X-338856Y20828D02*
Y26826D01*
X-341855Y23827D01*
X-337856D01*
X-335857Y21828D02*
X-334857Y20828D01*
X-332858D01*
X-331858Y21828D01*
Y25826D01*
X-332858Y26826D01*
X-334857D01*
X-335857Y25826D01*
Y24827D01*
X-334857Y23827D01*
X-331858D01*
X-338647Y133014D02*
X-339647Y134014D01*
X-341646D01*
X-342646Y133014D01*
Y129016D01*
X-341646Y128016D01*
X-339647D01*
X-338647Y129016D01*
X-333649Y128016D02*
Y134014D01*
X-336648Y131015D01*
X-332649D01*
X-330650Y133014D02*
X-329650Y134014D01*
X-327651D01*
X-326651Y133014D01*
Y132015D01*
X-327651Y131015D01*
X-326651Y130015D01*
Y129016D01*
X-327651Y128016D01*
X-329650D01*
X-330650Y129016D01*
Y130015D01*
X-329650Y131015D01*
X-330650Y132015D01*
Y133014D01*
X-329650Y131015D02*
X-327651D01*
X-81280Y248568D02*
Y243570D01*
X-80280Y242570D01*
X-78281D01*
X-77281Y243570D01*
Y248568D01*
X-75282Y247568D02*
X-74282Y248568D01*
X-72283D01*
X-71283Y247568D01*
Y246569D01*
X-72283Y245569D01*
X-71283Y244569D01*
Y243570D01*
X-72283Y242570D01*
X-74282D01*
X-75282Y243570D01*
Y244569D01*
X-74282Y245569D01*
X-75282Y246569D01*
Y247568D01*
X-74282Y245569D02*
X-72283D01*
X-290000Y220000D02*
X-295998D01*
X-293999Y221999D01*
X-295998Y223999D01*
X-290000D01*
Y225998D02*
Y227997D01*
Y226998D01*
X-295998D01*
X-294998Y225998D01*
X-295998Y234995D02*
X-294998Y232996D01*
X-292999Y230996D01*
X-291000D01*
X-290000Y231996D01*
Y233995D01*
X-291000Y234995D01*
X-291999D01*
X-292999Y233995D01*
Y230996D01*
X-250000Y220000D02*
X-255998D01*
X-253999Y221999D01*
X-255998Y223999D01*
X-250000D01*
Y225998D02*
Y227997D01*
Y226998D01*
X-255998D01*
X-254998Y225998D01*
X-255998Y234995D02*
Y230996D01*
X-252999D01*
X-253999Y232996D01*
Y233995D01*
X-252999Y234995D01*
X-251000D01*
X-250000Y233995D01*
Y231996D01*
X-251000Y230996D01*
X-210000Y220000D02*
X-215998D01*
X-213999Y221999D01*
X-215998Y223999D01*
X-210000D01*
Y225998D02*
Y227997D01*
Y226998D01*
X-215998D01*
X-214998Y225998D01*
X-210000Y233995D02*
X-215998D01*
X-212999Y230996D01*
Y234995D01*
X-170000Y220000D02*
X-175998D01*
X-173999Y221999D01*
X-175998Y223999D01*
X-170000D01*
Y225998D02*
Y227997D01*
Y226998D01*
X-175998D01*
X-174998Y225998D01*
Y230996D02*
X-175998Y231996D01*
Y233995D01*
X-174998Y234995D01*
X-173999D01*
X-172999Y233995D01*
Y232996D01*
Y233995D01*
X-171999Y234995D01*
X-171000D01*
X-170000Y233995D01*
Y231996D01*
X-171000Y230996D01*
X-590550Y207928D02*
Y202930D01*
X-589550Y201930D01*
X-587551D01*
X-586551Y202930D01*
Y207928D01*
X-584552Y202930D02*
X-583552Y201930D01*
X-581553D01*
X-580553Y202930D01*
Y206928D01*
X-581553Y207928D01*
X-583552D01*
X-584552Y206928D01*
Y205929D01*
X-583552Y204929D01*
X-580553D01*
X-220980Y355248D02*
Y350250D01*
X-219980Y349250D01*
X-217981D01*
X-216981Y350250D01*
Y355248D01*
X-214982D02*
X-210983D01*
Y354248D01*
X-214982Y350250D01*
Y349250D01*
X-866140Y176530D02*
Y182528D01*
X-863141D01*
X-862141Y181528D01*
Y179529D01*
X-863141Y178529D01*
X-866140D01*
X-864141D02*
X-862141Y176530D01*
X-857143D02*
Y182528D01*
X-860142Y179529D01*
X-856143D01*
X-854144Y176530D02*
X-852144D01*
X-853144D01*
Y182528D01*
X-854144Y181528D01*
X27940Y219710D02*
X21942D01*
Y222709D01*
X22942Y223709D01*
X24941D01*
X25941Y222709D01*
Y219710D01*
X21942Y225708D02*
X27940D01*
X25941Y227707D01*
X27940Y229707D01*
X21942D01*
X27940Y231706D02*
X21942D01*
Y234705D01*
X22942Y235705D01*
X24941D01*
X25941Y234705D01*
Y231706D01*
Y233706D02*
X27940Y235705D01*
Y241703D02*
Y237704D01*
X23941Y241703D01*
X22942D01*
X21942Y240703D01*
Y238704D01*
X22942Y237704D01*
X-985520Y175260D02*
Y181258D01*
X-982521D01*
X-981521Y180258D01*
Y178259D01*
X-982521Y177259D01*
X-985520D01*
X-979522Y181258D02*
Y175260D01*
X-977523Y177259D01*
X-975523Y175260D01*
Y181258D01*
X-973524Y175260D02*
Y181258D01*
X-970525D01*
X-969525Y180258D01*
Y178259D01*
X-970525Y177259D01*
X-973524D01*
X-971525D02*
X-969525Y175260D01*
X-967526D02*
X-965527D01*
X-966526D01*
Y181258D01*
X-967526Y180258D01*
X-986790Y49530D02*
Y55528D01*
X-983791D01*
X-982791Y54528D01*
Y52529D01*
X-983791Y51529D01*
X-986790D01*
X-980792Y55528D02*
Y49530D01*
X-978793Y51529D01*
X-976793Y49530D01*
Y55528D01*
X-974794Y49530D02*
X-972794D01*
X-973794D01*
Y55528D01*
X-974794Y54528D01*
X-130000Y220000D02*
X-135998D01*
X-133999Y221999D01*
X-135998Y223999D01*
X-130000D01*
Y225998D02*
Y227997D01*
Y226998D01*
X-135998D01*
X-134998Y225998D01*
X-130000Y234995D02*
Y230996D01*
X-133999Y234995D01*
X-134998D01*
X-135998Y233995D01*
Y231996D01*
X-134998Y230996D01*
X-210000Y90000D02*
X-215998D01*
X-213999Y91999D01*
X-215998Y93999D01*
X-210000D01*
X-215998Y99997D02*
X-214998Y97997D01*
X-212999Y95998D01*
X-211000D01*
X-210000Y96998D01*
Y98997D01*
X-211000Y99997D01*
X-211999D01*
X-212999Y98997D01*
Y95998D01*
X-90000Y220000D02*
X-95998D01*
X-93999Y221999D01*
X-95998Y223999D01*
X-90000D01*
Y225998D02*
Y227997D01*
Y226998D01*
X-95998D01*
X-94998Y225998D01*
X-90000Y230996D02*
Y232996D01*
Y231996D01*
X-95998D01*
X-94998Y230996D01*
X-170000Y90000D02*
X-175998D01*
X-173999Y91999D01*
X-175998Y93999D01*
X-170000D01*
X-175998Y99997D02*
Y95998D01*
X-172999D01*
X-173999Y97997D01*
Y98997D01*
X-172999Y99997D01*
X-171000D01*
X-170000Y98997D01*
Y96998D01*
X-171000Y95998D01*
X-50000Y220000D02*
X-55998D01*
X-53999Y221999D01*
X-55998Y223999D01*
X-50000D01*
Y225998D02*
Y227997D01*
Y226998D01*
X-55998D01*
X-54998Y225998D01*
Y230996D02*
X-55998Y231996D01*
Y233995D01*
X-54998Y234995D01*
X-51000D01*
X-50000Y233995D01*
Y231996D01*
X-51000Y230996D01*
X-54998D01*
X-130000Y90000D02*
X-135998D01*
X-133999Y91999D01*
X-135998Y93999D01*
X-130000D01*
Y98997D02*
X-135998D01*
X-132999Y95998D01*
Y99997D01*
X-10000Y220000D02*
X-15998D01*
X-13999Y221999D01*
X-15998Y223999D01*
X-10000D01*
X-11000Y225998D02*
X-10000Y226998D01*
Y228997D01*
X-11000Y229997D01*
X-14998D01*
X-15998Y228997D01*
Y226998D01*
X-14998Y225998D01*
X-13999D01*
X-12999Y226998D01*
Y229997D01*
X-90000Y90000D02*
X-95998D01*
X-93999Y91999D01*
X-95998Y93999D01*
X-90000D01*
X-94998Y95998D02*
X-95998Y96998D01*
Y98997D01*
X-94998Y99997D01*
X-93999D01*
X-92999Y98997D01*
Y97997D01*
Y98997D01*
X-91999Y99997D01*
X-91000D01*
X-90000Y98997D01*
Y96998D01*
X-91000Y95998D01*
X-290000Y90000D02*
X-295998D01*
X-293999Y91999D01*
X-295998Y93999D01*
X-290000D01*
X-294998Y95998D02*
X-295998Y96998D01*
Y98997D01*
X-294998Y99997D01*
X-293999D01*
X-292999Y98997D01*
X-291999Y99997D01*
X-291000D01*
X-290000Y98997D01*
Y96998D01*
X-291000Y95998D01*
X-291999D01*
X-292999Y96998D01*
X-293999Y95998D01*
X-294998D01*
X-292999Y96998D02*
Y98997D01*
X-50000Y90000D02*
X-55998D01*
X-53999Y91999D01*
X-55998Y93999D01*
X-50000D01*
Y99997D02*
Y95998D01*
X-53999Y99997D01*
X-54998D01*
X-55998Y98997D01*
Y96998D01*
X-54998Y95998D01*
X-250000Y90000D02*
X-255998D01*
X-253999Y91999D01*
X-255998Y93999D01*
X-250000D01*
X-255998Y95998D02*
Y99997D01*
X-254998D01*
X-251000Y95998D01*
X-250000D01*
X-10000Y90000D02*
X-15998D01*
X-13999Y91999D01*
X-15998Y93999D01*
X-10000D01*
Y95998D02*
Y97997D01*
Y96998D01*
X-15998D01*
X-14998Y95998D01*
X-436880Y16158D02*
Y10160D01*
X-432881D01*
X-426883D02*
X-430882D01*
X-426883Y14159D01*
Y15158D01*
X-427883Y16158D01*
X-429882D01*
X-430882Y15158D01*
X-363630Y257188D02*
Y251190D01*
X-359631D01*
X-357632D02*
X-355633D01*
X-356632D01*
Y257188D01*
X-357632Y256188D01*
X-642620Y257458D02*
Y251460D01*
X-639621D01*
X-638621Y252460D01*
Y256458D01*
X-639621Y257458D01*
X-642620D01*
X-636622Y251460D02*
X-634623D01*
X-635622D01*
Y257458D01*
X-636622Y256458D01*
X-631624D02*
X-630624Y257458D01*
X-628624D01*
X-627625Y256458D01*
Y255459D01*
X-628624Y254459D01*
X-627625Y253459D01*
Y252460D01*
X-628624Y251460D01*
X-630624D01*
X-631624Y252460D01*
Y253459D01*
X-630624Y254459D01*
X-631624Y255459D01*
Y256458D01*
X-630624Y254459D02*
X-628624D01*
X-64688Y297369D02*
X-65688Y296369D01*
Y294370D01*
X-64688Y293370D01*
X-60690D01*
X-59690Y294370D01*
Y296369D01*
X-60690Y297369D01*
X-59690Y302367D02*
X-65688D01*
X-62689Y299368D01*
Y303367D01*
X-65688Y309365D02*
X-64688Y307365D01*
X-62689Y305366D01*
X-60690D01*
X-59690Y306366D01*
Y308365D01*
X-60690Y309365D01*
X-61689D01*
X-62689Y308365D01*
Y305366D01*
X-802451Y119298D02*
X-803451Y120298D01*
X-805450D01*
X-806450Y119298D01*
Y115300D01*
X-805450Y114300D01*
X-803451D01*
X-802451Y115300D01*
X-797453Y114300D02*
Y120298D01*
X-800452Y117299D01*
X-796453D01*
X-794454Y119298D02*
X-793454Y120298D01*
X-791455D01*
X-790455Y119298D01*
Y118299D01*
X-791455Y117299D01*
X-792455D01*
X-791455D01*
X-790455Y116299D01*
Y115300D01*
X-791455Y114300D01*
X-793454D01*
X-794454Y115300D01*
X-373191Y284398D02*
X-374191Y285398D01*
X-376190D01*
X-377190Y284398D01*
Y280400D01*
X-376190Y279400D01*
X-374191D01*
X-373191Y280400D01*
X-368193Y279400D02*
Y285398D01*
X-371192Y282399D01*
X-367193D01*
X-361195Y279400D02*
X-365194D01*
X-361195Y283399D01*
Y284398D01*
X-362195Y285398D01*
X-364194D01*
X-365194Y284398D01*
X-470088Y314149D02*
X-471088Y313149D01*
Y311150D01*
X-470088Y310150D01*
X-466090D01*
X-465090Y311150D01*
Y313149D01*
X-466090Y314149D01*
X-465090Y319147D02*
X-471088D01*
X-468089Y316148D01*
Y320147D01*
X-465090Y322146D02*
Y324146D01*
Y323146D01*
X-471088D01*
X-470088Y322146D01*
X-370651Y219628D02*
X-371651Y220628D01*
X-373650D01*
X-374650Y219628D01*
Y215630D01*
X-373650Y214630D01*
X-371651D01*
X-370651Y215630D01*
X-365653Y214630D02*
Y220628D01*
X-368652Y217629D01*
X-364653D01*
X-362654Y219628D02*
X-361654Y220628D01*
X-359655D01*
X-358655Y219628D01*
Y215630D01*
X-359655Y214630D01*
X-361654D01*
X-362654Y215630D01*
Y219628D01*
X-72038Y480060D02*
X-67040D01*
X-66040Y481060D01*
Y483059D01*
X-67040Y484059D01*
X-72038D01*
X-66040Y486058D02*
X-70039D01*
X-72038Y488057D01*
X-70039Y490057D01*
X-66040D01*
X-69039D01*
Y486058D01*
X-66040Y492056D02*
X-72038D01*
Y495055D01*
X-71038Y496055D01*
X-69039D01*
X-68039Y495055D01*
Y492056D01*
Y494055D02*
X-66040Y496055D01*
X-72038Y498054D02*
Y502053D01*
Y500053D01*
X-66040D01*
Y504052D02*
Y506052D01*
Y505052D01*
X-72038D01*
X-71038Y504052D01*
Y357059D02*
X-72038Y356059D01*
Y354060D01*
X-71038Y353060D01*
X-70039D01*
X-69039Y354060D01*
Y356059D01*
X-68039Y357059D01*
X-67040D01*
X-66040Y356059D01*
Y354060D01*
X-67040Y353060D01*
X-66040Y359058D02*
X-72038D01*
Y362057D01*
X-71038Y363057D01*
X-69039D01*
X-68039Y362057D01*
Y359058D01*
X-72038Y365056D02*
Y367056D01*
Y366056D01*
X-66040D01*
Y365056D01*
Y367056D01*
Y370055D02*
Y372054D01*
Y371054D01*
X-72038D01*
X-71038Y370055D01*
X-46990Y657860D02*
X-52988D01*
Y660859D01*
X-51988Y661859D01*
X-49989D01*
X-48989Y660859D01*
Y657860D01*
Y659859D02*
X-46990Y661859D01*
X-51988Y667857D02*
X-52988Y666857D01*
Y664858D01*
X-51988Y663858D01*
X-50989D01*
X-49989Y664858D01*
Y666857D01*
X-48989Y667857D01*
X-47990D01*
X-46990Y666857D01*
Y664858D01*
X-47990Y663858D01*
X-46990Y669856D02*
Y671855D01*
Y670856D01*
X-52988D01*
X-51988Y669856D01*
X-251460Y372110D02*
X-257458D01*
Y375109D01*
X-256458Y376109D01*
X-254459D01*
X-253459Y375109D01*
Y372110D01*
Y374109D02*
X-251460Y376109D01*
Y378108D02*
Y380107D01*
Y379108D01*
X-257458D01*
X-256458Y378108D01*
Y383106D02*
X-257458Y384106D01*
Y386105D01*
X-256458Y387105D01*
X-255459D01*
X-254459Y386105D01*
Y385106D01*
Y386105D01*
X-253459Y387105D01*
X-252460D01*
X-251460Y386105D01*
Y384106D01*
X-252460Y383106D01*
X-217170Y454660D02*
Y460658D01*
X-214171D01*
X-213171Y459658D01*
Y457659D01*
X-214171Y456659D01*
X-217170D01*
X-215171D02*
X-213171Y454660D01*
X-211172D02*
X-209173D01*
X-210172D01*
Y460658D01*
X-211172Y459658D01*
X-206174Y454660D02*
X-204174D01*
X-205174D01*
Y460658D01*
X-206174Y459658D01*
X-24130Y234950D02*
Y240948D01*
X-21131D01*
X-20131Y239948D01*
Y237949D01*
X-21131Y236949D01*
X-24130D01*
X-18132Y234950D02*
Y240948D01*
X-15133D01*
X-14133Y239948D01*
Y237949D01*
X-15133Y236949D01*
X-18132D01*
X-16133D02*
X-14133Y234950D01*
X-9135Y240948D02*
X-11134D01*
X-12134Y239948D01*
Y235950D01*
X-11134Y234950D01*
X-9135D01*
X-8135Y235950D01*
Y239948D01*
X-9135Y240948D01*
X-6136Y234950D02*
X-4137D01*
X-5136D01*
Y240948D01*
X-6136Y239948D01*
X-218116Y518747D02*
X-219116Y519746D01*
X-221115D01*
X-222115Y518747D01*
Y514748D01*
X-221115Y513748D01*
X-219116D01*
X-218116Y514748D01*
X-212118Y513748D02*
X-216117D01*
X-212118Y517747D01*
Y518747D01*
X-213118Y519746D01*
X-215117D01*
X-216117Y518747D01*
X-210119D02*
X-209119Y519746D01*
X-207120D01*
X-206120Y518747D01*
Y514748D01*
X-207120Y513748D01*
X-209119D01*
X-210119Y514748D01*
Y518747D01*
X-218209Y495957D02*
X-219209Y496957D01*
X-221208D01*
X-222208Y495957D01*
Y491959D01*
X-221208Y490959D01*
X-219209D01*
X-218209Y491959D01*
X-216210Y490959D02*
X-214210D01*
X-215210D01*
Y496957D01*
X-216210Y495957D01*
X-211211Y491959D02*
X-210212Y490959D01*
X-208212D01*
X-207213Y491959D01*
Y495957D01*
X-208212Y496957D01*
X-210212D01*
X-211211Y495957D01*
Y494958D01*
X-210212Y493958D01*
X-207213D01*
X-250001Y460928D02*
X-251001Y461928D01*
X-253000D01*
X-254000Y460928D01*
Y456930D01*
X-253000Y455930D01*
X-251001D01*
X-250001Y456930D01*
X-244003Y455930D02*
X-248002D01*
X-244003Y459929D01*
Y460928D01*
X-245003Y461928D01*
X-247002D01*
X-248002Y460928D01*
X-242004D02*
X-241004Y461928D01*
X-239005D01*
X-238005Y460928D01*
Y459929D01*
X-239005Y458929D01*
X-240005D01*
X-239005D01*
X-238005Y457929D01*
Y456930D01*
X-239005Y455930D01*
X-241004D01*
X-242004Y456930D01*
X-227248Y376109D02*
X-228248Y375109D01*
Y373110D01*
X-227248Y372110D01*
X-223250D01*
X-222250Y373110D01*
Y375109D01*
X-223250Y376109D01*
X-222250Y382107D02*
Y378108D01*
X-226249Y382107D01*
X-227248D01*
X-228248Y381107D01*
Y379108D01*
X-227248Y378108D01*
X-228248Y388105D02*
Y384106D01*
X-225249D01*
X-226249Y386105D01*
Y387105D01*
X-225249Y388105D01*
X-223250D01*
X-222250Y387105D01*
Y385106D01*
X-223250Y384106D01*
X-180151Y402508D02*
X-181151Y403508D01*
X-183150D01*
X-184150Y402508D01*
Y398510D01*
X-183150Y397510D01*
X-181151D01*
X-180151Y398510D01*
X-178152Y397510D02*
X-176153D01*
X-177152D01*
Y403508D01*
X-178152Y402508D01*
X-173154D02*
X-172154Y403508D01*
X-170154D01*
X-169155Y402508D01*
Y401509D01*
X-170154Y400509D01*
X-169155Y399509D01*
Y398510D01*
X-170154Y397510D01*
X-172154D01*
X-173154Y398510D01*
Y399509D01*
X-172154Y400509D01*
X-173154Y401509D01*
Y402508D01*
X-172154Y400509D02*
X-170154D01*
X-946068Y1016189D02*
X-947068Y1015189D01*
Y1013190D01*
X-946068Y1012190D01*
X-942070D01*
X-941070Y1013190D01*
Y1015189D01*
X-942070Y1016189D01*
X-947068Y1021187D02*
Y1019188D01*
X-946068Y1018188D01*
X-942070D01*
X-941070Y1019188D01*
Y1021187D01*
X-942070Y1022187D01*
X-946068D01*
X-947068Y1021187D01*
X-941070Y1024186D02*
X-947068D01*
X-941070Y1028185D01*
X-947068D01*
X-941070Y1030184D02*
Y1032184D01*
Y1031184D01*
X-947068D01*
X-946068Y1030184D01*
X-780861Y756838D02*
X-781861Y757838D01*
X-783860D01*
X-784860Y756838D01*
Y752840D01*
X-783860Y751840D01*
X-781861D01*
X-780861Y752840D01*
X-778862Y751840D02*
X-776863D01*
X-777862D01*
Y757838D01*
X-778862Y756838D01*
X-316041Y754298D02*
X-317041Y755298D01*
X-319040D01*
X-320040Y754298D01*
Y750300D01*
X-319040Y749300D01*
X-317041D01*
X-316041Y750300D01*
X-314042Y755298D02*
X-310043D01*
Y754298D01*
X-314042Y750300D01*
Y749300D01*
X-99991Y753028D02*
X-100991Y754028D01*
X-102990D01*
X-103990Y753028D01*
Y749030D01*
X-102990Y748030D01*
X-100991D01*
X-99991Y749030D01*
X-97992Y753028D02*
X-96992Y754028D01*
X-94993D01*
X-93993Y753028D01*
Y752029D01*
X-94993Y751029D01*
X-93993Y750029D01*
Y749030D01*
X-94993Y748030D01*
X-96992D01*
X-97992Y749030D01*
Y750029D01*
X-96992Y751029D01*
X-97992Y752029D01*
Y753028D01*
X-96992Y751029D02*
X-94993D01*
X-973901Y968928D02*
X-974901Y969928D01*
X-976900D01*
X-977900Y968928D01*
Y964930D01*
X-976900Y963930D01*
X-974901D01*
X-973901Y964930D01*
X-971902Y963930D02*
X-969903D01*
X-970902D01*
Y969928D01*
X-971902Y968928D01*
X-962905Y963930D02*
X-966904D01*
X-962905Y967929D01*
Y968928D01*
X-963904Y969928D01*
X-965904D01*
X-966904Y968928D01*
X-858438Y202119D02*
X-859438Y201119D01*
Y199120D01*
X-858438Y198120D01*
X-854440D01*
X-853440Y199120D01*
Y201119D01*
X-854440Y202119D01*
X-859438Y207117D02*
Y205118D01*
X-858438Y204118D01*
X-854440D01*
X-853440Y205118D01*
Y207117D01*
X-854440Y208117D01*
X-858438D01*
X-859438Y207117D01*
X-853440Y210116D02*
X-859438D01*
X-853440Y214115D01*
X-859438D01*
X-858438Y216114D02*
X-859438Y217114D01*
Y219113D01*
X-858438Y220113D01*
X-857439D01*
X-856439Y219113D01*
Y218113D01*
Y219113D01*
X-855439Y220113D01*
X-854440D01*
X-853440Y219113D01*
Y217114D01*
X-854440Y216114D01*
X-967281Y830768D02*
X-968281Y831768D01*
X-970280D01*
X-971280Y830768D01*
Y826770D01*
X-970280Y825770D01*
X-968281D01*
X-967281Y826770D01*
X-965282Y825770D02*
X-963283D01*
X-964282D01*
Y831768D01*
X-965282Y830768D01*
X-960284Y825770D02*
X-958284D01*
X-959284D01*
Y831768D01*
X-960284Y830768D01*
X-676373Y458343D02*
X-681371D01*
X-682371Y457343D01*
Y455344D01*
X-681371Y454344D01*
X-676373D01*
Y448346D02*
X-677373Y450346D01*
X-679372Y452345D01*
X-681371D01*
X-682371Y451345D01*
Y449346D01*
X-681371Y448346D01*
X-680372D01*
X-679372Y449346D01*
Y452345D01*
X-689610Y327660D02*
Y333658D01*
X-686611D01*
X-685611Y332658D01*
Y330659D01*
X-686611Y329659D01*
X-689610D01*
X-687611D02*
X-685611Y327660D01*
X-683612Y332658D02*
X-682612Y333658D01*
X-680613D01*
X-679613Y332658D01*
Y331659D01*
X-680613Y330659D01*
X-681613D01*
X-680613D01*
X-679613Y329659D01*
Y328660D01*
X-680613Y327660D01*
X-682612D01*
X-683612Y328660D01*
X-673615Y333658D02*
X-677614D01*
Y330659D01*
X-675614Y331659D01*
X-674615D01*
X-673615Y330659D01*
Y328660D01*
X-674615Y327660D01*
X-676614D01*
X-677614Y328660D01*
X-576430Y1104900D02*
Y1110898D01*
X-574431Y1108899D01*
X-572431Y1110898D01*
Y1104900D01*
X-570432D02*
X-568433D01*
X-569432D01*
Y1110898D01*
X-570432Y1109898D01*
X-686881Y359328D02*
X-687881Y360328D01*
X-689880D01*
X-690880Y359328D01*
Y355330D01*
X-689880Y354330D01*
X-687881D01*
X-686881Y355330D01*
X-684882Y359328D02*
X-683882Y360328D01*
X-681883D01*
X-680883Y359328D01*
Y358329D01*
X-681883Y357329D01*
X-682883D01*
X-681883D01*
X-680883Y356329D01*
Y355330D01*
X-681883Y354330D01*
X-683882D01*
X-684882Y355330D01*
X-674885Y354330D02*
X-678884D01*
X-674885Y358329D01*
Y359328D01*
X-675885Y360328D01*
X-677884D01*
X-678884Y359328D01*
X-80010Y779780D02*
X-86008D01*
Y782779D01*
X-85008Y783779D01*
X-83009D01*
X-82009Y782779D01*
Y779780D01*
Y781779D02*
X-80010Y783779D01*
Y789777D02*
Y785778D01*
X-84009Y789777D01*
X-85008D01*
X-86008Y788777D01*
Y786778D01*
X-85008Y785778D01*
X-80010Y794775D02*
X-86008D01*
X-83009Y791776D01*
Y795775D01*
X-300990Y732790D02*
X-294992D01*
Y729791D01*
X-295992Y728791D01*
X-297991D01*
X-298991Y729791D01*
Y732790D01*
Y730791D02*
X-300990Y728791D01*
Y722793D02*
Y726792D01*
X-296991Y722793D01*
X-295992D01*
X-294992Y723793D01*
Y725792D01*
X-295992Y726792D01*
Y720794D02*
X-294992Y719794D01*
Y717795D01*
X-295992Y716795D01*
X-296991D01*
X-297991Y717795D01*
Y718794D01*
Y717795D01*
X-298991Y716795D01*
X-299990D01*
X-300990Y717795D01*
Y719794D01*
X-299990Y720794D01*
X-199390Y730250D02*
X-193392D01*
Y727251D01*
X-194392Y726251D01*
X-196391D01*
X-197391Y727251D01*
Y730250D01*
Y728251D02*
X-199390Y726251D01*
Y720253D02*
Y724252D01*
X-195391Y720253D01*
X-194392D01*
X-193392Y721253D01*
Y723252D01*
X-194392Y724252D01*
Y718254D02*
X-193392Y717254D01*
Y715255D01*
X-194392Y714255D01*
X-198390D01*
X-199390Y715255D01*
Y717254D01*
X-198390Y718254D01*
X-194392D01*
X-414020Y730250D02*
X-408022D01*
Y727251D01*
X-409022Y726251D01*
X-411021D01*
X-412021Y727251D01*
Y730250D01*
Y728251D02*
X-414020Y726251D01*
Y724252D02*
Y722253D01*
Y723252D01*
X-408022D01*
X-409022Y724252D01*
X-413020Y719254D02*
X-414020Y718254D01*
Y716255D01*
X-413020Y715255D01*
X-409022D01*
X-408022Y716255D01*
Y718254D01*
X-409022Y719254D01*
X-410021D01*
X-411021Y718254D01*
Y715255D01*
X-618490Y728980D02*
X-612492D01*
Y725981D01*
X-613492Y724981D01*
X-615491D01*
X-616491Y725981D01*
Y728980D01*
Y726981D02*
X-618490Y724981D01*
Y719983D02*
X-612492D01*
X-615491Y722982D01*
Y718983D01*
X-829310Y730250D02*
X-823312D01*
Y727251D01*
X-824312Y726251D01*
X-826311D01*
X-827311Y727251D01*
Y730250D01*
Y728251D02*
X-829310Y726251D01*
X-824312Y724252D02*
X-823312Y723252D01*
Y721253D01*
X-824312Y720253D01*
X-825311D01*
X-826311Y721253D01*
Y722253D01*
Y721253D01*
X-827311Y720253D01*
X-828310D01*
X-829310Y721253D01*
Y723252D01*
X-828310Y724252D01*
X-201471Y469548D02*
X-203470D01*
X-204470Y468548D01*
Y464550D01*
X-203470Y463550D01*
X-201471D01*
X-200471Y464550D01*
Y468548D01*
X-201471Y469548D01*
X-198472Y463550D02*
Y469548D01*
X-195473D01*
X-194473Y468548D01*
Y466549D01*
X-195473Y465549D01*
X-198472D01*
X-189475Y463550D02*
Y469548D01*
X-192474Y466549D01*
X-188475D01*
X-412291Y469548D02*
X-414290D01*
X-415290Y468548D01*
Y464550D01*
X-414290Y463550D01*
X-412291D01*
X-411291Y464550D01*
Y468548D01*
X-412291Y469548D01*
X-409292Y463550D02*
Y469548D01*
X-406293D01*
X-405293Y468548D01*
Y466549D01*
X-406293Y465549D01*
X-409292D01*
X-403294Y468548D02*
X-402294Y469548D01*
X-400295D01*
X-399295Y468548D01*
Y467549D01*
X-400295Y466549D01*
X-401295D01*
X-400295D01*
X-399295Y465549D01*
Y464550D01*
X-400295Y463550D01*
X-402294D01*
X-403294Y464550D01*
X-628191Y472088D02*
X-630190D01*
X-631190Y471088D01*
Y467090D01*
X-630190Y466090D01*
X-628191D01*
X-627191Y467090D01*
Y471088D01*
X-628191Y472088D01*
X-625192Y466090D02*
Y472088D01*
X-622193D01*
X-621193Y471088D01*
Y469089D01*
X-622193Y468089D01*
X-625192D01*
X-615195Y466090D02*
X-619194D01*
X-615195Y470089D01*
Y471088D01*
X-616195Y472088D01*
X-618194D01*
X-619194Y471088D01*
X-822501Y468278D02*
X-824500D01*
X-825500Y467278D01*
Y463280D01*
X-824500Y462280D01*
X-822501D01*
X-821501Y463280D01*
Y467278D01*
X-822501Y468278D01*
X-819502Y462280D02*
Y468278D01*
X-816503D01*
X-815503Y467278D01*
Y465279D01*
X-816503Y464279D01*
X-819502D01*
X-813504Y462280D02*
X-811505D01*
X-812504D01*
Y468278D01*
X-813504Y467278D01*
X-160020Y707038D02*
Y702040D01*
X-159020Y701040D01*
X-157021D01*
X-156021Y702040D01*
Y707038D01*
X-151023Y701040D02*
Y707038D01*
X-154022Y704039D01*
X-150023D01*
X-379730Y705768D02*
Y700770D01*
X-378730Y699770D01*
X-376731D01*
X-375731Y700770D01*
Y705768D01*
X-373732Y704768D02*
X-372732Y705768D01*
X-370733D01*
X-369733Y704768D01*
Y703769D01*
X-370733Y702769D01*
X-371733D01*
X-370733D01*
X-369733Y701769D01*
Y700770D01*
X-370733Y699770D01*
X-372732D01*
X-373732Y700770D01*
X-585470Y703228D02*
Y698230D01*
X-584470Y697230D01*
X-582471D01*
X-581471Y698230D01*
Y703228D01*
X-575473Y697230D02*
X-579472D01*
X-575473Y701229D01*
Y702228D01*
X-576473Y703228D01*
X-578472D01*
X-579472Y702228D01*
X-721210Y651158D02*
Y646160D01*
X-720210Y645160D01*
X-718211D01*
X-717211Y646160D01*
Y651158D01*
X-715212Y645160D02*
X-713213D01*
X-714212D01*
Y651158D01*
X-715212Y650158D01*
X-287020Y533400D02*
Y539398D01*
X-284021D01*
X-283021Y538398D01*
Y536399D01*
X-284021Y535399D01*
X-287020D01*
X-285021D02*
X-283021Y533400D01*
X-281022Y538398D02*
X-280022Y539398D01*
X-278023D01*
X-277023Y538398D01*
Y537399D01*
X-278023Y536399D01*
X-279023D01*
X-278023D01*
X-277023Y535399D01*
Y534400D01*
X-278023Y533400D01*
X-280022D01*
X-281022Y534400D01*
X-271025Y533400D02*
X-275024D01*
X-271025Y537399D01*
Y538398D01*
X-272025Y539398D01*
X-274024D01*
X-275024Y538398D01*
X-466090Y534670D02*
Y540668D01*
X-463091D01*
X-462091Y539668D01*
Y537669D01*
X-463091Y536669D01*
X-466090D01*
X-464091D02*
X-462091Y534670D01*
X-460092Y539668D02*
X-459092Y540668D01*
X-457093D01*
X-456093Y539668D01*
Y538669D01*
X-457093Y537669D01*
X-458093D01*
X-457093D01*
X-456093Y536669D01*
Y535670D01*
X-457093Y534670D01*
X-459092D01*
X-460092Y535670D01*
X-454094Y534670D02*
X-452094D01*
X-453094D01*
Y540668D01*
X-454094Y539668D01*
X-173990Y609600D02*
Y615598D01*
X-170991D01*
X-169991Y614598D01*
Y612599D01*
X-170991Y611599D01*
X-173990D01*
X-171991D02*
X-169991Y609600D01*
X-167992Y614598D02*
X-166992Y615598D01*
X-164993D01*
X-163993Y614598D01*
Y613599D01*
X-164993Y612599D01*
X-165993D01*
X-164993D01*
X-163993Y611599D01*
Y610600D01*
X-164993Y609600D01*
X-166992D01*
X-167992Y610600D01*
X-161994Y614598D02*
X-160994Y615598D01*
X-158995D01*
X-157995Y614598D01*
Y610600D01*
X-158995Y609600D01*
X-160994D01*
X-161994Y610600D01*
Y614598D01*
X-392430Y608330D02*
Y614328D01*
X-389431D01*
X-388431Y613328D01*
Y611329D01*
X-389431Y610329D01*
X-392430D01*
X-390431D02*
X-388431Y608330D01*
X-382433D02*
X-386432D01*
X-382433Y612329D01*
Y613328D01*
X-383433Y614328D01*
X-385432D01*
X-386432Y613328D01*
X-380434D02*
X-379434Y614328D01*
X-377435D01*
X-376435Y613328D01*
Y612329D01*
X-377435Y611329D01*
X-376435Y610329D01*
Y609330D01*
X-377435Y608330D01*
X-379434D01*
X-380434Y609330D01*
Y610329D01*
X-379434Y611329D01*
X-380434Y612329D01*
Y613328D01*
X-379434Y611329D02*
X-377435D01*
X-129540Y609600D02*
Y615598D01*
X-126541D01*
X-125541Y614598D01*
Y612599D01*
X-126541Y611599D01*
X-129540D01*
X-127541D02*
X-125541Y609600D01*
X-119543D02*
X-123542D01*
X-119543Y613599D01*
Y614598D01*
X-120543Y615598D01*
X-122542D01*
X-123542Y614598D01*
X-113545Y609600D02*
X-117544D01*
X-113545Y613599D01*
Y614598D01*
X-114545Y615598D01*
X-116544D01*
X-117544Y614598D01*
X-344170Y609600D02*
Y615598D01*
X-341171D01*
X-340171Y614598D01*
Y612599D01*
X-341171Y611599D01*
X-344170D01*
X-342171D02*
X-340171Y609600D01*
X-334173D02*
X-338172D01*
X-334173Y613599D01*
Y614598D01*
X-335173Y615598D01*
X-337172D01*
X-338172Y614598D01*
X-332174Y609600D02*
X-330174D01*
X-331174D01*
Y615598D01*
X-332174Y614598D01*
X-179070Y791210D02*
Y797208D01*
X-176071D01*
X-175071Y796208D01*
Y794209D01*
X-176071Y793209D01*
X-179070D01*
X-177071D02*
X-175071Y791210D01*
X-173072D02*
X-171073D01*
X-172072D01*
Y797208D01*
X-173072Y796208D01*
X-168074D02*
X-167074Y797208D01*
X-165075D01*
X-164075Y796208D01*
Y795209D01*
X-165075Y794209D01*
X-164075Y793209D01*
Y792210D01*
X-165075Y791210D01*
X-167074D01*
X-168074Y792210D01*
Y793209D01*
X-167074Y794209D01*
X-168074Y795209D01*
Y796208D01*
X-167074Y794209D02*
X-165075D01*
X-381580Y793020D02*
Y799018D01*
X-378581D01*
X-377581Y798018D01*
Y796019D01*
X-378581Y795019D01*
X-381580D01*
X-379581D02*
X-377581Y793020D01*
X-375582D02*
X-373583D01*
X-374582D01*
Y799018D01*
X-375582Y798018D01*
X-370584Y799018D02*
X-366585D01*
Y798018D01*
X-370584Y794020D01*
Y793020D01*
X-643890Y548640D02*
Y554638D01*
X-640891D01*
X-639891Y553638D01*
Y551639D01*
X-640891Y550639D01*
X-643890D01*
X-641891D02*
X-639891Y548640D01*
X-637892D02*
X-635893D01*
X-636892D01*
Y554638D01*
X-637892Y553638D01*
X-628895Y554638D02*
X-630894Y553638D01*
X-632894Y551639D01*
Y549640D01*
X-631894Y548640D01*
X-629894D01*
X-628895Y549640D01*
Y550639D01*
X-629894Y551639D01*
X-632894D01*
X-698500Y548640D02*
Y554638D01*
X-695501D01*
X-694501Y553638D01*
Y551639D01*
X-695501Y550639D01*
X-698500D01*
X-696501D02*
X-694501Y548640D01*
X-692502D02*
X-690503D01*
X-691502D01*
Y554638D01*
X-692502Y553638D01*
X-683505Y554638D02*
X-687504D01*
Y551639D01*
X-685504Y552639D01*
X-684504D01*
X-683505Y551639D01*
Y549640D01*
X-684504Y548640D01*
X-686504D01*
X-687504Y549640D01*
X-596900Y608330D02*
Y614328D01*
X-593901D01*
X-592901Y613328D01*
Y611329D01*
X-593901Y610329D01*
X-596900D01*
X-594901D02*
X-592901Y608330D01*
X-590902D02*
X-588903D01*
X-589902D01*
Y614328D01*
X-590902Y613328D01*
X-582905Y608330D02*
Y614328D01*
X-585904Y611329D01*
X-581905D01*
X-803910Y608330D02*
Y614328D01*
X-800911D01*
X-799911Y613328D01*
Y611329D01*
X-800911Y610329D01*
X-803910D01*
X-801911D02*
X-799911Y608330D01*
X-797912D02*
X-795913D01*
X-796912D01*
Y614328D01*
X-797912Y613328D01*
X-788915Y608330D02*
X-792914D01*
X-788915Y612329D01*
Y613328D01*
X-789914Y614328D01*
X-791914D01*
X-792914Y613328D01*
X-548370Y608600D02*
Y614598D01*
X-545371D01*
X-544371Y613598D01*
Y611599D01*
X-545371Y610599D01*
X-548370D01*
X-546371D02*
X-544371Y608600D01*
X-538373Y614598D02*
X-540373Y613598D01*
X-542372Y611599D01*
Y609600D01*
X-541372Y608600D01*
X-539373D01*
X-538373Y609600D01*
Y610599D01*
X-539373Y611599D01*
X-542372D01*
X-754380Y608330D02*
Y614328D01*
X-751381D01*
X-750381Y613328D01*
Y611329D01*
X-751381Y610329D01*
X-754380D01*
X-752381D02*
X-750381Y608330D01*
X-744383Y614328D02*
X-748382D01*
Y611329D01*
X-746383Y612329D01*
X-745383D01*
X-744383Y611329D01*
Y609330D01*
X-745383Y608330D01*
X-747382D01*
X-748382Y609330D01*
X-576430Y789940D02*
Y795938D01*
X-573431D01*
X-572431Y794938D01*
Y792939D01*
X-573431Y791939D01*
X-576430D01*
X-574431D02*
X-572431Y789940D01*
X-566433D02*
X-570432D01*
X-566433Y793939D01*
Y794938D01*
X-567433Y795938D01*
X-569432D01*
X-570432Y794938D01*
X-779630Y769620D02*
Y775618D01*
X-776631D01*
X-775631Y774618D01*
Y772619D01*
X-776631Y771619D01*
X-779630D01*
X-777631D02*
X-775631Y769620D01*
X-773632D02*
X-771633D01*
X-772632D01*
Y775618D01*
X-773632Y774618D01*
X-204131Y968740D02*
Y972738D01*
X-205131Y973738D01*
X-207130D01*
X-208130Y972738D01*
Y968740D01*
X-207130Y967740D01*
X-205131D01*
X-206131Y969739D02*
X-204131Y967740D01*
X-205131D02*
X-204131Y968740D01*
X-198133Y973738D02*
X-200133Y972738D01*
X-202132Y970739D01*
Y968740D01*
X-201132Y967740D01*
X-199133D01*
X-198133Y968740D01*
Y969739D01*
X-199133Y970739D01*
X-202132D01*
X-407331Y971280D02*
Y975278D01*
X-408331Y976278D01*
X-410330D01*
X-411330Y975278D01*
Y971280D01*
X-410330Y970280D01*
X-408331D01*
X-409331Y972279D02*
X-407331Y970280D01*
X-408331D02*
X-407331Y971280D01*
X-401333Y976278D02*
X-405332D01*
Y973279D01*
X-403333Y974279D01*
X-402333D01*
X-401333Y973279D01*
Y971280D01*
X-402333Y970280D01*
X-404332D01*
X-405332Y971280D01*
X-610531D02*
Y975278D01*
X-611531Y976278D01*
X-613530D01*
X-614530Y975278D01*
Y971280D01*
X-613530Y970280D01*
X-611531D01*
X-612531Y972279D02*
X-610531Y970280D01*
X-611531D02*
X-610531Y971280D01*
X-604533Y970280D02*
X-608532D01*
X-604533Y974279D01*
Y975278D01*
X-605533Y976278D01*
X-607532D01*
X-608532Y975278D01*
X-808651Y971280D02*
Y975278D01*
X-809651Y976278D01*
X-811650D01*
X-812650Y975278D01*
Y971280D01*
X-811650Y970280D01*
X-809651D01*
X-810651Y972279D02*
X-808651Y970280D01*
X-809651D02*
X-808651Y971280D01*
X-806652Y970280D02*
X-804653D01*
X-805652D01*
Y976278D01*
X-806652Y975278D01*
X-63148Y781050D02*
X-57150D01*
Y784049D01*
X-58150Y785049D01*
X-62148D01*
X-63148Y784049D01*
Y781050D01*
X-57150Y791047D02*
Y787048D01*
X-61149Y791047D01*
X-62148D01*
X-63148Y790047D01*
Y788048D01*
X-62148Y787048D01*
X-57150Y796045D02*
X-63148D01*
X-60149Y793046D01*
Y797045D01*
X-273402Y732790D02*
X-279400D01*
Y729791D01*
X-278400Y728791D01*
X-274402D01*
X-273402Y729791D01*
Y732790D01*
X-279400Y722793D02*
Y726792D01*
X-275401Y722793D01*
X-274402D01*
X-273402Y723793D01*
Y725792D01*
X-274402Y726792D01*
Y720794D02*
X-273402Y719794D01*
Y717795D01*
X-274402Y716795D01*
X-275401D01*
X-276401Y717795D01*
Y718794D01*
Y717795D01*
X-277401Y716795D01*
X-278400D01*
X-279400Y717795D01*
Y719794D01*
X-278400Y720794D01*
X-179070Y785778D02*
Y779780D01*
X-176071D01*
X-175071Y780780D01*
Y784778D01*
X-176071Y785778D01*
X-179070D01*
X-169073Y779780D02*
X-173072D01*
X-169073Y783779D01*
Y784778D01*
X-170073Y785778D01*
X-172072D01*
X-173072Y784778D01*
X-163075Y779780D02*
X-167074D01*
X-163075Y783779D01*
Y784778D01*
X-164075Y785778D01*
X-166074D01*
X-167074Y784778D01*
X-381000Y783238D02*
Y777240D01*
X-378001D01*
X-377001Y778240D01*
Y782238D01*
X-378001Y783238D01*
X-381000D01*
X-371003Y777240D02*
X-375002D01*
X-371003Y781239D01*
Y782238D01*
X-372003Y783238D01*
X-374002D01*
X-375002Y782238D01*
X-369004Y777240D02*
X-367005D01*
X-368004D01*
Y783238D01*
X-369004Y782238D01*
X-169262Y731520D02*
X-175260D01*
Y728521D01*
X-174260Y727521D01*
X-170262D01*
X-169262Y728521D01*
Y731520D01*
X-175260Y721523D02*
Y725522D01*
X-171261Y721523D01*
X-170262D01*
X-169262Y722523D01*
Y724522D01*
X-170262Y725522D01*
Y719524D02*
X-169262Y718524D01*
Y716525D01*
X-170262Y715525D01*
X-174260D01*
X-175260Y716525D01*
Y718524D01*
X-174260Y719524D01*
X-170262D01*
X-385162Y730250D02*
X-391160D01*
Y727251D01*
X-390160Y726251D01*
X-386162D01*
X-385162Y727251D01*
Y730250D01*
X-391160Y724252D02*
Y722253D01*
Y723252D01*
X-385162D01*
X-386162Y724252D01*
X-390160Y719254D02*
X-391160Y718254D01*
Y716255D01*
X-390160Y715255D01*
X-386162D01*
X-385162Y716255D01*
Y718254D01*
X-386162Y719254D01*
X-387161D01*
X-388161Y718254D01*
Y715255D01*
X-169262Y652780D02*
X-175260D01*
Y649781D01*
X-174260Y648781D01*
X-170262D01*
X-169262Y649781D01*
Y652780D01*
X-175260Y646782D02*
Y644783D01*
Y645782D01*
X-169262D01*
X-170262Y646782D01*
X-169262Y637785D02*
X-170262Y639784D01*
X-172261Y641784D01*
X-174260D01*
X-175260Y640784D01*
Y638784D01*
X-174260Y637785D01*
X-173261D01*
X-172261Y638784D01*
Y641784D01*
X-385162Y654050D02*
X-391160D01*
Y651051D01*
X-390160Y650051D01*
X-386162D01*
X-385162Y651051D01*
Y654050D01*
X-391160Y648052D02*
Y646053D01*
Y647052D01*
X-385162D01*
X-386162Y648052D01*
X-385162Y639055D02*
Y643054D01*
X-388161D01*
X-387161Y641054D01*
Y640054D01*
X-388161Y639055D01*
X-390160D01*
X-391160Y640054D01*
Y642054D01*
X-390160Y643054D01*
X-576430Y780698D02*
Y774700D01*
X-573431D01*
X-572431Y775700D01*
Y779698D01*
X-573431Y780698D01*
X-576430D01*
X-570432Y779698D02*
X-569432Y780698D01*
X-567433D01*
X-566433Y779698D01*
Y778699D01*
X-567433Y777699D01*
X-566433Y776699D01*
Y775700D01*
X-567433Y774700D01*
X-569432D01*
X-570432Y775700D01*
Y776699D01*
X-569432Y777699D01*
X-570432Y778699D01*
Y779698D01*
X-569432Y777699D02*
X-567433D01*
X-779630Y795938D02*
Y789940D01*
X-776631D01*
X-775631Y790940D01*
Y794938D01*
X-776631Y795938D01*
X-779630D01*
X-773632D02*
X-769633D01*
Y794938D01*
X-773632Y790940D01*
Y789940D01*
X-799182Y730250D02*
X-805180D01*
Y727251D01*
X-804180Y726251D01*
X-800182D01*
X-799182Y727251D01*
Y730250D01*
Y720253D02*
Y724252D01*
X-802181D01*
X-801181Y722253D01*
Y721253D01*
X-802181Y720253D01*
X-804180D01*
X-805180Y721253D01*
Y723252D01*
X-804180Y724252D01*
X-587092Y651510D02*
X-593090D01*
Y648511D01*
X-592090Y647511D01*
X-588092D01*
X-587092Y648511D01*
Y651510D01*
X-593090Y641513D02*
Y645512D01*
X-589091Y641513D01*
X-588092D01*
X-587092Y642513D01*
Y644512D01*
X-588092Y645512D01*
X-796642Y650240D02*
X-802640D01*
Y647241D01*
X-801640Y646241D01*
X-797642D01*
X-796642Y647241D01*
Y650240D01*
X-802640Y644242D02*
Y642243D01*
Y643242D01*
X-796642D01*
X-797642Y644242D01*
X-216831Y606978D02*
X-217831Y607978D01*
X-219830D01*
X-220830Y606978D01*
Y602980D01*
X-219830Y601980D01*
X-217831D01*
X-216831Y602980D01*
X-214832Y601980D02*
X-212833D01*
X-213832D01*
Y607978D01*
X-214832Y606978D01*
X-206835Y601980D02*
Y607978D01*
X-209834Y604979D01*
X-205835D01*
X-465751Y593008D02*
X-466751Y594008D01*
X-468750D01*
X-469750Y593008D01*
Y589010D01*
X-468750Y588010D01*
X-466751D01*
X-465751Y589010D01*
X-463752Y588010D02*
X-461753D01*
X-462752D01*
Y594008D01*
X-463752Y593008D01*
X-458754D02*
X-457754Y594008D01*
X-455755D01*
X-454755Y593008D01*
Y592009D01*
X-455755Y591009D01*
X-456754D01*
X-455755D01*
X-454755Y590009D01*
Y589010D01*
X-455755Y588010D01*
X-457754D01*
X-458754Y589010D01*
X-193122Y644971D02*
X-192122Y645971D01*
Y647970D01*
X-193122Y648970D01*
X-197120D01*
X-198120Y647970D01*
Y645971D01*
X-197120Y644971D01*
X-198120Y642972D02*
Y640973D01*
Y641972D01*
X-192122D01*
X-193122Y642972D01*
Y637974D02*
X-192122Y636974D01*
Y634975D01*
X-193122Y633975D01*
X-197120D01*
X-198120Y634975D01*
Y636974D01*
X-197120Y637974D01*
X-193122D01*
X-410292Y650051D02*
X-409292Y651051D01*
Y653050D01*
X-410292Y654050D01*
X-414290D01*
X-415290Y653050D01*
Y651051D01*
X-414290Y650051D01*
Y648052D02*
X-415290Y647052D01*
Y645053D01*
X-414290Y644053D01*
X-410292D01*
X-409292Y645053D01*
Y647052D01*
X-410292Y648052D01*
X-411291D01*
X-412291Y647052D01*
Y644053D01*
X-638621Y576498D02*
X-639621Y577498D01*
X-641620D01*
X-642620Y576498D01*
Y572500D01*
X-641620Y571500D01*
X-639621D01*
X-638621Y572500D01*
X-632623Y577498D02*
X-634623Y576498D01*
X-636622Y574499D01*
Y572500D01*
X-635622Y571500D01*
X-633623D01*
X-632623Y572500D01*
Y573499D01*
X-633623Y574499D01*
X-636622D01*
X-836591Y608248D02*
X-837591Y609248D01*
X-839590D01*
X-840590Y608248D01*
Y604250D01*
X-839590Y603250D01*
X-837591D01*
X-836591Y604250D01*
X-830593Y609248D02*
X-834592D01*
Y606249D01*
X-832593Y607249D01*
X-831593D01*
X-830593Y606249D01*
Y604250D01*
X-831593Y603250D01*
X-833592D01*
X-834592Y604250D01*
X-519091Y751758D02*
X-520091Y752758D01*
X-522090D01*
X-523090Y751758D01*
Y747760D01*
X-522090Y746760D01*
X-520091D01*
X-519091Y747760D01*
X-513093Y746760D02*
X-517092D01*
X-513093Y750759D01*
Y751758D01*
X-514093Y752758D01*
X-516092D01*
X-517092Y751758D01*
X-612222Y646241D02*
X-611222Y647241D01*
Y649240D01*
X-612222Y650240D01*
X-616220D01*
X-617220Y649240D01*
Y647241D01*
X-616220Y646241D01*
X-617220Y641243D02*
X-611222D01*
X-614221Y644242D01*
Y640243D01*
X-824312Y646241D02*
X-823312Y647241D01*
Y649240D01*
X-824312Y650240D01*
X-828310D01*
X-829310Y649240D01*
Y647241D01*
X-828310Y646241D01*
X-824312Y644242D02*
X-823312Y643242D01*
Y641243D01*
X-824312Y640243D01*
X-825311D01*
X-826311Y641243D01*
Y642243D01*
Y641243D01*
X-827311Y640243D01*
X-828310D01*
X-829310Y641243D01*
Y643242D01*
X-828310Y644242D01*
X-589632Y730250D02*
X-595630D01*
Y727251D01*
X-594630Y726251D01*
X-590632D01*
X-589632Y727251D01*
Y730250D01*
Y720253D02*
X-590632Y722253D01*
X-592631Y724252D01*
X-594630D01*
X-595630Y723252D01*
Y721253D01*
X-594630Y720253D01*
X-593631D01*
X-592631Y721253D01*
Y724252D01*
X-351708Y438339D02*
X-352708Y437339D01*
Y435340D01*
X-351708Y434340D01*
X-347710D01*
X-346710Y435340D01*
Y437339D01*
X-347710Y438339D01*
X-352708Y444337D02*
Y440338D01*
X-349709D01*
X-350709Y442337D01*
Y443337D01*
X-349709Y444337D01*
X-347710D01*
X-346710Y443337D01*
Y441338D01*
X-347710Y440338D01*
X-346710Y450335D02*
Y446336D01*
X-350709Y450335D01*
X-351708D01*
X-352708Y449335D01*
Y447336D01*
X-351708Y446336D01*
X-327578Y438339D02*
X-328578Y437339D01*
Y435340D01*
X-327578Y434340D01*
X-323580D01*
X-322580Y435340D01*
Y437339D01*
X-323580Y438339D01*
X-328578Y444337D02*
Y440338D01*
X-325579D01*
X-326579Y442337D01*
Y443337D01*
X-325579Y444337D01*
X-323580D01*
X-322580Y443337D01*
Y441338D01*
X-323580Y440338D01*
X-327578Y446336D02*
X-328578Y447336D01*
Y449335D01*
X-327578Y450335D01*
X-326579D01*
X-325579Y449335D01*
Y448335D01*
Y449335D01*
X-324579Y450335D01*
X-323580D01*
X-322580Y449335D01*
Y447336D01*
X-323580Y446336D01*
X-370840Y383188D02*
Y378190D01*
X-369840Y377190D01*
X-367841D01*
X-366841Y378190D01*
Y383188D01*
X-364842Y377190D02*
X-362843D01*
X-363842D01*
Y383188D01*
X-364842Y382188D01*
X-359844D02*
X-358844Y383188D01*
X-356844D01*
X-355845Y382188D01*
Y378190D01*
X-356844Y377190D01*
X-358844D01*
X-359844Y378190D01*
Y382188D01*
D77*
X-767946Y666115D02*
G03*
X-767953Y666138I-1030J-318D01*
G01*
X-562206Y666115D02*
G03*
X-562213Y666138I-1030J-318D01*
G01*
X-140566Y666115D02*
G03*
X-140573Y666138I-1030J-318D01*
G01*
X-359006Y666115D02*
G03*
X-359013Y666138I-1030J-318D01*
G01*
D78*
X-298480Y506760D02*
X-270480D01*
X-270480Y478760D02*
Y506760D01*
X-298480Y478760D02*
X-270480D01*
X-298480Y478760D02*
Y506760D01*
X-652810Y513110D02*
X-624810D01*
X-624810Y485110D02*
Y513110D01*
X-652810Y485110D02*
X-624810D01*
X-652810Y485110D02*
Y513110D01*
X-501680Y505490D02*
X-473680D01*
X-473680Y477490D02*
Y505490D01*
X-501680Y477490D02*
X-473680D01*
X-501680Y477490D02*
Y505490D01*
X-88930Y640110D02*
X-60930D01*
X-60930Y612110D02*
Y640110D01*
X-88930Y612110D02*
X-60930D01*
X-88930Y612110D02*
Y640110D01*
X-60990Y341660D02*
X-32990D01*
X-32990Y313660D02*
Y341660D01*
X-60990Y313660D02*
X-32990D01*
X-60990Y313660D02*
Y341660D01*
X-737900Y224820D02*
X-709900D01*
X-709900Y196820D02*
Y224820D01*
X-737900Y196820D02*
X-709900D01*
X-737900Y196820D02*
Y224820D01*
X-655350Y649000D02*
X-627350D01*
X-627350Y621000D02*
Y649000D01*
X-655350Y621000D02*
X-627350D01*
X-655350Y621000D02*
Y649000D01*
X-689640D02*
X-661640D01*
X-661640Y621000D02*
Y649000D01*
X-689640Y621000D02*
X-661640D01*
X-689640Y621000D02*
Y649000D01*
X-452150Y652810D02*
X-424150D01*
X-424150Y624810D02*
Y652810D01*
X-452150Y624810D02*
X-424150D01*
X-452150Y624810D02*
Y652810D01*
X-483900D02*
X-455900D01*
X-455900Y624810D02*
Y652810D01*
X-483900Y624810D02*
X-455900D01*
X-483900Y624810D02*
Y652810D01*
X-27940Y739140D02*
X-2540D01*
X-27940D02*
Y840740D01*
X-2540Y739140D02*
Y840740D01*
X-27940D02*
X-2540D01*
X-916940Y38100D02*
X-866140D01*
X-916940Y12700D02*
Y38100D01*
Y12700D02*
X-866140D01*
Y38100D01*
X-980440Y452120D02*
Y650240D01*
X-579120Y297180D02*
Y309110D01*
X-572770Y290830D02*
X-509270D01*
Y320040D01*
X-572770D02*
X-509270D01*
X-579120Y309110D02*
Y313690D01*
X-572770Y320040D01*
X-579120Y297180D02*
X-572770Y290830D01*
X-745090Y411910D02*
Y433910D01*
X-695090Y411910D02*
Y433910D01*
X-262001Y416131D02*
Y427132D01*
X-255999D01*
X-245999D01*
Y416131D02*
Y427132D01*
X-262001Y397132D02*
Y408132D01*
Y397132D02*
X-245999D01*
Y408132D01*
X-4318Y478790D02*
Y601472D01*
X-60960Y478790D02*
X-4318D01*
X-60960D02*
Y601472D01*
X-4318D01*
X-167300Y137300D02*
Y213500D01*
X-192700D02*
X-167300D01*
X-192700Y137300D02*
Y213500D01*
Y137300D02*
X-167300D01*
X-207300D02*
Y213500D01*
X-232700D02*
X-207300D01*
X-232700Y137300D02*
Y213500D01*
Y137300D02*
X-207300D01*
X-247300D02*
Y213500D01*
X-272700D02*
X-247300D01*
X-272700Y137300D02*
Y213500D01*
Y137300D02*
X-247300D01*
X-287300D02*
Y213500D01*
X-312700D02*
X-287300D01*
X-312700Y137300D02*
Y213500D01*
Y137300D02*
X-287300D01*
X-247300Y7300D02*
Y83500D01*
X-272700D02*
X-247300D01*
X-272700Y7300D02*
Y83500D01*
Y7300D02*
X-247300D01*
X-7300D02*
Y83500D01*
X-32700D02*
X-7300D01*
X-32700Y7300D02*
Y83500D01*
Y7300D02*
X-7300D01*
X-287300D02*
Y83500D01*
X-312700D02*
X-287300D01*
X-312700Y7300D02*
Y83500D01*
Y7300D02*
X-287300D01*
X-47300D02*
Y83500D01*
X-72700D02*
X-47300D01*
X-72700Y7300D02*
Y83500D01*
Y7300D02*
X-47300D01*
X-7300Y137300D02*
Y213500D01*
X-32700D02*
X-7300D01*
X-32700Y137300D02*
Y213500D01*
Y137300D02*
X-7300D01*
X-87300Y7300D02*
Y83500D01*
X-112700D02*
X-87300D01*
X-112700Y7300D02*
Y83500D01*
Y7300D02*
X-87300D01*
X-47300Y137300D02*
Y213500D01*
X-72700D02*
X-47300D01*
X-72700Y137300D02*
Y213500D01*
Y137300D02*
X-47300D01*
X-127300Y7300D02*
Y83500D01*
X-152700D02*
X-127300D01*
X-152700Y7300D02*
Y83500D01*
Y7300D02*
X-127300D01*
X-87300Y137300D02*
Y213500D01*
X-112700D02*
X-87300D01*
X-112700Y137300D02*
Y213500D01*
Y137300D02*
X-87300D01*
X-167300Y7300D02*
Y83500D01*
X-192700D02*
X-167300D01*
X-192700Y7300D02*
Y83500D01*
Y7300D02*
X-167300D01*
X-127300Y137300D02*
Y213500D01*
X-152700D02*
X-127300D01*
X-152700Y137300D02*
Y213500D01*
Y137300D02*
X-127300D01*
X-207300Y7300D02*
Y83500D01*
X-232700D02*
X-207300D01*
X-232700Y7300D02*
Y83500D01*
Y7300D02*
X-207300D01*
X-599440Y228100D02*
Y240030D01*
X-669290Y246380D02*
X-605790D01*
X-669290Y217170D02*
Y246380D01*
Y217170D02*
X-605790D01*
X-599440Y223520D02*
Y228100D01*
X-605790Y217170D02*
X-599440Y223520D01*
X-605790Y246380D02*
X-599440Y240030D01*
X-227711Y433959D02*
X-216710D01*
X-227711D02*
Y439961D01*
Y449961D01*
X-216710D01*
X-208712Y433959D02*
X-197711D01*
Y449961D01*
X-208712D02*
X-197711D01*
X-27940Y246380D02*
X-2540D01*
X-27940D02*
Y347980D01*
X-2540Y246380D02*
Y347980D01*
X-27940D02*
X-2540D01*
X-262001Y433959D02*
X-251000D01*
X-262001D02*
Y439961D01*
Y449961D01*
X-251000D01*
X-243002Y433959D02*
X-232001D01*
Y449961D01*
X-243002D02*
X-232001D01*
X-597170Y744880D02*
Y748880D01*
X-599170D02*
X-597170D01*
X-586170D02*
X-584170D01*
X-586170Y744880D02*
Y748880D01*
X-584170Y744880D02*
Y763880D01*
X-599170Y744880D02*
Y763880D01*
X-586170D02*
X-584170D01*
X-586170Y744880D02*
X-584170D01*
X-599170Y763880D02*
X-597170D01*
X-599170Y744880D02*
X-597170D01*
X-284210Y746150D02*
X-282210D01*
X-284210Y765150D02*
X-282210D01*
X-271210Y746150D02*
X-269210D01*
X-271210Y765150D02*
X-269210D01*
X-284210Y746150D02*
Y765150D01*
X-269210Y746150D02*
Y765150D01*
X-271210Y746150D02*
Y750150D01*
X-269210D01*
X-284210D02*
X-282210D01*
Y746150D02*
Y750150D01*
X-68310Y746150D02*
X-66310D01*
X-68310Y765150D02*
X-66310D01*
X-55310Y746150D02*
X-53310D01*
X-55310Y765150D02*
X-53310D01*
X-68310Y746150D02*
Y765150D01*
X-53310Y746150D02*
Y765150D01*
X-55310Y746150D02*
Y750150D01*
X-53310D01*
X-68310D02*
X-66310D01*
Y746150D02*
Y750150D01*
X-180070Y744880D02*
X-178070D01*
X-180070Y763880D02*
X-178070D01*
X-167070Y744880D02*
X-165070D01*
X-167070Y763880D02*
X-165070D01*
X-180070Y744880D02*
Y763880D01*
X-165070Y744880D02*
Y763880D01*
X-167070Y744880D02*
Y748880D01*
X-165070D01*
X-180070D02*
X-178070D01*
Y744880D02*
Y748880D01*
X-149050Y777660D02*
Y779660D01*
X-130050Y777660D02*
Y779660D01*
X-149050Y764660D02*
Y766660D01*
X-130050Y764660D02*
Y766660D01*
X-149050Y779660D02*
X-130050D01*
X-149050Y764660D02*
X-130050D01*
X-149050Y766660D02*
X-145050D01*
Y764660D02*
Y766660D01*
Y777660D02*
Y779660D01*
X-149050Y777660D02*
X-145050D01*
X-395970Y744880D02*
X-393970D01*
X-395970Y763880D02*
X-393970D01*
X-382970Y744880D02*
X-380970D01*
X-382970Y763880D02*
X-380970D01*
X-395970Y744880D02*
Y763880D01*
X-380970Y744880D02*
Y763880D01*
X-382970Y744880D02*
Y748880D01*
X-380970D01*
X-395970D02*
X-393970D01*
Y744880D02*
Y748880D01*
X-552910Y775120D02*
Y777120D01*
X-533910Y775120D02*
Y777120D01*
X-552910Y762120D02*
Y764120D01*
X-533910Y762120D02*
Y764120D01*
X-552910Y777120D02*
X-533910D01*
X-552910Y762120D02*
X-533910D01*
X-552910Y764120D02*
X-548910D01*
Y762120D02*
Y764120D01*
Y775120D02*
Y777120D01*
X-552910Y775120D02*
X-548910D01*
X-756110D02*
Y777120D01*
X-737110Y775120D02*
Y777120D01*
X-756110Y762120D02*
Y764120D01*
X-737110Y762120D02*
Y764120D01*
X-756110Y777120D02*
X-737110D01*
X-756110Y762120D02*
X-737110D01*
X-756110Y764120D02*
X-752110D01*
Y762120D02*
Y764120D01*
Y775120D02*
Y777120D01*
X-756110Y775120D02*
X-752110D01*
X-809990Y744880D02*
X-807990D01*
X-809990Y763880D02*
X-807990D01*
X-796990Y744880D02*
X-794990D01*
X-796990Y763880D02*
X-794990D01*
X-809990Y744880D02*
Y763880D01*
X-794990Y744880D02*
Y763880D01*
X-796990Y744880D02*
Y748880D01*
X-794990D01*
X-809990D02*
X-807990D01*
Y744880D02*
Y748880D01*
X-167070Y682600D02*
X-165070D01*
X-167070Y663600D02*
X-165070D01*
X-180070Y682600D02*
X-178070D01*
X-180070Y663600D02*
X-178070D01*
X-165070D02*
Y682600D01*
X-180070Y663600D02*
Y682600D01*
X-178070Y678600D02*
Y682600D01*
X-180070Y678600D02*
X-178070D01*
X-167070D02*
X-165070D01*
X-167070D02*
Y682600D01*
X-382970Y685140D02*
X-380970D01*
X-382970Y666140D02*
X-380970D01*
X-395970Y685140D02*
X-393970D01*
X-395970Y666140D02*
X-393970D01*
X-380970D02*
Y685140D01*
X-395970Y666140D02*
Y685140D01*
X-393970Y681140D02*
Y685140D01*
X-395970Y681140D02*
X-393970D01*
X-382970D02*
X-380970D01*
X-382970D02*
Y685140D01*
X-586170Y682600D02*
X-584170D01*
X-586170Y663600D02*
X-584170D01*
X-599170Y682600D02*
X-597170D01*
X-599170Y663600D02*
X-597170D01*
X-584170D02*
Y682600D01*
X-599170Y663600D02*
Y682600D01*
X-597170Y678600D02*
Y682600D01*
X-599170Y678600D02*
X-597170D01*
X-586170D02*
X-584170D01*
X-586170D02*
Y682600D01*
X-794450D02*
X-792450D01*
X-794450Y663600D02*
X-792450D01*
X-807450Y682600D02*
X-805450D01*
X-807450Y663600D02*
X-805450D01*
X-792450D02*
Y682600D01*
X-807450Y663600D02*
Y682600D01*
X-805450Y678600D02*
Y682600D01*
X-807450Y678600D02*
X-805450D01*
X-794450D02*
X-792450D01*
X-794450D02*
Y682600D01*
X-800022Y864272D02*
Y876772D01*
Y864272D02*
X-695022D01*
Y876772D01*
X-491822Y864272D02*
Y876772D01*
X-596822Y864272D02*
X-491822D01*
X-596822D02*
Y876772D01*
X-395146Y864272D02*
Y876772D01*
Y864272D02*
X-290146D01*
Y876772D01*
X-87200Y864272D02*
Y876772D01*
X-192200Y864272D02*
X-87200D01*
X-192200D02*
Y876772D01*
X-352250Y777660D02*
Y779660D01*
X-333250Y777660D02*
Y779660D01*
X-352250Y764660D02*
Y766660D01*
X-333250Y764660D02*
Y766660D01*
X-352250Y779660D02*
X-333250D01*
X-352250Y764660D02*
X-333250D01*
X-352250Y766660D02*
X-348250D01*
Y764660D02*
Y766660D01*
Y777660D02*
Y779660D01*
X-352250Y777660D02*
X-348250D01*
X-436090Y425190D02*
X-369090D01*
X-436090Y392690D02*
X-369090D01*
X-436090D02*
Y425190D01*
X-369090Y392690D02*
Y425190D01*
X-379730Y1002974D02*
Y982980D01*
X-369733D01*
X-366401Y986312D01*
Y989644D01*
X-369733Y992977D01*
X-379730D01*
X-369733D01*
X-366401Y996309D01*
Y999641D01*
X-369733Y1002974D01*
X-379730D01*
X-359736Y992977D02*
X-346407D01*
X-431800Y1002974D02*
Y982980D01*
X-421803D01*
X-418471Y986312D01*
Y989644D01*
X-421803Y992977D01*
X-431800D01*
X-421803D01*
X-418471Y996309D01*
Y999641D01*
X-421803Y1002974D01*
X-431800D01*
X-411806Y992977D02*
X-398477D01*
X-405142Y999641D02*
Y986312D01*
X-483870Y982980D02*
Y996309D01*
X-477206Y1002974D01*
X-470541Y996309D01*
Y982980D01*
Y992977D01*
X-483870D01*
X-463876D02*
X-450547D01*
X-535940Y981710D02*
Y995039D01*
X-529276Y1001704D01*
X-522611Y995039D01*
Y981710D01*
Y991707D01*
X-535940D01*
X-515946D02*
X-502617D01*
X-509282Y998371D02*
Y985042D01*
X-900430Y997113D02*
X-913759D01*
X-854547Y989330D02*
Y1002659D01*
X-861211Y995994D02*
X-847882D01*
D79*
X-898490Y514480D02*
Y523480D01*
X-922690Y514480D02*
X-898490D01*
X-922690D02*
Y523480D01*
Y553480D02*
Y562480D01*
X-898490D01*
Y553480D02*
Y562480D01*
X-525780Y287020D02*
X-517144D01*
Y276860D02*
Y287020D01*
Y266700D02*
Y276860D01*
X-525780Y266700D02*
X-517144D01*
X-554736D02*
X-546100D01*
X-554736D02*
Y276860D01*
Y287020D01*
X-546100D01*
X-554736Y241300D02*
X-546100D01*
X-554736D02*
Y251460D01*
Y261620D01*
X-546100D01*
X-525780D02*
X-517144D01*
Y251460D02*
Y261620D01*
Y241300D02*
Y251460D01*
X-525780Y241300D02*
X-517144D01*
X-922020Y491490D02*
Y500126D01*
X-911860D01*
X-901700D01*
Y491490D02*
Y500126D01*
Y462534D02*
Y471170D01*
X-911860Y462534D02*
X-901700D01*
X-922020D02*
X-911860D01*
X-922020D02*
Y471170D01*
X-894518Y461975D02*
X-863162D01*
Y470029D01*
X-894518Y461975D02*
Y470029D01*
Y500251D02*
Y508305D01*
X-863162Y500251D02*
Y508305D01*
X-894518D02*
X-863162D01*
X-731266Y302260D02*
X-722630D01*
X-731266D02*
Y312420D01*
Y322580D01*
X-722630D01*
X-702310D02*
X-693674D01*
Y312420D02*
Y322580D01*
Y302260D02*
Y312420D01*
X-702310Y302260D02*
X-693674D01*
X-739140Y331724D02*
Y340360D01*
X-749300Y331724D02*
X-739140D01*
X-759460D02*
X-749300D01*
X-759460D02*
Y340360D01*
Y360680D02*
Y369316D01*
X-749300D01*
X-739140D01*
Y360680D02*
Y369316D01*
X-214630Y421640D02*
Y430276D01*
X-224790D02*
X-214630D01*
X-234950D02*
X-224790D01*
X-234950Y421640D02*
Y430276D01*
Y392684D02*
Y401320D01*
Y392684D02*
X-224790D01*
X-214630D01*
Y401320D01*
X-438150Y327660D02*
Y336296D01*
X-448310D02*
X-438150D01*
X-458470D02*
X-448310D01*
X-458470Y327660D02*
Y336296D01*
Y298704D02*
Y307340D01*
Y298704D02*
X-448310D01*
X-438150D01*
Y307340D01*
X-389890Y208280D02*
X-381254D01*
Y218440D01*
Y228600D01*
X-389890D02*
X-381254D01*
X-418846D02*
X-410210D01*
X-418846Y218440D02*
Y228600D01*
Y208280D02*
Y218440D01*
Y208280D02*
X-410210D01*
X-883920Y62230D02*
X-868172D01*
X-891540D02*
Y64770D01*
X-883920D01*
Y62230D02*
Y64770D01*
X-862330Y62230D02*
Y163830D01*
X-989330D02*
X-868172D01*
X-989330Y62230D02*
X-891540D01*
X-989330D02*
Y163830D01*
Y146050D02*
X-975360D01*
Y132080D02*
Y146050D01*
X-989330Y132080D02*
X-975360D01*
X-989330Y95250D02*
X-975360D01*
Y81280D02*
Y95250D01*
X-989330Y81280D02*
X-975360D01*
X-891540Y165100D02*
X-883920D01*
X-560070Y228600D02*
X-445770D01*
Y10160D02*
Y228600D01*
X-560070Y10160D02*
X-445770D01*
X-560070D02*
Y228600D01*
X-73660Y251714D02*
Y260350D01*
Y251714D02*
X-63500D01*
X-53340D01*
Y260350D01*
Y280670D02*
Y289306D01*
X-63500D02*
X-53340D01*
X-73660D02*
X-63500D01*
X-73660Y280670D02*
Y289306D01*
X-166370Y406400D02*
X-157734D01*
Y416560D01*
Y426720D01*
X-166370D02*
X-157734D01*
X-195326D02*
X-186690D01*
X-195326Y416560D02*
Y426720D01*
Y406400D02*
Y416560D01*
Y406400D02*
X-186690D01*
X-990346Y197612D02*
X-892556D01*
X-990600Y331470D02*
X-976630D01*
Y317500D02*
Y331470D01*
X-990600Y317500D02*
X-976630D01*
X-990600Y280670D02*
X-976630D01*
Y266700D02*
Y280670D01*
X-990600Y266700D02*
X-976630D01*
X-990600Y229870D02*
X-976630D01*
Y215900D02*
Y229870D01*
X-990600Y215900D02*
X-976630D01*
X-892556Y197612D02*
Y200152D01*
X-884936D01*
Y197612D02*
Y200152D01*
X-863600Y197612D02*
Y349250D01*
X-884936Y197612D02*
X-863600D01*
X-990600D02*
Y349250D01*
X-863600D02*
Y450850D01*
X-990600D02*
X-869442D01*
X-990600Y349250D02*
Y450850D01*
Y433070D02*
X-976630D01*
Y419100D02*
Y433070D01*
X-990600Y419100D02*
X-976630D01*
X-990600Y382270D02*
X-976630D01*
Y368300D02*
Y382270D01*
X-990600Y368300D02*
X-976630D01*
X-892810Y452120D02*
X-885190D01*
X-731266Y349250D02*
X-722630D01*
X-731266Y339090D02*
Y349250D01*
Y328930D02*
Y339090D01*
Y328930D02*
X-722630D01*
X-702310D02*
X-693674D01*
Y339090D01*
Y349250D01*
X-702310D02*
X-693674D01*
X-343970Y1030020D02*
Y1037640D01*
X-548440Y1030020D02*
X-545900D01*
Y1037640D01*
X-548440D02*
X-545900D01*
X-529390Y1121664D02*
Y1134160D01*
Y1121460D02*
X-515420D01*
Y1121664D02*
Y1134160D01*
X-478590Y1121460D02*
Y1135430D01*
Y1121460D02*
X-464620D01*
Y1135430D01*
X-427790Y1121460D02*
Y1135430D01*
Y1121460D02*
X-413820D01*
Y1135430D01*
X-376990Y1121460D02*
Y1135430D01*
Y1121460D02*
X-363020D01*
Y1135430D01*
X-548440Y1008430D02*
X-345240D01*
Y1135430D01*
X-548440Y1037640D02*
Y1135430D01*
X-345240D01*
X-548440Y1008430D02*
Y1030020D01*
X-731266Y377190D02*
X-722630D01*
X-731266Y367030D02*
Y377190D01*
Y356870D02*
Y367030D01*
Y356870D02*
X-722630D01*
X-702310D02*
X-693674D01*
Y367030D01*
Y377190D01*
X-702310D02*
X-693674D01*
X-829310Y1031240D02*
Y1038860D01*
X-913130Y1122680D02*
Y1136650D01*
Y1122680D02*
X-899160D01*
Y1136650D01*
X-862330Y1122680D02*
Y1136650D01*
Y1122680D02*
X-848360D01*
Y1136650D01*
X-932180D02*
X-830580D01*
X-932180Y1038860D02*
Y1136650D01*
X-830580Y1015492D02*
Y1136650D01*
X-932180Y1009650D02*
X-830580D01*
X-932180Y1031240D02*
X-929640D01*
Y1038860D01*
X-932180D02*
X-929640D01*
X-932180Y1015492D02*
Y1031240D01*
X-691354Y955384D02*
Y977204D01*
X-803354D02*
X-691354D01*
X-803354Y955384D02*
Y977204D01*
X-600154Y955384D02*
Y977204D01*
X-488154D01*
Y955384D02*
Y977204D01*
X-286478Y955384D02*
Y977204D01*
X-398478D02*
X-286478D01*
X-398478Y955384D02*
Y977204D01*
X-195532Y955384D02*
Y977204D01*
X-83532D01*
Y955384D02*
Y977204D01*
X-340360Y391414D02*
Y400050D01*
X-350520Y391414D02*
X-340360D01*
X-360680D02*
X-350520D01*
X-360680D02*
Y400050D01*
Y420370D02*
Y429006D01*
X-350520D01*
X-340360D01*
Y420370D02*
Y429006D01*
X-314960Y391414D02*
Y400050D01*
X-325120Y391414D02*
X-314960D01*
X-335280D02*
X-325120D01*
X-335280D02*
Y400050D01*
Y420370D02*
Y429006D01*
X-325120D01*
X-314960D01*
Y420370D02*
Y429006D01*
D80*
X-868426Y62230D02*
X-862330D01*
X-868172Y163830D02*
X-862330D01*
X-869442Y450850D02*
X-863600D01*
X-830580Y1009650D02*
Y1015492D01*
X-932180Y1009650D02*
Y1015746D01*
D81*
X-895858Y172720D02*
X-887222D01*
X-895858Y185420D02*
X-887222D01*
X-819000Y750062D02*
Y758698D01*
X-831700Y750062D02*
Y758698D01*
X-304650Y751332D02*
Y759968D01*
X-291950Y751332D02*
Y759968D01*
X-88750Y751332D02*
Y759968D01*
X-76050Y751332D02*
Y759968D01*
X-417680Y750062D02*
Y758698D01*
X-404980Y750062D02*
Y758698D01*
X-201780Y750062D02*
Y758698D01*
X-189080Y750062D02*
Y758698D01*
X-548998Y633730D02*
X-540362D01*
X-548998Y621030D02*
X-540362D01*
X-754738Y633730D02*
X-746102D01*
X-754738Y621030D02*
X-746102D01*
X-547728Y786130D02*
X-539092D01*
X-547728Y798830D02*
X-539092D01*
X-750928Y786130D02*
X-742292D01*
X-750928Y798830D02*
X-742292D01*
X-594718Y621030D02*
X-586082D01*
X-594718Y633730D02*
X-586082D01*
X-800458Y621030D02*
X-791822D01*
X-800458Y633730D02*
X-791822D01*
X-640588Y542036D02*
X-631952D01*
X-640588Y529336D02*
X-631952D01*
X-693928Y542290D02*
X-685292D01*
X-693928Y529590D02*
X-685292D01*
X-126088Y633730D02*
X-117452D01*
X-126088Y621030D02*
X-117452D01*
X-344528Y633730D02*
X-335892D01*
X-344528Y621030D02*
X-335892D01*
X-170538D02*
X-161902D01*
X-170538Y633730D02*
X-161902D01*
X-388978Y621030D02*
X-380342D01*
X-388978Y633730D02*
X-380342D01*
X-251968Y542290D02*
X-243332D01*
X-251968Y529590D02*
X-243332D01*
X-432308D02*
X-423672D01*
X-432308Y542290D02*
X-423672D01*
X-143868Y786130D02*
X-135232D01*
X-143868Y798830D02*
X-135232D01*
X-620880Y750062D02*
Y758698D01*
X-608180Y750062D02*
Y758698D01*
X-347068Y786130D02*
X-338432D01*
X-347068Y798830D02*
X-338432D01*
D82*
X-761104Y828830D02*
D03*
X-557904D02*
D03*
X-356228D02*
D03*
X-153282D02*
D03*
M02*
