M48
;Layer_Color=9474304
;FILE_FORMAT=4:4
METRIC,LZ
;TYPE=PLATED
T1F00S00C0.3000
T2F00S00C0.6000
T3F00S00C0.8000
T4F00S00C0.9000
T5F00S00C1.0000
T6F00S00C1.0160
T7F00S00C1.5240
T8F00S00C1.6000
T9F00S00C3.0000
;TYPE=NON_PLATED
T10F00S00C1.0000
%
T01
X-0064262Y0007112
X-0086868Y0017907
X-0076581Y003429
X-0072644Y0038481
Y0041656
Y0042926
X-0071374
Y0041656
Y0046101
X-0072644
X-0073914
X-0085935Y0049964
X-0064389Y0036449
X-00635Y003683
X-0062611Y0036449
X-0050419Y0034671
Y0033782
Y0032766
X-0047879Y0030099
X-0048641Y0029337
X-0043307Y0030861
X-0042545Y0030353
X-0041656Y0030861
X-0040132Y0027432
Y0026035
X-0040894Y0022987
X-0042418Y0021844
X-0041021Y002032
X-0044704Y00254
X-004572
X-005461Y0024003
Y0022987
X-0064262Y0017145
X-00511969Y003937
X-0050419
X-0042559Y0039366
X-0042545Y0036195
X-0037973
X-0033274Y003683
X-0032004
X-0030734
X-0029464
X-0028194
X-002794Y004191
X-0027432Y0042799
X-0033782Y0040005
X-00355346Y00328168
X-00357124Y00312674
X-0030607Y0051435
X-0043815
X-0048006Y0051562
X-0025781Y0050419
Y0047879
X-0026162Y0045212
X-0025273
X-0026924Y004191
Y0040513
X-00230876Y0034035
X-00221996Y0034036
X-0016637Y0033782
X-0015113Y0032639
X-001397Y003302
X-0013335Y0033655
X-0015621Y0031115
X-0016637
X-0015494Y0029591
Y0028702
X-0015113Y0024511
X-0016383
X-0017653
X-0018923
X-0020955Y0025908
X-0022225
X-000635Y0024765
X-000508Y0023749
Y002286
X-0002794Y002413
X0001016Y0020828
X-0007493Y0038481
X-0008763
X-0009779Y0037846
X-0010795
X-0011811
X-0014859Y0037719
X-0015875Y0037592
X-0016891Y0042672
X-0018034
X-0020193Y0046355
X-0021971Y0049276
Y0051562
X-0002921Y0046863
X-0010541Y0060833
X-0010272Y0064135
X-0010907Y0076962
X-0009779Y0082169
Y0083185
X-0009017Y0082677
Y0081661
X-0008255Y0082169
Y0083058
X-0009017Y0083693
X-0022591Y0060452
X-0031623Y0060833
X-0032116Y0064008
X-0031608Y0076962
X-0030226Y0082677
Y008382
X-0029337Y0083185
X-002921Y0082042
X-0028448Y0082677
Y008382
X-0029337Y0084455
X-0042545Y0087249
X-004507Y0083439
X-0049403Y0083185
X-0049388Y0082169
X-0049403Y0084328
X-0050292Y008509
X-0051435
X-0052705
X-0048499Y0077978
X-004634Y00762
X-0045451
X-0044562
X-0045832Y006731
X-0046975
X-0048245
X-0052436Y0064135
X-0051181Y0061087
Y0060071
Y0058928
Y0057785
X-004826Y0054102
X-004699Y005334
X-0043942Y0060071
Y0061087
X-0042926
Y0060071
X-0064008Y0060198
Y0061087
X-0065024
Y0060198
X-0066279Y006731
X-0066025Y00762
X-0065009
X-006412
X-006539Y0083439
X-0062738Y0087249
X-0069708Y0084455
Y0083312
Y0082169
X-0070485Y0085217
X-0071755
X-0073025
X-0068819Y0077978
Y006731
X-0067549
X-007301Y0064135
X-0073025Y0060833
X-0071628Y0061214
Y0060198
Y0059055
Y0058039
X-0074549Y0056134
X-0080518Y0056896
X-0085075Y0060325
X-0092202Y0076835
Y0079375
X-0094996
Y0076835
T02
X-0067183Y0050038
X-0033782Y0042037
X-0024003Y0042418
X-00127Y0043815
X-0019543Y0069469
X-0041133Y0069723
X-0061453Y0069469
X-0070485Y0066167
X-0082535Y0069596
T03
X-0005207Y00376174
Y0039116
Y00406171
Y00421157
Y00436169
Y00451155
T04
X-0026Y0002
Y000454
Y000708
X-0022
Y000454
Y0002
X-0018
Y000454
Y000708
X-0014
Y000454
Y0002
X-001
Y000454
Y000708
X-0006
Y000454
Y0002
X-0002
Y000454
Y000708
X-003
Y000454
Y0002
X-0087884Y000254
X-0090424
X-007239Y0021082
X-0063881Y0049911
X-0048768Y0049149
X-0028448Y0049276
X-003Y002008
Y001754
Y0015
X-0026
Y001754
Y002008
X-0022
Y001754
Y0015
X-0018
Y001754
Y002008
X-0014
Y001754
Y0015
X-001
Y001754
Y002008
X-0006
Y001754
Y0015
X-0002
Y001754
Y002008
X-0001524Y0025908
Y0028448
Y0030988
Y0033528
X-0004699Y0032766
X-0007493Y0062611
X-0001524Y0075184
Y0077724
Y0080264
Y0082804
X-0043815Y0063881
X-004699
X-0064135Y00635
X-0067564
T05
X-00935078Y0077978
X-0087996
X-00880341Y0092329
X-00935459
T06
X-00377317Y00038862
X-00377063Y00072898
X-0078359Y00056266
X-00817626Y00056521
Y00164978
X-0078359Y00164724
X-0080137Y0027813
X-00801116Y00312166
X-0080264Y0038227
X-00802386Y00416306
X-00374396Y00181356
X-0037465Y0014732
T07
X-00889Y0022225
Y0027305
Y0032385
X-0052309Y0103378
X-0047229
X-0042149
X-0037069
T08
X-0088773Y0008763
Y0013843
X-00889Y0037465
Y0042545
X-0090678Y0103505
X-0085598
T09
X0001651Y0002159
X-0046101Y0011938
X-0054483
X-0096901Y0002159
Y0111506
X0001651
T10
X-0003683Y0050165
Y0052705
Y0055245
Y0057785
M30
