G04 Layer_Physical_Order=1*
G04 Layer_Color=255*
%FSLAX44Y44*%
%MOMM*%
G71*
G01*
G75*
%ADD10R,1.8500X1.3000*%
%ADD11R,1.2700X1.6002*%
%ADD12R,1.7780X1.7780*%
%ADD13R,1.6002X1.2700*%
%ADD14R,2.7000X1.3000*%
%ADD15R,2.2900X2.2900*%
%ADD16O,0.6000X2.0000*%
%ADD17R,2.5000X1.2700*%
%ADD18O,0.6000X2.0000*%
%ADD19R,1.1000X1.0000*%
%ADD20R,2.0000X3.0000*%
%ADD21R,10.0000X6.0000*%
%ADD22R,1.0700X2.7500*%
%ADD23R,1.5000X2.5000*%
%ADD24R,1.2700X1.3970*%
%ADD25R,1.3970X1.2700*%
%ADD26R,1.4000X2.1000*%
%ADD27R,1.0000X1.1000*%
%ADD28R,0.5500X1.4500*%
%ADD29R,2.5000X1.5000*%
%ADD30R,0.5080X1.5240*%
%ADD31R,1.4500X0.5500*%
%ADD32R,10.7000X10.0000*%
%ADD33R,1.5000X3.0000*%
%ADD34R,1.6000X3.0000*%
%ADD35O,1.6000X3.0000*%
%ADD36R,1.1000X2.1500*%
%ADD37R,1.1000X2.1500*%
%ADD38R,3.5000X2.1500*%
%ADD39C,0.5080*%
%ADD40C,0.2540*%
%ADD41C,1.0000*%
%ADD42C,0.5000*%
%ADD43C,1.0160*%
%ADD44C,1.7780*%
%ADD45C,0.3000*%
%ADD46R,1.5000X1.5000*%
%ADD47R,1.5000X1.5000*%
%ADD48C,1.5000*%
%ADD49R,2.5400X1.5240*%
%ADD50O,2.5400X1.5240*%
%ADD51C,2.3000*%
%ADD52R,1.5240X2.5400*%
%ADD53O,1.5240X2.5400*%
%ADD54O,2.2860X1.7780*%
%ADD55R,2.2860X1.7780*%
%ADD56O,3.5560X3.0480*%
%ADD57R,5.0000X5.0000*%
%ADD58R,1.1999X1.1999*%
%ADD59C,1.1999*%
%ADD60R,2.0000X2.0000*%
%ADD61C,2.0000*%
%ADD62O,3.0480X3.5560*%
%ADD63C,0.6000*%
%ADD64C,1.0000*%
G36*
X-266927Y407072D02*
X-266742Y406931D01*
X-266542Y406807D01*
X-266327Y406699D01*
X-266097Y406608D01*
X-265852Y406533D01*
X-265592Y406475D01*
X-265317Y406433D01*
X-265027Y406408D01*
X-264722Y406400D01*
Y403860D01*
X-265027Y403852D01*
X-265317Y403827D01*
X-265592Y403785D01*
X-265852Y403727D01*
X-266097Y403652D01*
X-266327Y403561D01*
X-266542Y403453D01*
X-266742Y403329D01*
X-266927Y403188D01*
X-267098Y403030D01*
Y407230D01*
X-266927Y407072D01*
D02*
G37*
G36*
X-259470Y402590D02*
X-259495Y402831D01*
X-259571Y403047D01*
X-259698Y403238D01*
X-259876Y403403D01*
X-260105Y403543D01*
X-260384Y403657D01*
X-260714Y403746D01*
X-261095Y403809D01*
X-261527Y403847D01*
X-262010Y403860D01*
Y406400D01*
X-261527Y406413D01*
X-261095Y406451D01*
X-260714Y406514D01*
X-260384Y406603D01*
X-260105Y406717D01*
X-259876Y406857D01*
X-259698Y407022D01*
X-259571Y407213D01*
X-259495Y407429D01*
X-259470Y407670D01*
Y402590D01*
D02*
G37*
G36*
X-918210Y795020D02*
X-918210Y775970D01*
Y699770D01*
X-924560Y693420D01*
X-946150Y671830D01*
Y492760D01*
Y454660D01*
X-944880Y453390D01*
X-933450Y441960D01*
X-869950D01*
X-866140Y438150D01*
Y411480D01*
X-869950Y407670D01*
X-982830D01*
X-987375Y412215D01*
Y800100D01*
X-923290Y800100D01*
X-918210Y795020D01*
D02*
G37*
G36*
X-160031Y419815D02*
X-159880Y419390D01*
X-159628Y419015D01*
X-159276Y418690D01*
X-158823Y418415D01*
X-158270Y418190D01*
X-157616Y418015D01*
X-156861Y417890D01*
X-156006Y417815D01*
X-155050Y417790D01*
Y412790D01*
X-156006Y412765D01*
X-156861Y412690D01*
X-157616Y412565D01*
X-158270Y412390D01*
X-158823Y412165D01*
X-159276Y411890D01*
X-159628Y411565D01*
X-159880Y411190D01*
X-160031Y410765D01*
X-160081Y410290D01*
Y420290D01*
X-160031Y419815D01*
D02*
G37*
G36*
X-852170Y474980D02*
X-829310Y452120D01*
X-783590D01*
X-775970Y444500D01*
X-760730Y429260D01*
X-736509D01*
Y429855D01*
X-735559Y429880D01*
X-734709Y429955D01*
X-733960Y430080D01*
X-733309Y430255D01*
X-732896Y430424D01*
X-731625Y431695D01*
X-731560Y431880D01*
X-731509Y432355D01*
Y431800D01*
X-713740D01*
X-712470Y430530D01*
X-709930Y427990D01*
Y426720D01*
Y416560D01*
X-711200Y415290D01*
X-713740Y412750D01*
X-767080D01*
X-768350Y411480D01*
X-772160Y407670D01*
X-802640D01*
X-826770Y407670D01*
X-829310Y410210D01*
X-829310Y424180D01*
X-847090Y441960D01*
X-858520Y453390D01*
X-913130D01*
X-918210Y458470D01*
X-920750Y461010D01*
Y476250D01*
X-918210Y478790D01*
X-855980D01*
X-852170Y474980D01*
D02*
G37*
G36*
X-673979Y388700D02*
X-674029Y389175D01*
X-674180Y389600D01*
X-674432Y389975D01*
X-674784Y390300D01*
X-675237Y390575D01*
X-675790Y390800D01*
X-676444Y390975D01*
X-677198Y391100D01*
X-678054Y391175D01*
X-679009Y391200D01*
Y396200D01*
X-678054Y396225D01*
X-677198Y396300D01*
X-676444Y396425D01*
X-675790Y396600D01*
X-675237Y396825D01*
X-674784Y397100D01*
X-674432Y397425D01*
X-674180Y397800D01*
X-674029Y398225D01*
X-673979Y398700D01*
Y388700D01*
D02*
G37*
G36*
X-400065Y392704D02*
X-399990Y391849D01*
X-399865Y391094D01*
X-399690Y390440D01*
X-399465Y389887D01*
X-399190Y389434D01*
X-398865Y389082D01*
X-398490Y388830D01*
X-398065Y388679D01*
X-397590Y388629D01*
X-407590D01*
X-407115Y388679D01*
X-406690Y388830D01*
X-406315Y389082D01*
X-405990Y389434D01*
X-405715Y389887D01*
X-405490Y390440D01*
X-405315Y391094D01*
X-405190Y391849D01*
X-405115Y392704D01*
X-405090Y393660D01*
X-400090D01*
X-400065Y392704D01*
D02*
G37*
G36*
X-698025Y402435D02*
X-697874Y402010D01*
X-697623Y401635D01*
X-697271Y401310D01*
X-696818Y401035D01*
X-696264Y400810D01*
X-695610Y400635D01*
X-694856Y400510D01*
X-694001Y400435D01*
X-693045Y400410D01*
Y395410D01*
X-694001Y395385D01*
X-694856Y395310D01*
X-695610Y395185D01*
X-696264Y395010D01*
X-696818Y394785D01*
X-697271Y394510D01*
X-697623Y394185D01*
X-697874Y393810D01*
X-698025Y393385D01*
X-698075Y392910D01*
Y402910D01*
X-698025Y402435D01*
D02*
G37*
G36*
X-333060Y397510D02*
X-333086Y397751D01*
X-333163Y397967D01*
X-333291Y398158D01*
X-333471Y398323D01*
X-333703Y398462D01*
X-333985Y398577D01*
X-334320Y398666D01*
X-334337Y398669D01*
X-334432Y398647D01*
X-334677Y398573D01*
X-334907Y398481D01*
X-335122Y398373D01*
X-335322Y398249D01*
X-335507Y398108D01*
X-335678Y397950D01*
X-337820Y400050D01*
X-335678Y402150D01*
X-335507Y401992D01*
X-335322Y401851D01*
X-335122Y401727D01*
X-334907Y401619D01*
X-334677Y401527D01*
X-334432Y401453D01*
X-334337Y401432D01*
X-334320Y401434D01*
X-333985Y401523D01*
X-333703Y401637D01*
X-333471Y401777D01*
X-333291Y401942D01*
X-333163Y402133D01*
X-333086Y402349D01*
X-333060Y402590D01*
Y397510D01*
D02*
G37*
G36*
X-342524Y402349D02*
X-342448Y402133D01*
X-342321Y401942D01*
X-342143Y401777D01*
X-341914Y401637D01*
X-341635Y401523D01*
X-341305Y401434D01*
X-341297Y401433D01*
X-341208Y401453D01*
X-340963Y401527D01*
X-340733Y401619D01*
X-340518Y401727D01*
X-340318Y401851D01*
X-340133Y401992D01*
X-339962Y402150D01*
X-337820Y400050D01*
X-339962Y397950D01*
X-340133Y398108D01*
X-340318Y398249D01*
X-340518Y398373D01*
X-340733Y398481D01*
X-340963Y398573D01*
X-341208Y398647D01*
X-341297Y398667D01*
X-341305Y398666D01*
X-341635Y398577D01*
X-341914Y398462D01*
X-342143Y398323D01*
X-342321Y398158D01*
X-342448Y397967D01*
X-342524Y397751D01*
X-342550Y397510D01*
Y402590D01*
X-342524Y402349D01*
D02*
G37*
G36*
X-358460Y415370D02*
X-358510Y415845D01*
X-358661Y416270D01*
X-358913Y416645D01*
X-359265Y416970D01*
X-359718Y417245D01*
X-360271Y417470D01*
X-360925Y417645D01*
X-361679Y417770D01*
X-362535Y417845D01*
X-363490Y417870D01*
Y422870D01*
X-362535Y422895D01*
X-361679Y422970D01*
X-360925Y423095D01*
X-360271Y423270D01*
X-359718Y423495D01*
X-359265Y423770D01*
X-358913Y424095D01*
X-358661Y424470D01*
X-358510Y424895D01*
X-358460Y425370D01*
Y415370D01*
D02*
G37*
G36*
X-347995Y430734D02*
X-347920Y429879D01*
X-347795Y429124D01*
X-347620Y428470D01*
X-347395Y427917D01*
X-347120Y427464D01*
X-346795Y427112D01*
X-346420Y426860D01*
X-345995Y426709D01*
X-345520Y426659D01*
X-355520D01*
X-355045Y426709D01*
X-354620Y426860D01*
X-354245Y427112D01*
X-353920Y427464D01*
X-353645Y427917D01*
X-353420Y428470D01*
X-353245Y429124D01*
X-353120Y429879D01*
X-353045Y430734D01*
X-353020Y431689D01*
X-348020D01*
X-347995Y430734D01*
D02*
G37*
G36*
X-385696Y429185D02*
X-386136Y429079D01*
X-386442Y428902D01*
X-386612Y428655D01*
X-386647Y428337D01*
X-386548Y427948D01*
X-386313Y427488D01*
X-385944Y426958D01*
X-385439Y426357D01*
X-384799Y425685D01*
X-391870D01*
X-392578Y426357D01*
X-393285Y426958D01*
X-393992Y427488D01*
X-394699Y427948D01*
X-395406Y428337D01*
X-396113Y428655D01*
X-396820Y428902D01*
X-397527Y429079D01*
X-398086Y429163D01*
X-398490Y429021D01*
X-398865Y428770D01*
X-399190Y428420D01*
X-399465Y427971D01*
X-399690Y427421D01*
X-399865Y426771D01*
X-399990Y426021D01*
X-400065Y425171D01*
X-400090Y424221D01*
X-405090D01*
X-405115Y425171D01*
X-405190Y426021D01*
X-405315Y426771D01*
X-405490Y427421D01*
X-405715Y427971D01*
X-405990Y428420D01*
X-406315Y428770D01*
X-406690Y429021D01*
X-407115Y429170D01*
X-407590Y429221D01*
X-385121D01*
X-385696Y429185D01*
D02*
G37*
G36*
X-189738Y442244D02*
X-188987Y441643D01*
X-188207Y441112D01*
X-187397Y440653D01*
X-186558Y440264D01*
X-185690Y439946D01*
X-184793Y439698D01*
X-183866Y439521D01*
X-182910Y439415D01*
X-181924Y439380D01*
Y434380D01*
X-182910Y434345D01*
X-183866Y434239D01*
X-184793Y434062D01*
X-185690Y433814D01*
X-186558Y433496D01*
X-187397Y433107D01*
X-188207Y432648D01*
X-188987Y432117D01*
X-189738Y431516D01*
X-190460Y430844D01*
X-195031Y433344D01*
X-194392Y434049D01*
X-193891Y434750D01*
X-193526Y435446D01*
X-193298Y436137D01*
X-193207Y436824D01*
X-193254Y437507D01*
X-193437Y438185D01*
X-193757Y438858D01*
X-194214Y439528D01*
X-194808Y440192D01*
X-190460Y442915D01*
X-189738Y442244D01*
D02*
G37*
G36*
X-130571Y434650D02*
X-130785Y434840D01*
X-131035Y435010D01*
X-131321Y435160D01*
X-131643Y435290D01*
X-132001Y435400D01*
X-132395Y435490D01*
X-132824Y435560D01*
X-133290Y435610D01*
X-134330Y435650D01*
Y440650D01*
X-133792Y440660D01*
X-132824Y440740D01*
X-132395Y440810D01*
X-132001Y440900D01*
X-131643Y441010D01*
X-131321Y441140D01*
X-131035Y441290D01*
X-130785Y441460D01*
X-130571Y441650D01*
Y434650D01*
D02*
G37*
G36*
X-698222Y439906D02*
X-698288Y439597D01*
X-698347Y439210D01*
X-698442Y438199D01*
X-698524Y436091D01*
X-698540Y434290D01*
X-703540D01*
X-703544Y435230D01*
X-703792Y439597D01*
X-703858Y439906D01*
X-703933Y440135D01*
X-698147D01*
X-698222Y439906D01*
D02*
G37*
G36*
X-167083Y426707D02*
X-166919Y426566D01*
X-166432Y427053D01*
X-166394Y426822D01*
X-166343Y426599D01*
X-166280Y426383D01*
X-166203Y426174D01*
X-166113Y425973D01*
X-166021Y425799D01*
X-165592Y425481D01*
X-165134Y425181D01*
X-164694Y424936D01*
X-164274Y424745D01*
X-163873Y424609D01*
X-163491Y424527D01*
X-163128Y424500D01*
X-166050D01*
X-166837Y423713D01*
X-165100D01*
X-165095Y422780D01*
X-164855Y419021D01*
X-164781Y418702D01*
X-164696Y418470D01*
X-164601Y418327D01*
X-168139D01*
X-168044Y418470D01*
X-167959Y418702D01*
X-167884Y419021D01*
X-167820Y419428D01*
X-167720Y420506D01*
X-167645Y422780D01*
X-167641Y423604D01*
X-167783Y423705D01*
X-167969Y423821D01*
X-168163Y423923D01*
X-168364Y424013D01*
X-168573Y424090D01*
X-168789Y424153D01*
X-169012Y424204D01*
X-169243Y424242D01*
X-168985Y424500D01*
X-170313D01*
X-169979Y424513D01*
X-169708Y424553D01*
X-169500Y424619D01*
X-169355Y424711D01*
X-169273Y424831D01*
X-169254Y424976D01*
X-169298Y425148D01*
X-169405Y425346D01*
X-169575Y425571D01*
X-169808Y425822D01*
X-167619Y427225D01*
X-167083Y426707D01*
D02*
G37*
G36*
X-216770Y426165D02*
X-216619Y425740D01*
X-216369Y425365D01*
X-216019Y425040D01*
X-215569Y424765D01*
X-215019Y424540D01*
X-214370Y424365D01*
X-213619Y424240D01*
X-212770Y424165D01*
X-211819Y424140D01*
Y419140D01*
X-212770Y419115D01*
X-213619Y419040D01*
X-214370Y418915D01*
X-215019Y418740D01*
X-215569Y418515D01*
X-216019Y418240D01*
X-216369Y417915D01*
X-216619Y417540D01*
X-216770Y417115D01*
X-216819Y416640D01*
Y426640D01*
X-216770Y426165D01*
D02*
G37*
G36*
X-708662Y426480D02*
X-708547Y426255D01*
X-708354Y426057D01*
X-708085Y425885D01*
X-707738Y425740D01*
X-707315Y425621D01*
X-706814Y425529D01*
X-706236Y425463D01*
X-705582Y425423D01*
X-704850Y425410D01*
Y420410D01*
X-705582Y420397D01*
X-706814Y420291D01*
X-707315Y420199D01*
X-707738Y420080D01*
X-708085Y419935D01*
X-708354Y419763D01*
X-708547Y419565D01*
X-708662Y419340D01*
X-708701Y419090D01*
Y426730D01*
X-708662Y426480D01*
D02*
G37*
G36*
X-232730Y424164D02*
X-232573Y424152D01*
X-232030Y424140D01*
X-232723Y419140D01*
X-232730Y419140D01*
Y416911D01*
X-232778Y417334D01*
X-232920Y417713D01*
X-233158Y418048D01*
X-233492Y418337D01*
X-233920Y418583D01*
X-234444Y418783D01*
X-235062Y418939D01*
X-235776Y419051D01*
X-236586Y419118D01*
X-237490Y419140D01*
Y419371D01*
X-238500Y419420D01*
X-237490Y421231D01*
Y424140D01*
X-236586Y424162D01*
X-235821Y424226D01*
X-235176Y425381D01*
X-235090Y425145D01*
X-234952Y424934D01*
X-234764Y424748D01*
X-234526Y424587D01*
X-234384Y424520D01*
X-233920Y424697D01*
X-233492Y424943D01*
X-233158Y425233D01*
X-232920Y425567D01*
X-232778Y425946D01*
X-232730Y426370D01*
Y424164D01*
D02*
G37*
G36*
X-333060Y423194D02*
X-332819Y423120D01*
X-332425Y423030D01*
X-331996Y422960D01*
X-331530Y422910D01*
X-330490Y422870D01*
X-330490Y417870D01*
X-331028Y417860D01*
X-331996Y417780D01*
X-332425Y417710D01*
X-332819Y417620D01*
X-333060Y417546D01*
Y415370D01*
X-333110Y415845D01*
X-333261Y416270D01*
X-333513Y416645D01*
X-333865Y416970D01*
X-334025Y417067D01*
X-334035Y417060D01*
X-334249Y416870D01*
X-334855Y417463D01*
X-334871Y417470D01*
X-335525Y417645D01*
X-336279Y417770D01*
X-337135Y417845D01*
X-337819Y417863D01*
X-338499Y417845D01*
X-339350Y417770D01*
X-340099Y417645D01*
X-340750Y417470D01*
X-340799Y417450D01*
X-341391Y416870D01*
X-341604Y417059D01*
X-341749Y416970D01*
X-342099Y416645D01*
X-342350Y416270D01*
X-342500Y415845D01*
X-342550Y415370D01*
Y417537D01*
X-342821Y417620D01*
X-343215Y417710D01*
X-343644Y417780D01*
X-344612Y417860D01*
X-345150Y417870D01*
X-345150Y422870D01*
X-344110Y422910D01*
X-343644Y422960D01*
X-343215Y423030D01*
X-342821Y423120D01*
X-342550Y423203D01*
Y425370D01*
X-342500Y424895D01*
X-342350Y424470D01*
X-342099Y424095D01*
X-341749Y423770D01*
X-341604Y423681D01*
X-341391Y423870D01*
X-340799Y423290D01*
X-340750Y423270D01*
X-340099Y423095D01*
X-339350Y422970D01*
X-338499Y422895D01*
X-337819Y422877D01*
X-337135Y422895D01*
X-336279Y422970D01*
X-335525Y423095D01*
X-334871Y423270D01*
X-334855Y423277D01*
X-334249Y423870D01*
X-334035Y423680D01*
X-334025Y423673D01*
X-333865Y423770D01*
X-333513Y424095D01*
X-333261Y424470D01*
X-333110Y424895D01*
X-333060Y425370D01*
Y423194D01*
D02*
G37*
G36*
X-423065Y392704D02*
X-422990Y391848D01*
X-422865Y391094D01*
X-422690Y390440D01*
X-422465Y389887D01*
X-422190Y389434D01*
X-421865Y389082D01*
X-421490Y388830D01*
X-421065Y388679D01*
X-420590Y388629D01*
X-430590D01*
X-430115Y388679D01*
X-429690Y388830D01*
X-429315Y389082D01*
X-428990Y389434D01*
X-428715Y389887D01*
X-428490Y390440D01*
X-428315Y391094D01*
X-428190Y391848D01*
X-428115Y392704D01*
X-428090Y393660D01*
X-423090D01*
X-423065Y392704D01*
D02*
G37*
G36*
X-739533Y368651D02*
X-740113Y368053D01*
X-741008Y367018D01*
X-741323Y366579D01*
X-741549Y366193D01*
X-741688Y365860D01*
X-741738Y365581D01*
X-741700Y365354D01*
X-741574Y365180D01*
X-741360Y365059D01*
X-746573Y366969D01*
X-746304Y366902D01*
X-746015Y366891D01*
X-745707Y366935D01*
X-745378Y367034D01*
X-745029Y367189D01*
X-744659Y367399D01*
X-744270Y367665D01*
X-743860Y367986D01*
X-743430Y368363D01*
X-742980Y368796D01*
X-739533Y368651D01*
D02*
G37*
G36*
X-124459Y366681D02*
X-124362Y365265D01*
X-124336Y365210D01*
X-124307Y365192D01*
X-127153D01*
X-127124Y365210D01*
X-127098Y365265D01*
X-127075Y365357D01*
X-127055Y365486D01*
X-127024Y365854D01*
X-127001Y366681D01*
X-127000Y367030D01*
X-124460D01*
X-124459Y366681D01*
D02*
G37*
G36*
X-155741Y375658D02*
X-155710Y375427D01*
X-155657Y375198D01*
X-155581Y374969D01*
X-155483Y374742D01*
X-155362Y374516D01*
X-155220Y374291D01*
X-155055Y374067D01*
X-154867Y373845D01*
X-154657Y373623D01*
X-156453Y371827D01*
X-156675Y372037D01*
X-156897Y372225D01*
X-157121Y372390D01*
X-157346Y372532D01*
X-157572Y372653D01*
X-157800Y372751D01*
X-158028Y372827D01*
X-158257Y372880D01*
X-158488Y372911D01*
X-158720Y372920D01*
X-155750Y375890D01*
X-155741Y375658D01*
D02*
G37*
G36*
X-146277Y379132D02*
X-146092Y378991D01*
X-145892Y378867D01*
X-145677Y378759D01*
X-145447Y378667D01*
X-145202Y378593D01*
X-144942Y378535D01*
X-144667Y378493D01*
X-144377Y378468D01*
X-144072Y378460D01*
Y375920D01*
X-144377Y375912D01*
X-144667Y375887D01*
X-144942Y375845D01*
X-145202Y375787D01*
X-145447Y375713D01*
X-145677Y375621D01*
X-145892Y375513D01*
X-146092Y375389D01*
X-146277Y375248D01*
X-146448Y375090D01*
Y379290D01*
X-146277Y379132D01*
D02*
G37*
G36*
X-698515Y379050D02*
X-698440Y378200D01*
X-698315Y377450D01*
X-698140Y376800D01*
X-697915Y376250D01*
X-697640Y375801D01*
X-697315Y375451D01*
X-696940Y375201D01*
X-696515Y375051D01*
X-696040Y375000D01*
X-706040D01*
X-705565Y375051D01*
X-705140Y375201D01*
X-704765Y375451D01*
X-704440Y375801D01*
X-704165Y376250D01*
X-703940Y376800D01*
X-703765Y377450D01*
X-703640Y378200D01*
X-703565Y379050D01*
X-703540Y380000D01*
X-698540D01*
X-698515Y379050D01*
D02*
G37*
G36*
X-306058Y367129D02*
X-305975Y366158D01*
X-305240D01*
X-305398Y365987D01*
X-305539Y365802D01*
X-305663Y365602D01*
X-305771Y365387D01*
X-305816Y365275D01*
X-305758Y365069D01*
X-305621Y364738D01*
X-305459Y364480D01*
X-305273Y364296D01*
X-305061Y364186D01*
X-304824Y364149D01*
X-306056D01*
X-306062Y364087D01*
X-306070Y363782D01*
X-308610D01*
X-308618Y364087D01*
X-308624Y364149D01*
X-309856D01*
X-309619Y364186D01*
X-309407Y364296D01*
X-309221Y364480D01*
X-309058Y364738D01*
X-308922Y365069D01*
X-308864Y365275D01*
X-308909Y365387D01*
X-309017Y365602D01*
X-309141Y365802D01*
X-309282Y365987D01*
X-309440Y366158D01*
X-308699D01*
X-308660Y366504D01*
X-308622Y367129D01*
X-308610Y367828D01*
X-306070D01*
X-306058Y367129D01*
D02*
G37*
G36*
X-318758D02*
X-318675Y366158D01*
X-317940D01*
X-318098Y365987D01*
X-318239Y365802D01*
X-318363Y365602D01*
X-318471Y365387D01*
X-318516Y365275D01*
X-318458Y365069D01*
X-318321Y364738D01*
X-318160Y364480D01*
X-317973Y364296D01*
X-317761Y364186D01*
X-317524Y364149D01*
X-318756D01*
X-318762Y364087D01*
X-318770Y363782D01*
X-321310D01*
X-321318Y364087D01*
X-321324Y364149D01*
X-322556D01*
X-322319Y364186D01*
X-322107Y364296D01*
X-321921Y364480D01*
X-321758Y364738D01*
X-321622Y365069D01*
X-321564Y365275D01*
X-321609Y365387D01*
X-321717Y365602D01*
X-321841Y365802D01*
X-321982Y365987D01*
X-322140Y366158D01*
X-321399D01*
X-321360Y366504D01*
X-321322Y367129D01*
X-321310Y367828D01*
X-318770D01*
X-318758Y367129D01*
D02*
G37*
G36*
X-293358D02*
X-293275Y366158D01*
X-292540D01*
X-292698Y365987D01*
X-292839Y365802D01*
X-292963Y365602D01*
X-293071Y365387D01*
X-293116Y365275D01*
X-293058Y365069D01*
X-292922Y364738D01*
X-292759Y364480D01*
X-292573Y364296D01*
X-292361Y364186D01*
X-292124Y364149D01*
X-293356D01*
X-293362Y364087D01*
X-293370Y363782D01*
X-295910D01*
X-295918Y364087D01*
X-295924Y364149D01*
X-297156D01*
X-296919Y364186D01*
X-296707Y364296D01*
X-296521Y364480D01*
X-296359Y364738D01*
X-296222Y365069D01*
X-296164Y365275D01*
X-296209Y365387D01*
X-296317Y365602D01*
X-296441Y365802D01*
X-296582Y365987D01*
X-296740Y366158D01*
X-295999D01*
X-295960Y366504D01*
X-295922Y367129D01*
X-295910Y367828D01*
X-293370D01*
X-293358Y367129D01*
D02*
G37*
G36*
X-793590Y374580D02*
X-794440Y374281D01*
X-795190Y373781D01*
X-795840Y373080D01*
X-796390Y372180D01*
X-796840Y371081D01*
X-797190Y369781D01*
X-797440Y368280D01*
X-797590Y366581D01*
X-797640Y364680D01*
X-807640D01*
X-807690Y366581D01*
X-807840Y368280D01*
X-808090Y369781D01*
X-808440Y371081D01*
X-808890Y372180D01*
X-809440Y373080D01*
X-810090Y373781D01*
X-810840Y374281D01*
X-811690Y374580D01*
X-812640Y374680D01*
X-792640D01*
X-793590Y374580D01*
D02*
G37*
G36*
X-280658Y367129D02*
X-280575Y366158D01*
X-279840D01*
X-279998Y365987D01*
X-280139Y365802D01*
X-280263Y365602D01*
X-280371Y365387D01*
X-280416Y365275D01*
X-280359Y365069D01*
X-280222Y364738D01*
X-280060Y364480D01*
X-279873Y364296D01*
X-279661Y364186D01*
X-279424Y364149D01*
X-280656D01*
X-280662Y364087D01*
X-280670Y363782D01*
X-283210D01*
X-283218Y364087D01*
X-283224Y364149D01*
X-284456D01*
X-284219Y364186D01*
X-284007Y364296D01*
X-283820Y364480D01*
X-283659Y364738D01*
X-283521Y365069D01*
X-283464Y365275D01*
X-283509Y365387D01*
X-283617Y365602D01*
X-283741Y365802D01*
X-283882Y365987D01*
X-284040Y366158D01*
X-283299D01*
X-283260Y366504D01*
X-283222Y367129D01*
X-283210Y367828D01*
X-280670D01*
X-280658Y367129D01*
D02*
G37*
G36*
X-120185Y382343D02*
X-119963Y382155D01*
X-119739Y381990D01*
X-119514Y381848D01*
X-119288Y381727D01*
X-119060Y381629D01*
X-118832Y381553D01*
X-118603Y381500D01*
X-118372Y381469D01*
X-118140Y381460D01*
X-121110Y378490D01*
X-121119Y378722D01*
X-121150Y378953D01*
X-121203Y379182D01*
X-121279Y379411D01*
X-121377Y379638D01*
X-121498Y379864D01*
X-121640Y380089D01*
X-121805Y380312D01*
X-121993Y380535D01*
X-122203Y380757D01*
X-120407Y382553D01*
X-120185Y382343D01*
D02*
G37*
G36*
X-736861Y389324D02*
X-737073Y389214D01*
X-737260Y389030D01*
X-737421Y388772D01*
X-737559Y388441D01*
X-737671Y388036D01*
X-737758Y387558D01*
X-737820Y387006D01*
X-737858Y386381D01*
X-737870Y385682D01*
X-740410D01*
X-740422Y386381D01*
X-740522Y387558D01*
X-740609Y388036D01*
X-740722Y388441D01*
X-740859Y388772D01*
X-741021Y389030D01*
X-741207Y389214D01*
X-741419Y389324D01*
X-741656Y389361D01*
X-736624D01*
X-736861Y389324D01*
D02*
G37*
G36*
X-67430Y393660D02*
Y388660D01*
X-68380Y388621D01*
X-69230Y388506D01*
X-69980Y388313D01*
X-70630Y388044D01*
X-71180Y387697D01*
X-71630Y387274D01*
X-71980Y386773D01*
X-72230Y386196D01*
X-72380Y385541D01*
X-72430Y384810D01*
X-77430Y391160D01*
X-72430Y393700D01*
X-67430Y393660D01*
D02*
G37*
G36*
X-711461Y389324D02*
X-711673Y389214D01*
X-711860Y389030D01*
X-712021Y388772D01*
X-712159Y388441D01*
X-712271Y388036D01*
X-712358Y387558D01*
X-712420Y387006D01*
X-712458Y386381D01*
X-712470Y385682D01*
X-715010D01*
X-715022Y386381D01*
X-715122Y387558D01*
X-715209Y388036D01*
X-715322Y388441D01*
X-715459Y388772D01*
X-715620Y389030D01*
X-715807Y389214D01*
X-716019Y389324D01*
X-716256Y389361D01*
X-711224D01*
X-711461Y389324D01*
D02*
G37*
G36*
X-498979Y388520D02*
X-499031Y388554D01*
X-499188Y388585D01*
X-499448Y388612D01*
X-500855Y388671D01*
X-504190Y388700D01*
Y398700D01*
X-498979Y398881D01*
Y388520D01*
D02*
G37*
G36*
X-56354Y386960D02*
X-56702Y387283D01*
X-57078Y387572D01*
X-57483Y387827D01*
X-57917Y388048D01*
X-58380Y388235D01*
X-58871Y388388D01*
X-59391Y388507D01*
X-59940Y388592D01*
X-60517Y388643D01*
X-61123Y388660D01*
Y393660D01*
X-60517Y393677D01*
X-59940Y393728D01*
X-59391Y393813D01*
X-58871Y393932D01*
X-58380Y394085D01*
X-57917Y394272D01*
X-57483Y394493D01*
X-57078Y394748D01*
X-56702Y395037D01*
X-56354Y395360D01*
Y386960D01*
D02*
G37*
G36*
X-99865Y382343D02*
X-99642Y382155D01*
X-99419Y381990D01*
X-99194Y381848D01*
X-98968Y381727D01*
X-98741Y381629D01*
X-98512Y381553D01*
X-98283Y381500D01*
X-98052Y381469D01*
X-97820Y381460D01*
X-100790Y378490D01*
X-100799Y378722D01*
X-100830Y378953D01*
X-100883Y379182D01*
X-100959Y379411D01*
X-101057Y379638D01*
X-101178Y379864D01*
X-101320Y380089D01*
X-101486Y380312D01*
X-101673Y380535D01*
X-101883Y380757D01*
X-100087Y382553D01*
X-99865Y382343D01*
D02*
G37*
G36*
X-110025D02*
X-109803Y382155D01*
X-109579Y381990D01*
X-109354Y381848D01*
X-109128Y381727D01*
X-108900Y381629D01*
X-108672Y381553D01*
X-108443Y381500D01*
X-108212Y381469D01*
X-107980Y381460D01*
X-110950Y378490D01*
X-110959Y378722D01*
X-110990Y378953D01*
X-111043Y379182D01*
X-111119Y379411D01*
X-111217Y379638D01*
X-111338Y379864D01*
X-111480Y380089D01*
X-111645Y380312D01*
X-111833Y380535D01*
X-112043Y380757D01*
X-110247Y382553D01*
X-110025Y382343D01*
D02*
G37*
G36*
X25400Y803910D02*
X26670Y802640D01*
Y787400D01*
Y523240D01*
X2540Y499110D01*
Y452120D01*
Y383540D01*
X-8890Y372110D01*
X-31750Y349250D01*
Y331470D01*
Y303530D01*
X-25400Y297180D01*
X-21590Y293370D01*
X-8890D01*
X-6350Y290830D01*
X-5080Y289560D01*
Y284480D01*
Y278130D01*
X-6350Y276860D01*
X-7620Y275590D01*
X-25400D01*
X-34290Y284480D01*
X-62230Y312420D01*
Y346710D01*
Y361950D01*
X-68580Y368300D01*
X-73660Y373380D01*
X-83820D01*
X-84114Y373674D01*
X-86360Y375920D01*
X-88900Y378460D01*
X-110490Y400050D01*
X-196850D01*
X-198120Y401320D01*
X-201930Y397510D01*
X-212940D01*
X-213619Y397450D01*
X-214370Y397325D01*
X-215019Y397150D01*
X-215569Y396925D01*
X-216019Y396650D01*
X-216369Y396325D01*
X-216619Y395950D01*
X-216770Y395525D01*
X-216819Y395050D01*
Y397510D01*
X-231140D01*
X-232738Y399108D01*
X-232730Y395869D01*
X-232767Y396573D01*
X-232876Y397277D01*
X-233055Y397982D01*
X-233305Y398688D01*
X-233626Y399394D01*
X-234018Y400102D01*
X-234481Y400810D01*
X-234606Y400976D01*
X-242570Y408940D01*
X-247203Y413573D01*
X-247478Y413758D01*
X-247786Y413934D01*
X-247976Y414020D01*
X-281940D01*
X-283210Y415290D01*
X-285750Y417830D01*
Y419100D01*
Y433070D01*
X-261620Y457200D01*
X-260350Y458470D01*
X-250190D01*
X-248920Y457200D01*
Y455930D01*
Y432396D01*
X-248531Y424100D01*
X-248920D01*
Y423683D01*
X-248531Y423293D01*
Y424100D01*
X-248477Y423695D01*
X-248318Y423220D01*
X-248186Y422949D01*
X-246327Y421090D01*
X-246145Y420650D01*
X-245022Y419188D01*
X-243560Y418065D01*
X-243120Y417883D01*
X-232907Y407670D01*
X-200660D01*
X-199390Y408940D01*
X-192876Y415454D01*
Y417081D01*
Y417081D01*
X-192979Y417312D01*
X-192876Y417146D01*
Y421804D01*
X-186690Y427990D01*
X-184150Y430530D01*
X-177800D01*
X-176530Y429260D01*
Y425450D01*
X-179070Y422910D01*
Y416560D01*
Y408940D01*
X-177800Y407670D01*
X-175260Y405130D01*
X-154940D01*
X-153670Y406400D01*
X-100330D01*
X-88900Y394970D01*
X-83820Y389890D01*
X-81280Y387350D01*
Y381000D01*
X-80010Y379730D01*
X-75020D01*
X-74930Y379712D01*
X-74840Y379730D01*
X-71120D01*
X-68580Y382270D01*
X-36830D01*
X-31750Y387350D01*
X-22860Y396240D01*
Y471170D01*
Y482600D01*
X-26670Y486410D01*
X-30480Y490220D01*
X-50800D01*
X-52070Y491490D01*
X-53340Y492760D01*
Y499110D01*
Y508000D01*
X-49530Y511810D01*
X-27940D01*
X-3810Y535940D01*
X-2540Y537210D01*
Y607060D01*
Y787400D01*
X-7620Y792480D01*
X-22860D01*
X-24130Y793750D01*
X-25400Y795020D01*
Y801370D01*
Y808990D01*
X-22860Y811530D01*
X-21590Y812800D01*
X16510D01*
X25400Y803910D01*
D02*
G37*
G36*
X-723864Y389344D02*
X-723880Y389189D01*
X-723906Y388617D01*
X-723940Y384810D01*
X-728940D01*
X-729034Y389412D01*
X-723846D01*
X-723864Y389344D01*
D02*
G37*
G36*
X-698222Y389906D02*
X-698288Y389597D01*
X-698347Y389210D01*
X-698442Y388199D01*
X-698524Y386091D01*
X-698540Y384290D01*
X-703540D01*
X-703544Y385230D01*
X-703792Y389597D01*
X-703858Y389906D01*
X-703933Y390135D01*
X-698147D01*
X-698222Y389906D01*
D02*
G37*
G36*
X-152265Y508627D02*
X-152067Y506583D01*
X-151893Y505753D01*
X-151670Y505050D01*
X-151397Y504476D01*
X-151074Y504028D01*
X-150702Y503709D01*
X-150281Y503517D01*
X-149809Y503454D01*
X-159771D01*
X-159299Y503517D01*
X-158878Y503709D01*
X-158505Y504028D01*
X-158183Y504476D01*
X-157910Y505050D01*
X-157687Y505753D01*
X-157513Y506583D01*
X-157389Y507541D01*
X-157315Y508627D01*
X-157290Y509841D01*
X-152290D01*
X-152265Y508627D01*
D02*
G37*
G36*
X-364355D02*
X-364157Y506583D01*
X-363983Y505753D01*
X-363760Y505050D01*
X-363487Y504476D01*
X-363164Y504028D01*
X-362792Y503709D01*
X-362371Y503517D01*
X-361899Y503454D01*
X-371861D01*
X-371389Y503517D01*
X-370968Y503709D01*
X-370596Y504028D01*
X-370273Y504476D01*
X-370000Y505050D01*
X-369777Y505753D01*
X-369603Y506583D01*
X-369479Y507541D01*
X-369405Y508627D01*
X-369380Y509841D01*
X-364380D01*
X-364355Y508627D01*
D02*
G37*
G36*
X-573645Y507472D02*
X-573600Y506881D01*
X-573526Y506361D01*
X-573421Y505909D01*
X-573287Y505528D01*
X-573123Y505215D01*
X-572929Y504972D01*
X-572706Y504799D01*
X-572452Y504694D01*
X-572169Y504660D01*
X-578151D01*
X-577868Y504694D01*
X-577614Y504799D01*
X-577391Y504972D01*
X-577197Y505215D01*
X-577033Y505528D01*
X-576899Y505909D01*
X-576794Y506361D01*
X-576720Y506881D01*
X-576675Y507472D01*
X-576660Y508131D01*
X-573660D01*
X-573645Y507472D01*
D02*
G37*
G36*
X-754227Y506539D02*
X-754149Y505533D01*
X-754114Y505371D01*
X-754072Y505246D01*
X-754024Y505156D01*
X-753969Y505102D01*
X-753908Y505084D01*
X-757092D01*
X-757031Y505102D01*
X-756976Y505156D01*
X-756928Y505246D01*
X-756886Y505371D01*
X-756851Y505533D01*
X-756822Y505731D01*
X-756783Y506233D01*
X-756770Y506880D01*
X-754230D01*
X-754227Y506539D01*
D02*
G37*
G36*
X-128107Y507144D02*
X-128069Y506652D01*
X-128006Y506218D01*
X-127918Y505841D01*
X-127805Y505523D01*
X-127666Y505262D01*
X-127502Y505060D01*
X-127313Y504915D01*
X-127099Y504828D01*
X-126859Y504799D01*
X-131921D01*
X-131681Y504828D01*
X-131467Y504915D01*
X-131278Y505060D01*
X-131114Y505262D01*
X-130975Y505523D01*
X-130862Y505841D01*
X-130773Y506218D01*
X-130710Y506652D01*
X-130673Y507144D01*
X-130660Y507694D01*
X-128120D01*
X-128107Y507144D01*
D02*
G37*
G36*
X-865340Y505467D02*
X-865159Y505293D01*
X-864856Y505140D01*
X-864433Y505007D01*
X-863888Y504895D01*
X-863223Y504803D01*
X-861528Y504681D01*
X-859350Y504640D01*
Y494640D01*
X-860500Y494630D01*
X-863888Y494385D01*
X-864433Y494273D01*
X-864856Y494140D01*
X-865159Y493987D01*
X-865340Y493813D01*
X-865401Y493619D01*
Y505661D01*
X-865340Y505467D01*
D02*
G37*
G36*
X-221852Y490660D02*
X-222023Y490818D01*
X-222208Y490959D01*
X-222408Y491083D01*
X-222623Y491191D01*
X-222853Y491283D01*
X-223098Y491357D01*
X-223358Y491415D01*
X-223633Y491457D01*
X-223923Y491482D01*
X-224228Y491490D01*
Y494030D01*
X-223923Y494038D01*
X-223633Y494063D01*
X-223358Y494105D01*
X-223098Y494163D01*
X-222853Y494238D01*
X-222623Y494329D01*
X-222408Y494437D01*
X-222208Y494561D01*
X-222023Y494702D01*
X-221852Y494860D01*
Y490660D01*
D02*
G37*
G36*
X-902172Y517411D02*
X-902889Y517110D01*
X-903522Y516610D01*
X-904071Y515910D01*
X-904535Y515010D01*
X-904915Y513910D01*
X-905210Y512611D01*
X-905421Y511110D01*
X-905548Y509411D01*
X-905588Y507596D01*
X-905573Y505910D01*
X-905165Y500309D01*
X-904978Y499409D01*
X-904757Y498709D01*
X-904502Y498209D01*
X-904213Y497910D01*
X-903889Y497809D01*
X-919830D01*
X-919025Y497910D01*
X-918304Y498209D01*
X-917668Y498709D01*
X-917117Y499409D01*
X-916650Y500309D01*
X-916268Y501409D01*
X-915972Y502710D01*
X-915760Y504210D01*
X-915632Y505910D01*
X-915593Y507660D01*
X-915632Y509411D01*
X-915970Y512611D01*
X-916265Y513910D01*
X-916645Y515010D01*
X-917109Y515910D01*
X-917658Y516610D01*
X-918290Y517110D01*
X-919008Y517411D01*
X-919809Y517510D01*
X-901370D01*
X-902172Y517411D01*
D02*
G37*
G36*
X-778335Y508670D02*
X-778133Y506583D01*
X-777957Y505735D01*
X-777730Y505018D01*
X-777452Y504431D01*
X-777125Y503975D01*
X-776747Y503649D01*
X-776318Y503453D01*
X-775839Y503388D01*
X-785961D01*
X-785482Y503453D01*
X-785053Y503649D01*
X-784675Y503975D01*
X-784347Y504431D01*
X-784070Y505018D01*
X-783843Y505735D01*
X-783667Y506583D01*
X-783541Y507561D01*
X-783465Y508670D01*
X-783440Y509908D01*
X-778360D01*
X-778335Y508670D01*
D02*
G37*
G36*
X-645756Y507870D02*
X-644818Y507073D01*
X-644404Y506783D01*
X-644027Y506564D01*
X-643686Y506418D01*
X-643382Y506343D01*
X-643114Y506340D01*
X-642882Y506408D01*
X-642687Y506549D01*
X-646249Y502987D01*
X-646108Y503182D01*
X-646040Y503414D01*
X-646043Y503681D01*
X-646117Y503986D01*
X-646264Y504327D01*
X-646483Y504704D01*
X-646773Y505118D01*
X-647135Y505569D01*
X-648076Y506580D01*
X-646280Y508376D01*
X-645756Y507870D01*
D02*
G37*
G36*
X-228635Y517919D02*
X-228558Y517703D01*
X-228430Y517512D01*
X-228250Y517347D01*
X-228018Y517207D01*
X-227736Y517093D01*
X-227401Y517004D01*
X-227016Y516941D01*
X-226579Y516903D01*
X-226091Y516890D01*
Y514350D01*
X-226579Y514337D01*
X-227016Y514299D01*
X-227401Y514236D01*
X-227736Y514147D01*
X-228018Y514033D01*
X-228250Y513893D01*
X-228430Y513728D01*
X-228558Y513537D01*
X-228635Y513321D01*
X-228661Y513080D01*
Y518160D01*
X-228635Y517919D01*
D02*
G37*
G36*
X-229881Y540465D02*
X-229730Y540040D01*
X-229478Y539665D01*
X-229126Y539340D01*
X-228673Y539065D01*
X-228120Y538840D01*
X-227466Y538665D01*
X-226712Y538540D01*
X-225856Y538465D01*
X-224900Y538440D01*
Y533440D01*
X-225856Y533415D01*
X-226712Y533340D01*
X-227466Y533215D01*
X-228120Y533040D01*
X-228673Y532815D01*
X-229126Y532540D01*
X-229478Y532215D01*
X-229730Y531840D01*
X-229881Y531415D01*
X-229931Y530940D01*
Y540940D01*
X-229881Y540465D01*
D02*
G37*
G36*
X-410221D02*
X-410070Y540040D01*
X-409818Y539665D01*
X-409466Y539340D01*
X-409013Y539065D01*
X-408460Y538840D01*
X-407806Y538665D01*
X-407052Y538540D01*
X-406196Y538465D01*
X-405241Y538440D01*
Y533440D01*
X-406196Y533415D01*
X-407052Y533340D01*
X-407806Y533215D01*
X-408460Y533040D01*
X-409013Y532815D01*
X-409466Y532540D01*
X-409818Y532215D01*
X-410070Y531840D01*
X-410221Y531415D01*
X-410271Y530940D01*
Y540940D01*
X-410221Y540465D01*
D02*
G37*
G36*
X-671861Y538401D02*
X-671770Y538146D01*
X-671618Y537921D01*
X-671406Y537726D01*
X-671133Y537561D01*
X-670800Y537426D01*
X-670406Y537321D01*
X-669951Y537246D01*
X-669436Y537201D01*
X-668860Y537186D01*
Y534186D01*
X-669436Y534171D01*
X-669951Y534126D01*
X-670406Y534051D01*
X-670800Y533946D01*
X-671133Y533811D01*
X-671406Y533646D01*
X-671618Y533451D01*
X-671770Y533226D01*
X-671861Y532971D01*
X-671891Y532686D01*
Y538686D01*
X-671861Y538401D01*
D02*
G37*
G36*
X-618521D02*
X-618430Y538146D01*
X-618278Y537921D01*
X-618066Y537726D01*
X-617793Y537561D01*
X-617460Y537426D01*
X-617066Y537321D01*
X-616612Y537246D01*
X-616096Y537201D01*
X-615521Y537186D01*
Y534186D01*
X-616096Y534171D01*
X-616612Y534126D01*
X-617066Y534051D01*
X-617460Y533946D01*
X-617793Y533811D01*
X-618066Y533646D01*
X-618278Y533451D01*
X-618430Y533226D01*
X-618521Y532971D01*
X-618551Y532686D01*
Y538686D01*
X-618521Y538401D01*
D02*
G37*
G36*
X-653989Y532686D02*
X-654019Y532971D01*
X-654110Y533226D01*
X-654262Y533451D01*
X-654474Y533646D01*
X-654747Y533811D01*
X-655080Y533946D01*
X-655474Y534051D01*
X-655928Y534126D01*
X-656444Y534171D01*
X-657020Y534186D01*
Y537186D01*
X-656444Y537201D01*
X-655928Y537246D01*
X-655474Y537321D01*
X-655080Y537426D01*
X-654747Y537561D01*
X-654474Y537726D01*
X-654262Y537921D01*
X-654110Y538146D01*
X-654019Y538401D01*
X-653989Y538686D01*
Y532686D01*
D02*
G37*
G36*
X-301899Y516399D02*
X-302123Y516167D01*
X-302500Y515722D01*
X-302653Y515510D01*
X-302782Y515305D01*
X-302887Y515106D01*
X-302968Y514915D01*
X-303026Y514730D01*
X-303060Y514551D01*
X-303070Y514380D01*
X-306040Y517350D01*
X-305869Y517360D01*
X-305690Y517394D01*
X-305505Y517452D01*
X-305314Y517533D01*
X-305115Y517638D01*
X-304910Y517767D01*
X-304698Y517920D01*
X-304479Y518096D01*
X-304021Y518521D01*
X-301899Y516399D01*
D02*
G37*
G36*
X-221852Y513520D02*
X-222023Y513678D01*
X-222208Y513819D01*
X-222408Y513943D01*
X-222623Y514051D01*
X-222853Y514142D01*
X-223098Y514217D01*
X-223358Y514275D01*
X-223633Y514317D01*
X-223923Y514342D01*
X-224228Y514350D01*
Y516890D01*
X-223923Y516898D01*
X-223633Y516923D01*
X-223358Y516965D01*
X-223098Y517023D01*
X-222853Y517098D01*
X-222623Y517189D01*
X-222408Y517297D01*
X-222208Y517421D01*
X-222023Y517562D01*
X-221852Y517720D01*
Y513520D01*
D02*
G37*
G36*
X-436433Y517134D02*
X-436356Y516942D01*
X-436266Y516771D01*
X-436164Y516621D01*
X-436050Y516492D01*
X-436400D01*
X-436381Y516117D01*
X-439919D01*
X-439868Y516217D01*
X-439822Y516412D01*
X-439811Y516492D01*
X-440250D01*
X-440136Y516621D01*
X-440034Y516771D01*
X-439944Y516942D01*
X-439866Y517136D01*
X-439800Y517350D01*
X-439746Y517587D01*
X-439713Y517789D01*
X-439650Y521350D01*
X-436650D01*
X-436433Y517134D01*
D02*
G37*
G36*
X-707329Y530860D02*
X-707380Y531343D01*
X-707533Y531774D01*
X-707789Y532155D01*
X-708147Y532486D01*
X-708607Y532765D01*
X-709169Y532994D01*
X-709833Y533171D01*
X-710600Y533298D01*
X-711469Y533375D01*
X-712439Y533400D01*
Y538480D01*
X-711469Y538505D01*
X-710600Y538582D01*
X-709833Y538709D01*
X-709169Y538886D01*
X-708607Y539115D01*
X-708147Y539394D01*
X-707789Y539725D01*
X-707533Y540106D01*
X-707380Y540537D01*
X-707329Y541020D01*
Y530860D01*
D02*
G37*
G36*
X-435435Y528955D02*
X-435690Y528866D01*
X-435915Y528716D01*
X-436110Y528506D01*
X-436275Y528236D01*
X-436410Y527906D01*
X-436515Y527515D01*
X-436590Y527066D01*
X-436635Y526555D01*
X-436650Y525985D01*
X-439650D01*
X-439665Y526555D01*
X-439710Y527066D01*
X-439785Y527515D01*
X-439890Y527906D01*
X-440025Y528236D01*
X-440190Y528506D01*
X-440385Y528716D01*
X-440610Y528866D01*
X-440865Y528955D01*
X-441150Y528985D01*
X-435150D01*
X-435435Y528955D01*
D02*
G37*
G36*
X-228635Y495059D02*
X-228558Y494843D01*
X-228430Y494652D01*
X-228250Y494487D01*
X-228018Y494347D01*
X-227736Y494233D01*
X-227401Y494144D01*
X-227016Y494081D01*
X-226579Y494043D01*
X-226091Y494030D01*
Y491490D01*
X-226579Y491477D01*
X-227016Y491439D01*
X-227401Y491376D01*
X-227736Y491287D01*
X-228018Y491172D01*
X-228250Y491033D01*
X-228430Y490868D01*
X-228558Y490677D01*
X-228635Y490461D01*
X-228661Y490220D01*
Y495300D01*
X-228635Y495059D01*
D02*
G37*
G36*
X-711146Y456408D02*
X-716334D01*
X-716316Y456476D01*
X-716300Y456631D01*
X-716274Y457203D01*
X-716240Y461010D01*
X-711240D01*
X-711146Y456408D01*
D02*
G37*
G36*
X-723846D02*
X-729034D01*
X-729016Y456476D01*
X-729000Y456631D01*
X-728974Y457203D01*
X-728940Y461010D01*
X-723940D01*
X-723846Y456408D01*
D02*
G37*
G36*
X-737858Y459439D02*
X-737809Y458868D01*
X-737040D01*
X-737198Y458697D01*
X-737339Y458512D01*
X-737463Y458312D01*
X-737571Y458097D01*
X-737663Y457867D01*
X-737677Y457819D01*
X-737671Y457784D01*
X-737559Y457379D01*
X-737421Y457048D01*
X-737260Y456790D01*
X-737073Y456606D01*
X-736861Y456496D01*
X-736624Y456459D01*
X-741656D01*
X-741419Y456496D01*
X-741207Y456606D01*
X-741021Y456790D01*
X-740859Y457048D01*
X-740722Y457379D01*
X-740609Y457784D01*
X-740603Y457819D01*
X-740618Y457867D01*
X-740709Y458097D01*
X-740817Y458312D01*
X-740941Y458512D01*
X-741082Y458697D01*
X-741240Y458868D01*
X-740457D01*
X-740422Y459439D01*
X-740410Y460138D01*
X-737870D01*
X-737858Y459439D01*
D02*
G37*
G36*
X-204072Y461450D02*
X-204243Y461608D01*
X-204428Y461749D01*
X-204628Y461873D01*
X-204843Y461981D01*
X-205073Y462072D01*
X-205318Y462147D01*
X-205578Y462205D01*
X-205853Y462247D01*
X-206143Y462272D01*
X-206448Y462280D01*
Y464820D01*
X-206143Y464828D01*
X-205853Y464853D01*
X-205578Y464895D01*
X-205318Y464953D01*
X-205073Y465028D01*
X-204843Y465119D01*
X-204628Y465227D01*
X-204428Y465351D01*
X-204243Y465492D01*
X-204072Y465650D01*
Y461450D01*
D02*
G37*
G36*
X-198921Y463288D02*
X-198890Y463057D01*
X-198837Y462828D01*
X-198761Y462599D01*
X-198663Y462372D01*
X-198542Y462146D01*
X-198400Y461921D01*
X-198235Y461698D01*
X-198047Y461475D01*
X-197837Y461253D01*
X-199633Y459457D01*
X-199855Y459667D01*
X-200077Y459855D01*
X-200301Y460020D01*
X-200526Y460162D01*
X-200752Y460283D01*
X-200979Y460381D01*
X-201208Y460457D01*
X-201437Y460510D01*
X-201668Y460541D01*
X-201900Y460550D01*
X-198930Y463520D01*
X-198921Y463288D01*
D02*
G37*
G36*
X-235035Y444259D02*
X-234958Y444043D01*
X-234829Y443852D01*
X-234649Y443687D01*
X-234418Y443548D01*
X-234135Y443433D01*
X-233801Y443344D01*
X-233415Y443281D01*
X-232978Y443243D01*
X-232490Y443230D01*
Y440690D01*
X-232978Y440677D01*
X-233415Y440639D01*
X-233801Y440576D01*
X-234135Y440487D01*
X-234418Y440373D01*
X-234649Y440233D01*
X-234829Y440068D01*
X-234958Y439877D01*
X-235035Y439661D01*
X-235061Y439420D01*
Y444500D01*
X-235035Y444259D01*
D02*
G37*
G36*
X-200720Y446485D02*
X-200569Y446060D01*
X-200318Y445685D01*
X-199966Y445360D01*
X-199513Y445085D01*
X-198960Y444860D01*
X-198306Y444685D01*
X-197551Y444560D01*
X-196696Y444485D01*
X-195740Y444460D01*
Y439460D01*
X-196696Y439435D01*
X-197551Y439360D01*
X-198306Y439235D01*
X-198960Y439060D01*
X-199513Y438835D01*
X-199966Y438560D01*
X-200318Y438235D01*
X-200569Y437860D01*
X-200720Y437435D01*
X-200770Y436960D01*
Y446960D01*
X-200720Y446485D01*
D02*
G37*
G36*
X-224649Y439420D02*
X-224675Y439661D01*
X-224752Y439877D01*
X-224880Y440068D01*
X-225060Y440233D01*
X-225292Y440373D01*
X-225574Y440487D01*
X-225909Y440576D01*
X-226294Y440639D01*
X-226731Y440677D01*
X-227220Y440690D01*
Y443230D01*
X-226731Y443243D01*
X-226294Y443281D01*
X-225909Y443344D01*
X-225574Y443433D01*
X-225292Y443548D01*
X-225060Y443687D01*
X-224880Y443852D01*
X-224752Y444043D01*
X-224675Y444259D01*
X-224649Y444500D01*
Y439420D01*
D02*
G37*
G36*
X-292844Y458470D02*
X-293185Y458103D01*
X-293491Y457722D01*
X-293760Y457325D01*
X-293993Y456914D01*
X-294191Y456488D01*
X-294353Y456047D01*
X-294478Y455591D01*
X-294568Y455120D01*
X-294622Y454635D01*
X-294640Y454134D01*
X-297180Y453390D01*
X-297205Y453873D01*
X-297282Y454304D01*
X-297409Y454685D01*
X-297586Y455016D01*
X-297815Y455295D01*
X-298094Y455524D01*
X-298425Y455701D01*
X-298806Y455828D01*
X-299237Y455905D01*
X-299720Y455930D01*
X-298976Y458470D01*
X-298475Y458488D01*
X-297990Y458542D01*
X-297519Y458632D01*
X-297063Y458757D01*
X-296622Y458919D01*
X-296196Y459117D01*
X-295785Y459350D01*
X-295388Y459619D01*
X-295007Y459925D01*
X-294640Y460266D01*
X-292844Y458470D01*
D02*
G37*
G36*
X-218427Y449481D02*
X-218389Y449044D01*
X-218326Y448659D01*
X-218237Y448324D01*
X-218123Y448042D01*
X-217983Y447810D01*
X-217818Y447630D01*
X-217627Y447502D01*
X-217411Y447425D01*
X-217170Y447399D01*
X-222250D01*
X-222009Y447425D01*
X-221793Y447502D01*
X-221602Y447630D01*
X-221437Y447810D01*
X-221297Y448042D01*
X-221183Y448324D01*
X-221094Y448659D01*
X-221031Y449044D01*
X-220993Y449481D01*
X-220980Y449969D01*
X-218440D01*
X-218427Y449481D01*
D02*
G37*
G36*
X-28341Y465759D02*
X-28536Y465692D01*
X-28733Y465609D01*
X-28934Y465510D01*
X-29137Y465394D01*
X-29552Y465114D01*
X-29764Y464949D01*
X-30196Y464571D01*
X-30416Y464358D01*
X-32851Y465515D01*
X-32639Y465741D01*
X-32457Y465965D01*
X-32305Y466187D01*
X-32182Y466408D01*
X-32088Y466628D01*
X-32025Y466846D01*
X-31990Y467062D01*
X-31985Y467277D01*
X-32009Y467491D01*
X-32063Y467703D01*
X-28341Y465759D01*
D02*
G37*
G36*
X-485381Y483995D02*
X-485597Y483919D01*
X-485788Y483792D01*
X-485953Y483614D01*
X-486092Y483386D01*
X-486207Y483106D01*
X-486296Y482776D01*
X-486359Y482395D01*
X-486397Y481963D01*
X-486410Y481480D01*
X-488950D01*
X-488963Y481963D01*
X-489001Y482395D01*
X-489064Y482776D01*
X-489153Y483106D01*
X-489268Y483386D01*
X-489407Y483614D01*
X-489572Y483792D01*
X-489763Y483919D01*
X-489979Y483995D01*
X-490220Y484021D01*
X-485140D01*
X-485381Y483995D01*
D02*
G37*
G36*
X-251741Y485735D02*
X-251966Y485525D01*
X-252163Y485174D01*
X-252335Y484683D01*
X-252480Y484052D01*
X-252599Y483280D01*
X-252757Y481316D01*
X-252810Y478790D01*
X-262810D01*
X-262823Y480123D01*
X-263021Y483280D01*
X-263140Y484052D01*
X-263285Y484683D01*
X-263457Y485174D01*
X-263654Y485525D01*
X-263879Y485735D01*
X-264130Y485806D01*
X-251490D01*
X-251741Y485735D01*
D02*
G37*
G36*
X-282181Y485265D02*
X-282397Y485189D01*
X-282588Y485062D01*
X-282753Y484884D01*
X-282892Y484655D01*
X-283007Y484376D01*
X-283096Y484046D01*
X-283159Y483665D01*
X-283197Y483233D01*
X-283210Y482751D01*
X-285750D01*
X-285763Y483233D01*
X-285801Y483665D01*
X-285864Y484046D01*
X-285953Y484376D01*
X-286068Y484655D01*
X-286207Y484884D01*
X-286372Y485062D01*
X-286563Y485189D01*
X-286779Y485265D01*
X-287020Y485290D01*
X-281940D01*
X-282181Y485265D01*
D02*
G37*
G36*
X-631484Y495035D02*
X-631556Y494802D01*
Y494532D01*
X-631484Y494227D01*
X-631340Y493886D01*
X-631125Y493508D01*
X-630838Y493095D01*
X-630478Y492646D01*
X-629544Y491641D01*
X-631340Y489844D01*
X-631861Y490347D01*
X-632795Y491138D01*
X-633208Y491425D01*
X-633586Y491641D01*
X-633927Y491784D01*
X-634232Y491856D01*
X-634502D01*
X-634735Y491784D01*
X-634933Y491641D01*
X-631340Y495233D01*
X-631484Y495035D01*
D02*
G37*
G36*
X-903790Y497559D02*
X-903490Y497335D01*
X-902990Y497137D01*
X-902290Y496965D01*
X-901389Y496820D01*
X-898989Y496609D01*
X-895789Y496503D01*
X-893889Y496490D01*
Y486490D01*
X-895789Y486477D01*
X-902290Y486015D01*
X-902990Y485843D01*
X-903490Y485645D01*
X-903790Y485421D01*
X-903889Y485171D01*
Y497809D01*
X-903790Y497559D01*
D02*
G37*
G36*
X-27932Y472843D02*
X-27907Y472553D01*
X-27865Y472278D01*
X-27807Y472018D01*
X-27733Y471773D01*
X-27641Y471543D01*
X-27533Y471328D01*
X-27409Y471128D01*
X-27268Y470943D01*
X-27110Y470772D01*
X-31310D01*
X-31152Y470943D01*
X-31011Y471128D01*
X-30887Y471328D01*
X-30779Y471543D01*
X-30687Y471773D01*
X-30613Y472018D01*
X-30555Y472278D01*
X-30513Y472553D01*
X-30488Y472843D01*
X-30480Y473148D01*
X-27940D01*
X-27932Y472843D01*
D02*
G37*
G36*
X-486385Y471957D02*
X-486308Y471526D01*
X-486181Y471145D01*
X-486004Y470814D01*
X-485775Y470535D01*
X-485496Y470306D01*
X-485165Y470129D01*
X-484784Y470002D01*
X-484353Y469925D01*
X-483870Y469900D01*
X-487680Y467360D01*
X-491490Y469900D01*
X-491007Y469925D01*
X-490576Y470002D01*
X-490195Y470129D01*
X-489864Y470306D01*
X-489585Y470535D01*
X-489356Y470814D01*
X-489179Y471145D01*
X-489052Y471526D01*
X-488975Y471957D01*
X-488950Y472440D01*
X-486410D01*
X-486385Y471957D01*
D02*
G37*
G36*
X-339188Y475713D02*
X-339403Y475627D01*
X-339592Y475482D01*
X-339756Y475279D01*
X-339895Y475019D01*
X-340008Y474700D01*
X-340097Y474324D01*
X-340159Y473890D01*
X-340197Y473398D01*
X-340210Y472848D01*
X-342750D01*
X-342763Y473398D01*
X-342800Y473890D01*
X-342864Y474324D01*
X-342952Y474700D01*
X-343065Y475019D01*
X-343204Y475279D01*
X-343368Y475482D01*
X-343557Y475627D01*
X-343772Y475713D01*
X-344011Y475742D01*
X-338949D01*
X-339188Y475713D01*
D02*
G37*
G36*
X-548147Y475469D02*
X-548219Y475411D01*
X-548282Y475315D01*
X-548337Y475180D01*
X-548384Y475006D01*
X-548422Y474794D01*
X-548452Y474543D01*
X-548486Y473926D01*
X-548490Y473560D01*
X-551030D01*
X-551034Y473926D01*
X-551098Y474794D01*
X-551136Y475006D01*
X-551183Y475180D01*
X-551238Y475315D01*
X-551301Y475411D01*
X-551373Y475469D01*
X-551454Y475488D01*
X-548066D01*
X-548147Y475469D01*
D02*
G37*
G36*
X-127099Y475713D02*
X-127313Y475627D01*
X-127502Y475482D01*
X-127666Y475279D01*
X-127805Y475019D01*
X-127918Y474700D01*
X-128006Y474324D01*
X-128069Y473890D01*
X-128107Y473398D01*
X-128120Y472848D01*
X-130660D01*
X-130673Y473398D01*
X-130710Y473890D01*
X-130773Y474324D01*
X-130862Y474700D01*
X-130975Y475019D01*
X-131114Y475279D01*
X-131278Y475482D01*
X-131467Y475627D01*
X-131681Y475713D01*
X-131921Y475742D01*
X-126859D01*
X-127099Y475713D01*
D02*
G37*
G36*
X-317761Y250494D02*
X-317973Y250384D01*
X-318160Y250200D01*
X-318321Y249942D01*
X-318458Y249611D01*
X-318571Y249206D01*
X-318658Y248728D01*
X-318720Y248176D01*
X-318758Y247551D01*
X-318770Y246852D01*
X-321310D01*
X-321322Y247551D01*
X-321422Y248728D01*
X-321509Y249206D01*
X-321622Y249611D01*
X-321758Y249942D01*
X-321921Y250200D01*
X-322107Y250384D01*
X-322319Y250494D01*
X-322556Y250531D01*
X-317524D01*
X-317761Y250494D01*
D02*
G37*
G36*
X-330461D02*
X-330673Y250384D01*
X-330859Y250200D01*
X-331021Y249942D01*
X-331158Y249611D01*
X-331271Y249206D01*
X-331358Y248728D01*
X-331420Y248176D01*
X-331458Y247551D01*
X-331470Y246852D01*
X-334010D01*
X-334022Y247551D01*
X-334122Y248728D01*
X-334209Y249206D01*
X-334322Y249611D01*
X-334459Y249942D01*
X-334621Y250200D01*
X-334807Y250384D01*
X-335019Y250494D01*
X-335256Y250531D01*
X-330224D01*
X-330461Y250494D01*
D02*
G37*
G36*
X-305061D02*
X-305273Y250384D01*
X-305459Y250200D01*
X-305621Y249942D01*
X-305758Y249611D01*
X-305871Y249206D01*
X-305958Y248728D01*
X-306020Y248176D01*
X-306058Y247551D01*
X-306070Y246852D01*
X-308610D01*
X-308622Y247551D01*
X-308722Y248728D01*
X-308809Y249206D01*
X-308922Y249611D01*
X-309058Y249942D01*
X-309221Y250200D01*
X-309407Y250384D01*
X-309619Y250494D01*
X-309856Y250531D01*
X-304824D01*
X-305061Y250494D01*
D02*
G37*
G36*
X-279661D02*
X-279873Y250384D01*
X-280060Y250200D01*
X-280222Y249942D01*
X-280359Y249611D01*
X-280471Y249206D01*
X-280558Y248728D01*
X-280620Y248176D01*
X-280658Y247551D01*
X-280670Y246852D01*
X-283210D01*
X-283222Y247551D01*
X-283322Y248728D01*
X-283409Y249206D01*
X-283521Y249611D01*
X-283659Y249942D01*
X-283820Y250200D01*
X-284007Y250384D01*
X-284219Y250494D01*
X-284456Y250531D01*
X-279424D01*
X-279661Y250494D01*
D02*
G37*
G36*
X-292361D02*
X-292573Y250384D01*
X-292759Y250200D01*
X-292922Y249942D01*
X-293058Y249611D01*
X-293171Y249206D01*
X-293258Y248728D01*
X-293320Y248176D01*
X-293358Y247551D01*
X-293370Y246852D01*
X-295910D01*
X-295922Y247551D01*
X-296022Y248728D01*
X-296109Y249206D01*
X-296222Y249611D01*
X-296359Y249942D01*
X-296521Y250200D01*
X-296707Y250384D01*
X-296919Y250494D01*
X-297156Y250531D01*
X-292124D01*
X-292361Y250494D01*
D02*
G37*
G36*
X13746Y212112D02*
X13518Y211996D01*
X13317Y211803D01*
X13143Y211532D01*
X12995Y211183D01*
X12874Y210757D01*
X12781Y210254D01*
X12714Y209674D01*
X12673Y209016D01*
X12660Y208280D01*
X7660D01*
X7647Y209016D01*
X7539Y210254D01*
X7445Y210757D01*
X7325Y211183D01*
X7177Y211532D01*
X7003Y211803D01*
X6802Y211996D01*
X6574Y212112D01*
X6320Y212151D01*
X14001D01*
X13746Y212112D01*
D02*
G37*
G36*
X-570230Y252730D02*
X-568960Y251460D01*
Y203200D01*
Y182880D01*
X-577850Y173990D01*
X-579120Y172720D01*
X-610870D01*
X-613410Y175260D01*
Y186690D01*
Y199390D01*
X-610870Y201930D01*
X-608800Y204000D01*
X-601966D01*
X-601671Y204118D01*
X-601035Y204447D01*
X-600351Y204871D01*
X-599620Y205389D01*
X-598019Y206707D01*
X-597147Y207507D01*
X-596229Y208402D01*
Y207681D01*
X-593090Y210820D01*
Y232410D01*
Y233680D01*
X-603250Y243840D01*
X-608330Y248920D01*
X-730250D01*
X-746760Y232410D01*
X-805180Y173990D01*
Y157480D01*
Y29210D01*
X-819150Y15240D01*
X-821690Y12700D01*
X-881380D01*
X-885190Y16510D01*
X-886460Y17780D01*
Y29210D01*
Y45720D01*
X-881380Y50800D01*
X-880110Y52070D01*
X-862330D01*
X-855980Y58420D01*
X-853440Y60960D01*
Y80010D01*
Y93980D01*
X-861060Y101600D01*
X-881380Y121920D01*
X-913130D01*
X-915670Y124460D01*
X-927100Y135890D01*
Y138430D01*
Y140970D01*
X-923290Y144780D01*
X-913130Y154940D01*
X-853440D01*
X-822960Y185420D01*
X-740410Y267970D01*
X-585470D01*
X-570230Y252730D01*
D02*
G37*
G36*
X-558800Y309880D02*
X-553720Y304800D01*
X-552450Y303530D01*
Y294640D01*
X-541020Y283210D01*
X-539750Y281940D01*
Y243840D01*
Y226060D01*
X-542290Y223520D01*
X-549910D01*
X-552450Y226060D01*
Y270510D01*
X-566420Y284480D01*
X-568960Y287020D01*
Y300990D01*
Y308610D01*
X-565150Y312420D01*
X-558800D01*
Y309880D01*
D02*
G37*
G36*
X3205Y236300D02*
X3155Y236775D01*
X3006Y237200D01*
X2756Y237575D01*
X2405Y237900D01*
X1955Y238175D01*
X1406Y238400D01*
X755Y238575D01*
X5Y238700D01*
X-844Y238775D01*
X-1795Y238800D01*
Y243800D01*
X-844Y243825D01*
X5Y243900D01*
X755Y244025D01*
X1406Y244200D01*
X1955Y244425D01*
X2405Y244700D01*
X2756Y245025D01*
X3006Y245400D01*
X3155Y245825D01*
X3205Y246300D01*
Y236300D01*
D02*
G37*
G36*
X-40640Y284480D02*
X-38100Y281940D01*
Y271780D01*
Y224790D01*
X-39370Y223520D01*
X-54610D01*
X-55880Y224790D01*
Y238760D01*
X-53340Y241300D01*
X-48260Y246380D01*
Y262890D01*
Y266700D01*
X-54610Y273050D01*
X-59690Y278130D01*
Y284480D01*
X-57150Y287020D01*
X-43180D01*
X-40640Y284480D01*
D02*
G37*
G36*
X-266961Y250494D02*
X-267173Y250384D01*
X-267360Y250200D01*
X-267521Y249942D01*
X-267659Y249611D01*
X-267771Y249206D01*
X-267858Y248728D01*
X-267920Y248176D01*
X-267958Y247551D01*
X-267970Y246852D01*
X-270510D01*
X-270522Y247551D01*
X-270622Y248728D01*
X-270709Y249206D01*
X-270821Y249611D01*
X-270958Y249942D01*
X-271120Y250200D01*
X-271307Y250384D01*
X-271519Y250494D01*
X-271756Y250531D01*
X-266724D01*
X-266961Y250494D01*
D02*
G37*
G36*
X-123451D02*
X-123663Y250384D01*
X-123849Y250200D01*
X-124011Y249942D01*
X-124149Y249611D01*
X-124261Y249206D01*
X-124348Y248728D01*
X-124410Y248176D01*
X-124448Y247551D01*
X-124460Y246852D01*
X-127000D01*
X-127012Y247551D01*
X-127112Y248728D01*
X-127199Y249206D01*
X-127311Y249611D01*
X-127449Y249942D01*
X-127611Y250200D01*
X-127797Y250384D01*
X-128009Y250494D01*
X-128246Y250531D01*
X-123214D01*
X-123451Y250494D01*
D02*
G37*
G36*
X-136151D02*
X-136363Y250384D01*
X-136550Y250200D01*
X-136712Y249942D01*
X-136848Y249611D01*
X-136961Y249206D01*
X-137048Y248728D01*
X-137110Y248176D01*
X-137148Y247551D01*
X-137160Y246852D01*
X-139700D01*
X-139712Y247551D01*
X-139812Y248728D01*
X-139899Y249206D01*
X-140012Y249611D01*
X-140148Y249942D01*
X-140310Y250200D01*
X-140497Y250384D01*
X-140709Y250494D01*
X-140946Y250531D01*
X-135914D01*
X-136151Y250494D01*
D02*
G37*
G36*
X-110751D02*
X-110963Y250384D01*
X-111150Y250200D01*
X-111312Y249942D01*
X-111448Y249611D01*
X-111561Y249206D01*
X-111648Y248728D01*
X-111710Y248176D01*
X-111748Y247551D01*
X-111760Y246852D01*
X-114300D01*
X-114312Y247551D01*
X-114412Y248728D01*
X-114499Y249206D01*
X-114612Y249611D01*
X-114748Y249942D01*
X-114910Y250200D01*
X-115097Y250384D01*
X-115309Y250494D01*
X-115546Y250531D01*
X-110514D01*
X-110751Y250494D01*
D02*
G37*
G36*
X-242446Y249470D02*
X-242472Y249415D01*
X-242495Y249323D01*
X-242515Y249194D01*
X-242546Y248827D01*
X-242568Y247999D01*
X-242570Y247650D01*
X-245110D01*
X-245112Y247999D01*
X-245208Y249415D01*
X-245234Y249470D01*
X-245263Y249488D01*
X-242417D01*
X-242446Y249470D01*
D02*
G37*
G36*
X-98051Y250494D02*
X-98263Y250384D01*
X-98449Y250200D01*
X-98611Y249942D01*
X-98749Y249611D01*
X-98861Y249206D01*
X-98948Y248728D01*
X-99010Y248176D01*
X-99048Y247551D01*
X-99060Y246852D01*
X-101600D01*
X-101612Y247551D01*
X-101712Y248728D01*
X-101799Y249206D01*
X-101911Y249611D01*
X-102049Y249942D01*
X-102211Y250200D01*
X-102397Y250384D01*
X-102609Y250494D01*
X-102846Y250531D01*
X-97814D01*
X-98051Y250494D01*
D02*
G37*
G36*
X-186951D02*
X-187163Y250384D01*
X-187349Y250200D01*
X-187512Y249942D01*
X-187649Y249611D01*
X-187761Y249206D01*
X-187848Y248728D01*
X-187858Y248637D01*
X-187827Y248498D01*
X-187752Y248253D01*
X-187661Y248023D01*
X-187553Y247808D01*
X-187429Y247608D01*
X-187288Y247423D01*
X-187130Y247252D01*
X-187953D01*
X-187960Y246852D01*
X-190500D01*
X-190507Y247252D01*
X-191330D01*
X-191172Y247423D01*
X-191031Y247608D01*
X-190907Y247808D01*
X-190799Y248023D01*
X-190707Y248253D01*
X-190633Y248498D01*
X-190604Y248628D01*
X-190612Y248728D01*
X-190699Y249206D01*
X-190812Y249611D01*
X-190949Y249942D01*
X-191110Y250200D01*
X-191297Y250384D01*
X-191509Y250494D01*
X-191746Y250531D01*
X-186714D01*
X-186951Y250494D01*
D02*
G37*
G36*
X-254261D02*
X-254473Y250384D01*
X-254660Y250200D01*
X-254821Y249942D01*
X-254958Y249611D01*
X-255071Y249206D01*
X-255158Y248728D01*
X-255220Y248176D01*
X-255258Y247551D01*
X-255270Y246852D01*
X-257810D01*
X-257822Y247551D01*
X-257922Y248728D01*
X-258009Y249206D01*
X-258121Y249611D01*
X-258258Y249942D01*
X-258421Y250200D01*
X-258607Y250384D01*
X-258819Y250494D01*
X-259056Y250531D01*
X-254024D01*
X-254261Y250494D01*
D02*
G37*
G36*
X-174251D02*
X-174463Y250384D01*
X-174650Y250200D01*
X-174811Y249942D01*
X-174949Y249611D01*
X-175061Y249206D01*
X-175148Y248728D01*
X-175158Y248637D01*
X-175127Y248498D01*
X-175053Y248253D01*
X-174961Y248023D01*
X-174853Y247808D01*
X-174729Y247608D01*
X-174588Y247423D01*
X-174430Y247252D01*
X-175253D01*
X-175260Y246852D01*
X-177800D01*
X-177807Y247252D01*
X-178630D01*
X-178472Y247423D01*
X-178331Y247608D01*
X-178207Y247808D01*
X-178099Y248023D01*
X-178008Y248253D01*
X-177933Y248498D01*
X-177904Y248628D01*
X-177912Y248728D01*
X-177999Y249206D01*
X-178111Y249611D01*
X-178249Y249942D01*
X-178410Y250200D01*
X-178597Y250384D01*
X-178809Y250494D01*
X-179046Y250531D01*
X-174014D01*
X-174251Y250494D01*
D02*
G37*
G36*
X-148851D02*
X-149063Y250384D01*
X-149249Y250200D01*
X-149411Y249942D01*
X-149549Y249611D01*
X-149661Y249206D01*
X-149748Y248728D01*
X-149758Y248637D01*
X-149727Y248498D01*
X-149653Y248253D01*
X-149561Y248023D01*
X-149453Y247808D01*
X-149329Y247608D01*
X-149188Y247423D01*
X-149030Y247252D01*
X-149853D01*
X-149860Y246852D01*
X-152400D01*
X-152407Y247252D01*
X-153230D01*
X-153072Y247423D01*
X-152931Y247608D01*
X-152807Y247808D01*
X-152699Y248023D01*
X-152607Y248253D01*
X-152533Y248498D01*
X-152504Y248628D01*
X-152512Y248728D01*
X-152599Y249206D01*
X-152711Y249611D01*
X-152849Y249942D01*
X-153011Y250200D01*
X-153197Y250384D01*
X-153409Y250494D01*
X-153646Y250531D01*
X-148614D01*
X-148851Y250494D01*
D02*
G37*
G36*
X-161551D02*
X-161763Y250384D01*
X-161950Y250200D01*
X-162111Y249942D01*
X-162248Y249611D01*
X-162361Y249206D01*
X-162448Y248728D01*
X-162458Y248637D01*
X-162427Y248498D01*
X-162353Y248253D01*
X-162261Y248023D01*
X-162153Y247808D01*
X-162029Y247608D01*
X-161888Y247423D01*
X-161730Y247252D01*
X-162553D01*
X-162560Y246852D01*
X-165100D01*
X-165107Y247252D01*
X-165930D01*
X-165772Y247423D01*
X-165631Y247608D01*
X-165507Y247808D01*
X-165399Y248023D01*
X-165308Y248253D01*
X-165233Y248498D01*
X-165204Y248628D01*
X-165212Y248728D01*
X-165299Y249206D01*
X-165411Y249611D01*
X-165548Y249942D01*
X-165711Y250200D01*
X-165897Y250384D01*
X-166109Y250494D01*
X-166346Y250531D01*
X-161314D01*
X-161551Y250494D01*
D02*
G37*
G36*
X-137160Y212241D02*
X-137126Y211783D01*
X-137023Y211264D01*
X-136853Y210685D01*
X-136614Y210045D01*
X-136306Y209345D01*
X-135487Y207763D01*
X-134394Y205940D01*
X-133745Y204938D01*
X-144012Y207136D01*
X-143193Y207684D01*
X-142460Y208237D01*
X-141813Y208792D01*
X-141252Y209352D01*
X-140778Y209916D01*
X-140390Y210484D01*
X-140088Y211056D01*
X-139873Y211631D01*
X-139743Y212211D01*
X-139700Y212794D01*
X-137160Y212241D01*
D02*
G37*
G36*
X-267101Y79753D02*
X-266617Y79438D01*
X-266059Y79162D01*
X-265427Y78923D01*
X-264720Y78724D01*
X-263940Y78562D01*
X-263085Y78439D01*
X-261152Y78308D01*
X-260075Y78300D01*
X-267500Y70875D01*
X-267508Y71953D01*
X-267639Y73885D01*
X-267762Y74740D01*
X-267924Y75520D01*
X-268123Y76227D01*
X-268362Y76859D01*
X-268638Y77417D01*
X-268953Y77901D01*
X-269307Y78311D01*
X-267511Y80107D01*
X-267101Y79753D01*
D02*
G37*
G36*
X-290693Y78311D02*
X-291047Y77901D01*
X-291362Y77417D01*
X-291638Y76859D01*
X-291877Y76227D01*
X-292076Y75520D01*
X-292238Y74740D01*
X-292361Y73885D01*
X-292492Y71953D01*
X-292500Y70875D01*
X-299925Y78300D01*
X-298848Y78308D01*
X-296915Y78439D01*
X-296060Y78562D01*
X-295280Y78724D01*
X-294573Y78923D01*
X-293941Y79162D01*
X-293383Y79438D01*
X-292899Y79753D01*
X-292489Y80107D01*
X-290693Y78311D01*
D02*
G37*
G36*
X-187101Y79753D02*
X-186617Y79438D01*
X-186059Y79162D01*
X-185427Y78923D01*
X-184720Y78724D01*
X-183940Y78562D01*
X-183085Y78439D01*
X-181152Y78308D01*
X-180075Y78300D01*
X-187500Y70875D01*
X-187508Y71953D01*
X-187639Y73885D01*
X-187762Y74740D01*
X-187924Y75520D01*
X-188123Y76227D01*
X-188362Y76859D01*
X-188638Y77417D01*
X-188953Y77901D01*
X-189307Y78311D01*
X-187511Y80107D01*
X-187101Y79753D01*
D02*
G37*
G36*
X-226747Y80008D02*
X-226272Y79696D01*
X-225718Y79414D01*
X-225086Y79163D01*
X-224375Y78942D01*
X-223586Y78751D01*
X-222718Y78591D01*
X-220747Y78361D01*
X-219644Y78292D01*
X-227483Y71306D01*
X-227432Y72356D01*
X-227469Y74246D01*
X-227557Y75086D01*
X-227690Y75856D01*
X-227869Y76557D01*
X-228094Y77187D01*
X-228365Y77748D01*
X-228682Y78238D01*
X-229045Y78659D01*
X-227144Y80350D01*
X-226747Y80008D01*
D02*
G37*
G36*
X-27101Y79753D02*
X-26617Y79438D01*
X-26059Y79162D01*
X-25427Y78923D01*
X-24720Y78724D01*
X-23940Y78562D01*
X-23085Y78439D01*
X-21153Y78308D01*
X-20075Y78300D01*
X-27500Y70875D01*
X-27508Y71953D01*
X-27639Y73885D01*
X-27762Y74740D01*
X-27924Y75520D01*
X-28123Y76227D01*
X-28362Y76859D01*
X-28638Y77417D01*
X-28953Y77901D01*
X-29307Y78311D01*
X-27511Y80107D01*
X-27101Y79753D01*
D02*
G37*
G36*
X-621030Y199390D02*
Y190500D01*
Y176255D01*
X-620300D01*
X-620361Y176155D01*
X-620415Y175855D01*
X-620463Y175355D01*
X-620569Y172655D01*
X-620602Y168482D01*
X-619760Y167640D01*
X-609600Y157480D01*
X-527050D01*
X-521970Y152400D01*
X-514350Y144780D01*
Y143510D01*
Y106680D01*
Y76200D01*
X-527050Y63500D01*
X-558800D01*
X-603250Y107950D01*
X-629920Y134620D01*
Y149860D01*
Y166255D01*
X-630620D01*
X-630939Y176255D01*
X-629920D01*
Y200660D01*
X-623570Y201930D01*
X-621030Y199390D01*
D02*
G37*
G36*
X-368300Y261620D02*
Y246380D01*
Y219710D01*
X-359410Y210820D01*
X-351790Y203200D01*
Y176530D01*
Y173990D01*
X-354330Y171450D01*
X-356870Y168910D01*
X-379730D01*
X-387350Y161290D01*
X-394970Y153670D01*
Y143510D01*
Y128270D01*
X-374650Y107950D01*
X-356870Y90170D01*
Y76200D01*
Y68580D01*
X-361950Y63500D01*
X-387489D01*
X-389352Y61773D01*
X-391496Y63500D01*
X-476250D01*
X-488950Y76200D01*
X-488950Y168910D01*
X-471170Y186690D01*
X-419100Y186690D01*
X-406400D01*
X-397510Y195580D01*
X-394970Y198120D01*
Y226060D01*
Y229870D01*
X-387827Y237013D01*
X-387637Y237334D01*
X-387465Y237685D01*
X-387350Y237982D01*
Y264160D01*
X-386080Y265430D01*
X-372110D01*
X-368300Y261620D01*
D02*
G37*
G36*
X-145356Y65550D02*
X-146124Y66306D01*
X-147583Y67580D01*
X-148274Y68097D01*
X-148941Y68535D01*
X-149581Y68893D01*
X-150197Y69172D01*
X-150787Y69371D01*
X-151352Y69490D01*
X-151892Y69530D01*
Y72070D01*
X-151352Y72110D01*
X-150787Y72229D01*
X-150197Y72428D01*
X-149581Y72707D01*
X-148941Y73065D01*
X-148274Y73503D01*
X-147583Y74020D01*
X-146124Y75294D01*
X-145356Y76050D01*
Y65550D01*
D02*
G37*
G36*
X-65356D02*
X-66124Y66306D01*
X-67583Y67580D01*
X-68274Y68097D01*
X-68941Y68535D01*
X-69581Y68893D01*
X-70197Y69172D01*
X-70787Y69371D01*
X-71352Y69490D01*
X-71892Y69530D01*
Y72070D01*
X-71352Y72110D01*
X-70787Y72229D01*
X-70197Y72428D01*
X-69581Y72707D01*
X-68941Y73065D01*
X-68274Y73503D01*
X-67583Y74020D01*
X-66124Y75294D01*
X-65356Y76050D01*
Y65550D01*
D02*
G37*
G36*
X-105356D02*
X-106124Y66306D01*
X-107583Y67580D01*
X-108274Y68097D01*
X-108941Y68535D01*
X-109581Y68893D01*
X-110197Y69172D01*
X-110787Y69371D01*
X-111352Y69490D01*
X-111892Y69530D01*
Y72070D01*
X-111352Y72110D01*
X-110787Y72229D01*
X-110197Y72428D01*
X-109581Y72707D01*
X-108941Y73065D01*
X-108274Y73503D01*
X-107583Y74020D01*
X-106124Y75294D01*
X-105356Y76050D01*
Y65550D01*
D02*
G37*
G36*
X-641350Y237490D02*
X-637540Y233680D01*
Y215900D01*
Y211190D01*
X-637300Y203694D01*
X-637540D01*
Y167640D01*
X-640080Y165100D01*
X-645160D01*
X-647700Y167640D01*
Y179070D01*
Y203694D01*
X-647940D01*
X-647879Y203794D01*
X-647824Y204094D01*
X-647777Y204594D01*
X-647700Y206555D01*
Y207010D01*
X-652780Y212090D01*
X-666750D01*
X-669290Y209550D01*
X-671420Y207421D01*
X-671301Y203694D01*
X-671830D01*
Y200660D01*
Y172720D01*
X-673100Y171450D01*
X-681990D01*
X-683260Y172720D01*
X-684530Y173990D01*
Y187960D01*
Y191770D01*
X-690880Y198120D01*
X-692150Y199390D01*
X-709930D01*
X-720090Y189230D01*
X-755650Y153670D01*
Y143510D01*
Y3075D01*
X-792480D01*
Y73660D01*
Y173990D01*
X-783590Y182880D01*
X-725170Y241300D01*
X-645160D01*
X-641350Y237490D01*
D02*
G37*
G36*
X-65356Y195550D02*
X-66124Y196306D01*
X-67583Y197580D01*
X-68274Y198097D01*
X-68941Y198535D01*
X-69581Y198893D01*
X-70197Y199172D01*
X-70787Y199371D01*
X-71352Y199490D01*
X-71892Y199530D01*
Y202070D01*
X-71352Y202110D01*
X-70787Y202229D01*
X-70197Y202428D01*
X-69581Y202707D01*
X-68941Y203065D01*
X-68274Y203503D01*
X-67583Y204020D01*
X-66124Y205294D01*
X-65356Y206050D01*
Y195550D01*
D02*
G37*
G36*
X-105356D02*
X-106124Y196306D01*
X-107583Y197580D01*
X-108274Y198097D01*
X-108941Y198535D01*
X-109581Y198893D01*
X-110197Y199172D01*
X-110787Y199371D01*
X-111352Y199490D01*
X-111892Y199530D01*
Y202070D01*
X-111352Y202110D01*
X-110787Y202229D01*
X-110197Y202428D01*
X-109581Y202707D01*
X-108941Y203065D01*
X-108274Y203503D01*
X-107583Y204020D01*
X-106124Y205294D01*
X-105356Y206050D01*
Y195550D01*
D02*
G37*
G36*
X-25356D02*
X-26124Y196306D01*
X-27583Y197580D01*
X-28274Y198097D01*
X-28941Y198535D01*
X-29581Y198893D01*
X-30197Y199172D01*
X-30787Y199371D01*
X-31352Y199490D01*
X-31892Y199530D01*
Y202070D01*
X-31352Y202110D01*
X-30787Y202229D01*
X-30197Y202428D01*
X-29581Y202707D01*
X-28941Y203065D01*
X-28274Y203503D01*
X-27583Y204020D01*
X-26124Y205294D01*
X-25356Y206050D01*
Y195550D01*
D02*
G37*
G36*
X-616570Y222208D02*
X-617420Y221905D01*
X-618170Y221402D01*
X-618820Y220699D01*
X-619370Y219796D01*
X-619820Y218693D01*
X-620170Y217390D01*
X-620420Y215887D01*
X-620570Y214184D01*
X-620600Y213056D01*
X-620300Y203694D01*
X-630939D01*
X-630879Y203794D01*
X-630825Y204094D01*
X-630777Y204594D01*
X-630671Y207294D01*
X-630620Y213694D01*
X-629978D01*
X-626079Y222281D01*
X-615620Y222311D01*
X-616570Y222208D01*
D02*
G37*
G36*
X-473710Y349250D02*
Y337820D01*
X-483870D01*
X-491490Y330200D01*
X-495300Y326390D01*
Y267970D01*
Y242570D01*
X-490220Y237490D01*
X-480060Y227330D01*
X-421640D01*
X-414020Y234950D01*
X-410210Y238760D01*
Y262890D01*
Y271780D01*
X-415290Y276860D01*
X-419100Y280670D01*
X-448310D01*
X-450850Y283210D01*
X-455930Y288290D01*
Y300990D01*
Y302260D01*
X-454660Y303530D01*
Y308610D01*
X-455930Y309880D01*
X-452120Y313690D01*
X-398780D01*
X-397510Y312420D01*
X-393700Y308610D01*
Y273050D01*
Y237490D01*
X-396240Y234950D01*
X-402590Y228600D01*
Y218440D01*
Y203200D01*
X-405130Y200660D01*
X-407670Y198120D01*
X-515620D01*
X-520700Y203200D01*
X-533400Y215900D01*
Y264160D01*
Y283210D01*
X-530860Y285750D01*
X-514350D01*
X-510540Y289560D01*
Y334010D01*
Y345440D01*
X-505460Y350520D01*
X-474980D01*
X-473710Y349250D01*
D02*
G37*
G36*
X-656279Y186146D02*
X-656456Y185677D01*
X-656611Y185033D01*
X-656746Y184215D01*
X-656954Y182056D01*
X-657110Y177509D01*
X-657116Y176285D01*
X-654620D01*
X-655095Y176235D01*
X-655520Y176084D01*
X-655895Y175833D01*
X-656220Y175481D01*
X-656495Y175028D01*
X-656720Y174475D01*
X-656895Y173821D01*
X-657020Y173066D01*
X-657095Y172211D01*
X-657120Y171255D01*
X-662120D01*
X-662145Y172211D01*
X-662220Y173066D01*
X-662345Y173821D01*
X-662520Y174475D01*
X-662745Y175028D01*
X-663020Y175481D01*
X-663345Y175833D01*
X-663720Y176084D01*
X-664145Y176235D01*
X-664620Y176285D01*
X-662124D01*
X-662130Y177509D01*
X-662628Y185033D01*
X-662784Y185677D01*
X-662961Y186146D01*
X-663158Y186441D01*
X-656082D01*
X-656279Y186146D01*
D02*
G37*
G36*
X-949173Y172065D02*
X-949604Y171912D01*
X-949985Y171658D01*
X-950316Y171303D01*
X-950595Y170846D01*
X-950824Y170287D01*
X-951001Y169626D01*
X-951128Y168864D01*
X-951205Y168001D01*
X-951230Y167036D01*
X-956310D01*
X-956335Y168001D01*
X-956412Y168864D01*
X-956539Y169626D01*
X-956716Y170287D01*
X-956945Y170846D01*
X-957224Y171303D01*
X-957555Y171658D01*
X-957936Y171912D01*
X-958367Y172065D01*
X-958850Y172115D01*
X-948690D01*
X-949173Y172065D01*
D02*
G37*
G36*
X-873770Y184160D02*
X-873615Y184141D01*
X-873358Y184124D01*
X-868680Y184070D01*
Y174070D01*
X-873821Y173960D01*
Y184181D01*
X-873770Y184160D01*
D02*
G37*
G36*
X-909259Y173990D02*
X-909310Y174473D01*
X-909464Y174904D01*
X-909719Y175285D01*
X-910077Y175616D01*
X-910537Y175895D01*
X-911099Y176124D01*
X-911763Y176301D01*
X-912530Y176428D01*
X-913399Y176505D01*
X-914370Y176530D01*
Y181610D01*
X-913399Y181635D01*
X-912530Y181712D01*
X-911763Y181839D01*
X-911099Y182016D01*
X-910537Y182245D01*
X-910077Y182524D01*
X-909719Y182855D01*
X-909464Y183236D01*
X-909310Y183667D01*
X-909259Y184150D01*
Y173990D01*
D02*
G37*
G36*
X-924570Y183667D02*
X-924417Y183236D01*
X-924161Y182855D01*
X-923803Y182524D01*
X-923343Y182245D01*
X-922781Y182016D01*
X-922117Y181839D01*
X-921350Y181712D01*
X-920481Y181635D01*
X-919510Y181610D01*
Y176530D01*
X-920481Y176505D01*
X-921350Y176428D01*
X-922117Y176301D01*
X-922781Y176124D01*
X-923343Y175895D01*
X-923803Y175616D01*
X-924161Y175285D01*
X-924417Y174904D01*
X-924570Y174473D01*
X-924621Y173990D01*
Y184150D01*
X-924570Y183667D01*
D02*
G37*
G36*
X-175136Y345990D02*
X-175162Y345935D01*
X-175185Y345843D01*
X-175205Y345714D01*
X-175236Y345346D01*
X-175259Y344519D01*
X-175260Y344170D01*
X-177800D01*
X-177801Y344519D01*
X-177898Y345935D01*
X-177924Y345990D01*
X-177953Y346008D01*
X-175107D01*
X-175136Y345990D01*
D02*
G37*
G36*
X-161311Y347428D02*
X-161460Y347275D01*
X-161535Y347083D01*
X-161535Y346852D01*
X-161461Y346581D01*
X-161311Y346272D01*
X-161088Y345924D01*
X-160790Y345537D01*
X-160417Y345111D01*
X-159969Y344645D01*
X-162840Y343923D01*
X-163188Y344268D01*
X-164813Y345698D01*
X-165007Y345831D01*
X-165178Y345934D01*
X-165328Y346006D01*
X-161087Y347542D01*
X-161311Y347428D01*
D02*
G37*
G36*
X-111636Y345990D02*
X-111662Y345935D01*
X-111685Y345843D01*
X-111705Y345714D01*
X-111735Y345346D01*
X-111758Y344519D01*
X-111760Y344170D01*
X-114300D01*
X-114302Y344519D01*
X-114398Y345935D01*
X-114424Y345990D01*
X-114453Y346008D01*
X-111607D01*
X-111636Y345990D01*
D02*
G37*
G36*
X-231570Y345692D02*
X-231652Y345810D01*
X-231783Y345859D01*
X-231962Y345838D01*
X-232190Y345747D01*
X-232466Y345587D01*
X-232791Y345358D01*
X-233163Y345059D01*
X-234054Y344252D01*
X-234572Y343745D01*
X-238108Y347280D01*
X-237295Y348104D01*
X-234606Y351161D01*
X-234343Y351560D01*
X-234172Y351889D01*
X-234092Y352147D01*
X-234105Y352334D01*
X-231570Y345692D01*
D02*
G37*
G36*
X-764532Y347113D02*
X-764507Y346823D01*
X-764465Y346548D01*
X-764407Y346288D01*
X-764333Y346043D01*
X-764241Y345813D01*
X-764133Y345598D01*
X-764009Y345398D01*
X-763868Y345213D01*
X-763710Y345042D01*
X-767910D01*
X-767752Y345213D01*
X-767611Y345398D01*
X-767487Y345598D01*
X-767379Y345813D01*
X-767288Y346043D01*
X-767213Y346288D01*
X-767155Y346548D01*
X-767113Y346823D01*
X-767088Y347113D01*
X-767080Y347418D01*
X-764540D01*
X-764532Y347113D01*
D02*
G37*
G36*
X-199112Y347595D02*
X-199178Y347287D01*
X-199237Y346900D01*
X-199332Y345889D01*
X-199414Y343781D01*
X-199430Y341980D01*
X-204430D01*
X-204434Y342920D01*
X-204682Y347287D01*
X-204748Y347595D01*
X-204823Y347825D01*
X-199037D01*
X-199112Y347595D01*
D02*
G37*
G36*
X-342864Y347029D02*
X-342880Y346858D01*
X-342916Y345761D01*
X-342940Y341980D01*
X-347940D01*
X-348034Y347102D01*
X-342846D01*
X-342864Y347029D01*
D02*
G37*
G36*
X-84812Y347595D02*
X-84878Y347287D01*
X-84937Y346900D01*
X-85032Y345889D01*
X-85114Y343781D01*
X-85130Y341980D01*
X-90130D01*
X-90134Y342920D01*
X-90382Y347287D01*
X-90448Y347595D01*
X-90523Y347825D01*
X-84737D01*
X-84812Y347595D01*
D02*
G37*
G36*
X-98051Y347014D02*
X-98263Y346904D01*
X-98449Y346720D01*
X-98611Y346462D01*
X-98749Y346131D01*
X-98861Y345726D01*
X-98948Y345248D01*
X-99010Y344696D01*
X-99048Y344071D01*
X-99060Y343372D01*
X-101600D01*
X-101612Y344071D01*
X-101712Y345248D01*
X-101799Y345726D01*
X-101911Y346131D01*
X-102049Y346462D01*
X-102211Y346720D01*
X-102397Y346904D01*
X-102609Y347014D01*
X-102846Y347051D01*
X-97814D01*
X-98051Y347014D01*
D02*
G37*
G36*
X-148851D02*
X-149063Y346904D01*
X-149249Y346720D01*
X-149411Y346462D01*
X-149549Y346131D01*
X-149661Y345726D01*
X-149748Y345248D01*
X-149810Y344696D01*
X-149848Y344071D01*
X-149860Y343372D01*
X-152400D01*
X-152412Y344071D01*
X-152512Y345248D01*
X-152599Y345726D01*
X-152711Y346131D01*
X-152849Y346462D01*
X-153011Y346720D01*
X-153197Y346904D01*
X-153409Y347014D01*
X-153646Y347051D01*
X-148614D01*
X-148851Y347014D01*
D02*
G37*
G36*
X-696241Y358960D02*
X-696466Y358660D01*
X-696664Y358159D01*
X-696835Y357459D01*
X-696980Y356559D01*
X-697191Y354160D01*
X-697202Y353829D01*
X-696835Y348661D01*
X-696664Y347961D01*
X-696466Y347461D01*
X-696241Y347160D01*
X-695991Y347061D01*
X-708630D01*
X-708379Y347160D01*
X-708155Y347461D01*
X-707957Y347961D01*
X-707785Y348661D01*
X-707640Y349561D01*
X-707429Y351960D01*
X-707418Y352291D01*
X-707785Y357459D01*
X-707957Y358159D01*
X-708155Y358660D01*
X-708379Y358960D01*
X-708630Y359059D01*
X-695991D01*
X-696241Y358960D01*
D02*
G37*
G36*
X-252127Y365837D02*
X-252582Y365364D01*
X-253287Y364518D01*
X-253535Y364145D01*
X-253715Y363806D01*
X-253826Y363501D01*
X-253867Y363230D01*
X-253840Y362991D01*
X-253743Y362787D01*
X-253578Y362616D01*
X-257315Y365493D01*
X-257025Y365546D01*
X-256730Y365627D01*
X-256432Y365738D01*
X-256130Y365877D01*
X-255823Y366046D01*
X-255513Y366243D01*
X-255199Y366470D01*
X-254558Y367010D01*
X-254232Y367324D01*
X-252127Y365837D01*
D02*
G37*
G36*
X-421065Y367170D02*
X-421490Y367020D01*
X-421865Y366771D01*
X-422190Y366421D01*
X-422465Y365970D01*
X-422690Y365420D01*
X-422865Y364771D01*
X-422990Y364021D01*
X-423065Y363171D01*
X-423090Y362220D01*
X-428090D01*
X-428115Y363171D01*
X-428190Y364021D01*
X-428315Y364771D01*
X-428490Y365420D01*
X-428715Y365970D01*
X-428990Y366421D01*
X-429315Y366771D01*
X-429690Y367020D01*
X-430115Y367170D01*
X-430590Y367220D01*
X-420590D01*
X-421065Y367170D01*
D02*
G37*
G36*
X-239427Y365837D02*
X-239882Y365364D01*
X-240587Y364518D01*
X-240835Y364145D01*
X-241015Y363806D01*
X-241126Y363501D01*
X-241167Y363230D01*
X-241140Y362991D01*
X-241043Y362787D01*
X-240878Y362616D01*
X-244615Y365493D01*
X-244325Y365546D01*
X-244030Y365627D01*
X-243732Y365738D01*
X-243430Y365877D01*
X-243123Y366046D01*
X-242813Y366243D01*
X-242499Y366470D01*
X-241858Y367010D01*
X-241532Y367324D01*
X-239427Y365837D01*
D02*
G37*
G36*
X-331458Y367129D02*
X-331375Y366158D01*
X-330640D01*
X-330798Y365987D01*
X-330939Y365802D01*
X-331063Y365602D01*
X-331171Y365387D01*
X-331216Y365275D01*
X-331158Y365069D01*
X-331021Y364738D01*
X-330859Y364480D01*
X-330673Y364296D01*
X-330461Y364186D01*
X-330224Y364149D01*
X-331456D01*
X-331462Y364087D01*
X-331470Y363782D01*
X-334010D01*
X-334018Y364087D01*
X-334024Y364149D01*
X-335256D01*
X-335019Y364186D01*
X-334807Y364296D01*
X-334621Y364480D01*
X-334459Y364738D01*
X-334322Y365069D01*
X-334264Y365275D01*
X-334309Y365387D01*
X-334417Y365602D01*
X-334541Y365802D01*
X-334682Y365987D01*
X-334840Y366158D01*
X-334099D01*
X-334060Y366504D01*
X-334022Y367129D01*
X-334010Y367828D01*
X-331470D01*
X-331458Y367129D01*
D02*
G37*
G36*
X-139072Y366932D02*
X-137447Y365502D01*
X-137253Y365369D01*
X-137082Y365266D01*
X-136932Y365194D01*
X-141173Y363657D01*
X-140949Y363772D01*
X-140800Y363925D01*
X-140725Y364117D01*
X-140725Y364348D01*
X-140799Y364618D01*
X-140948Y364928D01*
X-141172Y365276D01*
X-141470Y365663D01*
X-141843Y366089D01*
X-142291Y366555D01*
X-139420Y367277D01*
X-139072Y366932D01*
D02*
G37*
G36*
X-204895Y350600D02*
X-204945Y351075D01*
X-205096Y351500D01*
X-205347Y351875D01*
X-205700Y352200D01*
X-206152Y352475D01*
X-206706Y352700D01*
X-207360Y352875D01*
X-208114Y353000D01*
X-208969Y353075D01*
X-209925Y353100D01*
Y358100D01*
X-208969Y358125D01*
X-208114Y358200D01*
X-207360Y358325D01*
X-206706Y358500D01*
X-206152Y358725D01*
X-205700Y359000D01*
X-205347Y359325D01*
X-205096Y359700D01*
X-204945Y360125D01*
X-204895Y360600D01*
Y350600D01*
D02*
G37*
G36*
X-228125Y360125D02*
X-227974Y359700D01*
X-227723Y359325D01*
X-227370Y359000D01*
X-226918Y358725D01*
X-226364Y358500D01*
X-225710Y358325D01*
X-224956Y358200D01*
X-224101Y358125D01*
X-223145Y358100D01*
Y353100D01*
X-224101Y353075D01*
X-224956Y353000D01*
X-225710Y352875D01*
X-226364Y352700D01*
X-226918Y352475D01*
X-227370Y352200D01*
X-227723Y351875D01*
X-227974Y351500D01*
X-228125Y351075D01*
X-228175Y350600D01*
Y360600D01*
X-228125Y360125D01*
D02*
G37*
G36*
X-374650Y373000D02*
Y367220D01*
X-374590D01*
X-374650Y367214D01*
Y332740D01*
Y297180D01*
X-360680Y283210D01*
X-207010D01*
X-204470Y280670D01*
X-198120Y274320D01*
Y261620D01*
Y251460D01*
X-199390Y250190D01*
X-200660Y248920D01*
X-233680D01*
X-234950Y250190D01*
Y259080D01*
Y266700D01*
X-243880Y275630D01*
X-337940D01*
X-338890Y275580D01*
X-339740Y275430D01*
X-340490Y275180D01*
X-341140Y274830D01*
X-341690Y274380D01*
X-342140Y273830D01*
X-342490Y273180D01*
X-342740Y272430D01*
X-342890Y271580D01*
X-342907Y271252D01*
X-342688Y267393D01*
X-342622Y267085D01*
X-342547Y266855D01*
X-348333D01*
X-348258Y267085D01*
X-348192Y267393D01*
X-348133Y267780D01*
X-348038Y268791D01*
X-347956Y270900D01*
X-347956Y270924D01*
X-347990Y271580D01*
X-348140Y272430D01*
X-348390Y273180D01*
X-348740Y273830D01*
X-349190Y274380D01*
X-349740Y274830D01*
X-350390Y275180D01*
X-351140Y275430D01*
X-351990Y275580D01*
X-352940Y275630D01*
X-368260D01*
X-368300Y275590D01*
X-384810Y292100D01*
X-386080D01*
Y312420D01*
X-388620Y314960D01*
X-393700Y320040D01*
X-454660D01*
X-457200Y317500D01*
X-462280Y312420D01*
Y304800D01*
Y274320D01*
X-459740Y271780D01*
X-454660Y266700D01*
X-416560D01*
Y240030D01*
X-467360D01*
X-472440Y245110D01*
Y300990D01*
Y313690D01*
X-456064Y330066D01*
X-456067Y330088D01*
X-456250Y330570D01*
X-456011Y330119D01*
X-452120Y334010D01*
X-441960Y344170D01*
Y349250D01*
X-443230Y350520D01*
X-449580Y356870D01*
X-447040Y359410D01*
X-441960Y354330D01*
X-414020D01*
X-412750Y355600D01*
X-410210Y358140D01*
X-393671D01*
X-384590Y367220D01*
X-383540Y368270D01*
Y375920D01*
X-381610D01*
X-379590Y377940D01*
X-374650Y373000D01*
D02*
G37*
G36*
X-622300Y374650D02*
Y364490D01*
Y361950D01*
X-623570Y360680D01*
X-624840Y359410D01*
X-647700D01*
X-650240Y361950D01*
X-674370D01*
X-681990Y354330D01*
X-684530Y356870D01*
X-684530Y361950D01*
Y364490D01*
X-675640Y373380D01*
X-673100Y375920D01*
X-623570D01*
X-622300Y374650D01*
D02*
G37*
G36*
X-757271Y354361D02*
X-757289Y354653D01*
X-757342Y354877D01*
X-757432Y355032D01*
X-757558Y355118D01*
X-757719Y355136D01*
X-757917Y355086D01*
X-758151Y354966D01*
X-758420Y354779D01*
X-758725Y354522D01*
X-759067Y354197D01*
Y357789D01*
X-758721Y358153D01*
X-758411Y358515D01*
X-758138Y358877D01*
X-757901Y359237D01*
X-757701Y359597D01*
X-757536Y359956D01*
X-757408Y360313D01*
X-757316Y360670D01*
X-757260Y361026D01*
X-757240Y361382D01*
X-757271Y354361D01*
D02*
G37*
G36*
X-728919Y337820D02*
X-728945Y338061D01*
X-729022Y338277D01*
X-729150Y338468D01*
X-729330Y338633D01*
X-729562Y338773D01*
X-729844Y338887D01*
X-730179Y338976D01*
X-730564Y339039D01*
X-731001Y339077D01*
X-731489Y339090D01*
Y341630D01*
X-731001Y341643D01*
X-730564Y341681D01*
X-730179Y341744D01*
X-729844Y341833D01*
X-729562Y341948D01*
X-729330Y342087D01*
X-729150Y342252D01*
X-729022Y342443D01*
X-728945Y342659D01*
X-728919Y342900D01*
Y337820D01*
D02*
G37*
G36*
X-485132Y297583D02*
X-485107Y297293D01*
X-485065Y297018D01*
X-485007Y296758D01*
X-484933Y296513D01*
X-484841Y296283D01*
X-484733Y296068D01*
X-484609Y295868D01*
X-484468Y295683D01*
X-484310Y295512D01*
X-488510D01*
X-488352Y295683D01*
X-488211Y295868D01*
X-488087Y296068D01*
X-487979Y296283D01*
X-487887Y296513D01*
X-487813Y296758D01*
X-487755Y297018D01*
X-487713Y297293D01*
X-487688Y297583D01*
X-487680Y297888D01*
X-485140D01*
X-485132Y297583D01*
D02*
G37*
G36*
X-157082Y293810D02*
X-157253Y293968D01*
X-157438Y294109D01*
X-157638Y294233D01*
X-157853Y294341D01*
X-158083Y294433D01*
X-158328Y294507D01*
X-158588Y294565D01*
X-158863Y294607D01*
X-159153Y294632D01*
X-159458Y294640D01*
Y297180D01*
X-159153Y297188D01*
X-158863Y297213D01*
X-158588Y297255D01*
X-158328Y297313D01*
X-158083Y297388D01*
X-157853Y297479D01*
X-157638Y297587D01*
X-157438Y297711D01*
X-157253Y297852D01*
X-157082Y298010D01*
Y293810D01*
D02*
G37*
G36*
X-473710Y412750D02*
X-508000D01*
X-511810Y408940D01*
X-521970Y398780D01*
Y394970D01*
Y381000D01*
X-518160Y377190D01*
X-515620Y374650D01*
X-474980D01*
X-473710Y373380D01*
Y363220D01*
X-474980Y361950D01*
X-508000D01*
X-511810Y358140D01*
X-516890Y353060D01*
Y313690D01*
Y298450D01*
X-518160Y297180D01*
X-533400D01*
X-534670Y298450D01*
Y300990D01*
Y314960D01*
X-535940Y316230D01*
X-541020Y321310D01*
Y375920D01*
Y412750D01*
X-534670Y419100D01*
X-528320Y425450D01*
X-473710D01*
Y412750D01*
D02*
G37*
G36*
X-477512Y305203D02*
X-477487Y304913D01*
X-477445Y304638D01*
X-477387Y304378D01*
X-477313Y304133D01*
X-477221Y303903D01*
X-477113Y303688D01*
X-476989Y303488D01*
X-476848Y303303D01*
X-476690Y303132D01*
X-480890D01*
X-480732Y303303D01*
X-480591Y303488D01*
X-480467Y303688D01*
X-480359Y303903D01*
X-480267Y304133D01*
X-480193Y304378D01*
X-480135Y304638D01*
X-480093Y304913D01*
X-480068Y305203D01*
X-480060Y305508D01*
X-477520D01*
X-477512Y305203D01*
D02*
G37*
G36*
X-99609Y307066D02*
X-100245Y306358D01*
X-100740Y305651D01*
X-101094Y304944D01*
X-101306Y304237D01*
X-101377Y303530D01*
X-101306Y302823D01*
X-101094Y302116D01*
X-100740Y301409D01*
X-100245Y300702D01*
X-99609Y299995D01*
X-104180Y297495D01*
X-104902Y298166D01*
X-105653Y298767D01*
X-106433Y299298D01*
X-107243Y299757D01*
X-108082Y300146D01*
X-108950Y300464D01*
X-109847Y300712D01*
X-110774Y300889D01*
X-111730Y300995D01*
X-112716Y301030D01*
Y306030D01*
X-111730Y306065D01*
X-110774Y306171D01*
X-109847Y306348D01*
X-108950Y306596D01*
X-108082Y306914D01*
X-107243Y307303D01*
X-106433Y307762D01*
X-105653Y308293D01*
X-104902Y308894D01*
X-104180Y309566D01*
X-99609Y307066D01*
D02*
G37*
G36*
X-84640Y261379D02*
X-84563Y261163D01*
X-84434Y260972D01*
X-84254Y260807D01*
X-84023Y260667D01*
X-83740Y260553D01*
X-83406Y260464D01*
X-83020Y260401D01*
X-82583Y260363D01*
X-82095Y260350D01*
Y257810D01*
X-82583Y257797D01*
X-83020Y257759D01*
X-83406Y257696D01*
X-83740Y257607D01*
X-84023Y257493D01*
X-84254Y257353D01*
X-84434Y257188D01*
X-84563Y256997D01*
X-84640Y256781D01*
X-84665Y256540D01*
Y261620D01*
X-84640Y261379D01*
D02*
G37*
G36*
X-61201Y254035D02*
X-61417Y253958D01*
X-61608Y253830D01*
X-61773Y253650D01*
X-61912Y253418D01*
X-62027Y253136D01*
X-62116Y252801D01*
X-62179Y252416D01*
X-62217Y251979D01*
X-62221Y251851D01*
X-62197Y251573D01*
X-62155Y251298D01*
X-62097Y251038D01*
X-62023Y250793D01*
X-61931Y250563D01*
X-61823Y250348D01*
X-61699Y250148D01*
X-61558Y249963D01*
X-61400Y249792D01*
X-65600D01*
X-65442Y249963D01*
X-65301Y250148D01*
X-65177Y250348D01*
X-65069Y250563D01*
X-64977Y250793D01*
X-64903Y251038D01*
X-64845Y251298D01*
X-64803Y251573D01*
X-64779Y251851D01*
X-64783Y251979D01*
X-64821Y252416D01*
X-64884Y252801D01*
X-64973Y253136D01*
X-65087Y253418D01*
X-65227Y253650D01*
X-65392Y253830D01*
X-65583Y253958D01*
X-65799Y254035D01*
X-66040Y254061D01*
X-60960D01*
X-61201Y254035D01*
D02*
G37*
G36*
X-71470Y256540D02*
X-71496Y256781D01*
X-71572Y256997D01*
X-71699Y257188D01*
X-71877Y257353D01*
X-72105Y257493D01*
X-72385Y257607D01*
X-72715Y257696D01*
X-73096Y257759D01*
X-73528Y257797D01*
X-74011Y257810D01*
Y260350D01*
X-73528Y260363D01*
X-73096Y260401D01*
X-72715Y260464D01*
X-72385Y260553D01*
X-72105Y260667D01*
X-71877Y260807D01*
X-71699Y260972D01*
X-71572Y261163D01*
X-71496Y261379D01*
X-71470Y261620D01*
Y256540D01*
D02*
G37*
G36*
X-157082Y284920D02*
X-157253Y285078D01*
X-157438Y285219D01*
X-157638Y285343D01*
X-157853Y285451D01*
X-158083Y285543D01*
X-158328Y285617D01*
X-158588Y285675D01*
X-158863Y285717D01*
X-159153Y285742D01*
X-159458Y285750D01*
Y288290D01*
X-159153Y288298D01*
X-158863Y288323D01*
X-158588Y288365D01*
X-158328Y288423D01*
X-158083Y288498D01*
X-157853Y288589D01*
X-157638Y288697D01*
X-157438Y288821D01*
X-157253Y288962D01*
X-157082Y289120D01*
Y284920D01*
D02*
G37*
G36*
X-71470Y275670D02*
X-71521Y276145D01*
X-71670Y276570D01*
X-71920Y276945D01*
X-72270Y277270D01*
X-72720Y277545D01*
X-73271Y277770D01*
X-73920Y277945D01*
X-74671Y278070D01*
X-75521Y278145D01*
X-76470Y278170D01*
Y283170D01*
X-75521Y283195D01*
X-74671Y283270D01*
X-73920Y283395D01*
X-73271Y283570D01*
X-72720Y283795D01*
X-72270Y284070D01*
X-71920Y284395D01*
X-71670Y284770D01*
X-71521Y285195D01*
X-71470Y285670D01*
Y275670D01*
D02*
G37*
G36*
X-695995Y314719D02*
X-695918Y314503D01*
X-695790Y314312D01*
X-695610Y314147D01*
X-695378Y314007D01*
X-695096Y313893D01*
X-694761Y313804D01*
X-694376Y313741D01*
X-693939Y313703D01*
X-693450Y313690D01*
Y311150D01*
X-693939Y311137D01*
X-694376Y311099D01*
X-694761Y311036D01*
X-695096Y310947D01*
X-695378Y310833D01*
X-695610Y310693D01*
X-695790Y310528D01*
X-695918Y310337D01*
X-695995Y310121D01*
X-696021Y309880D01*
Y314960D01*
X-695995Y314719D01*
D02*
G37*
G36*
X-131037Y338492D02*
X-130852Y338351D01*
X-130652Y338227D01*
X-130437Y338119D01*
X-130207Y338027D01*
X-129962Y337953D01*
X-129702Y337895D01*
X-129427Y337853D01*
X-129137Y337828D01*
X-128832Y337820D01*
Y335280D01*
X-129137Y335272D01*
X-129427Y335247D01*
X-129702Y335205D01*
X-129962Y335147D01*
X-130207Y335073D01*
X-130437Y334981D01*
X-130652Y334873D01*
X-130852Y334749D01*
X-131037Y334608D01*
X-131208Y334450D01*
Y338650D01*
X-131037Y338492D01*
D02*
G37*
G36*
X-354068Y332381D02*
X-354043Y332091D01*
X-354001Y331816D01*
X-353943Y331556D01*
X-353868Y331311D01*
X-353777Y331081D01*
X-353669Y330866D01*
X-353545Y330666D01*
X-353404Y330481D01*
X-353246Y330310D01*
X-357446D01*
X-357288Y330481D01*
X-357147Y330666D01*
X-357023Y330866D01*
X-356915Y331081D01*
X-356824Y331311D01*
X-356749Y331556D01*
X-356691Y331816D01*
X-356649Y332091D01*
X-356624Y332381D01*
X-356616Y332686D01*
X-354076D01*
X-354068Y332381D01*
D02*
G37*
G36*
X-228934Y338038D02*
X-229075Y337853D01*
X-229200Y337653D01*
X-229308Y337438D01*
X-229399Y337207D01*
X-229474Y336962D01*
X-229532Y336702D01*
X-229573Y336427D01*
X-229598Y336137D01*
X-229606Y335832D01*
X-232146D01*
X-232155Y336137D01*
X-232180Y336427D01*
X-232221Y336702D01*
X-232279Y336962D01*
X-232354Y337207D01*
X-232445Y337438D01*
X-232553Y337653D01*
X-232678Y337853D01*
X-232819Y338038D01*
X-232976Y338208D01*
X-228776D01*
X-228934Y338038D01*
D02*
G37*
G36*
X-741304Y342659D02*
X-741228Y342443D01*
X-741101Y342252D01*
X-740923Y342087D01*
X-740695Y341948D01*
X-740415Y341833D01*
X-740085Y341744D01*
X-739704Y341681D01*
X-739272Y341643D01*
X-738790Y341630D01*
Y339090D01*
X-739272Y339077D01*
X-739704Y339039D01*
X-740085Y338976D01*
X-740415Y338887D01*
X-740695Y338773D01*
X-740923Y338633D01*
X-741101Y338468D01*
X-741228Y338277D01*
X-741304Y338061D01*
X-741329Y337820D01*
Y342900D01*
X-741304Y342659D01*
D02*
G37*
G36*
X-220054Y338047D02*
X-220195Y337862D01*
X-220319Y337662D01*
X-220427Y337447D01*
X-220518Y337217D01*
X-220593Y336972D01*
X-220651Y336712D01*
X-220693Y336437D01*
X-220718Y336147D01*
X-220726Y335842D01*
X-223266D01*
X-223274Y336147D01*
X-223299Y336437D01*
X-223341Y336712D01*
X-223399Y336972D01*
X-223473Y337217D01*
X-223565Y337447D01*
X-223673Y337662D01*
X-223797Y337862D01*
X-223938Y338047D01*
X-224096Y338218D01*
X-219896D01*
X-220054Y338047D01*
D02*
G37*
G36*
X-165092Y315363D02*
X-165067Y315073D01*
X-165025Y314798D01*
X-164967Y314538D01*
X-164893Y314293D01*
X-164801Y314063D01*
X-164693Y313848D01*
X-164569Y313648D01*
X-164428Y313463D01*
X-164270Y313292D01*
X-168470D01*
X-168312Y313463D01*
X-168171Y313648D01*
X-168047Y313848D01*
X-167939Y314063D01*
X-167847Y314293D01*
X-167773Y314538D01*
X-167715Y314798D01*
X-167673Y315073D01*
X-167648Y315363D01*
X-167640Y315668D01*
X-165100D01*
X-165092Y315363D01*
D02*
G37*
G36*
X-359199Y316557D02*
X-358977Y316369D01*
X-358753Y316204D01*
X-358528Y316062D01*
X-358302Y315941D01*
X-358074Y315843D01*
X-357846Y315767D01*
X-357617Y315714D01*
X-357386Y315683D01*
X-357154Y315674D01*
X-360124Y312704D01*
X-360133Y312936D01*
X-360164Y313167D01*
X-360217Y313396D01*
X-360293Y313624D01*
X-360391Y313852D01*
X-360512Y314078D01*
X-360654Y314303D01*
X-360820Y314527D01*
X-361007Y314749D01*
X-361217Y314971D01*
X-359421Y316767D01*
X-359199Y316557D01*
D02*
G37*
G36*
X-721347Y322442D02*
X-721309Y322005D01*
X-721246Y321620D01*
X-721157Y321285D01*
X-721042Y321003D01*
X-720903Y320771D01*
X-720738Y320591D01*
X-720547Y320463D01*
X-720331Y320386D01*
X-720090Y320360D01*
X-725170D01*
X-724929Y320386D01*
X-724713Y320463D01*
X-724522Y320591D01*
X-724357Y320771D01*
X-724218Y321003D01*
X-724103Y321285D01*
X-724014Y321620D01*
X-723951Y322005D01*
X-723913Y322442D01*
X-723900Y322930D01*
X-721360D01*
X-721347Y322442D01*
D02*
G37*
G36*
X-720331Y331124D02*
X-720547Y331047D01*
X-720738Y330919D01*
X-720903Y330739D01*
X-721042Y330507D01*
X-721157Y330225D01*
X-721246Y329890D01*
X-721309Y329505D01*
X-721347Y329068D01*
X-721360Y328579D01*
X-723900D01*
X-723913Y329068D01*
X-723951Y329505D01*
X-724014Y329890D01*
X-724103Y330225D01*
X-724218Y330507D01*
X-724357Y330739D01*
X-724522Y330919D01*
X-724713Y331047D01*
X-724929Y331124D01*
X-725170Y331150D01*
X-720090D01*
X-720331Y331124D01*
D02*
G37*
G36*
X-149852Y330603D02*
X-149827Y330313D01*
X-149785Y330038D01*
X-149727Y329778D01*
X-149653Y329533D01*
X-149561Y329303D01*
X-149453Y329088D01*
X-149329Y328888D01*
X-149188Y328703D01*
X-149030Y328532D01*
X-153230D01*
X-153072Y328703D01*
X-152931Y328888D01*
X-152807Y329088D01*
X-152699Y329303D01*
X-152607Y329533D01*
X-152533Y329778D01*
X-152475Y330038D01*
X-152433Y330313D01*
X-152408Y330603D01*
X-152400Y330908D01*
X-149860D01*
X-149852Y330603D01*
D02*
G37*
G36*
X-265369Y532940D02*
X-265399Y533225D01*
X-265490Y533480D01*
X-265642Y533705D01*
X-265854Y533900D01*
X-266127Y534065D01*
X-266460Y534200D01*
X-266854Y534305D01*
X-267309Y534380D01*
X-267824Y534425D01*
X-268400Y534440D01*
Y537440D01*
X-267824Y537455D01*
X-267309Y537500D01*
X-266854Y537575D01*
X-266460Y537680D01*
X-266127Y537815D01*
X-265854Y537980D01*
X-265642Y538175D01*
X-265490Y538400D01*
X-265399Y538655D01*
X-265369Y538940D01*
Y532940D01*
D02*
G37*
G36*
X-732335Y748114D02*
X-732260Y747259D01*
X-732135Y746504D01*
X-731960Y745850D01*
X-731735Y745297D01*
X-731460Y744844D01*
X-731135Y744492D01*
X-730760Y744240D01*
X-730335Y744089D01*
X-729860Y744039D01*
X-739860D01*
X-739385Y744089D01*
X-738960Y744240D01*
X-738585Y744492D01*
X-738260Y744844D01*
X-737985Y745297D01*
X-737760Y745850D01*
X-737585Y746504D01*
X-737460Y747259D01*
X-737385Y748114D01*
X-737360Y749070D01*
X-732360D01*
X-732335Y748114D01*
D02*
G37*
G36*
X-279429Y739140D02*
X-279480Y739623D01*
X-279633Y740054D01*
X-279887Y740435D01*
X-280242Y740766D01*
X-280700Y741045D01*
X-281258Y741274D01*
X-281919Y741451D01*
X-282681Y741578D01*
X-283544Y741655D01*
X-284510Y741680D01*
Y746760D01*
X-283544Y746785D01*
X-282681Y746862D01*
X-281919Y746989D01*
X-281258Y747166D01*
X-280700Y747395D01*
X-280242Y747674D01*
X-279887Y748005D01*
X-279633Y748386D01*
X-279480Y748817D01*
X-279429Y749300D01*
Y739140D01*
D02*
G37*
G36*
X-529455Y748114D02*
X-529380Y747259D01*
X-529255Y746504D01*
X-529080Y745850D01*
X-528855Y745297D01*
X-528580Y744844D01*
X-528255Y744492D01*
X-527880Y744240D01*
X-527455Y744089D01*
X-526980Y744039D01*
X-536980D01*
X-536505Y744089D01*
X-536080Y744240D01*
X-535705Y744492D01*
X-535380Y744844D01*
X-535105Y745297D01*
X-534880Y745850D01*
X-534705Y746504D01*
X-534580Y747259D01*
X-534505Y748114D01*
X-534480Y749070D01*
X-529480D01*
X-529455Y748114D01*
D02*
G37*
G36*
X-585415Y745350D02*
X-586091Y744639D01*
X-586696Y743929D01*
X-587230Y743219D01*
X-587693Y742511D01*
X-588085Y741803D01*
X-588406Y741097D01*
X-588656Y740391D01*
X-588835Y739686D01*
X-588944Y738982D01*
X-588981Y738279D01*
X-588951Y749849D01*
X-588915Y749702D01*
X-588809Y749644D01*
X-588632Y749676D01*
X-588385Y749798D01*
X-588067Y750010D01*
X-587678Y750312D01*
X-586688Y751186D01*
X-585415Y752421D01*
Y745350D01*
D02*
G37*
G36*
X-106865Y748114D02*
X-106790Y747259D01*
X-106665Y746504D01*
X-106490Y745850D01*
X-106265Y745297D01*
X-105990Y744844D01*
X-105665Y744492D01*
X-105290Y744240D01*
X-104865Y744089D01*
X-104390Y744039D01*
X-114390D01*
X-113915Y744089D01*
X-113490Y744240D01*
X-113115Y744492D01*
X-112790Y744844D01*
X-112515Y745297D01*
X-112290Y745850D01*
X-112115Y746504D01*
X-111990Y747259D01*
X-111915Y748114D01*
X-111890Y749070D01*
X-106890D01*
X-106865Y748114D01*
D02*
G37*
G36*
X-175289Y737950D02*
X-175340Y738425D01*
X-175490Y738850D01*
X-175739Y739225D01*
X-176089Y739550D01*
X-176539Y739825D01*
X-177090Y740050D01*
X-177740Y740225D01*
X-178489Y740350D01*
X-179340Y740425D01*
X-180289Y740450D01*
Y745450D01*
X-179340Y745475D01*
X-178489Y745550D01*
X-177740Y745675D01*
X-177090Y745850D01*
X-176539Y746075D01*
X-176089Y746350D01*
X-175739Y746675D01*
X-175490Y747050D01*
X-175340Y747475D01*
X-175289Y747950D01*
Y737950D01*
D02*
G37*
G36*
X-188456Y747475D02*
X-188305Y747050D01*
X-188053Y746675D01*
X-187701Y746350D01*
X-187248Y746075D01*
X-186695Y745850D01*
X-186041Y745675D01*
X-185286Y745550D01*
X-184431Y745475D01*
X-183475Y745450D01*
Y740450D01*
X-184431Y740425D01*
X-185286Y740350D01*
X-186041Y740225D01*
X-186695Y740050D01*
X-187248Y739825D01*
X-187701Y739550D01*
X-188053Y739225D01*
X-188305Y738850D01*
X-188456Y738425D01*
X-188506Y737950D01*
Y747950D01*
X-188456Y747475D01*
D02*
G37*
G36*
X-75425Y748497D02*
X-75272Y748066D01*
X-75016Y747685D01*
X-74658Y747354D01*
X-74198Y747075D01*
X-73636Y746846D01*
X-72972Y746669D01*
X-72205Y746542D01*
X-71336Y746465D01*
X-70366Y746440D01*
Y741360D01*
X-71336Y741335D01*
X-72205Y741258D01*
X-72972Y741131D01*
X-73636Y740954D01*
X-74198Y740725D01*
X-74658Y740446D01*
X-75016Y740115D01*
X-75272Y739734D01*
X-75425Y739303D01*
X-75476Y738820D01*
Y748980D01*
X-75425Y748497D01*
D02*
G37*
G36*
X-291325Y748817D02*
X-291171Y748386D01*
X-290916Y748005D01*
X-290558Y747674D01*
X-290098Y747395D01*
X-289536Y747166D01*
X-288872Y746989D01*
X-288105Y746862D01*
X-287236Y746785D01*
X-286266Y746760D01*
Y741680D01*
X-287236Y741655D01*
X-288105Y741578D01*
X-288872Y741451D01*
X-289536Y741274D01*
X-290098Y741045D01*
X-290558Y740766D01*
X-290916Y740435D01*
X-291171Y740054D01*
X-291325Y739623D01*
X-291376Y739140D01*
Y749300D01*
X-291325Y748817D01*
D02*
G37*
G36*
X-63530Y738820D02*
X-63580Y739303D01*
X-63733Y739734D01*
X-63987Y740115D01*
X-64342Y740446D01*
X-64799Y740725D01*
X-65358Y740954D01*
X-66019Y741131D01*
X-66781Y741258D01*
X-67644Y741335D01*
X-68609Y741360D01*
Y746440D01*
X-67644Y746465D01*
X-66781Y746542D01*
X-66019Y746669D01*
X-65358Y746846D01*
X-64799Y747075D01*
X-64342Y747354D01*
X-63987Y747685D01*
X-63733Y748066D01*
X-63580Y748497D01*
X-63530Y748980D01*
Y738820D01*
D02*
G37*
G36*
X-382215Y745350D02*
X-382891Y744639D01*
X-383496Y743929D01*
X-384030Y743219D01*
X-384493Y742511D01*
X-384885Y741803D01*
X-385206Y741097D01*
X-385456Y740391D01*
X-385635Y739686D01*
X-385744Y738982D01*
X-385781Y738279D01*
X-385751Y749849D01*
X-385715Y749702D01*
X-385609Y749644D01*
X-385432Y749676D01*
X-385185Y749798D01*
X-384867Y750010D01*
X-384478Y750312D01*
X-383488Y751186D01*
X-382215Y752421D01*
Y745350D01*
D02*
G37*
G36*
X-607555Y770407D02*
X-607402Y769976D01*
X-607146Y769595D01*
X-606788Y769264D01*
X-606328Y768985D01*
X-605766Y768756D01*
X-605102Y768579D01*
X-604335Y768452D01*
X-603466Y768375D01*
X-602495Y768350D01*
Y763270D01*
X-603466Y763245D01*
X-604335Y763168D01*
X-605102Y763041D01*
X-605766Y762864D01*
X-606328Y762635D01*
X-606788Y762356D01*
X-607146Y762025D01*
X-607402Y761644D01*
X-607555Y761213D01*
X-607606Y760730D01*
Y770890D01*
X-607555Y770407D01*
D02*
G37*
G36*
X-799750D02*
X-799596Y769976D01*
X-799341Y769595D01*
X-798983Y769264D01*
X-798523Y768985D01*
X-797961Y768756D01*
X-797297Y768579D01*
X-796530Y768452D01*
X-795661Y768375D01*
X-794690Y768350D01*
Y763270D01*
X-795661Y763245D01*
X-796530Y763168D01*
X-797297Y763041D01*
X-797961Y762864D01*
X-798523Y762635D01*
X-798983Y762356D01*
X-799341Y762025D01*
X-799596Y761644D01*
X-799750Y761213D01*
X-799801Y760730D01*
Y770890D01*
X-799750Y770407D01*
D02*
G37*
G36*
X-594389Y760730D02*
X-594440Y761213D01*
X-594593Y761644D01*
X-594847Y762025D01*
X-595202Y762356D01*
X-595659Y762635D01*
X-596218Y762864D01*
X-596879Y763041D01*
X-597641Y763168D01*
X-598504Y763245D01*
X-599469Y763270D01*
Y768350D01*
X-598504Y768375D01*
X-597641Y768452D01*
X-596879Y768579D01*
X-596218Y768756D01*
X-595659Y768985D01*
X-595202Y769264D01*
X-594847Y769595D01*
X-594593Y769976D01*
X-594440Y770407D01*
X-594389Y770890D01*
Y760730D01*
D02*
G37*
G36*
X-391189D02*
X-391240Y761213D01*
X-391393Y761644D01*
X-391647Y762025D01*
X-392002Y762356D01*
X-392459Y762635D01*
X-393018Y762864D01*
X-393679Y763041D01*
X-394441Y763168D01*
X-395304Y763245D01*
X-396269Y763270D01*
Y768350D01*
X-395304Y768375D01*
X-394441Y768452D01*
X-393679Y768579D01*
X-393018Y768756D01*
X-392459Y768985D01*
X-392002Y769264D01*
X-391647Y769595D01*
X-391393Y769976D01*
X-391240Y770407D01*
X-391189Y770890D01*
Y760730D01*
D02*
G37*
G36*
X-404355Y770407D02*
X-404202Y769976D01*
X-403946Y769595D01*
X-403588Y769264D01*
X-403128Y768985D01*
X-402566Y768756D01*
X-401902Y768579D01*
X-401135Y768452D01*
X-400266Y768375D01*
X-399296Y768350D01*
Y763270D01*
X-400266Y763245D01*
X-401135Y763168D01*
X-401902Y763041D01*
X-402566Y762864D01*
X-403128Y762635D01*
X-403588Y762356D01*
X-403946Y762025D01*
X-404202Y761644D01*
X-404355Y761213D01*
X-404406Y760730D01*
Y770890D01*
X-404355Y770407D01*
D02*
G37*
G36*
X-639258Y759687D02*
X-639399Y759502D01*
X-639523Y759302D01*
X-639631Y759087D01*
X-639723Y758857D01*
X-639797Y758612D01*
X-639855Y758352D01*
X-639897Y758077D01*
X-639922Y757787D01*
X-639930Y757482D01*
X-642470D01*
X-642478Y757787D01*
X-642503Y758077D01*
X-642545Y758352D01*
X-642603Y758612D01*
X-642678Y758857D01*
X-642769Y759087D01*
X-642877Y759302D01*
X-643001Y759502D01*
X-643142Y759687D01*
X-643300Y759858D01*
X-639100D01*
X-639258Y759687D01*
D02*
G37*
G36*
X-166315Y745350D02*
X-166991Y744639D01*
X-167596Y743929D01*
X-168130Y743219D01*
X-168593Y742511D01*
X-168985Y741803D01*
X-169306Y741097D01*
X-169556Y740391D01*
X-169735Y739686D01*
X-169844Y738982D01*
X-169881Y738279D01*
X-169851Y749849D01*
X-169815Y749702D01*
X-169709Y749644D01*
X-169532Y749676D01*
X-169285Y749798D01*
X-168967Y750010D01*
X-168578Y750312D01*
X-167588Y751186D01*
X-166315Y752421D01*
Y745350D01*
D02*
G37*
G36*
X-443678Y759687D02*
X-443819Y759502D01*
X-443943Y759302D01*
X-444051Y759087D01*
X-444142Y758857D01*
X-444217Y758612D01*
X-444275Y758352D01*
X-444317Y758077D01*
X-444342Y757787D01*
X-444350Y757482D01*
X-446890D01*
X-446898Y757787D01*
X-446923Y758077D01*
X-446965Y758352D01*
X-447023Y758612D01*
X-447098Y758857D01*
X-447189Y759087D01*
X-447297Y759302D01*
X-447421Y759502D01*
X-447562Y759687D01*
X-447720Y759858D01*
X-443520D01*
X-443678Y759687D01*
D02*
G37*
G36*
X-805210Y760730D02*
X-805260Y761213D01*
X-805413Y761644D01*
X-805667Y762025D01*
X-806022Y762356D01*
X-806479Y762635D01*
X-807038Y762864D01*
X-807699Y763041D01*
X-808461Y763168D01*
X-809324Y763245D01*
X-810290Y763270D01*
Y768350D01*
X-809324Y768375D01*
X-808461Y768452D01*
X-807699Y768579D01*
X-807038Y768756D01*
X-806479Y768985D01*
X-806022Y769264D01*
X-805667Y769595D01*
X-805413Y769976D01*
X-805260Y770407D01*
X-805210Y770890D01*
Y760730D01*
D02*
G37*
G36*
X-818375Y770407D02*
X-818222Y769976D01*
X-817966Y769595D01*
X-817608Y769264D01*
X-817148Y768985D01*
X-816586Y768756D01*
X-815922Y768579D01*
X-815155Y768452D01*
X-814286Y768375D01*
X-813316Y768350D01*
Y763270D01*
X-814286Y763245D01*
X-815155Y763168D01*
X-815922Y763041D01*
X-816586Y762864D01*
X-817148Y762635D01*
X-817608Y762356D01*
X-817966Y762025D01*
X-818222Y761644D01*
X-818375Y761213D01*
X-818426Y760730D01*
Y770890D01*
X-818375Y770407D01*
D02*
G37*
G36*
X-391189Y737950D02*
X-391240Y738425D01*
X-391390Y738850D01*
X-391640Y739225D01*
X-391990Y739550D01*
X-392439Y739825D01*
X-392990Y740050D01*
X-393639Y740225D01*
X-394389Y740350D01*
X-395239Y740425D01*
X-396189Y740450D01*
Y745450D01*
X-395239Y745475D01*
X-394389Y745550D01*
X-393639Y745675D01*
X-392990Y745850D01*
X-392439Y746075D01*
X-391990Y746350D01*
X-391640Y746675D01*
X-391390Y747050D01*
X-391240Y747475D01*
X-391189Y747950D01*
Y737950D01*
D02*
G37*
G36*
X-738275Y729111D02*
X-738700Y728960D01*
X-739075Y728708D01*
X-739400Y728356D01*
X-739675Y727903D01*
X-739900Y727350D01*
X-740075Y726696D01*
X-740200Y725941D01*
X-740275Y725086D01*
X-740300Y724130D01*
X-745300D01*
X-745325Y725086D01*
X-745400Y725941D01*
X-745525Y726696D01*
X-745700Y727350D01*
X-745925Y727903D01*
X-746200Y728356D01*
X-746525Y728708D01*
X-746900Y728960D01*
X-747325Y729111D01*
X-747800Y729161D01*
X-737800D01*
X-738275Y729111D01*
D02*
G37*
G36*
X-112910Y711805D02*
X-117929D01*
X-117920Y716805D01*
X-112920D01*
X-112910Y711805D01*
D02*
G37*
G36*
X-557935Y729111D02*
X-558360Y728960D01*
X-558735Y728708D01*
X-559060Y728356D01*
X-559335Y727903D01*
X-559560Y727350D01*
X-559735Y726696D01*
X-559860Y725941D01*
X-559935Y725086D01*
X-559960Y724130D01*
X-564960D01*
X-564985Y725086D01*
X-565060Y725941D01*
X-565185Y726696D01*
X-565360Y727350D01*
X-565585Y727903D01*
X-565860Y728356D01*
X-566185Y728708D01*
X-566560Y728960D01*
X-566985Y729111D01*
X-567460Y729161D01*
X-557460D01*
X-557935Y729111D01*
D02*
G37*
G36*
X-140105D02*
X-140530Y728960D01*
X-140905Y728708D01*
X-141230Y728356D01*
X-141505Y727903D01*
X-141730Y727350D01*
X-141905Y726696D01*
X-142030Y725941D01*
X-142105Y725086D01*
X-142130Y724130D01*
X-147130D01*
X-147155Y725086D01*
X-147230Y725941D01*
X-147355Y726696D01*
X-147530Y727350D01*
X-147755Y727903D01*
X-148030Y728356D01*
X-148355Y728708D01*
X-148730Y728960D01*
X-148918Y729027D01*
X-148973Y729018D01*
X-149677Y728840D01*
X-150382Y728590D01*
X-151089Y728270D01*
X-151796Y727877D01*
X-152505Y727414D01*
X-153216Y726879D01*
X-153927Y726273D01*
X-154640Y725595D01*
X-161710D01*
X-161069Y726273D01*
X-160569Y726879D01*
X-160213Y727414D01*
X-159999Y727877D01*
X-159928Y728270D01*
X-159999Y728590D01*
X-160213Y728840D01*
X-160569Y729018D01*
X-161069Y729125D01*
X-161710Y729161D01*
X-139630D01*
X-140105Y729111D01*
D02*
G37*
G36*
X-354735D02*
X-355160Y728960D01*
X-355535Y728708D01*
X-355860Y728356D01*
X-356135Y727903D01*
X-356360Y727350D01*
X-356535Y726696D01*
X-356660Y725941D01*
X-356735Y725086D01*
X-356760Y724130D01*
X-361760D01*
X-361785Y725086D01*
X-361860Y725941D01*
X-361985Y726696D01*
X-362160Y727350D01*
X-362385Y727903D01*
X-362660Y728356D01*
X-362985Y728708D01*
X-363360Y728960D01*
X-363785Y729111D01*
X-364260Y729161D01*
X-354260D01*
X-354735Y729111D01*
D02*
G37*
G36*
X-344050Y711805D02*
X-349070D01*
X-349060Y716805D01*
X-344060D01*
X-344050Y711805D01*
D02*
G37*
G36*
X-356750D02*
X-361769D01*
X-361760Y716805D01*
X-356760D01*
X-356750Y711805D01*
D02*
G37*
G36*
X-331351D02*
X-336370D01*
X-336360Y716805D01*
X-331360D01*
X-331351Y711805D01*
D02*
G37*
G36*
X-125611D02*
X-130630D01*
X-130620Y716805D01*
X-125620D01*
X-125611Y711805D01*
D02*
G37*
G36*
X-138310D02*
X-143329D01*
X-143320Y716805D01*
X-138320D01*
X-138310Y711805D01*
D02*
G37*
G36*
X-110895Y729111D02*
X-111320Y728960D01*
X-111695Y728708D01*
X-112020Y728356D01*
X-112295Y727903D01*
X-112520Y727350D01*
X-112695Y726696D01*
X-112820Y725941D01*
X-112895Y725086D01*
X-112920Y724130D01*
X-117920D01*
X-117945Y725086D01*
X-118020Y725941D01*
X-118145Y726696D01*
X-118320Y727350D01*
X-118545Y727903D01*
X-118820Y728356D01*
X-119145Y728708D01*
X-119520Y728960D01*
X-119945Y729111D01*
X-120420Y729161D01*
X-110420D01*
X-110895Y729111D01*
D02*
G37*
G36*
X-805210Y737950D02*
X-805259Y738425D01*
X-805409Y738850D01*
X-805659Y739225D01*
X-806010Y739550D01*
X-806460Y739825D01*
X-807010Y740050D01*
X-807660Y740225D01*
X-808410Y740350D01*
X-809259Y740425D01*
X-810210Y740450D01*
Y745450D01*
X-809259Y745475D01*
X-808410Y745550D01*
X-807660Y745675D01*
X-807010Y745850D01*
X-806460Y746075D01*
X-806010Y746350D01*
X-805659Y746675D01*
X-805409Y747050D01*
X-805259Y747475D01*
X-805210Y747950D01*
Y737950D01*
D02*
G37*
G36*
X-818376Y747475D02*
X-818225Y747050D01*
X-817973Y746675D01*
X-817621Y746350D01*
X-817168Y746075D01*
X-816615Y745850D01*
X-815961Y745675D01*
X-815206Y745550D01*
X-814351Y745475D01*
X-813395Y745450D01*
Y740450D01*
X-814351Y740425D01*
X-815206Y740350D01*
X-815961Y740225D01*
X-816615Y740050D01*
X-817168Y739825D01*
X-817621Y739550D01*
X-817973Y739225D01*
X-818225Y738850D01*
X-818376Y738425D01*
X-818426Y737950D01*
Y747950D01*
X-818376Y747475D01*
D02*
G37*
G36*
X-607556D02*
X-607405Y747050D01*
X-607153Y746675D01*
X-606801Y746350D01*
X-606348Y746075D01*
X-605795Y745850D01*
X-605141Y745675D01*
X-604386Y745550D01*
X-603531Y745475D01*
X-602575Y745450D01*
Y740450D01*
X-603531Y740425D01*
X-604386Y740350D01*
X-605141Y740225D01*
X-605795Y740050D01*
X-606348Y739825D01*
X-606801Y739550D01*
X-607153Y739225D01*
X-607405Y738850D01*
X-607556Y738425D01*
X-607606Y737950D01*
Y747950D01*
X-607556Y747475D01*
D02*
G37*
G36*
X-404356D02*
X-404205Y747050D01*
X-403953Y746675D01*
X-403601Y746350D01*
X-403148Y746075D01*
X-402595Y745850D01*
X-401941Y745675D01*
X-401186Y745550D01*
X-400331Y745475D01*
X-399375Y745450D01*
Y740450D01*
X-400331Y740425D01*
X-401186Y740350D01*
X-401941Y740225D01*
X-402595Y740050D01*
X-403148Y739825D01*
X-403601Y739550D01*
X-403953Y739225D01*
X-404205Y738850D01*
X-404356Y738425D01*
X-404406Y737950D01*
Y747950D01*
X-404356Y747475D01*
D02*
G37*
G36*
X-594389Y737950D02*
X-594440Y738425D01*
X-594590Y738850D01*
X-594840Y739225D01*
X-595190Y739550D01*
X-595639Y739825D01*
X-596189Y740050D01*
X-596839Y740225D01*
X-597589Y740350D01*
X-598439Y740425D01*
X-599389Y740450D01*
Y745450D01*
X-598439Y745475D01*
X-597589Y745550D01*
X-596839Y745675D01*
X-596189Y745850D01*
X-595639Y746075D01*
X-595190Y746350D01*
X-594840Y746675D01*
X-594590Y747050D01*
X-594440Y747475D01*
X-594389Y747950D01*
Y737950D01*
D02*
G37*
G36*
X-538512Y729162D02*
X-538480Y729161D01*
X-532799D01*
X-532693Y729129D01*
X-532666Y729032D01*
X-532718Y728871D01*
X-532850Y728646D01*
X-533059Y728356D01*
X-533348Y728002D01*
X-534688Y726554D01*
X-535292Y725942D01*
X-538512Y729162D01*
X-538604Y729164D01*
X-538707Y729174D01*
X-538791Y729190D01*
X-538855Y729212D01*
X-538899Y729240D01*
X-538924Y729275D01*
X-538930Y729316D01*
X-538915Y729364D01*
X-538881Y729418D01*
X-538828Y729478D01*
X-538512Y729162D01*
D02*
G37*
G36*
X-323850Y729125D02*
X-324553Y729018D01*
X-325257Y728840D01*
X-325962Y728590D01*
X-326669Y728270D01*
X-327376Y727877D01*
X-328085Y727414D01*
X-328796Y726879D01*
X-329507Y726273D01*
X-330219Y725595D01*
X-335628Y727258D01*
X-335302Y727619D01*
X-335085Y727943D01*
X-334978Y728228D01*
X-334980Y728476D01*
X-335092Y728685D01*
X-335313Y728857D01*
X-335643Y728990D01*
X-336083Y729085D01*
X-336632Y729142D01*
X-337290Y729161D01*
X-323148D01*
X-323850Y729125D01*
D02*
G37*
G36*
X-773849Y729131D02*
X-773929Y729039D01*
X-773999Y728887D01*
X-774061Y728674D01*
X-774112Y728401D01*
X-774155Y728066D01*
X-774211Y727215D01*
X-774230Y726120D01*
X-779310D01*
X-779315Y726698D01*
X-779428Y728401D01*
X-779479Y728674D01*
X-779540Y728887D01*
X-779611Y729039D01*
X-779691Y729131D01*
X-779781Y729161D01*
X-773760D01*
X-773849Y729131D01*
D02*
G37*
G36*
X-79835Y737905D02*
X-79840Y737827D01*
X-79859Y736266D01*
X-79860Y735330D01*
X-84940D01*
X-84971Y737931D01*
X-79830D01*
X-79835Y737905D01*
D02*
G37*
G36*
X-293703Y737880D02*
X-294134Y737727D01*
X-294515Y737471D01*
X-294846Y737113D01*
X-295125Y736653D01*
X-295354Y736091D01*
X-295531Y735427D01*
X-295658Y734660D01*
X-295735Y733792D01*
X-295760Y732821D01*
X-300840D01*
X-300865Y733792D01*
X-300942Y734660D01*
X-301069Y735427D01*
X-301246Y736091D01*
X-301475Y736653D01*
X-301754Y737113D01*
X-302085Y737471D01*
X-302466Y737727D01*
X-302897Y737880D01*
X-303380Y737931D01*
X-293220D01*
X-293703Y737880D01*
D02*
G37*
G36*
X-349903Y785475D02*
X-350334Y785322D01*
X-350715Y785068D01*
X-351046Y784713D01*
X-351325Y784256D01*
X-351554Y783697D01*
X-351731Y783036D01*
X-351858Y782274D01*
X-351935Y781411D01*
X-351960Y780445D01*
X-357040D01*
X-357065Y781411D01*
X-357142Y782274D01*
X-357269Y783036D01*
X-357446Y783697D01*
X-357675Y784256D01*
X-357954Y784713D01*
X-358285Y785068D01*
X-358666Y785322D01*
X-359097Y785475D01*
X-359580Y785526D01*
X-349420D01*
X-349903Y785475D01*
D02*
G37*
G36*
X-550563D02*
X-550994Y785322D01*
X-551375Y785068D01*
X-551706Y784713D01*
X-551985Y784256D01*
X-552214Y783697D01*
X-552391Y783036D01*
X-552518Y782274D01*
X-552595Y781411D01*
X-552620Y780445D01*
X-557700D01*
X-557725Y781411D01*
X-557802Y782274D01*
X-557929Y783036D01*
X-558106Y783697D01*
X-558335Y784256D01*
X-558614Y784713D01*
X-558945Y785068D01*
X-559326Y785322D01*
X-559757Y785475D01*
X-560240Y785526D01*
X-550080D01*
X-550563Y785475D01*
D02*
G37*
G36*
X-146383D02*
X-146814Y785322D01*
X-147195Y785068D01*
X-147526Y784713D01*
X-147805Y784256D01*
X-148034Y783697D01*
X-148211Y783036D01*
X-148338Y782274D01*
X-148415Y781411D01*
X-148440Y780445D01*
X-153520D01*
X-153545Y781411D01*
X-153622Y782274D01*
X-153749Y783036D01*
X-153926Y783697D01*
X-154155Y784256D01*
X-154434Y784713D01*
X-154765Y785068D01*
X-155146Y785322D01*
X-155577Y785475D01*
X-156060Y785526D01*
X-145900D01*
X-146383Y785475D01*
D02*
G37*
G36*
X-527455Y785475D02*
X-527880Y785325D01*
X-528255Y785076D01*
X-528580Y784725D01*
X-528855Y784276D01*
X-529080Y783726D01*
X-529255Y783075D01*
X-529380Y782326D01*
X-529455Y781476D01*
X-529480Y780526D01*
X-534480D01*
X-534505Y781476D01*
X-534580Y782326D01*
X-534705Y783075D01*
X-534880Y783726D01*
X-535105Y784276D01*
X-535380Y784725D01*
X-535705Y785076D01*
X-536080Y785325D01*
X-536505Y785475D01*
X-536980Y785526D01*
X-526980D01*
X-527455Y785475D01*
D02*
G37*
G36*
X-730335D02*
X-730760Y785325D01*
X-731135Y785076D01*
X-731460Y784725D01*
X-731735Y784276D01*
X-731960Y783726D01*
X-732135Y783075D01*
X-732260Y782326D01*
X-732335Y781476D01*
X-732360Y780526D01*
X-737360D01*
X-737385Y781476D01*
X-737460Y782326D01*
X-737585Y783075D01*
X-737760Y783726D01*
X-737985Y784276D01*
X-738260Y784725D01*
X-738585Y785076D01*
X-738960Y785325D01*
X-739385Y785475D01*
X-739860Y785526D01*
X-729860D01*
X-730335Y785475D01*
D02*
G37*
G36*
X-328475Y778930D02*
X-328400Y778080D01*
X-328275Y777329D01*
X-328100Y776680D01*
X-327875Y776130D01*
X-327600Y775679D01*
X-327275Y775330D01*
X-326900Y775079D01*
X-326475Y774930D01*
X-326000Y774880D01*
X-336000D01*
X-335525Y774930D01*
X-335100Y775079D01*
X-334725Y775330D01*
X-334400Y775679D01*
X-334125Y776130D01*
X-333900Y776680D01*
X-333725Y777329D01*
X-333600Y778080D01*
X-333525Y778930D01*
X-333500Y779880D01*
X-328500D01*
X-328475Y778930D01*
D02*
G37*
G36*
X-351935Y778994D02*
X-351858Y778131D01*
X-351731Y777369D01*
X-351554Y776708D01*
X-351325Y776150D01*
X-351046Y775692D01*
X-350715Y775337D01*
X-350334Y775083D01*
X-349903Y774930D01*
X-349420Y774880D01*
X-359580D01*
X-359097Y774930D01*
X-358666Y775083D01*
X-358285Y775337D01*
X-357954Y775692D01*
X-357675Y776150D01*
X-357446Y776708D01*
X-357269Y777369D01*
X-357142Y778131D01*
X-357065Y778994D01*
X-357040Y779959D01*
X-351960D01*
X-351935Y778994D01*
D02*
G37*
G36*
X-148415D02*
X-148338Y778131D01*
X-148211Y777369D01*
X-148034Y776708D01*
X-147805Y776150D01*
X-147526Y775692D01*
X-147195Y775337D01*
X-146814Y775083D01*
X-146383Y774930D01*
X-145900Y774880D01*
X-156060D01*
X-155577Y774930D01*
X-155146Y775083D01*
X-154765Y775337D01*
X-154434Y775692D01*
X-154155Y776150D01*
X-153926Y776708D01*
X-153749Y777369D01*
X-153622Y778131D01*
X-153545Y778994D01*
X-153520Y779959D01*
X-148440D01*
X-148415Y778994D01*
D02*
G37*
G36*
X-753763Y785475D02*
X-754194Y785322D01*
X-754575Y785068D01*
X-754906Y784713D01*
X-755185Y784256D01*
X-755414Y783697D01*
X-755591Y783036D01*
X-755718Y782274D01*
X-755795Y781411D01*
X-755820Y780445D01*
X-760900D01*
X-760925Y781411D01*
X-761002Y782274D01*
X-761129Y783036D01*
X-761306Y783697D01*
X-761535Y784256D01*
X-761814Y784713D01*
X-762145Y785068D01*
X-762526Y785322D01*
X-762957Y785475D01*
X-763440Y785526D01*
X-753280D01*
X-753763Y785475D01*
D02*
G37*
G36*
X-125595Y778930D02*
X-125520Y778080D01*
X-125395Y777329D01*
X-125220Y776680D01*
X-124995Y776130D01*
X-124720Y775679D01*
X-124395Y775330D01*
X-124020Y775079D01*
X-123595Y774930D01*
X-123120Y774880D01*
X-133120D01*
X-132645Y774930D01*
X-132220Y775079D01*
X-131845Y775330D01*
X-131520Y775679D01*
X-131245Y776130D01*
X-131020Y776680D01*
X-130845Y777329D01*
X-130720Y778080D01*
X-130645Y778930D01*
X-130620Y779880D01*
X-125620D01*
X-125595Y778930D01*
D02*
G37*
G36*
X-274320Y844550D02*
Y835660D01*
Y792480D01*
X-280670Y786130D01*
X-281940Y784860D01*
X-283210Y783590D01*
X-328136D01*
X-328275Y783075D01*
X-328400Y782326D01*
X-328475Y781476D01*
X-328500Y780526D01*
X-333500D01*
X-333525Y781476D01*
X-333600Y782326D01*
X-333725Y783075D01*
X-333863Y783590D01*
X-335280D01*
X-337820Y786130D01*
Y829310D01*
X-317500Y849630D01*
X-279400D01*
X-274320Y844550D01*
D02*
G37*
G36*
X-351937Y803313D02*
X-351870Y802493D01*
X-351757Y801769D01*
X-351599Y801141D01*
X-351396Y800611D01*
X-351148Y800176D01*
X-350855Y799838D01*
X-350517Y799597D01*
X-350133Y799452D01*
X-349705Y799404D01*
X-359295D01*
X-358867Y799452D01*
X-358484Y799597D01*
X-358145Y799838D01*
X-357852Y800176D01*
X-357604Y800611D01*
X-357401Y801141D01*
X-357243Y801769D01*
X-357130Y802493D01*
X-357062Y803313D01*
X-357040Y804230D01*
X-351960D01*
X-351937Y803313D01*
D02*
G37*
G36*
X-552597D02*
X-552530Y802493D01*
X-552417Y801769D01*
X-552259Y801141D01*
X-552056Y800611D01*
X-551808Y800176D01*
X-551515Y799838D01*
X-551176Y799597D01*
X-550793Y799452D01*
X-550364Y799404D01*
X-559955D01*
X-559527Y799452D01*
X-559143Y799597D01*
X-558805Y799838D01*
X-558512Y800176D01*
X-558264Y800611D01*
X-558061Y801141D01*
X-557903Y801769D01*
X-557790Y802493D01*
X-557723Y803313D01*
X-557700Y804230D01*
X-552620D01*
X-552597Y803313D01*
D02*
G37*
G36*
X-765452Y807302D02*
X-765901Y807267D01*
X-766226Y807159D01*
X-766429Y806979D01*
X-766508Y806728D01*
X-766465Y806404D01*
X-766300Y806009D01*
X-766011Y805542D01*
X-765600Y805004D01*
X-765065Y804393D01*
X-764408Y803710D01*
X-769796Y801914D01*
X-770860Y802942D01*
X-772877Y804674D01*
X-773830Y805378D01*
X-774747Y805974D01*
X-775626Y806462D01*
X-776469Y806842D01*
X-777275Y807114D01*
X-778044Y807277D01*
X-778777Y807333D01*
X-765452Y807302D01*
D02*
G37*
G36*
X-562245Y817792D02*
X-562135Y817076D01*
X-561953Y816360D01*
X-561699Y815643D01*
X-561372Y814925D01*
X-560974Y814206D01*
X-560504Y813486D01*
X-559961Y812766D01*
X-559347Y812045D01*
X-558660Y811322D01*
Y804138D01*
X-559266Y804740D01*
X-562140Y807271D01*
X-562253Y807302D01*
X-562283Y818507D01*
X-562245Y817792D01*
D02*
G37*
G36*
X-360757Y816964D02*
X-360793Y816394D01*
X-360715Y815782D01*
X-360523Y815127D01*
X-360218Y814430D01*
X-359799Y813691D01*
X-359266Y812908D01*
X-358619Y812084D01*
X-357859Y811216D01*
X-356984Y810306D01*
X-357573Y803710D01*
X-358752Y804854D01*
X-360803Y806620D01*
X-361674Y807243D01*
X-362444Y807692D01*
X-363111Y807967D01*
X-363676Y808069D01*
X-364139Y807997D01*
X-364499Y807752D01*
X-364757Y807333D01*
X-360607Y817491D01*
X-360757Y816964D01*
D02*
G37*
G36*
X-692150Y857250D02*
Y835660D01*
Y810260D01*
Y806450D01*
X-712470Y786130D01*
X-742950D01*
Y806450D01*
Y854710D01*
Y857250D01*
X-739140Y861060D01*
X-695960D01*
X-692150Y857250D01*
D02*
G37*
G36*
X-81279Y849630D02*
X-74930Y843280D01*
Y833120D01*
Y807720D01*
X-96520Y786130D01*
X-99060Y783590D01*
X-125257D01*
X-125395Y783075D01*
X-125520Y782326D01*
X-125595Y781476D01*
X-125620Y780526D01*
X-130620D01*
X-130645Y781476D01*
X-130720Y782326D01*
X-130845Y783075D01*
X-130983Y783590D01*
X-133350D01*
X-134620Y784860D01*
Y798830D01*
Y835660D01*
X-129540Y840740D01*
X-120650Y849630D01*
X-81279Y849630D01*
D02*
G37*
G36*
X-486410Y852170D02*
Y838200D01*
Y814070D01*
X-487680Y812800D01*
X-514350Y786130D01*
X-538480D01*
Y845820D01*
Y850900D01*
X-534670Y854710D01*
X-532130Y857250D01*
X-491490D01*
X-486410Y852170D01*
D02*
G37*
G36*
X-762709Y802046D02*
X-760875Y800498D01*
X-760057Y799929D01*
X-759306Y799498D01*
X-758620Y799205D01*
X-758001Y799048D01*
X-757448Y799030D01*
X-756961Y799148D01*
X-756540Y799404D01*
X-764329Y792885D01*
X-764016Y793249D01*
X-763854Y793692D01*
X-763841Y794213D01*
X-763978Y794814D01*
X-764265Y795493D01*
X-764703Y796251D01*
X-765290Y797087D01*
X-766027Y798002D01*
X-767952Y800070D01*
X-763725Y803027D01*
X-762709Y802046D01*
D02*
G37*
G36*
X-156862Y801989D02*
X-154952Y800365D01*
X-154115Y799778D01*
X-153358Y799340D01*
X-152679Y799053D01*
X-152078Y798916D01*
X-151557Y798929D01*
X-151114Y799091D01*
X-150750Y799404D01*
X-157269Y791615D01*
X-157013Y792036D01*
X-156895Y792523D01*
X-156913Y793076D01*
X-157070Y793695D01*
X-157363Y794381D01*
X-157794Y795132D01*
X-158363Y795950D01*
X-159068Y796834D01*
X-160892Y798800D01*
X-157935Y803027D01*
X-156862Y801989D01*
D02*
G37*
G36*
X-529455Y776389D02*
X-529380Y775539D01*
X-529255Y774790D01*
X-529080Y774139D01*
X-528855Y773589D01*
X-528580Y773139D01*
X-528255Y772790D01*
X-527880Y772540D01*
X-527455Y772390D01*
X-526980Y772339D01*
X-536980D01*
X-536505Y772390D01*
X-536080Y772540D01*
X-535705Y772790D01*
X-535380Y773139D01*
X-535105Y773589D01*
X-534880Y774139D01*
X-534705Y774790D01*
X-534580Y775539D01*
X-534505Y776389D01*
X-534480Y777339D01*
X-529480D01*
X-529455Y776389D01*
D02*
G37*
G36*
X-291325Y771997D02*
X-291171Y771566D01*
X-290916Y771185D01*
X-290558Y770854D01*
X-290098Y770575D01*
X-289536Y770346D01*
X-288872Y770169D01*
X-288105Y770042D01*
X-287236Y769965D01*
X-286266Y769940D01*
Y764860D01*
X-287236Y764835D01*
X-288105Y764758D01*
X-288872Y764631D01*
X-289536Y764454D01*
X-290098Y764225D01*
X-290558Y763946D01*
X-290916Y763615D01*
X-291171Y763234D01*
X-291325Y762803D01*
X-291376Y762320D01*
Y772480D01*
X-291325Y771997D01*
D02*
G37*
G36*
X-588944Y769233D02*
X-588834Y769048D01*
X-588652Y768884D01*
X-588395Y768743D01*
X-588066Y768623D01*
X-587663Y768524D01*
X-587187Y768448D01*
X-586638Y768394D01*
X-585320Y768350D01*
Y763270D01*
X-586016Y763259D01*
X-587187Y763172D01*
X-587663Y763095D01*
X-588066Y762997D01*
X-588395Y762877D01*
X-588652Y762736D01*
X-588834Y762572D01*
X-588944Y762387D01*
X-588981Y762179D01*
Y769441D01*
X-588944Y769233D01*
D02*
G37*
G36*
X-279429Y762320D02*
X-279480Y762803D01*
X-279633Y763234D01*
X-279887Y763615D01*
X-280242Y763946D01*
X-280700Y764225D01*
X-281258Y764454D01*
X-281919Y764631D01*
X-282681Y764758D01*
X-283544Y764835D01*
X-284510Y764860D01*
Y769940D01*
X-283544Y769965D01*
X-282681Y770042D01*
X-281919Y770169D01*
X-281258Y770346D01*
X-280700Y770575D01*
X-280242Y770854D01*
X-279887Y771185D01*
X-279633Y771566D01*
X-279480Y771997D01*
X-279429Y772480D01*
Y762320D01*
D02*
G37*
G36*
X-63530D02*
X-63580Y762803D01*
X-63733Y763234D01*
X-63987Y763615D01*
X-64342Y763946D01*
X-64799Y764225D01*
X-65358Y764454D01*
X-66019Y764631D01*
X-66781Y764758D01*
X-67644Y764835D01*
X-68609Y764860D01*
Y769940D01*
X-67644Y769965D01*
X-66781Y770042D01*
X-66019Y770169D01*
X-65358Y770346D01*
X-64799Y770575D01*
X-64342Y770854D01*
X-63987Y771185D01*
X-63733Y771566D01*
X-63580Y771997D01*
X-63530Y772480D01*
Y762320D01*
D02*
G37*
G36*
X-75425Y771997D02*
X-75272Y771566D01*
X-75016Y771185D01*
X-74658Y770854D01*
X-74198Y770575D01*
X-73636Y770346D01*
X-72972Y770169D01*
X-72205Y770042D01*
X-71336Y769965D01*
X-70366Y769940D01*
Y764860D01*
X-71336Y764835D01*
X-72205Y764758D01*
X-72972Y764631D01*
X-73636Y764454D01*
X-74198Y764225D01*
X-74658Y763946D01*
X-75016Y763615D01*
X-75272Y763234D01*
X-75425Y762803D01*
X-75476Y762320D01*
Y772480D01*
X-75425Y771997D01*
D02*
G37*
G36*
X-175289Y760730D02*
X-175340Y761213D01*
X-175493Y761644D01*
X-175747Y762025D01*
X-176102Y762356D01*
X-176560Y762635D01*
X-177118Y762864D01*
X-177779Y763041D01*
X-178541Y763168D01*
X-179404Y763245D01*
X-180369Y763270D01*
Y768350D01*
X-179404Y768375D01*
X-178541Y768452D01*
X-177779Y768579D01*
X-177118Y768756D01*
X-176560Y768985D01*
X-176102Y769264D01*
X-175747Y769595D01*
X-175493Y769976D01*
X-175340Y770407D01*
X-175289Y770890D01*
Y760730D01*
D02*
G37*
G36*
X-188455Y770407D02*
X-188302Y769976D01*
X-188046Y769595D01*
X-187688Y769264D01*
X-187228Y768985D01*
X-186666Y768756D01*
X-186002Y768579D01*
X-185235Y768452D01*
X-184366Y768375D01*
X-183396Y768350D01*
Y763270D01*
X-184366Y763245D01*
X-185235Y763168D01*
X-186002Y763041D01*
X-186666Y762864D01*
X-187228Y762635D01*
X-187688Y762356D01*
X-188046Y762025D01*
X-188302Y761644D01*
X-188455Y761213D01*
X-188506Y760730D01*
Y770890D01*
X-188455Y770407D01*
D02*
G37*
G36*
X-169830D02*
X-169676Y769976D01*
X-169421Y769595D01*
X-169063Y769264D01*
X-168603Y768985D01*
X-168041Y768756D01*
X-167377Y768579D01*
X-166610Y768452D01*
X-165742Y768375D01*
X-164771Y768350D01*
Y763270D01*
X-165742Y763245D01*
X-166610Y763168D01*
X-167377Y763041D01*
X-168041Y762864D01*
X-168603Y762635D01*
X-169063Y762356D01*
X-169421Y762025D01*
X-169676Y761644D01*
X-169830Y761213D01*
X-169881Y760730D01*
Y770890D01*
X-169830Y770407D01*
D02*
G37*
G36*
X-527455Y766881D02*
X-527880Y766730D01*
X-528255Y766478D01*
X-528580Y766126D01*
X-528855Y765673D01*
X-529080Y765120D01*
X-529255Y764466D01*
X-529380Y763711D01*
X-529455Y762856D01*
X-529480Y761900D01*
X-534480D01*
X-534505Y762856D01*
X-534580Y763711D01*
X-534705Y764466D01*
X-534880Y765120D01*
X-535105Y765673D01*
X-535380Y766126D01*
X-535705Y766478D01*
X-536080Y766730D01*
X-536505Y766881D01*
X-536980Y766931D01*
X-526980D01*
X-527455Y766881D01*
D02*
G37*
G36*
X-730335D02*
X-730760Y766730D01*
X-731135Y766478D01*
X-731460Y766126D01*
X-731735Y765673D01*
X-731960Y765120D01*
X-732135Y764466D01*
X-732260Y763711D01*
X-732335Y762856D01*
X-732360Y761900D01*
X-737360D01*
X-737385Y762856D01*
X-737460Y763711D01*
X-737585Y764466D01*
X-737760Y765120D01*
X-737985Y765673D01*
X-738260Y766126D01*
X-738585Y766478D01*
X-738960Y766730D01*
X-739385Y766881D01*
X-739860Y766931D01*
X-729860D01*
X-730335Y766881D01*
D02*
G37*
G36*
X-326475Y769421D02*
X-326900Y769270D01*
X-327275Y769018D01*
X-327600Y768666D01*
X-327875Y768213D01*
X-328100Y767660D01*
X-328275Y767006D01*
X-328400Y766252D01*
X-328475Y765396D01*
X-328500Y764441D01*
X-333500D01*
X-333525Y765396D01*
X-333600Y766252D01*
X-333725Y767006D01*
X-333900Y767660D01*
X-334125Y768213D01*
X-334400Y768666D01*
X-334725Y769018D01*
X-335100Y769270D01*
X-335525Y769421D01*
X-336000Y769471D01*
X-326000D01*
X-326475Y769421D01*
D02*
G37*
G36*
X-361720Y769441D02*
X-361770Y769475D01*
X-361923Y769505D01*
X-362177Y769532D01*
X-362990Y769575D01*
X-366800Y769620D01*
Y774700D01*
X-361720Y774880D01*
Y769441D01*
D02*
G37*
G36*
X-562379Y766900D02*
X-562430Y766935D01*
X-562583Y766965D01*
X-562837Y766992D01*
X-563649Y767035D01*
X-567459Y767080D01*
Y772160D01*
X-562379Y772339D01*
Y766900D01*
D02*
G37*
G36*
X-755795Y776454D02*
X-755718Y775591D01*
X-755591Y774829D01*
X-755414Y774168D01*
X-755185Y773609D01*
X-754906Y773152D01*
X-754575Y772797D01*
X-754194Y772543D01*
X-753763Y772390D01*
X-753280Y772339D01*
X-763440D01*
X-762957Y772390D01*
X-762526Y772543D01*
X-762145Y772797D01*
X-761814Y773152D01*
X-761535Y773609D01*
X-761306Y774168D01*
X-761129Y774829D01*
X-761002Y775591D01*
X-760925Y776454D01*
X-760900Y777420D01*
X-755820D01*
X-755795Y776454D01*
D02*
G37*
G36*
X-552595D02*
X-552518Y775591D01*
X-552391Y774829D01*
X-552214Y774168D01*
X-551985Y773609D01*
X-551706Y773152D01*
X-551375Y772797D01*
X-550994Y772543D01*
X-550563Y772390D01*
X-550080Y772339D01*
X-560240D01*
X-559757Y772390D01*
X-559326Y772543D01*
X-558945Y772797D01*
X-558614Y773152D01*
X-558335Y773609D01*
X-558106Y774168D01*
X-557929Y774829D01*
X-557802Y775591D01*
X-557725Y776454D01*
X-557700Y777420D01*
X-552620D01*
X-552595Y776454D01*
D02*
G37*
G36*
X-732335Y776389D02*
X-732260Y775539D01*
X-732135Y774790D01*
X-731960Y774139D01*
X-731735Y773589D01*
X-731460Y773139D01*
X-731135Y772790D01*
X-730760Y772540D01*
X-730335Y772390D01*
X-729860Y772339D01*
X-739860D01*
X-739385Y772390D01*
X-738960Y772540D01*
X-738585Y772790D01*
X-738260Y773139D01*
X-737985Y773589D01*
X-737760Y774139D01*
X-737585Y774790D01*
X-737460Y775539D01*
X-737385Y776389D01*
X-737360Y777339D01*
X-732360D01*
X-732335Y776389D01*
D02*
G37*
G36*
X-89354Y764540D02*
X-89405Y765023D01*
X-89558Y765454D01*
X-89812Y765835D01*
X-90167Y766166D01*
X-90625Y766445D01*
X-91183Y766674D01*
X-91844Y766851D01*
X-92606Y766978D01*
X-93469Y767055D01*
X-94434Y767080D01*
Y772160D01*
X-93469Y772172D01*
X-91183Y772358D01*
X-90625Y772470D01*
X-90167Y772606D01*
X-89812Y772767D01*
X-89558Y772953D01*
X-89405Y773164D01*
X-89354Y773400D01*
Y764540D01*
D02*
G37*
G36*
X-305254D02*
X-305305Y765023D01*
X-305458Y765454D01*
X-305712Y765835D01*
X-306067Y766166D01*
X-306525Y766445D01*
X-307083Y766674D01*
X-307744Y766851D01*
X-308506Y766978D01*
X-309369Y767055D01*
X-310334Y767080D01*
Y772160D01*
X-309369Y772172D01*
X-307083Y772358D01*
X-306525Y772470D01*
X-306067Y772606D01*
X-305712Y772767D01*
X-305458Y772953D01*
X-305305Y773164D01*
X-305254Y773400D01*
Y764540D01*
D02*
G37*
G36*
X-147550Y769433D02*
X-148265Y769323D01*
X-148982Y769141D01*
X-149699Y768887D01*
X-150417Y768561D01*
X-151136Y768162D01*
X-151855Y767692D01*
X-152576Y767150D01*
X-153297Y766535D01*
X-154019Y765848D01*
X-159446Y767606D01*
X-159270Y767791D01*
X-159113Y767976D01*
X-158974Y768160D01*
X-158853Y768344D01*
X-158751Y768528D01*
X-158668Y768711D01*
X-158603Y768894D01*
X-158557Y769077D01*
X-158529Y769259D01*
X-158519Y769441D01*
X-146835Y769471D01*
X-147550Y769433D01*
D02*
G37*
G36*
X-765580Y766900D02*
X-765630Y766935D01*
X-765783Y766965D01*
X-766037Y766992D01*
X-766850Y767035D01*
X-770659Y767080D01*
Y772160D01*
X-765580Y772339D01*
Y766900D01*
D02*
G37*
G36*
X-120581Y769441D02*
X-120728Y769405D01*
X-120786Y769299D01*
X-120754Y769122D01*
X-120632Y768875D01*
X-120420Y768557D01*
X-120118Y768168D01*
X-119244Y767178D01*
X-118009Y765905D01*
X-125080D01*
X-125791Y766581D01*
X-126502Y767186D01*
X-127211Y767720D01*
X-127919Y768183D01*
X-128627Y768575D01*
X-129333Y768896D01*
X-130039Y769146D01*
X-130744Y769325D01*
X-131448Y769434D01*
X-132152Y769471D01*
X-120581Y769441D01*
D02*
G37*
G36*
X-572630Y631977D02*
X-572477Y631546D01*
X-572221Y631165D01*
X-571863Y630834D01*
X-571403Y630555D01*
X-570841Y630326D01*
X-570177Y630149D01*
X-569410Y630022D01*
X-568541Y629945D01*
X-567570Y629920D01*
Y624840D01*
X-568541Y624815D01*
X-569410Y624738D01*
X-570177Y624611D01*
X-570841Y624434D01*
X-571403Y624205D01*
X-571863Y623926D01*
X-572221Y623595D01*
X-572477Y623214D01*
X-572630Y622783D01*
X-572681Y622300D01*
Y632460D01*
X-572630Y631977D01*
D02*
G37*
G36*
X-768139Y622300D02*
X-768190Y622783D01*
X-768343Y623214D01*
X-768599Y623595D01*
X-768957Y623926D01*
X-769417Y624205D01*
X-769979Y624434D01*
X-770643Y624611D01*
X-771410Y624738D01*
X-772279Y624815D01*
X-773250Y624840D01*
Y629920D01*
X-772279Y629945D01*
X-771410Y630022D01*
X-770643Y630149D01*
X-769979Y630326D01*
X-769417Y630555D01*
X-768957Y630834D01*
X-768599Y631165D01*
X-768343Y631546D01*
X-768190Y631977D01*
X-768139Y632460D01*
Y622300D01*
D02*
G37*
G36*
X-562399D02*
X-562450Y622783D01*
X-562603Y623214D01*
X-562859Y623595D01*
X-563217Y623926D01*
X-563677Y624205D01*
X-564239Y624434D01*
X-564903Y624611D01*
X-565670Y624738D01*
X-566539Y624815D01*
X-567509Y624840D01*
Y629920D01*
X-566539Y629945D01*
X-565670Y630022D01*
X-564903Y630149D01*
X-564239Y630326D01*
X-563677Y630555D01*
X-563217Y630834D01*
X-562859Y631165D01*
X-562603Y631546D01*
X-562450Y631977D01*
X-562399Y632460D01*
Y622300D01*
D02*
G37*
G36*
X-139489D02*
X-139540Y622783D01*
X-139693Y623214D01*
X-139949Y623595D01*
X-140307Y623926D01*
X-140767Y624205D01*
X-141329Y624434D01*
X-141993Y624611D01*
X-142760Y624738D01*
X-143629Y624815D01*
X-143995Y624824D01*
X-144361Y624815D01*
X-145230Y624738D01*
X-145997Y624611D01*
X-146661Y624434D01*
X-147223Y624205D01*
X-147683Y623926D01*
X-148041Y623595D01*
X-148296Y623214D01*
X-148450Y622783D01*
X-148501Y622300D01*
Y632460D01*
X-148450Y631977D01*
X-148296Y631546D01*
X-148041Y631165D01*
X-147683Y630834D01*
X-147223Y630555D01*
X-146661Y630326D01*
X-145997Y630149D01*
X-145230Y630022D01*
X-144361Y629945D01*
X-143995Y629936D01*
X-143629Y629945D01*
X-142760Y630022D01*
X-141993Y630149D01*
X-141329Y630326D01*
X-140767Y630555D01*
X-140307Y630834D01*
X-139949Y631165D01*
X-139693Y631546D01*
X-139540Y631977D01*
X-139489Y632460D01*
Y622300D01*
D02*
G37*
G36*
X-357929D02*
X-357980Y622783D01*
X-358133Y623214D01*
X-358389Y623595D01*
X-358747Y623926D01*
X-359207Y624205D01*
X-359769Y624434D01*
X-360433Y624611D01*
X-361200Y624738D01*
X-362068Y624815D01*
X-362435Y624824D01*
X-362802Y624815D01*
X-363670Y624738D01*
X-364437Y624611D01*
X-365101Y624434D01*
X-365663Y624205D01*
X-366123Y623926D01*
X-366481Y623595D01*
X-366736Y623214D01*
X-366890Y622783D01*
X-366941Y622300D01*
Y632460D01*
X-366890Y631977D01*
X-366736Y631546D01*
X-366481Y631165D01*
X-366123Y630834D01*
X-365663Y630555D01*
X-365101Y630326D01*
X-364437Y630149D01*
X-363670Y630022D01*
X-362802Y629945D01*
X-362435Y629936D01*
X-362068Y629945D01*
X-361200Y630022D01*
X-360433Y630149D01*
X-359769Y630326D01*
X-359207Y630555D01*
X-358747Y630834D01*
X-358389Y631165D01*
X-358133Y631546D01*
X-357980Y631977D01*
X-357929Y632460D01*
Y622300D01*
D02*
G37*
G36*
X-72631Y618615D02*
X-72847Y618539D01*
X-73038Y618412D01*
X-73203Y618234D01*
X-73342Y618005D01*
X-73457Y617726D01*
X-73546Y617396D01*
X-73609Y617015D01*
X-73647Y616583D01*
X-73660Y616101D01*
X-76200D01*
X-76213Y616583D01*
X-76251Y617015D01*
X-76314Y617396D01*
X-76403Y617726D01*
X-76518Y618005D01*
X-76657Y618234D01*
X-76822Y618412D01*
X-77013Y618539D01*
X-77229Y618615D01*
X-77470Y618641D01*
X-72390D01*
X-72631Y618615D01*
D02*
G37*
G36*
X-128603Y620405D02*
X-129034Y620252D01*
X-129415Y619996D01*
X-129746Y619638D01*
X-130025Y619178D01*
X-130254Y618616D01*
X-130431Y617952D01*
X-130558Y617185D01*
X-130635Y616316D01*
X-130660Y615345D01*
X-135740D01*
X-135765Y616316D01*
X-135842Y617185D01*
X-135969Y617952D01*
X-136146Y618616D01*
X-136375Y619178D01*
X-136654Y619638D01*
X-136985Y619996D01*
X-137366Y620252D01*
X-137797Y620405D01*
X-138280Y620456D01*
X-128120D01*
X-128603Y620405D01*
D02*
G37*
G36*
X-553031Y620424D02*
X-553144Y620326D01*
X-553244Y620165D01*
X-553330Y619938D01*
X-553404Y619647D01*
X-553464Y619291D01*
X-553510Y618870D01*
X-553563Y617835D01*
X-553570Y617220D01*
X-558650D01*
X-558657Y617835D01*
X-558756Y619291D01*
X-558816Y619647D01*
X-558890Y619938D01*
X-558976Y620165D01*
X-559076Y620326D01*
X-559189Y620424D01*
X-559315Y620456D01*
X-552905D01*
X-553031Y620424D01*
D02*
G37*
G36*
X-778370Y631977D02*
X-778216Y631546D01*
X-777961Y631165D01*
X-777603Y630834D01*
X-777143Y630555D01*
X-776581Y630326D01*
X-775917Y630149D01*
X-775150Y630022D01*
X-774281Y629945D01*
X-773310Y629920D01*
Y624840D01*
X-774281Y624815D01*
X-775150Y624738D01*
X-775917Y624611D01*
X-776581Y624434D01*
X-777143Y624205D01*
X-777603Y623926D01*
X-777961Y623595D01*
X-778216Y623214D01*
X-778370Y622783D01*
X-778421Y622300D01*
Y632460D01*
X-778370Y631977D01*
D02*
G37*
G36*
X-40231Y617294D02*
X-40257Y617535D01*
X-40333Y617751D01*
X-40460Y617942D01*
X-40638Y618107D01*
X-40866Y618246D01*
X-41146Y618361D01*
X-41476Y618450D01*
X-41857Y618513D01*
X-42289Y618551D01*
X-42772Y618564D01*
Y621104D01*
X-42289Y621117D01*
X-41857Y621155D01*
X-41476Y621218D01*
X-41146Y621307D01*
X-40866Y621422D01*
X-40638Y621561D01*
X-40460Y621726D01*
X-40333Y621917D01*
X-40257Y622133D01*
X-40231Y622374D01*
Y617294D01*
D02*
G37*
G36*
X-31979Y632355D02*
X-31941Y631918D01*
X-31878Y631533D01*
X-31789Y631198D01*
X-31674Y630916D01*
X-31535Y630684D01*
X-31370Y630504D01*
X-31179Y630376D01*
X-30963Y630299D01*
X-30722Y630273D01*
X-35802D01*
X-35561Y630299D01*
X-35345Y630376D01*
X-35154Y630504D01*
X-34989Y630684D01*
X-34850Y630916D01*
X-34735Y631198D01*
X-34646Y631533D01*
X-34583Y631918D01*
X-34545Y632355D01*
X-34532Y632844D01*
X-31992D01*
X-31979Y632355D01*
D02*
G37*
G36*
X-114137Y636392D02*
X-114099Y635960D01*
X-114036Y635579D01*
X-113947Y635249D01*
X-113833Y634969D01*
X-113693Y634741D01*
X-113528Y634563D01*
X-113337Y634436D01*
X-113121Y634360D01*
X-112880Y634334D01*
X-116659D01*
X-116665Y634360D01*
X-116671Y634436D01*
X-116687Y635579D01*
X-116690Y636875D01*
X-114150D01*
X-114137Y636392D01*
D02*
G37*
G36*
X-332577D02*
X-332539Y635960D01*
X-332476Y635579D01*
X-332387Y635249D01*
X-332272Y634969D01*
X-332133Y634741D01*
X-331968Y634563D01*
X-331777Y634436D01*
X-331561Y634360D01*
X-331320Y634334D01*
X-335099D01*
X-335105Y634360D01*
X-335111Y634436D01*
X-335127Y635579D01*
X-335130Y636875D01*
X-332590D01*
X-332577Y636392D01*
D02*
G37*
G36*
X-727592Y644523D02*
X-727600Y642504D01*
X-727600Y641350D01*
X-732600D01*
X-732609Y644556D01*
X-727590D01*
X-727592Y644523D01*
D02*
G37*
G36*
X-318652Y644529D02*
X-318655Y644317D01*
X-318660Y641905D01*
X-323660D01*
X-323670Y644556D01*
X-318650D01*
X-318652Y644529D01*
D02*
G37*
G36*
X-521852D02*
X-521855Y644317D01*
X-521860Y641905D01*
X-526860D01*
X-526870Y644556D01*
X-521851D01*
X-521852Y644529D01*
D02*
G37*
G36*
X-547964Y635744D02*
X-548690Y634989D01*
X-549781Y633674D01*
X-550145Y633112D01*
X-550387Y632616D01*
X-550510Y632183D01*
X-550511Y631815D01*
X-550392Y631512D01*
X-550152Y631273D01*
X-549790Y631099D01*
X-559376Y634334D01*
X-558933Y634242D01*
X-558446Y634250D01*
X-557914Y634359D01*
X-557339Y634568D01*
X-556720Y634877D01*
X-556057Y635286D01*
X-555350Y635796D01*
X-554599Y636406D01*
X-552966Y637927D01*
X-547964Y635744D01*
D02*
G37*
G36*
X-753704D02*
X-754430Y634989D01*
X-755521Y633674D01*
X-755884Y633112D01*
X-756127Y632616D01*
X-756250Y632183D01*
X-756251Y631815D01*
X-756132Y631512D01*
X-755892Y631273D01*
X-755530Y631099D01*
X-765116Y634334D01*
X-764673Y634242D01*
X-764186Y634250D01*
X-763654Y634359D01*
X-763079Y634568D01*
X-762460Y634877D01*
X-761797Y635286D01*
X-761090Y635796D01*
X-760339Y636406D01*
X-758706Y637927D01*
X-753704Y635744D01*
D02*
G37*
G36*
X-740235Y638449D02*
X-740158Y637586D01*
X-740031Y636824D01*
X-739854Y636163D01*
X-739625Y635605D01*
X-739346Y635147D01*
X-739015Y634792D01*
X-738634Y634538D01*
X-738203Y634385D01*
X-737720Y634334D01*
X-745310D01*
X-745315Y634385D01*
X-745321Y634538D01*
X-745340Y639414D01*
X-740260D01*
X-740235Y638449D01*
D02*
G37*
G36*
X-344033D02*
X-344228Y636163D01*
X-344345Y635605D01*
X-344488Y635147D01*
X-344657Y634792D01*
X-344852Y634538D01*
X-345073Y634385D01*
X-345321Y634334D01*
X-351640D01*
X-351157Y634385D01*
X-350726Y634538D01*
X-350345Y634792D01*
X-350014Y635147D01*
X-349735Y635605D01*
X-349506Y636163D01*
X-349329Y636824D01*
X-349202Y637586D01*
X-349125Y638449D01*
X-349100Y639414D01*
X-344020D01*
X-344033Y638449D01*
D02*
G37*
G36*
X-534495D02*
X-534418Y637586D01*
X-534291Y636824D01*
X-534114Y636163D01*
X-533885Y635605D01*
X-533606Y635147D01*
X-533275Y634792D01*
X-532894Y634538D01*
X-532463Y634385D01*
X-531980Y634334D01*
X-539570D01*
X-539575Y634385D01*
X-539580Y634538D01*
X-539600Y639414D01*
X-534520D01*
X-534495Y638449D01*
D02*
G37*
G36*
X-801245Y620324D02*
X-801223Y615447D01*
X-801221Y612581D01*
X-801220D01*
X-801197Y610847D01*
X-800849Y606192D01*
X-800640Y604822D01*
X-800084Y602358D01*
X-799736Y601262D01*
X-799342Y600258D01*
X-798902Y599345D01*
X-798970D01*
X-798871Y598463D01*
X-798546Y597602D01*
X-798003Y596842D01*
X-797244Y596184D01*
X-796267Y595626D01*
X-795074Y595171D01*
X-793664Y594816D01*
X-793600Y594806D01*
X-793536Y594816D01*
X-792126Y595171D01*
X-790932Y595626D01*
X-789956Y596184D01*
X-789197Y596842D01*
X-788654Y597602D01*
X-788329Y598463D01*
X-788221Y599426D01*
Y594362D01*
X-788132Y594360D01*
Y584200D01*
X-788221Y584198D01*
Y579134D01*
X-788329Y580097D01*
X-788654Y580958D01*
X-789197Y581718D01*
X-789956Y582376D01*
X-790932Y582934D01*
X-792126Y583390D01*
X-793536Y583744D01*
X-793600Y583754D01*
X-793664Y583744D01*
X-795074Y583390D01*
X-796267Y582934D01*
X-797244Y582376D01*
X-798003Y581718D01*
X-798546Y580958D01*
X-798871Y580097D01*
X-798979Y579134D01*
Y584198D01*
X-799068Y584200D01*
Y594360D01*
X-798979Y594362D01*
Y599345D01*
X-813621D01*
Y594405D01*
X-811411Y594360D01*
Y584200D01*
X-813341Y584181D01*
X-813621Y584159D01*
Y579134D01*
X-813729Y580097D01*
X-814054Y580958D01*
X-814597Y581718D01*
X-815356Y582376D01*
X-816332Y582934D01*
X-817526Y583390D01*
X-818920Y583740D01*
X-819031Y583731D01*
X-819945Y583525D01*
X-820656Y583282D01*
X-821164Y583000D01*
X-821469Y582682D01*
X-821571Y582326D01*
Y584080D01*
X-822407Y584149D01*
X-824468Y584200D01*
Y594360D01*
X-822407Y594411D01*
X-821571Y594480D01*
Y596235D01*
X-821469Y595878D01*
X-821164Y595560D01*
X-820656Y595279D01*
X-819945Y595035D01*
X-819031Y594829D01*
X-818941Y594815D01*
X-818936Y594816D01*
X-817526Y595171D01*
X-816332Y595626D01*
X-815356Y596184D01*
X-814597Y596842D01*
X-814054Y597602D01*
X-813729Y598463D01*
X-813630Y599345D01*
X-813699D01*
X-813258Y600258D01*
X-812864Y601262D01*
X-812516Y602358D01*
X-812215Y603544D01*
X-811751Y606192D01*
X-811589Y607652D01*
X-811403Y610847D01*
X-811395Y611439D01*
X-811405Y612196D01*
X-811781Y616768D01*
X-812007Y617886D01*
X-812283Y618800D01*
X-812610Y619511D01*
X-812986Y620019D01*
X-813413Y620324D01*
X-813889Y620425D01*
X-801251D01*
X-801245Y620324D01*
D02*
G37*
G36*
X-511810Y614680D02*
X-426720D01*
X-424180Y612140D01*
Y607060D01*
X-424180Y599440D01*
X-426720Y596900D01*
X-431800D01*
X-433070Y595630D01*
Y588010D01*
Y576580D01*
X-435610Y574040D01*
X-530860D01*
X-532130Y575310D01*
X-532130Y612140D01*
X-529590Y614680D01*
X-511810Y614680D01*
D02*
G37*
G36*
X-595505Y620324D02*
X-595483Y615447D01*
X-595481Y612581D01*
X-595480D01*
X-595457Y610847D01*
X-595109Y606192D01*
X-594900Y604822D01*
X-594344Y602358D01*
X-593996Y601262D01*
X-593602Y600258D01*
X-593162Y599345D01*
X-593230D01*
X-593131Y598463D01*
X-592805Y597602D01*
X-592263Y596842D01*
X-591504Y596184D01*
X-590527Y595626D01*
X-589334Y595171D01*
X-587924Y594816D01*
X-587860Y594806D01*
X-587796Y594816D01*
X-586386Y595171D01*
X-585192Y595626D01*
X-584216Y596184D01*
X-583457Y596842D01*
X-582915Y597602D01*
X-582589Y598463D01*
X-582481Y599426D01*
Y594362D01*
X-582392Y594360D01*
Y584200D01*
X-582481Y584198D01*
Y579134D01*
X-582589Y580097D01*
X-582915Y580958D01*
X-583457Y581718D01*
X-584216Y582376D01*
X-585192Y582934D01*
X-586386Y583390D01*
X-587796Y583744D01*
X-587860Y583754D01*
X-587924Y583744D01*
X-589334Y583390D01*
X-590527Y582934D01*
X-591504Y582376D01*
X-592263Y581718D01*
X-592805Y580958D01*
X-593131Y580097D01*
X-593230Y579215D01*
X-593162D01*
X-593602Y578302D01*
X-593996Y577298D01*
X-594344Y576202D01*
X-594645Y575016D01*
X-594887Y573634D01*
X-594566Y572668D01*
X-593854Y571348D01*
X-592940Y570230D01*
X-591822Y569316D01*
X-590502Y568604D01*
X-588978Y568096D01*
X-587250Y567792D01*
X-585320Y567690D01*
X-600560Y557530D01*
X-615800Y567690D01*
X-613870Y567792D01*
X-612142Y568096D01*
X-610618Y568604D01*
X-609298Y569316D01*
X-608180Y570230D01*
X-607266Y571348D01*
X-606554Y572668D01*
X-606213Y573693D01*
X-606220Y573738D01*
X-606776Y576202D01*
X-607124Y577298D01*
X-607518Y578302D01*
X-607958Y579215D01*
X-607890D01*
X-607989Y580097D01*
X-608315Y580958D01*
X-608857Y581718D01*
X-609616Y582376D01*
X-610592Y582934D01*
X-611786Y583390D01*
X-613196Y583744D01*
X-614029Y583874D01*
X-615830Y583731D01*
X-616745Y583525D01*
X-617456Y583282D01*
X-617964Y583000D01*
X-618269Y582682D01*
X-618371Y582326D01*
Y584191D01*
X-618728Y584200D01*
Y594360D01*
X-618371Y594369D01*
Y596235D01*
X-618269Y595878D01*
X-617964Y595560D01*
X-617456Y595279D01*
X-616745Y595035D01*
X-615830Y594829D01*
X-614713Y594660D01*
X-614371Y594633D01*
X-613196Y594816D01*
X-611786Y595171D01*
X-610592Y595626D01*
X-609616Y596184D01*
X-608857Y596842D01*
X-608315Y597602D01*
X-607989Y598463D01*
X-607890Y599345D01*
X-607958D01*
X-607518Y600258D01*
X-607124Y601262D01*
X-606776Y602358D01*
X-606475Y603544D01*
X-606011Y606192D01*
X-605849Y607652D01*
X-605663Y610847D01*
X-605655Y611439D01*
X-605665Y612196D01*
X-606041Y616768D01*
X-606267Y617886D01*
X-606543Y618800D01*
X-606870Y619511D01*
X-607246Y620019D01*
X-607673Y620324D01*
X-608149Y620425D01*
X-595510D01*
X-595505Y620324D01*
D02*
G37*
G36*
X-374201Y594362D02*
X-374112Y594360D01*
Y584200D01*
X-374201Y584198D01*
Y579134D01*
X-374309Y580097D01*
X-374635Y580958D01*
X-375177Y581718D01*
X-375936Y582376D01*
X-376912Y582934D01*
X-378106Y583390D01*
X-379516Y583744D01*
X-379580Y583754D01*
X-379644Y583744D01*
X-381054Y583390D01*
X-382248Y582934D01*
X-383224Y582376D01*
X-383983Y581718D01*
X-384525Y580958D01*
X-384851Y580097D01*
X-384950Y579215D01*
X-384882D01*
X-385322Y578302D01*
X-385716Y577298D01*
X-386064Y576202D01*
X-386365Y575016D01*
X-386607Y573634D01*
X-386286Y572668D01*
X-385574Y571348D01*
X-384660Y570230D01*
X-383542Y569316D01*
X-382222Y568604D01*
X-380698Y568096D01*
X-378970Y567792D01*
X-377040Y567690D01*
X-392280Y557530D01*
X-407520Y567690D01*
X-405590Y567792D01*
X-403862Y568096D01*
X-402338Y568604D01*
X-401018Y569316D01*
X-399900Y570230D01*
X-398986Y571348D01*
X-398274Y572668D01*
X-397933Y573693D01*
X-397940Y573738D01*
X-398496Y576202D01*
X-398844Y577298D01*
X-399238Y578302D01*
X-399678Y579215D01*
X-384959D01*
Y584198D01*
X-385048Y584200D01*
Y594360D01*
X-384959Y594362D01*
Y599426D01*
X-384851Y598463D01*
X-384525Y597602D01*
X-383983Y596842D01*
X-383224Y596184D01*
X-382248Y595626D01*
X-381054Y595171D01*
X-379644Y594816D01*
X-379580Y594806D01*
X-379516Y594816D01*
X-378106Y595171D01*
X-376912Y595626D01*
X-375936Y596184D01*
X-375177Y596842D01*
X-374635Y597602D01*
X-374309Y598463D01*
X-374201Y599426D01*
Y594362D01*
D02*
G37*
G36*
X-187511Y594379D02*
X-186570Y594360D01*
Y584200D01*
X-187511Y584191D01*
Y579215D01*
X-172792D01*
X-173232Y578302D01*
X-173626Y577298D01*
X-173974Y576202D01*
X-174275Y575016D01*
X-174739Y572368D01*
X-174901Y570908D01*
X-175087Y567713D01*
X-175110Y565979D01*
X-185270D01*
X-185293Y567713D01*
X-185641Y572368D01*
X-185850Y573738D01*
X-186406Y576202D01*
X-186754Y577298D01*
X-187148Y578302D01*
X-187589Y579215D01*
X-187520D01*
X-187619Y580097D01*
X-187945Y580958D01*
X-188487Y581718D01*
X-189246Y582376D01*
X-190222Y582934D01*
X-191416Y583390D01*
X-192826Y583744D01*
X-193231Y583807D01*
X-194191Y583731D01*
X-195105Y583525D01*
X-195816Y583282D01*
X-196324Y583000D01*
X-196629Y582682D01*
X-196730Y582326D01*
Y584160D01*
X-198358Y584200D01*
Y594360D01*
X-196730Y594400D01*
Y596235D01*
X-196629Y595878D01*
X-196324Y595560D01*
X-195816Y595279D01*
X-195105Y595035D01*
X-194191Y594829D01*
X-193456Y594718D01*
X-192826Y594816D01*
X-191416Y595171D01*
X-190222Y595626D01*
X-189246Y596184D01*
X-188487Y596842D01*
X-187945Y597602D01*
X-187619Y598463D01*
X-187511Y599426D01*
Y594379D01*
D02*
G37*
G36*
X-639259Y542006D02*
X-639828Y541416D01*
X-640730Y540347D01*
X-641062Y539868D01*
X-641317Y539425D01*
X-641493Y539019D01*
X-641590Y538650D01*
X-641609Y538318D01*
X-641549Y538022D01*
X-641411Y537763D01*
X-644988Y542610D01*
X-644786Y542415D01*
X-644534Y542311D01*
X-644233Y542298D01*
X-643883Y542377D01*
X-643484Y542547D01*
X-643035Y542807D01*
X-642536Y543159D01*
X-641989Y543602D01*
X-640745Y544762D01*
X-639259Y542006D01*
D02*
G37*
G36*
X-445728Y544390D02*
X-444584Y543413D01*
X-444085Y543061D01*
X-443637Y542800D01*
X-443237Y542631D01*
X-442887Y542552D01*
X-442586Y542565D01*
X-442334Y542669D01*
X-442132Y542864D01*
X-445709Y538017D01*
X-445571Y538276D01*
X-445511Y538572D01*
X-445530Y538904D01*
X-445627Y539273D01*
X-445803Y539679D01*
X-446058Y540122D01*
X-446390Y540601D01*
X-446802Y541117D01*
X-447861Y542259D01*
X-446375Y545016D01*
X-445728Y544390D01*
D02*
G37*
G36*
X-825500Y1066799D02*
X-764539Y1005840D01*
X-491490Y1005840D01*
X-72390D01*
X-63500Y996950D01*
Y885190D01*
X-69850Y878840D01*
X-768350D01*
X-786130Y861060D01*
X-795020Y852170D01*
Y849630D01*
Y821690D01*
X-850900Y765810D01*
X-862330Y754380D01*
Y704850D01*
X-877570Y689610D01*
X-902970Y664210D01*
Y553720D01*
X-918210D01*
Y676910D01*
X-911860Y683260D01*
X-896620Y698500D01*
Y759460D01*
Y765810D01*
Y773430D01*
Y782320D01*
Y895350D01*
Y918210D01*
Y941070D01*
Y976630D01*
X-890270Y982980D01*
X-873760Y999490D01*
Y1038860D01*
X-873760Y1057910D01*
X-864870Y1066800D01*
X-825500Y1066799D01*
D02*
G37*
G36*
X-635000Y613410D02*
Y600710D01*
X-637540Y598170D01*
X-641350Y594360D01*
Y586740D01*
X-645160Y582930D01*
X-706120D01*
X-716280Y572770D01*
X-732790D01*
X-737870Y577850D01*
Y598170D01*
Y610870D01*
X-736600Y612140D01*
X-735330Y613410D01*
X-725170D01*
X-722630Y615950D01*
X-637540D01*
X-635000Y613410D01*
D02*
G37*
G36*
X-800023Y577656D02*
X-800274Y577354D01*
X-800496Y576851D01*
X-800688Y576146D01*
X-800850Y575240D01*
X-800983Y574133D01*
X-801161Y571314D01*
X-801220Y567690D01*
X-811380D01*
X-811395Y569603D01*
X-811750Y575240D01*
X-811912Y576146D01*
X-812104Y576851D01*
X-812326Y577354D01*
X-812578Y577656D01*
X-812858Y577757D01*
X-799742D01*
X-800023Y577656D01*
D02*
G37*
G36*
X-399697Y579383D02*
X-399795Y580346D01*
X-400109Y581208D01*
X-400640Y581969D01*
X-401390Y582628D01*
X-402356Y583186D01*
X-403540Y583643D01*
X-404941Y583998D01*
X-405764Y584127D01*
X-407551Y583985D01*
X-408465Y583779D01*
X-409176Y583535D01*
X-409684Y583254D01*
X-409989Y582936D01*
X-410090Y582579D01*
Y584445D01*
X-410448Y584454D01*
Y594614D01*
X-410090Y594623D01*
Y596488D01*
X-409989Y596132D01*
X-409684Y595814D01*
X-409176Y595532D01*
X-408465Y595289D01*
X-407551Y595083D01*
X-406433Y594914D01*
X-406069Y594885D01*
X-404871Y595070D01*
X-403447Y595424D01*
X-402240Y595880D01*
X-401250Y596438D01*
X-400478Y597096D01*
X-399923Y597856D01*
X-399585Y598717D01*
X-399465Y599680D01*
X-399697Y579383D01*
D02*
G37*
G36*
X-171566Y620324D02*
X-171777Y620019D01*
X-171963Y619511D01*
X-172124Y618800D01*
X-172260Y617886D01*
X-172458Y615447D01*
X-172570Y610266D01*
X-182730D01*
X-182742Y612196D01*
X-183176Y618800D01*
X-183337Y619511D01*
X-183523Y620019D01*
X-183734Y620324D01*
X-183969Y620425D01*
X-171331D01*
X-171566Y620324D01*
D02*
G37*
G36*
X-126848Y606429D02*
X-126669Y603771D01*
X-126627Y603738D01*
X-132153D01*
X-132111Y603771D01*
X-132073Y603871D01*
X-132039Y604037D01*
X-132010Y604270D01*
X-131966Y604934D01*
X-131930Y607060D01*
X-126850D01*
X-126848Y606429D01*
D02*
G37*
G36*
X-390006Y620330D02*
X-390217Y620043D01*
X-390403Y619566D01*
X-390564Y618897D01*
X-390700Y618037D01*
X-390898Y615743D01*
X-390998Y612686D01*
X-391010Y610870D01*
X-401170D01*
X-401182Y612686D01*
X-401616Y618897D01*
X-401777Y619566D01*
X-401963Y620043D01*
X-402174Y620330D01*
X-402410Y620425D01*
X-389771D01*
X-390006Y620330D01*
D02*
G37*
G36*
X-347043Y620405D02*
X-347474Y620252D01*
X-347855Y619996D01*
X-348186Y619638D01*
X-348465Y619178D01*
X-348694Y618616D01*
X-348871Y617952D01*
X-348998Y617185D01*
X-349075Y616316D01*
X-349100Y615345D01*
X-354180D01*
X-354205Y616316D01*
X-354282Y617185D01*
X-354409Y617952D01*
X-354586Y618616D01*
X-354815Y619178D01*
X-355094Y619638D01*
X-355425Y619996D01*
X-355806Y620252D01*
X-356237Y620405D01*
X-356720Y620456D01*
X-346560D01*
X-347043Y620405D01*
D02*
G37*
G36*
X-757253D02*
X-757684Y620252D01*
X-758065Y619996D01*
X-758396Y619638D01*
X-758675Y619178D01*
X-758904Y618616D01*
X-759081Y617952D01*
X-759208Y617185D01*
X-759285Y616316D01*
X-759310Y615345D01*
X-764390D01*
X-764415Y616316D01*
X-764492Y617185D01*
X-764619Y617952D01*
X-764796Y618616D01*
X-765025Y619178D01*
X-765304Y619638D01*
X-765635Y619996D01*
X-766016Y620252D01*
X-766447Y620405D01*
X-766930Y620456D01*
X-756770D01*
X-757253Y620405D01*
D02*
G37*
G36*
X-220897Y601917D02*
X-220699Y598760D01*
X-220580Y597988D01*
X-220435Y597357D01*
X-220263Y596866D01*
X-220065Y596515D01*
X-219841Y596305D01*
X-219590Y596235D01*
X-232229D01*
X-231979Y596305D01*
X-231754Y596515D01*
X-231557Y596866D01*
X-231385Y597357D01*
X-231240Y597988D01*
X-231121Y598760D01*
X-230963Y600724D01*
X-230910Y603250D01*
X-220910D01*
X-220897Y601917D01*
D02*
G37*
G36*
X-845737D02*
X-845539Y598760D01*
X-845420Y597988D01*
X-845275Y597357D01*
X-845103Y596866D01*
X-844905Y596515D01*
X-844681Y596305D01*
X-844430Y596235D01*
X-857069D01*
X-856819Y596305D01*
X-856594Y596515D01*
X-856397Y596866D01*
X-856225Y597357D01*
X-856080Y597988D01*
X-855961Y598760D01*
X-855803Y600724D01*
X-855750Y603250D01*
X-845750D01*
X-845737Y601917D01*
D02*
G37*
G36*
X-337031Y602938D02*
X-347215Y601806D01*
X-346650Y601922D01*
X-346244Y602126D01*
X-345998Y602418D01*
X-345913Y602799D01*
X-345987Y603268D01*
X-346222Y603825D01*
X-346616Y604471D01*
X-347171Y605205D01*
X-347885Y606027D01*
X-348760Y606938D01*
X-344221Y609583D01*
X-337031Y602938D01*
D02*
G37*
G36*
X-752945Y607342D02*
X-752826Y605678D01*
X-752722Y605001D01*
X-752588Y604429D01*
X-752424Y603961D01*
X-752231Y603597D01*
X-752008Y603337D01*
X-751755Y603181D01*
X-751472Y603129D01*
X-759528D01*
X-759245Y603181D01*
X-758992Y603337D01*
X-758769Y603597D01*
X-758576Y603961D01*
X-758412Y604429D01*
X-758278Y605001D01*
X-758174Y605678D01*
X-758100Y606458D01*
X-758040Y608330D01*
X-752960D01*
X-752945Y607342D01*
D02*
G37*
G36*
X-547195Y607679D02*
X-546993Y605592D01*
X-546817Y604744D01*
X-546590Y604027D01*
X-546312Y603440D01*
X-545985Y602984D01*
X-545607Y602658D01*
X-545178Y602462D01*
X-544699Y602397D01*
X-554821D01*
X-554342Y602462D01*
X-553913Y602658D01*
X-553535Y602984D01*
X-553207Y603440D01*
X-552930Y604027D01*
X-552703Y604744D01*
X-552527Y605592D01*
X-552401Y606570D01*
X-552325Y607679D01*
X-552300Y608918D01*
X-547220D01*
X-547195Y607679D01*
D02*
G37*
G36*
X-100212Y644529D02*
X-100215Y644317D01*
X-100220Y641905D01*
X-105220D01*
X-105230Y644556D01*
X-100211D01*
X-100212Y644529D01*
D02*
G37*
G36*
X-385700Y691915D02*
X-385550Y691490D01*
X-385300Y691115D01*
X-384950Y690790D01*
X-384501Y690515D01*
X-383951Y690290D01*
X-383301Y690115D01*
X-382551Y689990D01*
X-381701Y689915D01*
X-380751Y689890D01*
Y684890D01*
X-381701Y684865D01*
X-382551Y684790D01*
X-383301Y684665D01*
X-383951Y684490D01*
X-384501Y684265D01*
X-384950Y683990D01*
X-385300Y683665D01*
X-385550Y683290D01*
X-385700Y682865D01*
X-385751Y682390D01*
Y692390D01*
X-385700Y691915D01*
D02*
G37*
G36*
X-588900Y689375D02*
X-588750Y688950D01*
X-588501Y688575D01*
X-588150Y688250D01*
X-587701Y687975D01*
X-587150Y687750D01*
X-586501Y687575D01*
X-585751Y687450D01*
X-584901Y687375D01*
X-583951Y687350D01*
Y682350D01*
X-584901Y682325D01*
X-585751Y682250D01*
X-586501Y682125D01*
X-587150Y681950D01*
X-587701Y681725D01*
X-588150Y681450D01*
X-588501Y681125D01*
X-588750Y680750D01*
X-588900Y680325D01*
X-588951Y679850D01*
Y689850D01*
X-588900Y689375D01*
D02*
G37*
G36*
X-820239Y690819D02*
X-830461D01*
X-830440Y690870D01*
X-830421Y691025D01*
X-830404Y691282D01*
X-830350Y695960D01*
X-820350D01*
X-820239Y690819D01*
D02*
G37*
G36*
X-169851Y692069D02*
X-175289D01*
X-175248Y692120D01*
X-175210Y692270D01*
X-175178Y692520D01*
X-175125Y693319D01*
X-175070Y697069D01*
X-170070D01*
X-169851Y692069D01*
D02*
G37*
G36*
X-559950Y696626D02*
X-559923Y696572D01*
X-560011Y696413D01*
X-560213Y696148D01*
X-560529Y695777D01*
X-563829Y692330D01*
X-564832Y691322D01*
X-568505Y694721D01*
X-567518Y695743D01*
X-565963Y697578D01*
X-565396Y698390D01*
X-564970Y699132D01*
X-564683Y699804D01*
X-564537Y700406D01*
X-564531Y700938D01*
X-564665Y701400D01*
X-564939Y701792D01*
X-559950Y696626D01*
D02*
G37*
G36*
X-385714Y667633D02*
X-385605Y667448D01*
X-385424Y667284D01*
X-385170Y667143D01*
X-384843Y667023D01*
X-384444Y666925D01*
X-383971Y666848D01*
X-383427Y666794D01*
X-382120Y666750D01*
Y661670D01*
X-382810Y661659D01*
X-383971Y661572D01*
X-384444Y661496D01*
X-384843Y661397D01*
X-385170Y661277D01*
X-385424Y661136D01*
X-385605Y660972D01*
X-385714Y660787D01*
X-385751Y660580D01*
Y667840D01*
X-385714Y667633D01*
D02*
G37*
G36*
X-709463Y667503D02*
X-708724Y666904D01*
X-708376Y666678D01*
X-708042Y666502D01*
X-707722Y666375D01*
X-707417Y666297D01*
X-707126Y666268D01*
X-706849Y666289D01*
X-706587Y666359D01*
X-709572Y660027D01*
X-709632Y660160D01*
X-709729Y660322D01*
X-709863Y660513D01*
X-710243Y660985D01*
X-710773Y661577D01*
X-711848Y662685D01*
X-709854Y667876D01*
X-709463Y667503D01*
D02*
G37*
G36*
X-661512Y677313D02*
X-661487Y677023D01*
X-661445Y676748D01*
X-661387Y676488D01*
X-661312Y676243D01*
X-661221Y676013D01*
X-661113Y675798D01*
X-660989Y675598D01*
X-660848Y675413D01*
X-660690Y675242D01*
X-664890D01*
X-664732Y675413D01*
X-664591Y675598D01*
X-664467Y675798D01*
X-664359Y676013D01*
X-664268Y676243D01*
X-664193Y676488D01*
X-664135Y676748D01*
X-664093Y677023D01*
X-664068Y677313D01*
X-664060Y677618D01*
X-661520D01*
X-661512Y677313D01*
D02*
G37*
G36*
X-797180Y689447D02*
X-797027Y689016D01*
X-796773Y688635D01*
X-796418Y688304D01*
X-795960Y688025D01*
X-795402Y687796D01*
X-794741Y687619D01*
X-793979Y687492D01*
X-793116Y687415D01*
X-792150Y687390D01*
Y682310D01*
X-793116Y682285D01*
X-793979Y682208D01*
X-794741Y682081D01*
X-795402Y681904D01*
X-795960Y681675D01*
X-796418Y681396D01*
X-796773Y681065D01*
X-797027Y680684D01*
X-797180Y680253D01*
X-797231Y679770D01*
Y689930D01*
X-797180Y689447D01*
D02*
G37*
G36*
X-457042Y677313D02*
X-457017Y677023D01*
X-456975Y676748D01*
X-456917Y676488D01*
X-456842Y676243D01*
X-456751Y676013D01*
X-456643Y675798D01*
X-456519Y675598D01*
X-456378Y675413D01*
X-456220Y675242D01*
X-460420D01*
X-460262Y675413D01*
X-460121Y675598D01*
X-459997Y675798D01*
X-459889Y676013D01*
X-459798Y676243D01*
X-459723Y676488D01*
X-459665Y676748D01*
X-459623Y677023D01*
X-459598Y677313D01*
X-459590Y677618D01*
X-457050D01*
X-457042Y677313D01*
D02*
G37*
G36*
X-356750Y696626D02*
X-357188Y696590D01*
X-357655Y696484D01*
X-358149Y696307D01*
X-358672Y696060D01*
X-359223Y695742D01*
X-359803Y695353D01*
X-360411Y694893D01*
X-361712Y693762D01*
X-362405Y693090D01*
X-365305Y697261D01*
X-364380Y698221D01*
X-362908Y699973D01*
X-362362Y700765D01*
X-361942Y701500D01*
X-361648Y702179D01*
X-361482Y702802D01*
X-361441Y703368D01*
X-361527Y703878D01*
X-361739Y704332D01*
X-356750Y696626D01*
D02*
G37*
G36*
X-740291Y711805D02*
X-745310D01*
X-745300Y716805D01*
X-740300D01*
X-740291Y711805D01*
D02*
G37*
G36*
X-752990D02*
X-758009D01*
X-758000Y716805D01*
X-753000D01*
X-752990Y711805D01*
D02*
G37*
G36*
X-559950D02*
X-564969D01*
X-564960Y716805D01*
X-559960D01*
X-559950Y711805D01*
D02*
G37*
G36*
X-534551D02*
X-539570D01*
X-539560Y716805D01*
X-534560D01*
X-534551Y711805D01*
D02*
G37*
G36*
X-547251D02*
X-552270D01*
X-552260Y716805D01*
X-547260D01*
X-547251Y711805D01*
D02*
G37*
G36*
X-30963Y700369D02*
X-31179Y700292D01*
X-31370Y700164D01*
X-31535Y699984D01*
X-31674Y699752D01*
X-31789Y699470D01*
X-31878Y699135D01*
X-31941Y698750D01*
X-31979Y698313D01*
X-31992Y697824D01*
X-34532D01*
X-34545Y698313D01*
X-34583Y698750D01*
X-34646Y699135D01*
X-34735Y699470D01*
X-34850Y699752D01*
X-34989Y699984D01*
X-35154Y700164D01*
X-35345Y700292D01*
X-35561Y700369D01*
X-35802Y700395D01*
X-30722D01*
X-30963Y700369D01*
D02*
G37*
G36*
X-766700Y696656D02*
X-766950Y697083D01*
X-767305Y697334D01*
X-767763Y697410D01*
X-768325Y697310D01*
X-768992Y697036D01*
X-769762Y696586D01*
X-770637Y695961D01*
X-771615Y695160D01*
X-773885Y693033D01*
X-774302Y699800D01*
X-773435Y700703D01*
X-772038Y702384D01*
X-771508Y703164D01*
X-771089Y703903D01*
X-770783Y704601D01*
X-770589Y705258D01*
X-770507Y705874D01*
X-770537Y706450D01*
X-770679Y706985D01*
X-766700Y696656D01*
D02*
G37*
G36*
X-723998Y706724D02*
X-724685Y706002D01*
X-725300Y705281D01*
X-725842Y704560D01*
X-726313Y703840D01*
X-726711Y703122D01*
X-727037Y702404D01*
X-727291Y701686D01*
X-727473Y700970D01*
X-727583Y700255D01*
X-727621Y699540D01*
X-727590Y711805D01*
X-727287Y711826D01*
X-726971Y711889D01*
X-726642Y711994D01*
X-726301Y712141D01*
X-725948Y712331D01*
X-725583Y712562D01*
X-725205Y712836D01*
X-724815Y713151D01*
X-723998Y713909D01*
Y706724D01*
D02*
G37*
G36*
X-315058Y712439D02*
X-316021Y711441D01*
X-317545Y709630D01*
X-318105Y708818D01*
X-318532Y708068D01*
X-318824Y707381D01*
X-318982Y706756D01*
X-319006Y706193D01*
X-318895Y705693D01*
X-318650Y705255D01*
X-323670Y711805D01*
X-323483Y711840D01*
X-323241Y711948D01*
X-322942Y712128D01*
X-322588Y712379D01*
X-321711Y713098D01*
X-320610Y714103D01*
X-319286Y715397D01*
X-315058Y712439D01*
D02*
G37*
G36*
X-518258Y706724D02*
X-518945Y706002D01*
X-519560Y705281D01*
X-520102Y704560D01*
X-520573Y703840D01*
X-520971Y703122D01*
X-521297Y702404D01*
X-521551Y701686D01*
X-521733Y700970D01*
X-521843Y700255D01*
X-521881Y699540D01*
X-521851Y711805D01*
X-521547Y711826D01*
X-521231Y711889D01*
X-520902Y711994D01*
X-520561Y712141D01*
X-520209Y712331D01*
X-519843Y712562D01*
X-519465Y712836D01*
X-519075Y713151D01*
X-518258Y713909D01*
Y706724D01*
D02*
G37*
G36*
X-169800Y665947D02*
X-169647Y665516D01*
X-169393Y665135D01*
X-169038Y664804D01*
X-168580Y664525D01*
X-168022Y664296D01*
X-167361Y664119D01*
X-166599Y663992D01*
X-165736Y663915D01*
X-164771Y663890D01*
Y658810D01*
X-165736Y658785D01*
X-166599Y658708D01*
X-167361Y658581D01*
X-168022Y658404D01*
X-168580Y658175D01*
X-169038Y657896D01*
X-169393Y657565D01*
X-169647Y657184D01*
X-169800Y656753D01*
X-169851Y656270D01*
Y666430D01*
X-169800Y665947D01*
D02*
G37*
G36*
X-143299Y647065D02*
X-143350Y647548D01*
X-143503Y647979D01*
X-143759Y648360D01*
X-144117Y648691D01*
X-144577Y648970D01*
X-145139Y649199D01*
X-145803Y649376D01*
X-146570Y649503D01*
X-147438Y649580D01*
X-148410Y649605D01*
Y654685D01*
X-147438Y654710D01*
X-146570Y654787D01*
X-145803Y654914D01*
X-145139Y655091D01*
X-144577Y655320D01*
X-144117Y655599D01*
X-143759Y655930D01*
X-143503Y656311D01*
X-143350Y656742D01*
X-143299Y657225D01*
Y647065D01*
D02*
G37*
G36*
X-818375Y666267D02*
X-818222Y665836D01*
X-817966Y665455D01*
X-817608Y665124D01*
X-817148Y664845D01*
X-816586Y664616D01*
X-815922Y664439D01*
X-815155Y664312D01*
X-814286Y664235D01*
X-813316Y664210D01*
Y659130D01*
X-814286Y659105D01*
X-815155Y659028D01*
X-815922Y658901D01*
X-816586Y658724D01*
X-817148Y658495D01*
X-817608Y658216D01*
X-817966Y657885D01*
X-818222Y657504D01*
X-818375Y657073D01*
X-818426Y656590D01*
Y666750D01*
X-818375Y666267D01*
D02*
G37*
G36*
X-797180D02*
X-797027Y665836D01*
X-796773Y665455D01*
X-796418Y665124D01*
X-795960Y664845D01*
X-795402Y664616D01*
X-794741Y664439D01*
X-793979Y664312D01*
X-793116Y664235D01*
X-792150Y664210D01*
Y659130D01*
X-793116Y659105D01*
X-793979Y659028D01*
X-794741Y658901D01*
X-795402Y658724D01*
X-795960Y658495D01*
X-796418Y658216D01*
X-796773Y657885D01*
X-797027Y657504D01*
X-797180Y657073D01*
X-797231Y656590D01*
Y666750D01*
X-797180Y666267D01*
D02*
G37*
G36*
X-802639Y656590D02*
X-802690Y657073D01*
X-802843Y657504D01*
X-803099Y657885D01*
X-803457Y658216D01*
X-803917Y658495D01*
X-804479Y658724D01*
X-805143Y658901D01*
X-805910Y659028D01*
X-806778Y659105D01*
X-807749Y659130D01*
Y664210D01*
X-806778Y664235D01*
X-805910Y664312D01*
X-805143Y664439D01*
X-804479Y664616D01*
X-803917Y664845D01*
X-803457Y665124D01*
X-803099Y665455D01*
X-802843Y665836D01*
X-802690Y666267D01*
X-802639Y666750D01*
Y656590D01*
D02*
G37*
G36*
X-113146Y644530D02*
X-113357Y644454D01*
X-113543Y644327D01*
X-113704Y644149D01*
X-113840Y643921D01*
X-113952Y643641D01*
X-114038Y643311D01*
X-114100Y642930D01*
X-114138Y642498D01*
X-114150Y642016D01*
X-116690D01*
X-116702Y642498D01*
X-116740Y642930D01*
X-116802Y643311D01*
X-116888Y643641D01*
X-117000Y643921D01*
X-117136Y644149D01*
X-117297Y644327D01*
X-117483Y644454D01*
X-117694Y644530D01*
X-117929Y644556D01*
X-112910D01*
X-113146Y644530D01*
D02*
G37*
G36*
X-331586D02*
X-331797Y644454D01*
X-331983Y644327D01*
X-332144Y644149D01*
X-332280Y643921D01*
X-332392Y643641D01*
X-332478Y643311D01*
X-332540Y642930D01*
X-332578Y642498D01*
X-332590Y642016D01*
X-335130D01*
X-335142Y642498D01*
X-335180Y642930D01*
X-335242Y643311D01*
X-335328Y643641D01*
X-335440Y643921D01*
X-335576Y644149D01*
X-335737Y644327D01*
X-335923Y644454D01*
X-336134Y644530D01*
X-336370Y644556D01*
X-331351D01*
X-331586Y644530D01*
D02*
G37*
G36*
X-770679Y647065D02*
X-770730Y647548D01*
X-770883Y647979D01*
X-771139Y648360D01*
X-771497Y648691D01*
X-771957Y648970D01*
X-772519Y649199D01*
X-773183Y649376D01*
X-773950Y649503D01*
X-774818Y649580D01*
X-775789Y649605D01*
Y654685D01*
X-774818Y654710D01*
X-773950Y654787D01*
X-773183Y654914D01*
X-772519Y655091D01*
X-771957Y655320D01*
X-771497Y655599D01*
X-771139Y655930D01*
X-770883Y656311D01*
X-770730Y656742D01*
X-770679Y657225D01*
Y647065D01*
D02*
G37*
G36*
X-361739D02*
X-361790Y647548D01*
X-361943Y647979D01*
X-362199Y648360D01*
X-362557Y648691D01*
X-363017Y648970D01*
X-363579Y649199D01*
X-364243Y649376D01*
X-365010Y649503D01*
X-365878Y649580D01*
X-366850Y649605D01*
Y654685D01*
X-365878Y654710D01*
X-365010Y654787D01*
X-364243Y654914D01*
X-363579Y655091D01*
X-363017Y655320D01*
X-362557Y655599D01*
X-362199Y655930D01*
X-361943Y656311D01*
X-361790Y656742D01*
X-361739Y657225D01*
Y647065D01*
D02*
G37*
G36*
X-564939D02*
X-564990Y647548D01*
X-565143Y647979D01*
X-565399Y648360D01*
X-565757Y648691D01*
X-566217Y648970D01*
X-566779Y649199D01*
X-567443Y649376D01*
X-568210Y649503D01*
X-569078Y649580D01*
X-570050Y649605D01*
Y654685D01*
X-569078Y654710D01*
X-568210Y654787D01*
X-567443Y654914D01*
X-566779Y655091D01*
X-566217Y655320D01*
X-565757Y655599D01*
X-565399Y655930D01*
X-565143Y656311D01*
X-564990Y656742D01*
X-564939Y657225D01*
Y647065D01*
D02*
G37*
G36*
X-621484Y656590D02*
X-621535Y657073D01*
X-621688Y657504D01*
X-621942Y657885D01*
X-622297Y658216D01*
X-622755Y658495D01*
X-623313Y658724D01*
X-623974Y658901D01*
X-624736Y659028D01*
X-625599Y659105D01*
X-626564Y659130D01*
Y664210D01*
X-625599Y664235D01*
X-624736Y664312D01*
X-623974Y664439D01*
X-623313Y664616D01*
X-622755Y664845D01*
X-622297Y665124D01*
X-621942Y665455D01*
X-621688Y665836D01*
X-621535Y666267D01*
X-621484Y666750D01*
Y656590D01*
D02*
G37*
G36*
X-701072Y664988D02*
X-700829Y664824D01*
X-700548Y664680D01*
X-700230Y664556D01*
X-699875Y664450D01*
X-699483Y664364D01*
X-699053Y664296D01*
X-698587Y664248D01*
X-697543Y664210D01*
Y659130D01*
X-698084Y659120D01*
X-699053Y659044D01*
X-699483Y658976D01*
X-699875Y658890D01*
X-700230Y658784D01*
X-700548Y658660D01*
X-700829Y658516D01*
X-701072Y658352D01*
X-701279Y658170D01*
Y665170D01*
X-701072Y664988D01*
D02*
G37*
G36*
X-588914Y665093D02*
X-588805Y664908D01*
X-588624Y664744D01*
X-588370Y664603D01*
X-588043Y664483D01*
X-587644Y664385D01*
X-587172Y664308D01*
X-586627Y664254D01*
X-585320Y664210D01*
Y659130D01*
X-586010Y659119D01*
X-587172Y659032D01*
X-587644Y658956D01*
X-588043Y658857D01*
X-588370Y658737D01*
X-588624Y658596D01*
X-588805Y658432D01*
X-588914Y658247D01*
X-588951Y658039D01*
Y665301D01*
X-588914Y665093D01*
D02*
G37*
G36*
X-418284Y659130D02*
X-418335Y659613D01*
X-418488Y660044D01*
X-418742Y660425D01*
X-419097Y660756D01*
X-419554Y661035D01*
X-420113Y661264D01*
X-420774Y661441D01*
X-421536Y661568D01*
X-422399Y661645D01*
X-423364Y661670D01*
Y666750D01*
X-422399Y666775D01*
X-421536Y666852D01*
X-420774Y666979D01*
X-420113Y667156D01*
X-419554Y667385D01*
X-419097Y667664D01*
X-418742Y667995D01*
X-418488Y668376D01*
X-418335Y668807D01*
X-418284Y669290D01*
Y659130D01*
D02*
G37*
G36*
X-391159D02*
X-391210Y659613D01*
X-391363Y660044D01*
X-391619Y660425D01*
X-391977Y660756D01*
X-392437Y661035D01*
X-392999Y661264D01*
X-393663Y661441D01*
X-394430Y661568D01*
X-395299Y661645D01*
X-396269Y661670D01*
Y666750D01*
X-395299Y666775D01*
X-394430Y666852D01*
X-393663Y666979D01*
X-392999Y667156D01*
X-392437Y667385D01*
X-391977Y667664D01*
X-391619Y667995D01*
X-391363Y668376D01*
X-391210Y668807D01*
X-391159Y669290D01*
Y659130D01*
D02*
G37*
G36*
X-404355Y668807D02*
X-404202Y668376D01*
X-403946Y667995D01*
X-403588Y667664D01*
X-403128Y667385D01*
X-402566Y667156D01*
X-401902Y666979D01*
X-401135Y666852D01*
X-400266Y666775D01*
X-399296Y666750D01*
Y661670D01*
X-400266Y661645D01*
X-401135Y661568D01*
X-401902Y661441D01*
X-402566Y661264D01*
X-403128Y661035D01*
X-403588Y660756D01*
X-403946Y660425D01*
X-404202Y660044D01*
X-404355Y659613D01*
X-404406Y659130D01*
Y669290D01*
X-404355Y668807D01*
D02*
G37*
G36*
X-175259Y656590D02*
X-175310Y657073D01*
X-175463Y657504D01*
X-175719Y657885D01*
X-176077Y658216D01*
X-176537Y658495D01*
X-177099Y658724D01*
X-177763Y658901D01*
X-178530Y659028D01*
X-179398Y659105D01*
X-180369Y659130D01*
Y664210D01*
X-179398Y664235D01*
X-178530Y664312D01*
X-177763Y664439D01*
X-177099Y664616D01*
X-176537Y664845D01*
X-176077Y665124D01*
X-175719Y665455D01*
X-175463Y665836D01*
X-175310Y666267D01*
X-175259Y666750D01*
Y656590D01*
D02*
G37*
G36*
X-594359D02*
X-594410Y657073D01*
X-594563Y657504D01*
X-594819Y657885D01*
X-595177Y658216D01*
X-595637Y658495D01*
X-596199Y658724D01*
X-596863Y658901D01*
X-597630Y659028D01*
X-598498Y659105D01*
X-599469Y659130D01*
Y664210D01*
X-598498Y664235D01*
X-597630Y664312D01*
X-596863Y664439D01*
X-596199Y664616D01*
X-595637Y664845D01*
X-595177Y665124D01*
X-594819Y665455D01*
X-594563Y665836D01*
X-594410Y666267D01*
X-594359Y666750D01*
Y656590D01*
D02*
G37*
G36*
X-607555Y666267D02*
X-607402Y665836D01*
X-607146Y665455D01*
X-606788Y665124D01*
X-606328Y664845D01*
X-605766Y664616D01*
X-605102Y664439D01*
X-604335Y664312D01*
X-603466Y664235D01*
X-602495Y664210D01*
Y659130D01*
X-603466Y659105D01*
X-604335Y659028D01*
X-605102Y658901D01*
X-605766Y658724D01*
X-606328Y658495D01*
X-606788Y658216D01*
X-607146Y657885D01*
X-607402Y657504D01*
X-607555Y657073D01*
X-607606Y656590D01*
Y666750D01*
X-607555Y666267D01*
D02*
G37*
G36*
X-202384Y656590D02*
X-202435Y657073D01*
X-202588Y657504D01*
X-202842Y657885D01*
X-203197Y658216D01*
X-203654Y658495D01*
X-204213Y658724D01*
X-204874Y658901D01*
X-205636Y659028D01*
X-206499Y659105D01*
X-207465Y659130D01*
Y664210D01*
X-206499Y664235D01*
X-205636Y664312D01*
X-204874Y664439D01*
X-204213Y664616D01*
X-203654Y664845D01*
X-203197Y665124D01*
X-202842Y665455D01*
X-202588Y665836D01*
X-202435Y666267D01*
X-202384Y666750D01*
Y656590D01*
D02*
G37*
G36*
X-188455Y666267D02*
X-188302Y665836D01*
X-188046Y665455D01*
X-187688Y665124D01*
X-187228Y664845D01*
X-186666Y664616D01*
X-186002Y664439D01*
X-185235Y664312D01*
X-184366Y664235D01*
X-183396Y664210D01*
Y659130D01*
X-184366Y659105D01*
X-185235Y659028D01*
X-186002Y658901D01*
X-186666Y658724D01*
X-187228Y658495D01*
X-187688Y658216D01*
X-188046Y657885D01*
X-188302Y657504D01*
X-188455Y657073D01*
X-188506Y656590D01*
Y666750D01*
X-188455Y666267D01*
D02*
G37*
%LPC*%
G36*
X-593239Y599345D02*
X-607881D01*
Y579215D01*
X-593239D01*
Y584198D01*
X-593328Y584200D01*
Y594360D01*
X-593239Y594362D01*
Y599345D01*
D02*
G37*
%LPD*%
D10*
X-910590Y523980D02*
D03*
Y552980D02*
D03*
D11*
X-525780Y276860D02*
D03*
X-546100D02*
D03*
X-546100Y251460D02*
D03*
X-525780D02*
D03*
X-722630Y312420D02*
D03*
X-702310D02*
D03*
X-389890Y218440D02*
D03*
X-410210D02*
D03*
X-166370Y416560D02*
D03*
X-186690D02*
D03*
X-722630Y339090D02*
D03*
X-702310D02*
D03*
X-722630Y367030D02*
D03*
X-702310D02*
D03*
D12*
X-561340Y306070D02*
D03*
X-525780D02*
D03*
X-617220Y231140D02*
D03*
X-652780D02*
D03*
D13*
X-911860Y491490D02*
D03*
Y471170D02*
D03*
X-749300Y340360D02*
D03*
Y360680D02*
D03*
X-224790Y421640D02*
D03*
Y401320D02*
D03*
X-448310Y327660D02*
D03*
Y307340D02*
D03*
X-63500Y260350D02*
D03*
Y280670D02*
D03*
X-350520Y400050D02*
D03*
Y420370D02*
D03*
X-325120Y400050D02*
D03*
Y420370D02*
D03*
D14*
X-878840Y470640D02*
D03*
Y499640D02*
D03*
D15*
X-720090Y422910D02*
D03*
D16*
X-739140Y397910D02*
D03*
X-726440D02*
D03*
X-713740D02*
D03*
X-701040D02*
D03*
X-739140Y447910D02*
D03*
X-726440D02*
D03*
X-713740D02*
D03*
X-701040D02*
D03*
D17*
X-486540Y343700D02*
D03*
Y368700D02*
D03*
Y393700D02*
D03*
Y418700D02*
D03*
Y443700D02*
D03*
X-661540D02*
D03*
Y418700D02*
D03*
Y393700D02*
D03*
Y368700D02*
D03*
Y343700D02*
D03*
D18*
X-345440Y355600D02*
D03*
X-243840Y259080D02*
D03*
X-269240Y355600D02*
D03*
X-256540D02*
D03*
X-243840D02*
D03*
X-269240Y259080D02*
D03*
X-281940D02*
D03*
X-256540D02*
D03*
X-231140D02*
D03*
Y355600D02*
D03*
X-294640Y259080D02*
D03*
X-307340D02*
D03*
X-320040D02*
D03*
X-332740D02*
D03*
X-345440D02*
D03*
X-332740Y355600D02*
D03*
X-320040D02*
D03*
X-307340D02*
D03*
X-294640D02*
D03*
X-281940D02*
D03*
X-201930D02*
D03*
X-100330Y259080D02*
D03*
X-125730Y355600D02*
D03*
X-113030D02*
D03*
X-100330D02*
D03*
X-125730Y259080D02*
D03*
X-138430D02*
D03*
X-113030D02*
D03*
X-87630D02*
D03*
Y355600D02*
D03*
X-151130Y259080D02*
D03*
X-163830D02*
D03*
X-176530D02*
D03*
X-189230D02*
D03*
X-201930D02*
D03*
X-189230Y355600D02*
D03*
X-176530D02*
D03*
X-163830D02*
D03*
X-151130D02*
D03*
X-138430D02*
D03*
D19*
X-254000Y405130D02*
D03*
Y419131D02*
D03*
D20*
X-426190Y254000D02*
D03*
X-377190D02*
D03*
D21*
X-642620Y36830D02*
D03*
D22*
X-676620Y189974D02*
D03*
X-659620D02*
D03*
X-642620D02*
D03*
X-625620D02*
D03*
X-608620D02*
D03*
D23*
X-401320Y343770D02*
D03*
Y293770D02*
D03*
D24*
X-953770Y179070D02*
D03*
X-930910D02*
D03*
X-902970D02*
D03*
X-880110D02*
D03*
X-257810Y515620D02*
D03*
X-234950D02*
D03*
X-257810Y492760D02*
D03*
X-234950D02*
D03*
X-533250Y627380D02*
D03*
X-556110D02*
D03*
X-738990D02*
D03*
X-761850D02*
D03*
X-554840Y792480D02*
D03*
X-531980D02*
D03*
X-758040D02*
D03*
X-735180D02*
D03*
X-647550Y589280D02*
D03*
X-624690D02*
D03*
X-601830Y627380D02*
D03*
X-578970D02*
D03*
X-850750Y589280D02*
D03*
X-827890D02*
D03*
X-807570Y627380D02*
D03*
X-784710D02*
D03*
X-624840Y535686D02*
D03*
X-647700D02*
D03*
X-678180Y535940D02*
D03*
X-701040D02*
D03*
X-110340Y627380D02*
D03*
X-133200D02*
D03*
X-328780D02*
D03*
X-351640D02*
D03*
X-225910Y589280D02*
D03*
X-203050D02*
D03*
X-177650Y627380D02*
D03*
X-154790D02*
D03*
X-439270Y589534D02*
D03*
X-416410D02*
D03*
X-396090Y627380D02*
D03*
X-373230D02*
D03*
X-236220Y535940D02*
D03*
X-259080D02*
D03*
X-439420D02*
D03*
X-416560D02*
D03*
X-150980Y792480D02*
D03*
X-128120D02*
D03*
X-354180D02*
D03*
X-331320D02*
D03*
D25*
X10160Y241300D02*
D03*
Y218440D02*
D03*
X-614530Y684530D02*
D03*
Y661670D02*
D03*
X-825350Y684530D02*
D03*
Y661670D02*
D03*
X-411330Y687070D02*
D03*
Y664210D02*
D03*
X-195430Y661670D02*
D03*
Y684530D02*
D03*
X-825350Y742950D02*
D03*
Y765810D02*
D03*
X-298300Y767080D02*
D03*
Y744220D02*
D03*
X-82400Y767080D02*
D03*
Y744220D02*
D03*
X-411330Y765810D02*
D03*
Y742950D02*
D03*
X-195430Y765810D02*
D03*
Y742950D02*
D03*
X-614530Y765810D02*
D03*
Y742950D02*
D03*
D26*
X11738Y710834D02*
D03*
Y619834D02*
D03*
X-33262Y710834D02*
D03*
Y619834D02*
D03*
D27*
X-205709Y441960D02*
D03*
X-219710D02*
D03*
X-240000D02*
D03*
X-254000D02*
D03*
D28*
X-591670Y766130D02*
D03*
Y742630D02*
D03*
X-276710Y743900D02*
D03*
Y767400D02*
D03*
X-60810Y743900D02*
D03*
Y767400D02*
D03*
X-172570Y742630D02*
D03*
Y766130D02*
D03*
X-388470Y742630D02*
D03*
Y766130D02*
D03*
X-802490Y742630D02*
D03*
Y766130D02*
D03*
X-172570Y684850D02*
D03*
Y661350D02*
D03*
X-388470Y687390D02*
D03*
Y663890D02*
D03*
X-591670Y684850D02*
D03*
Y661350D02*
D03*
X-799950Y684850D02*
D03*
Y661350D02*
D03*
D29*
X-776770Y736600D02*
D03*
X-736770D02*
D03*
X-365290D02*
D03*
X-325290D02*
D03*
X-109390D02*
D03*
X-149390D02*
D03*
X-568170D02*
D03*
X-528170D02*
D03*
D30*
X-768200Y652145D02*
D03*
X-755500D02*
D03*
X-742800D02*
D03*
X-730100D02*
D03*
Y704215D02*
D03*
X-742800D02*
D03*
X-755500D02*
D03*
X-768200D02*
D03*
X-562460D02*
D03*
X-549760D02*
D03*
X-537060D02*
D03*
X-524360D02*
D03*
Y652145D02*
D03*
X-537060D02*
D03*
X-549760D02*
D03*
X-562460D02*
D03*
X-140820Y704215D02*
D03*
X-128120D02*
D03*
X-115420D02*
D03*
X-102720D02*
D03*
Y652145D02*
D03*
X-115420D02*
D03*
X-128120D02*
D03*
X-140820D02*
D03*
X-359260Y704215D02*
D03*
X-346560D02*
D03*
X-333860D02*
D03*
X-321160D02*
D03*
Y652145D02*
D03*
X-333860D02*
D03*
X-346560D02*
D03*
X-359260D02*
D03*
D31*
X-151300Y772160D02*
D03*
X-127800D02*
D03*
X-555160Y769620D02*
D03*
X-531660D02*
D03*
X-758360D02*
D03*
X-734860D02*
D03*
X-354500Y772160D02*
D03*
X-331000D02*
D03*
D32*
X-747268Y930656D02*
D03*
X-544068D02*
D03*
X-342392D02*
D03*
X-139446D02*
D03*
D33*
X-772922Y822272D02*
D03*
X-722122D02*
D03*
X-518922D02*
D03*
X-569722D02*
D03*
X-368046D02*
D03*
X-317246D02*
D03*
X-114300D02*
D03*
X-165100D02*
D03*
D34*
X-806300Y490271D02*
D03*
X-600560D02*
D03*
X-392280D02*
D03*
X-180190D02*
D03*
D35*
X-780900D02*
D03*
X-755500D02*
D03*
X-730100D02*
D03*
Y589280D02*
D03*
X-755500D02*
D03*
X-780900D02*
D03*
X-806300D02*
D03*
X-575160Y490271D02*
D03*
X-549760D02*
D03*
X-524360D02*
D03*
Y589280D02*
D03*
X-549760D02*
D03*
X-575160D02*
D03*
X-600560D02*
D03*
X-366880Y490271D02*
D03*
X-341480D02*
D03*
X-316080D02*
D03*
Y589280D02*
D03*
X-341480D02*
D03*
X-366880D02*
D03*
X-392280D02*
D03*
X-154790Y490271D02*
D03*
X-129390D02*
D03*
X-103990D02*
D03*
Y589280D02*
D03*
X-129390D02*
D03*
X-154790D02*
D03*
X-180190D02*
D03*
D36*
X-425590Y377940D02*
D03*
X-379590D02*
D03*
D37*
X-402590D02*
D03*
D38*
X-402590Y439940D02*
D03*
D39*
X-411330Y664210D02*
X-382120D01*
X-614530Y661670D02*
X-585320D01*
X-825350D02*
X-791060D01*
X-354500Y772160D02*
Y804230D01*
X-303380Y769620D02*
X-302110Y770890D01*
X-555160Y769620D02*
Y804230D01*
X-591990Y765810D02*
X-585320D01*
X-195430D02*
X-157650D01*
X-758360Y769620D02*
Y794070D01*
X-825350Y765810D02*
X-793600D01*
X-938530Y138430D02*
X-887730D01*
X-953770Y153670D02*
X-938530Y138430D01*
X-953770Y153670D02*
Y179070D01*
X-704850Y661670D02*
X-614530D01*
X-707240D02*
X-704850D01*
X-506580Y664210D02*
X-411330D01*
X-516740Y674370D02*
X-506580Y664210D01*
X-195430Y661670D02*
X-172890D01*
X-82080Y743900D02*
X-60810D01*
X-102720Y715010D02*
X-82400Y735330D01*
Y744220D01*
X-102720Y704215D02*
Y715010D01*
X-82080Y767400D02*
X-60810D01*
X-768200Y702310D02*
Y704215D01*
X-784710Y627380D02*
X-761850D01*
X-552300Y674370D02*
X-516740D01*
X-562460Y664210D02*
X-552300Y674370D01*
X-718670Y673100D02*
X-707240Y661670D01*
X-760580Y673100D02*
X-718670D01*
X-768200Y652145D02*
Y665480D01*
X-760580Y673100D01*
X-562460Y652145D02*
Y664210D01*
X-359260Y652145D02*
Y660400D01*
X-349100Y670560D01*
X-246230D01*
X-237340Y661670D01*
X-195430D01*
X-578970Y627380D02*
X-556110D01*
X-373230D02*
X-351640D01*
X-373230Y622300D02*
Y627380D01*
X-154790D02*
X-133200D01*
Y636270D01*
X-128120Y641350D01*
Y652145D01*
X-82400Y744220D02*
X-82080Y743900D01*
X-84940Y769620D02*
X-82400Y767080D01*
X-109070Y769620D02*
X-84940D01*
X-82400Y767080D02*
X-82080Y767400D01*
X-316080Y769620D02*
X-303380D01*
X-302110Y770890D02*
X-298300Y767080D01*
X-297980Y767400D01*
X-276710D01*
X-298300Y732790D02*
Y744220D01*
X-321160Y709930D02*
X-298300Y732790D01*
X-321160Y704215D02*
Y709930D01*
X-277030Y744220D02*
X-276710Y743900D01*
X-298300Y744220D02*
X-277030D01*
X-524360Y704215D02*
X-506580Y721995D01*
Y768350D01*
X-495150Y779780D01*
X-484990D01*
X-730100Y704215D02*
X-716130Y718185D01*
Y768350D01*
X-704700Y779780D01*
X-688190D01*
X-133200Y610870D02*
Y627380D01*
Y610870D02*
X-129390Y607060D01*
Y589280D02*
Y607060D01*
X-351640Y627380D02*
X-346560Y632460D01*
Y652145D01*
X-351640Y613410D02*
Y627380D01*
Y613410D02*
X-341480Y603250D01*
Y589280D02*
Y603250D01*
X-556110Y617220D02*
Y627380D01*
Y617220D02*
X-549760Y610870D01*
Y589280D02*
Y610870D01*
X-761850Y614680D02*
X-755500Y608330D01*
Y589280D02*
Y608330D01*
X-761850Y614680D02*
Y627380D01*
X-165100Y806600D02*
Y822272D01*
Y806600D02*
X-150980Y792480D01*
Y772480D02*
Y792480D01*
X-151300Y772160D02*
X-150980Y772480D01*
X-157650Y765810D02*
X-151300Y772160D01*
X-172890Y661670D02*
X-172570Y661350D01*
X-163360D01*
X-154155Y652145D01*
X-140820D01*
X-368046Y817776D02*
Y822272D01*
Y817776D02*
X-354500Y804230D01*
X-411330Y765810D02*
X-388790D01*
X-388470Y766130D01*
X-384340D01*
X-378310Y772160D01*
X-354500D01*
X-382120Y664210D02*
X-370055Y652145D01*
X-359260D01*
X-569722Y818792D02*
Y822272D01*
Y818792D02*
X-555160Y804230D01*
X-585320Y661670D02*
X-575795Y652145D01*
X-562460D01*
X-772922Y808632D02*
Y822272D01*
Y808632D02*
X-758360Y794070D01*
X-614530Y765810D02*
X-591990D01*
X-591670Y766130D01*
X-585320Y765810D02*
X-581510Y769620D01*
X-555160D01*
X-793600Y765810D02*
X-789790Y769620D01*
X-758360D01*
X-791060Y661670D02*
X-781535Y652145D01*
X-768200D01*
X-776770Y726120D02*
Y736600D01*
Y726120D02*
X-768200Y717550D01*
Y704215D02*
Y717550D01*
X-799950Y684850D02*
X-785660D01*
X-768200Y702310D01*
X-742800Y631190D02*
Y652145D01*
Y631190D02*
X-738990Y627380D01*
X-761850D02*
Y631190D01*
X-755500Y637540D01*
Y652145D01*
X-537060Y631190D02*
Y652145D01*
Y631190D02*
X-533250Y627380D01*
X-556110D02*
Y631190D01*
X-549760Y637540D01*
Y652145D01*
X-763270Y535940D02*
X-701040D01*
X-780900Y518310D02*
X-763270Y535940D01*
X-780900Y490271D02*
Y518310D01*
X-930910Y179070D02*
X-902970D01*
D40*
X-151130Y353060D02*
X-149860Y354330D01*
X-350520Y400050D02*
X-325120D01*
X-683260Y320040D02*
Y363220D01*
X-690880Y312420D02*
X-683260Y320040D01*
X-702310Y312420D02*
X-690880D01*
X-195580Y295910D02*
X-154940D01*
X-221996Y322326D02*
X-195580Y295910D01*
X-221996Y322326D02*
Y340360D01*
X-195580Y287020D02*
X-154940D01*
X-230876Y322316D02*
X-195580Y287020D01*
X-230876Y322316D02*
Y340350D01*
X-74930Y448310D02*
X-59690Y463550D01*
X-186690Y448310D02*
X-74930D01*
X-201930Y463550D02*
X-186690Y448310D01*
X-129390Y490271D02*
Y514500D01*
X-74930Y568960D01*
Y626110D01*
X-341480Y465940D02*
Y490271D01*
Y465940D02*
X-332740Y457200D01*
X-295910D01*
Y393700D02*
Y457200D01*
X-284480Y468630D02*
Y492760D01*
X-295910Y457200D02*
X-284480Y468630D01*
X-656590Y516890D02*
X-638810Y499110D01*
X-745490Y516890D02*
X-656590D01*
X-755500Y506880D02*
X-745490Y516890D01*
X-638810Y499110D02*
X-621030Y481330D01*
Y476250D02*
Y481330D01*
Y476250D02*
X-607060Y462280D01*
X-487680Y468630D02*
X-469900D01*
X-544830D02*
X-487680D01*
Y491490D01*
X-321310Y214630D02*
X-294640D01*
X-332740Y226060D02*
X-321310Y214630D01*
X-332740Y226060D02*
Y259080D01*
X-176530Y457200D02*
X-139700D01*
X-189230Y469900D02*
X-176530Y457200D01*
X-259080Y469900D02*
X-189230D01*
X-290830Y438150D02*
X-259080Y469900D01*
X-765810Y342900D02*
Y349250D01*
X-754380Y360680D01*
X-749300D01*
X-683260Y363220D02*
X-677780Y368700D01*
X-661540D01*
X-722630Y312420D02*
X-722630Y312420D01*
X-722630Y312420D02*
Y339090D01*
X-723900Y340360D02*
X-722630Y339090D01*
X-749300Y340360D02*
X-723900D01*
X-749300Y360680D02*
X-739140Y370840D01*
Y397910D01*
X-648100Y368700D02*
X-643890Y364490D01*
X-661540Y368700D02*
X-648100D01*
X-739140Y447910D02*
Y461010D01*
X-722630Y367030D02*
Y375920D01*
X-713740Y384810D01*
Y397910D01*
X-463550Y339090D02*
Y450850D01*
X-486410Y316230D02*
X-463550Y339090D01*
X-486410Y293370D02*
Y316230D01*
X-469900Y468630D02*
X-457200Y455930D01*
Y337820D02*
Y455930D01*
X-478790Y316230D02*
X-457200Y337820D01*
X-474980Y462280D02*
X-463550Y450850D01*
X-478790Y300990D02*
Y316230D01*
X-549760Y473560D02*
X-544830Y468630D01*
X-549760Y473560D02*
Y490271D01*
X-755500D02*
Y506880D01*
X-163830Y245110D02*
Y259080D01*
X-151130Y245110D02*
Y259080D01*
X-361950Y317500D02*
X-357124Y312674D01*
X-234950Y492760D02*
X-219710D01*
X-234950Y515620D02*
X-219710D01*
X-129390Y467510D02*
Y490271D01*
X-139700Y457200D02*
X-129390Y467510D01*
X-211582Y463550D02*
X-201930D01*
X-219710Y455422D02*
X-211582Y463550D01*
X-219710Y441960D02*
Y455422D01*
X-59690Y463550D02*
X-33020D01*
X-44376Y619834D02*
X-33262D01*
X-61362Y602848D02*
X-44376Y619834D01*
X-61362Y491892D02*
Y602848D01*
X-33262Y619834D02*
Y710834D01*
X-29210Y467360D02*
Y468630D01*
X-33020Y463550D02*
X-29210Y467360D01*
Y468630D02*
Y478790D01*
X-33020Y482600D02*
X-29210Y478790D01*
X-52070Y482600D02*
X-33020D01*
X-61362Y491892D02*
X-52070Y482600D01*
X-240000Y441960D02*
X-219710D01*
X-196850Y394970D02*
X-114300D01*
X-204470Y387350D02*
X-196850Y394970D01*
X-247650Y387350D02*
X-204470D01*
X-191770Y389890D02*
X-119380D01*
X-200660Y381000D02*
X-191770Y389890D01*
X-238760Y381000D02*
X-200660D01*
X-188770Y384000D02*
X-123650D01*
X-198120Y374650D02*
X-188770Y384000D01*
X-232410Y374650D02*
X-198120D01*
X-269240Y365760D02*
X-247650Y387350D01*
X-256540Y363220D02*
X-238760Y381000D01*
X-243840Y363220D02*
X-232410Y374650D01*
X-63500Y247650D02*
Y260350D01*
X-64770Y259080D02*
X-63500Y260350D01*
X-114300Y394970D02*
X-97790Y378460D01*
X-119380Y389890D02*
X-107950Y378460D01*
X-123650Y384000D02*
X-118110Y378460D01*
X-168910Y426720D02*
X-166370Y424180D01*
X-186690Y420370D02*
X-180340Y426720D01*
X-269240Y405130D02*
X-254000D01*
X-139700Y330200D02*
X-137160Y327660D01*
X-152400Y369570D02*
X-143510D01*
X-158750Y375920D02*
X-152400Y369570D01*
X-148590Y377190D02*
X-135890D01*
X-143510Y369570D02*
X-138430Y364490D01*
X-135890Y377190D02*
X-125730Y367030D01*
X-138430Y355600D02*
Y364490D01*
X-125730Y355600D02*
Y367030D01*
X-114300Y327660D02*
X-100330Y341630D01*
X-137160Y327660D02*
X-114300D01*
X-100330Y341630D02*
Y355600D01*
X-133350Y336550D02*
X-120650D01*
X-113030Y344170D01*
Y355600D01*
X-170180Y337820D02*
X-166370D01*
X-151130Y326390D02*
Y353060D01*
Y355600D02*
X-149860Y354330D01*
X-158750Y313690D02*
Y341630D01*
Y313690D02*
X-156210Y311150D01*
X-269240Y355600D02*
Y365760D01*
X-256540Y355600D02*
Y363220D01*
X-243840Y355600D02*
Y363220D01*
X-281940Y355600D02*
Y368300D01*
X-294640Y355600D02*
Y368300D01*
X-307340Y355600D02*
Y368300D01*
X-320040Y355600D02*
Y368300D01*
X-332740Y355600D02*
Y368300D01*
X-166370Y311150D02*
Y322580D01*
X-189230Y345440D02*
X-166370Y322580D01*
X-163830Y346710D02*
X-158750Y341630D01*
X-163830Y346710D02*
Y355600D01*
X-176530Y344170D02*
X-170180Y337820D01*
X-176530Y344170D02*
Y355600D01*
X-189230Y345440D02*
Y355600D01*
X-176530Y245110D02*
Y259080D01*
X-189230Y245110D02*
Y259080D01*
X-166370Y214370D02*
X-159000Y207000D01*
X-180080Y214370D02*
X-166370D01*
X-209550Y243840D02*
X-180080Y214370D01*
X-240030Y243840D02*
X-209550D01*
X-236220Y127020D02*
Y207010D01*
Y127020D02*
X-180000Y70800D01*
X-208000Y119000D02*
X-159800Y70800D01*
X-208000Y119000D02*
Y208280D01*
X-220000Y70800D02*
Y71410D01*
X-242570Y93980D02*
X-220000Y71410D01*
X-242570Y93980D02*
Y199365D01*
X-256565Y213360D02*
X-242570Y199365D01*
X-247650Y218440D02*
X-236220Y207010D01*
X-223240Y223520D02*
X-208000Y208280D01*
X-157770Y93000D02*
X-96000D01*
X-193040Y128270D02*
X-157770Y93000D01*
X-131000Y86000D02*
X-115800Y70800D01*
X-162000Y86000D02*
X-131000D01*
X-200000Y124000D02*
X-162000Y86000D01*
X-115800Y70800D02*
X-100000D01*
X-193040Y128270D02*
Y217170D01*
X-213360Y237490D02*
X-193040Y217170D01*
X-251460Y237490D02*
X-213360D01*
X-219710Y229870D02*
X-200000Y210160D01*
X-259080Y229870D02*
X-219710D01*
X-243840Y247650D02*
X-240030Y243840D01*
X-243840Y247650D02*
Y259080D01*
X-159000Y130000D02*
Y207000D01*
X-256540Y242570D02*
X-251460Y237490D01*
X-256540Y242570D02*
Y259080D01*
X-200000Y124000D02*
Y210160D01*
X-269240Y240030D02*
X-259080Y229870D01*
X-269240Y240030D02*
Y259080D01*
X-300000Y70800D02*
X-285750Y85050D01*
X-36970Y200800D02*
X-20000D01*
X-50800Y214630D02*
X-36970Y200800D01*
X-113030Y234950D02*
Y259080D01*
X-78880Y200800D02*
X-60000D01*
X-113030Y234950D02*
X-78880Y200800D01*
X-114440D02*
X-100000D01*
X-125730Y212090D02*
X-114440Y200800D01*
X-125730Y212090D02*
Y259080D01*
X-140000Y200800D02*
X-138430Y202370D01*
Y259080D01*
X-58200Y109000D02*
X-20000Y70800D01*
X-138000Y109000D02*
X-58200D01*
X-73800Y70800D02*
X-60000D01*
X-96000Y93000D02*
X-73800Y70800D01*
X-159000Y130000D02*
X-138000Y109000D01*
X-159800Y70800D02*
X-140000D01*
X-276000Y86800D02*
X-260000Y70800D01*
X-445620Y692150D02*
Y762000D01*
X-458320Y679450D02*
X-445620Y692150D01*
X-458320Y673100D02*
Y679450D01*
X-641200Y703580D02*
Y762000D01*
X-662790Y681990D02*
X-641200Y703580D01*
X-662790Y673100D02*
Y681990D01*
X-361950Y317500D02*
Y365760D01*
X-355346Y328168D02*
Y364490D01*
X-342646Y377190D01*
X-361950Y365760D02*
X-345440Y382270D01*
X-342646Y377190D02*
X-300990D01*
X-345440Y382270D02*
X-307340D01*
X-295910Y393700D01*
X-166370Y416560D02*
Y424180D01*
X-87630Y259080D02*
X-64770D01*
X-186690Y415290D02*
Y416560D01*
Y420370D01*
X-115420Y632460D02*
Y652145D01*
Y632460D02*
X-110340Y627380D01*
X-333860Y632460D02*
Y652145D01*
Y632460D02*
X-328780Y627380D01*
X-100330Y236220D02*
Y259080D01*
Y236220D02*
X-78740Y214630D01*
X-50800D01*
X-607060Y462280D02*
X-474980D01*
X-307340Y236220D02*
Y259080D01*
X-320040Y233680D02*
Y259080D01*
X-307340Y236220D02*
X-298450Y227330D01*
X-320040Y233680D02*
X-307340Y220980D01*
X-281940Y241300D02*
Y259080D01*
Y241300D02*
X-264160Y223520D01*
X-223240D01*
X-294640Y243840D02*
Y259080D01*
Y243840D02*
X-269240Y218440D01*
X-247650D01*
X-298450Y227330D02*
X-285750D01*
X-271780Y213360D01*
X-256565D01*
X-307340Y220980D02*
X-290830D01*
X-276000Y206150D01*
Y86800D02*
Y206150D01*
X-294640Y214630D02*
X-285750Y205740D01*
Y85050D02*
Y205740D01*
X-300990Y377190D02*
X-290830Y387350D01*
Y438150D01*
D41*
X-487680Y603250D02*
X-439270D01*
Y589534D02*
Y603250D01*
X-647550Y589280D02*
Y603250D01*
X-699770D02*
X-647550D01*
X-730100Y589280D02*
X-713740D01*
X-889230Y491490D02*
X-879960Y500760D01*
X10000Y590000D02*
Y709096D01*
X-52070Y312420D02*
Y376174D01*
X-504190Y340360D02*
X-500850Y343700D01*
X-425450Y307340D02*
X-414890D01*
X-448310D02*
X-425450D01*
X-759836Y164724D02*
X-690880Y233680D01*
X-511810Y589280D02*
X-501650D01*
X-524360D02*
X-511810D01*
X-713740D02*
X-699770Y603250D01*
X-730100Y589280D02*
Y608180D01*
X-504190Y337820D02*
Y340360D01*
X-424180Y218440D02*
X-410210D01*
X-509270D02*
X-424180D01*
X-408940Y229870D02*
X-401320Y237490D01*
X-410210Y228600D02*
X-408940Y229870D01*
X-504190Y327660D02*
Y337820D01*
Y259080D02*
Y327660D01*
Y393700D02*
X-486540D01*
X-511969D02*
X-504190D01*
X-511810Y251460D02*
X-504190Y259080D01*
X-525780Y251460D02*
X-511810D01*
X-500850Y343700D02*
X-486540D01*
X-525780Y251460D02*
X-525780Y251460D01*
X-525780Y251460D02*
Y276860D01*
X-880110Y179070D02*
X-868680D01*
X-377063Y72898D02*
Y91313D01*
X-406400Y120650D02*
X-377063Y91313D01*
X-257810Y504190D02*
Y515620D01*
Y492760D02*
Y504190D01*
Y478790D02*
Y492760D01*
X-52070Y312420D02*
X-24130Y284480D01*
X-15240D01*
X10000Y709096D02*
X11738Y710834D01*
X-817626Y56521D02*
Y138430D01*
X-887730D02*
X-817626D01*
X-607585Y189974D02*
X-588010Y209550D01*
X-608620Y189974D02*
X-607585D01*
X-783590Y56266D02*
Y164724D01*
X-661670Y231140D02*
X-652780D01*
X-783590Y164724D02*
X-759836D01*
X-652780Y231140D02*
X-642620Y220980D01*
Y189974D02*
Y220980D01*
X-676620Y189974D02*
Y216190D01*
X-661670Y231140D01*
X-625620Y222740D02*
X-617220Y231140D01*
X-625620Y189974D02*
Y222740D01*
X-595630Y119380D02*
X-544830D01*
X-625620Y149370D02*
X-595630Y119380D01*
X-625620Y149370D02*
Y189974D01*
X-659620D02*
X-659130Y189485D01*
X-407670Y119380D02*
X-406400Y120650D01*
X-461010Y119380D02*
X-407670D01*
X-406400Y172720D02*
X-397764Y181356D01*
X-374396D01*
X-52070Y376174D02*
X-23876D01*
X-16362Y383688D02*
Y505608D01*
X-36830Y501650D02*
X-20320D01*
X-23876Y376174D02*
X-16362Y383688D01*
X-254000Y419131D02*
Y441960D01*
X-195430Y684530D02*
Y694690D01*
X-411330Y687070D02*
Y697230D01*
X-614530Y684530D02*
Y694690D01*
X-225910Y589280D02*
Y603250D01*
X-850750Y589280D02*
Y603250D01*
X-414890Y307340D02*
X-401320Y293770D01*
X-410210Y218440D02*
Y228600D01*
Y203200D02*
Y218440D01*
X-817626Y164978D02*
Y174244D01*
X-588010Y209550D02*
Y238760D01*
X-607060Y257810D02*
X-588010Y238760D01*
X-825350Y684530D02*
Y695960D01*
X-401320Y274320D02*
Y293770D01*
X-20320Y501650D02*
X-16362Y505608D01*
X-817626Y138430D02*
Y158750D01*
X-406400Y120650D02*
Y172720D01*
X-525780Y234950D02*
X-509270Y218440D01*
X-525780Y234950D02*
Y251460D01*
X-642620Y36830D02*
Y71120D01*
Y171450D02*
Y189974D01*
X-910590Y492760D02*
Y523980D01*
X-911860Y491490D02*
X-910590Y492760D01*
X-879960Y500760D02*
X-878840Y499640D01*
X-911860Y491490D02*
X-889230D01*
X-878840Y499640D02*
X-859350D01*
X-501650Y589280D02*
X-487680Y603250D01*
X-730250Y608330D02*
X-730100Y608180D01*
X-316080Y589280D02*
Y608180D01*
X-316230Y608330D02*
X-316080Y608180D01*
X-103990Y589280D02*
Y606910D01*
X-105410Y608330D02*
X-103990Y606910D01*
X11738Y710834D02*
Y794712D01*
X3810Y802640D02*
X11738Y794712D01*
X-15240Y802640D02*
X3810D01*
X-16362Y505608D02*
X10160Y532130D01*
Y589840D01*
X10000Y590000D02*
X10160Y589840D01*
X-802640Y360680D02*
Y382270D01*
X-734060Y292100D02*
X-657860D01*
X-802640Y360680D02*
X-734060Y292100D01*
X-657860D02*
X-609600Y340360D01*
Y438150D01*
X-671830Y500380D02*
X-609600Y438150D01*
X-702310Y339090D02*
Y367030D01*
X-702310Y367030D01*
X-690880Y233680D02*
X-664210D01*
X-661670Y231140D01*
X-401320Y237490D02*
Y260350D01*
Y274320D01*
X-817626Y174244D02*
X-734060Y257810D01*
X-607060D01*
X-957580Y683260D02*
X-935078Y705762D01*
Y779780D01*
X-957580Y448310D02*
Y683260D01*
Y448310D02*
X-934720Y425450D01*
X-889000D01*
D42*
X-763905Y427355D02*
X-724535D01*
X-389890Y215900D02*
Y231140D01*
X-879960Y501060D02*
X-878840D01*
X-333860Y725490D02*
X-322750Y736600D01*
X-331000Y772160D02*
Y799150D01*
Y744850D02*
X-322750Y736600D01*
X-825350Y742950D02*
X-799630D01*
X-531980Y740410D02*
Y792480D01*
X-166370Y415290D02*
X-96520D01*
X-168910Y417830D02*
X-166370Y415290D01*
X-350520Y420370D02*
X-325120D01*
X-187960Y415290D02*
X-186690D01*
X-229870Y400050D02*
X-203200D01*
X-734860Y769620D02*
Y801690D01*
X-449580Y359410D02*
Y480060D01*
X-480060Y510540D02*
X-449580Y480060D01*
X-480060Y510540D02*
Y515620D01*
X-482600Y541020D02*
X-480060Y538480D01*
Y515620D02*
Y538480D01*
X-469900Y519430D02*
X-435610Y485140D01*
X-469900Y519430D02*
Y533400D01*
X-435610Y411480D02*
Y485140D01*
X-394970Y461010D02*
X-368300D01*
X-438150Y504190D02*
X-394970Y461010D01*
X-438150Y504190D02*
Y514350D01*
X-521970Y369570D02*
X-521100Y368700D01*
X-528320Y375920D02*
X-521970Y369570D01*
X-528320Y401320D02*
X-510940Y418700D01*
X-528320Y375920D02*
Y401320D01*
X-546100Y251460D02*
X-546100Y251460D01*
X-546100Y251460D02*
Y276860D01*
X-561340Y292100D02*
X-546100Y276860D01*
X-561340Y292100D02*
Y306070D01*
X-521970Y309880D02*
Y369570D01*
X-521100Y368700D02*
X-486540D01*
X-510940Y418700D02*
X-486540D01*
X-525780Y306070D02*
X-521970Y309880D01*
X-910590Y552980D02*
Y673100D01*
X-726440Y447910D02*
Y461010D01*
X-701040Y426720D02*
Y447910D01*
X-704850Y422910D02*
X-701040Y426720D01*
X-720090Y422910D02*
X-704850D01*
X-782320Y445770D02*
X-763905Y427355D01*
X-724535D02*
X-720090Y422910D01*
X-835660Y445770D02*
X-782320D01*
X-860530Y470640D02*
X-835660Y445770D01*
X-878840Y470640D02*
X-860530D01*
X-879370Y471170D02*
X-878840Y470640D01*
X-911860Y471170D02*
X-879370D01*
X-713740Y447910D02*
Y461010D01*
X-879960Y500760D02*
Y501060D01*
X-726440Y384810D02*
Y397910D01*
X-468630Y311150D02*
X-452120Y327660D01*
X-448310D01*
X-350520Y420370D02*
Y443230D01*
X-368300Y461010D02*
X-350520Y443230D01*
X-63500Y280670D02*
X-50800D01*
X-106680Y303530D02*
X-83820Y280670D01*
X-181610Y303530D02*
X-106680D01*
X-209550Y259080D02*
X-201930D01*
X-87630Y322580D02*
Y355600D01*
X-106680Y303530D02*
X-87630Y322580D01*
X-201930Y323850D02*
X-181610Y303530D01*
X-201930Y323850D02*
Y355600D01*
X-231140D02*
X-201930D01*
X-345440Y341630D02*
Y355600D01*
Y341630D02*
X-340360Y336550D01*
X-245110D01*
X-238386Y343274D01*
Y343447D01*
X-236340Y345493D01*
Y345513D01*
X-233993Y347860D01*
X-233800D01*
X-231140Y350520D01*
Y355600D01*
X-193040Y441960D02*
X-187960Y436880D01*
X-205709Y441960D02*
X-193040D01*
X-187960Y436880D02*
X-173990D01*
X-203200Y421640D02*
X-187960Y436880D01*
X-168910Y426720D02*
Y431800D01*
X-173990Y436880D02*
X-168910Y431800D01*
X-269240Y419100D02*
X-269209Y419131D01*
X-254000D01*
X-248951D02*
X-229870Y400050D01*
X-254000Y419131D02*
X-248951D01*
X-84074Y376174D02*
X-52070D01*
X-87630Y379730D02*
X-84074Y376174D01*
X-87630Y379730D02*
Y384810D01*
X-74930Y391160D02*
Y393700D01*
Y384810D02*
Y391160D01*
X-52070D01*
X-87630Y384810D02*
Y387350D01*
X-102870Y402590D02*
X-87630Y387350D01*
X-180340Y402590D02*
X-102870D01*
X-96520Y415290D02*
X-74930Y393700D01*
X-186690Y408940D02*
X-180340Y402590D01*
X-186690Y408940D02*
Y415290D01*
X-240030Y424180D02*
X-237490Y421640D01*
X-224790D01*
X-168910Y417830D02*
Y426720D01*
X-203200Y400050D02*
X-187960Y415290D01*
X-742800Y730570D02*
X-736770Y736600D01*
X-734860Y738510D02*
Y769620D01*
X-562460Y697230D02*
Y704215D01*
X-331000Y744850D02*
Y772160D01*
X-128120Y772480D02*
X-127800Y772160D01*
X-102720Y641905D02*
Y652145D01*
X-469750Y673100D02*
Y679450D01*
X-454510Y694690D02*
Y762000D01*
X-469750Y679450D02*
X-454510Y694690D01*
X-482450Y673100D02*
Y679450D01*
X-463400Y698500D01*
Y762000D01*
X-650090Y704850D02*
Y762000D01*
X-675490Y679450D02*
X-650090Y704850D01*
X-675490Y673100D02*
Y679450D01*
X-688190Y673100D02*
Y679450D01*
X-660250Y707390D01*
Y762000D01*
X-321160Y641905D02*
Y652145D01*
X-524360Y641905D02*
Y652145D01*
X-730100Y641350D02*
Y652145D01*
X-653900Y834390D02*
Y854710D01*
X-450700Y834390D02*
Y850900D01*
X-518922Y822272D02*
X-494462D01*
X-493880Y821690D01*
X-114300Y822272D02*
X-113718Y821690D01*
X-722122Y822272D02*
X-697662D01*
X-697080Y821690D01*
X-734860Y801690D02*
X-722122Y814428D01*
X-531980Y792480D02*
X-518922Y805538D01*
X-114300Y806300D02*
Y822272D01*
X-128120Y792480D02*
X-114300Y806300D01*
X-128120Y772480D02*
Y792480D01*
X-127800Y772160D02*
X-109390Y753750D01*
Y736600D02*
Y753750D01*
X-115420Y704215D02*
Y730570D01*
X-109390Y736600D01*
X-128120Y704215D02*
Y748030D01*
X-134470Y754380D02*
X-128120Y748030D01*
X-160820Y754380D02*
X-134470D01*
X-172570Y742630D02*
X-160820Y754380D01*
X-195430Y742950D02*
X-172890D01*
X-172570Y742630D01*
X-140820Y704215D02*
Y717550D01*
X-172570Y684850D02*
Y711200D01*
X-149390Y734380D01*
Y736600D01*
X-144630Y721360D02*
X-140820Y717550D01*
X-144630Y721360D02*
Y729620D01*
X-149390Y734380D02*
X-144630Y729620D01*
X-317246Y812904D02*
Y822272D01*
X-331000Y799150D02*
X-317246Y812904D01*
X-333860Y704215D02*
Y725490D01*
X-359260Y704215D02*
Y730570D01*
X-365290Y736600D02*
X-359260Y730570D01*
X-346560Y704215D02*
Y748030D01*
X-355450Y756920D02*
X-346560Y748030D01*
X-374180Y756920D02*
X-355450D01*
X-388470Y742630D02*
X-374180Y756920D01*
X-411330Y742950D02*
X-388790D01*
X-388470Y742630D01*
Y687390D02*
X-371640D01*
X-359260Y699770D01*
Y704215D01*
X-537060D02*
Y727710D01*
X-528170Y736600D01*
X-531980Y740410D02*
X-528170Y736600D01*
X-518922Y805538D02*
Y822272D01*
X-549760Y704215D02*
Y750570D01*
X-553570Y754380D02*
X-549760Y750570D01*
X-579920Y754380D02*
X-553570D01*
X-591670Y742630D02*
X-579920Y754380D01*
X-614530Y742950D02*
X-591990D01*
X-591670Y742630D01*
X-562460Y704215D02*
Y730890D01*
X-568170Y736600D02*
X-562460Y730890D01*
X-591670Y684850D02*
X-574840D01*
X-562460Y697230D01*
X-722122Y814428D02*
Y822272D01*
X-736770Y736600D02*
X-734860Y738510D01*
X-742800Y704215D02*
Y730570D01*
X-755500Y704215D02*
Y748030D01*
X-761850Y754380D02*
X-755500Y748030D01*
X-799950Y742630D02*
X-799630Y742950D01*
X-797410Y745170D01*
X-788200Y754380D01*
X-761850D01*
X-797410Y745170D02*
Y746760D01*
X-377190Y243840D02*
Y254000D01*
X-389890Y231140D02*
X-377190Y243840D01*
X-389890Y215900D02*
X-388620D01*
X-374396Y201676D01*
Y181356D02*
Y201676D01*
X-425590Y362090D02*
Y377940D01*
Y362090D02*
X-425450Y361950D01*
X-379590Y362090D02*
Y377940D01*
X-379730Y361950D02*
X-379590Y362090D01*
X-401320Y343770D02*
X-385210D01*
X-379730Y349250D01*
Y361950D01*
X-402590Y439940D02*
X-383020Y420370D01*
X-350520D01*
X-402590Y377940D02*
Y439940D01*
X-402590Y439940D01*
X-401320Y339090D02*
Y343770D01*
Y339090D02*
X-382270Y320040D01*
Y294640D02*
X-365760Y278130D01*
X-382270Y294640D02*
Y320040D01*
X-345440Y259080D02*
Y278130D01*
X-365760D02*
X-345440D01*
X-231140Y259080D02*
X-222250D01*
X-345440Y278130D02*
X-238760D01*
X-231140Y270510D01*
Y259080D02*
Y270510D01*
X-50800Y280670D02*
X-43180Y273050D01*
X-83820Y280670D02*
X-63500D01*
X-50800Y237490D02*
X-43180Y245110D01*
Y273050D01*
X-27940Y241300D02*
X10160D01*
Y208280D02*
Y218440D01*
X-224790Y421640D02*
X-203200D01*
X-448310Y327660D02*
X-412750D01*
X-401320Y339090D01*
X-236220Y535940D02*
X-173990D01*
X-154790Y516740D01*
Y490271D02*
Y516740D01*
X-416560Y535940D02*
X-386080D01*
X-366880Y516740D01*
Y490271D02*
Y516740D01*
X-449580Y359410D02*
X-433940Y343770D01*
X-401320D01*
X-166370Y416560D02*
X-160020D01*
X-138430Y438150D01*
X-127000D01*
X-435610Y411480D02*
X-425590Y401460D01*
X-653900Y854710D02*
X-636120Y872490D01*
X-627380D01*
X-447040Y254000D02*
X-426190D01*
X-317246Y822272D02*
X-312748Y826770D01*
X-302260D01*
X-113718Y821690D02*
X-97790D01*
X-450700Y850900D02*
X-429110Y872490D01*
X-425450D01*
X-910590Y673100D02*
X-889000Y694690D01*
Y770740D01*
X-879960Y779780D01*
X-701040Y368300D02*
Y397910D01*
X-702310Y367030D02*
X-701040Y368300D01*
Y397910D02*
X-692550D01*
X-688340Y393700D01*
X-661540D01*
X-408940Y45720D02*
X-381762Y72898D01*
X-377063D01*
X-659620Y147810D02*
Y189974D01*
Y147810D02*
X-557530Y45720D01*
X-408940D01*
X-425590Y377940D02*
Y393660D01*
Y401460D01*
X-878840Y25400D02*
X-830580D01*
X-817626Y38354D01*
Y56521D01*
X-468630Y257810D02*
Y311150D01*
Y257810D02*
X-464820Y254000D01*
X-457200D01*
X-447040D01*
D43*
X-801220Y562610D02*
X-600560D01*
X-806300Y567690D02*
Y589280D01*
X-154790Y570230D02*
Y589280D01*
X-162410Y562610D02*
X-154790Y570230D01*
X-182730Y562610D02*
X-162410D01*
X-827890Y589280D02*
X-806300D01*
X-624690D02*
X-600560D01*
X-392534Y589534D02*
X-392280Y589280D01*
X-416410Y589534D02*
X-392534D01*
X-203050Y589280D02*
X-180190D01*
X-392280Y562610D02*
X-182730D01*
X-180190Y565150D01*
Y589280D01*
X-600560Y562610D02*
Y589280D01*
X-392280Y562610D02*
Y589280D01*
X-806300Y567690D02*
X-801220Y562610D01*
X-180190Y589280D02*
Y607060D01*
X-177650Y609600D01*
Y627380D01*
X-392280Y589280D02*
Y607060D01*
X-396090Y610870D02*
X-392280Y607060D01*
X-396090Y610870D02*
Y627380D01*
X-807570D02*
X-806300Y626110D01*
Y589280D02*
Y626110D01*
Y589280D02*
X-780900D01*
X-600560D02*
X-575160D01*
X-601830Y627380D02*
X-600560Y626110D01*
Y589280D02*
Y626110D01*
X-392280Y589280D02*
X-366880D01*
X-600560Y562610D02*
X-392280D01*
D44*
X-880341Y779780D02*
Y923290D01*
X-872975Y930656D01*
X-747268D01*
X-342392D02*
X-139446D01*
X-544068D02*
X-342392D01*
X-747268D02*
X-544068D01*
D45*
X-284480Y535940D02*
X-259080D01*
X-306070Y514350D02*
X-284480Y535940D01*
X-438150Y514350D02*
Y534670D01*
X-439420Y535940D02*
X-438150Y534670D01*
X-452120Y548640D02*
X-439420Y535940D01*
X-647700Y535686D02*
X-634746Y548640D01*
X-452120D01*
X-677926Y535686D02*
X-647700D01*
X-678180Y535940D02*
X-677926Y535686D01*
X-624840D02*
X-589026D01*
X-575160Y521820D01*
Y490271D02*
Y521820D01*
D46*
X-284480Y492760D02*
D03*
X-638810Y499110D02*
D03*
X-487680Y491490D02*
D03*
X-74930Y626110D02*
D03*
X-46990Y327660D02*
D03*
X-723900Y210820D02*
D03*
X-641350Y635000D02*
D03*
X-675640D02*
D03*
X-438150Y638810D02*
D03*
X-469900D02*
D03*
X-904240Y25400D02*
D03*
D47*
X-15240Y828040D02*
D03*
X-180000Y150000D02*
D03*
X-220000D02*
D03*
X-260000D02*
D03*
X-300000D02*
D03*
X-260000Y20000D02*
D03*
X-20000D02*
D03*
X-300000D02*
D03*
X-60000D02*
D03*
X-20000Y150000D02*
D03*
X-100000Y20000D02*
D03*
X-60000Y150000D02*
D03*
X-140000Y20000D02*
D03*
X-100000Y150000D02*
D03*
X-180000Y20000D02*
D03*
X-140000Y150000D02*
D03*
X-220000Y20000D02*
D03*
X-15240Y259080D02*
D03*
D48*
Y802640D02*
D03*
Y777240D02*
D03*
Y751840D02*
D03*
X-878840Y25400D02*
D03*
X-180000Y175400D02*
D03*
Y200800D02*
D03*
X-220000Y175400D02*
D03*
Y200800D02*
D03*
X-260000Y175400D02*
D03*
Y200800D02*
D03*
X-300000Y175400D02*
D03*
Y200800D02*
D03*
X-260000Y45400D02*
D03*
Y70800D02*
D03*
X-20000Y45400D02*
D03*
Y70800D02*
D03*
X-300000Y45400D02*
D03*
Y70800D02*
D03*
X-60000Y45400D02*
D03*
Y70800D02*
D03*
X-20000Y175400D02*
D03*
Y200800D02*
D03*
X-100000Y45400D02*
D03*
Y70800D02*
D03*
X-60000Y175400D02*
D03*
Y200800D02*
D03*
X-140000Y45400D02*
D03*
Y70800D02*
D03*
X-100000Y175400D02*
D03*
Y200800D02*
D03*
X-180000Y45400D02*
D03*
Y70800D02*
D03*
X-140000Y175400D02*
D03*
Y200800D02*
D03*
X-220000Y45400D02*
D03*
Y70800D02*
D03*
X-15240Y335280D02*
D03*
Y309880D02*
D03*
Y284480D02*
D03*
D49*
X-802640Y382270D02*
D03*
X-801370Y278130D02*
D03*
X-377063Y72898D02*
D03*
X-374396Y181356D02*
D03*
D50*
X-802386Y416306D02*
D03*
X-801116Y312166D02*
D03*
X-377317Y38862D02*
D03*
X-374650Y147320D02*
D03*
D51*
X-969010Y21590D02*
D03*
Y1115060D02*
D03*
X16510D02*
D03*
Y21590D02*
D03*
D52*
X-817626Y164978D02*
D03*
Y56521D02*
D03*
D53*
X-783590Y164724D02*
D03*
Y56266D02*
D03*
D54*
X-36830Y552450D02*
D03*
Y527050D02*
D03*
Y577850D02*
D03*
D55*
Y501650D02*
D03*
D56*
X-887730Y87630D02*
D03*
Y138430D02*
D03*
X-889000Y273050D02*
D03*
Y222250D02*
D03*
Y323850D02*
D03*
Y374650D02*
D03*
Y425450D02*
D03*
D57*
X-461010Y119380D02*
D03*
X-544830D02*
D03*
D58*
X-52070Y376174D02*
D03*
D59*
Y391160D02*
D03*
Y406171D02*
D03*
Y421157D02*
D03*
Y436169D02*
D03*
Y451155D02*
D03*
D60*
X-879960Y779780D02*
D03*
X-880341Y923290D02*
D03*
D61*
X-935078Y779780D02*
D03*
X-935459Y923290D02*
D03*
D62*
X-370690Y1033780D02*
D03*
X-523090D02*
D03*
X-472290D02*
D03*
X-421490D02*
D03*
X-855980Y1035050D02*
D03*
X-906780D02*
D03*
D63*
X-922020Y768350D02*
D03*
X-274320Y427990D02*
D03*
X-425450Y303530D02*
D03*
X-416560Y308610D02*
D03*
X-433070D02*
D03*
X-480060Y515620D02*
D03*
X-922020Y793750D02*
D03*
X-949960Y768350D02*
D03*
Y793750D02*
D03*
X-261620Y452120D02*
D03*
X-252730D02*
D03*
X-511810Y589280D02*
D03*
Y577850D02*
D03*
X-716280Y590550D02*
D03*
Y580390D02*
D03*
Y601980D02*
D03*
Y612140D02*
D03*
X-429260Y610870D02*
D03*
X-439420D02*
D03*
Y600710D02*
D03*
X-429260D02*
D03*
X-511810D02*
D03*
X-640080Y610870D02*
D03*
X-650240D02*
D03*
X-640080Y601980D02*
D03*
X-650240D02*
D03*
X-504190Y337820D02*
D03*
Y346710D02*
D03*
X-424180Y218440D02*
D03*
X-408940Y229870D02*
D03*
X-504190Y327660D02*
D03*
X-511969Y393700D02*
D03*
X-504190D02*
D03*
X-726440Y461010D02*
D03*
X-713740Y429260D02*
D03*
X-726440D02*
D03*
X-868680Y179070D02*
D03*
X-805180Y568960D02*
D03*
X-745490Y561340D02*
D03*
X-765810Y342900D02*
D03*
X-643890Y364490D02*
D03*
X-739140Y461010D02*
D03*
X-713740D02*
D03*
X-726440Y416560D02*
D03*
Y384810D02*
D03*
X-478790Y300990D02*
D03*
X-486410Y293370D02*
D03*
X-163830Y245110D02*
D03*
X-151130D02*
D03*
X-209550Y259080D02*
D03*
X-154940Y295910D02*
D03*
Y287020D02*
D03*
X-230876Y340350D02*
D03*
X-221996Y340360D02*
D03*
X-257810Y478790D02*
D03*
X-219710Y492760D02*
D03*
X-257810Y504190D02*
D03*
X-219710Y515620D02*
D03*
X-355346Y328168D02*
D03*
X-357124Y312674D02*
D03*
X-201930Y463550D02*
D03*
X-29210Y468630D02*
D03*
X-63500Y247650D02*
D03*
X-222250Y259080D02*
D03*
X-74930Y384810D02*
D03*
X-87630D02*
D03*
X-97790Y378460D02*
D03*
X-107950D02*
D03*
X-269240Y419100D02*
D03*
X-180340Y426720D02*
D03*
X-168910D02*
D03*
X-269240Y405130D02*
D03*
X-139700Y330200D02*
D03*
X-118110Y378460D02*
D03*
X-148590Y377190D02*
D03*
X-158750Y375920D02*
D03*
X-133350Y336550D02*
D03*
X-166370Y337820D02*
D03*
X-151130Y326390D02*
D03*
X-281940Y368300D02*
D03*
X-294640D02*
D03*
X-307340D02*
D03*
X-320040D02*
D03*
X-332740D02*
D03*
X-166370Y311150D02*
D03*
X-156210D02*
D03*
X-176530Y245110D02*
D03*
X-189230D02*
D03*
X-102720Y641350D02*
D03*
X-697080Y833120D02*
D03*
Y844550D02*
D03*
X-445620Y762000D02*
D03*
X-458320Y673100D02*
D03*
X-469750D02*
D03*
X-482450D02*
D03*
X-454510Y762000D02*
D03*
X-641200D02*
D03*
X-650090D02*
D03*
X-662790Y673100D02*
D03*
X-688190D02*
D03*
X-675490D02*
D03*
X-321160Y640080D02*
D03*
X-524360Y641350D02*
D03*
X-225910Y604520D02*
D03*
X-850750Y603250D02*
D03*
X-730100Y641350D02*
D03*
X-463400Y762000D02*
D03*
X-660250D02*
D03*
X-653900Y834390D02*
D03*
X-450700D02*
D03*
X-493880Y821690D02*
D03*
X-109070Y769620D02*
D03*
X-316080D02*
D03*
X-484990Y779780D02*
D03*
X-688190D02*
D03*
X-697080Y821690D02*
D03*
X-410210Y203200D02*
D03*
X-401320Y274320D02*
D03*
X-425450Y361950D02*
D03*
X-379730D02*
D03*
X-337820Y400050D02*
D03*
X-50800Y237490D02*
D03*
X-27940Y241300D02*
D03*
X10160Y208280D02*
D03*
X-482600Y541020D02*
D03*
X-306070Y514350D02*
D03*
X-438150D02*
D03*
X-469900Y533400D02*
D03*
X-627380Y872490D02*
D03*
X-447040Y254000D02*
D03*
X-642620Y71120D02*
D03*
Y171450D02*
D03*
X-730250Y852170D02*
D03*
X-717550D02*
D03*
X-704850D02*
D03*
X-494030Y831850D02*
D03*
Y843280D02*
D03*
X-502920Y850900D02*
D03*
X-514350D02*
D03*
X-527050D02*
D03*
X-292100Y820420D02*
D03*
X-302260Y826770D02*
D03*
X-284480D02*
D03*
X-302260Y838200D02*
D03*
X-284480D02*
D03*
X-293370Y831850D02*
D03*
Y844550D02*
D03*
X-97790Y821690D02*
D03*
X-82550D02*
D03*
Y830580D02*
D03*
X-90170Y826770D02*
D03*
Y816610D02*
D03*
Y836930D02*
D03*
X-97790Y831850D02*
D03*
X-425450Y872490D02*
D03*
X-713740Y416560D02*
D03*
X-859350Y499640D02*
D03*
X-730250Y608330D02*
D03*
X-511810Y610870D02*
D03*
X-316230Y608330D02*
D03*
X-105410D02*
D03*
X-635000Y368300D02*
D03*
X-626110Y364490D02*
D03*
X-401320Y260350D02*
D03*
X-425590Y393660D02*
D03*
X-279400Y419100D02*
D03*
X-50800Y228600D02*
D03*
X-546100Y229870D02*
D03*
Y240030D02*
D03*
X-457200Y254000D02*
D03*
D64*
X-704850Y661670D02*
D03*
X-671830Y500380D02*
D03*
X-240030Y424180D02*
D03*
X-195430Y694690D02*
D03*
X-411330Y697230D02*
D03*
X-614530Y694690D02*
D03*
X-825350Y695960D02*
D03*
X-337820Y420370D02*
D03*
X-127000Y438150D02*
D03*
M02*
