G04 Layer_Physical_Order=2*
G04 Layer_Color=16711680*
%FSLAX44Y44*%
%MOMM*%
G71*
G01*
G75*
%ADD11R,1.2700X1.6002*%
%ADD13R,1.6002X1.2700*%
%ADD14R,2.7000X1.3000*%
%ADD24R,1.2700X1.3970*%
%ADD25R,1.3970X1.2700*%
%ADD27R,1.0000X1.1000*%
%ADD30R,0.5080X1.5240*%
%ADD31R,1.4500X0.5500*%
%ADD32R,10.7000X10.0000*%
%ADD33R,1.5000X3.0000*%
%ADD39C,0.5080*%
%ADD40C,0.2540*%
%ADD41C,1.0000*%
%ADD42C,0.5000*%
%ADD43C,1.0160*%
%ADD45C,0.3000*%
%ADD46R,1.5000X1.5000*%
%ADD47R,1.5000X1.5000*%
%ADD48C,1.5000*%
%ADD49R,2.5400X1.5240*%
%ADD50O,2.5400X1.5240*%
%ADD51C,2.3000*%
%ADD52R,1.5240X2.5400*%
%ADD53O,1.5240X2.5400*%
%ADD54O,2.2860X1.7780*%
%ADD55R,2.2860X1.7780*%
%ADD56O,3.5560X3.0480*%
%ADD57R,5.0000X5.0000*%
%ADD58R,1.1999X1.1999*%
%ADD59C,1.1999*%
%ADD60R,2.0000X2.0000*%
%ADD61C,2.0000*%
%ADD62O,3.0480X3.5560*%
%ADD63C,0.6000*%
%ADD64C,1.0000*%
%ADD65R,2.1500X3.5000*%
%ADD66R,2.1500X1.1000*%
%ADD67R,2.1500X1.1000*%
%ADD68R,1.3000X1.8500*%
%ADD69R,1.2200X0.9150*%
%ADD70R,1.6000X0.3000*%
%ADD71R,0.3000X1.6000*%
G36*
X-120335Y376447D02*
X-120499Y376611D01*
X-120678Y376758D01*
X-120874Y376887D01*
X-121085Y376999D01*
X-121311Y377094D01*
X-121554Y377172D01*
X-121812Y377232D01*
X-122086Y377276D01*
X-122375Y377301D01*
X-122681Y377310D01*
X-122569Y379850D01*
X-122264Y379858D01*
X-121974Y379882D01*
X-121698Y379921D01*
X-121436Y379977D01*
X-121189Y380048D01*
X-120956Y380136D01*
X-120737Y380239D01*
X-120533Y380358D01*
X-120343Y380493D01*
X-120167Y380644D01*
X-120335Y376447D01*
D02*
G37*
G36*
X-261779Y377110D02*
X-261805Y377148D01*
X-261881Y377182D01*
X-262008Y377212D01*
X-262186Y377238D01*
X-262694Y377278D01*
X-264319Y377310D01*
Y379850D01*
X-263837Y379852D01*
X-261881Y379978D01*
X-261805Y380012D01*
X-261779Y380050D01*
Y377110D01*
D02*
G37*
G36*
X-126815Y380012D02*
X-126739Y379978D01*
X-126612Y379948D01*
X-126434Y379922D01*
X-125926Y379882D01*
X-124300Y379850D01*
Y377310D01*
X-124783Y377308D01*
X-126739Y377182D01*
X-126815Y377148D01*
X-126840Y377110D01*
Y380050D01*
X-126815Y380012D01*
D02*
G37*
G36*
X-789894Y389367D02*
X-789665Y388927D01*
X-789282Y388539D01*
X-788746Y388202D01*
X-788058Y387917D01*
X-787216Y387684D01*
X-786222Y387503D01*
X-785074Y387374D01*
X-783774Y387296D01*
X-782320Y387270D01*
Y377270D01*
X-783774Y377244D01*
X-786222Y377037D01*
X-787216Y376856D01*
X-788058Y376623D01*
X-788746Y376338D01*
X-789282Y376001D01*
X-789665Y375613D01*
X-789894Y375173D01*
X-789970Y374680D01*
Y389860D01*
X-789894Y389367D01*
D02*
G37*
G36*
X-107980Y375460D02*
X-108212Y375451D01*
X-108443Y375420D01*
X-108672Y375367D01*
X-108900Y375291D01*
X-109128Y375193D01*
X-109354Y375072D01*
X-109579Y374930D01*
X-109803Y374765D01*
X-110025Y374577D01*
X-110247Y374367D01*
X-112043Y376163D01*
X-111833Y376385D01*
X-111645Y376608D01*
X-111480Y376831D01*
X-111338Y377056D01*
X-111217Y377282D01*
X-111119Y377509D01*
X-111043Y377738D01*
X-110990Y377967D01*
X-110959Y378198D01*
X-110950Y378430D01*
X-107980Y375460D01*
D02*
G37*
G36*
X-97820D02*
X-98052Y375451D01*
X-98283Y375420D01*
X-98512Y375367D01*
X-98741Y375291D01*
X-98968Y375193D01*
X-99194Y375072D01*
X-99419Y374930D01*
X-99642Y374765D01*
X-99865Y374577D01*
X-100087Y374367D01*
X-101883Y376163D01*
X-101673Y376385D01*
X-101486Y376608D01*
X-101320Y376831D01*
X-101178Y377056D01*
X-101057Y377282D01*
X-100959Y377509D01*
X-100883Y377738D01*
X-100830Y377967D01*
X-100799Y378198D01*
X-100790Y378430D01*
X-97820Y375460D01*
D02*
G37*
G36*
X-815310Y374680D02*
X-815409Y375173D01*
X-815710Y375613D01*
X-816209Y376001D01*
X-816909Y376338D01*
X-817810Y376623D01*
X-818910Y376856D01*
X-820210Y377037D01*
X-821710Y377166D01*
X-825310Y377270D01*
Y387270D01*
X-823410Y387296D01*
X-818910Y387684D01*
X-817810Y387917D01*
X-816909Y388202D01*
X-816209Y388539D01*
X-815710Y388927D01*
X-815409Y389367D01*
X-815310Y389860D01*
Y374680D01*
D02*
G37*
G36*
X-261779Y392110D02*
X-261805Y392148D01*
X-261881Y392182D01*
X-262008Y392212D01*
X-262186Y392238D01*
X-262694Y392278D01*
X-264319Y392310D01*
Y394850D01*
X-263837Y394852D01*
X-261881Y394978D01*
X-261805Y395012D01*
X-261779Y395050D01*
Y392110D01*
D02*
G37*
G36*
X-126815Y395012D02*
X-126739Y394978D01*
X-126612Y394948D01*
X-126434Y394922D01*
X-125926Y394882D01*
X-124300Y394850D01*
Y392310D01*
X-124783Y392308D01*
X-126739Y392182D01*
X-126815Y392148D01*
X-126840Y392110D01*
Y395050D01*
X-126815Y395012D01*
D02*
G37*
G36*
X-261779Y397110D02*
X-261805Y397148D01*
X-261881Y397182D01*
X-262008Y397212D01*
X-262186Y397238D01*
X-262694Y397278D01*
X-264319Y397310D01*
Y399850D01*
X-263837Y399852D01*
X-261881Y399978D01*
X-261805Y400012D01*
X-261779Y400050D01*
Y397110D01*
D02*
G37*
G36*
Y387110D02*
X-261805Y387148D01*
X-261881Y387182D01*
X-262008Y387212D01*
X-262186Y387238D01*
X-262694Y387278D01*
X-264319Y387310D01*
Y389850D01*
X-263837Y389852D01*
X-261881Y389978D01*
X-261805Y390012D01*
X-261779Y390050D01*
Y387110D01*
D02*
G37*
G36*
X-734930Y389335D02*
X-734780Y388910D01*
X-734529Y388535D01*
X-734180Y388210D01*
X-733729Y387935D01*
X-733179Y387710D01*
X-732530Y387535D01*
X-731779Y387410D01*
X-730929Y387335D01*
X-729979Y387310D01*
Y382310D01*
X-730929Y382297D01*
X-733179Y382105D01*
X-733729Y381990D01*
X-734180Y381849D01*
X-734529Y381683D01*
X-734780Y381491D01*
X-734930Y381274D01*
X-734979Y381031D01*
Y389810D01*
X-734930Y389335D01*
D02*
G37*
G36*
X-261779Y382110D02*
X-261805Y382148D01*
X-261881Y382182D01*
X-262008Y382212D01*
X-262186Y382238D01*
X-262694Y382278D01*
X-264319Y382310D01*
Y384850D01*
X-263837Y384852D01*
X-261881Y384978D01*
X-261805Y385012D01*
X-261779Y385050D01*
Y382110D01*
D02*
G37*
G36*
X-741888Y388094D02*
X-741716Y387953D01*
X-741537Y387825D01*
X-741351Y387709D01*
X-741157Y387607D01*
X-740956Y387517D01*
X-740747Y387440D01*
X-740531Y387377D01*
X-740308Y387326D01*
X-740077Y387288D01*
X-742888Y384477D01*
X-742926Y384708D01*
X-742977Y384931D01*
X-743040Y385147D01*
X-743117Y385356D01*
X-743207Y385557D01*
X-743309Y385751D01*
X-743424Y385937D01*
X-743553Y386116D01*
X-743694Y386288D01*
X-743848Y386452D01*
X-742052Y388248D01*
X-741888Y388094D01*
D02*
G37*
G36*
X-328647Y370597D02*
X-328857Y370375D01*
X-329044Y370153D01*
X-329210Y369929D01*
X-329352Y369704D01*
X-329473Y369478D01*
X-329571Y369250D01*
X-329647Y369022D01*
X-329700Y368793D01*
X-329731Y368562D01*
X-329740Y368330D01*
X-332710Y371300D01*
X-332478Y371309D01*
X-332247Y371340D01*
X-332018Y371393D01*
X-331790Y371469D01*
X-331562Y371567D01*
X-331336Y371688D01*
X-331111Y371830D01*
X-330887Y371996D01*
X-330665Y372183D01*
X-330443Y372393D01*
X-328647Y370597D01*
D02*
G37*
G36*
X-315947D02*
X-316157Y370375D01*
X-316345Y370153D01*
X-316510Y369929D01*
X-316652Y369704D01*
X-316773Y369478D01*
X-316871Y369250D01*
X-316947Y369022D01*
X-317000Y368793D01*
X-317031Y368562D01*
X-317040Y368330D01*
X-320010Y371300D01*
X-319778Y371309D01*
X-319547Y371340D01*
X-319318Y371393D01*
X-319090Y371469D01*
X-318862Y371567D01*
X-318636Y371688D01*
X-318411Y371830D01*
X-318188Y371996D01*
X-317965Y372183D01*
X-317743Y372393D01*
X-315947Y370597D01*
D02*
G37*
G36*
X-303247D02*
X-303457Y370375D01*
X-303645Y370153D01*
X-303810Y369929D01*
X-303952Y369704D01*
X-304073Y369478D01*
X-304171Y369250D01*
X-304247Y369022D01*
X-304300Y368793D01*
X-304331Y368562D01*
X-304340Y368330D01*
X-307310Y371300D01*
X-307078Y371309D01*
X-306847Y371340D01*
X-306618Y371393D01*
X-306390Y371469D01*
X-306162Y371567D01*
X-305936Y371688D01*
X-305711Y371830D01*
X-305487Y371996D01*
X-305265Y372183D01*
X-305043Y372393D01*
X-303247Y370597D01*
D02*
G37*
G36*
X-126815Y370012D02*
X-126739Y369978D01*
X-126612Y369948D01*
X-126434Y369922D01*
X-125926Y369882D01*
X-124300Y369850D01*
Y367310D01*
X-124783Y367308D01*
X-126739Y367182D01*
X-126815Y367148D01*
X-126840Y367110D01*
Y370050D01*
X-126815Y370012D01*
D02*
G37*
G36*
X-142780Y362110D02*
X-142805Y362148D01*
X-142881Y362182D01*
X-143008Y362212D01*
X-143186Y362238D01*
X-143694Y362278D01*
X-145319Y362310D01*
Y364850D01*
X-144837Y364852D01*
X-142881Y364978D01*
X-142805Y365012D01*
X-142780Y365050D01*
Y362110D01*
D02*
G37*
G36*
X-874893Y383684D02*
X-874504Y382837D01*
X-873856Y382090D01*
X-872950Y381443D01*
X-871784Y380895D01*
X-870359Y380447D01*
X-868675Y380098D01*
X-866732Y379849D01*
X-864530Y379700D01*
X-862068Y379650D01*
Y369650D01*
X-864530Y369600D01*
X-868675Y369202D01*
X-870359Y368853D01*
X-871784Y368405D01*
X-872950Y367857D01*
X-873856Y367210D01*
X-874504Y366463D01*
X-874893Y365616D01*
X-875022Y364670D01*
Y384630D01*
X-874893Y383684D01*
D02*
G37*
G36*
X-376475Y370439D02*
X-376900Y370289D01*
X-377275Y370039D01*
X-377600Y369689D01*
X-377875Y369240D01*
X-378100Y368689D01*
X-378275Y368040D01*
X-378400Y367290D01*
X-378475Y366440D01*
X-378500Y365490D01*
X-383500D01*
X-383525Y366440D01*
X-383600Y367290D01*
X-383725Y368040D01*
X-383900Y368689D01*
X-384125Y369240D01*
X-384400Y369689D01*
X-384725Y370039D01*
X-385100Y370289D01*
X-385525Y370439D01*
X-386000Y370490D01*
X-376000D01*
X-376475Y370439D01*
D02*
G37*
G36*
X-156808Y373607D02*
X-156949Y373422D01*
X-157073Y373222D01*
X-157181Y373007D01*
X-157273Y372777D01*
X-157347Y372532D01*
X-157405Y372272D01*
X-157447Y371997D01*
X-157472Y371707D01*
X-157480Y371402D01*
X-160020D01*
X-160028Y371707D01*
X-160053Y371997D01*
X-160095Y372272D01*
X-160153Y372532D01*
X-160228Y372777D01*
X-160319Y373007D01*
X-160427Y373222D01*
X-160551Y373422D01*
X-160692Y373607D01*
X-160850Y373778D01*
X-156650D01*
X-156808Y373607D01*
D02*
G37*
G36*
X-126815Y375012D02*
X-126739Y374978D01*
X-126612Y374948D01*
X-126434Y374922D01*
X-125926Y374882D01*
X-124300Y374850D01*
Y372310D01*
X-124783Y372308D01*
X-126739Y372182D01*
X-126815Y372148D01*
X-126840Y372110D01*
Y375050D01*
X-126815Y375012D01*
D02*
G37*
G36*
X-146648Y374877D02*
X-146789Y374692D01*
X-146913Y374492D01*
X-147021Y374277D01*
X-147113Y374047D01*
X-147187Y373802D01*
X-147245Y373542D01*
X-147287Y373267D01*
X-147312Y372977D01*
X-147320Y372672D01*
X-149860D01*
X-149868Y372977D01*
X-149893Y373267D01*
X-149935Y373542D01*
X-149993Y373802D01*
X-150068Y374047D01*
X-150159Y374277D01*
X-150267Y374492D01*
X-150391Y374692D01*
X-150532Y374877D01*
X-150690Y375048D01*
X-146490D01*
X-146648Y374877D01*
D02*
G37*
G36*
X-605479Y370560D02*
X-605509Y370646D01*
X-605598Y370723D01*
X-605748Y370792D01*
X-605957Y370851D01*
X-606226Y370901D01*
X-606554Y370942D01*
X-607390Y370997D01*
X-608465Y371015D01*
Y376015D01*
X-607898Y376020D01*
X-606226Y376129D01*
X-605957Y376179D01*
X-605748Y376238D01*
X-605598Y376306D01*
X-605509Y376384D01*
X-605479Y376470D01*
Y370560D01*
D02*
G37*
G36*
X-290547Y370597D02*
X-290757Y370375D01*
X-290944Y370153D01*
X-291110Y369929D01*
X-291252Y369704D01*
X-291373Y369478D01*
X-291471Y369250D01*
X-291547Y369022D01*
X-291600Y368793D01*
X-291631Y368562D01*
X-291640Y368330D01*
X-294610Y371300D01*
X-294378Y371309D01*
X-294147Y371340D01*
X-293918Y371393D01*
X-293689Y371469D01*
X-293462Y371567D01*
X-293236Y371688D01*
X-293011Y371830D01*
X-292787Y371996D01*
X-292565Y372183D01*
X-292343Y372393D01*
X-290547Y370597D01*
D02*
G37*
G36*
X-277847D02*
X-278057Y370375D01*
X-278244Y370153D01*
X-278410Y369929D01*
X-278552Y369704D01*
X-278673Y369478D01*
X-278771Y369250D01*
X-278847Y369022D01*
X-278900Y368793D01*
X-278931Y368562D01*
X-278940Y368330D01*
X-281910Y371300D01*
X-281678Y371309D01*
X-281447Y371340D01*
X-281218Y371393D01*
X-280989Y371469D01*
X-280762Y371567D01*
X-280536Y371688D01*
X-280311Y371830D01*
X-280088Y371996D01*
X-279865Y372183D01*
X-279643Y372393D01*
X-277847Y370597D01*
D02*
G37*
G36*
X-570471Y370875D02*
X-570687Y370798D01*
X-570878Y370670D01*
X-571043Y370490D01*
X-571183Y370258D01*
X-571297Y369976D01*
X-571386Y369641D01*
X-571449Y369256D01*
X-571487Y368819D01*
X-571500Y368330D01*
X-574040D01*
X-574053Y368819D01*
X-574091Y369256D01*
X-574154Y369641D01*
X-574243Y369976D01*
X-574357Y370258D01*
X-574497Y370490D01*
X-574662Y370670D01*
X-574853Y370798D01*
X-575069Y370875D01*
X-575310Y370901D01*
X-570230D01*
X-570471Y370875D01*
D02*
G37*
G36*
X-126815Y400012D02*
X-126739Y399978D01*
X-126612Y399948D01*
X-126434Y399922D01*
X-125926Y399882D01*
X-124300Y399850D01*
Y397310D01*
X-124783Y397308D01*
X-126739Y397182D01*
X-126815Y397148D01*
X-126840Y397110D01*
Y400050D01*
X-126815Y400012D01*
D02*
G37*
G36*
X-175378Y437585D02*
X-175412Y437509D01*
X-175442Y437382D01*
X-175468Y437204D01*
X-175508Y436696D01*
X-175540Y435070D01*
X-178080D01*
X-178082Y435553D01*
X-178208Y437509D01*
X-178242Y437585D01*
X-178279Y437611D01*
X-175340D01*
X-175378Y437585D01*
D02*
G37*
G36*
X-170378D02*
X-170412Y437509D01*
X-170442Y437382D01*
X-170468Y437204D01*
X-170508Y436696D01*
X-170540Y435070D01*
X-173080D01*
X-173082Y435553D01*
X-173208Y437509D01*
X-173242Y437585D01*
X-173279Y437611D01*
X-170340D01*
X-170378Y437585D01*
D02*
G37*
G36*
X-155378Y437586D02*
X-155412Y437514D01*
X-155442Y437393D01*
X-155468Y437224D01*
X-155508Y436741D01*
X-155538Y435653D01*
X-155540Y435194D01*
X-158080D01*
X-158082Y435653D01*
X-158208Y437514D01*
X-158242Y437586D01*
X-158279Y437611D01*
X-155340D01*
X-155378Y437586D01*
D02*
G37*
G36*
X-740646Y432075D02*
X-740614Y432061D01*
X-740387Y431981D01*
X-740153Y431916D01*
X-739911Y431865D01*
X-739662Y431829D01*
X-739405Y431807D01*
X-739140Y431800D01*
Y429260D01*
X-739405Y429253D01*
X-739662Y429231D01*
X-739911Y429195D01*
X-740153Y429144D01*
X-740387Y429079D01*
X-740614Y428999D01*
X-740646Y428985D01*
Y428535D01*
X-740842Y428672D01*
X-741045Y428795D01*
X-741248Y428672D01*
X-741444Y428535D01*
Y428985D01*
X-741476Y428999D01*
X-741703Y429079D01*
X-741937Y429144D01*
X-742179Y429195D01*
X-742428Y429231D01*
X-742685Y429253D01*
X-742950Y429260D01*
Y431800D01*
X-742685Y431807D01*
X-742428Y431829D01*
X-742179Y431865D01*
X-741937Y431916D01*
X-741703Y431981D01*
X-741476Y432061D01*
X-741444Y432075D01*
Y432525D01*
X-741248Y432388D01*
X-741045Y432265D01*
X-740842Y432388D01*
X-740646Y432525D01*
Y432075D01*
D02*
G37*
G36*
X-169918Y429545D02*
X-171735Y427729D01*
X-171744Y427741D01*
X-171773Y427773D01*
X-172708Y428722D01*
X-170912Y430518D01*
X-169918Y429545D01*
D02*
G37*
G36*
X-52633Y430196D02*
X-53401Y430250D01*
X-54124Y430262D01*
X-54801Y430233D01*
X-55434Y430163D01*
X-56021Y430051D01*
X-56563Y429898D01*
X-57060Y429704D01*
X-57512Y429469D01*
X-57919Y429192D01*
X-58280Y428874D01*
X-59922Y430824D01*
X-59623Y431162D01*
X-59349Y431553D01*
X-59100Y431998D01*
X-58876Y432497D01*
X-58677Y433049D01*
X-58502Y433654D01*
X-58353Y434313D01*
X-58128Y435792D01*
X-58053Y436612D01*
X-52633Y430196D01*
D02*
G37*
G36*
X-240802Y438922D02*
X-241155Y438499D01*
X-241396Y438046D01*
X-241526Y437562D01*
X-241544Y437049D01*
X-241450Y436507D01*
X-241245Y435934D01*
X-240928Y435331D01*
X-240500Y434699D01*
X-239960Y434037D01*
X-239309Y433344D01*
X-243880Y430844D01*
X-244602Y431516D01*
X-245353Y432117D01*
X-246133Y432648D01*
X-246943Y433107D01*
X-247782Y433496D01*
X-248650Y433814D01*
X-249547Y434062D01*
X-250474Y434239D01*
X-251430Y434345D01*
X-252416Y434380D01*
Y439380D01*
X-251435Y439411D01*
X-250492Y439503D01*
X-249589Y439657D01*
X-248723Y439873D01*
X-247896Y440149D01*
X-247108Y440488D01*
X-246357Y440888D01*
X-245646Y441350D01*
X-244972Y441873D01*
X-244338Y442458D01*
X-240802Y438922D01*
D02*
G37*
G36*
X-671460Y455375D02*
X-671309Y454950D01*
X-671057Y454575D01*
X-670705Y454250D01*
X-670252Y453975D01*
X-669699Y453750D01*
X-669045Y453575D01*
X-668290Y453450D01*
X-667435Y453375D01*
X-666479Y453350D01*
Y448350D01*
X-667435Y448325D01*
X-668290Y448250D01*
X-669045Y448125D01*
X-669699Y447950D01*
X-670252Y447725D01*
X-670705Y447450D01*
X-671057Y447125D01*
X-671309Y446750D01*
X-671460Y446325D01*
X-671510Y445850D01*
Y455850D01*
X-671460Y455375D01*
D02*
G37*
G36*
X-658180Y445850D02*
X-658230Y446325D01*
X-658381Y446750D01*
X-658633Y447125D01*
X-658985Y447450D01*
X-659438Y447725D01*
X-659991Y447950D01*
X-660645Y448125D01*
X-661400Y448250D01*
X-662255Y448325D01*
X-663211Y448350D01*
Y453350D01*
X-662255Y453375D01*
X-661400Y453450D01*
X-660645Y453575D01*
X-659991Y453750D01*
X-659438Y453975D01*
X-658985Y454250D01*
X-658633Y454575D01*
X-658381Y454950D01*
X-658230Y455375D01*
X-658180Y455850D01*
Y445850D01*
D02*
G37*
G36*
X-711240Y455930D02*
X-713740D01*
X-719775Y453430D01*
X-719104Y454142D01*
X-718503Y454865D01*
X-717972Y455597D01*
X-717513Y456340D01*
X-717124Y457093D01*
X-716806Y457856D01*
X-716558Y458629D01*
X-716381Y459413D01*
X-716275Y460206D01*
X-716240Y461010D01*
X-711240Y455930D01*
D02*
G37*
G36*
X-251460Y509270D02*
Y502920D01*
Y477520D01*
X-252730Y476250D01*
Y462280D01*
Y459740D01*
X-251460Y458470D01*
X-248920Y455930D01*
Y448310D01*
X-251460Y445770D01*
X-264160D01*
X-266700Y448310D01*
Y450850D01*
Y506730D01*
X-262890Y510540D01*
X-252730D01*
X-251460Y509270D01*
D02*
G37*
G36*
X-731444Y434691D02*
X-732280Y433820D01*
X-733630Y432187D01*
X-734144Y431425D01*
X-734551Y430700D01*
X-734851Y430011D01*
X-735044Y429358D01*
X-735129Y428742D01*
X-735108Y428163D01*
X-734979Y427620D01*
X-738622Y438120D01*
X-738387Y437682D01*
X-738047Y437421D01*
X-737603Y437335D01*
X-737053Y437425D01*
X-736398Y437691D01*
X-735639Y438132D01*
X-734774Y438749D01*
X-733805Y439542D01*
X-731551Y441655D01*
X-731444Y434691D01*
D02*
G37*
G36*
X-120049Y441565D02*
X-120422Y441178D01*
X-121050Y440437D01*
X-121305Y440084D01*
X-121519Y439742D01*
X-121695Y439411D01*
X-121831Y439091D01*
X-121927Y438783D01*
X-121983Y438486D01*
X-122000Y438200D01*
X-126950Y443150D01*
X-126664Y443167D01*
X-126367Y443223D01*
X-126059Y443320D01*
X-125739Y443455D01*
X-125408Y443631D01*
X-125066Y443845D01*
X-124713Y444100D01*
X-124348Y444394D01*
X-123585Y445101D01*
X-120049Y441565D01*
D02*
G37*
G36*
X-52130Y445156D02*
X-52926Y445147D01*
X-54369Y445030D01*
X-55016Y444921D01*
X-55614Y444779D01*
X-56163Y444603D01*
X-56662Y444394D01*
X-57112Y444151D01*
X-57512Y443875D01*
X-57863Y443565D01*
X-59660Y445361D01*
X-59350Y445712D01*
X-59074Y446113D01*
X-58831Y446562D01*
X-58622Y447062D01*
X-58446Y447610D01*
X-58304Y448208D01*
X-58195Y448856D01*
X-58120Y449553D01*
X-58069Y451095D01*
X-52130Y445156D01*
D02*
G37*
G36*
X-245815Y410012D02*
X-245739Y409978D01*
X-245612Y409948D01*
X-245434Y409922D01*
X-244926Y409882D01*
X-243300Y409850D01*
Y407310D01*
X-243783Y407308D01*
X-245739Y407182D01*
X-245815Y407148D01*
X-245840Y407110D01*
Y410050D01*
X-245815Y410012D01*
D02*
G37*
G36*
X-126815D02*
X-126739Y409978D01*
X-126612Y409948D01*
X-126434Y409922D01*
X-125926Y409882D01*
X-124300Y409850D01*
Y407310D01*
X-124783Y407308D01*
X-126739Y407182D01*
X-126815Y407148D01*
X-126840Y407110D01*
Y410050D01*
X-126815Y410012D01*
D02*
G37*
G36*
X-245815Y415012D02*
X-245739Y414978D01*
X-245612Y414948D01*
X-245434Y414922D01*
X-244926Y414882D01*
X-243300Y414850D01*
Y412310D01*
X-243783Y412308D01*
X-245739Y412182D01*
X-245815Y412148D01*
X-245840Y412110D01*
Y415050D01*
X-245815Y415012D01*
D02*
G37*
G36*
X-44572Y412102D02*
X-44884Y411748D01*
X-45161Y411345D01*
X-45401Y410894D01*
X-45606Y410395D01*
X-45774Y409849D01*
X-45906Y409254D01*
X-46002Y408610D01*
X-46062Y407919D01*
X-46087Y407180D01*
X-46075Y406393D01*
X-52172Y412170D01*
X-51368Y412200D01*
X-49913Y412351D01*
X-49261Y412472D01*
X-48660Y412625D01*
X-48110Y412808D01*
X-47611Y413022D01*
X-47162Y413267D01*
X-46764Y413543D01*
X-46417Y413849D01*
X-44572Y412102D01*
D02*
G37*
G36*
X-261779Y402110D02*
X-261800Y402148D01*
X-261863Y402182D01*
X-261969Y402212D01*
X-262116Y402238D01*
X-262305Y402260D01*
X-263124Y402302D01*
X-263880Y402310D01*
Y404850D01*
X-263481Y404852D01*
X-261969Y404948D01*
X-261863Y404978D01*
X-261800Y405012D01*
X-261779Y405050D01*
Y402110D01*
D02*
G37*
G36*
X-126815Y405012D02*
X-126739Y404978D01*
X-126612Y404948D01*
X-126434Y404922D01*
X-125926Y404882D01*
X-124300Y404850D01*
Y402310D01*
X-124783Y402308D01*
X-126739Y402182D01*
X-126815Y402148D01*
X-126840Y402110D01*
Y405050D01*
X-126815Y405012D01*
D02*
G37*
G36*
X-600978Y404294D02*
X-601176Y404427D01*
X-601413Y404546D01*
X-601686Y404651D01*
X-601997Y404743D01*
X-602346Y404820D01*
X-602733Y404883D01*
X-603619Y404967D01*
X-604118Y404988D01*
X-604655Y404995D01*
Y407535D01*
X-604118Y407542D01*
X-602733Y407647D01*
X-602346Y407710D01*
X-601997Y407787D01*
X-601686Y407878D01*
X-601413Y407984D01*
X-601176Y408103D01*
X-600978Y408236D01*
Y404294D01*
D02*
G37*
G36*
X-750890Y425530D02*
X-750940Y426005D01*
X-751091Y426430D01*
X-751343Y426805D01*
X-751695Y427130D01*
X-752148Y427405D01*
X-752701Y427630D01*
X-753355Y427805D01*
X-754109Y427930D01*
X-754965Y428005D01*
X-755920Y428030D01*
Y433030D01*
X-754965Y433055D01*
X-754109Y433130D01*
X-753355Y433255D01*
X-752701Y433430D01*
X-752148Y433655D01*
X-751695Y433930D01*
X-751343Y434255D01*
X-751091Y434630D01*
X-750940Y435055D01*
X-750890Y435530D01*
Y425530D01*
D02*
G37*
G36*
X-43818Y425555D02*
X-44086Y425254D01*
X-44348Y424891D01*
X-44605Y424465D01*
X-44855Y423979D01*
X-45100Y423430D01*
X-45571Y422147D01*
X-46020Y420618D01*
X-46235Y419761D01*
X-50557Y426963D01*
X-49853Y426802D01*
X-49185Y426696D01*
X-48554Y426644D01*
X-47958Y426647D01*
X-47400Y426705D01*
X-46878Y426817D01*
X-46392Y426984D01*
X-45943Y427205D01*
X-45530Y427481D01*
X-45154Y427812D01*
X-43818Y425555D01*
D02*
G37*
G36*
X-176247Y429017D02*
X-176457Y428795D01*
X-176644Y428573D01*
X-176810Y428349D01*
X-176952Y428124D01*
X-177073Y427898D01*
X-177171Y427671D01*
X-177247Y427442D01*
X-177300Y427213D01*
X-177331Y426982D01*
X-177340Y426750D01*
X-180310Y429720D01*
X-180078Y429729D01*
X-179847Y429760D01*
X-179618Y429813D01*
X-179389Y429889D01*
X-179162Y429987D01*
X-178936Y430108D01*
X-178711Y430250D01*
X-178487Y430415D01*
X-178265Y430603D01*
X-178043Y430813D01*
X-176247Y429017D01*
D02*
G37*
G36*
X-335310Y427162D02*
X-335230Y426194D01*
X-335160Y425765D01*
X-335070Y425371D01*
X-334960Y425013D01*
X-334830Y424691D01*
X-334680Y424405D01*
X-334510Y424155D01*
X-334320Y423941D01*
X-341320D01*
X-341130Y424155D01*
X-340960Y424405D01*
X-340810Y424691D01*
X-340680Y425013D01*
X-340570Y425371D01*
X-340480Y425765D01*
X-340410Y426194D01*
X-340360Y426660D01*
X-340320Y427700D01*
X-335320D01*
X-335310Y427162D01*
D02*
G37*
G36*
X-711200Y612140D02*
X-711200Y579120D01*
X-717550Y572770D01*
X-750570D01*
X-754380Y568960D01*
X-756920Y566420D01*
Y561340D01*
Y530860D01*
X-754380Y528320D01*
X-742950Y516890D01*
Y502920D01*
Y491490D01*
X-739140Y487680D01*
X-595630D01*
X-529590Y421640D01*
X-524510Y416560D01*
Y407670D01*
Y398780D01*
X-525780Y397510D01*
X-527050Y396240D01*
X-557530D01*
X-563880Y389890D01*
X-580390D01*
X-585470Y394970D01*
Y410210D01*
Y416560D01*
X-586740Y417830D01*
X-588010Y419100D01*
X-608330D01*
X-610870Y416560D01*
Y415290D01*
Y408940D01*
X-619760Y400050D01*
X-759460D01*
X-760730Y401320D01*
X-767080Y407670D01*
X-923290D01*
X-927100Y411480D01*
Y438150D01*
X-923290Y441960D01*
X-857250D01*
X-840740Y425450D01*
X-768350D01*
X-764540Y421640D01*
X-760730Y417830D01*
X-732790D01*
X-731520Y419100D01*
X-730250Y420370D01*
Y422910D01*
Y430530D01*
X-727710Y433070D01*
X-704850D01*
X-702310Y430530D01*
X-689610Y417830D01*
X-665480D01*
X-660400Y422910D01*
Y433070D01*
Y435610D01*
X-659130Y436880D01*
X-657860Y438150D01*
X-635000D01*
X-633730Y439420D01*
X-632460Y440690D01*
Y447040D01*
Y459740D01*
X-650240Y477520D01*
X-760730D01*
X-763270Y480060D01*
X-770890Y487680D01*
Y552450D01*
Y567690D01*
X-782320Y579120D01*
X-788670Y585470D01*
X-858520D01*
X-861060Y588010D01*
Y595630D01*
Y603250D01*
X-854710Y609600D01*
X-741530D01*
X-725093Y626037D01*
X-711200Y612140D01*
D02*
G37*
G36*
X-243709Y424858D02*
X-243300Y424850D01*
Y422310D01*
X-243401Y422310D01*
X-243155Y420277D01*
X-243657Y420663D01*
X-244628Y421314D01*
X-245096Y421578D01*
X-245553Y421802D01*
X-245998Y421985D01*
X-246432Y422127D01*
X-246855Y422229D01*
X-247267Y422290D01*
X-247667Y422310D01*
X-247985Y424850D01*
X-247555Y424874D01*
X-247133Y424945D01*
X-246717Y425064D01*
X-246308Y425230D01*
X-245905Y425444D01*
X-245510Y425705D01*
X-245121Y426014D01*
X-244739Y426371D01*
X-244363Y426775D01*
X-243995Y427226D01*
X-243709Y424858D01*
D02*
G37*
G36*
X-126815Y425012D02*
X-126739Y424978D01*
X-126612Y424948D01*
X-126434Y424922D01*
X-125926Y424882D01*
X-124300Y424850D01*
Y422310D01*
X-124783Y422308D01*
X-126739Y422182D01*
X-126815Y422148D01*
X-126840Y422110D01*
Y425050D01*
X-126815Y425012D01*
D02*
G37*
G36*
X-152627Y288962D02*
X-152442Y288821D01*
X-152242Y288697D01*
X-152027Y288589D01*
X-151797Y288498D01*
X-151552Y288423D01*
X-151292Y288365D01*
X-151017Y288323D01*
X-150727Y288298D01*
X-150422Y288290D01*
Y285750D01*
X-150727Y285742D01*
X-151017Y285717D01*
X-151292Y285675D01*
X-151552Y285617D01*
X-151797Y285543D01*
X-152027Y285451D01*
X-152242Y285343D01*
X-152442Y285219D01*
X-152627Y285078D01*
X-152798Y284920D01*
Y289120D01*
X-152627Y288962D01*
D02*
G37*
G36*
X-484097Y295312D02*
X-483912Y295171D01*
X-483712Y295047D01*
X-483497Y294939D01*
X-483267Y294848D01*
X-483022Y294773D01*
X-482762Y294715D01*
X-482487Y294673D01*
X-482197Y294648D01*
X-481892Y294640D01*
Y292100D01*
X-482197Y292092D01*
X-482487Y292067D01*
X-482762Y292025D01*
X-483022Y291967D01*
X-483267Y291893D01*
X-483497Y291801D01*
X-483712Y291693D01*
X-483912Y291569D01*
X-484097Y291428D01*
X-484268Y291270D01*
Y295470D01*
X-484097Y295312D01*
D02*
G37*
G36*
X-152627Y297852D02*
X-152442Y297711D01*
X-152242Y297587D01*
X-152027Y297479D01*
X-151797Y297388D01*
X-151552Y297313D01*
X-151292Y297255D01*
X-151017Y297213D01*
X-150727Y297188D01*
X-150422Y297180D01*
Y294640D01*
X-150727Y294632D01*
X-151017Y294607D01*
X-151292Y294565D01*
X-151552Y294507D01*
X-151797Y294433D01*
X-152027Y294341D01*
X-152242Y294233D01*
X-152442Y294109D01*
X-152627Y293968D01*
X-152798Y293810D01*
Y298010D01*
X-152627Y297852D01*
D02*
G37*
G36*
X-19806Y268000D02*
X-19444Y267691D01*
X-19083Y267418D01*
X-18722Y267181D01*
X-18363Y266980D01*
X-18004Y266815D01*
X-17646Y266687D01*
X-17289Y266595D01*
X-16933Y266539D01*
X-16577Y266519D01*
X-22710Y266549D01*
X-22720Y266701D01*
X-22752Y266859D01*
X-22804Y267024D01*
X-22878Y267194D01*
X-22973Y267370D01*
X-23088Y267553D01*
X-23225Y267742D01*
X-23383Y267937D01*
X-23762Y268346D01*
X-20169D01*
X-19806Y268000D01*
D02*
G37*
G36*
X-174588Y242797D02*
X-174729Y242612D01*
X-174853Y242412D01*
X-174961Y242197D01*
X-175053Y241967D01*
X-175127Y241722D01*
X-175185Y241462D01*
X-175227Y241187D01*
X-175252Y240897D01*
X-175260Y240592D01*
X-177800D01*
X-177808Y240897D01*
X-177833Y241187D01*
X-177875Y241462D01*
X-177933Y241722D01*
X-178008Y241967D01*
X-178099Y242197D01*
X-178207Y242412D01*
X-178331Y242612D01*
X-178472Y242797D01*
X-178630Y242968D01*
X-174430D01*
X-174588Y242797D01*
D02*
G37*
G36*
X-161888D02*
X-162029Y242612D01*
X-162153Y242412D01*
X-162261Y242197D01*
X-162353Y241967D01*
X-162427Y241722D01*
X-162485Y241462D01*
X-162527Y241187D01*
X-162552Y240897D01*
X-162560Y240592D01*
X-165100D01*
X-165108Y240897D01*
X-165133Y241187D01*
X-165175Y241462D01*
X-165233Y241722D01*
X-165308Y241967D01*
X-165399Y242197D01*
X-165507Y242412D01*
X-165631Y242612D01*
X-165772Y242797D01*
X-165930Y242968D01*
X-161730D01*
X-161888Y242797D01*
D02*
G37*
G36*
X-149188D02*
X-149329Y242612D01*
X-149453Y242412D01*
X-149561Y242197D01*
X-149653Y241967D01*
X-149727Y241722D01*
X-149785Y241462D01*
X-149827Y241187D01*
X-149852Y240897D01*
X-149860Y240592D01*
X-152400D01*
X-152408Y240897D01*
X-152433Y241187D01*
X-152475Y241462D01*
X-152533Y241722D01*
X-152607Y241967D01*
X-152699Y242197D01*
X-152807Y242412D01*
X-152931Y242612D01*
X-153072Y242797D01*
X-153230Y242968D01*
X-149030D01*
X-149188Y242797D01*
D02*
G37*
G36*
X-168445Y315033D02*
X-168223Y314846D01*
X-167999Y314680D01*
X-167774Y314538D01*
X-167548Y314417D01*
X-167320Y314319D01*
X-167092Y314243D01*
X-166863Y314190D01*
X-166632Y314159D01*
X-166400Y314150D01*
X-169370Y311180D01*
X-169379Y311412D01*
X-169410Y311643D01*
X-169463Y311872D01*
X-169539Y312101D01*
X-169637Y312328D01*
X-169758Y312554D01*
X-169900Y312779D01*
X-170065Y313002D01*
X-170253Y313225D01*
X-170463Y313447D01*
X-168667Y315243D01*
X-168445Y315033D01*
D02*
G37*
G36*
X-158285D02*
X-158062Y314846D01*
X-157839Y314680D01*
X-157614Y314538D01*
X-157388Y314417D01*
X-157161Y314319D01*
X-156932Y314243D01*
X-156703Y314190D01*
X-156472Y314159D01*
X-156240Y314150D01*
X-159210Y311180D01*
X-159219Y311412D01*
X-159250Y311643D01*
X-159303Y311872D01*
X-159379Y312101D01*
X-159477Y312328D01*
X-159598Y312554D01*
X-159740Y312779D01*
X-159906Y313002D01*
X-160093Y313225D01*
X-160303Y313447D01*
X-158507Y315243D01*
X-158285Y315033D01*
D02*
G37*
G36*
X-210378Y318585D02*
X-210412Y318509D01*
X-210442Y318382D01*
X-210468Y318204D01*
X-210508Y317696D01*
X-210540Y316070D01*
X-213080D01*
X-213082Y316553D01*
X-213208Y318509D01*
X-213242Y318585D01*
X-213279Y318610D01*
X-210340D01*
X-210378Y318585D01*
D02*
G37*
G36*
X-354811Y314616D02*
X-354626Y314475D01*
X-354426Y314351D01*
X-354211Y314243D01*
X-353981Y314151D01*
X-353736Y314077D01*
X-353476Y314019D01*
X-353201Y313977D01*
X-352911Y313952D01*
X-352606Y313944D01*
Y311404D01*
X-352911Y311396D01*
X-353201Y311371D01*
X-353476Y311329D01*
X-353736Y311271D01*
X-353981Y311196D01*
X-354211Y311105D01*
X-354426Y310997D01*
X-354626Y310873D01*
X-354811Y310732D01*
X-354982Y310574D01*
Y314774D01*
X-354811Y314616D01*
D02*
G37*
G36*
X-476477Y302932D02*
X-476292Y302791D01*
X-476092Y302667D01*
X-475877Y302559D01*
X-475647Y302467D01*
X-475402Y302393D01*
X-475142Y302335D01*
X-474867Y302293D01*
X-474577Y302268D01*
X-474272Y302260D01*
Y299720D01*
X-474577Y299712D01*
X-474867Y299687D01*
X-475142Y299645D01*
X-475402Y299587D01*
X-475647Y299513D01*
X-475877Y299421D01*
X-476092Y299313D01*
X-476292Y299189D01*
X-476477Y299048D01*
X-476648Y298890D01*
Y303090D01*
X-476477Y302932D01*
D02*
G37*
G36*
X-269240Y430530D02*
Y426720D01*
X-265430Y422910D01*
X-263810Y421290D01*
Y420080D01*
X-262890D01*
Y418580D01*
X-264913D01*
X-265222Y417080D01*
X-265548Y417076D01*
X-266395Y417013D01*
X-266633Y416975D01*
X-266741Y416952D01*
Y415249D01*
X-267970Y414020D01*
X-294640D01*
X-306070Y402590D01*
X-313690Y394970D01*
X-387350D01*
X-392430Y389890D01*
X-394970Y387350D01*
Y381000D01*
Y367030D01*
X-397510Y364490D01*
X-412750Y349250D01*
Y316230D01*
X-412750Y306070D01*
X-419100Y299720D01*
X-431800D01*
X-436880Y304800D01*
Y311150D01*
Y391160D01*
X-426720Y401320D01*
X-422910Y405130D01*
X-318770D01*
X-308610Y415290D01*
X-299720Y424180D01*
X-288290D01*
X-281940Y430530D01*
X-280670Y431800D01*
X-270510D01*
X-269240Y430530D01*
D02*
G37*
G36*
X-20596Y304630D02*
X-21364Y305386D01*
X-22823Y306660D01*
X-23514Y307177D01*
X-24181Y307615D01*
X-24822Y307973D01*
X-25437Y308252D01*
X-26027Y308451D01*
X-26592Y308570D01*
X-27132Y308610D01*
Y311150D01*
X-26592Y311190D01*
X-26027Y311309D01*
X-25437Y311508D01*
X-24822Y311787D01*
X-24181Y312145D01*
X-23514Y312583D01*
X-22823Y313100D01*
X-21364Y314374D01*
X-20596Y315130D01*
Y304630D01*
D02*
G37*
G36*
X-253876Y205294D02*
X-252417Y204020D01*
X-251726Y203503D01*
X-251059Y203065D01*
X-250418Y202707D01*
X-249803Y202428D01*
X-249213Y202229D01*
X-248648Y202110D01*
X-248108Y202070D01*
Y199530D01*
X-248648Y199490D01*
X-249213Y199371D01*
X-249803Y199172D01*
X-250418Y198893D01*
X-251059Y198535D01*
X-251726Y198097D01*
X-252417Y197580D01*
X-253876Y196306D01*
X-254644Y195550D01*
Y206050D01*
X-253876Y205294D01*
D02*
G37*
G36*
X-170693Y208311D02*
X-171047Y207901D01*
X-171362Y207417D01*
X-171638Y206859D01*
X-171877Y206227D01*
X-172076Y205520D01*
X-172238Y204740D01*
X-172361Y203885D01*
X-172492Y201952D01*
X-172500Y200875D01*
X-179925Y208300D01*
X-178848Y208308D01*
X-176915Y208439D01*
X-176060Y208562D01*
X-175280Y208724D01*
X-174573Y208923D01*
X-173941Y209162D01*
X-173383Y209438D01*
X-172899Y209753D01*
X-172489Y210107D01*
X-170693Y208311D01*
D02*
G37*
G36*
X-211058Y208786D02*
X-211424Y208361D01*
X-211742Y207868D01*
X-212010Y207307D01*
X-212231Y206678D01*
X-212402Y205980D01*
X-212525Y205215D01*
X-212599Y204381D01*
X-212625Y203478D01*
X-212530Y201469D01*
X-220519Y208282D01*
X-219406Y208376D01*
X-216549Y208819D01*
X-215757Y209021D01*
X-215045Y209250D01*
X-214413Y209506D01*
X-213862Y209789D01*
X-213390Y210100D01*
X-212999Y210437D01*
X-211058Y208786D01*
D02*
G37*
G36*
X-318770Y186690D02*
X-316230Y184150D01*
X-8890D01*
X-6350Y181610D01*
Y168910D01*
X-8890Y166370D01*
X-308610D01*
X-313690Y161290D01*
X-314960Y160020D01*
X-342900D01*
X-350520Y167640D01*
X-386080D01*
X-388620Y170180D01*
Y190500D01*
X-384810Y194310D01*
X-326390D01*
X-318770Y186690D01*
D02*
G37*
G36*
X-913351Y37843D02*
X-909518Y34572D01*
X-907852Y33400D01*
X-906354Y32535D01*
X-905023Y31979D01*
X-903861Y31732D01*
X-902865Y31792D01*
X-902038Y32162D01*
X-901377Y32839D01*
X-911710Y17931D01*
X-911780Y18772D01*
X-911992Y19674D01*
X-912346Y20636D01*
X-912841Y21659D01*
X-913477Y22742D01*
X-914255Y23885D01*
X-915174Y25088D01*
X-917437Y27675D01*
X-918781Y29060D01*
X-915519Y39941D01*
X-913351Y37843D01*
D02*
G37*
G36*
X-334010Y82550D02*
X-308610Y57150D01*
X-10160D01*
X-6350Y53340D01*
Y41910D01*
X-10160Y38100D01*
X-320040D01*
X-321310Y39370D01*
X-350520D01*
X-355600Y44450D01*
X-367030Y55880D01*
X-386080D01*
X-387350Y57150D01*
X-389890Y59690D01*
Y82550D01*
X-387350Y85090D01*
X-336550D01*
X-334010Y82550D01*
D02*
G37*
G36*
X-387350Y227330D02*
Y220980D01*
Y212090D01*
X-391160Y208280D01*
X-398780Y200660D01*
Y189230D01*
Y171450D01*
X-394970Y167640D01*
X-386080Y158750D01*
X-354330D01*
X-350520Y154940D01*
X-312420D01*
X-308610Y158750D01*
X-8890D01*
X-6350Y156210D01*
Y153670D01*
X-6349Y132080D01*
X-11430Y127000D01*
X-25400Y127000D01*
X-358140D01*
X-372110Y113030D01*
X-396240Y88900D01*
Y77470D01*
Y58420D01*
X-387350Y49530D01*
X-368300D01*
X-356870Y38100D01*
X-347980Y29210D01*
X-334415D01*
X-334330Y30000D01*
X-334332Y29210D01*
X-318419D01*
Y30000D01*
X-318336Y29210D01*
X-10160D01*
X-6350Y25400D01*
Y10160D01*
Y3075D01*
X-793750D01*
Y68580D01*
X-797560Y72390D01*
X-802640Y77470D01*
X-834390D01*
X-842010Y69850D01*
X-905510D01*
X-910590Y74930D01*
Y82471D01*
X-912200Y82580D01*
X-914662Y82630D01*
Y92630D01*
X-912200Y92680D01*
X-910590Y92835D01*
Y99060D01*
X-905510Y104140D01*
X-829310D01*
X-822960Y110490D01*
X-792480Y140970D01*
Y165100D01*
Y173990D01*
X-788670Y177800D01*
X-787400Y179070D01*
X-775970D01*
X-774700Y177800D01*
X-772160Y175260D01*
Y172720D01*
Y77470D01*
X-758190Y63500D01*
X-750570Y55880D01*
X-444500D01*
X-429260Y71120D01*
X-424180Y76200D01*
Y97790D01*
Y147320D01*
X-431800Y154940D01*
X-434340Y157480D01*
Y190500D01*
Y223520D01*
X-426720Y231140D01*
X-422910Y234950D01*
X-394970D01*
X-387350Y227330D01*
D02*
G37*
G36*
X-68580Y260350D02*
X-59690Y251460D01*
X-30480D01*
X-25400Y246380D01*
X-22860Y243840D01*
Y241300D01*
Y238760D01*
X-24130Y237490D01*
X-25400Y236220D01*
X-35560D01*
X-39370Y240030D01*
X-43180Y243840D01*
X-67310D01*
X-71120Y247650D01*
X-87630Y264160D01*
X-195580D01*
X-201930Y257810D01*
X-205740Y254000D01*
X-233680D01*
Y264160D01*
X-223520D01*
X-218440Y269240D01*
X-214630Y273050D01*
X-81280D01*
X-68580Y260350D01*
D02*
G37*
G36*
X-867410Y285750D02*
X-499110D01*
X-494030Y280670D01*
X-482600Y269240D01*
X-445770D01*
X-444500Y267970D01*
X-439420Y262890D01*
Y252730D01*
Y243840D01*
X-443230Y240030D01*
X-497840D01*
X-501650Y243840D01*
X-515620Y257810D01*
X-919480D01*
X-922020Y260350D01*
X-927100Y265430D01*
Y279400D01*
Y284480D01*
X-922020Y289560D01*
X-871220D01*
X-867410Y285750D01*
D02*
G37*
G36*
X-187288Y242797D02*
X-187429Y242612D01*
X-187553Y242412D01*
X-187661Y242197D01*
X-187752Y241967D01*
X-187827Y241722D01*
X-187885Y241462D01*
X-187927Y241187D01*
X-187952Y240897D01*
X-187960Y240592D01*
X-190500D01*
X-190508Y240897D01*
X-190533Y241187D01*
X-190575Y241462D01*
X-190633Y241722D01*
X-190707Y241967D01*
X-190799Y242197D01*
X-190907Y242412D01*
X-191031Y242612D01*
X-191172Y242797D01*
X-191330Y242968D01*
X-187130D01*
X-187288Y242797D01*
D02*
G37*
G36*
X-383540Y270510D02*
X-248920D01*
X-247650Y269240D01*
Y256540D01*
Y247650D01*
X-246380Y246380D01*
X-243840Y243840D01*
X-209550D01*
X-204470Y248920D01*
X-191770Y261620D01*
X-91440D01*
X-85090Y255270D01*
X-71120Y241300D01*
X-45720D01*
X-43180Y238760D01*
X-38100Y233680D01*
X-15240D01*
X-6350Y242570D01*
X0Y248920D01*
X17780D01*
X20320Y246380D01*
Y245110D01*
Y237490D01*
X17780Y234950D01*
X2540D01*
X-1270Y231140D01*
X-7620Y224790D01*
X-71120D01*
X-81280Y234950D01*
X-99060Y252730D01*
X-190500D01*
X-195580Y247650D01*
X-209550Y233680D01*
X-256540D01*
X-262890Y240030D01*
X-276860Y254000D01*
X-406400D01*
X-408940Y256540D01*
Y274320D01*
Y276860D01*
X-406400Y279400D01*
X-392430D01*
X-383540Y270510D01*
D02*
G37*
G36*
X-291063Y208791D02*
X-291429Y208367D01*
X-291747Y207874D01*
X-292015Y207313D01*
X-292235Y206683D01*
X-292406Y205986D01*
X-292528Y205220D01*
X-292602Y204386D01*
X-292627Y203484D01*
X-292530Y201476D01*
X-300526Y208281D01*
X-299413Y208376D01*
X-296555Y208822D01*
X-295762Y209024D01*
X-295050Y209254D01*
X-294419Y209510D01*
X-293867Y209793D01*
X-293396Y210103D01*
X-293005Y210441D01*
X-291063Y208791D01*
D02*
G37*
G36*
X13746Y212112D02*
X13518Y211996D01*
X13317Y211803D01*
X13143Y211532D01*
X12995Y211183D01*
X12874Y210757D01*
X12781Y210254D01*
X12714Y209674D01*
X12673Y209016D01*
X12660Y208280D01*
X7660D01*
X7647Y209016D01*
X7539Y210254D01*
X7445Y210757D01*
X7325Y211183D01*
X7177Y211532D01*
X7003Y211803D01*
X6802Y211996D01*
X6574Y212112D01*
X6320Y212151D01*
X14001D01*
X13746Y212112D01*
D02*
G37*
G36*
X-541020Y248920D02*
X-539750Y247650D01*
Y231140D01*
Y226060D01*
X-542290Y223520D01*
X-565150D01*
X-584200Y242570D01*
Y251460D01*
X-543560D01*
X-541020Y248920D01*
D02*
G37*
G36*
X-205378Y318585D02*
X-205412Y318509D01*
X-205442Y318382D01*
X-205468Y318204D01*
X-205508Y317696D01*
X-205540Y316070D01*
X-208080D01*
X-208082Y316553D01*
X-208208Y318509D01*
X-208242Y318585D01*
X-208279Y318610D01*
X-205340D01*
X-205378Y318585D01*
D02*
G37*
G36*
X-245815Y350012D02*
X-245739Y349978D01*
X-245612Y349948D01*
X-245434Y349922D01*
X-244926Y349882D01*
X-243300Y349850D01*
Y347310D01*
X-243783Y347308D01*
X-245739Y347182D01*
X-245815Y347148D01*
X-245840Y347110D01*
Y350050D01*
X-245815Y350012D01*
D02*
G37*
G36*
X-109428Y351264D02*
X-109256Y351123D01*
X-109077Y350994D01*
X-108891Y350879D01*
X-108697Y350777D01*
X-108496Y350687D01*
X-108287Y350610D01*
X-108071Y350546D01*
X-107848Y350496D01*
X-107617Y350458D01*
X-110428Y347647D01*
X-110466Y347878D01*
X-110517Y348101D01*
X-110580Y348317D01*
X-110657Y348526D01*
X-110747Y348727D01*
X-110849Y348921D01*
X-110964Y349107D01*
X-111093Y349286D01*
X-111234Y349458D01*
X-111388Y349622D01*
X-109592Y351418D01*
X-109428Y351264D01*
D02*
G37*
G36*
X-115890Y347980D02*
X-115916Y348221D01*
X-115993Y348437D01*
X-116121Y348628D01*
X-116301Y348793D01*
X-116533Y348932D01*
X-116815Y349047D01*
X-117150Y349136D01*
X-117535Y349199D01*
X-117972Y349237D01*
X-118461Y349250D01*
Y351790D01*
X-117972Y351803D01*
X-117535Y351841D01*
X-117150Y351904D01*
X-116815Y351993D01*
X-116533Y352108D01*
X-116301Y352247D01*
X-116121Y352412D01*
X-115993Y352603D01*
X-115916Y352819D01*
X-115890Y353060D01*
Y347980D01*
D02*
G37*
G36*
X-126829Y347093D02*
X-126781Y347039D01*
X-125078Y345314D01*
X-128671D01*
X-129030Y345656D01*
X-129389Y345961D01*
X-129748Y346230D01*
X-130107Y346464D01*
X-130466Y346661D01*
X-130826Y346823D01*
X-131185Y346949D01*
X-131544Y347039D01*
X-131903Y347093D01*
X-132263Y347110D01*
X-126840D01*
X-126829Y347093D01*
D02*
G37*
G36*
X-232952Y344233D02*
X-232729Y344046D01*
X-232505Y343881D01*
X-232280Y343738D01*
X-232054Y343618D01*
X-231827Y343520D01*
X-231598Y343444D01*
X-231369Y343390D01*
X-231138Y343359D01*
X-230906Y343350D01*
X-233876Y340380D01*
X-233885Y340612D01*
X-233916Y340843D01*
X-233970Y341073D01*
X-234046Y341301D01*
X-234144Y341528D01*
X-234264Y341754D01*
X-234407Y341979D01*
X-234572Y342203D01*
X-234759Y342426D01*
X-234969Y342647D01*
X-233173Y344443D01*
X-232952Y344233D01*
D02*
G37*
G36*
X-13930Y346632D02*
X-13811Y346067D01*
X-13612Y345477D01*
X-13333Y344861D01*
X-12975Y344221D01*
X-12537Y343554D01*
X-12020Y342863D01*
X-10746Y341404D01*
X-9990Y340636D01*
X-20490D01*
X-19734Y341404D01*
X-18460Y342863D01*
X-17943Y343554D01*
X-17505Y344221D01*
X-17147Y344861D01*
X-16868Y345477D01*
X-16669Y346067D01*
X-16550Y346632D01*
X-16510Y347172D01*
X-13970D01*
X-13930Y346632D01*
D02*
G37*
G36*
X-570755Y345098D02*
X-570911Y345031D01*
X-571049Y344920D01*
X-571169Y344765D01*
X-571270Y344565D01*
X-571353Y344321D01*
X-571417Y344032D01*
X-571463Y343699D01*
X-571491Y343322D01*
X-571500Y342900D01*
X-574040D01*
X-574049Y343322D01*
X-574123Y344032D01*
X-574187Y344321D01*
X-574270Y344565D01*
X-574371Y344765D01*
X-574491Y344920D01*
X-574628Y345031D01*
X-574785Y345098D01*
X-574959Y345120D01*
X-570580D01*
X-570755Y345098D01*
D02*
G37*
G36*
X-142780Y357110D02*
X-142805Y357148D01*
X-142881Y357182D01*
X-143008Y357212D01*
X-143186Y357238D01*
X-143694Y357278D01*
X-145319Y357310D01*
Y359850D01*
X-144837Y359852D01*
X-142881Y359978D01*
X-142805Y360012D01*
X-142780Y360050D01*
Y357110D01*
D02*
G37*
G36*
X-614680Y382270D02*
Y374650D01*
Y363220D01*
X-615950Y361950D01*
X-619760Y358140D01*
X-646430D01*
X-647700Y359410D01*
X-650240Y361950D01*
X-698500D01*
X-703580Y356870D01*
X-708660Y351790D01*
Y350520D01*
X-717550D01*
X-718820Y351790D01*
Y355600D01*
Y367030D01*
X-701040Y384810D01*
X-617220D01*
X-614680Y382270D01*
D02*
G37*
G36*
X-571487Y363088D02*
X-571449Y362656D01*
X-571386Y362275D01*
X-571297Y361945D01*
X-571183Y361665D01*
X-571043Y361437D01*
X-570878Y361259D01*
X-570687Y361132D01*
X-570471Y361056D01*
X-570230Y361031D01*
X-575310D01*
X-575069Y361056D01*
X-574853Y361132D01*
X-574662Y361259D01*
X-574497Y361437D01*
X-574357Y361665D01*
X-574243Y361945D01*
X-574154Y362275D01*
X-574091Y362656D01*
X-574053Y363088D01*
X-574040Y363571D01*
X-571500D01*
X-571487Y363088D01*
D02*
G37*
G36*
X-96444Y355951D02*
X-97511Y354849D01*
X-99171Y352908D01*
X-99765Y352069D01*
X-100200Y351318D01*
X-100478Y350655D01*
X-100598Y350079D01*
X-100560Y349592D01*
X-100364Y349192D01*
X-100010Y348880D01*
X-108701Y354269D01*
X-108241Y354063D01*
X-107726Y353982D01*
X-107156Y354026D01*
X-106532Y354196D01*
X-105852Y354490D01*
X-105118Y354909D01*
X-104328Y355453D01*
X-103484Y356122D01*
X-102585Y356916D01*
X-101630Y357835D01*
X-96444Y355951D01*
D02*
G37*
G36*
X-599379Y348060D02*
X-599429Y348535D01*
X-599580Y348960D01*
X-599832Y349335D01*
X-600184Y349660D01*
X-600637Y349935D01*
X-601190Y350160D01*
X-601844Y350335D01*
X-602598Y350460D01*
X-603454Y350535D01*
X-604409Y350560D01*
Y355560D01*
X-603454Y355585D01*
X-602598Y355660D01*
X-601844Y355785D01*
X-601190Y355960D01*
X-600637Y356185D01*
X-600184Y356460D01*
X-599832Y356785D01*
X-599580Y357160D01*
X-599429Y357585D01*
X-599379Y358060D01*
Y348060D01*
D02*
G37*
G36*
X-749389Y349370D02*
X-749477Y350086D01*
X-749741Y350727D01*
X-750181Y351292D01*
X-750797Y351783D01*
X-751589Y352197D01*
X-752557Y352537D01*
X-753701Y352801D01*
X-755022Y352989D01*
X-756518Y353102D01*
X-758190Y353140D01*
Y363140D01*
X-756518Y363178D01*
X-755022Y363291D01*
X-753701Y363479D01*
X-752557Y363743D01*
X-751589Y364083D01*
X-750797Y364497D01*
X-750181Y364987D01*
X-749741Y365553D01*
X-749477Y366194D01*
X-749389Y366911D01*
Y349370D01*
D02*
G37*
G36*
X-126815Y354968D02*
X-126739Y354895D01*
X-126612Y354831D01*
X-126434Y354775D01*
X-126206Y354727D01*
X-125926Y354689D01*
X-125215Y354637D01*
X-124300Y354620D01*
Y352080D01*
X-126840Y352110D01*
Y355050D01*
X-126815Y354968D01*
D02*
G37*
G36*
X-499110Y403860D02*
X-492760Y397510D01*
Y392430D01*
Y334010D01*
X-495300Y331470D01*
X-524510Y302260D01*
X-864870D01*
X-867410Y304800D01*
X-869950Y307340D01*
X-923290D01*
X-924560Y308610D01*
X-927100Y311150D01*
Y339090D01*
X-923290Y342900D01*
X-863600D01*
X-854710Y334010D01*
X-840740Y320040D01*
X-571500D01*
X-565150Y326390D01*
X-556260Y335280D01*
Y377190D01*
Y382270D01*
X-554990Y383540D01*
X-551180Y387350D01*
X-524510D01*
X-518160Y393700D01*
X-516890Y394970D01*
Y396240D01*
Y401320D01*
X-514350Y403860D01*
X-513080Y405130D01*
X-500380D01*
X-499110Y403860D01*
D02*
G37*
G36*
X-99932Y331966D02*
X-99790Y331587D01*
X-99554Y331252D01*
X-99223Y330963D01*
X-98797Y330717D01*
X-98277Y330517D01*
X-97662Y330361D01*
X-96953Y330249D01*
X-96149Y330182D01*
X-95250Y330160D01*
Y325160D01*
X-96149Y325138D01*
X-96953Y325071D01*
X-97662Y324959D01*
X-98277Y324803D01*
X-98797Y324603D01*
X-99223Y324357D01*
X-99554Y324068D01*
X-99790Y323733D01*
X-99932Y323354D01*
X-99979Y322930D01*
Y332389D01*
X-99932Y331966D01*
D02*
G37*
G36*
X-155345Y328879D02*
X-155268Y328663D01*
X-155140Y328472D01*
X-154960Y328307D01*
X-154728Y328167D01*
X-154446Y328053D01*
X-154285Y328010D01*
X-154168Y328043D01*
X-153934Y328128D01*
X-153713Y328228D01*
X-153506Y328344D01*
X-153314Y328475D01*
X-153135Y328621D01*
X-153183Y327860D01*
X-152801Y327850D01*
Y325310D01*
X-153289Y325297D01*
X-153346Y325292D01*
X-153401Y324430D01*
X-153561Y324597D01*
X-153737Y324747D01*
X-153930Y324879D01*
X-154138Y324993D01*
X-154363Y325090D01*
X-154428Y325111D01*
X-154446Y325107D01*
X-154728Y324992D01*
X-154960Y324853D01*
X-155140Y324688D01*
X-155268Y324497D01*
X-155345Y324281D01*
X-155371Y324040D01*
Y325296D01*
X-155423Y325301D01*
X-155729Y325310D01*
X-155551Y327850D01*
X-155371Y327855D01*
Y329120D01*
X-155345Y328879D01*
D02*
G37*
G36*
X-160378Y318592D02*
X-160412Y318536D01*
X-160442Y318443D01*
X-160468Y318313D01*
X-160490Y318145D01*
X-160522Y317699D01*
X-160540Y316750D01*
X-163080D01*
X-163082Y317104D01*
X-163178Y318443D01*
X-163208Y318536D01*
X-163242Y318592D01*
X-163279Y318610D01*
X-160340D01*
X-160378Y318592D01*
D02*
G37*
G36*
X-200378Y318585D02*
X-200412Y318509D01*
X-200442Y318382D01*
X-200468Y318204D01*
X-200508Y317696D01*
X-200540Y316070D01*
X-203080D01*
X-203082Y316553D01*
X-203208Y318509D01*
X-203242Y318585D01*
X-203279Y318610D01*
X-200340D01*
X-200378Y318585D01*
D02*
G37*
G36*
X-195378D02*
X-195412Y318509D01*
X-195442Y318382D01*
X-195468Y318204D01*
X-195508Y317696D01*
X-195540Y316070D01*
X-198080D01*
X-198082Y316553D01*
X-198208Y318509D01*
X-198242Y318585D01*
X-198279Y318610D01*
X-195340D01*
X-195378Y318585D01*
D02*
G37*
G36*
X-170378Y318590D02*
X-170412Y318530D01*
X-170442Y318429D01*
X-170468Y318287D01*
X-170490Y318105D01*
X-170522Y317620D01*
X-170540Y316590D01*
X-173080D01*
X-173082Y316974D01*
X-173178Y318429D01*
X-173208Y318530D01*
X-173242Y318590D01*
X-173279Y318610D01*
X-170340D01*
X-170378Y318590D01*
D02*
G37*
G36*
X-219914Y338173D02*
X-220045Y337981D01*
X-220161Y337774D01*
X-220262Y337554D01*
X-220347Y337319D01*
X-220416Y337071D01*
X-220471Y336808D01*
X-220509Y336532D01*
X-220522Y336365D01*
X-220412Y334651D01*
X-220378Y334575D01*
X-220340Y334549D01*
X-223279D01*
X-223242Y334575D01*
X-223208Y334651D01*
X-223178Y334778D01*
X-223152Y334956D01*
X-223112Y335464D01*
X-223098Y336170D01*
X-223115Y336358D01*
X-223159Y336631D01*
X-223221Y336888D01*
X-223300Y337129D01*
X-223396Y337354D01*
X-223511Y337562D01*
X-223643Y337755D01*
X-223792Y337931D01*
X-223959Y338092D01*
X-219767Y338352D01*
X-219914Y338173D01*
D02*
G37*
G36*
X-165538Y336607D02*
X-165468Y335520D01*
X-164607Y335393D01*
X-164784Y335248D01*
X-164943Y335086D01*
X-165083Y334905D01*
X-165204Y334706D01*
X-165307Y334490D01*
X-165391Y334255D01*
X-165456Y334003D01*
X-165503Y333732D01*
X-165531Y333444D01*
X-165540Y333137D01*
X-168080Y333555D01*
X-168087Y333859D01*
X-168141Y334428D01*
X-168163Y334549D01*
X-168279D01*
X-168242Y334575D01*
X-168208Y334651D01*
X-168193Y334712D01*
X-168250Y334945D01*
X-168325Y335184D01*
X-168414Y335410D01*
X-168516Y335623D01*
X-168632Y335822D01*
X-168762Y336009D01*
X-168103Y335911D01*
X-168080Y337090D01*
X-165540D01*
X-165538Y336607D01*
D02*
G37*
G36*
X-762801Y342638D02*
X-762770Y342407D01*
X-762717Y342178D01*
X-762641Y341950D01*
X-762543Y341722D01*
X-762422Y341496D01*
X-762280Y341271D01*
X-762114Y341048D01*
X-761927Y340825D01*
X-761717Y340603D01*
X-763513Y338807D01*
X-763735Y339017D01*
X-763958Y339204D01*
X-764181Y339370D01*
X-764406Y339512D01*
X-764632Y339633D01*
X-764859Y339731D01*
X-765088Y339807D01*
X-765317Y339860D01*
X-765548Y339891D01*
X-765780Y339900D01*
X-762810Y342870D01*
X-762801Y342638D01*
D02*
G37*
G36*
X-135492Y334450D02*
X-135663Y334608D01*
X-135848Y334749D01*
X-136048Y334873D01*
X-136263Y334981D01*
X-136493Y335073D01*
X-136738Y335147D01*
X-136998Y335205D01*
X-137273Y335247D01*
X-137563Y335272D01*
X-137868Y335280D01*
Y337820D01*
X-137563Y337828D01*
X-137273Y337853D01*
X-136998Y337895D01*
X-136738Y337953D01*
X-136493Y338027D01*
X-136263Y338119D01*
X-136048Y338227D01*
X-135848Y338351D01*
X-135663Y338492D01*
X-135492Y338650D01*
Y334450D01*
D02*
G37*
G36*
X-353033Y330110D02*
X-352848Y329969D01*
X-352648Y329845D01*
X-352433Y329737D01*
X-352203Y329646D01*
X-351958Y329571D01*
X-351698Y329513D01*
X-351423Y329471D01*
X-351133Y329446D01*
X-350828Y329438D01*
Y326898D01*
X-351133Y326890D01*
X-351423Y326865D01*
X-351698Y326823D01*
X-351958Y326765D01*
X-352203Y326690D01*
X-352433Y326599D01*
X-352648Y326491D01*
X-352848Y326367D01*
X-353033Y326226D01*
X-353204Y326068D01*
Y330268D01*
X-353033Y330110D01*
D02*
G37*
G36*
X-141842Y328100D02*
X-142013Y328258D01*
X-142198Y328399D01*
X-142398Y328523D01*
X-142613Y328631D01*
X-142843Y328722D01*
X-143088Y328797D01*
X-143348Y328855D01*
X-143623Y328897D01*
X-143913Y328922D01*
X-144218Y328930D01*
Y331470D01*
X-143913Y331478D01*
X-143623Y331503D01*
X-143348Y331545D01*
X-143088Y331603D01*
X-142843Y331678D01*
X-142613Y331769D01*
X-142398Y331877D01*
X-142198Y332001D01*
X-142013Y332142D01*
X-141842Y332300D01*
Y328100D01*
D02*
G37*
G36*
X-115033Y335287D02*
X-114118Y334513D01*
X-113710Y334228D01*
X-113334Y334011D01*
X-112991Y333863D01*
X-112681Y333782D01*
X-112404Y333770D01*
X-112159Y333825D01*
X-111947Y333949D01*
X-115890Y330768D01*
X-115732Y330946D01*
X-115650Y331164D01*
X-115644Y331423D01*
X-115713Y331722D01*
X-115858Y332061D01*
X-116079Y332440D01*
X-116375Y332860D01*
X-116746Y333320D01*
X-117717Y334361D01*
X-115540Y335776D01*
X-115033Y335287D01*
D02*
G37*
G36*
X-200538Y455607D02*
X-200412Y453651D01*
X-200378Y453575D01*
X-200340Y453549D01*
X-203279D01*
X-203242Y453575D01*
X-203208Y453651D01*
X-203178Y453778D01*
X-203152Y453956D01*
X-203112Y454464D01*
X-203080Y456090D01*
X-200540D01*
X-200538Y455607D01*
D02*
G37*
G36*
X-322678Y798800D02*
X-323659Y797784D01*
X-325207Y795950D01*
X-325776Y795132D01*
X-326207Y794381D01*
X-326500Y793695D01*
X-326656Y793076D01*
X-326675Y792523D01*
X-326557Y792036D01*
X-326301Y791615D01*
X-332820Y799404D01*
X-332456Y799091D01*
X-332013Y798929D01*
X-331492Y798916D01*
X-330891Y799053D01*
X-330212Y799340D01*
X-329454Y799778D01*
X-328618Y800365D01*
X-327702Y801102D01*
X-325635Y803027D01*
X-322678Y798800D01*
D02*
G37*
G36*
X-114398D02*
X-115379Y797784D01*
X-116927Y795950D01*
X-117496Y795132D01*
X-117927Y794381D01*
X-118220Y793695D01*
X-118377Y793076D01*
X-118395Y792523D01*
X-118277Y792036D01*
X-118021Y791615D01*
X-124540Y799404D01*
X-124176Y799091D01*
X-123733Y798929D01*
X-123211Y798916D01*
X-122611Y799053D01*
X-121932Y799340D01*
X-121174Y799778D01*
X-120338Y800365D01*
X-119423Y801102D01*
X-117355Y803027D01*
X-114398Y798800D01*
D02*
G37*
G36*
X-755835Y803484D02*
X-755760Y802635D01*
X-755635Y801885D01*
X-755460Y801235D01*
X-755235Y800685D01*
X-754960Y800235D01*
X-754635Y799884D01*
X-754260Y799634D01*
X-753835Y799484D01*
X-753360Y799435D01*
X-763360D01*
X-762885Y799484D01*
X-762460Y799634D01*
X-762085Y799884D01*
X-761760Y800235D01*
X-761485Y800685D01*
X-761260Y801235D01*
X-761085Y801885D01*
X-760960Y802635D01*
X-760885Y803484D01*
X-760860Y804435D01*
X-755860D01*
X-755835Y803484D01*
D02*
G37*
G36*
X-875291Y797845D02*
X-875141Y796141D01*
X-874891Y794637D01*
X-874541Y793334D01*
X-874091Y792231D01*
X-873541Y791328D01*
X-872891Y790625D01*
X-872141Y790123D01*
X-871291Y789821D01*
X-870341Y789719D01*
X-889930Y789750D01*
X-889058Y789849D01*
X-888278Y790150D01*
X-887589Y790649D01*
X-886993Y791349D01*
X-886488Y792250D01*
X-886075Y793350D01*
X-885754Y794650D01*
X-885525Y796150D01*
X-885387Y797850D01*
X-885341Y799750D01*
X-875341D01*
X-875291Y797845D01*
D02*
G37*
G36*
X-717339Y787400D02*
X-717390Y787883D01*
X-717543Y788314D01*
X-717799Y788695D01*
X-718157Y789026D01*
X-718617Y789305D01*
X-719179Y789534D01*
X-719843Y789711D01*
X-720610Y789838D01*
X-721479Y789915D01*
X-722449Y789940D01*
Y795020D01*
X-721479Y795045D01*
X-720610Y795122D01*
X-719843Y795249D01*
X-719179Y795426D01*
X-718617Y795655D01*
X-718157Y795934D01*
X-717799Y796265D01*
X-717543Y796646D01*
X-717390Y797077D01*
X-717339Y797560D01*
Y787400D01*
D02*
G37*
G36*
X-526910Y797077D02*
X-526757Y796646D01*
X-526501Y796265D01*
X-526143Y795934D01*
X-525683Y795655D01*
X-525121Y795426D01*
X-524457Y795249D01*
X-523690Y795122D01*
X-522822Y795045D01*
X-521851Y795020D01*
Y789940D01*
X-522822Y789915D01*
X-523690Y789838D01*
X-524457Y789711D01*
X-525121Y789534D01*
X-525683Y789305D01*
X-526143Y789026D01*
X-526501Y788695D01*
X-526757Y788314D01*
X-526910Y787883D01*
X-526961Y787400D01*
Y797560D01*
X-526910Y797077D01*
D02*
G37*
G36*
X-514139Y787400D02*
X-514190Y787883D01*
X-514343Y788314D01*
X-514599Y788695D01*
X-514957Y789026D01*
X-515417Y789305D01*
X-515979Y789534D01*
X-516643Y789711D01*
X-517410Y789838D01*
X-518279Y789915D01*
X-519249Y789940D01*
Y795020D01*
X-518279Y795045D01*
X-517410Y795122D01*
X-516643Y795249D01*
X-515979Y795426D01*
X-515417Y795655D01*
X-514957Y795934D01*
X-514599Y796265D01*
X-514343Y796646D01*
X-514190Y797077D01*
X-514139Y797560D01*
Y787400D01*
D02*
G37*
G36*
X-311320Y807249D02*
X-312092Y807087D01*
X-312900Y806818D01*
X-313744Y806440D01*
X-314624Y805956D01*
X-315540Y805363D01*
X-316492Y804662D01*
X-318504Y802938D01*
X-319564Y801914D01*
X-324952Y803710D01*
X-324303Y804393D01*
X-323793Y805004D01*
X-323422Y805542D01*
X-323190Y806009D01*
X-323097Y806404D01*
X-323143Y806728D01*
X-323327Y806979D01*
X-323651Y807159D01*
X-324114Y807267D01*
X-324715Y807302D01*
X-310583D01*
X-311320Y807249D01*
D02*
G37*
G36*
X-109919Y807254D02*
X-110306Y807110D01*
X-110646Y806869D01*
X-110942Y806533D01*
X-111192Y806099D01*
X-111396Y805570D01*
X-111556Y804944D01*
X-111669Y804222D01*
X-111737Y803404D01*
X-111760Y802490D01*
X-116840D01*
X-116863Y803404D01*
X-116931Y804222D01*
X-117044Y804944D01*
X-117204Y805570D01*
X-117408Y806099D01*
X-117658Y806533D01*
X-117954Y806869D01*
X-118294Y807110D01*
X-118681Y807254D01*
X-119113Y807302D01*
X-109487D01*
X-109919Y807254D01*
D02*
G37*
G36*
X-518863Y807302D02*
X-519274Y807574D01*
X-519753Y807706D01*
X-520300Y807697D01*
X-520916Y807549D01*
X-521600Y807260D01*
X-522353Y806830D01*
X-523174Y806261D01*
X-524063Y805551D01*
X-526048Y803710D01*
X-529984Y806958D01*
X-528962Y808016D01*
X-527361Y809904D01*
X-526781Y810735D01*
X-526348Y811492D01*
X-526063Y812172D01*
X-525924Y812778D01*
X-525933Y813308D01*
X-526089Y813763D01*
X-526391Y814143D01*
X-518863Y807302D01*
D02*
G37*
G36*
X-717271Y806236D02*
X-717702Y806083D01*
X-718083Y805829D01*
X-718414Y805474D01*
X-718693Y805016D01*
X-718922Y804458D01*
X-719099Y803797D01*
X-719226Y803035D01*
X-719303Y802172D01*
X-719328Y801207D01*
X-724408D01*
X-724433Y802172D01*
X-724510Y803035D01*
X-724637Y803797D01*
X-724814Y804458D01*
X-725043Y805016D01*
X-725322Y805474D01*
X-725653Y805829D01*
X-726034Y806083D01*
X-726465Y806236D01*
X-726948Y806286D01*
X-716788D01*
X-717271Y806236D01*
D02*
G37*
G36*
X-553828Y803484D02*
X-553753Y802635D01*
X-553628Y801885D01*
X-553453Y801235D01*
X-553228Y800685D01*
X-552953Y800235D01*
X-552628Y799884D01*
X-552253Y799634D01*
X-551828Y799484D01*
X-551353Y799435D01*
X-561353D01*
X-560878Y799484D01*
X-560453Y799634D01*
X-560078Y799884D01*
X-559753Y800235D01*
X-559478Y800685D01*
X-559253Y801235D01*
X-559078Y801885D01*
X-558953Y802635D01*
X-558878Y803484D01*
X-558853Y804435D01*
X-553853D01*
X-553828Y803484D01*
D02*
G37*
G36*
X-352925D02*
X-352850Y802635D01*
X-352725Y801885D01*
X-352550Y801235D01*
X-352325Y800685D01*
X-352050Y800235D01*
X-351725Y799884D01*
X-351350Y799634D01*
X-350925Y799484D01*
X-350450Y799435D01*
X-360450D01*
X-359975Y799484D01*
X-359550Y799634D01*
X-359175Y799884D01*
X-358850Y800235D01*
X-358575Y800685D01*
X-358350Y801235D01*
X-358175Y801885D01*
X-358050Y802635D01*
X-357975Y803484D01*
X-357950Y804435D01*
X-352950D01*
X-352925Y803484D01*
D02*
G37*
G36*
X-144645D02*
X-144570Y802635D01*
X-144445Y801885D01*
X-144270Y801235D01*
X-144045Y800685D01*
X-143770Y800235D01*
X-143445Y799884D01*
X-143070Y799634D01*
X-142645Y799484D01*
X-142170Y799435D01*
X-152170D01*
X-151695Y799484D01*
X-151270Y799634D01*
X-150895Y799884D01*
X-150570Y800235D01*
X-150295Y800685D01*
X-150070Y801235D01*
X-149895Y801885D01*
X-149770Y802635D01*
X-149695Y803484D01*
X-149670Y804435D01*
X-144670D01*
X-144645Y803484D01*
D02*
G37*
G36*
X-528256Y785505D02*
X-528687Y785351D01*
X-529068Y785096D01*
X-529399Y784738D01*
X-529678Y784278D01*
X-529907Y783716D01*
X-530084Y783052D01*
X-530211Y782285D01*
X-530288Y781416D01*
X-530313Y780445D01*
X-535393D01*
X-535418Y781416D01*
X-535495Y782285D01*
X-535622Y783052D01*
X-535799Y783716D01*
X-536028Y784278D01*
X-536307Y784738D01*
X-536638Y785096D01*
X-537019Y785351D01*
X-537450Y785505D01*
X-537933Y785556D01*
X-527773D01*
X-528256Y785505D01*
D02*
G37*
G36*
X-503253Y785475D02*
X-503684Y785322D01*
X-504065Y785068D01*
X-504396Y784713D01*
X-504675Y784256D01*
X-504904Y783697D01*
X-505081Y783036D01*
X-505208Y782274D01*
X-505285Y781411D01*
X-505310Y780445D01*
X-510390D01*
X-510415Y781411D01*
X-510492Y782274D01*
X-510619Y783036D01*
X-510796Y783697D01*
X-511025Y784256D01*
X-511304Y784713D01*
X-511635Y785068D01*
X-512016Y785322D01*
X-512447Y785475D01*
X-512930Y785526D01*
X-502770D01*
X-503253Y785475D01*
D02*
G37*
G36*
X-480393D02*
X-480824Y785322D01*
X-481205Y785068D01*
X-481536Y784713D01*
X-481815Y784256D01*
X-482044Y783697D01*
X-482221Y783036D01*
X-482348Y782274D01*
X-482425Y781411D01*
X-482450Y780445D01*
X-487530D01*
X-487555Y781411D01*
X-487632Y782274D01*
X-487759Y783036D01*
X-487936Y783697D01*
X-488165Y784256D01*
X-488444Y784713D01*
X-488775Y785068D01*
X-489156Y785322D01*
X-489587Y785475D01*
X-490070Y785526D01*
X-479910D01*
X-480393Y785475D01*
D02*
G37*
G36*
X-683593D02*
X-684024Y785322D01*
X-684405Y785068D01*
X-684736Y784713D01*
X-685015Y784256D01*
X-685244Y783697D01*
X-685421Y783036D01*
X-685548Y782274D01*
X-685625Y781411D01*
X-685650Y780445D01*
X-690730D01*
X-690755Y781411D01*
X-690832Y782274D01*
X-690959Y783036D01*
X-691136Y783697D01*
X-691365Y784256D01*
X-691644Y784713D01*
X-691975Y785068D01*
X-692356Y785322D01*
X-692787Y785475D01*
X-693270Y785526D01*
X-683110D01*
X-683593Y785475D01*
D02*
G37*
G36*
X-482425Y777719D02*
X-482348Y776850D01*
X-482221Y776083D01*
X-482044Y775419D01*
X-481815Y774857D01*
X-481536Y774397D01*
X-481205Y774039D01*
X-480824Y773783D01*
X-480393Y773630D01*
X-479910Y773579D01*
X-490070D01*
X-489587Y773630D01*
X-489156Y773783D01*
X-488775Y774039D01*
X-488444Y774397D01*
X-488165Y774857D01*
X-487936Y775419D01*
X-487759Y776083D01*
X-487632Y776850D01*
X-487555Y777719D01*
X-487530Y778689D01*
X-482450D01*
X-482425Y777719D01*
D02*
G37*
G36*
X-730583Y785505D02*
X-731014Y785351D01*
X-731395Y785096D01*
X-731726Y784738D01*
X-732005Y784278D01*
X-732234Y783716D01*
X-732411Y783052D01*
X-732538Y782285D01*
X-732615Y781416D01*
X-732640Y780445D01*
X-737720D01*
X-737745Y781416D01*
X-737822Y782285D01*
X-737949Y783052D01*
X-738126Y783716D01*
X-738355Y784278D01*
X-738634Y784738D01*
X-738965Y785096D01*
X-739346Y785351D01*
X-739777Y785505D01*
X-740260Y785556D01*
X-730100D01*
X-730583Y785505D01*
D02*
G37*
G36*
X-706773Y785475D02*
X-707204Y785322D01*
X-707585Y785068D01*
X-707916Y784713D01*
X-708195Y784256D01*
X-708424Y783697D01*
X-708601Y783036D01*
X-708728Y782274D01*
X-708805Y781411D01*
X-708830Y780445D01*
X-713910D01*
X-713935Y781411D01*
X-714012Y782274D01*
X-714139Y783036D01*
X-714316Y783697D01*
X-714545Y784256D01*
X-714824Y784713D01*
X-715155Y785068D01*
X-715536Y785322D01*
X-715967Y785475D01*
X-716450Y785526D01*
X-706290D01*
X-706773Y785475D01*
D02*
G37*
G36*
X-350925Y785506D02*
X-351350Y785355D01*
X-351725Y785103D01*
X-352050Y784751D01*
X-352325Y784298D01*
X-352550Y783745D01*
X-352725Y783091D01*
X-352850Y782337D01*
X-352925Y781481D01*
X-352950Y780526D01*
X-357950D01*
X-357975Y781481D01*
X-358050Y782337D01*
X-358175Y783091D01*
X-358350Y783745D01*
X-358575Y784298D01*
X-358850Y784751D01*
X-359175Y785103D01*
X-359550Y785355D01*
X-359975Y785506D01*
X-360450Y785556D01*
X-350450D01*
X-350925Y785506D01*
D02*
G37*
G36*
X-142645D02*
X-143070Y785355D01*
X-143445Y785103D01*
X-143770Y784751D01*
X-144045Y784298D01*
X-144270Y783745D01*
X-144445Y783091D01*
X-144570Y782337D01*
X-144645Y781481D01*
X-144670Y780526D01*
X-149670D01*
X-149695Y781481D01*
X-149770Y782337D01*
X-149895Y783091D01*
X-150070Y783745D01*
X-150295Y784298D01*
X-150570Y784751D01*
X-150895Y785103D01*
X-151270Y785355D01*
X-151695Y785506D01*
X-152170Y785556D01*
X-142170D01*
X-142645Y785506D01*
D02*
G37*
G36*
X-728917Y797077D02*
X-728764Y796646D01*
X-728508Y796265D01*
X-728150Y795934D01*
X-727690Y795655D01*
X-727128Y795426D01*
X-726464Y795249D01*
X-725697Y795122D01*
X-724828Y795045D01*
X-723857Y795020D01*
Y789940D01*
X-724828Y789915D01*
X-725697Y789838D01*
X-726464Y789711D01*
X-727128Y789534D01*
X-727690Y789305D01*
X-728150Y789026D01*
X-728508Y788695D01*
X-728764Y788314D01*
X-728917Y787883D01*
X-728968Y787400D01*
Y797560D01*
X-728917Y797077D01*
D02*
G37*
G36*
X-551828Y785506D02*
X-552253Y785355D01*
X-552628Y785103D01*
X-552953Y784751D01*
X-553228Y784298D01*
X-553453Y783745D01*
X-553628Y783091D01*
X-553753Y782337D01*
X-553828Y781481D01*
X-553853Y780526D01*
X-558853D01*
X-558878Y781481D01*
X-558953Y782337D01*
X-559078Y783091D01*
X-559253Y783745D01*
X-559478Y784298D01*
X-559753Y784751D01*
X-560078Y785103D01*
X-560453Y785355D01*
X-560878Y785506D01*
X-561353Y785556D01*
X-551353D01*
X-551828Y785506D01*
D02*
G37*
G36*
X-327993Y785505D02*
X-328424Y785351D01*
X-328805Y785096D01*
X-329136Y784738D01*
X-329415Y784278D01*
X-329644Y783716D01*
X-329821Y783052D01*
X-329948Y782285D01*
X-330025Y781416D01*
X-330050Y780445D01*
X-335130D01*
X-335155Y781416D01*
X-335232Y782285D01*
X-335359Y783052D01*
X-335536Y783716D01*
X-335765Y784278D01*
X-336044Y784738D01*
X-336375Y785096D01*
X-336756Y785351D01*
X-337187Y785505D01*
X-337670Y785556D01*
X-327510D01*
X-327993Y785505D01*
D02*
G37*
G36*
X-119713D02*
X-120144Y785351D01*
X-120525Y785096D01*
X-120856Y784738D01*
X-121135Y784278D01*
X-121364Y783716D01*
X-121541Y783052D01*
X-121668Y782285D01*
X-121745Y781416D01*
X-121770Y780445D01*
X-126850D01*
X-126875Y781416D01*
X-126952Y782285D01*
X-127079Y783052D01*
X-127256Y783716D01*
X-127485Y784278D01*
X-127764Y784738D01*
X-128095Y785096D01*
X-128476Y785351D01*
X-128907Y785505D01*
X-129390Y785556D01*
X-119230D01*
X-119713Y785505D01*
D02*
G37*
G36*
X-753835Y785506D02*
X-754260Y785355D01*
X-754635Y785103D01*
X-754960Y784751D01*
X-755235Y784298D01*
X-755460Y783745D01*
X-755635Y783091D01*
X-755760Y782337D01*
X-755835Y781481D01*
X-755860Y780526D01*
X-760860D01*
X-760885Y781481D01*
X-760960Y782337D01*
X-761085Y783091D01*
X-761260Y783745D01*
X-761485Y784298D01*
X-761760Y784751D01*
X-762085Y785103D01*
X-762460Y785355D01*
X-762885Y785506D01*
X-763360Y785556D01*
X-753360D01*
X-753835Y785506D01*
D02*
G37*
G36*
X-78740Y868680D02*
Y816610D01*
X-80010Y815340D01*
X-82550Y812800D01*
X-96520D01*
X-97790Y814070D01*
X-101600Y817880D01*
Y833120D01*
Y842010D01*
X-102870Y843280D01*
X-106680Y847090D01*
X-119380D01*
X-123190Y850900D01*
X-129540Y857250D01*
X-196850D01*
X-205740Y866140D01*
X-219710Y880110D01*
Y891540D01*
Y979170D01*
X-241300Y1000760D01*
X-378460D01*
X-387350Y1009650D01*
Y1134845D01*
X-78740D01*
Y868680D01*
D02*
G37*
G36*
X-460900Y871330D02*
X-465900D01*
X-465910Y876330D01*
X-460891D01*
X-460900Y871330D01*
D02*
G37*
G36*
X-435500D02*
X-440500D01*
X-440509Y876330D01*
X-435490D01*
X-435500Y871330D01*
D02*
G37*
G36*
X-624730Y872640D02*
X-629730D01*
X-629739Y876330D01*
X-624720D01*
X-624730Y872640D01*
D02*
G37*
G36*
X-637430Y871330D02*
X-642430D01*
X-642439Y876330D01*
X-637421D01*
X-637430Y871330D01*
D02*
G37*
G36*
X-460875Y867614D02*
X-460800Y866758D01*
X-460675Y866004D01*
X-460500Y865350D01*
X-460275Y864797D01*
X-460000Y864344D01*
X-459675Y863992D01*
X-459300Y863740D01*
X-458875Y863589D01*
X-458400Y863539D01*
X-468400D01*
X-467925Y863589D01*
X-467500Y863740D01*
X-467125Y863992D01*
X-466800Y864344D01*
X-466525Y864797D01*
X-466300Y865350D01*
X-466125Y866004D01*
X-466000Y866758D01*
X-465925Y867614D01*
X-465900Y868569D01*
X-460900D01*
X-460875Y867614D01*
D02*
G37*
G36*
X-435475D02*
X-435400Y866758D01*
X-435275Y866004D01*
X-435100Y865350D01*
X-434875Y864797D01*
X-434600Y864344D01*
X-434275Y863992D01*
X-433900Y863740D01*
X-433475Y863589D01*
X-433000Y863539D01*
X-443000D01*
X-442525Y863589D01*
X-442100Y863740D01*
X-441725Y863992D01*
X-441400Y864344D01*
X-441125Y864797D01*
X-440900Y865350D01*
X-440725Y866004D01*
X-440600Y866758D01*
X-440525Y867614D01*
X-440500Y868569D01*
X-435500D01*
X-435475Y867614D01*
D02*
G37*
G36*
X-662830Y871330D02*
X-667830D01*
X-667840Y876330D01*
X-662821D01*
X-662830Y871330D01*
D02*
G37*
G36*
X-403860Y1050290D02*
Y1013460D01*
X-406400Y1010920D01*
X-410210Y1007110D01*
Y1000760D01*
Y935990D01*
X-411480Y934720D01*
X-417830Y928370D01*
X-440690D01*
Y943610D01*
Y977900D01*
X-438150Y980440D01*
Y1134845D01*
X-403860D01*
Y1050290D01*
D02*
G37*
G36*
X-863300Y930489D02*
X-865159Y928560D01*
X-868110Y925045D01*
X-869203Y923459D01*
X-870041Y921988D01*
X-870624Y920631D01*
X-870951Y919388D01*
X-871023Y918260D01*
X-870840Y917246D01*
X-870402Y916346D01*
X-881743Y933229D01*
X-881092Y932542D01*
X-880272Y932165D01*
X-879282Y932099D01*
X-878122Y932344D01*
X-876793Y932899D01*
X-875294Y933764D01*
X-873625Y934940D01*
X-871786Y936426D01*
X-867600Y940331D01*
X-863300Y930489D01*
D02*
G37*
G36*
X-846946Y1020943D02*
X-847793Y1020554D01*
X-848540Y1019906D01*
X-849187Y1018999D01*
X-849735Y1017834D01*
X-850183Y1016409D01*
X-850532Y1014725D01*
X-850781Y1012782D01*
X-850930Y1010580D01*
X-850980Y1008118D01*
X-860980D01*
X-861030Y1010580D01*
X-861428Y1014725D01*
X-861777Y1016409D01*
X-862225Y1017834D01*
X-862773Y1018999D01*
X-863420Y1019906D01*
X-864167Y1020554D01*
X-865014Y1020943D01*
X-865960Y1021072D01*
X-846000D01*
X-846946Y1020943D01*
D02*
G37*
G36*
X-508000Y1012190D02*
X-511810Y1008380D01*
X-514350Y1005840D01*
X-595630D01*
X-604520Y996950D01*
X-613410Y988060D01*
Y972820D01*
Y928370D01*
X-615950Y925830D01*
X-640080D01*
X-642620Y928370D01*
Y967740D01*
Y1134845D01*
X-508000D01*
Y1012190D01*
D02*
G37*
G36*
X-422800Y872640D02*
X-427800D01*
X-427809Y876330D01*
X-422790D01*
X-422800Y872640D01*
D02*
G37*
G36*
X-871316Y913221D02*
X-872160Y912921D01*
X-872906Y912421D01*
X-873552Y911721D01*
X-874099Y910820D01*
X-874546Y909721D01*
X-874894Y908420D01*
X-875142Y906920D01*
X-875291Y905220D01*
X-875341Y903320D01*
X-885341D01*
X-885391Y905220D01*
X-885540Y906920D01*
X-885788Y908420D01*
X-886136Y909721D01*
X-886583Y910820D01*
X-887130Y911721D01*
X-887776Y912421D01*
X-888521Y912921D01*
X-889366Y913221D01*
X-890311Y913320D01*
X-870371D01*
X-871316Y913221D01*
D02*
G37*
G36*
X-284480Y985520D02*
X-281940Y982980D01*
Y838200D01*
Y821690D01*
X-284480Y819150D01*
X-287020Y816610D01*
X-297180D01*
X-306070Y825500D01*
X-306070Y845819D01*
X-317501Y857250D01*
X-372109Y857250D01*
X-412750Y897890D01*
X-458471Y897889D01*
X-469900Y909320D01*
Y923290D01*
Y952500D01*
X-467360Y955040D01*
X-448310D01*
X-445770Y952500D01*
Y933450D01*
Y928370D01*
X-444500Y927100D01*
X-441960Y924560D01*
X-415290D01*
X-411480Y928370D01*
X-400050Y939800D01*
Y974090D01*
Y979170D01*
X-396240Y982980D01*
X-391160Y988060D01*
X-287020D01*
X-284480Y985520D01*
D02*
G37*
G36*
X-664043Y828075D02*
X-664055Y827997D01*
X-664065Y827867D01*
X-664094Y826826D01*
X-664100Y825500D01*
X-669100D01*
X-669171Y828101D01*
X-664029D01*
X-664043Y828075D01*
D02*
G37*
G36*
X-617913Y832445D02*
X-618003Y832207D01*
X-618082Y831880D01*
X-618150Y831464D01*
X-618256Y830367D01*
X-618335Y828057D01*
X-618340Y827110D01*
X-620880D01*
X-620885Y828057D01*
X-621138Y831880D01*
X-621217Y832207D01*
X-621307Y832445D01*
X-621407Y832595D01*
X-617813D01*
X-617913Y832445D01*
D02*
G37*
G36*
X-414713D02*
X-414803Y832207D01*
X-414882Y831880D01*
X-414950Y831464D01*
X-415056Y830367D01*
X-415135Y828057D01*
X-415140Y827110D01*
X-417680D01*
X-417685Y828057D01*
X-417938Y831880D01*
X-418017Y832207D01*
X-418107Y832445D01*
X-418207Y832595D01*
X-414613D01*
X-414713Y832445D01*
D02*
G37*
G36*
X-458875Y828051D02*
X-459300Y827900D01*
X-459675Y827648D01*
X-460000Y827296D01*
X-460275Y826843D01*
X-460500Y826290D01*
X-460675Y825636D01*
X-460800Y824882D01*
X-460875Y824026D01*
X-460900Y823071D01*
X-465900D01*
X-465925Y824026D01*
X-466000Y824882D01*
X-466125Y825636D01*
X-466300Y826290D01*
X-466525Y826843D01*
X-466800Y827296D01*
X-467125Y827648D01*
X-467500Y827900D01*
X-467925Y828051D01*
X-468400Y828101D01*
X-458400D01*
X-458875Y828051D01*
D02*
G37*
G36*
X-453390Y1033780D02*
Y982980D01*
X-486410Y949960D01*
Y838200D01*
Y819150D01*
X-487680Y817880D01*
X-490220Y815340D01*
X-499110D01*
X-504190Y820420D01*
Y831850D01*
Y839470D01*
X-506730Y842010D01*
X-509270Y844550D01*
X-533400D01*
X-539750Y850900D01*
X-593090D01*
X-594360Y852170D01*
X-601980Y859790D01*
Y956310D01*
Y977900D01*
X-600710Y979170D01*
X-590550Y989330D01*
X-501650D01*
X-497840Y993140D01*
X-488950Y1002030D01*
Y1014730D01*
Y1134845D01*
X-453390D01*
Y1033780D01*
D02*
G37*
G36*
X-647700Y979170D02*
Y933450D01*
Y928370D01*
X-648970Y927100D01*
X-650240Y925830D01*
X-684530D01*
X-685800Y924560D01*
X-692150Y918210D01*
Y857250D01*
Y835660D01*
Y819150D01*
X-694690Y816610D01*
X-702310D01*
X-704850Y819150D01*
Y822960D01*
Y838200D01*
X-709930Y843280D01*
X-711200Y844550D01*
X-735330D01*
X-741680Y850900D01*
X-800100D01*
X-803910Y854710D01*
X-811530Y862330D01*
Y971550D01*
Y979170D01*
X-810260Y980440D01*
X-806450Y984250D01*
X-652780D01*
X-647700Y979170D01*
D02*
G37*
G36*
X-7751Y832565D02*
X-7600Y832140D01*
X-7348Y831765D01*
X-6996Y831440D01*
X-6543Y831165D01*
X-5990Y830940D01*
X-5336Y830765D01*
X-4581Y830640D01*
X-3726Y830565D01*
X-2770Y830540D01*
Y825540D01*
X-3726Y825515D01*
X-4581Y825440D01*
X-5336Y825315D01*
X-5990Y825140D01*
X-6543Y824915D01*
X-6996Y824640D01*
X-7348Y824315D01*
X-7600Y823940D01*
X-7751Y823515D01*
X-7801Y823040D01*
Y833040D01*
X-7751Y832565D01*
D02*
G37*
G36*
X-673555Y850930D02*
X-673590Y851309D01*
X-673696Y851574D01*
X-673873Y851724D01*
X-674120Y851760D01*
X-674438Y851681D01*
X-674827Y851488D01*
X-675287Y851181D01*
X-675817Y850760D01*
X-676418Y850224D01*
X-677090Y849574D01*
X-678858Y854878D01*
X-677850Y855919D01*
X-676153Y857887D01*
X-675464Y858814D01*
X-674880Y859702D01*
X-674403Y860552D01*
X-674032Y861364D01*
X-673767Y862138D01*
X-673607Y862873D01*
X-673555Y863569D01*
Y850930D01*
D02*
G37*
G36*
X-662805Y867614D02*
X-662730Y866758D01*
X-662605Y866004D01*
X-662430Y865350D01*
X-662205Y864797D01*
X-661930Y864344D01*
X-661605Y863992D01*
X-661230Y863740D01*
X-660805Y863589D01*
X-660330Y863539D01*
X-670330D01*
X-669855Y863589D01*
X-669430Y863740D01*
X-669055Y863992D01*
X-668730Y864344D01*
X-668455Y864797D01*
X-668230Y865350D01*
X-668055Y866004D01*
X-667930Y866758D01*
X-667855Y867614D01*
X-667830Y868569D01*
X-662830D01*
X-662805Y867614D01*
D02*
G37*
G36*
X-637405D02*
X-637330Y866758D01*
X-637205Y866004D01*
X-637030Y865350D01*
X-636805Y864797D01*
X-636530Y864344D01*
X-636205Y863992D01*
X-635830Y863740D01*
X-635405Y863589D01*
X-634930Y863539D01*
X-644930D01*
X-644455Y863589D01*
X-644030Y863740D01*
X-643655Y863992D01*
X-643330Y864344D01*
X-643055Y864797D01*
X-642830Y865350D01*
X-642655Y866004D01*
X-642530Y866758D01*
X-642455Y867614D01*
X-642430Y868569D01*
X-637430D01*
X-637405Y867614D01*
D02*
G37*
G36*
X-444924Y829390D02*
X-444974Y829865D01*
X-445125Y830290D01*
X-445377Y830665D01*
X-445729Y830990D01*
X-446182Y831265D01*
X-446735Y831490D01*
X-447389Y831665D01*
X-448144Y831790D01*
X-448999Y831865D01*
X-449954Y831890D01*
Y836890D01*
X-448999Y836915D01*
X-448144Y836990D01*
X-447389Y837115D01*
X-446735Y837290D01*
X-446182Y837515D01*
X-445729Y837790D01*
X-445377Y838115D01*
X-445125Y838490D01*
X-444974Y838915D01*
X-444924Y839390D01*
Y829390D01*
D02*
G37*
G36*
X-659595Y838915D02*
X-659445Y838490D01*
X-659195Y838115D01*
X-658846Y837790D01*
X-658395Y837515D01*
X-657846Y837290D01*
X-657196Y837115D01*
X-656445Y836990D01*
X-655595Y836915D01*
X-654645Y836890D01*
Y831890D01*
X-655595Y831865D01*
X-656445Y831790D01*
X-657196Y831665D01*
X-657846Y831490D01*
X-658395Y831265D01*
X-658846Y830990D01*
X-659195Y830665D01*
X-659445Y830290D01*
X-659595Y829865D01*
X-659645Y829390D01*
Y839390D01*
X-659595Y838915D01*
D02*
G37*
G36*
X-646854Y829390D02*
X-646904Y829865D01*
X-647055Y830290D01*
X-647307Y830665D01*
X-647659Y830990D01*
X-648112Y831265D01*
X-648665Y831490D01*
X-649319Y831665D01*
X-650073Y831790D01*
X-650929Y831865D01*
X-651885Y831890D01*
Y836890D01*
X-650929Y836915D01*
X-650073Y836990D01*
X-649319Y837115D01*
X-648665Y837290D01*
X-648112Y837515D01*
X-647659Y837790D01*
X-647307Y838115D01*
X-647055Y838490D01*
X-646904Y838915D01*
X-646854Y839390D01*
Y829390D01*
D02*
G37*
G36*
X-456395Y838915D02*
X-456245Y838490D01*
X-455995Y838115D01*
X-455645Y837790D01*
X-455196Y837515D01*
X-454646Y837290D01*
X-453996Y837115D01*
X-453246Y836990D01*
X-452396Y836915D01*
X-451446Y836890D01*
Y831890D01*
X-452396Y831865D01*
X-453246Y831790D01*
X-453996Y831665D01*
X-454646Y831490D01*
X-455196Y831265D01*
X-455645Y830990D01*
X-455995Y830665D01*
X-456245Y830290D01*
X-456395Y829865D01*
X-456446Y829390D01*
Y839390D01*
X-456395Y838915D01*
D02*
G37*
G36*
X-725133Y526500D02*
X-725564Y526347D01*
X-725945Y526091D01*
X-726276Y525733D01*
X-726555Y525273D01*
X-726784Y524711D01*
X-726961Y524047D01*
X-727088Y523280D01*
X-727165Y522411D01*
X-727190Y521441D01*
X-732270D01*
X-732295Y522411D01*
X-732372Y523280D01*
X-732499Y524047D01*
X-732676Y524711D01*
X-732905Y525273D01*
X-733184Y525733D01*
X-733515Y526091D01*
X-733896Y526347D01*
X-734327Y526500D01*
X-734810Y526551D01*
X-724650D01*
X-725133Y526500D01*
D02*
G37*
G36*
X-25799Y529332D02*
X-25714Y529119D01*
X-25571Y528932D01*
X-25371Y528770D01*
X-25114Y528632D01*
X-24800Y528520D01*
X-24429Y528432D01*
X-24000Y528370D01*
X-23515Y528332D01*
X-22973Y528320D01*
Y525780D01*
X-23515Y525768D01*
X-24000Y525730D01*
X-24429Y525668D01*
X-24800Y525580D01*
X-25114Y525468D01*
X-25371Y525330D01*
X-25571Y525168D01*
X-25714Y524981D01*
X-25799Y524768D01*
X-25828Y524531D01*
Y529569D01*
X-25799Y529332D01*
D02*
G37*
G36*
X-740681Y563744D02*
X-737670Y561168D01*
X-736880Y560638D01*
X-736196Y560273D01*
X-735619Y560073D01*
X-735149Y560037D01*
X-734786Y560166D01*
X-734529Y560460D01*
X-740450Y549520D01*
X-740536Y549530D01*
X-740795Y549720D01*
X-741227Y550091D01*
X-745974Y554656D01*
X-749082Y557748D01*
X-741898Y564932D01*
X-740681Y563744D01*
D02*
G37*
G36*
X-217397Y517562D02*
X-217212Y517421D01*
X-217012Y517297D01*
X-216797Y517189D01*
X-216567Y517098D01*
X-216322Y517023D01*
X-216062Y516965D01*
X-215787Y516923D01*
X-215497Y516898D01*
X-215192Y516890D01*
Y514350D01*
X-215497Y514342D01*
X-215787Y514317D01*
X-216062Y514275D01*
X-216322Y514217D01*
X-216567Y514142D01*
X-216797Y514051D01*
X-217012Y513943D01*
X-217212Y513819D01*
X-217397Y513678D01*
X-217568Y513520D01*
Y517720D01*
X-217397Y517562D01*
D02*
G37*
G36*
X-435879Y516336D02*
X-435729Y516234D01*
X-435558Y516144D01*
X-435364Y516066D01*
X-435150Y516000D01*
X-434913Y515946D01*
X-434655Y515904D01*
X-434376Y515874D01*
X-433752Y515850D01*
Y512850D01*
X-434075Y512844D01*
X-434655Y512796D01*
X-434913Y512754D01*
X-435150Y512700D01*
X-435364Y512634D01*
X-435558Y512556D01*
X-435729Y512466D01*
X-435879Y512364D01*
X-436008Y512250D01*
Y516450D01*
X-435879Y516336D01*
D02*
G37*
G36*
X-308212Y512250D02*
X-308341Y512364D01*
X-308491Y512466D01*
X-308662Y512556D01*
X-308856Y512634D01*
X-309070Y512700D01*
X-309307Y512754D01*
X-309565Y512796D01*
X-309844Y512826D01*
X-310468Y512850D01*
Y515850D01*
X-310145Y515856D01*
X-309565Y515904D01*
X-309307Y515946D01*
X-309070Y516000D01*
X-308856Y516066D01*
X-308662Y516144D01*
X-308491Y516234D01*
X-308341Y516336D01*
X-308212Y516450D01*
Y512250D01*
D02*
G37*
G36*
X-221852Y513520D02*
X-222023Y513678D01*
X-222208Y513819D01*
X-222408Y513943D01*
X-222623Y514051D01*
X-222853Y514142D01*
X-223098Y514217D01*
X-223358Y514275D01*
X-223633Y514317D01*
X-223923Y514342D01*
X-224228Y514350D01*
Y516890D01*
X-223923Y516898D01*
X-223633Y516923D01*
X-223358Y516965D01*
X-223098Y517023D01*
X-222853Y517098D01*
X-222623Y517189D01*
X-222408Y517297D01*
X-222208Y517421D01*
X-222023Y517562D01*
X-221852Y517720D01*
Y513520D01*
D02*
G37*
G36*
X-514350Y618490D02*
X-505460Y609600D01*
X-505460Y577850D01*
X-509270Y574040D01*
X-651510Y574040D01*
X-655320Y577850D01*
X-655320Y612140D01*
X-651510Y615950D01*
X-535940Y615950D01*
X-528320Y623570D01*
X-519430D01*
X-514350Y618490D01*
D02*
G37*
G36*
X-827121Y565181D02*
X-827222Y565416D01*
X-827527Y565627D01*
X-828035Y565813D01*
X-828746Y565974D01*
X-829660Y566110D01*
X-831666Y566273D01*
X-836224Y565974D01*
X-836935Y565813D01*
X-837443Y565627D01*
X-837748Y565416D01*
X-837850Y565181D01*
Y577820D01*
X-837748Y577584D01*
X-837443Y577373D01*
X-836935Y577187D01*
X-836224Y577026D01*
X-835310Y576890D01*
X-833304Y576727D01*
X-828746Y577026D01*
X-828035Y577187D01*
X-827527Y577373D01*
X-827222Y577584D01*
X-827121Y577820D01*
Y565181D01*
D02*
G37*
G36*
X-109220Y694690D02*
X-95250Y680720D01*
Y629920D01*
Y600710D01*
X-100330Y595630D01*
X-443230D01*
X-445770Y598170D01*
Y612140D01*
X-443230Y614680D01*
X-441960Y615950D01*
X-331470D01*
X-330200Y617220D01*
X-323850Y623570D01*
Y640080D01*
Y655320D01*
X-322580Y656590D01*
X-317500Y645160D01*
X-318770Y636270D01*
Y627380D01*
X-316230Y623570D01*
X-308610Y615950D01*
X-168910Y617220D01*
X-140970D01*
X-138430Y619760D01*
X-124460Y633730D01*
Y646430D01*
Y660400D01*
X-129540Y665480D01*
X-144780Y680720D01*
X-194310D01*
X-196850Y683260D01*
X-200660Y687070D01*
Y698500D01*
X-195580Y703580D01*
X-118110D01*
X-109220Y694690D01*
D02*
G37*
G36*
X-26894Y582359D02*
X-26709Y581938D01*
X-26401Y581566D01*
X-25969Y581243D01*
X-25415Y580970D01*
X-24736Y580747D01*
X-23935Y580573D01*
X-23010Y580449D01*
X-21962Y580375D01*
X-20790Y580350D01*
Y575350D01*
X-21962Y575325D01*
X-23935Y575127D01*
X-24736Y574953D01*
X-25415Y574730D01*
X-25969Y574457D01*
X-26401Y574134D01*
X-26709Y573762D01*
X-26894Y573341D01*
X-26956Y572869D01*
Y582831D01*
X-26894Y582359D01*
D02*
G37*
G36*
X-25803Y554742D02*
X-25717Y554527D01*
X-25574Y554338D01*
X-25374Y554174D01*
X-25117Y554035D01*
X-24802Y553922D01*
X-24431Y553834D01*
X-24002Y553770D01*
X-23516Y553733D01*
X-22973Y553720D01*
Y551180D01*
X-23516Y551167D01*
X-24002Y551130D01*
X-24431Y551067D01*
X-24802Y550978D01*
X-25117Y550865D01*
X-25374Y550726D01*
X-25574Y550562D01*
X-25717Y550373D01*
X-25803Y550159D01*
X-25831Y549919D01*
Y554981D01*
X-25803Y554742D01*
D02*
G37*
G36*
X-803202Y574899D02*
X-803044Y574690D01*
X-802904Y574465D01*
X-802784Y574225D01*
X-802682Y573970D01*
X-802598Y573699D01*
X-802533Y573412D01*
X-802487Y573110D01*
X-802459Y572793D01*
X-802449Y572459D01*
Y557938D01*
X-802521Y558363D01*
X-802737Y558894D01*
X-803096Y559532D01*
X-803599Y560276D01*
X-804246Y561127D01*
X-805970Y563148D01*
X-809634Y566979D01*
X-803378Y575092D01*
X-803202Y574899D01*
D02*
G37*
G36*
X-46704Y572869D02*
X-46766Y573341D01*
X-46951Y573762D01*
X-47259Y574134D01*
X-47691Y574457D01*
X-48246Y574730D01*
X-48924Y574953D01*
X-49725Y575127D01*
X-50650Y575251D01*
X-51698Y575325D01*
X-52870Y575350D01*
Y580350D01*
X-51698Y580375D01*
X-49725Y580573D01*
X-48924Y580747D01*
X-48246Y580970D01*
X-47691Y581243D01*
X-47259Y581566D01*
X-46951Y581938D01*
X-46766Y582359D01*
X-46704Y582831D01*
Y572869D01*
D02*
G37*
G36*
X-238832Y461841D02*
X-238826Y461690D01*
X-238800Y456890D01*
X-243800D01*
X-243825Y457840D01*
X-243900Y458690D01*
X-244025Y459440D01*
X-244200Y460090D01*
X-244425Y460640D01*
X-244700Y461091D01*
X-245025Y461441D01*
X-245400Y461690D01*
X-245825Y461841D01*
X-246300Y461890D01*
X-238840D01*
X-238832Y461841D01*
D02*
G37*
G36*
X-741384Y460224D02*
X-738242Y460112D01*
X-738547Y459788D01*
X-738782Y459499D01*
X-738946Y459244D01*
X-739040Y459022D01*
X-739062Y458835D01*
X-739015Y458681D01*
X-738897Y458562D01*
X-738708Y458477D01*
X-738448Y458426D01*
X-738118Y458409D01*
X-739569D01*
X-739170Y458010D01*
X-739402Y458001D01*
X-739633Y457970D01*
X-739862Y457917D01*
X-740090Y457841D01*
X-740318Y457743D01*
X-740544Y457622D01*
X-740769Y457480D01*
X-740993Y457314D01*
X-741215Y457127D01*
X-741437Y456917D01*
X-742928Y458409D01*
X-745303D01*
X-744949Y458427D01*
X-744594Y458482D01*
X-744238Y458573D01*
X-743880Y458701D01*
X-743522Y458866D01*
X-743162Y459067D01*
X-742801Y459304D01*
X-742644Y459422D01*
X-742528Y459606D01*
X-742407Y459832D01*
X-742309Y460060D01*
X-742233Y460288D01*
X-742180Y460517D01*
X-742149Y460748D01*
X-742140Y460980D01*
X-741384Y460224D01*
D02*
G37*
G36*
X-199897Y461317D02*
X-200032Y461127D01*
X-200151Y460923D01*
X-200254Y460704D01*
X-200341Y460471D01*
X-200413Y460224D01*
X-200469Y459962D01*
X-200508Y459686D01*
X-200532Y459396D01*
X-200540Y459091D01*
X-203080Y458979D01*
X-203089Y459285D01*
X-203114Y459574D01*
X-203158Y459848D01*
X-203218Y460106D01*
X-203296Y460349D01*
X-203391Y460575D01*
X-203503Y460786D01*
X-203632Y460982D01*
X-203779Y461161D01*
X-203943Y461325D01*
X-199746Y461493D01*
X-199897Y461317D01*
D02*
G37*
G36*
X-160538Y455607D02*
X-160412Y453651D01*
X-160378Y453575D01*
X-160340Y453549D01*
X-163279D01*
X-163242Y453575D01*
X-163208Y453651D01*
X-163178Y453778D01*
X-163152Y453956D01*
X-163112Y454464D01*
X-163080Y456090D01*
X-160540D01*
X-160538Y455607D01*
D02*
G37*
G36*
X-195538D02*
X-195412Y453651D01*
X-195378Y453575D01*
X-195340Y453549D01*
X-198279D01*
X-198242Y453575D01*
X-198208Y453651D01*
X-198178Y453778D01*
X-198152Y453956D01*
X-198112Y454464D01*
X-198080Y456090D01*
X-195540D01*
X-195538Y455607D01*
D02*
G37*
G36*
X-190538Y455445D02*
X-190412Y453643D01*
X-190378Y453573D01*
X-190340Y453549D01*
X-193279D01*
X-193242Y453573D01*
X-193208Y453643D01*
X-193178Y453760D01*
X-193152Y453924D01*
X-193130Y454135D01*
X-193088Y455047D01*
X-193080Y455890D01*
X-190540D01*
X-190538Y455445D01*
D02*
G37*
G36*
X-165538Y455607D02*
X-165412Y453651D01*
X-165378Y453575D01*
X-165340Y453549D01*
X-168279D01*
X-168242Y453575D01*
X-168208Y453651D01*
X-168178Y453778D01*
X-168152Y453956D01*
X-168112Y454464D01*
X-168080Y456090D01*
X-165540D01*
X-165538Y455607D01*
D02*
G37*
G36*
X-675401Y496880D02*
X-675608Y497062D01*
X-675851Y497226D01*
X-676132Y497370D01*
X-676450Y497494D01*
X-676805Y497600D01*
X-677197Y497686D01*
X-677627Y497754D01*
X-678093Y497802D01*
X-679137Y497840D01*
Y502920D01*
X-678596Y502930D01*
X-677627Y503006D01*
X-677197Y503074D01*
X-676805Y503160D01*
X-676450Y503266D01*
X-676132Y503390D01*
X-675851Y503534D01*
X-675608Y503698D01*
X-675401Y503880D01*
Y496880D01*
D02*
G37*
G36*
X-669280Y507146D02*
X-669204Y506177D01*
X-669136Y505747D01*
X-669050Y505355D01*
X-668944Y505000D01*
X-668820Y504682D01*
X-668676Y504401D01*
X-668512Y504157D01*
X-668330Y503951D01*
X-675330D01*
X-675148Y504157D01*
X-674984Y504401D01*
X-674840Y504682D01*
X-674716Y505000D01*
X-674610Y505355D01*
X-674524Y505747D01*
X-674456Y506177D01*
X-674408Y506643D01*
X-674370Y507687D01*
X-669290D01*
X-669280Y507146D01*
D02*
G37*
G36*
X-727165Y512459D02*
X-727088Y511591D01*
X-726961Y510824D01*
X-726784Y510160D01*
X-726555Y509598D01*
X-726276Y509138D01*
X-725945Y508780D01*
X-725564Y508525D01*
X-725133Y508371D01*
X-724650Y508320D01*
X-734810D01*
X-734327Y508371D01*
X-733896Y508525D01*
X-733515Y508780D01*
X-733184Y509138D01*
X-732905Y509598D01*
X-732676Y510160D01*
X-732499Y510824D01*
X-732372Y511591D01*
X-732295Y512459D01*
X-732270Y513430D01*
X-727190D01*
X-727165Y512459D01*
D02*
G37*
G36*
X-723910Y504977D02*
X-723756Y504546D01*
X-723501Y504165D01*
X-723143Y503834D01*
X-722683Y503555D01*
X-722121Y503326D01*
X-721457Y503149D01*
X-720690Y503022D01*
X-719821Y502945D01*
X-718850Y502920D01*
Y497840D01*
X-719821Y497815D01*
X-720690Y497738D01*
X-721457Y497611D01*
X-722121Y497434D01*
X-722683Y497205D01*
X-723143Y496926D01*
X-723501Y496595D01*
X-723756Y496214D01*
X-723910Y495783D01*
X-723961Y495300D01*
Y505460D01*
X-723910Y504977D01*
D02*
G37*
G36*
X-26201Y468368D02*
X-26170Y468137D01*
X-26117Y467908D01*
X-26041Y467679D01*
X-25943Y467452D01*
X-25822Y467226D01*
X-25680Y467001D01*
X-25515Y466777D01*
X-25327Y466555D01*
X-25117Y466333D01*
X-26913Y464537D01*
X-27135Y464747D01*
X-27357Y464935D01*
X-27581Y465100D01*
X-27806Y465242D01*
X-28032Y465363D01*
X-28259Y465461D01*
X-28488Y465537D01*
X-28717Y465590D01*
X-28948Y465621D01*
X-29180Y465630D01*
X-26210Y468600D01*
X-26201Y468368D01*
D02*
G37*
G36*
X-221852Y490660D02*
X-222023Y490818D01*
X-222208Y490959D01*
X-222408Y491083D01*
X-222623Y491191D01*
X-222853Y491283D01*
X-223098Y491357D01*
X-223358Y491415D01*
X-223633Y491457D01*
X-223923Y491482D01*
X-224228Y491490D01*
Y494030D01*
X-223923Y494038D01*
X-223633Y494063D01*
X-223358Y494105D01*
X-223098Y494163D01*
X-222853Y494238D01*
X-222623Y494329D01*
X-222408Y494437D01*
X-222208Y494561D01*
X-222023Y494702D01*
X-221852Y494860D01*
Y490660D01*
D02*
G37*
G36*
X-217397Y494702D02*
X-217212Y494561D01*
X-217012Y494437D01*
X-216797Y494329D01*
X-216567Y494238D01*
X-216322Y494163D01*
X-216062Y494105D01*
X-215787Y494063D01*
X-215497Y494038D01*
X-215192Y494030D01*
Y491490D01*
X-215497Y491482D01*
X-215787Y491457D01*
X-216062Y491415D01*
X-216322Y491357D01*
X-216567Y491283D01*
X-216797Y491191D01*
X-217012Y491083D01*
X-217212Y490959D01*
X-217397Y490818D01*
X-217568Y490660D01*
Y494860D01*
X-217397Y494702D01*
D02*
G37*
G36*
X-673341Y627505D02*
X-673557Y627429D01*
X-673748Y627302D01*
X-673913Y627124D01*
X-674053Y626895D01*
X-674167Y626616D01*
X-674256Y626286D01*
X-674319Y625905D01*
X-674357Y625473D01*
X-674370Y624991D01*
X-676910D01*
X-676923Y625473D01*
X-676961Y625905D01*
X-677024Y626286D01*
X-677113Y626616D01*
X-677227Y626895D01*
X-677367Y627124D01*
X-677532Y627302D01*
X-677723Y627429D01*
X-677939Y627505D01*
X-678180Y627531D01*
X-673100D01*
X-673341Y627505D01*
D02*
G37*
G36*
X-732615Y776449D02*
X-732538Y775580D01*
X-732411Y774813D01*
X-732234Y774149D01*
X-732005Y773587D01*
X-731726Y773127D01*
X-731395Y772769D01*
X-731014Y772513D01*
X-730583Y772360D01*
X-730100Y772309D01*
X-740260D01*
X-739777Y772360D01*
X-739346Y772513D01*
X-738965Y772769D01*
X-738634Y773127D01*
X-738355Y773587D01*
X-738126Y774149D01*
X-737949Y774813D01*
X-737822Y775580D01*
X-737745Y776449D01*
X-737720Y777420D01*
X-732640D01*
X-732615Y776449D01*
D02*
G37*
G36*
X-553828Y776384D02*
X-553753Y775528D01*
X-553628Y774774D01*
X-553453Y774120D01*
X-553228Y773567D01*
X-552953Y773114D01*
X-552628Y772762D01*
X-552253Y772510D01*
X-551828Y772359D01*
X-551353Y772309D01*
X-561353D01*
X-560878Y772359D01*
X-560453Y772510D01*
X-560078Y772762D01*
X-559753Y773114D01*
X-559478Y773567D01*
X-559253Y774120D01*
X-559078Y774774D01*
X-558953Y775528D01*
X-558878Y776384D01*
X-558853Y777339D01*
X-553853D01*
X-553828Y776384D01*
D02*
G37*
G36*
X-530288Y776449D02*
X-530211Y775580D01*
X-530084Y774813D01*
X-529907Y774149D01*
X-529678Y773587D01*
X-529399Y773127D01*
X-529068Y772769D01*
X-528687Y772513D01*
X-528256Y772360D01*
X-527773Y772309D01*
X-537933D01*
X-537450Y772360D01*
X-537019Y772513D01*
X-536638Y772769D01*
X-536307Y773127D01*
X-536028Y773587D01*
X-535799Y774149D01*
X-535622Y774813D01*
X-535495Y775580D01*
X-535418Y776449D01*
X-535393Y777420D01*
X-530313D01*
X-530288Y776449D01*
D02*
G37*
G36*
X-755835Y776384D02*
X-755760Y775528D01*
X-755635Y774774D01*
X-755460Y774120D01*
X-755235Y773567D01*
X-754960Y773114D01*
X-754635Y772762D01*
X-754260Y772510D01*
X-753835Y772359D01*
X-753360Y772309D01*
X-763360D01*
X-762885Y772359D01*
X-762460Y772510D01*
X-762085Y772762D01*
X-761760Y773114D01*
X-761485Y773567D01*
X-761260Y774120D01*
X-761085Y774774D01*
X-760960Y775528D01*
X-760885Y776384D01*
X-760860Y777339D01*
X-755860D01*
X-755835Y776384D01*
D02*
G37*
G36*
X-323907Y772305D02*
X-323754Y772275D01*
X-323500Y772248D01*
X-322687Y772205D01*
X-318878Y772160D01*
Y767080D01*
X-323957Y766900D01*
Y772339D01*
X-323907Y772305D01*
D02*
G37*
G36*
X-115450D02*
X-115297Y772275D01*
X-115043Y772248D01*
X-114230Y772205D01*
X-110421Y772160D01*
Y767080D01*
X-115500Y766900D01*
Y772339D01*
X-115450Y772305D01*
D02*
G37*
G36*
X-15315Y769740D02*
X-16393Y769732D01*
X-18325Y769601D01*
X-19180Y769478D01*
X-19960Y769316D01*
X-20667Y769117D01*
X-21299Y768878D01*
X-21857Y768602D01*
X-22341Y768287D01*
X-22751Y767933D01*
X-24547Y769729D01*
X-24193Y770139D01*
X-23878Y770623D01*
X-23602Y771181D01*
X-23363Y771813D01*
X-23163Y772520D01*
X-23002Y773300D01*
X-22879Y774155D01*
X-22748Y776087D01*
X-22740Y777165D01*
X-15315Y769740D01*
D02*
G37*
G36*
X-708805Y777719D02*
X-708728Y776850D01*
X-708601Y776083D01*
X-708424Y775419D01*
X-708195Y774857D01*
X-707916Y774397D01*
X-707585Y774039D01*
X-707204Y773783D01*
X-706773Y773630D01*
X-706290Y773579D01*
X-716450D01*
X-715967Y773630D01*
X-715536Y773783D01*
X-715155Y774039D01*
X-714824Y774397D01*
X-714545Y774857D01*
X-714316Y775419D01*
X-714139Y776083D01*
X-714012Y776850D01*
X-713935Y777719D01*
X-713910Y778689D01*
X-708830D01*
X-708805Y777719D01*
D02*
G37*
G36*
X-685305D02*
X-685228Y776850D01*
X-685101Y776083D01*
X-684924Y775419D01*
X-684695Y774857D01*
X-684416Y774397D01*
X-684085Y774039D01*
X-683704Y773783D01*
X-683273Y773630D01*
X-682790Y773579D01*
X-692950D01*
X-692467Y773630D01*
X-692036Y773783D01*
X-691655Y774039D01*
X-691324Y774397D01*
X-691045Y774857D01*
X-690816Y775419D01*
X-690639Y776083D01*
X-690512Y776850D01*
X-690435Y777719D01*
X-690410Y778689D01*
X-685330D01*
X-685305Y777719D01*
D02*
G37*
G36*
X-505285D02*
X-505208Y776850D01*
X-505081Y776083D01*
X-504904Y775419D01*
X-504675Y774857D01*
X-504396Y774397D01*
X-504065Y774039D01*
X-503684Y773783D01*
X-503253Y773630D01*
X-502770Y773579D01*
X-512930D01*
X-512447Y773630D01*
X-512016Y773783D01*
X-511635Y774039D01*
X-511304Y774397D01*
X-511025Y774857D01*
X-510796Y775419D01*
X-510619Y776083D01*
X-510492Y776850D01*
X-510415Y777719D01*
X-510390Y778689D01*
X-505310D01*
X-505285Y777719D01*
D02*
G37*
G36*
X-121745Y776449D02*
X-121668Y775580D01*
X-121541Y774813D01*
X-121364Y774149D01*
X-121135Y773587D01*
X-120856Y773127D01*
X-120525Y772769D01*
X-120144Y772513D01*
X-119713Y772360D01*
X-119230Y772309D01*
X-129390D01*
X-128907Y772360D01*
X-128476Y772513D01*
X-128095Y772769D01*
X-127764Y773127D01*
X-127485Y773587D01*
X-127256Y774149D01*
X-127079Y774813D01*
X-126952Y775580D01*
X-126875Y776449D01*
X-126850Y777420D01*
X-121770D01*
X-121745Y776449D01*
D02*
G37*
G36*
X-352925Y776384D02*
X-352850Y775528D01*
X-352725Y774774D01*
X-352550Y774120D01*
X-352325Y773567D01*
X-352050Y773114D01*
X-351725Y772762D01*
X-351350Y772510D01*
X-350925Y772359D01*
X-350450Y772309D01*
X-360450D01*
X-359975Y772359D01*
X-359550Y772510D01*
X-359175Y772762D01*
X-358850Y773114D01*
X-358575Y773567D01*
X-358350Y774120D01*
X-358175Y774774D01*
X-358050Y775528D01*
X-357975Y776384D01*
X-357950Y777339D01*
X-352950D01*
X-352925Y776384D01*
D02*
G37*
G36*
X-330025Y776449D02*
X-329948Y775580D01*
X-329821Y774813D01*
X-329644Y774149D01*
X-329415Y773587D01*
X-329136Y773127D01*
X-328805Y772769D01*
X-328424Y772513D01*
X-327993Y772360D01*
X-327510Y772309D01*
X-337670D01*
X-337187Y772360D01*
X-336756Y772513D01*
X-336375Y772769D01*
X-336044Y773127D01*
X-335765Y773587D01*
X-335536Y774149D01*
X-335359Y774813D01*
X-335232Y775580D01*
X-335155Y776449D01*
X-335130Y777420D01*
X-330050D01*
X-330025Y776449D01*
D02*
G37*
G36*
X-144645Y776384D02*
X-144570Y775528D01*
X-144445Y774774D01*
X-144270Y774120D01*
X-144045Y773567D01*
X-143770Y773114D01*
X-143445Y772762D01*
X-143070Y772510D01*
X-142645Y772359D01*
X-142170Y772309D01*
X-152170D01*
X-151695Y772359D01*
X-151270Y772510D01*
X-150895Y772762D01*
X-150570Y773114D01*
X-150295Y773567D01*
X-150070Y774120D01*
X-149895Y774774D01*
X-149770Y775528D01*
X-149695Y776384D01*
X-149670Y777339D01*
X-144670D01*
X-144645Y776384D01*
D02*
G37*
G36*
X-638825Y646514D02*
X-638750Y645658D01*
X-638625Y644904D01*
X-638450Y644250D01*
X-638225Y643697D01*
X-637950Y643244D01*
X-637625Y642892D01*
X-637250Y642640D01*
X-636825Y642489D01*
X-636350Y642439D01*
X-646350D01*
X-645875Y642489D01*
X-645450Y642640D01*
X-645075Y642892D01*
X-644750Y643244D01*
X-644475Y643697D01*
X-644250Y644250D01*
X-644075Y644904D01*
X-643950Y645658D01*
X-643875Y646514D01*
X-643850Y647469D01*
X-638850D01*
X-638825Y646514D01*
D02*
G37*
G36*
X-467225Y650324D02*
X-467150Y649469D01*
X-467025Y648714D01*
X-466850Y648060D01*
X-466625Y647507D01*
X-466350Y647054D01*
X-466025Y646702D01*
X-465650Y646450D01*
X-465225Y646299D01*
X-464750Y646249D01*
X-474750D01*
X-474275Y646299D01*
X-473850Y646450D01*
X-473475Y646702D01*
X-473150Y647054D01*
X-472875Y647507D01*
X-472650Y648060D01*
X-472475Y648714D01*
X-472350Y649469D01*
X-472275Y650324D01*
X-472250Y651280D01*
X-467250D01*
X-467225Y650324D01*
D02*
G37*
G36*
X-436867Y648331D02*
X-436829Y647894D01*
X-436766Y647509D01*
X-436677Y647174D01*
X-436562Y646892D01*
X-436423Y646660D01*
X-436258Y646480D01*
X-436067Y646352D01*
X-435851Y646275D01*
X-435610Y646249D01*
X-440690D01*
X-440449Y646275D01*
X-440233Y646352D01*
X-440042Y646480D01*
X-439877Y646660D01*
X-439738Y646892D01*
X-439623Y647174D01*
X-439534Y647509D01*
X-439471Y647894D01*
X-439433Y648331D01*
X-439420Y648820D01*
X-436880D01*
X-436867Y648331D01*
D02*
G37*
G36*
X-674357Y644521D02*
X-674319Y644084D01*
X-674256Y643699D01*
X-674167Y643364D01*
X-674053Y643082D01*
X-673913Y642850D01*
X-673748Y642670D01*
X-673557Y642542D01*
X-673341Y642465D01*
X-673100Y642439D01*
X-678180D01*
X-677939Y642465D01*
X-677723Y642542D01*
X-677532Y642670D01*
X-677367Y642850D01*
X-677227Y643082D01*
X-677113Y643364D01*
X-677024Y643699D01*
X-676961Y644084D01*
X-676923Y644521D01*
X-676910Y645010D01*
X-674370D01*
X-674357Y644521D01*
D02*
G37*
G36*
X-465225Y631291D02*
X-465650Y631141D01*
X-466025Y630891D01*
X-466350Y630541D01*
X-466625Y630090D01*
X-466850Y629540D01*
X-467025Y628890D01*
X-467150Y628140D01*
X-467225Y627290D01*
X-467250Y626340D01*
X-472250D01*
X-472275Y627290D01*
X-472350Y628140D01*
X-472475Y628890D01*
X-472650Y629540D01*
X-472875Y630090D01*
X-473150Y630541D01*
X-473475Y630891D01*
X-473850Y631141D01*
X-474275Y631291D01*
X-474750Y631340D01*
X-464750D01*
X-465225Y631291D01*
D02*
G37*
G36*
X-641748Y627531D02*
X-642137Y627813D01*
X-642597Y627955D01*
X-643127D01*
X-643728Y627813D01*
X-644400Y627531D01*
X-645143Y627106D01*
X-645956Y626541D01*
X-646840Y625833D01*
X-648820Y623995D01*
X-652355Y627531D01*
X-651365Y628556D01*
X-649809Y630394D01*
X-649244Y631207D01*
X-648820Y631950D01*
X-648537Y632622D01*
X-648395Y633223D01*
Y633753D01*
X-648537Y634213D01*
X-648820Y634602D01*
X-641748Y627531D01*
D02*
G37*
G36*
X-435851Y631315D02*
X-436067Y631239D01*
X-436258Y631112D01*
X-436423Y630934D01*
X-436562Y630705D01*
X-436677Y630426D01*
X-436766Y630096D01*
X-436829Y629715D01*
X-436867Y629283D01*
X-436880Y628801D01*
X-439420D01*
X-439433Y629283D01*
X-439471Y629715D01*
X-439534Y630096D01*
X-439623Y630426D01*
X-439738Y630705D01*
X-439877Y630934D01*
X-440042Y631112D01*
X-440233Y631239D01*
X-440449Y631315D01*
X-440690Y631340D01*
X-435610D01*
X-435851Y631315D01*
D02*
G37*
G36*
X-10746Y745716D02*
X-12020Y744257D01*
X-12537Y743566D01*
X-12975Y742899D01*
X-13333Y742259D01*
X-13612Y741643D01*
X-13811Y741053D01*
X-13930Y740488D01*
X-13970Y739948D01*
X-16510D01*
X-16550Y740488D01*
X-16669Y741053D01*
X-16868Y741643D01*
X-17147Y742259D01*
X-17505Y742899D01*
X-17943Y743566D01*
X-18460Y744257D01*
X-19734Y745716D01*
X-20490Y746484D01*
X-9990D01*
X-10746Y745716D01*
D02*
G37*
G36*
X-639922Y766213D02*
X-639897Y765923D01*
X-639855Y765648D01*
X-639797Y765388D01*
X-639723Y765143D01*
X-639631Y764913D01*
X-639523Y764698D01*
X-639399Y764498D01*
X-639258Y764313D01*
X-639100Y764142D01*
X-643300D01*
X-643142Y764313D01*
X-643001Y764498D01*
X-642877Y764698D01*
X-642769Y764913D01*
X-642678Y765143D01*
X-642603Y765388D01*
X-642545Y765648D01*
X-642503Y765923D01*
X-642478Y766213D01*
X-642470Y766518D01*
X-639930D01*
X-639922Y766213D01*
D02*
G37*
G36*
X-444342D02*
X-444317Y765923D01*
X-444275Y765648D01*
X-444217Y765388D01*
X-444142Y765143D01*
X-444051Y764913D01*
X-443943Y764698D01*
X-443819Y764498D01*
X-443678Y764313D01*
X-443520Y764142D01*
X-447720D01*
X-447562Y764313D01*
X-447421Y764498D01*
X-447297Y764698D01*
X-447189Y764913D01*
X-447098Y765143D01*
X-447023Y765388D01*
X-446965Y765648D01*
X-446923Y765923D01*
X-446898Y766213D01*
X-446890Y766518D01*
X-444350D01*
X-444342Y766213D01*
D02*
G37*
G36*
X-889000Y1066800D02*
Y1055370D01*
Y977900D01*
X-892810Y974090D01*
X-909320Y957580D01*
Y938530D01*
Y777240D01*
X-901700Y769620D01*
X-892810Y760730D01*
X-848360D01*
X-844550Y764540D01*
X-831850Y777240D01*
Y786130D01*
Y811530D01*
X-819150Y824230D01*
X-805180Y838200D01*
X-764540D01*
X-763270Y836930D01*
Y823841D01*
X-762885Y823801D01*
X-761566Y823756D01*
Y818756D01*
X-762262Y818745D01*
X-763270Y818667D01*
Y805180D01*
X-765810Y802640D01*
X-770890Y797560D01*
Y774700D01*
Y764540D01*
X-767080Y760730D01*
X-759460Y753110D01*
X-638810D01*
X-628650Y763270D01*
Y788670D01*
Y807720D01*
X-609600Y826770D01*
X-598170Y838200D01*
X-563880D01*
X-561340Y835660D01*
Y824785D01*
X-560652Y824772D01*
Y819772D01*
X-561340Y819759D01*
Y805180D01*
X-565150Y801370D01*
X-567690Y798830D01*
Y783590D01*
Y764540D01*
X-556260Y753110D01*
X-434340D01*
X-429260Y758190D01*
Y760730D01*
Y778510D01*
X-421640Y786130D01*
X-406400Y801370D01*
Y815340D01*
Y830580D01*
X-401320Y835660D01*
X-396240Y840740D01*
X-364490D01*
X-363220Y839470D01*
X-360680Y836930D01*
Y831850D01*
Y824794D01*
X-360593Y824787D01*
X-359992Y824772D01*
Y819772D01*
X-360593Y819757D01*
X-360680Y819750D01*
Y803910D01*
X-365760Y798830D01*
Y787400D01*
Y764540D01*
X-360680Y759460D01*
X-231140D01*
X-228600Y762000D01*
X-217170Y773430D01*
Y787400D01*
Y821690D01*
X-201930Y836930D01*
X-198120Y840740D01*
X-161290D01*
X-160020Y839470D01*
X-157480Y836930D01*
Y826163D01*
X-157474Y826147D01*
X-157240Y825825D01*
X-156912Y825546D01*
X-156491Y825309D01*
X-155976Y825116D01*
X-155368Y824965D01*
X-154666Y824858D01*
X-153871Y824793D01*
X-152982Y824772D01*
Y819772D01*
X-153871Y819751D01*
X-154666Y819686D01*
X-155368Y819579D01*
X-155976Y819428D01*
X-156491Y819235D01*
X-156912Y818999D01*
X-157240Y818719D01*
X-157474Y818397D01*
X-157480Y818381D01*
Y815340D01*
X-157480Y727710D01*
X-172720Y712470D01*
X-793750Y712470D01*
X-987375Y712470D01*
Y1073150D01*
X-895350D01*
X-889000Y1066800D01*
D02*
G37*
G36*
X-701532Y657893D02*
X-701696Y657649D01*
X-701840Y657368D01*
X-701964Y657050D01*
X-702070Y656695D01*
X-702156Y656303D01*
X-702224Y655873D01*
X-702272Y655407D01*
X-702310Y654363D01*
X-707390D01*
X-707400Y654904D01*
X-707476Y655873D01*
X-707544Y656303D01*
X-707630Y656695D01*
X-707736Y657050D01*
X-707860Y657368D01*
X-708004Y657649D01*
X-708168Y657893D01*
X-708350Y658099D01*
X-701350D01*
X-701532Y657893D01*
D02*
G37*
G36*
X-455322Y672732D02*
X-455298Y672501D01*
X-455250Y672272D01*
X-455180Y672043D01*
X-455086Y671816D01*
X-454969Y671589D01*
X-454829Y671364D01*
X-454665Y671140D01*
X-454479Y670917D01*
X-454269Y670695D01*
X-456135Y668969D01*
X-456356Y669179D01*
X-456578Y669367D01*
X-456802Y669534D01*
X-457026Y669679D01*
X-457252Y669803D01*
X-457478Y669906D01*
X-457706Y669987D01*
X-457935Y670046D01*
X-458165Y670084D01*
X-458396Y670101D01*
X-455323Y672964D01*
X-455322Y672732D01*
D02*
G37*
G36*
X-662820Y670100D02*
X-663052Y670091D01*
X-663282Y670060D01*
X-663512Y670007D01*
X-663740Y669931D01*
X-663968Y669833D01*
X-664194Y669712D01*
X-664419Y669570D01*
X-664642Y669405D01*
X-664865Y669217D01*
X-665087Y669007D01*
X-666883Y670803D01*
X-666673Y671025D01*
X-666486Y671247D01*
X-666320Y671471D01*
X-666178Y671696D01*
X-666057Y671922D01*
X-665959Y672150D01*
X-665883Y672378D01*
X-665830Y672607D01*
X-665799Y672838D01*
X-665790Y673070D01*
X-662820Y670100D01*
D02*
G37*
D11*
X-750570Y500380D02*
D03*
X-730250D02*
D03*
X-572770Y353060D02*
D03*
X-593090D02*
D03*
X-233680Y259080D02*
D03*
X-254000D02*
D03*
X-401320Y378460D02*
D03*
X-381000D02*
D03*
D13*
X-845820Y591820D02*
D03*
Y571500D02*
D03*
X-819150Y591820D02*
D03*
Y571500D02*
D03*
X-572770Y397510D02*
D03*
Y377190D02*
D03*
X-742950Y407670D02*
D03*
Y387350D02*
D03*
Y452120D02*
D03*
Y431800D02*
D03*
X-679450Y431800D02*
D03*
Y452120D02*
D03*
X-650240Y452120D02*
D03*
Y431800D02*
D03*
X-107950Y347980D02*
D03*
Y327660D02*
D03*
X-326390Y168910D02*
D03*
Y148590D02*
D03*
Y24130D02*
D03*
Y44450D02*
D03*
D14*
X-541020Y375390D02*
D03*
Y404390D02*
D03*
X-673100Y406930D02*
D03*
Y377930D02*
D03*
X-633730Y406930D02*
D03*
Y377930D02*
D03*
D24*
X-556110Y792480D02*
D03*
X-533250D02*
D03*
X-124310D02*
D03*
X-147170D02*
D03*
X-735257D02*
D03*
X-758117D02*
D03*
X-507850D02*
D03*
X-484990D02*
D03*
X-711050D02*
D03*
X-688190D02*
D03*
X-332590D02*
D03*
X-355450D02*
D03*
D25*
X-438000Y857250D02*
D03*
Y834390D02*
D03*
X-463400Y857250D02*
D03*
Y834390D02*
D03*
X-639930Y857250D02*
D03*
Y834390D02*
D03*
X-666600Y857250D02*
D03*
Y834390D02*
D03*
X10160Y218440D02*
D03*
Y241300D02*
D03*
D27*
X-243810Y467360D02*
D03*
X-257810D02*
D03*
D30*
X-463400Y883920D02*
D03*
X-450700D02*
D03*
X-438000D02*
D03*
X-425300D02*
D03*
Y935990D02*
D03*
X-438000D02*
D03*
X-450700D02*
D03*
X-463400D02*
D03*
X-665330Y883920D02*
D03*
X-652630D02*
D03*
X-639930D02*
D03*
X-627230D02*
D03*
Y935990D02*
D03*
X-639930D02*
D03*
X-652630D02*
D03*
X-665330D02*
D03*
D31*
X-354677Y769620D02*
D03*
X-331177D02*
D03*
X-146220D02*
D03*
X-122720D02*
D03*
X-532853D02*
D03*
X-556353D02*
D03*
X-734860D02*
D03*
X-758360D02*
D03*
X-687870Y770890D02*
D03*
X-711370D02*
D03*
X-484670D02*
D03*
X-508170D02*
D03*
D32*
X-747522Y929640D02*
D03*
X-544576Y930656D02*
D03*
X-342900D02*
D03*
X-139954D02*
D03*
D33*
X-721868Y821256D02*
D03*
X-772668D02*
D03*
X-569722Y822272D02*
D03*
X-518922D02*
D03*
X-317246D02*
D03*
X-368046D02*
D03*
X-165100D02*
D03*
X-114300D02*
D03*
D39*
X-711690Y792480D02*
X-711370Y792160D01*
X-735180Y769940D02*
Y792480D01*
X-532853D02*
Y800497D01*
Y769620D02*
Y792480D01*
X-704850Y549910D02*
Y661670D01*
Y549910D02*
X-671830Y516890D01*
Y500380D02*
Y516890D01*
X-730250Y500380D02*
X-671830D01*
X-730250D02*
X-729730Y500900D01*
Y531990D01*
X-598020Y1033780D02*
X-523090D01*
X-627230Y1004570D02*
X-598020Y1033780D01*
X-627230Y935990D02*
Y1004570D01*
X-652630Y849431D02*
Y883920D01*
Y849431D02*
X-649019Y845820D01*
X-630841D01*
X-450700Y849431D02*
Y883920D01*
Y849431D02*
X-447089Y845820D01*
X-427840D02*
X-416410Y834390D01*
X-447089Y845820D02*
X-427840D01*
X-619610Y834390D02*
Y834589D01*
X-630841Y845820D02*
X-619610Y834589D01*
X-122720Y769620D02*
X-109070D01*
X-331177D02*
X-316080D01*
X-484990Y779780D02*
Y792480D01*
Y771210D02*
Y779780D01*
Y771210D02*
X-484670Y770890D01*
X-532853Y792480D02*
X-507850D01*
X-533250D02*
X-532853D01*
X-508170Y770890D02*
X-507850Y771210D01*
Y792480D01*
X-711370Y770890D02*
Y792160D01*
X-723750Y792480D02*
X-711690D01*
X-735180D02*
X-723750D01*
X-735257D02*
X-735180D01*
X-721868Y794362D02*
Y821256D01*
X-723750Y792480D02*
X-721868Y794362D01*
X-711370Y792160D02*
X-711050Y792480D01*
X-688190Y779780D02*
X-687870Y779460D01*
Y770890D02*
Y779460D01*
X-688190Y779780D02*
Y792480D01*
X-639930Y935990D02*
X-627230D01*
X-735180Y769940D02*
X-734860Y769620D01*
X-518922Y814428D02*
Y822272D01*
X-532853Y800497D02*
X-518922Y814428D01*
X-317246Y807824D02*
Y822272D01*
X-332590Y792480D02*
X-317246Y807824D01*
X-332590Y771033D02*
Y792480D01*
Y771033D02*
X-331177Y769620D01*
X-114300Y802490D02*
Y822272D01*
X-124310Y792480D02*
X-114300Y802490D01*
X-124310Y771210D02*
Y792480D01*
Y771210D02*
X-122720Y769620D01*
D40*
X-633730Y368300D02*
Y374650D01*
X-643890Y364490D02*
X-633730Y374650D01*
X-742950Y430530D02*
X-739140D01*
X-298590Y199390D02*
Y203060D01*
X-325120Y307340D02*
X-217170D01*
X-345948Y328168D02*
X-325120Y307340D01*
X-354838Y328168D02*
X-345948D01*
X-331470Y302260D02*
X-214630D01*
X-341884Y312674D02*
X-331470Y302260D01*
X-357124Y312674D02*
X-341884D01*
X-121920Y429260D02*
X-68580Y482600D01*
X-150876Y429260D02*
X-121920D01*
X-156810Y435194D02*
X-150876Y429260D01*
X-438150Y638810D02*
Y652780D01*
X-458320Y672950D02*
X-438150Y652780D01*
X-458320Y672950D02*
Y673100D01*
X-438150Y628650D02*
Y638810D01*
X-454660Y612140D02*
X-438150Y628650D01*
X-454660Y549910D02*
Y612140D01*
X-675640Y635000D02*
Y660250D01*
Y570230D02*
Y635000D01*
X-454660Y549910D02*
X-447040Y542290D01*
X-742950Y452120D02*
Y457200D01*
Y450850D02*
Y452120D01*
X-572770Y342900D02*
Y353060D01*
X-577850Y337820D02*
X-572770Y342900D01*
X-760730Y337820D02*
X-577850D01*
X-765810Y342900D02*
X-760730Y337820D01*
X-572770Y353060D02*
Y377190D01*
X-713950Y358140D02*
X-694160Y377930D01*
X-673100D01*
X-633730D01*
X-742950Y457200D02*
X-739140Y461010D01*
X-742950Y387350D02*
X-740410Y384810D01*
X-462280Y293370D02*
X-459740Y290830D01*
X-486410Y293370D02*
X-462280D01*
X-459740Y290830D02*
X-207010D01*
X-196810Y301030D01*
X-210820Y295910D02*
X-201810Y304920D01*
X-214630Y302260D02*
X-206810Y310080D01*
X-15240Y259080D02*
Y261620D01*
X-40640Y287020D02*
X-15240Y261620D01*
X-154940Y287020D02*
X-40640D01*
X-180000Y200800D02*
X-151130Y229670D01*
Y245110D01*
X-163830Y229870D02*
Y245110D01*
X-66040Y295910D02*
X-52070Y309880D01*
X-154940Y295910D02*
X-66040D01*
X-239106Y348580D02*
X-230876Y340350D01*
X-221996Y340360D02*
X-221810Y340174D01*
X-253810Y348580D02*
X-239106D01*
X-675640Y570230D02*
X-628650Y523240D01*
X-233680Y515620D02*
X-219710D01*
X-260350Y542290D02*
X-233680Y515620D01*
X-447040Y542290D02*
X-260350D01*
X-675640Y660250D02*
X-662790Y673100D01*
X-219710Y515620D02*
X-214630D01*
X-191810Y455890D02*
X-189230Y458470D01*
X-191810Y445580D02*
Y455890D01*
X-196810Y458510D02*
X-194310Y461010D01*
X-196810Y445580D02*
Y458510D01*
X-201810Y445580D02*
Y463430D01*
X-201930Y463550D02*
X-201810Y463430D01*
X-156810Y435194D02*
Y445580D01*
X-221810Y326580D02*
Y340174D01*
X-217170Y307340D02*
X-211810Y312700D01*
Y326580D01*
X-206810Y310080D02*
Y326580D01*
X-201810Y304920D02*
Y326580D01*
X-196810Y301030D02*
Y326580D01*
X-52070Y309880D02*
X-15240D01*
X-29210Y468630D02*
X-15240Y454660D01*
Y335280D02*
Y454660D01*
X-64770Y476250D02*
X-16510D01*
X-117440Y423580D02*
X-64770Y476250D01*
X-16510D02*
X-10160Y482600D01*
X-24130D02*
X-16510Y490220D01*
X-68580Y482600D02*
X-24130D01*
X-16510Y490220D02*
Y520700D01*
X-31750Y426720D02*
Y457200D01*
X-52070Y406400D02*
X-31750Y426720D01*
X-52070Y406171D02*
Y406400D01*
X-44450Y469900D02*
X-31750Y457200D01*
X-60960Y469900D02*
X-44450D01*
X-39370Y431800D02*
Y454660D01*
X-46990Y462280D02*
X-39370Y454660D01*
X-58420Y462280D02*
X-46990D01*
X-200660Y227330D02*
X-189230Y238760D01*
X-224790Y227330D02*
X-200660D01*
X-238760Y213360D02*
X-224790Y227330D01*
X-300000Y200800D02*
X-298590Y199390D01*
X-220960Y222270D02*
X-190480D01*
X-242430Y200800D02*
X-220960Y222270D01*
X-204450Y217190D02*
X-176510D01*
X-220000Y201640D02*
X-204450Y217190D01*
X-176510D02*
X-163830Y229870D01*
X-260000Y200800D02*
X-242430D01*
X-220540Y413580D02*
X-143510Y336550D01*
X-107670Y368580D02*
X-97790Y378460D01*
X-112830Y373580D02*
X-107950Y378460D01*
X-134810Y393580D02*
X-76320D01*
X-63500Y406400D01*
X-69850Y410210D02*
Y433375D01*
X-81480Y398580D02*
X-69850Y410210D01*
X-134810Y398580D02*
X-81480D01*
X-76200Y412750D02*
Y444500D01*
X-85370Y403580D02*
X-76200Y412750D01*
X-134810Y403580D02*
X-85370D01*
X-134810Y373580D02*
X-112830D01*
X-134810Y368580D02*
X-107670D01*
X-69850Y433375D02*
X-52070Y451155D01*
X-76200Y444500D02*
X-58420Y462280D01*
X-83820Y447040D02*
X-60960Y469900D01*
X-83820Y419100D02*
Y447040D01*
X-94340Y408580D02*
X-83820Y419100D01*
X-134810Y408580D02*
X-94340D01*
X-134810Y423580D02*
X-117440D01*
X-63500Y406400D02*
Y425450D01*
X-119380Y350520D02*
X-110490D01*
X-122210Y353350D02*
X-119380Y350520D01*
X-134580Y353350D02*
X-122210D01*
X-134810Y353580D02*
X-134580Y353350D01*
X-110490Y350520D02*
X-107950Y347980D01*
X-109220Y327660D02*
X-107950D01*
X-130140Y348580D02*
X-109220Y327660D01*
X-134810Y348580D02*
X-130140D01*
X-22860Y527050D02*
X-16510Y520700D01*
X-36830Y527050D02*
X-22860D01*
X-50013Y421157D02*
X-39370Y431800D01*
X-52070Y421157D02*
X-50013D01*
X-63500Y425450D02*
X-52781Y436169D01*
X-52070D01*
X-269240Y419100D02*
X-268720Y418580D01*
X-240630Y423580D02*
X-240030Y424180D01*
X-253810Y423580D02*
X-240630D01*
X-180340Y426720D02*
X-176810Y430250D01*
Y445580D01*
X-171810Y429620D02*
X-168910Y426720D01*
X-171810Y429620D02*
Y445580D01*
X-269240Y405130D02*
X-265430D01*
X-263880Y403580D01*
X-253810D01*
Y413580D02*
X-220540D01*
X-158750Y364490D02*
Y375920D01*
Y364490D02*
X-152840Y358580D01*
X-134810D01*
X-148590Y365760D02*
X-146410Y363580D01*
X-134810D01*
X-144780Y330200D02*
X-139700D01*
X-118230Y378580D02*
X-118110Y378460D01*
X-148590Y365760D02*
Y377190D01*
X-134810Y378580D02*
X-118230D01*
X-143510Y336550D02*
X-133350D01*
X-223160Y408580D02*
X-144780Y330200D01*
X-253810Y408580D02*
X-223160D01*
X-166810Y337380D02*
X-166370Y337820D01*
X-151320Y326580D02*
X-151130Y326390D01*
X-156810Y326580D02*
X-151320D01*
X-320040Y368300D02*
X-294760Y393580D01*
X-253810D01*
X-307340Y368300D02*
X-287060Y388580D01*
X-253810D01*
X-294640Y368300D02*
X-279360Y383580D01*
X-253810D01*
X-281940Y368300D02*
X-271660Y378580D01*
X-253810D01*
X-171810Y316590D02*
X-166370Y311150D01*
X-171810Y316590D02*
Y326580D01*
X-161810Y316750D02*
X-156210Y311150D01*
X-161810Y316750D02*
Y326580D01*
X-166810D02*
Y337380D01*
X-189230Y238760D02*
Y245110D01*
X-176530Y236220D02*
Y245110D01*
X-190480Y222270D02*
X-176530Y236220D01*
X-220000Y200800D02*
Y201640D01*
X-619610Y825500D02*
Y834390D01*
X-641200Y803910D02*
X-619610Y825500D01*
X-641200Y762000D02*
Y803910D01*
X-416410Y820420D02*
Y834390D01*
X-445620Y791210D02*
X-416410Y820420D01*
X-445620Y762000D02*
Y791210D01*
X-332740Y368300D02*
X-302460Y398580D01*
X-253810D01*
X-604655Y406265D02*
X-599440D01*
X-10160Y482600D02*
Y546100D01*
X-16510Y552450D02*
X-10160Y546100D01*
X-36830Y552450D02*
X-16510D01*
X-29210Y763270D02*
X-15240Y777240D01*
X-161810Y445580D02*
Y457950D01*
X-153670Y466090D01*
X-110490D01*
X-74930Y501650D01*
X-166810Y445580D02*
Y461840D01*
X-156210Y472440D01*
X-114300D01*
X-81280Y505460D01*
X-74930Y501650D02*
Y574040D01*
X-15240Y633730D01*
Y751840D01*
X-81280Y505460D02*
Y579120D01*
X-29210Y631190D01*
Y763270D01*
X-214630Y515620D02*
X-189230Y490220D01*
Y458470D02*
Y490220D01*
X-219710Y492760D02*
X-205740D01*
X-194310Y481330D01*
Y461010D02*
Y481330D01*
X-628650Y523240D02*
X-255270D01*
X-224790Y492760D01*
X-219710D01*
X-633730Y374650D02*
Y377930D01*
X-298590Y203060D02*
X-288290Y213360D01*
X-238760D01*
X-478790Y300990D02*
X-461010D01*
X-455930Y295910D01*
X-210820D01*
D41*
X-102720Y603250D02*
Y641350D01*
X-321160Y608330D02*
Y640080D01*
X-225910Y603250D02*
X-102720D01*
X-429260Y600710D02*
X-228450D01*
X-730100Y603250D02*
Y641350D01*
X-763270Y603250D02*
X-730100D01*
X-934720Y779780D02*
X-897890Y742950D01*
X-936348Y779780D02*
Y789940D01*
X-845820Y598320D02*
Y603250D01*
X-344678Y72898D02*
X-317180Y45400D01*
X-342900Y138430D02*
X-311570D01*
X-358455Y20000D02*
X-300000D01*
X-504190Y377190D02*
Y393700D01*
X-938530Y246380D02*
X-574040D01*
X-963930Y220980D02*
X-938530Y246380D01*
X-574040D02*
X-561340Y233680D01*
X-257810Y453390D02*
Y467360D01*
Y478790D02*
Y504190D01*
Y467360D02*
Y478790D01*
X-524360Y603250D02*
Y641350D01*
X-638810Y603250D02*
X-524360D01*
X-439420Y600710D02*
X-429260D01*
X-228450D02*
X-225910Y603250D01*
X-650240Y601980D02*
X-640080D01*
X-638810Y603250D01*
X-504190Y346710D02*
Y377190D01*
Y342900D02*
Y346710D01*
X-784860Y106680D02*
Y163454D01*
Y57537D02*
Y106680D01*
Y57537D02*
X-783590Y56266D01*
X-439420Y43180D02*
X-411480Y71120D01*
X-770503Y43180D02*
X-439420D01*
X-411480Y71120D02*
Y110490D01*
X-783590Y56266D02*
X-770503Y43180D01*
X-400812Y38862D02*
X-377317D01*
X-411480Y49530D02*
X-400812Y38862D01*
X-411480Y110490D02*
X-374650Y147320D01*
X-784860Y163454D02*
X-783590Y164724D01*
X-803910Y87630D02*
X-784860Y106680D01*
X-887730Y87630D02*
X-803910D01*
X-374396Y181356D02*
X-327406D01*
X-351790Y147320D02*
X-342900Y138430D01*
X-374650Y147320D02*
X-351790D01*
X-377317Y38862D02*
X-358455Y20000D01*
X-377063Y72898D02*
X-344678D01*
X-317180Y45400D02*
X-300000D01*
X-327406Y181356D02*
X-321450Y175400D01*
X-300000D01*
X-60000Y150000D02*
X-20000D01*
X-100000D02*
X-60000D01*
X-140000D02*
X-100000D01*
X-180000D02*
X-140000D01*
X-220000D02*
X-180000D01*
X-260000D02*
X-220000D01*
X-300000D02*
X-260000D01*
X-60000Y20000D02*
X-20000D01*
X-100000D02*
X-60000D01*
X-140000D02*
X-100000D01*
X-180000D02*
X-140000D01*
X-220000D02*
X-180000D01*
X-260000D02*
X-220000D01*
X-300000D02*
X-260000D01*
X-60000Y45400D02*
X-20000D01*
X-100000D02*
X-60000D01*
X-140000D02*
X-100000D01*
X-180000D02*
X-140000D01*
X-220000D02*
X-180000D01*
X-260000D02*
X-220000D01*
X-300000D02*
X-260000D01*
X-60000Y175400D02*
X-20000D01*
X-100000D02*
X-60000D01*
X-140000D02*
X-100000D01*
X-180000D02*
X-140000D01*
X-220000D02*
X-180000D01*
X-260000D02*
X-220000D01*
X-300000D02*
X-260000D01*
X-389740Y742950D02*
X-196700D01*
X-935459Y923290D02*
X-935078Y922909D01*
Y779780D02*
Y922909D01*
X-381538Y822272D02*
X-368046D01*
X-389740Y814070D02*
X-381538Y822272D01*
X-389740Y742950D02*
Y814070D01*
X-796140Y720090D02*
Y742950D01*
Y811530D02*
X-786414Y821256D01*
X-796140Y742950D02*
Y811530D01*
X-786414Y821256D02*
X-772668D01*
X-595480Y742950D02*
Y814070D01*
X-587278Y822272D01*
X-569722D01*
X-188498D02*
X-165100D01*
X-196700Y814070D02*
X-188498Y822272D01*
X-406400Y147320D02*
X-374650D01*
X-421640Y162560D02*
X-406400Y147320D01*
X-421640Y162560D02*
Y187960D01*
X-410210Y199390D01*
Y203200D01*
X-935459Y923290D02*
Y953031D01*
X-906780Y981710D01*
Y1035050D01*
X-196700Y742950D02*
Y814070D01*
X-935078Y779780D02*
X-934720D01*
X-897890Y742950D02*
X-796140D01*
X-845820Y591820D02*
Y598320D01*
X-850750Y603250D02*
X-845820Y598320D01*
X-819150Y591820D02*
Y601980D01*
X-817880Y603250D01*
X-763270D01*
X-565890Y404390D02*
X-541020D01*
X-572770Y397510D02*
X-565890Y404390D01*
X-541020Y375390D02*
X-505990D01*
X-504190Y377190D01*
X-411480Y49530D02*
Y71120D01*
X-642620D02*
Y171450D01*
X-411330Y731670D02*
X-400050Y742950D01*
X-389740D01*
X-595480D02*
X-400050D01*
X-614530Y731670D02*
X-603250Y742950D01*
X-796140D02*
X-603250D01*
X-595480D01*
X-845820Y603250D02*
X-817880D01*
X-826770Y732790D02*
X-825350Y731370D01*
X-880341Y923290D02*
X-877570D01*
X-855980Y944880D01*
Y1035050D01*
X-880341Y780161D02*
Y923290D01*
Y780161D02*
X-879960Y779780D01*
X-730100Y641350D02*
Y675490D01*
X-825350Y695960D02*
X-750570D01*
X-730100Y675490D01*
X-614530Y694690D02*
X-556110D01*
X-524360Y662940D01*
Y641350D02*
Y662940D01*
X-411330Y697230D02*
X-356720D01*
X-321160Y661670D01*
Y640080D02*
Y661670D01*
X-195430Y694690D02*
X-126850D01*
X-102720Y670560D01*
Y641350D02*
Y670560D01*
X-321160Y608330D02*
X-316230D01*
X-889000Y374650D02*
X-854710D01*
X-847090Y382270D01*
X-802640D01*
X-782320D01*
X-758190Y358140D01*
X-742950D01*
X-927100Y97790D02*
X-916940Y87630D01*
X-887730D01*
X-927100Y97790D02*
Y160020D01*
X-908050Y179070D01*
X-868680D01*
X-311570Y138430D02*
X-300000Y150000D01*
X-908050Y25400D02*
X-904240D01*
X-963930Y81280D02*
X-908050Y25400D01*
X-963930Y81280D02*
Y220980D01*
X-561340Y233680D02*
X-557530D01*
D42*
X-556353Y769620D02*
Y817973D01*
X-758360Y769620D02*
Y818050D01*
X-438000Y936625D02*
X-425300D01*
X-689610Y430530D02*
X-679450D01*
X-760730Y430530D02*
X-742950D01*
X-302260Y875640D02*
X-295072Y882828D01*
X-493880Y821690D02*
Y879960D01*
X-469750Y533400D02*
Y673100D01*
X-534924Y312166D02*
X-504190Y342900D01*
X-679450Y450850D02*
X-650240D01*
X-433070Y308610D02*
X-431800D01*
X-430530Y307340D01*
X-637540Y515620D02*
X-480060D01*
X-490220Y665330D02*
X-482450Y673100D01*
X-490220Y548640D02*
Y665330D01*
Y548640D02*
X-482600Y541020D01*
X-641350Y635000D02*
Y664210D01*
X-659130Y681990D02*
X-641350Y664210D01*
X-666750Y572770D02*
X-627380Y533400D01*
X-666750Y609600D02*
X-641350Y635000D01*
X-666750Y572770D02*
Y609600D01*
X-693420Y667870D02*
X-688190Y673100D01*
X-693420Y571500D02*
Y667870D01*
Y571500D02*
X-637540Y515620D01*
X-430530Y307340D02*
X-425450Y312420D01*
X-679450Y450850D02*
Y452120D01*
X-713740Y454660D02*
X-689610Y430530D01*
X-713740Y454660D02*
Y455930D01*
X-739140Y430530D02*
X-713740Y455930D01*
Y461010D01*
X-679450Y450850D02*
X-679450Y450850D01*
X-872236Y416306D02*
X-802386D01*
X-883920Y427990D02*
X-872236Y416306D01*
X-763270Y577850D02*
Y603250D01*
Y530860D02*
Y577850D01*
X-763130Y577990D02*
X-729730D01*
X-763270Y577850D02*
X-763130Y577990D01*
X-763270Y530860D02*
X-750570Y518160D01*
Y500380D02*
Y518160D01*
X-758190Y407670D02*
X-742950D01*
X-586740Y429260D02*
X-572770Y415290D01*
Y397510D02*
Y415290D01*
X-802386Y416306D02*
X-766826D01*
X-758190Y407670D01*
X-688870Y406930D02*
X-673100D01*
X-698500Y416560D02*
X-688870Y406930D01*
X-726440Y412750D02*
Y416560D01*
X-731520Y407670D02*
X-726440Y412750D01*
X-742950Y407670D02*
X-731520D01*
X-740410Y384810D02*
X-726440D01*
X-843280Y278130D02*
X-801370D01*
X-848360Y273050D02*
X-843280Y278130D01*
X-889000Y273050D02*
X-848360D01*
X-802132Y311150D02*
X-801116Y312166D01*
X-849630Y311150D02*
X-802132D01*
X-862330Y323850D02*
X-849630Y311150D01*
X-889000Y323850D02*
X-862330D01*
X-222250Y259080D02*
X-209550D01*
X-627380Y533400D02*
X-469900D01*
X-670560Y681990D02*
X-659130D01*
X-675490Y677060D02*
X-670560Y681990D01*
X-675490Y673100D02*
Y677060D01*
X-233680Y259080D02*
X-222250D01*
X-74930Y347980D02*
Y384810D01*
X-87630Y368300D02*
Y384810D01*
X-95250Y327660D02*
X-74930Y347980D01*
X-107950D02*
X-87630Y368300D01*
X-107950Y327660D02*
X-95250D01*
X-139954Y928774D02*
Y930656D01*
X-697080Y821690D02*
Y833120D01*
Y844550D01*
X-681840Y848360D02*
X-672950Y857250D01*
X-681840Y820420D02*
Y848360D01*
Y820420D02*
X-660250Y798830D01*
X-454510Y762000D02*
Y814070D01*
X-463400Y822960D02*
X-454510Y814070D01*
X-666600Y825500D02*
X-650090Y808990D01*
Y762000D02*
Y808990D01*
X-463400Y762000D02*
Y803910D01*
Y822960D02*
Y834390D01*
X-472290Y857250D02*
X-463400D01*
X-666600Y825500D02*
Y834390D01*
X-660250Y762000D02*
Y798830D01*
X-672950Y857250D02*
X-666600D01*
X-653900Y834390D02*
X-639930D01*
X-666600D02*
X-653900D01*
X-450700D02*
X-438000D01*
X-463400D02*
X-450700D01*
X-544576Y930656D02*
X-493880Y879960D01*
X-438000Y857250D02*
Y883920D01*
X-463400Y857250D02*
Y883920D01*
X-450700Y935990D02*
Y936625D01*
Y920750D02*
Y935990D01*
X-463400D02*
Y936625D01*
Y922020D02*
Y935990D01*
X-639930Y857250D02*
Y883920D01*
X-666600Y857250D02*
X-665330Y858520D01*
Y883920D01*
X-421490Y985520D02*
Y1033780D01*
X-425300Y981710D02*
X-421490Y985520D01*
X-425300Y936625D02*
Y981710D01*
Y1029970D02*
X-421490Y1033780D01*
X-450700Y920750D02*
X-352806D01*
X-462130D02*
X-450700D01*
X-463400Y922020D02*
X-462130Y920750D01*
X-352806D02*
X-342900Y930656D01*
X-139954Y928774D02*
X-95100Y883920D01*
X-747522Y929640D02*
X-697080Y879198D01*
X-741172Y935990D02*
X-665330D01*
X-652630D01*
X-747522Y929640D02*
X-741172Y935990D01*
X-139954Y930656D02*
Y1017674D01*
X-156060Y1033780D02*
X-139954Y1017674D01*
X-370690Y1033780D02*
X-156060D01*
X-544576Y930656D02*
X-472290Y1002942D01*
Y1033780D01*
X-355450Y770393D02*
Y792480D01*
Y770393D02*
X-354677Y769620D01*
X-147170Y770570D02*
Y792480D01*
Y770570D02*
X-146220Y769620D01*
X-381000Y363220D02*
Y378460D01*
Y363220D02*
X-379730Y361950D01*
X-425450D02*
Y369570D01*
X-416560Y378460D01*
X-401320D01*
X-246380Y436880D02*
X-240030Y430530D01*
Y424180D02*
Y430530D01*
X-337820Y420370D02*
Y429260D01*
X-330200Y436880D01*
X-246380D01*
X-254000Y246380D02*
Y259080D01*
Y246380D02*
X-247650Y240030D01*
X-208280D01*
X-74930Y237490D02*
X-50800D01*
X-63500Y247650D02*
X-34290D01*
X-27940Y241300D01*
X2540D02*
X10160D01*
X-10160Y228600D02*
X2540Y241300D01*
X-41910Y228600D02*
X-10160D01*
X-50800Y237490D02*
X-41910Y228600D01*
X10160Y208280D02*
Y218440D01*
X-246380Y436880D02*
X-242570Y440690D01*
X-242380Y445580D02*
X-233380D01*
X-242570Y440690D02*
Y445770D01*
X-243810Y467360D02*
X-241300Y464851D01*
X-242570Y445770D02*
X-241300Y447040D01*
Y464851D01*
X-469900Y533400D02*
X-469750D01*
X-609600Y429260D02*
Y453390D01*
Y429260D02*
X-586740D01*
X-650240Y406930D02*
Y431800D01*
X-673100Y406930D02*
X-650240D01*
X-633730D01*
X-628120D01*
X-609600Y425450D01*
Y429260D01*
X-679450Y452120D02*
Y459740D01*
X-726440Y461010D02*
X-717550Y469900D01*
X-689610D01*
X-679450Y459740D01*
X-627230Y872640D02*
Y883920D01*
X-627380Y872490D02*
X-627230Y872640D01*
X-801116Y312166D02*
X-534924D01*
X-401320Y391160D02*
X-392430Y400050D01*
X-401320Y378460D02*
Y391160D01*
X-392430Y400050D02*
X-337820D01*
X-313690D02*
X-294640Y419100D01*
X-337820Y400050D02*
X-313690D01*
X-425450Y312420D02*
Y361950D01*
X-697080Y844550D02*
Y879198D01*
X-342900Y930656D02*
X-295072Y882828D01*
X-302260Y826770D02*
Y838200D01*
Y875640D01*
X-97790Y881230D02*
X-95100Y883920D01*
X-97790Y821690D02*
Y831850D01*
Y881230D01*
X-425300Y872640D02*
Y883920D01*
X-425450Y872490D02*
X-425300Y872640D01*
X-477520Y818030D02*
X-463400Y803910D01*
X-477520Y818030D02*
Y852020D01*
X-472290Y857250D01*
X-726440Y416560D02*
X-713740D01*
X-698500D01*
X-859350Y488510D02*
Y499640D01*
Y488510D02*
X-842010Y471170D01*
X-750570Y490220D02*
Y500380D01*
Y490220D02*
X-742950Y482600D01*
X-638810D01*
X-609600Y453390D01*
X-842010Y471170D02*
X-801370D01*
X-760730Y430530D01*
X-127000Y438150D02*
X-67310Y497840D01*
Y568960D01*
X-58420Y577850D01*
X-36830D01*
X-16510D01*
X8890Y603250D01*
X-15240Y828040D02*
X0D01*
X8890Y819150D01*
Y603250D02*
Y819150D01*
X-635000Y353060D02*
Y368300D01*
Y353060D02*
X-629920Y347980D01*
X-609600D01*
X-604520Y353060D01*
X-593090D01*
X-613410Y378460D02*
X-608465Y373515D01*
X-599440D01*
X-633200Y378460D02*
X-613410D01*
X-633730Y377930D02*
X-633200Y378460D01*
X-599440Y400050D02*
Y406265D01*
X-607060Y392430D02*
X-599440Y400050D01*
X-707390Y392430D02*
X-607060D01*
X-715010Y384810D02*
X-707390Y392430D01*
X-726440Y384810D02*
X-715010D01*
X-772668Y821256D02*
X-761566D01*
X-758360Y818050D01*
X-569722Y822272D02*
X-560652D01*
X-556353Y817973D01*
X-368046Y822272D02*
X-359992D01*
X-355450Y817730D01*
Y792480D02*
Y817730D01*
X-165100Y822272D02*
X-152982D01*
X-147170Y816460D01*
Y792480D02*
Y816460D01*
X-209550Y259080D02*
X-199390Y269240D01*
X-85090D01*
X-63500Y247650D01*
X-208280Y240030D02*
X-190500Y257810D01*
X-95250D01*
X-74930Y237490D01*
X-401320Y260350D02*
Y274320D01*
Y260350D02*
X-400050Y259080D01*
X-254000D01*
X-294640Y419100D02*
X-279400D01*
X-269240D01*
X-801370Y278130D02*
X-506730D01*
X-482600Y254000D01*
X-457200D01*
X-447040D01*
D43*
X-806970Y571500D02*
X-790460Y554990D01*
X-745490Y561340D02*
X-739140Y554990D01*
X-729730D01*
X-790460Y554990D02*
X-790460Y554990D01*
X-819150Y571500D02*
X-806970D01*
X-845820D02*
X-819150D01*
D45*
X-268720Y418580D02*
X-253810D01*
X-242570Y445770D02*
X-242380Y445580D01*
X-438150Y514350D02*
X-306070D01*
D46*
X-284480Y492760D02*
D03*
X-638810Y499110D02*
D03*
X-487680Y491490D02*
D03*
X-74930Y626110D02*
D03*
X-46990Y327660D02*
D03*
X-723900Y210820D02*
D03*
X-641350Y635000D02*
D03*
X-675640D02*
D03*
X-438150Y638810D02*
D03*
X-469900D02*
D03*
X-904240Y25400D02*
D03*
D47*
X-15240Y828040D02*
D03*
X-180000Y150000D02*
D03*
X-220000D02*
D03*
X-260000D02*
D03*
X-300000D02*
D03*
X-260000Y20000D02*
D03*
X-20000D02*
D03*
X-300000D02*
D03*
X-60000D02*
D03*
X-20000Y150000D02*
D03*
X-100000Y20000D02*
D03*
X-60000Y150000D02*
D03*
X-140000Y20000D02*
D03*
X-100000Y150000D02*
D03*
X-180000Y20000D02*
D03*
X-140000Y150000D02*
D03*
X-220000Y20000D02*
D03*
X-15240Y259080D02*
D03*
D48*
Y802640D02*
D03*
Y777240D02*
D03*
Y751840D02*
D03*
X-878840Y25400D02*
D03*
X-180000Y175400D02*
D03*
Y200800D02*
D03*
X-220000Y175400D02*
D03*
Y200800D02*
D03*
X-260000Y175400D02*
D03*
Y200800D02*
D03*
X-300000Y175400D02*
D03*
Y200800D02*
D03*
X-260000Y45400D02*
D03*
Y70800D02*
D03*
X-20000Y45400D02*
D03*
Y70800D02*
D03*
X-300000Y45400D02*
D03*
Y70800D02*
D03*
X-60000Y45400D02*
D03*
Y70800D02*
D03*
X-20000Y175400D02*
D03*
Y200800D02*
D03*
X-100000Y45400D02*
D03*
Y70800D02*
D03*
X-60000Y175400D02*
D03*
Y200800D02*
D03*
X-140000Y45400D02*
D03*
Y70800D02*
D03*
X-100000Y175400D02*
D03*
Y200800D02*
D03*
X-180000Y45400D02*
D03*
Y70800D02*
D03*
X-140000Y175400D02*
D03*
Y200800D02*
D03*
X-220000Y45400D02*
D03*
Y70800D02*
D03*
X-15240Y335280D02*
D03*
Y309880D02*
D03*
Y284480D02*
D03*
D49*
X-802640Y382270D02*
D03*
X-801370Y278130D02*
D03*
X-377063Y72898D02*
D03*
X-374396Y181356D02*
D03*
D50*
X-802386Y416306D02*
D03*
X-801116Y312166D02*
D03*
X-377317Y38862D02*
D03*
X-374650Y147320D02*
D03*
D51*
X-969010Y21590D02*
D03*
Y1115060D02*
D03*
X16510D02*
D03*
Y21590D02*
D03*
D52*
X-817626Y164978D02*
D03*
Y56521D02*
D03*
D53*
X-783590Y164724D02*
D03*
Y56266D02*
D03*
D54*
X-36830Y552450D02*
D03*
Y527050D02*
D03*
Y577850D02*
D03*
D55*
Y501650D02*
D03*
D56*
X-887730Y87630D02*
D03*
Y138430D02*
D03*
X-889000Y273050D02*
D03*
Y222250D02*
D03*
Y323850D02*
D03*
Y374650D02*
D03*
Y425450D02*
D03*
D57*
X-461010Y119380D02*
D03*
X-544830D02*
D03*
D58*
X-52070Y376174D02*
D03*
D59*
Y391160D02*
D03*
Y406171D02*
D03*
Y421157D02*
D03*
Y436169D02*
D03*
Y451155D02*
D03*
D60*
X-879960Y779780D02*
D03*
X-880341Y923290D02*
D03*
D61*
X-935078Y779780D02*
D03*
X-935459Y923290D02*
D03*
D62*
X-370690Y1033780D02*
D03*
X-523090D02*
D03*
X-472290D02*
D03*
X-421490D02*
D03*
X-855980Y1035050D02*
D03*
X-906780D02*
D03*
D63*
X-922020Y768350D02*
D03*
X-274320Y427990D02*
D03*
X-425450Y303530D02*
D03*
X-416560Y308610D02*
D03*
X-433070D02*
D03*
X-480060Y515620D02*
D03*
X-922020Y793750D02*
D03*
X-949960Y768350D02*
D03*
Y793750D02*
D03*
X-261620Y452120D02*
D03*
X-252730D02*
D03*
X-511810Y589280D02*
D03*
Y577850D02*
D03*
X-716280Y590550D02*
D03*
Y580390D02*
D03*
Y601980D02*
D03*
Y612140D02*
D03*
X-429260Y610870D02*
D03*
X-439420D02*
D03*
Y600710D02*
D03*
X-429260D02*
D03*
X-511810D02*
D03*
X-640080Y610870D02*
D03*
X-650240D02*
D03*
X-640080Y601980D02*
D03*
X-650240D02*
D03*
X-504190Y337820D02*
D03*
Y346710D02*
D03*
X-424180Y218440D02*
D03*
X-408940Y229870D02*
D03*
X-504190Y327660D02*
D03*
X-511969Y393700D02*
D03*
X-504190D02*
D03*
X-726440Y461010D02*
D03*
X-713740Y429260D02*
D03*
X-726440D02*
D03*
X-868680Y179070D02*
D03*
X-805180Y568960D02*
D03*
X-745490Y561340D02*
D03*
X-765810Y342900D02*
D03*
X-643890Y364490D02*
D03*
X-739140Y461010D02*
D03*
X-713740D02*
D03*
X-726440Y416560D02*
D03*
Y384810D02*
D03*
X-478790Y300990D02*
D03*
X-486410Y293370D02*
D03*
X-163830Y245110D02*
D03*
X-151130D02*
D03*
X-209550Y259080D02*
D03*
X-154940Y295910D02*
D03*
Y287020D02*
D03*
X-230876Y340350D02*
D03*
X-221996Y340360D02*
D03*
X-257810Y478790D02*
D03*
X-219710Y492760D02*
D03*
X-257810Y504190D02*
D03*
X-219710Y515620D02*
D03*
X-355346Y328168D02*
D03*
X-357124Y312674D02*
D03*
X-201930Y463550D02*
D03*
X-29210Y468630D02*
D03*
X-63500Y247650D02*
D03*
X-222250Y259080D02*
D03*
X-74930Y384810D02*
D03*
X-87630D02*
D03*
X-97790Y378460D02*
D03*
X-107950D02*
D03*
X-269240Y419100D02*
D03*
X-180340Y426720D02*
D03*
X-168910D02*
D03*
X-269240Y405130D02*
D03*
X-139700Y330200D02*
D03*
X-118110Y378460D02*
D03*
X-148590Y377190D02*
D03*
X-158750Y375920D02*
D03*
X-133350Y336550D02*
D03*
X-166370Y337820D02*
D03*
X-151130Y326390D02*
D03*
X-281940Y368300D02*
D03*
X-294640D02*
D03*
X-307340D02*
D03*
X-320040D02*
D03*
X-332740D02*
D03*
X-166370Y311150D02*
D03*
X-156210D02*
D03*
X-176530Y245110D02*
D03*
X-189230D02*
D03*
X-102720Y641350D02*
D03*
X-697080Y833120D02*
D03*
Y844550D02*
D03*
X-445620Y762000D02*
D03*
X-458320Y673100D02*
D03*
X-469750D02*
D03*
X-482450D02*
D03*
X-454510Y762000D02*
D03*
X-641200D02*
D03*
X-650090D02*
D03*
X-662790Y673100D02*
D03*
X-688190D02*
D03*
X-675490D02*
D03*
X-321160Y640080D02*
D03*
X-524360Y641350D02*
D03*
X-225910Y604520D02*
D03*
X-850750Y603250D02*
D03*
X-730100Y641350D02*
D03*
X-463400Y762000D02*
D03*
X-660250D02*
D03*
X-653900Y834390D02*
D03*
X-450700D02*
D03*
X-493880Y821690D02*
D03*
X-109070Y769620D02*
D03*
X-316080D02*
D03*
X-484990Y779780D02*
D03*
X-688190D02*
D03*
X-697080Y821690D02*
D03*
X-410210Y203200D02*
D03*
X-401320Y274320D02*
D03*
X-425450Y361950D02*
D03*
X-379730D02*
D03*
X-337820Y400050D02*
D03*
X-50800Y237490D02*
D03*
X-27940Y241300D02*
D03*
X10160Y208280D02*
D03*
X-482600Y541020D02*
D03*
X-306070Y514350D02*
D03*
X-438150D02*
D03*
X-469900Y533400D02*
D03*
X-627380Y872490D02*
D03*
X-447040Y254000D02*
D03*
X-642620Y71120D02*
D03*
Y171450D02*
D03*
X-730250Y852170D02*
D03*
X-717550D02*
D03*
X-704850D02*
D03*
X-494030Y831850D02*
D03*
Y843280D02*
D03*
X-502920Y850900D02*
D03*
X-514350D02*
D03*
X-527050D02*
D03*
X-292100Y820420D02*
D03*
X-302260Y826770D02*
D03*
X-284480D02*
D03*
X-302260Y838200D02*
D03*
X-284480D02*
D03*
X-293370Y831850D02*
D03*
Y844550D02*
D03*
X-97790Y821690D02*
D03*
X-82550D02*
D03*
Y830580D02*
D03*
X-90170Y826770D02*
D03*
Y816610D02*
D03*
Y836930D02*
D03*
X-97790Y831850D02*
D03*
X-425450Y872490D02*
D03*
X-713740Y416560D02*
D03*
X-859350Y499640D02*
D03*
X-730250Y608330D02*
D03*
X-511810Y610870D02*
D03*
X-316230Y608330D02*
D03*
X-105410D02*
D03*
X-635000Y368300D02*
D03*
X-626110Y364490D02*
D03*
X-401320Y260350D02*
D03*
X-425590Y393660D02*
D03*
X-279400Y419100D02*
D03*
X-50800Y228600D02*
D03*
X-546100Y229870D02*
D03*
Y240030D02*
D03*
X-457200Y254000D02*
D03*
D64*
X-704850Y661670D02*
D03*
X-671830Y500380D02*
D03*
X-240030Y424180D02*
D03*
X-195430Y694690D02*
D03*
X-411330Y697230D02*
D03*
X-614530Y694690D02*
D03*
X-825350Y695960D02*
D03*
X-337820Y420370D02*
D03*
X-127000Y438150D02*
D03*
D65*
X-791730Y554990D02*
D03*
D66*
X-729730Y531990D02*
D03*
Y577990D02*
D03*
D67*
Y554990D02*
D03*
D68*
X-713950Y358140D02*
D03*
X-742950D02*
D03*
D69*
X-599440Y373515D02*
D03*
Y406265D02*
D03*
D70*
X-253810Y423580D02*
D03*
Y418580D02*
D03*
Y413580D02*
D03*
Y408580D02*
D03*
Y403580D02*
D03*
Y398580D02*
D03*
Y393580D02*
D03*
Y388580D02*
D03*
Y383580D02*
D03*
Y378580D02*
D03*
Y373580D02*
D03*
Y368580D02*
D03*
Y363580D02*
D03*
Y358580D02*
D03*
Y353580D02*
D03*
Y348580D02*
D03*
X-134810D02*
D03*
Y353580D02*
D03*
Y358580D02*
D03*
Y363580D02*
D03*
Y368580D02*
D03*
Y373580D02*
D03*
Y378580D02*
D03*
Y383580D02*
D03*
Y388580D02*
D03*
Y393580D02*
D03*
Y398580D02*
D03*
Y403580D02*
D03*
Y408580D02*
D03*
Y413580D02*
D03*
Y418580D02*
D03*
Y423580D02*
D03*
D71*
X-231810Y326580D02*
D03*
X-226810D02*
D03*
X-221810D02*
D03*
X-216810D02*
D03*
X-211810D02*
D03*
X-206810D02*
D03*
X-201810D02*
D03*
X-196810D02*
D03*
X-191810D02*
D03*
X-186810D02*
D03*
X-181810D02*
D03*
X-176810D02*
D03*
X-171810D02*
D03*
X-166810D02*
D03*
X-161810D02*
D03*
X-156810D02*
D03*
X-231810Y445580D02*
D03*
X-226810D02*
D03*
X-221810D02*
D03*
X-216810D02*
D03*
X-211810D02*
D03*
X-206810D02*
D03*
X-201810D02*
D03*
X-196810D02*
D03*
X-191810D02*
D03*
X-186810D02*
D03*
X-181810D02*
D03*
X-176810D02*
D03*
X-171810D02*
D03*
X-166810D02*
D03*
X-161810D02*
D03*
X-156810D02*
D03*
M02*
