G04 Layer_Color=128*
%FSLAX44Y44*%
%MOMM*%
G71*
G01*
G75*
%ADD11R,1.2700X1.6002*%
%ADD13R,1.6002X1.2700*%
%ADD14R,2.7000X1.3000*%
%ADD24R,1.2700X1.3970*%
%ADD25R,1.3970X1.2700*%
%ADD27R,1.0000X1.1000*%
%ADD30R,0.5080X1.5240*%
%ADD31R,1.4500X0.5500*%
%ADD32R,10.7000X10.0000*%
%ADD33R,1.5000X3.0000*%
%ADD65R,2.1500X3.5000*%
%ADD66R,2.1500X1.1000*%
%ADD67R,2.1500X1.1000*%
%ADD68R,1.3000X1.8500*%
%ADD69R,1.2200X0.9150*%
%ADD70R,1.6000X0.3000*%
%ADD71R,0.3000X1.6000*%
%ADD83R,1.4940X1.2190*%
%ADD84R,1.4940X1.2190*%
D11*
X-750570Y500380D02*
D03*
X-730250D02*
D03*
X-572770Y353060D02*
D03*
X-593090D02*
D03*
X-233680Y259080D02*
D03*
X-254000D02*
D03*
X-401320Y378460D02*
D03*
X-381000D02*
D03*
D13*
X-845820Y591820D02*
D03*
Y571500D02*
D03*
X-819150Y591820D02*
D03*
Y571500D02*
D03*
X-572770Y397510D02*
D03*
Y377190D02*
D03*
X-742950Y407670D02*
D03*
Y387350D02*
D03*
Y452120D02*
D03*
Y431800D02*
D03*
X-679450Y431800D02*
D03*
Y452120D02*
D03*
X-650240Y452120D02*
D03*
Y431800D02*
D03*
X-107950Y347980D02*
D03*
Y327660D02*
D03*
X-326390Y168910D02*
D03*
Y148590D02*
D03*
Y24130D02*
D03*
Y44450D02*
D03*
D14*
X-541020Y375390D02*
D03*
Y404390D02*
D03*
X-673100Y406930D02*
D03*
Y377930D02*
D03*
X-633730Y406930D02*
D03*
Y377930D02*
D03*
D24*
X-556110Y792480D02*
D03*
X-533250D02*
D03*
X-124310D02*
D03*
X-147170D02*
D03*
X-735257D02*
D03*
X-758117D02*
D03*
X-507850D02*
D03*
X-484990D02*
D03*
X-711050D02*
D03*
X-688190D02*
D03*
X-332590D02*
D03*
X-355450D02*
D03*
D25*
X-438000Y857250D02*
D03*
Y834390D02*
D03*
X-463400Y857250D02*
D03*
Y834390D02*
D03*
X-639930Y857250D02*
D03*
Y834390D02*
D03*
X-666600Y857250D02*
D03*
Y834390D02*
D03*
X10160Y218440D02*
D03*
Y241300D02*
D03*
D27*
X-243810Y467360D02*
D03*
X-257810D02*
D03*
D30*
X-463400Y883920D02*
D03*
X-450700D02*
D03*
X-438000D02*
D03*
X-425300D02*
D03*
Y935990D02*
D03*
X-438000D02*
D03*
X-450700D02*
D03*
X-463400D02*
D03*
X-665330Y883920D02*
D03*
X-652630D02*
D03*
X-639930D02*
D03*
X-627230D02*
D03*
Y935990D02*
D03*
X-639930D02*
D03*
X-652630D02*
D03*
X-665330D02*
D03*
D31*
X-354677Y769620D02*
D03*
X-331177D02*
D03*
X-146220D02*
D03*
X-122720D02*
D03*
X-532853D02*
D03*
X-556353D02*
D03*
X-734860D02*
D03*
X-758360D02*
D03*
X-687870Y770890D02*
D03*
X-711370D02*
D03*
X-484670D02*
D03*
X-508170D02*
D03*
D32*
X-747522Y929640D02*
D03*
X-544576Y930656D02*
D03*
X-342900D02*
D03*
X-139954D02*
D03*
D33*
X-721868Y821256D02*
D03*
X-772668D02*
D03*
X-569722Y822272D02*
D03*
X-518922D02*
D03*
X-317246D02*
D03*
X-368046D02*
D03*
X-165100D02*
D03*
X-114300D02*
D03*
D65*
X-791730Y554990D02*
D03*
D66*
X-729730Y531990D02*
D03*
Y577990D02*
D03*
D67*
Y554990D02*
D03*
D68*
X-713950Y358140D02*
D03*
X-742950D02*
D03*
D69*
X-599440Y373515D02*
D03*
Y406265D02*
D03*
D70*
X-253810Y423580D02*
D03*
Y418580D02*
D03*
Y413580D02*
D03*
Y408580D02*
D03*
Y403580D02*
D03*
Y398580D02*
D03*
Y393580D02*
D03*
Y388580D02*
D03*
Y383580D02*
D03*
Y378580D02*
D03*
Y373580D02*
D03*
Y368580D02*
D03*
Y363580D02*
D03*
Y358580D02*
D03*
Y353580D02*
D03*
Y348580D02*
D03*
X-134810D02*
D03*
Y353580D02*
D03*
Y358580D02*
D03*
Y363580D02*
D03*
Y368580D02*
D03*
Y373580D02*
D03*
Y378580D02*
D03*
Y383580D02*
D03*
Y388580D02*
D03*
Y393580D02*
D03*
Y398580D02*
D03*
Y403580D02*
D03*
Y408580D02*
D03*
Y413580D02*
D03*
Y418580D02*
D03*
Y423580D02*
D03*
D71*
X-231810Y326580D02*
D03*
X-226810D02*
D03*
X-221810D02*
D03*
X-216810D02*
D03*
X-211810D02*
D03*
X-206810D02*
D03*
X-201810D02*
D03*
X-196810D02*
D03*
X-191810D02*
D03*
X-186810D02*
D03*
X-181810D02*
D03*
X-176810D02*
D03*
X-171810D02*
D03*
X-166810D02*
D03*
X-161810D02*
D03*
X-156810D02*
D03*
X-231810Y445580D02*
D03*
X-226810D02*
D03*
X-221810D02*
D03*
X-216810D02*
D03*
X-211810D02*
D03*
X-206810D02*
D03*
X-201810D02*
D03*
X-196810D02*
D03*
X-191810D02*
D03*
X-186810D02*
D03*
X-181810D02*
D03*
X-176810D02*
D03*
X-171810D02*
D03*
X-166810D02*
D03*
X-161810D02*
D03*
X-156810D02*
D03*
D83*
X-774275Y966356D02*
D03*
Y951166D02*
D03*
Y935976D02*
D03*
Y920786D02*
D03*
Y905596D02*
D03*
X-756335Y890406D02*
D03*
X-720457Y966356D02*
D03*
Y951166D02*
D03*
Y935976D02*
D03*
Y920786D02*
D03*
Y905596D02*
D03*
X-720457Y890406D02*
D03*
X-517511Y891422D02*
D03*
X-517511Y906612D02*
D03*
Y921802D02*
D03*
Y936992D02*
D03*
Y952182D02*
D03*
Y967372D02*
D03*
X-553389Y891422D02*
D03*
X-571329Y906612D02*
D03*
Y921802D02*
D03*
Y936992D02*
D03*
Y952182D02*
D03*
Y967372D02*
D03*
X-369653D02*
D03*
Y952182D02*
D03*
Y936992D02*
D03*
Y921802D02*
D03*
Y906612D02*
D03*
X-351713Y891422D02*
D03*
X-315835Y967372D02*
D03*
Y952182D02*
D03*
Y936992D02*
D03*
Y921802D02*
D03*
Y906612D02*
D03*
X-315835Y891422D02*
D03*
X-112889D02*
D03*
X-112889Y906612D02*
D03*
Y921802D02*
D03*
Y936992D02*
D03*
Y952182D02*
D03*
Y967372D02*
D03*
X-148767Y891422D02*
D03*
X-166707Y906612D02*
D03*
Y921802D02*
D03*
Y936992D02*
D03*
Y952182D02*
D03*
Y967372D02*
D03*
D84*
X-792215Y890407D02*
D03*
X-792215Y905596D02*
D03*
Y920786D02*
D03*
Y935976D02*
D03*
Y951166D02*
D03*
Y966356D02*
D03*
X-774275Y890406D02*
D03*
X-756335Y966356D02*
D03*
Y951166D02*
D03*
Y935976D02*
D03*
Y920786D02*
D03*
Y905596D02*
D03*
X-738397Y966356D02*
D03*
Y951166D02*
D03*
Y935976D02*
D03*
Y920786D02*
D03*
Y905596D02*
D03*
X-738397Y890406D02*
D03*
X-702517Y966356D02*
D03*
Y951166D02*
D03*
Y935976D02*
D03*
Y920786D02*
D03*
Y905596D02*
D03*
X-702517Y890406D02*
D03*
X-499571Y891422D02*
D03*
X-499571Y906612D02*
D03*
Y921802D02*
D03*
Y936992D02*
D03*
Y952182D02*
D03*
Y967372D02*
D03*
X-535451Y891423D02*
D03*
X-535451Y906612D02*
D03*
Y921802D02*
D03*
Y936992D02*
D03*
Y952182D02*
D03*
Y967372D02*
D03*
X-553389Y906612D02*
D03*
Y921802D02*
D03*
Y936992D02*
D03*
Y952182D02*
D03*
Y967372D02*
D03*
X-571329Y891422D02*
D03*
X-589269Y967372D02*
D03*
Y952182D02*
D03*
Y936992D02*
D03*
Y921802D02*
D03*
Y906612D02*
D03*
X-589269Y891423D02*
D03*
X-387593D02*
D03*
X-387593Y906612D02*
D03*
Y921802D02*
D03*
Y936992D02*
D03*
Y952182D02*
D03*
Y967372D02*
D03*
X-369653Y891422D02*
D03*
X-351713Y967372D02*
D03*
Y952182D02*
D03*
Y936992D02*
D03*
Y921802D02*
D03*
Y906612D02*
D03*
X-333775Y967372D02*
D03*
Y952182D02*
D03*
Y936992D02*
D03*
Y921802D02*
D03*
Y906612D02*
D03*
X-333775Y891423D02*
D03*
X-297895Y967372D02*
D03*
Y952182D02*
D03*
Y936992D02*
D03*
Y921802D02*
D03*
Y906612D02*
D03*
X-297895Y891422D02*
D03*
X-94949D02*
D03*
X-94949Y906612D02*
D03*
Y921802D02*
D03*
Y936992D02*
D03*
Y952182D02*
D03*
Y967372D02*
D03*
X-130829Y891423D02*
D03*
X-130829Y906612D02*
D03*
Y921802D02*
D03*
Y936992D02*
D03*
Y952182D02*
D03*
Y967372D02*
D03*
X-148767Y906612D02*
D03*
Y921802D02*
D03*
Y936992D02*
D03*
Y952182D02*
D03*
Y967372D02*
D03*
X-166707Y891422D02*
D03*
X-184647Y967372D02*
D03*
Y952182D02*
D03*
Y936992D02*
D03*
Y921802D02*
D03*
Y906612D02*
D03*
X-184647Y891423D02*
D03*
M02*
