  0
SECTION
  2
HEADER
  9
$ACADVER
  1
AC1009
  9
$INSBASE
 10
0.0
 20
0.0
 30
0.0
  9
$EXTMIN
 10
-45.0
 20
-23.500000000000011
 30
0.0
  9
$EXTMAX
 10
45.0
 20
42.365560872452193
 30
0.0
  9
$LIMMIN
 10
0.0
 20
0.0
  9
$LIMMAX
 10
420.0
 20
297.0
  9
$ORTHOMODE
 70
     0
  9
$REGENMODE
 70
     1
  9
$FILLMODE
 70
     1
  9
$QTEXTMODE
 70
     0
  9
$MIRRTEXT
 70
     1
  9
$DRAGMODE
 70
     2
  9
$LTSCALE
 40
1.0
  9
$OSMODE
 70
  3071
  9
$ATTMODE
 70
     1
  9
$TEXTSIZE
 40
3.5
  9
$TRACEWID
 40
1.0
  9
$TEXTSTYLE
  7
STANDARD
  9
$CLAYER
  8
0
  9
$CELTYPE
  6
BYLAYER
  9
$CECOLOR
 62
   256
  9
$DIMSCALE
 40
1.0
  9
$DIMASZ
 40
3.3019999999999992
  9
$DIMEXO
 40
1.0
  9
$DIMDLI
 40
3.75
  9
$DIMRND
 40
0.0
  9
$DIMDLE
 40
0.0
  9
$DIMEXE
 40
1.0
  9
$DIMTP
 40
0.0
  9
$DIMTM
 40
0.0
  9
$DIMTXT
 40
3.5
  9
$DIMCEN
 40
2.5
  9
$DIMTSZ
 40
0.0
  9
$DIMTOL
 70
     0
  9
$DIMLIM
 70
     0
  9
$DIMTIH
 70
     1
  9
$DIMTOH
 70
     1
  9
$DIMSE1
 70
     0
  9
$DIMSE2
 70
     0
  9
$DIMTAD
 70
     1
  9
$DIMZIN
 70
     0
  9
$DIMBLK
  1

  9
$DIMASO
 70
     1
  9
$DIMSHO
 70
     1
  9
$DIMPOST
  1

  9
$DIMAPOST
  1

  9
$DIMALT
 70
     0
  9
$DIMALTD
 70
     3
  9
$DIMALTF
 40
0.0393700787401575
  9
$DIMLFAC
 40
1.0
  9
$DIMTOFL
 70
     1
  9
$DIMTVP
 40
0.0
  9
$DIMTIX
 70
     0
  9
$DIMSOXD
 70
     0
  9
$DIMSAH
 70
     0
  9
$DIMBLK1
  1

  9
$DIMBLK2
  1

  9
$DIMSTYLE
  2
ISO-25
  9
$DIMCLRD
 70
     0
  9
$DIMCLRE
 70
     0
  9
$DIMCLRT
 70
     0
  9
$DIMTFAC
 40
1.0
  9
$DIMGAP
 40
1.524
  9
$LUNITS
 70
     2
  9
$LUPREC
 70
     2
  9
$SKETCHINC
 40
1.0
  9
$FILLETRAD
 40
10.0
  9
$AUNITS
 70
     0
  9
$AUPREC
 70
     2
  9
$MENU
  1
.
  9
$ELEVATION
 40
0.0
  9
$PELEVATION
 40
0.0
  9
$THICKNESS
 40
0.0
  9
$LIMCHECK
 70
     0
  9
$BLIPMODE
 70
     0
  9
$CHAMFERA
 40
0.0
  9
$CHAMFERB
 40
0.0
  9
$SKPOLY
 70
     0
  9
$TDCREATE
 40
2458410.4795875242
  9
$TDUPDATE
 40
2458410.4922461808
  9
$TDINDWG
 40
0.0105456829
  9
$TDUSRTIMER
 40
0.0105456829
  9
$USRTIMER
 70
     1
  9
$ANGBASE
 50
0.0
  9
$ANGDIR
 70
     0
  9
$PDMODE
 70
     0
  9
$PDSIZE
 40
-1.0
  9
$PLINEWID
 40
0.0
  9
$COORDS
 70
     1
  9
$SPLFRAME
 70
     0
  9
$SPLINETYPE
 70
     6
  9
$SPLINESEGS
 70
     8
  9
$ATTDIA
 70
     1
  9
$ATTREQ
 70
     1
  9
$HANDLING
 70
     1
  9
$HANDSEED
  5
28C
  9
$SURFTAB1
 70
     6
  9
$SURFTAB2
 70
     6
  9
$SURFTYPE
 70
     6
  9
$SURFU
 70
     6
  9
$SURFV
 70
     6
  9
$UCSNAME
  2

  9
$UCSORG
 10
0.0
 20
0.0
 30
0.0
  9
$UCSXDIR
 10
1.0
 20
0.0
 30
0.0
  9
$UCSYDIR
 10
0.0
 20
1.0
 30
0.0
  9
$PUCSNAME
  2

  9
$PUCSORG
 10
0.0
 20
0.0
 30
0.0
  9
$PUCSXDIR
 10
1.0
 20
0.0
 30
0.0
  9
$PUCSYDIR
 10
0.0
 20
1.0
 30
0.0
  9
$USERI1
 70
     0
  9
$USERI2
 70
     0
  9
$USERI3
 70
     0
  9
$USERI4
 70
     0
  9
$USERI5
 70
     0
  9
$USERR1
 40
0.0
  9
$USERR2
 40
0.0
  9
$USERR3
 40
0.0
  9
$USERR4
 40
0.0
  9
$USERR5
 40
0.0
  9
$WORLDVIEW
 70
     1
  9
$SHADEDGE
 70
     3
  9
$SHADEDIF
 70
    70
  9
$TILEMODE
 70
     1
  9
$MAXACTVP
 70
    64
  9
$PLIMCHECK
 70
     0
  9
$PEXTMIN
 10
1.0000000000000000E+020
 20
1.0000000000000000E+020
 30
1.0000000000000000E+020
  9
$PEXTMAX
 10
-1.0000000000000000E+020
 20
-1.0000000000000000E+020
 30
-1.0000000000000000E+020
  9
$PLIMMIN
 10
0.0
 20
0.0
  9
$PLIMMAX
 10
420.0
 20
297.0
  9
$UNITMODE
 70
     0
  9
$VISRETAIN
 70
     1
  9
$PLINEGEN
 70
     0
  9
$PSLTSCALE
 70
     1
  0
ENDSEC
  0
SECTION
  2
TABLES
  0
TABLE
  2
VPORT
 70
     1
  0
VPORT
  2
*ACTIVE
 70
     0
 10
0.0
 20
0.0
 11
1.0
 21
1.0
 12
7.8738201282304772
 22
-18.84367142429403
 13
0.0
 23
0.0
 14
10.0
 24
10.0
 15
10.0
 25
10.0
 16
0.0
 26
0.0
 36
1.0
 17
0.0
 27
0.0
 37
0.0
 40
147.41522673935259
 41
2.153519932145886
 42
50.0
 43
0.0
 44
0.0
 50
0.0
 51
0.0
 71
     0
 72
   100
 73
     1
 74
     3
 75
     0
 76
     0
 77
     0
 78
     0
  0
ENDTAB
  0
TABLE
  2
LTYPE
 70
     6
  0
LTYPE
  2
CONTINUOUS
 70
     0
  3
Solid line
 72
    65
 73
     0
 40
0.0
  0
LTYPE
  2
HIDDEN
 70
     0
  3
Hidden __ __ __ __ __ __ __ __ __ __ __ __ __ __
 72
    65
 73
     2
 40
1.905
 49
1.27
 49
-0.635
  0
LTYPE
  2
PHANTOM
 70
     0
  3
Phantom ______  __  __  ______  __  __  ______
 72
    65
 73
     6
 40
12.699999999999999
 49
6.3499999999999988
 49
-1.27
 49
1.27
 49
-1.27
 49
1.27
 49
-1.27
  0
LTYPE
  2
CENTER
 70
     0
  3
Center ____ _ ____ _ ____ _ ____ _ ____ _ ____
 72
    65
 73
     4
 40
10.16
 49
6.3499999999999988
 49
-1.27
 49
1.27
 49
-1.27
  0
LTYPE
  2
CENTERX2
 70
     0
  3
Center (2x) ________  __  ________  __  _____
 72
    65
 73
     4
 40
20.32
 49
12.699999999999999
 49
-2.54
 49
2.54
 49
-2.54
  0
LTYPE
  2
DOT2
 70
     0
  3
Dot (.5x) ........................................
 72
    65
 73
     2
 40
0.635
 49
0.0
 49
-0.635
  0
ENDTAB
  0
TABLE
  2
LAYER
 70
     1
  0
LAYER
  2
0
 70
     0
 62
     7
  6
CONTINUOUS
  0
ENDTAB
  0
TABLE
  2
STYLE
 70
     1
  0
STYLE
  2
STANDARD
 70
     0
 40
0.0
 41
1.0
 50
0.0
 71
     0
 42
3.5
  3
txt
  4

  0
ENDTAB
  0
TABLE
  2
VIEW
 70
     1
  0
ENDTAB
  0
TABLE
  2
UCS
 70
     0
  0
ENDTAB
  0
TABLE
  2
APPID
 70
     7
  0
APPID
  2
ACAD
 70
     0
  0
APPID
  2
ACAD_NAV_VCDISPLAY
 70
     0
  0
APPID
  2
ACAUTHENVIRON
 70
     0
  0
APPID
  2
ACDBDYNAMICBLOCKTRUENAME
 70
     0
  0
APPID
  2
ACDBDYNAMICBLOCKGUID
 70
     0
  0
APPID
  2
ACAD_MLEADERVER
 70
     0
  0
APPID
  2
CONTENTBLOCKICON
 70
     0
  0
ENDTAB
  0
TABLE
  2
DIMSTYLE
 70
     1
  0
DIMSTYLE
  2
ISO-25
 70
     0
  3

  4

  5

  6

  7

 40
1.0
 41
2.5
 42
0.625
 43
3.75
 44
1.25
 45
0.0
 46
0.0
 47
0.0
 48
0.0
140
2.5
141
2.5
142
0.0
143
0.03937007874016
144
1.0
145
0.0
146
1.0
147
0.625
 71
     0
 72
     0
 73
     0
 74
     0
 75
     0
 76
     0
 77
     1
 78
     8
170
     0
171
     3
172
     1
173
     0
174
     0
175
     0
176
     0
177
     0
178
     0
  0
ENDTAB
  0
ENDSEC
  0
SECTION
  2
BLOCKS
  0
BLOCK
  8
0
  2
$MODEL_SPACE
 70
     0
 10
0.0
 20
0.0
 30
0.0
  3
$MODEL_SPACE
  1

  0
ENDBLK
  5
21
  8
0
  0
BLOCK
 67
     1
  8
0
  2
$PAPER_SPACE
 70
     0
 10
0.0
 20
0.0
 30
0.0
  3
$PAPER_SPACE
  1

  0
ENDBLK
  5
1D
 67
     1
  8
0
  0
BLOCK
  8
0
  2
A$C156B44C1
 70
     0
 10
0.0
 20
0.0
 30
0.0
  3
A$C156B44C1
  1

  0
INSERT
  5
159
  8
0
  2
*U9
 10
0.0
 20
0.0
 30
0.0
  0
ENDBLK
  5
15B
  8
0
  0
BLOCK
  8
0
  2
FRONT_VIEW
 70
     0
 10
0.0
 20
0.0
 30
0.0
  3
FRONT_VIEW
  1

  0
LINE
  5
17B
  8
0
  6
CONTINUOUS
 62
     3
 10
-44.000000000000028
 20
14.976688727301489
 30
0.0
 11
-42.92668872730151
 21
14.976688727301489
 31
0.0
  0
LINE
  5
17C
  8
0
  6
CONTINUOUS
 62
     3
 10
-42.92668872730151
 20
14.976688727301489
 30
0.0
 11
-42.92668872730151
 21
16.023311272698521
 31
0.0
  0
LINE
  5
17D
  8
0
  6
CONTINUOUS
 62
     3
 10
-42.92668872730151
 20
16.023311272698521
 30
0.0
 11
-44.000000000000028
 21
16.023311272698521
 31
0.0
  0
LINE
  5
17E
  8
0
  6
CONTINUOUS
 62
     3
 10
-44.000000000000028
 20
16.023311272698521
 30
0.0
 11
-44.000000000000028
 21
14.976688727301489
 31
0.0
  0
LINE
  5
17F
  8
0
  6
CONTINUOUS
 62
     3
 10
-42.92668872730151
 20
-16.023311272698511
 30
0.0
 11
-42.92668872730151
 21
-14.976688727301489
 31
0.0
  0
LINE
  5
180
  8
0
  6
CONTINUOUS
 62
     3
 10
-44.000000000000028
 20
-16.023311272698511
 30
0.0
 11
-42.92668872730151
 21
-16.023311272698511
 31
0.0
  0
LINE
  5
181
  8
0
  6
CONTINUOUS
 62
     3
 10
-44.000000000000028
 20
-14.976688727301489
 30
0.0
 11
-44.000000000000028
 21
-16.023311272698511
 31
0.0
  0
LINE
  5
182
  8
0
  6
CONTINUOUS
 62
     3
 10
-42.92668872730151
 20
-14.976688727301489
 30
0.0
 11
-44.000000000000028
 21
-14.976688727301489
 31
0.0
  0
LINE
  5
183
  8
0
  6
CONTINUOUS
 62
     3
 10
42.92668872730151
 20
-14.976688727301489
 30
0.0
 11
42.92668872730151
 21
-16.023311272698511
 31
0.0
  0
LINE
  5
184
  8
0
  6
CONTINUOUS
 62
     3
 10
44.000000000000028
 20
-14.976688727301489
 30
0.0
 11
42.92668872730151
 21
-14.976688727301489
 31
0.0
  0
LINE
  5
185
  8
0
  6
CONTINUOUS
 62
     3
 10
44.000000000000028
 20
-16.023311272698511
 30
0.0
 11
44.000000000000028
 21
-14.976688727301489
 31
0.0
  0
LINE
  5
186
  8
0
  6
CONTINUOUS
 62
     3
 10
42.92668872730151
 20
-16.023311272698511
 30
0.0
 11
44.000000000000028
 21
-16.023311272698511
 31
0.0
  0
LINE
  5
187
  8
0
  6
CONTINUOUS
 62
     3
 10
44.000000000000028
 20
16.023311272698521
 30
0.0
 11
42.92668872730151
 21
16.023311272698521
 31
0.0
  0
LINE
  5
188
  8
0
  6
CONTINUOUS
 62
     3
 10
44.000000000000028
 20
14.976688727301489
 30
0.0
 11
44.000000000000028
 21
16.023311272698521
 31
0.0
  0
LINE
  5
189
  8
0
  6
CONTINUOUS
 62
     3
 10
42.92668872730151
 20
14.976688727301489
 30
0.0
 11
44.000000000000028
 21
14.976688727301489
 31
0.0
  0
LINE
  5
18A
  8
0
  6
CONTINUOUS
 62
     3
 10
42.92668872730151
 20
16.023311272698521
 30
0.0
 11
42.92668872730151
 21
14.976688727301489
 31
0.0
  0
LINE
  5
18B
  8
0
  6
CONTINUOUS
 62
     3
 10
-1.000000000000006
 20
19.375000000000011
 30
0.0
 11
0.9999999999999928
 21
19.375000000000011
 31
0.0
  0
LINE
  5
18C
  8
0
  6
CONTINUOUS
 62
     3
 10
-1.000000000000006
 20
20.625000000000011
 30
0.0
 11
-1.000000000000006
 21
19.375000000000011
 31
0.0
  0
LINE
  5
18D
  8
0
  6
CONTINUOUS
 62
     3
 10
0.9999999999999928
 20
20.625000000000011
 30
0.0
 11
-1.000000000000006
 21
20.625000000000011
 31
0.0
  0
LINE
  5
18E
  8
0
  6
CONTINUOUS
 62
     3
 10
0.9999999999999928
 20
19.375000000000011
 30
0.0
 11
0.9999999999999928
 21
20.625000000000011
 31
0.0
  0
ENDBLK
  5
162
  8
0
  0
BLOCK
  8
0
  2
BACK_VIEW
 70
     0
 10
0.0
 20
0.0
 30
0.0
  3
BACK_VIEW
  1

  0
LINE
  5
1AD
  8
0
  6
CONTINUOUS
 62
     1
 10
-14.500000000000011
 20
-1.9999999999999929
 30
0.0
 11
-15.5
 21
-1.9999999999999929
 31
0.0
  0
LINE
  5
1AE
  8
0
  6
CONTINUOUS
 62
     1
 10
-15.5
 20
-1.9999999999999929
 30
0.0
 11
-15.5
 21
2.0000000000000071
 31
0.0
  0
LINE
  5
1AF
  8
0
  6
CONTINUOUS
 62
     1
 10
-15.5
 20
2.0000000000000071
 30
0.0
 11
-14.500000000000011
 21
2.0000000000000071
 31
0.0
  0
LINE
  5
1B0
  8
0
  6
CONTINUOUS
 62
     1
 10
-14.500000000000011
 20
2.0000000000000071
 30
0.0
 11
-14.500000000000011
 21
-1.9999999999999929
 31
0.0
  0
LINE
  5
1B1
  8
0
  6
CONTINUOUS
 62
     1
 10
15.499999999999989
 20
2.0000000000000071
 30
0.0
 11
15.499999999999989
 21
-1.9999999999999929
 31
0.0
  0
LINE
  5
1B2
  8
0
  6
CONTINUOUS
 62
     1
 10
14.499999999999989
 20
2.0000000000000071
 30
0.0
 11
15.499999999999989
 21
2.0000000000000071
 31
0.0
  0
LINE
  5
1B3
  8
0
  6
CONTINUOUS
 62
     1
 10
14.499999999999989
 20
-1.9999999999999929
 30
0.0
 11
14.499999999999989
 21
2.0000000000000071
 31
0.0
  0
LINE
  5
1B4
  8
0
  6
CONTINUOUS
 62
     1
 10
15.499999999999989
 20
-1.9999999999999929
 30
0.0
 11
14.499999999999989
 21
-1.9999999999999929
 31
0.0
  0
LINE
  5
1B5
  8
0
  6
CONTINUOUS
 62
     1
 10
37.460000000000001
 20
-11.919999999999989
 30
0.0
 11
42.539999999999999
 21
-11.919999999999989
 31
0.0
  0
LINE
  5
1B6
  8
0
  6
CONTINUOUS
 62
     1
 10
37.460000000000001
 20
-22.079999999999998
 30
0.0
 11
37.460000000000001
 21
-11.919999999999989
 31
0.0
  0
LINE
  5
1B7
  8
0
  6
CONTINUOUS
 62
     1
 10
42.539999999999999
 20
-22.079999999999998
 30
0.0
 11
37.460000000000001
 21
-22.079999999999998
 31
0.0
  0
LINE
  5
1B8
  8
0
  6
CONTINUOUS
 62
     1
 10
42.539999999999999
 20
-11.919999999999989
 30
0.0
 11
42.539999999999999
 21
-22.079999999999998
 31
0.0
  0
LINE
  5
1B9
  8
0
  6
CONTINUOUS
 62
     1
 10
-31.920000000000002
 20
22.04000000000001
 30
0.0
 11
-31.920000000000002
 21
16.960000000000012
 31
0.0
  0
LINE
  5
1BA
  8
0
  6
CONTINUOUS
 62
     1
 10
-42.079999999999998
 20
22.04000000000001
 30
0.0
 11
-31.920000000000002
 21
22.04000000000001
 31
0.0
  0
LINE
  5
1BB
  8
0
  6
CONTINUOUS
 62
     1
 10
-42.079999999999998
 20
16.960000000000012
 30
0.0
 11
-42.079999999999998
 21
22.04000000000001
 31
0.0
  0
LINE
  5
1BC
  8
0
  6
CONTINUOUS
 62
     1
 10
-31.920000000000002
 20
16.960000000000012
 30
0.0
 11
-42.079999999999998
 21
16.960000000000012
 31
0.0
  0
ENDBLK
  5
198
  8
0
  0
BLOCK
  8
0
  2
*U7
 70
     1
 10
0.0
 20
0.0
 30
0.0
  3
*U7
  1

  0
TEXT
  5
246
  8
0
 62
     3
 10
1.114174627132732
 20
7.4943094795005027
 30
0.0
 40
3.5
  1
- Màu xanh lá: Front View
  0
TEXT
  5
247
  8
0
 62
     1
 10
1.114174627132732
 20
1.462817892415464
 30
0.0
 40
3.5
  1
- Màu \U+0111\U+1ECF: Back View
  0
ENDBLK
  5
249
  8
0
  0
BLOCK
  8
0
  2
*U8
 70
     1
 10
0.0
 20
0.0
 30
0.0
  3
*U8
  1

  0
TEXT
  5
24B
  8
0
 62
     3
 10
-26.038138975843911
 20
37.939230722383982
 30
0.0
 40
3.5
  1
- Màu xanh lá: Front View
  0
TEXT
  5
24C
  8
0
 62
     1
 10
-26.038138975843911
 20
31.90773913529895
 30
0.0
 40
3.5
  1
- Màu \U+0111\U+1ECF: Back View
  0
ENDBLK
  5
24E
  8
0
  0
BLOCK
  8
0
  2
*U9
 70
     1
 10
0.0
 20
0.0
 30
0.0
  3
*U9
  1

  0
TEXT
  5
250
  8
0
 62
     3
 10
1.114174627132732
 20
7.4943094795005027
 30
0.0
 40
3.5
  1
- Màu xanh lá: Front View
  0
TEXT
  5
251
  8
0
 62
     1
 10
1.114174627132732
 20
1.462817892415464
 30
0.0
 40
3.5
  1
- Màu \U+0111\U+1ECF: Back View
  0
ENDBLK
  5
253
  8
0
  0
ENDSEC
  0
SECTION
  2
ENTITIES
  0
CIRCLE
  5
A0
  8
0
  6
CONTINUOUS
 62
     7
 10
-33.190000000000012
 20
20.770000000000032
 30
0.0
 40
0.4499999999999887
  0
CIRCLE
  5
A1
  8
0
  6
CONTINUOUS
 62
     7
 10
-38.270000000000003
 20
18.230000000000011
 30
0.0
 40
0.4500000000000029
  0
CIRCLE
  5
A2
  8
0
  6
CONTINUOUS
 62
     7
 10
-35.729999999999997
 20
18.23
 30
0.0
 40
0.4499999999999958
  0
CIRCLE
  5
A3
  8
0
  6
CONTINUOUS
 62
     7
 10
-33.189999999999998
 20
18.230000000000022
 30
0.0
 40
0.4500000000000029
  0
CIRCLE
  5
A4
  8
0
  6
CONTINUOUS
 62
     7
 10
-40.810000000000002
 20
18.230000000000022
 30
0.0
 40
0.4500000000000029
  0
CIRCLE
  5
A5
  8
0
  6
CONTINUOUS
 62
     7
 10
-40.810000000000016
 20
20.770000000000021
 30
0.0
 40
0.45000000000001
  0
CIRCLE
  5
A6
  8
0
  6
CONTINUOUS
 62
     7
 10
-38.270000000000017
 20
20.769999999999989
 30
0.0
 40
0.4499999999999958
  0
CIRCLE
  5
A7
  8
0
  6
CONTINUOUS
 62
     7
 10
-35.730000000000032
 20
20.77000000000001
 30
0.0
 40
0.4500000000000029
  0
CIRCLE
  5
A8
  8
0
  6
CONTINUOUS
 62
     7
 10
38.729999999999997
 20
-13.19
 30
0.0
 40
0.4500000000000029
  0
CIRCLE
  5
A9
  8
0
  6
CONTINUOUS
 62
     7
 10
41.270000000000003
 20
-18.27000000000001
 30
0.0
 40
0.4499999999999958
  0
CIRCLE
  5
AA
  8
0
  6
CONTINUOUS
 62
     7
 10
41.27000000000001
 20
-15.73
 30
0.0
 40
0.4499999999999887
  0
CIRCLE
  5
AB
  8
0
  6
CONTINUOUS
 62
     7
 10
41.270000000000003
 20
-13.19000000000001
 30
0.0
 40
0.4499999999999958
  0
CIRCLE
  5
AC
  8
0
  6
CONTINUOUS
 62
     7
 10
41.270000000000003
 20
-20.810000000000009
 30
0.0
 40
0.4499999999999958
  0
CIRCLE
  5
AD
  8
0
  6
CONTINUOUS
 62
     7
 10
38.729999999999997
 20
-20.809999999999999
 30
0.0
 40
0.4500000000000029
  0
CIRCLE
  5
AE
  8
0
  6
CONTINUOUS
 62
     7
 10
38.730000000000011
 20
-18.27
 30
0.0
 40
0.4499999999999958
  0
CIRCLE
  5
AF
  8
0
  6
CONTINUOUS
 62
     7
 10
38.729999999999997
 20
-15.73
 30
0.0
 40
0.4500000000000029
  0
INSERT
  5
157
  8
0
  2
*U8
 10
0.0
 20
0.0
 30
0.0
  0
POLYLINE
  5
15C
  8
0
  6
CONTINUOUS
 62
     7
 66
     1
 10
0.0
 20
0.0
 30
0.0
 70
     1
  0
VERTEX
  5
254
  8
0
  6
CONTINUOUS
 62
     7
 10
-45.0
 20
16.0
 30
0.0
  0
VERTEX
  5
255
  8
0
  6
CONTINUOUS
 62
     7
 10
-44.000000000000007
 20
16.0
 30
0.0
 42
-1.0000000000000071
  0
VERTEX
  5
256
  8
0
  6
CONTINUOUS
 62
     7
 10
-44.000000000000007
 20
15.0
 30
0.0
  0
VERTEX
  5
257
  8
0
  6
CONTINUOUS
 62
     7
 10
-45.0
 20
15.0
 30
0.0
  0
VERTEX
  5
258
  8
0
  6
CONTINUOUS
 62
     7
 10
-45.0
 20
12.836357275838539
 30
0.0
 42
0.3033466836073364
  0
VERTEX
  5
259
  8
0
  6
CONTINUOUS
 62
     7
 10
-43.765366864730197
 20
10.988598210816029
 30
0.0
  0
VERTEX
  5
25A
  8
0
  6
CONTINUOUS
 62
     7
 10
-38.93853254107929
 20
8.9892579706318472
 30
0.0
 42
-0.3033466836073412
  0
VERTEX
  5
25B
  8
0
  6
CONTINUOUS
 62
     7
 10
-34.000000000000007
 20
1.598221710541561
 30
0.0
  0
VERTEX
  5
25C
  8
0
  6
CONTINUOUS
 62
     7
 10
-34.000000000000007
 20
-1.5982217105414409
 30
0.0
 42
-0.3033466836073376
  0
VERTEX
  5
25D
  8
0
  6
CONTINUOUS
 62
     7
 10
-38.93853254107929
 20
-8.9892579706318436
 30
0.0
  0
VERTEX
  5
25E
  8
0
  6
CONTINUOUS
 62
     7
 10
-43.765366864730147
 20
-10.98859821081602
 30
0.0
 42
0.3033466836073436
  0
VERTEX
  5
25F
  8
0
  6
CONTINUOUS
 62
     7
 10
-44.999999999999979
 20
-12.83635727583858
 30
0.0
  0
VERTEX
  5
260
  8
0
  6
CONTINUOUS
 62
     7
 10
-44.999999999999993
 20
-15.0
 30
0.0
  0
VERTEX
  5
261
  8
0
  6
CONTINUOUS
 62
     7
 10
-44.0
 20
-15.0
 30
0.0
 42
-0.9999999999999856
  0
VERTEX
  5
262
  8
0
  6
CONTINUOUS
 62
     7
 10
-44.0
 20
-16.0
 30
0.0
  0
VERTEX
  5
263
  8
0
  6
CONTINUOUS
 62
     7
 10
-44.999999999999993
 20
-16.0
 30
0.0
  0
VERTEX
  5
264
  8
0
  6
CONTINUOUS
 62
     7
 10
-45.0
 20
-21.50000000000005
 30
0.0
 42
0.4142135623730935
  0
VERTEX
  5
265
  8
0
  6
CONTINUOUS
 62
     7
 10
-43.0
 20
-23.5
 30
0.0
  0
VERTEX
  5
266
  8
0
  6
CONTINUOUS
 62
     7
 10
43.00000000000005
 20
-23.5
 30
0.0
 42
0.4142135623730894
  0
VERTEX
  5
267
  8
0
  6
CONTINUOUS
 62
     7
 10
45.0
 20
-21.499999999999972
 30
0.0
  0
VERTEX
  5
268
  8
0
  6
CONTINUOUS
 62
     7
 10
44.999999999999993
 20
-16.0
 30
0.0
  0
VERTEX
  5
269
  8
0
  6
CONTINUOUS
 62
     7
 10
44.0
 20
-16.0
 30
0.0
 42
-1.000000000000028
  0
VERTEX
  5
26A
  8
0
  6
CONTINUOUS
 62
     7
 10
43.999999999999979
 20
-15.0
 30
0.0
  0
VERTEX
  5
26B
  8
0
  6
CONTINUOUS
 62
     7
 10
44.999999999999993
 20
-15.0
 30
0.0
  0
VERTEX
  5
26C
  8
0
  6
CONTINUOUS
 62
     7
 10
44.999999999999993
 20
-12.836357275838569
 30
0.0
 42
0.3033466836073418
  0
VERTEX
  5
26D
  8
0
  6
CONTINUOUS
 62
     7
 10
43.765366864730161
 20
-10.988598210816001
 30
0.0
  0
VERTEX
  5
26E
  8
0
  6
CONTINUOUS
 62
     7
 10
38.93853254107951
 20
-8.9892579706319147
 30
0.0
 42
-0.3033466836073422
  0
VERTEX
  5
26F
  8
0
  6
CONTINUOUS
 62
     7
 10
33.999999999999993
 20
-1.5982217105415351
 30
0.0
  0
VERTEX
  5
270
  8
0
  6
CONTINUOUS
 62
     7
 10
33.999999999999993
 20
1.5982217105415559
 30
0.0
 42
-0.3033466836073402
  0
VERTEX
  5
271
  8
0
  6
CONTINUOUS
 62
     7
 10
38.93853254107929
 20
8.9892579706318632
 30
0.0
  0
VERTEX
  5
272
  8
0
  6
CONTINUOUS
 62
     7
 10
43.765366864730261
 20
10.98859821081607
 30
0.0
 42
0.3033466836073328
  0
VERTEX
  5
273
  8
0
  6
CONTINUOUS
 62
     7
 10
45.0
 20
12.836357275838621
 30
0.0
  0
VERTEX
  5
274
  8
0
  6
CONTINUOUS
 62
     7
 10
44.999999999999979
 20
15.00000000000002
 30
0.0
  0
VERTEX
  5
275
  8
0
  6
CONTINUOUS
 62
     7
 10
43.999999999999993
 20
15.000000000000011
 30
0.0
 42
-0.9999999999999145
  0
VERTEX
  5
276
  8
0
  6
CONTINUOUS
 62
     7
 10
43.999999999999972
 20
16.000000000000028
 30
0.0
  0
VERTEX
  5
277
  8
0
  6
CONTINUOUS
 62
     7
 10
44.999999999999979
 20
16.000000000000028
 30
0.0
  0
VERTEX
  5
278
  8
0
  6
CONTINUOUS
 62
     7
 10
45.0
 20
21.5
 30
0.0
 42
0.414213562373093
  0
VERTEX
  5
279
  8
0
  6
CONTINUOUS
 62
     7
 10
43.0
 20
23.500000000000011
 30
0.0
  0
VERTEX
  5
27A
  8
0
  6
CONTINUOUS
 62
     7
 10
-43.0
 20
23.5
 30
0.0
 42
0.4142135623730951
  0
VERTEX
  5
27B
  8
0
  6
CONTINUOUS
 62
     7
 10
-45.0
 20
21.5
 30
0.0
  0
SEQEND
  5
27C
  8
0
  6
CONTINUOUS
 62
     7
  0
POLYLINE
  5
15F
  8
0
  6
CONTINUOUS
 62
     7
 66
     1
 10
0.0
 20
0.0
 30
0.0
  0
VERTEX
  5
27D
  8
0
  6
CONTINUOUS
 62
     7
 10
-14.500000000000011
 20
-1.999999999999998
 30
0.0
 42
0.4142135623731053
  0
VERTEX
  5
27E
  8
0
  6
CONTINUOUS
 62
     7
 10
-14.000000000000011
 20
-2.4999999999999978
 30
0.0
  0
VERTEX
  5
27F
  8
0
  6
CONTINUOUS
 62
     7
 10
-11.9921849552114
 20
-2.5000000000003282
 30
0.0
 42
0.8130294884889133
  0
VERTEX
  5
280
  8
0
  6
CONTINUOUS
 62
     7
 10
11.992184955211449
 20
-2.4999999999999911
 30
0.0
  0
VERTEX
  5
281
  8
0
  6
CONTINUOUS
 62
     7
 10
14.000000000000011
 20
-2.499999999999992
 30
0.0
 42
0.4142135623731
  0
VERTEX
  5
282
  8
0
  6
CONTINUOUS
 62
     7
 10
14.499999999999989
 20
-1.999999999999998
 30
0.0
  0
VERTEX
  5
283
  8
0
  6
CONTINUOUS
 62
     7
 10
14.499999999999989
 20
2.0000000000000151
 30
0.0
 42
0.4142135623730818
  0
VERTEX
  5
284
  8
0
  6
CONTINUOUS
 62
     7
 10
13.999999999999989
 20
2.500000000000008
 30
0.0
  0
VERTEX
  5
285
  8
0
  6
CONTINUOUS
 62
     7
 10
11.992184955211449
 20
2.5000000000000071
 30
0.0
 42
0.8130294884889108
  0
VERTEX
  5
286
  8
0
  6
CONTINUOUS
 62
     7
 10
-11.99218495521146
 20
2.5000000000000049
 30
0.0
  0
VERTEX
  5
287
  8
0
  6
CONTINUOUS
 62
     7
 10
-14.000000000000011
 20
2.500000000000008
 30
0.0
 42
0.4142135623730951
  0
VERTEX
  5
288
  8
0
  6
CONTINUOUS
 62
     7
 10
-14.500000000000011
 20
2.000000000000008
 30
0.0
  0
SEQEND
  5
289
  8
0
  6
CONTINUOUS
 62
     7
  0
INSERT
  5
177
  8
0
  2
FRONT_VIEW
 10
0.0
 20
0.0
 30
0.0
  0
INSERT
  5
1A9
  8
0
  2
BACK_VIEW
 10
0.0
 20
0.0
 30
0.0
  0
ENDSEC
  0
EOF
