  0
SECTION
  2
HEADER
  9
$ACADVER
  1
AC1009
  9
$INSBASE
 10
0.0
 20
0.0
 30
0.0
  9
$EXTMIN
 10
-45.0
 20
-23.853148962537102
 30
0.0
  9
$EXTMAX
 10
123.52967122757779
 20
42.79025774308019
 30
0.0
  9
$LIMMIN
 10
0.0
 20
0.0
  9
$LIMMAX
 10
420.0
 20
297.0
  9
$ORTHOMODE
 70
     0
  9
$REGENMODE
 70
     1
  9
$FILLMODE
 70
     1
  9
$QTEXTMODE
 70
     0
  9
$MIRRTEXT
 70
     1
  9
$DRAGMODE
 70
     2
  9
$LTSCALE
 40
1.0
  9
$OSMODE
 70
  3071
  9
$ATTMODE
 70
     1
  9
$TEXTSIZE
 40
3.5
  9
$TRACEWID
 40
1.0
  9
$TEXTSTYLE
  7
STANDARD
  9
$CLAYER
  8
0
  9
$CELTYPE
  6
BYLAYER
  9
$CECOLOR
 62
   256
  9
$DIMSCALE
 40
1.0
  9
$DIMASZ
 40
3.3019999999999992
  9
$DIMEXO
 40
1.0
  9
$DIMDLI
 40
3.75
  9
$DIMRND
 40
0.0
  9
$DIMDLE
 40
0.0
  9
$DIMEXE
 40
1.0
  9
$DIMTP
 40
0.0
  9
$DIMTM
 40
0.0
  9
$DIMTXT
 40
3.5
  9
$DIMCEN
 40
2.5
  9
$DIMTSZ
 40
0.0
  9
$DIMTOL
 70
     0
  9
$DIMLIM
 70
     0
  9
$DIMTIH
 70
     1
  9
$DIMTOH
 70
     1
  9
$DIMSE1
 70
     0
  9
$DIMSE2
 70
     0
  9
$DIMTAD
 70
     1
  9
$DIMZIN
 70
     0
  9
$DIMBLK
  1

  9
$DIMASO
 70
     1
  9
$DIMSHO
 70
     1
  9
$DIMPOST
  1

  9
$DIMAPOST
  1

  9
$DIMALT
 70
     0
  9
$DIMALTD
 70
     3
  9
$DIMALTF
 40
0.0393700787401575
  9
$DIMLFAC
 40
1.0
  9
$DIMTOFL
 70
     1
  9
$DIMTVP
 40
0.0
  9
$DIMTIX
 70
     0
  9
$DIMSOXD
 70
     0
  9
$DIMSAH
 70
     0
  9
$DIMBLK1
  1

  9
$DIMBLK2
  1

  9
$DIMSTYLE
  2
ISO-25
  9
$DIMCLRD
 70
     0
  9
$DIMCLRE
 70
     0
  9
$DIMCLRT
 70
     0
  9
$DIMTFAC
 40
1.0
  9
$DIMGAP
 40
1.524
  9
$LUNITS
 70
     2
  9
$LUPREC
 70
     2
  9
$SKETCHINC
 40
1.0
  9
$FILLETRAD
 40
10.0
  9
$AUNITS
 70
     0
  9
$AUPREC
 70
     2
  9
$MENU
  1
.
  9
$ELEVATION
 40
0.0
  9
$PELEVATION
 40
0.0
  9
$THICKNESS
 40
0.0
  9
$LIMCHECK
 70
     0
  9
$BLIPMODE
 70
     0
  9
$CHAMFERA
 40
0.0
  9
$CHAMFERB
 40
0.0
  9
$SKPOLY
 70
     0
  9
$TDCREATE
 40
2458410.4142692829
  9
$TDUPDATE
 40
2458410.4808372911
  9
$TDINDWG
 40
0.0652768287
  9
$TDUSRTIMER
 40
0.0652768287
  9
$USRTIMER
 70
     1
  9
$ANGBASE
 50
0.0
  9
$ANGDIR
 70
     0
  9
$PDMODE
 70
     0
  9
$PDSIZE
 40
-1.0
  9
$PLINEWID
 40
0.0
  9
$COORDS
 70
     1
  9
$SPLFRAME
 70
     0
  9
$SPLINETYPE
 70
     6
  9
$SPLINESEGS
 70
     8
  9
$ATTDIA
 70
     1
  9
$ATTREQ
 70
     1
  9
$HANDLING
 70
     1
  9
$HANDSEED
  5
38E
  9
$SURFTAB1
 70
     6
  9
$SURFTAB2
 70
     6
  9
$SURFTYPE
 70
     6
  9
$SURFU
 70
     6
  9
$SURFV
 70
     6
  9
$UCSNAME
  2

  9
$UCSORG
 10
0.0
 20
0.0
 30
0.0
  9
$UCSXDIR
 10
1.0
 20
0.0
 30
0.0
  9
$UCSYDIR
 10
0.0
 20
1.0
 30
0.0
  9
$PUCSNAME
  2

  9
$PUCSORG
 10
0.0
 20
0.0
 30
0.0
  9
$PUCSXDIR
 10
1.0
 20
0.0
 30
0.0
  9
$PUCSYDIR
 10
0.0
 20
1.0
 30
0.0
  9
$USERI1
 70
     0
  9
$USERI2
 70
     0
  9
$USERI3
 70
     0
  9
$USERI4
 70
     0
  9
$USERI5
 70
     0
  9
$USERR1
 40
0.0
  9
$USERR2
 40
0.0
  9
$USERR3
 40
0.0
  9
$USERR4
 40
0.0
  9
$USERR5
 40
0.0
  9
$WORLDVIEW
 70
     1
  9
$SHADEDGE
 70
     3
  9
$SHADEDIF
 70
    70
  9
$TILEMODE
 70
     1
  9
$MAXACTVP
 70
    64
  9
$PLIMCHECK
 70
     0
  9
$PEXTMIN
 10
1.0000000000000000E+020
 20
1.0000000000000000E+020
 30
1.0000000000000000E+020
  9
$PEXTMAX
 10
-1.0000000000000000E+020
 20
-1.0000000000000000E+020
 30
-1.0000000000000000E+020
  9
$PLIMMIN
 10
0.0
 20
0.0
  9
$PLIMMAX
 10
420.0
 20
297.0
  9
$UNITMODE
 70
     0
  9
$VISRETAIN
 70
     1
  9
$PLINEGEN
 70
     0
  9
$PSLTSCALE
 70
     1
  0
ENDSEC
  0
SECTION
  2
TABLES
  0
TABLE
  2
VPORT
 70
     1
  0
VPORT
  2
*ACTIVE
 70
     0
 10
0.0
 20
0.0
 11
1.0
 21
1.0
 12
48.28005632092092
 22
-17.05588706181328
 13
0.0
 23
0.0
 14
10.0
 24
10.0
 15
10.0
 25
10.0
 16
0.0
 26
0.0
 36
1.0
 17
0.0
 27
0.0
 37
0.0
 40
235.68983807440699
 41
2.153519932145886
 42
50.0
 43
0.0
 44
0.0
 50
0.0
 51
0.0
 71
     0
 72
   100
 73
     1
 74
     3
 75
     0
 76
     0
 77
     0
 78
     0
  0
ENDTAB
  0
TABLE
  2
LTYPE
 70
     7
  0
LTYPE
  2
CONTINUOUS
 70
     0
  3
Solid line
 72
    65
 73
     0
 40
0.0
  0
LTYPE
  2
HIDDEN
 70
     0
  3
Hidden __ __ __ __ __ __ __ __ __ __ __ __ __ __
 72
    65
 73
     2
 40
1.905
 49
1.27
 49
-0.635
  0
LTYPE
  2
PHANTOM
 70
     0
  3
Phantom ______  __  __  ______  __  __  ______
 72
    65
 73
     6
 40
12.699999999999999
 49
6.3499999999999988
 49
-1.27
 49
1.27
 49
-1.27
 49
1.27
 49
-1.27
  0
LTYPE
  2
CENTER
 70
     0
  3
Center ____ _ ____ _ ____ _ ____ _ ____ _ ____
 72
    65
 73
     4
 40
10.16
 49
6.3499999999999988
 49
-1.27
 49
1.27
 49
-1.27
  0
LTYPE
  2
CENTERX2
 70
     0
  3
Center (2x) ________  __  ________  __  _____
 72
    65
 73
     4
 40
20.32
 49
12.699999999999999
 49
-2.54
 49
2.54
 49
-2.54
  0
LTYPE
  2
DOT2
 70
     0
  3
Dot (.5x) ........................................
 72
    65
 73
     2
 40
0.635
 49
0.0
 49
-0.635
  0
ENDTAB
  0
TABLE
  2
LAYER
 70
     1
  0
LAYER
  2
0
 70
     0
 62
     7
  6
CONTINUOUS
  0
ENDTAB
  0
TABLE
  2
STYLE
 70
     1
  0
STYLE
  2
STANDARD
 70
     0
 40
0.0
 41
1.0
 50
0.0
 71
     0
 42
3.5
  3
txt
  4

  0
ENDTAB
  0
TABLE
  2
VIEW
 70
     3
  0
ENDTAB
  0
TABLE
  2
UCS
 70
     0
  0
ENDTAB
  0
TABLE
  2
APPID
 70
     8
  0
APPID
  2
ACAD
 70
     0
  0
APPID
  2
ACAD_NAV_VCDISPLAY
 70
     0
  0
APPID
  2
ACAUTHENVIRON
 70
     0
  0
APPID
  2
ACDBDYNAMICBLOCKTRUENAME
 70
     0
  0
APPID
  2
ACDBDYNAMICBLOCKGUID
 70
     0
  0
APPID
  2
ACAD_EXEMPT_FROM_CAD_STANDARDS
 70
     0
  0
APPID
  2
ACAD_MLEADERVER
 70
     0
  0
APPID
  2
CONTENTBLOCKICON
 70
     0
  0
ENDTAB
  0
TABLE
  2
DIMSTYLE
 70
     1
  0
DIMSTYLE
  2
ISO-25
 70
     0
  3

  4

  5

  6

  7

 40
1.0
 41
2.5
 42
0.625
 43
3.75
 44
1.25
 45
0.0
 46
0.0
 47
0.0
 48
0.0
140
2.5
141
2.5
142
0.0
143
0.03937007874016
144
1.0
145
0.0
146
1.0
147
0.625
 71
     0
 72
     0
 73
     0
 74
     0
 75
     0
 76
     0
 77
     1
 78
     8
170
     0
171
     3
172
     1
173
     0
174
     0
175
     0
176
     0
177
     0
178
     0
  0
ENDTAB
  0
ENDSEC
  0
SECTION
  2
BLOCKS
  0
BLOCK
  8
0
  2
$MODEL_SPACE
 70
     0
 10
0.0
 20
0.0
 30
0.0
  3
$MODEL_SPACE
  1

  0
ENDBLK
  5
21
  8
0
  0
BLOCK
 67
     1
  8
0
  2
$PAPER_SPACE
 70
     0
 10
0.0
 20
0.0
 30
0.0
  3
$PAPER_SPACE
  1

  0
ENDBLK
  5
1D
 67
     1
  8
0
  0
BLOCK
  8
0
  2
BACK_VIEW
 70
     0
 10
0.0
 20
0.0
 30
0.0
  3
BACK_VIEW
  1

  0
ARC
  5
215
  8
0
  6
CONTINUOUS
 62
     1
 10
-7.5000000000000071
 20
12.5
 30
0.0
 40
3.3500000000000001
 50
180.0
 51
0.0
  0
ARC
  5
216
  8
0
  6
CONTINUOUS
 62
     1
 10
-7.5000000000000071
 20
12.5
 30
0.0
 40
4.1500000000000012
 50
180.0
 51
0.0
  0
ARC
  5
217
  8
0
  6
CONTINUOUS
 62
     1
 10
-0.0000000000000069
 20
12.5
 30
0.0
 40
3.3499999999999979
 50
180.0
 51
0.0
  0
ARC
  5
218
  8
0
  6
CONTINUOUS
 62
     1
 10
7.499999999999992
 20
12.5
 30
0.0
 40
4.1500000000000012
 50
180.0
 51
0.0
  0
ARC
  5
219
  8
0
  6
CONTINUOUS
 62
     1
 10
7.499999999999992
 20
12.5
 30
0.0
 40
3.3500000000000001
 50
180.0
 51
0.0
  0
ARC
  5
21A
  8
0
  6
CONTINUOUS
 62
     1
 10
-0.0000000000000069
 20
12.5
 30
0.0
 40
4.1499999999999986
 50
180.0
 51
0.0
  0
LINE
  5
21B
  8
0
  6
CONTINUOUS
 62
     1
 10
-21.899999999999999
 20
-20.100000000000009
 30
0.0
 11
-21.900000000000009
 21
-2.1000000000000112
 31
0.0
  0
LINE
  5
21C
  8
0
  6
CONTINUOUS
 62
     1
 10
-21.900000000000009
 20
-2.1000000000000112
 30
0.0
 11
-11.500000000000011
 21
-2.1000000000000081
 31
0.0
  0
LINE
  5
21D
  8
0
  6
CONTINUOUS
 62
     1
 10
-11.500000000000011
 20
-2.1000000000000081
 30
0.0
 11
-11.5
 21
-20.100000000000001
 31
0.0
  0
LINE
  5
21E
  8
0
  6
CONTINUOUS
 62
     1
 10
-11.5
 20
-20.100000000000001
 30
0.0
 11
-21.899999999999999
 21
-20.100000000000009
 31
0.0
  0
LINE
  5
21F
  8
0
  6
CONTINUOUS
 62
     1
 10
-8.5000000000000053
 20
-20.099999999999991
 30
0.0
 11
-8.5000000000000089
 21
-0.5999999999999981
 31
0.0
  0
LINE
  5
220
  8
0
  6
CONTINUOUS
 62
     1
 10
-8.5000000000000089
 20
-0.5999999999999981
 30
0.0
 11
10.499999999999989
 21
-0.5999999999999947
 31
0.0
  0
LINE
  5
221
  8
0
  6
CONTINUOUS
 62
     1
 10
10.499999999999989
 20
-0.5999999999999947
 30
0.0
 11
10.499999999999989
 21
4.7000000000000064
 31
0.0
  0
LINE
  5
222
  8
0
  6
CONTINUOUS
 62
     1
 10
10.499999999999989
 20
4.7000000000000064
 30
0.0
 11
23.199999999999989
 21
4.7000000000000082
 31
0.0
  0
LINE
  5
223
  8
0
  6
CONTINUOUS
 62
     1
 10
23.199999999999989
 20
4.7000000000000082
 30
0.0
 11
23.199999999999989
 21
-22.699999999999989
 31
0.0
  0
LINE
  5
224
  8
0
  6
CONTINUOUS
 62
     1
 10
23.199999999999989
 20
-22.699999999999989
 30
0.0
 11
5.5999999999999899
 21
-22.699999999999989
 31
0.0
  0
LINE
  5
225
  8
0
  6
CONTINUOUS
 62
     1
 10
5.5999999999999899
 20
-22.699999999999989
 30
0.0
 11
5.5999999999999899
 21
-20.099999999999991
 31
0.0
  0
LINE
  5
226
  8
0
  6
CONTINUOUS
 62
     1
 10
5.5999999999999899
 20
-20.099999999999991
 30
0.0
 11
-8.5000000000000053
 21
-20.099999999999991
 31
0.0
  0
LINE
  5
227
  8
0
  6
CONTINUOUS
 62
     1
 10
-29.500000000000011
 20
-20.499771507934149
 30
0.0
 11
-28.500000000000011
 21
-20.499771507934149
 31
0.0
  0
LINE
  5
228
  8
0
  6
CONTINUOUS
 62
     1
 10
-28.500000000000011
 20
-20.499771507934149
 30
0.0
 11
-28.500000000000011
 21
-21.999771507934149
 31
0.0
  0
LINE
  5
229
  8
0
  6
CONTINUOUS
 62
     1
 10
-28.500000000000011
 20
-21.999771507934149
 30
0.0
 11
-29.500000000000011
 21
-21.999771507934149
 31
0.0
  0
LINE
  5
22A
  8
0
  6
CONTINUOUS
 62
     1
 10
-29.500000000000011
 20
-21.999771507934149
 30
0.0
 11
-29.500000000000011
 21
-20.499771507934149
 31
0.0
  0
LINE
  5
22B
  8
0
  6
CONTINUOUS
 62
     1
 10
-3.350000000000005
 20
24.299771507934139
 30
0.0
 11
-3.350000000000005
 21
12.5
 31
0.0
  0
LINE
  5
22C
  8
0
  6
CONTINUOUS
 62
     1
 10
-4.1500000000000066
 20
24.299771507934139
 30
0.0
 11
-3.350000000000005
 21
24.299771507934139
 31
0.0
  0
LINE
  5
22D
  8
0
  6
CONTINUOUS
 62
     1
 10
-4.1500000000000057
 20
12.5
 30
0.0
 11
-4.1500000000000066
 21
24.299771507934139
 31
0.0
  0
LINE
  5
22E
  8
0
  6
CONTINUOUS
 62
     1
 10
-10.85
 20
24.299771507934139
 30
0.0
 11
-10.85
 21
12.5
 31
0.0
  0
LINE
  5
22F
  8
0
  6
CONTINUOUS
 62
     1
 10
-11.65
 20
24.299771507934139
 30
0.0
 11
-10.85
 21
24.299771507934139
 31
0.0
  0
LINE
  5
230
  8
0
  6
CONTINUOUS
 62
     1
 10
-11.65
 20
12.5
 30
0.0
 11
-11.65
 21
24.299771507934139
 31
0.0
  0
LINE
  5
231
  8
0
  6
CONTINUOUS
 62
     1
 10
-28.499999999999989
 20
21.99977150793416
 30
0.0
 11
-28.499999999999989
 21
20.49977150793417
 31
0.0
  0
LINE
  5
232
  8
0
  6
CONTINUOUS
 62
     1
 10
-29.499999999999989
 20
21.99977150793416
 30
0.0
 11
-28.499999999999989
 21
21.99977150793416
 31
0.0
  0
LINE
  5
233
  8
0
  6
CONTINUOUS
 62
     1
 10
-29.499999999999989
 20
20.49977150793417
 30
0.0
 11
-29.499999999999989
 21
21.99977150793416
 31
0.0
  0
LINE
  5
234
  8
0
  6
CONTINUOUS
 62
     1
 10
-28.499999999999989
 20
20.49977150793417
 30
0.0
 11
-29.499999999999989
 21
20.49977150793417
 31
0.0
  0
LINE
  5
235
  8
0
  6
CONTINUOUS
 62
     1
 10
28.499999999999989
 20
-21.999771507934149
 30
0.0
 11
28.499999999999989
 21
-20.499771507934149
 31
0.0
  0
LINE
  5
236
  8
0
  6
CONTINUOUS
 62
     1
 10
29.499999999999989
 20
-21.999771507934149
 30
0.0
 11
28.499999999999989
 21
-21.999771507934149
 31
0.0
  0
LINE
  5
237
  8
0
  6
CONTINUOUS
 62
     1
 10
29.499999999999989
 20
-20.499771507934149
 30
0.0
 11
29.499999999999989
 21
-21.999771507934149
 31
0.0
  0
LINE
  5
238
  8
0
  6
CONTINUOUS
 62
     1
 10
28.499999999999989
 20
-20.499771507934149
 30
0.0
 11
29.499999999999989
 21
-20.499771507934149
 31
0.0
  0
LINE
  5
239
  8
0
  6
CONTINUOUS
 62
     1
 10
29.499999999999979
 20
20.49977150793417
 30
0.0
 11
28.499999999999979
 21
20.49977150793417
 31
0.0
  0
LINE
  5
23A
  8
0
  6
CONTINUOUS
 62
     1
 10
29.499999999999979
 20
21.99977150793416
 30
0.0
 11
29.499999999999979
 21
20.49977150793417
 31
0.0
  0
LINE
  5
23B
  8
0
  6
CONTINUOUS
 62
     1
 10
28.499999999999979
 20
21.99977150793416
 30
0.0
 11
29.499999999999979
 21
21.99977150793416
 31
0.0
  0
LINE
  5
23C
  8
0
  6
CONTINUOUS
 62
     1
 10
28.499999999999979
 20
20.49977150793417
 30
0.0
 11
28.499999999999979
 21
21.99977150793416
 31
0.0
  0
LINE
  5
23D
  8
0
  6
CONTINUOUS
 62
     1
 10
3.3499999999999912
 20
24.299771507934139
 30
0.0
 11
4.1499999999999941
 21
24.299771507934139
 31
0.0
  0
LINE
  5
23E
  8
0
  6
CONTINUOUS
 62
     1
 10
4.1499999999999924
 20
12.5
 30
0.0
 11
4.1499999999999941
 21
24.299771507934139
 31
0.0
  0
LINE
  5
23F
  8
0
  6
CONTINUOUS
 62
     1
 10
4.1499999999999924
 20
12.5
 30
0.0
 11
4.1499999999999941
 21
24.299771507934139
 31
0.0
  0
LINE
  5
240
  8
0
  6
CONTINUOUS
 62
     1
 10
3.3499999999999912
 20
12.5
 30
0.0
 11
3.3499999999999912
 21
24.299771507934139
 31
0.0
  0
LINE
  5
241
  8
0
  6
CONTINUOUS
 62
     1
 10
3.3499999999999912
 20
12.5
 30
0.0
 11
3.3499999999999912
 21
24.299771507934139
 31
0.0
  0
LINE
  5
242
  8
0
  6
CONTINUOUS
 62
     1
 10
11.64999999999999
 20
12.5
 30
0.0
 11
11.64999999999999
 21
24.299771507934139
 31
0.0
  0
LINE
  5
243
  8
0
  6
CONTINUOUS
 62
     1
 10
11.64999999999999
 20
24.299771507934139
 30
0.0
 11
10.849999999999991
 21
24.299771507934139
 31
0.0
  0
LINE
  5
244
  8
0
  6
CONTINUOUS
 62
     1
 10
10.849999999999991
 20
12.5
 30
0.0
 11
10.849999999999991
 21
24.299771507934139
 31
0.0
  0
LINE
  5
245
  8
0
  6
CONTINUOUS
 62
     1
 10
0.4999999999999936
 20
-22.499771507934121
 30
0.0
 11
0.4999999999999936
 21
-23.825220858651949
 31
0.0
  0
LINE
  5
246
  8
0
  6
CONTINUOUS
 62
     1
 10
-0.5000000000000073
 20
-22.499771507934121
 30
0.0
 11
0.4999999999999936
 21
-22.499771507934121
 31
0.0
  0
LINE
  5
247
  8
0
  6
CONTINUOUS
 62
     1
 10
-0.5000000000000073
 20
-23.825220858651949
 30
0.0
 11
-0.5000000000000073
 21
-22.499771507934121
 31
0.0
  0
LINE
  5
248
  8
0
  6
CONTINUOUS
 62
     1
 10
0.4999999999999936
 20
-23.825220858651949
 30
0.0
 11
-0.5000000000000073
 21
-23.825220858651949
 31
0.0
  0
ENDBLK
  5
19E
  8
0
  0
BLOCK
  8
0
  2
FRONT_VIEW
 70
     0
 10
0.0
 20
0.0
 30
0.0
  3
FRONT_VIEW
  1

  0
LINE
  5
1F3
  8
0
  6
CONTINUOUS
 62
     3
 10
-42.350000000000009
 20
16.999999999999599
 30
0.0
 11
-31.650000000000009
 21
16.999999999999599
 31
0.0
  0
LINE
  5
1F4
  8
0
  6
CONTINUOUS
 62
     3
 10
-31.650000000000009
 20
16.999999999999599
 30
0.0
 11
-31.650000000000009
 21
22.000000000000409
 31
0.0
  0
LINE
  5
1F5
  8
0
  6
CONTINUOUS
 62
     3
 10
-31.650000000000009
 20
22.000000000000409
 30
0.0
 11
-42.350000000000009
 21
22.000000000000409
 31
0.0
  0
LINE
  5
1F6
  8
0
  6
CONTINUOUS
 62
     3
 10
-42.350000000000009
 20
22.000000000000409
 30
0.0
 11
-42.350000000000009
 21
16.999999999999599
 31
0.0
  0
LINE
  5
1F7
  8
0
  6
CONTINUOUS
 62
     3
 10
37.499999999999581
 20
-11.64999999999999
 30
0.0
 11
37.499999999999581
 21
-22.349999999999991
 31
0.0
  0
LINE
  5
1F8
  8
0
  6
CONTINUOUS
 62
     3
 10
37.499999999999581
 20
-22.349999999999991
 30
0.0
 11
42.500000000000398
 21
-22.349999999999991
 31
0.0
  0
LINE
  5
1F9
  8
0
  6
CONTINUOUS
 62
     3
 10
42.500000000000398
 20
-22.349999999999991
 30
0.0
 11
42.500000000000398
 21
-11.64999999999999
 31
0.0
  0
LINE
  5
1FA
  8
0
  6
CONTINUOUS
 62
     3
 10
42.500000000000398
 20
-11.64999999999999
 30
0.0
 11
37.499999999999581
 21
-11.64999999999999
 31
0.0
  0
LINE
  5
1FB
  8
0
  6
CONTINUOUS
 62
     3
 10
-34.0
 20
-22.886313585900719
 30
0.0
 11
-38.0
 21
-22.886313585900719
 31
0.0
  0
LINE
  5
1FC
  8
0
  6
CONTINUOUS
 62
     3
 10
-34.000000000000007
 20
-23.853148962537102
 30
0.0
 11
-34.0
 21
-22.886313585900719
 31
0.0
  0
LINE
  5
1FD
  8
0
  6
CONTINUOUS
 62
     3
 10
-38.0
 20
-23.853148962537102
 30
0.0
 11
-34.000000000000007
 21
-23.853148962537102
 31
0.0
  0
LINE
  5
1FE
  8
0
  6
CONTINUOUS
 62
     3
 10
-38.0
 20
-22.886313585900719
 30
0.0
 11
-38.0
 21
-23.853148962537102
 31
0.0
  0
LINE
  5
1FF
  8
0
  6
CONTINUOUS
 62
     3
 10
-38.0
 20
23.853148962537119
 30
0.0
 11
-38.0
 21
22.886313585900741
 31
0.0
  0
LINE
  5
200
  8
0
  6
CONTINUOUS
 62
     3
 10
-38.0
 20
22.886313585900741
 30
0.0
 11
-34.0
 21
22.886313585900741
 31
0.0
  0
LINE
  5
201
  8
0
  6
CONTINUOUS
 62
     3
 10
-34.0
 20
22.886313585900741
 30
0.0
 11
-34.000000000000007
 21
23.853148962537119
 31
0.0
  0
LINE
  5
202
  8
0
  6
CONTINUOUS
 62
     3
 10
-34.000000000000007
 20
23.853148962537119
 30
0.0
 11
-38.0
 21
23.853148962537119
 31
0.0
  0
LINE
  5
203
  8
0
  6
CONTINUOUS
 62
     3
 10
33.999999999999993
 20
22.886313585900741
 30
0.0
 11
37.999999999999993
 21
22.886313585900741
 31
0.0
  0
LINE
  5
204
  8
0
  6
CONTINUOUS
 62
     3
 10
33.999999999999993
 20
23.853148962537119
 30
0.0
 11
33.999999999999993
 21
22.886313585900741
 31
0.0
  0
LINE
  5
205
  8
0
  6
CONTINUOUS
 62
     3
 10
37.999999999999993
 20
23.853148962537119
 30
0.0
 11
33.999999999999993
 21
23.853148962537119
 31
0.0
  0
LINE
  5
206
  8
0
  6
CONTINUOUS
 62
     3
 10
37.999999999999993
 20
22.886313585900741
 30
0.0
 11
37.999999999999993
 21
23.853148962537119
 31
0.0
  0
LINE
  5
207
  8
0
  6
CONTINUOUS
 62
     3
 10
37.999999999999993
 20
-23.853148962537102
 30
0.0
 11
37.999999999999993
 21
-22.886313585900719
 31
0.0
  0
LINE
  5
208
  8
0
  6
CONTINUOUS
 62
     3
 10
37.999999999999993
 20
-22.886313585900719
 30
0.0
 11
33.999999999999993
 21
-22.886313585900719
 31
0.0
  0
LINE
  5
209
  8
0
  6
CONTINUOUS
 62
     3
 10
33.999999999999993
 20
-22.886313585900719
 30
0.0
 11
33.999999999999993
 21
-23.853148962537102
 31
0.0
  0
LINE
  5
20A
  8
0
  6
CONTINUOUS
 62
     3
 10
33.999999999999993
 20
-23.853148962537102
 30
0.0
 11
37.999999999999993
 21
-23.853148962537102
 31
0.0
  0
ENDBLK
  5
1D6
  8
0
  0
BLOCK
  8
0
  2
*U5
 70
     1
 10
0.0
 20
0.0
 30
0.0
  3
*U5
  1

  0
TEXT
  5
38A
  8
0
 62
     3
 10
-28.929911580059819
 20
38.363927593011979
 30
0.0
 40
3.5
  1
- Màu xanh lá: Front View
  0
TEXT
  5
38B
  8
0
 62
     1
 10
-28.929911580059819
 20
32.332436005926937
 30
0.0
 40
3.5
  1
- Màu \U+0111\U+1ECF: Back View
  0
ENDBLK
  5
38D
  8
0
  0
ENDSEC
  0
SECTION
  2
ENTITIES
  0
CIRCLE
  5
CB
  8
0
  6
CONTINUOUS
 62
     7
 10
-40.810000000000009
 20
20.77
 30
0.0
 40
0.3999999999999986
  0
CIRCLE
  5
CC
  8
0
  6
CONTINUOUS
 62
     7
 10
-35.72999999999999
 20
18.230000000000011
 30
0.0
 40
0.3999999999999915
  0
CIRCLE
  5
CD
  8
0
  6
CONTINUOUS
 62
     7
 10
-38.27000000000001
 20
18.230000000000011
 30
0.0
 40
0.4000000000000057
  0
CIRCLE
  5
CE
  8
0
  6
CONTINUOUS
 62
     7
 10
-40.810000000000009
 20
18.23
 30
0.0
 40
0.3999999999999986
  0
CIRCLE
  5
CF
  8
0
  6
CONTINUOUS
 62
     7
 10
-33.190000000000012
 20
18.230000000000022
 30
0.0
 40
0.4000000000000057
  0
CIRCLE
  5
D0
  8
0
  6
CONTINUOUS
 62
     7
 10
-33.190000000000012
 20
20.770000000000021
 30
0.0
 40
0.4000000000000057
  0
CIRCLE
  5
D1
  8
0
  6
CONTINUOUS
 62
     7
 10
-35.729999999999997
 20
20.77000000000001
 30
0.0
 40
0.3999999999999986
  0
CIRCLE
  5
D2
  8
0
  6
CONTINUOUS
 62
     7
 10
-38.270000000000003
 20
20.770000000000021
 30
0.0
 40
0.4000000000000057
  0
CIRCLE
  5
D3
  8
0
  6
CONTINUOUS
 62
     7
 10
41.270000000000003
 20
-13.18999999999998
 30
0.0
 40
0.3999999999999915
  0
CIRCLE
  5
D4
  8
0
  6
CONTINUOUS
 62
     7
 10
38.72999999999999
 20
-18.27000000000001
 30
0.0
 40
0.3999999999999986
  0
CIRCLE
  5
D5
  8
0
  6
CONTINUOUS
 62
     7
 10
38.72999999999999
 20
-15.73000000000002
 30
0.0
 40
0.3999999999999986
  0
CIRCLE
  5
D6
  8
0
  6
CONTINUOUS
 62
     7
 10
38.729999999999997
 20
-13.19000000000001
 30
0.0
 40
0.3999999999999915
  0
CIRCLE
  5
D7
  8
0
  6
CONTINUOUS
 62
     7
 10
38.729999999999983
 20
-20.81000000000002
 30
0.0
 40
0.4000000000000057
  0
CIRCLE
  5
D8
  8
0
  6
CONTINUOUS
 62
     7
 10
41.270000000000003
 20
-20.809999999999992
 30
0.0
 40
0.3999999999999915
  0
CIRCLE
  5
D9
  8
0
  6
CONTINUOUS
 62
     7
 10
-16.699999999999999
 20
-5.175000000000006
 30
0.0
 40
0.4499999999999993
  0
CIRCLE
  5
DA
  8
0
  6
CONTINUOUS
 62
     7
 10
-16.70000000000001
 20
-17.025000000000009
 30
0.0
 40
0.4500000000000064
  0
CIRCLE
  5
DB
  8
0
  6
CONTINUOUS
 62
     7
 10
41.270000000000003
 20
-18.269999999999978
 30
0.0
 40
0.3999999999999915
  0
CIRCLE
  5
DC
  8
0
  6
CONTINUOUS
 62
     7
 10
41.270000000000003
 20
-15.729999999999981
 30
0.0
 40
0.3999999999999915
  0
CIRCLE
  5
DD
  8
0
  6
CONTINUOUS
 62
     7
 10
13.29999999999999
 20
-0.5999999999999873
 30
0.0
 40
0.8499999999999996
  0
CIRCLE
  5
DE
  8
0
  6
CONTINUOUS
 62
     7
 10
-1.900000000000005
 20
-14.599999999999991
 30
0.0
 40
0.4000000000000015
  0
CIRCLE
  5
DF
  8
0
  6
CONTINUOUS
 62
     7
 10
10.76
 20
-18.300000000000001
 30
0.0
 40
0.8499999999999978
  0
CIRCLE
  5
E0
  8
0
  6
CONTINUOUS
 62
     7
 10
-1.9000000000000079
 20
-4.3999999999999959
 30
0.0
 40
0.4000000000000004
  0
LINE
  5
10A
  8
0
  6
CONTINUOUS
 62
     7
 10
9.3999999999999932
 20
10.975
 30
0.0
 11
5.5999999999999943
 21
10.975
 31
0.0
  0
LINE
  5
10B
  8
0
  6
CONTINUOUS
 62
     7
 10
1.899999999999993
 20
10.975
 30
0.0
 11
-1.900000000000007
 21
10.975
 31
0.0
  0
LINE
  5
10C
  8
0
  6
CONTINUOUS
 62
     7
 10
-5.6000000000000068
 20
10.975
 30
0.0
 11
-9.4000000000000075
 21
10.975
 31
0.0
  0
LINE
  5
10D
  8
0
  6
CONTINUOUS
 62
     7
 10
5.5999999999999943
 20
10.425000000000001
 30
0.0
 11
9.3999999999999932
 21
10.425000000000001
 31
0.0
  0
LINE
  5
10E
  8
0
  6
CONTINUOUS
 62
     7
 10
-1.900000000000007
 20
10.425000000000001
 30
0.0
 11
1.899999999999993
 21
10.425000000000001
 31
0.0
  0
LINE
  5
10F
  8
0
  6
CONTINUOUS
 62
     7
 10
-9.4000000000000075
 20
10.425000000000001
 30
0.0
 11
-5.6000000000000068
 21
10.425000000000001
 31
0.0
  0
ARC
  5
12F
  8
0
  6
CONTINUOUS
 62
     7
 10
5.5999999999999943
 20
10.699999999999999
 30
0.0
 40
0.2749999999999986
 50
90.0
 51
270.00000000000148
  0
ARC
  5
130
  8
0
  6
CONTINUOUS
 62
     7
 10
9.3999999999999915
 20
10.699999999999999
 30
0.0
 40
0.2750000000000003
 50
270.00000000000188
 51
89.999999999999616
  0
ARC
  5
131
  8
0
  6
CONTINUOUS
 62
     7
 10
-1.900000000000007
 20
10.699999999999999
 30
0.0
 40
0.2749999999999986
 50
89.999999999999844
 51
270.00000000000182
  0
ARC
  5
132
  8
0
  6
CONTINUOUS
 62
     7
 10
1.8999999999999919
 20
10.699999999999999
 30
0.0
 40
0.2750000000000003
 50
270.00000000000182
 51
89.999999999999844
  0
ARC
  5
133
  8
0
  6
CONTINUOUS
 62
     7
 10
-9.4000000000000075
 20
10.699999999999999
 30
0.0
 40
0.2749999999999986
 50
90.0
 51
270.00000000000148
  0
ARC
  5
134
  8
0
  6
CONTINUOUS
 62
     7
 10
-5.6000000000000076
 20
10.699999999999999
 30
0.0
 40
0.2750000000000003
 50
270.00000000000171
 51
89.999999999999815
  0
POLYLINE
  5
17C
  8
0
  6
CONTINUOUS
 62
     7
 66
     1
 10
0.0
 20
0.0
 30
0.0
 70
     1
  0
VERTEX
  5
35E
  8
0
  6
CONTINUOUS
 62
     7
 10
-29.500000000000011
 20
22.0
 30
0.0
 42
0.9999999999999998
  0
VERTEX
  5
35F
  8
0
  6
CONTINUOUS
 62
     7
 10
-28.500000000000011
 20
22.0
 30
0.0
  0
VERTEX
  5
360
  8
0
  6
CONTINUOUS
 62
     7
 10
-28.500000000000011
 20
23.5
 30
0.0
  0
VERTEX
  5
361
  8
0
  6
CONTINUOUS
 62
     7
 10
28.5
 20
23.5
 30
0.0
  0
VERTEX
  5
362
  8
0
  6
CONTINUOUS
 62
     7
 10
28.5
 20
22.0
 30
0.0
 42
0.9999999999999998
  0
VERTEX
  5
363
  8
0
  6
CONTINUOUS
 62
     7
 10
29.5
 20
22.0
 30
0.0
  0
VERTEX
  5
364
  8
0
  6
CONTINUOUS
 62
     7
 10
29.5
 20
23.5
 30
0.0
  0
VERTEX
  5
365
  8
0
  6
CONTINUOUS
 62
     7
 10
43.0
 20
23.5
 30
0.0
 42
-0.414213562373093
  0
VERTEX
  5
366
  8
0
  6
CONTINUOUS
 62
     7
 10
45.0
 20
21.5
 30
0.0
  0
VERTEX
  5
367
  8
0
  6
CONTINUOUS
 62
     7
 10
45.0
 20
12.836357275838621
 30
0.0
 42
-0.3033466836073328
  0
VERTEX
  5
368
  8
0
  6
CONTINUOUS
 62
     7
 10
43.765366864730261
 20
10.98859821081607
 30
0.0
  0
VERTEX
  5
369
  8
0
  6
CONTINUOUS
 62
     7
 10
38.93853254107929
 20
8.9892579706318632
 30
0.0
 42
0.3033466836073402
  0
VERTEX
  5
36A
  8
0
  6
CONTINUOUS
 62
     7
 10
33.999999999999993
 20
1.598221710541557
 30
0.0
  0
VERTEX
  5
36B
  8
0
  6
CONTINUOUS
 62
     7
 10
33.999999999999993
 20
-1.598221710541756
 30
0.0
 42
0.3033466836073422
  0
VERTEX
  5
36C
  8
0
  6
CONTINUOUS
 62
     7
 10
38.93853254107951
 20
-8.9892579706319147
 30
0.0
  0
VERTEX
  5
36D
  8
0
  6
CONTINUOUS
 62
     7
 10
43.765366864730161
 20
-10.988598210816001
 30
0.0
 42
-0.3033466836073418
  0
VERTEX
  5
36E
  8
0
  6
CONTINUOUS
 62
     7
 10
44.999999999999979
 20
-12.836357275838569
 30
0.0
  0
VERTEX
  5
36F
  8
0
  6
CONTINUOUS
 62
     7
 10
45.0
 20
-21.499999999999972
 30
0.0
 42
-0.4142135623730894
  0
VERTEX
  5
370
  8
0
  6
CONTINUOUS
 62
     7
 10
43.00000000000005
 20
-23.5
 30
0.0
  0
VERTEX
  5
371
  8
0
  6
CONTINUOUS
 62
     7
 10
29.500000000000011
 20
-23.5
 30
0.0
  0
VERTEX
  5
372
  8
0
  6
CONTINUOUS
 62
     7
 10
29.500000000000011
 20
-21.999999999999979
 30
0.0
 42
0.9999999999999927
  0
VERTEX
  5
373
  8
0
  6
CONTINUOUS
 62
     7
 10
28.5
 20
-21.999999999999979
 30
0.0
  0
VERTEX
  5
374
  8
0
  6
CONTINUOUS
 62
     7
 10
28.5
 20
-23.5
 30
0.0
  0
VERTEX
  5
375
  8
0
  6
CONTINUOUS
 62
     7
 10
-28.500000000000011
 20
-23.5
 30
0.0
  0
VERTEX
  5
376
  8
0
  6
CONTINUOUS
 62
     7
 10
-28.500000000000011
 20
-21.999999999999979
 30
0.0
 42
1.000000000000014
  0
VERTEX
  5
377
  8
0
  6
CONTINUOUS
 62
     7
 10
-29.500000000000011
 20
-21.999999999999979
 30
0.0
  0
VERTEX
  5
378
  8
0
  6
CONTINUOUS
 62
     7
 10
-29.500000000000011
 20
-23.5
 30
0.0
  0
VERTEX
  5
379
  8
0
  6
CONTINUOUS
 62
     7
 10
-43.0
 20
-23.5
 30
0.0
 42
-0.4142135623730935
  0
VERTEX
  5
37A
  8
0
  6
CONTINUOUS
 62
     7
 10
-45.0
 20
-21.50000000000005
 30
0.0
  0
VERTEX
  5
37B
  8
0
  6
CONTINUOUS
 62
     7
 10
-44.999999999999979
 20
-12.83635727583858
 30
0.0
 42
-0.3033466836073436
  0
VERTEX
  5
37C
  8
0
  6
CONTINUOUS
 62
     7
 10
-43.765366864730147
 20
-10.98859821081602
 30
0.0
  0
VERTEX
  5
37D
  8
0
  6
CONTINUOUS
 62
     7
 10
-38.93853254107929
 20
-8.9892579706318436
 30
0.0
 42
0.3033466836073376
  0
VERTEX
  5
37E
  8
0
  6
CONTINUOUS
 62
     7
 10
-34.000000000000007
 20
-1.5982217105414409
 30
0.0
  0
VERTEX
  5
37F
  8
0
  6
CONTINUOUS
 62
     7
 10
-34.000000000000007
 20
1.598221710541561
 30
0.0
 42
0.3033466836073412
  0
VERTEX
  5
380
  8
0
  6
CONTINUOUS
 62
     7
 10
-38.93853254107929
 20
8.9892579706318472
 30
0.0
  0
VERTEX
  5
381
  8
0
  6
CONTINUOUS
 62
     7
 10
-43.765366864730197
 20
10.988598210816029
 30
0.0
 42
-0.3033466836073364
  0
VERTEX
  5
382
  8
0
  6
CONTINUOUS
 62
     7
 10
-45.0
 20
12.836357275838539
 30
0.0
  0
VERTEX
  5
383
  8
0
  6
CONTINUOUS
 62
     7
 10
-45.0
 20
21.5
 30
0.0
 42
-0.4142135623730951
  0
VERTEX
  5
384
  8
0
  6
CONTINUOUS
 62
     7
 10
-43.0
 20
23.500000000000011
 30
0.0
  0
VERTEX
  5
385
  8
0
  6
CONTINUOUS
 62
     7
 10
-29.500000000000011
 20
23.5
 30
0.0
  0
SEQEND
  5
386
  8
0
  6
CONTINUOUS
 62
     7
  0
INSERT
  5
1D3
  8
0
  2
BACK_VIEW
 10
0.0
 20
0.0
 30
0.0
  0
INSERT
  5
1EF
  8
0
 62
     3
  2
FRONT_VIEW
 10
0.0
 20
0.0
 30
0.0
  0
INSERT
  5
251
  8
0
  2
*U5
 10
0.0
 20
0.0
 30
0.0
  0
ENDSEC
  0
EOF
