M48
;Layer_Color=9474304
;FILE_FORMAT=4:4
METRIC,TZ
;TYPE=PLATED
T2F00S00C0.5000
T3F00S00C0.6000
T8F00S00C1.2500
%
G90
G05
T02
G00X402450Y-132597
M15
G01Y-140597
M16
G00X448451Y-132597
M15
G01Y-140597
M16
G00X421451Y-4884
M15
G01X429450
M16
T03
G00X273950Y-347110
M15
G01Y-303110
M16
G00X306453Y-334605
M15
G01X278452
M16
G00X306453Y-249605
M15
G01X278452
M16
G00X311950Y-216610
M15
G01Y-172610
M16
G00X379950Y-278097
M15
G01Y-306097
M16
G00X344942Y-16368
M15
G01X304942
M16
G00X140950Y-7110
M15
G01X152950
M16
G00X83450Y-7110
M15
G01X117450
M16
G00X444942Y-16368
M15
G01X404942
M16
G00X470950Y-278097
M15
G01Y-306097
M16
G00X511451Y-242847
M15
G01X539451
M16
G00X544448Y-249605
M15
G01X572448
M16
G00X544448Y-334605
M15
G01X572448
M16
T08
G00X541692Y-19668
M15
G01X508192
M16
M17
M30
