G04 Layer_Color=16711935*
%FSLAX44Y44*%
%MOMM*%
G71*
G01*
G75*
%ADD85C,0.0130*%
%ADD86C,0.0127*%
D85*
X407950Y-27036D02*
G03*
X402950Y-32036I0J-5000D01*
G01*
X447950D02*
G03*
X442950Y-27036I-5000J0D01*
G01*
X402950Y-68584D02*
G03*
X447950Y-68584I22500J-23452D01*
G01*
X720362Y-347214D02*
G03*
X710362Y-347214I-5000J0D01*
G01*
X855362Y-362214D02*
G03*
X875362Y-342214I0J20000D01*
G01*
Y-258078D02*
G03*
X863016Y-239600I-20000J0D01*
G01*
X765362Y-145696D02*
G03*
X814748Y-219607I80000J0D01*
G01*
Y-34822D02*
G03*
X765362Y-108732I30615J-73910D01*
G01*
X863016Y-14828D02*
G03*
X875362Y3650I-7654J18478D01*
G01*
X-24638D02*
G03*
X-12292Y-14828I20000J0D01*
G01*
X70733Y-62617D02*
G03*
X35977Y-34822I-65371J-46115D01*
G01*
X70733Y-62617D02*
G03*
X84362Y-58294I6129J4323D01*
G01*
X98487Y-33714D02*
G03*
X84362Y-47839I-7408J-6718D01*
G01*
X246362D02*
G03*
X232237Y-33714I-6718J7408D01*
G01*
Y-340714D02*
G03*
X246362Y-326589I7408J6718D01*
G01*
X402950Y-68584D02*
Y-32036D01*
X402950D02*
X402950D01*
X407950Y-27036D02*
Y-27036D01*
Y-27036D02*
X442950D01*
Y-27036D01*
X447950Y-32036D02*
X447950D01*
X447950Y-68584D02*
Y-32036D01*
X554482Y-231252D02*
X580136D01*
X585724Y-236840D01*
Y-277988D02*
Y-236840D01*
Y-277988D02*
X596646D01*
Y-232522D01*
X585724Y-221600D02*
X596646Y-232522D01*
X554482Y-221600D02*
X585724D01*
X554482Y-231252D02*
Y-221600D01*
X446024Y-323454D02*
Y-255382D01*
X480314Y-221092D01*
X518160D01*
Y-231252D02*
Y-221092D01*
X485902Y-231252D02*
X518160D01*
X456946Y-260208D02*
X485902Y-231252D01*
X456946Y-323454D02*
Y-260208D01*
X446024Y-323454D02*
X456946D01*
X483870Y-31100D02*
X494030D01*
Y-6970D01*
X499110Y-1890D01*
X549910D01*
X554990Y-6970D01*
Y-31100D02*
Y-6970D01*
Y-31100D02*
X565150D01*
Y-1890D01*
X554990Y8270D02*
X565150Y-1890D01*
X494030Y8270D02*
X554990D01*
X483870Y-1890D02*
X494030Y8270D01*
X483870Y-31100D02*
Y-1890D01*
X259080Y-238110D02*
X344170D01*
Y-227950D01*
X259080D02*
X344170D01*
X259080Y-238110D02*
Y-227950D01*
X271780Y-34910D02*
X281940D01*
Y-24750D01*
X292100Y-14590D01*
X304800Y-1890D01*
X355600D01*
X360680Y-6970D01*
Y-28560D02*
Y-6970D01*
Y-28560D02*
X370840D01*
Y-3160D01*
X359410Y8270D02*
X370840Y-3160D01*
X298450Y8270D02*
X359410D01*
X271780Y-18400D02*
X298450Y8270D01*
X271780Y-34910D02*
Y-18400D01*
X216362Y-362214D02*
Y-340714D01*
Y-362214D02*
X710362D01*
Y-347214D01*
X710362D02*
X710362D01*
X720362Y-362214D02*
Y-347214D01*
Y-362214D02*
X855362D01*
X875362Y-342214D02*
Y-258078D01*
X863016Y-239600D02*
Y-239600D01*
X814748Y-219607D02*
X863016Y-239600D01*
X814748Y-219607D02*
Y-219607D01*
X765362Y-145696D02*
Y-108732D01*
X814748Y-34822D02*
Y-34821D01*
X863016Y-14828D01*
Y-14828D02*
Y-14828D01*
X875362Y3650D02*
Y65400D01*
X-24638D02*
X875362D01*
X-24638Y3650D02*
Y65400D01*
X-12292Y-14828D02*
X-12292Y-14828D01*
X35977Y-34821D01*
Y-34822D02*
Y-34821D01*
X70733Y-62617D02*
X70733Y-62617D01*
X84362Y-58294D02*
Y-47839D01*
X98487Y-33714D02*
X232237D01*
X246362Y-326589D02*
Y-47839D01*
X216362Y-340714D02*
X232237D01*
D86*
X447951Y-32097D02*
G03*
X442951Y-27097I-5000J0D01*
G01*
X407951D02*
G03*
X402951Y-32097I0J-5000D01*
G01*
X402951Y-68645D02*
G03*
X447951Y-68645I22500J-23452D01*
G01*
X70733Y-62617D02*
G03*
X35977Y-34822I-65371J-46115D01*
G01*
X70733Y-62617D02*
G03*
X84362Y-58294I6129J4323D01*
G01*
X98487Y-33714D02*
G03*
X84362Y-47839I-7408J-6718D01*
G01*
X246362D02*
G03*
X232237Y-33714I-6718J7408D01*
G01*
Y-340714D02*
G03*
X246362Y-326589I7408J6718D01*
G01*
X720362Y-347214D02*
G03*
X710362Y-347214I-5000J0D01*
G01*
X855362Y-362214D02*
G03*
X875362Y-342214I0J20000D01*
G01*
Y-258078D02*
G03*
X863016Y-239600I-20000J0D01*
G01*
X765362Y-145696D02*
G03*
X814748Y-219607I80000J0D01*
G01*
Y-34822D02*
G03*
X765362Y-108732I30615J-73910D01*
G01*
X863016Y-14828D02*
G03*
X875362Y3650I-7654J18478D01*
G01*
X-24638D02*
G03*
X-12292Y-14828I20000J0D01*
G01*
X402950Y-68584D02*
G03*
X447950Y-68584I22500J-23452D01*
G01*
X407950Y-27036D02*
G03*
X402950Y-32036I0J-5000D01*
G01*
X447950D02*
G03*
X442950Y-27036I-5000J0D01*
G01*
X-24638Y3650D02*
Y65400D01*
X875362D01*
X447951Y-68645D02*
Y-32097D01*
X407951Y-27097D02*
X442951D01*
X402951Y-68645D02*
Y-32097D01*
X84362Y-58294D02*
Y-47839D01*
X98487Y-33714D02*
X232237D01*
X246362Y-326589D02*
Y-47839D01*
X216362Y-340714D02*
X232237D01*
X216362Y-362214D02*
Y-340714D01*
Y-362214D02*
X710362D01*
Y-347214D01*
X720362Y-362214D02*
Y-347214D01*
Y-362214D02*
X855362D01*
X875362Y-342214D02*
Y-258078D01*
X814748Y-219607D02*
X863016Y-239600D01*
X765362Y-145696D02*
Y-108732D01*
X814748Y-34821D02*
X863016Y-14828D01*
X875362Y3650D02*
Y65400D01*
X-12292Y-14828D02*
X35977Y-34821D01*
X402950Y-68584D02*
Y-32036D01*
X407950Y-27036D02*
X442950D01*
X447950Y-68584D02*
Y-32036D01*
M02*
