G04 Layer_Physical_Order=1*
G04 Layer_Color=255*
%FSLAX44Y44*%
%MOMM*%
G71*
G01*
G75*
%ADD10R,0.6000X1.2000*%
%ADD11R,0.6000X2.0000*%
%ADD12R,7.3500X2.4000*%
%ADD13R,3.5000X3.5000*%
%ADD14R,2.1590X2.7430*%
%ADD15R,2.7430X2.1590*%
%ADD16R,1.2700X1.6002*%
%ADD17R,1.6002X1.2700*%
%ADD18R,1.8500X1.3000*%
%ADD19O,4.0640X1.5000*%
%ADD20R,4.0640X1.5000*%
%ADD21R,0.5080X1.5240*%
%ADD22R,1.3000X1.8500*%
%ADD23C,0.5000*%
%ADD24C,0.3000*%
%ADD25C,0.2540*%
%ADD26C,1.0000*%
%ADD27C,0.7000*%
%ADD28C,1.5000*%
%ADD29R,1.5000X1.5000*%
%ADD30C,1.5000*%
%ADD31O,4.5000X1.5000*%
%ADD32O,1.5000X4.5000*%
%ADD33O,2.0000X3.0000*%
%ADD34O,3.0000X2.0000*%
%ADD35O,6.0000X3.2000*%
%ADD36O,5.5000X1.5000*%
%ADD37C,2.0000*%
%ADD38R,1.2500X1.2500*%
%ADD39C,1.2500*%
%ADD40C,1.7000*%
%ADD41O,1.5000X6.5000*%
%ADD42O,5.0000X1.5000*%
%ADD43O,2.5000X1.5000*%
%ADD44C,2.0000*%
%ADD45C,0.6000*%
G36*
X825500Y-235316D02*
X865886Y-275702D01*
Y-301102D01*
Y-330058D01*
X865632Y-330312D01*
X852678Y-343266D01*
X725424D01*
X724662Y-342504D01*
X718312Y-336154D01*
X689864D01*
X688848Y-335138D01*
X685546Y-331836D01*
Y-302372D01*
Y-301864D01*
Y-301356D01*
X687578Y-299324D01*
X717042D01*
X724408Y-306690D01*
X738124Y-320406D01*
X781304D01*
X782320Y-319390D01*
X788162Y-313548D01*
Y-308214D01*
Y-283830D01*
X765302Y-260970D01*
X756666Y-252334D01*
Y-238364D01*
Y-226426D01*
X759714Y-223378D01*
X762000Y-221092D01*
X811276D01*
X825500Y-235316D01*
D02*
G37*
G36*
X628904Y-173086D02*
Y-182738D01*
Y-192390D01*
X632206Y-195692D01*
X642620Y-206106D01*
Y-210424D01*
Y-226172D01*
X641350Y-227442D01*
X638556Y-230236D01*
Y-235824D01*
Y-248016D01*
X637032Y-249540D01*
X617982D01*
X617728Y-249286D01*
X614680Y-246238D01*
Y-241920D01*
Y-231760D01*
X598424Y-215504D01*
X592074Y-209154D01*
Y-178166D01*
Y-175118D01*
X593852Y-173340D01*
X596900Y-170292D01*
X626110D01*
X628904Y-173086D01*
D02*
G37*
G36*
X584200Y-236840D02*
Y-334630D01*
Y-357490D01*
X582930Y-358760D01*
X579757Y-361933D01*
X465913D01*
X458470Y-354490D01*
Y-304150D01*
Y-260970D01*
X471170Y-248270D01*
X487680Y-231760D01*
X579120D01*
X584200Y-236840D01*
D02*
G37*
G36*
X394335Y-248270D02*
Y-307960D01*
Y-353680D01*
X393065Y-354950D01*
X386715Y-361300D01*
X266065D01*
X264795Y-360030D01*
X258445Y-353680D01*
Y-260970D01*
Y-245730D01*
X260985Y-243190D01*
X264795Y-239380D01*
X385445D01*
X394335Y-248270D01*
D02*
G37*
G36*
X833120Y49672D02*
X833374Y49418D01*
Y39004D01*
Y-23725D01*
X813552Y-31936D01*
D01*
X813537Y-31899D01*
X806159Y-35388D01*
X799159Y-39584D01*
X792604Y-44446D01*
X786557Y-49926D01*
X781076Y-55973D01*
X776214Y-62529D01*
X772019Y-69529D01*
X768529Y-76906D01*
X765780Y-84591D01*
X763797Y-92507D01*
X762599Y-100580D01*
X762199Y-108732D01*
X762239D01*
Y-124064D01*
X723900D01*
X717296Y-117460D01*
X715264Y-115428D01*
X715264Y-105522D01*
X715772Y-105014D01*
X740410Y-80376D01*
X745490Y-75296D01*
X818134Y-2652D01*
Y40274D01*
Y49672D01*
X819150Y50688D01*
X819404Y50942D01*
X831850D01*
X833120Y49672D01*
D02*
G37*
G36*
X359410Y-6970D02*
Y-78090D01*
X355600Y-81900D01*
X350520Y-86980D01*
X271780D01*
X269240Y-84440D01*
Y-76820D01*
Y-53960D01*
X283210Y-39990D01*
X295910Y-27290D01*
Y-20940D01*
Y-12050D01*
X302260Y-5700D01*
X304800Y-3160D01*
X355600D01*
X359410Y-6970D01*
D02*
G37*
G36*
X345440Y-116190D02*
Y-203820D01*
Y-222870D01*
X344170Y-224140D01*
X340360Y-227950D01*
X274320D01*
X271780Y-225410D01*
X269240Y-222870D01*
Y-211440D01*
Y-116190D01*
X271780Y-113650D01*
X342900D01*
X345440Y-116190D01*
D02*
G37*
G36*
X703072Y-118730D02*
X722376Y-138034D01*
X750316D01*
X750570Y-137780D01*
X765185Y-137780D01*
Y-145696D01*
X765073D01*
X765302Y-149781D01*
Y-150182D01*
X765342Y-150497D01*
X765577Y-154686D01*
X767086Y-163563D01*
X769265Y-171127D01*
X770382Y-176642D01*
Y-186040D01*
Y-197470D01*
X768858Y-198994D01*
X712724D01*
X712216Y-198486D01*
X708406Y-194676D01*
X690118D01*
X684784Y-200010D01*
Y-206106D01*
Y-213980D01*
X686562Y-215758D01*
X707136Y-236332D01*
Y-238872D01*
Y-246746D01*
X706628Y-247254D01*
X704596Y-249286D01*
X688340D01*
X687832Y-248778D01*
X686308Y-247254D01*
Y-246492D01*
Y-231252D01*
X683768Y-228712D01*
X680212Y-225156D01*
X652526D01*
X652272Y-224902D01*
X649986Y-222616D01*
Y-210424D01*
X651002Y-209408D01*
X671576D01*
X672084Y-208900D01*
X675132Y-205852D01*
Y-204582D01*
Y-196962D01*
X675894Y-196200D01*
X681990Y-190104D01*
Y-171054D01*
Y-162418D01*
X682244Y-162164D01*
X674878Y-154798D01*
X656844D01*
X653288Y-151242D01*
Y-121778D01*
Y-116444D01*
X653034Y-116190D01*
X655066Y-114158D01*
X698500D01*
X703072Y-118730D01*
D02*
G37*
%LPC*%
G36*
X276750Y-326421D02*
X276625Y-326472D01*
X276574Y-326597D01*
X276486D01*
X276887Y-328612D01*
X278028Y-330320D01*
X279736Y-331461D01*
X281750Y-331862D01*
Y-331774D01*
X281876Y-331723D01*
X281927Y-331597D01*
X281876Y-331472D01*
X281750Y-331421D01*
Y-331399D01*
X279913Y-331034D01*
X278355Y-329993D01*
X277314Y-328435D01*
X276949Y-326597D01*
X276927D01*
X276875Y-326472D01*
X276750Y-326421D01*
D02*
G37*
G36*
X281750Y-337333D02*
X279736Y-337733D01*
X278028Y-338875D01*
X276887Y-340583D01*
X276486Y-342597D01*
X276574D01*
X276625Y-342723D01*
X276750Y-342774D01*
X276875Y-342723D01*
X276927Y-342597D01*
X276949D01*
X277314Y-340760D01*
X278355Y-339202D01*
X279913Y-338161D01*
X281750Y-337796D01*
Y-337774D01*
X281876Y-337723D01*
X281927Y-337597D01*
X281876Y-337472D01*
X281750Y-337420D01*
Y-337333D01*
D02*
G37*
%LPD*%
D10*
X254356Y29152D02*
D03*
X244856D02*
D03*
X235356D02*
D03*
Y4152D02*
D03*
X244856D02*
D03*
X254356D02*
D03*
X192888D02*
D03*
X183388D02*
D03*
X173888D02*
D03*
Y29152D02*
D03*
X183388D02*
D03*
X192888D02*
D03*
D11*
X724916Y-236056D02*
D03*
X737616D02*
D03*
X763016D02*
D03*
X724916Y-187056D02*
D03*
X737616D02*
D03*
X750316D02*
D03*
X763016D02*
D03*
D12*
X306832Y-73446D02*
D03*
Y-127946D02*
D03*
D13*
X624510Y-134970D02*
D03*
X673510D02*
D03*
D14*
X660652Y-275448D02*
D03*
X704852D02*
D03*
X615440Y-185532D02*
D03*
X659640D02*
D03*
X698500Y-318120D02*
D03*
X654300D02*
D03*
X138942Y26812D02*
D03*
X94742D02*
D03*
D15*
X738124Y-155816D02*
D03*
Y-111616D02*
D03*
D16*
X706120Y-65644D02*
D03*
X726440D02*
D03*
X673354Y-240396D02*
D03*
X693674D02*
D03*
X629920Y-240142D02*
D03*
X650240D02*
D03*
X621030Y-71740D02*
D03*
X641350D02*
D03*
X706120Y-38720D02*
D03*
X726440D02*
D03*
X641350Y-43800D02*
D03*
X621030D02*
D03*
X706120Y-13320D02*
D03*
X726440D02*
D03*
D17*
X697484Y-205090D02*
D03*
Y-184770D02*
D03*
X214630Y29860D02*
D03*
Y9540D02*
D03*
X274320Y29860D02*
D03*
Y9540D02*
D03*
X550672Y-111872D02*
D03*
Y-91552D02*
D03*
X509270Y-104760D02*
D03*
Y-125080D02*
D03*
X549910Y-173340D02*
D03*
Y-153020D02*
D03*
X575310Y-90790D02*
D03*
Y-111110D02*
D03*
X599440Y17160D02*
D03*
Y-3160D02*
D03*
X509270Y-165720D02*
D03*
Y-145400D02*
D03*
D18*
X610362Y-347098D02*
D03*
Y-318098D02*
D03*
X509016Y-53408D02*
D03*
Y-82408D02*
D03*
D19*
X753618Y-301610D02*
D03*
D20*
X841248D02*
D03*
D21*
X623570Y31765D02*
D03*
X636270D02*
D03*
X648970D02*
D03*
X661670D02*
D03*
Y-20305D02*
D03*
X648970D02*
D03*
X636270D02*
D03*
X623570D02*
D03*
D22*
X510750Y-198740D02*
D03*
X539750D02*
D03*
D23*
X659131Y-186041D02*
X660400Y-187310D01*
X0Y25400D02*
Y28900D01*
Y22400D02*
Y25400D01*
Y28900D02*
X23500Y52400D01*
X825500Y25400D02*
Y32400D01*
Y0D02*
Y25400D01*
Y-13828D02*
Y0D01*
X54910Y-7110D02*
X100450D01*
X50800Y-3000D02*
X54910Y-7110D01*
X297514Y27400D02*
X542972D01*
X279654Y9540D02*
X297514Y27400D01*
X542972D02*
X581660Y-11288D01*
X600000Y17400D02*
X645000D01*
X614045Y31765D02*
X623570D01*
X599440Y17160D02*
X614045Y31765D01*
X670960Y7400D02*
X679450Y15890D01*
X616350Y7400D02*
X670960D01*
X605790Y-3160D02*
X616350Y7400D01*
X745000D02*
X757682Y-5282D01*
Y-30084D02*
Y-5282D01*
X548466Y37400D02*
X589026Y-3160D01*
X285000Y37400D02*
X548466D01*
X277460Y29860D02*
X285000Y37400D01*
X274320Y29860D02*
X277460D01*
X274320Y9540D02*
X279654D01*
X200613Y17652D02*
X209265Y26304D01*
X595630Y-81900D02*
X605790Y-71740D01*
X595630Y-90790D02*
Y-81900D01*
Y-90790D02*
Y-90790D01*
X589280Y-41260D02*
Y-31100D01*
X581660Y-23480D02*
X589280Y-31100D01*
X581660Y-23480D02*
Y-11288D01*
X589026Y-3160D02*
X599440D01*
X742442Y-87234D02*
Y-45324D01*
X742188Y-87488D02*
X742442Y-87234D01*
X730758Y-255382D02*
X737616Y-248524D01*
X682752Y-255382D02*
X730758D01*
X673354Y-245984D02*
X682752Y-255382D01*
X706120Y-71486D02*
Y-65644D01*
X771103Y-53747D02*
X795338Y-29512D01*
X771103Y-65858D02*
Y-53747D01*
X746506Y-83170D02*
X753792D01*
X740918Y-87488D02*
X742188D01*
X753792Y-83170D02*
X771103Y-65858D01*
X599440Y-19670D02*
Y-3160D01*
X605790D01*
X575310Y-90790D02*
X595630D01*
X605790Y-71740D02*
X621030D01*
X591820Y-111110D02*
X615950Y-86980D01*
X575310Y-111110D02*
X591820D01*
X575310Y-121270D02*
Y-111110D01*
X562610Y-133970D02*
X575310Y-121270D01*
X529590Y-133970D02*
X562610D01*
X518160Y-145400D02*
X529590Y-133970D01*
X509270Y-145400D02*
X518160D01*
X509270D02*
Y-125080D01*
X671830Y-30465D02*
X680085Y-38720D01*
X661670Y-20305D02*
X671830Y-30465D01*
X680085Y-38720D02*
X706120D01*
X726440Y-73010D02*
X740918Y-87488D01*
X726440Y-73010D02*
Y-65644D01*
X660400Y-187310D02*
X662180D01*
X740918Y-108822D02*
Y-87488D01*
X681228Y-218298D02*
X693674Y-230744D01*
X679450Y-216520D02*
X681228Y-218298D01*
X679450Y-198740D02*
X693420Y-184770D01*
X679450Y-216520D02*
Y-198740D01*
X693420Y-184770D02*
X697484D01*
X673354Y-245984D02*
Y-240396D01*
X737616Y-248524D02*
Y-236056D01*
X737616Y-187056D02*
X738124Y-186548D01*
Y-155816D01*
X697484Y-184770D02*
Y-154544D01*
X677910Y-134970D02*
X697484Y-154544D01*
X673510Y-134970D02*
X677910D01*
X750316Y-187056D02*
X763016D01*
X737616D02*
X750316D01*
X724916D02*
X737616D01*
X699770D02*
X724916D01*
X697484Y-184770D02*
X699770Y-187056D01*
X657460Y-218298D02*
X681228D01*
X693674Y-240396D02*
Y-230744D01*
X650240Y-240142D02*
X650494Y-240396D01*
X673354D01*
X183388Y20208D02*
X185944Y17652D01*
X94742Y-1402D02*
X100450Y-7110D01*
X94742Y-1402D02*
Y26812D01*
X244856Y21874D02*
Y29152D01*
X259634Y17652D02*
X267778Y25796D01*
X183388Y20208D02*
Y29152D01*
X138942Y898D02*
Y26812D01*
Y898D02*
X146950Y-7110D01*
X742442Y-45324D02*
X757682Y-30084D01*
X795338Y-29512D02*
X809816D01*
X825500Y-13828D01*
X710000Y7400D02*
X745000D01*
X23500Y52400D02*
X665000D01*
X710000Y7400D01*
X185944Y17652D02*
X200613D01*
X209265Y26304D02*
X214630D01*
X244856Y21874D02*
X249078Y17652D01*
X259634D01*
X267778Y25796D02*
X276098D01*
X738124Y-111616D02*
X740918Y-108822D01*
D24*
X200914Y4152D02*
X206302Y9540D01*
X192888Y4152D02*
X200914D01*
X697484Y-205090D02*
X724916Y-232522D01*
Y-236056D02*
Y-232522D01*
X254356Y4152D02*
X262890D01*
X244856Y-7478D02*
Y4152D01*
X183388Y-7224D02*
Y4152D01*
X262890D02*
X269327D01*
X206302Y9540D02*
X214630D01*
X274320Y9145D02*
Y9540D01*
X269327Y4152D02*
X274320Y9145D01*
D25*
X249000Y42400D02*
X254356Y37044D01*
X229000Y42400D02*
X249000D01*
X254356Y29152D02*
Y37044D01*
X641350Y-45070D02*
Y-36180D01*
X192888Y29152D02*
Y41950D01*
X298450Y-127874D02*
X312420Y-141844D01*
Y-155560D02*
Y-141844D01*
X298450Y-72756D02*
X324942Y-46264D01*
X509016Y-98156D02*
X522732Y-111872D01*
X726440Y-13320D02*
X738124D01*
X539750Y-183500D02*
X549910Y-173340D01*
X539750Y-198740D02*
Y-183500D01*
X311950Y-194610D02*
X312420Y-194140D01*
X641350Y-45070D02*
X641350Y-45070D01*
X636270Y-31100D02*
X641350Y-36180D01*
X636270Y-31100D02*
Y-20305D01*
X522732Y-111872D02*
X550672D01*
X509016Y-98156D02*
Y-82408D01*
X491465Y-334605D02*
X558448D01*
X470950Y-314090D02*
X491465Y-334605D01*
X470950Y-314090D02*
Y-292097D01*
X525451Y-242847D02*
X532209Y-249605D01*
X558448D01*
X623570Y-20305D02*
Y-8240D01*
X570230Y-57770D02*
X631190D01*
X550672Y-77328D02*
X570230Y-57770D01*
X550672Y-91552D02*
Y-77328D01*
X693420Y-620D02*
X706120Y-13320D01*
X621030Y-43800D02*
X623570Y-41260D01*
Y-20305D01*
X726440Y-38720D02*
Y-13320D01*
X549910Y-153020D02*
X565150D01*
X641350Y-76820D01*
Y-71740D01*
X641350Y-45070D02*
Y-43800D01*
Y-47610D02*
Y-45070D01*
X631190Y-57770D02*
X641350Y-47610D01*
X641350Y-71740D02*
X654050Y-59040D01*
Y-34910D01*
X648970Y-29830D02*
X654050Y-34910D01*
X648970Y-29830D02*
Y-20305D01*
X509016Y-53408D02*
X524942Y-37482D01*
Y-19668D01*
X165862Y16906D02*
X173888Y24932D01*
X165862Y-9256D02*
Y16906D01*
Y-9256D02*
X173228Y-16622D01*
Y-16876D02*
Y-16622D01*
X192024Y-25512D02*
X235204D01*
X173888Y-7376D02*
X192024Y-25512D01*
X173888Y-7376D02*
Y4152D01*
Y24932D02*
Y29152D01*
X227584Y18176D02*
X235356Y25948D01*
X227584Y-16876D02*
Y18176D01*
X235356Y25948D02*
Y29152D01*
Y-25360D02*
Y4152D01*
X235204Y-25512D02*
X235356Y-25360D01*
X324942Y-46264D02*
Y-16368D01*
X298450Y-73374D02*
Y-72756D01*
X266700Y-97902D02*
X296926D01*
X267970Y-107808D02*
X296164D01*
X296926Y-97902D02*
X306832Y-87996D01*
Y-73446D01*
X296164Y-107808D02*
X306832Y-118476D01*
Y-127946D02*
Y-118476D01*
X509270Y-165720D02*
X524510D01*
X532130Y-173340D01*
X549910D01*
X254000Y-93838D02*
X267970Y-107808D01*
X262890Y-94092D02*
X266700Y-97902D01*
X470950Y-292097D02*
Y-275160D01*
X503263Y-242847D01*
X525451D01*
X379950Y-292097D02*
X405753D01*
X422910Y-274940D01*
Y-215250D01*
X439420Y-198740D01*
X510750D01*
X262890Y-94092D02*
Y-29830D01*
X235204Y-25512D02*
X247650D01*
X254000Y-31862D01*
Y-93838D02*
Y-31862D01*
X245110Y-17130D02*
X250190D01*
X262890Y-29830D01*
X623570Y-8240D02*
X631190Y-620D01*
X693420D01*
X312420Y-194140D02*
Y-155560D01*
D26*
X634394Y-338440D02*
Y-319778D01*
X659640Y-185532D02*
Y-182994D01*
X624510Y-147864D02*
X659640Y-182994D01*
X624510Y-147864D02*
Y-134970D01*
X690118Y-87488D02*
X706120Y-71486D01*
X655066Y-87488D02*
X690118D01*
X624510Y-134970D02*
Y-118044D01*
X655066Y-87488D01*
X615440Y-201278D02*
X632460Y-218298D01*
X615440Y-201278D02*
Y-185532D01*
X629920Y-220838D02*
X632460Y-218298D01*
X629920Y-240142D02*
Y-220838D01*
X632714Y-318098D02*
X647422D01*
X610362D02*
X632714D01*
X647422D02*
X648460Y-319136D01*
X632714Y-318098D02*
X634394Y-319778D01*
X570941Y-347098D02*
X610362D01*
X558448Y-334605D02*
X570941Y-347098D01*
X613000Y-265386D02*
Y-263440D01*
Y-265386D02*
X622554Y-274940D01*
X660650D01*
X704850D02*
X704852D01*
D27*
X830580Y-301610D02*
X841248D01*
X765026Y-236056D02*
X830580Y-301610D01*
X763016Y-236056D02*
X765026D01*
X808228Y-334630D02*
X841248Y-301610D01*
X732790Y-334630D02*
X808228D01*
X716280Y-318120D02*
X732790Y-334630D01*
X698500Y-318120D02*
X716280D01*
D28*
X704852Y-275448D02*
X726440D01*
X727456D01*
X735076Y-283068D01*
X753618Y-301610D01*
D29*
X0Y0D02*
D03*
X800100D02*
D03*
D30*
X0Y25400D02*
D03*
X25400Y0D02*
D03*
Y25400D02*
D03*
X50800Y0D02*
D03*
Y25400D02*
D03*
X800100D02*
D03*
X825500Y0D02*
D03*
Y25400D02*
D03*
X850900Y0D02*
D03*
Y25400D02*
D03*
D31*
X525451Y-242847D02*
D03*
X292453Y-334605D02*
D03*
X292453Y-249605D02*
D03*
X558448D02*
D03*
X558448Y-334605D02*
D03*
D32*
X379950Y-292097D02*
D03*
X470950D02*
D03*
D33*
X402450Y-136597D02*
D03*
X448451D02*
D03*
D34*
X425451Y-4884D02*
D03*
D35*
X524942Y-19668D02*
D03*
D36*
X424942Y-16368D02*
D03*
X324942D02*
D03*
D37*
X690118Y-87488D02*
D03*
X740918D02*
D03*
D38*
X632460Y-218298D02*
D03*
D39*
X657460D02*
D03*
D40*
X613000Y-263440D02*
D03*
X635000Y-338440D02*
D03*
D41*
X311950Y-194610D02*
D03*
X273950Y-325110D02*
D03*
D42*
X100450Y-7110D02*
D03*
D43*
X146950D02*
D03*
D44*
X715518Y25908D02*
D03*
D45*
X229000Y42400D02*
D03*
X192888Y41950D02*
D03*
X645000Y17400D02*
D03*
X810260Y-18400D02*
D03*
X825500Y45100D02*
D03*
X751840Y-74280D02*
D03*
X728980Y-120000D02*
D03*
X751840D02*
D03*
X741680Y-112380D02*
D03*
X751840Y-104760D02*
D03*
X728980D02*
D03*
X599440Y-19670D02*
D03*
X679450Y15890D02*
D03*
X615950Y-86980D02*
D03*
X589280Y-41260D02*
D03*
X671830Y-30465D02*
D03*
X595630Y-90790D02*
D03*
X254000Y16906D02*
D03*
X194056D02*
D03*
X173228Y-16876D02*
D03*
X183388Y-7224D02*
D03*
X244856Y-7478D02*
D03*
X262890Y4152D02*
D03*
X200914Y4206D02*
D03*
X227584Y-16876D02*
D03*
X245110Y-17130D02*
D03*
X273050Y-117460D02*
D03*
X285750D02*
D03*
X298450D02*
D03*
X311150D02*
D03*
X323850D02*
D03*
X336550D02*
D03*
X273050Y-130160D02*
D03*
X285750D02*
D03*
X298450D02*
D03*
X311150D02*
D03*
X323850D02*
D03*
X336550D02*
D03*
X273050Y-142860D02*
D03*
X298450D02*
D03*
X285750D02*
D03*
X311150D02*
D03*
X323850D02*
D03*
X336550D02*
D03*
X273050Y-155560D02*
D03*
X285750D02*
D03*
X298450D02*
D03*
X312420D02*
D03*
X323850D02*
D03*
X336550D02*
D03*
X273050Y-168260D02*
D03*
X285750D02*
D03*
X298450D02*
D03*
X323850D02*
D03*
X336550D02*
D03*
X273050Y-180960D02*
D03*
Y-193660D02*
D03*
Y-206360D02*
D03*
Y-219060D02*
D03*
X285750D02*
D03*
Y-206360D02*
D03*
Y-193660D02*
D03*
Y-180960D02*
D03*
X298450D02*
D03*
Y-193660D02*
D03*
Y-206360D02*
D03*
Y-219060D02*
D03*
X323850D02*
D03*
Y-206360D02*
D03*
Y-193660D02*
D03*
Y-180960D02*
D03*
X336550D02*
D03*
Y-193660D02*
D03*
Y-206360D02*
D03*
Y-219060D02*
D03*
X260350Y-257160D02*
D03*
Y-269860D02*
D03*
Y-282560D02*
D03*
Y-295260D02*
D03*
Y-307960D02*
D03*
Y-320660D02*
D03*
Y-333360D02*
D03*
Y-346060D02*
D03*
X273050Y-269860D02*
D03*
X285750D02*
D03*
X298450D02*
D03*
X311150D02*
D03*
X323850D02*
D03*
Y-282560D02*
D03*
Y-295260D02*
D03*
Y-307960D02*
D03*
Y-320660D02*
D03*
Y-333360D02*
D03*
Y-346060D02*
D03*
Y-358760D02*
D03*
X311150D02*
D03*
Y-346060D02*
D03*
X298450D02*
D03*
Y-358760D02*
D03*
X285750Y-346060D02*
D03*
Y-358760D02*
D03*
X311150Y-320660D02*
D03*
X298450D02*
D03*
X285750D02*
D03*
X311150Y-307960D02*
D03*
X298450D02*
D03*
X285750D02*
D03*
X311150Y-295260D02*
D03*
X298450D02*
D03*
X285750D02*
D03*
X311150Y-282560D02*
D03*
X298450D02*
D03*
X285750D02*
D03*
X273050D02*
D03*
X323850Y-257160D02*
D03*
X273050D02*
D03*
X285750D02*
D03*
X298450D02*
D03*
X311150D02*
D03*
X726440Y-275448D02*
D03*
X745490Y-291196D02*
D03*
X735076Y-283068D02*
D03*
X244856Y17668D02*
D03*
X669290Y15890D02*
D03*
X688086Y16144D02*
D03*
X738124Y-13320D02*
D03*
M02*
