G04 Layer_Color=65535*
%FSLAX44Y44*%
%MOMM*%
G71*
G01*
G75*
%ADD25C,0.2540*%
%ADD46C,0.1270*%
%ADD47C,0.7620*%
%ADD48C,0.2000*%
%ADD49C,0.1778*%
%ADD50C,0.1016*%
%ADD51R,0.5080X4.1656*%
%ADD52R,4.1656X0.5080*%
D25*
X617220Y-8193D02*
X668020D01*
Y19730D01*
X617220D02*
X668020D01*
X617220Y-8193D02*
Y19730D01*
D46*
X845856Y-291610D02*
G03*
X747798Y-291610I-49029J-9806D01*
G01*
X747769Y-311416D02*
G03*
X845827Y-311416I49029J9806D01*
G01*
X746048Y-353110D02*
Y-313360D01*
X739048D02*
X746048D01*
Y-353110D02*
X838798D01*
X746048Y-289860D02*
X746048Y-289860D01*
X746048Y-289860D02*
Y-250110D01*
X849048Y-313860D02*
X855548D01*
X849048Y-288860D02*
X855548D01*
X848798Y-343110D02*
Y-313860D01*
X838798Y-353110D02*
X848798Y-343110D01*
X739298Y-289860D02*
X746048D01*
X849048Y-288860D02*
Y-275110D01*
X838798Y-250110D02*
X848798Y-260110D01*
X849048Y-288860D02*
Y-268610D01*
X849048Y-268610D01*
X849048Y-288860D02*
Y-260110D01*
Y-288860D02*
Y-250110D01*
X849048Y-250110D01*
X746048D02*
X849048D01*
X17100Y45000D02*
Y54997D01*
X22098D01*
X23765Y53331D01*
Y49998D01*
X22098Y48332D01*
X17100D01*
X27097Y46666D02*
X28763Y45000D01*
X32095D01*
X33761Y46666D01*
Y53331D01*
X32095Y54997D01*
X28763D01*
X27097Y53331D01*
Y51665D01*
X28763Y49998D01*
X33761D01*
X239522Y53827D02*
Y45496D01*
X241188Y43830D01*
X244520D01*
X246187Y45496D01*
Y53827D01*
X254517Y43830D02*
Y53827D01*
X249519Y48828D01*
X256183D01*
X603961Y-23795D02*
X605627Y-22128D01*
Y-18796D01*
X603961Y-17130D01*
X597296D01*
X595630Y-18796D01*
Y-22128D01*
X597296Y-23795D01*
X595630Y-27127D02*
Y-30459D01*
Y-28793D01*
X605627D01*
X603961Y-27127D01*
X579831Y-65704D02*
X581497Y-64038D01*
Y-60706D01*
X579831Y-59040D01*
X573166D01*
X571500Y-60706D01*
Y-64038D01*
X573166Y-65704D01*
X571500Y-75701D02*
Y-69037D01*
X578164Y-75701D01*
X579831D01*
X581497Y-74035D01*
Y-70703D01*
X579831Y-69037D01*
X485191Y-159564D02*
X483525Y-161230D01*
Y-164562D01*
X485191Y-166228D01*
X491856D01*
X493522Y-164562D01*
Y-161230D01*
X491856Y-159564D01*
X485191Y-156231D02*
X483525Y-154565D01*
Y-151233D01*
X485191Y-149567D01*
X486857D01*
X488524Y-151233D01*
Y-152899D01*
Y-151233D01*
X490190Y-149567D01*
X491856D01*
X493522Y-151233D01*
Y-154565D01*
X491856Y-156231D01*
X485699Y-115876D02*
X484033Y-117542D01*
Y-120874D01*
X485699Y-122540D01*
X492364D01*
X494030Y-120874D01*
Y-117542D01*
X492364Y-115876D01*
X494030Y-107545D02*
X484033D01*
X489032Y-112543D01*
Y-105879D01*
X688400Y-218603D02*
X686734Y-216937D01*
X683402D01*
X681736Y-218603D01*
Y-225268D01*
X683402Y-226934D01*
X686734D01*
X688400Y-225268D01*
X698397Y-226934D02*
X691733D01*
X698397Y-220270D01*
Y-218603D01*
X696731Y-216937D01*
X693399D01*
X691733Y-218603D01*
X708394Y-226934D02*
X701730D01*
X708394Y-220270D01*
Y-218603D01*
X706728Y-216937D01*
X703396D01*
X701730Y-218603D01*
X732841Y-345238D02*
X731175Y-346904D01*
Y-350236D01*
X732841Y-351902D01*
X739506D01*
X741172Y-350236D01*
Y-346904D01*
X739506Y-345238D01*
X741172Y-335241D02*
Y-341905D01*
X734508Y-335241D01*
X732841D01*
X731175Y-336907D01*
Y-340239D01*
X732841Y-341905D01*
Y-331908D02*
X731175Y-330242D01*
Y-326910D01*
X732841Y-325244D01*
X734508D01*
X736174Y-326910D01*
Y-328576D01*
Y-326910D01*
X737840Y-325244D01*
X739506D01*
X741172Y-326910D01*
Y-330242D01*
X739506Y-331908D01*
X659384Y-343175D02*
Y-353172D01*
X664382D01*
X666049Y-351506D01*
Y-344841D01*
X664382Y-343175D01*
X659384D01*
X669381Y-344841D02*
X671047Y-343175D01*
X674379D01*
X676045Y-344841D01*
Y-346507D01*
X674379Y-348174D01*
X672713D01*
X674379D01*
X676045Y-349840D01*
Y-351506D01*
X674379Y-353172D01*
X671047D01*
X669381Y-351506D01*
X578866Y-179853D02*
Y-189850D01*
X583864D01*
X585531Y-188184D01*
Y-181519D01*
X583864Y-179853D01*
X578866D01*
X593861Y-189850D02*
Y-179853D01*
X588863Y-184852D01*
X595527D01*
X702981Y-147940D02*
X712978D01*
Y-142942D01*
X711312Y-141276D01*
X704647D01*
X702981Y-142942D01*
Y-147940D01*
Y-131279D02*
Y-137943D01*
X707980D01*
X706313Y-134611D01*
Y-132945D01*
X707980Y-131279D01*
X711312D01*
X712978Y-132945D01*
Y-136277D01*
X711312Y-137943D01*
X622302Y-283485D02*
Y-293482D01*
X627300D01*
X628966Y-291816D01*
Y-285151D01*
X627300Y-283485D01*
X622302D01*
X638963D02*
X635631Y-285151D01*
X632299Y-288484D01*
Y-291816D01*
X633965Y-293482D01*
X637297D01*
X638963Y-291816D01*
Y-290150D01*
X637297Y-288484D01*
X632299D01*
X608136Y-293899D02*
X601472D01*
Y-298898D01*
X604804D01*
X601472D01*
Y-303896D01*
X611469D02*
X614801D01*
X613135D01*
Y-293899D01*
X611469Y-295565D01*
X683670Y-160787D02*
Y-170784D01*
X690334D01*
X698665D02*
Y-160787D01*
X693667Y-165786D01*
X700331D01*
X592328Y-77836D02*
Y-67839D01*
X597326D01*
X598993Y-69505D01*
Y-72838D01*
X597326Y-74504D01*
X592328D01*
X595660D02*
X598993Y-77836D01*
X602325D02*
X605657D01*
X603991D01*
Y-67839D01*
X602325Y-69505D01*
X479298Y-203566D02*
Y-193569D01*
X484296D01*
X485962Y-195235D01*
Y-198568D01*
X484296Y-200234D01*
X479298D01*
X482630D02*
X485962Y-203566D01*
X489295Y-195235D02*
X490961Y-193569D01*
X494293D01*
X495959Y-195235D01*
Y-196901D01*
X494293Y-198568D01*
X492627D01*
X494293D01*
X495959Y-200234D01*
Y-201900D01*
X494293Y-203566D01*
X490961D01*
X489295Y-201900D01*
X536194Y-166228D02*
X526197D01*
Y-161230D01*
X527863Y-159564D01*
X531196D01*
X532862Y-161230D01*
Y-166228D01*
Y-162896D02*
X536194Y-159564D01*
Y-151233D02*
X526197D01*
X531196Y-156231D01*
Y-149567D01*
X740410Y-18400D02*
Y-8403D01*
X745408D01*
X747075Y-10069D01*
Y-13402D01*
X745408Y-15068D01*
X740410D01*
X743742D02*
X747075Y-18400D01*
X757071Y-8403D02*
X750407D01*
Y-13402D01*
X753739Y-11736D01*
X755405D01*
X757071Y-13402D01*
Y-16734D01*
X755405Y-18400D01*
X752073D01*
X750407Y-16734D01*
X491744Y-76058D02*
X481747D01*
Y-71060D01*
X483413Y-69394D01*
X486746D01*
X488412Y-71060D01*
Y-76058D01*
Y-72726D02*
X491744Y-69394D01*
X481747Y-66061D02*
Y-59397D01*
X483413D01*
X490078Y-66061D01*
X491744D01*
X544830Y-59040D02*
X554827D01*
Y-64038D01*
X553161Y-65704D01*
X549828D01*
X548162Y-64038D01*
Y-59040D01*
Y-62372D02*
X544830Y-65704D01*
X553161Y-69037D02*
X554827Y-70703D01*
Y-74035D01*
X553161Y-75701D01*
X551494D01*
X549828Y-74035D01*
X548162Y-75701D01*
X546496D01*
X544830Y-74035D01*
Y-70703D01*
X546496Y-69037D01*
X548162D01*
X549828Y-70703D01*
X551494Y-69037D01*
X553161D01*
X549828Y-70703D02*
Y-74035D01*
X740410Y-43800D02*
Y-33803D01*
X745408D01*
X747075Y-35469D01*
Y-38802D01*
X745408Y-40468D01*
X740410D01*
X743742D02*
X747075Y-43800D01*
X750407Y-42134D02*
X752073Y-43800D01*
X755405D01*
X757071Y-42134D01*
Y-35469D01*
X755405Y-33803D01*
X752073D01*
X750407Y-35469D01*
Y-37136D01*
X752073Y-38802D01*
X757071D01*
X581914Y-49896D02*
Y-39899D01*
X586912D01*
X588578Y-41565D01*
Y-44898D01*
X586912Y-46564D01*
X581914D01*
X585246D02*
X588578Y-49896D01*
X591911D02*
X595243D01*
X593577D01*
Y-39899D01*
X591911Y-41565D01*
X600241D02*
X601908Y-39899D01*
X605240D01*
X606906Y-41565D01*
Y-48230D01*
X605240Y-49896D01*
X601908D01*
X600241Y-48230D01*
Y-41565D01*
X594360Y-222870D02*
Y-212873D01*
X599358D01*
X601025Y-214539D01*
Y-217872D01*
X599358Y-219538D01*
X594360D01*
X597692D02*
X601025Y-222870D01*
X604357D02*
X607689D01*
X606023D01*
Y-212873D01*
X604357Y-214539D01*
X612687D02*
X614354Y-212873D01*
X617686D01*
X619352Y-214539D01*
Y-216206D01*
X617686Y-217872D01*
X619352Y-219538D01*
Y-221204D01*
X617686Y-222870D01*
X614354D01*
X612687Y-221204D01*
Y-219538D01*
X614354Y-217872D01*
X612687Y-216206D01*
Y-214539D01*
X614354Y-217872D02*
X617686D01*
X719074Y-266050D02*
Y-256053D01*
X724072D01*
X725739Y-257719D01*
Y-261052D01*
X724072Y-262718D01*
X719074D01*
X722406D02*
X725739Y-266050D01*
X729071D02*
X732403D01*
X730737D01*
Y-256053D01*
X729071Y-257719D01*
X737401Y-264384D02*
X739068Y-266050D01*
X742400D01*
X744066Y-264384D01*
Y-257719D01*
X742400Y-256053D01*
X739068D01*
X737401Y-257719D01*
Y-259386D01*
X739068Y-261052D01*
X744066D01*
X740918Y-69708D02*
Y-59711D01*
X745916D01*
X747582Y-61377D01*
Y-64710D01*
X745916Y-66376D01*
X740918D01*
X744250D02*
X747582Y-69708D01*
X757579D02*
X750915D01*
X757579Y-63043D01*
Y-61377D01*
X755913Y-59711D01*
X752581D01*
X750915Y-61377D01*
X760912D02*
X762578Y-59711D01*
X765910D01*
X767576Y-61377D01*
Y-68042D01*
X765910Y-69708D01*
X762578D01*
X760912Y-68042D01*
Y-61377D01*
X633984Y11155D02*
Y2824D01*
X635650Y1158D01*
X638982D01*
X640648Y2824D01*
Y11155D01*
X643981Y1158D02*
X647313D01*
X645647D01*
Y11155D01*
X643981Y9489D01*
X778002Y-223265D02*
Y-231596D01*
X779668Y-233262D01*
X783000D01*
X784667Y-231596D01*
Y-223265D01*
X794663Y-233262D02*
X787999D01*
X794663Y-226597D01*
Y-224931D01*
X792997Y-223265D01*
X789665D01*
X787999Y-224931D01*
X115316Y62463D02*
Y52466D01*
X120314D01*
X121980Y54132D01*
Y60797D01*
X120314Y62463D01*
X115316D01*
X125313Y52466D02*
X128645D01*
X126979D01*
Y62463D01*
X125313Y60797D01*
X52070Y-37958D02*
Y-27961D01*
X57068D01*
X58734Y-29627D01*
Y-32960D01*
X57068Y-34626D01*
X52070D01*
X55402D02*
X58734Y-37958D01*
X62067Y-27961D02*
Y-37958D01*
X68731D01*
X72064D02*
X75396D01*
X73730D01*
Y-27961D01*
X72064Y-29627D01*
X816100Y44000D02*
Y53997D01*
X821098D01*
X822765Y52331D01*
Y48998D01*
X821098Y47332D01*
X816100D01*
X826097Y52331D02*
X827763Y53997D01*
X831095D01*
X832761Y52331D01*
Y50665D01*
X831095Y48998D01*
X832761Y47332D01*
Y45666D01*
X831095Y44000D01*
X827763D01*
X826097Y45666D01*
Y47332D01*
X827763Y48998D01*
X826097Y50665D01*
Y52331D01*
X827763Y48998D02*
X831095D01*
X277114Y-104760D02*
Y-94763D01*
X282112D01*
X283778Y-96429D01*
Y-99762D01*
X282112Y-101428D01*
X277114D01*
X280446D02*
X283778Y-104760D01*
X287111D02*
X292109D01*
X293775Y-103094D01*
X292109Y-101428D01*
X288777D01*
X287111Y-99762D01*
X288777Y-98096D01*
X293775D01*
X297108Y-94763D02*
Y-104760D01*
Y-99762D01*
X298774Y-98096D01*
X302106D01*
X303772Y-99762D01*
Y-104760D01*
X307104Y-98096D02*
Y-103094D01*
X308771Y-104760D01*
X313769D01*
Y-98096D01*
X317101Y-104760D02*
Y-98096D01*
X322099D01*
X323766Y-99762D01*
Y-104760D01*
X328764Y-96429D02*
Y-98096D01*
X327098D01*
X330430D01*
X328764D01*
Y-103094D01*
X330430Y-104760D01*
X335429D02*
X338761D01*
X337095D01*
Y-94763D01*
X335429Y-96429D01*
X174752Y53065D02*
Y44734D01*
X176418Y43068D01*
X179750D01*
X181416Y44734D01*
Y53065D01*
X184749Y51399D02*
X186415Y53065D01*
X189747D01*
X191413Y51399D01*
Y49732D01*
X189747Y48066D01*
X188081D01*
X189747D01*
X191413Y46400D01*
Y44734D01*
X189747Y43068D01*
X186415D01*
X184749Y44734D01*
X213167Y52161D02*
X211500Y53827D01*
X208168D01*
X206502Y52161D01*
Y45496D01*
X208168Y43830D01*
X211500D01*
X213167Y45496D01*
X216499Y53827D02*
X223163D01*
Y52161D01*
X216499Y45496D01*
Y43830D01*
X273365Y52923D02*
X271698Y54589D01*
X268366D01*
X266700Y52923D01*
Y46258D01*
X268366Y44592D01*
X271698D01*
X273365Y46258D01*
X276697Y52923D02*
X278363Y54589D01*
X281695D01*
X283361Y52923D01*
Y51256D01*
X281695Y49590D01*
X283361Y47924D01*
Y46258D01*
X281695Y44592D01*
X278363D01*
X276697Y46258D01*
Y47924D01*
X278363Y49590D01*
X276697Y51256D01*
Y52923D01*
X278363Y49590D02*
X281695D01*
X400364Y-169073D02*
X398698Y-167407D01*
X395366D01*
X393700Y-169073D01*
Y-170739D01*
X395366Y-172406D01*
X398698D01*
X400364Y-174072D01*
Y-175738D01*
X398698Y-177404D01*
X395366D01*
X393700Y-175738D01*
X408695Y-167407D02*
X405363D01*
X403697Y-169073D01*
Y-175738D01*
X405363Y-177404D01*
X408695D01*
X410361Y-175738D01*
Y-169073D01*
X408695Y-167407D01*
X420358Y-169073D02*
X418692Y-167407D01*
X415360D01*
X413694Y-169073D01*
Y-175738D01*
X415360Y-177404D01*
X418692D01*
X420358Y-175738D01*
X423690Y-167407D02*
Y-177404D01*
Y-174072D01*
X430355Y-167407D01*
X425356Y-172406D01*
X430355Y-177404D01*
X440352Y-167407D02*
X433687D01*
Y-177404D01*
X440352D01*
X433687Y-172406D02*
X437019D01*
X443684Y-167407D02*
X450348D01*
X447016D01*
Y-177404D01*
X453681D02*
X457013D01*
X455347D01*
Y-167407D01*
X453681Y-169073D01*
X237744Y-20940D02*
Y-14275D01*
X241076Y-10943D01*
X244408Y-14275D01*
Y-20940D01*
Y-15942D01*
X237744D01*
X247741Y-20940D02*
X251073D01*
X249407D01*
Y-10943D01*
X247741Y-12609D01*
X177038Y-21448D02*
Y-14784D01*
X180370Y-11451D01*
X183703Y-14784D01*
Y-21448D01*
Y-16450D01*
X177038D01*
X192033Y-21448D02*
Y-11451D01*
X187035Y-16450D01*
X193699D01*
D47*
X623824Y-1335D02*
G03*
X623817Y-1312I-1030J-318D01*
G01*
D48*
X63500Y-12700D02*
Y38100D01*
X-12700Y-12700D02*
Y38100D01*
X63500D01*
X-12700Y-12700D02*
X63500D01*
X14817D02*
X63500D01*
X259356Y13652D02*
Y19652D01*
X230356Y13652D02*
X259356D01*
X230356D02*
Y19652D01*
X259356D01*
X260856Y23152D02*
Y35152D01*
X863600Y-12700D02*
Y38100D01*
X787400Y-12700D02*
Y38100D01*
X863600D01*
X787400Y-12700D02*
X863600D01*
X814917D02*
X863600D01*
X718566Y-208381D02*
Y-201766D01*
X769366D01*
Y-220816D02*
Y-201766D01*
X718566Y-220816D02*
X769366D01*
X718566D02*
Y-214731D01*
X342582Y-112196D02*
Y-89196D01*
X271082Y-112196D02*
Y-89196D01*
X199388Y23152D02*
Y35152D01*
X168888Y19652D02*
X197888D01*
X168888Y13652D02*
Y19652D01*
Y13652D02*
X197888D01*
Y19652D01*
D49*
X714502Y-295387D02*
Y-293102D01*
X646684Y-295387D02*
X714502D01*
X646684Y-255509D02*
X714502D01*
Y-257794D02*
Y-255509D01*
X755778Y-101966D02*
X758063D01*
Y-169784D02*
Y-101966D01*
X718185Y-169784D02*
Y-101966D01*
X720470D01*
X697484Y-55484D02*
X706120D01*
X697484Y-65644D02*
Y-55484D01*
Y-75804D02*
Y-65644D01*
Y-75804D02*
X706120D01*
X726440D02*
X735076D01*
Y-65644D01*
Y-55484D01*
X726440D02*
X735076D01*
X664718Y-230236D02*
X673354D01*
X664718Y-240396D02*
Y-230236D01*
Y-250556D02*
Y-240396D01*
Y-250556D02*
X673354D01*
X693674D02*
X702310D01*
Y-240396D01*
Y-230236D01*
X693674D02*
X702310D01*
X687324Y-213726D02*
Y-205090D01*
Y-213726D02*
X697484D01*
X707644D01*
Y-205090D01*
Y-184770D02*
Y-176134D01*
X697484D02*
X707644D01*
X687324D02*
X697484D01*
X687324Y-184770D02*
Y-176134D01*
X669290Y-205471D02*
Y-203186D01*
X601472Y-205471D02*
X669290D01*
X601472Y-165593D02*
X669290D01*
Y-167878D02*
Y-165593D01*
X598262Y-356598D02*
Y-347598D01*
Y-356598D02*
X622462D01*
Y-347598D01*
Y-317598D02*
Y-308598D01*
X598262D02*
X622462D01*
X598262Y-317598D02*
Y-308598D01*
X644650Y-300466D02*
Y-298181D01*
X712468D01*
X644650Y-338059D02*
X712468D01*
X644650D02*
Y-335774D01*
X621284Y-229982D02*
X629920D01*
X621284Y-240142D02*
Y-229982D01*
Y-250302D02*
Y-240142D01*
Y-250302D02*
X629920D01*
X650240D02*
X658876D01*
Y-240142D01*
Y-229982D01*
X650240D02*
X658876D01*
X85092Y44466D02*
Y46751D01*
X152910D01*
X85092Y6873D02*
X152910D01*
X85092D02*
Y9158D01*
X204470Y29860D02*
Y38496D01*
X214630D01*
X224790D01*
Y29860D02*
Y38496D01*
Y904D02*
Y9540D01*
X214630Y904D02*
X224790D01*
X204470D02*
X214630D01*
X204470D02*
Y9540D01*
X264160Y29860D02*
Y38496D01*
X274320D01*
X284480D01*
Y29860D02*
Y38496D01*
Y904D02*
Y9540D01*
X274320Y904D02*
X284480D01*
X264160D02*
X274320D01*
X264160D02*
Y9540D01*
X540512Y-120508D02*
Y-111872D01*
Y-120508D02*
X550672D01*
X560832D01*
Y-111872D01*
Y-91552D02*
Y-82916D01*
X550672D02*
X560832D01*
X540512D02*
X550672D01*
X540512Y-91552D02*
Y-82916D01*
X519430Y-104760D02*
Y-96124D01*
X509270D02*
X519430D01*
X499110D02*
X509270D01*
X499110Y-104760D02*
Y-96124D01*
Y-133716D02*
Y-125080D01*
Y-133716D02*
X509270D01*
X519430D01*
Y-125080D01*
X539750Y-181976D02*
Y-173340D01*
Y-181976D02*
X549910D01*
X560070D01*
Y-173340D01*
Y-153020D02*
Y-144384D01*
X549910D02*
X560070D01*
X539750D02*
X549910D01*
X539750Y-153020D02*
Y-144384D01*
X612394Y-61580D02*
X621030D01*
X612394Y-71740D02*
Y-61580D01*
Y-81900D02*
Y-71740D01*
Y-81900D02*
X621030D01*
X641350D02*
X649986D01*
Y-71740D01*
Y-61580D01*
X641350D02*
X649986D01*
X585470Y-90790D02*
Y-82154D01*
X575310D02*
X585470D01*
X565150D02*
X575310D01*
X565150Y-90790D02*
Y-82154D01*
Y-119746D02*
Y-111110D01*
Y-119746D02*
X575310D01*
X585470D01*
Y-111110D01*
X609600Y17160D02*
Y25796D01*
X599440D02*
X609600D01*
X589280D02*
X599440D01*
X589280Y17160D02*
Y25796D01*
Y-11796D02*
Y-3160D01*
Y-11796D02*
X599440D01*
X609600D01*
Y-3160D01*
X697484Y-28560D02*
X706120D01*
X697484Y-38720D02*
Y-28560D01*
Y-48880D02*
Y-38720D01*
Y-48880D02*
X706120D01*
X726440D02*
X735076D01*
Y-38720D01*
Y-28560D01*
X726440D02*
X735076D01*
X641350Y-53960D02*
X649986D01*
Y-43800D01*
Y-33640D01*
X641350D02*
X649986D01*
X612394D02*
X621030D01*
X612394Y-43800D02*
Y-33640D01*
Y-53960D02*
Y-43800D01*
Y-53960D02*
X621030D01*
X697484Y-3160D02*
X706120D01*
X697484Y-13320D02*
Y-3160D01*
Y-23480D02*
Y-13320D01*
Y-23480D02*
X706120D01*
X726440D02*
X735076D01*
Y-13320D01*
Y-3160D01*
X726440D02*
X735076D01*
X521116Y-52908D02*
Y-43908D01*
X496916D02*
X521116D01*
X496916Y-52908D02*
Y-43908D01*
Y-91908D02*
Y-82908D01*
Y-91908D02*
X521116D01*
Y-82908D01*
X501250Y-186640D02*
X510250D01*
X501250Y-210840D02*
Y-186640D01*
Y-210840D02*
X510250D01*
X540250D02*
X549250D01*
Y-186640D01*
X540250D02*
X549250D01*
X499110Y-174356D02*
Y-165720D01*
Y-174356D02*
X509270D01*
X519430D01*
Y-165720D01*
Y-145400D02*
Y-136764D01*
X509270D02*
X519430D01*
X499110D02*
X509270D01*
X499110Y-145400D02*
Y-136764D01*
D50*
X838798Y-315804D02*
X832873D01*
X835836Y-318766D02*
Y-312841D01*
D51*
X645921Y-275448D02*
D03*
X600709Y-185532D02*
D03*
X713231Y-318120D02*
D03*
X153673Y26812D02*
D03*
D52*
X738124Y-170547D02*
D03*
M02*
