G04 Layer_Color=8421504*
%FSLAX44Y44*%
%MOMM*%
G71*
G01*
G75*
%ADD10R,0.6000X1.2000*%
%ADD11R,0.6000X2.0000*%
%ADD12R,7.3500X2.4000*%
%ADD13R,3.5000X3.5000*%
%ADD14R,2.1590X2.7430*%
%ADD15R,2.7430X2.1590*%
%ADD16R,1.2700X1.6002*%
%ADD17R,1.6002X1.2700*%
%ADD18R,1.8500X1.3000*%
%ADD19O,4.0640X1.5000*%
%ADD20R,4.0640X1.5000*%
%ADD21R,0.5080X1.5240*%
%ADD22R,1.3000X1.8500*%
D10*
X254356Y29152D02*
D03*
X244856D02*
D03*
X235356D02*
D03*
Y4152D02*
D03*
X244856D02*
D03*
X254356D02*
D03*
X192888D02*
D03*
X183388D02*
D03*
X173888D02*
D03*
Y29152D02*
D03*
X183388D02*
D03*
X192888D02*
D03*
D11*
X724916Y-236056D02*
D03*
X737616D02*
D03*
X763016D02*
D03*
X724916Y-187056D02*
D03*
X737616D02*
D03*
X750316D02*
D03*
X763016D02*
D03*
D12*
X306832Y-73446D02*
D03*
Y-127946D02*
D03*
D13*
X624510Y-134970D02*
D03*
X673510D02*
D03*
D14*
X660652Y-275448D02*
D03*
X704852D02*
D03*
X615440Y-185532D02*
D03*
X659640D02*
D03*
X698500Y-318120D02*
D03*
X654300D02*
D03*
X138942Y26812D02*
D03*
X94742D02*
D03*
D15*
X738124Y-155816D02*
D03*
Y-111616D02*
D03*
D16*
X706120Y-65644D02*
D03*
X726440D02*
D03*
X673354Y-240396D02*
D03*
X693674D02*
D03*
X629920Y-240142D02*
D03*
X650240D02*
D03*
X621030Y-71740D02*
D03*
X641350D02*
D03*
X706120Y-38720D02*
D03*
X726440D02*
D03*
X641350Y-43800D02*
D03*
X621030D02*
D03*
X706120Y-13320D02*
D03*
X726440D02*
D03*
D17*
X697484Y-205090D02*
D03*
Y-184770D02*
D03*
X214630Y29860D02*
D03*
Y9540D02*
D03*
X274320Y29860D02*
D03*
Y9540D02*
D03*
X550672Y-111872D02*
D03*
Y-91552D02*
D03*
X509270Y-104760D02*
D03*
Y-125080D02*
D03*
X549910Y-173340D02*
D03*
Y-153020D02*
D03*
X575310Y-90790D02*
D03*
Y-111110D02*
D03*
X599440Y17160D02*
D03*
Y-3160D02*
D03*
X509270Y-165720D02*
D03*
Y-145400D02*
D03*
D18*
X610362Y-347098D02*
D03*
Y-318098D02*
D03*
X509016Y-53408D02*
D03*
Y-82408D02*
D03*
D19*
X753618Y-301610D02*
D03*
D20*
X841248D02*
D03*
D21*
X623570Y31765D02*
D03*
X636270D02*
D03*
X648970D02*
D03*
X661670D02*
D03*
Y-20305D02*
D03*
X648970D02*
D03*
X636270D02*
D03*
X623570D02*
D03*
D22*
X510750Y-198740D02*
D03*
X539750D02*
D03*
M02*
