M48
;Layer_Color=9474304
;FILE_FORMAT=4:4
METRIC,TZ
;TYPE=PLATED
T1F00S00C0.3000
T4F00S00C0.7500
T5F00S00C0.9000
T6F00S00C1.0668
T7F00S00C1.2000
T9F00S00C2.0000
%
T01
X260350Y-346060
X285750
X298450
X311150
X323850
Y-358760
X311150
X298450
X285750
Y-320660
X298450
X311150
X323850
Y-307960
Y-295260
Y-282560
Y-269860
X311150
X298450
X285750
X273050
X260350
Y-257160
X273050
X285750
X298450
X311150
X323850
Y-219060
Y-206360
Y-193660
Y-180960
Y-168260
Y-155560
X312420
X311150Y-142860
Y-130160
Y-117460
X298450
X285750
X273050
Y-130160
X285750
X298450
Y-142860
X285750
X273050
Y-155560
X285750
X298450
Y-168260
X285750
X273050
Y-180960
Y-193660
Y-206360
Y-219060
X285750
Y-206360
Y-193660
Y-180960
X298450
Y-193660
Y-206360
Y-219060
X336550
Y-206360
Y-193660
Y-180960
Y-168260
Y-155560
Y-142860
Y-130160
Y-117460
X323850
Y-130160
Y-142860
X311150Y-282560
Y-295260
Y-307960
X298450
X285750
Y-295260
X298450
Y-282560
X285750
X273050
X260350
Y-295260
Y-307960
Y-320660
Y-333360
X323850
X245110Y-17130
X244856Y-7478
Y17668
X254000Y16906
X262890Y4152
X227584Y-16876
X200914Y4206
X194056Y16906
X192888Y41950
X229000Y42400
X183388Y-7224
X173228Y-16876
X599440Y-19670
X589280Y-41260
X595630Y-90790
X615950Y-86980
X671830Y-30465
X669290Y15890
X679450
X688086Y16144
X645000Y17400
X738124Y-13320
X751840Y-74280
Y-104760
Y-120000
X741680Y-112380
X728980Y-120000
Y-104760
X726440Y-275448
X735076Y-283068
X745490Y-291196
X810260Y-18400
X825500Y45100
T04
X632460Y-218298
X657460
T05
X0Y0
Y25400
X25400
Y0
X50800
Y25400
X800100
Y0
X825500
Y25400
X850900
Y0
T06
X635000Y-338440
X613000Y-263440
T07
X690118Y-87488
X740918
T09
X715518Y25908
M30
