G04 Layer_Physical_Order=2*
G04 Layer_Color=16711680*
%FSLAX44Y44*%
%MOMM*%
G71*
G01*
G75*
%ADD23C,0.5000*%
%ADD24C,0.3000*%
%ADD25C,0.2540*%
%ADD26C,1.0000*%
%ADD29R,1.5000X1.5000*%
%ADD30C,1.5000*%
%ADD31O,4.5000X1.5000*%
%ADD32O,1.5000X4.5000*%
%ADD33O,2.0000X3.0000*%
%ADD34O,3.0000X2.0000*%
%ADD35O,6.0000X3.2000*%
%ADD36O,5.5000X1.5000*%
%ADD37C,2.0000*%
%ADD38R,1.2500X1.2500*%
%ADD39C,1.2500*%
%ADD40C,1.7000*%
%ADD41O,1.5000X6.5000*%
%ADD42O,5.0000X1.5000*%
%ADD43O,2.5000X1.5000*%
%ADD44C,2.0000*%
%ADD45C,0.6000*%
G36*
X554736Y-6869D02*
Y-8748D01*
Y-30846D01*
X554882Y-30992D01*
Y-31100D01*
X554913Y-31177D01*
X552450Y-33640D01*
Y-226426D01*
Y-229220D01*
X554374Y-231144D01*
Y-231252D01*
X554406Y-231329D01*
X554482Y-231360D01*
X580091D01*
X585470Y-236739D01*
Y-250810D01*
Y-257160D01*
X585616Y-257306D01*
Y-257522D01*
X581660Y-261478D01*
X509270D01*
X504698Y-256906D01*
X501650Y-253858D01*
Y-247254D01*
Y-236586D01*
X502920Y-235316D01*
X505968Y-232268D01*
X520192D01*
X520700Y-231760D01*
Y-227696D01*
Y-207376D01*
X495046Y-181722D01*
Y-49896D01*
Y-16114D01*
Y-14336D01*
X495046Y-6107D01*
X499155Y-1998D01*
X549865D01*
X554736Y-6869D01*
D02*
G37*
G36*
X345440Y-116190D02*
Y-203820D01*
Y-222870D01*
X344170Y-224140D01*
X340739Y-227571D01*
X273941D01*
X271780Y-225410D01*
X269240Y-222870D01*
Y-211440D01*
Y-116190D01*
X271780Y-113650D01*
X342900D01*
X345440Y-116190D01*
D02*
G37*
G36*
X331470Y-249540D02*
Y-318120D01*
Y-353680D01*
X328930Y-356220D01*
X323217Y-361933D01*
X266063D01*
X265430Y-361300D01*
X257810Y-353680D01*
Y-280020D01*
Y-247000D01*
X265430Y-239380D01*
X321310D01*
X331470Y-249540D01*
D02*
G37*
G36*
X757936Y-57262D02*
Y-249794D01*
Y-291704D01*
X754126Y-295514D01*
X749300Y-300340D01*
X729996D01*
X725678Y-296022D01*
X719582Y-289926D01*
Y-57262D01*
Y-57008D01*
X721360Y-55230D01*
X755904D01*
X757936Y-57262D01*
D02*
G37*
G36*
X832104Y49672D02*
X836422Y45354D01*
Y11318D01*
Y404D01*
X829941Y-6077D01*
X829941Y-6077D01*
X813057Y-22961D01*
X705866D01*
X704696Y-23194D01*
X703703Y-23857D01*
X703703Y-23857D01*
X702810Y-24750D01*
X699770D01*
X697738Y-26782D01*
X679704Y-44816D01*
X668782D01*
X668528Y-44562D01*
X665480Y-41514D01*
Y-38720D01*
Y16144D01*
Y16652D01*
X671068Y22240D01*
X689864D01*
X698246Y13858D01*
X732790D01*
X754380Y35448D01*
X774954Y56022D01*
X825754D01*
X832104Y49672D01*
D02*
G37*
G36*
X859790Y7508D02*
X859790Y-14986D01*
X851100Y-19000D01*
X839112Y-24538D01*
X822813Y-31289D01*
X819912Y-32370D01*
X819706Y-32576D01*
X814680Y-34658D01*
X814655Y-34683D01*
X810526Y-36393D01*
X802646Y-40749D01*
X795303Y-45959D01*
X789191Y-51420D01*
X717550D01*
X709930Y-59040D01*
X705612Y-63358D01*
Y-84948D01*
Y-93076D01*
X701548Y-97140D01*
X699770Y-98918D01*
X688340D01*
X687070Y-97648D01*
Y-97394D01*
Y-44816D01*
X695960Y-35926D01*
X704973Y-26913D01*
X704973Y-26913D01*
X704973Y-26913D01*
X705653Y-26233D01*
X705889Y-26075D01*
X706167Y-26020D01*
X814324D01*
X815220Y-25124D01*
X832104Y-8240D01*
X832104Y-8240D01*
X832415Y-7929D01*
X832989Y-7489D01*
X833428Y-6916D01*
X838585Y-1759D01*
X838585Y-1759D01*
X838585Y-1759D01*
X840740Y396D01*
Y59070D01*
X859790D01*
Y7508D01*
D02*
G37*
%LPC*%
G36*
X281750Y-337333D02*
X279736Y-337733D01*
X278028Y-338875D01*
X276887Y-340583D01*
X276486Y-342597D01*
X276574D01*
X276625Y-342723D01*
X276750Y-342774D01*
X276875Y-342723D01*
X276927Y-342597D01*
X276949D01*
X277314Y-340760D01*
X278355Y-339202D01*
X279913Y-338161D01*
X281750Y-337796D01*
Y-337774D01*
X281876Y-337723D01*
X281927Y-337597D01*
X281876Y-337472D01*
X281750Y-337420D01*
Y-337333D01*
D02*
G37*
G36*
X800100Y35991D02*
X797359Y35630D01*
X794805Y34572D01*
X792611Y32889D01*
X790928Y30695D01*
X789870Y28141D01*
X789688Y26754D01*
X767494D01*
X765828Y26422D01*
X764416Y25478D01*
X735045Y-3891D01*
X734102Y-5304D01*
X733770Y-6970D01*
Y-9036D01*
X732472Y-10979D01*
X732007Y-13320D01*
X732472Y-15661D01*
X733798Y-17646D01*
X735783Y-18972D01*
X738124Y-19438D01*
X740465Y-18972D01*
X742450Y-17646D01*
X743776Y-15661D01*
X744241Y-13320D01*
X743776Y-10979D01*
X742478Y-9036D01*
Y-8773D01*
X769297Y18046D01*
X792508D01*
X792611Y17911D01*
X794805Y16228D01*
X797359Y15170D01*
X800100Y14809D01*
X802841Y15170D01*
X805395Y16228D01*
X807589Y17911D01*
X809272Y20105D01*
X810330Y22659D01*
X810691Y25400D01*
X810330Y28141D01*
X809272Y30695D01*
X807589Y32889D01*
X805395Y34572D01*
X802841Y35630D01*
X800100Y35991D01*
D02*
G37*
G36*
X810600Y10500D02*
X789600D01*
Y-10500D01*
X810600D01*
Y10500D01*
D02*
G37*
G36*
X276750Y-326421D02*
X276625Y-326472D01*
X276574Y-326597D01*
X276486D01*
X276887Y-328612D01*
X278028Y-330320D01*
X279736Y-331461D01*
X281750Y-331862D01*
Y-331774D01*
X281876Y-331723D01*
X281927Y-331597D01*
X281876Y-331472D01*
X281750Y-331421D01*
Y-331399D01*
X279913Y-331034D01*
X278355Y-329993D01*
X277314Y-328435D01*
X276949Y-326597D01*
X276927D01*
X276875Y-326472D01*
X276750Y-326421D01*
D02*
G37*
%LPD*%
D23*
X825500Y25400D02*
Y43576D01*
Y22400D02*
Y25400D01*
X850900D02*
Y32400D01*
Y0D02*
Y25400D01*
Y-1890D02*
Y0D01*
X825500Y43576D02*
Y45100D01*
X733552Y5730D02*
X780796Y52974D01*
X816102D01*
X828620Y-24170D02*
X850900Y-1890D01*
X271000Y28400D02*
X285000Y42400D01*
X271000Y-3686D02*
Y28400D01*
X249516Y-25170D02*
X271000Y-3686D01*
X285000Y42400D02*
X620000D01*
X634746Y-83678D02*
Y27654D01*
X620000Y42400D02*
X634746Y27654D01*
X645000Y17400D02*
X652780Y9620D01*
Y-52944D02*
Y9620D01*
Y-52944D02*
X687324Y-87488D01*
X595630Y-90790D02*
Y-75550D01*
X589280Y-69200D02*
X595630Y-75550D01*
X589280Y-69200D02*
Y-41260D01*
X751840Y-264272D02*
Y-120000D01*
Y-111110D01*
X634746Y-83678D02*
X652780Y-101712D01*
X687324Y-87488D02*
X690118D01*
X615950Y-86980D02*
Y-36180D01*
X599440Y-19670D02*
X615950Y-36180D01*
X671830Y-30465D02*
X679450Y-22845D01*
Y15890D01*
X740918Y-100188D02*
Y-87488D01*
X679450Y15890D02*
X689610Y5730D01*
X733552D01*
X735076Y-283068D02*
Y-281036D01*
X751840Y-264272D01*
X690118Y-87488D02*
Y-69962D01*
X827273Y-24170D02*
X828620D01*
X802778Y-35164D02*
X805768D01*
X808735Y-32197D01*
X690118Y-69962D02*
X723646Y-36434D01*
X801508D01*
X802778Y-35164D01*
X808735Y-32197D02*
X813578D01*
X817596Y-28179D01*
X823265D01*
X827273Y-24170D01*
X675894Y-101712D02*
X690118Y-87488D01*
X652780Y-101712D02*
X675894D01*
X146950Y-21078D02*
Y-7110D01*
Y-21078D02*
X151042Y-25170D01*
X249516D01*
X740918Y-100188D02*
X751840Y-111110D01*
X816102Y52974D02*
X825500Y43576D01*
D24*
X27600Y-3000D02*
X42600Y12000D01*
X25400Y-3000D02*
X27600D01*
X69600Y12000D02*
X80000Y22400D01*
X42600Y12000D02*
X69600D01*
X80000Y22400D02*
X165702D01*
X80394Y9794D02*
X163830D01*
X67000Y-3600D02*
X80394Y9794D01*
X17600Y-20600D02*
X64000D01*
X67000Y-17600D01*
Y-3600D01*
X0Y-3000D02*
X17600Y-20600D01*
X165702Y22400D02*
X183896Y4206D01*
X163830Y9794D02*
X180848Y-7224D01*
X183896Y4206D02*
X200914D01*
X180848Y-7224D02*
X183388D01*
X262836Y4206D02*
X262890Y4152D01*
X200914Y4206D02*
X262836D01*
X244602Y-7224D02*
X244856Y-7478D01*
X183388Y-7224D02*
X244602D01*
D25*
X767494Y22400D02*
X800100D01*
X50800Y25400D02*
Y27700D01*
Y22400D02*
Y25400D01*
X65050Y41950D02*
X192888D01*
X50800Y27700D02*
X65050Y41950D01*
X25400Y25400D02*
Y27300D01*
Y22400D02*
Y25400D01*
X49500Y51400D02*
X220000D01*
X25400Y27300D02*
X49500Y51400D01*
X738124Y-6970D02*
X767494Y22400D01*
X220000Y51400D02*
X229000Y42400D01*
X227584Y-16876D02*
X245110D01*
X193802Y16906D02*
X194056D01*
X253746Y17160D02*
X254000Y16906D01*
X173228Y-16876D02*
X227584D01*
X738124Y-13320D02*
Y-6970D01*
D26*
X368046Y-167752D02*
Y-107046D01*
X324942Y-63942D02*
X368046Y-107046D01*
X324942Y-63942D02*
Y-16368D01*
X488950Y-338440D02*
X533146Y-294244D01*
X601726D01*
X613000Y-282970D01*
Y-263440D01*
X432054Y-338440D02*
X488950D01*
X416306Y-322692D02*
X432054Y-338440D01*
X416306Y-322692D02*
Y-216012D01*
X368046Y-167752D02*
X416306Y-216012D01*
X524942Y-19668D02*
X527302D01*
X525451Y-242847D02*
X533235D01*
X536194Y-239888D01*
Y-28560D01*
X527302Y-19668D02*
X536194Y-28560D01*
X194056Y17160D02*
X253746D01*
D29*
X0Y0D02*
D03*
X800100D02*
D03*
D30*
X0Y25400D02*
D03*
X25400Y0D02*
D03*
Y25400D02*
D03*
X50800Y0D02*
D03*
Y25400D02*
D03*
X800100D02*
D03*
X825500Y0D02*
D03*
Y25400D02*
D03*
X850900Y0D02*
D03*
Y25400D02*
D03*
D31*
X525451Y-242847D02*
D03*
X292453Y-334605D02*
D03*
X292453Y-249605D02*
D03*
X558448D02*
D03*
X558448Y-334605D02*
D03*
D32*
X379950Y-292097D02*
D03*
X470950D02*
D03*
D33*
X402450Y-136597D02*
D03*
X448451D02*
D03*
D34*
X425451Y-4884D02*
D03*
D35*
X524942Y-19668D02*
D03*
D36*
X424942Y-16368D02*
D03*
X324942D02*
D03*
D37*
X690118Y-87488D02*
D03*
X740918D02*
D03*
D38*
X632460Y-218298D02*
D03*
D39*
X657460D02*
D03*
D40*
X613000Y-263440D02*
D03*
X635000Y-338440D02*
D03*
D41*
X311950Y-194610D02*
D03*
X273950Y-325110D02*
D03*
D42*
X100450Y-7110D02*
D03*
D43*
X146950D02*
D03*
D44*
X715518Y25908D02*
D03*
D45*
X229000Y42400D02*
D03*
X192888Y41950D02*
D03*
X645000Y17400D02*
D03*
X810260Y-18400D02*
D03*
X825500Y45100D02*
D03*
X751840Y-74280D02*
D03*
X728980Y-120000D02*
D03*
X751840D02*
D03*
X741680Y-112380D02*
D03*
X751840Y-104760D02*
D03*
X728980D02*
D03*
X599440Y-19670D02*
D03*
X679450Y15890D02*
D03*
X615950Y-86980D02*
D03*
X589280Y-41260D02*
D03*
X671830Y-30465D02*
D03*
X595630Y-90790D02*
D03*
X254000Y16906D02*
D03*
X194056D02*
D03*
X173228Y-16876D02*
D03*
X183388Y-7224D02*
D03*
X244856Y-7478D02*
D03*
X262890Y4152D02*
D03*
X200914Y4206D02*
D03*
X227584Y-16876D02*
D03*
X245110Y-17130D02*
D03*
X273050Y-117460D02*
D03*
X285750D02*
D03*
X298450D02*
D03*
X311150D02*
D03*
X323850D02*
D03*
X336550D02*
D03*
X273050Y-130160D02*
D03*
X285750D02*
D03*
X298450D02*
D03*
X311150D02*
D03*
X323850D02*
D03*
X336550D02*
D03*
X273050Y-142860D02*
D03*
X298450D02*
D03*
X285750D02*
D03*
X311150D02*
D03*
X323850D02*
D03*
X336550D02*
D03*
X273050Y-155560D02*
D03*
X285750D02*
D03*
X298450D02*
D03*
X312420D02*
D03*
X323850D02*
D03*
X336550D02*
D03*
X273050Y-168260D02*
D03*
X285750D02*
D03*
X298450D02*
D03*
X323850D02*
D03*
X336550D02*
D03*
X273050Y-180960D02*
D03*
Y-193660D02*
D03*
Y-206360D02*
D03*
Y-219060D02*
D03*
X285750D02*
D03*
Y-206360D02*
D03*
Y-193660D02*
D03*
Y-180960D02*
D03*
X298450D02*
D03*
Y-193660D02*
D03*
Y-206360D02*
D03*
Y-219060D02*
D03*
X323850D02*
D03*
Y-206360D02*
D03*
Y-193660D02*
D03*
Y-180960D02*
D03*
X336550D02*
D03*
Y-193660D02*
D03*
Y-206360D02*
D03*
Y-219060D02*
D03*
X260350Y-257160D02*
D03*
Y-269860D02*
D03*
Y-282560D02*
D03*
Y-295260D02*
D03*
Y-307960D02*
D03*
Y-320660D02*
D03*
Y-333360D02*
D03*
Y-346060D02*
D03*
X273050Y-269860D02*
D03*
X285750D02*
D03*
X298450D02*
D03*
X311150D02*
D03*
X323850D02*
D03*
Y-282560D02*
D03*
Y-295260D02*
D03*
Y-307960D02*
D03*
Y-320660D02*
D03*
Y-333360D02*
D03*
Y-346060D02*
D03*
Y-358760D02*
D03*
X311150D02*
D03*
Y-346060D02*
D03*
X298450D02*
D03*
Y-358760D02*
D03*
X285750Y-346060D02*
D03*
Y-358760D02*
D03*
X311150Y-320660D02*
D03*
X298450D02*
D03*
X285750D02*
D03*
X311150Y-307960D02*
D03*
X298450D02*
D03*
X285750D02*
D03*
X311150Y-295260D02*
D03*
X298450D02*
D03*
X285750D02*
D03*
X311150Y-282560D02*
D03*
X298450D02*
D03*
X285750D02*
D03*
X273050D02*
D03*
X323850Y-257160D02*
D03*
X273050D02*
D03*
X285750D02*
D03*
X298450D02*
D03*
X311150D02*
D03*
X726440Y-275448D02*
D03*
X745490Y-291196D02*
D03*
X735076Y-283068D02*
D03*
X244856Y17668D02*
D03*
X669290Y15890D02*
D03*
X688086Y16144D02*
D03*
X738124Y-13320D02*
D03*
M02*
