G04 Layer_Color=16711935*
%FSLAX44Y44*%
%MOMM*%
G71*
G01*
G75*
%ADD53C,6.0000*%
%ADD67R,1.7032X1.7032*%
%ADD68C,1.7032*%
%ADD69O,4.7032X1.7032*%
%ADD70O,1.7032X4.7032*%
%ADD71O,2.2032X3.2032*%
%ADD72O,3.2032X2.2032*%
%ADD73O,6.2032X3.4032*%
%ADD74O,5.7032X1.7032*%
%ADD75C,2.2032*%
%ADD76R,1.4532X1.4532*%
%ADD77C,1.4532*%
%ADD78C,1.9032*%
%ADD79O,1.7032X6.7032*%
%ADD80O,5.2032X1.7032*%
%ADD81O,2.7032X1.7032*%
%ADD82C,3.0000*%
G36*
X321818Y-241158D02*
X328930Y-248270D01*
Y-322438D01*
Y-354188D01*
X328676Y-354442D01*
X322834Y-360284D01*
X268732D01*
X266446Y-357998D01*
X260096Y-351648D01*
Y-260970D01*
Y-247762D01*
X266954Y-240904D01*
X279146D01*
X321818Y-241158D01*
D02*
G37*
G36*
X547624Y-224140D02*
X554374Y-230890D01*
Y-231252D01*
X554406Y-231329D01*
X554482Y-231360D01*
X580091D01*
X585616Y-236885D01*
Y-257522D01*
X582422Y-260716D01*
X510032D01*
X505714Y-256398D01*
X502158Y-252842D01*
Y-243952D01*
Y-237602D01*
X504952Y-234808D01*
X506476Y-233284D01*
X519938D01*
X521970Y-231252D01*
Y-220584D01*
X547624Y-224140D01*
D02*
G37*
G36*
X328930Y-153020D02*
X334010Y-158100D01*
Y-198740D01*
Y-224140D01*
X330308Y-227842D01*
X294532D01*
X285750Y-219060D01*
Y-155560D01*
X290830Y-150480D01*
X326390D01*
X328930Y-153020D01*
D02*
G37*
D53*
X293116Y-329296D02*
Y-272400D01*
Y-329296D02*
X293370Y-329550D01*
D67*
X0Y0D02*
D03*
X800100D02*
D03*
D68*
X0Y25400D02*
D03*
X25400Y0D02*
D03*
Y25400D02*
D03*
X50800Y0D02*
D03*
Y25400D02*
D03*
X800100D02*
D03*
X825500Y0D02*
D03*
Y25400D02*
D03*
X850900Y0D02*
D03*
Y25400D02*
D03*
D69*
X525451Y-242847D02*
D03*
X292453Y-334605D02*
D03*
X292453Y-249605D02*
D03*
X558448D02*
D03*
X558448Y-334605D02*
D03*
D70*
X379950Y-292097D02*
D03*
X470950D02*
D03*
D71*
X402450Y-136597D02*
D03*
X448451D02*
D03*
D72*
X425451Y-4884D02*
D03*
D73*
X524942Y-19668D02*
D03*
D74*
X424942Y-16368D02*
D03*
X324942D02*
D03*
D75*
X690118Y-87488D02*
D03*
X740918D02*
D03*
D76*
X632460Y-218298D02*
D03*
D77*
X657460D02*
D03*
D78*
X613000Y-263440D02*
D03*
X635000Y-338440D02*
D03*
D79*
X311950Y-194610D02*
D03*
X273950Y-325110D02*
D03*
D80*
X100450Y-7110D02*
D03*
D81*
X146950D02*
D03*
D82*
X536956Y-226680D02*
Y-175118D01*
X525526Y-163688D02*
X536956Y-175118D01*
X525526Y-163688D02*
Y-24242D01*
X525018Y-23734D02*
X525526Y-24242D01*
M02*
