G04 Layer_Physical_Order=1*
G04 Layer_Color=255*
%FSLAX44Y44*%
%MOMM*%
G71*
G01*
G75*
%ADD10R,1.6002X1.2700*%
%ADD11R,1.2700X1.6002*%
%ADD12R,1.5240X0.5080*%
%ADD13C,1.0000*%
%ADD14C,0.5000*%
%ADD15O,1.7000X2.3000*%
%ADD16R,1.7000X2.3000*%
%ADD17O,1.6510X2.2860*%
%ADD18R,1.6510X2.2860*%
%ADD19C,1.7780*%
%ADD20C,2.2098*%
%ADD21R,1.5240X2.2860*%
%ADD22O,1.5240X2.2860*%
%ADD23O,3.0000X2.0000*%
%ADD24R,2.0000X3.0000*%
%ADD25O,2.0000X3.0000*%
%ADD26R,1.5000X1.5000*%
%ADD27C,1.5000*%
%ADD28R,1.5000X1.5000*%
%ADD29R,1.4000X1.4000*%
%ADD30C,1.4000*%
%ADD31C,1.6510*%
%ADD32O,1.6510X2.0320*%
%ADD33O,2.3000X1.7000*%
%ADD34R,2.3000X1.7000*%
%ADD35C,3.0000*%
%ADD36C,2.0000*%
%ADD37O,1.3000X1.5000*%
%ADD38C,1.8000*%
%ADD39O,2.0320X1.2700*%
%ADD40R,1.8000X1.8000*%
%ADD41C,0.6000*%
%ADD42C,1.0000*%
%ADD43C,1.2000*%
G36*
X681051Y-367500D02*
X681001Y-367025D01*
X680850Y-366600D01*
X680598Y-366225D01*
X680246Y-365900D01*
X679793Y-365625D01*
X679240Y-365400D01*
X678586Y-365225D01*
X677831Y-365100D01*
X676976Y-365025D01*
X676021Y-365000D01*
Y-360000D01*
X676976Y-359975D01*
X677831Y-359900D01*
X678586Y-359775D01*
X679240Y-359600D01*
X679793Y-359375D01*
X680246Y-359100D01*
X680598Y-358775D01*
X680850Y-358400D01*
X681001Y-357975D01*
X681051Y-357500D01*
Y-367500D01*
D02*
G37*
G36*
X754685Y-370521D02*
X754260Y-370671D01*
X753885Y-370920D01*
X753560Y-371270D01*
X753285Y-371721D01*
X753060Y-372271D01*
X752885Y-372920D01*
X752760Y-373671D01*
X752685Y-374520D01*
X752660Y-375471D01*
X747660D01*
X747635Y-374520D01*
X747560Y-373671D01*
X747435Y-372920D01*
X747260Y-372271D01*
X747035Y-371721D01*
X746760Y-371270D01*
X746435Y-370920D01*
X746060Y-370671D01*
X745635Y-370521D01*
X745160Y-370471D01*
X755160D01*
X754685Y-370521D01*
D02*
G37*
G36*
X723551Y-367500D02*
X723501Y-367025D01*
X723350Y-366600D01*
X723098Y-366225D01*
X722746Y-365900D01*
X722293Y-365625D01*
X721740Y-365400D01*
X721086Y-365225D01*
X720331Y-365100D01*
X719476Y-365025D01*
X718750Y-365006D01*
X718024Y-365025D01*
X717169Y-365100D01*
X716414Y-365225D01*
X715760Y-365400D01*
X715207Y-365625D01*
X714754Y-365900D01*
X714402Y-366225D01*
X714150Y-366600D01*
X713999Y-367025D01*
X713949Y-367500D01*
Y-357500D01*
X713999Y-357975D01*
X714150Y-358400D01*
X714402Y-358775D01*
X714754Y-359100D01*
X715207Y-359375D01*
X715760Y-359600D01*
X716414Y-359775D01*
X717169Y-359900D01*
X718024Y-359975D01*
X718750Y-359994D01*
X719476Y-359975D01*
X720331Y-359900D01*
X721086Y-359775D01*
X721740Y-359600D01*
X722293Y-359375D01*
X722746Y-359100D01*
X723098Y-358775D01*
X723350Y-358400D01*
X723501Y-357975D01*
X723551Y-357500D01*
Y-367500D01*
D02*
G37*
G36*
X850025Y-360190D02*
X850223Y-362214D01*
X850397Y-363036D01*
X850620Y-363731D01*
X850893Y-364301D01*
X851216Y-364743D01*
X851588Y-365059D01*
X852009Y-365249D01*
X852481Y-365312D01*
X842519D01*
X842991Y-365249D01*
X843412Y-365059D01*
X843784Y-364743D01*
X844107Y-364301D01*
X844380Y-363731D01*
X844603Y-363036D01*
X844777Y-362214D01*
X844901Y-361265D01*
X844975Y-360190D01*
X845000Y-358989D01*
X850000D01*
X850025Y-360190D01*
D02*
G37*
G36*
X723551Y-395000D02*
X723501Y-394525D01*
X723350Y-394100D01*
X723098Y-393725D01*
X722746Y-393400D01*
X722293Y-393125D01*
X721740Y-392900D01*
X721086Y-392725D01*
X720331Y-392600D01*
X719476Y-392525D01*
X718750Y-392506D01*
X718024Y-392525D01*
X717169Y-392600D01*
X716414Y-392725D01*
X715760Y-392900D01*
X715207Y-393125D01*
X714754Y-393400D01*
X714402Y-393725D01*
X714150Y-394100D01*
X713999Y-394525D01*
X713949Y-395000D01*
Y-385000D01*
X713999Y-385475D01*
X714150Y-385900D01*
X714402Y-386275D01*
X714754Y-386600D01*
X715207Y-386875D01*
X715760Y-387100D01*
X716414Y-387275D01*
X717169Y-387400D01*
X718024Y-387475D01*
X718750Y-387494D01*
X719476Y-387475D01*
X720331Y-387400D01*
X721086Y-387275D01*
X721740Y-387100D01*
X722293Y-386875D01*
X722746Y-386600D01*
X723098Y-386275D01*
X723350Y-385900D01*
X723501Y-385475D01*
X723551Y-385000D01*
Y-395000D01*
D02*
G37*
G36*
X681051D02*
X681001Y-394525D01*
X680850Y-394100D01*
X680598Y-393725D01*
X680246Y-393400D01*
X679793Y-393125D01*
X679240Y-392900D01*
X678586Y-392725D01*
X677831Y-392600D01*
X676976Y-392525D01*
X676021Y-392500D01*
Y-387500D01*
X676976Y-387475D01*
X677831Y-387400D01*
X678586Y-387275D01*
X679240Y-387100D01*
X679793Y-386875D01*
X680246Y-386600D01*
X680598Y-386275D01*
X680850Y-385900D01*
X681001Y-385475D01*
X681051Y-385000D01*
Y-395000D01*
D02*
G37*
G36*
X813906Y-380000D02*
X813856Y-379525D01*
X813705Y-379100D01*
X813453Y-378725D01*
X813101Y-378400D01*
X812648Y-378125D01*
X812095Y-377900D01*
X811441Y-377725D01*
X810686Y-377600D01*
X809831Y-377525D01*
X808876Y-377500D01*
Y-372500D01*
X809831Y-372475D01*
X810686Y-372400D01*
X811441Y-372275D01*
X812095Y-372100D01*
X812648Y-371875D01*
X813101Y-371600D01*
X813453Y-371275D01*
X813705Y-370900D01*
X813856Y-370475D01*
X813906Y-370000D01*
Y-380000D01*
D02*
G37*
G36*
X752928Y-376768D02*
X752808Y-379129D01*
X752885Y-379595D01*
X753060Y-380249D01*
X753285Y-380802D01*
X753560Y-381255D01*
X753885Y-381607D01*
X754260Y-381859D01*
X754685Y-382010D01*
X755160Y-382060D01*
X745160D01*
X745635Y-382010D01*
X746060Y-381859D01*
X746435Y-381607D01*
X746760Y-381255D01*
X747035Y-380802D01*
X747260Y-380249D01*
X747435Y-379595D01*
X747560Y-378840D01*
X747635Y-377985D01*
X747660Y-377029D01*
X748513D01*
X747660Y-376000D01*
X750160D01*
X752928Y-376768D01*
D02*
G37*
G36*
X583525Y-299499D02*
X583100Y-299650D01*
X582725Y-299902D01*
X582400Y-300254D01*
X582125Y-300707D01*
X581900Y-301260D01*
X581725Y-301914D01*
X581600Y-302668D01*
X581525Y-303524D01*
X581500Y-304480D01*
X576500D01*
X576475Y-303524D01*
X576400Y-302668D01*
X576275Y-301914D01*
X576100Y-301260D01*
X575875Y-300707D01*
X575600Y-300254D01*
X575275Y-299902D01*
X574900Y-299650D01*
X574475Y-299499D01*
X574000Y-299449D01*
X584000D01*
X583525Y-299499D01*
D02*
G37*
G36*
X960140Y-252734D02*
X962083Y-254431D01*
X962988Y-255120D01*
X963848Y-255704D01*
X964663Y-256181D01*
X965434Y-256552D01*
X966161Y-256817D01*
X966842Y-256976D01*
X967479Y-257029D01*
X954840D01*
X955279Y-256994D01*
X955597Y-256888D01*
X955794Y-256711D01*
X955871Y-256464D01*
X955827Y-256146D01*
X955662Y-255757D01*
X955377Y-255297D01*
X954971Y-254767D01*
X954445Y-254166D01*
X953798Y-253494D01*
X959102Y-251726D01*
X960140Y-252734D01*
D02*
G37*
G36*
X576231Y-263661D02*
X576941Y-264266D01*
X577651Y-264800D01*
X578359Y-265263D01*
X579067Y-265655D01*
X579773Y-265976D01*
X580479Y-266226D01*
X581184Y-266405D01*
X581888Y-266514D01*
X582592Y-266551D01*
X571030Y-266520D01*
X571176Y-266485D01*
X571232Y-266379D01*
X571199Y-266202D01*
X571075Y-265955D01*
X570862Y-265637D01*
X570559Y-265248D01*
X569684Y-264258D01*
X568449Y-262985D01*
X575520D01*
X576231Y-263661D01*
D02*
G37*
G36*
X196391Y-239128D02*
X196183Y-239486D01*
X195999Y-239922D01*
X195840Y-240438D01*
X195706Y-241032D01*
X195596Y-241705D01*
X195449Y-243287D01*
X195400Y-245185D01*
X185400D01*
X185388Y-244197D01*
X185204Y-241705D01*
X185094Y-241032D01*
X184960Y-240438D01*
X184801Y-239922D01*
X184617Y-239486D01*
X184409Y-239128D01*
X184177Y-238849D01*
X196623D01*
X196391Y-239128D01*
D02*
G37*
G36*
X946871Y-237815D02*
X946750Y-238290D01*
X946765Y-238831D01*
X946917Y-239438D01*
X947206Y-240112D01*
X947630Y-240853D01*
X948192Y-241659D01*
X948890Y-242533D01*
X950695Y-244478D01*
X947652Y-248506D01*
X946602Y-247491D01*
X944730Y-245900D01*
X943909Y-245324D01*
X943164Y-244894D01*
X942495Y-244611D01*
X941902Y-244473D01*
X941385Y-244483D01*
X940945Y-244638D01*
X940581Y-244940D01*
X947129Y-237407D01*
X946871Y-237815D01*
D02*
G37*
G36*
X945365Y-273020D02*
X944940Y-273171D01*
X944565Y-273421D01*
X944240Y-273771D01*
X943965Y-274221D01*
X943740Y-274771D01*
X943565Y-275420D01*
X943440Y-276171D01*
X943365Y-277020D01*
X943340Y-277971D01*
X938340D01*
X938315Y-277020D01*
X938240Y-276171D01*
X938115Y-275420D01*
X937940Y-274771D01*
X937715Y-274221D01*
X937440Y-273771D01*
X937115Y-273421D01*
X936740Y-273171D01*
X936315Y-273020D01*
X935840Y-272971D01*
X945840D01*
X945365Y-273020D01*
D02*
G37*
G36*
X557025Y-298999D02*
X556600Y-299150D01*
X556225Y-299402D01*
X555900Y-299754D01*
X555625Y-300207D01*
X555400Y-300760D01*
X555225Y-301414D01*
X555100Y-302169D01*
X555025Y-303024D01*
X555000Y-303979D01*
X550000D01*
X549975Y-303024D01*
X549900Y-302169D01*
X549775Y-301414D01*
X549600Y-300760D01*
X549375Y-300207D01*
X549100Y-299754D01*
X548775Y-299402D01*
X548400Y-299150D01*
X547975Y-298999D01*
X547500Y-298949D01*
X557500D01*
X557025Y-298999D01*
D02*
G37*
G36*
X547135Y-263404D02*
X548878Y-264867D01*
X549668Y-265411D01*
X550402Y-265830D01*
X551082Y-266124D01*
X551707Y-266293D01*
X552276Y-266338D01*
X552791Y-266257D01*
X553251Y-266051D01*
X544560Y-271441D01*
X544914Y-271128D01*
X545110Y-270728D01*
X545148Y-270241D01*
X545028Y-269665D01*
X544750Y-269002D01*
X544315Y-268251D01*
X543721Y-267412D01*
X542970Y-266486D01*
X540994Y-264369D01*
X546180Y-262485D01*
X547135Y-263404D01*
D02*
G37*
G36*
X308000Y-217000D02*
X308000Y-221000D01*
Y-252000D01*
X284000Y-276000D01*
X237000Y-276000D01*
X228000Y-285000D01*
Y-313000D01*
Y-354000D01*
X229000Y-355000D01*
X232000Y-358000D01*
X254000D01*
X258000Y-362000D01*
X264000Y-368000D01*
Y-376000D01*
Y-410000D01*
X252000Y-422000D01*
Y-431000D01*
Y-439000D01*
X250000Y-441000D01*
X247000Y-444000D01*
X236000D01*
X233000Y-441000D01*
X229000Y-437000D01*
Y-434000D01*
Y-415000D01*
X238000Y-406000D01*
X244000Y-400000D01*
Y-400000D01*
Y-384000D01*
X242000Y-382000D01*
X238000Y-378000D01*
X199000D01*
X195000Y-374000D01*
Y-371000D01*
Y-360000D01*
X202000Y-353000D01*
X210000Y-345000D01*
Y-245000D01*
Y-228000D01*
X212000Y-226000D01*
X219000Y-219000D01*
X226000Y-212000D01*
X303000D01*
X308000Y-217000D01*
D02*
G37*
G36*
X290100Y-376900D02*
X290400Y-378600D01*
X290900Y-380100D01*
X291600Y-381400D01*
X292500Y-382500D01*
X293600Y-383400D01*
X294900Y-384100D01*
X296400Y-384600D01*
X298100Y-384900D01*
X300000Y-385000D01*
Y-395000D01*
X298100Y-395100D01*
X296400Y-395400D01*
X294900Y-395900D01*
X293600Y-396600D01*
X292500Y-397500D01*
X291600Y-398600D01*
X290900Y-399900D01*
X290400Y-401400D01*
X290100Y-403100D01*
X290000Y-405000D01*
X280000Y-390000D01*
X290000Y-375000D01*
X290100Y-376900D01*
D02*
G37*
G36*
X344128Y-504009D02*
X344486Y-504217D01*
X344922Y-504401D01*
X345438Y-504560D01*
X346032Y-504694D01*
X346705Y-504804D01*
X348287Y-504951D01*
X350185Y-505000D01*
Y-515000D01*
X349197Y-515012D01*
X346705Y-515196D01*
X346032Y-515306D01*
X345438Y-515440D01*
X344922Y-515599D01*
X344486Y-515783D01*
X344128Y-515991D01*
X343849Y-516223D01*
Y-503777D01*
X344128Y-504009D01*
D02*
G37*
G36*
X633877Y-512132D02*
X633588Y-512509D01*
X633333Y-512914D01*
X633112Y-513348D01*
X632925Y-513810D01*
X632772Y-514302D01*
X632653Y-514822D01*
X632568Y-515371D01*
X632517Y-515948D01*
X632500Y-516554D01*
X627500D01*
X627483Y-515948D01*
X627432Y-515371D01*
X627347Y-514822D01*
X627228Y-514302D01*
X627075Y-513810D01*
X626888Y-513348D01*
X626667Y-512914D01*
X626412Y-512509D01*
X626123Y-512132D01*
X625800Y-511785D01*
X634200D01*
X633877Y-512132D01*
D02*
G37*
G36*
X-137490Y-483208D02*
X-137410Y-484175D01*
X-137340Y-484605D01*
X-137250Y-484999D01*
X-137140Y-485357D01*
X-137010Y-485679D01*
X-136860Y-485965D01*
X-136690Y-486215D01*
X-136500Y-486429D01*
X-143500D01*
X-143310Y-486215D01*
X-143140Y-485965D01*
X-142990Y-485679D01*
X-142860Y-485357D01*
X-142750Y-484999D01*
X-142660Y-484605D01*
X-142590Y-484175D01*
X-142540Y-483710D01*
X-142500Y-482670D01*
X-137500D01*
X-137490Y-483208D01*
D02*
G37*
G36*
X919829Y-489266D02*
X920058Y-492332D01*
X920258Y-493778D01*
X920831Y-496497D01*
X921203Y-497770D01*
X921632Y-498985D01*
X922119Y-500143D01*
X922663Y-501243D01*
X906937D01*
X907481Y-500143D01*
X907968Y-498985D01*
X908397Y-497770D01*
X908770Y-496497D01*
X909342Y-493778D01*
X909542Y-492332D01*
X909771Y-489266D01*
X909800Y-487647D01*
X919800D01*
X919829Y-489266D01*
D02*
G37*
G36*
X183489Y-538583D02*
X182217Y-539895D01*
X180048Y-542390D01*
X179150Y-543573D01*
X178377Y-544713D01*
X177728Y-545810D01*
X177203Y-546864D01*
X176803Y-547875D01*
X176527Y-548843D01*
X176376Y-549768D01*
X167512Y-540494D01*
X167561Y-540430D01*
X167753Y-540225D01*
X174417Y-533512D01*
X183489Y-538583D01*
D02*
G37*
G36*
X74505Y-552656D02*
X74084Y-552864D01*
X73713Y-553209D01*
X73391Y-553693D01*
X73119Y-554315D01*
X72896Y-555075D01*
X72723Y-555974D01*
X72599Y-557011D01*
X72525Y-558186D01*
X72500Y-559499D01*
X67500D01*
X67475Y-558186D01*
X67277Y-555974D01*
X67104Y-555075D01*
X66881Y-554315D01*
X66609Y-553693D01*
X66287Y-553209D01*
X65916Y-552864D01*
X65495Y-552656D01*
X65024Y-552587D01*
X74976D01*
X74505Y-552656D01*
D02*
G37*
G36*
X329000Y-64000D02*
X330000Y-65000D01*
Y-71000D01*
Y-107000D01*
X325000Y-112000D01*
X312000Y-125000D01*
X80000D01*
X59000Y-146000D01*
X45000Y-160000D01*
X18000D01*
X-2000Y-180000D01*
X-11000Y-189000D01*
Y-203000D01*
Y-366000D01*
X-26000Y-381000D01*
X-30000Y-385000D01*
X-85000D01*
X-92000Y-392000D01*
X-97000Y-397000D01*
Y-452000D01*
Y-508000D01*
X-92000Y-513000D01*
X-89000Y-516000D01*
X-65000D01*
X-61000Y-520000D01*
Y-539000D01*
X-65000Y-543000D01*
X-108000D01*
X-118000Y-533000D01*
X-120000Y-531000D01*
Y-478000D01*
Y-470798D01*
X-119895Y-470000D01*
X-120000Y-469202D01*
Y-380000D01*
X-112000Y-372000D01*
X-111000Y-371000D01*
X-50000D01*
X-43000Y-364000D01*
X-31000Y-352000D01*
Y-180000D01*
Y-173000D01*
X1000Y-141000D01*
X2000Y-140000D01*
X43000D01*
X52000Y-131000D01*
X75000Y-108000D01*
X306000D01*
X310000Y-104000D01*
Y-75000D01*
Y-65000D01*
X313000Y-62000D01*
X327000D01*
X329000Y-64000D01*
D02*
G37*
G36*
X462081Y-531984D02*
X462817Y-532617D01*
X463558Y-533176D01*
X464303Y-533660D01*
X465052Y-534069D01*
X465806Y-534404D01*
X466564Y-534665D01*
X467327Y-534851D01*
X468094Y-534963D01*
X468865Y-535000D01*
Y-540000D01*
X468094Y-540037D01*
X467327Y-540149D01*
X466564Y-540335D01*
X465806Y-540596D01*
X465052Y-540931D01*
X464303Y-541340D01*
X463558Y-541824D01*
X462817Y-542383D01*
X462081Y-543016D01*
X461349Y-543723D01*
Y-531277D01*
X462081Y-531984D01*
D02*
G37*
G36*
X305000Y-457500D02*
X295000Y-472500D01*
X294900Y-470600D01*
X294600Y-468900D01*
X294100Y-467400D01*
X293400Y-466100D01*
X292500Y-465000D01*
X291400Y-464100D01*
X290100Y-463400D01*
X288600Y-462900D01*
X286900Y-462600D01*
X285000Y-462500D01*
Y-452500D01*
X286900Y-452400D01*
X288600Y-452100D01*
X290100Y-451600D01*
X291400Y-450900D01*
X292500Y-450000D01*
X293400Y-448900D01*
X294100Y-447600D01*
X294600Y-446100D01*
X294900Y-444400D01*
X295000Y-442500D01*
X305000Y-457500D01*
D02*
G37*
G36*
X450273Y-403985D02*
X452165Y-405617D01*
X452719Y-406015D01*
X453234Y-406340D01*
X453711Y-406592D01*
X454149Y-406771D01*
X454549Y-406877D01*
X454911Y-406911D01*
X446110Y-415711D01*
X446077Y-415349D01*
X445971Y-414949D01*
X445792Y-414511D01*
X445540Y-414034D01*
X445215Y-413519D01*
X444817Y-412965D01*
X443802Y-411742D01*
X442495Y-410366D01*
X449566Y-403295D01*
X450273Y-403985D01*
D02*
G37*
G36*
X593016Y-435981D02*
X592383Y-436717D01*
X591824Y-437458D01*
X591340Y-438203D01*
X590931Y-438952D01*
X590596Y-439706D01*
X590335Y-440465D01*
X590149Y-441227D01*
X590037Y-441994D01*
X590000Y-442765D01*
X585000D01*
X584963Y-441994D01*
X584851Y-441227D01*
X584665Y-440465D01*
X584404Y-439706D01*
X584069Y-438952D01*
X583660Y-438203D01*
X583176Y-437458D01*
X582617Y-436717D01*
X581984Y-435981D01*
X581277Y-435249D01*
X593723D01*
X593016Y-435981D01*
D02*
G37*
G36*
X190100Y-379400D02*
X190400Y-381100D01*
X190900Y-382600D01*
X191600Y-383900D01*
X192500Y-385000D01*
X193600Y-385900D01*
X194900Y-386600D01*
X196400Y-387100D01*
X198100Y-387400D01*
X200000Y-387500D01*
Y-397500D01*
X198100Y-397600D01*
X196400Y-397900D01*
X194900Y-398400D01*
X193600Y-399100D01*
X192500Y-400000D01*
X191600Y-401100D01*
X190900Y-402400D01*
X190400Y-403900D01*
X190100Y-405600D01*
X190000Y-407500D01*
X180000D01*
X179900Y-405600D01*
X179600Y-403900D01*
X179100Y-402400D01*
X178400Y-401100D01*
X177500Y-400000D01*
X176400Y-399100D01*
X175100Y-398400D01*
X173600Y-397900D01*
X171900Y-397600D01*
X170000Y-397500D01*
Y-387500D01*
X171900Y-387400D01*
X173600Y-387100D01*
X175100Y-386600D01*
X176400Y-385900D01*
X177500Y-385000D01*
X178400Y-383900D01*
X179100Y-382600D01*
X179600Y-381100D01*
X179900Y-379400D01*
X180000Y-377500D01*
X190000D01*
X190100Y-379400D01*
D02*
G37*
G36*
X65005Y-407866D02*
X64315Y-408573D01*
X62683Y-410465D01*
X62285Y-411019D01*
X61960Y-411534D01*
X61708Y-412011D01*
X61529Y-412449D01*
X61423Y-412849D01*
X61389Y-413211D01*
X52589Y-404411D01*
X52951Y-404377D01*
X53351Y-404271D01*
X53789Y-404092D01*
X54266Y-403840D01*
X54781Y-403515D01*
X55335Y-403117D01*
X56558Y-402102D01*
X57934Y-400795D01*
X65005Y-407866D01*
D02*
G37*
G36*
X344128Y-449009D02*
X344486Y-449217D01*
X344922Y-449401D01*
X345438Y-449560D01*
X346032Y-449694D01*
X346705Y-449804D01*
X348287Y-449951D01*
X350185Y-450000D01*
Y-460000D01*
X349197Y-460012D01*
X346705Y-460196D01*
X346032Y-460306D01*
X345438Y-460440D01*
X344922Y-460599D01*
X344486Y-460783D01*
X344128Y-460991D01*
X343849Y-461223D01*
Y-448777D01*
X344128Y-449009D01*
D02*
G37*
G36*
X-124990Y-463208D02*
X-124910Y-464175D01*
X-124840Y-464605D01*
X-124750Y-464999D01*
X-124640Y-465357D01*
X-124510Y-465679D01*
X-124360Y-465965D01*
X-124190Y-466215D01*
X-124000Y-466429D01*
X-131000D01*
X-130810Y-466215D01*
X-130640Y-465965D01*
X-130490Y-465679D01*
X-130360Y-465357D01*
X-130250Y-464999D01*
X-130160Y-464605D01*
X-130090Y-464175D01*
X-130040Y-463710D01*
X-130000Y-462670D01*
X-125000D01*
X-124990Y-463208D01*
D02*
G37*
G36*
X623793Y-435258D02*
X623754Y-435526D01*
X623807Y-435850D01*
X623951Y-436230D01*
X624188Y-436665D01*
X624516Y-437156D01*
X624936Y-437702D01*
X626051Y-438962D01*
X626747Y-439676D01*
X618022Y-445093D01*
X612388Y-436173D01*
X623924Y-435046D01*
X623793Y-435258D01*
D02*
G37*
G36*
X459000Y-251000D02*
X466000Y-258000D01*
Y-283000D01*
Y-355000D01*
X473000Y-362000D01*
X503000Y-392000D01*
Y-436000D01*
Y-443000D01*
X498000Y-448000D01*
X497000Y-449000D01*
X479000D01*
X475000Y-445000D01*
X471000Y-441000D01*
Y-421000D01*
Y-406000D01*
X460000Y-395000D01*
X443000Y-378000D01*
Y-317000D01*
Y-286000D01*
X435000Y-278000D01*
X434000Y-277000D01*
X413000D01*
X402000Y-288000D01*
X385000Y-305000D01*
X326000D01*
X322000Y-301000D01*
Y-279000D01*
X326000Y-275000D01*
Y-275000D01*
X345000Y-256000D01*
X358000Y-243000D01*
X451000D01*
X459000Y-251000D01*
D02*
G37*
G36*
X583727Y-59649D02*
X582757Y-60609D01*
X579084Y-63855D01*
X578829Y-63976D01*
X578676Y-63978D01*
X578624Y-63860D01*
X574330Y-58871D01*
X574647Y-59144D01*
X575024Y-59294D01*
X575461Y-59323D01*
X575957Y-59230D01*
X576513Y-59015D01*
X577129Y-58679D01*
X577805Y-58220D01*
X578541Y-57640D01*
X579336Y-56937D01*
X580191Y-56113D01*
X583727Y-59649D01*
D02*
G37*
G36*
X531554Y-58850D02*
Y-63850D01*
X526554Y-63860D01*
Y-58840D01*
X531554Y-58850D01*
D02*
G37*
G36*
X563446Y-51160D02*
X559350Y-51150D01*
Y-46150D01*
X563446Y-46140D01*
Y-51160D01*
D02*
G37*
G36*
X503021Y-44125D02*
X503171Y-44550D01*
X503420Y-44925D01*
X503770Y-45250D01*
X504221Y-45525D01*
X504771Y-45750D01*
X505420Y-45925D01*
X506171Y-46050D01*
X507020Y-46125D01*
X507863Y-46147D01*
X511376Y-46140D01*
Y-51160D01*
X507172Y-51151D01*
X502971Y-51160D01*
Y-43650D01*
X503021Y-44125D01*
D02*
G37*
G36*
X593821Y-71449D02*
X600000D01*
X599525Y-71499D01*
X599100Y-71650D01*
X598725Y-71902D01*
X598400Y-72254D01*
X598125Y-72707D01*
X597900Y-73260D01*
X597725Y-73914D01*
X597600Y-74668D01*
X597525Y-75524D01*
X597500Y-76480D01*
X592500D01*
X592475Y-75524D01*
X592400Y-74668D01*
X592275Y-73914D01*
X592100Y-73260D01*
X591875Y-72707D01*
X591653Y-72342D01*
X591471Y-72477D01*
X590198Y-73561D01*
X588680Y-75015D01*
X584342Y-72282D01*
X585046Y-71563D01*
X586582Y-69791D01*
X586902Y-69329D01*
X587125Y-68932D01*
X587253Y-68600D01*
X587285Y-68332D01*
X587220Y-68128D01*
X587060Y-67990D01*
X593821Y-71449D01*
D02*
G37*
G36*
X472025Y-71499D02*
X471600Y-71650D01*
X471225Y-71902D01*
X470900Y-72254D01*
X470625Y-72707D01*
X470400Y-73260D01*
X470225Y-73914D01*
X470100Y-74668D01*
X470025Y-75524D01*
X470000Y-76480D01*
X465000D01*
X464975Y-75524D01*
X464900Y-74668D01*
X464775Y-73914D01*
X464600Y-73260D01*
X464375Y-72707D01*
X464100Y-72254D01*
X463775Y-71902D01*
X463400Y-71650D01*
X462975Y-71499D01*
X462500Y-71449D01*
X472500D01*
X472025Y-71499D01*
D02*
G37*
G36*
X507174Y-58849D02*
X511376Y-58840D01*
Y-63860D01*
X507863Y-63853D01*
X507020Y-63875D01*
X506171Y-63950D01*
X505420Y-64075D01*
X504771Y-64250D01*
X504221Y-64475D01*
X503770Y-64750D01*
X503420Y-65075D01*
X503171Y-65450D01*
X503021Y-65875D01*
X502971Y-66350D01*
Y-58840D01*
X507174Y-58849D01*
D02*
G37*
G36*
X459560Y-70160D02*
X459510Y-69685D01*
X459359Y-69260D01*
X459107Y-68885D01*
X458755Y-68560D01*
X458302Y-68285D01*
X457749Y-68060D01*
X457095Y-67885D01*
X456340Y-67760D01*
X455485Y-67685D01*
X454529Y-67660D01*
Y-62660D01*
X455485Y-62635D01*
X456340Y-62560D01*
X457095Y-62435D01*
X457749Y-62260D01*
X458302Y-62035D01*
X458755Y-61760D01*
X459107Y-61435D01*
X459359Y-61060D01*
X459510Y-60635D01*
X459560Y-60160D01*
Y-70160D01*
D02*
G37*
G36*
X594593Y-51129D02*
X594185Y-50871D01*
X593710Y-50750D01*
X593169Y-50765D01*
X592561Y-50917D01*
X591888Y-51206D01*
X591147Y-51630D01*
X590341Y-52192D01*
X589467Y-52890D01*
X587522Y-54695D01*
X583494Y-51652D01*
X584509Y-50602D01*
X586100Y-48730D01*
X586676Y-47909D01*
X587106Y-47164D01*
X587389Y-46495D01*
X587527Y-45902D01*
X587517Y-45385D01*
X587362Y-44945D01*
X587060Y-44581D01*
X594593Y-51129D01*
D02*
G37*
G36*
X580237Y-30299D02*
X579600Y-31059D01*
X579341Y-31426D01*
X579122Y-31784D01*
X578943Y-32133D01*
X578804Y-32474D01*
X578704Y-32805D01*
X578644Y-33127D01*
X578624Y-33440D01*
X566474Y-33471D01*
X567177Y-33434D01*
X567881Y-33326D01*
X568586Y-33146D01*
X569291Y-32896D01*
X569998Y-32575D01*
X570706Y-32183D01*
X571414Y-31720D01*
X572123Y-31186D01*
X572834Y-30581D01*
X573545Y-29905D01*
X580616D01*
X580237Y-30299D01*
D02*
G37*
G36*
X517166Y-30581D02*
X517877Y-31186D01*
X518586Y-31720D01*
X519294Y-32183D01*
X520002Y-32575D01*
X520709Y-32896D01*
X521414Y-33146D01*
X522119Y-33326D01*
X522823Y-33434D01*
X523526Y-33471D01*
X511376Y-33440D01*
X511356Y-33127D01*
X511296Y-32805D01*
X511196Y-32474D01*
X511057Y-32133D01*
X510878Y-31784D01*
X510659Y-31426D01*
X510400Y-31059D01*
X510101Y-30684D01*
X509384Y-29905D01*
X516455D01*
X517166Y-30581D01*
D02*
G37*
G36*
X493999Y-15475D02*
X494150Y-15900D01*
X494402Y-16275D01*
X494754Y-16600D01*
X495207Y-16875D01*
X495760Y-17100D01*
X496414Y-17275D01*
X497169Y-17400D01*
X498024Y-17475D01*
X498979Y-17500D01*
Y-22500D01*
X498024Y-22525D01*
X497169Y-22600D01*
X496414Y-22725D01*
X495760Y-22900D01*
X495207Y-23125D01*
X494754Y-23400D01*
X494402Y-23725D01*
X494150Y-24100D01*
X493999Y-24525D01*
X493949Y-25000D01*
Y-15000D01*
X493999Y-15475D01*
D02*
G37*
G36*
X461051Y-25000D02*
X461001Y-24525D01*
X460850Y-24100D01*
X460598Y-23725D01*
X460246Y-23400D01*
X459793Y-23125D01*
X459240Y-22900D01*
X458586Y-22725D01*
X457831Y-22600D01*
X456976Y-22525D01*
X456021Y-22500D01*
Y-17500D01*
X456976Y-17475D01*
X457831Y-17400D01*
X458586Y-17275D01*
X459240Y-17100D01*
X459793Y-16875D01*
X460246Y-16600D01*
X460598Y-16275D01*
X460850Y-15900D01*
X461001Y-15475D01*
X461051Y-15000D01*
Y-25000D01*
D02*
G37*
G36*
X487060Y-49840D02*
X487010Y-49365D01*
X486859Y-48940D01*
X486607Y-48565D01*
X486255Y-48240D01*
X485802Y-47965D01*
X485249Y-47740D01*
X484595Y-47565D01*
X483840Y-47440D01*
X482985Y-47365D01*
X482029Y-47340D01*
Y-42340D01*
X482985Y-42315D01*
X483840Y-42240D01*
X484595Y-42115D01*
X485249Y-41940D01*
X485802Y-41715D01*
X486255Y-41440D01*
X486607Y-41115D01*
X486859Y-40740D01*
X487010Y-40315D01*
X487060Y-39840D01*
Y-49840D01*
D02*
G37*
G36*
X475521Y-40315D02*
X475671Y-40740D01*
X475920Y-41115D01*
X476270Y-41440D01*
X476721Y-41715D01*
X477271Y-41940D01*
X477920Y-42115D01*
X478671Y-42240D01*
X479520Y-42315D01*
X480471Y-42340D01*
Y-47340D01*
X479520Y-47365D01*
X478671Y-47440D01*
X477920Y-47565D01*
X477271Y-47740D01*
X476721Y-47965D01*
X476270Y-48240D01*
X475920Y-48565D01*
X475671Y-48940D01*
X475521Y-49365D01*
X475471Y-49840D01*
Y-39840D01*
X475521Y-40315D01*
D02*
G37*
G36*
X529950Y-33450D02*
Y-38450D01*
X526554Y-38459D01*
Y-33440D01*
X529950Y-33450D01*
D02*
G37*
G36*
X612060Y-49840D02*
X612010Y-49365D01*
X611859Y-48940D01*
X611607Y-48565D01*
X611255Y-48240D01*
X610802Y-47965D01*
X610249Y-47740D01*
X609595Y-47565D01*
X608840Y-47440D01*
X607985Y-47365D01*
X607501Y-47352D01*
X607020Y-47365D01*
X606171Y-47440D01*
X605420Y-47565D01*
X604771Y-47740D01*
X604221Y-47965D01*
X603770Y-48240D01*
X603420Y-48565D01*
X603171Y-48940D01*
X603021Y-49365D01*
X602971Y-49840D01*
Y-39840D01*
X603021Y-40315D01*
X603171Y-40740D01*
X603420Y-41115D01*
X603770Y-41440D01*
X604221Y-41715D01*
X604771Y-41940D01*
X605420Y-42115D01*
X606171Y-42240D01*
X607020Y-42315D01*
X607501Y-42328D01*
X607985Y-42315D01*
X608840Y-42240D01*
X609595Y-42115D01*
X610249Y-41940D01*
X610802Y-41715D01*
X611255Y-41440D01*
X611607Y-41115D01*
X611859Y-40740D01*
X612010Y-40315D01*
X612060Y-39840D01*
Y-49840D01*
D02*
G37*
G36*
X928359Y-207000D02*
X927479Y-206145D01*
X925737Y-204705D01*
X924875Y-204120D01*
X924018Y-203625D01*
X923167Y-203220D01*
X922321Y-202905D01*
X921481Y-202680D01*
X920646Y-202545D01*
X919818Y-202500D01*
Y-197500D01*
X920646Y-197455D01*
X921481Y-197320D01*
X922321Y-197095D01*
X923167Y-196780D01*
X924018Y-196375D01*
X924875Y-195880D01*
X925737Y-195295D01*
X926606Y-194620D01*
X927479Y-193855D01*
X928359Y-193000D01*
Y-207000D01*
D02*
G37*
G36*
X768521Y-193855D02*
X770263Y-195295D01*
X771125Y-195880D01*
X771982Y-196375D01*
X772833Y-196780D01*
X773679Y-197095D01*
X774519Y-197320D01*
X775354Y-197455D01*
X776182Y-197500D01*
Y-202500D01*
X775354Y-202545D01*
X774519Y-202680D01*
X773679Y-202905D01*
X772833Y-203220D01*
X771982Y-203625D01*
X771125Y-204120D01*
X770263Y-204705D01*
X769395Y-205380D01*
X768521Y-206145D01*
X767641Y-207000D01*
Y-193000D01*
X768521Y-193855D01*
D02*
G37*
G36*
X471000Y-117000D02*
X477000Y-123000D01*
Y-134000D01*
Y-178000D01*
X471000Y-184000D01*
X458000Y-197000D01*
X172000D01*
X163000Y-188000D01*
X151000Y-176000D01*
X149000D01*
X148000Y-177000D01*
Y-203000D01*
X56000Y-295000D01*
X37000Y-314000D01*
Y-399000D01*
Y-436000D01*
X57000Y-456000D01*
Y-487000D01*
Y-505000D01*
X60000Y-508000D01*
X74000Y-522000D01*
X153000D01*
X158000Y-527000D01*
Y-543000D01*
Y-552000D01*
X154000Y-556000D01*
X146000D01*
X143000Y-553000D01*
Y-541000D01*
X140000Y-538000D01*
X133102D01*
X132360Y-537693D01*
X130000Y-537382D01*
X127640Y-537693D01*
X126898Y-538000D01*
X122000D01*
X117000Y-543000D01*
Y-553000D01*
X114000Y-556000D01*
X107000D01*
X103000Y-552000D01*
Y-544000D01*
X95000Y-536000D01*
X59000D01*
X57000Y-534000D01*
X40000Y-517000D01*
Y-500000D01*
Y-468000D01*
X22000Y-450000D01*
X18000Y-446000D01*
Y-356000D01*
Y-309000D01*
X127000Y-200000D01*
X132000Y-195000D01*
Y-184000D01*
Y-177000D01*
X128000Y-173000D01*
X123000D01*
X120000Y-176000D01*
X110000Y-186000D01*
X28000D01*
X23000Y-191000D01*
X12000Y-202000D01*
Y-367000D01*
Y-395000D01*
X7000Y-400000D01*
X-4000Y-411000D01*
X-77000D01*
X-81000Y-407000D01*
X-83000Y-405000D01*
Y-393000D01*
X-79000Y-389000D01*
X-24000D01*
X-22000Y-387000D01*
X-4000Y-369000D01*
Y-227000D01*
Y-193000D01*
X1000Y-188000D01*
X19000Y-170000D01*
X50000D01*
X51000Y-171000D01*
X54000Y-174000D01*
X89000D01*
X94000Y-169000D01*
X115000Y-148000D01*
X151000D01*
X154000Y-151000D01*
X181000Y-178000D01*
X255000D01*
X264000Y-169000D01*
X283000Y-150000D01*
X301000D01*
X305000Y-146000D01*
X322000D01*
X329000Y-139000D01*
X340000Y-128000D01*
X388000D01*
X391000Y-131000D01*
Y-141000D01*
X384000Y-148000D01*
X339000D01*
X331000Y-156000D01*
X315000D01*
X310500Y-160500D01*
X325000Y-175000D01*
X438000D01*
X443000Y-170000D01*
X453000Y-160000D01*
Y-128000D01*
Y-119000D01*
X454000Y-118000D01*
X456000Y-116000D01*
X470000D01*
X471000Y-117000D01*
D02*
G37*
G36*
X-101855Y-168021D02*
X-103295Y-169763D01*
X-103880Y-170625D01*
X-104375Y-171482D01*
X-104780Y-172333D01*
X-105095Y-173179D01*
X-105320Y-174019D01*
X-105455Y-174854D01*
X-105500Y-175683D01*
X-110500D01*
X-110545Y-174854D01*
X-110680Y-174019D01*
X-110905Y-173179D01*
X-111220Y-172333D01*
X-111625Y-171482D01*
X-112120Y-170625D01*
X-112705Y-169763D01*
X-113380Y-168895D01*
X-114145Y-168021D01*
X-115000Y-167141D01*
X-101000D01*
X-101855Y-168021D01*
D02*
G37*
G36*
X-120276Y-203961D02*
X-120302Y-204298D01*
X-120264Y-204656D01*
X-120163Y-205034D01*
X-119999Y-205433D01*
X-119772Y-205852D01*
X-119481Y-206291D01*
X-119128Y-206751D01*
X-118712Y-207231D01*
X-118232Y-207732D01*
X-121768Y-211268D01*
X-122269Y-210788D01*
X-123209Y-210019D01*
X-123648Y-209728D01*
X-124067Y-209501D01*
X-124466Y-209337D01*
X-124844Y-209236D01*
X-125202Y-209198D01*
X-125539Y-209224D01*
X-125855Y-209312D01*
X-120188Y-203645D01*
X-120276Y-203961D01*
D02*
G37*
G36*
X347811Y-238890D02*
X347449Y-238923D01*
X347049Y-239029D01*
X346611Y-239208D01*
X346134Y-239460D01*
X345619Y-239785D01*
X345065Y-240183D01*
X343842Y-241198D01*
X342466Y-242505D01*
X335395Y-235434D01*
X336085Y-234727D01*
X337717Y-232835D01*
X338115Y-232281D01*
X338440Y-231766D01*
X338692Y-231289D01*
X338871Y-230851D01*
X338977Y-230451D01*
X339010Y-230089D01*
X347811Y-238890D01*
D02*
G37*
G36*
X646000Y-63000D02*
X644000Y-65000D01*
X639000Y-70000D01*
Y-78000D01*
Y-113000D01*
X674000Y-148000D01*
X976900D01*
Y-243000D01*
X959000D01*
X955000Y-239000D01*
Y-237000D01*
Y-188000D01*
X953000Y-186000D01*
X941000Y-174000D01*
X672000D01*
X622000Y-124000D01*
X610000Y-112000D01*
Y-108000D01*
Y-60000D01*
X611000Y-59000D01*
X612000Y-58000D01*
X629000D01*
X630000Y-57000D01*
X631000Y-56000D01*
Y-54000D01*
Y-34000D01*
X629000Y-32000D01*
X614000D01*
X612000Y-30000D01*
X611000Y-29000D01*
Y-28000D01*
Y-3100D01*
X646000D01*
Y-63000D01*
D02*
G37*
G36*
X944747Y-204012D02*
X943618Y-209011D01*
X943496Y-209877D01*
X943357Y-211475D01*
X943340Y-212208D01*
X938340Y-215588D01*
X938291Y-214676D01*
X938142Y-213836D01*
X937895Y-213071D01*
X937549Y-212379D01*
X937104Y-211761D01*
X936560Y-211217D01*
X935917Y-210746D01*
X935175Y-210349D01*
X934335Y-210026D01*
X933395Y-209776D01*
X945077Y-202878D01*
X944747Y-204012D01*
D02*
G37*
G36*
X943365Y-224985D02*
X943440Y-225840D01*
X943565Y-226595D01*
X943740Y-227249D01*
X943965Y-227802D01*
X944240Y-228255D01*
X944565Y-228607D01*
X944940Y-228859D01*
X945365Y-229010D01*
X945840Y-229060D01*
X935840D01*
X936315Y-229010D01*
X936740Y-228859D01*
X937115Y-228607D01*
X937440Y-228255D01*
X937715Y-227802D01*
X937940Y-227249D01*
X938115Y-226595D01*
X938240Y-225840D01*
X938315Y-224985D01*
X938340Y-224030D01*
X943340D01*
X943365Y-224985D01*
D02*
G37*
G36*
X470025Y-77979D02*
X470100Y-78829D01*
X470225Y-79580D01*
X470400Y-80230D01*
X470625Y-80779D01*
X470900Y-81229D01*
X471225Y-81580D01*
X471600Y-81830D01*
X472025Y-81980D01*
X472500Y-82029D01*
X462500D01*
X462975Y-81980D01*
X463400Y-81830D01*
X463775Y-81580D01*
X464100Y-81229D01*
X464375Y-80779D01*
X464600Y-80230D01*
X464775Y-79580D01*
X464900Y-78829D01*
X464975Y-77979D01*
X465000Y-77030D01*
X470000D01*
X470025Y-77979D01*
D02*
G37*
G36*
X493999Y-85475D02*
X494150Y-85900D01*
X494402Y-86275D01*
X494754Y-86600D01*
X495207Y-86875D01*
X495760Y-87100D01*
X496414Y-87275D01*
X497169Y-87400D01*
X498024Y-87475D01*
X498979Y-87500D01*
Y-92500D01*
X498024Y-92525D01*
X497169Y-92600D01*
X496414Y-92725D01*
X495760Y-92900D01*
X495207Y-93125D01*
X494754Y-93400D01*
X494402Y-93725D01*
X494150Y-94100D01*
X493999Y-94525D01*
X493949Y-95000D01*
Y-85000D01*
X493999Y-85475D01*
D02*
G37*
G36*
X583624Y-71550D02*
Y-76550D01*
X578624Y-76560D01*
Y-71540D01*
X583624Y-71550D01*
D02*
G37*
G36*
X522823Y-76566D02*
X522119Y-76674D01*
X521414Y-76854D01*
X520709Y-77104D01*
X520002Y-77425D01*
X519294Y-77817D01*
X518586Y-78280D01*
X517877Y-78814D01*
X517166Y-79419D01*
X516455Y-80095D01*
X509384D01*
X509763Y-79701D01*
X510400Y-78941D01*
X510659Y-78574D01*
X510878Y-78216D01*
X511057Y-77867D01*
X511196Y-77526D01*
X511296Y-77195D01*
X511356Y-76873D01*
X511376Y-76560D01*
X523526Y-76529D01*
X522823Y-76566D01*
D02*
G37*
G36*
X197489Y-155475D02*
X197640Y-155900D01*
X197892Y-156275D01*
X198244Y-156600D01*
X198697Y-156875D01*
X199250Y-157100D01*
X199904Y-157275D01*
X200658Y-157400D01*
X201514Y-157475D01*
X202470Y-157500D01*
Y-162500D01*
X201514Y-162525D01*
X200658Y-162600D01*
X199904Y-162725D01*
X199250Y-162900D01*
X198697Y-163125D01*
X198244Y-163400D01*
X197892Y-163725D01*
X197640Y-164100D01*
X197489Y-164525D01*
X197439Y-165000D01*
Y-155000D01*
X197489Y-155475D01*
D02*
G37*
G36*
X735000Y-42000D02*
Y-110000D01*
Y-127000D01*
X728000Y-134000D01*
X725000Y-137000D01*
X712000D01*
X708000Y-133000D01*
X702000Y-127000D01*
Y-119000D01*
Y-102000D01*
X669000Y-69000D01*
X665000Y-65000D01*
Y-38000D01*
X731000D01*
X735000Y-42000D01*
D02*
G37*
G36*
X490101Y-97940D02*
X489639Y-97736D01*
X489122Y-97656D01*
X488551Y-97702D01*
X487926Y-97871D01*
X487246Y-98166D01*
X486512Y-98584D01*
X485723Y-99128D01*
X484880Y-99796D01*
X483982Y-100589D01*
X483030Y-101506D01*
X477805Y-99660D01*
X478874Y-98556D01*
X480536Y-96613D01*
X481130Y-95773D01*
X481566Y-95022D01*
X481843Y-94359D01*
X481963Y-93784D01*
X481924Y-93298D01*
X481726Y-92899D01*
X481371Y-92589D01*
X490101Y-97940D01*
D02*
G37*
G36*
X128000Y-31000D02*
X150000Y-53000D01*
Y-85000D01*
Y-99000D01*
X147000Y-102000D01*
X127000D01*
X120000Y-95000D01*
X60000Y-35000D01*
X-62000D01*
X-73000Y-46000D01*
X-76000Y-49000D01*
Y-69000D01*
Y-120000D01*
X-66000Y-130000D01*
X-61000Y-135000D01*
Y-191000D01*
Y-360000D01*
X-65000Y-364000D01*
X-96000D01*
X-102000Y-358000D01*
Y-322000D01*
Y-310000D01*
X-95000Y-303000D01*
X-87000Y-295000D01*
Y-154000D01*
Y-149000D01*
X-100000Y-136000D01*
Y-114000D01*
Y-21000D01*
X-93000Y-14000D01*
X-92000Y-13000D01*
X110000D01*
X128000Y-31000D01*
D02*
G37*
%LPC*%
G36*
X593582Y-71389D02*
X593282Y-71421D01*
X593202Y-71449D01*
X593821D01*
X593582Y-71389D01*
D02*
G37*
%LPD*%
D10*
X579000Y-272840D02*
D03*
Y-293160D02*
D03*
X552500Y-272340D02*
D03*
Y-292660D02*
D03*
X595000Y-44840D02*
D03*
Y-65160D02*
D03*
X620000Y-44840D02*
D03*
Y-65160D02*
D03*
X495000Y-44840D02*
D03*
Y-65160D02*
D03*
X467500Y-44840D02*
D03*
Y-65160D02*
D03*
D11*
X961160Y-265000D02*
D03*
X940840D02*
D03*
X750160Y-390000D02*
D03*
X729840D02*
D03*
X961160Y-237000D02*
D03*
X940840D02*
D03*
X467340Y-90000D02*
D03*
X487660D02*
D03*
X707660Y-362500D02*
D03*
X687340D02*
D03*
X617660Y-17500D02*
D03*
X597340D02*
D03*
X707660Y-390000D02*
D03*
X687340D02*
D03*
X750160Y-362500D02*
D03*
X729840D02*
D03*
X487660Y-20000D02*
D03*
X467340D02*
D03*
D12*
X518965Y-74050D02*
D03*
Y-61350D02*
D03*
Y-48650D02*
D03*
Y-35950D02*
D03*
X571035D02*
D03*
Y-48650D02*
D03*
Y-61350D02*
D03*
Y-74050D02*
D03*
D13*
X197500Y-345000D02*
Y-282000D01*
X190400Y-274900D02*
Y-232500D01*
Y-274900D02*
X197500Y-282000D01*
X185000Y-357500D02*
X197500Y-345000D01*
X70000Y-530000D02*
X107500D01*
X50000Y-510000D02*
X70000Y-530000D01*
X50000Y-510000D02*
Y-465000D01*
X107500Y-530000D02*
X142500D01*
X107500D02*
X110000Y-532500D01*
Y-547500D02*
Y-532500D01*
X142500Y-530000D02*
X150000Y-537500D01*
Y-547500D02*
Y-537500D01*
X200000Y-515000D02*
Y-450000D01*
X185000Y-435000D02*
X200000Y-450000D01*
X185000Y-435000D02*
Y-392500D01*
X170000Y-545000D02*
X200000Y-515000D01*
X170000Y-547500D02*
Y-545000D01*
X310000Y-267900D02*
X347900Y-230000D01*
X230000Y-512500D02*
X290000D01*
X300000Y-502500D01*
X205000Y-427500D02*
Y-415400D01*
Y-427500D02*
X235000Y-457500D01*
X300000D01*
Y-502500D02*
Y-457500D01*
X-72500Y-347500D02*
Y-145000D01*
X47805Y-177500D02*
X50305Y-180000D01*
X20000Y-177500D02*
X47805D01*
X52500Y-413300D02*
X72500Y-393300D01*
Y-375000D01*
X285000Y-425000D02*
Y-390000D01*
Y-425000D02*
X300000Y-440000D01*
Y-457500D02*
Y-440000D01*
X337500Y-455000D02*
X352500D01*
X365000Y-467500D01*
X337500Y-510000D02*
X357500D01*
X365000Y-502500D01*
Y-467500D01*
X429200Y-390000D02*
X455000Y-415800D01*
X285000Y-390000D02*
X429200D01*
X455000Y-367500D02*
Y-365000D01*
Y-367500D02*
X485000Y-397500D01*
Y-430000D02*
Y-397500D01*
X717500Y-122500D02*
Y-50000D01*
X617500Y-437500D02*
Y-428900D01*
Y-437500D02*
X632500Y-452500D01*
X885000D01*
X914800Y-482300D01*
Y-507500D02*
Y-482300D01*
X220000Y-252500D02*
X242500Y-230000D01*
X297100D01*
X220000Y-320000D02*
Y-252500D01*
X50305Y-180000D02*
X97500D01*
X117500Y-160000D01*
X140000D01*
X91300Y-366300D02*
Y-350000D01*
Y-366300D02*
X117500Y-392500D01*
X185000D01*
X217900Y-364600D02*
X220000Y-362500D01*
Y-320000D01*
X205000Y-364600D02*
X217900D01*
X240000Y-433900D02*
Y-417500D01*
X140000Y-197500D02*
Y-160000D01*
X150000D01*
X177500Y-187500D01*
X267500D01*
X295000Y-160000D01*
X317500Y-182500D01*
X-72500Y-397500D02*
X-22500D01*
X27500Y-442500D02*
X50000Y-465000D01*
X27500Y-442500D02*
Y-310000D01*
X140000Y-197500D01*
X-22500Y-397500D02*
X2500Y-372500D01*
Y-195000D01*
X20000Y-177500D01*
X-20000Y-180000D02*
X12500Y-147500D01*
X45000D01*
X185000Y-392500D02*
X235000D01*
X217900Y-364600D02*
X239600D01*
X240000Y-417500D02*
X255000Y-402500D01*
Y-380000D01*
X239600Y-364600D02*
X255000Y-380000D01*
X442500Y-255000D02*
X455000Y-267500D01*
Y-365000D02*
Y-267500D01*
X340000Y-292500D02*
X367500D01*
X405000Y-255000D01*
X442500D01*
X-87500Y-130000D02*
X-72500Y-145000D01*
X-87500Y-130000D02*
Y-40000D01*
X-72500Y-25000D01*
X285000Y-390000D02*
Y-355000D01*
X310000Y-330000D01*
Y-267900D01*
X185000Y-392500D02*
Y-357500D01*
X45000Y-147500D02*
X75000Y-117500D01*
X463770Y-167230D02*
Y-124240D01*
X317500Y-182500D02*
X448500D01*
X463770Y-167230D01*
X-72500Y-25000D02*
X98000D01*
X139600Y-66600D01*
Y-82500D02*
Y-66600D01*
X-110000Y-395000D02*
X-92000Y-377000D01*
X-42000D01*
X-20000Y-355000D01*
Y-180000D01*
X75000Y-117500D02*
X307500D01*
X320000Y-105000D01*
Y-82500D01*
X-110000Y-519000D02*
Y-395000D01*
Y-519000D02*
X-99000Y-530000D01*
X-72500D01*
D14*
X-108000Y-298000D02*
Y-160000D01*
X-127500Y-317500D02*
X-108000Y-298000D01*
X-127500Y-470000D02*
Y-317500D01*
X-140000Y-490000D02*
Y-312500D01*
X-120000Y-292500D01*
Y-209500D01*
X-129500Y-200000D02*
X-120000Y-209500D01*
X590000Y-572500D02*
X630000Y-532500D01*
Y-507500D01*
X557500Y-562500D02*
X587500Y-532500D01*
Y-428900D01*
X70000Y-560000D02*
Y-547500D01*
Y-560000D02*
X82500Y-572500D01*
X590000D01*
X90000Y-557500D02*
Y-547500D01*
Y-557500D02*
X95000Y-562500D01*
X557500D01*
X498810Y-48650D02*
X518965D01*
X495000Y-44840D02*
X498810Y-48650D01*
X467500Y-44840D02*
X495000D01*
X498810Y-61350D02*
X518965D01*
X495000Y-65160D02*
X498810Y-61350D01*
X503015Y-20000D02*
X518965Y-35950D01*
X487660Y-20000D02*
X503015D01*
X571035Y-74050D02*
X586110D01*
X595000Y-65160D01*
X581959Y-57881D02*
Y-56722D01*
X578490Y-61350D02*
X581959Y-57881D01*
X571035Y-61350D02*
X578490D01*
X593841Y-44840D02*
X595000D01*
X620000D01*
X581959Y-56722D02*
X593841Y-44840D01*
X559350Y-48650D02*
X571035D01*
X559000Y-49000D02*
X559350Y-48650D01*
X518965Y-35950D02*
X529950D01*
X530000Y-36000D01*
X577500Y-272340D02*
Y-268500D01*
X518965Y-61350D02*
X534350D01*
X544000Y-71000D01*
X632000Y-365000D02*
X657000Y-390000D01*
X687340D01*
X595000Y-113000D02*
Y-65160D01*
Y-113000D02*
X644000Y-162000D01*
Y-350000D02*
Y-162000D01*
X656500Y-362500D02*
X687340D01*
X644000Y-350000D02*
X656500Y-362500D01*
X707660D02*
X729840D01*
X707660Y-390000D02*
X729840D01*
X751160Y-375000D02*
X822100D01*
X750160Y-376000D02*
X751160Y-375000D01*
X750160Y-390000D02*
Y-376000D01*
Y-362500D01*
X940840Y-237000D02*
Y-205340D01*
X935500Y-200000D02*
X940840Y-205340D01*
X961160Y-265000D02*
Y-257320D01*
X953881Y-250041D02*
X961160Y-257320D01*
X952722Y-250041D02*
X953881D01*
X940840Y-238159D02*
X952722Y-250041D01*
X940840Y-238159D02*
Y-237000D01*
X961160D02*
Y-164160D01*
X957000Y-160000D02*
X961160Y-164160D01*
X940840Y-322160D02*
Y-265000D01*
X920000Y-343000D02*
X940840Y-322160D01*
X858000Y-343000D02*
X920000D01*
X847000Y-354000D02*
X858000Y-343000D01*
X847000Y-354000D02*
X847500Y-354500D01*
Y-375000D02*
Y-354500D01*
X760500Y-200000D02*
X935500D01*
X782000Y-160000D02*
X957000D01*
X552500Y-495500D02*
Y-292660D01*
X510500Y-537500D02*
X552500Y-495500D01*
X455000Y-537500D02*
X510500D01*
X579000Y-308000D02*
Y-293160D01*
X566000Y-321000D02*
X579000Y-308000D01*
X566000Y-478000D02*
Y-321000D01*
Y-478000D02*
X574000Y-486000D01*
X544000Y-86000D02*
Y-71000D01*
Y-86000D02*
X632000Y-174000D01*
Y-365000D02*
Y-174000D01*
X536000Y-119000D02*
X545000Y-110000D01*
X536000Y-227000D02*
Y-119000D01*
Y-227000D02*
X577500Y-268500D01*
X522000Y-241840D02*
X552500Y-272340D01*
X522000Y-241840D02*
Y-113000D01*
X535000Y-100000D01*
X589485Y-17500D02*
X597340D01*
X487660Y-90000D02*
X503015D01*
X518965Y-74050D01*
X671000Y-160000D02*
X782000D01*
X620000Y-109000D02*
X671000Y-160000D01*
X617660Y-17500D02*
X628500D01*
X639000Y-58000D02*
Y-28000D01*
X631840Y-65160D02*
X639000Y-58000D01*
X620000Y-65160D02*
X631840D01*
X620000Y-109000D02*
Y-78000D01*
Y-65160D01*
X445000Y-62000D02*
X448160Y-65160D01*
X467500D01*
X467340Y-90000D02*
X467500Y-89840D01*
X445000Y-62000D02*
Y-31000D01*
X456000Y-20000D01*
X467340D01*
X467500Y-89840D02*
Y-65160D01*
X238000Y-160000D02*
X260000Y-138000D01*
X190000Y-160000D02*
X238000D01*
X571035Y-35950D02*
X589485Y-17500D01*
X628500D02*
X633750Y-22750D01*
X639000Y-28000D01*
X333000Y-143000D02*
X371000D01*
X380000Y-134000D01*
X260000Y-138000D02*
X320000D01*
X295000Y-160000D02*
X304000Y-151000D01*
X325000D01*
X333000Y-143000D01*
X487660Y-93340D02*
Y-90000D01*
X320000Y-138000D02*
X352000Y-106000D01*
X475000D01*
X487660Y-93340D01*
D15*
X914800Y-507500D02*
D03*
X830000D02*
D03*
X804600D02*
D03*
X722500D02*
D03*
X697100D02*
D03*
D16*
X940200D02*
D03*
X855400D02*
D03*
X747900D02*
D03*
D17*
X872900Y-375000D02*
D03*
X847500D02*
D03*
D18*
X822100D02*
D03*
D19*
X12500Y-466700D02*
D03*
Y-517500D02*
D03*
X517500Y-340000D02*
D03*
Y-428900D02*
D03*
X543900Y-537500D02*
D03*
X455000D02*
D03*
X426400D02*
D03*
X337500D02*
D03*
X267500Y-345000D02*
D03*
Y-433900D02*
D03*
X307500Y-415400D02*
D03*
Y-364600D02*
D03*
X428900Y-320000D02*
D03*
X340000D02*
D03*
X428900Y-292500D02*
D03*
X340000D02*
D03*
X426400Y-482500D02*
D03*
X337500D02*
D03*
X426400Y-510000D02*
D03*
X337500D02*
D03*
X455000Y-365000D02*
D03*
Y-415800D02*
D03*
X485000Y-341100D02*
D03*
Y-430000D02*
D03*
X426400Y-455000D02*
D03*
X337500D02*
D03*
X52500Y-413300D02*
D03*
Y-362500D02*
D03*
X176400Y-322500D02*
D03*
X87500D02*
D03*
Y-295000D02*
D03*
X176400D02*
D03*
Y-482500D02*
D03*
X87500D02*
D03*
X176400Y-510000D02*
D03*
X87500D02*
D03*
X205000Y-364600D02*
D03*
Y-415400D02*
D03*
X240000Y-345000D02*
D03*
Y-433900D02*
D03*
X176400Y-455000D02*
D03*
X87500D02*
D03*
X770000Y-430000D02*
D03*
X681100D02*
D03*
X495000Y-195400D02*
D03*
Y-144600D02*
D03*
X139600Y-232500D02*
D03*
X190400D02*
D03*
X347900Y-230000D02*
D03*
X297100D02*
D03*
X617500Y-428900D02*
D03*
Y-340000D02*
D03*
X587500Y-428900D02*
D03*
Y-340000D02*
D03*
D20*
X12500Y-557500D02*
D03*
D21*
X345000Y-426200D02*
D03*
X91300D02*
D03*
D22*
X370400D02*
D03*
X395800D02*
D03*
X421200D02*
D03*
X345000Y-350000D02*
D03*
X370400D02*
D03*
X395800D02*
D03*
X421200D02*
D03*
X116700Y-426200D02*
D03*
X142100D02*
D03*
X167500D02*
D03*
X91300Y-350000D02*
D03*
X116700D02*
D03*
X142100D02*
D03*
X167500D02*
D03*
D23*
X165000Y-32500D02*
D03*
X-170000Y-465400D02*
D03*
Y-414600D02*
D03*
X320000Y-32500D02*
D03*
D24*
X139600Y-82500D02*
D03*
X294600D02*
D03*
D25*
X165000D02*
D03*
X190400D02*
D03*
X320000D02*
D03*
X345400D02*
D03*
D26*
X30000Y-270000D02*
D03*
X-45000D02*
D03*
X-147500D02*
D03*
X-222500Y-270000D02*
D03*
X572500Y-192500D02*
D03*
D27*
X30000Y-245000D02*
D03*
X-45000D02*
D03*
X487500Y-295000D02*
D03*
X485000Y-482500D02*
D03*
X-147500Y-245000D02*
D03*
X-222500Y-245000D02*
D03*
X240000Y-295000D02*
D03*
Y-482500D02*
D03*
X572500Y-142500D02*
D03*
X140000Y-160000D02*
D03*
X345000D02*
D03*
D28*
X512500Y-295000D02*
D03*
X510000Y-482500D02*
D03*
X265000Y-295000D02*
D03*
Y-482500D02*
D03*
X190000Y-160000D02*
D03*
X295000D02*
D03*
D29*
X-72500Y-347500D02*
D03*
Y-480000D02*
D03*
D30*
Y-397500D02*
D03*
Y-530000D02*
D03*
D31*
X463770Y-124240D02*
D03*
Y-219490D02*
D03*
D32*
X427500Y-220000D02*
D03*
Y-20000D02*
D03*
D33*
X-237500Y-415000D02*
D03*
Y-440400D02*
D03*
D34*
Y-465800D02*
D03*
D35*
X-170000Y-516200D02*
D03*
Y-363800D02*
D03*
D36*
X-212500Y-50000D02*
D03*
X-137500Y-125000D02*
D03*
X-212500D02*
D03*
X-108000Y-160000D02*
D03*
X-129500Y-200000D02*
D03*
X45500D02*
D03*
X67000Y-160000D02*
D03*
X-37500Y-125000D02*
D03*
X37500D02*
D03*
X-37500Y-50000D02*
D03*
X677500D02*
D03*
X752500Y-125000D02*
D03*
X677500D02*
D03*
X782000Y-160000D02*
D03*
X760500Y-200000D02*
D03*
X935500D02*
D03*
X957000Y-160000D02*
D03*
X852500Y-125000D02*
D03*
X927500D02*
D03*
X852500Y-50000D02*
D03*
D37*
X70000Y-547500D02*
D03*
X90000D02*
D03*
X110000D02*
D03*
X130000D02*
D03*
X150000D02*
D03*
X170000D02*
D03*
X190000D02*
D03*
X210000D02*
D03*
D38*
X707500Y-241300D02*
D03*
X783700D02*
D03*
X834500D02*
D03*
X885300D02*
D03*
Y-317500D02*
D03*
X834500D02*
D03*
X783700D02*
D03*
X707500D02*
D03*
D39*
X612500Y-254200D02*
D03*
Y-279600D02*
D03*
Y-305000D02*
D03*
D40*
X664360Y-330950D02*
D03*
Y-229350D02*
D03*
D41*
X485000Y-403000D02*
D03*
X477000Y-409000D02*
D03*
X497000Y-408000D02*
D03*
X491000Y-396000D02*
D03*
X473000D02*
D03*
X352000Y-275000D02*
D03*
X334000Y-272000D02*
D03*
X342000Y-264000D02*
D03*
X326000Y-280000D02*
D03*
X221000Y-367000D02*
D03*
Y-356000D02*
D03*
X297000Y-216000D02*
D03*
Y-258000D02*
D03*
Y-247000D02*
D03*
X220000Y-333000D02*
D03*
Y-304000D02*
D03*
Y-292000D02*
D03*
Y-279000D02*
D03*
X559000Y-49000D02*
D03*
X530000Y-36000D02*
D03*
X574000Y-486000D02*
D03*
X545000Y-110000D02*
D03*
X535000Y-100000D02*
D03*
X620000Y-78000D02*
D03*
X582000Y-25000D02*
D03*
X633750Y-22750D02*
D03*
X380000Y-134000D02*
D03*
X445000Y-46000D02*
D03*
Y-35000D02*
D03*
X371000Y-142000D02*
D03*
X383000Y-144000D02*
D03*
X368000Y-131000D02*
D03*
X718000Y-134000D02*
D03*
X731000Y-119000D02*
D03*
X705000D02*
D03*
D42*
X-140000Y-490000D02*
D03*
X-127500Y-470000D02*
D03*
D43*
X630000Y-507500D02*
D03*
X230000Y-512500D02*
D03*
X72500Y-375000D02*
D03*
X717500Y-50000D02*
D03*
Y-122500D02*
D03*
X220000Y-320000D02*
D03*
X235000Y-392500D02*
D03*
X-92500Y-347500D02*
D03*
X-92000Y-530000D02*
D03*
M02*
