M48
;Layer_Color=9474304
;FILE_FORMAT=4:4
METRIC,LZ
;TYPE=PLATED
T1F00S00C0.3000
T2F00S00C0.6000
T3F00S00C0.7000
T4F00S00C0.7500
T5F00S00C0.7620
T6F00S00C0.7874
T7F00S00C0.9000
T8F00S00C1.0000
T9F00S00C1.0160
T10F00S00C1.1000
T11F00S00C1.1999
T12F00S00C1.5000
T13F00S00C1.6002
%
T01
X00574Y-00486
X00352Y-00275
X00342Y-00264
X00334Y-00272
X00326Y-0028
X00297Y-00258
Y-00247
Y-00216
X0022Y-00279
Y-00292
Y-00304
Y-00333
X00221Y-00356
Y-00367
X00371Y-00142
X00383Y-00144
X0038Y-00134
X00368Y-00131
X00545Y-0011
X00535Y-001
X0062Y-00078
X00705Y-00119
X00731
X00718Y-00134
X00491Y-00396
X00485Y-00403
X00477Y-00409
X00473Y-00396
X00497Y-00408
X0053Y-00036
X00559Y-00049
X00582Y-00025
X0063375Y-0002275
X00445Y-00035
Y-00046
T02
X-0014Y-0049
X-001275Y-0047
T03
X0063Y-005075
X0023Y-005125
X-00092Y-0053
X-000925Y-003475
X000725Y-00375
X00235Y-003925
X0022Y-0032
X007175Y-001225
Y-0005
T04
X00485Y-004825
X0024
X-00045Y-00245
X-001475
X-002225Y-00245
X0003Y-00245
X0024Y-00295
X004875
T05
X008221Y-00375
X008475
X008729
T06
X004264Y-005375
Y-0051
Y-004825
X00455Y-005375
X005439
X003375
Y-0051
Y-004825
X001764
Y-0051
X000875
Y-004825
X000125Y-004667
Y-005175
X000875Y-00455
X000913Y-004262
X001167
X001421
X001675
X001764Y-00455
X00205Y-004154
Y-003646
X001675Y-0035
X001421
X001167
X000913
X000875Y-003225
Y-00295
X001764
Y-003225
X0024Y-00345
X002675
X003075Y-003646
Y-004154
X00345Y-004262
X003704
X003375Y-00455
X002675Y-004339
X0024
X00345Y-0035
X003704
X0034Y-0032
Y-002925
X003479Y-0023
X002971
X001904Y-002325
X001396
X000525Y-003625
Y-004133
X003958Y-004262
X004212
X004264Y-00455
X00455Y-004158
X00485Y-0043
X005175Y-004289
X005875
X006175
X006811Y-0043
X0077
X006175Y-0034
X005875
X005175
X00485Y-003411
X00455Y-00365
X004212Y-0035
X003958
X004289Y-0032
Y-002925
X00495Y-001954
Y-001446
T07
X0051Y-004825
X00265
X0021Y-005475
X0019
X0017
X0015
X0013
X0011
X0009
X0007
X-000725Y-0053
Y-0048
Y-003975
Y-003475
X-00045Y-0027
X-001475
X-002225Y-0027
X0003Y-0027
X0014Y-0016
X0019
X00295
X00345
X00265Y-00295
X005125
X006125Y-00305
Y-002796
Y-002542
X005725Y-001925
Y-001425
T08
X008046Y-005075
X0083
X008554
X009148
X009402
X007479
X007225
X006971
X-002375Y-004658
Y-004404
Y-00415
X0066436Y-0033095
Y-0022935
T09
X004275Y-0022
Y-0002
T10
X0046377Y-0021949
Y-0012424
T11
X007075Y-003175
Y-002413
X007837
Y-003175
X008345
X008853
Y-002413
X008345
T12
X-0017Y-005162
Y-004654
Y-004146
Y-003638
X-001295Y-002
X-00108Y-0016
X-001375Y-00125
X-002125
X-000375
X000375
X00067Y-0016
X000455Y-002
X001396Y-000825
X00165
X001904
X002946
X0032
X003454
X006775Y-00125
X007525
X00782Y-0016
X007605Y-002
X008525Y-00125
X009275
X00957Y-0016
X009355Y-002
X008525Y-0005
X006775
X0032Y-000325
X00165
X-000375Y-0005
X-002125
T13
X000125Y-005575
M30
