G04 Layer_Color=65535*
%FSLAX44Y44*%
%MOMM*%
G71*
G01*
G75*
%ADD44C,0.1778*%
%ADD45C,0.7620*%
%ADD46C,0.2030*%
%ADD47C,0.3810*%
%ADD48C,0.2500*%
%ADD49C,0.2000*%
%ADD50C,0.2540*%
%ADD51C,0.1000*%
%ADD52C,0.2032*%
%ADD53C,0.1500*%
%ADD54C,0.1270*%
%ADD55C,0.1524*%
D44*
X817526Y-362104D02*
G03*
X812297Y-370014I-9089J325D01*
G01*
X22660Y-466700D02*
G03*
X2340Y-466700I-10160J0D01*
G01*
Y-517500D02*
G03*
X22660Y-517500I10160J0D01*
G01*
X332204Y-400788D02*
G03*
X332300Y-375400I430J12693D01*
G01*
X297340Y-415400D02*
G03*
X317660Y-415400I10160J0D01*
G01*
Y-364600D02*
G03*
X297340Y-364600I-10160J0D01*
G01*
X465160Y-365000D02*
G03*
X444840Y-365000I-10160J0D01*
G01*
Y-415800D02*
G03*
X465160Y-415800I10160J0D01*
G01*
X42340Y-413300D02*
G03*
X62660Y-413300I10160J0D01*
G01*
Y-362500D02*
G03*
X42340Y-362500I-10160J0D01*
G01*
X78504Y-400788D02*
G03*
X78600Y-375400I430J12693D01*
G01*
X215160Y-364600D02*
G03*
X194840Y-364600I-10160J0D01*
G01*
Y-415400D02*
G03*
X215160Y-415400I10160J0D01*
G01*
X484840Y-195400D02*
G03*
X505160Y-195400I10160J0D01*
G01*
Y-144600D02*
G03*
X484840Y-144600I-10160J0D01*
G01*
X139600Y-222340D02*
G03*
X139600Y-242660I0J-10160D01*
G01*
X190400D02*
G03*
X190400Y-222340I0J10160D01*
G01*
X347900Y-240160D02*
G03*
X347900Y-219840I0J10160D01*
G01*
X297100D02*
G03*
X297100Y-240160I0J-10160D01*
G01*
X589160Y-272840D02*
Y-264204D01*
X579000D02*
X589160D01*
X568840D02*
X579000D01*
X568840Y-272840D02*
Y-264204D01*
Y-301796D02*
Y-293160D01*
Y-301796D02*
X579000D01*
X589160D01*
Y-293160D01*
X961160Y-275160D02*
X969796D01*
Y-265000D01*
Y-254840D01*
X961160D02*
X969796D01*
X932204D02*
X940840D01*
X932204Y-265000D02*
Y-254840D01*
Y-275160D02*
Y-265000D01*
Y-275160D02*
X940840D01*
X796700Y-349600D02*
X898554D01*
Y-400400D02*
Y-349600D01*
X894744Y-400400D02*
X898554D01*
X894744D02*
Y-397352D01*
X801018D02*
X894744D01*
X801018Y-400400D02*
Y-397352D01*
X796700Y-400400D02*
X801018D01*
X796700D02*
Y-349600D01*
X801780Y-367888D02*
X814480Y-355188D01*
X750160Y-400160D02*
X758796D01*
Y-390000D01*
Y-379840D01*
X750160D02*
X758796D01*
X721204D02*
X729840D01*
X721204Y-390000D02*
Y-379840D01*
Y-400160D02*
Y-390000D01*
Y-400160D02*
X729840D01*
X562660Y-272340D02*
Y-263704D01*
X552500D02*
X562660D01*
X542340D02*
X552500D01*
X542340Y-272340D02*
Y-263704D01*
Y-301296D02*
Y-292660D01*
Y-301296D02*
X552500D01*
X562660D01*
Y-292660D01*
X961160Y-247160D02*
X969796D01*
Y-237000D01*
Y-226840D01*
X961160D02*
X969796D01*
X932204D02*
X940840D01*
X932204Y-237000D02*
Y-226840D01*
Y-247160D02*
Y-237000D01*
Y-247160D02*
X940840D01*
X458704Y-79840D02*
X467340D01*
X458704Y-90000D02*
Y-79840D01*
Y-100160D02*
Y-90000D01*
Y-100160D02*
X467340D01*
X487660D02*
X496296D01*
Y-90000D01*
Y-79840D01*
X487660D02*
X496296D01*
X605160Y-44840D02*
Y-36204D01*
X595000D02*
X605160D01*
X584840D02*
X595000D01*
X584840Y-44840D02*
Y-36204D01*
Y-73796D02*
Y-65160D01*
Y-73796D02*
X595000D01*
X605160D01*
Y-65160D01*
X630160Y-44840D02*
Y-36204D01*
X620000D02*
X630160D01*
X609840D02*
X620000D01*
X609840Y-44840D02*
Y-36204D01*
Y-73796D02*
Y-65160D01*
Y-73796D02*
X620000D01*
X630160D01*
Y-65160D01*
X707660Y-372660D02*
X716296D01*
Y-362500D01*
Y-352340D01*
X707660D02*
X716296D01*
X678704D02*
X687340D01*
X678704Y-362500D02*
Y-352340D01*
Y-372660D02*
Y-362500D01*
Y-372660D02*
X687340D01*
X617660Y-27660D02*
X626296D01*
Y-17500D01*
Y-7340D01*
X617660D02*
X626296D01*
X588704D02*
X597340D01*
X588704Y-17500D02*
Y-7340D01*
Y-27660D02*
Y-17500D01*
Y-27660D02*
X597340D01*
X505160Y-44840D02*
Y-36204D01*
X495000D02*
X505160D01*
X484840D02*
X495000D01*
X484840Y-44840D02*
Y-36204D01*
Y-73796D02*
Y-65160D01*
Y-73796D02*
X495000D01*
X505160D01*
Y-65160D01*
X477660Y-44840D02*
Y-36204D01*
X467500D02*
X477660D01*
X457340D02*
X467500D01*
X457340Y-44840D02*
Y-36204D01*
Y-73796D02*
Y-65160D01*
Y-73796D02*
X467500D01*
X477660D01*
Y-65160D01*
X707660Y-400160D02*
X716296D01*
Y-390000D01*
Y-379840D01*
X707660D02*
X716296D01*
X678704D02*
X687340D01*
X678704Y-390000D02*
Y-379840D01*
Y-400160D02*
Y-390000D01*
Y-400160D02*
X687340D01*
X750160Y-372660D02*
X758796D01*
Y-362500D01*
Y-352340D01*
X750160D02*
X758796D01*
X721204D02*
X729840D01*
X721204Y-362500D02*
Y-352340D01*
Y-372660D02*
Y-362500D01*
Y-372660D02*
X729840D01*
X487660Y-30160D02*
X496296D01*
Y-20000D01*
Y-9840D01*
X487660D02*
X496296D01*
X458704D02*
X467340D01*
X458704Y-20000D02*
Y-9840D01*
Y-30160D02*
Y-20000D01*
Y-30160D02*
X467340D01*
X22660Y-517500D02*
Y-466700D01*
X2340Y-517500D02*
Y-466700D01*
X6150Y-485750D02*
X20120D01*
X6150Y-497180D02*
X20120D01*
X12500Y-485750D02*
Y-478130D01*
Y-504800D02*
Y-497180D01*
X507848Y-407818D02*
X527152D01*
X507848Y-360828D02*
X527152D01*
Y-407818D02*
Y-360828D01*
X517500D02*
Y-352192D01*
X507848Y-407818D02*
Y-360828D01*
X517500Y-416708D02*
Y-407818D01*
X476082Y-547152D02*
Y-527848D01*
X523072Y-547152D02*
Y-527848D01*
X476082Y-547152D02*
X523072D01*
Y-537500D02*
X531708D01*
X476082Y-527848D02*
X523072D01*
X467192Y-537500D02*
X476082D01*
X358582Y-547152D02*
Y-527848D01*
X405572Y-547152D02*
Y-527848D01*
X358582Y-547152D02*
X405572D01*
Y-537500D02*
X414208D01*
X358582Y-527848D02*
X405572D01*
X349692Y-537500D02*
X358582D01*
X257848Y-412818D02*
X277152D01*
X257848Y-365828D02*
X277152D01*
Y-412818D02*
Y-365828D01*
X267500D02*
Y-357192D01*
X257848Y-412818D02*
Y-365828D01*
X267500Y-421708D02*
Y-412818D01*
X357954Y-375400D02*
X409008D01*
X357954Y-400800D02*
Y-375400D01*
Y-400800D02*
X409008D01*
Y-375400D01*
X332300Y-337300D02*
X433900D01*
Y-438900D02*
Y-337300D01*
X332300Y-438900D02*
X433900D01*
X332300Y-375146D02*
Y-337300D01*
Y-438900D02*
Y-400800D01*
X307500Y-402700D02*
Y-395080D01*
Y-383650D02*
Y-376030D01*
X301150Y-395080D02*
X315120D01*
X301150Y-383650D02*
X315120D01*
X297340Y-415400D02*
Y-364600D01*
X317660Y-415400D02*
Y-364600D01*
X361082Y-329652D02*
Y-310348D01*
X408072Y-329652D02*
Y-310348D01*
X361082Y-329652D02*
X408072D01*
Y-320000D02*
X416708D01*
X361082Y-310348D02*
X408072D01*
X352192Y-320000D02*
X361082D01*
Y-302152D02*
Y-282848D01*
X408072Y-302152D02*
Y-282848D01*
X361082Y-302152D02*
X408072D01*
Y-292500D02*
X416708D01*
X361082Y-282848D02*
X408072D01*
X352192Y-292500D02*
X361082D01*
X358582Y-492152D02*
Y-472848D01*
X405572Y-492152D02*
Y-472848D01*
X358582Y-492152D02*
X405572D01*
Y-482500D02*
X414208D01*
X358582Y-472848D02*
X405572D01*
X349692Y-482500D02*
X358582D01*
Y-519652D02*
Y-500348D01*
X405572Y-519652D02*
Y-500348D01*
X358582Y-519652D02*
X405572D01*
Y-510000D02*
X414208D01*
X358582Y-500348D02*
X405572D01*
X349692Y-510000D02*
X358582D01*
X455000Y-385320D02*
Y-377700D01*
Y-404370D02*
Y-396750D01*
X447380Y-385320D02*
X461350D01*
X447380Y-396750D02*
X461350D01*
X465160Y-415800D02*
Y-365000D01*
X444840Y-415800D02*
Y-365000D01*
X475348Y-408918D02*
X494652D01*
X475348Y-361928D02*
X494652D01*
Y-408918D02*
Y-361928D01*
X485000D02*
Y-353292D01*
X475348Y-408918D02*
Y-361928D01*
X485000Y-417808D02*
Y-408918D01*
X358582Y-464652D02*
Y-445348D01*
X405572Y-464652D02*
Y-445348D01*
X358582Y-464652D02*
X405572D01*
Y-455000D02*
X414208D01*
X358582Y-445348D02*
X405572D01*
X349692Y-455000D02*
X358582D01*
X52500Y-400600D02*
Y-392980D01*
Y-381550D02*
Y-373930D01*
X46150Y-392980D02*
X60120D01*
X46150Y-381550D02*
X60120D01*
X42340Y-413300D02*
Y-362500D01*
X62660Y-413300D02*
Y-362500D01*
X108582Y-332152D02*
Y-312848D01*
X155572Y-332152D02*
Y-312848D01*
X108582Y-332152D02*
X155572D01*
Y-322500D02*
X164208D01*
X108582Y-312848D02*
X155572D01*
X99692Y-322500D02*
X108582D01*
X155318Y-304652D02*
Y-285348D01*
X108328Y-304652D02*
Y-285348D01*
X155318D01*
X99692Y-295000D02*
X108328D01*
Y-304652D02*
X155318D01*
Y-295000D02*
X164208D01*
X108582Y-492152D02*
Y-472848D01*
X155572Y-492152D02*
Y-472848D01*
X108582Y-492152D02*
X155572D01*
Y-482500D02*
X164208D01*
X108582Y-472848D02*
X155572D01*
X99692Y-482500D02*
X108582D01*
Y-519652D02*
Y-500348D01*
X155572Y-519652D02*
Y-500348D01*
X108582Y-519652D02*
X155572D01*
Y-510000D02*
X164208D01*
X108582Y-500348D02*
X155572D01*
X99692Y-510000D02*
X108582D01*
X104254Y-375400D02*
X155308D01*
X104254Y-400800D02*
Y-375400D01*
Y-400800D02*
X155308D01*
Y-375400D01*
X78600Y-337300D02*
X180200D01*
Y-438900D02*
Y-337300D01*
X78600Y-438900D02*
X180200D01*
X78600Y-375146D02*
Y-337300D01*
Y-438900D02*
Y-400800D01*
X205000Y-384920D02*
Y-377300D01*
Y-403970D02*
Y-396350D01*
X197380Y-384920D02*
X211350D01*
X197380Y-396350D02*
X211350D01*
X215160Y-415400D02*
Y-364600D01*
X194840Y-415400D02*
Y-364600D01*
X230348Y-412818D02*
X249652D01*
X230348Y-365828D02*
X249652D01*
Y-412818D02*
Y-365828D01*
X240000D02*
Y-357192D01*
X230348Y-412818D02*
Y-365828D01*
X240000Y-421708D02*
Y-412818D01*
X108582Y-464652D02*
Y-445348D01*
X155572Y-464652D02*
Y-445348D01*
X108582Y-464652D02*
X155572D01*
Y-455000D02*
X164208D01*
X108582Y-445348D02*
X155572D01*
X99692Y-455000D02*
X108582D01*
X702182Y-439652D02*
Y-420348D01*
X749172Y-439652D02*
Y-420348D01*
X702182Y-439652D02*
X749172D01*
Y-430000D02*
X757808D01*
X702182Y-420348D02*
X749172D01*
X693292Y-430000D02*
X702182D01*
X495000Y-182700D02*
Y-175080D01*
Y-163650D02*
Y-156030D01*
X488650Y-175080D02*
X502620D01*
X488650Y-163650D02*
X502620D01*
X484840Y-195400D02*
Y-144600D01*
X505160Y-195400D02*
Y-144600D01*
X-152200Y-551500D02*
Y-440000D01*
X-170000Y-551500D02*
X-152200D01*
X-170000Y-328500D02*
X-152200D01*
Y-440000D02*
Y-328500D01*
X-187800Y-440000D02*
Y-328500D01*
X-170000D01*
X-187800Y-551500D02*
X-170000D01*
X-187800D02*
Y-440000D01*
Y-350000D02*
X-152200D01*
X139600Y-222340D02*
X190400D01*
X139600Y-242660D02*
X190400D01*
X158650Y-238850D02*
Y-224880D01*
X170080Y-238850D02*
Y-224880D01*
X151030Y-232500D02*
X158650D01*
X170080D02*
X177700D01*
X297100Y-240160D02*
X347900D01*
X297100Y-219840D02*
X347900D01*
X328850Y-237620D02*
Y-223650D01*
X317420Y-237620D02*
Y-223650D01*
X328850Y-230000D02*
X336470D01*
X309800D02*
X317420D01*
X617500Y-416708D02*
Y-407818D01*
X607848D02*
Y-360828D01*
X617500D02*
Y-352192D01*
X627152Y-407818D02*
Y-360828D01*
X607848D02*
X627152D01*
X607848Y-407818D02*
X627152D01*
X587500Y-416708D02*
Y-407818D01*
X577848D02*
Y-360828D01*
X587500D02*
Y-352192D01*
X597152Y-407818D02*
Y-360828D01*
X577848D02*
X597152D01*
X577848Y-407818D02*
X597152D01*
D45*
X552065Y-73796D02*
G03*
X552042Y-73803I318J-1030D01*
G01*
D46*
X30280Y-557500D02*
G03*
X30280Y-557500I-17780J0D01*
G01*
D47*
X347286Y-406642D02*
G03*
X347286Y-406642I-2032J0D01*
G01*
X93586D02*
G03*
X93586Y-406642I-2032J0D01*
G01*
D48*
X119250Y-94500D02*
G03*
X119250Y-94500I-1250J0D01*
G01*
X274250D02*
G03*
X274250Y-94500I-1250J0D01*
G01*
D49*
X64000Y-257500D02*
G03*
X64000Y-257500I-34000J0D01*
G01*
X-11000D02*
G03*
X-11000Y-257500I-34000J0D01*
G01*
X534000Y-295000D02*
G03*
X534000Y-295000I-34000J0D01*
G01*
X531500Y-482500D02*
G03*
X531500Y-482500I-34000J0D01*
G01*
X-113500Y-257500D02*
G03*
X-113500Y-257500I-34000J0D01*
G01*
X-188500Y-257500D02*
G03*
X-188500Y-257500I-34000J0D01*
G01*
X286500Y-295000D02*
G03*
X286500Y-295000I-34000J0D01*
G01*
Y-482500D02*
G03*
X286500Y-482500I-34000J0D01*
G01*
X-7500Y-372500D02*
G03*
X-7500Y-372500I-65000J0D01*
G01*
Y-505000D02*
G03*
X-7500Y-505000I-65000J0D01*
G01*
X625500Y-167500D02*
G03*
X625500Y-167500I-53000J0D01*
G01*
X218000Y-160000D02*
G03*
X218000Y-160000I-53000J0D01*
G01*
X373000D02*
G03*
X373000Y-160000I-53000J0D01*
G01*
X891178Y-531630D02*
X963060D01*
Y-474988D01*
X891178D02*
X963060D01*
X891178Y-531630D02*
Y-474988D01*
X111500Y-59000D02*
X218500D01*
X111500Y-54000D02*
X218500D01*
X111500Y-101000D02*
X218500D01*
X111500D02*
Y-54000D01*
X218500Y-101000D02*
Y-54000D01*
X-261630Y-488660D02*
Y-391378D01*
Y-488660D02*
X-204988D01*
Y-391378D01*
X-261630D02*
X-204988D01*
X266500Y-59000D02*
X373500D01*
X266500Y-54000D02*
X373500D01*
X266500Y-101000D02*
X373500D01*
X266500D02*
Y-54000D01*
X373500Y-101000D02*
Y-54000D01*
X-255000Y-215000D02*
Y0D01*
X-255000Y-215000D02*
X-95000D01*
X-95000Y-215000D01*
Y0D01*
X-255000D02*
X-95000D01*
X-80000D02*
X80000D01*
Y-215000D02*
Y0D01*
X80000Y-215000D02*
X80000Y-215000D01*
X-80000Y-215000D02*
X80000D01*
X-80000Y-215000D02*
Y0D01*
X635000Y-215000D02*
Y0D01*
X635000Y-215000D02*
X795000D01*
X795000Y-215000D01*
Y0D01*
X635000D02*
X795000D01*
X780978Y-531630D02*
Y-474988D01*
X878260D01*
Y-531630D02*
Y-474988D01*
X780978Y-531630D02*
X878260D01*
X673478D02*
Y-474988D01*
X770760D01*
Y-531630D02*
Y-474988D01*
X673478Y-531630D02*
X770760D01*
X810000Y0D02*
X970000D01*
Y-215000D02*
Y0D01*
X970000Y-215000D02*
X970000Y-215000D01*
X810000Y-215000D02*
X970000D01*
X810000Y-215000D02*
Y0D01*
X652930Y-261100D02*
X677060D01*
X652930Y-259830D02*
X677060D01*
D50*
X598550Y-309529D02*
G03*
X598550Y-249671I13950J29929D01*
G01*
X558923Y-80400D02*
Y-29600D01*
X531000D02*
X558923D01*
X531000Y-80400D02*
Y-29600D01*
Y-80400D02*
X558923D01*
X427500Y-209916D02*
Y-183500D01*
X414800Y-56500D02*
X426992D01*
X414800Y-183500D02*
Y-56500D01*
Y-183500D02*
X440200D01*
Y-56500D01*
X427500D02*
X440200D01*
X427246Y-56246D02*
X427500Y-56500D01*
X426992D02*
Y-30846D01*
X721318Y-287076D02*
X731478D01*
X721318Y-281996D02*
X731478D01*
X721318Y-276916D02*
X731478D01*
X721318Y-292156D02*
Y-271836D01*
Y-292156D02*
X731478D01*
Y-271836D01*
X721318D02*
X731478D01*
X833078Y-302316D02*
X848318D01*
X833078Y-307396D02*
Y-302316D01*
X868638D02*
X883878D01*
Y-307396D02*
Y-302316D01*
X849047Y-306756D02*
X858478Y-292156D01*
X782278D02*
X858478D01*
X782278Y-307396D02*
Y-292156D01*
X883878Y-256596D02*
Y-251516D01*
X868638Y-256596D02*
X883878D01*
X833078D02*
Y-251516D01*
Y-256596D02*
X848318D01*
X782278Y-266756D02*
Y-251516D01*
Y-266756D02*
X833078D01*
X858478D01*
X849547Y-252255D02*
X858478Y-266756D01*
X706078Y-276916D02*
X716238D01*
Y-287076D02*
Y-276916D01*
X706078Y-287076D02*
X716238D01*
X706078Y-276916D02*
Y-251516D01*
X695918Y-276916D02*
X706078D01*
X695918Y-287076D02*
Y-276916D01*
Y-287076D02*
X706078D01*
Y-307396D02*
Y-287076D01*
X690838Y-332796D02*
X899118D01*
Y-226116D01*
X690838D02*
X899118D01*
X690838Y-332796D02*
Y-226116D01*
X598530Y-309318D02*
Y-249628D01*
X652930Y-314440D02*
Y-247130D01*
X677060Y-314440D02*
Y-247130D01*
X664360Y-324600D02*
Y-314440D01*
Y-247130D02*
Y-235700D01*
X652930Y-314440D02*
X677060D01*
X652930Y-263640D02*
X677060D01*
X652930Y-247130D02*
X677060D01*
D51*
X210000Y-42500D02*
X230000D01*
X190000D02*
X200000D01*
X130000D02*
X140000D01*
X100000D02*
X120000D01*
X150000Y-20000D02*
X180000D01*
X150000D02*
Y-2500D01*
X190000Y-42500D02*
Y-2500D01*
X140000Y-42500D02*
Y-2500D01*
X200000Y-42500D02*
Y-2500D01*
X210000D01*
Y-42500D02*
Y-2500D01*
X130000Y-42500D02*
Y-2500D01*
X120000D02*
X130000D01*
X120000Y-42500D02*
Y-2500D01*
X240000Y-102500D02*
Y-2500D01*
X230000Y-102500D02*
Y-52500D01*
X100000D02*
X230000D01*
X100000Y-102500D02*
Y-52500D01*
X90000Y-102500D02*
Y-42500D01*
Y-102500D02*
X100000D01*
X100000Y-102500D01*
X240000Y-102500D02*
Y-42500D01*
X230000Y-102500D02*
X240000D01*
X230000Y-102500D02*
X230000Y-102500D01*
X90000D02*
Y-2500D01*
X100000Y-42500D02*
Y-2500D01*
X90000D02*
X100000D01*
X230000Y-42500D02*
Y-2500D01*
X240000D01*
X140000D02*
X150000D01*
X180000D02*
X190000D01*
X180000Y-20000D02*
Y-2500D01*
X365000Y-42500D02*
X385000D01*
X345000D02*
X355000D01*
X285000D02*
X295000D01*
X255000D02*
X275000D01*
X305000Y-20000D02*
X335000D01*
X305000D02*
Y-2500D01*
X345000Y-42500D02*
Y-2500D01*
X295000Y-42500D02*
Y-2500D01*
X355000Y-42500D02*
Y-2500D01*
X365000D01*
Y-42500D02*
Y-2500D01*
X285000Y-42500D02*
Y-2500D01*
X275000D02*
X285000D01*
X275000Y-42500D02*
Y-2500D01*
X395000Y-102500D02*
Y-2500D01*
X385000Y-102500D02*
Y-52500D01*
X255000D02*
X385000D01*
X255000Y-102500D02*
Y-52500D01*
X245000Y-102500D02*
Y-42500D01*
Y-102500D02*
X255000D01*
X255000Y-102500D01*
X395000Y-102500D02*
Y-42500D01*
X385000Y-102500D02*
X395000D01*
X385000Y-102500D02*
X385000Y-102500D01*
X245000D02*
Y-2500D01*
X255000Y-42500D02*
Y-2500D01*
X245000D02*
X255000D01*
X385000Y-42500D02*
Y-2500D01*
X395000D01*
X295000D02*
X305000D01*
X335000D02*
X345000D01*
X335000Y-20000D02*
Y-2500D01*
D52*
X452820Y-169970D02*
X457900Y-175050D01*
X462980D01*
X468060D02*
X473140Y-180130D01*
X462980Y-175050D02*
X468060D01*
X462980Y-164890D02*
Y-125510D01*
Y-216950D02*
Y-175050D01*
X473140Y-164890D01*
X452820D02*
X462980Y-175050D01*
X452820Y-164890D02*
X473140D01*
D53*
X120000Y-532500D02*
Y-527500D01*
Y-532500D02*
X160000D01*
Y-527500D01*
X50000D02*
X230000D01*
Y-577500D02*
Y-547500D01*
Y-527500D01*
X50000Y-577500D02*
X230000D01*
X50000D02*
Y-527500D01*
D54*
X919997Y-365000D02*
X913332D01*
X910000Y-368332D01*
X913332Y-371665D01*
X919997D01*
X910000Y-374997D02*
X919997D01*
Y-379995D01*
X918331Y-381661D01*
X914998D01*
X913332Y-379995D01*
Y-374997D01*
Y-378329D02*
X910000Y-381661D01*
Y-384994D02*
Y-388326D01*
Y-386660D01*
X919997D01*
X918331Y-384994D01*
X557000Y-331000D02*
X547003D01*
Y-326002D01*
X548669Y-324336D01*
X552002D01*
X553668Y-326002D01*
Y-331000D01*
Y-327668D02*
X557000Y-324336D01*
X548669Y-321003D02*
X547003Y-319337D01*
Y-316005D01*
X548669Y-314339D01*
X550336D01*
X552002Y-316005D01*
Y-317671D01*
Y-316005D01*
X553668Y-314339D01*
X555334D01*
X557000Y-316005D01*
Y-319337D01*
X555334Y-321003D01*
X557000Y-311006D02*
Y-307674D01*
Y-309340D01*
X547003D01*
X548669Y-311006D01*
X765000Y-394000D02*
Y-384003D01*
X769998D01*
X771665Y-385669D01*
Y-389002D01*
X769998Y-390668D01*
X765000D01*
X768332D02*
X771665Y-394000D01*
X774997Y-385669D02*
X776663Y-384003D01*
X779995D01*
X781661Y-385669D01*
Y-387336D01*
X779995Y-389002D01*
X778329D01*
X779995D01*
X781661Y-390668D01*
Y-392334D01*
X779995Y-394000D01*
X776663D01*
X774997Y-392334D01*
X784994Y-385669D02*
X786660Y-384003D01*
X789992D01*
X791658Y-385669D01*
Y-392334D01*
X789992Y-394000D01*
X786660D01*
X784994Y-392334D01*
Y-385669D01*
X575000Y-332000D02*
X565003D01*
Y-327002D01*
X566669Y-325336D01*
X570002D01*
X571668Y-327002D01*
Y-332000D01*
Y-328668D02*
X575000Y-325336D01*
Y-315339D02*
Y-322003D01*
X568335Y-315339D01*
X566669D01*
X565003Y-317005D01*
Y-320337D01*
X566669Y-322003D01*
X573334Y-312006D02*
X575000Y-310340D01*
Y-307008D01*
X573334Y-305342D01*
X566669D01*
X565003Y-307008D01*
Y-310340D01*
X566669Y-312006D01*
X568335D01*
X570002Y-310340D01*
Y-305342D01*
X909665Y-263669D02*
X907998Y-262003D01*
X904666D01*
X903000Y-263669D01*
Y-270334D01*
X904666Y-272000D01*
X907998D01*
X909665Y-270334D01*
X919661Y-272000D02*
X912997D01*
X919661Y-265336D01*
Y-263669D01*
X917995Y-262003D01*
X914663D01*
X912997Y-263669D01*
X922994D02*
X924660Y-262003D01*
X927992D01*
X929658Y-263669D01*
Y-265336D01*
X927992Y-267002D01*
X929658Y-268668D01*
Y-270334D01*
X927992Y-272000D01*
X924660D01*
X922994Y-270334D01*
Y-268668D01*
X924660Y-267002D01*
X922994Y-265336D01*
Y-263669D01*
X924660Y-267002D02*
X927992D01*
X903000Y-242000D02*
Y-232003D01*
X907998D01*
X909665Y-233669D01*
Y-237002D01*
X907998Y-238668D01*
X903000D01*
X906332D02*
X909665Y-242000D01*
X919661D02*
X912997D01*
X919661Y-235336D01*
Y-233669D01*
X917995Y-232003D01*
X914663D01*
X912997Y-233669D01*
X922994D02*
X924660Y-232003D01*
X927992D01*
X929658Y-233669D01*
Y-235336D01*
X927992Y-237002D01*
X929658Y-238668D01*
Y-240334D01*
X927992Y-242000D01*
X924660D01*
X922994Y-240334D01*
Y-238668D01*
X924660Y-237002D01*
X922994Y-235336D01*
Y-233669D01*
X924660Y-237002D02*
X927992D01*
X540003Y-62500D02*
X548334D01*
X550000Y-60834D01*
Y-57502D01*
X548334Y-55835D01*
X540003D01*
Y-45839D02*
Y-52503D01*
X545002D01*
X543335Y-49171D01*
Y-47505D01*
X545002Y-45839D01*
X548334D01*
X550000Y-47505D01*
Y-50837D01*
X548334Y-52503D01*
X502500Y-22500D02*
Y-12503D01*
X507498D01*
X509165Y-14169D01*
Y-17502D01*
X507498Y-19168D01*
X502500D01*
X505832D02*
X509165Y-22500D01*
X519161D02*
X512497D01*
X519161Y-15835D01*
Y-14169D01*
X517495Y-12503D01*
X514163D01*
X512497Y-14169D01*
X522494Y-12503D02*
X529158D01*
Y-14169D01*
X522494Y-20834D01*
Y-22500D01*
X765000Y-367000D02*
Y-357003D01*
X769998D01*
X771665Y-358669D01*
Y-362002D01*
X769998Y-363668D01*
X765000D01*
X768332D02*
X771665Y-367000D01*
X781661D02*
X774997D01*
X781661Y-360336D01*
Y-358669D01*
X779995Y-357003D01*
X776663D01*
X774997Y-358669D01*
X791658Y-357003D02*
X788326Y-358669D01*
X784994Y-362002D01*
Y-365334D01*
X786660Y-367000D01*
X789992D01*
X791658Y-365334D01*
Y-363668D01*
X789992Y-362002D01*
X784994D01*
X527500Y-130000D02*
X517503D01*
Y-125002D01*
X519169Y-123336D01*
X522502D01*
X524168Y-125002D01*
Y-130000D01*
Y-126668D02*
X527500Y-123336D01*
Y-113339D02*
Y-120003D01*
X520835Y-113339D01*
X519169D01*
X517503Y-115005D01*
Y-118337D01*
X519169Y-120003D01*
X517503Y-103342D02*
Y-110006D01*
X522502D01*
X520835Y-106674D01*
Y-105008D01*
X522502Y-103342D01*
X525834D01*
X527500Y-105008D01*
Y-108340D01*
X525834Y-110006D01*
X510000Y-127500D02*
X500003D01*
Y-122502D01*
X501669Y-120836D01*
X505002D01*
X506668Y-122502D01*
Y-127500D01*
Y-124168D02*
X510000Y-120836D01*
Y-110839D02*
Y-117503D01*
X503335Y-110839D01*
X501669D01*
X500003Y-112505D01*
Y-115837D01*
X501669Y-117503D01*
X510000Y-102508D02*
X500003D01*
X505002Y-107506D01*
Y-100842D01*
X597500Y-105000D02*
X587503D01*
Y-100002D01*
X589169Y-98336D01*
X592502D01*
X594168Y-100002D01*
Y-105000D01*
Y-101668D02*
X597500Y-98336D01*
Y-88339D02*
Y-95003D01*
X590835Y-88339D01*
X589169D01*
X587503Y-90005D01*
Y-93337D01*
X589169Y-95003D01*
X597500Y-78342D02*
Y-85006D01*
X590835Y-78342D01*
X589169D01*
X587503Y-80008D01*
Y-83340D01*
X589169Y-85006D01*
X612500Y-80000D02*
X622497D01*
Y-84998D01*
X620831Y-86664D01*
X617498D01*
X615832Y-84998D01*
Y-80000D01*
Y-83332D02*
X612500Y-86664D01*
Y-96661D02*
Y-89997D01*
X619165Y-96661D01*
X620831D01*
X622497Y-94995D01*
Y-91663D01*
X620831Y-89997D01*
Y-99994D02*
X622497Y-101660D01*
Y-104992D01*
X620831Y-106658D01*
X614166D01*
X612500Y-104992D01*
Y-101660D01*
X614166Y-99994D01*
X620831D01*
X654165Y-386669D02*
X652498Y-385003D01*
X649166D01*
X647500Y-386669D01*
Y-393334D01*
X649166Y-395000D01*
X652498D01*
X654165Y-393334D01*
X664161Y-395000D02*
X657497D01*
X664161Y-388335D01*
Y-386669D01*
X662495Y-385003D01*
X659163D01*
X657497Y-386669D01*
X674158Y-385003D02*
X670826Y-386669D01*
X667494Y-390002D01*
Y-393334D01*
X669160Y-395000D01*
X672492D01*
X674158Y-393334D01*
Y-391668D01*
X672492Y-390002D01*
X667494D01*
X564165Y-11669D02*
X562498Y-10003D01*
X559166D01*
X557500Y-11669D01*
Y-18334D01*
X559166Y-20000D01*
X562498D01*
X564165Y-18334D01*
X567497Y-20000D02*
X570829D01*
X569163D01*
Y-10003D01*
X567497Y-11669D01*
X575827Y-18334D02*
X577494Y-20000D01*
X580826D01*
X582492Y-18334D01*
Y-11669D01*
X580826Y-10003D01*
X577494D01*
X575827Y-11669D01*
Y-13335D01*
X577494Y-15002D01*
X582492D01*
X654165Y-359169D02*
X652498Y-357503D01*
X649166D01*
X647500Y-359169D01*
Y-365834D01*
X649166Y-367500D01*
X652498D01*
X654165Y-365834D01*
X657497Y-367500D02*
X660829D01*
X659163D01*
Y-357503D01*
X657497Y-359169D01*
X665827Y-357503D02*
X672492D01*
Y-359169D01*
X665827Y-365834D01*
Y-367500D01*
X511665Y-86669D02*
X509998Y-85003D01*
X506666D01*
X505000Y-86669D01*
Y-93334D01*
X506666Y-95000D01*
X509998D01*
X511665Y-93334D01*
X514997Y-95000D02*
X518329D01*
X516663D01*
Y-85003D01*
X514997Y-86669D01*
X523327D02*
X524994Y-85003D01*
X528326D01*
X529992Y-86669D01*
Y-93334D01*
X528326Y-95000D01*
X524994D01*
X523327Y-93334D01*
Y-86669D01*
X282500Y-377500D02*
X292497D01*
Y-382498D01*
X290831Y-384165D01*
X287498D01*
X285832Y-382498D01*
Y-377500D01*
Y-380832D02*
X282500Y-384165D01*
Y-394161D02*
Y-387497D01*
X289165Y-394161D01*
X290831D01*
X292497Y-392495D01*
Y-389163D01*
X290831Y-387497D01*
X282500Y-397494D02*
Y-400826D01*
Y-399160D01*
X292497D01*
X290831Y-397494D01*
X297500Y-542500D02*
Y-532503D01*
X302498D01*
X304165Y-534169D01*
Y-537502D01*
X302498Y-539168D01*
X297500D01*
X300832D02*
X304165Y-542500D01*
X307497D02*
X310829D01*
X309163D01*
Y-532503D01*
X307497Y-534169D01*
X315827Y-540834D02*
X317494Y-542500D01*
X320826D01*
X322492Y-540834D01*
Y-534169D01*
X320826Y-532503D01*
X317494D01*
X315827Y-534169D01*
Y-535835D01*
X317494Y-537502D01*
X322492D01*
X527500Y-437500D02*
X537497D01*
Y-442498D01*
X535831Y-444165D01*
X532498D01*
X530832Y-442498D01*
Y-437500D01*
Y-440832D02*
X527500Y-444165D01*
Y-447497D02*
Y-450829D01*
Y-449163D01*
X537497D01*
X535831Y-447497D01*
Y-455827D02*
X537497Y-457494D01*
Y-460826D01*
X535831Y-462492D01*
X534165D01*
X532498Y-460826D01*
X530832Y-462492D01*
X529166D01*
X527500Y-460826D01*
Y-457494D01*
X529166Y-455827D01*
X530832D01*
X532498Y-457494D01*
X534165Y-455827D01*
X535831D01*
X532498Y-457494D02*
Y-460826D01*
X487500Y-562500D02*
Y-552503D01*
X492498D01*
X494165Y-554169D01*
Y-557502D01*
X492498Y-559168D01*
X487500D01*
X490832D02*
X494165Y-562500D01*
X497497D02*
X500829D01*
X499163D01*
Y-552503D01*
X497497Y-554169D01*
X505827Y-552503D02*
X512492D01*
Y-554169D01*
X505827Y-560834D01*
Y-562500D01*
X300800Y-335003D02*
Y-343334D01*
X302466Y-345000D01*
X305798D01*
X307465Y-343334D01*
Y-335003D01*
X310797Y-336669D02*
X312463Y-335003D01*
X315795D01*
X317461Y-336669D01*
Y-338335D01*
X315795Y-340002D01*
X314129D01*
X315795D01*
X317461Y-341668D01*
Y-343334D01*
X315795Y-345000D01*
X312463D01*
X310797Y-343334D01*
X42500Y-332503D02*
Y-340834D01*
X44166Y-342500D01*
X47498D01*
X49165Y-340834D01*
Y-332503D01*
X57495Y-342500D02*
Y-332503D01*
X52497Y-337502D01*
X59161D01*
X90000Y-110003D02*
Y-118334D01*
X91666Y-120000D01*
X94998D01*
X96664Y-118334D01*
Y-110003D01*
X99997Y-120000D02*
X103329D01*
X101663D01*
Y-110003D01*
X99997Y-111669D01*
X217500Y-330000D02*
X227497D01*
Y-334998D01*
X225831Y-336665D01*
X222498D01*
X220832Y-334998D01*
Y-330000D01*
Y-333332D02*
X217500Y-336665D01*
Y-339997D02*
Y-343329D01*
Y-341663D01*
X227497D01*
X225831Y-339997D01*
X227497Y-354992D02*
X225831Y-351660D01*
X222498Y-348327D01*
X219166D01*
X217500Y-349994D01*
Y-353326D01*
X219166Y-354992D01*
X220832D01*
X222498Y-353326D01*
Y-348327D01*
X46400Y-460000D02*
Y-450003D01*
X51398D01*
X53064Y-451669D01*
Y-455002D01*
X51398Y-456668D01*
X46400D01*
X49732D02*
X53064Y-460000D01*
X56397D02*
X59729D01*
X58063D01*
Y-450003D01*
X56397Y-451669D01*
X71392Y-450003D02*
X64727D01*
Y-455002D01*
X68060Y-453335D01*
X69726D01*
X71392Y-455002D01*
Y-458334D01*
X69726Y-460000D01*
X66393D01*
X64727Y-458334D01*
X190000Y-325000D02*
Y-315003D01*
X194998D01*
X196665Y-316669D01*
Y-320002D01*
X194998Y-321668D01*
X190000D01*
X193332D02*
X196665Y-325000D01*
X199997D02*
X203329D01*
X201663D01*
Y-315003D01*
X199997Y-316669D01*
X213326Y-325000D02*
Y-315003D01*
X208327Y-320002D01*
X214992D01*
X190000Y-300000D02*
Y-290003D01*
X194998D01*
X196665Y-291669D01*
Y-295002D01*
X194998Y-296668D01*
X190000D01*
X193332D02*
X196665Y-300000D01*
X199997D02*
X203329D01*
X201663D01*
Y-290003D01*
X199997Y-291669D01*
X208327D02*
X209994Y-290003D01*
X213326D01*
X214992Y-291669D01*
Y-293335D01*
X213326Y-295002D01*
X211660D01*
X213326D01*
X214992Y-296668D01*
Y-298334D01*
X213326Y-300000D01*
X209994D01*
X208327Y-298334D01*
X48900Y-490000D02*
Y-480003D01*
X53898D01*
X55564Y-481669D01*
Y-485002D01*
X53898Y-486668D01*
X48900D01*
X52232D02*
X55564Y-490000D01*
X58897D02*
X62229D01*
X60563D01*
Y-480003D01*
X58897Y-481669D01*
X73892Y-490000D02*
X67227D01*
X73892Y-483335D01*
Y-481669D01*
X72226Y-480003D01*
X68894D01*
X67227Y-481669D01*
X53900Y-512500D02*
Y-502503D01*
X58898D01*
X60564Y-504169D01*
Y-507502D01*
X58898Y-509168D01*
X53900D01*
X57232D02*
X60564Y-512500D01*
X63897D02*
X67229D01*
X65563D01*
Y-502503D01*
X63897Y-504169D01*
X72227Y-512500D02*
X75560D01*
X73894D01*
Y-502503D01*
X72227Y-504169D01*
X462500Y-327500D02*
X472497D01*
Y-332498D01*
X470831Y-334165D01*
X467498D01*
X465832Y-332498D01*
Y-327500D01*
Y-330832D02*
X462500Y-334165D01*
Y-337497D02*
Y-340829D01*
Y-339163D01*
X472497D01*
X470831Y-337497D01*
Y-345827D02*
X472497Y-347494D01*
Y-350826D01*
X470831Y-352492D01*
X464166D01*
X462500Y-350826D01*
Y-347494D01*
X464166Y-345827D01*
X470831D01*
X297500Y-460000D02*
Y-450003D01*
X302498D01*
X304165Y-451669D01*
Y-455002D01*
X302498Y-456668D01*
X297500D01*
X300832D02*
X304165Y-460000D01*
X307497Y-458334D02*
X309163Y-460000D01*
X312495D01*
X314161Y-458334D01*
Y-451669D01*
X312495Y-450003D01*
X309163D01*
X307497Y-451669D01*
Y-453335D01*
X309163Y-455002D01*
X314161D01*
X310000Y-325000D02*
Y-315003D01*
X314998D01*
X316665Y-316669D01*
Y-320002D01*
X314998Y-321668D01*
X310000D01*
X313332D02*
X316665Y-325000D01*
X319997Y-316669D02*
X321663Y-315003D01*
X324995D01*
X326661Y-316669D01*
Y-318335D01*
X324995Y-320002D01*
X326661Y-321668D01*
Y-323334D01*
X324995Y-325000D01*
X321663D01*
X319997Y-323334D01*
Y-321668D01*
X321663Y-320002D01*
X319997Y-318335D01*
Y-316669D01*
X321663Y-320002D02*
X324995D01*
X305000Y-302500D02*
Y-292503D01*
X309998D01*
X311665Y-294169D01*
Y-297502D01*
X309998Y-299168D01*
X305000D01*
X308332D02*
X311665Y-302500D01*
X314997Y-292503D02*
X321661D01*
Y-294169D01*
X314997Y-300834D01*
Y-302500D01*
X297500Y-487500D02*
Y-477503D01*
X302498D01*
X304165Y-479169D01*
Y-482502D01*
X302498Y-484168D01*
X297500D01*
X300832D02*
X304165Y-487500D01*
X314161Y-477503D02*
X310829Y-479169D01*
X307497Y-482502D01*
Y-485834D01*
X309163Y-487500D01*
X312495D01*
X314161Y-485834D01*
Y-484168D01*
X312495Y-482502D01*
X307497D01*
X297500Y-515000D02*
Y-505003D01*
X302498D01*
X304165Y-506669D01*
Y-510002D01*
X302498Y-511668D01*
X297500D01*
X300832D02*
X304165Y-515000D01*
X314161Y-505003D02*
X307497D01*
Y-510002D01*
X310829Y-508335D01*
X312495D01*
X314161Y-510002D01*
Y-513334D01*
X312495Y-515000D01*
X309163D01*
X307497Y-513334D01*
X208331Y-436665D02*
X209997Y-434998D01*
Y-431666D01*
X208331Y-430000D01*
X201666D01*
X200000Y-431666D01*
Y-434998D01*
X201666Y-436665D01*
X200000Y-446661D02*
Y-439997D01*
X206665Y-446661D01*
X208331D01*
X209997Y-444995D01*
Y-441663D01*
X208331Y-439997D01*
X209997Y-456658D02*
Y-449994D01*
X204998D01*
X206665Y-453326D01*
Y-454992D01*
X204998Y-456658D01*
X201666D01*
X200000Y-454992D01*
Y-451660D01*
X201666Y-449994D01*
X241665Y-246669D02*
X239998Y-245003D01*
X236666D01*
X235000Y-246669D01*
Y-253334D01*
X236666Y-255000D01*
X239998D01*
X241665Y-253334D01*
X251661Y-255000D02*
X244997D01*
X251661Y-248335D01*
Y-246669D01*
X249995Y-245003D01*
X246663D01*
X244997Y-246669D01*
X259992Y-255000D02*
Y-245003D01*
X254994Y-250002D01*
X261658D01*
X199165Y-504169D02*
X197498Y-502503D01*
X194166D01*
X192500Y-504169D01*
Y-510834D01*
X194166Y-512500D01*
X197498D01*
X199165Y-510834D01*
X209161Y-512500D02*
X202497D01*
X209161Y-505835D01*
Y-504169D01*
X207495Y-502503D01*
X204163D01*
X202497Y-504169D01*
X212494D02*
X214160Y-502503D01*
X217492D01*
X219158Y-504169D01*
Y-505835D01*
X217492Y-507502D01*
X215826D01*
X217492D01*
X219158Y-509168D01*
Y-510834D01*
X217492Y-512500D01*
X214160D01*
X212494Y-510834D01*
X-158336Y-299169D02*
X-160002Y-297503D01*
X-163334D01*
X-165000Y-299169D01*
Y-305834D01*
X-163334Y-307500D01*
X-160002D01*
X-158336Y-305834D01*
X-148339Y-307500D02*
X-155003D01*
X-148339Y-300835D01*
Y-299169D01*
X-150005Y-297503D01*
X-153337D01*
X-155003Y-299169D01*
X-138342Y-307500D02*
X-145006D01*
X-138342Y-300835D01*
Y-299169D01*
X-140008Y-297503D01*
X-143340D01*
X-145006Y-299169D01*
X-225835D02*
X-227502Y-297503D01*
X-230834D01*
X-232500Y-299169D01*
Y-305834D01*
X-230834Y-307500D01*
X-227502D01*
X-225835Y-305834D01*
X-215839Y-307500D02*
X-222503D01*
X-215839Y-300835D01*
Y-299169D01*
X-217505Y-297503D01*
X-220837D01*
X-222503Y-299169D01*
X-212506Y-307500D02*
X-209174D01*
X-210840D01*
Y-297503D01*
X-212506Y-299169D01*
X33331Y-381665D02*
X34997Y-379998D01*
Y-376666D01*
X33331Y-375000D01*
X26666D01*
X25000Y-376666D01*
Y-379998D01*
X26666Y-381665D01*
X25000Y-391661D02*
Y-384997D01*
X31665Y-391661D01*
X33331D01*
X34997Y-389995D01*
Y-386663D01*
X33331Y-384997D01*
Y-394994D02*
X34997Y-396660D01*
Y-399992D01*
X33331Y-401658D01*
X26666D01*
X25000Y-399992D01*
Y-396660D01*
X26666Y-394994D01*
X33331D01*
X458331Y-439165D02*
X459997Y-437498D01*
Y-434166D01*
X458331Y-432500D01*
X451666D01*
X450000Y-434166D01*
Y-437498D01*
X451666Y-439165D01*
X450000Y-442497D02*
Y-445829D01*
Y-444163D01*
X459997D01*
X458331Y-442497D01*
X459997Y-457492D02*
X458331Y-454160D01*
X454998Y-450827D01*
X451666D01*
X450000Y-452494D01*
Y-455826D01*
X451666Y-457492D01*
X453332D01*
X454998Y-455826D01*
Y-450827D01*
X486665Y-246669D02*
X484998Y-245003D01*
X481666D01*
X480000Y-246669D01*
Y-253334D01*
X481666Y-255000D01*
X484998D01*
X486665Y-253334D01*
X489997Y-255000D02*
X493329D01*
X491663D01*
Y-245003D01*
X489997Y-246669D01*
X504992Y-245003D02*
X498327D01*
Y-250002D01*
X501660Y-248335D01*
X503326D01*
X504992Y-250002D01*
Y-253334D01*
X503326Y-255000D01*
X499994D01*
X498327Y-253334D01*
X449165Y-504169D02*
X447498Y-502503D01*
X444166D01*
X442500Y-504169D01*
Y-510834D01*
X444166Y-512500D01*
X447498D01*
X449165Y-510834D01*
X452497Y-512500D02*
X455829D01*
X454163D01*
Y-502503D01*
X452497Y-504169D01*
X465826Y-512500D02*
Y-502503D01*
X460827Y-507502D01*
X467492D01*
X24165Y-299169D02*
X22498Y-297503D01*
X19166D01*
X17500Y-299169D01*
Y-305834D01*
X19166Y-307500D01*
X22498D01*
X24165Y-305834D01*
X27497Y-307500D02*
X30829D01*
X29163D01*
Y-297503D01*
X27497Y-299169D01*
X35827D02*
X37494Y-297503D01*
X40826D01*
X42492Y-299169D01*
Y-300835D01*
X40826Y-302502D01*
X39160D01*
X40826D01*
X42492Y-304168D01*
Y-305834D01*
X40826Y-307500D01*
X37494D01*
X35827Y-305834D01*
X-48335Y-296669D02*
X-50002Y-295003D01*
X-53334D01*
X-55000Y-296669D01*
Y-303334D01*
X-53334Y-305000D01*
X-50002D01*
X-48335Y-303334D01*
X-45003Y-305000D02*
X-41671D01*
X-43337D01*
Y-295003D01*
X-45003Y-296669D01*
X-30008Y-305000D02*
X-36673D01*
X-30008Y-298335D01*
Y-296669D01*
X-31674Y-295003D01*
X-35006D01*
X-36673Y-296669D01*
X290831Y-419165D02*
X292497Y-417498D01*
Y-414166D01*
X290831Y-412500D01*
X284166D01*
X282500Y-414166D01*
Y-417498D01*
X284166Y-419165D01*
X282500Y-422497D02*
Y-425829D01*
Y-424163D01*
X292497D01*
X290831Y-422497D01*
X282500Y-430827D02*
Y-434160D01*
Y-432494D01*
X292497D01*
X290831Y-430827D01*
X717500Y-412500D02*
Y-402503D01*
X722498D01*
X724165Y-404169D01*
Y-407502D01*
X722498Y-409168D01*
X717500D01*
X720832D02*
X724165Y-412500D01*
X732495D02*
Y-402503D01*
X727497Y-407502D01*
X734161D01*
X910000Y-542503D02*
Y-552500D01*
X916665D01*
X926661Y-542503D02*
X919997D01*
Y-552500D01*
X926661D01*
X919997Y-547502D02*
X923329D01*
X929994Y-542503D02*
Y-552500D01*
X934992D01*
X936658Y-550834D01*
Y-544169D01*
X934992Y-542503D01*
X929994D01*
X939990Y-552500D02*
X943323D01*
X941656D01*
Y-542503D01*
X939990Y-544169D01*
X498331Y-219165D02*
X499997Y-217498D01*
Y-214166D01*
X498331Y-212500D01*
X491666D01*
X490000Y-214166D01*
Y-217498D01*
X491666Y-219165D01*
X498331Y-222497D02*
X499997Y-224163D01*
Y-227495D01*
X498331Y-229161D01*
X496665D01*
X494998Y-227495D01*
X493332Y-229161D01*
X491666D01*
X490000Y-227495D01*
Y-224163D01*
X491666Y-222497D01*
X493332D01*
X494998Y-224163D01*
X496665Y-222497D01*
X498331D01*
X494998Y-224163D02*
Y-227495D01*
X-130836Y-431669D02*
X-132502Y-430003D01*
X-135834D01*
X-137500Y-431669D01*
Y-438334D01*
X-135834Y-440000D01*
X-132502D01*
X-130836Y-438334D01*
X-127503Y-431669D02*
X-125837Y-430003D01*
X-122505D01*
X-120839Y-431669D01*
Y-433335D01*
X-122505Y-435002D01*
X-124171D01*
X-122505D01*
X-120839Y-436668D01*
Y-438334D01*
X-122505Y-440000D01*
X-125837D01*
X-127503Y-438334D01*
X-138336Y-321669D02*
X-140002Y-320003D01*
X-143334D01*
X-145000Y-321669D01*
Y-328334D01*
X-143334Y-330000D01*
X-140002D01*
X-138336Y-328334D01*
X-128339Y-330000D02*
X-135003D01*
X-128339Y-323335D01*
Y-321669D01*
X-130005Y-320003D01*
X-133337D01*
X-135003Y-321669D01*
X-190000Y-210000D02*
Y-200003D01*
X-185002D01*
X-183335Y-201669D01*
Y-205002D01*
X-185002Y-206668D01*
X-190000D01*
X-186668D02*
X-183335Y-210000D01*
X-173339Y-201669D02*
X-175005Y-200003D01*
X-178337D01*
X-180003Y-201669D01*
Y-208334D01*
X-178337Y-210000D01*
X-175005D01*
X-173339Y-208334D01*
X-170006Y-210000D02*
Y-203335D01*
X-166674Y-200003D01*
X-163342Y-203335D01*
Y-210000D01*
Y-205002D01*
X-170006D01*
X-155011Y-210000D02*
Y-200003D01*
X-160010Y-205002D01*
X-153345D01*
X-20000Y-210000D02*
Y-200003D01*
X-15002D01*
X-13335Y-201669D01*
Y-205002D01*
X-15002Y-206668D01*
X-20000D01*
X-16668D02*
X-13335Y-210000D01*
X-3339Y-201669D02*
X-5005Y-200003D01*
X-8337D01*
X-10003Y-201669D01*
Y-208334D01*
X-8337Y-210000D01*
X-5005D01*
X-3339Y-208334D01*
X-7Y-210000D02*
Y-203335D01*
X3326Y-200003D01*
X6658Y-203335D01*
Y-210000D01*
Y-205002D01*
X-7D01*
X9990Y-201669D02*
X11657Y-200003D01*
X14989D01*
X16655Y-201669D01*
Y-203335D01*
X14989Y-205002D01*
X13323D01*
X14989D01*
X16655Y-206668D01*
Y-208334D01*
X14989Y-210000D01*
X11657D01*
X9990Y-208334D01*
X695000Y-205000D02*
Y-195003D01*
X699998D01*
X701665Y-196669D01*
Y-200002D01*
X699998Y-201668D01*
X695000D01*
X698332D02*
X701665Y-205000D01*
X711661Y-196669D02*
X709995Y-195003D01*
X706663D01*
X704997Y-196669D01*
Y-203334D01*
X706663Y-205000D01*
X709995D01*
X711661Y-203334D01*
X714994Y-205000D02*
Y-198335D01*
X718326Y-195003D01*
X721658Y-198335D01*
Y-205000D01*
Y-200002D01*
X714994D01*
X731655Y-205000D02*
X724990D01*
X731655Y-198335D01*
Y-196669D01*
X729989Y-195003D01*
X726656D01*
X724990Y-196669D01*
X32500Y-575000D02*
Y-565003D01*
X37498D01*
X39165Y-566669D01*
Y-570002D01*
X37498Y-571668D01*
X32500D01*
X42497Y-575000D02*
X45829D01*
X44163D01*
Y-565003D01*
X42497Y-566669D01*
X804998Y-542503D02*
X801666D01*
X800000Y-544169D01*
Y-550834D01*
X801666Y-552500D01*
X804998D01*
X806665Y-550834D01*
Y-544169D01*
X804998Y-542503D01*
X809997D02*
Y-550834D01*
X811663Y-552500D01*
X814995D01*
X816661Y-550834D01*
Y-542503D01*
X819994D02*
X826658D01*
X823326D01*
Y-552500D01*
X829990D02*
Y-542503D01*
X834989D01*
X836655Y-544169D01*
Y-547502D01*
X834989Y-549168D01*
X829990D01*
X839987Y-542503D02*
Y-550834D01*
X841653Y-552500D01*
X844986D01*
X846652Y-550834D01*
Y-542503D01*
X849984D02*
X856648D01*
X853316D01*
Y-552500D01*
X700000Y-542503D02*
X703332D01*
X701666D01*
Y-552500D01*
X700000D01*
X703332D01*
X708331D02*
Y-542503D01*
X714995Y-552500D01*
Y-542503D01*
X718327Y-552500D02*
Y-542503D01*
X723326D01*
X724992Y-544169D01*
Y-547502D01*
X723326Y-549168D01*
X718327D01*
X728324Y-542503D02*
Y-550834D01*
X729990Y-552500D01*
X733323D01*
X734989Y-550834D01*
Y-542503D01*
X738321D02*
X744986D01*
X741653D01*
Y-552500D01*
X875000Y-205000D02*
Y-195003D01*
X879998D01*
X881665Y-196669D01*
Y-200002D01*
X879998Y-201668D01*
X875000D01*
X878332D02*
X881665Y-205000D01*
X891661Y-196669D02*
X889995Y-195003D01*
X886663D01*
X884997Y-196669D01*
Y-203334D01*
X886663Y-205000D01*
X889995D01*
X891661Y-203334D01*
X894994Y-205000D02*
Y-198335D01*
X898326Y-195003D01*
X901658Y-198335D01*
Y-205000D01*
Y-200002D01*
X894994D01*
X904990Y-205000D02*
X908323D01*
X906656D01*
Y-195003D01*
X904990Y-196669D01*
X912500Y-320000D02*
Y-310003D01*
X917498D01*
X919165Y-311669D01*
Y-315002D01*
X917498Y-316668D01*
X912500D01*
X915832D02*
X919165Y-320000D01*
X922497Y-310003D02*
Y-320000D01*
X929161D01*
X932494D02*
X935826D01*
X934160D01*
Y-310003D01*
X932494Y-311669D01*
X644997Y-320000D02*
X635000D01*
Y-324998D01*
X636666Y-326665D01*
X643331D01*
X644997Y-324998D01*
Y-320000D01*
X635000Y-329997D02*
Y-333329D01*
Y-331663D01*
X644997D01*
X643331Y-329997D01*
X593334Y-319335D02*
X586669D01*
X585003Y-321002D01*
Y-324334D01*
X586669Y-326000D01*
X593334D01*
X595000Y-324334D01*
Y-321002D01*
X591668Y-322668D02*
X595000Y-319335D01*
Y-321002D02*
X593334Y-319335D01*
X595000Y-316003D02*
Y-312671D01*
Y-314337D01*
X585003D01*
X586669Y-316003D01*
X582500Y-442500D02*
X592497D01*
Y-447498D01*
X590831Y-449165D01*
X587498D01*
X585832Y-447498D01*
Y-442500D01*
Y-445832D02*
X582500Y-449165D01*
Y-452497D02*
Y-455829D01*
Y-454163D01*
X592497D01*
X590831Y-452497D01*
X612500Y-442500D02*
X622497D01*
Y-447498D01*
X620831Y-449165D01*
X617498D01*
X615832Y-447498D01*
Y-442500D01*
Y-445832D02*
X612500Y-449165D01*
Y-459161D02*
Y-452497D01*
X619165Y-459161D01*
X620831D01*
X622497Y-457495D01*
Y-454163D01*
X620831Y-452497D01*
X531665Y-221669D02*
X529998Y-220003D01*
X526666D01*
X525000Y-221669D01*
Y-228334D01*
X526666Y-230000D01*
X529998D01*
X531665Y-228334D01*
X534997Y-230000D02*
X538329D01*
X536663D01*
Y-220003D01*
X534997Y-221669D01*
X469997Y-235000D02*
X460000D01*
Y-239998D01*
X461666Y-241665D01*
X468331D01*
X469997Y-239998D01*
Y-235000D01*
X460000Y-251661D02*
Y-244997D01*
X466665Y-251661D01*
X468331D01*
X469997Y-249995D01*
Y-246663D01*
X468331Y-244997D01*
X400000Y-210000D02*
X409997D01*
Y-214998D01*
X408331Y-216665D01*
X404998D01*
X403332Y-214998D01*
Y-210000D01*
Y-213332D02*
X400000Y-216665D01*
X408331Y-219997D02*
X409997Y-221663D01*
Y-224995D01*
X408331Y-226661D01*
X406665D01*
X404998Y-224995D01*
Y-223329D01*
Y-224995D01*
X403332Y-226661D01*
X401666D01*
X400000Y-224995D01*
Y-221663D01*
X401666Y-219997D01*
X-245000Y-385400D02*
Y-378736D01*
X-241668Y-375403D01*
X-238335Y-378736D01*
Y-385400D01*
Y-380402D01*
X-245000D01*
X-228339Y-377069D02*
X-230005Y-375403D01*
X-233337D01*
X-235003Y-377069D01*
Y-383734D01*
X-233337Y-385400D01*
X-230005D01*
X-228339Y-383734D01*
X-217500Y-540003D02*
Y-550000D01*
X-212502D01*
X-210835Y-548334D01*
Y-541669D01*
X-212502Y-540003D01*
X-217500D01*
X-207503Y-541669D02*
X-205837Y-540003D01*
X-202505D01*
X-200839Y-541669D01*
Y-543335D01*
X-202505Y-545002D01*
X-204171D01*
X-202505D01*
X-200839Y-546668D01*
Y-548334D01*
X-202505Y-550000D01*
X-205837D01*
X-207503Y-548334D01*
X111664Y-196669D02*
X109998Y-195003D01*
X106666D01*
X105000Y-196669D01*
Y-203334D01*
X106666Y-205000D01*
X109998D01*
X111664Y-203334D01*
X119995Y-205000D02*
Y-195003D01*
X114997Y-200002D01*
X121661D01*
X264165Y-196669D02*
X262498Y-195003D01*
X259166D01*
X257500Y-196669D01*
Y-203334D01*
X259166Y-205000D01*
X262498D01*
X264165Y-203334D01*
X274161Y-195003D02*
X267497D01*
Y-200002D01*
X270829Y-198335D01*
X272495D01*
X274161Y-200002D01*
Y-203334D01*
X272495Y-205000D01*
X269163D01*
X267497Y-203334D01*
X245000Y-110003D02*
Y-118334D01*
X246666Y-120000D01*
X249998D01*
X251665Y-118334D01*
Y-110003D01*
X261661Y-120000D02*
X254997D01*
X261661Y-113336D01*
Y-111669D01*
X259995Y-110003D01*
X256663D01*
X254997Y-111669D01*
X111664Y-229169D02*
X109998Y-227503D01*
X106666D01*
X105000Y-229169D01*
Y-235834D01*
X106666Y-237500D01*
X109998D01*
X111664Y-235834D01*
X121661Y-227503D02*
X118329Y-229169D01*
X114997Y-232502D01*
Y-235834D01*
X116663Y-237500D01*
X119995D01*
X121661Y-235834D01*
Y-234168D01*
X119995Y-232502D01*
X114997D01*
X266665Y-226669D02*
X264998Y-225003D01*
X261666D01*
X260000Y-226669D01*
Y-233334D01*
X261666Y-235000D01*
X264998D01*
X266665Y-233334D01*
X269997Y-225003D02*
X276661D01*
Y-226669D01*
X269997Y-233334D01*
Y-235000D01*
X9169Y-443335D02*
X7503Y-445002D01*
Y-448334D01*
X9169Y-450000D01*
X15834D01*
X17500Y-448334D01*
Y-445002D01*
X15834Y-443335D01*
Y-440003D02*
X17500Y-438337D01*
Y-435005D01*
X15834Y-433339D01*
X9169D01*
X7503Y-435005D01*
Y-438337D01*
X9169Y-440003D01*
X10835D01*
X12502Y-438337D01*
Y-433339D01*
X27503Y-522500D02*
Y-515835D01*
Y-519168D01*
X37500D01*
Y-512503D02*
X27503D01*
Y-507505D01*
X29169Y-505839D01*
X32502D01*
X34168Y-507505D01*
Y-512503D01*
X39166Y-502506D02*
Y-495842D01*
X37500Y-492510D02*
X27503D01*
Y-487511D01*
X29169Y-485845D01*
X32502D01*
X34168Y-487511D01*
Y-492510D01*
X27503Y-475848D02*
Y-482513D01*
X37500D01*
Y-475848D01*
X32502Y-482513D02*
Y-479181D01*
X37500Y-472516D02*
Y-469184D01*
Y-470850D01*
X27503D01*
X29169Y-472516D01*
X-2938Y-290520D02*
Y-283855D01*
X-6271Y-287188D02*
X394D01*
X-77938Y-290520D02*
Y-283855D01*
X-81271Y-287188D02*
X-74606D01*
X533020Y-327938D02*
X526356D01*
X529688Y-331271D02*
Y-324606D01*
X530520Y-515438D02*
X523856D01*
X527188Y-518771D02*
Y-512106D01*
X-180438Y-290520D02*
Y-283855D01*
X-183771Y-287188D02*
X-177106D01*
X-255438Y-290520D02*
Y-283855D01*
X-258771Y-287188D02*
X-252106D01*
X285520Y-327938D02*
X278855D01*
X282188Y-331271D02*
Y-324606D01*
X285520Y-515438D02*
X278855D01*
X282188Y-518771D02*
Y-512106D01*
X-201669Y-460000D02*
X-200003Y-461666D01*
Y-464998D01*
X-198337Y-466665D01*
X-201669Y-410000D02*
X-200003Y-411666D01*
Y-414998D01*
X-198337Y-416665D01*
X-173002Y-534000D02*
Y-540664D01*
Y-334000D02*
Y-340664D01*
X-169669Y-337332D02*
X-176334D01*
X840000Y-20000D02*
Y-13335D01*
X843332Y-10003D01*
X846665Y-13335D01*
Y-20000D01*
Y-15002D01*
X840000D01*
X770000Y-10003D02*
Y-20000D01*
X774998D01*
X776665Y-18334D01*
Y-16668D01*
X774998Y-15002D01*
X770000D01*
X774998D01*
X776665Y-13335D01*
Y-11669D01*
X774998Y-10003D01*
X770000D01*
X650000Y-40003D02*
Y-50000D01*
X656665D01*
X650000Y-190000D02*
Y-180003D01*
X654998D01*
X656665Y-181669D01*
Y-185002D01*
X654998Y-186668D01*
X650000D01*
X653332D02*
X656665Y-190000D01*
X-240000Y-200000D02*
Y-190003D01*
X-235002D01*
X-233335Y-191669D01*
Y-195002D01*
X-235002Y-196668D01*
X-240000D01*
X-236668D02*
X-233335Y-200000D01*
X-240000Y-20003D02*
Y-30000D01*
X-233335D01*
X692500Y-457503D02*
Y-467500D01*
X699165D01*
X742500D02*
Y-457503D01*
X747498D01*
X749165Y-459169D01*
Y-462502D01*
X747498Y-464168D01*
X742500D01*
X745832D02*
X749165Y-467500D01*
X724165Y-459169D02*
X722498Y-457503D01*
X719166D01*
X717500Y-459169D01*
Y-465834D01*
X719166Y-467500D01*
X722498D01*
X724165Y-465834D01*
Y-462502D01*
X720832D01*
X831665Y-459169D02*
X829998Y-457503D01*
X826666D01*
X825000Y-459169D01*
Y-465834D01*
X826666Y-467500D01*
X829998D01*
X831665Y-465834D01*
Y-462502D01*
X828332D01*
X850000Y-467500D02*
Y-457503D01*
X854998D01*
X856665Y-459169D01*
Y-462502D01*
X854998Y-464168D01*
X850000D01*
X853332D02*
X856665Y-467500D01*
X800000Y-457503D02*
Y-467500D01*
X806665D01*
X910000Y-462502D02*
X916665D01*
X937500D02*
X944165D01*
X940832Y-459169D02*
Y-465834D01*
D55*
X-73056Y-297110D02*
Y-303035D01*
X-70094Y-300072D02*
X-76019D01*
X-73056Y-429610D02*
Y-435535D01*
X-70094Y-432572D02*
X-76019D01*
X573056Y-231500D02*
Y-225575D01*
X570094Y-228538D02*
X576019D01*
X229000Y-159444D02*
X223075D01*
X226038Y-162406D02*
Y-156481D01*
X256000Y-160556D02*
X261925D01*
X258962Y-157594D02*
Y-163519D01*
M02*
