G04 Layer_Color=32896*
%FSLAX44Y44*%
%MOMM*%
G71*
G01*
G75*
%ADD44C,0.1778*%
%ADD54C,0.1270*%
D44*
X587340Y-52340D02*
Y-43704D01*
X597500D01*
X607660D01*
Y-52340D02*
Y-43704D01*
Y-81296D02*
Y-72660D01*
X597500Y-81296D02*
X607660D01*
X587340D02*
X597500D01*
X587340D02*
Y-72660D01*
X529840Y-52340D02*
Y-43704D01*
X540000D01*
X550160D01*
Y-52340D02*
Y-43704D01*
Y-81296D02*
Y-72660D01*
X540000Y-81296D02*
X550160D01*
X529840D02*
X540000D01*
X529840D02*
Y-72660D01*
X562340Y-52340D02*
Y-43704D01*
X572500D01*
X582660D01*
Y-52340D02*
Y-43704D01*
Y-81296D02*
Y-72660D01*
X572500Y-81296D02*
X582660D01*
X562340D02*
X572500D01*
X562340D02*
Y-72660D01*
D54*
X593000Y-115000D02*
X602997D01*
Y-110002D01*
X601331Y-108336D01*
X597998D01*
X596332Y-110002D01*
Y-115000D01*
Y-111668D02*
X593000Y-108336D01*
Y-98339D02*
Y-105003D01*
X599664Y-98339D01*
X601331D01*
X602997Y-100005D01*
Y-103337D01*
X601331Y-105003D01*
Y-95006D02*
X602997Y-93340D01*
Y-90008D01*
X601331Y-88342D01*
X599664D01*
X597998Y-90008D01*
Y-91674D01*
Y-90008D01*
X596332Y-88342D01*
X594666D01*
X593000Y-90008D01*
Y-93340D01*
X594666Y-95006D01*
X542331Y-107336D02*
X543997Y-109002D01*
Y-112334D01*
X542331Y-114000D01*
X535666D01*
X534000Y-112334D01*
Y-109002D01*
X535666Y-107336D01*
X534000Y-97339D02*
Y-104003D01*
X540664Y-97339D01*
X542331D01*
X543997Y-99005D01*
Y-102337D01*
X542331Y-104003D01*
X543997Y-94006D02*
Y-87342D01*
X542331D01*
X535666Y-94006D01*
X534000D01*
X574331Y-108336D02*
X575997Y-110002D01*
Y-113334D01*
X574331Y-115000D01*
X567666D01*
X566000Y-113334D01*
Y-110002D01*
X567666Y-108336D01*
X566000Y-105003D02*
Y-101671D01*
Y-103337D01*
X575997D01*
X574331Y-105003D01*
Y-96673D02*
X575997Y-95006D01*
Y-91674D01*
X574331Y-90008D01*
X572664D01*
X570998Y-91674D01*
X569332Y-90008D01*
X567666D01*
X566000Y-91674D01*
Y-95006D01*
X567666Y-96673D01*
X569332D01*
X570998Y-95006D01*
X572664Y-96673D01*
X574331D01*
X570998Y-95006D02*
Y-91674D01*
M02*
