G04 Layer_Physical_Order=1*
G04 Layer_Color=255*
%FSLAX44Y44*%
%MOMM*%
G71*
G01*
G75*
%ADD10R,2.7500X1.4000*%
%ADD11R,2.7500X1.0000*%
%ADD12R,1.6002X1.2700*%
%ADD13R,1.5000X2.5000*%
%ADD14R,1.0000X3.0000*%
%ADD15R,2.5000X1.5000*%
%ADD16R,2.7430X2.1590*%
%ADD17R,1.2700X1.6002*%
%ADD18R,0.6000X2.0000*%
%ADD19R,1.8500X1.3000*%
%ADD20R,1.3000X1.8500*%
%ADD21R,1.0000X0.9500*%
%ADD22R,0.8500X1.2000*%
%ADD23O,4.0640X1.5000*%
%ADD24R,4.0640X1.5000*%
%ADD25O,0.6000X1.9000*%
%ADD26C,1.0000*%
%ADD27C,0.2540*%
%ADD28C,5.0000*%
%ADD29C,0.3000*%
%ADD30C,0.7000*%
%ADD31C,0.5000*%
%ADD32R,0.8000X0.7500*%
%ADD33R,4.7000X4.7000*%
%ADD34O,0.6500X0.2000*%
%ADD35O,0.2000X0.6500*%
%ADD36R,0.7500X0.8000*%
%ADD37R,0.9500X1.0000*%
%ADD38C,1.0000*%
%ADD39R,1.3000X1.3000*%
%ADD40R,0.7620X0.8128*%
%ADD41R,1.0000X2.4000*%
%ADD42R,3.3000X2.4000*%
%ADD43C,0.2000*%
%ADD44C,1.2700*%
%ADD45R,0.7620X1.2700*%
%ADD46O,10.0000X4.0000*%
%ADD47R,1.5000X1.5000*%
%ADD48C,1.7000*%
%ADD49C,3.0000*%
%ADD50C,1.5000*%
%ADD51R,1.5000X1.5000*%
%ADD52O,6.0000X1.5000*%
%ADD53C,2.0000*%
%ADD54C,3.0000*%
%ADD55O,3.0000X2.5000*%
%ADD56C,0.6000*%
%ADD57C,1.0000*%
%ADD58C,0.6600*%
%ADD59C,1.0000*%
G36*
X358249Y156615D02*
X358033Y156538D01*
X357842Y156410D01*
X357677Y156230D01*
X357538Y155998D01*
X357423Y155716D01*
X357335Y155381D01*
X357271Y154996D01*
X357233Y154559D01*
X357220Y154071D01*
X354680D01*
X354668Y154559D01*
X354629Y154996D01*
X354566Y155381D01*
X354477Y155716D01*
X354363Y155998D01*
X354223Y156230D01*
X354058Y156410D01*
X353867Y156538D01*
X353652Y156615D01*
X353410Y156641D01*
X358490D01*
X358249Y156615D01*
D02*
G37*
G36*
X697961Y161835D02*
X698051Y161580D01*
X698201Y161355D01*
X698411Y161160D01*
X698681Y160995D01*
X699011Y160860D01*
X699401Y160755D01*
X699851Y160680D01*
X700361Y160635D01*
X700931Y160620D01*
Y157620D01*
X700361Y157605D01*
X699851Y157560D01*
X699401Y157485D01*
X699011Y157380D01*
X698681Y157245D01*
X698411Y157080D01*
X698201Y156885D01*
X698051Y156660D01*
X697961Y156405D01*
X697931Y156120D01*
Y162120D01*
X697961Y161835D01*
D02*
G37*
G36*
X185735Y163959D02*
X185812Y163743D01*
X185941Y163552D01*
X186120Y163387D01*
X186352Y163248D01*
X186635Y163133D01*
X186969Y163044D01*
X187354Y162981D01*
X187791Y162943D01*
X188280Y162930D01*
Y160390D01*
X187791Y160377D01*
X187354Y160339D01*
X186969Y160276D01*
X186635Y160187D01*
X186352Y160073D01*
X186120Y159933D01*
X185941Y159768D01*
X185812Y159577D01*
X185735Y159361D01*
X185709Y159120D01*
Y164200D01*
X185735Y163959D01*
D02*
G37*
G36*
X333805Y156591D02*
X333380Y156440D01*
X333005Y156188D01*
X332680Y155836D01*
X332405Y155383D01*
X332180Y154830D01*
X332005Y154176D01*
X331880Y153421D01*
X331805Y152566D01*
X331780Y151610D01*
X326780D01*
X326755Y152566D01*
X326680Y153421D01*
X326555Y154176D01*
X326380Y154830D01*
X326155Y155383D01*
X325880Y155836D01*
X325555Y156188D01*
X325180Y156440D01*
X324755Y156591D01*
X324280Y156641D01*
X334280D01*
X333805Y156591D01*
D02*
G37*
G36*
X154722Y153720D02*
X154601Y153934D01*
X154427Y154060D01*
X154200Y154098D01*
X153920Y154048D01*
X153587Y153909D01*
X153201Y153683D01*
X152763Y153368D01*
X152271Y152964D01*
X151130Y151894D01*
X150985Y155340D01*
X151417Y155791D01*
X152115Y156630D01*
X152381Y157019D01*
X152591Y157389D01*
X152746Y157738D01*
X152846Y158067D01*
X152890Y158376D01*
X152878Y158664D01*
X152811Y158933D01*
X154722Y153720D01*
D02*
G37*
G36*
X140020Y154850D02*
X139788Y154841D01*
X139558Y154810D01*
X139328Y154757D01*
X139100Y154681D01*
X138872Y154583D01*
X138646Y154462D01*
X138421Y154320D01*
X138198Y154155D01*
X137975Y153967D01*
X137754Y153757D01*
X135957Y155553D01*
X136167Y155775D01*
X136355Y155997D01*
X136520Y156221D01*
X136663Y156446D01*
X136783Y156672D01*
X136881Y156900D01*
X136957Y157128D01*
X137010Y157358D01*
X137042Y157588D01*
X137050Y157820D01*
X140020Y154850D01*
D02*
G37*
G36*
X273647Y168307D02*
X274683Y167412D01*
X275121Y167097D01*
X275507Y166871D01*
X275840Y166732D01*
X276120Y166682D01*
X276347Y166720D01*
X276521Y166846D01*
X276642Y167060D01*
X274731Y161847D01*
X274798Y162116D01*
X274810Y162405D01*
X274766Y162713D01*
X274666Y163042D01*
X274511Y163391D01*
X274301Y163761D01*
X274035Y164150D01*
X273714Y164560D01*
X273337Y164990D01*
X272905Y165440D01*
X273050Y168887D01*
X273647Y168307D01*
D02*
G37*
G36*
X526846Y167009D02*
X526744Y166859D01*
X526654Y166688D01*
X526576Y166494D01*
X526510Y166280D01*
X526456Y166043D01*
X526414Y165785D01*
X526384Y165506D01*
X526360Y164882D01*
X523360D01*
X523354Y165205D01*
X523306Y165785D01*
X523264Y166043D01*
X523210Y166280D01*
X523144Y166494D01*
X523066Y166688D01*
X522976Y166859D01*
X522874Y167009D01*
X522760Y167138D01*
X526960D01*
X526846Y167009D01*
D02*
G37*
G36*
X591330Y172735D02*
X591421Y172480D01*
X591572Y172255D01*
X591784Y172060D01*
X592057Y171895D01*
X592390Y171760D01*
X592784Y171655D01*
X593239Y171580D01*
X593269Y171577D01*
X593596Y171601D01*
X593809Y171637D01*
X593997Y171679D01*
X594162Y171727D01*
X594304Y171782D01*
X594422Y171844D01*
X594330Y171481D01*
Y168520D01*
X593754Y168505D01*
X593568Y168489D01*
X593386Y167773D01*
X593287Y167915D01*
X593163Y168042D01*
X593014Y168154D01*
X592841Y168251D01*
X592642Y168333D01*
X592618Y168341D01*
X592390Y168280D01*
X592057Y168145D01*
X591784Y167980D01*
X591572Y167785D01*
X591421Y167560D01*
X591330Y167305D01*
X591299Y167020D01*
Y168520D01*
X591278Y168520D01*
X591299Y168590D01*
Y173020D01*
X591330Y172735D01*
D02*
G37*
G36*
X201930Y159120D02*
X201904Y159361D01*
X201828Y159577D01*
X201701Y159768D01*
X201523Y159933D01*
X201295Y160073D01*
X201015Y160187D01*
X200685Y160276D01*
X200304Y160339D01*
X199872Y160377D01*
X199390Y160390D01*
Y162930D01*
X199872Y162943D01*
X200304Y162981D01*
X200685Y163044D01*
X201015Y163133D01*
X201295Y163248D01*
X201523Y163387D01*
X201701Y163552D01*
X201828Y163743D01*
X201904Y163959D01*
X201930Y164200D01*
Y159120D01*
D02*
G37*
G36*
X526375Y162784D02*
X526420Y162269D01*
X526495Y161814D01*
X526600Y161420D01*
X526735Y161087D01*
X526900Y160814D01*
X527095Y160602D01*
X527320Y160450D01*
X527575Y160359D01*
X527860Y160329D01*
X521860D01*
X522145Y160359D01*
X522400Y160450D01*
X522625Y160602D01*
X522820Y160814D01*
X522985Y161087D01*
X523120Y161420D01*
X523225Y161814D01*
X523300Y162269D01*
X523345Y162784D01*
X523360Y163360D01*
X526360D01*
X526375Y162784D01*
D02*
G37*
G36*
X490227Y168095D02*
X490345Y167855D01*
X490542Y167644D01*
X490817Y167461D01*
X491172Y167306D01*
X491605Y167179D01*
X492117Y167081D01*
X492708Y167010D01*
X493378Y166968D01*
X494126Y166954D01*
Y161954D01*
X493378Y161940D01*
X492117Y161827D01*
X491605Y161729D01*
X491172Y161602D01*
X490817Y161447D01*
X490542Y161264D01*
X490345Y161053D01*
X490227Y160813D01*
X490187Y160546D01*
Y168363D01*
X490227Y168095D01*
D02*
G37*
G36*
X298232Y151180D02*
X298054Y151338D01*
X297836Y151420D01*
X297577Y151426D01*
X297279Y151357D01*
X296940Y151212D01*
X296560Y150991D01*
X296141Y150695D01*
X295681Y150324D01*
X294640Y149354D01*
X293225Y151531D01*
X293714Y152037D01*
X294487Y152952D01*
X294772Y153360D01*
X294989Y153736D01*
X295137Y154079D01*
X295218Y154389D01*
X295230Y154666D01*
X295175Y154911D01*
X295051Y155123D01*
X298232Y151180D01*
D02*
G37*
G36*
X682972Y146661D02*
X684056Y145744D01*
X684539Y145407D01*
X684983Y145152D01*
X685387Y144977D01*
X685753Y144883D01*
X686079Y144871D01*
X686366Y144939D01*
X686613Y145089D01*
X682020Y141258D01*
X682204Y141472D01*
X682299Y141732D01*
X682305Y142039D01*
X682223Y142393D01*
X682052Y142794D01*
X681793Y143242D01*
X681445Y143736D01*
X681008Y144277D01*
X679868Y145501D01*
X682371Y147241D01*
X682972Y146661D01*
D02*
G37*
G36*
X288500Y143211D02*
X287569Y142152D01*
X287469Y142005D01*
X287397Y141879D01*
X287354Y141774D01*
X287340Y141691D01*
X281589Y141660D01*
X281944Y141680D01*
X282300Y141736D01*
X282657Y141828D01*
X283015Y141957D01*
X283374Y142121D01*
X283734Y142322D01*
X284094Y142559D01*
X284456Y142832D01*
X284818Y143141D01*
X285181Y143487D01*
X288773D01*
X288500Y143211D01*
D02*
G37*
G36*
X355920Y145960D02*
X355688Y145951D01*
X355458Y145920D01*
X355228Y145867D01*
X355000Y145791D01*
X354772Y145693D01*
X354546Y145572D01*
X354322Y145430D01*
X354098Y145265D01*
X353875Y145077D01*
X353654Y144867D01*
X351857Y146663D01*
X352067Y146885D01*
X352255Y147107D01*
X352420Y147331D01*
X352562Y147556D01*
X352683Y147782D01*
X352781Y148010D01*
X352857Y148238D01*
X352910Y148468D01*
X352942Y148698D01*
X352950Y148930D01*
X355920Y145960D01*
D02*
G37*
G36*
X106789Y134614D02*
X106573Y134538D01*
X106383Y134411D01*
X106217Y134233D01*
X106078Y134004D01*
X105963Y133725D01*
X105875Y133395D01*
X105811Y133014D01*
X105773Y132582D01*
X105760Y132100D01*
X103220D01*
X103208Y132582D01*
X103169Y133014D01*
X103106Y133395D01*
X103017Y133725D01*
X102903Y134004D01*
X102763Y134233D01*
X102598Y134411D01*
X102407Y134538D01*
X102191Y134614D01*
X101950Y134640D01*
X107030D01*
X106789Y134614D01*
D02*
G37*
G36*
X185735Y138559D02*
X185812Y138343D01*
X185941Y138152D01*
X186120Y137987D01*
X186352Y137848D01*
X186635Y137733D01*
X186969Y137644D01*
X187354Y137581D01*
X187791Y137543D01*
X188280Y137530D01*
Y134990D01*
X187791Y134977D01*
X187354Y134939D01*
X186969Y134876D01*
X186635Y134787D01*
X186352Y134673D01*
X186120Y134533D01*
X185941Y134368D01*
X185812Y134177D01*
X185735Y133961D01*
X185709Y133720D01*
Y138800D01*
X185735Y138559D01*
D02*
G37*
G36*
X471625Y141679D02*
X471200Y141527D01*
X470825Y141274D01*
X470500Y140922D01*
X470225Y140469D01*
X470000Y139916D01*
X469825Y139262D01*
X469700Y138509D01*
X469625Y137655D01*
X469600Y136700D01*
X464600D01*
X464590Y137651D01*
X464445Y139901D01*
X464358Y140450D01*
X464251Y140900D01*
X464125Y141250D01*
X463980Y141501D01*
X463815Y141650D01*
X463631Y141700D01*
X472100Y141731D01*
X471625Y141679D01*
D02*
G37*
G36*
X357229Y153173D02*
X357253Y152883D01*
X357295Y152608D01*
X357353Y152348D01*
X357428Y152103D01*
X357519Y151873D01*
X357627Y151658D01*
X357751Y151458D01*
X357892Y151273D01*
X358050Y151103D01*
X353850D01*
X354008Y151273D01*
X354149Y151458D01*
X354273Y151658D01*
X354381Y151873D01*
X354473Y152103D01*
X354547Y152348D01*
X354605Y152608D01*
X354647Y152883D01*
X354672Y153173D01*
X354680Y153478D01*
X357220D01*
X357229Y153173D01*
D02*
G37*
G36*
X470993Y158380D02*
X470701Y158230D01*
X470443Y157980D01*
X470219Y157630D01*
X470030Y157181D01*
X469875Y156630D01*
X469755Y155981D01*
X469669Y155230D01*
X469649Y154909D01*
X469700Y154332D01*
X469825Y153578D01*
X470000Y152924D01*
X470225Y152371D01*
X470500Y151918D01*
X470825Y151566D01*
X471200Y151313D01*
X471625Y151161D01*
X472100Y151109D01*
X463631Y151140D01*
X463815Y151190D01*
X463980Y151340D01*
X464125Y151590D01*
X464251Y151940D01*
X464358Y152390D01*
X464445Y152940D01*
X464513Y153590D01*
X464563Y154616D01*
X464445Y155981D01*
X464325Y156630D01*
X464170Y157181D01*
X463981Y157630D01*
X463758Y157980D01*
X463500Y158230D01*
X463207Y158380D01*
X462881Y158430D01*
X471320D01*
X470993Y158380D01*
D02*
G37*
G36*
X489891Y158435D02*
X489599Y158285D01*
X489341Y158035D01*
X489117Y157684D01*
X488928Y157235D01*
X488773Y156685D01*
X488653Y156035D01*
X488567Y155285D01*
X488537Y154794D01*
X488670Y152940D01*
X488766Y152390D01*
X488884Y151940D01*
X489023Y151590D01*
X489184Y151340D01*
X489366Y151190D01*
X489570Y151140D01*
X480998Y151109D01*
X481473Y151161D01*
X481898Y151313D01*
X482273Y151566D01*
X482598Y151918D01*
X482873Y152371D01*
X483098Y152924D01*
X483273Y153578D01*
X483398Y154331D01*
X483445Y154859D01*
X483344Y156035D01*
X483223Y156685D01*
X483068Y157235D01*
X482879Y157684D01*
X482656Y158035D01*
X482398Y158285D01*
X482105Y158435D01*
X481779Y158484D01*
X490218D01*
X489891Y158435D01*
D02*
G37*
G36*
X132926Y148930D02*
X132493Y148480D01*
X131795Y147640D01*
X131530Y147251D01*
X131319Y146882D01*
X131164Y146532D01*
X131065Y146203D01*
X131021Y145895D01*
X131032Y145606D01*
X131099Y145337D01*
X129189Y150550D01*
X129310Y150336D01*
X129484Y150210D01*
X129711Y150172D01*
X129991Y150222D01*
X130323Y150361D01*
X130709Y150588D01*
X131148Y150903D01*
X131639Y151306D01*
X132781Y152377D01*
X132926Y148930D01*
D02*
G37*
G36*
X108433Y152377D02*
X108104Y152030D01*
X107848Y151719D01*
X107666Y151445D01*
X107556Y151208D01*
X107520Y151007D01*
X107556Y150842D01*
X107666Y150715D01*
X107848Y150623D01*
X108104Y150568D01*
X108433Y150550D01*
X101249D01*
X101611Y150577D01*
X101993Y150659D01*
X102394Y150795D01*
X102815Y150986D01*
X103254Y151231D01*
X103713Y151531D01*
X104190Y151885D01*
X105203Y152757D01*
X105739Y153275D01*
X108433Y152377D01*
D02*
G37*
G36*
X672552Y158778D02*
X672616Y158354D01*
X672722Y157929D01*
X672870Y157505D01*
X673061Y157081D01*
X673294Y156657D01*
X673570Y156232D01*
X673888Y155808D01*
X674249Y155384D01*
X674652Y154959D01*
Y150717D01*
X672531Y152801D01*
Y159202D01*
X672552Y158778D01*
D02*
G37*
G36*
X300416Y201960D02*
X300060Y201904D01*
X299703Y201812D01*
X299345Y201683D01*
X298986Y201519D01*
X298627Y201318D01*
X298266Y201081D01*
X297905Y200808D01*
X297543Y200499D01*
X297180Y200154D01*
X293588D01*
X293860Y200429D01*
X294791Y201488D01*
X294892Y201635D01*
X294963Y201761D01*
X295006Y201866D01*
X295021Y201950D01*
X300772Y201980D01*
X300416Y201960D01*
D02*
G37*
G36*
X181719Y204464D02*
X181503Y204388D01*
X181313Y204261D01*
X181147Y204083D01*
X181008Y203855D01*
X180893Y203575D01*
X180805Y203245D01*
X180741Y202864D01*
X180703Y202432D01*
X180690Y201950D01*
X178150D01*
X178137Y202432D01*
X178099Y202864D01*
X178036Y203245D01*
X177947Y203575D01*
X177833Y203855D01*
X177693Y204083D01*
X177528Y204261D01*
X177337Y204388D01*
X177122Y204464D01*
X176880Y204489D01*
X181960D01*
X181719Y204464D01*
D02*
G37*
G36*
X185811Y218970D02*
X186114Y218120D01*
X186616Y217370D01*
X187319Y216720D01*
X188222Y216170D01*
X189325Y215720D01*
X190628Y215370D01*
X192132Y215120D01*
X193836Y214970D01*
X195740Y214920D01*
Y207008D01*
X198669Y214920D01*
X199776Y214929D01*
X204058Y215227D01*
X204664Y215337D01*
X205187Y215465D01*
X205626Y215610D01*
X205981Y215772D01*
X201869Y202389D01*
X201565Y202870D01*
X201174Y203300D01*
X200698Y203680D01*
X200137Y204009D01*
X199489Y204287D01*
X198756Y204515D01*
X197937Y204692D01*
X197033Y204819D01*
X196043Y204895D01*
X195466Y204908D01*
X185740Y204489D01*
X185709Y219920D01*
X185811Y218970D01*
D02*
G37*
G36*
X219667Y189951D02*
X219087Y189353D01*
X218193Y188318D01*
X217878Y187879D01*
X217651Y187493D01*
X217512Y187160D01*
X217462Y186881D01*
X217500Y186654D01*
X217626Y186480D01*
X217840Y186359D01*
X212628Y188269D01*
X212896Y188202D01*
X213185Y188191D01*
X213494Y188235D01*
X213822Y188334D01*
X214172Y188489D01*
X214541Y188699D01*
X214930Y188965D01*
X215340Y189286D01*
X215770Y189663D01*
X216220Y190096D01*
X219667Y189951D01*
D02*
G37*
G36*
X289136Y192110D02*
X288647Y191603D01*
X287873Y190688D01*
X287588Y190280D01*
X287372Y189904D01*
X287223Y189561D01*
X287143Y189251D01*
X287130Y188974D01*
X287186Y188729D01*
X287309Y188517D01*
X284129Y192460D01*
X284307Y192302D01*
X284525Y192220D01*
X284783Y192214D01*
X285082Y192283D01*
X285421Y192428D01*
X285800Y192649D01*
X286220Y192945D01*
X286680Y193316D01*
X287721Y194287D01*
X289136Y192110D01*
D02*
G37*
G36*
X180703Y197082D02*
X180741Y196645D01*
X180805Y196260D01*
X180893Y195926D01*
X181008Y195643D01*
X181147Y195411D01*
X181313Y195231D01*
X181503Y195103D01*
X181719Y195026D01*
X181960Y195000D01*
X176880D01*
X177122Y195026D01*
X177337Y195103D01*
X177528Y195231D01*
X177693Y195411D01*
X177833Y195643D01*
X177947Y195926D01*
X178036Y196260D01*
X178099Y196645D01*
X178137Y197082D01*
X178150Y197571D01*
X180690D01*
X180703Y197082D01*
D02*
G37*
G36*
X404081Y226042D02*
X409335Y221551D01*
X410292Y220944D01*
X411106Y220543D01*
X411777Y220349D01*
X412306Y220361D01*
X412692Y220579D01*
X411251Y219106D01*
X411280Y219091D01*
X411792Y218868D01*
X412050Y218779D01*
X412309Y218868D01*
X412821Y219091D01*
X413285Y219343D01*
X413701Y219625D01*
Y218365D01*
X414320Y218274D01*
X415872Y218155D01*
X416720Y218140D01*
Y213140D01*
X415872Y213125D01*
X414320Y213006D01*
X413701Y212915D01*
Y211655D01*
X413285Y211937D01*
X412821Y212190D01*
X412309Y212412D01*
X412050Y212501D01*
X411792Y212412D01*
X411280Y212190D01*
X410816Y211937D01*
X410400Y211655D01*
Y212915D01*
X409780Y213006D01*
X408228Y213125D01*
X407380Y213140D01*
Y215148D01*
X403001Y210671D01*
X402930Y211174D01*
X402718Y211773D01*
X402364Y212469D01*
X401869Y213260D01*
X401233Y214147D01*
X399536Y216208D01*
X397273Y218653D01*
X395930Y220019D01*
X402411Y227681D01*
X404081Y226042D01*
D02*
G37*
G36*
X282299Y219664D02*
X282373Y218963D01*
X282437Y218679D01*
X282520Y218438D01*
X282621Y218241D01*
X282741Y218088D01*
X282879Y217978D01*
X283035Y217913D01*
X283210Y217891D01*
X278831D01*
X279005Y217913D01*
X279162Y217978D01*
X279300Y218088D01*
X279419Y218241D01*
X279520Y218438D01*
X279603Y218679D01*
X279667Y218963D01*
X279713Y219292D01*
X279741Y219664D01*
X279750Y220080D01*
X282290D01*
X282299Y219664D01*
D02*
G37*
G36*
X300621Y220073D02*
X301627Y219211D01*
X302103Y218860D01*
X302561Y218564D01*
X303001Y218322D01*
X303423Y218133D01*
X303827Y217998D01*
X304214Y217917D01*
X304582Y217891D01*
X297398D01*
X297721Y217908D01*
X297972Y217962D01*
X298152Y218052D01*
X298260Y218178D01*
X298296Y218340D01*
X298260Y218537D01*
X298152Y218771D01*
X297972Y219040D01*
X297721Y219345D01*
X297398Y219687D01*
X300092Y220585D01*
X300621Y220073D01*
D02*
G37*
G36*
X274731Y205088D02*
X274713Y205417D01*
X274658Y205673D01*
X274567Y205856D01*
X274439Y205965D01*
X274275Y206002D01*
X274074Y205965D01*
X273836Y205856D01*
X273562Y205673D01*
X273252Y205417D01*
X272905Y205088D01*
Y208680D01*
X273252Y209045D01*
X273562Y209409D01*
X273836Y209771D01*
X274074Y210132D01*
X274275Y210492D01*
X274439Y210850D01*
X274567Y211208D01*
X274658Y211564D01*
X274713Y211919D01*
X274731Y212273D01*
Y205088D01*
D02*
G37*
G36*
X497969Y221418D02*
X498149Y221255D01*
X498448Y221111D01*
X498868Y220986D01*
X499407Y220880D01*
X500066Y220794D01*
X501744Y220679D01*
X503900Y220640D01*
Y210640D01*
X502762Y210630D01*
X499407Y210400D01*
X498868Y210294D01*
X498448Y210169D01*
X498149Y210025D01*
X497969Y209862D01*
X497909Y209680D01*
Y221600D01*
X497969Y221418D01*
D02*
G37*
G36*
X555340Y354700D02*
Y344540D01*
Y316600D01*
X588360Y283580D01*
X603600Y268340D01*
Y258180D01*
Y217540D01*
X595980Y209920D01*
X560420D01*
X509620Y260720D01*
X494380Y275960D01*
Y283580D01*
Y339460D01*
Y354700D01*
X499460Y359780D01*
X550260D01*
X555340Y354700D01*
D02*
G37*
G36*
X656943Y194760D02*
X656595Y194691D01*
X656139Y194484D01*
X655573Y194139D01*
X654900Y193655D01*
X653226Y192275D01*
X649901Y189170D01*
X648575Y187859D01*
X645040Y191395D01*
X646350Y192721D01*
X651319Y198393D01*
X651664Y198958D01*
X651871Y199415D01*
X651940Y199763D01*
X656943Y194760D01*
D02*
G37*
G36*
X161399Y179064D02*
X161183Y178988D01*
X160993Y178861D01*
X160827Y178683D01*
X160688Y178454D01*
X160573Y178175D01*
X160485Y177845D01*
X160421Y177464D01*
X160383Y177032D01*
X160370Y176549D01*
X157830D01*
X157817Y177032D01*
X157779Y177464D01*
X157716Y177845D01*
X157627Y178175D01*
X157513Y178454D01*
X157373Y178683D01*
X157208Y178861D01*
X157017Y178988D01*
X156802Y179064D01*
X156560Y179090D01*
X161640D01*
X161399Y179064D01*
D02*
G37*
G36*
X201930Y179440D02*
X201904Y179681D01*
X201828Y179897D01*
X201701Y180088D01*
X201523Y180253D01*
X201295Y180392D01*
X201015Y180507D01*
X200685Y180596D01*
X200304Y180659D01*
X199872Y180697D01*
X199390Y180710D01*
Y183250D01*
X199872Y183263D01*
X200304Y183301D01*
X200685Y183364D01*
X201015Y183453D01*
X201295Y183568D01*
X201523Y183707D01*
X201701Y183872D01*
X201828Y184063D01*
X201904Y184279D01*
X201930Y184520D01*
Y179440D01*
D02*
G37*
G36*
X196973Y183922D02*
X197158Y183781D01*
X197358Y183657D01*
X197573Y183549D01*
X197803Y183458D01*
X198048Y183383D01*
X198308Y183325D01*
X198583Y183283D01*
X198873Y183258D01*
X199178Y183250D01*
X199178Y180710D01*
X198873Y180702D01*
X198583Y180677D01*
X198308Y180635D01*
X198048Y180577D01*
X197803Y180502D01*
X197573Y180411D01*
X197358Y180303D01*
X197158Y180179D01*
X196973Y180038D01*
X196803Y179880D01*
X196803Y184080D01*
X196973Y183922D01*
D02*
G37*
G36*
X436030Y182299D02*
X436142Y181031D01*
X440961D01*
X440014Y180908D01*
X439168Y180540D01*
X438421Y179928D01*
X437773Y179070D01*
X437225Y177967D01*
X436992Y177266D01*
X437230Y176682D01*
X437780Y175779D01*
X438430Y175077D01*
X439180Y174575D01*
X440030Y174274D01*
X440980Y174174D01*
X436313D01*
X436180Y173188D01*
X436030Y171105D01*
X435980Y168777D01*
X425980D01*
X425931Y171105D01*
X425619Y174174D01*
X420980D01*
X421930Y174274D01*
X422780Y174575D01*
X423530Y175077D01*
X424180Y175779D01*
X424730Y176682D01*
X424968Y177266D01*
X424735Y177967D01*
X424188Y179070D01*
X423540Y179928D01*
X422793Y180540D01*
X421946Y180908D01*
X421000Y181031D01*
X425819D01*
X425930Y182299D01*
X425980Y184205D01*
X435980D01*
X436030Y182299D01*
D02*
G37*
G36*
X160383Y171688D02*
X160421Y171256D01*
X160485Y170875D01*
X160573Y170545D01*
X160688Y170266D01*
X160827Y170037D01*
X160993Y169859D01*
X161183Y169732D01*
X161399Y169656D01*
X161640Y169631D01*
X156560D01*
X156802Y169656D01*
X157017Y169732D01*
X157208Y169859D01*
X157373Y170037D01*
X157513Y170266D01*
X157627Y170545D01*
X157716Y170875D01*
X157779Y171256D01*
X157817Y171688D01*
X157830Y172171D01*
X160370D01*
X160383Y171688D01*
D02*
G37*
G36*
X363910Y182326D02*
X363966Y181970D01*
X364059Y181613D01*
X364187Y181255D01*
X364352Y180896D01*
X364552Y180536D01*
X364789Y180176D01*
X365062Y179815D01*
X365371Y179452D01*
X365717Y179090D01*
Y175497D01*
X365441Y175770D01*
X364382Y176701D01*
X364235Y176801D01*
X364109Y176873D01*
X364004Y176916D01*
X363921Y176931D01*
X363890Y182682D01*
X363910Y182326D01*
D02*
G37*
G36*
X649756Y187285D02*
X647642Y185100D01*
X644350Y181245D01*
X643171Y179574D01*
X642565Y178524D01*
X642654Y178433D01*
X642554Y178505D01*
X642305Y178074D01*
X641751Y176745D01*
X641509Y175588D01*
X641579Y174601D01*
X641961Y173786D01*
X642654Y173142D01*
X625623Y184334D01*
X626529Y183903D01*
X627548Y183725D01*
X628680Y183801D01*
X629925Y184130D01*
X631283Y184713D01*
X632753Y185551D01*
X634337Y186641D01*
X636033Y187986D01*
X637842Y189584D01*
X639765Y191436D01*
X649756Y187285D01*
D02*
G37*
G36*
X472411Y184400D02*
X472361Y184875D01*
X472210Y185300D01*
X471958Y185675D01*
X471606Y186000D01*
X471153Y186275D01*
X470600Y186500D01*
X469946Y186675D01*
X469192Y186800D01*
X468336Y186875D01*
X467381Y186900D01*
Y191900D01*
X468336Y191925D01*
X469192Y192000D01*
X469946Y192125D01*
X470600Y192300D01*
X471153Y192525D01*
X471606Y192800D01*
X471958Y193125D01*
X472210Y193500D01*
X472361Y193925D01*
X472411Y194400D01*
Y184400D01*
D02*
G37*
G36*
X445449Y193919D02*
X445563Y193496D01*
X445800Y193122D01*
X446161Y192798D01*
X446645Y192523D01*
X447253Y192299D01*
X447984Y192125D01*
X448838Y192000D01*
X449816Y191925D01*
X450918Y191900D01*
X450279Y186900D01*
X449156Y186875D01*
X447243Y186677D01*
X446453Y186503D01*
X445773Y186279D01*
X445204Y186006D01*
X444745Y185683D01*
X444398Y185310D01*
X444161Y184888D01*
X444034Y184416D01*
X445458Y194393D01*
X445449Y193919D01*
D02*
G37*
G36*
X321310Y181980D02*
X321284Y182221D01*
X321208Y182437D01*
X321081Y182628D01*
X320903Y182793D01*
X320675Y182933D01*
X320395Y183047D01*
X320065Y183136D01*
X319684Y183199D01*
X319252Y183237D01*
X318770Y183250D01*
Y185790D01*
X319252Y185803D01*
X319684Y185841D01*
X320065Y185904D01*
X320395Y185993D01*
X320675Y186108D01*
X320903Y186247D01*
X321081Y186412D01*
X321208Y186603D01*
X321284Y186819D01*
X321310Y187060D01*
Y181980D01*
D02*
G37*
G36*
X307655Y186819D02*
X307732Y186603D01*
X307861Y186412D01*
X308041Y186247D01*
X308272Y186108D01*
X308555Y185993D01*
X308889Y185904D01*
X309274Y185841D01*
X309711Y185803D01*
X309839Y185799D01*
X310117Y185823D01*
X310392Y185865D01*
X310652Y185923D01*
X310897Y185998D01*
X311127Y186089D01*
X311342Y186197D01*
X311542Y186321D01*
X311728Y186462D01*
X311898Y186620D01*
Y182420D01*
X311728Y182578D01*
X311542Y182719D01*
X311342Y182843D01*
X311127Y182951D01*
X310897Y183043D01*
X310652Y183117D01*
X310392Y183175D01*
X310117Y183217D01*
X309839Y183241D01*
X309711Y183237D01*
X309274Y183199D01*
X308889Y183136D01*
X308555Y183047D01*
X308272Y182933D01*
X308041Y182793D01*
X307861Y182628D01*
X307732Y182437D01*
X307655Y182221D01*
X307629Y181980D01*
Y187060D01*
X307655Y186819D01*
D02*
G37*
G36*
X316353Y186462D02*
X316538Y186321D01*
X316738Y186197D01*
X316953Y186089D01*
X317183Y185998D01*
X317428Y185923D01*
X317688Y185865D01*
X317963Y185823D01*
X318253Y185798D01*
X318558Y185790D01*
Y183250D01*
X318253Y183242D01*
X317963Y183217D01*
X317688Y183175D01*
X317428Y183117D01*
X317183Y183043D01*
X316953Y182951D01*
X316738Y182843D01*
X316538Y182719D01*
X316353Y182578D01*
X316183Y182420D01*
Y186620D01*
X316353Y186462D01*
D02*
G37*
G36*
X307655Y136019D02*
X307732Y135803D01*
X307861Y135612D01*
X308041Y135447D01*
X308272Y135308D01*
X308555Y135193D01*
X308889Y135104D01*
X309274Y135041D01*
X309711Y135003D01*
X310200Y134990D01*
Y132450D01*
X309711Y132437D01*
X309274Y132399D01*
X308889Y132336D01*
X308555Y132247D01*
X308272Y132133D01*
X308041Y131993D01*
X307861Y131828D01*
X307732Y131637D01*
X307655Y131421D01*
X307629Y131180D01*
Y136260D01*
X307655Y136019D01*
D02*
G37*
G36*
X761028Y83978D02*
X761250Y81482D01*
X761443Y80467D01*
X761693Y79609D01*
X761998Y78907D01*
X762358Y78361D01*
X762773Y77971D01*
X763244Y77737D01*
X763771Y77659D01*
X762226D01*
X762510Y77164D01*
X762923Y76837D01*
X763447Y76709D01*
X764083Y76780D01*
X764831Y77049D01*
X765690Y77517D01*
X766593Y78137D01*
X772160Y84159D01*
X781603Y71521D01*
X780917Y72178D01*
X780070Y72533D01*
X779060Y72584D01*
X777889Y72332D01*
X776555Y71776D01*
X775060Y70918D01*
X773403Y69756D01*
X771733Y68410D01*
X769837Y66249D01*
X769201Y65359D01*
X768706Y64564D01*
X768353Y63864D01*
X768140Y63260D01*
X768070Y62751D01*
X767334Y64626D01*
X761553Y72684D01*
X763392Y74674D01*
X762221Y77659D01*
X748230D01*
X748756Y77737D01*
X749227Y77971D01*
X749643Y78361D01*
X750003Y78907D01*
X750308Y79609D01*
X750557Y80467D01*
X750751Y81482D01*
X750889Y82652D01*
X750973Y83978D01*
X751000Y85460D01*
X761000D01*
X761028Y83978D01*
D02*
G37*
G36*
X788201Y83909D02*
X788501Y83685D01*
X789001Y83487D01*
X789701Y83315D01*
X790601Y83170D01*
X793001Y82959D01*
X796201Y82853D01*
X798101Y82840D01*
Y72840D01*
X796201Y72827D01*
X789701Y72365D01*
X789001Y72193D01*
X788501Y71996D01*
X788201Y71771D01*
X788101Y71521D01*
Y84159D01*
X788201Y83909D01*
D02*
G37*
G36*
X209345Y77439D02*
X208920Y77290D01*
X208545Y77039D01*
X208220Y76690D01*
X207945Y76240D01*
X207720Y75690D01*
X207545Y75040D01*
X207420Y74289D01*
X207345Y73440D01*
X207320Y72490D01*
X202320D01*
X202295Y73440D01*
X202220Y74289D01*
X202095Y75040D01*
X201920Y75690D01*
X201695Y76240D01*
X201420Y76690D01*
X201095Y77039D01*
X200720Y77290D01*
X200295Y77439D01*
X199820Y77490D01*
X209820D01*
X209345Y77439D01*
D02*
G37*
G36*
X162892Y78719D02*
X162621Y78596D01*
X162381Y78391D01*
X162174Y78104D01*
X161999Y77736D01*
X161855Y77285D01*
X161744Y76753D01*
X161664Y76139D01*
X161616Y75443D01*
X161600Y74665D01*
X161616Y73881D01*
X161744Y72561D01*
X161855Y72025D01*
X161999Y71571D01*
X162174Y71200D01*
X162381Y70911D01*
X162621Y70705D01*
X162892Y70581D01*
X163195Y70540D01*
X155006D01*
X155309Y70581D01*
X155580Y70705D01*
X155819Y70911D01*
X156026Y71200D01*
X156202Y71571D01*
X156345Y72025D01*
X156457Y72561D01*
X156537Y73180D01*
X156584Y73881D01*
X156600Y74665D01*
X156584Y75443D01*
X156457Y76753D01*
X156345Y77285D01*
X156202Y77736D01*
X156026Y78104D01*
X155819Y78391D01*
X155580Y78596D01*
X155309Y78719D01*
X155006Y78759D01*
X163195D01*
X162892Y78719D01*
D02*
G37*
G36*
X180703Y72622D02*
X180741Y72185D01*
X180805Y71800D01*
X180893Y71466D01*
X181008Y71183D01*
X181147Y70951D01*
X181313Y70771D01*
X181503Y70643D01*
X181719Y70566D01*
X181960Y70540D01*
X176880D01*
X177122Y70566D01*
X177337Y70643D01*
X177528Y70771D01*
X177693Y70951D01*
X177833Y71183D01*
X177947Y71466D01*
X178036Y71800D01*
X178099Y72185D01*
X178137Y72622D01*
X178150Y73111D01*
X180690D01*
X180703Y72622D01*
D02*
G37*
G36*
X132926Y70190D02*
X132493Y69740D01*
X131795Y68900D01*
X131530Y68511D01*
X131319Y68141D01*
X131164Y67792D01*
X131065Y67463D01*
X131021Y67155D01*
X131032Y66866D01*
X131099Y66597D01*
X129189Y71810D01*
X129310Y71596D01*
X129484Y71470D01*
X129711Y71432D01*
X129991Y71482D01*
X130323Y71621D01*
X130709Y71848D01*
X131148Y72162D01*
X131639Y72566D01*
X132781Y73637D01*
X132926Y70190D01*
D02*
G37*
G36*
X303355Y74928D02*
X303199Y74862D01*
X303061Y74752D01*
X302941Y74599D01*
X302840Y74402D01*
X302757Y74161D01*
X302693Y73877D01*
X302647Y73548D01*
X302619Y73176D01*
X302610Y72760D01*
X300070D01*
X300061Y73176D01*
X299988Y73877D01*
X299923Y74161D01*
X299840Y74402D01*
X299739Y74599D01*
X299620Y74752D01*
X299482Y74862D01*
X299326Y74928D01*
X299151Y74949D01*
X303530D01*
X303355Y74928D01*
D02*
G37*
G36*
X181719Y78734D02*
X181503Y78658D01*
X181313Y78531D01*
X181147Y78353D01*
X181008Y78124D01*
X180893Y77845D01*
X180805Y77515D01*
X180741Y77134D01*
X180703Y76702D01*
X180690Y76220D01*
X178150D01*
X178137Y76702D01*
X178099Y77134D01*
X178036Y77515D01*
X177947Y77845D01*
X177833Y78124D01*
X177693Y78353D01*
X177528Y78531D01*
X177337Y78658D01*
X177122Y78734D01*
X176880Y78759D01*
X181960D01*
X181719Y78734D01*
D02*
G37*
G36*
X725141Y82690D02*
X722933Y80412D01*
X719517Y76432D01*
X718307Y74730D01*
X717431Y73219D01*
X716887Y71901D01*
X716698Y70894D01*
X718039Y71493D01*
X717234Y70960D01*
X716766Y70232D01*
X716756Y70162D01*
X716798Y69840D01*
X717252Y69098D01*
X718039Y68547D01*
X716652Y69209D01*
X716839Y68187D01*
X717381Y66870D01*
X718260Y65358D01*
X719475Y63650D01*
X721027Y61746D01*
X725141Y57351D01*
X712670Y55679D01*
X710859Y57420D01*
X707502Y60214D01*
X705955Y61268D01*
X704497Y62092D01*
X703127Y62688D01*
X701845Y63055D01*
X700651Y63192D01*
X699545Y63101D01*
X698528Y62781D01*
X714849Y70068D01*
X698928Y77659D01*
X699927Y77321D01*
X701019Y77216D01*
X702203Y77344D01*
X703479Y77704D01*
X704847Y78298D01*
X706307Y79125D01*
X707860Y80184D01*
X709504Y81477D01*
X711241Y83002D01*
X713070Y84761D01*
X725141Y82690D01*
D02*
G37*
G36*
X837301Y77897D02*
X831847Y72551D01*
X831750Y72606D01*
X827942Y72837D01*
X827087Y72840D01*
X827340Y82840D01*
X830762Y82892D01*
X831532Y82942D01*
X831788Y82974D01*
X831959Y83009D01*
X832044Y83049D01*
X837301Y77897D01*
D02*
G37*
G36*
X842642Y83009D02*
X842813Y82974D01*
X843069Y82942D01*
X843839Y82892D01*
X847261Y82840D01*
X847514Y72840D01*
X846659Y72837D01*
X842851Y72606D01*
X842755Y72551D01*
X837301Y77897D01*
X842557Y83049D01*
X842642Y83009D01*
D02*
G37*
G36*
X857247Y72551D02*
X857150Y72606D01*
X856969Y72655D01*
X856703Y72698D01*
X856354Y72736D01*
X854800Y72814D01*
X852487Y72840D01*
X852740Y82840D01*
X857444Y83049D01*
X857247Y72551D01*
D02*
G37*
G36*
X661012Y87716D02*
X661226Y86605D01*
X661581Y85457D01*
X662079Y84273D01*
X662718Y83053D01*
X663499Y81797D01*
X664422Y80505D01*
X665487Y79176D01*
X668041Y76410D01*
X663625Y66684D01*
X663120Y67160D01*
X662669Y67523D01*
X662271Y67775D01*
X661926Y67915D01*
X661633Y67944D01*
X661395Y67860D01*
X661209Y67665D01*
X661076Y67359D01*
X660996Y66940D01*
X660970Y66410D01*
X660939Y88792D01*
X661012Y87716D01*
D02*
G37*
G36*
X131125Y40769D02*
X131202Y40553D01*
X131331Y40362D01*
X131510Y40197D01*
X131742Y40058D01*
X132025Y39943D01*
X132359Y39854D01*
X132744Y39791D01*
X133181Y39753D01*
X133670Y39740D01*
Y37200D01*
X133181Y37187D01*
X132744Y37149D01*
X132359Y37086D01*
X132025Y36997D01*
X131742Y36883D01*
X131510Y36743D01*
X131331Y36578D01*
X131202Y36387D01*
X131125Y36171D01*
X131099Y35930D01*
Y41010D01*
X131125Y40769D01*
D02*
G37*
G36*
X867428Y46395D02*
X866961Y45831D01*
X866548Y45251D01*
X866191Y44654D01*
X865888Y44041D01*
X865641Y43411D01*
X865448Y42765D01*
X865311Y42102D01*
X865228Y41423D01*
X865201Y40728D01*
X860201D01*
X860173Y41423D01*
X860091Y42102D01*
X859953Y42765D01*
X859761Y43411D01*
X859513Y44041D01*
X859211Y44654D01*
X858853Y45251D01*
X858441Y45831D01*
X857973Y46395D01*
X857451Y46943D01*
X867951D01*
X867428Y46395D01*
D02*
G37*
G36*
X112606Y46060D02*
X112117Y45553D01*
X111343Y44638D01*
X111058Y44230D01*
X110842Y43854D01*
X110693Y43511D01*
X110612Y43201D01*
X110600Y42924D01*
X110656Y42679D01*
X110779Y42467D01*
X107599Y46410D01*
X107776Y46252D01*
X107995Y46170D01*
X108253Y46164D01*
X108552Y46233D01*
X108891Y46378D01*
X109270Y46599D01*
X109690Y46895D01*
X110150Y47266D01*
X111191Y48237D01*
X112606Y46060D01*
D02*
G37*
G36*
X570580Y67680D02*
X580740Y57520D01*
Y34660D01*
Y2655D01*
X448660D01*
Y4180D01*
Y62600D01*
X456280Y70220D01*
X568040D01*
X570580Y67680D01*
D02*
G37*
G36*
X831945Y21649D02*
X831177Y22405D01*
X829718Y23679D01*
X829026Y24196D01*
X828360Y24634D01*
X827719Y24992D01*
X827104Y25271D01*
X826513Y25470D01*
X825948Y25589D01*
X825409Y25629D01*
Y28169D01*
X825948Y28209D01*
X826513Y28328D01*
X827104Y28527D01*
X827719Y28806D01*
X828360Y29164D01*
X829026Y29602D01*
X829718Y30119D01*
X831177Y31393D01*
X831945Y32149D01*
Y21649D01*
D02*
G37*
G36*
X865228Y37774D02*
X865311Y37095D01*
X865448Y36432D01*
X865641Y35786D01*
X865888Y35156D01*
X866191Y34543D01*
X866548Y33946D01*
X866961Y33366D01*
X867428Y32802D01*
X867951Y32255D01*
X857451D01*
X857973Y32802D01*
X858441Y33366D01*
X858853Y33946D01*
X859211Y34543D01*
X859513Y35156D01*
X859761Y35786D01*
X859953Y36432D01*
X860091Y37095D01*
X860173Y37774D01*
X860201Y38470D01*
X865201D01*
X865228Y37774D01*
D02*
G37*
G36*
X98201Y58760D02*
X98150Y58781D01*
X97996Y58799D01*
X97739Y58816D01*
X93060Y58870D01*
Y68870D01*
X98201Y68980D01*
Y58760D01*
D02*
G37*
G36*
X760353Y63895D02*
X760063Y64139D01*
X759285Y64718D01*
X759056Y64859D01*
X758842Y64974D01*
X758644Y65064D01*
X758461Y65129D01*
X758293Y65167D01*
X758140Y65180D01*
Y70180D01*
X758293Y70193D01*
X758461Y70231D01*
X758644Y70296D01*
X758842Y70386D01*
X759056Y70501D01*
X759285Y70642D01*
X759788Y71002D01*
X760353Y71465D01*
Y63895D01*
D02*
G37*
G36*
X693161Y64510D02*
X693104Y64645D01*
X692932Y64765D01*
X692645Y64872D01*
X692243Y64964D01*
X691726Y65042D01*
X690348Y65156D01*
X687420Y65220D01*
Y75220D01*
X688511Y75227D01*
X692243Y75476D01*
X692645Y75568D01*
X692932Y75675D01*
X693104Y75795D01*
X693161Y75931D01*
Y64510D01*
D02*
G37*
G36*
X831945Y47049D02*
X831177Y47805D01*
X829718Y49079D01*
X829026Y49596D01*
X828360Y50034D01*
X827719Y50392D01*
X827104Y50671D01*
X826513Y50870D01*
X825948Y50989D01*
X825409Y51029D01*
Y53569D01*
X825948Y53609D01*
X826513Y53728D01*
X827104Y53927D01*
X827719Y54206D01*
X828360Y54564D01*
X829026Y55002D01*
X829718Y55519D01*
X831177Y56793D01*
X831945Y57549D01*
Y47049D01*
D02*
G37*
G36*
X123883Y55882D02*
X123523Y55828D01*
X123164Y55738D01*
X122805Y55612D01*
X122446Y55451D01*
X122086Y55253D01*
X121727Y55019D01*
X121368Y54750D01*
X121009Y54445D01*
X120650Y54103D01*
X117058D01*
X117395Y54445D01*
X118514Y55738D01*
X118549Y55828D01*
X118542Y55882D01*
X118491Y55900D01*
X124242D01*
X123883Y55882D01*
D02*
G37*
G36*
X866041Y73871D02*
X865865Y73401D01*
X865709Y72757D01*
X865641Y72343D01*
X867951D01*
X867428Y71795D01*
X866961Y71231D01*
X866548Y70651D01*
X866191Y70054D01*
X865888Y69441D01*
X865641Y68811D01*
X865448Y68165D01*
X865311Y67502D01*
X865280Y67251D01*
X865211Y65233D01*
X865203Y63808D01*
X865228Y63174D01*
X865311Y62495D01*
X865448Y61832D01*
X865641Y61186D01*
X865888Y60556D01*
X866191Y59943D01*
X866548Y59346D01*
X866961Y58766D01*
X867428Y58202D01*
X867951Y57655D01*
X857451D01*
X857973Y58202D01*
X858441Y58766D01*
X858853Y59346D01*
X859211Y59943D01*
X859513Y60556D01*
X859761Y61186D01*
X859953Y61832D01*
X860091Y62495D01*
X860173Y63174D01*
X860198Y63808D01*
X860190Y65233D01*
X860016Y67861D01*
X859953Y68165D01*
X859761Y68811D01*
X859513Y69441D01*
X859211Y70054D01*
X858853Y70651D01*
X858441Y71231D01*
X857973Y71795D01*
X857451Y72343D01*
X859719D01*
X859692Y72757D01*
X859536Y73401D01*
X859360Y73871D01*
X859163Y74166D01*
X866238D01*
X866041Y73871D01*
D02*
G37*
G36*
X258173Y116691D02*
X258211Y116254D01*
X258274Y115869D01*
X258363Y115534D01*
X258478Y115252D01*
X258617Y115020D01*
X258783Y114840D01*
X258973Y114712D01*
X259189Y114635D01*
X259430Y114609D01*
X254350D01*
X254592Y114635D01*
X254807Y114712D01*
X254998Y114840D01*
X255163Y115020D01*
X255303Y115252D01*
X255417Y115534D01*
X255506Y115869D01*
X255569Y116254D01*
X255607Y116691D01*
X255620Y117179D01*
X258160D01*
X258173Y116691D01*
D02*
G37*
G36*
X282303Y118348D02*
X282341Y117916D01*
X282404Y117535D01*
X282493Y117205D01*
X282608Y116926D01*
X282747Y116697D01*
X282913Y116519D01*
X283103Y116392D01*
X283319Y116316D01*
X283560Y116291D01*
X278480D01*
X278722Y116316D01*
X278937Y116392D01*
X279128Y116519D01*
X279293Y116697D01*
X279433Y116926D01*
X279547Y117205D01*
X279636Y117535D01*
X279699Y117916D01*
X279737Y118348D01*
X279750Y118831D01*
X282290D01*
X282303Y118348D01*
D02*
G37*
G36*
X486899Y121385D02*
X486683Y121308D01*
X486493Y121180D01*
X486327Y121000D01*
X486188Y120768D01*
X486073Y120486D01*
X485984Y120152D01*
X485921Y119766D01*
X485883Y119329D01*
X485870Y118841D01*
X483330D01*
X483317Y119329D01*
X483279Y119766D01*
X483216Y120152D01*
X483127Y120486D01*
X483013Y120768D01*
X482873Y121000D01*
X482708Y121180D01*
X482517Y121308D01*
X482301Y121385D01*
X482060Y121411D01*
X487140D01*
X486899Y121385D01*
D02*
G37*
G36*
X231455Y113159D02*
X231532Y112943D01*
X231661Y112752D01*
X231840Y112587D01*
X232072Y112448D01*
X232355Y112333D01*
X232689Y112244D01*
X233074Y112181D01*
X233511Y112143D01*
X234000Y112130D01*
Y109590D01*
X233511Y109577D01*
X233074Y109539D01*
X232689Y109476D01*
X232355Y109387D01*
X232072Y109273D01*
X231840Y109133D01*
X231661Y108968D01*
X231532Y108777D01*
X231455Y108561D01*
X231429Y108320D01*
Y113400D01*
X231455Y113159D01*
D02*
G37*
G36*
X245110Y108320D02*
X245084Y108561D01*
X245008Y108777D01*
X244881Y108968D01*
X244703Y109133D01*
X244475Y109273D01*
X244195Y109387D01*
X243865Y109476D01*
X243484Y109539D01*
X243052Y109577D01*
X242570Y109590D01*
Y112130D01*
X243052Y112143D01*
X243484Y112181D01*
X243865Y112244D01*
X244195Y112333D01*
X244475Y112448D01*
X244703Y112587D01*
X244881Y112752D01*
X245008Y112943D01*
X245084Y113159D01*
X245110Y113400D01*
Y108320D01*
D02*
G37*
G36*
X198531D02*
X198505Y108561D01*
X198428Y108777D01*
X198300Y108968D01*
X198120Y109133D01*
X197889Y109273D01*
X197606Y109387D01*
X197272Y109476D01*
X196886Y109539D01*
X196449Y109577D01*
X196321Y109581D01*
X196043Y109557D01*
X195768Y109515D01*
X195508Y109457D01*
X195263Y109383D01*
X195033Y109291D01*
X194818Y109183D01*
X194618Y109059D01*
X194433Y108918D01*
X194263Y108760D01*
Y112960D01*
X194433Y112802D01*
X194618Y112661D01*
X194818Y112537D01*
X195033Y112429D01*
X195263Y112338D01*
X195508Y112263D01*
X195768Y112205D01*
X196043Y112163D01*
X196321Y112139D01*
X196449Y112143D01*
X196886Y112181D01*
X197272Y112244D01*
X197606Y112333D01*
X197889Y112448D01*
X198120Y112587D01*
X198300Y112752D01*
X198428Y112943D01*
X198505Y113159D01*
X198531Y113400D01*
Y108320D01*
D02*
G37*
G36*
X155992Y128320D02*
X155814Y128478D01*
X155596Y128560D01*
X155337Y128566D01*
X155039Y128497D01*
X154700Y128352D01*
X154320Y128132D01*
X153901Y127835D01*
X153441Y127464D01*
X152400Y126494D01*
X150985Y128671D01*
X151474Y129177D01*
X152247Y130092D01*
X152532Y130500D01*
X152749Y130876D01*
X152897Y131219D01*
X152978Y131529D01*
X152990Y131806D01*
X152935Y132051D01*
X152811Y132263D01*
X155992Y128320D01*
D02*
G37*
G36*
X177582D02*
X177347Y128421D01*
X177085Y128459D01*
X176795Y128434D01*
X176478Y128346D01*
X176132Y128195D01*
X175759Y127980D01*
X175358Y127703D01*
X174930Y127363D01*
X174474Y126960D01*
X173990Y126494D01*
X171305Y127401D01*
X171850Y127964D01*
X172700Y128954D01*
X173003Y129382D01*
X173226Y129763D01*
X173368Y130100D01*
X173430Y130391D01*
X173411Y130637D01*
X173311Y130837D01*
X173131Y130993D01*
X177582Y128320D01*
D02*
G37*
G36*
X469625Y134865D02*
X469700Y134011D01*
X469825Y133258D01*
X470000Y132604D01*
X470225Y132051D01*
X470500Y131598D01*
X470825Y131246D01*
X471200Y130993D01*
X471625Y130841D01*
X472100Y130789D01*
X463631Y130820D01*
X463815Y130870D01*
X463980Y131020D01*
X464125Y131270D01*
X464251Y131620D01*
X464358Y132070D01*
X464445Y132620D01*
X464513Y133270D01*
X464590Y134870D01*
X464600Y135820D01*
X469600D01*
X469625Y134865D01*
D02*
G37*
G36*
X167216Y119720D02*
X166727Y119213D01*
X165953Y118298D01*
X165668Y117890D01*
X165452Y117514D01*
X165303Y117171D01*
X165223Y116861D01*
X165210Y116584D01*
X165266Y116339D01*
X165389Y116128D01*
X162209Y120070D01*
X162386Y119913D01*
X162605Y119830D01*
X162863Y119824D01*
X163162Y119893D01*
X163501Y120038D01*
X163880Y120259D01*
X164300Y120555D01*
X164760Y120926D01*
X165801Y121897D01*
X167216Y119720D01*
D02*
G37*
G36*
X283319Y125724D02*
X283103Y125648D01*
X282913Y125521D01*
X282747Y125343D01*
X282608Y125114D01*
X282493Y124835D01*
X282404Y124505D01*
X282341Y124124D01*
X282303Y123692D01*
X282290Y123209D01*
X279750D01*
X279737Y123692D01*
X279699Y124124D01*
X279636Y124505D01*
X279547Y124835D01*
X279433Y125114D01*
X279293Y125343D01*
X279128Y125521D01*
X278937Y125648D01*
X278722Y125724D01*
X278480Y125750D01*
X283560D01*
X283319Y125724D01*
D02*
G37*
G36*
X105773Y127232D02*
X105811Y126795D01*
X105875Y126410D01*
X105963Y126075D01*
X106078Y125793D01*
X106217Y125561D01*
X106383Y125381D01*
X106573Y125253D01*
X106789Y125176D01*
X107030Y125150D01*
X101950D01*
X102191Y125176D01*
X102407Y125253D01*
X102598Y125381D01*
X102763Y125561D01*
X102903Y125793D01*
X103017Y126075D01*
X103106Y126410D01*
X103169Y126795D01*
X103208Y127232D01*
X103220Y127721D01*
X105760D01*
X105773Y127232D01*
D02*
G37*
G36*
X787014Y128180D02*
X786846Y127152D01*
X786928Y126013D01*
X787262Y124764D01*
X787846Y123405D01*
X788682Y121936D01*
X789769Y120356D01*
X791107Y118666D01*
X792696Y116866D01*
X794536Y114956D01*
X790645Y104704D01*
X788449Y106830D01*
X784578Y110138D01*
X782903Y111320D01*
X781402Y112187D01*
X780074Y112740D01*
X778921Y112979D01*
X777941Y112902D01*
X777135Y112511D01*
X776503Y111806D01*
X787434Y129098D01*
X787014Y128180D01*
D02*
G37*
G36*
X231455Y90299D02*
X231532Y90083D01*
X231661Y89892D01*
X231841Y89727D01*
X232072Y89588D01*
X232355Y89473D01*
X232689Y89384D01*
X233074Y89321D01*
X233511Y89283D01*
X234000Y89270D01*
Y86730D01*
X233511Y86717D01*
X233074Y86679D01*
X232689Y86616D01*
X232355Y86527D01*
X232072Y86413D01*
X231841Y86273D01*
X231661Y86108D01*
X231532Y85917D01*
X231455Y85701D01*
X231429Y85460D01*
Y90540D01*
X231455Y90299D01*
D02*
G37*
G36*
X245110Y85460D02*
X245084Y85701D01*
X245008Y85917D01*
X244881Y86108D01*
X244703Y86273D01*
X244475Y86413D01*
X244195Y86527D01*
X243865Y86616D01*
X243484Y86679D01*
X243052Y86717D01*
X242570Y86730D01*
Y89270D01*
X243052Y89283D01*
X243484Y89321D01*
X243865Y89384D01*
X244195Y89473D01*
X244475Y89588D01*
X244703Y89727D01*
X244881Y89892D01*
X245008Y90083D01*
X245084Y90299D01*
X245110Y90540D01*
Y85460D01*
D02*
G37*
G36*
X180703Y96752D02*
X180741Y96315D01*
X180805Y95930D01*
X180893Y95596D01*
X181008Y95313D01*
X181147Y95081D01*
X181313Y94901D01*
X181503Y94773D01*
X181719Y94696D01*
X181960Y94670D01*
X176880D01*
X177122Y94696D01*
X177337Y94773D01*
X177528Y94901D01*
X177693Y95081D01*
X177833Y95313D01*
X177947Y95596D01*
X178036Y95930D01*
X178099Y96315D01*
X178137Y96752D01*
X178150Y97241D01*
X180690D01*
X180703Y96752D01*
D02*
G37*
G36*
X307655Y85219D02*
X307732Y85003D01*
X307861Y84812D01*
X308041Y84647D01*
X308272Y84508D01*
X308555Y84393D01*
X308889Y84304D01*
X309274Y84241D01*
X309711Y84203D01*
X310200Y84190D01*
Y81650D01*
X309711Y81637D01*
X309274Y81599D01*
X308889Y81536D01*
X308555Y81447D01*
X308272Y81333D01*
X308041Y81193D01*
X307861Y81028D01*
X307732Y80837D01*
X307655Y80621D01*
X307629Y80380D01*
Y85460D01*
X307655Y85219D01*
D02*
G37*
G36*
X532863Y137177D02*
X532900Y137000D01*
X670000D01*
X672102Y134898D01*
X672500Y135072D01*
X672260Y134915D01*
X672191Y134809D01*
X675000Y132000D01*
X685000Y122000D01*
X718880D01*
X720409Y123529D01*
Y125651D01*
X720818Y126080D01*
X721184Y126509D01*
X721507Y126936D01*
X721786Y127362D01*
X722023Y127787D01*
X722217Y128211D01*
X722367Y128633D01*
X722475Y129054D01*
X722540Y129474D01*
X722561Y129893D01*
Y125681D01*
X725520Y128640D01*
X727160Y127000D01*
X735000D01*
Y122000D01*
X725000Y112000D01*
X640000D01*
X625000Y97000D01*
X609380Y81380D01*
X590620D01*
X585000Y87000D01*
X565000Y107000D01*
X535000D01*
X525000Y117000D01*
X520000Y122000D01*
Y137000D01*
X532831D01*
Y137612D01*
X532863Y137177D01*
D02*
G37*
G36*
X98201Y85429D02*
X98150Y85451D01*
X97996Y85469D01*
X97739Y85486D01*
X93060Y85540D01*
Y95540D01*
X98201Y95651D01*
Y85429D01*
D02*
G37*
G36*
X435936Y110791D02*
X436102Y109433D01*
X436302Y108476D01*
X440880D01*
X439930Y108376D01*
X439080Y108076D01*
X438330Y107576D01*
X437680Y106875D01*
X437130Y105976D01*
X437115Y105938D01*
X437264Y105562D01*
X437873Y104341D01*
X438592Y103153D01*
X439422Y102000D01*
X440363Y100881D01*
X441414Y99796D01*
X435914Y99752D01*
X435880Y98476D01*
X425880D01*
X425849Y99671D01*
X420415Y99628D01*
X421453Y100732D01*
X422382Y101869D01*
X423202Y103037D01*
X423913Y104236D01*
X424514Y105468D01*
X424672Y105873D01*
X424630Y105976D01*
X424080Y106875D01*
X423430Y107576D01*
X422680Y108076D01*
X421830Y108376D01*
X420880Y108476D01*
X425481D01*
X425662Y109352D01*
X425826Y110710D01*
X425880Y112099D01*
X435880Y112184D01*
X435936Y110791D01*
D02*
G37*
G36*
X181719Y104134D02*
X181503Y104058D01*
X181313Y103931D01*
X181147Y103753D01*
X181008Y103525D01*
X180893Y103245D01*
X180805Y102915D01*
X180741Y102534D01*
X180703Y102102D01*
X180690Y101620D01*
X178150D01*
X178137Y102102D01*
X178099Y102534D01*
X178036Y102915D01*
X177947Y103245D01*
X177833Y103525D01*
X177693Y103753D01*
X177528Y103931D01*
X177337Y104058D01*
X177122Y104134D01*
X176880Y104159D01*
X181960D01*
X181719Y104134D01*
D02*
G37*
G36*
X307680Y112845D02*
X307830Y112420D01*
X308082Y112045D01*
X308434Y111720D01*
X308887Y111445D01*
X309440Y111220D01*
X310094Y111045D01*
X310849Y110920D01*
X311704Y110845D01*
X312660Y110820D01*
Y105820D01*
X311704Y105795D01*
X310849Y105720D01*
X310094Y105595D01*
X309440Y105420D01*
X308887Y105195D01*
X308434Y104920D01*
X308082Y104595D01*
X307830Y104220D01*
X307680Y103795D01*
X307629Y103320D01*
Y113320D01*
X307680Y112845D01*
D02*
G37*
G36*
X829831Y95629D02*
X829731Y96098D01*
X829431Y96518D01*
X828931Y96889D01*
X828231Y97210D01*
X827331Y97481D01*
X826231Y97704D01*
X824931Y97877D01*
X821731Y98074D01*
X819831Y98099D01*
Y108099D01*
X821731Y108124D01*
X826231Y108494D01*
X827331Y108716D01*
X828231Y108988D01*
X828931Y109309D01*
X829431Y109679D01*
X829731Y110099D01*
X829831Y110568D01*
Y95629D01*
D02*
G37*
G36*
X132926Y93050D02*
X132579Y92685D01*
X132268Y92321D01*
X131994Y91959D01*
X131757Y91598D01*
X131556Y91238D01*
X131391Y90880D01*
X131264Y90522D01*
X131172Y90166D01*
X131117Y89811D01*
X131099Y89458D01*
Y96642D01*
X131117Y96313D01*
X131172Y96057D01*
X131264Y95875D01*
X131391Y95765D01*
X131556Y95728D01*
X131757Y95765D01*
X131994Y95875D01*
X132268Y96057D01*
X132579Y96313D01*
X132926Y96642D01*
Y93050D01*
D02*
G37*
G36*
X844870Y110099D02*
X845170Y109679D01*
X845670Y109309D01*
X846370Y108988D01*
X847270Y108716D01*
X848370Y108494D01*
X849670Y108321D01*
X852870Y108124D01*
X853037Y108121D01*
X857345Y108349D01*
Y97849D01*
X857253Y97896D01*
X857077Y97939D01*
X856815Y97976D01*
X856039Y98036D01*
X853864Y98087D01*
X852870Y98074D01*
X848370Y97704D01*
X847270Y97481D01*
X846370Y97210D01*
X845670Y96889D01*
X845170Y96518D01*
X844870Y96098D01*
X844770Y95629D01*
Y110568D01*
X844870Y110099D01*
D02*
G37*
G36*
X160383Y222482D02*
X160421Y222045D01*
X160485Y221660D01*
X160573Y221325D01*
X160688Y221043D01*
X160827Y220811D01*
X160993Y220631D01*
X161183Y220503D01*
X161399Y220426D01*
X161640Y220400D01*
X156560D01*
X156802Y220426D01*
X157017Y220503D01*
X157208Y220631D01*
X157373Y220811D01*
X157513Y221043D01*
X157627Y221325D01*
X157716Y221660D01*
X157779Y222045D01*
X157817Y222482D01*
X157830Y222971D01*
X160370D01*
X160383Y222482D01*
D02*
G37*
G36*
X176487Y377911D02*
X175907Y377313D01*
X175013Y376278D01*
X174698Y375839D01*
X174471Y375453D01*
X174332Y375121D01*
X174282Y374841D01*
X174320Y374614D01*
X174446Y374440D01*
X174660Y374319D01*
X169448Y376229D01*
X169716Y376162D01*
X170005Y376151D01*
X170314Y376195D01*
X170643Y376294D01*
X170992Y376449D01*
X171361Y376659D01*
X171750Y376925D01*
X172160Y377247D01*
X172590Y377623D01*
X173040Y378056D01*
X176487Y377911D01*
D02*
G37*
G36*
X114663Y378311D02*
X114701Y377874D01*
X114764Y377489D01*
X114853Y377154D01*
X114968Y376872D01*
X115107Y376640D01*
X115273Y376460D01*
X115463Y376332D01*
X115679Y376255D01*
X115920Y376229D01*
X110840D01*
X111081Y376255D01*
X111297Y376332D01*
X111488Y376460D01*
X111653Y376640D01*
X111793Y376872D01*
X111907Y377154D01*
X111996Y377489D01*
X112059Y377874D01*
X112098Y378311D01*
X112110Y378800D01*
X114650D01*
X114663Y378311D01*
D02*
G37*
G36*
X220045Y380304D02*
X220120Y379449D01*
X220245Y378694D01*
X220420Y378040D01*
X220645Y377487D01*
X220920Y377034D01*
X221245Y376682D01*
X221620Y376430D01*
X222045Y376279D01*
X222520Y376229D01*
X212520D01*
X212995Y376279D01*
X213420Y376430D01*
X213795Y376682D01*
X214120Y377034D01*
X214395Y377487D01*
X214620Y378040D01*
X214795Y378694D01*
X214920Y379449D01*
X214995Y380304D01*
X215020Y381259D01*
X220020D01*
X220045Y380304D01*
D02*
G37*
G36*
X158780Y367400D02*
X158755Y367641D01*
X158677Y367857D01*
X158549Y368048D01*
X158369Y368213D01*
X158138Y368353D01*
X157855Y368467D01*
X157521Y368556D01*
X157135Y368619D01*
X156698Y368657D01*
X156210Y368670D01*
Y371210D01*
X156698Y371223D01*
X157135Y371261D01*
X157521Y371324D01*
X157855Y371413D01*
X158138Y371527D01*
X158369Y371667D01*
X158549Y371832D01*
X158677Y372023D01*
X158755Y372239D01*
X158780Y372480D01*
Y367400D01*
D02*
G37*
G36*
X645826Y386450D02*
X646780D01*
Y376290D01*
X645826D01*
Y371120D01*
X645726Y372070D01*
X645425Y372920D01*
X644923Y373670D01*
X644221Y374320D01*
X643319Y374870D01*
X642215Y375320D01*
X640911Y375670D01*
X639407Y375920D01*
X637701Y376070D01*
X637671Y376071D01*
X632810Y371210D01*
X618840Y357240D01*
Y330570D01*
X606140D01*
X565500Y371210D01*
X559150Y377560D01*
Y386450D01*
X640189D01*
X640911Y386570D01*
X642215Y386920D01*
X643319Y387370D01*
X644221Y387920D01*
X644923Y388570D01*
X645425Y389320D01*
X645726Y390170D01*
X645826Y391120D01*
Y386450D01*
D02*
G37*
G36*
X262451Y377623D02*
X263290Y376925D01*
X263680Y376659D01*
X264049Y376449D01*
X264398Y376294D01*
X264727Y376195D01*
X265036Y376151D01*
X265324Y376162D01*
X265593Y376229D01*
X260380Y374319D01*
X260595Y374440D01*
X260721Y374614D01*
X260758Y374841D01*
X260708Y375121D01*
X260569Y375453D01*
X260343Y375839D01*
X260028Y376278D01*
X259625Y376769D01*
X258554Y377911D01*
X262001Y378056D01*
X262451Y377623D01*
D02*
G37*
G36*
X239127Y389025D02*
X239115Y388947D01*
X239105Y388817D01*
X239077Y387777D01*
X239070Y386450D01*
X234070D01*
X234000Y389051D01*
X239141D01*
X239127Y389025D01*
D02*
G37*
G36*
X187742Y387400D02*
X187621Y387614D01*
X187446Y387740D01*
X187220Y387778D01*
X186940Y387728D01*
X186607Y387589D01*
X186221Y387363D01*
X185783Y387048D01*
X185291Y386645D01*
X184150Y385574D01*
X184005Y389021D01*
X184437Y389470D01*
X185135Y390310D01*
X185401Y390699D01*
X185611Y391069D01*
X185766Y391418D01*
X185866Y391747D01*
X185910Y392056D01*
X185898Y392344D01*
X185831Y392613D01*
X187742Y387400D01*
D02*
G37*
G36*
X717870Y395665D02*
X718020Y393965D01*
X718270Y392465D01*
X718620Y391165D01*
X719070Y390065D01*
X719620Y389165D01*
X720270Y388465D01*
X721020Y387965D01*
X721870Y387665D01*
X722820Y387565D01*
X702820D01*
X703770Y387665D01*
X704620Y387965D01*
X705370Y388465D01*
X706020Y389165D01*
X706570Y390065D01*
X707020Y391165D01*
X707370Y392465D01*
X707620Y393965D01*
X707770Y395665D01*
X707820Y397565D01*
X717820D01*
X717870Y395665D01*
D02*
G37*
G36*
X295003Y378311D02*
X295041Y377874D01*
X295105Y377489D01*
X295193Y377155D01*
X295308Y376872D01*
X295447Y376640D01*
X295613Y376460D01*
X295803Y376332D01*
X296019Y376255D01*
X296260Y376229D01*
X291180D01*
X291422Y376255D01*
X291637Y376332D01*
X291828Y376460D01*
X291993Y376640D01*
X292133Y376872D01*
X292247Y377155D01*
X292336Y377489D01*
X292399Y377874D01*
X292437Y378311D01*
X292450Y378800D01*
X294990D01*
X295003Y378311D01*
D02*
G37*
G36*
X218760Y387369D02*
X218999Y387322D01*
X219214Y387180D01*
X219403Y386944D01*
X219566Y386613D01*
X219705Y386187D01*
X219818Y385667D01*
X219907Y385052D01*
X219970Y384343D01*
X220020Y382640D01*
X215020D01*
X214998Y383542D01*
X214931Y384350D01*
X214820Y385063D01*
X214664Y385681D01*
X214463Y386204D01*
X214218Y386633D01*
X213928Y386967D01*
X213593Y387206D01*
X213214Y387350D01*
X212791Y387400D01*
X218760Y387369D01*
D02*
G37*
G36*
X324743Y387141D02*
X324781Y386704D01*
X324845Y386319D01*
X324933Y385984D01*
X325048Y385702D01*
X325187Y385470D01*
X325353Y385290D01*
X325543Y385162D01*
X325759Y385085D01*
X326000Y385059D01*
X320920D01*
X321161Y385085D01*
X321377Y385162D01*
X321568Y385290D01*
X321733Y385470D01*
X321873Y385702D01*
X321987Y385984D01*
X322076Y386319D01*
X322139Y386704D01*
X322178Y387141D01*
X322190Y387630D01*
X324730D01*
X324743Y387141D01*
D02*
G37*
G36*
X149286Y372239D02*
X149363Y372023D01*
X149492Y371832D01*
X149671Y371667D01*
X149903Y371527D01*
X150186Y371413D01*
X150520Y371324D01*
X150905Y371261D01*
X151342Y371223D01*
X151831Y371210D01*
Y368670D01*
X151342Y368657D01*
X150905Y368619D01*
X150520Y368556D01*
X150186Y368467D01*
X149903Y368353D01*
X149671Y368213D01*
X149492Y368048D01*
X149363Y367857D01*
X149286Y367641D01*
X149260Y367400D01*
Y372480D01*
X149286Y372239D01*
D02*
G37*
G36*
X296019Y343305D02*
X295803Y343228D01*
X295613Y343100D01*
X295447Y342920D01*
X295308Y342688D01*
X295193Y342406D01*
X295105Y342071D01*
X295041Y341686D01*
X295003Y341249D01*
X294990Y340760D01*
X292450D01*
X292437Y341249D01*
X292399Y341686D01*
X292336Y342071D01*
X292247Y342406D01*
X292133Y342688D01*
X291993Y342920D01*
X291828Y343100D01*
X291637Y343228D01*
X291422Y343305D01*
X291180Y343331D01*
X296260D01*
X296019Y343305D01*
D02*
G37*
G36*
X169019Y343305D02*
X168803Y343228D01*
X168612Y343100D01*
X168447Y342920D01*
X168308Y342688D01*
X168193Y342406D01*
X168104Y342071D01*
X168041Y341686D01*
X168003Y341249D01*
X167990Y340761D01*
X165450D01*
X165438Y341249D01*
X165399Y341686D01*
X165336Y342071D01*
X165247Y342406D01*
X165133Y342688D01*
X164993Y342920D01*
X164828Y343100D01*
X164637Y343228D01*
X164422Y343305D01*
X164180Y343331D01*
X169260D01*
X169019Y343305D01*
D02*
G37*
G36*
X121106Y345120D02*
X120980Y344946D01*
X120942Y344719D01*
X120992Y344440D01*
X121131Y344107D01*
X121358Y343721D01*
X121673Y343283D01*
X122076Y342791D01*
X123147Y341650D01*
X119700Y341504D01*
X119250Y341937D01*
X118410Y342635D01*
X118021Y342901D01*
X117652Y343111D01*
X117303Y343266D01*
X116974Y343366D01*
X116665Y343410D01*
X116376Y343398D01*
X116108Y343331D01*
X121320Y345242D01*
X121106Y345120D01*
D02*
G37*
G36*
X194419Y343305D02*
X194203Y343228D01*
X194013Y343100D01*
X193847Y342920D01*
X193708Y342688D01*
X193593Y342406D01*
X193505Y342071D01*
X193441Y341686D01*
X193403Y341249D01*
X193390Y340760D01*
X190850D01*
X190837Y341249D01*
X190799Y341686D01*
X190736Y342071D01*
X190647Y342406D01*
X190533Y342688D01*
X190393Y342920D01*
X190228Y343100D01*
X190037Y343228D01*
X189821Y343305D01*
X189580Y343331D01*
X194660D01*
X194419Y343305D01*
D02*
G37*
G36*
X245219D02*
X245003Y343228D01*
X244813Y343100D01*
X244647Y342920D01*
X244508Y342688D01*
X244393Y342406D01*
X244305Y342071D01*
X244241Y341686D01*
X244203Y341249D01*
X244190Y340760D01*
X241650D01*
X241637Y341249D01*
X241599Y341686D01*
X241536Y342071D01*
X241447Y342406D01*
X241333Y342688D01*
X241193Y342920D01*
X241028Y343100D01*
X240837Y343228D01*
X240621Y343305D01*
X240380Y343331D01*
X245460D01*
X245219Y343305D01*
D02*
G37*
G36*
X265539Y343305D02*
X265323Y343228D01*
X265133Y343100D01*
X264967Y342920D01*
X264828Y342688D01*
X264713Y342406D01*
X264625Y342071D01*
X264561Y341686D01*
X264523Y341249D01*
X264510Y340760D01*
X261970D01*
X261957Y341249D01*
X261919Y341686D01*
X261856Y342071D01*
X261767Y342406D01*
X261653Y342688D01*
X261513Y342920D01*
X261348Y343100D01*
X261157Y343228D01*
X260942Y343305D01*
X260700Y343331D01*
X265780D01*
X265539Y343305D01*
D02*
G37*
G36*
X250880Y369016D02*
X250936Y368660D01*
X251029Y368303D01*
X251157Y367945D01*
X251322Y367586D01*
X251522Y367226D01*
X251759Y366866D01*
X252032Y366505D01*
X252341Y366143D01*
X252687Y365779D01*
Y362187D01*
X252411Y362460D01*
X251352Y363391D01*
X251205Y363492D01*
X251079Y363563D01*
X250974Y363606D01*
X250891Y363620D01*
X250860Y369372D01*
X250880Y369016D01*
D02*
G37*
G36*
X184150Y363620D02*
X184132Y363671D01*
X184078Y363679D01*
X183988Y363644D01*
X183862Y363565D01*
X183701Y363444D01*
X183270Y363071D01*
X182354Y362187D01*
Y365779D01*
X182695Y366139D01*
X183000Y366498D01*
X183270Y366857D01*
X183503Y367216D01*
X183701Y367576D01*
X183862Y367935D01*
X183988Y368294D01*
X184078Y368653D01*
X184132Y369012D01*
X184150Y369372D01*
Y363620D01*
D02*
G37*
G36*
X105410Y367400D02*
X105384Y367641D01*
X105308Y367857D01*
X105181Y368048D01*
X105003Y368213D01*
X104775Y368353D01*
X104495Y368467D01*
X104165Y368556D01*
X103784Y368619D01*
X103352Y368657D01*
X102870Y368670D01*
Y371210D01*
X103352Y371223D01*
X103784Y371261D01*
X104165Y371324D01*
X104495Y371413D01*
X104775Y371527D01*
X105003Y371667D01*
X105181Y371832D01*
X105308Y372023D01*
X105384Y372239D01*
X105410Y372480D01*
Y367400D01*
D02*
G37*
G36*
X330875Y351919D02*
X330952Y351703D01*
X331081Y351512D01*
X331260Y351347D01*
X331492Y351208D01*
X331775Y351093D01*
X332109Y351004D01*
X332494Y350941D01*
X332931Y350903D01*
X333420Y350890D01*
Y348350D01*
X332931Y348337D01*
X332494Y348299D01*
X332109Y348236D01*
X331775Y348147D01*
X331492Y348033D01*
X331260Y347893D01*
X331081Y347728D01*
X330952Y347537D01*
X330875Y347321D01*
X330849Y347080D01*
Y352160D01*
X330875Y351919D01*
D02*
G37*
G36*
X261237Y357247D02*
X262152Y356473D01*
X262561Y356188D01*
X262936Y355972D01*
X263279Y355823D01*
X263589Y355742D01*
X263866Y355730D01*
X264111Y355785D01*
X264323Y355909D01*
X260380Y352729D01*
X260538Y352906D01*
X260620Y353124D01*
X260626Y353383D01*
X260557Y353682D01*
X260412Y354021D01*
X260192Y354400D01*
X259896Y354820D01*
X259524Y355280D01*
X258554Y356321D01*
X260731Y357736D01*
X261237Y357247D01*
D02*
G37*
G36*
X176487Y356321D02*
X175964Y355780D01*
X175145Y354820D01*
X174849Y354400D01*
X174628Y354021D01*
X174483Y353682D01*
X174414Y353383D01*
X174421Y353124D01*
X174503Y352906D01*
X174660Y352729D01*
X170718Y355909D01*
X170930Y355785D01*
X171174Y355730D01*
X171451Y355742D01*
X171761Y355823D01*
X172104Y355972D01*
X172480Y356188D01*
X172888Y356473D01*
X173329Y356826D01*
X174310Y357736D01*
X176487Y356321D01*
D02*
G37*
G36*
X184747Y428657D02*
X185783Y427762D01*
X186221Y427448D01*
X186607Y427221D01*
X186940Y427082D01*
X187220Y427032D01*
X187447Y427070D01*
X187621Y427196D01*
X187742Y427410D01*
X185831Y422197D01*
X185898Y422466D01*
X185910Y422755D01*
X185866Y423063D01*
X185766Y423392D01*
X185611Y423741D01*
X185401Y424111D01*
X185135Y424500D01*
X184814Y424910D01*
X184437Y425340D01*
X184005Y425790D01*
X184150Y429237D01*
X184747Y428657D01*
D02*
G37*
G36*
X445127Y419002D02*
X444605Y419433D01*
X443948Y419819D01*
X443156Y420159D01*
X442229Y420454D01*
X441166Y420703D01*
X439968Y420907D01*
X439471Y420956D01*
Y420000D01*
X439445Y420241D01*
X439368Y420457D01*
X439240Y420648D01*
X439060Y420813D01*
X438829Y420952D01*
X438616Y421039D01*
X437167Y421179D01*
X435563Y421247D01*
X433824Y421270D01*
Y423810D01*
X435563Y423833D01*
X438698Y424075D01*
X438829Y424128D01*
X439060Y424267D01*
X439240Y424432D01*
X439368Y424623D01*
X439445Y424839D01*
X439471Y425080D01*
Y424134D01*
X439968Y424173D01*
X441166Y424377D01*
X442229Y424626D01*
X443156Y424921D01*
X443948Y425261D01*
X444605Y425647D01*
X445127Y426078D01*
Y419002D01*
D02*
G37*
G36*
X214965Y431491D02*
X215040Y430641D01*
X215165Y429891D01*
X215340Y429241D01*
X215565Y428691D01*
X215840Y428241D01*
X216165Y427891D01*
X216540Y427641D01*
X216965Y427491D01*
X217440Y427441D01*
X207440D01*
X207915Y427491D01*
X208340Y427641D01*
X208715Y427891D01*
X209040Y428241D01*
X209315Y428691D01*
X209540Y429241D01*
X209715Y429891D01*
X209840Y430641D01*
X209915Y431491D01*
X209940Y432441D01*
X214940D01*
X214965Y431491D01*
D02*
G37*
G36*
X185831Y416930D02*
X185805Y417171D01*
X185728Y417387D01*
X185600Y417578D01*
X185420Y417743D01*
X185189Y417883D01*
X184906Y417997D01*
X184572Y418086D01*
X184186Y418149D01*
X183749Y418187D01*
X183261Y418200D01*
Y420740D01*
X183749Y420753D01*
X184186Y420791D01*
X184572Y420854D01*
X184906Y420943D01*
X185189Y421058D01*
X185420Y421197D01*
X185600Y421362D01*
X185728Y421553D01*
X185805Y421769D01*
X185831Y422010D01*
Y416930D01*
D02*
G37*
G36*
X177923Y421412D02*
X178108Y421271D01*
X178308Y421147D01*
X178523Y421039D01*
X178753Y420947D01*
X178998Y420873D01*
X179258Y420815D01*
X179533Y420773D01*
X179823Y420748D01*
X180128Y420740D01*
Y418200D01*
X179823Y418192D01*
X179533Y418167D01*
X179258Y418125D01*
X178998Y418067D01*
X178753Y417993D01*
X178523Y417901D01*
X178308Y417793D01*
X178108Y417669D01*
X177923Y417528D01*
X177753Y417370D01*
Y421570D01*
X177923Y421412D01*
D02*
G37*
G36*
X239863Y424031D02*
X239901Y423594D01*
X239965Y423209D01*
X240053Y422874D01*
X240168Y422592D01*
X240307Y422360D01*
X240473Y422180D01*
X240663Y422052D01*
X240879Y421975D01*
X241120Y421949D01*
X236040D01*
X236282Y421975D01*
X236497Y422052D01*
X236688Y422180D01*
X236853Y422360D01*
X236993Y422592D01*
X237107Y422874D01*
X237196Y423209D01*
X237259Y423594D01*
X237297Y424031D01*
X237310Y424520D01*
X239850D01*
X239863Y424031D01*
D02*
G37*
G36*
X288021Y441060D02*
X287995Y441301D01*
X287918Y441517D01*
X287790Y441708D01*
X287610Y441873D01*
X287379Y442013D01*
X287096Y442127D01*
X286762Y442216D01*
X286376Y442279D01*
X285939Y442317D01*
X285451Y442330D01*
Y444870D01*
X285939Y444883D01*
X286376Y444921D01*
X286762Y444984D01*
X287096Y445073D01*
X287379Y445188D01*
X287610Y445327D01*
X287790Y445492D01*
X287918Y445683D01*
X287995Y445899D01*
X288021Y446140D01*
Y441060D01*
D02*
G37*
G36*
X329955Y445899D02*
X330031Y445683D01*
X330158Y445492D01*
X330336Y445327D01*
X330565Y445188D01*
X330844Y445073D01*
X331174Y444984D01*
X331555Y444921D01*
X331987Y444883D01*
X332470Y444870D01*
Y442330D01*
X331987Y442317D01*
X331555Y442279D01*
X331174Y442216D01*
X330844Y442127D01*
X330565Y442013D01*
X330336Y441873D01*
X330158Y441708D01*
X330031Y441517D01*
X329955Y441301D01*
X329930Y441060D01*
Y446140D01*
X329955Y445899D01*
D02*
G37*
G36*
X102001Y450204D02*
X101648Y449795D01*
X101333Y449311D01*
X101056Y448753D01*
X100818Y448120D01*
X100618Y447414D01*
X100457Y446633D01*
X100334Y445778D01*
X100202Y443846D01*
X100194Y442769D01*
X92770Y450193D01*
X93847Y450201D01*
X95780Y450332D01*
X96634Y450456D01*
X97415Y450617D01*
X98122Y450817D01*
X98754Y451055D01*
X99312Y451332D01*
X99796Y451647D01*
X100205Y452000D01*
X102001Y450204D01*
D02*
G37*
G36*
X240879Y434385D02*
X240663Y434308D01*
X240473Y434180D01*
X240307Y434000D01*
X240168Y433768D01*
X240053Y433486D01*
X239965Y433152D01*
X239901Y432766D01*
X239863Y432329D01*
X239850Y431841D01*
X237310D01*
X237297Y432329D01*
X237259Y432766D01*
X237196Y433152D01*
X237107Y433486D01*
X236993Y433768D01*
X236853Y434000D01*
X236688Y434180D01*
X236497Y434308D01*
X236282Y434385D01*
X236040Y434411D01*
X241120D01*
X240879Y434385D01*
D02*
G37*
G36*
X49402Y441541D02*
X49534Y439609D01*
X49657Y438754D01*
X49818Y437973D01*
X50018Y437267D01*
X50256Y436634D01*
X50533Y436076D01*
X50848Y435592D01*
X51202Y435183D01*
X49405Y433387D01*
X48996Y433740D01*
X48512Y434055D01*
X47954Y434332D01*
X47322Y434570D01*
X46615Y434770D01*
X45834Y434931D01*
X44980Y435055D01*
X43047Y435186D01*
X41970Y435194D01*
X49394Y442618D01*
X49402Y441541D01*
D02*
G37*
G36*
X274075Y445899D02*
X274151Y445683D01*
X274278Y445492D01*
X274456Y445327D01*
X274685Y445188D01*
X274964Y445073D01*
X275294Y444984D01*
X275675Y444921D01*
X276107Y444883D01*
X276590Y444870D01*
Y442330D01*
X276107Y442317D01*
X275675Y442279D01*
X275294Y442216D01*
X274964Y442127D01*
X274685Y442013D01*
X274456Y441873D01*
X274278Y441708D01*
X274151Y441517D01*
X274075Y441301D01*
X274050Y441060D01*
Y446140D01*
X274075Y445899D01*
D02*
G37*
G36*
X288021Y412209D02*
X288003Y412317D01*
X287948Y412452D01*
X287857Y412615D01*
X287729Y412804D01*
X287565Y413021D01*
X287126Y413535D01*
X286195Y414510D01*
X287738Y416558D01*
X287792Y416510D01*
X287840Y416478D01*
X287883Y416462D01*
X287919Y416463D01*
X287950Y416480D01*
X287976Y416513D01*
X287996Y416563D01*
X288010Y416629D01*
X288018Y416712D01*
X288021Y416810D01*
Y412209D01*
D02*
G37*
G36*
X325759Y398825D02*
X325543Y398748D01*
X325353Y398620D01*
X325187Y398440D01*
X325048Y398208D01*
X324933Y397926D01*
X324845Y397592D01*
X324781Y397206D01*
X324743Y396769D01*
X324730Y396281D01*
X322190D01*
X322178Y396769D01*
X322139Y397206D01*
X322076Y397592D01*
X321987Y397926D01*
X321873Y398208D01*
X321733Y398440D01*
X321568Y398620D01*
X321377Y398748D01*
X321161Y398825D01*
X320920Y398851D01*
X326000D01*
X325759Y398825D01*
D02*
G37*
G36*
X228630Y390340D02*
X228580Y390815D01*
X228429Y391240D01*
X228177Y391615D01*
X227825Y391940D01*
X227373Y392215D01*
X226819Y392440D01*
X226165Y392615D01*
X225411Y392740D01*
X224555Y392815D01*
X223680Y392838D01*
X222804Y392815D01*
X221949Y392740D01*
X221194Y392615D01*
X220540Y392440D01*
X219987Y392215D01*
X219534Y391940D01*
X219182Y391615D01*
X218930Y391240D01*
X218780Y390815D01*
X218729Y390340D01*
Y400340D01*
X218780Y399865D01*
X218930Y399440D01*
X219182Y399065D01*
X219534Y398740D01*
X219987Y398465D01*
X220540Y398240D01*
X221194Y398065D01*
X221949Y397940D01*
X222804Y397865D01*
X223680Y397842D01*
X224555Y397865D01*
X225411Y397940D01*
X226165Y398065D01*
X226819Y398240D01*
X227373Y398465D01*
X227825Y398740D01*
X228177Y399065D01*
X228429Y399440D01*
X228580Y399865D01*
X228630Y400340D01*
Y390340D01*
D02*
G37*
G36*
X216965Y411480D02*
X216540Y411329D01*
X216165Y411077D01*
X215840Y410725D01*
X215565Y410272D01*
X215340Y409719D01*
X215165Y409065D01*
X215040Y408311D01*
X214965Y407455D01*
X214964Y407408D01*
X214965Y407361D01*
X215040Y406511D01*
X215165Y405761D01*
X215340Y405111D01*
X215565Y404561D01*
X215840Y404111D01*
X216165Y403761D01*
X216540Y403511D01*
X216965Y403361D01*
X217440Y403311D01*
X207440D01*
X207915Y403361D01*
X208340Y403511D01*
X208715Y403761D01*
X209040Y404111D01*
X209315Y404561D01*
X209540Y405111D01*
X209715Y405761D01*
X209840Y406511D01*
X209915Y407361D01*
X209916Y407408D01*
X209915Y407455D01*
X209840Y408311D01*
X209715Y409065D01*
X209540Y409719D01*
X209315Y410272D01*
X209040Y410725D01*
X208715Y411077D01*
X208340Y411329D01*
X207915Y411480D01*
X207440Y411530D01*
X217440D01*
X216965Y411480D01*
D02*
G37*
G36*
X277614Y401011D02*
X277773Y400319D01*
X278038Y399584D01*
X278409Y398805D01*
X278887Y397983D01*
X279470Y397117D01*
X280159Y396209D01*
X281856Y394261D01*
X282864Y393222D01*
X281096Y387919D01*
X280424Y388566D01*
X279293Y389503D01*
X278834Y389792D01*
X278445Y389962D01*
X278126Y390012D01*
X277879Y389943D01*
X277702Y389755D01*
X277596Y389448D01*
X277561Y389021D01*
Y401660D01*
X277614Y401011D01*
D02*
G37*
G36*
X137571Y392800D02*
X137545Y393041D01*
X137468Y393257D01*
X137340Y393448D01*
X137160Y393613D01*
X136929Y393753D01*
X136646Y393867D01*
X136312Y393956D01*
X135926Y394019D01*
X135489Y394057D01*
X135001Y394070D01*
Y396610D01*
X135489Y396623D01*
X135926Y396661D01*
X136312Y396724D01*
X136646Y396813D01*
X136929Y396928D01*
X137160Y397067D01*
X137340Y397232D01*
X137468Y397423D01*
X137545Y397639D01*
X137571Y397880D01*
Y392800D01*
D02*
G37*
G36*
X296019Y398825D02*
X295803Y398748D01*
X295613Y398620D01*
X295447Y398440D01*
X295308Y398208D01*
X295193Y397926D01*
X295105Y397592D01*
X295041Y397206D01*
X295003Y396769D01*
X294990Y396281D01*
X292450D01*
X292437Y396769D01*
X292399Y397206D01*
X292336Y397592D01*
X292247Y397926D01*
X292133Y398208D01*
X291993Y398440D01*
X291828Y398620D01*
X291637Y398748D01*
X291422Y398825D01*
X291180Y398851D01*
X296260D01*
X296019Y398825D01*
D02*
G37*
G36*
X244559Y414732D02*
X244613Y414373D01*
X244702Y414014D01*
X244828Y413655D01*
X244990Y413296D01*
X245187Y412936D01*
X245421Y412577D01*
X245690Y412218D01*
X245996Y411859D01*
X246337Y411500D01*
Y407907D01*
X245996Y408245D01*
X244702Y409364D01*
X244613Y409399D01*
X244559Y409392D01*
X244541Y409341D01*
Y415092D01*
X244559Y414732D01*
D02*
G37*
G36*
X277586Y417959D02*
X277662Y417743D01*
X277789Y417552D01*
X277967Y417387D01*
X278196Y417248D01*
X278475Y417133D01*
X278805Y417044D01*
X279186Y416981D01*
X279618Y416943D01*
X280101Y416930D01*
Y414390D01*
X279618Y414377D01*
X279186Y414339D01*
X278805Y414276D01*
X278475Y414187D01*
X278196Y414073D01*
X277967Y413933D01*
X277789Y413768D01*
X277662Y413577D01*
X277586Y413361D01*
X277561Y413120D01*
Y418200D01*
X277586Y417959D01*
D02*
G37*
G36*
X457980Y428730D02*
X458280Y428480D01*
X458780Y428260D01*
X459480Y428069D01*
X460380Y427907D01*
X461480Y427775D01*
X464280Y427599D01*
X467880Y427540D01*
Y417540D01*
X465980Y417525D01*
X460380Y417173D01*
X459480Y417011D01*
X458780Y416820D01*
X458280Y416600D01*
X457980Y416350D01*
X457880Y416071D01*
Y429010D01*
X457980Y428730D01*
D02*
G37*
G36*
X71789Y411170D02*
X70515Y409711D01*
X69998Y409019D01*
X69560Y408353D01*
X69202Y407712D01*
X68923Y407096D01*
X68724Y406506D01*
X68605Y405941D01*
X68565Y405402D01*
X66025D01*
X65985Y405941D01*
X65866Y406506D01*
X65667Y407096D01*
X65388Y407712D01*
X65030Y408353D01*
X64592Y409019D01*
X64075Y409711D01*
X62801Y411170D01*
X62045Y411937D01*
X72545D01*
X71789Y411170D01*
D02*
G37*
G36*
X602903Y410431D02*
X602235Y409750D01*
X600269Y407462D01*
X599954Y406999D01*
X599709Y406580D01*
X599536Y406205D01*
X599432Y405873D01*
X599400Y405585D01*
X590985Y414000D01*
X591273Y414032D01*
X591605Y414136D01*
X591980Y414309D01*
X592399Y414554D01*
X592862Y414869D01*
X593368Y415254D01*
X594512Y416237D01*
X595831Y417502D01*
X602903Y410431D01*
D02*
G37*
G36*
X44194Y409799D02*
X43978Y409722D01*
X43787Y409595D01*
X43622Y409418D01*
X43482Y409189D01*
X43368Y408910D01*
X43279Y408579D01*
X43216Y408198D01*
X43177Y407767D01*
X43165Y407284D01*
X40625D01*
X40612Y407767D01*
X40574Y408198D01*
X40511Y408579D01*
X40422Y408910D01*
X40307Y409189D01*
X40168Y409418D01*
X40002Y409595D01*
X39812Y409722D01*
X39596Y409799D01*
X39355Y409824D01*
X44435D01*
X44194Y409799D01*
D02*
G37*
G36*
X143619Y343305D02*
X143403Y343228D01*
X143212Y343100D01*
X143047Y342920D01*
X142908Y342688D01*
X142793Y342406D01*
X142704Y342071D01*
X142641Y341686D01*
X142603Y341249D01*
X142590Y340760D01*
X140050D01*
X140037Y341249D01*
X139999Y341686D01*
X139936Y342071D01*
X139847Y342406D01*
X139733Y342688D01*
X139593Y342920D01*
X139428Y343100D01*
X139237Y343228D01*
X139022Y343305D01*
X138780Y343331D01*
X143860D01*
X143619Y343305D01*
D02*
G37*
G36*
X470531Y253100D02*
X470505Y253341D01*
X470428Y253557D01*
X470300Y253748D01*
X470120Y253913D01*
X469889Y254053D01*
X469606Y254167D01*
X469272Y254256D01*
X468886Y254319D01*
X468449Y254357D01*
X467961Y254370D01*
Y256910D01*
X468449Y256923D01*
X468886Y256961D01*
X469272Y257024D01*
X469606Y257113D01*
X469889Y257228D01*
X470120Y257367D01*
X470300Y257532D01*
X470428Y257723D01*
X470505Y257939D01*
X470531Y258180D01*
Y253100D01*
D02*
G37*
G36*
X131168Y256043D02*
X131193Y255753D01*
X131235Y255478D01*
X131293Y255218D01*
X131368Y254973D01*
X131459Y254743D01*
X131567Y254528D01*
X131691Y254328D01*
X131833Y254143D01*
X131990Y253972D01*
X127790D01*
X127948Y254143D01*
X128089Y254328D01*
X128214Y254528D01*
X128321Y254743D01*
X128413Y254973D01*
X128487Y255218D01*
X128546Y255478D01*
X128587Y255753D01*
X128612Y256043D01*
X128620Y256348D01*
X131160D01*
X131168Y256043D01*
D02*
G37*
G36*
X317859Y259853D02*
X317883Y259563D01*
X317925Y259288D01*
X317983Y259028D01*
X318058Y258783D01*
X318149Y258553D01*
X318257Y258338D01*
X318381Y258138D01*
X318522Y257953D01*
X318680Y257782D01*
X314480D01*
X314638Y257953D01*
X314779Y258138D01*
X314904Y258338D01*
X315011Y258553D01*
X315103Y258783D01*
X315177Y259028D01*
X315236Y259288D01*
X315277Y259563D01*
X315302Y259853D01*
X315310Y260158D01*
X317850D01*
X317859Y259853D01*
D02*
G37*
G36*
X253044Y254480D02*
X253292Y250113D01*
X253359Y249804D01*
X253433Y249575D01*
X247647D01*
X247722Y249804D01*
X247789Y250113D01*
X247848Y250500D01*
X247942Y251511D01*
X248025Y253619D01*
X248040Y255420D01*
X253040D01*
X253044Y254480D01*
D02*
G37*
G36*
X753039Y264185D02*
X753541Y263974D01*
X754176Y263788D01*
X754945Y263627D01*
X755846Y263490D01*
X758048Y263292D01*
X760783Y263193D01*
X762350Y263180D01*
Y253180D01*
X760783Y253168D01*
X754945Y252733D01*
X754176Y252572D01*
X753541Y252386D01*
X753039Y252175D01*
X752670Y251939D01*
Y264421D01*
X753039Y264185D01*
D02*
G37*
G36*
X430435Y257939D02*
X430512Y257723D01*
X430641Y257532D01*
X430821Y257367D01*
X431052Y257228D01*
X431335Y257113D01*
X431669Y257024D01*
X432054Y256961D01*
X432491Y256923D01*
X432980Y256910D01*
Y254370D01*
X432491Y254357D01*
X432054Y254319D01*
X431669Y254256D01*
X431335Y254167D01*
X431052Y254053D01*
X430821Y253913D01*
X430641Y253748D01*
X430512Y253557D01*
X430435Y253341D01*
X430409Y253100D01*
Y258180D01*
X430435Y257939D01*
D02*
G37*
G36*
X651585Y271314D02*
X651690Y270119D01*
X651865Y269064D01*
X652110Y268150D01*
X652425Y267377D01*
X652810Y266744D01*
X653265Y266252D01*
X653790Y265900D01*
X654385Y265689D01*
X655050Y265619D01*
X641050D01*
X641715Y265689D01*
X642310Y265900D01*
X642835Y266252D01*
X643290Y266744D01*
X643675Y267377D01*
X643990Y268150D01*
X644235Y269064D01*
X644410Y270119D01*
X644515Y271314D01*
X644550Y272650D01*
X651550D01*
X651585Y271314D01*
D02*
G37*
G36*
X740730Y273780D02*
X740880Y272075D01*
X741130Y270570D01*
X741480Y269266D01*
X741930Y268163D01*
X742480Y267260D01*
X743130Y266558D01*
X743880Y266056D01*
X744730Y265756D01*
X745680Y265655D01*
X725680D01*
X726630Y265756D01*
X727480Y266056D01*
X728230Y266558D01*
X728880Y267260D01*
X729430Y268163D01*
X729880Y269266D01*
X730230Y270570D01*
X730480Y272075D01*
X730630Y273780D01*
X730680Y275686D01*
X740680D01*
X740730Y273780D01*
D02*
G37*
G36*
X324576Y273179D02*
X324652Y272963D01*
X324779Y272772D01*
X324957Y272607D01*
X325186Y272468D01*
X325465Y272353D01*
X325795Y272264D01*
X326176Y272201D01*
X326608Y272163D01*
X327091Y272150D01*
Y269610D01*
X326608Y269597D01*
X326176Y269559D01*
X325795Y269496D01*
X325465Y269407D01*
X325186Y269293D01*
X324957Y269153D01*
X324779Y268988D01*
X324652Y268797D01*
X324576Y268581D01*
X324551Y268340D01*
Y273420D01*
X324576Y273179D01*
D02*
G37*
G36*
X318879Y264565D02*
X318663Y264488D01*
X318472Y264360D01*
X318307Y264180D01*
X318168Y263948D01*
X318053Y263666D01*
X317964Y263332D01*
X317901Y262946D01*
X317863Y262509D01*
X317850Y262021D01*
X315310D01*
X315298Y262509D01*
X315259Y262946D01*
X315196Y263332D01*
X315107Y263666D01*
X314993Y263948D01*
X314853Y264180D01*
X314688Y264360D01*
X314497Y264488D01*
X314282Y264565D01*
X314040Y264591D01*
X319120D01*
X318879Y264565D01*
D02*
G37*
G36*
X164190Y274700D02*
X164171Y274545D01*
X164154Y274288D01*
X164100Y269610D01*
X164211Y264469D01*
X153990D01*
X154011Y264520D01*
X154030Y264675D01*
X154046Y264932D01*
X154100Y269610D01*
X153990Y274751D01*
X164211D01*
X164190Y274700D01*
D02*
G37*
G36*
X188323Y266551D02*
X188361Y266114D01*
X188424Y265729D01*
X188513Y265394D01*
X188628Y265112D01*
X188767Y264880D01*
X188932Y264700D01*
X189123Y264572D01*
X189339Y264495D01*
X189580Y264469D01*
X184500D01*
X184741Y264495D01*
X184957Y264572D01*
X185148Y264700D01*
X185313Y264880D01*
X185453Y265112D01*
X185567Y265394D01*
X185656Y265729D01*
X185719Y266114D01*
X185758Y266551D01*
X185770Y267040D01*
X188310D01*
X188323Y266551D01*
D02*
G37*
G36*
X395825Y246729D02*
X395313Y246199D01*
X394451Y245193D01*
X394101Y244717D01*
X393804Y244259D01*
X393562Y243819D01*
X393373Y243397D01*
X393238Y242993D01*
X393158Y242607D01*
X393131Y242239D01*
Y249423D01*
X393149Y249099D01*
X393203Y248848D01*
X393292Y248668D01*
X393418Y248561D01*
X393580Y248525D01*
X393777Y248561D01*
X394011Y248668D01*
X394280Y248848D01*
X394585Y249099D01*
X394927Y249423D01*
X395825Y246729D01*
D02*
G37*
G36*
X240119Y234214D02*
X239907Y234104D01*
X239721Y233920D01*
X239559Y233662D01*
X239422Y233331D01*
X239310Y232926D01*
X239222Y232448D01*
X239160Y231896D01*
X239123Y231271D01*
X239110Y230572D01*
X236570D01*
X236558Y231271D01*
X236458Y232448D01*
X236371Y232926D01*
X236259Y233331D01*
X236122Y233662D01*
X235960Y233920D01*
X235773Y234104D01*
X235561Y234214D01*
X235324Y234251D01*
X240356D01*
X240119Y234214D01*
D02*
G37*
G36*
X265519D02*
X265308Y234104D01*
X265121Y233920D01*
X264959Y233662D01*
X264822Y233331D01*
X264710Y232926D01*
X264622Y232448D01*
X264560Y231896D01*
X264523Y231271D01*
X264510Y230572D01*
X261970D01*
X261958Y231271D01*
X261858Y232448D01*
X261771Y232926D01*
X261659Y233331D01*
X261522Y233662D01*
X261360Y233920D01*
X261173Y234104D01*
X260961Y234214D01*
X260724Y234251D01*
X265756D01*
X265519Y234214D01*
D02*
G37*
G36*
X278219D02*
X278008Y234104D01*
X277821Y233920D01*
X277659Y233662D01*
X277522Y233331D01*
X277410Y232926D01*
X277322Y232448D01*
X277260Y231896D01*
X277223Y231271D01*
X277210Y230572D01*
X274670D01*
X274658Y231271D01*
X274558Y232448D01*
X274471Y232926D01*
X274359Y233331D01*
X274222Y233662D01*
X274060Y233920D01*
X273873Y234104D01*
X273661Y234214D01*
X273424Y234251D01*
X278456D01*
X278219Y234214D01*
D02*
G37*
G36*
X161399Y231545D02*
X161183Y231468D01*
X160993Y231340D01*
X160827Y231160D01*
X160688Y230928D01*
X160573Y230646D01*
X160485Y230312D01*
X160421Y229926D01*
X160383Y229489D01*
X160370Y229000D01*
X157830D01*
X157817Y229489D01*
X157779Y229926D01*
X157716Y230312D01*
X157627Y230646D01*
X157513Y230928D01*
X157373Y231160D01*
X157208Y231340D01*
X157017Y231468D01*
X156802Y231545D01*
X156560Y231571D01*
X161640D01*
X161399Y231545D01*
D02*
G37*
G36*
X214719Y234214D02*
X214508Y234104D01*
X214321Y233920D01*
X214159Y233662D01*
X214022Y233331D01*
X213910Y232926D01*
X213822Y232448D01*
X213760Y231896D01*
X213723Y231271D01*
X213710Y230572D01*
X211170D01*
X211158Y231271D01*
X211058Y232448D01*
X210971Y232926D01*
X210859Y233331D01*
X210722Y233662D01*
X210560Y233920D01*
X210373Y234104D01*
X210161Y234214D01*
X209924Y234251D01*
X214956D01*
X214719Y234214D01*
D02*
G37*
G36*
X227419D02*
X227208Y234104D01*
X227021Y233920D01*
X226859Y233662D01*
X226722Y233331D01*
X226610Y232926D01*
X226522Y232448D01*
X226460Y231896D01*
X226423Y231271D01*
X226410Y230572D01*
X223870D01*
X223858Y231271D01*
X223758Y232448D01*
X223671Y232926D01*
X223559Y233331D01*
X223422Y233662D01*
X223260Y233920D01*
X223073Y234104D01*
X222861Y234214D01*
X222624Y234251D01*
X227656D01*
X227419Y234214D01*
D02*
G37*
G36*
X654385Y250641D02*
X653790Y250431D01*
X653265Y250081D01*
X652810Y249590D01*
X652425Y248960D01*
X652110Y248190D01*
X651865Y247281D01*
X651690Y246231D01*
X651585Y245040D01*
X651550Y243710D01*
X644550D01*
X644515Y245040D01*
X644410Y246231D01*
X644235Y247281D01*
X643990Y248190D01*
X643675Y248960D01*
X643290Y249590D01*
X642835Y250081D01*
X642310Y250431D01*
X641715Y250641D01*
X641050Y250711D01*
X655050D01*
X654385Y250641D01*
D02*
G37*
G36*
X740838Y250653D02*
X740805Y250496D01*
X740776Y250235D01*
X740729Y249399D01*
X740680Y245480D01*
X730680D01*
X730486Y250705D01*
X740875D01*
X740838Y250653D01*
D02*
G37*
G36*
X497807Y252899D02*
X497769Y252638D01*
X497793Y252348D01*
X497881Y252031D01*
X498032Y251685D01*
X498247Y251312D01*
X498524Y250911D01*
X498865Y250482D01*
X499269Y250025D01*
X499736Y249541D01*
X498810Y246875D01*
X498247Y247419D01*
X497258Y248267D01*
X496831Y248571D01*
X496449Y248794D01*
X496113Y248936D01*
X495821Y248998D01*
X495575Y248979D01*
X495374Y248881D01*
X495218Y248701D01*
X497909Y253133D01*
X497807Y252899D01*
D02*
G37*
G36*
X290919Y234214D02*
X290707Y234104D01*
X290521Y233920D01*
X290359Y233662D01*
X290222Y233331D01*
X290110Y232926D01*
X290022Y232448D01*
X289960Y231896D01*
X289923Y231271D01*
X289910Y230572D01*
X287370D01*
X287358Y231271D01*
X287258Y232448D01*
X287171Y232926D01*
X287059Y233331D01*
X286922Y233662D01*
X286760Y233920D01*
X286573Y234104D01*
X286361Y234214D01*
X286124Y234251D01*
X291156D01*
X290919Y234214D01*
D02*
G37*
G36*
X167066Y240159D02*
X167143Y239943D01*
X167272Y239752D01*
X167451Y239587D01*
X167683Y239447D01*
X167966Y239333D01*
X168300Y239244D01*
X168685Y239181D01*
X169122Y239143D01*
X169611Y239130D01*
Y236590D01*
X169122Y236577D01*
X168685Y236539D01*
X168300Y236476D01*
X167966Y236387D01*
X167683Y236273D01*
X167451Y236133D01*
X167272Y235968D01*
X167143Y235777D01*
X167066Y235561D01*
X167040Y235320D01*
Y240400D01*
X167066Y240159D01*
D02*
G37*
G36*
X179070Y235320D02*
X179044Y235561D01*
X178968Y235777D01*
X178841Y235968D01*
X178663Y236133D01*
X178435Y236273D01*
X178155Y236387D01*
X177825Y236476D01*
X177444Y236539D01*
X177012Y236577D01*
X176530Y236590D01*
Y239130D01*
X177012Y239143D01*
X177444Y239181D01*
X177825Y239244D01*
X178155Y239333D01*
X178435Y239447D01*
X178663Y239587D01*
X178841Y239752D01*
X178968Y239943D01*
X179044Y240159D01*
X179070Y240400D01*
Y235320D01*
D02*
G37*
G36*
X161042Y311747D02*
X160901Y311562D01*
X160777Y311362D01*
X160669Y311147D01*
X160578Y310917D01*
X160503Y310672D01*
X160445Y310412D01*
X160403Y310137D01*
X160380Y309859D01*
X160383Y309731D01*
X160421Y309294D01*
X160485Y308909D01*
X160573Y308575D01*
X160688Y308292D01*
X160827Y308060D01*
X160993Y307880D01*
X161183Y307752D01*
X161399Y307675D01*
X161640Y307649D01*
X156560D01*
X156802Y307675D01*
X157017Y307752D01*
X157208Y307880D01*
X157373Y308060D01*
X157513Y308292D01*
X157627Y308575D01*
X157716Y308909D01*
X157779Y309294D01*
X157817Y309731D01*
X157821Y309859D01*
X157797Y310137D01*
X157755Y310412D01*
X157697Y310672D01*
X157623Y310917D01*
X157531Y311147D01*
X157423Y311362D01*
X157299Y311562D01*
X157158Y311747D01*
X157000Y311918D01*
X161200D01*
X161042Y311747D01*
D02*
G37*
G36*
X721870Y321766D02*
X721020Y321465D01*
X720270Y320963D01*
X719620Y320261D01*
X719070Y319358D01*
X718620Y318255D01*
X718270Y316951D01*
X718020Y315446D01*
X717870Y313741D01*
X717820Y311835D01*
X707820D01*
X707770Y313741D01*
X707620Y315446D01*
X707370Y316951D01*
X707020Y318255D01*
X706570Y319358D01*
X706020Y320261D01*
X705370Y320963D01*
X704620Y321465D01*
X703770Y321766D01*
X702820Y321866D01*
X722820D01*
X721870Y321766D01*
D02*
G37*
G36*
X289971Y314060D02*
X289946Y314301D01*
X289868Y314517D01*
X289740Y314708D01*
X289560Y314873D01*
X289329Y315013D01*
X289046Y315127D01*
X288712Y315216D01*
X288326Y315279D01*
X287889Y315317D01*
X287401Y315330D01*
Y317870D01*
X287889Y317883D01*
X288326Y317921D01*
X288712Y317984D01*
X289046Y318073D01*
X289329Y318188D01*
X289560Y318327D01*
X289740Y318492D01*
X289868Y318683D01*
X289946Y318899D01*
X289971Y319140D01*
Y314060D01*
D02*
G37*
G36*
X181171Y309043D02*
X182010Y308345D01*
X182400Y308079D01*
X182769Y307869D01*
X183118Y307714D01*
X183447Y307614D01*
X183756Y307571D01*
X184044Y307582D01*
X184313Y307649D01*
X179100Y305739D01*
X179314Y305860D01*
X179441Y306034D01*
X179478Y306261D01*
X179428Y306541D01*
X179289Y306873D01*
X179063Y307259D01*
X178748Y307698D01*
X178345Y308189D01*
X177274Y309331D01*
X180721Y309476D01*
X181171Y309043D01*
D02*
G37*
G36*
X153231Y309043D02*
X154070Y308345D01*
X154459Y308079D01*
X154829Y307869D01*
X155178Y307714D01*
X155507Y307615D01*
X155816Y307571D01*
X156104Y307582D01*
X156373Y307649D01*
X151160Y305739D01*
X151375Y305860D01*
X151501Y306034D01*
X151538Y306261D01*
X151488Y306541D01*
X151349Y306873D01*
X151123Y307259D01*
X150808Y307698D01*
X150405Y308189D01*
X149334Y309331D01*
X152781Y309476D01*
X153231Y309043D01*
D02*
G37*
G36*
X318879Y308634D02*
X318663Y308557D01*
X318472Y308429D01*
X318307Y308249D01*
X318168Y308017D01*
X318053Y307735D01*
X317964Y307400D01*
X317901Y307015D01*
X317863Y306578D01*
X317850Y306089D01*
X315310D01*
X315298Y306578D01*
X315259Y307015D01*
X315196Y307400D01*
X315107Y307735D01*
X314993Y308017D01*
X314853Y308249D01*
X314688Y308429D01*
X314497Y308557D01*
X314282Y308634D01*
X314040Y308660D01*
X319120D01*
X318879Y308634D01*
D02*
G37*
G36*
X193398Y339863D02*
X193423Y339573D01*
X193465Y339298D01*
X193523Y339038D01*
X193598Y338793D01*
X193689Y338563D01*
X193797Y338348D01*
X193921Y338148D01*
X194062Y337963D01*
X194220Y337793D01*
X190020D01*
X190178Y337963D01*
X190319Y338148D01*
X190443Y338348D01*
X190551Y338563D01*
X190643Y338793D01*
X190717Y339038D01*
X190776Y339298D01*
X190817Y339573D01*
X190842Y339863D01*
X190850Y340168D01*
X193390D01*
X193398Y339863D01*
D02*
G37*
G36*
X244198D02*
X244223Y339573D01*
X244265Y339298D01*
X244323Y339038D01*
X244398Y338793D01*
X244489Y338563D01*
X244597Y338348D01*
X244721Y338148D01*
X244862Y337963D01*
X245020Y337793D01*
X240820D01*
X240978Y337963D01*
X241119Y338148D01*
X241243Y338348D01*
X241351Y338563D01*
X241443Y338793D01*
X241517Y339038D01*
X241576Y339298D01*
X241617Y339573D01*
X241642Y339863D01*
X241650Y340168D01*
X244190D01*
X244198Y339863D01*
D02*
G37*
G36*
X222045Y343281D02*
X221620Y343130D01*
X221245Y342878D01*
X220920Y342526D01*
X220645Y342073D01*
X220420Y341520D01*
X220245Y340866D01*
X220120Y340112D01*
X220045Y339256D01*
X220020Y338301D01*
X215020D01*
X214995Y339256D01*
X214920Y340112D01*
X214795Y340866D01*
X214620Y341520D01*
X214395Y342073D01*
X214120Y342526D01*
X213795Y342878D01*
X213420Y343130D01*
X212995Y343281D01*
X212520Y343331D01*
X222520D01*
X222045Y343281D01*
D02*
G37*
G36*
X665815Y326086D02*
X665220Y325876D01*
X664695Y325526D01*
X664240Y325036D01*
X663855Y324406D01*
X663540Y323635D01*
X663295Y322725D01*
X663120Y321675D01*
X663015Y320485D01*
X662980Y319156D01*
X655980D01*
X655945Y320485D01*
X655840Y321675D01*
X655665Y322725D01*
X655420Y323635D01*
X655105Y324406D01*
X654720Y325036D01*
X654265Y325526D01*
X653740Y325876D01*
X653145Y326086D01*
X652480Y326156D01*
X666480D01*
X665815Y326086D01*
D02*
G37*
G36*
X295003Y326628D02*
X295041Y326196D01*
X295105Y325815D01*
X295193Y325485D01*
X295308Y325206D01*
X295447Y324977D01*
X295613Y324799D01*
X295803Y324672D01*
X296019Y324596D01*
X296260Y324571D01*
X291180D01*
X291422Y324596D01*
X291637Y324672D01*
X291828Y324799D01*
X291993Y324977D01*
X292133Y325206D01*
X292247Y325485D01*
X292336Y325815D01*
X292399Y326196D01*
X292437Y326628D01*
X292450Y327111D01*
X294990D01*
X295003Y326628D01*
D02*
G37*
G36*
X142598Y339863D02*
X142623Y339573D01*
X142665Y339298D01*
X142723Y339038D01*
X142798Y338793D01*
X142889Y338563D01*
X142997Y338348D01*
X143121Y338148D01*
X143263Y337963D01*
X143420Y337793D01*
X139220D01*
X139378Y337963D01*
X139519Y338148D01*
X139643Y338348D01*
X139751Y338563D01*
X139843Y338793D01*
X139917Y339038D01*
X139976Y339298D01*
X140017Y339573D01*
X140042Y339863D01*
X140050Y340168D01*
X142590D01*
X142598Y339863D01*
D02*
G37*
G36*
X151160Y298820D02*
X151135Y299061D01*
X151057Y299277D01*
X150929Y299468D01*
X150749Y299633D01*
X150518Y299773D01*
X150235Y299887D01*
X149901Y299976D01*
X149515Y300039D01*
X149078Y300077D01*
X148590Y300090D01*
Y302630D01*
X149078Y302643D01*
X149515Y302681D01*
X149901Y302744D01*
X150235Y302833D01*
X150518Y302948D01*
X150749Y303087D01*
X150929Y303252D01*
X151057Y303443D01*
X151135Y303659D01*
X151160Y303900D01*
Y298820D01*
D02*
G37*
G36*
X481680Y390260D02*
Y311520D01*
Y283580D01*
X474060Y275960D01*
X382620D01*
X377540Y281040D01*
Y283580D01*
Y308980D01*
X380080Y311520D01*
X387700Y319140D01*
X400400D01*
X405480Y324220D01*
X418180Y336920D01*
Y349620D01*
X423260Y354700D01*
Y382640D01*
Y397880D01*
X425800Y400420D01*
X471520D01*
X481680Y390260D01*
D02*
G37*
G36*
X291631Y291599D02*
X291708Y291383D01*
X291836Y291192D01*
X292016Y291027D01*
X292248Y290888D01*
X292530Y290773D01*
X292864Y290684D01*
X293250Y290621D01*
X293687Y290583D01*
X294175Y290570D01*
Y288030D01*
X293687Y288017D01*
X293250Y287979D01*
X292864Y287916D01*
X292530Y287827D01*
X292248Y287713D01*
X292016Y287573D01*
X291836Y287408D01*
X291708Y287217D01*
X291631Y287001D01*
X291605Y286760D01*
Y291840D01*
X291631Y291599D01*
D02*
G37*
G36*
X308640Y286760D02*
X308615Y287001D01*
X308537Y287217D01*
X308409Y287408D01*
X308229Y287573D01*
X307998Y287713D01*
X307715Y287827D01*
X307381Y287916D01*
X306995Y287979D01*
X306558Y288017D01*
X306070Y288030D01*
Y290570D01*
X306558Y290583D01*
X306995Y290621D01*
X307381Y290684D01*
X307715Y290773D01*
X307998Y290888D01*
X308229Y291027D01*
X308409Y291192D01*
X308537Y291383D01*
X308615Y291599D01*
X308640Y291840D01*
Y286760D01*
D02*
G37*
G36*
X334040Y268340D02*
X334015Y268581D01*
X333937Y268797D01*
X333809Y268988D01*
X333629Y269153D01*
X333398Y269293D01*
X333115Y269407D01*
X332781Y269496D01*
X332395Y269559D01*
X331958Y269597D01*
X331470Y269610D01*
Y272150D01*
X331958Y272163D01*
X332395Y272201D01*
X332781Y272264D01*
X333115Y272353D01*
X333398Y272468D01*
X333629Y272607D01*
X333809Y272772D01*
X333937Y272963D01*
X334015Y273179D01*
X334040Y273420D01*
Y268340D01*
D02*
G37*
G36*
X189339Y274725D02*
X189123Y274648D01*
X188932Y274520D01*
X188767Y274340D01*
X188628Y274108D01*
X188513Y273826D01*
X188424Y273491D01*
X188361Y273106D01*
X188323Y272669D01*
X188310Y272181D01*
X185770D01*
X185758Y272669D01*
X185719Y273106D01*
X185656Y273491D01*
X185567Y273826D01*
X185453Y274108D01*
X185313Y274340D01*
X185148Y274520D01*
X184957Y274648D01*
X184741Y274725D01*
X184500Y274751D01*
X189580D01*
X189339Y274725D01*
D02*
G37*
G36*
X194998Y282658D02*
X195053Y282303D01*
X195145Y281947D01*
X195273Y281589D01*
X195437Y281231D01*
X195638Y280871D01*
X195875Y280510D01*
X196149Y280148D01*
X196460Y279784D01*
X196807Y279419D01*
Y275827D01*
X196460Y276156D01*
X196149Y276412D01*
X195875Y276595D01*
X195638Y276704D01*
X195437Y276741D01*
X195273Y276704D01*
X195145Y276595D01*
X195053Y276412D01*
X194998Y276156D01*
X194980Y275827D01*
Y283012D01*
X194998Y282658D01*
D02*
G37*
G36*
X264523Y300329D02*
X264622Y299152D01*
X264710Y298674D01*
X264822Y298269D01*
X264959Y297938D01*
X265121Y297680D01*
X265308Y297496D01*
X265519Y297386D01*
X265756Y297349D01*
X260724D01*
X260961Y297386D01*
X261173Y297496D01*
X261360Y297680D01*
X261522Y297938D01*
X261659Y298269D01*
X261771Y298674D01*
X261858Y299152D01*
X261920Y299704D01*
X261958Y300329D01*
X261970Y301028D01*
X264510D01*
X264523Y300329D01*
D02*
G37*
G36*
X277223D02*
X277322Y299152D01*
X277410Y298674D01*
X277522Y298269D01*
X277659Y297938D01*
X277821Y297680D01*
X278008Y297496D01*
X278219Y297386D01*
X278456Y297349D01*
X273424D01*
X273661Y297386D01*
X273873Y297496D01*
X274060Y297680D01*
X274222Y297938D01*
X274359Y298269D01*
X274471Y298674D01*
X274558Y299152D01*
X274620Y299704D01*
X274658Y300329D01*
X274670Y301028D01*
X277210D01*
X277223Y300329D01*
D02*
G37*
G36*
X317863Y299571D02*
X317901Y299134D01*
X317964Y298749D01*
X318053Y298414D01*
X318168Y298132D01*
X318307Y297900D01*
X318472Y297721D01*
X318663Y297592D01*
X318879Y297515D01*
X319120Y297489D01*
X314040D01*
X314282Y297515D01*
X314497Y297592D01*
X314688Y297721D01*
X314853Y297900D01*
X314993Y298132D01*
X315107Y298414D01*
X315196Y298749D01*
X315259Y299134D01*
X315298Y299571D01*
X315310Y300060D01*
X317850D01*
X317863Y299571D01*
D02*
G37*
G36*
X209476Y287845D02*
X209461Y287880D01*
X209416Y287912D01*
X209342Y287939D01*
X209238Y287964D01*
X209104Y287984D01*
X208748Y288013D01*
X207990Y288030D01*
Y290570D01*
X208272Y290572D01*
X209238Y290637D01*
X209342Y290661D01*
X209416Y290688D01*
X209461Y290720D01*
X209476Y290755D01*
Y287845D01*
D02*
G37*
G36*
X338544Y305551D02*
X344915Y299999D01*
X346182Y299106D01*
X347320Y298412D01*
X348327Y297916D01*
X349204Y297619D01*
X349951Y297520D01*
X334040Y290220D01*
X334694Y290641D01*
X335102Y291195D01*
X335266Y291880D01*
X335185Y292697D01*
X334859Y293646D01*
X334287Y294726D01*
X333472Y295938D01*
X332411Y297282D01*
X331105Y298757D01*
X329555Y300364D01*
X336626Y307436D01*
X338544Y305551D01*
D02*
G37*
G36*
X253081Y297317D02*
X247999D01*
X248007Y297357D01*
X248014Y297479D01*
X248040Y301360D01*
X253040D01*
X253081Y297317D01*
D02*
G37*
G36*
X736121Y-249699D02*
X736070Y-249468D01*
X735920Y-249261D01*
X735670Y-249078D01*
X735321Y-248919D01*
X734871Y-248785D01*
X734321Y-248675D01*
X733671Y-248590D01*
X732070Y-248492D01*
X731121Y-248480D01*
Y-243480D01*
X732070Y-243468D01*
X734321Y-243285D01*
X734871Y-243175D01*
X735321Y-243041D01*
X735670Y-242882D01*
X735920Y-242700D01*
X736070Y-242492D01*
X736121Y-242260D01*
Y-249699D01*
D02*
G37*
G36*
X721210Y-252704D02*
X721021Y-252909D01*
X720852Y-253124D01*
X720704Y-253351D01*
X720575Y-253588D01*
X720467Y-253836D01*
X720379Y-254095D01*
X720312Y-254365D01*
X720264Y-254646D01*
X720237Y-254937D01*
X720230Y-255240D01*
X717260Y-252270D01*
X717563Y-252263D01*
X717854Y-252236D01*
X718135Y-252188D01*
X718405Y-252121D01*
X718664Y-252033D01*
X718912Y-251925D01*
X719149Y-251796D01*
X719376Y-251648D01*
X719591Y-251479D01*
X719796Y-251290D01*
X721210Y-252704D01*
D02*
G37*
G36*
X674680Y-247972D02*
X674413Y-247784D01*
X674134Y-247615D01*
X673845Y-247466D01*
X673544Y-247337D01*
X673233Y-247228D01*
X672910Y-247139D01*
X672577Y-247069D01*
X672232Y-247020D01*
X671877Y-246990D01*
X671510Y-246980D01*
Y-244980D01*
X671877Y-244970D01*
X672232Y-244940D01*
X672577Y-244891D01*
X672910Y-244821D01*
X673233Y-244732D01*
X673544Y-244623D01*
X673845Y-244494D01*
X674134Y-244345D01*
X674413Y-244176D01*
X674680Y-243988D01*
Y-247972D01*
D02*
G37*
G36*
X691570Y-240646D02*
X691600Y-240991D01*
X691650Y-241296D01*
X691720Y-241560D01*
X691810Y-241783D01*
X691920Y-241966D01*
X692050Y-242108D01*
X692200Y-242210D01*
X692370Y-242271D01*
X692560Y-242291D01*
X688560D01*
X688750Y-242271D01*
X688920Y-242210D01*
X689070Y-242108D01*
X689200Y-241966D01*
X689310Y-241783D01*
X689400Y-241560D01*
X689470Y-241296D01*
X689520Y-240991D01*
X689550Y-240646D01*
X689560Y-240261D01*
X691560D01*
X691570Y-240646D01*
D02*
G37*
G36*
X676090Y-236195D02*
X675920Y-236445D01*
X675770Y-236731D01*
X675640Y-237053D01*
X675530Y-237411D01*
X675440Y-237805D01*
X675370Y-238235D01*
X675333Y-238582D01*
X675480Y-242260D01*
X667780Y-242291D01*
X668255Y-242239D01*
X668680Y-242087D01*
X669055Y-241834D01*
X669380Y-241481D01*
X669655Y-241028D01*
X669880Y-240475D01*
X670055Y-239822D01*
X670180Y-239068D01*
X670221Y-238605D01*
X670190Y-238235D01*
X670120Y-237805D01*
X670030Y-237411D01*
X669920Y-237053D01*
X669790Y-236731D01*
X669640Y-236445D01*
X669470Y-236195D01*
X669280Y-235981D01*
X676280D01*
X676090Y-236195D01*
D02*
G37*
G36*
X689814Y-278893D02*
X691451Y-280250D01*
X692214Y-280768D01*
X692940Y-281178D01*
X693628Y-281481D01*
X694280Y-281677D01*
X694894Y-281765D01*
X695471Y-281746D01*
X696011Y-281620D01*
X685541Y-285231D01*
X685974Y-284999D01*
X686232Y-284661D01*
X686315Y-284218D01*
X686221Y-283669D01*
X685953Y-283014D01*
X685508Y-282255D01*
X684888Y-281389D01*
X684093Y-280418D01*
X681975Y-278160D01*
X688940Y-278054D01*
X689814Y-278893D01*
D02*
G37*
G36*
X138933Y-278482D02*
X139497Y-278950D01*
X140077Y-279363D01*
X140674Y-279720D01*
X141288Y-280023D01*
X141917Y-280270D01*
X142563Y-280462D01*
X143226Y-280600D01*
X143905Y-280683D01*
X144601Y-280710D01*
Y-285710D01*
X143905Y-285737D01*
X143226Y-285820D01*
X142563Y-285958D01*
X141917Y-286150D01*
X141288Y-286397D01*
X140674Y-286700D01*
X140077Y-287057D01*
X139497Y-287470D01*
X138933Y-287938D01*
X138386Y-288460D01*
Y-277960D01*
X138933Y-278482D01*
D02*
G37*
G36*
X701685Y-287050D02*
X701009Y-287761D01*
X700404Y-288472D01*
X699870Y-289181D01*
X699407Y-289889D01*
X699015Y-290597D01*
X698694Y-291304D01*
X698444Y-292009D01*
X698264Y-292714D01*
X698156Y-293418D01*
X698119Y-294121D01*
X698149Y-281590D01*
X698185Y-281920D01*
X698291Y-282141D01*
X698468Y-282253D01*
X698715Y-282256D01*
X699033Y-282150D01*
X699422Y-281934D01*
X699882Y-281609D01*
X700412Y-281175D01*
X701685Y-279979D01*
Y-287050D01*
D02*
G37*
G36*
X705541Y-262350D02*
X705574Y-262621D01*
X705629Y-262887D01*
X705706Y-263145D01*
X705805Y-263397D01*
X705926Y-263642D01*
X706069Y-263881D01*
X706234Y-264113D01*
X706421Y-264339D01*
X706630Y-264558D01*
X702430D01*
X702639Y-264339D01*
X702826Y-264113D01*
X702991Y-263881D01*
X703134Y-263642D01*
X703255Y-263397D01*
X703354Y-263145D01*
X703431Y-262887D01*
X703486Y-262621D01*
X703519Y-262350D01*
X703530Y-262072D01*
X705530D01*
X705541Y-262350D01*
D02*
G37*
G36*
X783891Y-269061D02*
X783704Y-269287D01*
X783539Y-269519D01*
X783396Y-269758D01*
X783275Y-270003D01*
X783176Y-270255D01*
X783099Y-270513D01*
X783044Y-270779D01*
X783011Y-271050D01*
X783000Y-271328D01*
X781000D01*
X780989Y-271050D01*
X780956Y-270779D01*
X780901Y-270513D01*
X780824Y-270255D01*
X780725Y-270003D01*
X780604Y-269758D01*
X780461Y-269519D01*
X780296Y-269287D01*
X780109Y-269061D01*
X779900Y-268842D01*
X784100D01*
X783891Y-269061D01*
D02*
G37*
G36*
X740400Y-217288D02*
X740230Y-217349D01*
X740080Y-217451D01*
X739950Y-217593D01*
X739840Y-217776D01*
X739750Y-217999D01*
X739680Y-218263D01*
X739630Y-218568D01*
X739600Y-218913D01*
X739590Y-219298D01*
X737590D01*
X737580Y-218913D01*
X737550Y-218568D01*
X737500Y-218263D01*
X737430Y-217999D01*
X737340Y-217776D01*
X737230Y-217593D01*
X737100Y-217451D01*
X736950Y-217349D01*
X736780Y-217288D01*
X736590Y-217268D01*
X740590D01*
X740400Y-217288D01*
D02*
G37*
G36*
X679900D02*
X679730Y-217349D01*
X679580Y-217451D01*
X679450Y-217593D01*
X679340Y-217776D01*
X679250Y-217999D01*
X679180Y-218263D01*
X679130Y-218568D01*
X679100Y-218913D01*
X679090Y-219298D01*
X677090D01*
X677080Y-218913D01*
X677050Y-218568D01*
X677000Y-218263D01*
X676930Y-217999D01*
X676840Y-217776D01*
X676730Y-217593D01*
X676600Y-217451D01*
X676450Y-217349D01*
X676280Y-217288D01*
X676090Y-217268D01*
X680090D01*
X679900Y-217288D01*
D02*
G37*
G36*
X622129Y-214960D02*
X622190Y-215130D01*
X622292Y-215280D01*
X622434Y-215410D01*
X622617Y-215520D01*
X622840Y-215610D01*
X623104Y-215680D01*
X623409Y-215730D01*
X623754Y-215760D01*
X624140Y-215770D01*
Y-217770D01*
X623754Y-217780D01*
X623409Y-217810D01*
X623104Y-217860D01*
X622840Y-217930D01*
X622617Y-218020D01*
X622434Y-218130D01*
X622292Y-218260D01*
X622190Y-218410D01*
X622129Y-218580D01*
X622109Y-218770D01*
Y-214770D01*
X622129Y-214960D01*
D02*
G37*
G36*
X662404Y-214611D02*
X662016Y-215012D01*
X661402Y-215736D01*
X661177Y-216059D01*
X661005Y-216355D01*
X660888Y-216625D01*
X660825Y-216868D01*
X660815Y-217085D01*
X660860Y-217275D01*
X660959Y-217439D01*
X658411Y-214391D01*
X658553Y-214512D01*
X658726Y-214574D01*
X658930Y-214578D01*
X659166Y-214522D01*
X659433Y-214407D01*
X659732Y-214233D01*
X660062Y-214000D01*
X660423Y-213708D01*
X661239Y-212946D01*
X662404Y-214611D01*
D02*
G37*
G36*
X631261Y-218770D02*
X631241Y-218580D01*
X631180Y-218410D01*
X631078Y-218260D01*
X630936Y-218130D01*
X630753Y-218020D01*
X630530Y-217930D01*
X630266Y-217860D01*
X629962Y-217810D01*
X629616Y-217780D01*
X629230Y-217770D01*
Y-215770D01*
X629616Y-215760D01*
X629962Y-215730D01*
X630266Y-215680D01*
X630530Y-215610D01*
X630753Y-215520D01*
X630936Y-215410D01*
X631078Y-215280D01*
X631180Y-215130D01*
X631241Y-214960D01*
X631261Y-214770D01*
Y-218770D01*
D02*
G37*
G36*
X640659Y-233520D02*
X640720Y-233690D01*
X640822Y-233840D01*
X640964Y-233970D01*
X641147Y-234080D01*
X641370Y-234170D01*
X641634Y-234240D01*
X641939Y-234290D01*
X642284Y-234320D01*
X642670Y-234330D01*
Y-236330D01*
X642284Y-236340D01*
X641939Y-236370D01*
X641634Y-236420D01*
X641370Y-236490D01*
X641147Y-236580D01*
X640964Y-236690D01*
X640822Y-236820D01*
X640720Y-236970D01*
X640659Y-237140D01*
X640639Y-237330D01*
Y-233330D01*
X640659Y-233520D01*
D02*
G37*
G36*
X739600Y-240646D02*
X739630Y-240991D01*
X739680Y-241296D01*
X739750Y-241560D01*
X739840Y-241783D01*
X739950Y-241966D01*
X740080Y-242108D01*
X740230Y-242210D01*
X740400Y-242271D01*
X740590Y-242291D01*
X736590D01*
X736780Y-242271D01*
X736950Y-242210D01*
X737100Y-242108D01*
X737230Y-241966D01*
X737340Y-241783D01*
X737430Y-241560D01*
X737500Y-241296D01*
X737550Y-240991D01*
X737580Y-240646D01*
X737590Y-240261D01*
X739590D01*
X739600Y-240646D01*
D02*
G37*
G36*
X651581Y-237330D02*
X651561Y-237140D01*
X651500Y-236970D01*
X651398Y-236820D01*
X651256Y-236690D01*
X651073Y-236580D01*
X650850Y-236490D01*
X650586Y-236420D01*
X650282Y-236370D01*
X649936Y-236340D01*
X649550Y-236330D01*
Y-234330D01*
X649936Y-234320D01*
X650282Y-234290D01*
X650586Y-234240D01*
X650850Y-234170D01*
X651073Y-234080D01*
X651256Y-233970D01*
X651398Y-233840D01*
X651500Y-233690D01*
X651561Y-233520D01*
X651581Y-233330D01*
Y-237330D01*
D02*
G37*
G36*
X678797Y-227807D02*
X678524Y-228108D01*
X678287Y-228426D01*
X678087Y-228763D01*
X677924Y-229117D01*
X677797Y-229489D01*
X677708Y-229878D01*
X677655Y-230285D01*
X677638Y-230711D01*
X677659Y-231154D01*
X677716Y-231614D01*
X676465Y-230363D01*
X676121Y-230755D01*
X675818Y-231177D01*
X675583Y-231554D01*
X675415Y-231885D01*
X675314Y-232171D01*
X675280Y-232411D01*
X672778Y-229910D01*
X673019Y-229876D01*
X673305Y-229775D01*
X673636Y-229607D01*
X674013Y-229372D01*
X674435Y-229069D01*
X674839Y-228737D01*
X673576Y-227474D01*
X674036Y-227531D01*
X674479Y-227552D01*
X674904Y-227535D01*
X675312Y-227482D01*
X675702Y-227393D01*
X676073Y-227266D01*
X676427Y-227103D01*
X676764Y-226903D01*
X677082Y-226666D01*
X677383Y-226393D01*
X678797Y-227807D01*
D02*
G37*
G36*
X704779Y-230578D02*
X706340Y-230888D01*
X707901Y-230578D01*
X708340Y-230284D01*
X708779Y-230578D01*
X710262Y-230873D01*
Y-240881D01*
X701646Y-249496D01*
X700762Y-250819D01*
X700452Y-252380D01*
X700452Y-252380D01*
Y-262166D01*
X700446Y-262178D01*
X700428Y-262206D01*
X700404Y-262241D01*
X700204Y-262374D01*
X698878Y-264359D01*
X698412Y-266700D01*
X698878Y-269041D01*
X700204Y-271026D01*
X702189Y-272352D01*
X703144Y-272542D01*
X703512Y-273757D01*
X698710Y-278559D01*
X698297D01*
X698157Y-278531D01*
X698013Y-278559D01*
X697946D01*
X697824Y-278548D01*
X697789Y-278559D01*
X694583D01*
X694312Y-278440D01*
X693828Y-278166D01*
X693290Y-277801D01*
X692076Y-276795D01*
X686008Y-270727D01*
Y-252730D01*
X697560D01*
Y-239230D01*
X694638D01*
Y-238015D01*
X694328Y-236454D01*
X693444Y-235131D01*
X693444Y-235131D01*
X690418Y-232106D01*
Y-230873D01*
X691901Y-230578D01*
X692340Y-230284D01*
X692779Y-230578D01*
X694340Y-230888D01*
X695901Y-230578D01*
X696340Y-230284D01*
X696779Y-230578D01*
X698340Y-230888D01*
X699901Y-230578D01*
X700340Y-230284D01*
X700779Y-230578D01*
X702340Y-230888D01*
X703901Y-230578D01*
X704340Y-230284D01*
X704779Y-230578D01*
D02*
G37*
G36*
X693622Y-286273D02*
X693456Y-286556D01*
X693309Y-286860D01*
X693182Y-287184D01*
X693074Y-287529D01*
X692986Y-287894D01*
X692918Y-288280D01*
X692869Y-288686D01*
X692830Y-289560D01*
X690830D01*
X690820Y-289113D01*
X690742Y-288280D01*
X690674Y-287894D01*
X690586Y-287529D01*
X690478Y-287184D01*
X690351Y-286860D01*
X690204Y-286556D01*
X690038Y-286273D01*
X689853Y-286010D01*
X693808D01*
X693622Y-286273D01*
D02*
G37*
G36*
X578541Y-386810D02*
X578574Y-387081D01*
X578629Y-387347D01*
X578706Y-387605D01*
X578805Y-387857D01*
X578926Y-388102D01*
X579069Y-388341D01*
X579234Y-388573D01*
X579421Y-388799D01*
X579630Y-389018D01*
X575430D01*
X575639Y-388799D01*
X575826Y-388573D01*
X575991Y-388341D01*
X576134Y-388102D01*
X576255Y-387857D01*
X576354Y-387605D01*
X576431Y-387347D01*
X576486Y-387081D01*
X576519Y-386810D01*
X576530Y-386532D01*
X578530D01*
X578541Y-386810D01*
D02*
G37*
G36*
X697600Y-385190D02*
X697180Y-385340D01*
X696810Y-385589D01*
X696489Y-385939D01*
X696217Y-386390D01*
X695995Y-386940D01*
X695822Y-387589D01*
X695699Y-388340D01*
X695625Y-389189D01*
X695607Y-389879D01*
X695625Y-390575D01*
X695700Y-391431D01*
X695825Y-392185D01*
X696000Y-392839D01*
X696225Y-393392D01*
X696500Y-393845D01*
X696825Y-394197D01*
X697200Y-394449D01*
X697625Y-394600D01*
X698100Y-394650D01*
X688100D01*
X688575Y-394600D01*
X689000Y-394449D01*
X689375Y-394197D01*
X689700Y-393845D01*
X689975Y-393392D01*
X690200Y-392839D01*
X690375Y-392185D01*
X690500Y-391431D01*
X690575Y-390575D01*
X690593Y-389879D01*
X690575Y-389189D01*
X690501Y-388340D01*
X690378Y-387589D01*
X690205Y-386940D01*
X689983Y-386390D01*
X689711Y-385939D01*
X689390Y-385589D01*
X689019Y-385340D01*
X688600Y-385190D01*
X688130Y-385140D01*
X698070D01*
X697600Y-385190D01*
D02*
G37*
G36*
X776663Y-384124D02*
X776701Y-384394D01*
X776764Y-384644D01*
X776852Y-384871D01*
X776966Y-385078D01*
X777106Y-385263D01*
X777270Y-385427D01*
X777460Y-385569D01*
X777675Y-385690D01*
X777916Y-385790D01*
X774124Y-387532D01*
X774224Y-387255D01*
X774392Y-386656D01*
X774461Y-386335D01*
X774566Y-385648D01*
X774629Y-384904D01*
X774650Y-384102D01*
X776650Y-383832D01*
X776663Y-384124D01*
D02*
G37*
G36*
X784281Y-375380D02*
X784314Y-375652D01*
X784369Y-375917D01*
X784446Y-376175D01*
X784545Y-376427D01*
X784666Y-376672D01*
X784809Y-376911D01*
X784974Y-377143D01*
X785161Y-377369D01*
X785370Y-377588D01*
X781170D01*
X781379Y-377369D01*
X781566Y-377143D01*
X781731Y-376911D01*
X781874Y-376672D01*
X781995Y-376427D01*
X782094Y-376175D01*
X782171Y-375917D01*
X782226Y-375652D01*
X782259Y-375380D01*
X782270Y-375102D01*
X784270D01*
X784281Y-375380D01*
D02*
G37*
G36*
X793171Y-383000D02*
X793204Y-383271D01*
X793259Y-383537D01*
X793336Y-383795D01*
X793435Y-384047D01*
X793556Y-384292D01*
X793699Y-384531D01*
X793864Y-384763D01*
X794051Y-384989D01*
X794260Y-385208D01*
X790060D01*
X790269Y-384989D01*
X790456Y-384763D01*
X790621Y-384531D01*
X790764Y-384292D01*
X790885Y-384047D01*
X790984Y-383795D01*
X791061Y-383537D01*
X791116Y-383271D01*
X791149Y-383000D01*
X791160Y-382722D01*
X793160D01*
X793171Y-383000D01*
D02*
G37*
G36*
X831945Y-422849D02*
X831129Y-422041D01*
X829603Y-420681D01*
X828893Y-420129D01*
X828218Y-419661D01*
X827578Y-419279D01*
X826973Y-418981D01*
X826403Y-418769D01*
X825868Y-418641D01*
X825368Y-418599D01*
Y-416599D01*
X825868Y-416556D01*
X826403Y-416429D01*
X826973Y-416216D01*
X827578Y-415919D01*
X828218Y-415536D01*
X828893Y-415069D01*
X829603Y-414516D01*
X831129Y-413156D01*
X831945Y-412349D01*
Y-422849D01*
D02*
G37*
G36*
Y-448249D02*
X831129Y-447441D01*
X829603Y-446081D01*
X828893Y-445529D01*
X828218Y-445061D01*
X827578Y-444679D01*
X826973Y-444381D01*
X826403Y-444169D01*
X825868Y-444041D01*
X825368Y-443999D01*
Y-441999D01*
X825868Y-441956D01*
X826403Y-441829D01*
X826973Y-441616D01*
X827578Y-441319D01*
X828218Y-440936D01*
X828893Y-440469D01*
X829603Y-439916D01*
X831129Y-438556D01*
X831945Y-437749D01*
Y-448249D01*
D02*
G37*
G36*
X800171Y-419599D02*
X800151Y-419409D01*
X800090Y-419239D01*
X799988Y-419089D01*
X799846Y-418959D01*
X799663Y-418849D01*
X799440Y-418759D01*
X799176Y-418689D01*
X798872Y-418639D01*
X798526Y-418609D01*
X798140Y-418599D01*
Y-416599D01*
X798526Y-416589D01*
X798872Y-416559D01*
X799176Y-416509D01*
X799440Y-416439D01*
X799663Y-416349D01*
X799846Y-416239D01*
X799988Y-416109D01*
X800090Y-415959D01*
X800151Y-415789D01*
X800171Y-415599D01*
Y-419599D01*
D02*
G37*
G36*
X805870Y-394351D02*
X805900Y-394691D01*
X805950Y-394991D01*
X806020Y-395251D01*
X806110Y-395471D01*
X806220Y-395650D01*
X806350Y-395790D01*
X806500Y-395891D01*
X806670Y-395951D01*
X806860Y-395970D01*
X802860D01*
X803050Y-395951D01*
X803220Y-395891D01*
X803370Y-395790D01*
X803500Y-395650D01*
X803610Y-395471D01*
X803700Y-395251D01*
X803770Y-394991D01*
X803820Y-394691D01*
X803850Y-394351D01*
X803860Y-393970D01*
X805860D01*
X805870Y-394351D01*
D02*
G37*
G36*
X809569Y-415789D02*
X809630Y-415959D01*
X809732Y-416109D01*
X809874Y-416239D01*
X810057Y-416349D01*
X810280Y-416439D01*
X810544Y-416509D01*
X810849Y-416559D01*
X811194Y-416589D01*
X811580Y-416599D01*
Y-418599D01*
X811194Y-418609D01*
X810849Y-418639D01*
X810544Y-418689D01*
X810280Y-418759D01*
X810057Y-418849D01*
X809874Y-418959D01*
X809732Y-419089D01*
X809630Y-419239D01*
X809569Y-419409D01*
X809549Y-419599D01*
Y-415599D01*
X809569Y-415789D01*
D02*
G37*
G36*
X676661Y-320170D02*
X676611Y-319695D01*
X676460Y-319270D01*
X676208Y-318895D01*
X675856Y-318570D01*
X675403Y-318295D01*
X674850Y-318070D01*
X674196Y-317895D01*
X673441Y-317770D01*
X672586Y-317695D01*
X671630Y-317670D01*
Y-312670D01*
X672586Y-312645D01*
X673441Y-312570D01*
X674196Y-312445D01*
X674850Y-312270D01*
X675403Y-312045D01*
X675856Y-311770D01*
X676208Y-311445D01*
X676460Y-311070D01*
X676611Y-310645D01*
X676661Y-310170D01*
Y-320170D01*
D02*
G37*
G36*
X137758Y-314513D02*
X137290Y-315077D01*
X136877Y-315658D01*
X136520Y-316254D01*
X136217Y-316868D01*
X135970Y-317497D01*
X135778Y-318144D01*
X135640Y-318806D01*
X135557Y-319485D01*
X135530Y-320181D01*
X130530D01*
X130503Y-319485D01*
X130420Y-318806D01*
X130282Y-318144D01*
X130090Y-317497D01*
X129843Y-316868D01*
X129540Y-316254D01*
X129183Y-315658D01*
X128770Y-315077D01*
X128302Y-314513D01*
X127780Y-313966D01*
X138280D01*
X137758Y-314513D01*
D02*
G37*
G36*
X135557Y-297735D02*
X135640Y-298414D01*
X135778Y-299076D01*
X135970Y-299723D01*
X136217Y-300352D01*
X136520Y-300966D01*
X136877Y-301562D01*
X137290Y-302143D01*
X137758Y-302707D01*
X138280Y-303254D01*
X127780D01*
X128302Y-302707D01*
X128770Y-302143D01*
X129183Y-301562D01*
X129540Y-300966D01*
X129843Y-300352D01*
X130090Y-299723D01*
X130282Y-299076D01*
X130420Y-298414D01*
X130503Y-297735D01*
X130530Y-297039D01*
X135530D01*
X135557Y-297735D01*
D02*
G37*
G36*
X137758Y-289113D02*
X137290Y-289677D01*
X136877Y-290257D01*
X136520Y-290854D01*
X136217Y-291468D01*
X135970Y-292097D01*
X135778Y-292743D01*
X135640Y-293406D01*
X135557Y-294085D01*
X135530Y-294781D01*
X130530D01*
X130503Y-294085D01*
X130420Y-293406D01*
X130282Y-292743D01*
X130090Y-292097D01*
X129843Y-291468D01*
X129540Y-290854D01*
X129183Y-290257D01*
X128770Y-289677D01*
X128302Y-289113D01*
X127780Y-288566D01*
X138280D01*
X137758Y-289113D01*
D02*
G37*
G36*
X697625Y-297581D02*
X697200Y-297731D01*
X696825Y-297980D01*
X696500Y-298330D01*
X696225Y-298780D01*
X696000Y-299331D01*
X695825Y-299981D01*
X695761Y-300366D01*
X695825Y-300751D01*
X696000Y-301401D01*
X696225Y-301950D01*
X696500Y-302400D01*
X696825Y-302750D01*
X697200Y-303001D01*
X697625Y-303151D01*
X698100Y-303200D01*
X688100D01*
X688575Y-303151D01*
X689000Y-303001D01*
X689375Y-302750D01*
X689700Y-302400D01*
X689975Y-301950D01*
X690200Y-301401D01*
X690375Y-300751D01*
X690439Y-300366D01*
X690375Y-299981D01*
X690200Y-299331D01*
X689975Y-298780D01*
X689700Y-298330D01*
X689375Y-297980D01*
X689000Y-297731D01*
X688575Y-297581D01*
X688100Y-297530D01*
X698100D01*
X697625Y-297581D01*
D02*
G37*
G36*
X137555Y-341530D02*
X137130Y-341679D01*
X136755Y-341930D01*
X136430Y-342280D01*
X136155Y-342729D01*
X135930Y-343279D01*
X135755Y-343929D01*
X135630Y-344679D01*
X135555Y-345530D01*
X135530Y-346479D01*
X130530D01*
X130505Y-345530D01*
X130430Y-344679D01*
X130305Y-343929D01*
X130130Y-343279D01*
X129905Y-342729D01*
X129630Y-342280D01*
X129305Y-341930D01*
X128930Y-341679D01*
X128505Y-341530D01*
X128030Y-341479D01*
X138030D01*
X137555Y-341530D01*
D02*
G37*
G36*
X695625Y-357150D02*
X695699Y-358000D01*
X695822Y-358750D01*
X695995Y-359400D01*
X696217Y-359950D01*
X696489Y-360400D01*
X696810Y-360751D01*
X697180Y-361000D01*
X697600Y-361151D01*
X698070Y-361200D01*
X688130D01*
X688600Y-361151D01*
X689019Y-361000D01*
X689390Y-360751D01*
X689711Y-360400D01*
X689983Y-359950D01*
X690205Y-359400D01*
X690378Y-358750D01*
X690501Y-358000D01*
X690575Y-357150D01*
X690600Y-356200D01*
X695600D01*
X695625Y-357150D01*
D02*
G37*
G36*
X748949Y-332501D02*
X749940D01*
X749750Y-332715D01*
X749580Y-332965D01*
X749430Y-333251D01*
X749300Y-333573D01*
X749190Y-333931D01*
X749100Y-334325D01*
X749100Y-334328D01*
X749165Y-334720D01*
X749340Y-335370D01*
X749565Y-335920D01*
X749840Y-336371D01*
X750165Y-336721D01*
X750540Y-336970D01*
X750965Y-337121D01*
X751440Y-337170D01*
X741440D01*
X741915Y-337121D01*
X742340Y-336970D01*
X742715Y-336721D01*
X743040Y-336371D01*
X743315Y-335920D01*
X743540Y-335370D01*
X743715Y-334720D01*
X743781Y-334328D01*
X743780Y-334325D01*
X743690Y-333931D01*
X743580Y-333573D01*
X743450Y-333251D01*
X743300Y-332965D01*
X743130Y-332715D01*
X742940Y-332501D01*
X743931D01*
X743940Y-332170D01*
X748940D01*
X748949Y-332501D01*
D02*
G37*
G36*
X135555Y-322496D02*
X135630Y-323352D01*
X135755Y-324106D01*
X135930Y-324760D01*
X136155Y-325313D01*
X136430Y-325766D01*
X136755Y-326118D01*
X137130Y-326370D01*
X137555Y-326521D01*
X138030Y-326571D01*
X128030D01*
X128505Y-326521D01*
X128930Y-326370D01*
X129305Y-326118D01*
X129630Y-325766D01*
X129905Y-325313D01*
X130130Y-324760D01*
X130305Y-324106D01*
X130430Y-323352D01*
X130505Y-322496D01*
X130530Y-321540D01*
X135530D01*
X135555Y-322496D01*
D02*
G37*
G36*
X697625Y-327159D02*
X697200Y-327310D01*
X696825Y-327562D01*
X696500Y-327914D01*
X696225Y-328367D01*
X696000Y-328920D01*
X695825Y-329574D01*
X695700Y-330328D01*
X695625Y-331184D01*
X695600Y-332140D01*
X690600D01*
X690575Y-331184D01*
X690500Y-330328D01*
X690375Y-329574D01*
X690200Y-328920D01*
X689975Y-328367D01*
X689700Y-327914D01*
X689375Y-327562D01*
X689000Y-327310D01*
X688575Y-327159D01*
X688100Y-327109D01*
X698100D01*
X697625Y-327159D01*
D02*
G37*
G36*
X642084Y-214611D02*
X641696Y-215012D01*
X641082Y-215736D01*
X640857Y-216059D01*
X640685Y-216355D01*
X640568Y-216625D01*
X640505Y-216868D01*
X640495Y-217085D01*
X640540Y-217275D01*
X640639Y-217439D01*
X638091Y-214391D01*
X638233Y-214512D01*
X638406Y-214574D01*
X638610Y-214578D01*
X638846Y-214522D01*
X639113Y-214407D01*
X639412Y-214233D01*
X639742Y-214000D01*
X640103Y-213708D01*
X640919Y-212946D01*
X642084Y-214611D01*
D02*
G37*
G36*
X20000Y-3023D02*
X57975D01*
X58360Y-4293D01*
X58236Y-4376D01*
X46864Y-15748D01*
X46712Y-15851D01*
X46435Y-15997D01*
X46071Y-16146D01*
X45615Y-16287D01*
X45068Y-16412D01*
X44470Y-16509D01*
X42859Y-16634D01*
X42132Y-16641D01*
X41900Y-16610D01*
X39159Y-16971D01*
X36605Y-18029D01*
X34411Y-19712D01*
X32728Y-21906D01*
X31670Y-24460D01*
X31309Y-27201D01*
X31670Y-29942D01*
X32728Y-32496D01*
X34411Y-34690D01*
X36605Y-36373D01*
X39159Y-37431D01*
X41900Y-37791D01*
X44641Y-37431D01*
X47195Y-36373D01*
X49389Y-34690D01*
X51072Y-32496D01*
X52130Y-29942D01*
X52491Y-27201D01*
X52464Y-26998D01*
X52514Y-25361D01*
X52586Y-24670D01*
X52688Y-24033D01*
X52814Y-23485D01*
X52955Y-23030D01*
X53103Y-22666D01*
X53250Y-22388D01*
X53353Y-22237D01*
X63381Y-12208D01*
X226380D01*
X239208Y-25037D01*
X238722Y-26210D01*
X219819D01*
Y-30972D01*
X216421D01*
Y-26210D01*
X194419D01*
Y-30972D01*
X191021D01*
Y-26210D01*
X169019D01*
Y-34782D01*
X106770D01*
X104153Y-32165D01*
X104050Y-32013D01*
X103903Y-31736D01*
X103755Y-31372D01*
X103614Y-30916D01*
X103488Y-30369D01*
X103392Y-29771D01*
X103267Y-28160D01*
X103260Y-27433D01*
X103291Y-27201D01*
X102930Y-24460D01*
X101872Y-21906D01*
X100189Y-19712D01*
X97995Y-18029D01*
X95441Y-16971D01*
X92700Y-16610D01*
X89959Y-16971D01*
X87405Y-18029D01*
X85211Y-19712D01*
X83528Y-21906D01*
X82470Y-24460D01*
X82109Y-27201D01*
X82470Y-29942D01*
X83528Y-32496D01*
X85211Y-34690D01*
X87405Y-36373D01*
X89959Y-37431D01*
X92700Y-37791D01*
X92903Y-37765D01*
X94540Y-37815D01*
X95231Y-37887D01*
X95868Y-37989D01*
X96415Y-38115D01*
X96871Y-38256D01*
X97235Y-38404D01*
X97513Y-38551D01*
X97664Y-38654D01*
X101625Y-42614D01*
X103113Y-43609D01*
X104869Y-43958D01*
X110219D01*
X110329Y-44282D01*
X110522Y-45228D01*
X108928Y-47306D01*
X107870Y-49860D01*
X107509Y-52601D01*
X107870Y-55342D01*
X108928Y-57896D01*
X110611Y-60090D01*
X112805Y-61773D01*
X115359Y-62831D01*
X118100Y-63191D01*
X120841Y-62831D01*
X123395Y-61773D01*
X125589Y-60090D01*
X127272Y-57896D01*
X128330Y-55342D01*
X128691Y-52601D01*
X128330Y-49860D01*
X127272Y-47306D01*
X125678Y-45228D01*
X125870Y-44282D01*
X125980Y-43958D01*
X169019D01*
Y-44910D01*
X171895D01*
X172033Y-44938D01*
X172179Y-44910D01*
X191021D01*
Y-40148D01*
X194419D01*
Y-44910D01*
X216421D01*
Y-40148D01*
X219819D01*
Y-44910D01*
X241821D01*
Y-29309D01*
X242994Y-28823D01*
X244547Y-30375D01*
X245065Y-30929D01*
X245219Y-31117D01*
Y-44910D01*
X267221D01*
Y-40148D01*
X270619D01*
Y-44910D01*
X292621D01*
Y-40148D01*
X296019D01*
Y-44910D01*
X318021D01*
Y-26210D01*
X296019D01*
Y-30972D01*
X292621D01*
Y-26210D01*
X270619D01*
Y-30972D01*
X267221D01*
Y-26210D01*
X253548D01*
X253541Y-26206D01*
X253301Y-26042D01*
X252634Y-25486D01*
X231524Y-4376D01*
X231401Y-4293D01*
X231786Y-3023D01*
X649920D01*
Y-81280D01*
Y-82550D01*
X656270Y-88900D01*
X702811D01*
Y-114300D01*
X703086Y-116388D01*
X703130Y-116495D01*
Y-121030D01*
X703130Y-122300D01*
X703130D01*
Y-122300D01*
X703130Y-122300D01*
Y-128105D01*
X703086Y-128212D01*
X702811Y-130300D01*
X703086Y-132388D01*
X703130Y-132495D01*
Y-135127D01*
X703102Y-135269D01*
X703130Y-135412D01*
Y-135437D01*
X703117Y-135573D01*
X703130Y-135616D01*
Y-137086D01*
X701860Y-137612D01*
X700687Y-136440D01*
X700100Y-135420D01*
X700100D01*
X700100Y-135420D01*
Y-121920D01*
X672130D01*
Y-134352D01*
X659229D01*
X653669Y-128791D01*
X653645Y-128764D01*
X653551Y-128638D01*
X653484Y-128535D01*
X653442Y-128458D01*
X653419Y-128408D01*
X653411Y-128383D01*
X653404Y-128258D01*
X653380Y-128161D01*
Y-117430D01*
X649920D01*
Y-104760D01*
X636420D01*
Y-117430D01*
X634380D01*
Y-132150D01*
X621330D01*
Y-145650D01*
X635330D01*
Y-142508D01*
X649501D01*
X653930Y-146937D01*
X654020Y-147040D01*
X654080Y-147115D01*
Y-159430D01*
X654080Y-159430D01*
X654080D01*
X653935Y-160640D01*
X650320D01*
Y-173722D01*
X628749D01*
X504214Y-49186D01*
X502891Y-48302D01*
X501330Y-47992D01*
X501330Y-47992D01*
X467800D01*
Y-44320D01*
X453070D01*
X451800Y-44320D01*
X450530Y-44320D01*
X447623D01*
Y-42252D01*
X448521Y-41354D01*
X450355Y-41354D01*
X451625Y-41354D01*
X464325D01*
Y-38368D01*
X466316D01*
X466328Y-38374D01*
X466356Y-38391D01*
X466391Y-38416D01*
X466524Y-38616D01*
X468509Y-39942D01*
X470850Y-40408D01*
X473191Y-39942D01*
X475176Y-38616D01*
X476502Y-36631D01*
X476968Y-34290D01*
X476502Y-31949D01*
X475176Y-29964D01*
X473191Y-28638D01*
X470850Y-28173D01*
X468509Y-28638D01*
X466524Y-29964D01*
X466391Y-30164D01*
X466356Y-30189D01*
X466328Y-30206D01*
X466316Y-30212D01*
X464325D01*
Y-27226D01*
X451625D01*
X450705Y-27226D01*
X449435Y-27226D01*
X436735D01*
Y-41354D01*
X439467D01*
Y-44320D01*
X435800D01*
Y-59820D01*
X450530D01*
X451800Y-59820D01*
X453070Y-59820D01*
X467800D01*
Y-56148D01*
X499641D01*
X518251Y-74758D01*
X517765Y-75932D01*
X263238D01*
X262612Y-74662D01*
X263208Y-73885D01*
X264014Y-71938D01*
X264289Y-69850D01*
X264014Y-67762D01*
X263491Y-66500D01*
X264282Y-65230D01*
X267221D01*
Y-46530D01*
X245219D01*
Y-50144D01*
X245149Y-50163D01*
X244663Y-50244D01*
X244336Y-50272D01*
X242695D01*
X242364Y-50243D01*
X241872Y-50162D01*
X241821Y-50148D01*
Y-46530D01*
X219819D01*
Y-65230D01*
X241821D01*
Y-61612D01*
X241872Y-61598D01*
X242364Y-61517D01*
X242695Y-61488D01*
X244336D01*
X244663Y-61517D01*
X245149Y-61598D01*
X245219Y-61616D01*
Y-65230D01*
X248158D01*
X248948Y-66500D01*
X248426Y-67762D01*
X248151Y-69850D01*
X248426Y-71938D01*
X249232Y-73885D01*
X249828Y-74662D01*
X249202Y-75932D01*
X100429D01*
X96778Y-72281D01*
Y-64490D01*
X96802Y-64391D01*
X96895Y-64141D01*
X97070Y-63786D01*
X97336Y-63341D01*
X97696Y-62820D01*
X98134Y-62257D01*
X99372Y-60868D01*
X99998Y-60236D01*
X100189Y-60090D01*
X101872Y-57896D01*
X102930Y-55342D01*
X103291Y-52601D01*
X102930Y-49860D01*
X101872Y-47306D01*
X100189Y-45112D01*
X97995Y-43429D01*
X95441Y-42371D01*
X92700Y-42010D01*
X89959Y-42371D01*
X87405Y-43429D01*
X85211Y-45112D01*
X83528Y-47306D01*
X82470Y-49860D01*
X82109Y-52601D01*
X82470Y-55342D01*
X83528Y-57896D01*
X85211Y-60090D01*
X85402Y-60236D01*
X86027Y-60868D01*
X87266Y-62257D01*
X87704Y-62820D01*
X88064Y-63341D01*
X88330Y-63786D01*
X88505Y-64142D01*
X88598Y-64391D01*
X88622Y-64490D01*
Y-73970D01*
X88622Y-73970D01*
X88932Y-75531D01*
X89816Y-76854D01*
X95244Y-82282D01*
X94718Y-83552D01*
X81379D01*
X71378Y-73551D01*
Y-64490D01*
X71402Y-64391D01*
X71495Y-64141D01*
X71670Y-63786D01*
X71936Y-63341D01*
X72296Y-62820D01*
X72734Y-62257D01*
X73972Y-60868D01*
X74598Y-60236D01*
X74789Y-60090D01*
X76472Y-57896D01*
X77530Y-55342D01*
X77891Y-52601D01*
X77530Y-49860D01*
X76472Y-47306D01*
X74789Y-45112D01*
X72595Y-43429D01*
X70041Y-42371D01*
X67300Y-42010D01*
X64559Y-42371D01*
X62005Y-43429D01*
X59811Y-45112D01*
X58128Y-47306D01*
X57070Y-49860D01*
X56709Y-52601D01*
X57070Y-55342D01*
X58128Y-57896D01*
X59811Y-60090D01*
X60002Y-60236D01*
X60627Y-60868D01*
X61866Y-62257D01*
X62304Y-62820D01*
X62664Y-63341D01*
X62930Y-63786D01*
X63105Y-64142D01*
X63198Y-64391D01*
X63222Y-64490D01*
Y-75240D01*
X63222Y-75240D01*
X63532Y-76801D01*
X64416Y-78124D01*
X75021Y-88728D01*
X74535Y-89902D01*
X55979D01*
X45978Y-79901D01*
Y-63101D01*
X52400D01*
Y-42101D01*
X31400D01*
Y-63101D01*
X37822D01*
Y-81590D01*
X37822Y-81590D01*
X38132Y-83151D01*
X39016Y-84474D01*
X51406Y-96864D01*
X51406Y-96864D01*
X52729Y-97748D01*
X54290Y-98058D01*
X121388D01*
X121914Y-99328D01*
X119141Y-102101D01*
X117790Y-101833D01*
X115449Y-102298D01*
X113464Y-103624D01*
X112138Y-105609D01*
X111672Y-107950D01*
X112138Y-110291D01*
X113464Y-112276D01*
X115449Y-113602D01*
X117790Y-114067D01*
X120131Y-113602D01*
X122116Y-112276D01*
X123442Y-110291D01*
X123534Y-109830D01*
X123571Y-109764D01*
X123638Y-109558D01*
X123785Y-109184D01*
X123818Y-109115D01*
X123983Y-108825D01*
X124024Y-108763D01*
X124054Y-108724D01*
X127099Y-105678D01*
X491992D01*
X492670Y-106948D01*
X491868Y-108149D01*
X491403Y-110490D01*
X491868Y-112831D01*
X493194Y-114816D01*
X495179Y-116142D01*
X497520Y-116608D01*
X499861Y-116142D01*
X501846Y-114816D01*
X501979Y-114616D01*
X502014Y-114591D01*
X502042Y-114574D01*
X502054Y-114568D01*
X508531D01*
X531285Y-137323D01*
X530446Y-138280D01*
X522231Y-131976D01*
X522110Y-131917D01*
X522012Y-131823D01*
X512986Y-126073D01*
X512860Y-126024D01*
X512755Y-125939D01*
X503261Y-120997D01*
X503132Y-120959D01*
X503019Y-120884D01*
X493131Y-116789D01*
X492999Y-116762D01*
X492881Y-116697D01*
X482673Y-113479D01*
X482539Y-113464D01*
X482415Y-113410D01*
X471966Y-111093D01*
X471831Y-111090D01*
X471703Y-111047D01*
X461092Y-109650D01*
X460957Y-109659D01*
X460826Y-109627D01*
X450134Y-109160D01*
X450000Y-109180D01*
X449867Y-109160D01*
X439174Y-109627D01*
X439043Y-109659D01*
X438908Y-109650D01*
X428297Y-111047D01*
X428169Y-111090D01*
X428034Y-111093D01*
X417585Y-113410D01*
X417462Y-113464D01*
X417327Y-113479D01*
X407120Y-116697D01*
X407002Y-116762D01*
X406869Y-116789D01*
X396981Y-120884D01*
X396869Y-120959D01*
X396739Y-120997D01*
X387246Y-125939D01*
X387141Y-126024D01*
X387015Y-126073D01*
X377988Y-131823D01*
X377891Y-131917D01*
X377770Y-131976D01*
X369278Y-138492D01*
X369189Y-138593D01*
X369074Y-138663D01*
X361183Y-145894D01*
X361103Y-146003D01*
X360994Y-146083D01*
X353764Y-153974D01*
X353694Y-154089D01*
X353592Y-154178D01*
X347077Y-162669D01*
X347017Y-162790D01*
X346923Y-162888D01*
X341173Y-171914D01*
X341124Y-172040D01*
X341040Y-172145D01*
X336097Y-181639D01*
X336060Y-181768D01*
X335985Y-181881D01*
X331889Y-191769D01*
X331863Y-191901D01*
X331798Y-192020D01*
X328579Y-202227D01*
X328565Y-202361D01*
X328510Y-202485D01*
X327562Y-206761D01*
X310015Y-206674D01*
X309712Y-206733D01*
X309403D01*
X307426Y-207127D01*
X306324Y-207583D01*
X304647Y-208703D01*
X303804Y-209547D01*
X302684Y-211223D01*
X302227Y-212326D01*
X301834Y-214303D01*
Y-214604D01*
X301775Y-214900D01*
X301834Y-215195D01*
Y-215497D01*
X301872Y-215590D01*
X301775Y-254892D01*
X301834Y-255192D01*
Y-255497D01*
X302227Y-257474D01*
X302684Y-258576D01*
X303804Y-260253D01*
X304648Y-261096D01*
X306324Y-262216D01*
X307426Y-262673D01*
X309403Y-263067D01*
X309705D01*
X310000Y-263125D01*
X310296Y-263067D01*
X310597D01*
X310695Y-263026D01*
X327560Y-263028D01*
X328510Y-267315D01*
X328565Y-267438D01*
X328579Y-267573D01*
X331798Y-277780D01*
X331863Y-277898D01*
X331889Y-278031D01*
X335985Y-287919D01*
X336060Y-288031D01*
X336097Y-288161D01*
X341040Y-297654D01*
X341124Y-297760D01*
X341173Y-297885D01*
X346923Y-306912D01*
X347017Y-307010D01*
X347077Y-307131D01*
X353592Y-315622D01*
X353694Y-315711D01*
X353764Y-315826D01*
X360994Y-323717D01*
X361103Y-323797D01*
X361183Y-323906D01*
X369074Y-331137D01*
X369189Y-331207D01*
X369278Y-331308D01*
X377770Y-337823D01*
X377891Y-337883D01*
X377988Y-337977D01*
X387015Y-343727D01*
X387141Y-343776D01*
X387246Y-343861D01*
X396739Y-348803D01*
X396869Y-348840D01*
X396981Y-348915D01*
X406869Y-353011D01*
X407002Y-353037D01*
X407120Y-353102D01*
X417327Y-356321D01*
X417462Y-356335D01*
X417585Y-356390D01*
X428034Y-358706D01*
X428169Y-358709D01*
X428297Y-358753D01*
X438908Y-360150D01*
X439043Y-360141D01*
X439174Y-360173D01*
X449867Y-360640D01*
X450000Y-360619D01*
X450134Y-360640D01*
X460826Y-360173D01*
X460957Y-360141D01*
X461092Y-360150D01*
X471703Y-358753D01*
X471831Y-358709D01*
X471966Y-358706D01*
X482415Y-356390D01*
X482539Y-356335D01*
X482673Y-356321D01*
X492881Y-353102D01*
X492999Y-353037D01*
X493131Y-353011D01*
X503019Y-348915D01*
X503132Y-348840D01*
X503261Y-348803D01*
X512755Y-343861D01*
X512860Y-343776D01*
X512986Y-343727D01*
X522012Y-337977D01*
X522110Y-337883D01*
X522231Y-337823D01*
X530722Y-331308D01*
X530811Y-331207D01*
X530927Y-331137D01*
X538817Y-323906D01*
X538897Y-323797D01*
X539006Y-323717D01*
X546237Y-315826D01*
X546307Y-315711D01*
X546408Y-315622D01*
X552924Y-307131D01*
X552984Y-307010D01*
X553077Y-306912D01*
X558828Y-297885D01*
X558876Y-297760D01*
X558961Y-297654D01*
X563903Y-288161D01*
X563941Y-288031D01*
X564016Y-287919D01*
X568111Y-278031D01*
X568138Y-277899D01*
X568203Y-277780D01*
X571421Y-267573D01*
X571436Y-267439D01*
X571490Y-267315D01*
X572438Y-263038D01*
X589985Y-263125D01*
X590288Y-263066D01*
X590597D01*
X592574Y-262673D01*
X593677Y-262216D01*
X595353Y-261096D01*
X596197Y-260252D01*
X597317Y-258576D01*
X597640Y-257797D01*
X598852Y-258190D01*
Y-290411D01*
X574646Y-314616D01*
X573762Y-315939D01*
X573452Y-317500D01*
X573452Y-317500D01*
Y-386626D01*
X573446Y-386637D01*
X573428Y-386666D01*
X573404Y-386701D01*
X573204Y-386834D01*
X571878Y-388819D01*
X571413Y-391160D01*
X571878Y-393501D01*
X573204Y-395486D01*
X575189Y-396812D01*
X577530Y-397277D01*
X579871Y-396812D01*
X581856Y-395486D01*
X583182Y-393501D01*
X583647Y-391160D01*
X583182Y-388819D01*
X581856Y-386834D01*
X581656Y-386701D01*
X581632Y-386666D01*
X581614Y-386638D01*
X581608Y-386626D01*
Y-319189D01*
X605814Y-294984D01*
X605814Y-294984D01*
X606698Y-293661D01*
X607008Y-292100D01*
X607008Y-292100D01*
Y-203200D01*
X607008Y-203200D01*
X606698Y-201639D01*
X607243Y-200509D01*
X607389Y-200388D01*
X671777D01*
X672072Y-201871D01*
X672801Y-202962D01*
X672533Y-203806D01*
X672238Y-204232D01*
X646970D01*
X645409Y-204542D01*
X644086Y-205426D01*
X644086Y-205426D01*
X638386Y-211126D01*
X638167Y-211330D01*
X628200D01*
Y-212692D01*
X625170D01*
Y-210020D01*
X611170D01*
Y-223520D01*
X625170D01*
Y-220848D01*
X627302D01*
X628200Y-221746D01*
X628200Y-227330D01*
X628200Y-228600D01*
Y-243330D01*
X643700D01*
Y-239408D01*
X648520D01*
Y-243330D01*
X663240D01*
X664020Y-243330D01*
X664510Y-244397D01*
Y-252730D01*
X674792D01*
Y-273050D01*
X675219Y-275196D01*
X676435Y-277015D01*
X680824Y-281404D01*
X681792Y-282436D01*
X682459Y-283251D01*
X682480Y-283280D01*
Y-300170D01*
X673600D01*
Y-309438D01*
X673549Y-309452D01*
X673057Y-309533D01*
X672726Y-309562D01*
X644630D01*
X642484Y-309989D01*
X640665Y-311205D01*
X624365Y-327505D01*
X623149Y-329324D01*
X622722Y-331470D01*
Y-402807D01*
X610767Y-414762D01*
X160753D01*
X138638Y-392647D01*
Y-345392D01*
X138667Y-345066D01*
X138748Y-344580D01*
X138766Y-344510D01*
X143530D01*
Y-323510D01*
X138762D01*
X138748Y-323459D01*
X138667Y-322967D01*
X138638Y-322636D01*
Y-319494D01*
X138661Y-319302D01*
X138746Y-318892D01*
X138864Y-318495D01*
X139017Y-318106D01*
X139208Y-317719D01*
X139440Y-317332D01*
X139717Y-316942D01*
X140044Y-316548D01*
X140348Y-316230D01*
X140519Y-316099D01*
X142202Y-313905D01*
X143260Y-311351D01*
X143621Y-308610D01*
X143260Y-305869D01*
X142202Y-303315D01*
X140519Y-301121D01*
X140347Y-300990D01*
X140044Y-300672D01*
X139717Y-300278D01*
X139440Y-299888D01*
X139208Y-299501D01*
X139017Y-299114D01*
X138864Y-298725D01*
X138746Y-298328D01*
X138661Y-297918D01*
X138638Y-297726D01*
Y-294094D01*
X138661Y-293902D01*
X138746Y-293492D01*
X138864Y-293095D01*
X139017Y-292706D01*
X139208Y-292319D01*
X139440Y-291932D01*
X139717Y-291542D01*
X140044Y-291148D01*
X140348Y-290830D01*
X140519Y-290699D01*
X140650Y-290527D01*
X140968Y-290224D01*
X141362Y-289897D01*
X141752Y-289620D01*
X142140Y-289388D01*
X142526Y-289197D01*
X142915Y-289044D01*
X143312Y-288926D01*
X143722Y-288841D01*
X143914Y-288818D01*
X214310D01*
X216456Y-288391D01*
X218275Y-287175D01*
X260185Y-245265D01*
X261401Y-243446D01*
X261828Y-241300D01*
Y-129560D01*
X261842Y-129424D01*
X261884Y-129172D01*
X261927Y-128982D01*
X261965Y-128856D01*
X261976Y-128830D01*
X261994Y-128806D01*
X262008Y-128791D01*
X262013Y-128781D01*
X263208Y-127225D01*
X264014Y-125278D01*
X264289Y-123190D01*
X264014Y-121102D01*
X263208Y-119156D01*
X261926Y-117484D01*
X260254Y-116202D01*
X258308Y-115396D01*
X256220Y-115121D01*
X254132Y-115396D01*
X252185Y-116202D01*
X250514Y-117484D01*
X249232Y-119156D01*
X248426Y-121102D01*
X248151Y-123190D01*
X248426Y-125278D01*
X249232Y-127225D01*
X250427Y-128781D01*
X250432Y-128791D01*
X250446Y-128806D01*
X250464Y-128830D01*
X250475Y-128856D01*
X250513Y-128982D01*
X250557Y-129172D01*
X250592Y-129387D01*
X250612Y-129637D01*
Y-238977D01*
X211987Y-277602D01*
X143914D01*
X143722Y-277579D01*
X143312Y-277494D01*
X142915Y-277376D01*
X142526Y-277223D01*
X142139Y-277032D01*
X141752Y-276800D01*
X141362Y-276523D01*
X140968Y-276196D01*
X140650Y-275892D01*
X140519Y-275721D01*
X138325Y-274038D01*
X135771Y-272980D01*
X133030Y-272619D01*
X130289Y-272980D01*
X127735Y-274038D01*
X125541Y-275721D01*
X123858Y-277915D01*
X122800Y-280469D01*
X122439Y-283210D01*
X122800Y-285951D01*
X123858Y-288505D01*
X125541Y-290699D01*
X125712Y-290830D01*
X126016Y-291148D01*
X126343Y-291542D01*
X126620Y-291932D01*
X126852Y-292320D01*
X127043Y-292706D01*
X127196Y-293095D01*
X127314Y-293492D01*
X127399Y-293902D01*
X127422Y-294094D01*
Y-297726D01*
X127399Y-297918D01*
X127314Y-298328D01*
X127196Y-298725D01*
X127043Y-299114D01*
X126852Y-299501D01*
X126620Y-299888D01*
X126343Y-300278D01*
X126016Y-300672D01*
X125712Y-300990D01*
X125541Y-301121D01*
X123858Y-303315D01*
X122800Y-305869D01*
X122439Y-308610D01*
X122800Y-311351D01*
X123858Y-313905D01*
X125541Y-316099D01*
X125712Y-316230D01*
X126016Y-316548D01*
X126343Y-316942D01*
X126620Y-317332D01*
X126852Y-317719D01*
X127043Y-318106D01*
X127196Y-318495D01*
X127314Y-318892D01*
X127399Y-319302D01*
X127422Y-319494D01*
Y-322636D01*
X127393Y-322967D01*
X127312Y-323459D01*
X127298Y-323510D01*
X122530D01*
Y-344510D01*
X127294D01*
X127312Y-344580D01*
X127394Y-345066D01*
X127422Y-345392D01*
Y-394970D01*
X127849Y-397116D01*
X129065Y-398935D01*
X154465Y-424335D01*
X156284Y-425551D01*
X158430Y-425978D01*
X613090D01*
X615236Y-425551D01*
X617055Y-424335D01*
X632295Y-409095D01*
X633511Y-407276D01*
X633938Y-405130D01*
Y-333793D01*
X646953Y-320778D01*
X672726D01*
X673057Y-320807D01*
X673549Y-320888D01*
X673600Y-320902D01*
Y-330170D01*
X687368D01*
X687382Y-330221D01*
X687463Y-330713D01*
X687492Y-331044D01*
Y-357296D01*
X687464Y-357618D01*
X687384Y-358107D01*
X687367Y-358170D01*
X685100D01*
Y-361058D01*
X685072Y-361200D01*
X685100Y-361343D01*
Y-361402D01*
X685089Y-361525D01*
X685100Y-361560D01*
Y-384780D01*
X685089Y-384815D01*
X685100Y-384938D01*
Y-384997D01*
X685072Y-385140D01*
X685100Y-385282D01*
Y-388170D01*
X687367D01*
X687384Y-388232D01*
X687464Y-388721D01*
X687492Y-389044D01*
Y-390715D01*
X687463Y-391046D01*
X687382Y-391538D01*
X687368Y-391589D01*
X682480D01*
Y-413591D01*
X701180D01*
Y-391589D01*
X698832D01*
X698818Y-391538D01*
X698737Y-391046D01*
X698708Y-390715D01*
Y-389044D01*
X698736Y-388721D01*
X698816Y-388232D01*
X698833Y-388170D01*
X701100D01*
Y-385282D01*
X701128Y-385140D01*
X701100Y-384997D01*
Y-384938D01*
X701111Y-384815D01*
X701100Y-384780D01*
Y-361560D01*
X701111Y-361525D01*
X701100Y-361402D01*
Y-361343D01*
X701128Y-361200D01*
X701100Y-361058D01*
Y-358170D01*
X698833D01*
X698816Y-358108D01*
X698736Y-357618D01*
X698708Y-357296D01*
Y-331044D01*
X698737Y-330713D01*
X698818Y-330221D01*
X698832Y-330170D01*
X712600D01*
Y-300170D01*
X701180D01*
Y-294161D01*
X701203Y-293732D01*
X701265Y-293325D01*
X701374Y-292899D01*
X701533Y-292449D01*
X701749Y-291973D01*
X702028Y-291469D01*
X702375Y-290940D01*
X702792Y-290385D01*
X703061Y-290069D01*
X733895Y-259235D01*
X735111Y-257416D01*
X735538Y-255270D01*
Y-253847D01*
X736121Y-252758D01*
X736263Y-252730D01*
X746172D01*
Y-316230D01*
X746172Y-316230D01*
X746482Y-317791D01*
X747366Y-319114D01*
X748043Y-319791D01*
X747450Y-320994D01*
X746440Y-320861D01*
X744352Y-321136D01*
X742405Y-321942D01*
X740734Y-323224D01*
X739452Y-324896D01*
X738646Y-326842D01*
X738371Y-328930D01*
X738646Y-331018D01*
X739452Y-332965D01*
X739480Y-333001D01*
X738918Y-334140D01*
X734190D01*
Y-353140D01*
X758690D01*
Y-334140D01*
X753962D01*
X753400Y-333001D01*
X753428Y-332965D01*
X754234Y-331018D01*
X754509Y-328930D01*
X754376Y-327920D01*
X755579Y-327327D01*
X760142Y-331889D01*
Y-412750D01*
X760142Y-412750D01*
X760452Y-414311D01*
X761336Y-415634D01*
X791585Y-445883D01*
X792908Y-446767D01*
X794469Y-447077D01*
X794469Y-447077D01*
X825412D01*
X825510Y-447101D01*
X825760Y-447194D01*
X826116Y-447369D01*
X826561Y-447635D01*
X827082Y-447995D01*
X827645Y-448433D01*
X829034Y-449671D01*
X829666Y-450297D01*
X829812Y-450488D01*
X832006Y-452171D01*
X834560Y-453229D01*
X837301Y-453589D01*
X840042Y-453229D01*
X842596Y-452171D01*
X844790Y-450488D01*
X846473Y-448294D01*
X847531Y-445740D01*
X847891Y-442999D01*
X847531Y-440258D01*
X846473Y-437704D01*
X844790Y-435510D01*
X842596Y-433827D01*
X840042Y-432769D01*
X837301Y-432408D01*
X834560Y-432769D01*
X832006Y-433827D01*
X829812Y-435510D01*
X829666Y-435701D01*
X829034Y-436326D01*
X827645Y-437565D01*
X827082Y-438002D01*
X826561Y-438363D01*
X826116Y-438629D01*
X825760Y-438804D01*
X825510Y-438897D01*
X825412Y-438921D01*
X796158D01*
X768298Y-411061D01*
Y-398855D01*
X769472Y-398369D01*
X791585Y-420483D01*
X791585Y-420483D01*
X792908Y-421367D01*
X794469Y-421677D01*
X794469Y-421677D01*
X797110D01*
Y-424940D01*
X812610D01*
Y-421677D01*
X825412D01*
X825510Y-421701D01*
X825760Y-421794D01*
X826116Y-421969D01*
X826561Y-422234D01*
X827082Y-422595D01*
X827645Y-423033D01*
X829034Y-424271D01*
X829666Y-424897D01*
X829812Y-425088D01*
X832006Y-426771D01*
X834560Y-427829D01*
X837301Y-428189D01*
X840042Y-427829D01*
X842596Y-426771D01*
X844790Y-425088D01*
X846473Y-422894D01*
X847531Y-420340D01*
X847891Y-417599D01*
X847531Y-414858D01*
X846473Y-412304D01*
X844790Y-410110D01*
X842596Y-408427D01*
X840042Y-407369D01*
X837301Y-407008D01*
X834560Y-407369D01*
X832006Y-408427D01*
X829812Y-410110D01*
X829666Y-410301D01*
X829034Y-410926D01*
X827645Y-412165D01*
X827082Y-412602D01*
X826561Y-412963D01*
X826116Y-413229D01*
X825760Y-413404D01*
X825510Y-413497D01*
X825412Y-413521D01*
X812610D01*
Y-408940D01*
X812610D01*
Y-408940D01*
X812610Y-408940D01*
Y-392940D01*
X808938D01*
Y-309089D01*
X810200Y-308590D01*
X811195Y-309688D01*
X817242Y-315168D01*
X823797Y-320030D01*
X830797Y-324226D01*
X838175Y-327715D01*
X838191Y-327678D01*
X885290Y-347188D01*
X885306Y-347194D01*
X886459Y-347672D01*
X886459Y-347672D01*
X887551Y-348239D01*
X889385Y-349219D01*
X891944Y-351320D01*
X894045Y-353880D01*
X895606Y-356800D01*
X896567Y-359968D01*
X896887Y-363215D01*
X896877Y-363264D01*
Y-381776D01*
X890001D01*
Y-381767D01*
X887896Y-382044D01*
X885934Y-382856D01*
X884249Y-384149D01*
X882957Y-385833D01*
X882144Y-387795D01*
X881867Y-389900D01*
X882144Y-392005D01*
X882957Y-393966D01*
X884249Y-395651D01*
X885934Y-396943D01*
X887896Y-397756D01*
X890001Y-398033D01*
Y-398023D01*
X890001Y-398023D01*
X896877D01*
Y-449900D01*
X896887Y-449948D01*
X896567Y-453195D01*
X895606Y-456364D01*
X894045Y-459284D01*
X891944Y-461844D01*
X889385Y-463944D01*
X886464Y-465505D01*
X883296Y-466466D01*
X880049Y-466786D01*
X880001Y-466777D01*
X20000D01*
X19952Y-466786D01*
X16705Y-466466D01*
X13536Y-465505D01*
X10616Y-463944D01*
X8056Y-461844D01*
X5956Y-459284D01*
X4395Y-456364D01*
X3434Y-453195D01*
X3114Y-449948D01*
X3124Y-449900D01*
Y-398023D01*
X10000D01*
X10000Y-398023D01*
Y-398033D01*
X12105Y-397756D01*
X14066Y-396943D01*
X15751Y-395651D01*
X17043Y-393966D01*
X17856Y-392005D01*
X18133Y-389900D01*
X17856Y-387795D01*
X17043Y-385833D01*
X15751Y-384149D01*
X14066Y-382856D01*
X12105Y-382044D01*
X10000Y-381767D01*
Y-381776D01*
X3124D01*
Y-363264D01*
X3114Y-363215D01*
X3434Y-359968D01*
X4395Y-356800D01*
X5956Y-353880D01*
X8056Y-351320D01*
X10616Y-349219D01*
X13493Y-347681D01*
X13542Y-347672D01*
X61810Y-327678D01*
X61825Y-327715D01*
X69203Y-324226D01*
X76203Y-320030D01*
X82759Y-315168D01*
X88806Y-309688D01*
X94286Y-303641D01*
X99148Y-297085D01*
X103344Y-290085D01*
X106833Y-282708D01*
X109583Y-275023D01*
X111566Y-267106D01*
X112763Y-259034D01*
X113164Y-250882D01*
X113124D01*
Y-218918D01*
X113164D01*
X112763Y-210766D01*
X111566Y-202693D01*
X109583Y-194776D01*
X106833Y-187092D01*
X103344Y-179715D01*
X99148Y-172714D01*
X94286Y-166159D01*
X88806Y-160112D01*
X82759Y-154631D01*
X76203Y-149770D01*
X69203Y-145574D01*
X61825Y-142084D01*
X61810Y-142121D01*
X14710Y-122612D01*
X14694Y-122605D01*
X13542Y-122128D01*
X13542Y-122128D01*
X12449Y-121560D01*
X10616Y-120580D01*
X8056Y-118480D01*
X5956Y-115920D01*
X4395Y-113000D01*
X3434Y-109831D01*
X3114Y-106585D01*
X3124Y-106536D01*
Y-88023D01*
X10000D01*
Y-88033D01*
X12105Y-87756D01*
X14066Y-86943D01*
X15751Y-85651D01*
X17043Y-83966D01*
X17856Y-82005D01*
X18133Y-79900D01*
X17856Y-77795D01*
X17043Y-75833D01*
X15751Y-74149D01*
X14066Y-72856D01*
X12105Y-72044D01*
X10000Y-71767D01*
Y-71776D01*
X10000Y-71776D01*
X3124D01*
Y-19900D01*
X3114Y-19851D01*
X3434Y-16604D01*
X4395Y-13436D01*
X5956Y-10516D01*
X8056Y-7956D01*
X10616Y-5856D01*
X13536Y-4295D01*
X16705Y-3333D01*
X19952Y-3014D01*
X20000Y-3023D01*
D02*
G37*
G36*
X172050Y-41880D02*
X172020Y-41688D01*
X171929Y-41516D01*
X171779Y-41365D01*
X171569Y-41233D01*
X171299Y-41122D01*
X170970Y-41031D01*
X170579Y-40961D01*
X170130Y-40910D01*
X169620Y-40880D01*
X169049Y-40870D01*
Y-37870D01*
X169624Y-37855D01*
X170138Y-37810D01*
X170592Y-37735D01*
X170985Y-37630D01*
X171318Y-37495D01*
X171591Y-37330D01*
X171804Y-37135D01*
X171956Y-36910D01*
X172048Y-36655D01*
X172080Y-36370D01*
X172050Y-41880D01*
D02*
G37*
G36*
X445355Y-38344D02*
X445185Y-38403D01*
X445035Y-38503D01*
X444905Y-38644D01*
X444795Y-38823D01*
X444705Y-39044D01*
X444635Y-39304D01*
X444585Y-39604D01*
X444555Y-39943D01*
X444545Y-40324D01*
X442545D01*
X442535Y-39943D01*
X442505Y-39604D01*
X442455Y-39304D01*
X442385Y-39044D01*
X442295Y-38823D01*
X442185Y-38644D01*
X442055Y-38503D01*
X441905Y-38403D01*
X441735Y-38344D01*
X441545Y-38324D01*
X445545D01*
X445355Y-38344D01*
D02*
G37*
G36*
X197449Y-38560D02*
X197419Y-38275D01*
X197330Y-38020D01*
X197180Y-37795D01*
X196970Y-37600D01*
X196700Y-37435D01*
X196369Y-37300D01*
X195979Y-37195D01*
X195529Y-37120D01*
X195019Y-37075D01*
X194450Y-37060D01*
Y-34060D01*
X195019Y-34045D01*
X195529Y-34000D01*
X195979Y-33925D01*
X196369Y-33820D01*
X196700Y-33685D01*
X196970Y-33520D01*
X197180Y-33325D01*
X197330Y-33100D01*
X197419Y-32845D01*
X197449Y-32560D01*
Y-38560D01*
D02*
G37*
G36*
X188020Y-32845D02*
X188111Y-33100D01*
X188260Y-33325D01*
X188470Y-33520D01*
X188741Y-33685D01*
X189070Y-33820D01*
X189461Y-33925D01*
X189911Y-34000D01*
X190420Y-34045D01*
X190991Y-34060D01*
Y-37060D01*
X190420Y-37075D01*
X189911Y-37120D01*
X189461Y-37195D01*
X189070Y-37300D01*
X188741Y-37435D01*
X188470Y-37600D01*
X188260Y-37795D01*
X188111Y-38020D01*
X188020Y-38275D01*
X187990Y-38560D01*
Y-32560D01*
X188020Y-32845D01*
D02*
G37*
G36*
X444555Y-45736D02*
X444585Y-46081D01*
X444635Y-46386D01*
X444705Y-46650D01*
X444795Y-46873D01*
X444905Y-47056D01*
X445035Y-47198D01*
X445185Y-47300D01*
X445355Y-47361D01*
X445545Y-47381D01*
X441545D01*
X441735Y-47361D01*
X441905Y-47300D01*
X442055Y-47198D01*
X442185Y-47056D01*
X442295Y-46873D01*
X442385Y-46650D01*
X442455Y-46386D01*
X442505Y-46081D01*
X442535Y-45736D01*
X442545Y-45350D01*
X444545D01*
X444555Y-45736D01*
D02*
G37*
G36*
X97142Y-58773D02*
X95782Y-60299D01*
X95230Y-61009D01*
X94762Y-61684D01*
X94380Y-62324D01*
X94082Y-62929D01*
X93870Y-63499D01*
X93742Y-64034D01*
X93700Y-64534D01*
X91700D01*
X91657Y-64034D01*
X91530Y-63499D01*
X91317Y-62929D01*
X91020Y-62324D01*
X90637Y-61684D01*
X90170Y-61009D01*
X89617Y-60299D01*
X88257Y-58773D01*
X87450Y-57957D01*
X97950D01*
X97142Y-58773D01*
D02*
G37*
G36*
X71742D02*
X70382Y-60299D01*
X69830Y-61009D01*
X69362Y-61684D01*
X68980Y-62324D01*
X68682Y-62929D01*
X68470Y-63499D01*
X68342Y-64034D01*
X68300Y-64534D01*
X66300D01*
X66257Y-64034D01*
X66130Y-63499D01*
X65917Y-62929D01*
X65620Y-62324D01*
X65237Y-61684D01*
X64770Y-61009D01*
X64217Y-60299D01*
X62857Y-58773D01*
X62050Y-57957D01*
X72550D01*
X71742Y-58773D01*
D02*
G37*
G36*
X43710Y-60090D02*
X43540Y-60150D01*
X43390Y-60250D01*
X43260Y-60390D01*
X43150Y-60570D01*
X43060Y-60790D01*
X42990Y-61050D01*
X42940Y-61350D01*
X42910Y-61690D01*
X42900Y-62070D01*
X40900D01*
X40890Y-61690D01*
X40860Y-61350D01*
X40810Y-61050D01*
X40740Y-60790D01*
X40650Y-60570D01*
X40540Y-60390D01*
X40410Y-60250D01*
X40260Y-60150D01*
X40090Y-60090D01*
X39900Y-60070D01*
X43900D01*
X43710Y-60090D01*
D02*
G37*
G36*
X248249Y-60880D02*
X248200Y-60405D01*
X248050Y-59980D01*
X247799Y-59605D01*
X247449Y-59280D01*
X246999Y-59005D01*
X246450Y-58780D01*
X245800Y-58605D01*
X245049Y-58480D01*
X244200Y-58405D01*
X243519Y-58387D01*
X242835Y-58405D01*
X241980Y-58480D01*
X241225Y-58605D01*
X240571Y-58780D01*
X240018Y-59005D01*
X239565Y-59280D01*
X239213Y-59605D01*
X238961Y-59980D01*
X238810Y-60405D01*
X238760Y-60880D01*
Y-50880D01*
X238810Y-51355D01*
X238961Y-51780D01*
X239213Y-52155D01*
X239565Y-52480D01*
X240018Y-52755D01*
X240571Y-52980D01*
X241225Y-53155D01*
X241980Y-53280D01*
X242835Y-53355D01*
X243519Y-53373D01*
X244200Y-53355D01*
X245049Y-53280D01*
X245800Y-53155D01*
X246450Y-52980D01*
X246999Y-52755D01*
X247449Y-52480D01*
X247799Y-52155D01*
X248050Y-51780D01*
X248200Y-51355D01*
X248249Y-50880D01*
Y-60880D01*
D02*
G37*
G36*
X464790Y-50260D02*
X464850Y-50430D01*
X464949Y-50580D01*
X465089Y-50710D01*
X465270Y-50820D01*
X465490Y-50910D01*
X465750Y-50980D01*
X466049Y-51030D01*
X466390Y-51060D01*
X466769Y-51070D01*
Y-53070D01*
X466390Y-53080D01*
X466049Y-53110D01*
X465750Y-53160D01*
X465490Y-53230D01*
X465270Y-53320D01*
X465089Y-53430D01*
X464949Y-53560D01*
X464850Y-53710D01*
X464790Y-53880D01*
X464770Y-54070D01*
Y-50070D01*
X464790Y-50260D01*
D02*
G37*
G36*
X468708Y-36390D02*
X468489Y-36181D01*
X468263Y-35994D01*
X468031Y-35829D01*
X467792Y-35686D01*
X467547Y-35565D01*
X467295Y-35466D01*
X467037Y-35389D01*
X466772Y-35334D01*
X466500Y-35301D01*
X466222Y-35290D01*
Y-33290D01*
X466500Y-33279D01*
X466772Y-33246D01*
X467037Y-33191D01*
X467295Y-33114D01*
X467547Y-33015D01*
X467792Y-32894D01*
X468031Y-32751D01*
X468263Y-32586D01*
X468489Y-32399D01*
X468708Y-32190D01*
Y-36390D01*
D02*
G37*
G36*
X100210Y-28293D02*
X100352Y-30133D01*
X100485Y-30955D01*
X100658Y-31712D01*
X100872Y-32404D01*
X101128Y-33030D01*
X101424Y-33591D01*
X101761Y-34087D01*
X102139Y-34518D01*
X100017Y-36640D01*
X99586Y-36262D01*
X99090Y-35925D01*
X98529Y-35629D01*
X97903Y-35373D01*
X97211Y-35159D01*
X96454Y-34986D01*
X95632Y-34853D01*
X94745Y-34761D01*
X92775Y-34701D01*
X100199Y-27276D01*
X100210Y-28293D01*
D02*
G37*
G36*
X461284Y-32480D02*
X461345Y-32650D01*
X461447Y-32800D01*
X461589Y-32930D01*
X461772Y-33040D01*
X461995Y-33130D01*
X462259Y-33200D01*
X462564Y-33250D01*
X462909Y-33280D01*
X463294Y-33290D01*
Y-35290D01*
X462909Y-35300D01*
X462564Y-35330D01*
X462259Y-35380D01*
X461995Y-35450D01*
X461772Y-35540D01*
X461589Y-35650D01*
X461447Y-35780D01*
X461345Y-35930D01*
X461284Y-36100D01*
X461264Y-36290D01*
Y-32290D01*
X461284Y-32480D01*
D02*
G37*
G36*
X51339Y-19883D02*
X50961Y-20314D01*
X50624Y-20810D01*
X50328Y-21372D01*
X50072Y-21998D01*
X49858Y-22690D01*
X49685Y-23447D01*
X49552Y-24269D01*
X49460Y-25156D01*
X49399Y-27126D01*
X41975Y-19701D01*
X42993Y-19691D01*
X44832Y-19549D01*
X45654Y-19416D01*
X46411Y-19243D01*
X47103Y-19028D01*
X47729Y-18773D01*
X48290Y-18477D01*
X48786Y-18140D01*
X49217Y-17762D01*
X51339Y-19883D01*
D02*
G37*
G36*
X250445Y-27642D02*
X251453Y-28484D01*
X251917Y-28801D01*
X252355Y-29051D01*
X252766Y-29232D01*
X253150Y-29344D01*
X253508Y-29388D01*
X253839Y-29364D01*
X254143Y-29271D01*
X248280Y-31832D01*
X248520Y-31675D01*
X248659Y-31459D01*
X248697Y-31183D01*
X248634Y-30848D01*
X248470Y-30454D01*
X248204Y-30000D01*
X247837Y-29486D01*
X247369Y-28914D01*
X246128Y-27589D01*
X249900Y-27119D01*
X250445Y-27642D01*
D02*
G37*
G36*
X299080Y-38560D02*
X299050Y-38275D01*
X298959Y-38020D01*
X298807Y-37795D01*
X298595Y-37600D01*
X298322Y-37435D01*
X297989Y-37300D01*
X297595Y-37195D01*
X297141Y-37120D01*
X296625Y-37075D01*
X296049Y-37060D01*
Y-34060D01*
X296625Y-34045D01*
X297141Y-34000D01*
X297595Y-33925D01*
X297989Y-33820D01*
X298322Y-33685D01*
X298595Y-33520D01*
X298807Y-33325D01*
X298959Y-33100D01*
X299050Y-32845D01*
X299080Y-32560D01*
Y-38560D01*
D02*
G37*
G36*
X222850D02*
X222819Y-38275D01*
X222729Y-38020D01*
X222579Y-37795D01*
X222369Y-37600D01*
X222099Y-37435D01*
X221770Y-37300D01*
X221380Y-37195D01*
X220930Y-37120D01*
X220420Y-37075D01*
X219849Y-37060D01*
Y-34060D01*
X220420Y-34045D01*
X220930Y-34000D01*
X221380Y-33925D01*
X221770Y-33820D01*
X222099Y-33685D01*
X222369Y-33520D01*
X222579Y-33325D01*
X222729Y-33100D01*
X222819Y-32845D01*
X222850Y-32560D01*
Y-38560D01*
D02*
G37*
G36*
X213390Y-32845D02*
X213481Y-33100D01*
X213633Y-33325D01*
X213845Y-33520D01*
X214118Y-33685D01*
X214451Y-33820D01*
X214845Y-33925D01*
X215299Y-34000D01*
X215815Y-34045D01*
X216390Y-34060D01*
Y-37060D01*
X215815Y-37075D01*
X215299Y-37120D01*
X214845Y-37195D01*
X214451Y-37300D01*
X214118Y-37435D01*
X213845Y-37600D01*
X213633Y-37795D01*
X213481Y-38020D01*
X213390Y-38275D01*
X213360Y-38560D01*
Y-32560D01*
X213390Y-32845D01*
D02*
G37*
G36*
X264190D02*
X264281Y-33100D01*
X264433Y-33325D01*
X264645Y-33520D01*
X264918Y-33685D01*
X265251Y-33820D01*
X265645Y-33925D01*
X266099Y-34000D01*
X266615Y-34045D01*
X267190Y-34060D01*
Y-37060D01*
X266615Y-37075D01*
X266099Y-37120D01*
X265645Y-37195D01*
X265251Y-37300D01*
X264918Y-37435D01*
X264645Y-37600D01*
X264433Y-37795D01*
X264281Y-38020D01*
X264190Y-38275D01*
X264160Y-38560D01*
Y-32560D01*
X264190Y-32845D01*
D02*
G37*
G36*
X289590D02*
X289681Y-33100D01*
X289833Y-33325D01*
X290045Y-33520D01*
X290318Y-33685D01*
X290651Y-33820D01*
X291045Y-33925D01*
X291500Y-34000D01*
X292015Y-34045D01*
X292591Y-34060D01*
Y-37060D01*
X292015Y-37075D01*
X291500Y-37120D01*
X291045Y-37195D01*
X290651Y-37300D01*
X290318Y-37435D01*
X290045Y-37600D01*
X289833Y-37795D01*
X289681Y-38020D01*
X289590Y-38275D01*
X289560Y-38560D01*
Y-32560D01*
X289590Y-32845D01*
D02*
G37*
G36*
X273650Y-38560D02*
X273619Y-38275D01*
X273529Y-38020D01*
X273379Y-37795D01*
X273169Y-37600D01*
X272899Y-37435D01*
X272570Y-37300D01*
X272180Y-37195D01*
X271730Y-37120D01*
X271220Y-37075D01*
X270650Y-37060D01*
Y-34060D01*
X271220Y-34045D01*
X271730Y-34000D01*
X272180Y-33925D01*
X272570Y-33820D01*
X272899Y-33685D01*
X273169Y-33520D01*
X273379Y-33325D01*
X273529Y-33100D01*
X273619Y-32845D01*
X273650Y-32560D01*
Y-38560D01*
D02*
G37*
G36*
X714411Y-133940D02*
X714396Y-135269D01*
X715600D01*
X715368Y-135339D01*
X715161Y-135549D01*
X714978Y-135899D01*
X714819Y-136390D01*
X714685Y-137020D01*
X714575Y-137789D01*
X714429Y-139749D01*
X714383Y-142124D01*
X714380Y-143871D01*
X707380D01*
X707370Y-141157D01*
X707368Y-140940D01*
X707075Y-137020D01*
X706941Y-136390D01*
X706782Y-135899D01*
X706600Y-135549D01*
X706392Y-135339D01*
X706161Y-135269D01*
X707348D01*
X707342Y-133833D01*
X714418D01*
X714411Y-133940D01*
D02*
G37*
G36*
X656673Y-142485D02*
X657465Y-143166D01*
X657804Y-143409D01*
X658106Y-143586D01*
X658370Y-143698D01*
X658596Y-143744D01*
X658785Y-143725D01*
X658936Y-143641D01*
X659049Y-143491D01*
X657141Y-147179D01*
X657212Y-146987D01*
X657234Y-146774D01*
X657209Y-146541D01*
X657136Y-146289D01*
X657016Y-146016D01*
X656847Y-145723D01*
X656631Y-145410D01*
X656367Y-145077D01*
X656056Y-144724D01*
X655696Y-144351D01*
X656220Y-142046D01*
X656673Y-142485D01*
D02*
G37*
G36*
X632289Y-136620D02*
X632350Y-136790D01*
X632452Y-136940D01*
X632594Y-137070D01*
X632777Y-137180D01*
X633000Y-137270D01*
X633264Y-137340D01*
X633569Y-137390D01*
X633914Y-137420D01*
X634300Y-137430D01*
Y-139430D01*
X633914Y-139440D01*
X633569Y-139470D01*
X633264Y-139520D01*
X633000Y-139590D01*
X632777Y-139680D01*
X632594Y-139790D01*
X632452Y-139920D01*
X632350Y-140070D01*
X632289Y-140240D01*
X632269Y-140430D01*
Y-136430D01*
X632289Y-136620D01*
D02*
G37*
G36*
X694910Y-132379D02*
X694740Y-132440D01*
X694590Y-132542D01*
X694460Y-132684D01*
X694350Y-132867D01*
X694260Y-133090D01*
X694190Y-133354D01*
X694140Y-133659D01*
X694110Y-134004D01*
X694100Y-134389D01*
X692100D01*
X692090Y-134004D01*
X692060Y-133659D01*
X692010Y-133354D01*
X691940Y-133090D01*
X691850Y-132867D01*
X691740Y-132684D01*
X691610Y-132542D01*
X691460Y-132440D01*
X691290Y-132379D01*
X691100Y-132359D01*
X695100D01*
X694910Y-132379D01*
D02*
G37*
G36*
X896877Y-106536D02*
X896887Y-106585D01*
X896567Y-109831D01*
X895606Y-113000D01*
X894045Y-115920D01*
X891944Y-118480D01*
X889385Y-120580D01*
X887561Y-121555D01*
X886459Y-122128D01*
Y-122128D01*
X885306Y-122605D01*
X838191Y-142121D01*
X838175Y-142084D01*
X830797Y-145574D01*
X823797Y-149770D01*
X817242Y-154631D01*
X811195Y-160112D01*
X805714Y-166159D01*
X800852Y-172714D01*
X796657Y-179715D01*
X793167Y-187092D01*
X790418Y-194776D01*
X788435Y-202693D01*
X787237Y-210766D01*
X786837Y-218918D01*
X786877D01*
Y-250882D01*
X786837D01*
X787237Y-259034D01*
X787698Y-262143D01*
X786484Y-262611D01*
X786326Y-262374D01*
X784341Y-261048D01*
X782000Y-260583D01*
X780710Y-260839D01*
X779728Y-260033D01*
Y-162560D01*
X779418Y-160999D01*
X778534Y-159676D01*
X767104Y-148246D01*
X765781Y-147362D01*
X764220Y-147052D01*
X764220Y-147052D01*
X731200D01*
X729639Y-147362D01*
X728316Y-148246D01*
X728316Y-148246D01*
X723456Y-153106D01*
X722572Y-154429D01*
X722262Y-155990D01*
X722262Y-155990D01*
Y-157747D01*
X720779Y-158042D01*
X720340Y-158336D01*
X719901Y-158042D01*
X718340Y-157732D01*
X717872Y-157825D01*
X716958Y-156712D01*
X717213Y-156097D01*
X717436Y-154400D01*
Y-143889D01*
X717439Y-143876D01*
X717442Y-142155D01*
X717485Y-139893D01*
X717599Y-138369D01*
X724050D01*
Y-139080D01*
X737550D01*
Y-125080D01*
X735098D01*
X734726Y-124594D01*
X733055Y-123312D01*
X732726Y-123176D01*
Y-121801D01*
X733935Y-121300D01*
X737550D01*
Y-116809D01*
X737724Y-116388D01*
X737999Y-114300D01*
X737724Y-112212D01*
X737550Y-111791D01*
Y-107300D01*
X733935D01*
X732018Y-106506D01*
X729930Y-106231D01*
X718949D01*
Y-88900D01*
X896877D01*
Y-106536D01*
D02*
G37*
G36*
X707220Y-168841D02*
X707340D01*
X707345Y-169027D01*
X707456Y-169194D01*
X708779Y-170078D01*
X710340Y-170388D01*
X711901Y-170078D01*
X712340Y-169784D01*
X712779Y-170078D01*
X714340Y-170388D01*
X715901Y-170078D01*
X716340Y-169784D01*
X716779Y-170078D01*
X718340Y-170388D01*
X719901Y-170078D01*
X720340Y-169784D01*
X720779Y-170078D01*
X722340Y-170388D01*
X723901Y-170078D01*
X724340Y-169784D01*
X724779Y-170078D01*
X726340Y-170388D01*
X727901Y-170078D01*
X728340Y-169784D01*
X728779Y-170078D01*
X730340Y-170388D01*
X731493Y-170159D01*
X731683Y-170263D01*
X732387Y-170967D01*
X732491Y-171157D01*
X732262Y-172310D01*
X732572Y-173871D01*
X732866Y-174310D01*
X732572Y-174749D01*
X732262Y-176310D01*
X732572Y-177871D01*
X732866Y-178310D01*
X732572Y-178749D01*
X732262Y-180310D01*
X732572Y-181871D01*
X732866Y-182310D01*
X732572Y-182749D01*
X732262Y-184310D01*
X732572Y-185871D01*
X732866Y-186310D01*
X732572Y-186749D01*
X732262Y-188310D01*
X732572Y-189871D01*
X732866Y-190310D01*
X732572Y-190749D01*
X732262Y-192310D01*
X732572Y-193871D01*
X732866Y-194310D01*
X732572Y-194749D01*
X732262Y-196310D01*
X732572Y-197871D01*
X732866Y-198310D01*
X732572Y-198749D01*
X732262Y-200310D01*
X732572Y-201871D01*
X732866Y-202310D01*
X732572Y-202749D01*
X732262Y-204310D01*
X732572Y-205871D01*
X732866Y-206310D01*
X732572Y-206749D01*
X732262Y-208310D01*
X732572Y-209871D01*
X732866Y-210310D01*
X732572Y-210749D01*
X732262Y-212310D01*
X732572Y-213871D01*
X732866Y-214310D01*
X732572Y-214749D01*
X732262Y-216310D01*
X732491Y-217463D01*
X732387Y-217653D01*
X731683Y-218357D01*
X731493Y-218461D01*
X730340Y-218232D01*
X728779Y-218542D01*
X728340Y-218836D01*
X727901Y-218542D01*
X726340Y-218232D01*
X724779Y-218542D01*
X724340Y-218836D01*
X723901Y-218542D01*
X722340Y-218232D01*
X720779Y-218542D01*
X720340Y-218836D01*
X719901Y-218542D01*
X718340Y-218232D01*
X716779Y-218542D01*
X716340Y-218836D01*
X715901Y-218542D01*
X714340Y-218232D01*
X712779Y-218542D01*
X712340Y-218836D01*
X711901Y-218542D01*
X710340Y-218232D01*
X708779Y-218542D01*
X708340Y-218836D01*
X707901Y-218542D01*
X706340Y-218232D01*
X704779Y-218542D01*
X704340Y-218836D01*
X703901Y-218542D01*
X702340Y-218232D01*
X700779Y-218542D01*
X700340Y-218836D01*
X699901Y-218542D01*
X698340Y-218232D01*
X696779Y-218542D01*
X696340Y-218836D01*
X695901Y-218542D01*
X694340Y-218232D01*
X692779Y-218542D01*
X692340Y-218836D01*
X691901Y-218542D01*
X690340Y-218232D01*
X688779Y-218542D01*
X688340Y-218836D01*
X687901Y-218542D01*
X686340Y-218232D01*
X685187Y-218461D01*
X684997Y-218357D01*
X684293Y-217653D01*
X684189Y-217463D01*
X684418Y-216310D01*
X684108Y-214749D01*
X683814Y-214310D01*
X684108Y-213871D01*
X684418Y-212310D01*
X684108Y-210749D01*
X683814Y-210310D01*
X684108Y-209871D01*
X684418Y-208310D01*
X684108Y-206749D01*
X683224Y-205426D01*
X683057Y-205315D01*
X682870Y-205310D01*
Y-205190D01*
X682696Y-205074D01*
Y-203546D01*
X682870Y-203430D01*
Y-203310D01*
X683057Y-203305D01*
X683224Y-203194D01*
X684108Y-201871D01*
X684418Y-200310D01*
X684108Y-198749D01*
X683814Y-198310D01*
X684108Y-197871D01*
X684418Y-196310D01*
X684108Y-194749D01*
X683814Y-194310D01*
X684108Y-193871D01*
X684418Y-192310D01*
X684108Y-190749D01*
X683814Y-190310D01*
X684108Y-189871D01*
X684418Y-188310D01*
X684108Y-186749D01*
X683814Y-186310D01*
X684108Y-185871D01*
X684418Y-184310D01*
X684108Y-182749D01*
X683814Y-182310D01*
X684108Y-181871D01*
X684418Y-180310D01*
X684108Y-178749D01*
X683814Y-178310D01*
X684108Y-177871D01*
X684418Y-176310D01*
X684108Y-174749D01*
X683814Y-174310D01*
X684108Y-173871D01*
X684418Y-172310D01*
X684189Y-171157D01*
X684293Y-170967D01*
X684997Y-170263D01*
X685187Y-170159D01*
X686340Y-170388D01*
X687901Y-170078D01*
X688340Y-169784D01*
X688779Y-170078D01*
X690340Y-170388D01*
X691901Y-170078D01*
X692340Y-169784D01*
X692779Y-170078D01*
X694340Y-170388D01*
X695901Y-170078D01*
X696340Y-169784D01*
X696779Y-170078D01*
X698340Y-170388D01*
X699901Y-170078D01*
X700340Y-169784D01*
X700779Y-170078D01*
X702340Y-170388D01*
X703901Y-170078D01*
X705224Y-169194D01*
X705335Y-169027D01*
X705340Y-168841D01*
X705460D01*
X705576Y-168666D01*
X707104D01*
X707220Y-168841D01*
D02*
G37*
G36*
X658841Y-169456D02*
X658679Y-169742D01*
X658537Y-170061D01*
X658413Y-170411D01*
X658308Y-170794D01*
X658222Y-171209D01*
X658167Y-171579D01*
X658651D01*
X658540Y-171595D01*
X658441Y-171644D01*
X658354Y-171724D01*
X658279Y-171837D01*
X658215Y-171982D01*
X658163Y-172159D01*
X658122Y-172368D01*
X658093Y-172610D01*
X658076Y-172884D01*
X658070Y-173190D01*
X656070D01*
X656064Y-172884D01*
X656018Y-172368D01*
X655977Y-172159D01*
X655925Y-171982D01*
X655861Y-171837D01*
X655786Y-171724D01*
X655698Y-171644D01*
X655600Y-171595D01*
X655490Y-171579D01*
X655973D01*
X655918Y-171209D01*
X655832Y-170794D01*
X655727Y-170411D01*
X655604Y-170061D01*
X655461Y-169742D01*
X655299Y-169456D01*
X655118Y-169202D01*
X659022D01*
X658841Y-169456D01*
D02*
G37*
G36*
X667939Y-167560D02*
X667725Y-167370D01*
X667475Y-167200D01*
X667189Y-167050D01*
X666867Y-166920D01*
X666509Y-166810D01*
X666115Y-166720D01*
X665686Y-166650D01*
X665220Y-166600D01*
X664834Y-166585D01*
X663983Y-166660D01*
X663230Y-166785D01*
X662577Y-166960D01*
X662024Y-167185D01*
X661571Y-167460D01*
X661218Y-167785D01*
X660965Y-168160D01*
X660812Y-168585D01*
X660759Y-169060D01*
X660789Y-163671D01*
X660839Y-163270D01*
X660990Y-162911D01*
X661239Y-162594D01*
X661590Y-162320D01*
X662039Y-162088D01*
X662589Y-161898D01*
X663240Y-161750D01*
X663989Y-161644D01*
X664180Y-161630D01*
Y-161560D01*
X664718Y-161550D01*
X665686Y-161470D01*
X666115Y-161400D01*
X666509Y-161310D01*
X666867Y-161200D01*
X667189Y-161070D01*
X667475Y-160920D01*
X667725Y-160750D01*
X667939Y-160560D01*
Y-167560D01*
D02*
G37*
G36*
X670070Y-148120D02*
X670129Y-148290D01*
X670229Y-148440D01*
X670369Y-148570D01*
X670549Y-148680D01*
X670770Y-148770D01*
X671030Y-148840D01*
X671329Y-148890D01*
X671669Y-148920D01*
X672049Y-148930D01*
Y-150930D01*
X671669Y-150940D01*
X671329Y-150970D01*
X671030Y-151020D01*
X670770Y-151090D01*
X670549Y-151180D01*
X670369Y-151290D01*
X670229Y-151420D01*
X670129Y-151570D01*
X670070Y-151740D01*
X670050Y-151930D01*
Y-147930D01*
X670070Y-148120D01*
D02*
G37*
G36*
X675295Y-160750D02*
X675545Y-160920D01*
X675831Y-161070D01*
X676153Y-161200D01*
X676511Y-161310D01*
X676905Y-161400D01*
X677335Y-161470D01*
X677800Y-161520D01*
X678840Y-161560D01*
Y-166560D01*
X678302Y-166570D01*
X677335Y-166650D01*
X676905Y-166720D01*
X676511Y-166810D01*
X676153Y-166920D01*
X675831Y-167050D01*
X675545Y-167200D01*
X675295Y-167370D01*
X675081Y-167560D01*
Y-160560D01*
X675295Y-160750D01*
D02*
G37*
G36*
X645690Y-115719D02*
X645520Y-115780D01*
X645370Y-115882D01*
X645240Y-116024D01*
X645130Y-116207D01*
X645040Y-116430D01*
X644970Y-116694D01*
X644920Y-116999D01*
X644890Y-117344D01*
X644880Y-117730D01*
X642880D01*
X642870Y-117344D01*
X642840Y-116999D01*
X642790Y-116694D01*
X642720Y-116430D01*
X642630Y-116207D01*
X642520Y-116024D01*
X642390Y-115882D01*
X642240Y-115780D01*
X642070Y-115719D01*
X641880Y-115699D01*
X645880D01*
X645690Y-115719D01*
D02*
G37*
G36*
X644890Y-118846D02*
X644920Y-119192D01*
X644970Y-119496D01*
X645040Y-119760D01*
X645130Y-119983D01*
X645240Y-120166D01*
X645370Y-120308D01*
X645520Y-120410D01*
X645690Y-120471D01*
X645880Y-120491D01*
X641880D01*
X642070Y-120471D01*
X642240Y-120410D01*
X642390Y-120308D01*
X642520Y-120166D01*
X642630Y-119983D01*
X642720Y-119760D01*
X642790Y-119496D01*
X642840Y-119192D01*
X642870Y-118846D01*
X642880Y-118461D01*
X644880D01*
X644890Y-118846D01*
D02*
G37*
G36*
X259530Y-126975D02*
X259360Y-127225D01*
X259210Y-127511D01*
X259080Y-127833D01*
X258970Y-128191D01*
X258880Y-128585D01*
X258810Y-129015D01*
X258760Y-129480D01*
X258720Y-130520D01*
X253720D01*
X253710Y-129982D01*
X253630Y-129015D01*
X253560Y-128585D01*
X253470Y-128191D01*
X253360Y-127833D01*
X253230Y-127511D01*
X253080Y-127225D01*
X252910Y-126975D01*
X252720Y-126761D01*
X259720D01*
X259530Y-126975D01*
D02*
G37*
G36*
X260745Y-62219D02*
X260320Y-62370D01*
X259945Y-62622D01*
X259620Y-62974D01*
X259345Y-63427D01*
X259120Y-63980D01*
X258945Y-64634D01*
X258935Y-64695D01*
X258970Y-64849D01*
X259080Y-65207D01*
X259210Y-65529D01*
X259360Y-65815D01*
X259530Y-66065D01*
X259720Y-66279D01*
X258744D01*
X258720Y-67200D01*
X253720D01*
X253696Y-66279D01*
X252720D01*
X252910Y-66065D01*
X253080Y-65815D01*
X253230Y-65529D01*
X253360Y-65207D01*
X253470Y-64849D01*
X253505Y-64695D01*
X253495Y-64634D01*
X253320Y-63980D01*
X253095Y-63427D01*
X252820Y-62974D01*
X252495Y-62622D01*
X252120Y-62370D01*
X251695Y-62219D01*
X251220Y-62169D01*
X261220D01*
X260745Y-62219D01*
D02*
G37*
G36*
X122048Y-106376D02*
X121867Y-106568D01*
X121695Y-106771D01*
X121533Y-106986D01*
X121381Y-107213D01*
X121103Y-107701D01*
X120979Y-107963D01*
X120758Y-108522D01*
X120661Y-108819D01*
X118717Y-105097D01*
X118983Y-105169D01*
X119243Y-105212D01*
X119497Y-105225D01*
X119746Y-105209D01*
X119988Y-105162D01*
X120224Y-105086D01*
X120455Y-104980D01*
X120680Y-104845D01*
X120898Y-104680D01*
X121111Y-104485D01*
X122048Y-106376D01*
D02*
G37*
G36*
X499881Y-108599D02*
X500107Y-108786D01*
X500339Y-108951D01*
X500578Y-109094D01*
X500823Y-109215D01*
X501075Y-109314D01*
X501333Y-109391D01*
X501599Y-109446D01*
X501870Y-109479D01*
X502148Y-109490D01*
Y-111490D01*
X501870Y-111501D01*
X501599Y-111534D01*
X501333Y-111589D01*
X501075Y-111666D01*
X500823Y-111765D01*
X500578Y-111886D01*
X500339Y-112029D01*
X500107Y-112194D01*
X499881Y-112381D01*
X499662Y-112590D01*
Y-108390D01*
X499881Y-108599D01*
D02*
G37*
G36*
X650364Y-128694D02*
X650406Y-128977D01*
X650477Y-129260D01*
X650576Y-129543D01*
X650703Y-129825D01*
X650859Y-130108D01*
X651042Y-130391D01*
X651255Y-130674D01*
X651495Y-130957D01*
X651764Y-131240D01*
Y-134068D01*
X651495Y-133807D01*
X651042Y-133414D01*
X650859Y-133282D01*
X650703Y-133194D01*
X650576Y-133148D01*
X650477Y-133146D01*
X650406Y-133188D01*
X650364Y-133272D01*
X650350Y-133399D01*
Y-128411D01*
X650364Y-128694D01*
D02*
G37*
G36*
X683100Y-132389D02*
X682928Y-132404D01*
X682805Y-132446D01*
X682729Y-132517D01*
X682701Y-132616D01*
X682721Y-132743D01*
X682789Y-132899D01*
X682905Y-133083D01*
X683068Y-133295D01*
X683279Y-133535D01*
X683538Y-133804D01*
X680710D01*
X680423Y-133531D01*
X680137Y-133286D01*
X679852Y-133070D01*
X679567Y-132883D01*
X679284Y-132724D01*
X679002Y-132594D01*
X678720Y-132493D01*
X678440Y-132419D01*
X678160Y-132375D01*
X677881Y-132359D01*
X683100Y-132389D01*
D02*
G37*
%LPC*%
G36*
X133030Y-221819D02*
X130289Y-222180D01*
X127735Y-223238D01*
X125541Y-224921D01*
X123858Y-227115D01*
X122800Y-229669D01*
X122439Y-232410D01*
X122800Y-235151D01*
X123858Y-237705D01*
X125541Y-239899D01*
X127735Y-241582D01*
X130289Y-242640D01*
X133030Y-243001D01*
X135771Y-242640D01*
X138325Y-241582D01*
X140519Y-239899D01*
X142202Y-237705D01*
X143260Y-235151D01*
X143621Y-232410D01*
X143260Y-229669D01*
X142202Y-227115D01*
X140519Y-224921D01*
X138325Y-223238D01*
X135771Y-222180D01*
X133030Y-221819D01*
D02*
G37*
G36*
X847801Y-356299D02*
X826801D01*
Y-377299D01*
X847801D01*
Y-356299D01*
D02*
G37*
G36*
X133030Y-196419D02*
X130289Y-196780D01*
X127735Y-197838D01*
X125541Y-199521D01*
X123858Y-201715D01*
X122800Y-204269D01*
X122439Y-207010D01*
X122800Y-209751D01*
X123858Y-212305D01*
X125541Y-214499D01*
X127735Y-216182D01*
X130289Y-217240D01*
X133030Y-217601D01*
X135771Y-217240D01*
X138325Y-216182D01*
X140519Y-214499D01*
X142202Y-212305D01*
X143260Y-209751D01*
X143621Y-207010D01*
X143260Y-204269D01*
X142202Y-201715D01*
X140519Y-199521D01*
X138325Y-197838D01*
X135771Y-196780D01*
X133030Y-196419D01*
D02*
G37*
G36*
Y-171019D02*
X130289Y-171380D01*
X127735Y-172438D01*
X125541Y-174121D01*
X123858Y-176315D01*
X122800Y-178869D01*
X122439Y-181610D01*
X122800Y-184351D01*
X123858Y-186905D01*
X125541Y-189099D01*
X127735Y-190782D01*
X130289Y-191840D01*
X133030Y-192201D01*
X135771Y-191840D01*
X138325Y-190782D01*
X140519Y-189099D01*
X142202Y-186905D01*
X143260Y-184351D01*
X143621Y-181610D01*
X143260Y-178869D01*
X142202Y-176315D01*
X140519Y-174121D01*
X138325Y-172438D01*
X135771Y-171380D01*
X133030Y-171019D01*
D02*
G37*
G36*
Y-247219D02*
X130289Y-247580D01*
X127735Y-248638D01*
X125541Y-250321D01*
X123858Y-252515D01*
X122800Y-255069D01*
X122439Y-257810D01*
X122800Y-260551D01*
X123858Y-263105D01*
X125541Y-265299D01*
X127735Y-266982D01*
X130289Y-268040D01*
X133030Y-268401D01*
X135771Y-268040D01*
X138325Y-266982D01*
X140519Y-265299D01*
X142202Y-263105D01*
X143260Y-260551D01*
X143621Y-257810D01*
X143260Y-255069D01*
X142202Y-252515D01*
X140519Y-250321D01*
X138325Y-248638D01*
X135771Y-247580D01*
X133030Y-247219D01*
D02*
G37*
G36*
X724100Y-358170D02*
X708100D01*
Y-384780D01*
X708089Y-384815D01*
X708100Y-384938D01*
Y-384997D01*
X708072Y-385140D01*
X708100Y-385282D01*
Y-388170D01*
X710367D01*
X710384Y-388233D01*
X710464Y-388721D01*
X710492Y-389044D01*
Y-411557D01*
X702353Y-419696D01*
X701180Y-419210D01*
Y-416989D01*
X682480D01*
Y-438991D01*
X701180D01*
Y-433598D01*
X701990D01*
X704136Y-433171D01*
X705955Y-431955D01*
X720065Y-417845D01*
X721281Y-416026D01*
X721708Y-413880D01*
Y-389044D01*
X721736Y-388722D01*
X721816Y-388232D01*
X721833Y-388170D01*
X724100D01*
Y-385282D01*
X724128Y-385140D01*
X724100Y-384997D01*
Y-384938D01*
X724111Y-384815D01*
X724100Y-384780D01*
Y-378902D01*
X724151Y-378888D01*
X724643Y-378807D01*
X724974Y-378778D01*
X733316D01*
X733647Y-378807D01*
X734139Y-378888D01*
X734190Y-378902D01*
Y-382140D01*
X758690D01*
Y-363140D01*
X734190D01*
Y-367438D01*
X734139Y-367452D01*
X733647Y-367533D01*
X733316Y-367562D01*
X724974D01*
X724643Y-367533D01*
X724151Y-367452D01*
X724100Y-367438D01*
Y-358170D01*
D02*
G37*
G36*
X862701Y-356208D02*
X859960Y-356569D01*
X857406Y-357627D01*
X855212Y-359310D01*
X853529Y-361504D01*
X852471Y-364058D01*
X852110Y-366799D01*
X852471Y-369540D01*
X853529Y-372094D01*
X855212Y-374287D01*
X857406Y-375971D01*
X859960Y-377029D01*
X862701Y-377389D01*
X865442Y-377029D01*
X867996Y-375971D01*
X870190Y-374287D01*
X871873Y-372094D01*
X872931Y-369540D01*
X873291Y-366799D01*
X872931Y-364058D01*
X871873Y-361504D01*
X870190Y-359310D01*
X867996Y-357627D01*
X865442Y-356569D01*
X862701Y-356208D01*
D02*
G37*
%LPD*%
G36*
X721089Y-368645D02*
X721240Y-369070D01*
X721492Y-369445D01*
X721844Y-369770D01*
X722297Y-370045D01*
X722850Y-370270D01*
X723504Y-370445D01*
X724258Y-370570D01*
X725114Y-370645D01*
X726069Y-370670D01*
Y-375670D01*
X725114Y-375695D01*
X724258Y-375770D01*
X723504Y-375895D01*
X722850Y-376070D01*
X722297Y-376295D01*
X721844Y-376570D01*
X721492Y-376895D01*
X721240Y-377270D01*
X721089Y-377695D01*
X721039Y-378170D01*
Y-368170D01*
X721089Y-368645D01*
D02*
G37*
G36*
X698158Y-424404D02*
X698274Y-424632D01*
X698467Y-424833D01*
X698738Y-425007D01*
X699087Y-425155D01*
X699513Y-425275D01*
X700016Y-425369D01*
X700596Y-425436D01*
X701255Y-425477D01*
X701990Y-425490D01*
Y-430490D01*
X701255Y-430503D01*
X700016Y-430611D01*
X699513Y-430704D01*
X699087Y-430825D01*
X698738Y-430973D01*
X698467Y-431147D01*
X698274Y-431348D01*
X698158Y-431576D01*
X698119Y-431830D01*
Y-424150D01*
X698158Y-424404D01*
D02*
G37*
G36*
X720600Y-385190D02*
X720181Y-385340D01*
X719810Y-385589D01*
X719489Y-385939D01*
X719217Y-386390D01*
X718995Y-386940D01*
X718822Y-387589D01*
X718699Y-388340D01*
X718625Y-389189D01*
X718600Y-390140D01*
X713600D01*
X713575Y-389189D01*
X713501Y-388340D01*
X713378Y-387589D01*
X713205Y-386940D01*
X712983Y-386390D01*
X712711Y-385939D01*
X712390Y-385589D01*
X712020Y-385340D01*
X711600Y-385190D01*
X711131Y-385140D01*
X721069D01*
X720600Y-385190D01*
D02*
G37*
G36*
X737251Y-378170D02*
X737201Y-377695D01*
X737050Y-377270D01*
X736798Y-376895D01*
X736446Y-376570D01*
X735993Y-376295D01*
X735440Y-376070D01*
X734786Y-375895D01*
X734032Y-375770D01*
X733176Y-375695D01*
X732221Y-375670D01*
Y-370670D01*
X733176Y-370645D01*
X734032Y-370570D01*
X734786Y-370445D01*
X735440Y-370270D01*
X735993Y-370045D01*
X736446Y-369770D01*
X736798Y-369445D01*
X737050Y-369070D01*
X737201Y-368645D01*
X737251Y-368170D01*
Y-378170D01*
D02*
G37*
D10*
X416720Y255640D02*
D03*
X484220D02*
D03*
Y215640D02*
D03*
D11*
X416720D02*
D03*
D12*
X385160Y225160D02*
D03*
Y245480D02*
D03*
X217520Y349620D02*
D03*
Y369940D02*
D03*
X329280Y162930D02*
D03*
Y183250D02*
D03*
X780130Y57520D02*
D03*
Y77840D02*
D03*
X253080Y88000D02*
D03*
Y108320D02*
D03*
X664560Y159120D02*
D03*
Y138800D02*
D03*
X524860Y154040D02*
D03*
Y133720D02*
D03*
X689960Y159120D02*
D03*
Y138800D02*
D03*
X209900Y161660D02*
D03*
Y181980D02*
D03*
X355950Y162930D02*
D03*
Y183250D02*
D03*
X159100Y237860D02*
D03*
Y258180D02*
D03*
X187040Y281040D02*
D03*
Y301360D02*
D03*
Y237860D02*
D03*
Y258180D02*
D03*
X113380Y349620D02*
D03*
Y369940D02*
D03*
X166720Y369940D02*
D03*
Y349620D02*
D03*
X141320Y349620D02*
D03*
Y369940D02*
D03*
X159100Y301360D02*
D03*
Y281040D02*
D03*
X192120Y349620D02*
D03*
Y369940D02*
D03*
X236570Y415660D02*
D03*
Y395340D02*
D03*
X269590Y415660D02*
D03*
Y395340D02*
D03*
X341980Y291200D02*
D03*
Y270880D02*
D03*
X293720Y369940D02*
D03*
Y349620D02*
D03*
X316580Y291200D02*
D03*
Y270880D02*
D03*
X268320Y369940D02*
D03*
Y349620D02*
D03*
X242920Y349620D02*
D03*
Y369940D02*
D03*
X180020Y-35560D02*
D03*
Y-55880D02*
D03*
X205420Y-55880D02*
D03*
Y-35560D02*
D03*
X230820Y-55880D02*
D03*
Y-35560D02*
D03*
X307020Y-35560D02*
D03*
Y-55880D02*
D03*
X281620D02*
D03*
Y-35560D02*
D03*
X256220Y-55880D02*
D03*
Y-35560D02*
D03*
D13*
X730000Y172000D02*
D03*
Y132000D02*
D03*
D14*
X656000Y81380D02*
D03*
X607000D02*
D03*
D15*
X705600Y70220D02*
D03*
X755600D02*
D03*
D16*
X712820Y376800D02*
D03*
Y332600D02*
D03*
X629000Y129400D02*
D03*
Y173600D02*
D03*
X773780Y166740D02*
D03*
Y122540D02*
D03*
X659480Y336920D02*
D03*
Y381120D02*
D03*
X430880Y119240D02*
D03*
Y163440D02*
D03*
D17*
X225140Y85460D02*
D03*
X204820D02*
D03*
X281020Y108320D02*
D03*
X301340D02*
D03*
X281020Y209920D02*
D03*
X301340D02*
D03*
Y159120D02*
D03*
X281020D02*
D03*
X301340Y133720D02*
D03*
X281020D02*
D03*
X281020Y184520D02*
D03*
X301340D02*
D03*
X301340Y82920D02*
D03*
X281020D02*
D03*
X179420Y62600D02*
D03*
X159100D02*
D03*
X204820Y110860D02*
D03*
X225140D02*
D03*
X124810Y63870D02*
D03*
X104490D02*
D03*
X124810Y90540D02*
D03*
X104490D02*
D03*
X124810Y117210D02*
D03*
X104490D02*
D03*
X159100Y161660D02*
D03*
X179420D02*
D03*
X179420Y187060D02*
D03*
X159100D02*
D03*
X124810Y142610D02*
D03*
X104490D02*
D03*
X159100Y136260D02*
D03*
X179420D02*
D03*
X124810Y38470D02*
D03*
X104490D02*
D03*
X179420Y86730D02*
D03*
X159100D02*
D03*
X179420Y112130D02*
D03*
X159100D02*
D03*
X192120Y395340D02*
D03*
X212440D02*
D03*
X164180D02*
D03*
X143860D02*
D03*
X179420Y212460D02*
D03*
X159100D02*
D03*
X296260Y316600D02*
D03*
X316580D02*
D03*
X192120Y419470D02*
D03*
X212440D02*
D03*
X691830Y-402590D02*
D03*
X671510D02*
D03*
X691830Y-289560D02*
D03*
X671510D02*
D03*
X691830Y-427990D02*
D03*
X671510D02*
D03*
D18*
X588360Y170020D02*
D03*
X575660D02*
D03*
X550260D02*
D03*
X588360Y121020D02*
D03*
X575660D02*
D03*
X562960D02*
D03*
X550260D02*
D03*
D19*
X448660Y393540D02*
D03*
Y422540D02*
D03*
X321660Y349620D02*
D03*
Y378620D02*
D03*
X746440Y-343640D02*
D03*
Y-372640D02*
D03*
D20*
X323460Y408040D02*
D03*
X294460D02*
D03*
X323460Y443600D02*
D03*
X294460D02*
D03*
X267580D02*
D03*
X238580D02*
D03*
D21*
X484600Y146420D02*
D03*
X468600D02*
D03*
X468600Y126100D02*
D03*
X484600D02*
D03*
X459800Y-52070D02*
D03*
X443800D02*
D03*
D22*
X467100Y164400D02*
D03*
X485998Y164454D02*
D03*
X476600Y189400D02*
D03*
D23*
X735680Y258180D02*
D03*
D24*
X648050D02*
D03*
D25*
X212440Y242300D02*
D03*
X225140D02*
D03*
X237840D02*
D03*
X250540D02*
D03*
X263240D02*
D03*
X275940D02*
D03*
X288640D02*
D03*
X212440Y289300D02*
D03*
X225140D02*
D03*
X237840D02*
D03*
X250540D02*
D03*
X263240D02*
D03*
X275940D02*
D03*
X288640D02*
D03*
D26*
X612560Y330500D02*
Y363660D01*
X771240Y47360D02*
X781400Y57520D01*
X780130Y77840D02*
X862559D01*
X756000Y69820D02*
Y85460D01*
X355950Y183250D02*
Y191050D01*
X340017Y206983D02*
X355950Y191050D01*
X329252Y206983D02*
X340017D01*
X520520Y422540D02*
X612560Y330500D01*
X448660Y422540D02*
X520520D01*
X181960Y209920D02*
X207815D01*
X333090Y303900D02*
X341980Y295010D01*
Y291200D02*
Y295010D01*
X164180Y395340D02*
Y408040D01*
X93060Y63870D02*
X104490D01*
X93060Y90540D02*
X104490D01*
X738220Y70220D02*
X755600D01*
X159100Y269610D02*
Y281040D01*
Y258180D02*
Y269610D01*
X477240Y222620D02*
X484220Y215640D01*
X428340Y222620D02*
X477240D01*
X421360Y215640D02*
X428340Y222620D01*
X484220Y215640D02*
X503900D01*
X416720D02*
X421360D01*
X397860Y225160D02*
X407380Y215640D01*
X385160Y225160D02*
X397860D01*
X735680Y244210D02*
Y245480D01*
X691230Y199760D02*
X735680Y244210D01*
X656940Y199760D02*
X691230D01*
X629000Y173600D02*
X655160Y199760D01*
X656940D01*
X735680Y258180D02*
Y284850D01*
X712820Y307710D02*
X735680Y284850D01*
X712820Y307710D02*
Y332600D01*
X705600Y69820D02*
Y70220D01*
Y69820D02*
X728060Y47360D01*
X779880Y122540D02*
X799322Y103099D01*
X773780Y122540D02*
X779880D01*
X757920D02*
X773780D01*
X705600Y70220D02*
X757920Y122540D01*
X687420Y70220D02*
X705600D01*
X667160D02*
X687420D01*
X656000Y81380D02*
X667160Y70220D01*
X763620Y67680D02*
X773780Y77840D01*
X862559D02*
X862701Y77699D01*
X735680Y258180D02*
X762350D01*
X735680Y245480D02*
Y258180D01*
X705600Y78240D02*
Y90140D01*
X837301Y103099D02*
X862701D01*
X799322D02*
X837301D01*
X630020Y381120D02*
X659480D01*
X612560Y363660D02*
X630020Y381120D01*
X712820Y376800D02*
Y397880D01*
X684880Y425820D02*
X712820Y397880D01*
X611220Y425820D02*
X684880D01*
X590900Y405500D02*
X611220Y425820D01*
X430880Y89120D02*
Y119240D01*
X430980Y163540D02*
Y191000D01*
X124810Y106081D02*
X124810Y106081D01*
Y117210D01*
X773780Y77840D02*
X780130D01*
X728060Y47360D02*
X771240D01*
X710880Y-114300D02*
Y-76200D01*
Y-130300D02*
X729020D01*
X710880Y-114300D02*
X729930D01*
D27*
X159100Y110860D02*
Y113400D01*
X249270Y88000D02*
X275940D01*
X249270D02*
X253080Y84190D01*
X246730Y88000D02*
X251810Y82920D01*
X179420Y110860D02*
X192120D01*
X179420D02*
X179420D01*
X340710Y133720D02*
X355950Y148960D01*
X301340Y133720D02*
X340710D01*
X378280Y422540D02*
X448660D01*
X357220Y443600D02*
X378280Y422540D01*
X323460Y443600D02*
X357220D01*
X124810Y60060D02*
Y63870D01*
X104490Y39740D02*
X124810Y60060D01*
X104490Y38470D02*
Y39740D01*
X207815Y209920D02*
X210752Y206983D01*
X179420Y212460D02*
X181960Y209920D01*
X801720Y34660D02*
X819359Y52299D01*
X625190Y34660D02*
X801720D01*
X569310Y90540D02*
X625190Y34660D01*
X565500Y82920D02*
X621380Y27040D01*
X509620Y82920D02*
X565500D01*
X484600Y107940D02*
X509620Y82920D01*
X621380Y27040D02*
X692500D01*
X519780Y90540D02*
X569310D01*
X129890Y251830D02*
Y284850D01*
X491840Y255640D02*
X514700Y232780D01*
Y184520D02*
Y232780D01*
X502000Y171820D02*
X514700Y184520D01*
X535000Y35930D02*
X541530D01*
X518510D02*
X535000D01*
X227680Y88000D02*
X246730D01*
X225140Y85460D02*
X227680Y88000D01*
X275940D02*
X281020Y82920D01*
X301340Y72760D02*
Y82920D01*
X296260Y67680D02*
X301340Y72760D01*
X245460Y67680D02*
X296260D01*
X344520Y342000D02*
X375000D01*
X336900Y349620D02*
X344520Y342000D01*
X321660Y349620D02*
X336900D01*
X819359Y52299D02*
X837301D01*
X502000Y108320D02*
Y171820D01*
X484220Y255640D02*
X491840D01*
X502000Y108320D02*
X519780Y90540D01*
X484600Y107940D02*
Y126100D01*
X692500Y27040D02*
X692642Y26899D01*
X837301D01*
X402940Y255640D02*
X416720D01*
X392780Y245480D02*
X402940Y255640D01*
X385160Y245480D02*
X392780D01*
X416720Y255640D02*
X484220D01*
X541530Y35930D02*
X557600Y52000D01*
X134970Y460110D02*
X156560Y438520D01*
X110111Y460110D02*
X134970D01*
X92695Y442693D02*
X110111Y460110D01*
X173070Y438520D02*
X192120Y419470D01*
X156560Y438520D02*
X173070D01*
X175610Y419470D02*
X192120D01*
X242920Y335650D02*
Y349620D01*
X147670Y312790D02*
X159100Y301360D01*
X110840Y312790D02*
X147670D01*
X54960Y368670D02*
X110840Y312790D01*
X54960Y368670D02*
Y429628D01*
X41895Y442693D02*
X54960Y429628D01*
X129890Y284850D02*
X146400Y301360D01*
X159100D01*
X192120Y110860D02*
X204820D01*
X179420D02*
Y112130D01*
Y86730D02*
Y110860D01*
Y62600D02*
Y86730D01*
X179420Y62600D02*
X179420Y62600D01*
X159100Y301360D02*
Y314060D01*
X166720Y321680D02*
X187040Y301360D01*
X141320Y321680D02*
X166720D01*
X113380Y349620D02*
X141320Y321680D01*
X216250Y38470D02*
X245460Y67680D01*
X124810Y38470D02*
X216250D01*
X146400Y85460D02*
Y122290D01*
X124810Y63870D02*
X146400Y85460D01*
X316580Y255640D02*
Y270880D01*
X316580Y270880D02*
X341980D01*
X316580Y270880D02*
X316580Y270880D01*
X314040Y184520D02*
X328010D01*
X301340D02*
X314040D01*
X141320Y335650D02*
Y349620D01*
X122270Y395340D02*
X143860D01*
X113380Y386450D02*
X122270Y395340D01*
X113380Y369940D02*
Y386450D01*
X79090Y369940D02*
X113380D01*
X67295Y381735D02*
X79090Y369940D01*
X67295Y381735D02*
Y417294D01*
X41895Y363955D02*
X117190Y288660D01*
X41895Y363955D02*
Y417294D01*
X117190Y162930D02*
Y288660D01*
X104490Y150230D02*
X117190Y162930D01*
X104490Y142610D02*
Y150230D01*
Y117210D02*
Y142610D01*
X146400Y122290D02*
X159100Y134990D01*
X124810Y142610D02*
X140050Y157850D01*
X124810Y142610D02*
Y142610D01*
X140050Y142610D02*
X159100Y161660D01*
X140050Y101970D02*
Y142610D01*
X128620Y90540D02*
X140050Y101970D01*
X124810Y90540D02*
X128620D01*
X159100Y134990D02*
Y136260D01*
X159100Y161660D02*
X159100Y161660D01*
Y187060D01*
X194660Y181980D02*
X194660Y181980D01*
X209900D01*
X179420Y133720D02*
Y136260D01*
X159100Y113400D02*
X179420Y133720D01*
X250540Y110860D02*
X253080Y108320D01*
X225140Y110860D02*
X250540D01*
X355950Y148960D02*
Y162930D01*
X301340Y82920D02*
X317487D01*
X372460Y137893D01*
Y170550D01*
X359760Y183250D02*
X372460Y170550D01*
X355950Y183250D02*
X359760D01*
X253080Y84190D02*
Y88000D01*
X281020Y108320D02*
X281020Y108320D01*
Y133720D01*
X328010Y184520D02*
X329280Y183250D01*
X253080Y108320D02*
X256890Y112130D01*
Y208650D01*
X263240Y215000D01*
Y242300D01*
X265780Y174360D02*
X281020Y159120D01*
X265780Y174360D02*
Y199760D01*
X275940Y209920D01*
X281020D01*
X301340D02*
Y217540D01*
X288640Y230240D02*
X301340Y217540D01*
X288640Y230240D02*
Y242300D01*
X275940Y225160D02*
Y242300D01*
Y225160D02*
X281020Y220080D01*
Y209920D02*
Y220080D01*
X286840Y415660D02*
X294460Y408040D01*
X269590Y415660D02*
X286840D01*
X238580Y417460D02*
X253080Y402960D01*
Y385180D02*
Y402960D01*
Y385180D02*
X268320Y369940D01*
X267050Y349620D02*
X268320D01*
X246730Y369940D02*
X267050Y349620D01*
X242920Y369940D02*
X246730D01*
X238580Y417460D02*
Y443600D01*
X267580D02*
X294460D01*
X321660Y378620D02*
X323460Y380420D01*
Y408040D01*
X293720Y369940D02*
Y407300D01*
X316580Y291200D02*
Y316600D01*
X314680Y289300D02*
X316580Y291200D01*
X288640Y289300D02*
X314680D01*
X293720Y319140D02*
X296260Y316600D01*
X293720Y319140D02*
Y349620D01*
X275940Y289300D02*
Y306440D01*
X286100Y316600D01*
X296260D01*
X263240Y344540D02*
X268320Y349620D01*
X263240Y289300D02*
Y344540D01*
X192120Y335650D02*
Y349620D01*
X237840Y289300D02*
Y298820D01*
X166720Y369940D02*
X166720Y369940D01*
X141320Y369940D02*
X166720D01*
X166720Y369940D02*
X192120Y395340D01*
X212440Y228970D02*
X225140Y216270D01*
Y197220D02*
Y216270D01*
X209900Y181980D02*
X225140Y197220D01*
Y227700D02*
X231490Y221350D01*
Y174360D02*
Y221350D01*
X218790Y161660D02*
X231490Y174360D01*
X179420Y136260D02*
X220060D01*
X237840Y154040D01*
Y242300D01*
X225140Y227700D02*
Y242300D01*
X209900Y161660D02*
X218790D01*
X209900Y161660D02*
X209900Y161660D01*
X179420Y161660D02*
X209900D01*
X212440Y228970D02*
Y242300D01*
X179420Y187060D02*
Y212460D01*
X159100Y212460D02*
X159100Y212460D01*
X159100Y212460D02*
Y237860D01*
X187040D01*
X218790Y273420D02*
X225140Y279770D01*
X201010Y273420D02*
X218790D01*
X193390Y281040D02*
X201010Y273420D01*
X225140Y279770D02*
Y289300D01*
X207990D02*
X212440D01*
X195930Y301360D02*
X207990Y289300D01*
X187040Y301360D02*
X195930D01*
X187040Y281040D02*
X193390D01*
X187040Y258180D02*
Y281040D01*
X166720Y349620D02*
X167990D01*
X188310Y369940D01*
X192120D01*
X281020Y184520D02*
Y185790D01*
X301340Y206110D01*
Y209920D01*
X281020Y133720D02*
Y137530D01*
X301340Y157850D01*
Y159120D01*
X217520Y319140D02*
X237840Y298820D01*
X181960Y319140D02*
X217520D01*
X166720Y334380D02*
Y349620D01*
Y334380D02*
X181960Y319140D01*
D28*
X525000Y287000D02*
X576170Y235830D01*
X525000Y287000D02*
Y322950D01*
D29*
X656000Y83920D02*
X657270Y82650D01*
X717900Y171820D02*
X768700D01*
X705200Y90540D02*
X705600Y90140D01*
X595240Y170020D02*
X595980Y169280D01*
X588360Y170020D02*
X595240D01*
X524860Y154040D02*
Y169280D01*
X725520Y128640D02*
Y131500D01*
X715360Y118480D02*
X725520Y128640D01*
X684880Y118480D02*
X715360D01*
X664560Y138800D02*
X684880Y118480D01*
X655160Y129400D02*
X664560Y138800D01*
X629000Y129400D02*
X655160D01*
X588360Y102560D02*
X607000Y83920D01*
X588360Y102560D02*
Y121020D01*
X620620D01*
X575660D02*
X588360D01*
X562960D02*
X575660D01*
X550260D02*
X562960D01*
X545180D02*
X550260D01*
X620620D02*
X629000Y129400D01*
X532480Y133720D02*
X545180Y121020D01*
X524860Y133720D02*
X532480D01*
X768700Y171820D02*
X773780Y166740D01*
X705200Y159120D02*
X717900Y171820D01*
X689960Y159120D02*
X705200D01*
X667100Y159120D02*
X668370D01*
X688690Y138800D01*
X689960D01*
X781400Y57520D02*
X786480D01*
X180020Y-39370D02*
X183830Y-35560D01*
X104869Y-39370D02*
X180020D01*
X256220Y-35560D02*
X307020D01*
X92700Y-27201D02*
X104869Y-39370D01*
X205420Y-35560D02*
X230820D01*
X41900Y-27201D02*
X61481Y-7620D01*
X228280D02*
X256220Y-35560D01*
X61481Y-7620D02*
X228280D01*
X307020Y-35560D02*
X307020Y-35560D01*
X183830Y-35560D02*
X205420D01*
D30*
X656940Y159120D02*
X667100D01*
X659480Y296280D02*
Y336920D01*
X648050Y284850D02*
X659480Y296280D01*
X648050Y258180D02*
Y284850D01*
X649320Y151500D02*
X656940Y159120D01*
X580740Y151500D02*
X649320D01*
X575660Y156580D02*
X580740Y151500D01*
X575660Y156580D02*
Y170020D01*
X608680Y197220D02*
X648050Y236590D01*
X560420Y197220D02*
X608680D01*
X550260Y187060D02*
X560420Y197220D01*
X648050Y236590D02*
Y258180D01*
X550260Y170020D02*
Y187060D01*
X710880Y-154400D02*
Y-130300D01*
D31*
X467100Y127600D02*
Y164400D01*
X217520Y369940D02*
Y382640D01*
X390240Y143880D02*
Y185959D01*
X319120Y235320D02*
X340879D01*
X390240Y185959D01*
X450000Y327000D02*
Y342000D01*
Y316670D02*
Y327000D01*
X236570Y386450D02*
X237840Y385180D01*
X236570Y386450D02*
Y395340D01*
X217520Y382640D02*
Y390260D01*
X212440Y381370D02*
X213710Y382640D01*
X217520D01*
X250540Y289300D02*
Y301360D01*
X217520Y334380D02*
X250540Y301360D01*
X217520Y334380D02*
Y349620D01*
X260700Y268340D02*
X286100D01*
X319120Y235320D01*
X250540Y278500D02*
X260700Y268340D01*
X250540Y278500D02*
Y289300D01*
X407380Y215640D02*
X416720D01*
X758140Y67680D02*
X763620D01*
X503900Y215640D02*
X504540Y215000D01*
X159100Y74665D02*
Y86730D01*
Y62600D02*
Y74665D01*
X204820Y70220D02*
X204820Y70220D01*
Y85460D01*
X301340Y108320D02*
X317850D01*
X329280Y148960D02*
Y162930D01*
X277210Y395340D02*
X286100Y386450D01*
X269590Y395340D02*
X277210D01*
X212440Y419470D02*
Y434710D01*
Y395340D02*
Y419470D01*
Y395340D02*
X236570D01*
X494126Y164454D02*
X494380Y164200D01*
X485998Y164454D02*
X494126D01*
X630780Y173600D02*
X656940Y199760D01*
X629000Y173600D02*
X630780D01*
X756000Y69820D02*
X758140Y67680D01*
X862701Y52299D02*
Y77699D01*
Y26899D02*
Y52299D01*
X430880Y297550D02*
X450000Y316670D01*
X448660Y393540D02*
X450000Y392200D01*
Y342000D02*
Y392200D01*
X484600Y146420D02*
X485998Y147818D01*
Y164454D01*
X467100Y127600D02*
X468600Y126100D01*
X430980Y191000D02*
X432580Y189400D01*
X476600D01*
X430880Y89120D02*
X431000Y89000D01*
X430880Y163440D02*
X430980Y163540D01*
X159100Y62600D02*
X159100Y62600D01*
X250540Y242300D02*
Y260720D01*
X212440Y395340D02*
X217520Y390260D01*
X693100Y-292100D02*
X729930Y-255270D01*
X672780Y-245580D02*
Y-232410D01*
X693100Y-401320D02*
Y-373170D01*
X670100Y-401180D02*
Y-373170D01*
X680400Y-273050D02*
X691830Y-284480D01*
X693100Y-373170D02*
Y-317710D01*
X746440Y-343640D02*
Y-328930D01*
X729930Y-245980D02*
X740090D01*
X693100Y-315170D02*
Y-292100D01*
X230820Y-55880D02*
X256220D01*
X133030Y-334010D02*
Y-308610D01*
Y-283210D01*
X628330Y-405130D02*
Y-331470D01*
X644630Y-315170D01*
X693100D01*
X133030Y-394970D02*
Y-334010D01*
Y-394970D02*
X158430Y-420370D01*
X613090D01*
X628330Y-405130D01*
X256220Y-69850D02*
Y-55880D01*
X133030Y-283210D02*
X214310D01*
X256220Y-241300D01*
Y-123190D01*
X676190Y-245980D02*
X680400Y-250190D01*
Y-273050D02*
Y-250190D01*
X729930Y-255270D02*
Y-245980D01*
Y-245930D01*
X634680Y-167640D02*
X643570D01*
X618170Y-152400D02*
X628330D01*
X744700Y-113030D02*
X752790D01*
X671510Y-164060D02*
X684210D01*
X657070Y-167640D02*
X660650Y-164060D01*
X671510D01*
X180020Y-67310D02*
Y-55880D01*
X205420Y-67310D02*
Y-55880D01*
X281620Y-67310D02*
Y-55880D01*
X307020Y-67310D02*
Y-55880D01*
X671510Y-427990D02*
X671510Y-427990D01*
X671510Y-427990D02*
Y-415290D01*
Y-402590D01*
X671510Y-443230D02*
Y-427990D01*
X671510Y-443230D02*
X671510Y-443230D01*
X691830Y-427990D02*
X701990D01*
X716100Y-413880D01*
Y-373170D01*
X745910D01*
D32*
X740090Y-245980D02*
D03*
Y-259480D02*
D03*
X693100Y-128670D02*
D03*
Y-115170D02*
D03*
X679130Y-128670D02*
D03*
Y-115170D02*
D03*
X690560Y-245980D02*
D03*
Y-259480D02*
D03*
X671510Y-245980D02*
D03*
Y-259480D02*
D03*
X628330Y-138900D02*
D03*
Y-152400D02*
D03*
X618170Y-230270D02*
D03*
Y-216770D02*
D03*
D33*
X708340Y-194310D02*
D03*
D34*
X678090Y-216310D02*
D03*
Y-212310D02*
D03*
Y-208310D02*
D03*
Y-204310D02*
D03*
Y-200310D02*
D03*
Y-196310D02*
D03*
Y-192310D02*
D03*
Y-188310D02*
D03*
Y-184310D02*
D03*
Y-180310D02*
D03*
Y-176310D02*
D03*
Y-172310D02*
D03*
X738590D02*
D03*
Y-176310D02*
D03*
Y-180310D02*
D03*
Y-184310D02*
D03*
Y-188310D02*
D03*
Y-192310D02*
D03*
Y-196310D02*
D03*
Y-200310D02*
D03*
Y-204310D02*
D03*
Y-208310D02*
D03*
Y-212310D02*
D03*
Y-216310D02*
D03*
D35*
X686340Y-164060D02*
D03*
X690340D02*
D03*
X694340D02*
D03*
X698340D02*
D03*
X702340D02*
D03*
X706340D02*
D03*
X710340D02*
D03*
X714340D02*
D03*
X718340D02*
D03*
X722340D02*
D03*
X726340D02*
D03*
X730340D02*
D03*
Y-224560D02*
D03*
X726340D02*
D03*
X722340D02*
D03*
X718340D02*
D03*
X714340D02*
D03*
X710340D02*
D03*
X706340D02*
D03*
X702340D02*
D03*
X698340D02*
D03*
X694340D02*
D03*
X690340D02*
D03*
X686340D02*
D03*
D36*
X744300Y-132080D02*
D03*
X730800D02*
D03*
Y-114300D02*
D03*
X744300D02*
D03*
X657070Y-167640D02*
D03*
X643570D02*
D03*
X643170Y-111760D02*
D03*
X656670D02*
D03*
D37*
X710880Y-114300D02*
D03*
Y-130300D02*
D03*
X656270Y-219330D02*
D03*
Y-235330D02*
D03*
X635950Y-235330D02*
D03*
Y-219330D02*
D03*
X804860Y-400940D02*
D03*
Y-416940D02*
D03*
D38*
X710880Y-74930D02*
D03*
D39*
X663580Y-149930D02*
D03*
Y-126930D02*
D03*
X643880Y-149930D02*
D03*
Y-126930D02*
D03*
D40*
X443545Y-34290D02*
D03*
X457515D02*
D03*
D41*
X670100Y-373170D02*
D03*
X693100Y-373170D02*
D03*
X716100Y-373170D02*
D03*
D42*
X693100Y-315170D02*
D03*
D43*
X691830Y-316440D02*
X693100Y-317710D01*
X706340Y-192310D02*
Y-164060D01*
X678090Y-204310D02*
X698340D01*
X627060Y-151530D02*
X628660Y-149930D01*
X627460Y-138430D02*
X651190D01*
X794469Y-417599D02*
X837301D01*
X732470Y-157480D02*
X757870D01*
X730340Y-159610D02*
X732470Y-157480D01*
X730340Y-164060D02*
Y-159610D01*
X757870Y-157480D02*
X768950Y-168560D01*
X709610Y-74930D02*
X710880Y-76200D01*
X729930Y-114300D02*
X731200Y-113030D01*
X729020Y-130300D02*
X730800Y-132080D01*
X679130Y-130810D02*
Y-128670D01*
Y-130810D02*
X698340Y-150020D01*
Y-164060D02*
Y-150020D01*
X677860Y-138430D02*
X694340Y-154910D01*
Y-164060D02*
Y-154910D01*
X690340Y-164060D02*
Y-159800D01*
X680470Y-149930D02*
X690340Y-159800D01*
X663580Y-149930D02*
X680470D01*
X643880Y-126930D02*
X646040D01*
X657540Y-138430D01*
X677860D01*
X662690Y-149930D02*
X663580D01*
X627060Y-138030D02*
X627460Y-138430D01*
X651190D02*
X662690Y-149930D01*
X628660D02*
X643880D01*
Y-126930D02*
Y-112470D01*
X643170Y-111760D02*
X643880Y-112470D01*
X656670Y-120020D02*
Y-111760D01*
Y-120020D02*
X663580Y-126930D01*
X646970Y-208310D02*
X678090D01*
X635950Y-219330D02*
X646970Y-208310D01*
X618170Y-216770D02*
X633390D01*
X635950Y-219330D01*
X663290Y-212310D02*
X678090D01*
X656270Y-219330D02*
X663290Y-212310D01*
X635950Y-235330D02*
X656270D01*
X635950Y-235330D02*
X635950Y-235330D01*
X618170Y-241300D02*
Y-230270D01*
X794469Y-442999D02*
X837301D01*
X738590Y-184310D02*
X754220D01*
X624680D02*
X678090D01*
X619790Y-188310D02*
X678090D01*
X613630Y-192310D02*
X678090D01*
X606200Y-196310D02*
X678090D01*
X691830Y-316440D02*
X693100Y-315170D01*
X670100Y-373170D02*
X671510Y-374580D01*
X745910Y-373170D02*
X746440Y-372640D01*
X738590Y-244480D02*
X740090Y-245980D01*
X678090Y-227100D02*
Y-216310D01*
X672780Y-232410D02*
X678090Y-227100D01*
X738590Y-244480D02*
Y-216310D01*
X690560Y-245980D02*
Y-238015D01*
X686340Y-233795D02*
Y-224560D01*
Y-233795D02*
X690560Y-238015D01*
Y-269240D02*
Y-259480D01*
X691830Y-402590D02*
X693100Y-401320D01*
X670100Y-401180D02*
X671510Y-402590D01*
X691830Y-289560D02*
Y-284480D01*
X722340Y-250160D02*
Y-224560D01*
X717230Y-255270D02*
X722340Y-250160D01*
X704530Y-266700D02*
Y-252380D01*
X714340Y-242570D01*
Y-224560D01*
X764220Y-412750D02*
X794469Y-442999D01*
X764220Y-412750D02*
Y-330200D01*
X770570Y-393700D02*
X794469Y-417599D01*
X770570Y-393700D02*
Y-328930D01*
X738590Y-200310D02*
X747360D01*
X754220Y-184310D02*
X762950Y-193040D01*
X726340Y-164060D02*
Y-155990D01*
X731200Y-151130D01*
X762950Y-313690D02*
X775650Y-326390D01*
Y-386080D02*
Y-326390D01*
X762950Y-313690D02*
Y-193040D01*
X782000Y-381000D02*
X783270Y-379730D01*
Y-326390D01*
X768950Y-312070D02*
X783270Y-326390D01*
X731200Y-151130D02*
X764220D01*
X775650Y-162560D01*
Y-302260D02*
Y-162560D01*
X768950Y-312070D02*
Y-168560D01*
X577530Y-391160D02*
Y-317500D01*
X602930Y-292100D01*
Y-203200D01*
X459800Y-52070D02*
X501330D01*
X627060Y-177800D01*
X497520Y-110490D02*
X510220D01*
X602930Y-203200D01*
X457515Y-34290D02*
X470850D01*
X117790Y-107950D02*
X119060D01*
X41900Y-81590D02*
Y-52601D01*
X67300Y-75240D02*
Y-52601D01*
X92700Y-73970D02*
Y-52601D01*
Y-73970D02*
X98740Y-80010D01*
X520380D01*
X624680Y-184310D01*
X67300Y-75240D02*
X79690Y-87630D01*
X519110D01*
X619790Y-188310D01*
X41900Y-81590D02*
X54290Y-93980D01*
X515300D01*
X613630Y-192310D01*
X119060Y-107950D02*
X125410Y-101600D01*
X511490D01*
X606200Y-196310D01*
X627060Y-177800D02*
X652460D01*
X657070Y-173190D01*
Y-167640D01*
X671510Y-245980D02*
X676190D01*
X740090Y-267970D02*
Y-259480D01*
X665160Y-125350D02*
Y-114300D01*
X663580Y-126930D02*
X665160Y-125350D01*
X679130Y-115170D02*
Y-106680D01*
X693100Y-115170D02*
Y-106680D01*
X744300Y-132080D02*
X752790D01*
X443545Y-51815D02*
Y-34290D01*
Y-51815D02*
X443800Y-52070D01*
X775650Y-302260D02*
X792160Y-318770D01*
Y-387350D02*
Y-318770D01*
X756600Y-314960D02*
X770570Y-328930D01*
X756600Y-314960D02*
Y-209550D01*
X747360Y-200310D02*
X756600Y-209550D01*
X750250Y-316230D02*
X764220Y-330200D01*
X738590Y-208310D02*
X746470D01*
X750250Y-212090D01*
Y-316230D02*
Y-212090D01*
X782000Y-285750D02*
Y-266700D01*
Y-285750D02*
X804860Y-308610D01*
Y-400940D02*
Y-308610D01*
X706340Y-192310D02*
X708340Y-194310D01*
X698340Y-204310D02*
X702340Y-200310D01*
X708340Y-194310D01*
X693100Y-134620D02*
Y-128670D01*
Y-134620D02*
X702340Y-143860D01*
Y-164060D02*
Y-143860D01*
X710340Y-164060D02*
Y-154940D01*
D44*
X710880Y-74930D02*
Y-28040D01*
X710881D01*
X726474Y-12446D02*
X884888D01*
X726474D02*
X726474D01*
X710880Y-28040D02*
X726474Y-12446D01*
D45*
X887552Y-12414D02*
D03*
D46*
X430880Y297550D02*
D03*
D47*
X518510Y35930D02*
D03*
X41895Y417294D02*
D03*
X41900Y-52601D02*
D03*
D48*
X590900Y405500D02*
D03*
X612900Y330500D02*
D03*
D49*
X270606Y36438D02*
D03*
D50*
X41895Y442693D02*
D03*
X67295Y417294D02*
D03*
Y442693D02*
D03*
X92695Y417294D02*
D03*
Y442693D02*
D03*
X118095Y417294D02*
D03*
Y442693D02*
D03*
X862701Y103099D02*
D03*
X837301Y77699D02*
D03*
X862701D02*
D03*
X837301Y52299D02*
D03*
X862701D02*
D03*
X837301Y26899D02*
D03*
X862701D02*
D03*
X133030Y-156210D02*
D03*
Y-181610D02*
D03*
Y-207010D02*
D03*
Y-232410D02*
D03*
Y-257810D02*
D03*
Y-283210D02*
D03*
Y-308610D02*
D03*
X41900Y-27201D02*
D03*
X67300Y-52601D02*
D03*
Y-27201D02*
D03*
X92700Y-52601D02*
D03*
Y-27201D02*
D03*
X118100Y-52601D02*
D03*
Y-27201D02*
D03*
X862701Y-366799D02*
D03*
X837301Y-392199D02*
D03*
X862701D02*
D03*
X837301Y-417599D02*
D03*
X862701D02*
D03*
X837301Y-442999D02*
D03*
X862701D02*
D03*
D51*
X837301Y103099D02*
D03*
X133030Y-334010D02*
D03*
X837301Y-366799D02*
D03*
D52*
X525000Y342000D02*
D03*
X450000D02*
D03*
X375000D02*
D03*
D53*
X210752Y206983D02*
D03*
X329252D02*
D03*
D54*
X583000Y229000D02*
D03*
X557600Y52000D02*
D03*
X431000Y89000D02*
D03*
D55*
X430980Y191000D02*
D03*
D56*
X590000Y252000D02*
D03*
X570000D02*
D03*
X550000D02*
D03*
X590000Y267000D02*
D03*
X570000D02*
D03*
X550000D02*
D03*
X535000D02*
D03*
X565000Y222000D02*
D03*
X550000Y237000D02*
D03*
X535000Y252000D02*
D03*
X520000Y267000D02*
D03*
X565000Y292000D02*
D03*
X550000Y282000D02*
D03*
X535000D02*
D03*
X520000D02*
D03*
X505000D02*
D03*
X550000Y297000D02*
D03*
X535000D02*
D03*
X520000D02*
D03*
X505000D02*
D03*
X550000Y312000D02*
D03*
X535000D02*
D03*
X520000D02*
D03*
X505000D02*
D03*
X550000Y327000D02*
D03*
X535000D02*
D03*
X520000D02*
D03*
X505000D02*
D03*
X465000D02*
D03*
X450000D02*
D03*
X435000D02*
D03*
X420000D02*
D03*
X237840Y385180D02*
D03*
X212440Y381370D02*
D03*
X164180Y408040D02*
D03*
X124810Y105780D02*
D03*
X93060Y63870D02*
D03*
Y90540D02*
D03*
X738220Y70220D02*
D03*
X129890Y251830D02*
D03*
X159100Y269610D02*
D03*
X762350Y258180D02*
D03*
X504540Y215000D02*
D03*
X159100Y74665D02*
D03*
X204820Y70220D02*
D03*
X317850Y108320D02*
D03*
X329280Y148960D02*
D03*
X333090Y303900D02*
D03*
X286100Y386450D02*
D03*
X212440Y434710D02*
D03*
X455000Y37000D02*
D03*
X535000Y35930D02*
D03*
X495000Y37000D02*
D03*
X475000D02*
D03*
X565000Y22000D02*
D03*
X545000D02*
D03*
X525000D02*
D03*
X505000D02*
D03*
X485000D02*
D03*
X465000D02*
D03*
Y52000D02*
D03*
X485000D02*
D03*
X505000D02*
D03*
X525000D02*
D03*
X494380Y164200D02*
D03*
X735680Y245480D02*
D03*
X756000Y85460D02*
D03*
X705200Y90540D02*
D03*
X390240Y143880D02*
D03*
X687420Y70220D02*
D03*
X595980Y169280D02*
D03*
X524860D02*
D03*
X175610Y419470D02*
D03*
X242920Y335650D02*
D03*
X192120Y110860D02*
D03*
X159100Y314060D02*
D03*
X316580Y255640D02*
D03*
X314040Y184520D02*
D03*
X141320Y335650D02*
D03*
X140050Y157850D02*
D03*
X194660Y181980D02*
D03*
X355950Y148960D02*
D03*
X250540Y260720D02*
D03*
X192120Y335650D02*
D03*
X206270Y-19900D02*
D03*
X181270D02*
D03*
X166270Y-24900D02*
D03*
X151270D02*
D03*
X136270D02*
D03*
X166270Y-49900D02*
D03*
X151270D02*
D03*
X136270D02*
D03*
X166270Y-64900D02*
D03*
X151270D02*
D03*
X136270D02*
D03*
X721270Y-144900D02*
D03*
X471270Y-9900D02*
D03*
X451270D02*
D03*
X436270D02*
D03*
Y-69900D02*
D03*
X451270D02*
D03*
X471270D02*
D03*
X486270D02*
D03*
X506270D02*
D03*
X546270Y-349900D02*
D03*
Y-334900D02*
D03*
X561270Y-349900D02*
D03*
Y-334900D02*
D03*
Y-319900D02*
D03*
X576270Y-299900D02*
D03*
X591270Y-284900D02*
D03*
X576270D02*
D03*
X591270Y-269900D02*
D03*
X576270D02*
D03*
X626270Y-429900D02*
D03*
Y-459900D02*
D03*
Y-444900D02*
D03*
X656270Y-459900D02*
D03*
X641270D02*
D03*
X656270Y-444900D02*
D03*
X641270D02*
D03*
X656270Y-429900D02*
D03*
X641270D02*
D03*
X656270Y-414900D02*
D03*
X641270D02*
D03*
X491270Y-24900D02*
D03*
Y-9900D02*
D03*
X506270D02*
D03*
Y-24900D02*
D03*
X521270Y-54900D02*
D03*
Y-39900D02*
D03*
Y-9900D02*
D03*
Y-24900D02*
D03*
X536270Y-69900D02*
D03*
Y-54900D02*
D03*
Y-39900D02*
D03*
Y-9900D02*
D03*
Y-24900D02*
D03*
X551270Y-84900D02*
D03*
Y-69900D02*
D03*
Y-54900D02*
D03*
Y-39900D02*
D03*
Y-9900D02*
D03*
Y-24900D02*
D03*
X566270Y-99900D02*
D03*
Y-84900D02*
D03*
Y-69900D02*
D03*
Y-54900D02*
D03*
Y-39900D02*
D03*
Y-9900D02*
D03*
Y-24900D02*
D03*
X581270Y-114900D02*
D03*
Y-99900D02*
D03*
Y-84900D02*
D03*
Y-69900D02*
D03*
Y-54900D02*
D03*
Y-39900D02*
D03*
Y-24900D02*
D03*
Y-9900D02*
D03*
X618170Y-241300D02*
D03*
X782000Y-266700D02*
D03*
X690560Y-269240D02*
D03*
X729930Y-245980D02*
D03*
X717230Y-255270D02*
D03*
X704530Y-266700D02*
D03*
X776920Y-388620D02*
D03*
X783270Y-379730D02*
D03*
X577530Y-391160D02*
D03*
X497520Y-110490D02*
D03*
X470850Y-34290D02*
D03*
X117790Y-107950D02*
D03*
X740090Y-267970D02*
D03*
X634680Y-167640D02*
D03*
X618170Y-152400D02*
D03*
X665160Y-114300D02*
D03*
X679130Y-106680D02*
D03*
X693100D02*
D03*
X752790Y-113030D02*
D03*
Y-132080D02*
D03*
X180020Y-67310D02*
D03*
X205420D02*
D03*
X281620D02*
D03*
X307020D02*
D03*
X671510Y-415290D02*
D03*
Y-443230D02*
D03*
X792160Y-387350D02*
D03*
X731270Y-94900D02*
D03*
X746270D02*
D03*
X761270D02*
D03*
X776270D02*
D03*
X791270D02*
D03*
X806270D02*
D03*
X821270D02*
D03*
X836270D02*
D03*
X851270D02*
D03*
X866270D02*
D03*
X881270D02*
D03*
Y-109900D02*
D03*
X866270D02*
D03*
X851270D02*
D03*
X836270D02*
D03*
X821270D02*
D03*
X806270D02*
D03*
X791270D02*
D03*
X776270D02*
D03*
Y-124900D02*
D03*
X791270D02*
D03*
X806270D02*
D03*
X821270D02*
D03*
X836270D02*
D03*
X851270D02*
D03*
X866270D02*
D03*
X791270Y-139900D02*
D03*
Y-154900D02*
D03*
X786270Y-174900D02*
D03*
Y-194900D02*
D03*
X806270Y-139900D02*
D03*
X821270D02*
D03*
X806270Y-154900D02*
D03*
X691270Y-94900D02*
D03*
X676270D02*
D03*
X661270D02*
D03*
X646270D02*
D03*
X641270Y-79900D02*
D03*
Y-64900D02*
D03*
Y-49900D02*
D03*
Y-34900D02*
D03*
Y-19900D02*
D03*
Y-9900D02*
D03*
X626270D02*
D03*
X611270D02*
D03*
X596270D02*
D03*
Y-64900D02*
D03*
X611270D02*
D03*
X626270D02*
D03*
X596270Y-34900D02*
D03*
X611270D02*
D03*
X626270D02*
D03*
X701270Y-234900D02*
D03*
X351270Y-389900D02*
D03*
X376270D02*
D03*
X401270D02*
D03*
X431270D02*
D03*
X456270D02*
D03*
X486270D02*
D03*
X516270D02*
D03*
X541270D02*
D03*
X616270Y-254900D02*
D03*
Y-269900D02*
D03*
Y-284900D02*
D03*
Y-299900D02*
D03*
X606270Y-309900D02*
D03*
X596270Y-319900D02*
D03*
Y-334900D02*
D03*
Y-349900D02*
D03*
X611270Y-319900D02*
D03*
Y-334900D02*
D03*
Y-349900D02*
D03*
X631270Y-254900D02*
D03*
Y-269900D02*
D03*
Y-284900D02*
D03*
Y-299900D02*
D03*
X646270Y-254900D02*
D03*
Y-269900D02*
D03*
Y-284900D02*
D03*
Y-299900D02*
D03*
X661270Y-254900D02*
D03*
Y-269900D02*
D03*
Y-284900D02*
D03*
Y-299900D02*
D03*
X731270Y-279900D02*
D03*
Y-294900D02*
D03*
Y-309900D02*
D03*
Y-324900D02*
D03*
Y-354900D02*
D03*
X706270Y-339900D02*
D03*
Y-354900D02*
D03*
X661270Y-329900D02*
D03*
X646270D02*
D03*
Y-344900D02*
D03*
X661270D02*
D03*
X626270Y-79900D02*
D03*
X611270D02*
D03*
X596270D02*
D03*
X626270Y-94900D02*
D03*
X611270D02*
D03*
X596270D02*
D03*
Y-49900D02*
D03*
X611270D02*
D03*
X626270D02*
D03*
X596270Y-19900D02*
D03*
X611270D02*
D03*
X626270D02*
D03*
X816270Y-379900D02*
D03*
X821270Y-389900D02*
D03*
Y-404900D02*
D03*
Y-429900D02*
D03*
X806270D02*
D03*
X851270Y-404900D02*
D03*
Y-429900D02*
D03*
X876270D02*
D03*
Y-404900D02*
D03*
X851270Y-379900D02*
D03*
X876270D02*
D03*
X851270Y-349900D02*
D03*
X876270D02*
D03*
X816270D02*
D03*
Y-329900D02*
D03*
X676270Y-369900D02*
D03*
X596270Y-109900D02*
D03*
Y-124900D02*
D03*
X611270Y-109900D02*
D03*
Y-124900D02*
D03*
Y-139900D02*
D03*
X626270Y-109900D02*
D03*
Y-124900D02*
D03*
X731270Y-414900D02*
D03*
X746270D02*
D03*
X731270Y-429900D02*
D03*
X746270D02*
D03*
X731270Y-444900D02*
D03*
X746270D02*
D03*
X731270Y-459900D02*
D03*
X746270D02*
D03*
X761270Y-444900D02*
D03*
X716270D02*
D03*
Y-429900D02*
D03*
X761270D02*
D03*
D57*
X702340Y-188310D02*
D03*
X714340D02*
D03*
X702340Y-200310D02*
D03*
X714340D02*
D03*
D58*
X726340Y-176310D02*
D03*
Y-188310D02*
D03*
Y-200310D02*
D03*
Y-212310D02*
D03*
X714340Y-176310D02*
D03*
Y-188310D02*
D03*
Y-200310D02*
D03*
Y-212310D02*
D03*
X702340Y-176310D02*
D03*
Y-188310D02*
D03*
Y-200310D02*
D03*
Y-212310D02*
D03*
X690340Y-176310D02*
D03*
Y-188310D02*
D03*
Y-200310D02*
D03*
Y-212310D02*
D03*
D59*
X672780Y-232410D02*
D03*
X671510Y-164060D02*
D03*
X746440Y-328930D02*
D03*
X256220Y-123190D02*
D03*
Y-69850D02*
D03*
M02*
