M48
;Layer_Color=9474304
;FILE_FORMAT=4:4
METRIC,LZ
;TYPE=PLATED
T1F00S00C0.3000
T2F00S00C0.3300
T3F00S00C0.6000
T5F00S00C0.9000
T6F00S00C1.0000
T7F00S00C1.0668
T8F00S00C1.5000
T10F00S00C5.0000
%
T01
X0054127Y-003899
X0057753Y-0039116
X0056127Y-003499
X0054627
Y-003349
X0056127
X0059627
X0061127
Y-003499
X0059627
X0064627Y-003449
Y-003299
X0066127
Y-003449
X0067627Y-003699
X0070627Y-003549
Y-003399
X0073127Y-003249
Y-003549
Y-004149
X0074627
Y-004299
X0073127
Y-004449
X0074627
Y-004599
X0073127
X0071627Y-004449
Y-004299
X0076127
Y-004449
X0080627Y-004299
X0082127
Y-004049
Y-003899
X0081627Y-003799
Y-003499
Y-003299
X0085127Y-003499
X0087627
Y-003799
Y-004049
X0085127
Y-004299
X0087627
X0085127Y-003799
X0079216Y-0038735
X0077692Y-0038862
X0078327Y-0037973
X0067151Y-0041529
X0065627Y-004149
Y-004299
Y-004449
Y-004599
X0064127
X0062627
Y-004449
Y-004299
X0064127
Y-004449
Y-004149
X0067151Y-0044323
X0051627Y-003899
X0048627
X0045627
X0043127
X0040127
X0037627
X0035127
X0011779Y-0010795
X0009306Y0006387
X0020482Y0007022
X0020627Y-000199
X0018127
X0016627Y-000249
X0015127
X0013627
Y-000499
X0015127
X0016627
Y-000649
X0015127
X0013627
X0018002Y-0006731
X0020542
X0028162
X0030702
X0043627Y-000699
X0045127
X0047127
X0048627
X0050627
X0052127Y-000549
Y-000399
Y-000249
X0050627
X0049127
Y-000099
X0050627
X0052127
X00525Y00022
X00505
X00485
X00465
X00455Y00037
X00475
X00495
X00485Y00052
X00505
X00525
X00465
X0047127Y-000099
X0045127
X0043627
X0047085Y-0003429
X0049752Y-0011049
X0053627Y-000699
X0055127
Y-000849
X0056627
Y-000999
X0058127
Y-001149
X0059627Y-001099
Y-001249
X0061127
Y-001099
Y-000949
Y-000799
Y-000649
X0059627
Y-000799
Y-000949
X0058127Y-000849
Y-000699
X0056627
Y-000549
X0055127
X0053627
Y-000399
Y-000249
Y-000099
X0055127
Y-000249
Y-000399
X0056627
Y-000249
Y-000099
X0058127
Y-000249
Y-000399
Y-000549
X0059627Y-000499
Y-000349
X0061127
Y-000499
X0062627
X0064127
Y-000649
Y-000799
X0062627
Y-000649
Y-000349
X0064127
Y-000199
Y-000099
X0062627
Y-000199
X0061127
Y-000099
X0059627
Y-000199
X00565Y00022
X00545
X00535Y0003593
X0068742Y0007022
X0073822
X0073127Y-000949
X0074627
X0076127
X0077627
X0079127
X0080627
X0082127
X0083627
X0085127
X0086627
X0088127
Y-001099
X0086627
Y-001249
X0085127
Y-001099
X0083627
X0082127
X0080627
X0079127
Y-001249
X0080627
X0082127
X0083627
X0082127Y-001399
X0080627
X0079127
Y-001549
X0080627
X0078627Y-001749
Y-001949
X00782Y-002667
X0074009Y-0026797
X0073127Y-002799
Y-002949
Y-003099
X0072993Y-0024598
X0071723Y-0025527
X0070453Y-002667
X0069056Y-0026924
X0066127Y-002699
X0064627
X0063127
X0061627
Y-002549
X0063127
X0064627
X0066127
Y-002849
X0064627
X0063127
X0061627
Y-002999
X0063127
X0064627
X0066127
X0060627Y-003099
X0061127Y-003199
X0059627
X0056127
X0057627Y-002999
Y-002849
X0059127
Y-002699
X0057627
X0061817Y-002413
Y-001524
X0061127Y-001399
X0062627Y-001249
Y-001099
Y-000949
X0064627
X0066127
X0067627
X0067913Y-0010668
X006931
X0069127Y-000949
X0066516Y-001143
X0063468Y-0016764
X0072127Y-001449
X0075279Y-0013208
Y-0011303
X0077627Y-001099
Y-001249
X0070127Y-002349
X007052Y0009054
X00756Y0008546
X0076235Y0025818
X0073568Y0024548
X0059Y00252
Y00267
X0057
Y00252
X0055
Y00267
X00535
Y00252
X0055Y00237
X00565Y00222
Y00292
X0055Y00297
Y00282
X00535
Y00297
Y00312
X0055
Y00327
X00535
X0059598Y0016928
X0052486
X0049438Y001642
X0050454Y00215
X0052Y00267
Y00282
X00505
Y00297
X0052
Y00312
X00505
Y00327
X0052
X00465
X0045
X00435
X0042
X0033309Y003039
X0031658Y0025564
X0025054Y0026072
X0024292Y0033565
X0019212
X0014132
X001591Y0031406
Y0026961
X0012989Y0025183
X0014005Y0015785
X0019466Y0018198
X0019212Y0011086
X001591Y00074665
X0031785Y0010832
X0032928Y0014896
X0035595
X0039024Y0014388
X0031404Y0018452
X002861Y0038645
X0023784Y0038518
X0021244Y0038137
Y0043471
X0017561Y0041947
X0016418Y0040804
X0012481Y0010578
X0009306Y0009054
T02
X0069034Y-0021231
X0070234
Y-0020031
X0069034
Y-0018831
X0070234
X0071434
X0072634
Y-0017631
X0071434
X0070234
X0069034
X0071434Y-0020031
Y-0021231
X0072634
Y-0020031
T03
X0074644Y-0032893
X0025622Y-0012319
Y-0006985
X0067151Y-0016406
X0070234Y-0018831
X0071434
Y-0020031
X0070234
X0067278Y-0023241
T05
X00837301Y-00442999
Y-00417599
Y-00392199
Y-00366799
X00862701
Y-00392199
Y-00417599
Y-00442999
X0013303Y-0033401
X001181Y-00052601
X000927
X000673
X000419
Y-00027201
X000673
X000927
X001181
X0013303Y-0015621
Y-0018161
Y-0020701
Y-0023241
Y-0025781
Y-0028321
Y-0030861
X0051851Y0003593
X00837301Y00026899
Y00052299
X00862701
Y00026899
Y00077699
Y00103099
X00837301
Y00077699
X00118095Y00417294
X00092695
X00067295
X00041895
Y00442693
X00067295
X00092695
X00118095
T06
X00210752Y00206983
X00329252
T07
X006129Y003305
X005909Y004055
T08
X005576Y00052
X00583Y00229
X0043098Y00191
X00431Y00089
T10
X00270606Y00036438
M30
