G04 Layer_Color=8388736*
%FSLAX44Y44*%
%MOMM*%
G71*
G01*
G75*
%ADD28C,5.0000*%
%ADD49C,3.0000*%
%ADD53C,2.0000*%
%ADD54C,3.0000*%
%ADD55O,3.0000X2.5000*%
%ADD57C,1.0000*%
%ADD67R,2.9532X1.6032*%
%ADD68R,2.9532X1.2032*%
%ADD69R,1.8034X1.4732*%
%ADD70R,1.7032X2.7032*%
%ADD71R,1.2032X3.2032*%
%ADD72R,2.7032X1.7032*%
%ADD73R,2.9462X2.3622*%
%ADD74R,1.4732X1.8034*%
%ADD75R,0.8032X2.2032*%
%ADD76R,2.0532X1.5032*%
%ADD77R,1.5032X2.0532*%
%ADD78R,1.2032X1.1532*%
%ADD79R,1.0532X1.4032*%
%ADD80O,4.2672X1.7032*%
%ADD81R,4.2672X1.7032*%
%ADD82O,0.8032X2.1032*%
%ADD83R,1.0032X0.9532*%
%ADD84R,4.9032X4.9032*%
%ADD85O,0.8532X0.4032*%
%ADD86O,0.4032X0.8532*%
%ADD87R,0.9532X1.0032*%
%ADD88R,1.1532X1.2032*%
%ADD89C,1.2032*%
%ADD90R,1.5032X1.5032*%
%ADD91R,0.9652X1.0160*%
%ADD92R,1.2032X2.6032*%
%ADD93R,3.5032X2.6032*%
%ADD94O,10.2032X4.2032*%
%ADD95R,1.7032X1.7032*%
%ADD96C,1.9032*%
%ADD97C,1.7032*%
%ADD98R,1.7032X1.7032*%
%ADD99O,6.2032X1.7032*%
D28*
X476600Y37200D02*
X550260D01*
X524860Y288660D02*
X575660Y237860D01*
X524860Y288660D02*
Y324220D01*
X453740Y314060D02*
Y324220D01*
X425800Y306440D02*
X443580Y324220D01*
D49*
X270606Y36438D02*
D03*
D53*
X210752Y206983D02*
D03*
X329252D02*
D03*
D54*
X583000Y229000D02*
D03*
X557600Y52000D02*
D03*
X431000Y89000D02*
D03*
D55*
X430980Y191000D02*
D03*
D57*
X702340Y-188310D02*
D03*
X714340D02*
D03*
X702340Y-200310D02*
D03*
X714340D02*
D03*
D67*
X416720Y255640D02*
D03*
X484220D02*
D03*
Y215640D02*
D03*
D68*
X416720D02*
D03*
D69*
X385160Y225160D02*
D03*
Y245480D02*
D03*
X217520Y349620D02*
D03*
Y369940D02*
D03*
X329280Y162930D02*
D03*
Y183250D02*
D03*
X780130Y57520D02*
D03*
Y77840D02*
D03*
X253080Y88000D02*
D03*
Y108320D02*
D03*
X664560Y159120D02*
D03*
Y138800D02*
D03*
X524860Y154040D02*
D03*
Y133720D02*
D03*
X689960Y159120D02*
D03*
Y138800D02*
D03*
X209900Y161660D02*
D03*
Y181980D02*
D03*
X355950Y162930D02*
D03*
Y183250D02*
D03*
X159100Y237860D02*
D03*
Y258180D02*
D03*
X187040Y281040D02*
D03*
Y301360D02*
D03*
Y237860D02*
D03*
Y258180D02*
D03*
X113380Y349620D02*
D03*
Y369940D02*
D03*
X166720Y369940D02*
D03*
Y349620D02*
D03*
X141320Y349620D02*
D03*
Y369940D02*
D03*
X159100Y301360D02*
D03*
Y281040D02*
D03*
X192120Y349620D02*
D03*
Y369940D02*
D03*
X236570Y415660D02*
D03*
Y395340D02*
D03*
X269590Y415660D02*
D03*
Y395340D02*
D03*
X341980Y291200D02*
D03*
Y270880D02*
D03*
X293720Y369940D02*
D03*
Y349620D02*
D03*
X316580Y291200D02*
D03*
Y270880D02*
D03*
X268320Y369940D02*
D03*
Y349620D02*
D03*
X242920Y349620D02*
D03*
Y369940D02*
D03*
X180020Y-35560D02*
D03*
Y-55880D02*
D03*
X205420Y-55880D02*
D03*
Y-35560D02*
D03*
X230820Y-55880D02*
D03*
Y-35560D02*
D03*
X307020Y-35560D02*
D03*
Y-55880D02*
D03*
X281620D02*
D03*
Y-35560D02*
D03*
X256220Y-55880D02*
D03*
Y-35560D02*
D03*
D70*
X730000Y172000D02*
D03*
Y132000D02*
D03*
D71*
X656000Y81380D02*
D03*
X607000D02*
D03*
D72*
X705600Y70220D02*
D03*
X755600D02*
D03*
D73*
X712820Y376800D02*
D03*
Y332600D02*
D03*
X629000Y129400D02*
D03*
Y173600D02*
D03*
X773780Y166740D02*
D03*
Y122540D02*
D03*
X659480Y336920D02*
D03*
Y381120D02*
D03*
X430880Y119240D02*
D03*
Y163440D02*
D03*
D74*
X225140Y85460D02*
D03*
X204820D02*
D03*
X281020Y108320D02*
D03*
X301340D02*
D03*
X281020Y209920D02*
D03*
X301340D02*
D03*
Y159120D02*
D03*
X281020D02*
D03*
X301340Y133720D02*
D03*
X281020D02*
D03*
X281020Y184520D02*
D03*
X301340D02*
D03*
X301340Y82920D02*
D03*
X281020D02*
D03*
X179420Y62600D02*
D03*
X159100D02*
D03*
X204820Y110860D02*
D03*
X225140D02*
D03*
X124810Y63870D02*
D03*
X104490D02*
D03*
X124810Y90540D02*
D03*
X104490D02*
D03*
X124810Y117210D02*
D03*
X104490D02*
D03*
X159100Y161660D02*
D03*
X179420D02*
D03*
X179420Y187060D02*
D03*
X159100D02*
D03*
X124810Y142610D02*
D03*
X104490D02*
D03*
X159100Y136260D02*
D03*
X179420D02*
D03*
X124810Y38470D02*
D03*
X104490D02*
D03*
X179420Y86730D02*
D03*
X159100D02*
D03*
X179420Y112130D02*
D03*
X159100D02*
D03*
X192120Y395340D02*
D03*
X212440D02*
D03*
X164180D02*
D03*
X143860D02*
D03*
X179420Y212460D02*
D03*
X159100D02*
D03*
X296260Y316600D02*
D03*
X316580D02*
D03*
X192120Y419470D02*
D03*
X212440D02*
D03*
X691830Y-402590D02*
D03*
X671510D02*
D03*
X691830Y-289560D02*
D03*
X671510D02*
D03*
X691830Y-427990D02*
D03*
X671510D02*
D03*
D75*
X588360Y170020D02*
D03*
X575660D02*
D03*
X550260D02*
D03*
X588360Y121020D02*
D03*
X575660D02*
D03*
X562960D02*
D03*
X550260D02*
D03*
D76*
X448660Y393540D02*
D03*
Y422540D02*
D03*
X321660Y349620D02*
D03*
Y378620D02*
D03*
X746440Y-343640D02*
D03*
Y-372640D02*
D03*
D77*
X323460Y408040D02*
D03*
X294460D02*
D03*
X323460Y443600D02*
D03*
X294460D02*
D03*
X267580D02*
D03*
X238580D02*
D03*
D78*
X484600Y146420D02*
D03*
X468600D02*
D03*
X468600Y126100D02*
D03*
X484600D02*
D03*
X459800Y-52070D02*
D03*
X443800D02*
D03*
D79*
X467100Y164400D02*
D03*
X485998Y164454D02*
D03*
X476600Y189400D02*
D03*
D80*
X735680Y258180D02*
D03*
D81*
X648050D02*
D03*
D82*
X212440Y242300D02*
D03*
X225140D02*
D03*
X237840D02*
D03*
X250540D02*
D03*
X263240D02*
D03*
X275940D02*
D03*
X288640D02*
D03*
X212440Y289300D02*
D03*
X225140D02*
D03*
X237840D02*
D03*
X250540D02*
D03*
X263240D02*
D03*
X275940D02*
D03*
X288640D02*
D03*
D83*
X740090Y-245980D02*
D03*
Y-259480D02*
D03*
X693100Y-128670D02*
D03*
Y-115170D02*
D03*
X679130Y-128670D02*
D03*
Y-115170D02*
D03*
X690560Y-245980D02*
D03*
Y-259480D02*
D03*
X671510Y-245980D02*
D03*
Y-259480D02*
D03*
X628330Y-138900D02*
D03*
Y-152400D02*
D03*
X618170Y-230270D02*
D03*
Y-216770D02*
D03*
D84*
X708340Y-194310D02*
D03*
D85*
X678090Y-216310D02*
D03*
Y-212310D02*
D03*
Y-208310D02*
D03*
Y-204310D02*
D03*
Y-200310D02*
D03*
Y-196310D02*
D03*
Y-192310D02*
D03*
Y-188310D02*
D03*
Y-184310D02*
D03*
Y-180310D02*
D03*
Y-176310D02*
D03*
Y-172310D02*
D03*
X738590D02*
D03*
Y-176310D02*
D03*
Y-180310D02*
D03*
Y-184310D02*
D03*
Y-188310D02*
D03*
Y-192310D02*
D03*
Y-196310D02*
D03*
Y-200310D02*
D03*
Y-204310D02*
D03*
Y-208310D02*
D03*
Y-212310D02*
D03*
Y-216310D02*
D03*
D86*
X686340Y-164060D02*
D03*
X690340D02*
D03*
X694340D02*
D03*
X698340D02*
D03*
X702340D02*
D03*
X706340D02*
D03*
X710340D02*
D03*
X714340D02*
D03*
X718340D02*
D03*
X722340D02*
D03*
X726340D02*
D03*
X730340D02*
D03*
Y-224560D02*
D03*
X726340D02*
D03*
X722340D02*
D03*
X718340D02*
D03*
X714340D02*
D03*
X710340D02*
D03*
X706340D02*
D03*
X702340D02*
D03*
X698340D02*
D03*
X694340D02*
D03*
X690340D02*
D03*
X686340D02*
D03*
D87*
X744300Y-132080D02*
D03*
X730800D02*
D03*
Y-114300D02*
D03*
X744300D02*
D03*
X657070Y-167640D02*
D03*
X643570D02*
D03*
X643170Y-111760D02*
D03*
X656670D02*
D03*
D88*
X710880Y-114300D02*
D03*
Y-130300D02*
D03*
X656270Y-219330D02*
D03*
Y-235330D02*
D03*
X635950Y-235330D02*
D03*
Y-219330D02*
D03*
X804860Y-400940D02*
D03*
Y-416940D02*
D03*
D89*
X710880Y-74930D02*
D03*
D90*
X663580Y-149930D02*
D03*
Y-126930D02*
D03*
X643880Y-149930D02*
D03*
Y-126930D02*
D03*
D91*
X443545Y-34290D02*
D03*
X457515D02*
D03*
D92*
X670100Y-373170D02*
D03*
X693100Y-373170D02*
D03*
X716100Y-373170D02*
D03*
D93*
X693100Y-315170D02*
D03*
D94*
X430880Y297550D02*
D03*
D95*
X518510Y35930D02*
D03*
X41895Y417294D02*
D03*
X41900Y-52601D02*
D03*
D96*
X590900Y405500D02*
D03*
X612900Y330500D02*
D03*
D97*
X41895Y442693D02*
D03*
X67295Y417294D02*
D03*
Y442693D02*
D03*
X92695Y417294D02*
D03*
Y442693D02*
D03*
X118095Y417294D02*
D03*
Y442693D02*
D03*
X862701Y103099D02*
D03*
X837301Y77699D02*
D03*
X862701D02*
D03*
X837301Y52299D02*
D03*
X862701D02*
D03*
X837301Y26899D02*
D03*
X862701D02*
D03*
X133030Y-156210D02*
D03*
Y-181610D02*
D03*
Y-207010D02*
D03*
Y-232410D02*
D03*
Y-257810D02*
D03*
Y-283210D02*
D03*
Y-308610D02*
D03*
X41900Y-27201D02*
D03*
X67300Y-52601D02*
D03*
Y-27201D02*
D03*
X92700Y-52601D02*
D03*
Y-27201D02*
D03*
X118100Y-52601D02*
D03*
Y-27201D02*
D03*
X862701Y-366799D02*
D03*
X837301Y-392199D02*
D03*
X862701D02*
D03*
X837301Y-417599D02*
D03*
X862701D02*
D03*
X837301Y-442999D02*
D03*
X862701D02*
D03*
D98*
X837301Y103099D02*
D03*
X133030Y-334010D02*
D03*
X837301Y-366799D02*
D03*
D99*
X525000Y342000D02*
D03*
X450000D02*
D03*
X375000D02*
D03*
M02*
