G04 Layer_Color=8421504*
%FSLAX44Y44*%
%MOMM*%
G71*
G01*
G75*
%ADD10R,2.7500X1.4000*%
%ADD11R,2.7500X1.0000*%
%ADD12R,1.6002X1.2700*%
%ADD13R,1.5000X2.5000*%
%ADD14R,1.0000X3.0000*%
%ADD15R,2.5000X1.5000*%
%ADD16R,2.7430X2.1590*%
%ADD17R,1.2700X1.6002*%
%ADD18R,0.6000X2.0000*%
%ADD19R,1.8500X1.3000*%
%ADD20R,1.3000X1.8500*%
%ADD21R,1.0000X0.9500*%
%ADD22R,0.8500X1.2000*%
%ADD23O,4.0640X1.5000*%
%ADD24R,4.0640X1.5000*%
%ADD25O,0.6000X1.9000*%
%ADD32R,0.8000X0.7500*%
%ADD33R,4.7000X4.7000*%
%ADD34O,0.6500X0.2000*%
%ADD35O,0.2000X0.6500*%
%ADD36R,0.7500X0.8000*%
%ADD37R,0.9500X1.0000*%
%ADD38C,1.0000*%
%ADD39R,1.3000X1.3000*%
%ADD40R,0.7620X0.8128*%
%ADD41R,1.0000X2.4000*%
%ADD42R,3.3000X2.4000*%
D10*
X416720Y255640D02*
D03*
X484220D02*
D03*
Y215640D02*
D03*
D11*
X416720D02*
D03*
D12*
X385160Y225160D02*
D03*
Y245480D02*
D03*
X217520Y349620D02*
D03*
Y369940D02*
D03*
X329280Y162930D02*
D03*
Y183250D02*
D03*
X780130Y57520D02*
D03*
Y77840D02*
D03*
X253080Y88000D02*
D03*
Y108320D02*
D03*
X664560Y159120D02*
D03*
Y138800D02*
D03*
X524860Y154040D02*
D03*
Y133720D02*
D03*
X689960Y159120D02*
D03*
Y138800D02*
D03*
X209900Y161660D02*
D03*
Y181980D02*
D03*
X355950Y162930D02*
D03*
Y183250D02*
D03*
X159100Y237860D02*
D03*
Y258180D02*
D03*
X187040Y281040D02*
D03*
Y301360D02*
D03*
Y237860D02*
D03*
Y258180D02*
D03*
X113380Y349620D02*
D03*
Y369940D02*
D03*
X166720Y369940D02*
D03*
Y349620D02*
D03*
X141320Y349620D02*
D03*
Y369940D02*
D03*
X159100Y301360D02*
D03*
Y281040D02*
D03*
X192120Y349620D02*
D03*
Y369940D02*
D03*
X236570Y415660D02*
D03*
Y395340D02*
D03*
X269590Y415660D02*
D03*
Y395340D02*
D03*
X341980Y291200D02*
D03*
Y270880D02*
D03*
X293720Y369940D02*
D03*
Y349620D02*
D03*
X316580Y291200D02*
D03*
Y270880D02*
D03*
X268320Y369940D02*
D03*
Y349620D02*
D03*
X242920Y349620D02*
D03*
Y369940D02*
D03*
X180020Y-35560D02*
D03*
Y-55880D02*
D03*
X205420Y-55880D02*
D03*
Y-35560D02*
D03*
X230820Y-55880D02*
D03*
Y-35560D02*
D03*
X307020Y-35560D02*
D03*
Y-55880D02*
D03*
X281620D02*
D03*
Y-35560D02*
D03*
X256220Y-55880D02*
D03*
Y-35560D02*
D03*
D13*
X730000Y172000D02*
D03*
Y132000D02*
D03*
D14*
X656000Y81380D02*
D03*
X607000D02*
D03*
D15*
X705600Y70220D02*
D03*
X755600D02*
D03*
D16*
X712820Y376800D02*
D03*
Y332600D02*
D03*
X629000Y129400D02*
D03*
Y173600D02*
D03*
X773780Y166740D02*
D03*
Y122540D02*
D03*
X659480Y336920D02*
D03*
Y381120D02*
D03*
X430880Y119240D02*
D03*
Y163440D02*
D03*
D17*
X225140Y85460D02*
D03*
X204820D02*
D03*
X281020Y108320D02*
D03*
X301340D02*
D03*
X281020Y209920D02*
D03*
X301340D02*
D03*
Y159120D02*
D03*
X281020D02*
D03*
X301340Y133720D02*
D03*
X281020D02*
D03*
X281020Y184520D02*
D03*
X301340D02*
D03*
X301340Y82920D02*
D03*
X281020D02*
D03*
X179420Y62600D02*
D03*
X159100D02*
D03*
X204820Y110860D02*
D03*
X225140D02*
D03*
X124810Y63870D02*
D03*
X104490D02*
D03*
X124810Y90540D02*
D03*
X104490D02*
D03*
X124810Y117210D02*
D03*
X104490D02*
D03*
X159100Y161660D02*
D03*
X179420D02*
D03*
X179420Y187060D02*
D03*
X159100D02*
D03*
X124810Y142610D02*
D03*
X104490D02*
D03*
X159100Y136260D02*
D03*
X179420D02*
D03*
X124810Y38470D02*
D03*
X104490D02*
D03*
X179420Y86730D02*
D03*
X159100D02*
D03*
X179420Y112130D02*
D03*
X159100D02*
D03*
X192120Y395340D02*
D03*
X212440D02*
D03*
X164180D02*
D03*
X143860D02*
D03*
X179420Y212460D02*
D03*
X159100D02*
D03*
X296260Y316600D02*
D03*
X316580D02*
D03*
X192120Y419470D02*
D03*
X212440D02*
D03*
X691830Y-402590D02*
D03*
X671510D02*
D03*
X691830Y-289560D02*
D03*
X671510D02*
D03*
X691830Y-427990D02*
D03*
X671510D02*
D03*
D18*
X588360Y170020D02*
D03*
X575660D02*
D03*
X550260D02*
D03*
X588360Y121020D02*
D03*
X575660D02*
D03*
X562960D02*
D03*
X550260D02*
D03*
D19*
X448660Y393540D02*
D03*
Y422540D02*
D03*
X321660Y349620D02*
D03*
Y378620D02*
D03*
X746440Y-343640D02*
D03*
Y-372640D02*
D03*
D20*
X323460Y408040D02*
D03*
X294460D02*
D03*
X323460Y443600D02*
D03*
X294460D02*
D03*
X267580D02*
D03*
X238580D02*
D03*
D21*
X484600Y146420D02*
D03*
X468600D02*
D03*
X468600Y126100D02*
D03*
X484600D02*
D03*
X459800Y-52070D02*
D03*
X443800D02*
D03*
D22*
X467100Y164400D02*
D03*
X485998Y164454D02*
D03*
X476600Y189400D02*
D03*
D23*
X735680Y258180D02*
D03*
D24*
X648050D02*
D03*
D25*
X212440Y242300D02*
D03*
X225140D02*
D03*
X237840D02*
D03*
X250540D02*
D03*
X263240D02*
D03*
X275940D02*
D03*
X288640D02*
D03*
X212440Y289300D02*
D03*
X225140D02*
D03*
X237840D02*
D03*
X250540D02*
D03*
X263240D02*
D03*
X275940D02*
D03*
X288640D02*
D03*
D32*
X740090Y-245980D02*
D03*
Y-259480D02*
D03*
X693100Y-128670D02*
D03*
Y-115170D02*
D03*
X679130Y-128670D02*
D03*
Y-115170D02*
D03*
X690560Y-245980D02*
D03*
Y-259480D02*
D03*
X671510Y-245980D02*
D03*
Y-259480D02*
D03*
X628330Y-138900D02*
D03*
Y-152400D02*
D03*
X618170Y-230270D02*
D03*
Y-216770D02*
D03*
D33*
X708340Y-194310D02*
D03*
D34*
X678090Y-216310D02*
D03*
Y-212310D02*
D03*
Y-208310D02*
D03*
Y-204310D02*
D03*
Y-200310D02*
D03*
Y-196310D02*
D03*
Y-192310D02*
D03*
Y-188310D02*
D03*
Y-184310D02*
D03*
Y-180310D02*
D03*
Y-176310D02*
D03*
Y-172310D02*
D03*
X738590D02*
D03*
Y-176310D02*
D03*
Y-180310D02*
D03*
Y-184310D02*
D03*
Y-188310D02*
D03*
Y-192310D02*
D03*
Y-196310D02*
D03*
Y-200310D02*
D03*
Y-204310D02*
D03*
Y-208310D02*
D03*
Y-212310D02*
D03*
Y-216310D02*
D03*
D35*
X686340Y-164060D02*
D03*
X690340D02*
D03*
X694340D02*
D03*
X698340D02*
D03*
X702340D02*
D03*
X706340D02*
D03*
X710340D02*
D03*
X714340D02*
D03*
X718340D02*
D03*
X722340D02*
D03*
X726340D02*
D03*
X730340D02*
D03*
Y-224560D02*
D03*
X726340D02*
D03*
X722340D02*
D03*
X718340D02*
D03*
X714340D02*
D03*
X710340D02*
D03*
X706340D02*
D03*
X702340D02*
D03*
X698340D02*
D03*
X694340D02*
D03*
X690340D02*
D03*
X686340D02*
D03*
D36*
X744300Y-132080D02*
D03*
X730800D02*
D03*
Y-114300D02*
D03*
X744300D02*
D03*
X657070Y-167640D02*
D03*
X643570D02*
D03*
X643170Y-111760D02*
D03*
X656670D02*
D03*
D37*
X710880Y-114300D02*
D03*
Y-130300D02*
D03*
X656270Y-219330D02*
D03*
Y-235330D02*
D03*
X635950Y-235330D02*
D03*
Y-219330D02*
D03*
X804860Y-400940D02*
D03*
Y-416940D02*
D03*
D38*
X710880Y-74930D02*
D03*
D39*
X663580Y-149930D02*
D03*
Y-126930D02*
D03*
X643880Y-149930D02*
D03*
Y-126930D02*
D03*
D40*
X443545Y-34290D02*
D03*
X457515D02*
D03*
D41*
X670100Y-373170D02*
D03*
X693100Y-373170D02*
D03*
X716100Y-373170D02*
D03*
D42*
X693100Y-315170D02*
D03*
M02*
