G04 Layer_Color=16711935*
%FSLAX44Y44*%
%MOMM*%
G71*
G01*
G75*
%ADD49C,3.0000*%
%ADD53C,2.0000*%
%ADD54C,3.0000*%
%ADD55O,3.0000X2.5000*%
%ADD57C,1.0000*%
%ADD94O,10.2032X4.2032*%
%ADD95R,1.7032X1.7032*%
%ADD96C,1.9032*%
%ADD97C,1.7032*%
%ADD98R,1.7032X1.7032*%
%ADD99O,6.2032X1.7032*%
D49*
X270606Y36438D02*
D03*
D53*
X210752Y206983D02*
D03*
X329252D02*
D03*
D54*
X583000Y229000D02*
D03*
X557600Y52000D02*
D03*
X431000Y89000D02*
D03*
D55*
X430980Y191000D02*
D03*
D57*
X702340Y-188310D02*
D03*
X714340D02*
D03*
X702340Y-200310D02*
D03*
X714340D02*
D03*
D94*
X430880Y297550D02*
D03*
D95*
X518510Y35930D02*
D03*
X41895Y417294D02*
D03*
X41900Y-52601D02*
D03*
D96*
X590900Y405500D02*
D03*
X612900Y330500D02*
D03*
D97*
X41895Y442693D02*
D03*
X67295Y417294D02*
D03*
Y442693D02*
D03*
X92695Y417294D02*
D03*
Y442693D02*
D03*
X118095Y417294D02*
D03*
Y442693D02*
D03*
X862701Y103099D02*
D03*
X837301Y77699D02*
D03*
X862701D02*
D03*
X837301Y52299D02*
D03*
X862701D02*
D03*
X837301Y26899D02*
D03*
X862701D02*
D03*
X133030Y-156210D02*
D03*
Y-181610D02*
D03*
Y-207010D02*
D03*
Y-232410D02*
D03*
Y-257810D02*
D03*
Y-283210D02*
D03*
Y-308610D02*
D03*
X41900Y-27201D02*
D03*
X67300Y-52601D02*
D03*
Y-27201D02*
D03*
X92700Y-52601D02*
D03*
Y-27201D02*
D03*
X118100Y-52601D02*
D03*
Y-27201D02*
D03*
X862701Y-366799D02*
D03*
X837301Y-392199D02*
D03*
X862701D02*
D03*
X837301Y-417599D02*
D03*
X862701D02*
D03*
X837301Y-442999D02*
D03*
X862701D02*
D03*
D98*
X837301Y103099D02*
D03*
X133030Y-334010D02*
D03*
X837301Y-366799D02*
D03*
D99*
X525000Y342000D02*
D03*
X450000D02*
D03*
X375000D02*
D03*
M02*
