G04 Layer_Color=255*
%FSLAX44Y44*%
%MOMM*%
G71*
G01*
G75*
%ADD10O,1.2000X2.0000*%
%ADD11O,3.5560X2.7940*%
%ADD12C,1.5000*%
%ADD13R,1.5000X1.5000*%
D10*
X25000Y-115000D02*
D03*
X45000D02*
D03*
X65000D02*
D03*
X85000D02*
D03*
X105000D02*
D03*
X125000D02*
D03*
X145000D02*
D03*
X165000D02*
D03*
X185000D02*
D03*
X205000D02*
D03*
X25000Y20000D02*
D03*
X45000D02*
D03*
X65000D02*
D03*
X85000D02*
D03*
X105000D02*
D03*
X125000D02*
D03*
X145000D02*
D03*
X165000D02*
D03*
X185000D02*
D03*
X205000D02*
D03*
D11*
X257500Y73300D02*
D03*
Y22500D02*
D03*
D12*
X15000Y-20000D02*
D03*
Y-45400D02*
D03*
X55000Y-20000D02*
D03*
Y-45400D02*
D03*
X95000Y-20000D02*
D03*
Y-45400D02*
D03*
X135000Y-20000D02*
D03*
Y-45400D02*
D03*
X175000Y-20000D02*
D03*
Y-45400D02*
D03*
X95000Y-150000D02*
D03*
Y-175400D02*
D03*
X215000Y-20000D02*
D03*
Y-45400D02*
D03*
X135000Y-150000D02*
D03*
Y-175400D02*
D03*
X255000Y-20000D02*
D03*
Y-45400D02*
D03*
X175000Y-150000D02*
D03*
Y-175400D02*
D03*
X295000Y-20000D02*
D03*
Y-45400D02*
D03*
X215000Y-150000D02*
D03*
Y-175400D02*
D03*
X15000Y-150000D02*
D03*
Y-175400D02*
D03*
X255000Y-150000D02*
D03*
Y-175400D02*
D03*
X55000Y-150000D02*
D03*
Y-175400D02*
D03*
X295000Y-150000D02*
D03*
Y-175400D02*
D03*
D13*
X15000Y-70800D02*
D03*
X55000D02*
D03*
X95000D02*
D03*
X135000D02*
D03*
X175000D02*
D03*
X95000Y-200800D02*
D03*
X215000Y-70800D02*
D03*
X135000Y-200800D02*
D03*
X255000Y-70800D02*
D03*
X175000Y-200800D02*
D03*
X295000Y-70800D02*
D03*
X215000Y-200800D02*
D03*
X15000D02*
D03*
X255000D02*
D03*
X55000D02*
D03*
X295000D02*
D03*
M02*
