G04 Layer_Color=65535*
%FSLAX44Y44*%
%MOMM*%
G71*
G01*
G75*
%ADD15C,0.1778*%
%ADD16C,0.2000*%
%ADD17C,0.1270*%
G36*
X263850Y47900D02*
X257500Y41550D01*
Y45360D01*
X251150D01*
Y50440D01*
X257500D01*
Y54250D01*
X263850Y47900D01*
D02*
G37*
D15*
X297734Y73300D02*
G03*
X297734Y73300I-1626J0D01*
G01*
X297988Y21992D02*
G03*
X297988Y21992I-1626J0D01*
G01*
X232100Y-2900D02*
Y98700D01*
X296870Y100224D02*
X303220D01*
X270200Y98700D02*
X308300D01*
Y-2900D02*
Y98700D01*
X303728Y-2900D02*
X308300D01*
X303728D02*
Y-1630D01*
X295854D02*
X303728D01*
X295854Y-2900D02*
Y-1630D01*
X232100Y-2900D02*
X295854D01*
X232100Y98700D02*
X270200D01*
X282900Y-2646D02*
Y98192D01*
D16*
X5000Y-132000D02*
Y-115000D01*
Y-132000D02*
X225000D01*
X5000D02*
Y-87000D01*
X225000Y-132000D02*
Y-87000D01*
X5000D02*
X225000D01*
X5000Y3000D02*
Y20000D01*
Y3000D02*
X225000D01*
X5000D02*
Y48000D01*
X225000Y3000D02*
Y48000D01*
X5000D02*
X225000D01*
X238450Y47900D02*
X276550D01*
X2300Y-83500D02*
X27700D01*
X2300D02*
Y-7300D01*
X27700D01*
Y-83500D02*
Y-7300D01*
X42300Y-83500D02*
X67700D01*
X42300D02*
Y-7300D01*
X67700D01*
Y-83500D02*
Y-7300D01*
X82300Y-83500D02*
X107700D01*
X82300D02*
Y-7300D01*
X107700D01*
Y-83500D02*
Y-7300D01*
X122300Y-83500D02*
X147700D01*
X122300D02*
Y-7300D01*
X147700D01*
Y-83500D02*
Y-7300D01*
X162300Y-83500D02*
X187700D01*
X162300D02*
Y-7300D01*
X187700D01*
Y-83500D02*
Y-7300D01*
X82300Y-213500D02*
X107700D01*
X82300D02*
Y-137300D01*
X107700D01*
Y-213500D02*
Y-137300D01*
X202300Y-83500D02*
X227700D01*
X202300D02*
Y-7300D01*
X227700D01*
Y-83500D02*
Y-7300D01*
X122300Y-213500D02*
X147700D01*
X122300D02*
Y-137300D01*
X147700D01*
Y-213500D02*
Y-137300D01*
X242300Y-83500D02*
X267700D01*
X242300D02*
Y-7300D01*
X267700D01*
Y-83500D02*
Y-7300D01*
X162300Y-213500D02*
X187700D01*
X162300D02*
Y-137300D01*
X187700D01*
Y-213500D02*
Y-137300D01*
X282300Y-83500D02*
X307700D01*
X282300D02*
Y-7300D01*
X307700D01*
Y-83500D02*
Y-7300D01*
X202300Y-213500D02*
X227700D01*
X202300D02*
Y-137300D01*
X227700D01*
Y-213500D02*
Y-137300D01*
X2300Y-213500D02*
X27700D01*
X2300D02*
Y-137300D01*
X27700D01*
Y-213500D02*
Y-137300D01*
X242300Y-213500D02*
X267700D01*
X242300D02*
Y-137300D01*
X267700D01*
Y-213500D02*
Y-137300D01*
X42300Y-213500D02*
X67700D01*
X42300D02*
Y-137300D01*
X67700D01*
Y-213500D02*
Y-137300D01*
X282300Y-213500D02*
X307700D01*
X282300D02*
Y-137300D01*
X307700D01*
Y-213500D02*
Y-137300D01*
D17*
X208280Y53340D02*
X198283D01*
X201616Y56672D01*
X198283Y60005D01*
X208280D01*
Y63337D02*
Y66669D01*
Y65003D01*
X198283D01*
X199949Y63337D01*
X206614Y71667D02*
X208280Y73334D01*
Y76666D01*
X206614Y78332D01*
X199949D01*
X198283Y76666D01*
Y73334D01*
X199949Y71667D01*
X201616D01*
X203282Y73334D01*
Y78332D01*
X187960Y53340D02*
X177963D01*
X181296Y56672D01*
X177963Y60005D01*
X187960D01*
Y63337D02*
Y66669D01*
Y65003D01*
X177963D01*
X179629Y63337D01*
Y71667D02*
X177963Y73334D01*
Y76666D01*
X179629Y78332D01*
X186294D01*
X187960Y76666D01*
Y73334D01*
X186294Y71667D01*
X179629D01*
X167640Y53340D02*
X157643D01*
X160975Y56672D01*
X157643Y60005D01*
X167640D01*
Y63337D02*
Y66669D01*
Y65003D01*
X157643D01*
X159309Y63337D01*
X167640Y71667D02*
Y75000D01*
Y73334D01*
X157643D01*
X159309Y71667D01*
X147320Y53340D02*
X137323D01*
X140655Y56672D01*
X137323Y60005D01*
X147320D01*
Y63337D02*
Y66669D01*
Y65003D01*
X137323D01*
X138989Y63337D01*
X147320Y78332D02*
Y71667D01*
X140655Y78332D01*
X138989D01*
X137323Y76666D01*
Y73334D01*
X138989Y71667D01*
X129540Y53340D02*
X119543D01*
X122875Y56672D01*
X119543Y60005D01*
X129540D01*
Y63337D02*
Y66669D01*
Y65003D01*
X119543D01*
X121209Y63337D01*
Y71667D02*
X119543Y73334D01*
Y76666D01*
X121209Y78332D01*
X122875D01*
X124542Y76666D01*
Y75000D01*
Y76666D01*
X126208Y78332D01*
X127874D01*
X129540Y76666D01*
Y73334D01*
X127874Y71667D01*
X78029Y60005D02*
X76363Y58338D01*
Y55006D01*
X78029Y53340D01*
X84694D01*
X86360Y55006D01*
Y58338D01*
X84694Y60005D01*
X81362D01*
Y56672D01*
X86360Y63337D02*
X76363D01*
X86360Y70001D01*
X76363D01*
Y73334D02*
X86360D01*
Y78332D01*
X84694Y79998D01*
X78029D01*
X76363Y78332D01*
Y73334D01*
X60249Y60005D02*
X58583Y58338D01*
Y55006D01*
X60249Y53340D01*
X66914D01*
X68580Y55006D01*
Y58338D01*
X66914Y60005D01*
X63582D01*
Y56672D01*
X68580Y63337D02*
X58583D01*
X68580Y70001D01*
X58583D01*
Y73334D02*
X68580D01*
Y78332D01*
X66914Y79998D01*
X60249D01*
X58583Y78332D01*
Y73334D01*
X38263Y53340D02*
X44928D01*
X48260Y56672D01*
X44928Y60005D01*
X38263D01*
X39929Y70001D02*
X38263Y68335D01*
Y65003D01*
X39929Y63337D01*
X46594D01*
X48260Y65003D01*
Y68335D01*
X46594Y70001D01*
X39929Y79998D02*
X38263Y78332D01*
Y75000D01*
X39929Y73334D01*
X46594D01*
X48260Y75000D01*
Y78332D01*
X46594Y79998D01*
X17943Y53340D02*
X24608D01*
X27940Y56672D01*
X24608Y60005D01*
X17943D01*
X19609Y70001D02*
X17943Y68335D01*
Y65003D01*
X19609Y63337D01*
X26274D01*
X27940Y65003D01*
Y68335D01*
X26274Y70001D01*
X19609Y79998D02*
X17943Y78332D01*
Y75000D01*
X19609Y73334D01*
X26274D01*
X27940Y75000D01*
Y78332D01*
X26274Y79998D01*
X232500Y-122500D02*
Y-112503D01*
X237498D01*
X239165Y-114169D01*
Y-117502D01*
X237498Y-119168D01*
X232500D01*
X249161Y-122500D02*
X242497D01*
X249161Y-115836D01*
Y-114169D01*
X247495Y-112503D01*
X244163D01*
X242497Y-114169D01*
X289397Y-123079D02*
X287731Y-121413D01*
X284399D01*
X282733Y-123079D01*
Y-129744D01*
X284399Y-131410D01*
X287731D01*
X289397Y-129744D01*
Y-126412D01*
X286065D01*
X292730Y-131410D02*
Y-121413D01*
X299394Y-131410D01*
Y-121413D01*
X302726D02*
Y-131410D01*
X307725D01*
X309391Y-129744D01*
Y-123079D01*
X307725Y-121413D01*
X302726D01*
X293463Y-104722D02*
X286799D01*
Y-109721D01*
X290131Y-108055D01*
X291797D01*
X293463Y-109721D01*
Y-113053D01*
X291797Y-114719D01*
X288465D01*
X286799Y-113053D01*
X296796Y-104722D02*
Y-111387D01*
X300128Y-114719D01*
X303460Y-111387D01*
Y-104722D01*
X290848Y-89741D02*
X289182Y-88075D01*
X285850D01*
X284184Y-89741D01*
Y-91407D01*
X285850Y-93074D01*
X289182D01*
X290848Y-94740D01*
Y-96406D01*
X289182Y-98072D01*
X285850D01*
X284184Y-96406D01*
X294181Y-88075D02*
X297513D01*
X295847D01*
Y-98072D01*
X294181D01*
X297513D01*
X309176Y-89741D02*
X307510Y-88075D01*
X304177D01*
X302511Y-89741D01*
Y-96406D01*
X304177Y-98072D01*
X307510D01*
X309176Y-96406D01*
Y-93074D01*
X305844D01*
M02*
