G04 Layer_Color=8388736*
%FSLAX44Y44*%
%MOMM*%
G71*
G01*
G75*
%ADD18O,1.4032X2.2032*%
%ADD19O,3.7592X2.9972*%
%ADD20C,1.7032*%
%ADD21R,1.7032X1.7032*%
D18*
X25000Y-115000D02*
D03*
X45000D02*
D03*
X65000D02*
D03*
X85000D02*
D03*
X105000D02*
D03*
X125000D02*
D03*
X145000D02*
D03*
X165000D02*
D03*
X185000D02*
D03*
X205000D02*
D03*
X25000Y20000D02*
D03*
X45000D02*
D03*
X65000D02*
D03*
X85000D02*
D03*
X105000D02*
D03*
X125000D02*
D03*
X145000D02*
D03*
X165000D02*
D03*
X185000D02*
D03*
X205000D02*
D03*
D19*
X257500Y73300D02*
D03*
Y22500D02*
D03*
D20*
X15000Y-20000D02*
D03*
Y-45400D02*
D03*
X55000Y-20000D02*
D03*
Y-45400D02*
D03*
X95000Y-20000D02*
D03*
Y-45400D02*
D03*
X135000Y-20000D02*
D03*
Y-45400D02*
D03*
X175000Y-20000D02*
D03*
Y-45400D02*
D03*
X95000Y-150000D02*
D03*
Y-175400D02*
D03*
X215000Y-20000D02*
D03*
Y-45400D02*
D03*
X135000Y-150000D02*
D03*
Y-175400D02*
D03*
X255000Y-20000D02*
D03*
Y-45400D02*
D03*
X175000Y-150000D02*
D03*
Y-175400D02*
D03*
X295000Y-20000D02*
D03*
Y-45400D02*
D03*
X215000Y-150000D02*
D03*
Y-175400D02*
D03*
X15000Y-150000D02*
D03*
Y-175400D02*
D03*
X255000Y-150000D02*
D03*
Y-175400D02*
D03*
X55000Y-150000D02*
D03*
Y-175400D02*
D03*
X295000Y-150000D02*
D03*
Y-175400D02*
D03*
D21*
X15000Y-70800D02*
D03*
X55000D02*
D03*
X95000D02*
D03*
X135000D02*
D03*
X175000D02*
D03*
X95000Y-200800D02*
D03*
X215000Y-70800D02*
D03*
X135000Y-200800D02*
D03*
X255000Y-70800D02*
D03*
X175000Y-200800D02*
D03*
X295000Y-70800D02*
D03*
X215000Y-200800D02*
D03*
X15000D02*
D03*
X255000D02*
D03*
X55000D02*
D03*
X295000D02*
D03*
M02*
