G04 Layer_Physical_Order=1*
G04 Layer_Color=255*
%FSLAX44Y44*%
%MOMM*%
G71*
G01*
G75*
%ADD10O,1.2000X2.0000*%
%ADD11O,3.5560X2.7940*%
%ADD12C,1.5000*%
%ADD13R,1.5000X1.5000*%
G36*
X304800Y0D02*
Y-13881D01*
X303202Y-11798D01*
X300800Y-9955D01*
X298002Y-8796D01*
X295000Y-8401D01*
X291998Y-8796D01*
X289200Y-9955D01*
X286798Y-11798D01*
X284955Y-14200D01*
X283796Y-16998D01*
X283401Y-20000D01*
X283796Y-23002D01*
X284955Y-25800D01*
X286798Y-28202D01*
X289200Y-30045D01*
X291998Y-31204D01*
X295000Y-31599D01*
X298002Y-31204D01*
X300800Y-30045D01*
X303202Y-28202D01*
X304800Y-26119D01*
Y-59300D01*
X283500D01*
Y-82300D01*
X304800D01*
Y-143881D01*
X303202Y-141798D01*
X300800Y-139955D01*
X298002Y-138796D01*
X295000Y-138401D01*
X291998Y-138796D01*
X289200Y-139955D01*
X286798Y-141798D01*
X284955Y-144200D01*
X283796Y-146998D01*
X283401Y-150000D01*
X283796Y-153002D01*
X284955Y-155800D01*
X286798Y-158202D01*
X289200Y-160045D01*
X291998Y-161204D01*
X295000Y-161599D01*
X298002Y-161204D01*
X300800Y-160045D01*
X303202Y-158202D01*
X304800Y-156119D01*
Y-189300D01*
X283500D01*
Y-212300D01*
X304800D01*
Y-214902D01*
X5098D01*
Y-212300D01*
X26500D01*
Y-189300D01*
X5098D01*
Y-155986D01*
X6798Y-158202D01*
X9200Y-160045D01*
X11998Y-161204D01*
X15000Y-161599D01*
X18002Y-161204D01*
X20800Y-160045D01*
X23202Y-158202D01*
X25045Y-155800D01*
X26204Y-153002D01*
X26599Y-150000D01*
X26204Y-146998D01*
X25045Y-144200D01*
X23202Y-141798D01*
X20800Y-139955D01*
X18002Y-138796D01*
X15000Y-138401D01*
X11998Y-138796D01*
X9200Y-139955D01*
X6798Y-141798D01*
X5098Y-144014D01*
Y-82300D01*
X26500D01*
Y-59300D01*
X5098D01*
Y-25986D01*
X6798Y-28202D01*
X9200Y-30045D01*
X11998Y-31204D01*
X15000Y-31599D01*
X18002Y-31204D01*
X20800Y-30045D01*
X23202Y-28202D01*
X25045Y-25800D01*
X26204Y-23002D01*
X26599Y-20000D01*
X26204Y-16998D01*
X25045Y-14200D01*
X23202Y-11798D01*
X20800Y-9955D01*
X18002Y-8796D01*
X15000Y-8401D01*
X11998Y-8796D01*
X9200Y-9955D01*
X6798Y-11798D01*
X5098Y-14014D01*
Y0D01*
Y94902D01*
X304800D01*
Y0D01*
D02*
G37*
%LPC*%
G36*
X175000Y-138401D02*
X171998Y-138796D01*
X169200Y-139955D01*
X166798Y-141798D01*
X164955Y-144200D01*
X163796Y-146998D01*
X163401Y-150000D01*
X163796Y-153002D01*
X164955Y-155800D01*
X166798Y-158202D01*
X169200Y-160045D01*
X171998Y-161204D01*
X175000Y-161599D01*
X178002Y-161204D01*
X180800Y-160045D01*
X183202Y-158202D01*
X185045Y-155800D01*
X186204Y-153002D01*
X186599Y-150000D01*
X186204Y-146998D01*
X185045Y-144200D01*
X183202Y-141798D01*
X180800Y-139955D01*
X178002Y-138796D01*
X175000Y-138401D01*
D02*
G37*
G36*
X95000D02*
X91998Y-138796D01*
X89200Y-139955D01*
X86798Y-141798D01*
X84955Y-144200D01*
X83796Y-146998D01*
X83401Y-150000D01*
X83796Y-153002D01*
X84955Y-155800D01*
X86798Y-158202D01*
X89200Y-160045D01*
X91998Y-161204D01*
X95000Y-161599D01*
X98002Y-161204D01*
X100800Y-160045D01*
X103202Y-158202D01*
X105045Y-155800D01*
X106204Y-153002D01*
X106599Y-150000D01*
X106204Y-146998D01*
X105045Y-144200D01*
X103202Y-141798D01*
X100800Y-139955D01*
X98002Y-138796D01*
X95000Y-138401D01*
D02*
G37*
G36*
X135000D02*
X131998Y-138796D01*
X129200Y-139955D01*
X126798Y-141798D01*
X124955Y-144200D01*
X123796Y-146998D01*
X123401Y-150000D01*
X123796Y-153002D01*
X124955Y-155800D01*
X126798Y-158202D01*
X129200Y-160045D01*
X131998Y-161204D01*
X135000Y-161599D01*
X138002Y-161204D01*
X140800Y-160045D01*
X143202Y-158202D01*
X145045Y-155800D01*
X146204Y-153002D01*
X146599Y-150000D01*
X146204Y-146998D01*
X145045Y-144200D01*
X143202Y-141798D01*
X140800Y-139955D01*
X138002Y-138796D01*
X135000Y-138401D01*
D02*
G37*
G36*
X205000Y-100914D02*
X202390Y-101257D01*
X199957Y-102265D01*
X197868Y-103868D01*
X196265Y-105957D01*
X195257Y-108390D01*
X195000Y-110345D01*
X194743Y-108390D01*
X193735Y-105957D01*
X192132Y-103868D01*
X190043Y-102265D01*
X187610Y-101257D01*
X185000Y-100914D01*
X182390Y-101257D01*
X179957Y-102265D01*
X177868Y-103868D01*
X176265Y-105957D01*
X175257Y-108390D01*
X175000Y-110345D01*
X174743Y-108390D01*
X173735Y-105957D01*
X172132Y-103868D01*
X170043Y-102265D01*
X167610Y-101257D01*
X165000Y-100914D01*
X162390Y-101257D01*
X159957Y-102265D01*
X157868Y-103868D01*
X156265Y-105957D01*
X155257Y-108390D01*
X155000Y-110345D01*
X154743Y-108390D01*
X153735Y-105957D01*
X152132Y-103868D01*
X150043Y-102265D01*
X147611Y-101257D01*
X145000Y-100914D01*
X142389Y-101257D01*
X139957Y-102265D01*
X137868Y-103868D01*
X136265Y-105957D01*
X135257Y-108390D01*
X135000Y-110345D01*
X134743Y-108390D01*
X133735Y-105957D01*
X132132Y-103868D01*
X130043Y-102265D01*
X127611Y-101257D01*
X125000Y-100914D01*
X122389Y-101257D01*
X119957Y-102265D01*
X117868Y-103868D01*
X116265Y-105957D01*
X115257Y-108390D01*
X115000Y-110345D01*
X114743Y-108390D01*
X113735Y-105957D01*
X112132Y-103868D01*
X110043Y-102265D01*
X107611Y-101257D01*
X105000Y-100914D01*
X102389Y-101257D01*
X99957Y-102265D01*
X97868Y-103868D01*
X96265Y-105957D01*
X95257Y-108390D01*
X95000Y-110345D01*
X94743Y-108390D01*
X93735Y-105957D01*
X92132Y-103868D01*
X90043Y-102265D01*
X87611Y-101257D01*
X85000Y-100914D01*
X82389Y-101257D01*
X79957Y-102265D01*
X77868Y-103868D01*
X76265Y-105957D01*
X75257Y-108390D01*
X75000Y-110345D01*
X74743Y-108390D01*
X73735Y-105957D01*
X72132Y-103868D01*
X70043Y-102265D01*
X67611Y-101257D01*
X65000Y-100914D01*
X62389Y-101257D01*
X59957Y-102265D01*
X57868Y-103868D01*
X56265Y-105957D01*
X55257Y-108390D01*
X54914Y-111000D01*
Y-119000D01*
X55257Y-121610D01*
X56265Y-124043D01*
X57868Y-126132D01*
X59957Y-127735D01*
X62389Y-128743D01*
X65000Y-129086D01*
X67611Y-128743D01*
X70043Y-127735D01*
X72132Y-126132D01*
X73735Y-124043D01*
X74743Y-121610D01*
X75000Y-119655D01*
X75257Y-121610D01*
X76265Y-124043D01*
X77868Y-126132D01*
X79957Y-127735D01*
X82389Y-128743D01*
X85000Y-129086D01*
X87611Y-128743D01*
X90043Y-127735D01*
X92132Y-126132D01*
X93735Y-124043D01*
X94743Y-121610D01*
X95000Y-119655D01*
X95257Y-121610D01*
X96265Y-124043D01*
X97868Y-126132D01*
X99957Y-127735D01*
X102389Y-128743D01*
X105000Y-129086D01*
X107611Y-128743D01*
X110043Y-127735D01*
X112132Y-126132D01*
X113735Y-124043D01*
X114743Y-121610D01*
X115000Y-119655D01*
X115257Y-121610D01*
X116265Y-124043D01*
X117868Y-126132D01*
X119957Y-127735D01*
X122389Y-128743D01*
X125000Y-129086D01*
X127611Y-128743D01*
X130043Y-127735D01*
X132132Y-126132D01*
X133735Y-124043D01*
X134743Y-121610D01*
X135000Y-119655D01*
X135257Y-121610D01*
X136265Y-124043D01*
X137868Y-126132D01*
X139957Y-127735D01*
X142389Y-128743D01*
X145000Y-129086D01*
X147611Y-128743D01*
X150043Y-127735D01*
X152132Y-126132D01*
X153735Y-124043D01*
X154743Y-121610D01*
X155000Y-119655D01*
X155257Y-121610D01*
X156265Y-124043D01*
X157868Y-126132D01*
X159957Y-127735D01*
X162390Y-128743D01*
X165000Y-129086D01*
X167610Y-128743D01*
X170043Y-127735D01*
X172132Y-126132D01*
X173735Y-124043D01*
X174743Y-121610D01*
X175000Y-119655D01*
X175257Y-121610D01*
X176265Y-124043D01*
X177868Y-126132D01*
X179957Y-127735D01*
X182390Y-128743D01*
X185000Y-129086D01*
X187610Y-128743D01*
X190043Y-127735D01*
X192132Y-126132D01*
X193735Y-124043D01*
X194743Y-121610D01*
X195000Y-119655D01*
X195257Y-121610D01*
X196265Y-124043D01*
X197868Y-126132D01*
X199957Y-127735D01*
X202390Y-128743D01*
X205000Y-129086D01*
X207610Y-128743D01*
X210043Y-127735D01*
X212132Y-126132D01*
X213735Y-124043D01*
X214743Y-121610D01*
X215086Y-119000D01*
Y-111000D01*
X214743Y-108390D01*
X213735Y-105957D01*
X212132Y-103868D01*
X210043Y-102265D01*
X207610Y-101257D01*
X205000Y-100914D01*
D02*
G37*
G36*
X255000Y-138401D02*
X251998Y-138796D01*
X249200Y-139955D01*
X246798Y-141798D01*
X244955Y-144200D01*
X243796Y-146998D01*
X243401Y-150000D01*
X243796Y-153002D01*
X244955Y-155800D01*
X246798Y-158202D01*
X249200Y-160045D01*
X251998Y-161204D01*
X255000Y-161599D01*
X258002Y-161204D01*
X260800Y-160045D01*
X263202Y-158202D01*
X265045Y-155800D01*
X266204Y-153002D01*
X266599Y-150000D01*
X266204Y-146998D01*
X265045Y-144200D01*
X263202Y-141798D01*
X260800Y-139955D01*
X258002Y-138796D01*
X255000Y-138401D01*
D02*
G37*
G36*
X215000D02*
X211998Y-138796D01*
X209200Y-139955D01*
X206798Y-141798D01*
X204955Y-144200D01*
X203796Y-146998D01*
X203401Y-150000D01*
X203796Y-153002D01*
X204955Y-155800D01*
X206798Y-158202D01*
X209200Y-160045D01*
X211998Y-161204D01*
X215000Y-161599D01*
X218002Y-161204D01*
X220800Y-160045D01*
X223202Y-158202D01*
X225045Y-155800D01*
X226204Y-153002D01*
X226599Y-150000D01*
X226204Y-146998D01*
X225045Y-144200D01*
X223202Y-141798D01*
X220800Y-139955D01*
X218002Y-138796D01*
X215000Y-138401D01*
D02*
G37*
G36*
X55000D02*
X51998Y-138796D01*
X49200Y-139955D01*
X46798Y-141798D01*
X44955Y-144200D01*
X43796Y-146998D01*
X43401Y-150000D01*
X43796Y-153002D01*
X44955Y-155800D01*
X46798Y-158202D01*
X49200Y-160045D01*
X51998Y-161204D01*
X55000Y-161599D01*
X58002Y-161204D01*
X60800Y-160045D01*
X63202Y-158202D01*
X65045Y-155800D01*
X66204Y-153002D01*
X66599Y-150000D01*
X66204Y-146998D01*
X65045Y-144200D01*
X63202Y-141798D01*
X60800Y-139955D01*
X58002Y-138796D01*
X55000Y-138401D01*
D02*
G37*
G36*
X146500Y-189300D02*
X123500D01*
Y-212300D01*
X146500D01*
Y-189300D01*
D02*
G37*
G36*
X106500D02*
X83500D01*
Y-212300D01*
X106500D01*
Y-189300D01*
D02*
G37*
G36*
X66500D02*
X43500D01*
Y-212300D01*
X66500D01*
Y-189300D01*
D02*
G37*
G36*
X266500D02*
X243500D01*
Y-212300D01*
X266500D01*
Y-189300D01*
D02*
G37*
G36*
X226500D02*
X203500D01*
Y-212300D01*
X226500D01*
Y-189300D01*
D02*
G37*
G36*
X186500D02*
X163500D01*
Y-212300D01*
X186500D01*
Y-189300D01*
D02*
G37*
G36*
X66500Y-59300D02*
X43500D01*
Y-82300D01*
X66500D01*
Y-59300D01*
D02*
G37*
G36*
X215000Y-8401D02*
X211998Y-8796D01*
X209200Y-9955D01*
X206798Y-11798D01*
X204955Y-14200D01*
X203796Y-16998D01*
X203401Y-20000D01*
X203796Y-23002D01*
X204955Y-25800D01*
X206798Y-28202D01*
X209200Y-30045D01*
X211998Y-31204D01*
X215000Y-31599D01*
X218002Y-31204D01*
X220800Y-30045D01*
X223202Y-28202D01*
X225045Y-25800D01*
X226204Y-23002D01*
X226599Y-20000D01*
X226204Y-16998D01*
X225045Y-14200D01*
X223202Y-11798D01*
X220800Y-9955D01*
X218002Y-8796D01*
X215000Y-8401D01*
D02*
G37*
G36*
X175000D02*
X171998Y-8796D01*
X169200Y-9955D01*
X166798Y-11798D01*
X164955Y-14200D01*
X163796Y-16998D01*
X163401Y-20000D01*
X163796Y-23002D01*
X164955Y-25800D01*
X166798Y-28202D01*
X169200Y-30045D01*
X171998Y-31204D01*
X175000Y-31599D01*
X178002Y-31204D01*
X180800Y-30045D01*
X183202Y-28202D01*
X185045Y-25800D01*
X186204Y-23002D01*
X186599Y-20000D01*
X186204Y-16998D01*
X185045Y-14200D01*
X183202Y-11798D01*
X180800Y-9955D01*
X178002Y-8796D01*
X175000Y-8401D01*
D02*
G37*
G36*
X135000D02*
X131998Y-8796D01*
X129200Y-9955D01*
X126798Y-11798D01*
X124955Y-14200D01*
X123796Y-16998D01*
X123401Y-20000D01*
X123796Y-23002D01*
X124955Y-25800D01*
X126798Y-28202D01*
X129200Y-30045D01*
X131998Y-31204D01*
X135000Y-31599D01*
X138002Y-31204D01*
X140800Y-30045D01*
X143202Y-28202D01*
X145045Y-25800D01*
X146204Y-23002D01*
X146599Y-20000D01*
X146204Y-16998D01*
X145045Y-14200D01*
X143202Y-11798D01*
X140800Y-9955D01*
X138002Y-8796D01*
X135000Y-8401D01*
D02*
G37*
G36*
X205000Y34086D02*
X202390Y33743D01*
X199957Y32735D01*
X197868Y31132D01*
X196265Y29043D01*
X195257Y26611D01*
X195000Y24655D01*
X194743Y26611D01*
X193735Y29043D01*
X192132Y31132D01*
X190043Y32735D01*
X187610Y33743D01*
X185000Y34086D01*
X182390Y33743D01*
X179957Y32735D01*
X177868Y31132D01*
X176265Y29043D01*
X175257Y26611D01*
X175000Y24655D01*
X174743Y26611D01*
X173735Y29043D01*
X172132Y31132D01*
X170043Y32735D01*
X167610Y33743D01*
X165000Y34086D01*
X162390Y33743D01*
X159957Y32735D01*
X157868Y31132D01*
X156265Y29043D01*
X155257Y26611D01*
X155000Y24655D01*
X154743Y26611D01*
X153735Y29043D01*
X152132Y31132D01*
X150043Y32735D01*
X147611Y33743D01*
X145000Y34086D01*
X142389Y33743D01*
X139957Y32735D01*
X137868Y31132D01*
X136265Y29043D01*
X135257Y26611D01*
X135000Y24655D01*
X134743Y26611D01*
X133735Y29043D01*
X132132Y31132D01*
X130043Y32735D01*
X127611Y33743D01*
X125000Y34086D01*
X122389Y33743D01*
X119957Y32735D01*
X117868Y31132D01*
X116265Y29043D01*
X115257Y26611D01*
X115000Y24655D01*
X114743Y26611D01*
X113735Y29043D01*
X112132Y31132D01*
X110043Y32735D01*
X107611Y33743D01*
X105000Y34086D01*
X102389Y33743D01*
X99957Y32735D01*
X97868Y31132D01*
X96265Y29043D01*
X95257Y26611D01*
X95000Y24655D01*
X94743Y26611D01*
X93735Y29043D01*
X92132Y31132D01*
X90043Y32735D01*
X87611Y33743D01*
X85000Y34086D01*
X82389Y33743D01*
X79957Y32735D01*
X77868Y31132D01*
X76265Y29043D01*
X75257Y26611D01*
X75000Y24655D01*
X74743Y26611D01*
X73735Y29043D01*
X72132Y31132D01*
X70043Y32735D01*
X67611Y33743D01*
X65000Y34086D01*
X62389Y33743D01*
X59957Y32735D01*
X57868Y31132D01*
X56265Y29043D01*
X55257Y26611D01*
X54914Y24000D01*
Y16000D01*
X55257Y13390D01*
X56265Y10957D01*
X57868Y8868D01*
X59957Y7265D01*
X62389Y6257D01*
X65000Y5914D01*
X67611Y6257D01*
X70043Y7265D01*
X72132Y8868D01*
X73735Y10957D01*
X74743Y13390D01*
X75000Y15345D01*
X75257Y13390D01*
X76265Y10957D01*
X77868Y8868D01*
X79957Y7265D01*
X82389Y6257D01*
X85000Y5914D01*
X87611Y6257D01*
X90043Y7265D01*
X92132Y8868D01*
X93735Y10957D01*
X94743Y13390D01*
X95000Y15345D01*
X95257Y13390D01*
X96265Y10957D01*
X97868Y8868D01*
X99957Y7265D01*
X102389Y6257D01*
X105000Y5914D01*
X107611Y6257D01*
X110043Y7265D01*
X112132Y8868D01*
X113735Y10957D01*
X114743Y13390D01*
X115000Y15345D01*
X115257Y13390D01*
X116265Y10957D01*
X117868Y8868D01*
X119957Y7265D01*
X122389Y6257D01*
X125000Y5914D01*
X127611Y6257D01*
X130043Y7265D01*
X132132Y8868D01*
X133735Y10957D01*
X134743Y13390D01*
X135000Y15345D01*
X135257Y13390D01*
X136265Y10957D01*
X137868Y8868D01*
X139957Y7265D01*
X142389Y6257D01*
X145000Y5914D01*
X147611Y6257D01*
X150043Y7265D01*
X152132Y8868D01*
X153735Y10957D01*
X154743Y13390D01*
X155000Y15345D01*
X155257Y13390D01*
X156265Y10957D01*
X157868Y8868D01*
X159957Y7265D01*
X162390Y6257D01*
X165000Y5914D01*
X167610Y6257D01*
X170043Y7265D01*
X172132Y8868D01*
X173735Y10957D01*
X174743Y13390D01*
X175000Y15345D01*
X175257Y13390D01*
X176265Y10957D01*
X177868Y8868D01*
X179957Y7265D01*
X182390Y6257D01*
X185000Y5914D01*
X187610Y6257D01*
X190043Y7265D01*
X192132Y8868D01*
X193735Y10957D01*
X194743Y13390D01*
X195000Y15345D01*
X195257Y13390D01*
X196265Y10957D01*
X197868Y8868D01*
X199957Y7265D01*
X202390Y6257D01*
X205000Y5914D01*
X207610Y6257D01*
X210043Y7265D01*
X212132Y8868D01*
X213735Y10957D01*
X214743Y13390D01*
X215086Y16000D01*
Y24000D01*
X214743Y26611D01*
X213735Y29043D01*
X212132Y31132D01*
X210043Y32735D01*
X207610Y33743D01*
X205000Y34086D01*
D02*
G37*
G36*
X261310Y40557D02*
X253690D01*
X250167Y40210D01*
X246780Y39182D01*
X243658Y37514D01*
X240922Y35268D01*
X238676Y32532D01*
X237008Y29410D01*
X235980Y26023D01*
X235633Y22500D01*
X235980Y18977D01*
X237008Y15590D01*
X238676Y12468D01*
X240922Y9732D01*
X243658Y7486D01*
X246780Y5818D01*
X250167Y4790D01*
X253690Y4443D01*
X261310D01*
X264833Y4790D01*
X268220Y5818D01*
X271342Y7486D01*
X274078Y9732D01*
X276324Y12468D01*
X277992Y15590D01*
X279020Y18977D01*
X279367Y22500D01*
X279020Y26023D01*
X277992Y29410D01*
X276324Y32532D01*
X274078Y35268D01*
X271342Y37514D01*
X268220Y39182D01*
X264833Y40210D01*
X261310Y40557D01*
D02*
G37*
G36*
X255000Y-8401D02*
X251998Y-8796D01*
X249200Y-9955D01*
X246798Y-11798D01*
X244955Y-14200D01*
X243796Y-16998D01*
X243401Y-20000D01*
X243796Y-23002D01*
X244955Y-25800D01*
X246798Y-28202D01*
X249200Y-30045D01*
X251998Y-31204D01*
X255000Y-31599D01*
X258002Y-31204D01*
X260800Y-30045D01*
X263202Y-28202D01*
X265045Y-25800D01*
X266204Y-23002D01*
X266599Y-20000D01*
X266204Y-16998D01*
X265045Y-14200D01*
X263202Y-11798D01*
X260800Y-9955D01*
X258002Y-8796D01*
X255000Y-8401D01*
D02*
G37*
G36*
X95000D02*
X91998Y-8796D01*
X89200Y-9955D01*
X86798Y-11798D01*
X84955Y-14200D01*
X83796Y-16998D01*
X83401Y-20000D01*
X83796Y-23002D01*
X84955Y-25800D01*
X86798Y-28202D01*
X89200Y-30045D01*
X91998Y-31204D01*
X95000Y-31599D01*
X98002Y-31204D01*
X100800Y-30045D01*
X103202Y-28202D01*
X105045Y-25800D01*
X106204Y-23002D01*
X106599Y-20000D01*
X106204Y-16998D01*
X105045Y-14200D01*
X103202Y-11798D01*
X100800Y-9955D01*
X98002Y-8796D01*
X95000Y-8401D01*
D02*
G37*
G36*
X186500Y-59300D02*
X163500D01*
Y-82300D01*
X186500D01*
Y-59300D01*
D02*
G37*
G36*
X146500D02*
X123500D01*
Y-82300D01*
X146500D01*
Y-59300D01*
D02*
G37*
G36*
X106500D02*
X83500D01*
Y-82300D01*
X106500D01*
Y-59300D01*
D02*
G37*
G36*
X55000Y-8401D02*
X51998Y-8796D01*
X49200Y-9955D01*
X46798Y-11798D01*
X44955Y-14200D01*
X43796Y-16998D01*
X43401Y-20000D01*
X43796Y-23002D01*
X44955Y-25800D01*
X46798Y-28202D01*
X49200Y-30045D01*
X51998Y-31204D01*
X55000Y-31599D01*
X58002Y-31204D01*
X60800Y-30045D01*
X63202Y-28202D01*
X65045Y-25800D01*
X66204Y-23002D01*
X66599Y-20000D01*
X66204Y-16998D01*
X65045Y-14200D01*
X63202Y-11798D01*
X60800Y-9955D01*
X58002Y-8796D01*
X55000Y-8401D01*
D02*
G37*
G36*
X266500Y-59300D02*
X243500D01*
Y-82300D01*
X266500D01*
Y-59300D01*
D02*
G37*
G36*
X226500D02*
X203500D01*
Y-82300D01*
X226500D01*
Y-59300D01*
D02*
G37*
%LPD*%
D10*
X25000Y-115000D02*
D03*
X45000D02*
D03*
X65000D02*
D03*
X85000D02*
D03*
X105000D02*
D03*
X125000D02*
D03*
X145000D02*
D03*
X165000D02*
D03*
X185000D02*
D03*
X205000D02*
D03*
X25000Y20000D02*
D03*
X45000D02*
D03*
X65000D02*
D03*
X85000D02*
D03*
X105000D02*
D03*
X125000D02*
D03*
X145000D02*
D03*
X165000D02*
D03*
X185000D02*
D03*
X205000D02*
D03*
D11*
X257500Y73300D02*
D03*
Y22500D02*
D03*
D12*
X15000Y-20000D02*
D03*
Y-45400D02*
D03*
X55000Y-20000D02*
D03*
Y-45400D02*
D03*
X95000Y-20000D02*
D03*
Y-45400D02*
D03*
X135000Y-20000D02*
D03*
Y-45400D02*
D03*
X175000Y-20000D02*
D03*
Y-45400D02*
D03*
X95000Y-150000D02*
D03*
Y-175400D02*
D03*
X215000Y-20000D02*
D03*
Y-45400D02*
D03*
X135000Y-150000D02*
D03*
Y-175400D02*
D03*
X255000Y-20000D02*
D03*
Y-45400D02*
D03*
X175000Y-150000D02*
D03*
Y-175400D02*
D03*
X295000Y-20000D02*
D03*
Y-45400D02*
D03*
X215000Y-150000D02*
D03*
Y-175400D02*
D03*
X15000Y-150000D02*
D03*
Y-175400D02*
D03*
X255000Y-150000D02*
D03*
Y-175400D02*
D03*
X55000Y-150000D02*
D03*
Y-175400D02*
D03*
X295000Y-150000D02*
D03*
Y-175400D02*
D03*
D13*
X15000Y-70800D02*
D03*
X55000D02*
D03*
X95000D02*
D03*
X135000D02*
D03*
X175000D02*
D03*
X95000Y-200800D02*
D03*
X215000Y-70800D02*
D03*
X135000Y-200800D02*
D03*
X255000Y-70800D02*
D03*
X175000Y-200800D02*
D03*
X295000Y-70800D02*
D03*
X215000Y-200800D02*
D03*
X15000D02*
D03*
X255000D02*
D03*
X55000D02*
D03*
X295000D02*
D03*
M02*
