M48
;Layer_Color=9474304
;FILE_FORMAT=4:4
METRIC,TZ
;TYPE=PLATED
T1F00S00C0.8000
T2F00S00C0.9000
T3F00S00C1.2700
%
T01
X185000Y-115000
X205000
Y20000
X185000
X165000
X145000
X125000
X105000
X85000
X65000
X45000
X25000
Y-115000
X45000
X65000
X85000
X105000
X125000
X145000
X165000
T02
X175000Y-200800
Y-175400
Y-150000
X215000
Y-175400
Y-200800
X255000
Y-175400
Y-150000
X295000
Y-175400
Y-200800
Y-70800
Y-45400
Y-20000
X255000
Y-45400
Y-70800
X215000
Y-45400
Y-20000
X175000
Y-45400
Y-70800
X135000
Y-45400
Y-20000
X95000
Y-45400
Y-70800
X55000
Y-45400
Y-20000
X15000
Y-45400
Y-70800
Y-150000
Y-175400
Y-200800
X55000
Y-175400
Y-150000
X95000
Y-175400
Y-200800
X135000
Y-175400
Y-150000
T03
X257500Y22500
Y73300
M30
