G04 Layer_Physical_Order=2*
G04 Layer_Color=16711680*
%FSLAX44Y44*%
%MOMM*%
G71*
G01*
G75*
%ADD10O,1.2000X2.0000*%
%ADD11O,3.5560X2.7940*%
%ADD12C,1.5000*%
%ADD13R,1.5000X1.5000*%
%ADD14C,0.3000*%
G36*
X168253Y-123996D02*
X167875Y-124023D01*
X167596Y-124107D01*
X167416Y-124248D01*
X167336Y-124445D01*
X167354Y-124698D01*
X167472Y-125007D01*
X167689Y-125374D01*
X168004Y-125796D01*
X168419Y-126275D01*
X168933Y-126810D01*
X166061Y-128180D01*
X161667Y-123988D01*
X168253Y-123996D01*
D02*
G37*
G36*
X127703Y-124175D02*
X127451Y-124284D01*
X127228Y-124466D01*
X127035Y-124721D01*
X126871Y-125049D01*
X126738Y-125450D01*
X126634Y-125924D01*
X126559Y-126471D01*
X126515Y-127091D01*
X126500Y-127783D01*
X123500D01*
X123485Y-127091D01*
X123366Y-125924D01*
X123262Y-125450D01*
X123129Y-125049D01*
X122965Y-124721D01*
X122772Y-124466D01*
X122549Y-124284D01*
X122297Y-124175D01*
X122014Y-124138D01*
X127986D01*
X127703Y-124175D01*
D02*
G37*
G36*
X169644Y-25250D02*
X168917Y-24537D01*
X167516Y-23338D01*
X166841Y-22850D01*
X166183Y-22438D01*
X165542Y-22100D01*
X164919Y-21837D01*
X164312Y-21650D01*
X163723Y-21537D01*
X163151Y-21500D01*
Y-18500D01*
X163723Y-18463D01*
X164312Y-18350D01*
X164919Y-18162D01*
X165542Y-17900D01*
X166183Y-17563D01*
X166841Y-17150D01*
X167516Y-16662D01*
X168208Y-16100D01*
X169644Y-14750D01*
Y-25250D01*
D02*
G37*
G36*
X249644D02*
X248917Y-24537D01*
X247516Y-23338D01*
X246841Y-22850D01*
X246183Y-22438D01*
X245542Y-22100D01*
X244919Y-21837D01*
X244312Y-21650D01*
X243723Y-21537D01*
X243151Y-21500D01*
Y-18500D01*
X243723Y-18463D01*
X244312Y-18350D01*
X244919Y-18162D01*
X245542Y-17900D01*
X246183Y-17563D01*
X246841Y-17150D01*
X247516Y-16662D01*
X248208Y-16100D01*
X249644Y-14750D01*
Y-25250D01*
D02*
G37*
G36*
X209644D02*
X208917Y-24537D01*
X207516Y-23338D01*
X206841Y-22850D01*
X206183Y-22438D01*
X205542Y-22100D01*
X204919Y-21837D01*
X204312Y-21650D01*
X203723Y-21537D01*
X203151Y-21500D01*
Y-18500D01*
X203723Y-18463D01*
X204312Y-18350D01*
X204919Y-18162D01*
X205542Y-17900D01*
X206183Y-17563D01*
X206841Y-17150D01*
X207516Y-16662D01*
X208208Y-16100D01*
X209644Y-14750D01*
Y-25250D01*
D02*
G37*
G36*
X147703Y-124175D02*
X147451Y-124284D01*
X147228Y-124466D01*
X147035Y-124721D01*
X146871Y-125049D01*
X146738Y-125450D01*
X146634Y-125924D01*
X146559Y-126471D01*
X146515Y-127091D01*
X146500Y-127783D01*
X143500D01*
X143485Y-127091D01*
X143366Y-125924D01*
X143262Y-125450D01*
X143129Y-125049D01*
X142965Y-124721D01*
X142772Y-124466D01*
X142549Y-124284D01*
X142297Y-124175D01*
X142014Y-124138D01*
X147986D01*
X147703Y-124175D01*
D02*
G37*
G36*
X167979Y-152637D02*
X167875Y-152421D01*
X167733Y-152227D01*
X167553Y-152057D01*
X167336Y-151909D01*
X167081Y-151784D01*
X166788Y-151682D01*
X166458Y-151602D01*
X166089Y-151545D01*
X165683Y-151511D01*
X165240Y-151500D01*
Y-148500D01*
X165683Y-148489D01*
X166089Y-148455D01*
X166458Y-148398D01*
X166788Y-148318D01*
X167081Y-148216D01*
X167336Y-148091D01*
X167553Y-147943D01*
X167733Y-147773D01*
X167875Y-147579D01*
X167979Y-147363D01*
Y-152637D01*
D02*
G37*
G36*
X128113Y-140939D02*
X128610Y-141276D01*
X129171Y-141572D01*
X129797Y-141827D01*
X130489Y-142042D01*
X131246Y-142215D01*
X132068Y-142348D01*
X132955Y-142440D01*
X134925Y-142500D01*
X127500Y-149925D01*
X127490Y-148907D01*
X127348Y-147068D01*
X127215Y-146246D01*
X127042Y-145489D01*
X126827Y-144797D01*
X126572Y-144171D01*
X126276Y-143610D01*
X125939Y-143113D01*
X125561Y-142683D01*
X127683Y-140561D01*
X128113Y-140939D01*
D02*
G37*
G36*
X208113D02*
X208610Y-141276D01*
X209171Y-141572D01*
X209797Y-141827D01*
X210489Y-142042D01*
X211246Y-142215D01*
X212068Y-142348D01*
X212955Y-142440D01*
X214925Y-142500D01*
X207500Y-149925D01*
X207490Y-148907D01*
X207348Y-147068D01*
X207215Y-146246D01*
X207042Y-145489D01*
X206828Y-144797D01*
X206572Y-144171D01*
X206276Y-143610D01*
X205939Y-143113D01*
X205561Y-142683D01*
X207682Y-140561D01*
X208113Y-140939D01*
D02*
G37*
G36*
X189741Y-122412D02*
X189573Y-122602D01*
X189486Y-122831D01*
X189480Y-123100D01*
X189556Y-123407D01*
X189713Y-123754D01*
X189951Y-124140D01*
X190271Y-124565D01*
X190672Y-125030D01*
X191155Y-125534D01*
X188362Y-126983D01*
X187826Y-126468D01*
X186832Y-125641D01*
X186374Y-125330D01*
X185943Y-125086D01*
X185537Y-124910D01*
X185158Y-124803D01*
X184805Y-124763D01*
X184478Y-124791D01*
X184177Y-124887D01*
X189991Y-122261D01*
X189741Y-122412D01*
D02*
G37*
G36*
X210998Y-112285D02*
X211089Y-112540D01*
X211241Y-112765D01*
X211453Y-112960D01*
X211726Y-113125D01*
X212059Y-113260D01*
X212453Y-113365D01*
X212907Y-113440D01*
X213423Y-113485D01*
X213998Y-113500D01*
Y-116500D01*
X213423Y-116515D01*
X212907Y-116560D01*
X212453Y-116635D01*
X212059Y-116740D01*
X211726Y-116875D01*
X211453Y-117040D01*
X211241Y-117235D01*
X211089Y-117460D01*
X210998Y-117715D01*
X210968Y-118000D01*
Y-112000D01*
X210998Y-112285D01*
D02*
G37*
G36*
X187703Y10825D02*
X187451Y10716D01*
X187228Y10534D01*
X187035Y10279D01*
X186871Y9951D01*
X186738Y9549D01*
X186634Y9076D01*
X186559Y8529D01*
X186515Y7909D01*
X186500Y7217D01*
X183500D01*
X183485Y7909D01*
X183366Y9076D01*
X183262Y9549D01*
X183129Y9951D01*
X182965Y10279D01*
X182772Y10534D01*
X182549Y10716D01*
X182297Y10825D01*
X182014Y10862D01*
X187986D01*
X187703Y10825D01*
D02*
G37*
G36*
X147703D02*
X147451Y10716D01*
X147228Y10534D01*
X147035Y10279D01*
X146871Y9951D01*
X146738Y9549D01*
X146634Y9076D01*
X146559Y8529D01*
X146515Y7909D01*
X146500Y7217D01*
X143500D01*
X143485Y7909D01*
X143366Y9076D01*
X143262Y9549D01*
X143129Y9951D01*
X142965Y10279D01*
X142772Y10534D01*
X142549Y10716D01*
X142297Y10825D01*
X142014Y10862D01*
X147986D01*
X147703Y10825D01*
D02*
G37*
G36*
X210998Y22715D02*
X211089Y22460D01*
X211241Y22235D01*
X211453Y22040D01*
X211726Y21875D01*
X212059Y21740D01*
X212453Y21635D01*
X212907Y21560D01*
X213423Y21515D01*
X213998Y21500D01*
Y18500D01*
X213423Y18485D01*
X212907Y18440D01*
X212453Y18365D01*
X212059Y18260D01*
X211726Y18125D01*
X211453Y17960D01*
X211241Y17765D01*
X211089Y17540D01*
X210998Y17285D01*
X210968Y17000D01*
Y23000D01*
X210998Y22715D01*
D02*
G37*
G36*
X248113Y-140939D02*
X248610Y-141276D01*
X249171Y-141572D01*
X249797Y-141827D01*
X250489Y-142042D01*
X251246Y-142215D01*
X252068Y-142348D01*
X252955Y-142440D01*
X254925Y-142500D01*
X247500Y-149925D01*
X247490Y-148907D01*
X247348Y-147068D01*
X247215Y-146246D01*
X247042Y-145489D01*
X246827Y-144797D01*
X246572Y-144171D01*
X246276Y-143610D01*
X245939Y-143113D01*
X245561Y-142683D01*
X247682Y-140561D01*
X248113Y-140939D01*
D02*
G37*
G36*
X288113D02*
X288610Y-141276D01*
X289171Y-141572D01*
X289797Y-141827D01*
X290489Y-142042D01*
X291246Y-142215D01*
X292068Y-142348D01*
X292955Y-142440D01*
X294925Y-142500D01*
X287500Y-149925D01*
X287490Y-148907D01*
X287348Y-147068D01*
X287215Y-146246D01*
X287042Y-145489D01*
X286827Y-144797D01*
X286572Y-144171D01*
X286276Y-143610D01*
X285939Y-143113D01*
X285561Y-142683D01*
X287682Y-140561D01*
X288113Y-140939D01*
D02*
G37*
G36*
X127703Y10825D02*
X127451Y10716D01*
X127228Y10534D01*
X127035Y10279D01*
X126871Y9951D01*
X126738Y9549D01*
X126634Y9076D01*
X126559Y8529D01*
X126515Y7909D01*
X126500Y7217D01*
X123500D01*
X123485Y7909D01*
X123366Y9076D01*
X123262Y9549D01*
X123129Y9951D01*
X122965Y10279D01*
X122772Y10534D01*
X122549Y10716D01*
X122297Y10825D01*
X122014Y10862D01*
X127986D01*
X127703Y10825D01*
D02*
G37*
G36*
X288113Y-10939D02*
X288610Y-11276D01*
X289171Y-11572D01*
X289797Y-11827D01*
X290489Y-12042D01*
X291246Y-12215D01*
X292068Y-12348D01*
X292955Y-12440D01*
X294925Y-12500D01*
X287500Y-19925D01*
X287490Y-18907D01*
X287348Y-17068D01*
X287215Y-16246D01*
X287042Y-15489D01*
X286827Y-14797D01*
X286572Y-14171D01*
X286276Y-13609D01*
X285939Y-13113D01*
X285561Y-12682D01*
X287682Y-10561D01*
X288113Y-10939D01*
D02*
G37*
G36*
X128113D02*
X128610Y-11276D01*
X129171Y-11572D01*
X129797Y-11827D01*
X130489Y-12042D01*
X131246Y-12215D01*
X132068Y-12348D01*
X132955Y-12440D01*
X134925Y-12500D01*
X127500Y-19925D01*
X127490Y-18907D01*
X127348Y-17068D01*
X127215Y-16246D01*
X127042Y-15489D01*
X126827Y-14797D01*
X126572Y-14171D01*
X126276Y-13609D01*
X125939Y-13113D01*
X125561Y-12682D01*
X127683Y-10561D01*
X128113Y-10939D01*
D02*
G37*
G36*
X304800Y0D02*
Y-13881D01*
X303202Y-11798D01*
X300800Y-9955D01*
X298002Y-8796D01*
X295000Y-8401D01*
X294867Y-8418D01*
X293228Y-8368D01*
X292603Y-8303D01*
X292027Y-8210D01*
X291550Y-8101D01*
X291173Y-7984D01*
X290896Y-7871D01*
X290713Y-7775D01*
X290689Y-7758D01*
X281505Y1425D01*
X279686Y2641D01*
X277540Y3068D01*
X241083D01*
X220185Y23965D01*
X218366Y25181D01*
X216220Y25608D01*
X214875D01*
X214743Y26611D01*
X213735Y29043D01*
X212132Y31132D01*
X210043Y32735D01*
X207610Y33743D01*
X205000Y34086D01*
X202390Y33743D01*
X199957Y32735D01*
X197868Y31132D01*
X196265Y29043D01*
X195257Y26611D01*
X195000Y24655D01*
X194743Y26611D01*
X193735Y29043D01*
X192132Y31132D01*
X190043Y32735D01*
X187610Y33743D01*
X185000Y34086D01*
X182390Y33743D01*
X179957Y32735D01*
X177868Y31132D01*
X176265Y29043D01*
X175257Y26611D01*
X175000Y24655D01*
X174743Y26611D01*
X173735Y29043D01*
X172132Y31132D01*
X170043Y32735D01*
X167610Y33743D01*
X165000Y34086D01*
X162390Y33743D01*
X159957Y32735D01*
X157868Y31132D01*
X156265Y29043D01*
X155257Y26611D01*
X155000Y24655D01*
X154743Y26611D01*
X153735Y29043D01*
X152132Y31132D01*
X150043Y32735D01*
X147611Y33743D01*
X145000Y34086D01*
X142389Y33743D01*
X139957Y32735D01*
X137868Y31132D01*
X136265Y29043D01*
X135257Y26611D01*
X135000Y24655D01*
X134743Y26611D01*
X133735Y29043D01*
X132132Y31132D01*
X130043Y32735D01*
X127611Y33743D01*
X125000Y34086D01*
X122389Y33743D01*
X119957Y32735D01*
X117868Y31132D01*
X116265Y29043D01*
X115257Y26611D01*
X115000Y24655D01*
X114743Y26611D01*
X113735Y29043D01*
X112132Y31132D01*
X110043Y32735D01*
X107611Y33743D01*
X105000Y34086D01*
X102389Y33743D01*
X99957Y32735D01*
X97868Y31132D01*
X96265Y29043D01*
X95257Y26611D01*
X94914Y24000D01*
Y16000D01*
X95257Y13390D01*
X96265Y10957D01*
X97868Y8868D01*
X99957Y7265D01*
X102389Y6257D01*
X105000Y5914D01*
X107611Y6257D01*
X110043Y7265D01*
X112132Y8868D01*
X113735Y10957D01*
X114743Y13390D01*
X115000Y15345D01*
X115257Y13390D01*
X116265Y10957D01*
X117868Y8868D01*
X119392Y7698D01*
Y-10000D01*
X119819Y-12146D01*
X121035Y-13965D01*
X122758Y-15689D01*
X122775Y-15713D01*
X122871Y-15896D01*
X122984Y-16173D01*
X123101Y-16550D01*
X123210Y-17027D01*
X123295Y-17551D01*
X123414Y-19085D01*
X123421Y-19846D01*
X123401Y-20000D01*
X123796Y-23002D01*
X124955Y-25800D01*
X126798Y-28202D01*
X129200Y-30045D01*
X131998Y-31204D01*
X135000Y-31599D01*
X138002Y-31204D01*
X140800Y-30045D01*
X143202Y-28202D01*
X145045Y-25800D01*
X146204Y-23002D01*
X146599Y-20000D01*
X146204Y-16998D01*
X145045Y-14200D01*
X143202Y-11798D01*
X140800Y-9955D01*
X138002Y-8796D01*
X135000Y-8401D01*
X134867Y-8418D01*
X133228Y-8368D01*
X132603Y-8303D01*
X132027Y-8210D01*
X131550Y-8101D01*
X131173Y-7984D01*
X130896Y-7871D01*
X130713Y-7775D01*
X130689Y-7758D01*
X130608Y-7677D01*
Y7698D01*
X132132Y8868D01*
X133735Y10957D01*
X134743Y13390D01*
X135000Y15345D01*
X135257Y13390D01*
X136265Y10957D01*
X137868Y8868D01*
X139392Y7698D01*
Y-2760D01*
X139819Y-4906D01*
X141035Y-6725D01*
X158275Y-23965D01*
X160094Y-25181D01*
X162240Y-25608D01*
X163295D01*
X163325Y-25613D01*
X163521Y-25674D01*
X163797Y-25791D01*
X164146Y-25974D01*
X164561Y-26234D01*
X164991Y-26545D01*
X166160Y-27546D01*
X166703Y-28079D01*
X166798Y-28202D01*
X169200Y-30045D01*
X171998Y-31204D01*
X175000Y-31599D01*
X178002Y-31204D01*
X180800Y-30045D01*
X183202Y-28202D01*
X185045Y-25800D01*
X186204Y-23002D01*
X186599Y-20000D01*
X186488Y-19159D01*
X191295Y-23965D01*
X193114Y-25181D01*
X195260Y-25608D01*
X203295D01*
X203325Y-25613D01*
X203521Y-25674D01*
X203797Y-25791D01*
X204146Y-25974D01*
X204561Y-26234D01*
X204991Y-26545D01*
X206160Y-27546D01*
X206703Y-28079D01*
X206798Y-28202D01*
X209200Y-30045D01*
X211998Y-31204D01*
X215000Y-31599D01*
X218002Y-31204D01*
X220800Y-30045D01*
X223202Y-28202D01*
X225045Y-25800D01*
X226204Y-23002D01*
X226599Y-20000D01*
X226391Y-18422D01*
X231935Y-23965D01*
X233754Y-25181D01*
X235900Y-25608D01*
X243295D01*
X243325Y-25613D01*
X243521Y-25674D01*
X243797Y-25791D01*
X244146Y-25974D01*
X244561Y-26234D01*
X244991Y-26545D01*
X246160Y-27546D01*
X246703Y-28079D01*
X246798Y-28202D01*
X249200Y-30045D01*
X251998Y-31204D01*
X255000Y-31599D01*
X258002Y-31204D01*
X260800Y-30045D01*
X263202Y-28202D01*
X265045Y-25800D01*
X266204Y-23002D01*
X266599Y-20000D01*
X266204Y-16998D01*
X265045Y-14200D01*
X263202Y-11798D01*
X260800Y-9955D01*
X258002Y-8796D01*
X255000Y-8401D01*
X251998Y-8796D01*
X249200Y-9955D01*
X246798Y-11798D01*
X246716Y-11904D01*
X245522Y-13028D01*
X245034Y-13424D01*
X244561Y-13766D01*
X244146Y-14026D01*
X243797Y-14210D01*
X243521Y-14326D01*
X243325Y-14387D01*
X243295Y-14392D01*
X238223D01*
X222405Y1425D01*
X220586Y2641D01*
X218440Y3068D01*
X195363D01*
X190678Y7752D01*
X192132Y8868D01*
X193735Y10957D01*
X194743Y13390D01*
X195000Y15345D01*
X195257Y13390D01*
X196265Y10957D01*
X197868Y8868D01*
X199957Y7265D01*
X202390Y6257D01*
X205000Y5914D01*
X207610Y6257D01*
X210043Y7265D01*
X212132Y8868D01*
X213735Y10957D01*
X214743Y13390D01*
X214761Y13529D01*
X234795Y-6505D01*
X236614Y-7721D01*
X238760Y-8148D01*
X275217D01*
X282758Y-15689D01*
X282775Y-15713D01*
X282871Y-15896D01*
X282984Y-16173D01*
X283101Y-16550D01*
X283210Y-17027D01*
X283295Y-17551D01*
X283414Y-19085D01*
X283421Y-19846D01*
X283401Y-20000D01*
X283796Y-23002D01*
X284955Y-25800D01*
X286798Y-28202D01*
X289200Y-30045D01*
X291998Y-31204D01*
X295000Y-31599D01*
X298002Y-31204D01*
X300800Y-30045D01*
X303202Y-28202D01*
X304800Y-26119D01*
Y-39281D01*
X303202Y-37198D01*
X300800Y-35355D01*
X298002Y-34196D01*
X295000Y-33801D01*
X291998Y-34196D01*
X289200Y-35355D01*
X286798Y-37198D01*
X284955Y-39600D01*
X283796Y-42398D01*
X283401Y-45400D01*
X283796Y-48402D01*
X284955Y-51200D01*
X286798Y-53602D01*
X289200Y-55445D01*
X291998Y-56604D01*
X295000Y-56999D01*
X298002Y-56604D01*
X300800Y-55445D01*
X303202Y-53602D01*
X304800Y-51519D01*
Y-143881D01*
X303202Y-141798D01*
X300800Y-139955D01*
X298002Y-138796D01*
X295000Y-138401D01*
X294867Y-138418D01*
X293228Y-138368D01*
X292603Y-138303D01*
X292027Y-138210D01*
X291550Y-138101D01*
X291173Y-137984D01*
X290896Y-137871D01*
X290713Y-137775D01*
X290689Y-137758D01*
X263965Y-111035D01*
X262146Y-109819D01*
X260000Y-109392D01*
X214875D01*
X214743Y-108390D01*
X213735Y-105957D01*
X212132Y-103868D01*
X210043Y-102265D01*
X207610Y-101257D01*
X205000Y-100914D01*
X202390Y-101257D01*
X199957Y-102265D01*
X197868Y-103868D01*
X196265Y-105957D01*
X195257Y-108390D01*
X195000Y-110345D01*
X194743Y-108390D01*
X193735Y-105957D01*
X192132Y-103868D01*
X190043Y-102265D01*
X187610Y-101257D01*
X185000Y-100914D01*
X182390Y-101257D01*
X179957Y-102265D01*
X177868Y-103868D01*
X176265Y-105957D01*
X175257Y-108390D01*
X175000Y-110345D01*
X174743Y-108390D01*
X173735Y-105957D01*
X172132Y-103868D01*
X170043Y-102265D01*
X167610Y-101257D01*
X165000Y-100914D01*
X162390Y-101257D01*
X159957Y-102265D01*
X157868Y-103868D01*
X156265Y-105957D01*
X155257Y-108390D01*
X155000Y-110345D01*
X154743Y-108390D01*
X153735Y-105957D01*
X152132Y-103868D01*
X150043Y-102265D01*
X147611Y-101257D01*
X145000Y-100914D01*
X142389Y-101257D01*
X139957Y-102265D01*
X137868Y-103868D01*
X136265Y-105957D01*
X135257Y-108390D01*
X135000Y-110345D01*
X134743Y-108390D01*
X133735Y-105957D01*
X132132Y-103868D01*
X130043Y-102265D01*
X127611Y-101257D01*
X125000Y-100914D01*
X122389Y-101257D01*
X119957Y-102265D01*
X117868Y-103868D01*
X116265Y-105957D01*
X115257Y-108390D01*
X115000Y-110345D01*
X114743Y-108390D01*
X113735Y-105957D01*
X112132Y-103868D01*
X110043Y-102265D01*
X107611Y-101257D01*
X105000Y-100914D01*
X102389Y-101257D01*
X99957Y-102265D01*
X97868Y-103868D01*
X96265Y-105957D01*
X95257Y-108390D01*
X94914Y-111000D01*
Y-119000D01*
X95257Y-121610D01*
X96265Y-124043D01*
X97868Y-126132D01*
X99957Y-127735D01*
X102389Y-128743D01*
X105000Y-129086D01*
X107611Y-128743D01*
X110043Y-127735D01*
X112132Y-126132D01*
X113735Y-124043D01*
X114743Y-121610D01*
X115000Y-119655D01*
X115257Y-121610D01*
X116265Y-124043D01*
X117868Y-126132D01*
X119392Y-127302D01*
Y-140000D01*
X119819Y-142146D01*
X121035Y-143965D01*
X122758Y-145689D01*
X122775Y-145713D01*
X122871Y-145896D01*
X122984Y-146173D01*
X123101Y-146550D01*
X123210Y-147027D01*
X123295Y-147551D01*
X123414Y-149085D01*
X123421Y-149846D01*
X123401Y-150000D01*
X123796Y-153002D01*
X124955Y-155800D01*
X126798Y-158202D01*
X129200Y-160045D01*
X131998Y-161204D01*
X135000Y-161599D01*
X138002Y-161204D01*
X140800Y-160045D01*
X143202Y-158202D01*
X145045Y-155800D01*
X146204Y-153002D01*
X146599Y-150000D01*
X146204Y-146998D01*
X145045Y-144200D01*
X143202Y-141798D01*
X140800Y-139955D01*
X138002Y-138796D01*
X135000Y-138401D01*
X134867Y-138418D01*
X133228Y-138368D01*
X132603Y-138303D01*
X132027Y-138210D01*
X131550Y-138101D01*
X131173Y-137984D01*
X130896Y-137871D01*
X130713Y-137775D01*
X130689Y-137758D01*
X130608Y-137677D01*
Y-127302D01*
X132132Y-126132D01*
X133735Y-124043D01*
X134743Y-121610D01*
X135000Y-119655D01*
X135257Y-121610D01*
X136265Y-124043D01*
X137868Y-126132D01*
X139392Y-127302D01*
Y-129760D01*
X139819Y-131906D01*
X141035Y-133725D01*
X161275Y-153965D01*
X163094Y-155181D01*
X164842Y-155529D01*
X164955Y-155800D01*
X166798Y-158202D01*
X169200Y-160045D01*
X171998Y-161204D01*
X175000Y-161599D01*
X178002Y-161204D01*
X180800Y-160045D01*
X183202Y-158202D01*
X185045Y-155800D01*
X186204Y-153002D01*
X186599Y-150000D01*
X186204Y-146998D01*
X185045Y-144200D01*
X184299Y-143228D01*
X200297D01*
X202758Y-145689D01*
X202775Y-145713D01*
X202871Y-145896D01*
X202984Y-146173D01*
X203101Y-146550D01*
X203210Y-147027D01*
X203295Y-147551D01*
X203414Y-149085D01*
X203421Y-149846D01*
X203401Y-150000D01*
X203796Y-153002D01*
X204955Y-155800D01*
X206798Y-158202D01*
X209200Y-160045D01*
X211998Y-161204D01*
X215000Y-161599D01*
X218002Y-161204D01*
X220800Y-160045D01*
X223202Y-158202D01*
X225045Y-155800D01*
X226204Y-153002D01*
X226599Y-150000D01*
X226204Y-146998D01*
X225045Y-144200D01*
X223202Y-141798D01*
X220800Y-139955D01*
X218002Y-138796D01*
X215000Y-138401D01*
X214867Y-138418D01*
X213228Y-138368D01*
X212603Y-138303D01*
X212027Y-138210D01*
X211550Y-138101D01*
X211173Y-137984D01*
X210896Y-137871D01*
X210713Y-137775D01*
X210689Y-137758D01*
X208078Y-135148D01*
X232217D01*
X242758Y-145689D01*
X242775Y-145713D01*
X242871Y-145896D01*
X242984Y-146173D01*
X243101Y-146550D01*
X243210Y-147027D01*
X243295Y-147551D01*
X243414Y-149085D01*
X243421Y-149846D01*
X243401Y-150000D01*
X243796Y-153002D01*
X244955Y-155800D01*
X246798Y-158202D01*
X249200Y-160045D01*
X251998Y-161204D01*
X255000Y-161599D01*
X258002Y-161204D01*
X260800Y-160045D01*
X263202Y-158202D01*
X265045Y-155800D01*
X266204Y-153002D01*
X266599Y-150000D01*
X266204Y-146998D01*
X265045Y-144200D01*
X263202Y-141798D01*
X260800Y-139955D01*
X258002Y-138796D01*
X255000Y-138401D01*
X254867Y-138418D01*
X253228Y-138368D01*
X252603Y-138303D01*
X252027Y-138210D01*
X251550Y-138101D01*
X251173Y-137984D01*
X250896Y-137871D01*
X250713Y-137775D01*
X250689Y-137758D01*
X238505Y-125575D01*
X236686Y-124359D01*
X234540Y-123932D01*
X213781D01*
X214743Y-121610D01*
X214875Y-120608D01*
X257677D01*
X282758Y-145689D01*
X282775Y-145713D01*
X282871Y-145896D01*
X282984Y-146173D01*
X283101Y-146550D01*
X283210Y-147027D01*
X283295Y-147551D01*
X283414Y-149085D01*
X283421Y-149846D01*
X283401Y-150000D01*
X283796Y-153002D01*
X284955Y-155800D01*
X286798Y-158202D01*
X289200Y-160045D01*
X291998Y-161204D01*
X295000Y-161599D01*
X298002Y-161204D01*
X300800Y-160045D01*
X303202Y-158202D01*
X304800Y-156119D01*
Y-169281D01*
X303202Y-167198D01*
X300800Y-165355D01*
X298002Y-164196D01*
X295000Y-163801D01*
X291998Y-164196D01*
X289200Y-165355D01*
X286798Y-167198D01*
X284955Y-169600D01*
X283796Y-172398D01*
X283401Y-175400D01*
X283796Y-178402D01*
X284955Y-181200D01*
X286798Y-183602D01*
X289200Y-185445D01*
X291998Y-186604D01*
X295000Y-186999D01*
X298002Y-186604D01*
X300800Y-185445D01*
X303202Y-183602D01*
X304800Y-181519D01*
Y-214902D01*
X5098D01*
Y-181386D01*
X6798Y-183602D01*
X9200Y-185445D01*
X11998Y-186604D01*
X15000Y-186999D01*
X18002Y-186604D01*
X20800Y-185445D01*
X23202Y-183602D01*
X25045Y-181200D01*
X26204Y-178402D01*
X26599Y-175400D01*
X26204Y-172398D01*
X25045Y-169600D01*
X23202Y-167198D01*
X20800Y-165355D01*
X18002Y-164196D01*
X15000Y-163801D01*
X11998Y-164196D01*
X9200Y-165355D01*
X6798Y-167198D01*
X5098Y-169414D01*
Y-155986D01*
X6798Y-158202D01*
X9200Y-160045D01*
X11998Y-161204D01*
X15000Y-161599D01*
X18002Y-161204D01*
X20800Y-160045D01*
X23202Y-158202D01*
X25045Y-155800D01*
X26204Y-153002D01*
X26599Y-150000D01*
X26204Y-146998D01*
X25045Y-144200D01*
X23202Y-141798D01*
X20800Y-139955D01*
X18002Y-138796D01*
X15000Y-138401D01*
X11998Y-138796D01*
X9200Y-139955D01*
X6798Y-141798D01*
X5098Y-144014D01*
Y-51386D01*
X6798Y-53602D01*
X9200Y-55445D01*
X11998Y-56604D01*
X15000Y-56999D01*
X18002Y-56604D01*
X20800Y-55445D01*
X23202Y-53602D01*
X25045Y-51200D01*
X26204Y-48402D01*
X26599Y-45400D01*
X26204Y-42398D01*
X25045Y-39600D01*
X23202Y-37198D01*
X20800Y-35355D01*
X18002Y-34196D01*
X15000Y-33801D01*
X11998Y-34196D01*
X9200Y-35355D01*
X6798Y-37198D01*
X5098Y-39414D01*
Y-25986D01*
X6798Y-28202D01*
X9200Y-30045D01*
X11998Y-31204D01*
X15000Y-31599D01*
X18002Y-31204D01*
X20800Y-30045D01*
X23202Y-28202D01*
X25045Y-25800D01*
X26204Y-23002D01*
X26599Y-20000D01*
X26204Y-16998D01*
X25045Y-14200D01*
X23202Y-11798D01*
X20800Y-9955D01*
X18002Y-8796D01*
X15000Y-8401D01*
X11998Y-8796D01*
X9200Y-9955D01*
X6798Y-11798D01*
X5098Y-14014D01*
Y0D01*
Y94902D01*
X304800D01*
Y0D01*
D02*
G37*
G36*
X168030Y11073D02*
X167758Y10983D01*
X167585Y10838D01*
X167511Y10636D01*
X167535Y10378D01*
X167657Y10065D01*
X167878Y9695D01*
X168197Y9269D01*
X168615Y8788D01*
X169131Y8250D01*
X166296Y6843D01*
X161667Y11013D01*
X168400Y11107D01*
X168030Y11073D01*
D02*
G37*
G36*
X155257Y13390D02*
X156265Y10957D01*
X157868Y8868D01*
X158758Y8185D01*
X158824Y8088D01*
X158891Y8046D01*
X158938Y7983D01*
X163068Y4262D01*
X175841Y-8511D01*
X175000Y-8401D01*
X171998Y-8796D01*
X169200Y-9955D01*
X166798Y-11798D01*
X166716Y-11904D01*
X165522Y-13028D01*
X165034Y-13424D01*
X164561Y-13766D01*
X164177Y-14007D01*
X150608Y-437D01*
Y7698D01*
X152132Y8868D01*
X153735Y10957D01*
X154743Y13390D01*
X155000Y15345D01*
X155257Y13390D01*
D02*
G37*
%LPC*%
G36*
X135000Y-163801D02*
X131998Y-164196D01*
X129200Y-165355D01*
X126798Y-167198D01*
X124955Y-169600D01*
X123796Y-172398D01*
X123401Y-175400D01*
X123796Y-178402D01*
X124955Y-181200D01*
X126798Y-183602D01*
X129200Y-185445D01*
X131998Y-186604D01*
X135000Y-186999D01*
X138002Y-186604D01*
X140800Y-185445D01*
X143202Y-183602D01*
X145045Y-181200D01*
X146204Y-178402D01*
X146599Y-175400D01*
X146204Y-172398D01*
X145045Y-169600D01*
X143202Y-167198D01*
X140800Y-165355D01*
X138002Y-164196D01*
X135000Y-163801D01*
D02*
G37*
G36*
X175000D02*
X171998Y-164196D01*
X169200Y-165355D01*
X166798Y-167198D01*
X164955Y-169600D01*
X163796Y-172398D01*
X163401Y-175400D01*
X163796Y-178402D01*
X164955Y-181200D01*
X166798Y-183602D01*
X169200Y-185445D01*
X171998Y-186604D01*
X175000Y-186999D01*
X178002Y-186604D01*
X180800Y-185445D01*
X183202Y-183602D01*
X185045Y-181200D01*
X186204Y-178402D01*
X186599Y-175400D01*
X186204Y-172398D01*
X185045Y-169600D01*
X183202Y-167198D01*
X180800Y-165355D01*
X178002Y-164196D01*
X175000Y-163801D01*
D02*
G37*
G36*
X55000D02*
X51998Y-164196D01*
X49200Y-165355D01*
X46798Y-167198D01*
X44955Y-169600D01*
X43796Y-172398D01*
X43401Y-175400D01*
X43796Y-178402D01*
X44955Y-181200D01*
X46798Y-183602D01*
X49200Y-185445D01*
X51998Y-186604D01*
X55000Y-186999D01*
X58002Y-186604D01*
X60800Y-185445D01*
X63202Y-183602D01*
X65045Y-181200D01*
X66204Y-178402D01*
X66599Y-175400D01*
X66204Y-172398D01*
X65045Y-169600D01*
X63202Y-167198D01*
X60800Y-165355D01*
X58002Y-164196D01*
X55000Y-163801D01*
D02*
G37*
G36*
X95000D02*
X91998Y-164196D01*
X89200Y-165355D01*
X86798Y-167198D01*
X84955Y-169600D01*
X83796Y-172398D01*
X83401Y-175400D01*
X83796Y-178402D01*
X84955Y-181200D01*
X86798Y-183602D01*
X89200Y-185445D01*
X91998Y-186604D01*
X95000Y-186999D01*
X98002Y-186604D01*
X100800Y-185445D01*
X103202Y-183602D01*
X105045Y-181200D01*
X106204Y-178402D01*
X106599Y-175400D01*
X106204Y-172398D01*
X105045Y-169600D01*
X103202Y-167198D01*
X100800Y-165355D01*
X98002Y-164196D01*
X95000Y-163801D01*
D02*
G37*
G36*
X55000Y-138401D02*
X51998Y-138796D01*
X49200Y-139955D01*
X46798Y-141798D01*
X44955Y-144200D01*
X43796Y-146998D01*
X43401Y-150000D01*
X43796Y-153002D01*
X44955Y-155800D01*
X46798Y-158202D01*
X49200Y-160045D01*
X51998Y-161204D01*
X55000Y-161599D01*
X58002Y-161204D01*
X60800Y-160045D01*
X63202Y-158202D01*
X65045Y-155800D01*
X66204Y-153002D01*
X66599Y-150000D01*
X66204Y-146998D01*
X65045Y-144200D01*
X63202Y-141798D01*
X60800Y-139955D01*
X58002Y-138796D01*
X55000Y-138401D01*
D02*
G37*
G36*
X95000D02*
X91998Y-138796D01*
X89200Y-139955D01*
X86798Y-141798D01*
X84955Y-144200D01*
X83796Y-146998D01*
X83401Y-150000D01*
X83796Y-153002D01*
X84955Y-155800D01*
X86798Y-158202D01*
X89200Y-160045D01*
X91998Y-161204D01*
X95000Y-161599D01*
X98002Y-161204D01*
X100800Y-160045D01*
X103202Y-158202D01*
X105045Y-155800D01*
X106204Y-153002D01*
X106599Y-150000D01*
X106204Y-146998D01*
X105045Y-144200D01*
X103202Y-141798D01*
X100800Y-139955D01*
X98002Y-138796D01*
X95000Y-138401D01*
D02*
G37*
G36*
X215000Y-163801D02*
X211998Y-164196D01*
X209200Y-165355D01*
X206798Y-167198D01*
X204955Y-169600D01*
X203796Y-172398D01*
X203401Y-175400D01*
X203796Y-178402D01*
X204955Y-181200D01*
X206798Y-183602D01*
X209200Y-185445D01*
X211998Y-186604D01*
X215000Y-186999D01*
X218002Y-186604D01*
X220800Y-185445D01*
X223202Y-183602D01*
X225045Y-181200D01*
X226204Y-178402D01*
X226599Y-175400D01*
X226204Y-172398D01*
X225045Y-169600D01*
X223202Y-167198D01*
X220800Y-165355D01*
X218002Y-164196D01*
X215000Y-163801D01*
D02*
G37*
G36*
X255000D02*
X251998Y-164196D01*
X249200Y-165355D01*
X246798Y-167198D01*
X244955Y-169600D01*
X243796Y-172398D01*
X243401Y-175400D01*
X243796Y-178402D01*
X244955Y-181200D01*
X246798Y-183602D01*
X249200Y-185445D01*
X251998Y-186604D01*
X255000Y-186999D01*
X258002Y-186604D01*
X260800Y-185445D01*
X263202Y-183602D01*
X265045Y-181200D01*
X266204Y-178402D01*
X266599Y-175400D01*
X266204Y-172398D01*
X265045Y-169600D01*
X263202Y-167198D01*
X260800Y-165355D01*
X258002Y-164196D01*
X255000Y-163801D01*
D02*
G37*
G36*
X55000Y-8401D02*
X51998Y-8796D01*
X49200Y-9955D01*
X46798Y-11798D01*
X44955Y-14200D01*
X43796Y-16998D01*
X43401Y-20000D01*
X43796Y-23002D01*
X44955Y-25800D01*
X46798Y-28202D01*
X49200Y-30045D01*
X51998Y-31204D01*
X55000Y-31599D01*
X58002Y-31204D01*
X60800Y-30045D01*
X63202Y-28202D01*
X65045Y-25800D01*
X66204Y-23002D01*
X66599Y-20000D01*
X66204Y-16998D01*
X65045Y-14200D01*
X63202Y-11798D01*
X60800Y-9955D01*
X58002Y-8796D01*
X55000Y-8401D01*
D02*
G37*
G36*
X255000Y-33801D02*
X251998Y-34196D01*
X249200Y-35355D01*
X246798Y-37198D01*
X244955Y-39600D01*
X243796Y-42398D01*
X243401Y-45400D01*
X243796Y-48402D01*
X244955Y-51200D01*
X246798Y-53602D01*
X249200Y-55445D01*
X251998Y-56604D01*
X255000Y-56999D01*
X258002Y-56604D01*
X260800Y-55445D01*
X263202Y-53602D01*
X265045Y-51200D01*
X266204Y-48402D01*
X266599Y-45400D01*
X266204Y-42398D01*
X265045Y-39600D01*
X263202Y-37198D01*
X260800Y-35355D01*
X258002Y-34196D01*
X255000Y-33801D01*
D02*
G37*
G36*
X95000Y-8401D02*
X91998Y-8796D01*
X89200Y-9955D01*
X86798Y-11798D01*
X84955Y-14200D01*
X83796Y-16998D01*
X83401Y-20000D01*
X83796Y-23002D01*
X84955Y-25800D01*
X86798Y-28202D01*
X89200Y-30045D01*
X91998Y-31204D01*
X95000Y-31599D01*
X98002Y-31204D01*
X100800Y-30045D01*
X103202Y-28202D01*
X105045Y-25800D01*
X106204Y-23002D01*
X106599Y-20000D01*
X106204Y-16998D01*
X105045Y-14200D01*
X103202Y-11798D01*
X100800Y-9955D01*
X98002Y-8796D01*
X95000Y-8401D01*
D02*
G37*
G36*
X261310Y91357D02*
X253690D01*
X250167Y91010D01*
X246780Y89982D01*
X243658Y88314D01*
X240922Y86068D01*
X238676Y83332D01*
X237008Y80210D01*
X235980Y76823D01*
X235633Y73300D01*
X235980Y69777D01*
X237008Y66390D01*
X238676Y63268D01*
X240922Y60532D01*
X243658Y58286D01*
X246780Y56618D01*
X250167Y55590D01*
X253690Y55243D01*
X261310D01*
X264833Y55590D01*
X268220Y56618D01*
X271342Y58286D01*
X274078Y60532D01*
X276324Y63268D01*
X277992Y66390D01*
X279020Y69777D01*
X279367Y73300D01*
X279020Y76823D01*
X277992Y80210D01*
X276324Y83332D01*
X274078Y86068D01*
X271342Y88314D01*
X268220Y89982D01*
X264833Y91010D01*
X261310Y91357D01*
D02*
G37*
G36*
X45000Y34086D02*
X42389Y33743D01*
X39957Y32735D01*
X37868Y31132D01*
X36265Y29043D01*
X35257Y26611D01*
X35000Y24655D01*
X34743Y26611D01*
X33735Y29043D01*
X32132Y31132D01*
X30043Y32735D01*
X27610Y33743D01*
X25000Y34086D01*
X22390Y33743D01*
X19957Y32735D01*
X17868Y31132D01*
X16265Y29043D01*
X15257Y26611D01*
X14914Y24000D01*
Y16000D01*
X15257Y13390D01*
X16265Y10957D01*
X17868Y8868D01*
X19957Y7265D01*
X22390Y6257D01*
X25000Y5914D01*
X27610Y6257D01*
X30043Y7265D01*
X32132Y8868D01*
X33735Y10957D01*
X34743Y13390D01*
X35000Y15345D01*
X35257Y13390D01*
X36265Y10957D01*
X37868Y8868D01*
X39957Y7265D01*
X42389Y6257D01*
X45000Y5914D01*
X47611Y6257D01*
X50043Y7265D01*
X52132Y8868D01*
X53735Y10957D01*
X54743Y13390D01*
X55086Y16000D01*
Y24000D01*
X54743Y26611D01*
X53735Y29043D01*
X52132Y31132D01*
X50043Y32735D01*
X47611Y33743D01*
X45000Y34086D01*
D02*
G37*
G36*
X215000Y-33801D02*
X211998Y-34196D01*
X209200Y-35355D01*
X206798Y-37198D01*
X204955Y-39600D01*
X203796Y-42398D01*
X203401Y-45400D01*
X203796Y-48402D01*
X204955Y-51200D01*
X206798Y-53602D01*
X209200Y-55445D01*
X211998Y-56604D01*
X215000Y-56999D01*
X218002Y-56604D01*
X220800Y-55445D01*
X223202Y-53602D01*
X225045Y-51200D01*
X226204Y-48402D01*
X226599Y-45400D01*
X226204Y-42398D01*
X225045Y-39600D01*
X223202Y-37198D01*
X220800Y-35355D01*
X218002Y-34196D01*
X215000Y-33801D01*
D02*
G37*
G36*
X55000D02*
X51998Y-34196D01*
X49200Y-35355D01*
X46798Y-37198D01*
X44955Y-39600D01*
X43796Y-42398D01*
X43401Y-45400D01*
X43796Y-48402D01*
X44955Y-51200D01*
X46798Y-53602D01*
X49200Y-55445D01*
X51998Y-56604D01*
X55000Y-56999D01*
X58002Y-56604D01*
X60800Y-55445D01*
X63202Y-53602D01*
X65045Y-51200D01*
X66204Y-48402D01*
X66599Y-45400D01*
X66204Y-42398D01*
X65045Y-39600D01*
X63202Y-37198D01*
X60800Y-35355D01*
X58002Y-34196D01*
X55000Y-33801D01*
D02*
G37*
G36*
X45000Y-100914D02*
X42389Y-101257D01*
X39957Y-102265D01*
X37868Y-103868D01*
X36265Y-105957D01*
X35257Y-108390D01*
X35000Y-110345D01*
X34743Y-108390D01*
X33735Y-105957D01*
X32132Y-103868D01*
X30043Y-102265D01*
X27610Y-101257D01*
X25000Y-100914D01*
X22390Y-101257D01*
X19957Y-102265D01*
X17868Y-103868D01*
X16265Y-105957D01*
X15257Y-108390D01*
X14914Y-111000D01*
Y-119000D01*
X15257Y-121610D01*
X16265Y-124043D01*
X17868Y-126132D01*
X19957Y-127735D01*
X22390Y-128743D01*
X25000Y-129086D01*
X27610Y-128743D01*
X30043Y-127735D01*
X32132Y-126132D01*
X33735Y-124043D01*
X34743Y-121610D01*
X35000Y-119655D01*
X35257Y-121610D01*
X36265Y-124043D01*
X37868Y-126132D01*
X39957Y-127735D01*
X42389Y-128743D01*
X45000Y-129086D01*
X47611Y-128743D01*
X50043Y-127735D01*
X52132Y-126132D01*
X53735Y-124043D01*
X54743Y-121610D01*
X55086Y-119000D01*
Y-111000D01*
X54743Y-108390D01*
X53735Y-105957D01*
X52132Y-103868D01*
X50043Y-102265D01*
X47611Y-101257D01*
X45000Y-100914D01*
D02*
G37*
G36*
X95000Y-33801D02*
X91998Y-34196D01*
X89200Y-35355D01*
X86798Y-37198D01*
X84955Y-39600D01*
X83796Y-42398D01*
X83401Y-45400D01*
X83796Y-48402D01*
X84955Y-51200D01*
X86798Y-53602D01*
X89200Y-55445D01*
X91998Y-56604D01*
X95000Y-56999D01*
X98002Y-56604D01*
X100800Y-55445D01*
X103202Y-53602D01*
X105045Y-51200D01*
X106204Y-48402D01*
X106599Y-45400D01*
X106204Y-42398D01*
X105045Y-39600D01*
X103202Y-37198D01*
X100800Y-35355D01*
X98002Y-34196D01*
X95000Y-33801D01*
D02*
G37*
G36*
X175000D02*
X171998Y-34196D01*
X169200Y-35355D01*
X166798Y-37198D01*
X164955Y-39600D01*
X163796Y-42398D01*
X163401Y-45400D01*
X163796Y-48402D01*
X164955Y-51200D01*
X166798Y-53602D01*
X169200Y-55445D01*
X171998Y-56604D01*
X175000Y-56999D01*
X178002Y-56604D01*
X180800Y-55445D01*
X183202Y-53602D01*
X185045Y-51200D01*
X186204Y-48402D01*
X186599Y-45400D01*
X186204Y-42398D01*
X185045Y-39600D01*
X183202Y-37198D01*
X180800Y-35355D01*
X178002Y-34196D01*
X175000Y-33801D01*
D02*
G37*
G36*
X135000D02*
X131998Y-34196D01*
X129200Y-35355D01*
X126798Y-37198D01*
X124955Y-39600D01*
X123796Y-42398D01*
X123401Y-45400D01*
X123796Y-48402D01*
X124955Y-51200D01*
X126798Y-53602D01*
X129200Y-55445D01*
X131998Y-56604D01*
X135000Y-56999D01*
X138002Y-56604D01*
X140800Y-55445D01*
X143202Y-53602D01*
X145045Y-51200D01*
X146204Y-48402D01*
X146599Y-45400D01*
X146204Y-42398D01*
X145045Y-39600D01*
X143202Y-37198D01*
X140800Y-35355D01*
X138002Y-34196D01*
X135000Y-33801D01*
D02*
G37*
%LPD*%
D10*
X25000Y-115000D02*
D03*
X45000D02*
D03*
X65000D02*
D03*
X85000D02*
D03*
X105000D02*
D03*
X125000D02*
D03*
X145000D02*
D03*
X165000D02*
D03*
X185000D02*
D03*
X205000D02*
D03*
X25000Y20000D02*
D03*
X45000D02*
D03*
X65000D02*
D03*
X85000D02*
D03*
X105000D02*
D03*
X125000D02*
D03*
X145000D02*
D03*
X165000D02*
D03*
X185000D02*
D03*
X205000D02*
D03*
D11*
X257500Y73300D02*
D03*
Y22500D02*
D03*
D12*
X15000Y-20000D02*
D03*
Y-45400D02*
D03*
X55000Y-20000D02*
D03*
Y-45400D02*
D03*
X95000Y-20000D02*
D03*
Y-45400D02*
D03*
X135000Y-20000D02*
D03*
Y-45400D02*
D03*
X175000Y-20000D02*
D03*
Y-45400D02*
D03*
X95000Y-150000D02*
D03*
Y-175400D02*
D03*
X215000Y-20000D02*
D03*
Y-45400D02*
D03*
X135000Y-150000D02*
D03*
Y-175400D02*
D03*
X255000Y-20000D02*
D03*
Y-45400D02*
D03*
X175000Y-150000D02*
D03*
Y-175400D02*
D03*
X295000Y-20000D02*
D03*
Y-45400D02*
D03*
X215000Y-150000D02*
D03*
Y-175400D02*
D03*
X15000Y-150000D02*
D03*
Y-175400D02*
D03*
X255000Y-150000D02*
D03*
Y-175400D02*
D03*
X55000Y-150000D02*
D03*
Y-175400D02*
D03*
X295000Y-150000D02*
D03*
Y-175400D02*
D03*
D13*
X15000Y-70800D02*
D03*
X55000D02*
D03*
X95000D02*
D03*
X135000D02*
D03*
X175000D02*
D03*
X95000Y-200800D02*
D03*
X215000Y-70800D02*
D03*
X135000Y-200800D02*
D03*
X255000Y-70800D02*
D03*
X175000Y-200800D02*
D03*
X295000Y-70800D02*
D03*
X215000Y-200800D02*
D03*
X15000D02*
D03*
X255000D02*
D03*
X55000D02*
D03*
X295000D02*
D03*
D14*
X165240Y-150000D02*
X175000D01*
X145000Y-129760D02*
X165240Y-150000D01*
X145000Y-129760D02*
Y-115000D01*
X234540Y-129540D02*
X255000Y-150000D01*
X193040Y-129540D02*
X234540D01*
X185000Y-121500D02*
X193040Y-129540D01*
X185000Y-121500D02*
Y-115000D01*
X195260Y-20000D02*
X215000D01*
X165000Y10260D02*
X195260Y-20000D01*
X165000Y10260D02*
Y20000D01*
X218440Y-2540D02*
X235900Y-20000D01*
X193040Y-2540D02*
X218440D01*
X185000Y5500D02*
X193040Y-2540D01*
X238760D02*
X277540D01*
X216220Y20000D02*
X238760Y-2540D01*
X205000Y20000D02*
X216220D01*
X235900Y-20000D02*
X255000D01*
X277540Y-2540D02*
X295000Y-20000D01*
X185000Y5500D02*
Y20000D01*
X162240Y-20000D02*
X175000D01*
X145000Y-2760D02*
X162240Y-20000D01*
X145000Y-2760D02*
Y20000D01*
X125000Y-10000D02*
X135000Y-20000D01*
X125000Y-10000D02*
Y20000D01*
X260000Y-115000D02*
X295000Y-150000D01*
X205000Y-115000D02*
X260000D01*
X177620Y-137620D02*
X202620D01*
X215000Y-150000D01*
X165000Y-125000D02*
X177620Y-137620D01*
X165000Y-125000D02*
Y-115000D01*
X125000Y-140000D02*
X135000Y-150000D01*
X125000Y-140000D02*
Y-115000D01*
M02*
