M48
;Layer_Color=9474304
;FILE_FORMAT=4:4
METRIC,TZ
;TYPE=PLATED
T1F00S00C0.3000
T2F00S00C0.6000
T3F00S00C0.7874
T4F00S00C0.8128
T5F00S00C0.9000
T6F00S00C1.0000
T7F00S00C1.6000
T8F00S00C3.0000
%
T01
X-751000Y70000
Y85000
X-759000Y99000
X-74000Y64000
X-81000Y56000
X-66000
X-80000Y331000
Y385000
T02
X-549000Y-9000
X-172000Y134000
X-158000
X-172000Y314000
X-191000Y307000
X-237000
X-251000
X-387000
Y322000
X-555000Y374000
X-522000Y169000
X-533000Y158000
X-760000Y348000
X-856000Y325000
X-899000
X-881000Y370000
T03
X-874000Y72800
Y98200
X-797800
Y72800
X-695000Y72000
Y97400
X-618800
Y72000
Y122800
Y148200
Y173600
Y199000
Y224400
Y249800
Y275200
Y300600
X-695000
Y275200
Y249800
Y224400
Y199000
Y173600
Y148200
Y122800
X-797800Y123600
Y149000
Y174400
Y199800
Y225200
Y250600
Y276000
Y301400
X-874000
Y276000
Y250600
Y225200
Y199800
Y174400
Y149000
Y123600
T04
X-903000Y72600
Y98000
X-723000Y97400
Y72000
Y122800
Y148200
Y173600
Y199000
Y224400
Y249800
Y275200
X-903000Y275800
Y250400
Y225000
Y199600
Y174200
Y148800
Y123400
T05
X-945000Y64000
Y84000
Y104000
X-50800Y101600
X-25400
X0
Y76200
X-25400
X-50800
Y50800
X-25400
X0
Y25400
X-25400
X-50800
Y0
X-25400
X0
Y127000
Y152400
Y177800
Y203200
Y228600
Y254000
Y279400
X-25400
X-50800
Y254000
X-25400
Y228600
X-50800
Y203200
X-25400
Y177800
X-50800
Y152400
X-25400
Y127000
X-50800
X-770000Y199000
Y224400
Y249800
Y275200
X-945000Y266000
Y286000
Y306000
Y326000
Y346000
Y366000
Y386000
Y246000
Y204000
Y184000
Y164000
Y144000
Y124000
T06
X-943000Y34000
X-917600
X-892200
X-866800
X-841400
X-816000
X-790600
X-765200
X-739800
X-714400
X-689000
X-663600
X-638200
X-612800
X-587400
X-562000
X-536600
X-511200
X-485800
X-460400
X-435000
X-409600
X-384200
X-358800
X-333400
X-308000
X-282600
X-257200
X-231800
X-206400
X-181000
X-155600
X-130200
Y415000
X-155600
X-181000
X-206400
X-231800
X-257200
X-282600
X-308000
X-333400
X-358800
X-384200
X-409600
X-435000
X-460400
X-485800
X-511200
X-536600
X-562000
X-587400
X-612800
X-638200
X-663600
X-689000
X-714400
X-739800
X-765200
X-790600
X-816000
X-841400
X-866800
X-892200
X-917600
X-943000
T07
X-48412Y379352
X-48400Y419000
X2400
X2388Y379352
T08
X-349000Y103090
Y186910
M30
