G04 Layer_Color=65535*
%FSLAX44Y44*%
%MOMM*%
G71*
G01*
G75*
%ADD32C,0.1778*%
%ADD33C,0.2000*%
%ADD34C,0.3810*%
%ADD35C,0.2540*%
%ADD36C,0.1500*%
%ADD37C,0.1270*%
G36*
X-464820Y520700D02*
X-454660Y513080D01*
X-447040Y502920D01*
X-441960Y488950D01*
X-477520D01*
Y490160D01*
X-476324Y490398D01*
X-475309Y491076D01*
X-472440Y494030D01*
X-472387Y493977D01*
X-470997Y495789D01*
X-470123Y497898D01*
X-469825Y500162D01*
X-469900Y503664D01*
X-469815D01*
X-470152Y505356D01*
X-471110Y506790D01*
X-471110Y506730D01*
X-471348Y507926D01*
X-472025Y508941D01*
X-474980Y511810D01*
X-474920Y511870D01*
X-476354Y512828D01*
X-478046Y513165D01*
X-490964Y513080D01*
Y513165D01*
X-492656Y512828D01*
X-494090Y511870D01*
X-495300Y510540D01*
Y510600D01*
X-496496Y510362D01*
X-497510Y509684D01*
X-499110Y508000D01*
X-499170Y508060D01*
X-500128Y506626D01*
X-500465Y504934D01*
X-500380Y497840D01*
X-491490Y488950D01*
X-528320D01*
X-527050Y494030D01*
X-521970Y505460D01*
X-514350Y514350D01*
X-502920Y521970D01*
X-490220Y525780D01*
X-480060D01*
X-464820Y520700D01*
D02*
G37*
G36*
Y612140D02*
X-454660Y604520D01*
X-447040Y594360D01*
X-441960Y580390D01*
X-477520D01*
Y581600D01*
X-476324Y581838D01*
X-475309Y582515D01*
X-472440Y585470D01*
X-472387Y585417D01*
X-470997Y587229D01*
X-470123Y589338D01*
X-469825Y591602D01*
X-469900Y595104D01*
X-469815D01*
X-470152Y596796D01*
X-471110Y598230D01*
X-471110Y598170D01*
X-471348Y599366D01*
X-472025Y600381D01*
X-474980Y603250D01*
X-474920Y603310D01*
X-476354Y604268D01*
X-478046Y604605D01*
X-490964Y604520D01*
Y604605D01*
X-492656Y604268D01*
X-494090Y603310D01*
X-495300Y601980D01*
Y602040D01*
X-496496Y601802D01*
X-497510Y601124D01*
X-499110Y599440D01*
X-499170Y599500D01*
X-500128Y598066D01*
X-500465Y596374D01*
X-500380Y589280D01*
X-491490Y580390D01*
X-528320D01*
X-527050Y585470D01*
X-521970Y596900D01*
X-514350Y605790D01*
X-502920Y613410D01*
X-490220Y617220D01*
X-480060D01*
X-464820Y612140D01*
D02*
G37*
D32*
X159600Y460160D02*
G03*
X159600Y439840I0J-10160D01*
G01*
X210400D02*
G03*
X210400Y460160I0J10160D01*
G01*
X172312Y425896D02*
G03*
X197700Y425800I12693J-430D01*
G01*
X547312Y425896D02*
G03*
X572700Y425800I12693J-430D01*
G01*
X160000Y310160D02*
G03*
X160000Y289840I0J-10160D01*
G01*
X210800D02*
G03*
X210800Y310160I0J10160D01*
G01*
X585400Y439840D02*
G03*
X585400Y460160I0J10160D01*
G01*
X534600D02*
G03*
X534600Y439840I0J-10160D01*
G01*
Y310160D02*
G03*
X534600Y289840I0J-10160D01*
G01*
X585400D02*
G03*
X585400Y310160I0J10160D01*
G01*
X-403860Y281940D02*
G03*
X-403860Y261620I0J-10160D01*
G01*
X-353060D02*
G03*
X-353060Y281940I0J10160D01*
G01*
X-243840Y261620D02*
G03*
X-243840Y281940I0J10160D01*
G01*
X-294640D02*
G03*
X-294640Y261620I0J-10160D01*
G01*
X-403860Y434340D02*
G03*
X-403860Y414020I0J-10160D01*
G01*
X-353060D02*
G03*
X-353060Y434340I0J10160D01*
G01*
X-355600Y347980D02*
G03*
X-355600Y368300I0J10160D01*
G01*
X-406400D02*
G03*
X-406400Y347980I0J-10160D01*
G01*
X-220884Y355588D02*
G03*
X-220980Y330200I-430J-12693D01*
G01*
X-195580Y279400D02*
G03*
X-195580Y259080I0J-10160D01*
G01*
X-144780D02*
G03*
X-144780Y279400I0J10160D01*
G01*
X-246380Y411480D02*
G03*
X-246380Y431800I0J10160D01*
G01*
X-297180D02*
G03*
X-297180Y411480I0J-10160D01*
G01*
X-441960Y574040D02*
G03*
X-441960Y574040I-43180J0D01*
G01*
Y482600D02*
G03*
X-441960Y482600I-43180J0D01*
G01*
X172300Y450000D02*
X179920D01*
X191350D02*
X198970D01*
X179920Y442380D02*
Y456350D01*
X191350Y442380D02*
Y456350D01*
X159600Y460160D02*
X210400D01*
X159600Y439840D02*
X210400D01*
X245348Y397818D02*
X264652D01*
X245348Y350828D02*
X264652D01*
X245348D02*
Y397818D01*
X255000Y342192D02*
Y350828D01*
X264652D02*
Y397818D01*
X255000D02*
Y406708D01*
X295348Y351082D02*
X314652D01*
X295348Y398072D02*
X314652D01*
Y351082D02*
Y398072D01*
X305000D02*
Y406708D01*
X295348Y351082D02*
Y398072D01*
X305000Y342192D02*
Y351082D01*
X270348D02*
X289652D01*
X270348Y398072D02*
X289652D01*
Y351082D02*
Y398072D01*
X280000D02*
Y406708D01*
X270348Y351082D02*
Y398072D01*
X280000Y342192D02*
Y351082D01*
X55348Y7182D02*
X74652D01*
X55348Y54172D02*
X74652D01*
Y7182D02*
Y54172D01*
X65000D02*
Y62808D01*
X55348Y7182D02*
Y54172D01*
X65000Y-1708D02*
Y7182D01*
X-74652Y53918D02*
X-55348D01*
X-74652Y6928D02*
X-55348D01*
X-74652D02*
Y53918D01*
X-65000Y-1708D02*
Y6928D01*
X-55348D02*
Y53918D01*
X-65000D02*
Y62808D01*
X620348Y402818D02*
X639652D01*
X620348Y355828D02*
X639652D01*
X620348D02*
Y402818D01*
X630000Y347192D02*
Y355828D01*
X639652D02*
Y402818D01*
X630000D02*
Y411708D01*
X670348Y356082D02*
X689652D01*
X670348Y403072D02*
X689652D01*
Y356082D02*
Y403072D01*
X680000D02*
Y411708D01*
X670348Y356082D02*
Y403072D01*
X680000Y347192D02*
Y356082D01*
X645348D02*
X664652D01*
X645348Y403072D02*
X664652D01*
Y356082D02*
Y403072D01*
X655000D02*
Y411708D01*
X645348Y356082D02*
Y403072D01*
X655000Y347192D02*
Y356082D01*
X134200Y425800D02*
X172300D01*
X197954D02*
X235800D01*
X134200Y324200D02*
Y425800D01*
Y324200D02*
X235800D01*
Y425800D01*
X172300Y349092D02*
X197700D01*
X172300D02*
Y400146D01*
X197700D01*
Y349092D02*
Y400146D01*
X509200Y425800D02*
X547300D01*
X572954D02*
X610800D01*
X509200Y324200D02*
Y425800D01*
Y324200D02*
X610800D01*
Y425800D01*
X547300Y349092D02*
X572700D01*
X547300D02*
Y400146D01*
X572700D01*
Y349092D02*
Y400146D01*
X160000Y310160D02*
X210800D01*
X160000Y289840D02*
X210800D01*
X179050Y293650D02*
Y307620D01*
X190480Y293650D02*
Y307620D01*
X171430Y300000D02*
X179050D01*
X190480D02*
X198100D01*
X534600Y439840D02*
X585400D01*
X534600Y460160D02*
X585400D01*
X566350Y442380D02*
Y456350D01*
X554920Y442380D02*
Y456350D01*
X566350Y450000D02*
X573970D01*
X547300D02*
X554920D01*
X100000Y242818D02*
Y251708D01*
X109652Y195828D02*
Y242818D01*
X100000Y187192D02*
Y195828D01*
X90348D02*
Y242818D01*
Y195828D02*
X109652D01*
X90348Y242818D02*
X109652D01*
X127000Y243078D02*
Y251968D01*
X136652Y196088D02*
Y243078D01*
X127000Y187452D02*
Y196088D01*
X117348D02*
Y243078D01*
Y196088D02*
X136652D01*
X117348Y243078D02*
X136652D01*
X85000Y397818D02*
Y406708D01*
X94652Y350828D02*
Y397818D01*
X85000Y342192D02*
Y350828D01*
X75348D02*
Y397818D01*
Y350828D02*
X94652D01*
X75348Y397818D02*
X94652D01*
X75000Y242818D02*
Y251708D01*
X84652Y195828D02*
Y242818D01*
X75000Y187192D02*
Y195828D01*
X65348D02*
Y242818D01*
Y195828D02*
X84652D01*
X65348Y242818D02*
X84652D01*
X410000Y52818D02*
Y61708D01*
X419652Y5828D02*
Y52818D01*
X410000Y-2808D02*
Y5828D01*
X400348D02*
Y52818D01*
Y5828D02*
X419652D01*
X400348Y52818D02*
X419652D01*
X110000Y397818D02*
Y406708D01*
X119652Y350828D02*
Y397818D01*
X110000Y342192D02*
Y350828D01*
X100348D02*
Y397818D01*
Y350828D02*
X119652D01*
X100348Y397818D02*
X119652D01*
X50000Y242818D02*
Y251708D01*
X59652Y195828D02*
Y242818D01*
X50000Y187192D02*
Y195828D01*
X40348D02*
Y242818D01*
Y195828D02*
X59652D01*
X40348Y242818D02*
X59652D01*
X455000D02*
Y251708D01*
X464652Y195828D02*
Y242818D01*
X455000Y187192D02*
Y195828D01*
X445348D02*
Y242818D01*
Y195828D02*
X464652D01*
X445348Y242818D02*
X464652D01*
X370000Y52818D02*
Y61708D01*
X379652Y5828D02*
Y52818D01*
X370000Y-2808D02*
Y5828D01*
X360348D02*
Y52818D01*
Y5828D02*
X379652D01*
X360348Y52818D02*
X379652D01*
X405000Y242818D02*
Y251708D01*
X414652Y195828D02*
Y242818D01*
X405000Y187192D02*
Y195828D01*
X395348D02*
Y242818D01*
Y195828D02*
X414652D01*
X395348Y242818D02*
X414652D01*
X455000Y403918D02*
Y412808D01*
X464652Y356928D02*
Y403918D01*
X455000Y348292D02*
Y356928D01*
X445348D02*
Y403918D01*
Y356928D02*
X464652D01*
X445348Y403918D02*
X464652D01*
X480000Y242818D02*
Y251708D01*
X489652Y195828D02*
Y242818D01*
X480000Y187192D02*
Y195828D01*
X470348D02*
Y242818D01*
Y195828D02*
X489652D01*
X470348Y242818D02*
X489652D01*
X430000D02*
Y251708D01*
X439652Y195828D02*
Y242818D01*
X430000Y187192D02*
Y195828D01*
X420348D02*
Y242818D01*
Y195828D02*
X439652D01*
X420348Y242818D02*
X439652D01*
X480000Y403918D02*
Y412808D01*
X489652Y356928D02*
Y403918D01*
X480000Y348292D02*
Y356928D01*
X470348D02*
Y403918D01*
Y356928D02*
X489652D01*
X470348Y403918D02*
X489652D01*
X675000Y242818D02*
Y251708D01*
X684652Y195828D02*
Y242818D01*
X675000Y187192D02*
Y195828D01*
X665348D02*
Y242818D01*
Y195828D02*
X684652D01*
X665348Y242818D02*
X684652D01*
X650000D02*
Y251708D01*
X659652Y195828D02*
Y242818D01*
X650000Y187192D02*
Y195828D01*
X640348D02*
Y242818D01*
Y195828D02*
X659652D01*
X640348Y242818D02*
X659652D01*
X534600Y310160D02*
X585400D01*
X534600Y289840D02*
X585400D01*
X553650Y293650D02*
Y307620D01*
X565080Y293650D02*
Y307620D01*
X546030Y300000D02*
X553650D01*
X565080D02*
X572700D01*
X-223012Y57658D02*
X-203708D01*
X-223012Y10668D02*
X-203708D01*
X-223012D02*
Y57658D01*
X-213360Y2032D02*
Y10668D01*
X-203708D02*
Y57658D01*
X-213360D02*
Y66548D01*
X-146812Y57658D02*
X-127508D01*
X-146812Y10668D02*
X-127508D01*
X-146812D02*
Y57658D01*
X-137160Y2032D02*
Y10668D01*
X-127508D02*
Y57658D01*
X-137160D02*
Y66548D01*
X-403860Y281940D02*
X-353060D01*
X-403860Y261620D02*
X-353060D01*
X-384810Y265430D02*
Y279400D01*
X-373380Y265430D02*
Y279400D01*
X-392430Y271780D02*
X-384810D01*
X-373380D02*
X-365760D01*
X-417068Y299720D02*
X-408178D01*
Y309372D02*
X-361188D01*
Y299720D02*
X-352552D01*
X-408178Y290068D02*
X-361188D01*
Y309372D01*
X-408178Y290068D02*
Y309372D01*
X-417068Y241300D02*
X-408178D01*
Y250952D02*
X-361188D01*
Y241300D02*
X-352552D01*
X-408178Y231648D02*
X-361188D01*
Y250952D01*
X-408178Y231648D02*
Y250952D01*
X-244602Y241300D02*
X-235712D01*
X-291592Y231648D02*
X-244602D01*
X-300228Y241300D02*
X-291592D01*
Y250952D02*
X-244602D01*
X-291592Y231648D02*
Y250952D01*
X-244602Y231648D02*
Y250952D01*
X-294640Y261620D02*
X-243840D01*
X-294640Y281940D02*
X-243840D01*
X-262890Y264160D02*
Y278130D01*
X-274320Y264160D02*
Y278130D01*
X-262890Y271780D02*
X-255270D01*
X-281940D02*
X-274320D01*
X-403860Y434340D02*
X-353060D01*
X-403860Y414020D02*
X-353060D01*
X-384810Y417830D02*
Y431800D01*
X-373380Y417830D02*
Y431800D01*
X-392430Y424180D02*
X-384810D01*
X-373380D02*
X-365760D01*
X-414528Y396240D02*
X-405638D01*
Y405892D02*
X-358648D01*
Y396240D02*
X-350012D01*
X-405638Y386588D02*
X-358648D01*
Y405892D01*
X-405638Y386588D02*
Y405892D01*
X-406400Y347980D02*
X-355600D01*
X-406400Y368300D02*
X-355600D01*
X-374650Y350520D02*
Y364490D01*
X-386080Y350520D02*
Y364490D01*
X-374650Y358140D02*
X-367030D01*
X-393700D02*
X-386080D01*
X-220980Y355600D02*
Y393700D01*
Y292100D02*
Y329946D01*
X-322580Y393700D02*
X-220980D01*
X-322580Y292100D02*
Y393700D01*
Y292100D02*
X-220980D01*
X-297688Y330200D02*
Y355600D01*
X-246634D01*
Y330200D02*
Y355600D01*
X-297688Y330200D02*
X-246634D01*
X-414528Y452120D02*
X-405638D01*
Y461772D02*
X-358648D01*
Y452120D02*
X-350012D01*
X-405638Y442468D02*
X-358648D01*
Y461772D01*
X-405638Y442468D02*
Y461772D01*
X-244602Y452120D02*
X-235712D01*
X-291592Y442468D02*
X-244602D01*
X-300228Y452120D02*
X-291592D01*
Y461772D02*
X-244602D01*
X-291592Y442468D02*
Y461772D01*
X-244602Y442468D02*
Y461772D01*
X-195580Y279400D02*
X-144780D01*
X-195580Y259080D02*
X-144780D01*
X-176530Y262890D02*
Y276860D01*
X-165100Y262890D02*
Y276860D01*
X-184150Y269240D02*
X-176530D01*
X-165100D02*
X-157480D01*
X-297180Y411480D02*
X-246380D01*
X-297180Y431800D02*
X-246380D01*
X-265430Y414020D02*
Y427990D01*
X-276860Y414020D02*
Y427990D01*
X-265430Y421640D02*
X-257810D01*
X-284480D02*
X-276860D01*
D33*
X-11000Y475000D02*
G03*
X-11000Y475000I-34000J0D01*
G01*
X-11127Y262982D02*
G03*
X-11127Y262982I-34000J0D01*
G01*
X824000Y260000D02*
G03*
X824000Y260000I-34000J0D01*
G01*
X-11127Y177982D02*
G03*
X-11127Y177982I-34000J0D01*
G01*
X-11000Y560000D02*
G03*
X-11000Y560000I-34000J0D01*
G01*
X821982Y475127D02*
G03*
X821982Y475127I-34000J0D01*
G01*
X969000Y475000D02*
G03*
X969000Y475000I-34000J0D01*
G01*
Y260000D02*
G03*
X969000Y260000I-34000J0D01*
G01*
X-367320Y73660D02*
G03*
X-367320Y73660I-34000J0D01*
G01*
X-174280Y175260D02*
G03*
X-174280Y175260I-34000J0D01*
G01*
X-367320D02*
G03*
X-367320Y175260I-34000J0D01*
G01*
X-100620D02*
G03*
X-100620Y175260I-34000J0D01*
G01*
X0Y100000D02*
X360000D01*
X0D02*
Y700000D01*
X360000D01*
Y100000D02*
Y700000D01*
X740000Y100000D02*
Y700000D01*
X380000D02*
X740000D01*
X380000Y100000D02*
Y700000D01*
Y100000D02*
X740000D01*
X-264922Y692912D02*
X-40640D01*
Y636270D02*
Y692912D01*
X-264922Y636270D02*
X-40640D01*
X-264922D02*
Y692912D01*
X855978Y100870D02*
Y157512D01*
X953260D01*
Y100870D02*
Y157512D01*
X855978Y100870D02*
X953260D01*
X751378D02*
X848660D01*
Y157512D01*
X751378D02*
X848660D01*
X751378Y100870D02*
Y157512D01*
X750978Y640870D02*
Y697512D01*
X848260D01*
Y640870D02*
Y697512D01*
X750978Y640870D02*
X848260D01*
X866378D02*
X963660D01*
Y697512D01*
X866378D02*
X963660D01*
X866378Y640870D02*
Y697512D01*
D34*
X168490Y412846D02*
G03*
X168490Y412846I-2032J0D01*
G01*
X543490D02*
G03*
X543490Y412846I-2032J0D01*
G01*
X-231902Y361442D02*
G03*
X-231902Y361442I-2032J0D01*
G01*
D35*
X-500380Y593090D02*
G03*
X-488950Y581660I11430J0D01*
G01*
X-482600D02*
G03*
X-469900Y591820I1270J11430D01*
G01*
D02*
G03*
X-480060Y604520I-11430J1270D01*
G01*
X-488950D02*
G03*
X-500380Y593090I0J-11430D01*
G01*
Y501650D02*
G03*
X-488950Y490220I11430J0D01*
G01*
X-482600D02*
G03*
X-469900Y500380I1270J11430D01*
G01*
D02*
G03*
X-480060Y513080I-11430J1270D01*
G01*
X-488950D02*
G03*
X-500380Y501650I0J-11430D01*
G01*
X189200Y50800D02*
X290800D01*
Y-50800D02*
Y50800D01*
X189200Y-50800D02*
X290800D01*
X189200D02*
Y50800D01*
Y-25400D02*
X290800D01*
X189200D02*
Y-22860D01*
X429200Y-25400D02*
Y-22860D01*
Y-25400D02*
X530800D01*
X429200Y-50800D02*
Y50800D01*
Y-50800D02*
X530800D01*
Y50800D01*
X429200D02*
X530800D01*
X669200D02*
X770800D01*
Y-50800D02*
Y50800D01*
X669200Y-50800D02*
X770800D01*
X669200D02*
Y50800D01*
Y-25400D02*
X770800D01*
X669200D02*
Y-22860D01*
X-50800Y-25400D02*
Y-22860D01*
Y-25400D02*
X50800D01*
X-50800Y-50800D02*
Y50800D01*
Y-50800D02*
X50800D01*
Y50800D01*
X-50800D02*
X50800D01*
X-513970Y-174000D02*
X-486030D01*
X-531750Y-132090D02*
X-468250Y-118120D01*
X-531750Y-106690D02*
X-468250Y-118120D01*
X-531750Y-106690D02*
X-468250Y-96530D01*
X-531750Y-88910D02*
X-468250Y-96530D01*
X-531750Y-88910D02*
X-468250Y-78750D01*
X-531750Y-68590D02*
X-468250Y-78750D01*
X-531750Y-68590D02*
X-468250Y-58430D01*
X-530480Y-49540D02*
X-468250Y-58430D01*
X-530480Y-49540D02*
X-468250Y-40650D01*
X-515001Y-135001D02*
X-485001D01*
X-515001Y-220002D02*
Y-135001D01*
Y-220002D02*
X-485001D01*
Y-135001D01*
X-532502Y-40000D02*
X-467501D01*
X-532502Y-135001D02*
Y-40000D01*
Y-135001D02*
X-467501D01*
Y-40000D01*
X-550000Y200000D02*
X-450000D01*
X-550000Y-40000D02*
Y200000D01*
Y-40000D02*
X-450000D01*
Y200000D01*
X-250000Y-40000D02*
Y200000D01*
X-350000Y-40000D02*
X-250000D01*
X-350000D02*
Y200000D01*
X-250000D01*
X-267501Y-135001D02*
Y-40000D01*
X-332502Y-135001D02*
X-267501D01*
X-332502D02*
Y-40000D01*
X-267501D01*
X-285001Y-220002D02*
Y-135001D01*
X-315001Y-220002D02*
X-285001D01*
X-315001D02*
Y-135001D01*
X-285001D01*
X-330480Y-49540D02*
X-268250Y-40650D01*
X-330480Y-49540D02*
X-268250Y-58430D01*
X-331750Y-68590D02*
X-268250Y-58430D01*
X-331750Y-68590D02*
X-268250Y-78750D01*
X-331750Y-88910D02*
X-268250Y-78750D01*
X-331750Y-88910D02*
X-268250Y-96530D01*
X-331750Y-106690D02*
X-268250Y-96530D01*
X-331750Y-106690D02*
X-268250Y-118120D01*
X-331750Y-132090D02*
X-268250Y-118120D01*
X-313970Y-174000D02*
X-286030D01*
X-485140Y532130D02*
Y543560D01*
X-491490Y537972D02*
X-478790D01*
X-492760Y581660D02*
X-480060D01*
X-488950Y604520D02*
X-480060D01*
X-491490Y580390D02*
Y581660D01*
X-527050Y580390D02*
X-443230D01*
X-485140Y440690D02*
Y452120D01*
X-491490Y446532D02*
X-478790D01*
X-492760Y490220D02*
X-480060D01*
X-488950Y513080D02*
X-480060D01*
X-491490Y488950D02*
Y490220D01*
X-527050Y488950D02*
X-443230D01*
X-33020Y660400D02*
Y675635D01*
X-25403D01*
X-22863Y673096D01*
Y668018D01*
X-25403Y665478D01*
X-33020D01*
X-7628Y660400D02*
X-17785D01*
X-7628Y670557D01*
Y673096D01*
X-10167Y675635D01*
X-15246D01*
X-17785Y673096D01*
X-325120Y660400D02*
Y675635D01*
X-317502D01*
X-314963Y673096D01*
Y668018D01*
X-317502Y665478D01*
X-325120D01*
X-309885Y660400D02*
X-304807D01*
X-307346D01*
Y675635D01*
X-309885Y673096D01*
X760000Y82494D02*
Y69165D01*
X766665Y62500D01*
X773329Y69165D01*
Y82494D01*
X789990D02*
X783326D01*
X779994Y79161D01*
Y65832D01*
X783326Y62500D01*
X789990D01*
X793323Y65832D01*
Y79161D01*
X789990Y82494D01*
X799987D02*
Y62500D01*
X813316D01*
X839974D02*
Y82494D01*
X846639Y75829D01*
X853303Y82494D01*
Y62500D01*
X859968D02*
Y75829D01*
X866632Y82494D01*
X873297Y75829D01*
Y62500D01*
Y72497D01*
X859968D01*
X893290Y79161D02*
X889958Y82494D01*
X883294D01*
X879961Y79161D01*
Y75829D01*
X883294Y72497D01*
X889958D01*
X893290Y69165D01*
Y65832D01*
X889958Y62500D01*
X883294D01*
X879961Y65832D01*
X899955Y82494D02*
X913284D01*
X906619D01*
Y62500D01*
X933278Y82494D02*
X919949D01*
Y62500D01*
X933278D01*
X919949Y72497D02*
X926613D01*
X939942Y62500D02*
Y82494D01*
X949939D01*
X953271Y79161D01*
Y72497D01*
X949939Y69165D01*
X939942D01*
X946607D02*
X953271Y62500D01*
X614680Y511030D02*
Y541020D01*
X594687D01*
X534706Y516028D02*
X539704Y511030D01*
X549701D01*
X554699Y516028D01*
Y536022D01*
X549701Y541020D01*
X539704D01*
X534706Y536022D01*
X524709Y511030D02*
Y541020D01*
Y526025D01*
X504716D01*
Y511030D01*
Y541020D01*
X236220D02*
Y511030D01*
X221225D01*
X216227Y516028D01*
Y526025D01*
X221225Y531023D01*
X236220D01*
X226223D02*
X216227Y541020D01*
X156246Y516028D02*
X161244Y511030D01*
X171241D01*
X176239Y516028D01*
Y536022D01*
X171241Y541020D01*
X161244D01*
X156246Y536022D01*
X146249Y511030D02*
Y541020D01*
Y526025D01*
X126256D01*
Y511030D01*
Y541020D01*
D36*
X-514180Y635480D02*
Y685480D01*
Y635480D02*
X-334180D01*
Y665480D02*
Y685480D01*
Y635480D02*
Y665480D01*
X-514180Y685480D02*
X-334180D01*
X-404180Y680480D02*
Y685480D01*
X-444180Y680480D02*
X-404180D01*
X-444180D02*
Y685480D01*
D37*
X-238760Y50800D02*
X-228763D01*
Y45802D01*
X-230429Y44135D01*
X-233762D01*
X-235428Y45802D01*
Y50800D01*
Y47468D02*
X-238760Y44135D01*
Y34139D02*
Y40803D01*
X-232096Y34139D01*
X-230429D01*
X-228763Y35805D01*
Y39137D01*
X-230429Y40803D01*
X-228763Y24142D02*
X-230429Y27474D01*
X-233762Y30806D01*
X-237094D01*
X-238760Y29140D01*
Y25808D01*
X-237094Y24142D01*
X-235428D01*
X-233762Y25808D01*
Y30806D01*
X-162560Y50800D02*
X-152563D01*
Y45802D01*
X-154229Y44135D01*
X-157562D01*
X-159228Y45802D01*
Y50800D01*
Y47468D02*
X-162560Y44135D01*
Y34139D02*
Y40803D01*
X-155896Y34139D01*
X-154229D01*
X-152563Y35805D01*
Y39137D01*
X-154229Y40803D01*
X-152563Y24142D02*
Y30806D01*
X-157562D01*
X-155896Y27474D01*
Y25808D01*
X-157562Y24142D01*
X-160894D01*
X-162560Y25808D01*
Y29140D01*
X-160894Y30806D01*
X893998Y586577D02*
X890666D01*
X889000Y584911D01*
Y578246D01*
X890666Y576580D01*
X893998D01*
X895665Y578246D01*
Y584911D01*
X893998Y586577D01*
X898997D02*
Y578246D01*
X900663Y576580D01*
X903995D01*
X905661Y578246D01*
Y586577D01*
X908994D02*
X915658D01*
X912326D01*
Y576580D01*
X918990D02*
Y586577D01*
X923989D01*
X925655Y584911D01*
Y581578D01*
X923989Y579912D01*
X918990D01*
X928987Y586577D02*
Y578246D01*
X930653Y576580D01*
X933986D01*
X935652Y578246D01*
Y586577D01*
X938984D02*
X945648D01*
X942316D01*
Y576580D01*
X916665Y528331D02*
X914998Y529997D01*
X911666D01*
X910000Y528331D01*
Y521666D01*
X911666Y520000D01*
X914998D01*
X916665Y521666D01*
X919997Y520000D02*
X923329D01*
X921663D01*
Y529997D01*
X919997Y528331D01*
X934992Y520000D02*
X928327D01*
X934992Y526665D01*
Y528331D01*
X933326Y529997D01*
X929994D01*
X928327Y528331D01*
X941665Y305831D02*
X939998Y307497D01*
X936666D01*
X935000Y305831D01*
Y299166D01*
X936666Y297500D01*
X939998D01*
X941665Y299166D01*
X944997Y305831D02*
X946663Y307497D01*
X949995D01*
X951661Y305831D01*
Y304165D01*
X949995Y302498D01*
X948329D01*
X949995D01*
X951661Y300832D01*
Y299166D01*
X949995Y297500D01*
X946663D01*
X944997Y299166D01*
X774700Y586577D02*
X778032D01*
X776366D01*
Y576580D01*
X774700D01*
X778032D01*
X783031D02*
Y586577D01*
X789695Y576580D01*
Y586577D01*
X793027Y576580D02*
Y586577D01*
X798026D01*
X799692Y584911D01*
Y581578D01*
X798026Y579912D01*
X793027D01*
X803024Y586577D02*
Y578246D01*
X804690Y576580D01*
X808023D01*
X809689Y578246D01*
Y586577D01*
X813021D02*
X819686D01*
X816353D01*
Y576580D01*
X-503331Y124164D02*
X-504997Y122498D01*
Y119166D01*
X-503331Y117500D01*
X-501665D01*
X-499998Y119166D01*
Y122498D01*
X-498332Y124164D01*
X-496666D01*
X-495000Y122498D01*
Y119166D01*
X-496666Y117500D01*
X-504997Y127497D02*
X-495000D01*
X-498332Y130829D01*
X-495000Y134161D01*
X-504997D01*
Y137494D02*
X-495000D01*
Y142492D01*
X-496666Y144158D01*
X-503331D01*
X-504997Y142492D01*
Y137494D01*
X-495000Y147490D02*
X-504997D01*
Y152489D01*
X-503331Y154155D01*
X-499998D01*
X-498332Y152489D01*
Y147490D01*
X-504997Y157487D02*
X-495000D01*
Y162486D01*
X-496666Y164152D01*
X-503331D01*
X-504997Y162486D01*
Y157487D01*
Y167484D02*
Y174148D01*
Y170816D01*
X-495000D01*
Y184145D02*
Y177481D01*
X-501665Y184145D01*
X-503331D01*
X-504997Y182479D01*
Y179147D01*
X-503331Y177481D01*
X-303331Y134164D02*
X-304997Y132498D01*
Y129166D01*
X-303331Y127500D01*
X-301665D01*
X-299998Y129166D01*
Y132498D01*
X-298332Y134164D01*
X-296666D01*
X-295000Y132498D01*
Y129166D01*
X-296666Y127500D01*
X-304997Y137497D02*
X-295000D01*
X-298332Y140829D01*
X-295000Y144161D01*
X-304997D01*
Y147494D02*
X-295000D01*
Y152492D01*
X-296666Y154158D01*
X-303331D01*
X-304997Y152492D01*
Y147494D01*
X-295000Y157490D02*
X-304997D01*
Y162489D01*
X-303331Y164155D01*
X-299998D01*
X-298332Y162489D01*
Y157490D01*
X-304997Y167487D02*
X-295000D01*
Y172486D01*
X-296666Y174152D01*
X-303331D01*
X-304997Y172486D01*
Y167487D01*
Y177484D02*
Y184148D01*
Y180816D01*
X-295000D01*
Y187481D02*
Y190813D01*
Y189147D01*
X-304997D01*
X-303331Y187481D01*
X650240Y469900D02*
X660237D01*
Y464902D01*
X658571Y463236D01*
X655238D01*
X653572Y464902D01*
Y469900D01*
Y466568D02*
X650240Y463236D01*
Y453239D02*
Y459903D01*
X656905Y453239D01*
X658571D01*
X660237Y454905D01*
Y458237D01*
X658571Y459903D01*
X650240Y444908D02*
X660237D01*
X655238Y449906D01*
Y443242D01*
X675640Y469900D02*
X685637D01*
Y464902D01*
X683971Y463236D01*
X680638D01*
X678972Y464902D01*
Y469900D01*
Y466568D02*
X675640Y463236D01*
Y453239D02*
Y459903D01*
X682305Y453239D01*
X683971D01*
X685637Y454905D01*
Y458237D01*
X683971Y459903D01*
Y449906D02*
X685637Y448240D01*
Y444908D01*
X683971Y443242D01*
X682305D01*
X680638Y444908D01*
Y446574D01*
Y444908D01*
X678972Y443242D01*
X677306D01*
X675640Y444908D01*
Y448240D01*
X677306Y449906D01*
X624840Y469900D02*
X634837D01*
Y464902D01*
X633171Y463236D01*
X629838D01*
X628172Y464902D01*
Y469900D01*
Y466568D02*
X624840Y463236D01*
Y453239D02*
Y459903D01*
X631505Y453239D01*
X633171D01*
X634837Y454905D01*
Y458237D01*
X633171Y459903D01*
X624840Y443242D02*
Y449906D01*
X631505Y443242D01*
X633171D01*
X634837Y444908D01*
Y448240D01*
X633171Y449906D01*
X-91440Y50800D02*
X-81443D01*
Y45802D01*
X-83109Y44135D01*
X-86442D01*
X-88108Y45802D01*
Y50800D01*
Y47468D02*
X-91440Y44135D01*
Y34139D02*
Y40803D01*
X-84775Y34139D01*
X-83109D01*
X-81443Y35805D01*
Y39137D01*
X-83109Y40803D01*
X-91440Y30806D02*
Y27474D01*
Y29140D01*
X-81443D01*
X-83109Y30806D01*
X78740Y50800D02*
X88737D01*
Y45802D01*
X87071Y44135D01*
X83738D01*
X82072Y45802D01*
Y50800D01*
Y47468D02*
X78740Y44135D01*
Y34139D02*
Y40803D01*
X85405Y34139D01*
X87071D01*
X88737Y35805D01*
Y39137D01*
X87071Y40803D01*
Y30806D02*
X88737Y29140D01*
Y25808D01*
X87071Y24142D01*
X80406D01*
X78740Y25808D01*
Y29140D01*
X80406Y30806D01*
X87071D01*
X276860Y462280D02*
X286857D01*
Y457282D01*
X285191Y455616D01*
X281858D01*
X280192Y457282D01*
Y462280D01*
Y458948D02*
X276860Y455616D01*
Y452283D02*
Y448951D01*
Y450617D01*
X286857D01*
X285191Y452283D01*
X278526Y443953D02*
X276860Y442286D01*
Y438954D01*
X278526Y437288D01*
X285191D01*
X286857Y438954D01*
Y442286D01*
X285191Y443953D01*
X283524D01*
X281858Y442286D01*
Y437288D01*
X302260Y462280D02*
X312257D01*
Y457282D01*
X310591Y455616D01*
X307258D01*
X305592Y457282D01*
Y462280D01*
Y458948D02*
X302260Y455616D01*
Y452283D02*
Y448951D01*
Y450617D01*
X312257D01*
X310591Y452283D01*
Y443953D02*
X312257Y442286D01*
Y438954D01*
X310591Y437288D01*
X308925D01*
X307258Y438954D01*
X305592Y437288D01*
X303926D01*
X302260Y438954D01*
Y442286D01*
X303926Y443953D01*
X305592D01*
X307258Y442286D01*
X308925Y443953D01*
X310591D01*
X307258Y442286D02*
Y438954D01*
X251460Y462280D02*
X261457D01*
Y457282D01*
X259791Y455616D01*
X256458D01*
X254792Y457282D01*
Y462280D01*
Y458948D02*
X251460Y455616D01*
Y452283D02*
Y448951D01*
Y450617D01*
X261457D01*
X259791Y452283D01*
X261457Y443953D02*
Y437288D01*
X259791D01*
X253126Y443953D01*
X251460D01*
X779647Y528458D02*
X777980Y530124D01*
X774648D01*
X772982Y528458D01*
Y521793D01*
X774648Y520127D01*
X777980D01*
X779647Y521793D01*
X782979Y520127D02*
X786311D01*
X784645D01*
Y530124D01*
X782979Y528458D01*
X791309Y520127D02*
X794642D01*
X792976D01*
Y530124D01*
X791309Y528458D01*
X-36516Y610311D02*
X-38182Y611977D01*
X-41514D01*
X-43180Y610311D01*
Y603646D01*
X-41514Y601980D01*
X-38182D01*
X-36516Y603646D01*
X-33183Y601980D02*
X-29851D01*
X-31517D01*
Y611977D01*
X-33183Y610311D01*
X-24853D02*
X-23186Y611977D01*
X-19854D01*
X-18188Y610311D01*
Y603646D01*
X-19854Y601980D01*
X-23186D01*
X-24853Y603646D01*
Y610311D01*
X-82235Y224231D02*
X-83902Y225897D01*
X-87234D01*
X-88900Y224231D01*
Y217566D01*
X-87234Y215900D01*
X-83902D01*
X-82235Y217566D01*
X-78903D02*
X-77237Y215900D01*
X-73905D01*
X-72239Y217566D01*
Y224231D01*
X-73905Y225897D01*
X-77237D01*
X-78903Y224231D01*
Y222565D01*
X-77237Y220898D01*
X-72239D01*
X761665Y308331D02*
X759998Y309997D01*
X756666D01*
X755000Y308331D01*
Y301666D01*
X756666Y300000D01*
X759998D01*
X761665Y301666D01*
X764997Y308331D02*
X766663Y309997D01*
X769995D01*
X771661Y308331D01*
Y306665D01*
X769995Y304998D01*
X771661Y303332D01*
Y301666D01*
X769995Y300000D01*
X766663D01*
X764997Y301666D01*
Y303332D01*
X766663Y304998D01*
X764997Y306665D01*
Y308331D01*
X766663Y304998D02*
X769995D01*
X136997Y452120D02*
X128666D01*
X127000Y450454D01*
Y447122D01*
X128666Y445456D01*
X136997D01*
X135331Y442123D02*
X136997Y440457D01*
Y437125D01*
X135331Y435459D01*
X133665D01*
X131998Y437125D01*
Y438791D01*
Y437125D01*
X130332Y435459D01*
X128666D01*
X127000Y437125D01*
Y440457D01*
X128666Y442123D01*
X515457Y449580D02*
X507126D01*
X505460Y447914D01*
Y444582D01*
X507126Y442915D01*
X515457D01*
X505460Y434585D02*
X515457D01*
X510458Y439583D01*
Y432919D01*
X775000Y179997D02*
Y170000D01*
Y174998D01*
X781665D01*
Y179997D01*
Y170000D01*
X784997Y179997D02*
Y170000D01*
X789995D01*
X791661Y171666D01*
Y178331D01*
X789995Y179997D01*
X784997D01*
X794994Y168334D02*
X801658D01*
X804990Y170000D02*
Y179997D01*
X809989D01*
X811655Y178331D01*
Y174998D01*
X809989Y173332D01*
X804990D01*
X808323D02*
X811655Y170000D01*
X875000Y179997D02*
Y170000D01*
Y174998D01*
X881665D01*
Y179997D01*
Y170000D01*
X884997Y179997D02*
Y170000D01*
X889995D01*
X891661Y171666D01*
Y178331D01*
X889995Y179997D01*
X884997D01*
X894994Y168334D02*
X901658D01*
X904990Y179997D02*
Y170000D01*
X911655D01*
X402500Y644997D02*
Y636666D01*
X404166Y635000D01*
X407498D01*
X409165Y636666D01*
Y644997D01*
X419161Y635000D02*
X412497D01*
X419161Y641665D01*
Y643331D01*
X417495Y644997D01*
X414163D01*
X412497Y643331D01*
X22500Y639997D02*
Y631666D01*
X24166Y630000D01*
X27498D01*
X29165Y631666D01*
Y639997D01*
X32497Y630000D02*
X35829D01*
X34163D01*
Y639997D01*
X32497Y638331D01*
X-74616Y308051D02*
X-76282Y309717D01*
X-79614D01*
X-81280Y308051D01*
Y301386D01*
X-79614Y299720D01*
X-76282D01*
X-74616Y301386D01*
X-71283Y299720D02*
X-67951D01*
X-69617D01*
Y309717D01*
X-71283Y308051D01*
X-26356Y518871D02*
X-28022Y520537D01*
X-31354D01*
X-33020Y518871D01*
Y512206D01*
X-31354Y510540D01*
X-28022D01*
X-26356Y512206D01*
X-16359Y510540D02*
X-23023D01*
X-16359Y517205D01*
Y518871D01*
X-18025Y520537D01*
X-21357D01*
X-23023Y518871D01*
X235264Y302971D02*
X233598Y304637D01*
X230266D01*
X228600Y302971D01*
Y296306D01*
X230266Y294640D01*
X233598D01*
X235264Y296306D01*
X238597Y304637D02*
X245261D01*
Y302971D01*
X238597Y296306D01*
Y294640D01*
X557845Y475691D02*
X556178Y477357D01*
X552846D01*
X551180Y475691D01*
Y469026D01*
X552846Y467360D01*
X556178D01*
X557845Y469026D01*
X567841Y477357D02*
X564509Y475691D01*
X561177Y472358D01*
Y469026D01*
X562843Y467360D01*
X566175D01*
X567841Y469026D01*
Y470692D01*
X566175Y472358D01*
X561177D01*
X93980Y297180D02*
X103977D01*
Y292182D01*
X102311Y290515D01*
X98978D01*
X97312Y292182D01*
Y297180D01*
Y293848D02*
X93980Y290515D01*
Y287183D02*
Y283851D01*
Y285517D01*
X103977D01*
X102311Y287183D01*
X121920Y297180D02*
X131917D01*
Y292182D01*
X130251Y290515D01*
X126918D01*
X125252Y292182D01*
Y297180D01*
Y293848D02*
X121920Y290515D01*
Y280519D02*
Y287183D01*
X128584Y280519D01*
X130251D01*
X131917Y282185D01*
Y285517D01*
X130251Y287183D01*
X78740Y454660D02*
X88737D01*
Y449662D01*
X87071Y447995D01*
X83738D01*
X82072Y449662D01*
Y454660D01*
Y451328D02*
X78740Y447995D01*
X87071Y444663D02*
X88737Y442997D01*
Y439665D01*
X87071Y437999D01*
X85405D01*
X83738Y439665D01*
Y441331D01*
Y439665D01*
X82072Y437999D01*
X80406D01*
X78740Y439665D01*
Y442997D01*
X80406Y444663D01*
X71120Y297180D02*
X81117D01*
Y292182D01*
X79451Y290515D01*
X76118D01*
X74452Y292182D01*
Y297180D01*
Y293848D02*
X71120Y290515D01*
Y282185D02*
X81117D01*
X76118Y287183D01*
Y280519D01*
X386080Y40640D02*
X396077D01*
Y35642D01*
X394411Y33976D01*
X391078D01*
X389412Y35642D01*
Y40640D01*
Y37308D02*
X386080Y33976D01*
X396077Y23979D02*
Y30643D01*
X391078D01*
X392744Y27311D01*
Y25645D01*
X391078Y23979D01*
X387746D01*
X386080Y25645D01*
Y28977D01*
X387746Y30643D01*
X104140Y454660D02*
X114137D01*
Y449662D01*
X112471Y447995D01*
X109138D01*
X107472Y449662D01*
Y454660D01*
Y451328D02*
X104140Y447995D01*
X114137Y437999D02*
X112471Y441331D01*
X109138Y444663D01*
X105806D01*
X104140Y442997D01*
Y439665D01*
X105806Y437999D01*
X107472D01*
X109138Y439665D01*
Y444663D01*
X43180Y297180D02*
X53177D01*
Y292182D01*
X51511Y290515D01*
X48178D01*
X46512Y292182D01*
Y297180D01*
Y293848D02*
X43180Y290515D01*
X53177Y287183D02*
Y280519D01*
X51511D01*
X44846Y287183D01*
X43180D01*
X449580Y304800D02*
X459577D01*
Y299802D01*
X457911Y298136D01*
X454578D01*
X452912Y299802D01*
Y304800D01*
Y301468D02*
X449580Y298136D01*
X457911Y294803D02*
X459577Y293137D01*
Y289805D01*
X457911Y288139D01*
X456245D01*
X454578Y289805D01*
X452912Y288139D01*
X451246D01*
X449580Y289805D01*
Y293137D01*
X451246Y294803D01*
X452912D01*
X454578Y293137D01*
X456245Y294803D01*
X457911D01*
X454578Y293137D02*
Y289805D01*
X342900Y40640D02*
X352897D01*
Y35642D01*
X351231Y33976D01*
X347898D01*
X346232Y35642D01*
Y40640D01*
Y37308D02*
X342900Y33976D01*
X344566Y30643D02*
X342900Y28977D01*
Y25645D01*
X344566Y23979D01*
X351231D01*
X352897Y25645D01*
Y28977D01*
X351231Y30643D01*
X349565D01*
X347898Y28977D01*
Y23979D01*
X401320Y304800D02*
X411317D01*
Y299802D01*
X409651Y298136D01*
X406318D01*
X404652Y299802D01*
Y304800D01*
Y301468D02*
X401320Y298136D01*
Y294803D02*
Y291471D01*
Y293137D01*
X411317D01*
X409651Y294803D01*
Y286473D02*
X411317Y284806D01*
Y281474D01*
X409651Y279808D01*
X402986D01*
X401320Y281474D01*
Y284806D01*
X402986Y286473D01*
X409651D01*
X452120Y467360D02*
X462117D01*
Y462362D01*
X460451Y460695D01*
X457118D01*
X455452Y462362D01*
Y467360D01*
Y464028D02*
X452120Y460695D01*
Y457363D02*
Y454031D01*
Y455697D01*
X462117D01*
X460451Y457363D01*
X452120Y449033D02*
Y445700D01*
Y447366D01*
X462117D01*
X460451Y449033D01*
X474980Y304800D02*
X484977D01*
Y299802D01*
X483311Y298136D01*
X479978D01*
X478312Y299802D01*
Y304800D01*
Y301468D02*
X474980Y298136D01*
Y294803D02*
Y291471D01*
Y293137D01*
X484977D01*
X483311Y294803D01*
X474980Y279808D02*
Y286473D01*
X481645Y279808D01*
X483311D01*
X484977Y281474D01*
Y284806D01*
X483311Y286473D01*
X426720Y304800D02*
X436717D01*
Y299802D01*
X435051Y298136D01*
X431718D01*
X430052Y299802D01*
Y304800D01*
Y301468D02*
X426720Y298136D01*
Y294803D02*
Y291471D01*
Y293137D01*
X436717D01*
X435051Y294803D01*
Y286473D02*
X436717Y284806D01*
Y281474D01*
X435051Y279808D01*
X433385D01*
X431718Y281474D01*
Y283140D01*
Y281474D01*
X430052Y279808D01*
X428386D01*
X426720Y281474D01*
Y284806D01*
X428386Y286473D01*
X477520Y467360D02*
X487517D01*
Y462362D01*
X485851Y460695D01*
X482518D01*
X480852Y462362D01*
Y467360D01*
Y464028D02*
X477520Y460695D01*
Y457363D02*
Y454031D01*
Y455697D01*
X487517D01*
X485851Y457363D01*
X477520Y444034D02*
X487517D01*
X482518Y449033D01*
Y442368D01*
X670560Y304800D02*
X680557D01*
Y299802D01*
X678891Y298136D01*
X675558D01*
X673892Y299802D01*
Y304800D01*
Y301468D02*
X670560Y298136D01*
Y294803D02*
Y291471D01*
Y293137D01*
X680557D01*
X678891Y294803D01*
X680557Y279808D02*
Y286473D01*
X675558D01*
X677225Y283140D01*
Y281474D01*
X675558Y279808D01*
X672226D01*
X670560Y281474D01*
Y284806D01*
X672226Y286473D01*
X642620Y304800D02*
X652617D01*
Y299802D01*
X650951Y298136D01*
X647618D01*
X645952Y299802D01*
Y304800D01*
Y301468D02*
X642620Y298136D01*
Y294803D02*
Y291471D01*
Y293137D01*
X652617D01*
X650951Y294803D01*
X652617Y279808D02*
X650951Y283140D01*
X647618Y286473D01*
X644286D01*
X642620Y284806D01*
Y281474D01*
X644286Y279808D01*
X645952D01*
X647618Y281474D01*
Y286473D01*
X297500Y-35003D02*
Y-41668D01*
X300832Y-45000D01*
X304165Y-41668D01*
Y-35003D01*
X307497Y-45000D02*
Y-35003D01*
X312495D01*
X314161Y-36669D01*
Y-40002D01*
X312495Y-41668D01*
X307497D01*
X310829D02*
X314161Y-45000D01*
X317493D02*
X320826D01*
X319160D01*
Y-35003D01*
X317493Y-36669D01*
X537500Y-35003D02*
Y-41668D01*
X540832Y-45000D01*
X544165Y-41668D01*
Y-35003D01*
X547497Y-45000D02*
Y-35003D01*
X552495D01*
X554161Y-36669D01*
Y-40002D01*
X552495Y-41668D01*
X547497D01*
X550829D02*
X554161Y-45000D01*
X564158D02*
X557494D01*
X564158Y-38335D01*
Y-36669D01*
X562492Y-35003D01*
X559160D01*
X557494Y-36669D01*
X780000Y-32503D02*
Y-39168D01*
X783332Y-42500D01*
X786665Y-39168D01*
Y-32503D01*
X789997Y-42500D02*
Y-32503D01*
X794995D01*
X796661Y-34169D01*
Y-37502D01*
X794995Y-39168D01*
X789997D01*
X793329D02*
X796661Y-42500D01*
X799994Y-34169D02*
X801660Y-32503D01*
X804992D01*
X806658Y-34169D01*
Y-35835D01*
X804992Y-37502D01*
X803326D01*
X804992D01*
X806658Y-39168D01*
Y-40834D01*
X804992Y-42500D01*
X801660D01*
X799994Y-40834D01*
X60000Y-35003D02*
Y-41668D01*
X63332Y-45000D01*
X66665Y-41668D01*
Y-35003D01*
X69997Y-45000D02*
Y-35003D01*
X74995D01*
X76661Y-36669D01*
Y-40002D01*
X74995Y-41668D01*
X69997D01*
X73329D02*
X76661Y-45000D01*
X84992D02*
Y-35003D01*
X79994Y-40002D01*
X86658D01*
X181924Y475691D02*
X180258Y477357D01*
X176926D01*
X175260Y475691D01*
Y469026D01*
X176926Y467360D01*
X180258D01*
X181924Y469026D01*
X190255Y467360D02*
Y477357D01*
X185257Y472358D01*
X191921D01*
X506665Y303331D02*
X504998Y304997D01*
X501666D01*
X500000Y303331D01*
Y296666D01*
X501666Y295000D01*
X504998D01*
X506665Y296666D01*
X516661Y304997D02*
X509997D01*
Y299998D01*
X513329Y301665D01*
X514995D01*
X516661Y299998D01*
Y296666D01*
X514995Y295000D01*
X511663D01*
X509997Y296666D01*
X-221936Y424891D02*
X-223602Y426557D01*
X-226934D01*
X-228600Y424891D01*
Y418226D01*
X-226934Y416560D01*
X-223602D01*
X-221936Y418226D01*
X-218603Y416560D02*
X-215271D01*
X-216937D01*
Y426557D01*
X-218603Y424891D01*
X-210273D02*
X-208606Y426557D01*
X-205274D01*
X-203608Y424891D01*
Y423224D01*
X-205274Y421558D01*
X-206940D01*
X-205274D01*
X-203608Y419892D01*
Y418226D01*
X-205274Y416560D01*
X-208606D01*
X-210273Y418226D01*
X-178755Y295351D02*
X-180422Y297017D01*
X-183754D01*
X-185420Y295351D01*
Y288686D01*
X-183754Y287020D01*
X-180422D01*
X-178755Y288686D01*
X-175423Y287020D02*
X-172091D01*
X-173757D01*
Y297017D01*
X-175423Y295351D01*
X-162094Y287020D02*
Y297017D01*
X-167093Y292018D01*
X-160428D01*
X-140456Y223591D02*
X-142122Y225257D01*
X-145454D01*
X-147120Y223591D01*
Y216926D01*
X-145454Y215260D01*
X-142122D01*
X-140456Y216926D01*
X-137123Y215260D02*
X-133791D01*
X-135457D01*
Y225257D01*
X-137123Y223591D01*
X-122128Y225257D02*
X-128793D01*
Y220258D01*
X-125460Y221924D01*
X-123794D01*
X-122128Y220258D01*
Y216926D01*
X-123794Y215260D01*
X-127126D01*
X-128793Y216926D01*
X-440376Y221691D02*
X-442042Y223357D01*
X-445374D01*
X-447040Y221691D01*
Y215026D01*
X-445374Y213360D01*
X-442042D01*
X-440376Y215026D01*
X-437043Y213360D02*
X-433711D01*
X-435377D01*
Y223357D01*
X-437043Y221691D01*
X-422048Y223357D02*
X-425380Y221691D01*
X-428713Y218358D01*
Y215026D01*
X-427046Y213360D01*
X-423714D01*
X-422048Y215026D01*
Y216692D01*
X-423714Y218358D01*
X-428713D01*
X-442915Y361391D02*
X-444582Y363057D01*
X-447914D01*
X-449580Y361391D01*
Y354726D01*
X-447914Y353060D01*
X-444582D01*
X-442915Y354726D01*
X-439583Y353060D02*
X-436251D01*
X-437917D01*
Y363057D01*
X-439583Y361391D01*
X-431253Y363057D02*
X-424588D01*
Y361391D01*
X-431253Y354726D01*
Y353060D01*
X-442915Y427431D02*
X-444582Y429097D01*
X-447914D01*
X-449580Y427431D01*
Y420766D01*
X-447914Y419100D01*
X-444582D01*
X-442915Y420766D01*
X-439583Y419100D02*
X-436251D01*
X-437917D01*
Y429097D01*
X-439583Y427431D01*
X-431253D02*
X-429586Y429097D01*
X-426254D01*
X-424588Y427431D01*
Y425765D01*
X-426254Y424098D01*
X-424588Y422432D01*
Y420766D01*
X-426254Y419100D01*
X-429586D01*
X-431253Y420766D01*
Y422432D01*
X-429586Y424098D01*
X-431253Y425765D01*
Y427431D01*
X-429586Y424098D02*
X-426254D01*
X-328615Y277571D02*
X-330282Y279237D01*
X-333614D01*
X-335280Y277571D01*
Y270906D01*
X-333614Y269240D01*
X-330282D01*
X-328615Y270906D01*
X-325283Y269240D02*
X-321951D01*
X-323617D01*
Y279237D01*
X-325283Y277571D01*
X-316953Y270906D02*
X-315286Y269240D01*
X-311954D01*
X-310288Y270906D01*
Y277571D01*
X-311954Y279237D01*
X-315286D01*
X-316953Y277571D01*
Y275905D01*
X-315286Y274238D01*
X-310288D01*
X-214116Y226091D02*
X-215782Y227757D01*
X-219114D01*
X-220780Y226091D01*
Y219426D01*
X-219114Y217760D01*
X-215782D01*
X-214116Y219426D01*
X-204119Y217760D02*
X-210783D01*
X-204119Y224424D01*
Y226091D01*
X-205785Y227757D01*
X-209117D01*
X-210783Y226091D01*
X-200786D02*
X-199120Y227757D01*
X-195788D01*
X-194122Y226091D01*
Y219426D01*
X-195788Y217760D01*
X-199120D01*
X-200786Y219426D01*
Y226091D01*
X-437836Y127711D02*
X-439502Y129377D01*
X-442834D01*
X-444500Y127711D01*
Y121046D01*
X-442834Y119380D01*
X-439502D01*
X-437836Y121046D01*
X-427839Y119380D02*
X-434503D01*
X-427839Y126045D01*
Y127711D01*
X-429505Y129377D01*
X-432837D01*
X-434503Y127711D01*
X-424506Y119380D02*
X-421174D01*
X-422840D01*
Y129377D01*
X-424506Y127711D01*
X-442915Y277571D02*
X-444582Y279237D01*
X-447914D01*
X-449580Y277571D01*
Y270906D01*
X-447914Y269240D01*
X-444582D01*
X-442915Y270906D01*
X-432919Y269240D02*
X-439583D01*
X-432919Y275905D01*
Y277571D01*
X-434585Y279237D01*
X-437917D01*
X-439583Y277571D01*
X-422922Y269240D02*
X-429586D01*
X-422922Y275905D01*
Y277571D01*
X-424588Y279237D01*
X-427920D01*
X-429586Y277571D01*
X-396240Y467360D02*
Y477357D01*
X-391242D01*
X-389576Y475691D01*
Y472358D01*
X-391242Y470692D01*
X-396240D01*
X-392908D02*
X-389576Y467360D01*
X-379579D02*
X-386243D01*
X-379579Y474025D01*
Y475691D01*
X-381245Y477357D01*
X-384577D01*
X-386243Y475691D01*
X-376246Y477357D02*
X-369582D01*
Y475691D01*
X-376246Y469026D01*
Y467360D01*
X-281940D02*
Y477357D01*
X-276942D01*
X-275275Y475691D01*
Y472358D01*
X-276942Y470692D01*
X-281940D01*
X-278608D02*
X-275275Y467360D01*
X-265279D02*
X-271943D01*
X-265279Y474025D01*
Y475691D01*
X-266945Y477357D01*
X-270277D01*
X-271943Y475691D01*
X-261946D02*
X-260280Y477357D01*
X-256948D01*
X-255282Y475691D01*
Y474025D01*
X-256948Y472358D01*
X-255282Y470692D01*
Y469026D01*
X-256948Y467360D01*
X-260280D01*
X-261946Y469026D01*
Y470692D01*
X-260280Y472358D01*
X-261946Y474025D01*
Y475691D01*
X-260280Y472358D02*
X-256948D01*
X-469900Y391160D02*
Y401157D01*
X-464902D01*
X-463236Y399491D01*
Y396158D01*
X-464902Y394492D01*
X-469900D01*
X-466568D02*
X-463236Y391160D01*
X-453239D02*
X-459903D01*
X-453239Y397825D01*
Y399491D01*
X-454905Y401157D01*
X-458237D01*
X-459903Y399491D01*
X-449906Y392826D02*
X-448240Y391160D01*
X-444908D01*
X-443242Y392826D01*
Y399491D01*
X-444908Y401157D01*
X-448240D01*
X-449906Y399491D01*
Y397825D01*
X-448240Y396158D01*
X-443242D01*
X-398780Y215900D02*
Y225897D01*
X-393782D01*
X-392116Y224231D01*
Y220898D01*
X-393782Y219232D01*
X-398780D01*
X-395448D02*
X-392116Y215900D01*
X-388783Y224231D02*
X-387117Y225897D01*
X-383785D01*
X-382119Y224231D01*
Y222565D01*
X-383785Y220898D01*
X-385451D01*
X-383785D01*
X-382119Y219232D01*
Y217566D01*
X-383785Y215900D01*
X-387117D01*
X-388783Y217566D01*
X-378786Y224231D02*
X-377120Y225897D01*
X-373788D01*
X-372122Y224231D01*
Y217566D01*
X-373788Y215900D01*
X-377120D01*
X-378786Y217566D01*
Y224231D01*
X-279400Y215900D02*
Y225897D01*
X-274402D01*
X-272736Y224231D01*
Y220898D01*
X-274402Y219232D01*
X-279400D01*
X-276068D02*
X-272736Y215900D01*
X-269403Y224231D02*
X-267737Y225897D01*
X-264405D01*
X-262739Y224231D01*
Y222565D01*
X-264405Y220898D01*
X-266071D01*
X-264405D01*
X-262739Y219232D01*
Y217566D01*
X-264405Y215900D01*
X-267737D01*
X-269403Y217566D01*
X-259406Y215900D02*
X-256074D01*
X-257740D01*
Y225897D01*
X-259406Y224231D01*
X-398780Y314960D02*
Y324957D01*
X-393782D01*
X-392116Y323291D01*
Y319958D01*
X-393782Y318292D01*
X-398780D01*
X-395448D02*
X-392116Y314960D01*
X-388783Y323291D02*
X-387117Y324957D01*
X-383785D01*
X-382119Y323291D01*
Y321624D01*
X-383785Y319958D01*
X-385451D01*
X-383785D01*
X-382119Y318292D01*
Y316626D01*
X-383785Y314960D01*
X-387117D01*
X-388783Y316626D01*
X-372122Y314960D02*
X-378786D01*
X-372122Y321624D01*
Y323291D01*
X-373788Y324957D01*
X-377120D01*
X-378786Y323291D01*
X-199553Y392430D02*
X-207884D01*
X-209550Y390764D01*
Y387432D01*
X-207884Y385765D01*
X-199553D01*
Y375769D02*
Y382433D01*
X-204552D01*
X-202885Y379101D01*
Y377435D01*
X-204552Y375769D01*
X-207884D01*
X-209550Y377435D01*
Y380767D01*
X-207884Y382433D01*
X-549595Y521411D02*
X-551262Y523077D01*
X-554594D01*
X-556260Y521411D01*
Y514746D01*
X-554594Y513080D01*
X-551262D01*
X-549595Y514746D01*
X-539599Y513080D02*
X-546263D01*
X-539599Y519744D01*
Y521411D01*
X-541265Y523077D01*
X-544597D01*
X-546263Y521411D01*
X-536266D02*
X-534600Y523077D01*
X-531268D01*
X-529602Y521411D01*
Y519744D01*
X-531268Y518078D01*
X-532934D01*
X-531268D01*
X-529602Y516412D01*
Y514746D01*
X-531268Y513080D01*
X-534600D01*
X-536266Y514746D01*
X-552136Y600151D02*
X-553802Y601817D01*
X-557134D01*
X-558800Y600151D01*
Y593486D01*
X-557134Y591820D01*
X-553802D01*
X-552136Y593486D01*
X-542139Y591820D02*
X-548803D01*
X-542139Y598484D01*
Y600151D01*
X-543805Y601817D01*
X-547137D01*
X-548803Y600151D01*
X-533808Y591820D02*
Y601817D01*
X-538806Y596818D01*
X-532142D01*
X-497840Y619760D02*
Y626424D01*
X-494508Y629757D01*
X-491175Y626424D01*
Y619760D01*
Y624758D01*
X-497840D01*
X-487843Y619760D02*
X-481179Y626424D01*
X-477846Y629757D02*
Y619760D01*
X-472848D01*
X-471182Y621426D01*
Y623092D01*
X-472848Y624758D01*
X-477846D01*
X-472848D01*
X-471182Y626424D01*
Y628091D01*
X-472848Y629757D01*
X-477846D01*
X-457911Y623885D02*
X-459577Y622218D01*
Y618886D01*
X-457911Y617220D01*
X-451246D01*
X-449580Y618886D01*
Y622218D01*
X-451246Y623885D01*
X-454578D01*
Y620552D01*
X-439257Y601980D02*
X-432592D01*
X-429260Y605312D01*
X-432592Y608644D01*
X-439257D01*
X-434258Y611977D02*
Y618641D01*
X-417271Y608644D02*
X-418937Y606978D01*
Y603646D01*
X-417271Y601980D01*
X-410606D01*
X-408940Y603646D01*
Y606978D01*
X-410606Y608644D01*
X-413938D01*
Y605312D01*
X-408940Y611977D02*
X-418937D01*
X-408940Y618641D01*
X-418937D01*
Y621974D02*
X-408940D01*
Y626972D01*
X-410606Y628638D01*
X-417271D01*
X-418937Y626972D01*
Y621974D01*
X-398617Y601980D02*
X-391952D01*
X-388620Y605312D01*
X-391952Y608644D01*
X-398617D01*
X-393618Y611977D02*
Y618641D01*
X-396951Y615309D02*
X-390286D01*
X-376631Y608644D02*
X-378297Y606978D01*
Y603646D01*
X-376631Y601980D01*
X-369966D01*
X-368300Y603646D01*
Y606978D01*
X-369966Y608644D01*
X-373298D01*
Y605312D01*
X-368300Y611977D02*
X-378297D01*
X-368300Y618641D01*
X-378297D01*
Y621974D02*
X-368300D01*
Y626972D01*
X-369966Y628638D01*
X-376631D01*
X-378297Y626972D01*
Y621974D01*
X-345440Y601980D02*
X-355437D01*
X-352104Y605312D01*
X-355437Y608644D01*
X-345440D01*
X-355437Y616975D02*
Y613643D01*
X-353771Y611977D01*
X-347106D01*
X-345440Y613643D01*
Y616975D01*
X-347106Y618641D01*
X-353771D01*
X-355437Y616975D01*
X-238760Y604520D02*
X-248757D01*
X-245424Y607852D01*
X-248757Y611185D01*
X-238760D01*
X-248757Y619515D02*
Y616183D01*
X-247091Y614517D01*
X-240426D01*
X-238760Y616183D01*
Y619515D01*
X-240426Y621181D01*
X-247091D01*
X-248757Y619515D01*
X-219151Y608644D02*
X-220817Y606978D01*
Y603646D01*
X-219151Y601980D01*
X-212486D01*
X-210820Y603646D01*
Y606978D01*
X-212486Y608644D01*
X-215818D01*
Y605312D01*
X-210820Y611977D02*
X-220817D01*
X-210820Y618641D01*
X-220817D01*
Y621974D02*
X-210820D01*
Y626972D01*
X-212486Y628638D01*
X-219151D01*
X-220817Y626972D01*
Y621974D01*
X-195417Y601980D02*
Y605312D01*
Y603646D01*
X-185420D01*
Y601980D01*
Y605312D01*
Y610311D02*
X-195417D01*
X-185420Y616975D01*
X-195417D01*
X-185420Y620307D02*
X-195417D01*
Y625306D01*
X-193751Y626972D01*
X-190418D01*
X-188752Y625306D01*
Y620307D01*
Y623640D02*
X-185420Y626972D01*
X-168351Y608644D02*
X-170017Y606978D01*
Y603646D01*
X-168351Y601980D01*
X-161686D01*
X-160020Y603646D01*
Y606978D01*
X-161686Y608644D01*
X-165018D01*
Y605312D01*
X-160020Y611977D02*
X-170017D01*
X-160020Y618641D01*
X-170017D01*
Y621974D02*
X-160020D01*
Y626972D01*
X-161686Y628638D01*
X-168351D01*
X-170017Y626972D01*
Y621974D01*
X-144617Y604520D02*
Y607852D01*
Y606186D01*
X-134620D01*
Y604520D01*
Y607852D01*
Y612851D02*
X-144617D01*
X-134620Y619515D01*
X-144617D01*
Y622847D02*
X-134620D01*
Y629512D01*
X-121757Y604520D02*
X-115092D01*
X-111760Y607852D01*
X-115092Y611185D01*
X-121757D01*
X-116758Y614517D02*
Y621181D01*
X-92151Y611185D02*
X-93817Y609518D01*
Y606186D01*
X-92151Y604520D01*
X-85486D01*
X-83820Y606186D01*
Y609518D01*
X-85486Y611185D01*
X-88818D01*
Y607852D01*
X-83820Y614517D02*
X-93817D01*
X-83820Y621181D01*
X-93817D01*
Y624514D02*
X-83820D01*
Y629512D01*
X-85486Y631178D01*
X-92151D01*
X-93817Y629512D01*
Y624514D01*
X-68417Y604520D02*
X-61752D01*
X-58420Y607852D01*
X-61752Y611185D01*
X-68417D01*
X-63418Y614517D02*
Y621181D01*
X-66751Y617849D02*
X-60086D01*
X702500Y67497D02*
Y57500D01*
Y62498D01*
X709165D01*
Y67497D01*
Y57500D01*
X712497Y67497D02*
X715829D01*
X714163D01*
Y57500D01*
X712497D01*
X715829D01*
X727492Y65831D02*
X725826Y67497D01*
X722494D01*
X720827Y65831D01*
Y59166D01*
X722494Y57500D01*
X725826D01*
X727492Y59166D01*
Y62498D01*
X724160D01*
X730824Y67497D02*
Y57500D01*
Y62498D01*
X737489D01*
Y67497D01*
Y57500D01*
X465000D02*
Y67497D01*
X468332Y64165D01*
X471665Y67497D01*
Y57500D01*
X474997Y67497D02*
X478329D01*
X476663D01*
Y57500D01*
X474997D01*
X478329D01*
X483327Y67497D02*
Y57500D01*
X488326D01*
X489992Y59166D01*
Y65831D01*
X488326Y67497D01*
X483327D01*
X222500D02*
Y57500D01*
X229165D01*
X237495Y67497D02*
X234163D01*
X232497Y65831D01*
Y59166D01*
X234163Y57500D01*
X237495D01*
X239161Y59166D01*
Y65831D01*
X237495Y67497D01*
X242494D02*
Y57500D01*
X245826Y60832D01*
X249158Y57500D01*
Y67497D01*
X-12500Y69997D02*
Y63332D01*
X-9168Y60000D01*
X-5835Y63332D01*
Y69997D01*
X2495D02*
X-837D01*
X-2503Y68331D01*
Y61666D01*
X-837Y60000D01*
X2495D01*
X4161Y61666D01*
Y68331D01*
X2495Y69997D01*
X7494D02*
Y60000D01*
X14158D01*
X893331Y628335D02*
X894997Y630002D01*
Y633334D01*
X893331Y635000D01*
X886666D01*
X885000Y633334D01*
Y630002D01*
X886666Y628335D01*
X894997Y625003D02*
X885000D01*
X889998D01*
Y618339D01*
X894997D01*
X885000D01*
X883334Y615006D02*
Y608342D01*
X894997Y605010D02*
X885000D01*
Y598345D01*
X948331Y628335D02*
X949997Y630002D01*
Y633334D01*
X948331Y635000D01*
X941666D01*
X940000Y633334D01*
Y630002D01*
X941666Y628335D01*
X949997Y625003D02*
X940000D01*
X944998D01*
Y618339D01*
X949997D01*
X940000D01*
X938334Y615006D02*
Y608342D01*
X940000Y605010D02*
X949997D01*
Y600011D01*
X948331Y598345D01*
X944998D01*
X943332Y600011D01*
Y605010D01*
Y601677D02*
X940000Y598345D01*
X918331Y628335D02*
X919997Y630002D01*
Y633334D01*
X918331Y635000D01*
X911666D01*
X910000Y633334D01*
Y630002D01*
X911666Y628335D01*
X914998D01*
Y631668D01*
X910000Y625003D02*
X919997D01*
X910000Y618339D01*
X919997D01*
Y615006D02*
X910000D01*
Y610008D01*
X911666Y608342D01*
X918331D01*
X919997Y610008D01*
Y615006D01*
X803331Y628335D02*
X804997Y630002D01*
Y633334D01*
X803331Y635000D01*
X796666D01*
X795000Y633334D01*
Y630002D01*
X796666Y628335D01*
X799998D01*
Y631668D01*
X795000Y625003D02*
X804997D01*
X795000Y618339D01*
X804997D01*
Y615006D02*
X795000D01*
Y610008D01*
X796666Y608342D01*
X803331D01*
X804997Y610008D01*
Y615006D01*
X833331Y628335D02*
X834997Y630002D01*
Y633334D01*
X833331Y635000D01*
X826666D01*
X825000Y633334D01*
Y630002D01*
X826666Y628335D01*
X834997Y625003D02*
X825000D01*
X829998D01*
Y618339D01*
X834997D01*
X825000D01*
X823334Y615006D02*
Y608342D01*
X825000Y605010D02*
X834997D01*
Y600011D01*
X833331Y598345D01*
X829998D01*
X828332Y600011D01*
Y605010D01*
Y601677D02*
X825000Y598345D01*
X778331Y628335D02*
X779997Y630002D01*
Y633334D01*
X778331Y635000D01*
X771666D01*
X770000Y633334D01*
Y630002D01*
X771666Y628335D01*
X779997Y625003D02*
X770000D01*
X774998D01*
Y618339D01*
X779997D01*
X770000D01*
X768334Y615006D02*
Y608342D01*
X779997Y605010D02*
X770000D01*
Y598345D01*
X-12062Y508020D02*
Y501356D01*
X-8729Y504688D02*
X-15394D01*
X-12189Y296002D02*
Y289338D01*
X-8856Y292670D02*
X-15521D01*
X756980Y292938D02*
X763644D01*
X760312Y296271D02*
Y289606D01*
X-12189Y211002D02*
Y204338D01*
X-8856Y207670D02*
X-15521D01*
X-11980Y527062D02*
X-18644D01*
X-15312Y523729D02*
Y530394D01*
X754962Y508065D02*
X761627D01*
X758294Y511398D02*
Y504733D01*
X819843Y94998D02*
Y91666D01*
X821509Y90000D01*
X828174D01*
X829840Y91666D01*
Y94998D01*
X828174Y96664D01*
X821509D01*
X819843Y94998D01*
X796509Y96664D02*
X794843Y94998D01*
Y91666D01*
X796509Y90000D01*
X803174D01*
X804840Y91666D01*
Y94998D01*
X803174Y96664D01*
X799842D01*
Y93332D01*
X769843Y90000D02*
Y93332D01*
Y91666D01*
X779840D01*
Y90000D01*
Y93332D01*
X874843Y90000D02*
Y93332D01*
Y91666D01*
X884840D01*
Y90000D01*
Y93332D01*
X901509Y96664D02*
X899843Y94998D01*
Y91666D01*
X901509Y90000D01*
X908174D01*
X909840Y91666D01*
Y94998D01*
X908174Y96664D01*
X904842D01*
Y93332D01*
X924843Y94998D02*
Y91666D01*
X926509Y90000D01*
X933174D01*
X934840Y91666D01*
Y94998D01*
X933174Y96664D01*
X926509D01*
X924843Y94998D01*
X224953Y142860D02*
X223287Y141194D01*
Y137862D01*
X224953Y136196D01*
X231618D01*
X233284Y137862D01*
Y141194D01*
X231618Y142860D01*
X228286D01*
Y139528D01*
X233284Y146193D02*
X223287D01*
X233284Y152857D01*
X223287D01*
Y156190D02*
X233284D01*
Y161188D01*
X231618Y162854D01*
X224953D01*
X223287Y161188D01*
Y156190D01*
X204633Y142860D02*
X202967Y141194D01*
Y137862D01*
X204633Y136196D01*
X211298D01*
X212964Y137862D01*
Y141194D01*
X211298Y142860D01*
X207966D01*
Y139528D01*
X212964Y146193D02*
X202967D01*
X212964Y152857D01*
X202967D01*
Y156190D02*
X212964D01*
Y161188D01*
X211298Y162854D01*
X204633D01*
X202967Y161188D01*
Y156190D01*
X177567Y136196D02*
X187564D01*
Y142860D01*
X177567Y151191D02*
Y147859D01*
X179233Y146193D01*
X185898D01*
X187564Y147859D01*
Y151191D01*
X185898Y152857D01*
X179233D01*
X177567Y151191D01*
Y156190D02*
X187564D01*
X184232Y159522D01*
X187564Y162854D01*
X177567D01*
X149627Y136196D02*
X159624D01*
X154626D01*
Y142860D01*
X149627D01*
X159624D01*
X149627Y146193D02*
Y149525D01*
Y147859D01*
X159624D01*
Y146193D01*
Y149525D01*
X136764Y136196D02*
X126767D01*
X130099Y139528D01*
X126767Y142860D01*
X136764D01*
X126767Y146193D02*
Y149525D01*
Y147859D01*
X136764D01*
Y146193D01*
Y149525D01*
X126767Y154523D02*
X136764D01*
Y159522D01*
X135098Y161188D01*
X128433D01*
X126767Y159522D01*
Y154523D01*
X123449Y649208D02*
X130114D01*
X133446Y652540D01*
X130114Y655872D01*
X123449D01*
X128448Y659205D02*
Y665869D01*
X125115Y662537D02*
X131780D01*
X150515Y655872D02*
X148849Y654206D01*
Y650874D01*
X150515Y649208D01*
X157180D01*
X158846Y650874D01*
Y654206D01*
X157180Y655872D01*
X153848D01*
Y652540D01*
X174249Y649208D02*
X180914D01*
X184246Y652540D01*
X180914Y655872D01*
X174249D01*
X179248Y659205D02*
Y665869D01*
X201315Y643173D02*
X199649Y641506D01*
Y638174D01*
X201315Y636508D01*
X207980D01*
X209646Y638174D01*
Y641506D01*
X207980Y643173D01*
X204648D01*
Y639840D01*
X209646Y646505D02*
X199649D01*
X209646Y653169D01*
X199649D01*
Y656502D02*
X209646D01*
Y661500D01*
X207980Y663166D01*
X201315D01*
X199649Y661500D01*
Y656502D01*
X225049Y646668D02*
Y650000D01*
Y648334D01*
X235046D01*
Y646668D01*
Y650000D01*
Y654999D02*
X225049D01*
X235046Y661663D01*
X225049D01*
X605049Y646668D02*
Y650000D01*
Y648334D01*
X615046D01*
Y646668D01*
Y650000D01*
Y654999D02*
X605049D01*
X615046Y661663D01*
X605049D01*
X581315Y643173D02*
X579649Y641506D01*
Y638174D01*
X581315Y636508D01*
X587980D01*
X589646Y638174D01*
Y641506D01*
X587980Y643173D01*
X584648D01*
Y639840D01*
X589646Y646505D02*
X579649D01*
X589646Y653169D01*
X579649D01*
Y656502D02*
X589646D01*
Y661500D01*
X587980Y663166D01*
X581315D01*
X579649Y661500D01*
Y656502D01*
X554249Y649208D02*
X560914D01*
X564246Y652540D01*
X560914Y655872D01*
X554249D01*
X559248Y659205D02*
Y665869D01*
X530515Y655872D02*
X528849Y654206D01*
Y650874D01*
X530515Y649208D01*
X537180D01*
X538846Y650874D01*
Y654206D01*
X537180Y655872D01*
X533848D01*
Y652540D01*
X503449Y649208D02*
X510114D01*
X513446Y652540D01*
X510114Y655872D01*
X503449D01*
X508448Y659205D02*
Y665869D01*
X505115Y662537D02*
X511780D01*
X516764Y136196D02*
X506767D01*
X510099Y139528D01*
X506767Y142860D01*
X516764D01*
X506767Y146193D02*
Y149525D01*
Y147859D01*
X516764D01*
Y146193D01*
Y149525D01*
X506767Y154523D02*
X516764D01*
Y159522D01*
X515098Y161188D01*
X508433D01*
X506767Y159522D01*
Y154523D01*
X529627Y136196D02*
X539624D01*
X534626D01*
Y142860D01*
X529627D01*
X539624D01*
X529627Y146193D02*
Y149525D01*
Y147859D01*
X539624D01*
Y146193D01*
Y149525D01*
X557567Y136196D02*
X567564D01*
Y142860D01*
X557567Y151191D02*
Y147859D01*
X559233Y146193D01*
X565898D01*
X567564Y147859D01*
Y151191D01*
X565898Y152857D01*
X559233D01*
X557567Y151191D01*
Y156190D02*
X567564D01*
X564232Y159522D01*
X567564Y162854D01*
X557567D01*
X584633Y142860D02*
X582967Y141194D01*
Y137862D01*
X584633Y136196D01*
X591298D01*
X592964Y137862D01*
Y141194D01*
X591298Y142860D01*
X587966D01*
Y139528D01*
X592964Y146193D02*
X582967D01*
X592964Y152857D01*
X582967D01*
Y156190D02*
X592964D01*
Y161188D01*
X591298Y162854D01*
X584633D01*
X582967Y161188D01*
Y156190D01*
X604953Y142860D02*
X603287Y141194D01*
Y137862D01*
X604953Y136196D01*
X611618D01*
X613284Y137862D01*
Y141194D01*
X611618Y142860D01*
X608286D01*
Y139528D01*
X613284Y146193D02*
X603287D01*
X613284Y152857D01*
X603287D01*
Y156190D02*
X613284D01*
Y161188D01*
X611618Y162854D01*
X604953D01*
X603287Y161188D01*
Y156190D01*
X902062Y441980D02*
Y448644D01*
X898729Y445312D02*
X905394D01*
X902062Y226980D02*
Y233645D01*
X898729Y230312D02*
X905394D01*
X-434340Y106598D02*
X-427676D01*
X-431008Y109931D02*
Y103266D01*
X-175342Y208280D02*
Y201616D01*
X-172009Y204948D02*
X-178674D01*
X-434258Y142240D02*
Y148904D01*
X-437591Y145572D02*
X-430926D01*
X-101682Y208280D02*
Y201616D01*
X-98349Y204948D02*
X-105014D01*
X-442500Y-30003D02*
Y-40000D01*
X-437502D01*
X-435835Y-38334D01*
Y-31669D01*
X-437502Y-30003D01*
X-442500D01*
X-432503D02*
X-429171D01*
X-430837D01*
Y-40000D01*
X-432503D01*
X-429171D01*
X-424173D02*
Y-30003D01*
X-419174D01*
X-417508Y-31669D01*
Y-35002D01*
X-419174Y-36668D01*
X-424173D01*
X-420840D02*
X-417508Y-40000D01*
X-387500D02*
Y-33335D01*
X-384168Y-30003D01*
X-380835Y-33335D01*
Y-40000D01*
Y-35002D01*
X-387500D01*
X-377503Y-40000D02*
X-370839Y-33335D01*
X-367506Y-30003D02*
Y-40000D01*
X-362508D01*
X-360842Y-38334D01*
Y-36668D01*
X-362508Y-35002D01*
X-367506D01*
X-362508D01*
X-360842Y-33335D01*
Y-31669D01*
X-362508Y-30003D01*
X-367506D01*
M02*
