M48
;Layer_Color=9474304
;FILE_FORMAT=4:4
METRIC,LZ
;TYPE=PLATED
T1F00S00C0.6000
T2F00S00C0.7500
T3F00S00C0.7874
T4F00S00C0.8128
T5F00S00C0.9000
T6F00S00C1.0000
T7F00S00C1.0160
T8F00S00C1.6000
T9F00S00C3.0000
%
T01
X-0047244Y0016256
X-004572Y001778
X-0046482Y0021336
X002125Y0025
X0029972Y0052578
X003Y00545
Y006375
X0028448
X005075Y0059
X001275
X-0026162Y005588
X-0028956
X-0032258Y0058928
X-0036068Y0060452
X-0030988Y0051308
X-002921Y0047244
T02
X-0038882Y0007366
X-0040132Y0018776
X-0020828Y0016276
X-0013462
X-00045127Y00165482
Y00250482
X008025Y0026
X00935Y002725
Y004875
X00800482Y00475127
X-00045Y004625
X-000575Y0056
T03
X0037Y-00015
X0041
X00065Y-000139
X-00065
X-0013716Y-0001016
X-0021336
Y0007874
X-0022352Y002413
X-0024384Y0027178
X-0023368Y003048
X-0025908
X-0028448
X-0030988
X-0034036Y0029972
X-0035306Y0027178
X-0034036Y002413
X-0031242
X-0029464Y0027178
X-0040386
X-0042926Y0029972
Y002413
X-004064Y0035814
X-003556
X-0033782Y0039624
X-0035306Y0042418
X-0033782Y0045212
X-0031242
X-0029718Y0042164
X-0024638
X-0025908Y00381
X-0028448
X-0030988
X-0023368
X-0022352Y0045212
X-0042672
X-0040386Y0042418
X-0042672Y0039624
X-0019558Y0026924
X-0014478
X-0013716Y0007874
X-00065Y00075
X00065
X00075Y00175
X001
X00127Y0017526
X0005Y00175
Y002639
X00075
X001
X00127Y0026416
X0016Y003
X001469Y003369
Y003623
Y003877
Y004131
X0011Y004189
X00085
Y0033
X0011
X001596Y0045
X002104
X002231Y004131
Y003877
Y003623
Y003369
X00255Y0033
X0028
X00305
Y004189
X0028
X00255
X002108Y003
X00405Y002639
X0043
X00455
X0048
Y003361
X00455
X005219Y003369
Y003623
Y003877
Y004131
X005346Y0045
X005854
X0048Y00425
X00455
X005346Y003
X005854
X0048Y00175
X00455
X0043
X00405
X0041Y000739
X0037
X0065Y00175
X00675
Y002639
X0065
X00655Y00335
X0063
X005981Y003369
Y003623
Y003877
Y004131
X0063Y004239
X00655
X0068
Y00335
T04
X-0048514Y0046355
Y0050165
Y0055499
Y0059309
T05
X-0041382Y0007366
X-0040132Y0016276
X-0020828Y0018776
X-0013462
X-00045127Y00190482
Y00275482
X0012886Y00119558
X0015426
X0017966
X0020506
X0023046
X0050886
X0053426
X0055966
X0058506
X0061046
X007775Y0026
X00935Y002475
Y004625
X00775482Y00475127
X0061Y0068
X005846
X005592
X005338
X005084
X0023
X002046
X001792
X001538
X001284
X-000325Y0056
X-00045Y004875
X-0035418Y0066548
X-0037418
X-0039418
X-0041418
X-0043418
X-0045418
X-0047418
X-0049418
T06
X00775Y00125
X008004
X008258
X008796
X00905
X009304
X009408Y00665
X009154
X0089
X008254
X008
X007746
X-000635Y006604
X-000889
X-001143
X-001397
X-001651
X-001905
X-002159
X-002413
T07
X006946Y0
Y000254
X0072
X007454
Y0
X0072
X005054
X0048
X004546
Y000254
X0048
X005054
X002654
X0024
X002146
Y0
X0024
X002654
X000254
X0
X-000254
Y000254
X0
X000254
T08
X-0053Y0004
X-0047
X-0033
X-0027
Y0008
Y0012
X-0033
Y0008
X-0047
Y0012
X-0053
Y0008
T09
X0003Y0013
X0033
X0041
X0071
Y0067
X0041
X0033
X0003
M30
