M48
;Layer_Color=9474304
;FILE_FORMAT=4:4
METRIC,LZ
;TYPE=PLATED
T1F00S00C0.3000
T2F00S00C0.6000
T3F00S00C0.7874
T5F00S00C0.8000
T6F00S00C0.9000
T7F00S00C1.0000
T8F00S00C1.0160
T9F00S00C1.5240
T10F00S00C1.6000
T11F00S00C3.0000
%
T01
X00453Y-01115
X0045311Y-01098891
X00453Y-01083
X0030226Y-0090678
X0028702Y-0087376
X00206Y-00822
X00203Y-00814
X00194Y-00741
X00183
X0017
X00181Y-00706
X00201
X0025654Y-0067818
X0028702Y-0066294
X0029972Y-0067056
X003048Y-006985
X0031242Y-0071374
X0030226Y-0072898
X00345Y-0074168
X0036068Y-006985
X0032512Y-0069088
X00391Y-00682
X00407
X00421
X00439
X00454
X00137Y-00674
X00575Y-00698
X00632Y-00753
X00704Y-00694
Y-00674684
X00624Y-00596
X00513Y-00631
X00488Y-00634
X00633Y-00432
X00753Y-00265
X00768Y-00264301
X00782
X00459Y-00278
X00445Y-00264
X00432Y-00286
X00419Y-00274
X00406Y-00295
X0042Y-00309
X00431Y-00321
X00422Y-00346
X00406Y-00331
X00391Y-00315
X00445Y-003
X003556Y-0027432
X0037592Y-0037081
Y-0040891
Y-004318
X0035306Y-004572
X00315246Y-0040894
X0030734Y-0037084
X00300246Y-00539006
X0030226Y-0055118
X0032004Y-0057658
X0036Y-00586
X00355Y-00617
Y-00628
Y-00639
X004064Y-0064262
X0041656Y-0064008
X00437Y-00639
X00454
X00471
X00478Y-00576
Y-00565
Y-00554
Y-00544
X00449Y-00558
X0044Y-00568
X0043Y-00578
X0042Y-00587
X00426Y-00546
X00381Y-005461
X00254Y-0054356
X0024892Y-0051562
X00203Y-00516
X00138Y-00581
X00136Y-00637
X0026416Y-0064008
Y-0062992
X0029718Y-0063754
X00296Y-00616
X0044958Y-004572
X0017Y-00313
X00155
X0014
Y-00287
X00155
X0017
Y-00263
X00155
X0014
X0023114Y-0018796
X00295Y-0019
X00396Y-00212
Y-00229
Y-00248
X00406Y-00262
X00432Y-00252
X00422Y-00229
Y-00212
T02
X0063246Y-0078994
X00632Y-00769
X00712158Y-00682842
X00702Y-00444
T03
X001188Y-00926
Y-00901
Y-00881
Y-00856
X00145
Y-00881
Y-00901
Y-00926
T05
X0006604Y-0072837
Y-00713384
Y-00698373
Y-00683387
Y-00668376
X0089244Y-0033186
Y-0031186
Y-0029186
Y-0027186
X0097344
Y-0029186
Y-0031186
Y-0033186
X0006604Y-0065339
X0089244Y-0018586
Y-0016586
Y-0014586
Y-0012586
X0097244
Y-0014586
Y-0016586
Y-0018586
T06
X002311Y-0003
X002565
X002819
X003073
X003327
X003581
X003835
X004089
X0048768Y-0003048
X0051308
X0053848
X0056388
X0058928
X0061468
X0064008
X0066548
T07
X0079944Y-00834419
Y-00779301
X0089444Y-0076736
Y-0074196
Y-0071656
Y-0069116
Y-0066576
X0097344
Y-0069116
Y-0071656
Y-0074196
Y-0076736
X0097244Y-0085546
Y-0088086
Y-0090626
Y-0098646
Y-0101186
Y-0103726
X0097344Y-0064036
X0089444
X0089544Y-0054936
Y-0052396
Y-0049856
Y-0047316
Y-0044776
Y-0042236
X0097344Y-0042236
Y-0044776
Y-0047316
Y-0049856
Y-0052396
Y-0054936
X0079944Y-00543301
Y-00598419
X0080144Y-00319419
Y-00264301
X00226Y-005836
Y-006344
X0004Y-005754
Y-0055
Y-005246
Y-004654
Y-0044
Y-004146
Y-003508
Y-003254
Y-003
Y-002746
Y-002492
Y-001854
Y-0016
Y-001346
X0080144Y-00113301
Y-00168419
T08
X00227873Y-00908018
X00228127Y-00873982
X00376982Y-00865873
X00411018Y-00866127
Y-00952127
X00376982Y-00951873
X00598982Y-00960873
X00633018Y-00961127
Y-00870127
X00598982Y-00869873
X00815313Y-00716878
X00815567Y-00682842
X00812313Y-00477878
X00812567Y-00443842
T09
X0073244Y-0103686
X0078324
X0083404
T10
X0063084Y-0103686
X0068164
T11
X0100696Y-0111633
X00322Y-0110191
X0002144Y-0111633
X00322Y-0101809
X0002144Y-0002286
X0100696
M30
