G04 Layer_Color=8388736*
%FSLAX44Y44*%
%MOMM*%
G71*
G01*
G75*
%ADD59O,0.4532X1.4732*%
%ADD60O,1.4732X0.4532*%
%ADD61R,1.4732X0.4532*%
%ADD62R,1.4732X1.8034*%
%ADD63R,3.5032X2.6032*%
%ADD64R,1.2032X2.6032*%
%ADD65R,1.8034X1.4732*%
%ADD66R,1.7272X0.7112*%
%ADD67R,10.2032X6.2032*%
%ADD68R,1.2732X2.9532*%
%ADD69R,1.9812X1.9812*%
%ADD70O,2.2032X0.8032*%
%ADD71O,2.4032X1.9032*%
%ADD72R,2.4032X1.9032*%
%ADD73R,2.5032X1.9032*%
%ADD74O,2.5032X1.9032*%
%ADD75C,1.4031*%
%ADD76R,1.4031X1.4031*%
%ADD77R,1.7272X2.7432*%
%ADD78O,1.7272X2.7432*%
%ADD79O,3.2512X3.7592*%
%ADD80R,2.7432X1.7272*%
%ADD81O,2.7432X1.7272*%
%ADD82R,5.2032X5.2032*%
%ADD83O,2.2032X1.4032*%
%ADD84C,2.5032*%
%ADD85R,3.2032X2.2352*%
%ADD86C,1.7032*%
%ADD87R,1.7032X1.7032*%
%ADD88R,1.7032X1.7032*%
%ADD89C,2.1082*%
G36*
X806298Y-605277D02*
X792582D01*
Y-591561D01*
X806298D01*
Y-605277D01*
D02*
G37*
G36*
X801230Y-536619D02*
X802899Y-537310D01*
X804331Y-538410D01*
X805430Y-539842D01*
X806122Y-541511D01*
X806357Y-543301D01*
X806122Y-545091D01*
X805430Y-546760D01*
X804331Y-548192D01*
X802899Y-549291D01*
X801230Y-549982D01*
X799440Y-550218D01*
X797650Y-549982D01*
X795981Y-549291D01*
X794549Y-548192D01*
X793449Y-546760D01*
X792758Y-545091D01*
X792523Y-543301D01*
X792758Y-541511D01*
X793449Y-539842D01*
X794549Y-538410D01*
X795981Y-537310D01*
X797650Y-536619D01*
X799440Y-536384D01*
X801230Y-536619D01*
D02*
G37*
G36*
X806298Y-841277D02*
X792582D01*
Y-827561D01*
X806298D01*
Y-841277D01*
D02*
G37*
G36*
X801230Y-772619D02*
X802899Y-773310D01*
X804331Y-774410D01*
X805430Y-775842D01*
X806122Y-777511D01*
X806357Y-779301D01*
X806122Y-781091D01*
X805430Y-782760D01*
X804331Y-784192D01*
X802899Y-785292D01*
X801230Y-785983D01*
X799440Y-786218D01*
X797650Y-785983D01*
X795981Y-785292D01*
X794549Y-784192D01*
X793449Y-782760D01*
X792758Y-781091D01*
X792523Y-779301D01*
X792758Y-777511D01*
X793449Y-775842D01*
X794549Y-774410D01*
X795981Y-773310D01*
X797650Y-772619D01*
X799440Y-772384D01*
X801230Y-772619D01*
D02*
G37*
G36*
X803230Y-161737D02*
X804899Y-162428D01*
X806331Y-163528D01*
X807430Y-164960D01*
X808121Y-166629D01*
X808357Y-168419D01*
X808121Y-170209D01*
X807430Y-171878D01*
X806331Y-173310D01*
X804899Y-174410D01*
X803230Y-175100D01*
X801440Y-175336D01*
X799650Y-175100D01*
X797981Y-174410D01*
X796549Y-173310D01*
X795450Y-171878D01*
X794759Y-170209D01*
X794523Y-168419D01*
X794759Y-166629D01*
X795450Y-164960D01*
X796549Y-163528D01*
X797981Y-162428D01*
X799650Y-161737D01*
X801440Y-161502D01*
X803230Y-161737D01*
D02*
G37*
G36*
X808298Y-120159D02*
X794582D01*
Y-106443D01*
X808298D01*
Y-120159D01*
D02*
G37*
G36*
X803230Y-312738D02*
X804899Y-313428D01*
X806331Y-314528D01*
X807430Y-315960D01*
X808121Y-317629D01*
X808357Y-319419D01*
X808121Y-321209D01*
X807430Y-322878D01*
X806331Y-324310D01*
X804899Y-325410D01*
X803230Y-326101D01*
X801440Y-326336D01*
X799650Y-326101D01*
X797981Y-325410D01*
X796549Y-324310D01*
X795450Y-322878D01*
X794759Y-321209D01*
X794523Y-319419D01*
X794759Y-317629D01*
X795450Y-315960D01*
X796549Y-314528D01*
X797981Y-313428D01*
X799650Y-312738D01*
X801440Y-312502D01*
X803230Y-312738D01*
D02*
G37*
G36*
X808298Y-271159D02*
X794582D01*
Y-257443D01*
X808298D01*
Y-271159D01*
D02*
G37*
D59*
X300246Y-563763D02*
D03*
X305246D02*
D03*
X310246D02*
D03*
X315246D02*
D03*
X320246D02*
D03*
X325246D02*
D03*
X330246D02*
D03*
X335246D02*
D03*
X340246D02*
D03*
X345246D02*
D03*
X350246D02*
D03*
X355246D02*
D03*
Y-653729D02*
D03*
X350246D02*
D03*
X345246D02*
D03*
X340246D02*
D03*
X335246D02*
D03*
X330246D02*
D03*
X325246D02*
D03*
X320246D02*
D03*
X315246D02*
D03*
X310246D02*
D03*
X305246D02*
D03*
X300246D02*
D03*
D60*
X372729Y-581246D02*
D03*
Y-586246D02*
D03*
Y-591246D02*
D03*
Y-596246D02*
D03*
Y-601246D02*
D03*
Y-606246D02*
D03*
Y-611246D02*
D03*
Y-616246D02*
D03*
Y-621246D02*
D03*
Y-626246D02*
D03*
Y-631246D02*
D03*
Y-636246D02*
D03*
X282763D02*
D03*
Y-631246D02*
D03*
Y-626246D02*
D03*
Y-621246D02*
D03*
Y-616246D02*
D03*
Y-611246D02*
D03*
Y-606246D02*
D03*
Y-601246D02*
D03*
Y-596246D02*
D03*
Y-591246D02*
D03*
Y-586246D02*
D03*
D61*
Y-581246D02*
D03*
D62*
X414020Y-546100D02*
D03*
X393700D02*
D03*
X213360Y-678180D02*
D03*
X233680D02*
D03*
X149860D02*
D03*
X170180D02*
D03*
X215900Y-830580D02*
D03*
X236220D02*
D03*
X404160Y-811000D02*
D03*
X383840D02*
D03*
X215900Y-515620D02*
D03*
X236220D02*
D03*
X149840Y-581000D02*
D03*
X170160D02*
D03*
X149840Y-637000D02*
D03*
X170160D02*
D03*
X213360Y-706120D02*
D03*
X233680D02*
D03*
X215900Y-543560D02*
D03*
X236220D02*
D03*
D63*
X226060Y-740620D02*
D03*
D64*
X249060Y-798620D02*
D03*
X226060Y-798620D02*
D03*
X203060Y-798620D02*
D03*
D65*
X330200Y-721360D02*
D03*
Y-741680D02*
D03*
X286000Y-904160D02*
D03*
Y-883840D02*
D03*
X850440Y-400020D02*
D03*
Y-379700D02*
D03*
X360680Y-741680D02*
D03*
Y-721360D02*
D03*
D66*
X823475Y-370810D02*
D03*
Y-383510D02*
D03*
Y-396210D02*
D03*
Y-408910D02*
D03*
X771405D02*
D03*
Y-396210D02*
D03*
Y-383510D02*
D03*
Y-370810D02*
D03*
D67*
X508000Y-1098891D02*
D03*
D68*
X474000Y-945746D02*
D03*
X491000D02*
D03*
X508000D02*
D03*
X525000D02*
D03*
X542000D02*
D03*
D69*
X530670Y-894350D02*
D03*
X495110D02*
D03*
D70*
X589180Y-748510D02*
D03*
Y-761210D02*
D03*
Y-773910D02*
D03*
Y-786610D02*
D03*
Y-799310D02*
D03*
X685700Y-812010D02*
D03*
Y-799310D02*
D03*
Y-786610D02*
D03*
Y-773910D02*
D03*
Y-761210D02*
D03*
X589180Y-697710D02*
D03*
X685700D02*
D03*
Y-723110D02*
D03*
Y-748510D02*
D03*
Y-735810D02*
D03*
X589180Y-710410D02*
D03*
Y-723110D02*
D03*
Y-735810D02*
D03*
X685700Y-710410D02*
D03*
X589180Y-812010D02*
D03*
D71*
X40000Y-249200D02*
D03*
Y-274600D02*
D03*
Y-300000D02*
D03*
Y-325400D02*
D03*
X895440Y-422360D02*
D03*
Y-447760D02*
D03*
Y-473160D02*
D03*
Y-498560D02*
D03*
Y-523960D02*
D03*
X973440Y-523960D02*
D03*
Y-498560D02*
D03*
Y-473160D02*
D03*
Y-447760D02*
D03*
Y-422360D02*
D03*
X894440Y-640360D02*
D03*
Y-665760D02*
D03*
Y-691160D02*
D03*
Y-716560D02*
D03*
Y-741960D02*
D03*
X973440D02*
D03*
Y-716560D02*
D03*
Y-691160D02*
D03*
Y-665760D02*
D03*
Y-640360D02*
D03*
D72*
X40000Y-350800D02*
D03*
X895440Y-549360D02*
D03*
X973440Y-549360D02*
D03*
X894440Y-767360D02*
D03*
X973440D02*
D03*
D73*
X40000Y-185400D02*
D03*
X972440Y-906260D02*
D03*
Y-1037260D02*
D03*
X40000Y-575400D02*
D03*
Y-465400D02*
D03*
D74*
Y-160000D02*
D03*
Y-134600D02*
D03*
X972440Y-880860D02*
D03*
Y-855460D02*
D03*
Y-1011860D02*
D03*
Y-986460D02*
D03*
X40000Y-524600D02*
D03*
Y-550000D02*
D03*
Y-414600D02*
D03*
Y-440000D02*
D03*
D75*
X66040Y-728370D02*
D03*
Y-713384D02*
D03*
Y-698373D02*
D03*
Y-683387D02*
D03*
Y-668376D02*
D03*
D76*
Y-653390D02*
D03*
D77*
X376982Y-865873D02*
D03*
Y-951873D02*
D03*
X598982Y-960873D02*
D03*
Y-869873D02*
D03*
D78*
X411018Y-866127D02*
D03*
Y-952127D02*
D03*
X633018Y-961127D02*
D03*
Y-870127D02*
D03*
D79*
X783240Y-1036860D02*
D03*
X834040D02*
D03*
X732440D02*
D03*
X681640D02*
D03*
X630840D02*
D03*
D80*
X815567Y-682842D02*
D03*
X812567Y-443842D02*
D03*
X228127Y-873982D02*
D03*
D81*
X815313Y-716878D02*
D03*
X812313Y-477878D02*
D03*
X227873Y-908018D02*
D03*
D82*
X322000Y-1018090D02*
D03*
Y-1101910D02*
D03*
D83*
X972440Y-185860D02*
D03*
Y-165860D02*
D03*
Y-145860D02*
D03*
Y-125860D02*
D03*
X892440Y-331860D02*
D03*
Y-311860D02*
D03*
Y-291860D02*
D03*
Y-271860D02*
D03*
X892440Y-185860D02*
D03*
Y-165860D02*
D03*
Y-145860D02*
D03*
Y-125860D02*
D03*
X973440Y-331860D02*
D03*
Y-311860D02*
D03*
Y-291860D02*
D03*
Y-271860D02*
D03*
D84*
X1006960Y-1116330D02*
D03*
Y-22860D02*
D03*
X21440D02*
D03*
Y-1116330D02*
D03*
D85*
X148500Y-818500D02*
D03*
Y-963500D02*
D03*
X91700D02*
D03*
Y-818500D02*
D03*
D86*
X145000Y-926000D02*
D03*
Y-901000D02*
D03*
Y-881000D02*
D03*
X118800D02*
D03*
Y-901000D02*
D03*
Y-926000D02*
D03*
X408900Y-30000D02*
D03*
X383500D02*
D03*
X358100D02*
D03*
X332700D02*
D03*
X307300D02*
D03*
X281900D02*
D03*
X256500D02*
D03*
X665480Y-30480D02*
D03*
X640080D02*
D03*
X614680D02*
D03*
X589280D02*
D03*
X563880D02*
D03*
X538480D02*
D03*
X513080D02*
D03*
D87*
X145000Y-856000D02*
D03*
X118800D02*
D03*
D88*
X231100Y-30000D02*
D03*
X487680Y-30480D02*
D03*
D89*
X226000Y-583600D02*
D03*
Y-634400D02*
D03*
M02*
