G04 Layer_Color=65535*
%FSLAX44Y44*%
%MOMM*%
G71*
G01*
G75*
%ADD22C,0.2540*%
%ADD51C,0.1524*%
%ADD52C,0.6000*%
%ADD53C,0.2500*%
%ADD54C,0.7620*%
%ADD55C,0.1778*%
%ADD56C,0.2000*%
%ADD57C,0.1780*%
%ADD58C,0.1270*%
G36*
X412542Y-918853D02*
X424226Y-927997D01*
X432100Y-947555D01*
X430068Y-966859D01*
X415844Y-984131D01*
X400858Y-989719D01*
X400604Y-960763D01*
X404160Y-965081D01*
X413050Y-967367D01*
X419400Y-962541D01*
X421432Y-952381D01*
X419146Y-940951D01*
X413558Y-936887D01*
X407970D01*
X400858Y-942221D01*
Y-914535D01*
X412542Y-918853D01*
D02*
G37*
G36*
X214919Y-901160D02*
X212633Y-910050D01*
X217459Y-916400D01*
X227619Y-918432D01*
X239049Y-916146D01*
X243113Y-910558D01*
Y-904970D01*
X237779Y-897858D01*
X265465D01*
X261147Y-909542D01*
X252003Y-921226D01*
X232445Y-929100D01*
X213141Y-927068D01*
X195869Y-912844D01*
X190281Y-897858D01*
X219237Y-897604D01*
X214919Y-901160D01*
D02*
G37*
G36*
X738790Y-1064800D02*
X734980D01*
Y-1071150D01*
X729900D01*
Y-1064800D01*
X726090D01*
X732440Y-1058450D01*
X738790Y-1064800D01*
D02*
G37*
G36*
X634542Y-927853D02*
X646226Y-936997D01*
X654100Y-956555D01*
X652068Y-975859D01*
X637844Y-993131D01*
X622858Y-998719D01*
X622604Y-969763D01*
X626160Y-974081D01*
X635050Y-976367D01*
X641400Y-971541D01*
X643432Y-961381D01*
X641146Y-949951D01*
X635558Y-945887D01*
X629970D01*
X622858Y-951221D01*
Y-923535D01*
X634542Y-927853D01*
D02*
G37*
G36*
Y-836853D02*
X646226Y-845997D01*
X654100Y-865555D01*
X652068Y-884859D01*
X637844Y-902131D01*
X622858Y-907719D01*
X622604Y-878763D01*
X626160Y-883081D01*
X635050Y-885367D01*
X641400Y-880541D01*
X643432Y-870381D01*
X641146Y-858951D01*
X635558Y-854887D01*
X629970D01*
X622858Y-860221D01*
Y-832535D01*
X634542Y-836853D01*
D02*
G37*
G36*
X236160Y-611921D02*
X216094D01*
Y-606079D01*
X236160D01*
Y-611921D01*
D02*
G37*
G36*
X799359Y-471020D02*
X797073Y-479910D01*
X801899Y-486260D01*
X812059Y-488292D01*
X823489Y-486006D01*
X827553Y-480418D01*
Y-474830D01*
X822219Y-467718D01*
X849905D01*
X845587Y-479402D01*
X836443Y-491086D01*
X816885Y-498960D01*
X797581Y-496928D01*
X780309Y-482704D01*
X774721Y-467718D01*
X803677Y-467464D01*
X799359Y-471020D01*
D02*
G37*
G36*
X412542Y-832853D02*
X424226Y-841997D01*
X432100Y-861555D01*
X430068Y-880859D01*
X415844Y-898131D01*
X400858Y-903719D01*
X400604Y-874763D01*
X404160Y-879081D01*
X413050Y-881367D01*
X419400Y-876541D01*
X421432Y-866381D01*
X419146Y-854951D01*
X413558Y-850887D01*
X407970D01*
X400858Y-856221D01*
Y-828535D01*
X412542Y-832853D01*
D02*
G37*
G36*
X802359Y-710020D02*
X800073Y-718910D01*
X804899Y-725260D01*
X815059Y-727292D01*
X826489Y-725006D01*
X830553Y-719418D01*
Y-713830D01*
X825219Y-706718D01*
X852905D01*
X848587Y-718402D01*
X839443Y-730086D01*
X819885Y-737960D01*
X800581Y-735928D01*
X783309Y-721704D01*
X777721Y-706718D01*
X806677Y-706464D01*
X802359Y-710020D01*
D02*
G37*
D22*
X432100Y-866381D02*
G03*
X432100Y-866381I-38100J0D01*
G01*
X410513Y-851121D02*
G03*
X401112Y-860031I124J-9545D01*
G01*
X420924D02*
G03*
X410510Y-851141I-9652J-762D01*
G01*
X401112Y-871969D02*
G03*
X411018Y-881113I9525J381D01*
G01*
Y-881113D02*
G03*
X420924Y-871461I127J9779D01*
G01*
X432100Y-952381D02*
G03*
X432100Y-952381I-38100J0D01*
G01*
X410513Y-937121D02*
G03*
X401112Y-946031I124J-9545D01*
G01*
X420924D02*
G03*
X410510Y-937141I-9652J-762D01*
G01*
X401112Y-957969D02*
G03*
X411018Y-967113I9525J381D01*
G01*
Y-967113D02*
G03*
X420924Y-957461I127J9779D01*
G01*
X654100Y-961381D02*
G03*
X654100Y-961381I-38100J0D01*
G01*
X632513Y-946121D02*
G03*
X623112Y-955031I124J-9545D01*
G01*
X642924D02*
G03*
X632510Y-946141I-9652J-762D01*
G01*
X623112Y-966969D02*
G03*
X633018Y-976113I9525J381D01*
G01*
Y-976113D02*
G03*
X642924Y-966461I127J9779D01*
G01*
X853159Y-699860D02*
G03*
X853159Y-699860I-38100J0D01*
G01*
X830319Y-716373D02*
G03*
X821409Y-706972I-9545J-124D01*
G01*
Y-726784D02*
G03*
X830299Y-716370I-762J9652D01*
G01*
X809471Y-706972D02*
G03*
X800327Y-716878I381J-9525D01*
G01*
X800327D02*
G03*
X809979Y-726784I9779J-127D01*
G01*
X850159Y-460860D02*
G03*
X850159Y-460860I-38100J0D01*
G01*
X827319Y-477373D02*
G03*
X818409Y-467972I-9545J-124D01*
G01*
Y-487784D02*
G03*
X827299Y-477370I-762J9652D01*
G01*
X806471Y-467972D02*
G03*
X797327Y-477878I381J-9525D01*
G01*
X797327D02*
G03*
X806979Y-487784I9779J-127D01*
G01*
X265719Y-891000D02*
G03*
X265719Y-891000I-38100J0D01*
G01*
X242879Y-907513D02*
G03*
X233969Y-898112I-9545J-124D01*
G01*
Y-917924D02*
G03*
X242859Y-907510I-762J9652D01*
G01*
X222031Y-898112D02*
G03*
X212887Y-908018I381J-9525D01*
G01*
X212887D02*
G03*
X222539Y-917924I9779J-127D01*
G01*
X631090Y-691360D02*
G03*
X643790Y-691360I6350J0D01*
G01*
X654100Y-870381D02*
G03*
X654100Y-870381I-38100J0D01*
G01*
X632513Y-855121D02*
G03*
X623112Y-864031I124J-9545D01*
G01*
X642924D02*
G03*
X632510Y-855141I-9652J-762D01*
G01*
X623112Y-875969D02*
G03*
X633018Y-885113I9525J381D01*
G01*
Y-885113D02*
G03*
X642924Y-875461I127J9779D01*
G01*
X613000Y-345860D02*
Y-245860D01*
X658000D01*
Y-345860D02*
Y-245860D01*
X613000Y-345860D02*
X658000D01*
X607000Y-466518D02*
X663642D01*
Y-640000D02*
Y-466518D01*
X607000Y-640000D02*
X663642D01*
X607000D02*
Y-466518D01*
X871310Y-398738D02*
X927952D01*
Y-572220D02*
Y-398738D01*
X871310Y-572220D02*
X927952D01*
X871310D02*
Y-398738D01*
X16764Y-629412D02*
X75438D01*
X16764Y-752856D02*
Y-629412D01*
Y-752856D02*
X75438D01*
Y-629412D01*
X400858Y-902957D02*
Y-828789D01*
X358440Y-866381D02*
X368600D01*
X363520Y-872731D02*
Y-860031D01*
X401112Y-872477D02*
Y-860031D01*
X420924Y-873239D02*
Y-859269D01*
X400858Y-988957D02*
Y-914789D01*
X358440Y-952381D02*
X368600D01*
X363520Y-958731D02*
Y-946031D01*
X401112Y-958477D02*
Y-946031D01*
X420924Y-959239D02*
Y-945269D01*
X778517Y-415260D02*
Y-364460D01*
Y-415260D02*
X816363D01*
Y-364460D01*
X778517D02*
X816363D01*
X622858Y-997957D02*
Y-923789D01*
X580440Y-961381D02*
X590600D01*
X585520Y-967731D02*
Y-955031D01*
X623112Y-967477D02*
Y-955031D01*
X642924Y-968239D02*
Y-954269D01*
X778483Y-706718D02*
X852651D01*
X815059Y-674460D02*
Y-664300D01*
X808709Y-669380D02*
X821409D01*
X808963Y-706972D02*
X821409D01*
X808201Y-726784D02*
X822171D01*
X775483Y-467718D02*
X849651D01*
X812059Y-435460D02*
Y-425300D01*
X805709Y-430380D02*
X818409D01*
X805963Y-467972D02*
X818409D01*
X805201Y-487784D02*
X819171D01*
X191043Y-897858D02*
X265211D01*
X227619Y-865600D02*
Y-855440D01*
X221269Y-860520D02*
X233969D01*
X221523Y-898112D02*
X233969D01*
X220761Y-917924D02*
X234731D01*
X474Y-816070D02*
X75404D01*
X108170D02*
X132300D01*
X164812D02*
X174972D01*
X164812Y-965930D02*
X174972D01*
X108170D02*
X132300D01*
X474D02*
X75404D01*
X500Y-966000D02*
Y-816000D01*
X175000Y-966000D02*
Y-816000D01*
X604420Y-691360D02*
X631090D01*
X643790D02*
X670460D01*
Y-818360D02*
Y-691360D01*
X604420Y-818360D02*
X670460D01*
X604420D02*
Y-691360D01*
X622858Y-906957D02*
Y-832789D01*
X580440Y-870381D02*
X590600D01*
X585520Y-876731D02*
Y-864031D01*
X623112Y-876477D02*
Y-864031D01*
X642924Y-877239D02*
Y-863269D01*
D51*
X865194Y-140860D02*
G03*
X865194Y-140860I-63754J0D01*
G01*
Y-291860D02*
G03*
X865194Y-291860I-63754J0D01*
G01*
X863194Y-806860D02*
G03*
X863194Y-806860I-63754J0D01*
G01*
Y-570860D02*
G03*
X863194Y-570860I-63754J0D01*
G01*
X801440Y-75836D02*
Y-63136D01*
X795090Y-69486D02*
X807790D01*
X801440Y-226836D02*
Y-214136D01*
X795090Y-220486D02*
X807790D01*
X799440Y-884584D02*
Y-871884D01*
X793090Y-878234D02*
X805790D01*
X799440Y-648584D02*
Y-635884D01*
X793090Y-642234D02*
X805790D01*
D52*
X312246Y-590246D02*
G03*
X312246Y-590246I-3000J0D01*
G01*
D53*
X286996Y-566746D02*
G03*
X286996Y-566746I-1250J0D01*
G01*
X193810Y-798620D02*
G03*
X193810Y-798620I-1250J0D01*
G01*
D54*
X785375Y-371064D02*
G03*
X785398Y-371057I-318J1030D01*
G01*
D55*
X248860Y-582100D02*
G03*
X203140Y-582322I-22859J-151D01*
G01*
X203139Y-635663D02*
G03*
X248833Y-635676I22847J-769D01*
G01*
X245049Y-582399D02*
G03*
X206950Y-582584I-19050J-126D01*
G01*
Y-636686D02*
G03*
X245049Y-636501I19050J126D01*
G01*
X414020Y-535940D02*
X422656D01*
Y-546100D02*
Y-535940D01*
Y-556260D02*
Y-546100D01*
X414020Y-556260D02*
X422656D01*
X385064D02*
X393700D01*
X385064D02*
Y-546100D01*
Y-535940D01*
X393700D01*
X204724Y-688340D02*
X213360D01*
X204724D02*
Y-678180D01*
Y-668020D01*
X213360D01*
X233680D02*
X242316D01*
Y-678180D02*
Y-668020D01*
Y-688340D02*
Y-678180D01*
X233680Y-688340D02*
X242316D01*
X141224D02*
X149860D01*
X141224D02*
Y-678180D01*
Y-668020D01*
X149860D01*
X170180D02*
X178816D01*
Y-678180D02*
Y-668020D01*
Y-688340D02*
Y-678180D01*
X170180Y-688340D02*
X178816D01*
X207264Y-840740D02*
X215900D01*
X207264D02*
Y-830580D01*
Y-820420D01*
X215900D01*
X236220D02*
X244856D01*
Y-830580D02*
Y-820420D01*
Y-840740D02*
Y-830580D01*
X236220Y-840740D02*
X244856D01*
X320040Y-721360D02*
Y-712724D01*
X330200D01*
X340360D01*
Y-721360D02*
Y-712724D01*
Y-750316D02*
Y-741680D01*
X330200Y-750316D02*
X340360D01*
X320040D02*
X330200D01*
X320040D02*
Y-741680D01*
X404160Y-800840D02*
X412796D01*
Y-811000D02*
Y-800840D01*
Y-821160D02*
Y-811000D01*
X404160Y-821160D02*
X412796D01*
X375204D02*
X383840D01*
X375204D02*
Y-811000D01*
Y-800840D01*
X383840D01*
X296160Y-912796D02*
Y-904160D01*
X286000Y-912796D02*
X296160D01*
X275840D02*
X286000D01*
X275840D02*
Y-904160D01*
Y-883840D02*
Y-875204D01*
X286000D01*
X296160D01*
Y-883840D02*
Y-875204D01*
X858678Y-1138206D02*
Y-1040416D01*
X724820Y-1138460D02*
Y-1124490D01*
X738790D01*
Y-1138460D02*
Y-1124490D01*
X775620Y-1138460D02*
Y-1124490D01*
X789590D01*
Y-1138460D02*
Y-1124490D01*
X826420Y-1138460D02*
Y-1124490D01*
X840390D01*
Y-1138460D02*
Y-1124490D01*
X856138Y-1040416D02*
X858678D01*
X856138D02*
Y-1032796D01*
X858678D01*
X707040Y-1011460D02*
X858678D01*
Y-1032796D02*
Y-1011460D01*
X707040Y-1138460D02*
X858678D01*
X605440Y-1011460D02*
X707040D01*
X605440Y-1138460D02*
Y-1017302D01*
Y-1138460D02*
X707040D01*
X623220D02*
Y-1124490D01*
X637190D01*
Y-1138460D02*
Y-1124490D01*
X674020Y-1138460D02*
Y-1124490D01*
X687990D01*
Y-1138460D02*
Y-1124490D01*
X604170Y-1040670D02*
Y-1033050D01*
X860600Y-408656D02*
Y-400020D01*
X850440Y-408656D02*
X860600D01*
X840280D02*
X850440D01*
X840280D02*
Y-400020D01*
Y-379700D02*
Y-371064D01*
X850440D01*
X860600D01*
Y-379700D02*
Y-371064D01*
X212780Y-1117150D02*
Y-1002850D01*
X431220D01*
Y-1117150D02*
Y-1002850D01*
X212780Y-1117150D02*
X431220D01*
X207264Y-525780D02*
X215900D01*
X207264D02*
Y-515620D01*
Y-505460D01*
X215900D01*
X236220D02*
X244856D01*
Y-515620D02*
Y-505460D01*
Y-525780D02*
Y-515620D01*
X236220Y-525780D02*
X244856D01*
X141204Y-591160D02*
X149840D01*
X141204D02*
Y-581000D01*
Y-570840D01*
X149840D01*
X170160D02*
X178796D01*
Y-581000D02*
Y-570840D01*
Y-591160D02*
Y-581000D01*
X170160Y-591160D02*
X178796D01*
X141204Y-647160D02*
X149840D01*
X141204D02*
Y-637000D01*
Y-626840D01*
X149840D01*
X170160D02*
X178796D01*
Y-637000D02*
Y-626840D01*
Y-647160D02*
Y-637000D01*
X170160Y-647160D02*
X178796D01*
X370840Y-750316D02*
Y-741680D01*
X360680Y-750316D02*
X370840D01*
X350520D02*
X360680D01*
X350520D02*
Y-741680D01*
Y-721360D02*
Y-712724D01*
X360680D01*
X370840D01*
Y-721360D02*
Y-712724D01*
X204724Y-716280D02*
X213360D01*
X204724D02*
Y-706120D01*
Y-695960D01*
X213360D01*
X233680D02*
X242316D01*
Y-706120D02*
Y-695960D01*
Y-716280D02*
Y-706120D01*
X233680Y-716280D02*
X242316D01*
X226254Y-622208D02*
Y-614334D01*
X216348D02*
X235144D01*
X226254Y-603920D02*
Y-596300D01*
X216348Y-603920D02*
X235398D01*
X203139Y-635663D02*
Y-582322D01*
X248860Y-635676D02*
Y-582100D01*
X206950Y-635917D02*
Y-582576D01*
X245050Y-636171D02*
Y-582830D01*
X207264Y-553720D02*
X215900D01*
X207264D02*
Y-543560D01*
Y-533400D01*
X215900D01*
X236220D02*
X244856D01*
Y-543560D02*
Y-533400D01*
Y-553720D02*
Y-543560D01*
X236220Y-553720D02*
X244856D01*
D56*
X15870Y-225578D02*
X72512D01*
Y-373660D02*
Y-225578D01*
X15870Y-373660D02*
X72512D01*
X15870D02*
Y-225578D01*
X871310Y-398738D02*
X927952D01*
X871310Y-572220D02*
Y-398738D01*
Y-572220D02*
X927952D01*
Y-398738D01*
X1005952Y-572220D02*
Y-398738D01*
X949310Y-572220D02*
X1005952D01*
X949310D02*
Y-398738D01*
X1005952D01*
X870310Y-616738D02*
X926952D01*
X870310Y-790220D02*
Y-616738D01*
Y-790220D02*
X926952D01*
Y-616738D01*
X1005952Y-790220D02*
Y-616738D01*
X949310Y-790220D02*
X1005952D01*
X949310D02*
Y-616738D01*
X1005952D01*
X15870Y-110978D02*
X72512D01*
Y-208260D02*
Y-110978D01*
X15870Y-208260D02*
X72512D01*
X15870D02*
Y-110978D01*
X299246Y-637246D02*
X356246D01*
X299246Y-580246D02*
X356246D01*
Y-637246D02*
Y-580246D01*
X299246Y-637246D02*
Y-580246D01*
X259560Y-783620D02*
Y-755620D01*
X192560Y-783620D02*
Y-755620D01*
X259560D01*
X192560Y-783620D02*
X259560D01*
X948310Y-831838D02*
X1004952D01*
Y-929120D02*
Y-831838D01*
X948310Y-929120D02*
X1004952D01*
X948310D02*
Y-831838D01*
Y-962838D02*
X1004952D01*
Y-1060120D02*
Y-962838D01*
X948310Y-1060120D02*
X1004952D01*
X948310D02*
Y-962838D01*
X548450Y-897390D02*
Y-885460D01*
X478600Y-879110D02*
X542100D01*
X478600Y-908320D02*
Y-879110D01*
Y-908320D02*
X542100D01*
X548450Y-901970D02*
Y-897390D01*
X542100Y-908320D02*
X548450Y-901970D01*
X542100Y-879110D02*
X548450Y-885460D01*
X1000440Y-205860D02*
Y-105860D01*
X955440Y-205860D02*
X1000440D01*
X955440Y-105860D02*
X1000440D01*
X955440Y-205860D02*
Y-105860D01*
X972440D01*
X920440Y-351860D02*
Y-251860D01*
X875440Y-351860D02*
X920440D01*
X875440Y-251860D02*
X920440D01*
X875440Y-351860D02*
Y-251860D01*
X892440D01*
X920440Y-205860D02*
Y-105860D01*
X875440Y-205860D02*
X920440D01*
X875440Y-105860D02*
X920440D01*
X875440Y-205860D02*
Y-105860D01*
X892440D01*
X1001440Y-351860D02*
Y-251860D01*
X956440Y-351860D02*
X1001440D01*
X956440Y-251860D02*
X1001440D01*
X956440Y-351860D02*
Y-251860D01*
X973440D01*
X15870Y-598260D02*
Y-500978D01*
Y-598260D02*
X72512D01*
Y-500978D01*
X15870D02*
X72512D01*
X15870Y-488260D02*
Y-390978D01*
Y-488260D02*
X72512D01*
Y-390978D01*
X15870D02*
X72512D01*
X218400Y-17300D02*
X421600D01*
X218400Y-42700D02*
Y-17300D01*
Y-42700D02*
X421600D01*
Y-17300D01*
X474980Y-17780D02*
X678180D01*
X474980Y-43180D02*
Y-17780D01*
Y-43180D02*
X678180D01*
Y-17780D01*
D57*
X605440Y-1017302D02*
Y-1011460D01*
D58*
X615000Y-458000D02*
Y-448003D01*
X618332Y-451335D01*
X621665Y-448003D01*
Y-458000D01*
X629995Y-448003D02*
X626663D01*
X624997Y-449669D01*
Y-456334D01*
X626663Y-458000D01*
X629995D01*
X631661Y-456334D01*
Y-449669D01*
X629995Y-448003D01*
X634994Y-459666D02*
X641658D01*
X644990Y-448003D02*
X651655Y-458000D01*
Y-448003D02*
X644990Y-458000D01*
X733664Y-79669D02*
X731998Y-78003D01*
X728666D01*
X727000Y-79669D01*
Y-86334D01*
X728666Y-88000D01*
X731998D01*
X733664Y-86334D01*
X736997Y-88000D02*
X740329D01*
X738663D01*
Y-78003D01*
X736997Y-79669D01*
X750326Y-88000D02*
Y-78003D01*
X745327Y-83002D01*
X751992D01*
X223664Y-939669D02*
X221998Y-938003D01*
X218666D01*
X217000Y-939669D01*
Y-946334D01*
X218666Y-948000D01*
X221998D01*
X223664Y-946334D01*
X233661Y-948000D02*
X226997D01*
X233661Y-941336D01*
Y-939669D01*
X231995Y-938003D01*
X228663D01*
X226997Y-939669D01*
X236994D02*
X238660Y-938003D01*
X241992D01*
X243658Y-939669D01*
Y-946334D01*
X241992Y-948000D01*
X238660D01*
X236994Y-946334D01*
Y-939669D01*
X17000Y-981003D02*
Y-989334D01*
X18666Y-991000D01*
X21998D01*
X23665Y-989334D01*
Y-981003D01*
X33661Y-982669D02*
X31995Y-981003D01*
X28663D01*
X26997Y-982669D01*
Y-984335D01*
X28663Y-986002D01*
X31995D01*
X33661Y-987668D01*
Y-989334D01*
X31995Y-991000D01*
X28663D01*
X26997Y-989334D01*
X36994Y-981003D02*
Y-991000D01*
X41992D01*
X43658Y-989334D01*
Y-987668D01*
X41992Y-986002D01*
X36994D01*
X41992D01*
X43658Y-984335D01*
Y-982669D01*
X41992Y-981003D01*
X36994D01*
X46990Y-991000D02*
X50323D01*
X48657D01*
Y-981003D01*
X46990Y-982669D01*
X579401Y-673479D02*
Y-681810D01*
X581067Y-683476D01*
X584399D01*
X586065Y-681810D01*
Y-673479D01*
X596062D02*
X589398D01*
Y-678478D01*
X592730Y-676812D01*
X594396D01*
X596062Y-678478D01*
Y-681810D01*
X594396Y-683476D01*
X591064D01*
X589398Y-681810D01*
X648664Y-907669D02*
X646998Y-906003D01*
X643666D01*
X642000Y-907669D01*
Y-914334D01*
X643666Y-916000D01*
X646998D01*
X648664Y-914334D01*
X651997Y-916000D02*
X655329D01*
X653663D01*
Y-906003D01*
X651997Y-907669D01*
X660327Y-914334D02*
X661994Y-916000D01*
X665326D01*
X666992Y-914334D01*
Y-907669D01*
X665326Y-906003D01*
X661994D01*
X660327Y-907669D01*
Y-909335D01*
X661994Y-911002D01*
X666992D01*
X731665Y-237669D02*
X729998Y-236003D01*
X726666D01*
X725000Y-237669D01*
Y-244334D01*
X726666Y-246000D01*
X729998D01*
X731665Y-244334D01*
X734997Y-246000D02*
X738329D01*
X736663D01*
Y-236003D01*
X734997Y-237669D01*
X749992Y-236003D02*
X743327D01*
Y-241002D01*
X746660Y-239335D01*
X748326D01*
X749992Y-241002D01*
Y-244334D01*
X748326Y-246000D01*
X744994D01*
X743327Y-244334D01*
X756665Y-724669D02*
X754998Y-723003D01*
X751666D01*
X750000Y-724669D01*
Y-731334D01*
X751666Y-733000D01*
X754998D01*
X756665Y-731334D01*
X759997Y-733000D02*
X763329D01*
X761663D01*
Y-723003D01*
X759997Y-724669D01*
X768327D02*
X769994Y-723003D01*
X773326D01*
X774992Y-724669D01*
Y-726336D01*
X773326Y-728002D01*
X774992Y-729668D01*
Y-731334D01*
X773326Y-733000D01*
X769994D01*
X768327Y-731334D01*
Y-729668D01*
X769994Y-728002D01*
X768327Y-726336D01*
Y-724669D01*
X769994Y-728002D02*
X773326D01*
X728664Y-866669D02*
X726998Y-865003D01*
X723666D01*
X722000Y-866669D01*
Y-873334D01*
X723666Y-875000D01*
X726998D01*
X728664Y-873334D01*
X731997Y-875000D02*
X735329D01*
X733663D01*
Y-865003D01*
X731997Y-866669D01*
X740327Y-865003D02*
X746992D01*
Y-866669D01*
X740327Y-873334D01*
Y-875000D01*
X732664Y-623669D02*
X730998Y-622003D01*
X727666D01*
X726000Y-623669D01*
Y-630334D01*
X727666Y-632000D01*
X730998D01*
X732664Y-630334D01*
X735997Y-632000D02*
X739329D01*
X737663D01*
Y-622003D01*
X735997Y-623669D01*
X750992Y-622003D02*
X747660Y-623669D01*
X744327Y-627002D01*
Y-630334D01*
X745994Y-632000D01*
X749326D01*
X750992Y-630334D01*
Y-628668D01*
X749326Y-627002D01*
X744327D01*
X948463Y-814449D02*
Y-824446D01*
X955127D01*
X965124Y-814449D02*
X958460D01*
Y-824446D01*
X965124D01*
X958460Y-819448D02*
X961792D01*
X968456Y-814449D02*
Y-824446D01*
X973455D01*
X975121Y-822780D01*
Y-816115D01*
X973455Y-814449D01*
X968456D01*
X985118Y-824446D02*
X978453D01*
X985118Y-817782D01*
Y-816115D01*
X983452Y-814449D01*
X980119D01*
X978453Y-816115D01*
X948463Y-945513D02*
Y-955510D01*
X955127D01*
X965124Y-945513D02*
X958460D01*
Y-955510D01*
X965124D01*
X958460Y-950512D02*
X961792D01*
X968456Y-945513D02*
Y-955510D01*
X973455D01*
X975121Y-953844D01*
Y-947179D01*
X973455Y-945513D01*
X968456D01*
X978453Y-955510D02*
X981786D01*
X980119D01*
Y-945513D01*
X978453Y-947179D01*
X546000Y-916003D02*
Y-924334D01*
X547666Y-926000D01*
X550998D01*
X552664Y-924334D01*
Y-916003D01*
X555997Y-917669D02*
X557663Y-916003D01*
X560995D01*
X562661Y-917669D01*
Y-919335D01*
X560995Y-921002D01*
X559329D01*
X560995D01*
X562661Y-922668D01*
Y-924334D01*
X560995Y-926000D01*
X557663D01*
X555997Y-924334D01*
X224000Y-1123003D02*
Y-1133000D01*
X230665D01*
X233997D02*
X237329D01*
X235663D01*
Y-1123003D01*
X233997Y-1124669D01*
X478825Y-861641D02*
Y-871638D01*
X483823D01*
X485489Y-869972D01*
Y-863307D01*
X483823Y-861641D01*
X478825D01*
X488822Y-871638D02*
X492154D01*
X490488D01*
Y-861641D01*
X488822Y-863307D01*
X434664Y-981669D02*
X432998Y-980003D01*
X429666D01*
X428000Y-981669D01*
Y-988334D01*
X429666Y-990000D01*
X432998D01*
X434664Y-988334D01*
X437997Y-980003D02*
X444661D01*
Y-981669D01*
X437997Y-988334D01*
Y-990000D01*
X282669Y-930335D02*
X281003Y-932002D01*
Y-935334D01*
X282669Y-937000D01*
X289334D01*
X291000Y-935334D01*
Y-932002D01*
X289334Y-930335D01*
X281003Y-920339D02*
X282669Y-923671D01*
X286002Y-927003D01*
X289334D01*
X291000Y-925337D01*
Y-922005D01*
X289334Y-920339D01*
X287668D01*
X286002Y-922005D01*
Y-927003D01*
X427664Y-808669D02*
X425998Y-807003D01*
X422666D01*
X421000Y-808669D01*
Y-815334D01*
X422666Y-817000D01*
X425998D01*
X427664Y-815334D01*
X437661Y-807003D02*
X430997D01*
Y-812002D01*
X434329Y-810335D01*
X435995D01*
X437661Y-812002D01*
Y-815334D01*
X435995Y-817000D01*
X432663D01*
X430997Y-815334D01*
X439664Y-892669D02*
X437998Y-891003D01*
X434666D01*
X433000Y-892669D01*
Y-899334D01*
X434666Y-901000D01*
X437998D01*
X439664Y-899334D01*
X447995Y-901000D02*
Y-891003D01*
X442997Y-896002D01*
X449661D01*
X576665Y-999669D02*
X574998Y-998003D01*
X571666D01*
X570000Y-999669D01*
Y-1006334D01*
X571666Y-1008000D01*
X574998D01*
X576665Y-1006334D01*
X579997Y-999669D02*
X581663Y-998003D01*
X584995D01*
X586661Y-999669D01*
Y-1001336D01*
X584995Y-1003002D01*
X583329D01*
X584995D01*
X586661Y-1004668D01*
Y-1006334D01*
X584995Y-1008000D01*
X581663D01*
X579997Y-1006334D01*
X877104Y-1120529D02*
X875438Y-1118863D01*
X872106D01*
X870440Y-1120529D01*
Y-1127194D01*
X872106Y-1128860D01*
X875438D01*
X877104Y-1127194D01*
X885435Y-1118863D02*
X882103D01*
X880437Y-1120529D01*
Y-1127194D01*
X882103Y-1128860D01*
X885435D01*
X887101Y-1127194D01*
Y-1120529D01*
X885435Y-1118863D01*
X890434Y-1128860D02*
Y-1118863D01*
X897098Y-1128860D01*
Y-1118863D01*
X900430Y-1128860D02*
X903763D01*
X902096D01*
Y-1118863D01*
X900430Y-1120529D01*
X955829Y-88517D02*
Y-95182D01*
X959161Y-98514D01*
X962493Y-95182D01*
Y-88517D01*
X967492Y-91850D02*
X970824D01*
X972490Y-93516D01*
Y-98514D01*
X967492D01*
X965826Y-96848D01*
X967492Y-95182D01*
X972490D01*
X975822Y-98514D02*
X979155D01*
X977489D01*
Y-88517D01*
X975822D01*
X990818Y-98514D02*
X984153D01*
X990818Y-91850D01*
Y-90183D01*
X989152Y-88517D01*
X985819D01*
X984153Y-90183D01*
X875819Y-88517D02*
Y-95182D01*
X879151Y-98514D01*
X882483Y-95182D01*
Y-88517D01*
X887482Y-91850D02*
X890814D01*
X892480Y-93516D01*
Y-98514D01*
X887482D01*
X885816Y-96848D01*
X887482Y-95182D01*
X892480D01*
X895812Y-98514D02*
X899145D01*
X897479D01*
Y-88517D01*
X895812D01*
X909141Y-98514D02*
Y-88517D01*
X904143Y-93516D01*
X910808D01*
X956591Y-234567D02*
Y-241232D01*
X959923Y-244564D01*
X963255Y-241232D01*
Y-234567D01*
X968254Y-237900D02*
X971586D01*
X973252Y-239566D01*
Y-244564D01*
X968254D01*
X966588Y-242898D01*
X968254Y-241232D01*
X973252D01*
X976584Y-244564D02*
X979917D01*
X978251D01*
Y-234567D01*
X976584D01*
X984915Y-236233D02*
X986581Y-234567D01*
X989913D01*
X991580Y-236233D01*
Y-237900D01*
X989913Y-239566D01*
X988247D01*
X989913D01*
X991580Y-241232D01*
Y-242898D01*
X989913Y-244564D01*
X986581D01*
X984915Y-242898D01*
X875819Y-234567D02*
Y-241232D01*
X879151Y-244564D01*
X882483Y-241232D01*
Y-234567D01*
X887482Y-237900D02*
X890814D01*
X892480Y-239566D01*
Y-244564D01*
X887482D01*
X885816Y-242898D01*
X887482Y-241232D01*
X892480D01*
X895812Y-244564D02*
X899145D01*
X897479D01*
Y-234567D01*
X895812D01*
X904143Y-244564D02*
X907475D01*
X905809D01*
Y-234567D01*
X904143Y-236233D01*
X949479Y-609308D02*
Y-599311D01*
X952811Y-602644D01*
X956143Y-599311D01*
Y-609308D01*
X964474Y-599311D02*
X961142D01*
X959476Y-600977D01*
Y-607642D01*
X961142Y-609308D01*
X964474D01*
X966140Y-607642D01*
Y-600977D01*
X964474Y-599311D01*
X974471Y-609308D02*
Y-599311D01*
X969472Y-604310D01*
X976137D01*
X870485Y-609308D02*
Y-599311D01*
X873817Y-602644D01*
X877149Y-599311D01*
Y-609308D01*
X885480Y-599311D02*
X882148D01*
X880482Y-600977D01*
Y-607642D01*
X882148Y-609308D01*
X885480D01*
X887146Y-607642D01*
Y-600977D01*
X885480Y-599311D01*
X890478Y-600977D02*
X892145Y-599311D01*
X895477D01*
X897143Y-600977D01*
Y-602644D01*
X895477Y-604310D01*
X893811D01*
X895477D01*
X897143Y-605976D01*
Y-607642D01*
X895477Y-609308D01*
X892145D01*
X890478Y-607642D01*
X949479Y-391376D02*
Y-381379D01*
X952811Y-384712D01*
X956143Y-381379D01*
Y-391376D01*
X964474Y-381379D02*
X961142D01*
X959476Y-383045D01*
Y-389710D01*
X961142Y-391376D01*
X964474D01*
X966140Y-389710D01*
Y-383045D01*
X964474Y-381379D01*
X976137Y-391376D02*
X969472D01*
X976137Y-384712D01*
Y-383045D01*
X974471Y-381379D01*
X971139D01*
X969472Y-383045D01*
X871501Y-391376D02*
Y-381379D01*
X874833Y-384712D01*
X878165Y-381379D01*
Y-391376D01*
X886496Y-381379D02*
X883164D01*
X881498Y-383045D01*
Y-389710D01*
X883164Y-391376D01*
X886496D01*
X888162Y-389710D01*
Y-383045D01*
X886496Y-381379D01*
X891494Y-391376D02*
X894827D01*
X893161D01*
Y-381379D01*
X891494Y-383045D01*
X187960Y-556423D02*
Y-558089D01*
X191292Y-561422D01*
X194625Y-558089D01*
Y-556423D01*
X191292Y-561422D02*
Y-566420D01*
X197957D02*
X201289D01*
X199623D01*
Y-556423D01*
X197957Y-558089D01*
X12997Y-143000D02*
X4666D01*
X3000Y-144666D01*
Y-147998D01*
X4666Y-149664D01*
X12997D01*
X3000Y-152997D02*
X9664D01*
X12997Y-156329D01*
X9664Y-159661D01*
X3000D01*
X7998D01*
Y-152997D01*
X3000Y-162994D02*
X12997D01*
Y-167992D01*
X11331Y-169658D01*
X7998D01*
X6332Y-167992D01*
Y-162994D01*
Y-166326D02*
X3000Y-169658D01*
X12997Y-172990D02*
Y-179655D01*
Y-176323D01*
X3000D01*
Y-182987D02*
Y-186319D01*
Y-184653D01*
X12997D01*
X11331Y-182987D01*
X182880Y-731683D02*
Y-740014D01*
X184546Y-741680D01*
X187878D01*
X189545Y-740014D01*
Y-731683D01*
X197875Y-741680D02*
Y-731683D01*
X192877Y-736682D01*
X199541D01*
X734440Y-357863D02*
Y-366194D01*
X736106Y-367860D01*
X739438D01*
X741105Y-366194D01*
Y-357863D01*
X751101Y-367860D02*
X744437D01*
X751101Y-361195D01*
Y-359529D01*
X749435Y-357863D01*
X746103D01*
X744437Y-359529D01*
X266000Y-562003D02*
Y-570334D01*
X267666Y-572000D01*
X270998D01*
X272665Y-570334D01*
Y-562003D01*
X275997Y-572000D02*
X279329D01*
X277663D01*
Y-562003D01*
X275997Y-563669D01*
X854440Y-364860D02*
X844443D01*
Y-359862D01*
X846109Y-358195D01*
X849442D01*
X851108Y-359862D01*
Y-364860D01*
Y-361528D02*
X854440Y-358195D01*
Y-349865D02*
X844443D01*
X849442Y-354863D01*
Y-348199D01*
X334200Y-770520D02*
X324203D01*
Y-765522D01*
X325869Y-763856D01*
X329202D01*
X330868Y-765522D01*
Y-770520D01*
Y-767188D02*
X334200Y-763856D01*
X325869Y-760523D02*
X324203Y-758857D01*
Y-755525D01*
X325869Y-753859D01*
X327536D01*
X329202Y-755525D01*
Y-757191D01*
Y-755525D01*
X330868Y-753859D01*
X332534D01*
X334200Y-755525D01*
Y-758857D01*
X332534Y-760523D01*
X207731Y-498276D02*
Y-488279D01*
X212729D01*
X214395Y-489945D01*
Y-493278D01*
X212729Y-494944D01*
X207731D01*
X211063D02*
X214395Y-498276D01*
X224392D02*
X217728D01*
X224392Y-491612D01*
Y-489945D01*
X222726Y-488279D01*
X219394D01*
X217728Y-489945D01*
X187960Y-546100D02*
Y-536103D01*
X192958D01*
X194625Y-537769D01*
Y-541102D01*
X192958Y-542768D01*
X187960D01*
X191292D02*
X194625Y-546100D01*
X197957D02*
X201289D01*
X199623D01*
Y-536103D01*
X197957Y-537769D01*
X248920Y-683260D02*
Y-673263D01*
X253918D01*
X255585Y-674929D01*
Y-678262D01*
X253918Y-679928D01*
X248920D01*
X252252D02*
X255585Y-683260D01*
X265581Y-673263D02*
X258917D01*
Y-678262D01*
X262249Y-676596D01*
X263915D01*
X265581Y-678262D01*
Y-681594D01*
X263915Y-683260D01*
X260583D01*
X258917Y-681594D01*
X3000Y-282000D02*
X12997D01*
Y-286998D01*
X11331Y-288664D01*
X7998D01*
X6332Y-286998D01*
Y-282000D01*
X3000Y-291997D02*
X12997D01*
Y-296995D01*
X11331Y-298661D01*
X7998D01*
X6332Y-296995D01*
Y-291997D01*
Y-295329D02*
X3000Y-298661D01*
X12997Y-306992D02*
Y-303660D01*
X11331Y-301994D01*
X4666D01*
X3000Y-303660D01*
Y-306992D01*
X4666Y-308658D01*
X11331D01*
X12997Y-306992D01*
X3000Y-311990D02*
Y-315323D01*
Y-313657D01*
X12997D01*
X11331Y-311990D01*
X148317Y-555374D02*
X146650Y-553708D01*
X143318D01*
X141652Y-555374D01*
Y-562039D01*
X143318Y-563705D01*
X146650D01*
X148317Y-562039D01*
X151649Y-563705D02*
X154981D01*
X153315D01*
Y-553708D01*
X151649Y-555374D01*
X159980D02*
X161646Y-553708D01*
X164978D01*
X166644Y-555374D01*
Y-557040D01*
X164978Y-558707D01*
X163312D01*
X164978D01*
X166644Y-560373D01*
Y-562039D01*
X164978Y-563705D01*
X161646D01*
X159980Y-562039D01*
X148182Y-611374D02*
X146516Y-609708D01*
X143184D01*
X141518Y-611374D01*
Y-618039D01*
X143184Y-619705D01*
X146516D01*
X148182Y-618039D01*
X151515Y-619705D02*
X154847D01*
X153181D01*
Y-609708D01*
X151515Y-611374D01*
X166510Y-619705D02*
X159846D01*
X166510Y-613040D01*
Y-611374D01*
X164844Y-609708D01*
X161512D01*
X159846Y-611374D01*
X184464Y-702869D02*
X182798Y-701203D01*
X179466D01*
X177800Y-702869D01*
Y-709534D01*
X179466Y-711200D01*
X182798D01*
X184464Y-709534D01*
X187797Y-711200D02*
X191129D01*
X189463D01*
Y-701203D01*
X187797Y-702869D01*
X196127Y-711200D02*
X199460D01*
X197794D01*
Y-701203D01*
X196127Y-702869D01*
X377749Y-735015D02*
X376083Y-736682D01*
Y-740014D01*
X377749Y-741680D01*
X384414D01*
X386080Y-740014D01*
Y-736682D01*
X384414Y-735015D01*
X386080Y-731683D02*
Y-728351D01*
Y-730017D01*
X376083D01*
X377749Y-731683D01*
Y-723353D02*
X376083Y-721686D01*
Y-718354D01*
X377749Y-716688D01*
X384414D01*
X386080Y-718354D01*
Y-721686D01*
X384414Y-723353D01*
X377749D01*
X256724Y-827249D02*
X255058Y-825583D01*
X251726D01*
X250060Y-827249D01*
Y-833914D01*
X251726Y-835580D01*
X255058D01*
X256724Y-833914D01*
X260057D02*
X261723Y-835580D01*
X265055D01*
X266721Y-833914D01*
Y-827249D01*
X265055Y-825583D01*
X261723D01*
X260057Y-827249D01*
Y-828915D01*
X261723Y-830582D01*
X266721D01*
X157684Y-656849D02*
X156018Y-655183D01*
X152686D01*
X151020Y-656849D01*
Y-663514D01*
X152686Y-665180D01*
X156018D01*
X157684Y-663514D01*
X161017Y-656849D02*
X162683Y-655183D01*
X166015D01*
X167681Y-656849D01*
Y-658515D01*
X166015Y-660182D01*
X167681Y-661848D01*
Y-663514D01*
X166015Y-665180D01*
X162683D01*
X161017Y-663514D01*
Y-661848D01*
X162683Y-660182D01*
X161017Y-658515D01*
Y-656849D01*
X162683Y-660182D02*
X166015D01*
X763664Y-484669D02*
X761998Y-483003D01*
X758666D01*
X757000Y-484669D01*
Y-491334D01*
X758666Y-493000D01*
X761998D01*
X763664Y-491334D01*
X773661Y-493000D02*
X766997D01*
X773661Y-486335D01*
Y-484669D01*
X771995Y-483003D01*
X768663D01*
X766997Y-484669D01*
X435924Y-542849D02*
X434258Y-541183D01*
X430926D01*
X429260Y-542849D01*
Y-549514D01*
X430926Y-551180D01*
X434258D01*
X435924Y-549514D01*
X439257Y-551180D02*
X442589D01*
X440923D01*
Y-541183D01*
X439257Y-542849D01*
X10331Y-685665D02*
X11997Y-683998D01*
Y-680666D01*
X10331Y-679000D01*
X8665D01*
X6998Y-680666D01*
Y-683998D01*
X5332Y-685665D01*
X3666D01*
X2000Y-683998D01*
Y-680666D01*
X3666Y-679000D01*
X2000Y-688997D02*
X11997D01*
Y-693995D01*
X10331Y-695661D01*
X6998D01*
X5332Y-693995D01*
Y-688997D01*
X11997Y-698994D02*
Y-702326D01*
Y-700660D01*
X2000D01*
Y-698994D01*
Y-702326D01*
Y-707324D02*
Y-710656D01*
Y-708990D01*
X11997D01*
X10331Y-707324D01*
Y-544664D02*
X11997Y-542998D01*
Y-539666D01*
X10331Y-538000D01*
X8665D01*
X6998Y-539666D01*
Y-542998D01*
X5332Y-544664D01*
X3666D01*
X2000Y-542998D01*
Y-539666D01*
X3666Y-538000D01*
X10331Y-554661D02*
X11997Y-552995D01*
Y-549663D01*
X10331Y-547997D01*
X8665D01*
X6998Y-549663D01*
Y-552995D01*
X5332Y-554661D01*
X3666D01*
X2000Y-552995D01*
Y-549663D01*
X3666Y-547997D01*
X2000Y-557994D02*
Y-561326D01*
Y-559660D01*
X11997D01*
X10331Y-557994D01*
X11331Y-429664D02*
X12997Y-427998D01*
Y-424666D01*
X11331Y-423000D01*
X9664D01*
X7998Y-424666D01*
Y-427998D01*
X6332Y-429664D01*
X4666D01*
X3000Y-427998D01*
Y-424666D01*
X4666Y-423000D01*
X11331Y-439661D02*
X12997Y-437995D01*
Y-434663D01*
X11331Y-432997D01*
X9664D01*
X7998Y-434663D01*
Y-437995D01*
X6332Y-439661D01*
X4666D01*
X3000Y-437995D01*
Y-434663D01*
X4666Y-432997D01*
X3000Y-449658D02*
Y-442994D01*
X9664Y-449658D01*
X11331D01*
X12997Y-447992D01*
Y-444660D01*
X11331Y-442994D01*
X176665Y-30003D02*
X173332D01*
X174998D01*
Y-38334D01*
X173332Y-40000D01*
X171666D01*
X170000Y-38334D01*
X179997Y-40000D02*
Y-30003D01*
X184995D01*
X186661Y-31669D01*
Y-35002D01*
X184995Y-36668D01*
X179997D01*
X189994Y-40000D02*
X193326D01*
X191660D01*
Y-30003D01*
X189994Y-31669D01*
X433245Y-30483D02*
X429912D01*
X431578D01*
Y-38814D01*
X429912Y-40480D01*
X428246D01*
X426580Y-38814D01*
X436577Y-40480D02*
Y-30483D01*
X441575D01*
X443241Y-32149D01*
Y-35482D01*
X441575Y-37148D01*
X436577D01*
X453238Y-40480D02*
X446574D01*
X453238Y-33816D01*
Y-32149D01*
X451572Y-30483D01*
X448240D01*
X446574Y-32149D01*
X90665Y-648669D02*
X88998Y-647003D01*
X85666D01*
X84000Y-648669D01*
Y-655334D01*
X85666Y-657000D01*
X88998D01*
X90665Y-655334D01*
Y-652002D01*
X87332D01*
X93997Y-657000D02*
Y-647003D01*
X100661Y-657000D01*
Y-647003D01*
X103994D02*
Y-657000D01*
X108992D01*
X110658Y-655334D01*
Y-648669D01*
X108992Y-647003D01*
X103994D01*
X84000Y-664669D02*
X85666Y-663003D01*
X88998D01*
X90665Y-664669D01*
Y-666336D01*
X88998Y-668002D01*
X87332D01*
X88998D01*
X90665Y-669668D01*
Y-671334D01*
X88998Y-673000D01*
X85666D01*
X84000Y-671334D01*
X93997Y-673000D02*
Y-671334D01*
X95663D01*
Y-673000D01*
X93997D01*
X102327Y-664669D02*
X103994Y-663003D01*
X107326D01*
X108992Y-664669D01*
Y-666336D01*
X107326Y-668002D01*
X105660D01*
X107326D01*
X108992Y-669668D01*
Y-671334D01*
X107326Y-673000D01*
X103994D01*
X102327Y-671334D01*
X112324Y-663003D02*
Y-669668D01*
X115656Y-673000D01*
X118989Y-669668D01*
Y-663003D01*
X90665Y-679669D02*
X88998Y-678003D01*
X85666D01*
X84000Y-679669D01*
Y-686334D01*
X85666Y-688000D01*
X88998D01*
X90665Y-686334D01*
X100661Y-679669D02*
X98995Y-678003D01*
X95663D01*
X93997Y-679669D01*
Y-681336D01*
X95663Y-683002D01*
X98995D01*
X100661Y-684668D01*
Y-686334D01*
X98995Y-688000D01*
X95663D01*
X93997Y-686334D01*
X90665Y-694669D02*
X88998Y-693003D01*
X85666D01*
X84000Y-694669D01*
Y-696336D01*
X85666Y-698002D01*
X88998D01*
X90665Y-699668D01*
Y-701334D01*
X88998Y-703000D01*
X85666D01*
X84000Y-701334D01*
X100661Y-694669D02*
X98995Y-693003D01*
X95663D01*
X93997Y-694669D01*
Y-701334D01*
X95663Y-703000D01*
X98995D01*
X100661Y-701334D01*
X103994Y-693003D02*
Y-703000D01*
X110658D01*
X113990Y-693003D02*
Y-703000D01*
Y-699668D01*
X120655Y-693003D01*
X115656Y-698002D01*
X120655Y-703000D01*
X85000Y-718000D02*
Y-708003D01*
X88332Y-711336D01*
X91664Y-708003D01*
Y-718000D01*
X99995Y-708003D02*
X96663D01*
X94997Y-709669D01*
Y-716334D01*
X96663Y-718000D01*
X99995D01*
X101661Y-716334D01*
Y-709669D01*
X99995Y-708003D01*
X111658Y-709669D02*
X109992Y-708003D01*
X106660D01*
X104994Y-709669D01*
Y-711336D01*
X106660Y-713002D01*
X109992D01*
X111658Y-714668D01*
Y-716334D01*
X109992Y-718000D01*
X106660D01*
X104994Y-716334D01*
X114990Y-708003D02*
X118323D01*
X116657D01*
Y-718000D01*
X114990D01*
X118323D01*
X85000Y-734000D02*
Y-724003D01*
X88332Y-727336D01*
X91664Y-724003D01*
Y-734000D01*
X94997Y-724003D02*
X98329D01*
X96663D01*
Y-734000D01*
X94997D01*
X98329D01*
X109992Y-725669D02*
X108326Y-724003D01*
X104994D01*
X103327Y-725669D01*
Y-727336D01*
X104994Y-729002D01*
X108326D01*
X109992Y-730668D01*
Y-732334D01*
X108326Y-734000D01*
X104994D01*
X103327Y-732334D01*
X118323Y-724003D02*
X114990D01*
X113324Y-725669D01*
Y-732334D01*
X114990Y-734000D01*
X118323D01*
X119989Y-732334D01*
Y-725669D01*
X118323Y-724003D01*
X867000Y-990000D02*
Y-980003D01*
X871998D01*
X873664Y-981669D01*
Y-985002D01*
X871998Y-986668D01*
X867000D01*
X876997Y-980003D02*
Y-990000D01*
X880329Y-986668D01*
X883661Y-990000D01*
Y-980003D01*
X886994Y-990000D02*
Y-980003D01*
X890326Y-983335D01*
X893658Y-980003D01*
Y-990000D01*
X896990Y-991666D02*
X903655D01*
X906987Y-980003D02*
Y-990000D01*
X913652D01*
X923648Y-980003D02*
X916984D01*
Y-990000D01*
X923648D01*
X916984Y-985002D02*
X920316D01*
X926981Y-980003D02*
Y-990000D01*
X931979D01*
X933645Y-988334D01*
Y-981669D01*
X931979Y-980003D01*
X926981D01*
X943642Y-990000D02*
X936977D01*
X943642Y-983335D01*
Y-981669D01*
X941976Y-980003D01*
X938644D01*
X936977Y-981669D01*
X873664Y-1006669D02*
X871998Y-1005003D01*
X868666D01*
X867000Y-1006669D01*
Y-1013334D01*
X868666Y-1015000D01*
X871998D01*
X873664Y-1013334D01*
Y-1010002D01*
X870332D01*
X876997Y-1015000D02*
Y-1005003D01*
X883661Y-1015000D01*
Y-1005003D01*
X886994D02*
Y-1015000D01*
X891992D01*
X893658Y-1013334D01*
Y-1006669D01*
X891992Y-1005003D01*
X886994D01*
X868000Y-1030003D02*
Y-1036668D01*
X871332Y-1040000D01*
X874665Y-1036668D01*
Y-1030003D01*
X884661Y-1031669D02*
X882995Y-1030003D01*
X879663D01*
X877997Y-1031669D01*
Y-1038334D01*
X879663Y-1040000D01*
X882995D01*
X884661Y-1038334D01*
X894658Y-1031669D02*
X892992Y-1030003D01*
X889660D01*
X887994Y-1031669D01*
Y-1038334D01*
X889660Y-1040000D01*
X892992D01*
X894658Y-1038334D01*
X869000Y-900003D02*
Y-906668D01*
X872332Y-910000D01*
X875665Y-906668D01*
Y-900003D01*
X885661Y-901669D02*
X883995Y-900003D01*
X880663D01*
X878997Y-901669D01*
Y-908334D01*
X880663Y-910000D01*
X883995D01*
X885661Y-908334D01*
X895658Y-901669D02*
X893992Y-900003D01*
X890660D01*
X888994Y-901669D01*
Y-908334D01*
X890660Y-910000D01*
X893992D01*
X895658Y-908334D01*
X874665Y-876669D02*
X872998Y-875003D01*
X869666D01*
X868000Y-876669D01*
Y-883334D01*
X869666Y-885000D01*
X872998D01*
X874665Y-883334D01*
Y-880002D01*
X871332D01*
X877997Y-885000D02*
Y-875003D01*
X884661Y-885000D01*
Y-875003D01*
X887994D02*
Y-885000D01*
X892992D01*
X894658Y-883334D01*
Y-876669D01*
X892992Y-875003D01*
X887994D01*
X868000Y-860000D02*
Y-850003D01*
X872998D01*
X874665Y-851669D01*
Y-855002D01*
X872998Y-856668D01*
X868000D01*
X877997Y-850003D02*
Y-860000D01*
X881329Y-856668D01*
X884661Y-860000D01*
Y-850003D01*
X887994Y-860000D02*
Y-850003D01*
X891326Y-853335D01*
X894658Y-850003D01*
Y-860000D01*
X897990Y-861666D02*
X904655D01*
X907987Y-850003D02*
Y-860000D01*
X914652D01*
X924648Y-850003D02*
X917984D01*
Y-860000D01*
X924648D01*
X917984Y-855002D02*
X921316D01*
X927981Y-850003D02*
Y-860000D01*
X932979D01*
X934645Y-858334D01*
Y-851669D01*
X932979Y-850003D01*
X927981D01*
X937977Y-860000D02*
X941310D01*
X939644D01*
Y-850003D01*
X937977Y-851669D01*
X611000Y-227003D02*
Y-233668D01*
X614332Y-237000D01*
X617664Y-233668D01*
Y-227003D01*
X622663Y-230336D02*
X625995D01*
X627661Y-232002D01*
Y-237000D01*
X622663D01*
X620997Y-235334D01*
X622663Y-233668D01*
X627661D01*
X630994Y-237000D02*
X634326D01*
X632660D01*
Y-227003D01*
X630994D01*
X639324Y-238666D02*
X645989D01*
X649321Y-227003D02*
X655985Y-237000D01*
Y-227003D02*
X649321Y-237000D01*
X634225Y-257003D02*
X627560D01*
Y-262002D01*
X630892Y-260336D01*
X632558D01*
X634225Y-262002D01*
Y-265334D01*
X632558Y-267000D01*
X629226D01*
X627560Y-265334D01*
X637557Y-257003D02*
Y-263668D01*
X640889Y-267000D01*
X644221Y-263668D01*
Y-257003D01*
X629225Y-280669D02*
X627558Y-279003D01*
X624226D01*
X622560Y-280669D01*
Y-287334D01*
X624226Y-289000D01*
X627558D01*
X629225Y-287334D01*
Y-284002D01*
X625892D01*
X632557Y-289000D02*
Y-279003D01*
X639221Y-289000D01*
Y-279003D01*
X642554D02*
Y-289000D01*
X647552D01*
X649218Y-287334D01*
Y-280669D01*
X647552Y-279003D01*
X642554D01*
X629225Y-304669D02*
X627558Y-303003D01*
X624226D01*
X622560Y-304669D01*
Y-311334D01*
X624226Y-313000D01*
X627558D01*
X629225Y-311334D01*
X632557Y-314666D02*
X639221D01*
X642554Y-303003D02*
Y-313000D01*
X649218D01*
X630224Y-324669D02*
X628558Y-323003D01*
X625226D01*
X623560Y-324669D01*
Y-331334D01*
X625226Y-333000D01*
X628558D01*
X630224Y-331334D01*
X633557Y-334666D02*
X640221D01*
X643554Y-323003D02*
Y-333000D01*
Y-328002D01*
X650218D01*
Y-323003D01*
Y-333000D01*
X618665Y-487187D02*
X616998Y-485521D01*
X613666D01*
X612000Y-487187D01*
Y-493852D01*
X613666Y-495518D01*
X616998D01*
X618665Y-493852D01*
X621997Y-495518D02*
Y-488853D01*
X625329Y-485521D01*
X628661Y-488853D01*
Y-495518D01*
Y-490520D01*
X621997D01*
X631994Y-495518D02*
Y-485521D01*
X638658Y-495518D01*
Y-485521D01*
X641990Y-497184D02*
X648655D01*
X651987Y-485521D02*
Y-495518D01*
X658652D01*
X618665Y-512187D02*
X616998Y-510521D01*
X613666D01*
X612000Y-512187D01*
Y-518852D01*
X613666Y-520518D01*
X616998D01*
X618665Y-518852D01*
X621997Y-520518D02*
Y-513853D01*
X625329Y-510521D01*
X628661Y-513853D01*
Y-520518D01*
Y-515520D01*
X621997D01*
X631994Y-520518D02*
Y-510521D01*
X638658Y-520518D01*
Y-510521D01*
X641990Y-522184D02*
X648655D01*
X651987Y-510521D02*
Y-520518D01*
Y-515520D01*
X658652D01*
Y-510521D01*
Y-520518D01*
X630664Y-536521D02*
X624000D01*
Y-541520D01*
X627332Y-539854D01*
X628998D01*
X630664Y-541520D01*
Y-544852D01*
X628998Y-546518D01*
X625666D01*
X624000Y-544852D01*
X633997Y-536521D02*
Y-543186D01*
X637329Y-546518D01*
X640661Y-543186D01*
Y-536521D01*
X626665Y-562187D02*
X624998Y-560521D01*
X621666D01*
X620000Y-562187D01*
Y-568852D01*
X621666Y-570518D01*
X624998D01*
X626665Y-568852D01*
Y-565520D01*
X623332D01*
X629997Y-570518D02*
Y-560521D01*
X636661Y-570518D01*
Y-560521D01*
X639994D02*
Y-570518D01*
X644992D01*
X646658Y-568852D01*
Y-562187D01*
X644992Y-560521D01*
X639994D01*
X626665Y-588187D02*
X624998Y-586521D01*
X621666D01*
X620000Y-588187D01*
Y-594852D01*
X621666Y-596518D01*
X624998D01*
X626665Y-594852D01*
Y-591520D01*
X623332D01*
X629997Y-596518D02*
Y-586521D01*
X636661Y-596518D01*
Y-586521D01*
X639994D02*
Y-596518D01*
X644992D01*
X646658Y-594852D01*
Y-588187D01*
X644992Y-586521D01*
X639994D01*
X620000Y-613521D02*
Y-620186D01*
X623332Y-623518D01*
X626665Y-620186D01*
Y-613521D01*
X629997Y-623518D02*
Y-613521D01*
X633329Y-616853D01*
X636661Y-613521D01*
Y-623518D01*
X644992Y-613521D02*
X641660D01*
X639994Y-615187D01*
Y-621852D01*
X641660Y-623518D01*
X644992D01*
X646658Y-621852D01*
Y-615187D01*
X644992Y-613521D01*
X660000Y-50000D02*
X669997D01*
Y-54998D01*
X668331Y-56665D01*
X664998D01*
X663332Y-54998D01*
Y-50000D01*
X660000Y-59997D02*
X666665D01*
X669997Y-63329D01*
X666665Y-66661D01*
X660000D01*
X664998D01*
Y-59997D01*
X660000Y-69994D02*
Y-73326D01*
Y-71660D01*
X669997D01*
X668331Y-69994D01*
X669997Y-84989D02*
Y-78324D01*
X664998D01*
X666665Y-81657D01*
Y-83323D01*
X664998Y-84989D01*
X661666D01*
X660000Y-83323D01*
Y-79990D01*
X661666Y-78324D01*
X636000Y-50000D02*
X645997D01*
Y-54998D01*
X644331Y-56665D01*
X640998D01*
X639332Y-54998D01*
Y-50000D01*
X636000Y-59997D02*
X642664D01*
X645997Y-63329D01*
X642664Y-66661D01*
X636000D01*
X640998D01*
Y-59997D01*
X636000Y-69994D02*
Y-73326D01*
Y-71660D01*
X645997D01*
X644331Y-69994D01*
X636000Y-84989D02*
Y-78324D01*
X642664Y-84989D01*
X644331D01*
X645997Y-83323D01*
Y-79990D01*
X644331Y-78324D01*
X610000Y-50000D02*
X619997D01*
Y-54998D01*
X618331Y-56665D01*
X614998D01*
X613332Y-54998D01*
Y-50000D01*
X610000Y-59997D02*
X616665D01*
X619997Y-63329D01*
X616665Y-66661D01*
X610000D01*
X614998D01*
Y-59997D01*
X610000Y-74992D02*
X619997D01*
X614998Y-69994D01*
Y-76658D01*
X584000Y-50000D02*
X593997D01*
Y-54998D01*
X592331Y-56665D01*
X588998D01*
X587332Y-54998D01*
Y-50000D01*
X584000Y-59997D02*
X590664D01*
X593997Y-63329D01*
X590664Y-66661D01*
X584000D01*
X588998D01*
Y-59997D01*
X592331Y-69994D02*
X593997Y-71660D01*
Y-74992D01*
X592331Y-76658D01*
X590664D01*
X588998Y-74992D01*
Y-73326D01*
Y-74992D01*
X587332Y-76658D01*
X585666D01*
X584000Y-74992D01*
Y-71660D01*
X585666Y-69994D01*
X558000Y-50000D02*
X567997D01*
Y-54998D01*
X566331Y-56665D01*
X562998D01*
X561332Y-54998D01*
Y-50000D01*
X558000Y-59997D02*
X564664D01*
X567997Y-63329D01*
X564664Y-66661D01*
X558000D01*
X562998D01*
Y-59997D01*
X558000Y-76658D02*
Y-69994D01*
X564664Y-76658D01*
X566331D01*
X567997Y-74992D01*
Y-71660D01*
X566331Y-69994D01*
X541331Y-56665D02*
X542997Y-54998D01*
Y-51666D01*
X541331Y-50000D01*
X534666D01*
X533000Y-51666D01*
Y-54998D01*
X534666Y-56665D01*
X537998D01*
Y-53332D01*
X533000Y-59997D02*
X542997D01*
X533000Y-66661D01*
X542997D01*
Y-69994D02*
X533000D01*
Y-74992D01*
X534666Y-76658D01*
X541331D01*
X542997Y-74992D01*
Y-69994D01*
X509000Y-50000D02*
X518997D01*
Y-54998D01*
X517331Y-56665D01*
X513998D01*
X512332Y-54998D01*
Y-50000D01*
X518997Y-59997D02*
X509000D01*
Y-64995D01*
X510666Y-66661D01*
X512332D01*
X513998Y-64995D01*
Y-59997D01*
Y-64995D01*
X515664Y-66661D01*
X517331D01*
X518997Y-64995D01*
Y-59997D01*
X509000Y-69994D02*
Y-73326D01*
Y-71660D01*
X518997D01*
X517331Y-69994D01*
X518997Y-84989D02*
Y-78324D01*
X513998D01*
X515664Y-81657D01*
Y-83323D01*
X513998Y-84989D01*
X510666D01*
X509000Y-83323D01*
Y-79990D01*
X510666Y-78324D01*
X482000Y-50000D02*
X491997D01*
Y-54998D01*
X490331Y-56665D01*
X486998D01*
X485332Y-54998D01*
Y-50000D01*
X491997Y-59997D02*
X482000D01*
Y-64995D01*
X483666Y-66661D01*
X485332D01*
X486998Y-64995D01*
Y-59997D01*
Y-64995D01*
X488665Y-66661D01*
X490331D01*
X491997Y-64995D01*
Y-59997D01*
X482000Y-69994D02*
Y-73326D01*
Y-71660D01*
X491997D01*
X490331Y-69994D01*
X482000Y-83323D02*
X491997D01*
X486998Y-78324D01*
Y-84989D01*
X404000Y-50000D02*
X413997D01*
Y-54998D01*
X412331Y-56665D01*
X408998D01*
X407332Y-54998D01*
Y-50000D01*
X413997Y-59997D02*
X404000D01*
Y-64995D01*
X405666Y-66661D01*
X407332D01*
X408998Y-64995D01*
Y-59997D01*
Y-64995D01*
X410664Y-66661D01*
X412331D01*
X413997Y-64995D01*
Y-59997D01*
X404000Y-69994D02*
Y-73326D01*
Y-71660D01*
X413997D01*
X412331Y-69994D01*
Y-78324D02*
X413997Y-79990D01*
Y-83323D01*
X412331Y-84989D01*
X410664D01*
X408998Y-83323D01*
Y-81657D01*
Y-83323D01*
X407332Y-84989D01*
X405666D01*
X404000Y-83323D01*
Y-79990D01*
X405666Y-78324D01*
X378000Y-50000D02*
X387997D01*
Y-54998D01*
X386331Y-56665D01*
X382998D01*
X381332Y-54998D01*
Y-50000D01*
X387997Y-59997D02*
X378000D01*
Y-64995D01*
X379666Y-66661D01*
X381332D01*
X382998Y-64995D01*
Y-59997D01*
Y-64995D01*
X384664Y-66661D01*
X386331D01*
X387997Y-64995D01*
Y-59997D01*
X378000Y-69994D02*
Y-73326D01*
Y-71660D01*
X387997D01*
X386331Y-69994D01*
X378000Y-84989D02*
Y-78324D01*
X384664Y-84989D01*
X386331D01*
X387997Y-83323D01*
Y-79990D01*
X386331Y-78324D01*
X353000Y-50000D02*
X362997D01*
Y-54998D01*
X361331Y-56665D01*
X357998D01*
X356332Y-54998D01*
Y-50000D01*
X362997Y-59997D02*
X353000D01*
Y-64995D01*
X354666Y-66661D01*
X356332D01*
X357998Y-64995D01*
Y-59997D01*
Y-64995D01*
X359664Y-66661D01*
X361331D01*
X362997Y-64995D01*
Y-59997D01*
X353000Y-69994D02*
Y-73326D01*
Y-71660D01*
X362997D01*
X361331Y-69994D01*
X353000Y-78324D02*
Y-81657D01*
Y-79990D01*
X362997D01*
X361331Y-78324D01*
X327000Y-50000D02*
X336997D01*
Y-54998D01*
X335331Y-56665D01*
X331998D01*
X330332Y-54998D01*
Y-50000D01*
X336997Y-59997D02*
X327000D01*
Y-64995D01*
X328666Y-66661D01*
X330332D01*
X331998Y-64995D01*
Y-59997D01*
Y-64995D01*
X333665Y-66661D01*
X335331D01*
X336997Y-64995D01*
Y-59997D01*
X327000Y-69994D02*
Y-73326D01*
Y-71660D01*
X336997D01*
X335331Y-69994D01*
Y-78324D02*
X336997Y-79990D01*
Y-83323D01*
X335331Y-84989D01*
X328666D01*
X327000Y-83323D01*
Y-79990D01*
X328666Y-78324D01*
X335331D01*
X303000Y-50000D02*
X312997D01*
Y-54998D01*
X311331Y-56665D01*
X307998D01*
X306332Y-54998D01*
Y-50000D01*
X312997Y-59997D02*
X303000D01*
Y-64995D01*
X304666Y-66661D01*
X306332D01*
X307998Y-64995D01*
Y-59997D01*
Y-64995D01*
X309664Y-66661D01*
X311331D01*
X312997Y-64995D01*
Y-59997D01*
Y-76658D02*
Y-69994D01*
X307998D01*
X309664Y-73326D01*
Y-74992D01*
X307998Y-76658D01*
X304666D01*
X303000Y-74992D01*
Y-71660D01*
X304666Y-69994D01*
X276000Y-50000D02*
X285997D01*
Y-54998D01*
X284331Y-56665D01*
X280998D01*
X279332Y-54998D01*
Y-50000D01*
X285997Y-59997D02*
X276000D01*
Y-64995D01*
X277666Y-66661D01*
X279332D01*
X280998Y-64995D01*
Y-59997D01*
Y-64995D01*
X282665Y-66661D01*
X284331D01*
X285997Y-64995D01*
Y-59997D01*
X276000Y-74992D02*
X285997D01*
X280998Y-69994D01*
Y-76658D01*
X252000Y-50000D02*
X261997D01*
Y-54998D01*
X260331Y-56665D01*
X256998D01*
X255332Y-54998D01*
Y-50000D01*
X261997Y-59997D02*
X252000D01*
Y-64995D01*
X253666Y-66661D01*
X255332D01*
X256998Y-64995D01*
Y-59997D01*
Y-64995D01*
X258664Y-66661D01*
X260331D01*
X261997Y-64995D01*
Y-59997D01*
X260331Y-69994D02*
X261997Y-71660D01*
Y-74992D01*
X260331Y-76658D01*
X258664D01*
X256998Y-74992D01*
Y-73326D01*
Y-74992D01*
X255332Y-76658D01*
X253666D01*
X252000Y-74992D01*
Y-71660D01*
X253666Y-69994D01*
X226000Y-51000D02*
X235997D01*
Y-55998D01*
X234331Y-57664D01*
X230998D01*
X229332Y-55998D01*
Y-51000D01*
X235997Y-60997D02*
X226000D01*
Y-65995D01*
X227666Y-67661D01*
X229332D01*
X230998Y-65995D01*
Y-60997D01*
Y-65995D01*
X232665Y-67661D01*
X234331D01*
X235997Y-65995D01*
Y-60997D01*
X226000Y-70994D02*
Y-74326D01*
Y-72660D01*
X235997D01*
X234331Y-70994D01*
X86664Y-521669D02*
X84998Y-520003D01*
X81666D01*
X80000Y-521669D01*
Y-528334D01*
X81666Y-530000D01*
X84998D01*
X86664Y-528334D01*
Y-525002D01*
X83332D01*
X89997Y-530000D02*
Y-520003D01*
X96661Y-530000D01*
Y-520003D01*
X99994D02*
Y-530000D01*
X104992D01*
X106658Y-528334D01*
Y-521669D01*
X104992Y-520003D01*
X99994D01*
X80000Y-546669D02*
X81666Y-545003D01*
X84998D01*
X86664Y-546669D01*
Y-548335D01*
X84998Y-550002D01*
X83332D01*
X84998D01*
X86664Y-551668D01*
Y-553334D01*
X84998Y-555000D01*
X81666D01*
X80000Y-553334D01*
X89997Y-555000D02*
Y-553334D01*
X91663D01*
Y-555000D01*
X89997D01*
X98327Y-546669D02*
X99994Y-545003D01*
X103326D01*
X104992Y-546669D01*
Y-548335D01*
X103326Y-550002D01*
X101660D01*
X103326D01*
X104992Y-551668D01*
Y-553334D01*
X103326Y-555000D01*
X99994D01*
X98327Y-553334D01*
X108324Y-545003D02*
Y-551668D01*
X111656Y-555000D01*
X114989Y-551668D01*
Y-545003D01*
X81000Y-580000D02*
Y-570003D01*
X85998D01*
X87664Y-571669D01*
Y-575002D01*
X85998Y-576668D01*
X81000D01*
X90997Y-580000D02*
Y-573335D01*
X94329Y-570003D01*
X97661Y-573335D01*
Y-580000D01*
Y-575002D01*
X90997D01*
X100993Y-580000D02*
X104326D01*
X102660D01*
Y-570003D01*
X100993Y-571669D01*
X81000Y-468000D02*
Y-458003D01*
X85998D01*
X87664Y-459669D01*
Y-463002D01*
X85998Y-464668D01*
X81000D01*
X90997Y-468000D02*
Y-461335D01*
X94329Y-458003D01*
X97661Y-461335D01*
Y-468000D01*
Y-463002D01*
X90997D01*
X100993Y-459669D02*
X102660Y-458003D01*
X105992D01*
X107658Y-459669D01*
Y-466334D01*
X105992Y-468000D01*
X102660D01*
X100993Y-466334D01*
Y-459669D01*
X80000Y-434669D02*
X81666Y-433003D01*
X84998D01*
X86664Y-434669D01*
Y-436335D01*
X84998Y-438002D01*
X83332D01*
X84998D01*
X86664Y-439668D01*
Y-441334D01*
X84998Y-443000D01*
X81666D01*
X80000Y-441334D01*
X89997Y-443000D02*
Y-441334D01*
X91663D01*
Y-443000D01*
X89997D01*
X98327Y-434669D02*
X99994Y-433003D01*
X103326D01*
X104992Y-434669D01*
Y-436335D01*
X103326Y-438002D01*
X101660D01*
X103326D01*
X104992Y-439668D01*
Y-441334D01*
X103326Y-443000D01*
X99994D01*
X98327Y-441334D01*
X108324Y-433003D02*
Y-439668D01*
X111656Y-443000D01*
X114989Y-439668D01*
Y-433003D01*
X86664Y-409669D02*
X84998Y-408003D01*
X81666D01*
X80000Y-409669D01*
Y-416334D01*
X81666Y-418000D01*
X84998D01*
X86664Y-416334D01*
Y-413002D01*
X83332D01*
X89997Y-418000D02*
Y-408003D01*
X96661Y-418000D01*
Y-408003D01*
X99994D02*
Y-418000D01*
X104992D01*
X106658Y-416334D01*
Y-409669D01*
X104992Y-408003D01*
X99994D01*
X85000Y-345669D02*
X86666Y-344003D01*
X89998D01*
X91664Y-345669D01*
Y-347336D01*
X89998Y-349002D01*
X88332D01*
X89998D01*
X91664Y-350668D01*
Y-352334D01*
X89998Y-354000D01*
X86666D01*
X85000Y-352334D01*
X94997Y-354000D02*
Y-352334D01*
X96663D01*
Y-354000D01*
X94997D01*
X103327Y-345669D02*
X104994Y-344003D01*
X108326D01*
X109992Y-345669D01*
Y-347336D01*
X108326Y-349002D01*
X106660D01*
X108326D01*
X109992Y-350668D01*
Y-352334D01*
X108326Y-354000D01*
X104994D01*
X103327Y-352334D01*
X113324Y-344003D02*
Y-350668D01*
X116657Y-354000D01*
X119989Y-350668D01*
Y-344003D01*
X85000Y-330000D02*
Y-320003D01*
X89998D01*
X91664Y-321669D01*
Y-325002D01*
X89998Y-326668D01*
X85000D01*
X88332D02*
X91664Y-330000D01*
X101661Y-321669D02*
X99995Y-320003D01*
X96663D01*
X94997Y-321669D01*
Y-323335D01*
X96663Y-325002D01*
X99995D01*
X101661Y-326668D01*
Y-328334D01*
X99995Y-330000D01*
X96663D01*
X94997Y-328334D01*
X104994Y-320003D02*
X111658D01*
X108326D01*
Y-330000D01*
X91664Y-296669D02*
X89998Y-295003D01*
X86666D01*
X85000Y-296669D01*
Y-298335D01*
X86666Y-300002D01*
X89998D01*
X91664Y-301668D01*
Y-303334D01*
X89998Y-305000D01*
X86666D01*
X85000Y-303334D01*
X94997Y-295003D02*
Y-305000D01*
X98329Y-301668D01*
X101661Y-305000D01*
Y-295003D01*
X104994D02*
Y-305000D01*
X109992D01*
X111658Y-303334D01*
Y-296669D01*
X109992Y-295003D01*
X104994D01*
X114990D02*
X118323D01*
X116657D01*
Y-305000D01*
X114990D01*
X118323D01*
X128319Y-295003D02*
X124987D01*
X123321Y-296669D01*
Y-303334D01*
X124987Y-305000D01*
X128319D01*
X129986Y-303334D01*
Y-296669D01*
X128319Y-295003D01*
X91664Y-270669D02*
X89998Y-269003D01*
X86666D01*
X85000Y-270669D01*
Y-272335D01*
X86666Y-274002D01*
X89998D01*
X91664Y-275668D01*
Y-277334D01*
X89998Y-279000D01*
X86666D01*
X85000Y-277334D01*
X94997Y-269003D02*
Y-279000D01*
X98329Y-275668D01*
X101661Y-279000D01*
Y-269003D01*
X111658Y-270669D02*
X109992Y-269003D01*
X106660D01*
X104994Y-270669D01*
Y-277334D01*
X106660Y-279000D01*
X109992D01*
X111658Y-277334D01*
X114990Y-269003D02*
Y-279000D01*
X121655D01*
X124987Y-269003D02*
Y-279000D01*
Y-275668D01*
X131652Y-269003D01*
X126653Y-274002D01*
X131652Y-279000D01*
X91664Y-246669D02*
X89998Y-245003D01*
X86666D01*
X85000Y-246669D01*
Y-253334D01*
X86666Y-255000D01*
X89998D01*
X91664Y-253334D01*
Y-250002D01*
X88332D01*
X94997Y-255000D02*
Y-245003D01*
X101661Y-255000D01*
Y-245003D01*
X104994D02*
Y-255000D01*
X109992D01*
X111658Y-253334D01*
Y-246669D01*
X109992Y-245003D01*
X104994D01*
X91664Y-181669D02*
X89998Y-180003D01*
X86666D01*
X85000Y-181669D01*
Y-188334D01*
X86666Y-190000D01*
X89998D01*
X91664Y-188334D01*
Y-185002D01*
X88332D01*
X94997Y-190000D02*
Y-180003D01*
X101661Y-190000D01*
Y-180003D01*
X104994D02*
Y-190000D01*
X109992D01*
X111658Y-188334D01*
Y-181669D01*
X109992Y-180003D01*
X104994D01*
X84000Y-155003D02*
X90665D01*
X87332D01*
Y-165000D01*
X93997Y-155003D02*
X100661Y-165000D01*
Y-155003D02*
X93997Y-165000D01*
X85000Y-140000D02*
Y-130003D01*
X89998D01*
X91664Y-131669D01*
Y-135002D01*
X89998Y-136668D01*
X85000D01*
X88332D02*
X91664Y-140000D01*
X94997Y-130003D02*
X101661Y-140000D01*
Y-130003D02*
X94997Y-140000D01*
X672000Y-997000D02*
Y-993668D01*
Y-995334D01*
X662003D01*
X663669Y-997000D01*
X672000Y-982005D02*
Y-988669D01*
X665335Y-982005D01*
X663669D01*
X662003Y-983671D01*
Y-987003D01*
X663669Y-988669D01*
X662003Y-978673D02*
X668668D01*
X672000Y-975340D01*
X668668Y-972008D01*
X662003D01*
X687003Y-991336D02*
Y-998000D01*
X692002D01*
X690335Y-994668D01*
Y-993002D01*
X692002Y-991336D01*
X695334D01*
X697000Y-993002D01*
Y-996334D01*
X695334Y-998000D01*
X687003Y-988003D02*
X693668D01*
X697000Y-984671D01*
X693668Y-981339D01*
X687003D01*
X728669Y-993335D02*
X727003Y-995002D01*
Y-998334D01*
X728669Y-1000000D01*
X735334D01*
X737000Y-998334D01*
Y-995002D01*
X735334Y-993335D01*
X732002D01*
Y-996668D01*
X737000Y-990003D02*
X727003D01*
X737000Y-983339D01*
X727003D01*
Y-980006D02*
X737000D01*
Y-975008D01*
X735334Y-973342D01*
X728669D01*
X727003Y-975008D01*
Y-980006D01*
X737000Y-963345D02*
Y-970010D01*
X730335Y-963345D01*
X728669D01*
X727003Y-965011D01*
Y-968344D01*
X728669Y-970010D01*
X783669Y-994335D02*
X782003Y-996002D01*
Y-999334D01*
X783669Y-1001000D01*
X790334D01*
X792000Y-999334D01*
Y-996002D01*
X790334Y-994335D01*
X787002D01*
Y-997668D01*
X792000Y-991003D02*
X782003D01*
X792000Y-984339D01*
X782003D01*
Y-981006D02*
X792000D01*
Y-976008D01*
X790334Y-974342D01*
X783669D01*
X782003Y-976008D01*
Y-981006D01*
X792000Y-971010D02*
Y-967677D01*
Y-969343D01*
X782003D01*
X783669Y-971010D01*
X840000Y-994335D02*
Y-1001000D01*
X833335Y-994335D01*
X831669D01*
X830003Y-996002D01*
Y-999334D01*
X831669Y-1001000D01*
X840000Y-986005D02*
X830003D01*
X835002Y-991003D01*
Y-984339D01*
X830003Y-981006D02*
X836668D01*
X840000Y-977674D01*
X836668Y-974342D01*
X830003D01*
M02*
