G04 Layer_Color=8421504*
%FSLAX44Y44*%
%MOMM*%
G71*
G01*
G75*
%ADD10O,0.2500X1.2700*%
%ADD11O,1.2700X0.2500*%
%ADD12R,1.2700X0.2500*%
%ADD13R,1.2700X1.6002*%
%ADD14R,3.3000X2.4000*%
%ADD15R,1.0000X2.4000*%
%ADD16R,1.6002X1.2700*%
%ADD17R,1.5240X0.5080*%
%ADD18R,10.0000X6.0000*%
%ADD19R,1.0700X2.7500*%
%ADD20R,1.7780X1.7780*%
%ADD21O,2.0000X0.6000*%
G36*
X806298Y-605277D02*
X792582D01*
Y-591561D01*
X806298D01*
Y-605277D01*
D02*
G37*
G36*
X801230Y-536619D02*
X802899Y-537310D01*
X804331Y-538410D01*
X805430Y-539842D01*
X806122Y-541511D01*
X806357Y-543301D01*
X806122Y-545091D01*
X805430Y-546760D01*
X804331Y-548192D01*
X802899Y-549291D01*
X801230Y-549982D01*
X799440Y-550218D01*
X797650Y-549982D01*
X795981Y-549291D01*
X794549Y-548192D01*
X793449Y-546760D01*
X792758Y-545091D01*
X792523Y-543301D01*
X792758Y-541511D01*
X793449Y-539842D01*
X794549Y-538410D01*
X795981Y-537310D01*
X797650Y-536619D01*
X799440Y-536384D01*
X801230Y-536619D01*
D02*
G37*
G36*
X806298Y-841277D02*
X792582D01*
Y-827561D01*
X806298D01*
Y-841277D01*
D02*
G37*
G36*
X801230Y-772619D02*
X802899Y-773310D01*
X804331Y-774410D01*
X805430Y-775842D01*
X806122Y-777511D01*
X806357Y-779301D01*
X806122Y-781091D01*
X805430Y-782760D01*
X804331Y-784192D01*
X802899Y-785292D01*
X801230Y-785983D01*
X799440Y-786218D01*
X797650Y-785983D01*
X795981Y-785292D01*
X794549Y-784192D01*
X793449Y-782760D01*
X792758Y-781091D01*
X792523Y-779301D01*
X792758Y-777511D01*
X793449Y-775842D01*
X794549Y-774410D01*
X795981Y-773310D01*
X797650Y-772619D01*
X799440Y-772384D01*
X801230Y-772619D01*
D02*
G37*
G36*
X803230Y-161737D02*
X804899Y-162428D01*
X806331Y-163528D01*
X807430Y-164960D01*
X808121Y-166629D01*
X808357Y-168419D01*
X808121Y-170209D01*
X807430Y-171878D01*
X806331Y-173310D01*
X804899Y-174410D01*
X803230Y-175100D01*
X801440Y-175336D01*
X799650Y-175100D01*
X797981Y-174410D01*
X796549Y-173310D01*
X795450Y-171878D01*
X794759Y-170209D01*
X794523Y-168419D01*
X794759Y-166629D01*
X795450Y-164960D01*
X796549Y-163528D01*
X797981Y-162428D01*
X799650Y-161737D01*
X801440Y-161502D01*
X803230Y-161737D01*
D02*
G37*
G36*
X808298Y-120159D02*
X794582D01*
Y-106443D01*
X808298D01*
Y-120159D01*
D02*
G37*
G36*
X803230Y-312738D02*
X804899Y-313428D01*
X806331Y-314528D01*
X807430Y-315960D01*
X808121Y-317629D01*
X808357Y-319419D01*
X808121Y-321209D01*
X807430Y-322878D01*
X806331Y-324310D01*
X804899Y-325410D01*
X803230Y-326101D01*
X801440Y-326336D01*
X799650Y-326101D01*
X797981Y-325410D01*
X796549Y-324310D01*
X795450Y-322878D01*
X794759Y-321209D01*
X794523Y-319419D01*
X794759Y-317629D01*
X795450Y-315960D01*
X796549Y-314528D01*
X797981Y-313428D01*
X799650Y-312738D01*
X801440Y-312502D01*
X803230Y-312738D01*
D02*
G37*
G36*
X808298Y-271159D02*
X794582D01*
Y-257443D01*
X808298D01*
Y-271159D01*
D02*
G37*
D10*
X300246Y-563763D02*
D03*
X305246D02*
D03*
X310246D02*
D03*
X315246D02*
D03*
X320246D02*
D03*
X325246D02*
D03*
X330246D02*
D03*
X335246D02*
D03*
X340246D02*
D03*
X345246D02*
D03*
X350246D02*
D03*
X355246D02*
D03*
Y-653729D02*
D03*
X350246D02*
D03*
X345246D02*
D03*
X340246D02*
D03*
X335246D02*
D03*
X330246D02*
D03*
X325246D02*
D03*
X320246D02*
D03*
X315246D02*
D03*
X310246D02*
D03*
X305246D02*
D03*
X300246D02*
D03*
D11*
X372729Y-581246D02*
D03*
Y-586246D02*
D03*
Y-591246D02*
D03*
Y-596246D02*
D03*
Y-601246D02*
D03*
Y-606246D02*
D03*
Y-611246D02*
D03*
Y-616246D02*
D03*
Y-621246D02*
D03*
Y-626246D02*
D03*
Y-631246D02*
D03*
Y-636246D02*
D03*
X282763D02*
D03*
Y-631246D02*
D03*
Y-626246D02*
D03*
Y-621246D02*
D03*
Y-616246D02*
D03*
Y-611246D02*
D03*
Y-606246D02*
D03*
Y-601246D02*
D03*
Y-596246D02*
D03*
Y-591246D02*
D03*
Y-586246D02*
D03*
D12*
Y-581246D02*
D03*
D13*
X414020Y-546100D02*
D03*
X393700D02*
D03*
X213360Y-678180D02*
D03*
X233680D02*
D03*
X149860D02*
D03*
X170180D02*
D03*
X215900Y-830580D02*
D03*
X236220D02*
D03*
X404160Y-811000D02*
D03*
X383840D02*
D03*
X215900Y-515620D02*
D03*
X236220D02*
D03*
X149840Y-581000D02*
D03*
X170160D02*
D03*
X149840Y-637000D02*
D03*
X170160D02*
D03*
X213360Y-706120D02*
D03*
X233680D02*
D03*
X215900Y-543560D02*
D03*
X236220D02*
D03*
D14*
X226060Y-740620D02*
D03*
D15*
X249060Y-798620D02*
D03*
X226060Y-798620D02*
D03*
X203060Y-798620D02*
D03*
D16*
X330200Y-721360D02*
D03*
Y-741680D02*
D03*
X286000Y-904160D02*
D03*
Y-883840D02*
D03*
X850440Y-400020D02*
D03*
Y-379700D02*
D03*
X360680Y-741680D02*
D03*
Y-721360D02*
D03*
D17*
X823475Y-370810D02*
D03*
Y-383510D02*
D03*
Y-396210D02*
D03*
Y-408910D02*
D03*
X771405D02*
D03*
Y-396210D02*
D03*
Y-383510D02*
D03*
Y-370810D02*
D03*
D18*
X508000Y-1098891D02*
D03*
D19*
X474000Y-945746D02*
D03*
X491000D02*
D03*
X508000D02*
D03*
X525000D02*
D03*
X542000D02*
D03*
D20*
X530670Y-894350D02*
D03*
X495110D02*
D03*
D21*
X589180Y-748510D02*
D03*
Y-761210D02*
D03*
Y-773910D02*
D03*
Y-786610D02*
D03*
Y-799310D02*
D03*
X685700Y-812010D02*
D03*
Y-799310D02*
D03*
Y-786610D02*
D03*
Y-773910D02*
D03*
Y-761210D02*
D03*
X589180Y-697710D02*
D03*
X685700D02*
D03*
Y-723110D02*
D03*
Y-748510D02*
D03*
Y-735810D02*
D03*
X589180Y-710410D02*
D03*
Y-723110D02*
D03*
Y-735810D02*
D03*
X685700Y-710410D02*
D03*
X589180Y-812010D02*
D03*
M02*
