G04 Layer_Physical_Order=1*
G04 Layer_Color=255*
%FSLAX44Y44*%
%MOMM*%
G71*
G01*
G75*
%ADD10R,2.1590X2.7430*%
%ADD11R,2.7430X2.1590*%
%ADD12R,1.5240X0.5080*%
%ADD13R,3.0000X1.0000*%
%ADD14R,1.2700X1.6002*%
%ADD15R,1.3000X1.8500*%
%ADD16R,1.6002X1.2700*%
%ADD17R,1.2700X1.3970*%
%ADD18R,1.6510X1.5240*%
%ADD19R,1.6000X1.1999*%
%ADD20R,1.5000X2.5000*%
%ADD21R,3.5000X2.0000*%
%ADD22R,2.0000X0.6000*%
%ADD23R,1.5000X4.0640*%
%ADD24O,1.5000X4.0640*%
%ADD25R,2.5000X2.5000*%
%ADD26R,2.5000X2.0000*%
%ADD27C,1.0000*%
%ADD28C,0.7620*%
%ADD29C,0.5000*%
%ADD30C,0.3000*%
%ADD31C,0.2540*%
%ADD32C,1.2700*%
%ADD33C,1.5000*%
%ADD34R,1.5000X1.5000*%
%ADD35O,2.0320X1.6510*%
%ADD36O,3.5560X3.0480*%
%ADD37R,1.5000X1.5000*%
%ADD38C,2.5000*%
%ADD39C,1.7000*%
%ADD40C,1.0000*%
G36*
X500453Y-232722D02*
X502166Y-234155D01*
X502948Y-234692D01*
X503680Y-235108D01*
X504362Y-235405D01*
X504994Y-235581D01*
X505577Y-235638D01*
X506110Y-235575D01*
X506592Y-235392D01*
X497393Y-240273D01*
X497770Y-239984D01*
X497983Y-239602D01*
X498034Y-239127D01*
X497922Y-238559D01*
X497646Y-237898D01*
X497208Y-237145D01*
X496607Y-236298D01*
X495844Y-235359D01*
X493827Y-233202D01*
X499521Y-231826D01*
X500453Y-232722D01*
D02*
G37*
G36*
X669116Y-222239D02*
X668691Y-222390D01*
X668316Y-222642D01*
X667991Y-222994D01*
X667716Y-223447D01*
X667491Y-224000D01*
X667316Y-224654D01*
X667191Y-225408D01*
X667116Y-226264D01*
X667091Y-227220D01*
X662091D01*
X662066Y-226264D01*
X661991Y-225408D01*
X661866Y-224654D01*
X661691Y-224000D01*
X661466Y-223447D01*
X661191Y-222994D01*
X660866Y-222642D01*
X660491Y-222390D01*
X660066Y-222239D01*
X659591Y-222189D01*
X669591D01*
X669116Y-222239D01*
D02*
G37*
G36*
X484837Y-214302D02*
X484632Y-214694D01*
X484588Y-215175D01*
X484704Y-215747D01*
X484981Y-216409D01*
X485417Y-217161D01*
X486015Y-218004D01*
X486772Y-218936D01*
X488768Y-221073D01*
X483330Y-222706D01*
X482388Y-221798D01*
X480659Y-220350D01*
X479874Y-219810D01*
X479140Y-219392D01*
X478459Y-219097D01*
X477831Y-218924D01*
X477255Y-218873D01*
X476731Y-218946D01*
X476259Y-219140D01*
X485202Y-214002D01*
X484837Y-214302D01*
D02*
G37*
G36*
X510021Y-237791D02*
X510172Y-238216D01*
X510424Y-238591D01*
X510776Y-238916D01*
X511229Y-239191D01*
X511782Y-239416D01*
X512436Y-239591D01*
X513190Y-239716D01*
X514046Y-239791D01*
X515001Y-239816D01*
Y-244816D01*
X514046Y-244841D01*
X513190Y-244916D01*
X512436Y-245041D01*
X511782Y-245216D01*
X511229Y-245441D01*
X510776Y-245716D01*
X510424Y-246041D01*
X510172Y-246416D01*
X510021Y-246841D01*
X509971Y-247316D01*
Y-237316D01*
X510021Y-237791D01*
D02*
G37*
G36*
X534851Y-247316D02*
X534801Y-246841D01*
X534650Y-246416D01*
X534398Y-246041D01*
X534046Y-245716D01*
X533593Y-245441D01*
X533040Y-245216D01*
X532386Y-245041D01*
X531632Y-244916D01*
X530776Y-244841D01*
X529821Y-244816D01*
Y-239816D01*
X530776Y-239791D01*
X531632Y-239716D01*
X532386Y-239591D01*
X533040Y-239416D01*
X533593Y-239191D01*
X534046Y-238916D01*
X534398Y-238591D01*
X534650Y-238216D01*
X534801Y-237791D01*
X534851Y-237316D01*
Y-247316D01*
D02*
G37*
G36*
X674613Y-234163D02*
X676554Y-235823D01*
X677393Y-236417D01*
X678144Y-236852D01*
X678807Y-237130D01*
X679383Y-237250D01*
X679870Y-237212D01*
X680270Y-237016D01*
X680583Y-236662D01*
X675193Y-245354D01*
X675399Y-244893D01*
X675480Y-244378D01*
X675435Y-243808D01*
X675266Y-243184D01*
X674972Y-242504D01*
X674553Y-241770D01*
X674009Y-240980D01*
X673340Y-240136D01*
X672546Y-239237D01*
X671627Y-238283D01*
X673512Y-233096D01*
X674613Y-234163D01*
D02*
G37*
G36*
X657001Y-222220D02*
X652018Y-222210D01*
Y-217210D01*
X657001Y-217201D01*
Y-222220D01*
D02*
G37*
G36*
X677180Y-191810D02*
Y-196810D01*
X672180Y-196819D01*
Y-191800D01*
X677180Y-191810D01*
D02*
G37*
G36*
X872605Y-177392D02*
X873348Y-178029D01*
X874049Y-178555D01*
X874710Y-178970D01*
X875330Y-179273D01*
X875909Y-179465D01*
X876448Y-179546D01*
X876945Y-179515D01*
X877401Y-179373D01*
X877817Y-179120D01*
X869894Y-185313D01*
X870230Y-184979D01*
X870446Y-184596D01*
X870543Y-184164D01*
X870520Y-183682D01*
X870377Y-183152D01*
X870114Y-182572D01*
X869732Y-181943D01*
X869230Y-181265D01*
X868609Y-180538D01*
X867868Y-179761D01*
X871821Y-176644D01*
X872605Y-177392D01*
D02*
G37*
G36*
X667116Y-175056D02*
X667191Y-175912D01*
X667316Y-176666D01*
X667491Y-177320D01*
X667716Y-177873D01*
X667991Y-178326D01*
X668316Y-178678D01*
X668691Y-178930D01*
X669116Y-179081D01*
X669591Y-179131D01*
X659591D01*
X660066Y-179081D01*
X660491Y-178930D01*
X660866Y-178678D01*
X661191Y-178326D01*
X661466Y-177873D01*
X661691Y-177320D01*
X661866Y-176666D01*
X661991Y-175912D01*
X662066Y-175056D01*
X662091Y-174100D01*
X667091D01*
X667116Y-175056D01*
D02*
G37*
G36*
X301649Y-206914D02*
X300108Y-208507D01*
X297694Y-211351D01*
X296819Y-212600D01*
X296166Y-213735D01*
X295735Y-214756D01*
X295526Y-215661D01*
X295539Y-216452D01*
X295774Y-217128D01*
X296230Y-217690D01*
X284849Y-207579D01*
X285468Y-207978D01*
X286188Y-208169D01*
X287011Y-208150D01*
X287935Y-207922D01*
X288962Y-207485D01*
X290091Y-206838D01*
X291321Y-205982D01*
X292654Y-204918D01*
X295625Y-202160D01*
X301649Y-206914D01*
D02*
G37*
G36*
X808633Y-196884D02*
X823571D01*
X823102Y-196984D01*
X822682Y-197283D01*
X822312Y-197784D01*
X821991Y-198484D01*
X821719Y-199384D01*
X821497Y-200483D01*
X821324Y-201784D01*
X821127Y-204984D01*
X821102Y-206884D01*
X811102D01*
X811077Y-204984D01*
X810707Y-200483D01*
X810485Y-199384D01*
X810213Y-198484D01*
X809892Y-197784D01*
X809521Y-197283D01*
X809102Y-196984D01*
X808633Y-196884D01*
X808532Y-196414D01*
X808232Y-195994D01*
X807732Y-195624D01*
X807032Y-195303D01*
X806133Y-195031D01*
X805033Y-194809D01*
X803733Y-194636D01*
X800533Y-194439D01*
X798633Y-194414D01*
Y-184414D01*
X800533Y-184389D01*
X805033Y-184019D01*
X806133Y-183797D01*
X807032Y-183525D01*
X807732Y-183204D01*
X808232Y-182833D01*
X808532Y-182414D01*
X808633Y-181945D01*
Y-196884D01*
D02*
G37*
G36*
X685891Y-193386D02*
X688217Y-195414D01*
X688904Y-195923D01*
X689548Y-196349D01*
X690147Y-196691D01*
X690703Y-196949D01*
X691214Y-197123D01*
X691682Y-197214D01*
X686164Y-202732D01*
X686073Y-202264D01*
X685899Y-201753D01*
X685640Y-201197D01*
X685299Y-200598D01*
X684873Y-199954D01*
X684364Y-199267D01*
X683095Y-197760D01*
X681492Y-196078D01*
X685028Y-192542D01*
X685891Y-193386D01*
D02*
G37*
G36*
X455527Y-324104D02*
X455501Y-323863D01*
X455424Y-323647D01*
X455296Y-323456D01*
X455116Y-323291D01*
X454884Y-323152D01*
X454602Y-323037D01*
X454267Y-322948D01*
X453882Y-322885D01*
X453445Y-322847D01*
X452957Y-322834D01*
Y-320294D01*
X453445Y-320281D01*
X453882Y-320243D01*
X454267Y-320180D01*
X454602Y-320091D01*
X454884Y-319977D01*
X455116Y-319837D01*
X455296Y-319672D01*
X455424Y-319481D01*
X455501Y-319265D01*
X455527Y-319024D01*
Y-324104D01*
D02*
G37*
G36*
X610362Y-186182D02*
Y-204470D01*
X609600Y-205232D01*
X602488Y-212344D01*
Y-291592D01*
Y-304800D01*
X601726Y-305562D01*
X599440Y-307848D01*
X572516D01*
X572262Y-307594D01*
X568198Y-303530D01*
Y-215138D01*
Y-189738D01*
X568960Y-188976D01*
X572516Y-185420D01*
X609600D01*
X610362Y-186182D01*
D02*
G37*
G36*
X466749Y-303843D02*
X466787Y-304280D01*
X466850Y-304665D01*
X466939Y-305000D01*
X467053Y-305282D01*
X467193Y-305514D01*
X467358Y-305694D01*
X467549Y-305822D01*
X467765Y-305899D01*
X468006Y-305925D01*
X462926D01*
X463167Y-305899D01*
X463383Y-305822D01*
X463574Y-305694D01*
X463739Y-305514D01*
X463879Y-305282D01*
X463993Y-305000D01*
X464082Y-304665D01*
X464145Y-304280D01*
X464183Y-303843D01*
X464196Y-303354D01*
X466736D01*
X466749Y-303843D01*
D02*
G37*
G36*
X516128Y-260604D02*
X547878D01*
X550418Y-263144D01*
Y-282702D01*
Y-306578D01*
X554990Y-311150D01*
X567436Y-323596D01*
X670560D01*
X672338Y-325374D01*
X679958Y-332994D01*
Y-357308D01*
X497840D01*
Y-257048D01*
X512572D01*
X516128Y-260604D01*
D02*
G37*
G36*
X300774Y-315564D02*
X301075Y-316414D01*
X301577Y-317164D01*
X302279Y-317814D01*
X303182Y-318364D01*
X304285Y-318814D01*
X305589Y-319164D01*
X307094Y-319414D01*
X308799Y-319564D01*
X310704Y-319614D01*
Y-329614D01*
X308799Y-329664D01*
X307094Y-329814D01*
X305589Y-330064D01*
X304285Y-330414D01*
X303182Y-330864D01*
X302279Y-331414D01*
X301577Y-332064D01*
X301075Y-332814D01*
X300774Y-333664D01*
X300674Y-334614D01*
Y-314614D01*
X300774Y-315564D01*
D02*
G37*
G36*
X884838Y-329678D02*
X884025Y-329153D01*
X883105Y-328876D01*
X882077Y-328848D01*
X880942Y-329068D01*
X879698Y-329537D01*
X878348Y-330254D01*
X876889Y-331219D01*
X875323Y-332434D01*
X873650Y-333896D01*
X871868Y-335607D01*
X864346Y-328987D01*
X866033Y-327229D01*
X868635Y-324064D01*
X869549Y-322657D01*
X870206Y-321366D01*
X870606Y-320191D01*
X870748Y-319134D01*
X870633Y-318193D01*
X870260Y-317368D01*
X869630Y-316660D01*
X884838Y-329678D01*
D02*
G37*
G36*
X724154Y-191784D02*
X724250Y-191800D01*
X724154D01*
Y-195834D01*
X737362Y-209042D01*
X766572Y-238252D01*
Y-292354D01*
Y-300482D01*
X766064Y-300990D01*
X764540Y-302514D01*
X743458D01*
X740918Y-299974D01*
Y-290576D01*
Y-229108D01*
X726821Y-215011D01*
Y-214630D01*
X726440D01*
X722122Y-210312D01*
X708914D01*
X708660Y-210058D01*
X707390Y-208788D01*
Y-207772D01*
Y-179070D01*
X724154D01*
Y-191784D01*
D02*
G37*
G36*
X295648Y-255847D02*
X295100Y-256147D01*
X294616Y-256647D01*
X294197Y-257348D01*
X293842Y-258248D01*
X293552Y-259347D01*
X293326Y-260648D01*
X293165Y-262148D01*
X293157Y-262365D01*
X293236Y-263260D01*
X293486Y-264765D01*
X293836Y-266069D01*
X294286Y-267172D01*
X294836Y-268075D01*
X295486Y-268777D01*
X296236Y-269279D01*
X297086Y-269580D01*
X298036Y-269680D01*
X278036D01*
X278986Y-269580D01*
X279836Y-269279D01*
X280586Y-268777D01*
X281236Y-268075D01*
X281786Y-267172D01*
X282236Y-266069D01*
X282586Y-264765D01*
X282836Y-263260D01*
X282899Y-262546D01*
X282746Y-260648D01*
X282520Y-259347D01*
X282230Y-258248D01*
X281875Y-257348D01*
X281456Y-256647D01*
X280972Y-256147D01*
X280424Y-255847D01*
X279811Y-255748D01*
X296261D01*
X295648Y-255847D01*
D02*
G37*
G36*
X476843Y-268399D02*
X476118Y-267787D01*
X475233Y-267239D01*
X474188Y-266755D01*
X472984Y-266336D01*
X471621Y-265982D01*
X470097Y-265692D01*
X468414Y-265466D01*
X464570Y-265208D01*
X462408Y-265176D01*
Y-262636D01*
X464570Y-262604D01*
X470097Y-262120D01*
X471621Y-261830D01*
X472984Y-261476D01*
X474188Y-261057D01*
X475233Y-260573D01*
X476118Y-260025D01*
X476843Y-259413D01*
Y-268399D01*
D02*
G37*
G36*
X647881Y-244091D02*
X647669Y-244790D01*
X647672Y-245596D01*
X647890Y-246511D01*
X648324Y-247535D01*
X648974Y-248666D01*
X649839Y-249907D01*
X650920Y-251255D01*
X653728Y-254277D01*
X648339Y-259666D01*
X646774Y-258154D01*
X643969Y-255777D01*
X642729Y-254912D01*
X641597Y-254262D01*
X640573Y-253828D01*
X639658Y-253610D01*
X638852Y-253607D01*
X638153Y-253819D01*
X637563Y-254247D01*
X648309Y-243501D01*
X647881Y-244091D01*
D02*
G37*
G36*
X477968Y-292166D02*
X477801Y-291997D01*
X477592Y-291906D01*
X477340Y-291894D01*
X477045Y-291959D01*
X476707Y-292103D01*
X476326Y-292324D01*
X475903Y-292624D01*
X475437Y-293002D01*
X474375Y-293993D01*
X473214Y-291562D01*
X473692Y-291066D01*
X474451Y-290166D01*
X474732Y-289762D01*
X474947Y-289387D01*
X475097Y-289043D01*
X475181Y-288730D01*
X475200Y-288446D01*
X475153Y-288193D01*
X475041Y-287969D01*
X477968Y-292166D01*
D02*
G37*
G36*
X658422Y-276904D02*
X658536Y-278205D01*
X658727Y-279352D01*
X658994Y-280347D01*
X659336Y-281188D01*
X659756Y-281877D01*
X660251Y-282412D01*
X660822Y-282795D01*
X661470Y-283025D01*
X662194Y-283101D01*
X646954D01*
X647678Y-283025D01*
X648326Y-282795D01*
X648897Y-282412D01*
X649392Y-281877D01*
X649811Y-281188D01*
X650154Y-280347D01*
X650421Y-279352D01*
X650612Y-278205D01*
X650726Y-276904D01*
X650764Y-275450D01*
X658384D01*
X658422Y-276904D01*
D02*
G37*
G36*
X873244Y-273632D02*
X873115Y-272686D01*
X872726Y-271839D01*
X872078Y-271092D01*
X871171Y-270445D01*
X870006Y-269897D01*
X868581Y-269449D01*
X866897Y-269100D01*
X864954Y-268851D01*
X862752Y-268702D01*
X860290Y-268652D01*
Y-258652D01*
X862752Y-258602D01*
X866897Y-258204D01*
X868581Y-257855D01*
X870006Y-257407D01*
X871171Y-256859D01*
X872078Y-256212D01*
X872726Y-255465D01*
X873115Y-254618D01*
X873244Y-253672D01*
Y-273632D01*
D02*
G37*
G36*
X867728Y-89081D02*
X867994Y-88605D01*
X868105Y-88179D01*
X868061Y-87802D01*
X867862Y-87477D01*
X867508Y-87201D01*
X866999Y-86975D01*
X866335Y-86800D01*
X865516Y-86674D01*
X864542Y-86599D01*
X863413Y-86574D01*
X866508Y-81574D01*
X867734Y-81549D01*
X869906Y-81351D01*
X870851Y-81178D01*
X871704Y-80955D01*
X872463Y-80683D01*
X873128Y-80362D01*
X873701Y-79991D01*
X874180Y-79570D01*
X874565Y-79100D01*
X867728Y-89081D01*
D02*
G37*
G36*
X840248Y-81574D02*
Y-86574D01*
X835248Y-86583D01*
Y-81565D01*
X840248Y-81574D01*
D02*
G37*
G36*
X640850Y-80747D02*
X640680Y-80997D01*
X640530Y-81283D01*
X640400Y-81605D01*
X640290Y-81963D01*
X640200Y-82357D01*
X640130Y-82787D01*
X640080Y-83252D01*
X640040Y-84292D01*
X635040D01*
X635030Y-83754D01*
X634950Y-82787D01*
X634880Y-82357D01*
X634790Y-81963D01*
X634680Y-81605D01*
X634550Y-81283D01*
X634400Y-80997D01*
X634230Y-80747D01*
X634040Y-80533D01*
X641040D01*
X640850Y-80747D01*
D02*
G37*
G36*
X218598Y-99187D02*
X218498Y-99003D01*
X218199Y-98838D01*
X217698Y-98693D01*
X216999Y-98567D01*
X216098Y-98460D01*
X213699Y-98305D01*
X208598Y-98218D01*
Y-88218D01*
X210499Y-88208D01*
X217698Y-87743D01*
X218199Y-87598D01*
X218498Y-87433D01*
X218598Y-87249D01*
Y-99187D01*
D02*
G37*
G36*
X678711Y-87439D02*
X678901Y-87860D01*
X679217Y-88232D01*
X679659Y-88555D01*
X680229Y-88828D01*
X680924Y-89051D01*
X681746Y-89225D01*
X682695Y-89349D01*
X683770Y-89423D01*
X684971Y-89448D01*
Y-94448D01*
X683770Y-94473D01*
X681746Y-94671D01*
X680924Y-94845D01*
X680229Y-95068D01*
X679659Y-95341D01*
X679217Y-95663D01*
X678901Y-96036D01*
X678711Y-96457D01*
X678648Y-96929D01*
Y-86967D01*
X678711Y-87439D01*
D02*
G37*
G36*
X841822Y-100342D02*
X841615Y-100139D01*
X841371Y-99958D01*
X841090Y-99797D01*
X840772Y-99658D01*
X840418Y-99541D01*
X840028Y-99445D01*
X839601Y-99370D01*
X839137Y-99317D01*
X838194Y-99278D01*
X835248Y-99284D01*
Y-94264D01*
X838579Y-94271D01*
X838932Y-94265D01*
X839902Y-94191D01*
X840334Y-94126D01*
X840731Y-94043D01*
X841091Y-93942D01*
X841416Y-93822D01*
X841706Y-93683D01*
X841960Y-93526D01*
X842178Y-93351D01*
X841822Y-100342D01*
D02*
G37*
G36*
X788178Y-68874D02*
Y-73874D01*
X783178Y-73884D01*
Y-68864D01*
X788178Y-68874D01*
D02*
G37*
G36*
X201982Y-30783D02*
X202085Y-31114D01*
X202259Y-31490D01*
X202504Y-31909D01*
X202819Y-32372D01*
X203204Y-32878D01*
X204187Y-34022D01*
X205452Y-35341D01*
X198381Y-42412D01*
X197700Y-41744D01*
X195412Y-39779D01*
X194949Y-39464D01*
X194530Y-39219D01*
X194154Y-39045D01*
X193823Y-38942D01*
X193535Y-38910D01*
X201950Y-30495D01*
X201982Y-30783D01*
D02*
G37*
G36*
X919734Y-49530D02*
X913384Y-55880D01*
X911352Y-57912D01*
X870204D01*
X861314Y-49022D01*
X833882Y-21590D01*
X752348D01*
X722884Y-51054D01*
X714248Y-59690D01*
X431800D01*
X397764Y-25654D01*
X396240Y-24130D01*
X313436D01*
X305562Y-32004D01*
X301244Y-36322D01*
Y-42926D01*
Y-62484D01*
X308356Y-69596D01*
X318516Y-79756D01*
X337820D01*
X339852Y-81788D01*
Y-99568D01*
X337820Y-101600D01*
X332723D01*
X332588Y-101930D01*
X332321Y-102921D01*
X332130Y-104064D01*
X332016Y-105359D01*
X331978Y-106807D01*
X324358D01*
X324320Y-105359D01*
X324206Y-104064D01*
X324015Y-102921D01*
X323748Y-101930D01*
X323613Y-101600D01*
X287782D01*
X276352Y-90170D01*
X275844Y-89662D01*
Y-55118D01*
Y-3626D01*
X415614D01*
X443484Y-31496D01*
X451358Y-39370D01*
X696214D01*
X731958Y-3626D01*
X919734D01*
Y-49530D01*
D02*
G37*
G36*
X779923Y-38862D02*
X780897Y-38902D01*
X780603Y-43902D01*
X780064Y-43911D01*
X779923Y-43922D01*
Y-46402D01*
X779873Y-45927D01*
X779722Y-45502D01*
X779470Y-45127D01*
X779118Y-44802D01*
X778665Y-44527D01*
X778112Y-44302D01*
X777885Y-44241D01*
X777580Y-44354D01*
X777290Y-44493D01*
X777036Y-44650D01*
X776818Y-44825D01*
X776859Y-44028D01*
X776703Y-44002D01*
X775848Y-43927D01*
X774893Y-43902D01*
Y-38902D01*
X775848Y-38877D01*
X776703Y-38802D01*
X777128Y-38732D01*
X777174Y-37834D01*
X777381Y-38037D01*
X777625Y-38218D01*
X777906Y-38379D01*
X778151Y-38486D01*
X778665Y-38277D01*
X779118Y-38002D01*
X779470Y-37677D01*
X779722Y-37302D01*
X779873Y-36877D01*
X779923Y-36402D01*
Y-38862D01*
D02*
G37*
G36*
X840248Y-68874D02*
Y-73874D01*
X835248Y-73884D01*
Y-68864D01*
X840248Y-68874D01*
D02*
G37*
G36*
X821908Y-34252D02*
X822136Y-34900D01*
X822517Y-35471D01*
X823051Y-35966D01*
X823736Y-36386D01*
X824575Y-36728D01*
X825565Y-36995D01*
X826708Y-37186D01*
X828004Y-37300D01*
X829452Y-37338D01*
Y-44958D01*
X828004Y-44996D01*
X826708Y-45110D01*
X825565Y-45301D01*
X824575Y-45568D01*
X823736Y-45911D01*
X823051Y-46330D01*
X822517Y-46825D01*
X822136Y-47396D01*
X821908Y-48044D01*
X821832Y-48768D01*
Y-33528D01*
X821908Y-34252D01*
D02*
G37*
G36*
X218598Y-48387D02*
X218498Y-48203D01*
X218199Y-48038D01*
X217698Y-47893D01*
X216999Y-47767D01*
X216098Y-47660D01*
X213699Y-47505D01*
X208598Y-47418D01*
Y-37418D01*
X210499Y-37408D01*
X217698Y-36943D01*
X218199Y-36798D01*
X218498Y-36633D01*
X218598Y-36449D01*
Y-48387D01*
D02*
G37*
G36*
X902150Y-138232D02*
X902321Y-138656D01*
X902605Y-139029D01*
X903002Y-139352D01*
X903513Y-139626D01*
X904138Y-139850D01*
X904876Y-140024D01*
X905727Y-140148D01*
X906693Y-140223D01*
X907772Y-140248D01*
Y-145248D01*
X906693Y-145273D01*
X905727Y-145347D01*
X904876Y-145472D01*
X904138Y-145646D01*
X903513Y-145870D01*
X903002Y-146144D01*
X902605Y-146467D01*
X902321Y-146840D01*
X902150Y-147263D01*
X902093Y-147736D01*
Y-137760D01*
X902150Y-138232D01*
D02*
G37*
G36*
X736026Y-140619D02*
X735988Y-140389D01*
X735876Y-140183D01*
X735689Y-140001D01*
X735427Y-139843D01*
X735090Y-139709D01*
X734678Y-139600D01*
X734191Y-139515D01*
X733630Y-139454D01*
X732282Y-139406D01*
Y-134406D01*
X732993Y-134394D01*
X734191Y-134297D01*
X734678Y-134212D01*
X735090Y-134103D01*
X735427Y-133969D01*
X735689Y-133811D01*
X735876Y-133629D01*
X735988Y-133423D01*
X736026Y-133193D01*
Y-140619D01*
D02*
G37*
G36*
X595830Y-131029D02*
X595903Y-131316D01*
X596014Y-131615D01*
X596163Y-131927D01*
X596349Y-132252D01*
X596573Y-132589D01*
X596835Y-132939D01*
X597472Y-133676D01*
X597848Y-134064D01*
X594607Y-137894D01*
X594219Y-137522D01*
X593476Y-136903D01*
X593121Y-136656D01*
X592776Y-136450D01*
X592442Y-136286D01*
X592119Y-136164D01*
X591806Y-136084D01*
X591504Y-136045D01*
X591213Y-136047D01*
X595794Y-130755D01*
X595830Y-131029D01*
D02*
G37*
G36*
X373888Y-44450D02*
X403860Y-74422D01*
X606298D01*
X644906Y-113030D01*
X650240Y-118364D01*
X698500D01*
X717550Y-137414D01*
X729234Y-149098D01*
X755650D01*
X758698Y-146050D01*
X764032Y-140716D01*
Y-132588D01*
Y-128778D01*
X768096Y-124714D01*
X770128Y-122682D01*
X783844D01*
X788924Y-117602D01*
X790448Y-116078D01*
Y-102108D01*
Y-92710D01*
X787400Y-89662D01*
X784352Y-86614D01*
X772160D01*
X769874Y-84328D01*
X770890Y-83312D01*
Y-82550D01*
X783178D01*
Y-81565D01*
X788162Y-81574D01*
Y-82550D01*
X790194D01*
X793496Y-85852D01*
X800354Y-92710D01*
Y-156464D01*
Y-164084D01*
X796036Y-168402D01*
X793750Y-170688D01*
X710692D01*
X694944Y-154940D01*
X692150Y-152146D01*
Y-142494D01*
Y-141986D01*
X687324Y-137160D01*
X685292Y-135128D01*
X630936D01*
X600710Y-104902D01*
X598170Y-102362D01*
X432562D01*
X406400Y-128524D01*
X387604Y-147320D01*
Y-226314D01*
X390652Y-229362D01*
X401828D01*
X403606Y-227584D01*
X405130Y-226060D01*
Y-214122D01*
Y-150622D01*
X414782Y-140970D01*
X421132Y-134620D01*
X479552D01*
X484632Y-139700D01*
X485140Y-140208D01*
Y-155194D01*
Y-156972D01*
X480568Y-161544D01*
X478790Y-163322D01*
X443992D01*
X432054Y-175260D01*
X424434Y-182880D01*
Y-243332D01*
Y-252476D01*
X410464Y-266446D01*
X405130Y-271780D01*
X369570D01*
X368300Y-270510D01*
Y-76708D01*
X354076Y-62484D01*
X352806Y-61214D01*
X318516D01*
X315214Y-57912D01*
X313436Y-56134D01*
Y-44450D01*
Y-36576D01*
X314960Y-35052D01*
X316992Y-33020D01*
X362458D01*
X373888Y-44450D01*
D02*
G37*
G36*
X674748Y-155764D02*
X674324Y-155932D01*
X673951Y-156211D01*
X673627Y-156601D01*
X673353Y-157103D01*
X673129Y-157717D01*
X672954Y-158442D01*
X672830Y-159279D01*
X672755Y-160228D01*
X672730Y-161288D01*
X667730D01*
X667705Y-160228D01*
X667630Y-159279D01*
X667506Y-158442D01*
X667331Y-157717D01*
X667107Y-157103D01*
X666833Y-156601D01*
X666509Y-156211D01*
X666136Y-155932D01*
X665712Y-155764D01*
X665239Y-155709D01*
X675221D01*
X674748Y-155764D01*
D02*
G37*
G36*
X832758Y-143303D02*
X832908Y-143728D01*
X833158Y-144103D01*
X833509Y-144428D01*
X833959Y-144703D01*
X834509Y-144928D01*
X835158Y-145103D01*
X835909Y-145228D01*
X836758Y-145303D01*
X837709Y-145328D01*
Y-150328D01*
X836758Y-150353D01*
X835909Y-150428D01*
X835158Y-150553D01*
X834509Y-150728D01*
X833959Y-150953D01*
X833509Y-151228D01*
X833158Y-151553D01*
X832908Y-151928D01*
X832758Y-152353D01*
X832709Y-152828D01*
Y-142828D01*
X832758Y-143303D01*
D02*
G37*
G36*
X820494Y-129854D02*
X822481Y-131560D01*
X823420Y-132254D01*
X824322Y-132840D01*
X825188Y-133321D01*
X826017Y-133694D01*
X826809Y-133961D01*
X827565Y-134121D01*
X828285Y-134174D01*
X814142D01*
X814784Y-134138D01*
X815284Y-134031D01*
X815640Y-133853D01*
X815854Y-133603D01*
X815925Y-133282D01*
X815854Y-132890D01*
X815640Y-132427D01*
X815284Y-131892D01*
X814784Y-131285D01*
X814142Y-130608D01*
X819446Y-128840D01*
X820494Y-129854D01*
D02*
G37*
G36*
X767999Y-111983D02*
X762999Y-111974D01*
Y-106974D01*
X767999Y-106965D01*
Y-111983D01*
D02*
G37*
G36*
X183452Y-100479D02*
X182784Y-101160D01*
X180819Y-103448D01*
X180504Y-103911D01*
X180259Y-104330D01*
X180085Y-104705D01*
X179982Y-105037D01*
X179950Y-105325D01*
X171535Y-96910D01*
X171823Y-96878D01*
X172155Y-96775D01*
X172530Y-96601D01*
X172949Y-96356D01*
X173412Y-96041D01*
X173918Y-95656D01*
X175062Y-94673D01*
X176381Y-93408D01*
X183452Y-100479D01*
D02*
G37*
G36*
X767999Y-99284D02*
X762999Y-99274D01*
Y-94274D01*
X767999Y-94264D01*
Y-99284D01*
D02*
G37*
G36*
X746491Y-126542D02*
X746566Y-127397D01*
X746691Y-128152D01*
X746866Y-128806D01*
X747091Y-129359D01*
X747366Y-129812D01*
X747691Y-130164D01*
X748066Y-130416D01*
X748491Y-130567D01*
X748966Y-130617D01*
X738966D01*
X739441Y-130567D01*
X739866Y-130416D01*
X740241Y-130164D01*
X740566Y-129812D01*
X740841Y-129359D01*
X741066Y-128806D01*
X741241Y-128152D01*
X741366Y-127397D01*
X741441Y-126542D01*
X741466Y-125587D01*
X746466D01*
X746491Y-126542D01*
D02*
G37*
G36*
X834271Y-112026D02*
X833683Y-112245D01*
X833164Y-112610D01*
X832714Y-113121D01*
X832334Y-113778D01*
X832022Y-114581D01*
X831780Y-115530D01*
X831607Y-116625D01*
X831504Y-117866D01*
X831469Y-119253D01*
X823849D01*
X823814Y-117866D01*
X823711Y-116625D01*
X823538Y-115530D01*
X823296Y-114581D01*
X822984Y-113778D01*
X822604Y-113121D01*
X822154Y-112610D01*
X821635Y-112245D01*
X821047Y-112026D01*
X820389Y-111953D01*
X834929D01*
X834271Y-112026D01*
D02*
G37*
G36*
X581816Y-112450D02*
X582216Y-112790D01*
X582622Y-113090D01*
X583034Y-113350D01*
X583451Y-113570D01*
X583873Y-113750D01*
X584302Y-113890D01*
X584735Y-113990D01*
X585175Y-114050D01*
X585620Y-114070D01*
Y-117070D01*
X585175Y-117090D01*
X584735Y-117150D01*
X584302Y-117250D01*
X583873Y-117390D01*
X583451Y-117570D01*
X583034Y-117790D01*
X582622Y-118050D01*
X582216Y-118350D01*
X581816Y-118690D01*
X581421Y-119070D01*
Y-112070D01*
X581816Y-112450D01*
D02*
G37*
D10*
X777744Y-147828D02*
D03*
X821944D02*
D03*
X474468Y-205486D02*
D03*
X518668D02*
D03*
D11*
X753872Y-289556D02*
D03*
Y-333756D02*
D03*
X287020Y-280414D02*
D03*
Y-324614D02*
D03*
X587248Y-337060D02*
D03*
Y-292860D02*
D03*
D12*
X664591Y-181610D02*
D03*
Y-194310D02*
D03*
Y-207010D02*
D03*
Y-219710D02*
D03*
X716661D02*
D03*
Y-207010D02*
D03*
Y-194310D02*
D03*
Y-181610D02*
D03*
X827659Y-109474D02*
D03*
Y-96774D02*
D03*
Y-84074D02*
D03*
Y-71374D02*
D03*
X775589D02*
D03*
Y-84074D02*
D03*
Y-96774D02*
D03*
Y-109474D02*
D03*
D13*
X757174Y-200936D02*
D03*
Y-249936D02*
D03*
D14*
X701802Y-244602D02*
D03*
X681482D02*
D03*
D15*
X786362Y-41402D02*
D03*
X815362D02*
D03*
D16*
X743966Y-157226D02*
D03*
Y-136906D02*
D03*
D17*
X503682Y-242316D02*
D03*
X480822D02*
D03*
X481330Y-285242D02*
D03*
X504190D02*
D03*
X481330Y-263906D02*
D03*
X504190D02*
D03*
X624078Y-195834D02*
D03*
X601218D02*
D03*
D18*
X288036Y-248158D02*
D03*
Y-215138D02*
D03*
D19*
X226568Y-42418D02*
D03*
Y-93218D02*
D03*
X328168D02*
D03*
Y-42418D02*
D03*
D20*
X542290Y-238318D02*
D03*
Y-278318D02*
D03*
D21*
X654574Y-293040D02*
D03*
Y-342040D02*
D03*
D22*
X465466Y-308864D02*
D03*
Y-321564D02*
D03*
Y-346964D02*
D03*
X514466Y-308864D02*
D03*
Y-321564D02*
D03*
Y-334264D02*
D03*
Y-346964D02*
D03*
D23*
X378206Y-334010D02*
D03*
D24*
Y-246380D02*
D03*
D25*
X635870Y-241808D02*
D03*
D26*
X585870D02*
D03*
D27*
X753872Y-289556D02*
Y-234950D01*
X716661Y-198501D02*
X725170Y-207010D01*
X753872Y-333756D02*
X810444D01*
X816102Y-339414D02*
X860990D01*
X400558Y-332740D02*
X417830D01*
X585870Y-291482D02*
Y-241808D01*
X378206Y-246380D02*
Y-202184D01*
X725170Y-156210D02*
X742950D01*
X707390D02*
X725170D01*
X695960Y-127000D02*
X725170Y-156210D01*
X642366Y-127000D02*
X695960D01*
X742950Y-156210D02*
X743966Y-157226D01*
X607314Y-91948D02*
X642366Y-127000D01*
X798138Y-189414D02*
X816102D01*
X786616Y-200936D02*
X798138Y-189414D01*
X757174Y-200936D02*
X786616D01*
X432054Y-346964D02*
X465466D01*
X417830Y-332740D02*
X432054Y-346964D01*
X378206Y-202184D02*
Y-90932D01*
X433832Y-148082D02*
X470230D01*
X411734Y-170180D02*
X433832Y-148082D01*
X411734Y-231648D02*
Y-170180D01*
X725932Y-207010D02*
X753872Y-234950D01*
X716661Y-198501D02*
Y-194310D01*
X693928Y-226314D02*
X701802Y-234188D01*
X691134Y-223520D02*
X693928Y-226314D01*
X397002Y-246380D02*
X411734Y-231648D01*
X378206Y-246380D02*
X397002D01*
X379476Y-332740D02*
X400558D01*
X576580Y-193040D02*
X579374Y-195834D01*
X601218D01*
X470230Y-91948D02*
X607314D01*
X378206Y-90932D02*
Y-67564D01*
Y-90932D02*
X379222Y-91948D01*
X470230D01*
X691134Y-223520D02*
Y-202184D01*
X701802Y-244602D02*
Y-234188D01*
X716661Y-194310D02*
Y-183642D01*
X816102Y-224028D02*
Y-189414D01*
Y-224028D02*
X855726Y-263652D01*
X887222D01*
X860990Y-339414D02*
X885952Y-314452D01*
X887222D01*
X810444Y-333756D02*
X816102Y-339414D01*
X585870Y-241808D02*
X587248Y-240430D01*
Y-209804D01*
X601218Y-195834D01*
X585870Y-291482D02*
X587248Y-292860D01*
Y-337060D02*
X592228Y-342040D01*
X654574D01*
X514466Y-334264D02*
X517262Y-337060D01*
X587248D01*
X504190Y-285242D02*
X511114Y-278318D01*
X542290D01*
X504190Y-285242D02*
Y-263906D01*
Y-287782D02*
Y-285242D01*
X514466Y-308864D02*
X515112Y-308218D01*
Y-298704D01*
X504190Y-287782D02*
X515112Y-298704D01*
X514466Y-321564D02*
Y-308864D01*
Y-334264D02*
Y-321564D01*
Y-346964D02*
Y-334264D01*
X378206Y-334010D02*
X379476Y-332740D01*
X353060Y-42418D02*
X378206Y-67564D01*
X328168Y-42418D02*
X353060D01*
X368810Y-324614D02*
X378206Y-334010D01*
X287020Y-324614D02*
X368810D01*
X287020Y-280414D02*
X288036Y-279398D01*
Y-248158D01*
X193450Y-30410D02*
X205458Y-42418D01*
X226568D01*
X171450Y-105410D02*
X183642Y-93218D01*
X226568D01*
D28*
X624078Y-230016D02*
Y-195834D01*
X562864Y-173990D02*
X612394D01*
X531368Y-205486D02*
X562864Y-173990D01*
X518668Y-205486D02*
X531368D01*
X444246Y-47752D02*
X706628D01*
X740664Y-13716D01*
X827659Y-119253D02*
X828294Y-119888D01*
X827659Y-119253D02*
Y-109474D01*
X857758Y-13716D02*
X885190Y-41148D01*
X740664Y-13716D02*
X857758D01*
X304800Y-11176D02*
X407670D01*
X444246Y-47752D01*
X290068Y-25908D02*
X304800Y-11176D01*
X290068Y-77724D02*
Y-25908D01*
X289560Y-78232D02*
X290068Y-77724D01*
X289560Y-78232D02*
X304546Y-93218D01*
X328168D01*
X815362Y-41402D02*
X815616Y-41148D01*
X885190D01*
X624078Y-195834D02*
Y-185674D01*
X612394Y-173990D02*
X624078Y-185674D01*
Y-230016D02*
X635870Y-241808D01*
X654574Y-260512D01*
Y-293040D02*
Y-260512D01*
X288036Y-215138D02*
X328168Y-175006D01*
Y-93218D01*
D29*
X474216Y-210056D02*
Y-198628D01*
X703834Y-108458D02*
X732282Y-136906D01*
X656590Y-108458D02*
X703834D01*
X637540Y-89408D02*
X656590Y-108458D01*
X591312Y-131064D02*
X641604Y-181356D01*
Y-209296D02*
Y-181356D01*
Y-209296D02*
X652018Y-219710D01*
X664591D01*
X810006Y-122936D02*
Y-82804D01*
X798576Y-71374D02*
X810006Y-82804D01*
X775589Y-71374D02*
X798576D01*
X810006Y-122936D02*
X821944Y-134874D01*
Y-147828D02*
Y-134874D01*
X637540Y-89408D02*
Y-76962D01*
X725170Y-207010D02*
X725932D01*
X716661D02*
X725170D01*
X732282Y-136906D02*
X743966D01*
X590804Y-131064D02*
X591312D01*
X743966Y-123444D02*
X757936Y-109474D01*
X743966Y-136906D02*
Y-123444D01*
X768346Y-157226D02*
X777744Y-147828D01*
X743966Y-157226D02*
X768346D01*
X716788Y-96774D02*
X775589D01*
X796798Y-128774D02*
Y-92710D01*
X777744Y-147828D02*
X796798Y-128774D01*
X773430Y-41148D02*
X773684Y-41402D01*
X786362D01*
X845312Y-96774D02*
X845566Y-97028D01*
X827659Y-96774D02*
X845312D01*
X948690Y-121412D02*
Y-75184D01*
X927354Y-142748D02*
X948690Y-121412D01*
X885190Y-142748D02*
X927354D01*
X940054Y-66548D02*
X948690Y-75184D01*
X852424Y-66548D02*
X940054D01*
X847598Y-71374D02*
X852424Y-66548D01*
X827659Y-71374D02*
X847598D01*
X877316Y-84074D02*
X885190Y-91948D01*
X827659Y-84074D02*
X877316D01*
X757936Y-109474D02*
X775589D01*
X839470Y-147828D02*
X885190Y-193548D01*
X821944Y-147828D02*
X839470D01*
X788162Y-84074D02*
X796798Y-92710D01*
X775589Y-84074D02*
X788162D01*
X670230Y-91948D02*
X711962D01*
X716788Y-96774D01*
X683260Y-194310D02*
X691134Y-202184D01*
X664591Y-194310D02*
X683260D01*
X664591Y-227711D02*
X681482Y-244602D01*
X664591Y-227711D02*
Y-219710D01*
X670230Y-166700D02*
Y-148082D01*
X664591Y-172339D02*
X670230Y-166700D01*
X664591Y-181610D02*
Y-172339D01*
X503682Y-242316D02*
Y-239522D01*
X474216Y-210056D02*
X503682Y-239522D01*
X538292Y-242316D02*
X542290Y-238318D01*
X503682Y-242316D02*
X538292D01*
D30*
X592328Y-115570D02*
X650240Y-173482D01*
Y-201676D02*
Y-173482D01*
Y-201676D02*
X655574Y-207010D01*
X664591D01*
X577850Y-115570D02*
X592328D01*
D31*
X450088Y-263906D02*
X481330D01*
X442468Y-271526D02*
X450088Y-263906D01*
X442468Y-311912D02*
Y-271526D01*
X452120Y-321564D02*
X465466D01*
X442468Y-311912D02*
X452120Y-321564D01*
X465466Y-308864D02*
Y-301106D01*
X481330Y-285242D01*
D32*
X480822Y-263398D02*
X481330Y-263906D01*
X480822Y-263398D02*
Y-242316D01*
D33*
X816102Y-339414D02*
D03*
X492252Y-19558D02*
D03*
X517652D02*
D03*
X543052D02*
D03*
X568452D02*
D03*
X593852D02*
D03*
X619252D02*
D03*
X644652D02*
D03*
X216224Y-287274D02*
D03*
D34*
X816102Y-189414D02*
D03*
D35*
X470230Y-148082D02*
D03*
X670230D02*
D03*
X470230Y-91948D02*
D03*
X670230D02*
D03*
D36*
X887222Y-314452D02*
D03*
Y-263652D02*
D03*
X885190Y-193548D02*
D03*
Y-41148D02*
D03*
Y-91948D02*
D03*
Y-142748D02*
D03*
X106680Y-83566D02*
D03*
Y-32766D02*
D03*
D37*
X670052Y-19558D02*
D03*
X66224Y-287274D02*
D03*
D38*
X258196Y-189738D02*
D03*
X20696D02*
D03*
D39*
X171450Y-105410D02*
D03*
X193450Y-30410D02*
D03*
D40*
X797052Y-333502D02*
D03*
X834136Y-339344D02*
D03*
X416814Y-332994D02*
D03*
X378206Y-202184D02*
D03*
X586232Y-274320D02*
D03*
Y-258572D02*
D03*
X693928Y-226314D02*
D03*
X400558Y-332740D02*
D03*
X707390Y-156210D02*
D03*
X637540Y-76962D02*
D03*
X576580Y-193040D02*
D03*
X577850Y-115570D02*
D03*
X590804Y-131064D02*
D03*
X828294Y-119888D02*
D03*
X773430Y-41148D02*
D03*
X845566Y-97028D02*
D03*
X623824Y-212852D02*
D03*
X377698Y-216408D02*
D03*
M02*
