G04 Layer_Color=32896*
%FSLAX44Y44*%
%MOMM*%
G71*
G01*
G75*
%ADD43C,0.1000*%
%ADD44C,0.2000*%
%ADD45C,0.1270*%
%ADD46C,0.1778*%
%ADD77C,0.2500*%
D43*
X536513Y-41484D02*
X537513Y-40484D01*
X539512D01*
X540512Y-41484D01*
Y-45482D01*
X539512Y-46482D01*
X537513D01*
X536513Y-45482D01*
X534514Y-46482D02*
X532515D01*
X533514D01*
Y-40484D01*
X534514Y-41484D01*
X529516Y-46482D02*
X527516D01*
X528516D01*
Y-40484D01*
X529516Y-41484D01*
X574613Y-181438D02*
X575613Y-180438D01*
X577612D01*
X578612Y-181438D01*
Y-185436D01*
X577612Y-186436D01*
X575613D01*
X574613Y-185436D01*
X572614D02*
X571614Y-186436D01*
X569615D01*
X568615Y-185436D01*
Y-181438D01*
X569615Y-180438D01*
X571614D01*
X572614Y-181438D01*
Y-182437D01*
X571614Y-183437D01*
X568615D01*
X540323Y-60788D02*
X541323Y-59788D01*
X543322D01*
X544322Y-60788D01*
Y-64786D01*
X543322Y-65786D01*
X541323D01*
X540323Y-64786D01*
X538324Y-65786D02*
X536325D01*
X537324D01*
Y-59788D01*
X538324Y-60788D01*
X533326D02*
X532326Y-59788D01*
X530326D01*
X529327Y-60788D01*
Y-64786D01*
X530326Y-65786D01*
X532326D01*
X533326Y-64786D01*
Y-60788D01*
X575310Y-92764D02*
Y-97762D01*
X574310Y-98762D01*
X572311D01*
X571311Y-97762D01*
Y-92764D01*
X566313Y-98762D02*
Y-92764D01*
X569312Y-95763D01*
X565313D01*
D44*
X500408Y-136384D02*
X567408D01*
X500408Y-108384D02*
X567408D01*
Y-136384D02*
Y-108384D01*
X500408Y-136384D02*
Y-108384D01*
D45*
X955802Y-259243D02*
Y-269240D01*
X949137D01*
X939141Y-259243D02*
X945805D01*
Y-269240D01*
X939141D01*
X945805Y-264242D02*
X942473D01*
X935808Y-259243D02*
Y-269240D01*
X930810D01*
X929144Y-267574D01*
Y-260909D01*
X930810Y-259243D01*
X935808D01*
X925812Y-264242D02*
X919147D01*
X955802Y-311313D02*
Y-321310D01*
X949137D01*
X939141Y-311313D02*
X945805D01*
Y-321310D01*
X939141D01*
X945805Y-316312D02*
X942473D01*
X935808Y-311313D02*
Y-321310D01*
X930810D01*
X929144Y-319644D01*
Y-312979D01*
X930810Y-311313D01*
X935808D01*
X925812Y-316312D02*
X919147D01*
X922479Y-312979D02*
Y-319644D01*
X955802Y-190409D02*
Y-200406D01*
X949137D01*
X939141Y-190409D02*
X945805D01*
Y-200406D01*
X939141D01*
X945805Y-195408D02*
X942473D01*
X935808Y-190409D02*
Y-200406D01*
X930810D01*
X929144Y-198740D01*
Y-192075D01*
X930810Y-190409D01*
X935808D01*
X925812Y-192075D02*
X924146Y-190409D01*
X920813D01*
X919147Y-192075D01*
Y-193741D01*
X920813Y-195408D01*
X922479D01*
X920813D01*
X919147Y-197074D01*
Y-198740D01*
X920813Y-200406D01*
X924146D01*
X925812Y-198740D01*
X955802Y-138847D02*
Y-148844D01*
X949137D01*
X939141Y-138847D02*
X945805D01*
Y-148844D01*
X939141D01*
X945805Y-143846D02*
X942473D01*
X935808Y-138847D02*
Y-148844D01*
X930810D01*
X929144Y-147178D01*
Y-140513D01*
X930810Y-138847D01*
X935808D01*
X919147Y-148844D02*
X925812D01*
X919147Y-142179D01*
Y-140513D01*
X920813Y-138847D01*
X924146D01*
X925812Y-140513D01*
X955802Y-87539D02*
Y-97536D01*
X949137D01*
X939141Y-87539D02*
X945805D01*
Y-97536D01*
X939141D01*
X945805Y-92538D02*
X942473D01*
X935808Y-87539D02*
Y-97536D01*
X930810D01*
X929144Y-95870D01*
Y-89205D01*
X930810Y-87539D01*
X935808D01*
X925812Y-97536D02*
X922479D01*
X924146D01*
Y-87539D01*
X925812Y-89205D01*
X955802Y-37501D02*
Y-44166D01*
X952470Y-47498D01*
X949137Y-44166D01*
Y-37501D01*
X945805D02*
Y-47498D01*
X940807D01*
X939141Y-45832D01*
Y-39167D01*
X940807Y-37501D01*
X945805D01*
X929144Y-39167D02*
X930810Y-37501D01*
X934142D01*
X935808Y-39167D01*
Y-45832D01*
X934142Y-47498D01*
X930810D01*
X929144Y-45832D01*
D46*
X486156Y-52578D02*
X494792D01*
X486156D02*
Y-42418D01*
Y-32258D01*
X494792D01*
X515112D02*
X523748D01*
Y-42418D02*
Y-32258D01*
Y-52578D02*
Y-42418D01*
X515112Y-52578D02*
X523748D01*
X526796Y-195072D02*
X535432D01*
X526796D02*
Y-184912D01*
Y-174752D01*
X535432D01*
X555752D02*
X564388D01*
Y-184912D02*
Y-174752D01*
Y-195072D02*
Y-184912D01*
X555752Y-195072D02*
X564388D01*
X486156Y-75946D02*
X494792D01*
X486156D02*
Y-65786D01*
Y-55626D01*
X494792D01*
X515112D02*
X523748D01*
Y-65786D02*
Y-55626D01*
Y-75946D02*
Y-65786D01*
X515112Y-75946D02*
X523748D01*
D77*
X568658Y-151384D02*
G03*
X568658Y-151384I-1250J0D01*
G01*
M02*
