G04 Layer_Physical_Order=2*
G04 Layer_Color=16711680*
%FSLAX44Y44*%
%MOMM*%
G71*
G01*
G75*
%ADD14R,1.2700X1.6002*%
%ADD27C,1.0000*%
%ADD28C,0.7620*%
%ADD29C,0.5000*%
%ADD30C,0.3000*%
%ADD33C,1.5000*%
%ADD34R,1.5000X1.5000*%
%ADD35O,2.0320X1.6510*%
%ADD36O,3.5560X3.0480*%
%ADD37R,1.5000X1.5000*%
%ADD38C,2.5000*%
%ADD39C,1.7000*%
%ADD40C,1.0000*%
%ADD41R,1.0000X2.4000*%
%ADD42R,3.3000X2.4000*%
G36*
X515657Y-163430D02*
X515460Y-163658D01*
X515286Y-164039D01*
X515135Y-164573D01*
X515008Y-165259D01*
X514903Y-166097D01*
X514764Y-168230D01*
X514718Y-170973D01*
X507098D01*
X507086Y-169526D01*
X506808Y-165259D01*
X506681Y-164573D01*
X506530Y-164039D01*
X506356Y-163658D01*
X506159Y-163430D01*
X505938Y-163354D01*
X515877D01*
X515657Y-163430D01*
D02*
G37*
G36*
X560765Y-168841D02*
X561227Y-175341D01*
X561399Y-176042D01*
X561596Y-176542D01*
X561821Y-176842D01*
X562071Y-176942D01*
X549432D01*
X549683Y-176842D01*
X549907Y-176542D01*
X550105Y-176042D01*
X550277Y-175341D01*
X550422Y-174442D01*
X550633Y-172041D01*
X550739Y-168841D01*
X550752Y-166942D01*
X560752D01*
X560765Y-168841D01*
D02*
G37*
G36*
X25733Y-172026D02*
X25846Y-173216D01*
X26033Y-174353D01*
X26296Y-175436D01*
X26634Y-176466D01*
X27046Y-177442D01*
X27534Y-178365D01*
X28096Y-179234D01*
X28733Y-180049D01*
X29446Y-180811D01*
X11946D01*
X12658Y-180049D01*
X13296Y-179234D01*
X13858Y-178365D01*
X14346Y-177442D01*
X14758Y-176466D01*
X15096Y-175436D01*
X15359Y-174353D01*
X15546Y-173216D01*
X15659Y-172026D01*
X15696Y-170782D01*
X25696D01*
X25733Y-172026D01*
D02*
G37*
G36*
X536433Y-135365D02*
X536507Y-136215D01*
X536630Y-136965D01*
X536803Y-137614D01*
X537025Y-138165D01*
X537297Y-138615D01*
X537618Y-138965D01*
X537989Y-139214D01*
X538408Y-139365D01*
X538877Y-139415D01*
X528938D01*
X529408Y-139365D01*
X529827Y-139214D01*
X530198Y-138965D01*
X530519Y-138615D01*
X530791Y-138165D01*
X531013Y-137614D01*
X531186Y-136965D01*
X531309Y-136215D01*
X531383Y-135365D01*
X531408Y-134415D01*
X536408D01*
X536433Y-135365D01*
D02*
G37*
G36*
X179982Y-105783D02*
X180085Y-106115D01*
X180259Y-106490D01*
X180504Y-106909D01*
X180819Y-107372D01*
X181204Y-107878D01*
X182187Y-109022D01*
X183452Y-110341D01*
X176381Y-117412D01*
X175700Y-116744D01*
X173412Y-114779D01*
X172949Y-114464D01*
X172530Y-114219D01*
X172155Y-114045D01*
X171823Y-113942D01*
X171535Y-113910D01*
X179950Y-105495D01*
X179982Y-105783D01*
D02*
G37*
G36*
X824189Y-113634D02*
X824542Y-113902D01*
X824920Y-114138D01*
X825322Y-114342D01*
X825748Y-114514D01*
X826198Y-114653D01*
X826673Y-114760D01*
X827172Y-114835D01*
X827696Y-114878D01*
X828244Y-114888D01*
X823294Y-119838D01*
X823284Y-119290D01*
X823241Y-118766D01*
X823166Y-118267D01*
X823059Y-117792D01*
X822919Y-117342D01*
X822748Y-116916D01*
X822544Y-116514D01*
X822308Y-116137D01*
X822040Y-115783D01*
X821739Y-115455D01*
X823861Y-113333D01*
X824189Y-113634D01*
D02*
G37*
G36*
X593314Y-124272D02*
X593394Y-125239D01*
X593464Y-125669D01*
X593554Y-126063D01*
X593664Y-126421D01*
X593794Y-126743D01*
X593944Y-127029D01*
X594114Y-127279D01*
X594304Y-127493D01*
X587304D01*
X587494Y-127279D01*
X587664Y-127029D01*
X587814Y-126743D01*
X587944Y-126421D01*
X588054Y-126063D01*
X588144Y-125669D01*
X588214Y-125239D01*
X588264Y-124774D01*
X588304Y-123734D01*
X593304D01*
X593314Y-124272D01*
D02*
G37*
G36*
X529143Y-192532D02*
X529066Y-191808D01*
X528837Y-191160D01*
X528454Y-190589D01*
X527919Y-190094D01*
X527230Y-189674D01*
X526389Y-189332D01*
X525394Y-189065D01*
X524247Y-188874D01*
X522946Y-188760D01*
X521493Y-188722D01*
Y-181102D01*
X522946Y-181064D01*
X524247Y-180950D01*
X525394Y-180759D01*
X526389Y-180492D01*
X527230Y-180149D01*
X527919Y-179730D01*
X528454Y-179235D01*
X528837Y-178664D01*
X529066Y-178016D01*
X529143Y-177292D01*
Y-192532D01*
D02*
G37*
G36*
X221474Y-281918D02*
X210974D01*
X211021Y-281826D01*
X211064Y-281650D01*
X211101Y-281389D01*
X211161Y-280612D01*
X211222Y-278039D01*
X211224Y-277184D01*
X221224D01*
X221474Y-281918D01*
D02*
G37*
G36*
X407924Y-203708D02*
X451866Y-247650D01*
X590550D01*
X593090Y-250190D01*
X596900Y-254000D01*
Y-257302D01*
Y-281178D01*
X596646Y-281432D01*
X592582Y-285496D01*
X561086D01*
X542544Y-266954D01*
X408686D01*
X379984Y-238252D01*
X363982Y-222250D01*
Y-208534D01*
Y-198882D01*
X366522Y-196342D01*
X368554Y-194310D01*
X398526D01*
X407924Y-203708D01*
D02*
G37*
G36*
X910336Y-295656D02*
X921004Y-306324D01*
Y-326390D01*
Y-355092D01*
X920750Y-355346D01*
X918788Y-357308D01*
X393700D01*
Y-325120D01*
X406908Y-311912D01*
X605536D01*
X610108Y-307340D01*
X623570Y-293878D01*
X908558D01*
X910336Y-295656D01*
D02*
G37*
G36*
X71249Y-271705D02*
X71619Y-276204D01*
X71841Y-277304D01*
X72113Y-278204D01*
X72434Y-278904D01*
X72804Y-279405D01*
X73224Y-279704D01*
X73693Y-279804D01*
X58755D01*
X59224Y-279704D01*
X59644Y-279405D01*
X60014Y-278904D01*
X60335Y-278204D01*
X60607Y-277304D01*
X60829Y-276204D01*
X61002Y-274904D01*
X61199Y-271705D01*
X61224Y-269804D01*
X71224D01*
X71249Y-271705D01*
D02*
G37*
G36*
X249269Y-198488D02*
X248507Y-197775D01*
X247692Y-197138D01*
X246823Y-196576D01*
X245900Y-196088D01*
X244924Y-195676D01*
X243894Y-195338D01*
X242811Y-195075D01*
X241674Y-194888D01*
X240483Y-194776D01*
X239240Y-194738D01*
Y-184738D01*
X240483Y-184701D01*
X241674Y-184588D01*
X242811Y-184401D01*
X243894Y-184138D01*
X244924Y-183801D01*
X245900Y-183388D01*
X246823Y-182901D01*
X247692Y-182338D01*
X248507Y-181700D01*
X249269Y-180988D01*
Y-198488D01*
D02*
G37*
G36*
X541275Y-192959D02*
X540848Y-193187D01*
X540472Y-193568D01*
X540145Y-194102D01*
X539869Y-194788D01*
X539644Y-195626D01*
X539468Y-196616D01*
X539342Y-197759D01*
X539242Y-200502D01*
X531622D01*
X531597Y-199055D01*
X531396Y-196616D01*
X531221Y-195626D01*
X530995Y-194788D01*
X530718Y-194102D01*
X530392Y-193568D01*
X530016Y-193187D01*
X529589Y-192959D01*
X529113Y-192882D01*
X541752D01*
X541275Y-192959D01*
D02*
G37*
G36*
X603504Y-39370D02*
X604520Y-40386D01*
X617728Y-53594D01*
Y-66802D01*
Y-124714D01*
X685800Y-192786D01*
X706374Y-213360D01*
Y-224790D01*
Y-236982D01*
X705358Y-237998D01*
X702818Y-240538D01*
X478028D01*
X472186Y-234696D01*
X455422Y-217932D01*
Y-202438D01*
Y-134620D01*
Y-134366D01*
X456438Y-133350D01*
X483616D01*
X484886Y-134620D01*
X485140Y-134874D01*
Y-150114D01*
Y-191008D01*
X494792Y-200660D01*
X517906Y-223774D01*
X651002D01*
X651764Y-223012D01*
X659384Y-215392D01*
Y-212598D01*
Y-192786D01*
X610108Y-143510D01*
X599694Y-133096D01*
Y-82296D01*
Y-58674D01*
X595630Y-54610D01*
X584962Y-43942D01*
Y-24892D01*
Y-3626D01*
X603504D01*
Y-39370D01*
D02*
G37*
G36*
X579370Y-108245D02*
X579430Y-108685D01*
X579530Y-109118D01*
X579670Y-109547D01*
X579850Y-109969D01*
X580070Y-110386D01*
X580330Y-110798D01*
X580630Y-111204D01*
X580970Y-111604D01*
X581350Y-111999D01*
X574350D01*
X574730Y-111604D01*
X575070Y-111204D01*
X575370Y-110798D01*
X575630Y-110386D01*
X575850Y-109969D01*
X576030Y-109547D01*
X576170Y-109118D01*
X576270Y-108685D01*
X576330Y-108245D01*
X576350Y-107800D01*
X579350D01*
X579370Y-108245D01*
D02*
G37*
G36*
X547589Y-25641D02*
X546390Y-27042D01*
X545902Y-27717D01*
X545490Y-28375D01*
X545152Y-29016D01*
X544889Y-29639D01*
X544702Y-30245D01*
X544590Y-30835D01*
X544552Y-31407D01*
X541552D01*
X541515Y-30835D01*
X541402Y-30245D01*
X541214Y-29639D01*
X540952Y-29016D01*
X540615Y-28375D01*
X540202Y-27717D01*
X539715Y-27042D01*
X539152Y-26350D01*
X537802Y-24914D01*
X548302D01*
X547589Y-25641D01*
D02*
G37*
G36*
X496979Y-25461D02*
X496512Y-26025D01*
X496100Y-26606D01*
X495742Y-27202D01*
X495439Y-27816D01*
X495192Y-28445D01*
X495000Y-29091D01*
X494862Y-29754D01*
X494780Y-30430D01*
X494852Y-31247D01*
X494977Y-31997D01*
X495152Y-32648D01*
X495377Y-33198D01*
X495652Y-33647D01*
X495977Y-33997D01*
X496352Y-34248D01*
X496777Y-34397D01*
X497252Y-34448D01*
X488473D01*
X488716Y-34397D01*
X488933Y-34248D01*
X489125Y-33997D01*
X489291Y-33647D01*
X489432Y-33198D01*
X489547Y-32648D01*
X489637Y-31997D01*
X489729Y-30553D01*
X489725Y-30433D01*
X489642Y-29754D01*
X489505Y-29091D01*
X489312Y-28445D01*
X489064Y-27816D01*
X488762Y-27202D01*
X488405Y-26606D01*
X487992Y-26025D01*
X487524Y-25461D01*
X487002Y-24914D01*
X497502D01*
X496979Y-25461D01*
D02*
G37*
G36*
X187429Y-36410D02*
X187203Y-36233D01*
X186896Y-36075D01*
X186509Y-35936D01*
X186040Y-35815D01*
X185490Y-35712D01*
X184148Y-35564D01*
X182482Y-35489D01*
X181528Y-35480D01*
X181426Y-25480D01*
X182379Y-25470D01*
X185387Y-25238D01*
X185937Y-25131D01*
X186407Y-25005D01*
X186796Y-24859D01*
X187104Y-24694D01*
X187331Y-24510D01*
X187429Y-36410D01*
D02*
G37*
G36*
X573180Y-25461D02*
X572712Y-26025D01*
X572299Y-26606D01*
X571942Y-27202D01*
X571640Y-27816D01*
X571392Y-28445D01*
X571199Y-29091D01*
X571062Y-29754D01*
X570979Y-30433D01*
X570952Y-31129D01*
X565952D01*
X565924Y-30433D01*
X565842Y-29754D01*
X565704Y-29091D01*
X565512Y-28445D01*
X565265Y-27816D01*
X564962Y-27202D01*
X564604Y-26606D01*
X564192Y-26025D01*
X563725Y-25461D01*
X563202Y-24914D01*
X573702D01*
X573180Y-25461D01*
D02*
G37*
G36*
X677521Y-16843D02*
X677612Y-17098D01*
X677764Y-17323D01*
X677976Y-17518D01*
X678249Y-17683D01*
X678582Y-17818D01*
X678976Y-17923D01*
X679430Y-17998D01*
X679946Y-18043D01*
X680521Y-18058D01*
Y-21058D01*
X679946Y-21073D01*
X679430Y-21118D01*
X678976Y-21193D01*
X678582Y-21298D01*
X678249Y-21433D01*
X677976Y-21598D01*
X677764Y-21793D01*
X677612Y-22018D01*
X677521Y-22273D01*
X677491Y-22558D01*
Y-16558D01*
X677521Y-16843D01*
D02*
G37*
G36*
X649855Y-25006D02*
X649812Y-25182D01*
X649774Y-25443D01*
X649715Y-26220D01*
X649654Y-28793D01*
X649652Y-29648D01*
X639652D01*
X639402Y-24914D01*
X649902D01*
X649855Y-25006D01*
D02*
G37*
G36*
X623979Y-25461D02*
X623512Y-26025D01*
X623100Y-26606D01*
X622742Y-27202D01*
X622439Y-27816D01*
X622192Y-28445D01*
X622000Y-29091D01*
X621862Y-29754D01*
X621780Y-30433D01*
X621752Y-31129D01*
X616752D01*
X616725Y-30433D01*
X616642Y-29754D01*
X616505Y-29091D01*
X616312Y-28445D01*
X616064Y-27816D01*
X615762Y-27202D01*
X615405Y-26606D01*
X614992Y-26025D01*
X614524Y-25461D01*
X614002Y-24914D01*
X624502D01*
X623979Y-25461D01*
D02*
G37*
G36*
X118561Y-21449D02*
X119133Y-22295D01*
X119953Y-23041D01*
X121019Y-23688D01*
X122331Y-24236D01*
X123891Y-24684D01*
X125696Y-25032D01*
X127749Y-25281D01*
X130048Y-25430D01*
X132593Y-25480D01*
X134210Y-35480D01*
X131765Y-35530D01*
X127712Y-35929D01*
X126103Y-36277D01*
X124773Y-36726D01*
X123722Y-37274D01*
X122950Y-37922D01*
X122456Y-38670D01*
X122241Y-39517D01*
X122305Y-40464D01*
X118234Y-20503D01*
X118561Y-21449D01*
D02*
G37*
G36*
X92702Y-93546D02*
X92573Y-92600D01*
X92184Y-91753D01*
X91536Y-91006D01*
X90630Y-90359D01*
X89464Y-89811D01*
X88039Y-89363D01*
X86355Y-89014D01*
X84412Y-88765D01*
X82210Y-88616D01*
X79748Y-88566D01*
Y-78566D01*
X82210Y-78516D01*
X86355Y-78118D01*
X88039Y-77769D01*
X89464Y-77321D01*
X90630Y-76773D01*
X91536Y-76126D01*
X92184Y-75379D01*
X92573Y-74532D01*
X92702Y-73586D01*
Y-93546D01*
D02*
G37*
G36*
X517469Y-98384D02*
X517419Y-97909D01*
X517268Y-97484D01*
X517016Y-97109D01*
X516664Y-96784D01*
X516211Y-96509D01*
X515658Y-96284D01*
X515004Y-96109D01*
X514249Y-95984D01*
X513394Y-95909D01*
X512439Y-95884D01*
Y-90884D01*
X513394Y-90859D01*
X514249Y-90784D01*
X515004Y-90659D01*
X515658Y-90484D01*
X516211Y-90259D01*
X516664Y-89984D01*
X517016Y-89659D01*
X517268Y-89284D01*
X517419Y-88859D01*
X517469Y-88384D01*
Y-98384D01*
D02*
G37*
G36*
X538433Y-105403D02*
X538008Y-105554D01*
X537633Y-105803D01*
X537308Y-106153D01*
X537033Y-106603D01*
X536808Y-107154D01*
X536633Y-107803D01*
X536508Y-108553D01*
X536433Y-109403D01*
X536408Y-110353D01*
X531408D01*
X531383Y-109403D01*
X531308Y-108553D01*
X531183Y-107803D01*
X531008Y-107154D01*
X530783Y-106603D01*
X530508Y-106153D01*
X530183Y-105803D01*
X529808Y-105554D01*
X529383Y-105403D01*
X528908Y-105353D01*
X538908D01*
X538433Y-105403D01*
D02*
G37*
G36*
X848076Y-90236D02*
X848156Y-91203D01*
X848226Y-91633D01*
X848316Y-92027D01*
X848426Y-92385D01*
X848556Y-92707D01*
X848706Y-92993D01*
X848876Y-93243D01*
X849066Y-93457D01*
X842066D01*
X842256Y-93243D01*
X842426Y-92993D01*
X842576Y-92707D01*
X842706Y-92385D01*
X842816Y-92027D01*
X842906Y-91633D01*
X842976Y-91203D01*
X843026Y-90738D01*
X843066Y-89698D01*
X848066D01*
X848076Y-90236D01*
D02*
G37*
G36*
X199486Y-36449D02*
X199342Y-36752D01*
X199216Y-37136D01*
X199106Y-37602D01*
X199013Y-38149D01*
X198878Y-39490D01*
X198810Y-41157D01*
X198802Y-42113D01*
X188802Y-42627D01*
X188792Y-41674D01*
X188635Y-39300D01*
X188541Y-38669D01*
X188426Y-38119D01*
X188290Y-37649D01*
X188133Y-37259D01*
X187955Y-36950D01*
X187757Y-36721D01*
X199646Y-36229D01*
X199486Y-36449D01*
D02*
G37*
G36*
X777215Y-37838D02*
X777465Y-38008D01*
X777751Y-38158D01*
X778073Y-38288D01*
X778431Y-38398D01*
X778825Y-38488D01*
X779255Y-38558D01*
X779720Y-38608D01*
X780760Y-38648D01*
Y-43648D01*
X780222Y-43658D01*
X779255Y-43738D01*
X778825Y-43808D01*
X778431Y-43898D01*
X778073Y-44008D01*
X777751Y-44138D01*
X777465Y-44288D01*
X777215Y-44458D01*
X777001Y-44648D01*
Y-37648D01*
X777215Y-37838D01*
D02*
G37*
G36*
X640050Y-70170D02*
X640130Y-71137D01*
X640200Y-71567D01*
X640290Y-71961D01*
X640400Y-72319D01*
X640530Y-72641D01*
X640680Y-72927D01*
X640850Y-73177D01*
X641040Y-73391D01*
X634040D01*
X634230Y-73177D01*
X634400Y-72927D01*
X634550Y-72641D01*
X634680Y-72319D01*
X634790Y-71961D01*
X634880Y-71567D01*
X634950Y-71137D01*
X635000Y-70672D01*
X635040Y-69632D01*
X640040D01*
X640050Y-70170D01*
D02*
G37*
D14*
X494792Y-42418D02*
D03*
X515112D02*
D03*
X535432Y-184912D02*
D03*
X555752D02*
D03*
X494792Y-65786D02*
D03*
X515112D02*
D03*
D27*
X797052Y-332740D02*
X809428D01*
X400558D02*
X797052D01*
X517652Y-63246D02*
Y-19558D01*
X193450Y-30410D02*
X193802Y-30762D01*
Y-46990D02*
Y-30762D01*
X144272Y-96520D02*
X193802Y-46990D01*
X144272Y-151384D02*
Y-96520D01*
X108966Y-30480D02*
X193380D01*
X106680Y-32766D02*
X108966Y-30480D01*
X72898Y-83566D02*
X106680D01*
X20696Y-135768D02*
X72898Y-83566D01*
X20696Y-189738D02*
Y-135768D01*
X608584Y-127508D02*
Y-57404D01*
X593852Y-42672D02*
X608584Y-57404D01*
X593852Y-42672D02*
Y-19558D01*
X513842Y-234188D02*
X686054D01*
X470230Y-190576D02*
X513842Y-234188D01*
X470230Y-190576D02*
Y-148082D01*
X454406Y-258318D02*
X585978D01*
X586232Y-258572D01*
X412496Y-216408D02*
X454406Y-258318D01*
X686054Y-234188D02*
X693928Y-226314D01*
Y-212852D01*
X608584Y-127508D02*
X693928Y-212852D01*
X809428Y-332740D02*
X816102Y-339414D01*
X686562Y-61468D02*
X707390Y-82296D01*
X644652Y-41656D02*
Y-19558D01*
X664464Y-61468D02*
X686562D01*
X644652Y-41656D02*
X664464Y-61468D01*
X707390Y-156210D02*
Y-82296D01*
X563880Y-193040D02*
X576580D01*
X555752Y-184912D02*
X563880Y-193040D01*
X517652Y-63246D02*
X517906Y-62992D01*
X515112Y-65786D02*
X517652Y-63246D01*
X517906Y-62992D02*
X554482D01*
X563880Y-72390D01*
Y-115316D02*
Y-72390D01*
X556908Y-122288D02*
X563880Y-115316D01*
X556908Y-151384D02*
Y-122288D01*
X555752Y-152540D02*
X556908Y-151384D01*
X555752Y-184912D02*
Y-152540D01*
X377698Y-216408D02*
X412496D01*
X216224Y-191008D02*
Y-150184D01*
Y-287274D02*
Y-191008D01*
X217494Y-189738D01*
X258196D01*
X171450Y-105410D02*
X216224Y-150184D01*
X66224Y-287274D02*
Y-229432D01*
X144272Y-151384D01*
D28*
X510908Y-176644D02*
Y-151384D01*
Y-176644D02*
X519176Y-184912D01*
X535432D01*
X546354Y-212852D02*
X623824D01*
X535432Y-201930D02*
X546354Y-212852D01*
X535432Y-201930D02*
Y-184912D01*
D29*
X494792Y-81534D02*
Y-42418D01*
X637540Y-76962D02*
Y-60960D01*
X619252Y-42672D02*
X637540Y-60960D01*
X619252Y-42672D02*
Y-19558D01*
X568452Y-38354D02*
X590804Y-60706D01*
X568452Y-38354D02*
Y-19558D01*
X590804Y-131064D02*
Y-60706D01*
X492252Y-39878D02*
X494792Y-42418D01*
X492252Y-39878D02*
Y-19558D01*
X494284Y-82042D02*
X494792Y-81534D01*
X494284Y-82042D02*
X505626Y-93384D01*
X533908D01*
Y-151384D02*
Y-93384D01*
X845566Y-97028D02*
Y-66294D01*
X820420Y-41148D02*
X845566Y-66294D01*
X773430Y-41148D02*
X820420D01*
D30*
X543052Y-33020D02*
X577850Y-67818D01*
Y-115570D02*
Y-67818D01*
X543052Y-33020D02*
Y-19558D01*
X727964D02*
X828294Y-119888D01*
X670052Y-19558D02*
X727964D01*
D33*
X816102Y-339414D02*
D03*
X492252Y-19558D02*
D03*
X517652D02*
D03*
X543052D02*
D03*
X568452D02*
D03*
X593852D02*
D03*
X619252D02*
D03*
X644652D02*
D03*
X216224Y-287274D02*
D03*
D34*
X816102Y-189414D02*
D03*
D35*
X470230Y-148082D02*
D03*
X670230D02*
D03*
X470230Y-91948D02*
D03*
X670230D02*
D03*
D36*
X887222Y-314452D02*
D03*
Y-263652D02*
D03*
X885190Y-193548D02*
D03*
Y-41148D02*
D03*
Y-91948D02*
D03*
Y-142748D02*
D03*
X106680Y-83566D02*
D03*
Y-32766D02*
D03*
D37*
X670052Y-19558D02*
D03*
X66224Y-287274D02*
D03*
D38*
X258196Y-189738D02*
D03*
X20696D02*
D03*
D39*
X171450Y-105410D02*
D03*
X193450Y-30410D02*
D03*
D40*
X797052Y-333502D02*
D03*
X834136Y-339344D02*
D03*
X416814Y-332994D02*
D03*
X378206Y-202184D02*
D03*
X586232Y-274320D02*
D03*
Y-258572D02*
D03*
X693928Y-226314D02*
D03*
X400558Y-332740D02*
D03*
X707390Y-156210D02*
D03*
X637540Y-76962D02*
D03*
X576580Y-193040D02*
D03*
X577850Y-115570D02*
D03*
X590804Y-131064D02*
D03*
X828294Y-119888D02*
D03*
X773430Y-41148D02*
D03*
X845566Y-97028D02*
D03*
X623824Y-212852D02*
D03*
X377698Y-216408D02*
D03*
D41*
X556908Y-151384D02*
D03*
X533908Y-151384D02*
D03*
X510908Y-151384D02*
D03*
D42*
X533908Y-93384D02*
D03*
M02*
