G04 Layer_Physical_Order=2*
G04 Layer_Color=16711680*
%FSLAX44Y44*%
%MOMM*%
G71*
G01*
G75*
%ADD24C,0.5000*%
%ADD26C,0.2000*%
%ADD27C,1.0000*%
%ADD31C,0.2540*%
%ADD51C,1.5000*%
%ADD52R,1.5000X1.5000*%
%ADD53R,1.5000X1.5000*%
%ADD54O,1.0000X2.0000*%
%ADD55R,1.0000X2.0000*%
%ADD56C,0.6000*%
%ADD57C,0.6600*%
%ADD58C,1.0000*%
%ADD59C,2.0000*%
%ADD60O,10.0000X4.0000*%
%ADD61C,1.7000*%
%ADD62O,6.0000X1.5000*%
%ADD63O,3.0000X3.5000*%
%ADD64C,3.0000*%
%ADD65C,2.0000*%
%ADD66C,1.2000*%
G36*
X1454796Y770097D02*
X1457964Y769135D01*
X1460885Y767574D01*
X1463444Y765474D01*
X1465545Y762914D01*
X1467106Y759994D01*
X1468067Y756825D01*
X1468270Y754766D01*
X1468377Y753530D01*
X1468377Y753530D01*
X1468377Y752282D01*
Y668158D01*
X1468377Y668142D01*
X1468377Y666894D01*
X1468271Y665668D01*
X1468067Y663598D01*
X1467106Y660430D01*
X1465545Y657510D01*
X1463444Y654950D01*
X1460885Y652850D01*
X1458007Y651311D01*
X1457959Y651302D01*
X1410864Y631795D01*
X1409675Y631346D01*
Y631346D01*
X1402297Y627856D01*
X1395297Y623660D01*
X1388742Y618799D01*
X1382695Y613318D01*
X1377214Y607271D01*
X1372352Y600716D01*
X1368157Y593715D01*
X1364667Y586338D01*
X1361918Y578653D01*
X1359935Y570737D01*
X1358737Y562664D01*
X1358337Y554512D01*
X1358377D01*
X1358377Y554512D01*
Y522548D01*
X1358377Y522548D01*
X1358337D01*
X1358737Y514396D01*
X1359935Y506324D01*
X1361918Y498407D01*
X1364667Y490723D01*
X1368157Y483345D01*
X1372352Y476345D01*
X1377214Y469789D01*
X1382695Y463742D01*
X1388742Y458261D01*
X1395297Y453400D01*
X1402297Y449204D01*
X1409675Y445715D01*
X1409675Y445715D01*
X1410864Y445266D01*
X1457959Y425758D01*
X1458007Y425749D01*
X1460885Y424211D01*
X1463444Y422110D01*
X1465545Y419551D01*
X1467106Y416630D01*
X1468067Y413462D01*
X1468270Y411403D01*
X1468377Y410167D01*
X1468377Y410166D01*
X1468377Y408918D01*
Y324795D01*
X1468377Y324778D01*
X1468377Y323530D01*
X1468271Y322304D01*
X1468067Y320235D01*
X1467106Y317066D01*
X1465545Y314146D01*
X1463444Y311586D01*
X1460885Y309486D01*
X1457964Y307925D01*
X1454796Y306964D01*
X1451549Y306644D01*
X1451501Y306653D01*
X591500D01*
X591452Y306644D01*
X588205Y306964D01*
X585036Y307925D01*
X582116Y309486D01*
X579556Y311586D01*
X577456Y314146D01*
X575895Y317066D01*
X574934Y320235D01*
X574614Y323482D01*
X574623Y323530D01*
Y410167D01*
X574614Y410215D01*
X574934Y413462D01*
X575895Y416630D01*
X577456Y419551D01*
X579556Y422110D01*
X582116Y424211D01*
X584994Y425749D01*
X585042Y425758D01*
X632137Y445266D01*
X633325Y445715D01*
X633326Y445715D01*
Y445715D01*
X640703Y449204D01*
X647703Y453400D01*
X654258Y458261D01*
X660306Y463742D01*
X665786Y469789D01*
X670648Y476345D01*
X674844Y483345D01*
X678333Y490723D01*
X681083Y498407D01*
X683066Y506324D01*
X684263Y514396D01*
X684664Y522548D01*
X684624D01*
Y554512D01*
X684664D01*
X684263Y562664D01*
X683066Y570737D01*
X681083Y578653D01*
X678333Y586338D01*
X674844Y593715D01*
X670648Y600716D01*
X665786Y607271D01*
X660306Y613318D01*
X654258Y618799D01*
X647703Y623660D01*
X640703Y627856D01*
X633325Y631346D01*
X633326Y631346D01*
X632137Y631795D01*
X585042Y651302D01*
X584994Y651311D01*
X582116Y652850D01*
X579556Y654950D01*
X577456Y657510D01*
X575895Y660430D01*
X574934Y663598D01*
X574614Y666845D01*
X574623Y666894D01*
Y682527D01*
X809500D01*
X814500Y687527D01*
Y770407D01*
X1451501D01*
X1451549Y770416D01*
X1454796Y770097D01*
D02*
G37*
%LPC*%
G36*
X1238500Y723645D02*
X1236159Y723179D01*
X1234174Y721853D01*
X1232848Y719868D01*
X1232383Y717527D01*
X1232848Y715186D01*
X1232892Y715120D01*
Y461934D01*
X1232848Y461868D01*
X1232383Y459527D01*
X1232848Y457186D01*
X1234174Y455201D01*
X1236159Y453875D01*
X1238500Y453410D01*
X1240841Y453875D01*
X1242826Y455201D01*
X1244152Y457186D01*
X1244618Y459527D01*
X1244152Y461868D01*
X1244108Y461934D01*
Y715120D01*
X1244152Y715186D01*
X1244618Y717527D01*
X1244152Y719868D01*
X1242826Y721853D01*
X1240841Y723179D01*
X1238500Y723645D01*
D02*
G37*
G36*
X743500Y612645D02*
X741159Y612179D01*
X739174Y610853D01*
X737848Y608868D01*
X737383Y606527D01*
X737848Y604186D01*
X737892Y604120D01*
Y547613D01*
X738319Y545467D01*
X739535Y543648D01*
X746919Y536264D01*
X746934Y536186D01*
X748260Y534201D01*
X750245Y532875D01*
X752586Y532410D01*
X754927Y532875D01*
X754993Y532919D01*
X818759D01*
X818825Y532875D01*
X821166Y532410D01*
X823507Y532875D01*
X825492Y534201D01*
X826818Y536186D01*
X827284Y538527D01*
X826818Y540868D01*
X825492Y542853D01*
X823507Y544179D01*
X821166Y544645D01*
X818825Y544179D01*
X818759Y544135D01*
X754993D01*
X754927Y544179D01*
X754849Y544194D01*
X749108Y549936D01*
Y604120D01*
X749152Y604186D01*
X749618Y606527D01*
X749152Y608868D01*
X747826Y610853D01*
X745841Y612179D01*
X743500Y612645D01*
D02*
G37*
G36*
X1021500Y664213D02*
X1010546Y663735D01*
X999676Y662304D01*
X988971Y659931D01*
X978514Y656634D01*
X968384Y652438D01*
X958659Y647375D01*
X949411Y641484D01*
X940713Y634809D01*
X932629Y627402D01*
X925221Y619318D01*
X918547Y610619D01*
X912655Y601372D01*
X907593Y591646D01*
X903397Y581516D01*
X900100Y571059D01*
X897727Y560355D01*
X896295Y549484D01*
X895817Y538530D01*
X896295Y527576D01*
X897727Y516706D01*
X900100Y506001D01*
X903397Y495544D01*
X907593Y485414D01*
X912655Y475689D01*
X918547Y466441D01*
X925221Y457743D01*
X932629Y449659D01*
X940713Y442251D01*
X949411Y435577D01*
X958659Y429685D01*
X968384Y424622D01*
X978514Y420426D01*
X988971Y417130D01*
X999676Y414756D01*
X1010546Y413325D01*
X1021500Y412847D01*
X1032454Y413325D01*
X1043325Y414756D01*
X1054029Y417130D01*
X1064486Y420426D01*
X1074616Y424622D01*
X1084342Y429685D01*
X1093589Y435577D01*
X1102288Y442251D01*
X1110372Y449659D01*
X1117779Y457743D01*
X1124454Y466441D01*
X1130345Y475689D01*
X1135408Y485414D01*
X1139604Y495544D01*
X1142901Y506001D01*
X1145274Y516706D01*
X1146705Y527576D01*
X1147183Y538530D01*
X1146705Y549484D01*
X1145274Y560355D01*
X1142901Y571059D01*
X1139604Y581516D01*
X1135408Y591646D01*
X1130345Y601372D01*
X1124454Y610619D01*
X1117779Y619318D01*
X1110372Y627402D01*
X1102288Y634809D01*
X1093589Y641484D01*
X1084342Y647375D01*
X1074616Y652438D01*
X1064486Y656634D01*
X1054029Y659931D01*
X1043325Y662304D01*
X1032454Y663735D01*
X1021500Y664213D01*
D02*
G37*
G36*
X608880Y340828D02*
X606139Y340467D01*
X603585Y339409D01*
X601391Y337726D01*
X599708Y335532D01*
X598650Y332978D01*
X598289Y330237D01*
X598650Y327496D01*
X599708Y324942D01*
X601391Y322748D01*
X603585Y321065D01*
X606139Y320007D01*
X608880Y319646D01*
X611621Y320007D01*
X614175Y321065D01*
X616369Y322748D01*
X618052Y324942D01*
X619110Y327496D01*
X619471Y330237D01*
X619110Y332978D01*
X618052Y335532D01*
X616369Y337726D01*
X614175Y339409D01*
X611621Y340467D01*
X608880Y340828D01*
D02*
G37*
G36*
Y391628D02*
X606139Y391267D01*
X603585Y390209D01*
X601391Y388526D01*
X599708Y386332D01*
X598650Y383778D01*
X598289Y381037D01*
X598650Y378296D01*
X599708Y375742D01*
X601391Y373548D01*
X603585Y371865D01*
X606139Y370807D01*
X608880Y370446D01*
X611621Y370807D01*
X614175Y371865D01*
X616369Y373548D01*
X618052Y375742D01*
X619110Y378296D01*
X619471Y381037D01*
X619110Y383778D01*
X618052Y386332D01*
X616369Y388526D01*
X614175Y390209D01*
X611621Y391267D01*
X608880Y391628D01*
D02*
G37*
G36*
X1353354Y756880D02*
X1350613Y756519D01*
X1348059Y755461D01*
X1345865Y753778D01*
X1344182Y751584D01*
X1343124Y749030D01*
X1342764Y746289D01*
X1343124Y743548D01*
X1344182Y740994D01*
X1345865Y738800D01*
X1346037Y738669D01*
X1346340Y738351D01*
X1346667Y737957D01*
X1346944Y737567D01*
X1347176Y737179D01*
X1347367Y736793D01*
X1347520Y736404D01*
X1347638Y736007D01*
X1347723Y735597D01*
X1347746Y735405D01*
Y732263D01*
X1347717Y731932D01*
X1347636Y731440D01*
X1347622Y731389D01*
X1342854D01*
Y710389D01*
X1347618D01*
X1347637Y710319D01*
X1347718Y709833D01*
X1347746Y709507D01*
Y682853D01*
X1347728Y682617D01*
X1347693Y682391D01*
X1347649Y682191D01*
X1347609Y682055D01*
X1347589Y682001D01*
X1347554Y681960D01*
X1347476Y681817D01*
X1346512Y680562D01*
X1345706Y678615D01*
X1345431Y676527D01*
X1345706Y674439D01*
X1346512Y672493D01*
X1347794Y670821D01*
X1349466Y669539D01*
X1351412Y668733D01*
X1353500Y668458D01*
X1355589Y668733D01*
X1357535Y669539D01*
X1359206Y670821D01*
X1360488Y672493D01*
X1361294Y674439D01*
X1361569Y676527D01*
X1361294Y678615D01*
X1360488Y680562D01*
X1359206Y682233D01*
X1359114Y682303D01*
X1359103Y682315D01*
X1359099Y682325D01*
X1359062Y682439D01*
X1359019Y682618D01*
X1358984Y682823D01*
X1358962Y683085D01*
Y709507D01*
X1358991Y709833D01*
X1359072Y710319D01*
X1359091Y710389D01*
X1363854D01*
Y731389D01*
X1359086D01*
X1359072Y731440D01*
X1358991Y731932D01*
X1358962Y732263D01*
Y735405D01*
X1358985Y735597D01*
X1359070Y736007D01*
X1359189Y736404D01*
X1359341Y736793D01*
X1359532Y737180D01*
X1359764Y737567D01*
X1360041Y737957D01*
X1360368Y738351D01*
X1360672Y738669D01*
X1360843Y738800D01*
X1362526Y740994D01*
X1363584Y743548D01*
X1363945Y746289D01*
X1363584Y749030D01*
X1362526Y751584D01*
X1360843Y753778D01*
X1358649Y755461D01*
X1356095Y756519D01*
X1353354Y756880D01*
D02*
G37*
G36*
X1404154Y731480D02*
X1401413Y731119D01*
X1398859Y730061D01*
X1396665Y728378D01*
X1394982Y726184D01*
X1393924Y723630D01*
X1393564Y720889D01*
X1393924Y718148D01*
X1394982Y715594D01*
X1396665Y713400D01*
X1398859Y711717D01*
X1401413Y710659D01*
X1404154Y710298D01*
X1406895Y710659D01*
X1409449Y711717D01*
X1411643Y713400D01*
X1413326Y715594D01*
X1414384Y718148D01*
X1414745Y720889D01*
X1414384Y723630D01*
X1413326Y726184D01*
X1411643Y728378D01*
X1409449Y730061D01*
X1406895Y731119D01*
X1404154Y731480D01*
D02*
G37*
G36*
X1429554D02*
X1426813Y731119D01*
X1424259Y730061D01*
X1422065Y728378D01*
X1420382Y726184D01*
X1419324Y723630D01*
X1418963Y720889D01*
X1419324Y718148D01*
X1420382Y715594D01*
X1422065Y713400D01*
X1424259Y711717D01*
X1426813Y710659D01*
X1429554Y710298D01*
X1432295Y710659D01*
X1434849Y711717D01*
X1437043Y713400D01*
X1438726Y715594D01*
X1439784Y718148D01*
X1440145Y720889D01*
X1439784Y723630D01*
X1438726Y726184D01*
X1437043Y728378D01*
X1434849Y730061D01*
X1432295Y731119D01*
X1429554Y731480D01*
D02*
G37*
G36*
X710500Y599645D02*
X708159Y599179D01*
X706174Y597853D01*
X704848Y595868D01*
X704383Y593527D01*
X704454Y593168D01*
X703732Y592088D01*
X703422Y590527D01*
X703422Y590527D01*
Y581870D01*
X703422Y581870D01*
X703732Y580309D01*
X704616Y578986D01*
X705422Y578181D01*
Y572202D01*
X704152Y571316D01*
X702500Y571645D01*
X700159Y571179D01*
X698174Y569853D01*
X696848Y567868D01*
X696383Y565527D01*
X696848Y563186D01*
X698174Y561201D01*
X698374Y561068D01*
X698399Y561033D01*
X698416Y561005D01*
X698422Y560993D01*
Y435216D01*
X673721Y410515D01*
X646169D01*
X646071Y410539D01*
X645821Y410632D01*
X645465Y410807D01*
X645020Y411073D01*
X644499Y411433D01*
X643936Y411871D01*
X642547Y413110D01*
X641915Y413735D01*
X641769Y413926D01*
X639575Y415609D01*
X637021Y416667D01*
X634280Y417028D01*
X631539Y416667D01*
X628985Y415609D01*
X626791Y413926D01*
X625108Y411732D01*
X624050Y409178D01*
X623689Y406437D01*
X624050Y403696D01*
X625108Y401142D01*
X626791Y398948D01*
X628985Y397265D01*
X631539Y396207D01*
X634280Y395846D01*
X637021Y396207D01*
X639575Y397265D01*
X641769Y398948D01*
X641915Y399139D01*
X642547Y399765D01*
X643936Y401003D01*
X644499Y401441D01*
X645020Y401801D01*
X645465Y402067D01*
X645821Y402242D01*
X646071Y402335D01*
X646169Y402359D01*
X675410D01*
X675410Y402359D01*
X676971Y402669D01*
X678294Y403553D01*
X704152Y429411D01*
X705422Y428885D01*
Y407216D01*
X683321Y385115D01*
X646169D01*
X646071Y385139D01*
X645821Y385232D01*
X645465Y385407D01*
X645020Y385673D01*
X644499Y386034D01*
X643936Y386471D01*
X642547Y387710D01*
X641915Y388335D01*
X641769Y388526D01*
X639575Y390209D01*
X637021Y391267D01*
X634280Y391628D01*
X631539Y391267D01*
X628985Y390209D01*
X626791Y388526D01*
X625108Y386332D01*
X624050Y383778D01*
X623689Y381037D01*
X624050Y378296D01*
X625108Y375742D01*
X626791Y373548D01*
X628985Y371865D01*
X631539Y370807D01*
X634280Y370446D01*
X637021Y370807D01*
X639575Y371865D01*
X641769Y373548D01*
X641915Y373739D01*
X642547Y374365D01*
X643936Y375603D01*
X644499Y376041D01*
X645020Y376401D01*
X645465Y376667D01*
X645821Y376842D01*
X646071Y376935D01*
X646169Y376959D01*
X685010D01*
X685010Y376959D01*
X686571Y377269D01*
X687894Y378153D01*
X708248Y398508D01*
X709422Y398022D01*
Y395216D01*
X673921Y359715D01*
X646169D01*
X646071Y359739D01*
X645821Y359832D01*
X645465Y360007D01*
X645020Y360273D01*
X644499Y360634D01*
X643936Y361071D01*
X642547Y362309D01*
X641915Y362935D01*
X641769Y363126D01*
X639575Y364809D01*
X637021Y365867D01*
X634280Y366228D01*
X631539Y365867D01*
X628985Y364809D01*
X626791Y363126D01*
X625108Y360932D01*
X624050Y358378D01*
X623689Y355637D01*
X624050Y352896D01*
X625108Y350342D01*
X626791Y348148D01*
X628985Y346465D01*
X631539Y345407D01*
X634280Y345046D01*
X637021Y345407D01*
X639575Y346465D01*
X641769Y348148D01*
X641915Y348339D01*
X642547Y348965D01*
X643936Y350203D01*
X644499Y350641D01*
X645020Y351001D01*
X645465Y351267D01*
X645821Y351442D01*
X646071Y351535D01*
X646169Y351559D01*
X675610D01*
X675610Y351559D01*
X677171Y351869D01*
X678494Y352753D01*
X716384Y390643D01*
X716384Y390643D01*
X717152Y391792D01*
X717856Y391770D01*
X718422Y391581D01*
Y370216D01*
X682521Y334315D01*
X644780D01*
Y340737D01*
X623780D01*
Y319737D01*
X644780D01*
Y326159D01*
X684210D01*
X684210Y326159D01*
X685771Y326469D01*
X687094Y327353D01*
X725384Y365643D01*
X725384Y365643D01*
X726268Y366966D01*
X726579Y368527D01*
X726579Y368527D01*
Y571993D01*
X726584Y572005D01*
X726602Y572033D01*
X726626Y572068D01*
X726826Y572201D01*
X728152Y574186D01*
X728618Y576527D01*
X728152Y578868D01*
X726826Y580853D01*
X724841Y582179D01*
X722500Y582645D01*
X722286Y582859D01*
X722618Y584527D01*
X722152Y586868D01*
X720826Y588853D01*
X718841Y590179D01*
X717213Y590503D01*
X716440Y591001D01*
X716291Y591883D01*
X716618Y593527D01*
X716152Y595868D01*
X714826Y597853D01*
X712841Y599179D01*
X710500Y599645D01*
D02*
G37*
G36*
X838500Y632645D02*
X836159Y632179D01*
X834174Y630853D01*
X832848Y628868D01*
X832383Y626527D01*
X832848Y624186D01*
X834174Y622201D01*
X834374Y622068D01*
X834399Y622033D01*
X834416Y622005D01*
X834422Y621993D01*
Y617527D01*
X834422Y617527D01*
X834732Y615966D01*
X835616Y614643D01*
X853422Y596838D01*
Y582202D01*
X852152Y581316D01*
X850500Y581645D01*
X848159Y581179D01*
X846174Y579853D01*
X844848Y577868D01*
X844383Y575527D01*
X844848Y573186D01*
X846174Y571201D01*
X846374Y571068D01*
X846399Y571033D01*
X846416Y571005D01*
X846422Y570993D01*
Y547061D01*
X846416Y547049D01*
X846399Y547021D01*
X846374Y546986D01*
X846174Y546853D01*
X844848Y544868D01*
X844383Y542527D01*
X844848Y540186D01*
X846174Y538201D01*
X848159Y536875D01*
X850500Y536409D01*
X852152Y536738D01*
X853422Y535852D01*
Y498527D01*
X853422Y498527D01*
X853732Y496966D01*
X854616Y495643D01*
X876422Y473838D01*
Y377216D01*
X873616Y374411D01*
X872732Y373088D01*
X872422Y371527D01*
X872422Y371527D01*
Y368481D01*
X870795Y367233D01*
X870770Y367201D01*
X869500Y367632D01*
Y369527D01*
X853500D01*
Y343527D01*
X869500D01*
Y345422D01*
X870770Y345853D01*
X870795Y345821D01*
X872466Y344539D01*
X874412Y343733D01*
X876500Y343458D01*
X878588Y343733D01*
X880535Y344539D01*
X882206Y345821D01*
X883260Y347196D01*
X883735Y347308D01*
X884265D01*
X884740Y347196D01*
X885795Y345821D01*
X887466Y344539D01*
X889412Y343733D01*
X891500Y343458D01*
X893588Y343733D01*
X895535Y344539D01*
X897206Y345821D01*
X898260Y347196D01*
X898735Y347308D01*
X899265D01*
X899740Y347196D01*
X900795Y345821D01*
X902466Y344539D01*
X904412Y343733D01*
X906500Y343458D01*
X908589Y343733D01*
X910535Y344539D01*
X912206Y345821D01*
X913260Y347196D01*
X913735Y347308D01*
X914265D01*
X914740Y347196D01*
X915795Y345821D01*
X917466Y344539D01*
X919412Y343733D01*
X921500Y343458D01*
X923589Y343733D01*
X925535Y344539D01*
X927206Y345821D01*
X928488Y347492D01*
X929294Y349439D01*
X929569Y351527D01*
Y361527D01*
X929294Y363615D01*
X928488Y365561D01*
X927206Y367233D01*
X925535Y368515D01*
X923589Y369321D01*
X921500Y369596D01*
X919412Y369321D01*
X917466Y368515D01*
X915795Y367233D01*
X914740Y365858D01*
X914265Y365746D01*
X913735D01*
X913260Y365858D01*
X912206Y367233D01*
X910535Y368515D01*
X908589Y369321D01*
X906500Y369596D01*
X904412Y369321D01*
X902466Y368515D01*
X900795Y367233D01*
X899740Y365858D01*
X899265Y365746D01*
X898735D01*
X898260Y365858D01*
X897206Y367233D01*
X895579Y368481D01*
Y369527D01*
X895579Y369527D01*
X895268Y371088D01*
X894384Y372411D01*
X889578Y377216D01*
Y477527D01*
X889268Y479088D01*
X888384Y480411D01*
X888384Y480411D01*
X867579Y501216D01*
Y604527D01*
X867579Y604527D01*
X867268Y606088D01*
X866384Y607411D01*
X866384Y607411D01*
X855590Y618205D01*
X855586Y618217D01*
X855578Y618250D01*
X855571Y618291D01*
X855618Y618527D01*
X855152Y620868D01*
X853826Y622853D01*
X851841Y624179D01*
X849500Y624645D01*
X847159Y624179D01*
X845174Y622853D01*
X844277Y621510D01*
X843993Y621460D01*
X842899Y621734D01*
X842826Y622201D01*
X844152Y624186D01*
X844618Y626527D01*
X844152Y628868D01*
X842826Y630853D01*
X840841Y632179D01*
X838500Y632645D01*
D02*
G37*
G36*
X1279500Y708645D02*
X1277159Y708179D01*
X1275174Y706853D01*
X1273848Y704868D01*
X1273383Y702527D01*
X1273848Y700186D01*
X1275174Y698201D01*
X1275374Y698068D01*
X1275399Y698033D01*
X1275416Y698005D01*
X1275422Y697993D01*
Y685527D01*
X1275422Y685527D01*
X1275732Y683966D01*
X1276616Y682643D01*
X1285410Y673849D01*
X1285414Y673837D01*
X1285423Y673804D01*
X1285430Y673763D01*
X1285383Y673527D01*
X1285848Y671186D01*
X1287174Y669201D01*
X1289159Y667875D01*
X1291500Y667410D01*
X1293841Y667875D01*
X1295826Y669201D01*
X1297152Y671186D01*
X1297618Y673527D01*
X1297152Y675868D01*
X1295826Y677853D01*
X1293841Y679179D01*
X1291500Y679645D01*
X1291264Y679598D01*
X1291223Y679605D01*
X1291190Y679613D01*
X1291178Y679617D01*
X1283578Y687216D01*
Y697993D01*
X1283584Y698005D01*
X1283602Y698033D01*
X1283626Y698068D01*
X1283826Y698201D01*
X1285152Y700186D01*
X1285618Y702527D01*
X1285152Y704868D01*
X1283826Y706853D01*
X1281841Y708179D01*
X1279500Y708645D01*
D02*
G37*
%LPD*%
G36*
X1126520Y1071355D02*
Y1037355D01*
X1120520Y1031355D01*
X1116520Y1027355D01*
Y1025355D01*
Y1013355D01*
X1111520Y1008355D01*
X1107520Y1004355D01*
X1093520D01*
X1090520Y1007355D01*
X1084520Y1013355D01*
Y1028355D01*
Y1036355D01*
X1082520Y1038355D01*
X1071520D01*
X1066520Y1043355D01*
Y1093355D01*
Y1126355D01*
X1126520D01*
Y1071355D01*
D02*
G37*
G36*
X1078833Y975297D02*
X1079018Y975156D01*
X1079218Y975031D01*
X1079433Y974923D01*
X1079663Y974832D01*
X1079908Y974758D01*
X1080168Y974699D01*
X1080443Y974658D01*
X1080733Y974633D01*
X1081038Y974625D01*
Y972085D01*
X1080733Y972076D01*
X1080443Y972051D01*
X1080168Y972010D01*
X1079908Y971952D01*
X1079663Y971877D01*
X1079433Y971786D01*
X1079218Y971678D01*
X1079018Y971553D01*
X1078833Y971412D01*
X1078662Y971255D01*
Y975455D01*
X1078833Y975297D01*
D02*
G37*
G36*
X950802Y1022372D02*
X950661Y1022187D01*
X950537Y1021987D01*
X950429Y1021772D01*
X950338Y1021542D01*
X950263Y1021297D01*
X950205Y1021037D01*
X950163Y1020762D01*
X950138Y1020472D01*
X950130Y1020167D01*
X947590D01*
X947582Y1020472D01*
X947557Y1020762D01*
X947515Y1021037D01*
X947457Y1021297D01*
X947383Y1021542D01*
X947291Y1021772D01*
X947183Y1021987D01*
X947059Y1022187D01*
X946918Y1022372D01*
X946760Y1022542D01*
X950960D01*
X950802Y1022372D01*
D02*
G37*
G36*
X989833Y1015297D02*
X990018Y1015156D01*
X990218Y1015031D01*
X990433Y1014923D01*
X990663Y1014832D01*
X990908Y1014758D01*
X991168Y1014699D01*
X991443Y1014658D01*
X991733Y1014633D01*
X992038Y1014625D01*
Y1012085D01*
X991733Y1012076D01*
X991443Y1012051D01*
X991168Y1012010D01*
X990908Y1011952D01*
X990663Y1011877D01*
X990433Y1011786D01*
X990218Y1011678D01*
X990018Y1011553D01*
X989833Y1011412D01*
X989662Y1011255D01*
Y1015455D01*
X989833Y1015297D01*
D02*
G37*
G36*
X957043Y888574D02*
X958785Y887134D01*
X959647Y886549D01*
X960504Y886054D01*
X961356Y885649D01*
X962201Y885334D01*
X963041Y885109D01*
X963876Y884974D01*
X964705Y884929D01*
Y879929D01*
X963876Y879884D01*
X963041Y879749D01*
X962201Y879524D01*
X961356Y879209D01*
X960504Y878804D01*
X959647Y878309D01*
X958785Y877724D01*
X957917Y877049D01*
X957043Y876284D01*
X956163Y875429D01*
Y889429D01*
X957043Y888574D01*
D02*
G37*
G36*
X1099020Y868355D02*
X1104020Y863355D01*
Y850855D01*
Y773607D01*
X919020D01*
Y825855D01*
Y833355D01*
X926520Y840855D01*
X939020Y853355D01*
X1031520D01*
X1044020Y865855D01*
X1049020Y870855D01*
X1096520D01*
X1099020Y868355D01*
D02*
G37*
G36*
X899357Y974557D02*
X899542Y974416D01*
X899742Y974291D01*
X899957Y974184D01*
X900187Y974092D01*
X900432Y974017D01*
X900692Y973959D01*
X900967Y973918D01*
X901257Y973893D01*
X901562Y973885D01*
Y971345D01*
X901257Y971336D01*
X900967Y971311D01*
X900692Y971270D01*
X900432Y971212D01*
X900187Y971137D01*
X899957Y971046D01*
X899742Y970938D01*
X899542Y970814D01*
X899357Y970672D01*
X899186Y970515D01*
Y974715D01*
X899357Y974557D01*
D02*
G37*
G36*
X1330168Y949390D02*
X1329703Y949320D01*
X1329242Y949211D01*
X1328783Y949064D01*
X1328327Y948879D01*
X1327875Y948655D01*
X1327425Y948392D01*
X1326979Y948091D01*
X1326535Y947751D01*
X1326094Y947373D01*
X1325657Y946956D01*
X1321658Y950028D01*
X1322076Y950472D01*
X1322443Y950919D01*
X1322760Y951368D01*
X1323026Y951820D01*
X1323243Y952275D01*
X1323409Y952732D01*
X1323524Y953192D01*
X1323590Y953655D01*
X1323605Y954120D01*
X1323569Y954588D01*
X1330168Y949390D01*
D02*
G37*
G36*
X1051520Y1123355D02*
Y1108355D01*
Y1058355D01*
X1046520Y1053355D01*
X971520D01*
X966520Y1058355D01*
Y1063355D01*
Y1083355D01*
X976520Y1093355D01*
X991520Y1108355D01*
Y1123355D01*
X996520Y1128355D01*
X1046520D01*
X1051520Y1123355D01*
D02*
G37*
G36*
X1434097Y1184605D02*
X1432823Y1183146D01*
X1432306Y1182454D01*
X1431868Y1181788D01*
X1431510Y1181147D01*
X1431231Y1180532D01*
X1431032Y1179941D01*
X1430913Y1179377D01*
X1430873Y1178837D01*
X1428333D01*
X1428293Y1179377D01*
X1428174Y1179941D01*
X1427975Y1180532D01*
X1427696Y1181147D01*
X1427338Y1181788D01*
X1426900Y1182454D01*
X1426383Y1183146D01*
X1425109Y1184605D01*
X1424353Y1185373D01*
X1434853D01*
X1434097Y1184605D01*
D02*
G37*
G36*
X1408697D02*
X1407423Y1183146D01*
X1406906Y1182454D01*
X1406468Y1181788D01*
X1406110Y1181147D01*
X1405831Y1180532D01*
X1405632Y1179941D01*
X1405513Y1179377D01*
X1405473Y1178837D01*
X1402933D01*
X1402893Y1179377D01*
X1402774Y1179941D01*
X1402575Y1180532D01*
X1402296Y1181147D01*
X1401938Y1181788D01*
X1401500Y1182454D01*
X1400983Y1183146D01*
X1399709Y1184605D01*
X1398953Y1185373D01*
X1409453D01*
X1408697Y1184605D01*
D02*
G37*
G36*
X1147104Y1200669D02*
X1146877Y1200849D01*
X1146570Y1201011D01*
X1146181Y1201153D01*
X1145712Y1201277D01*
X1145162Y1201381D01*
X1144532Y1201467D01*
X1143028Y1201581D01*
X1141200Y1201619D01*
Y1211619D01*
X1142154Y1211628D01*
X1145162Y1211856D01*
X1145712Y1211961D01*
X1146181Y1212084D01*
X1146570Y1212227D01*
X1146877Y1212388D01*
X1147104Y1212569D01*
Y1200669D01*
D02*
G37*
G36*
X964540Y1201188D02*
X963793Y1200413D01*
X962538Y1198931D01*
X962029Y1198224D01*
X961599Y1197540D01*
X961248Y1196878D01*
X960977Y1196239D01*
X960785Y1195622D01*
X960672Y1195028D01*
X960638Y1194457D01*
X950738Y1204356D01*
X951310Y1204390D01*
X951904Y1204503D01*
X952520Y1204696D01*
X953159Y1204967D01*
X953821Y1205318D01*
X954505Y1205748D01*
X955212Y1206257D01*
X955942Y1206845D01*
X957469Y1208259D01*
X964540Y1201188D01*
D02*
G37*
G36*
X1454796Y1239996D02*
X1457964Y1239035D01*
X1460885Y1237475D01*
X1463444Y1235374D01*
X1465545Y1232814D01*
X1467106Y1229894D01*
X1468067Y1226725D01*
X1468270Y1224667D01*
X1468377Y1223430D01*
X1468377Y1223430D01*
X1468377Y1222182D01*
Y1138056D01*
X1468377Y1138046D01*
X1468377Y1136794D01*
X1468271Y1135568D01*
X1468067Y1133499D01*
X1467106Y1130330D01*
X1465545Y1127410D01*
X1463444Y1124850D01*
X1460885Y1122749D01*
X1458007Y1121211D01*
X1457959Y1121202D01*
X1410864Y1101694D01*
X1409675Y1101246D01*
Y1101246D01*
X1402297Y1097756D01*
X1395297Y1093560D01*
X1388742Y1088699D01*
X1382695Y1083218D01*
X1377214Y1077171D01*
X1372352Y1070616D01*
X1368157Y1063615D01*
X1364667Y1056238D01*
X1363143Y1051977D01*
X1362631Y1051466D01*
Y1050546D01*
X1361918Y1048553D01*
X1359935Y1040637D01*
X1358737Y1032564D01*
X1358337Y1024412D01*
X1358377D01*
X1358377Y1024412D01*
Y1014070D01*
Y992448D01*
X1358377Y992448D01*
X1358337D01*
X1358490Y989325D01*
X1355520Y986355D01*
X1346520Y977355D01*
X1332520D01*
X1306520Y951355D01*
X1270520Y915355D01*
X953520D01*
X946520Y908355D01*
X934520Y896355D01*
Y894355D01*
Y870705D01*
X934310Y870564D01*
X911375Y847629D01*
X909745Y847795D01*
X908990Y848924D01*
X907005Y850251D01*
X904664Y850716D01*
X902323Y850251D01*
X902257Y850206D01*
X883764D01*
X881618Y849780D01*
X879799Y848564D01*
X868741Y837506D01*
X832141D01*
X832075Y837551D01*
X829734Y838016D01*
X827393Y837551D01*
X827327Y837506D01*
X679874D01*
X677728Y837080D01*
X675909Y835864D01*
X658561Y818516D01*
X658483Y818501D01*
X656498Y817174D01*
X655172Y815190D01*
X654707Y812849D01*
X655172Y810508D01*
X656498Y808523D01*
X658483Y807197D01*
X660824Y806731D01*
X663165Y807197D01*
X665150Y808523D01*
X666476Y810508D01*
X666491Y810585D01*
X682197Y826291D01*
X827327D01*
X827393Y826247D01*
X829734Y825781D01*
X832075Y826247D01*
X832141Y826291D01*
X871064D01*
X873210Y826718D01*
X875029Y827933D01*
X886087Y838991D01*
X900941D01*
X901188Y838728D01*
X901581Y837721D01*
X901133Y837051D01*
X900895Y835855D01*
Y798355D01*
X901133Y797159D01*
X901520Y796579D01*
Y776553D01*
X739624D01*
Y788430D01*
X739624Y788430D01*
X739633D01*
X739356Y790535D01*
X738544Y792497D01*
X737251Y794181D01*
X735567Y795473D01*
X733605Y796286D01*
X731500Y796563D01*
X729395Y796286D01*
X727434Y795473D01*
X725749Y794181D01*
X724457Y792497D01*
X723644Y790535D01*
X723367Y788430D01*
X723377D01*
Y776553D01*
X591500D01*
X591452Y776544D01*
X588205Y776864D01*
X585036Y777825D01*
X582116Y779386D01*
X579556Y781486D01*
X577456Y784046D01*
X575895Y786966D01*
X574934Y790135D01*
X574731Y792194D01*
X574624Y793430D01*
X574624Y793430D01*
X574623Y794678D01*
Y878802D01*
X574623Y878819D01*
X574624Y880067D01*
X574730Y881292D01*
X574934Y883362D01*
X575895Y886530D01*
X577456Y889451D01*
X579556Y892010D01*
X582116Y894111D01*
X584994Y895649D01*
X585042Y895658D01*
X592009Y898544D01*
X592710D01*
X593206Y899040D01*
X632137Y915166D01*
X633326Y915615D01*
X633326Y915615D01*
Y915615D01*
X640703Y919104D01*
X647703Y923300D01*
X654258Y928161D01*
X660306Y933642D01*
X665787Y939689D01*
X670648Y946245D01*
X674844Y953245D01*
X678333Y960622D01*
X681083Y968307D01*
X683066Y976224D01*
X684263Y984296D01*
X684664Y992448D01*
X684624D01*
X684624Y992448D01*
Y1024412D01*
X684624Y1024412D01*
X684664D01*
X684263Y1032564D01*
X683066Y1040637D01*
X681083Y1048553D01*
X678333Y1056238D01*
X675411Y1062418D01*
Y1063464D01*
X674222Y1064652D01*
X670648Y1070616D01*
X665787Y1077171D01*
X660306Y1083218D01*
X654258Y1088699D01*
X647703Y1093560D01*
X641740Y1097135D01*
X641412Y1097463D01*
X641192D01*
X640703Y1097756D01*
X633326Y1101246D01*
X633326Y1101246D01*
X632137Y1101694D01*
X585042Y1121202D01*
X584993Y1121211D01*
X582116Y1122749D01*
X579556Y1124850D01*
X577456Y1127410D01*
X575895Y1130330D01*
X574934Y1133499D01*
X574731Y1135560D01*
X574624Y1136794D01*
X574624Y1136794D01*
X574623Y1138046D01*
Y1222166D01*
X574623Y1222182D01*
X574624Y1223430D01*
X574730Y1224656D01*
X574934Y1226725D01*
X575895Y1229894D01*
X577456Y1232814D01*
X579556Y1235374D01*
X582116Y1237475D01*
X585036Y1239035D01*
X588205Y1239996D01*
X591452Y1240316D01*
X591500Y1240307D01*
X723377D01*
Y1228430D01*
X723367D01*
X723644Y1226325D01*
X724457Y1224364D01*
X725749Y1222679D01*
X727434Y1221387D01*
X729395Y1220574D01*
X731500Y1220297D01*
X733605Y1220574D01*
X735567Y1221387D01*
X737251Y1222679D01*
X738544Y1224364D01*
X739356Y1226325D01*
X739633Y1228430D01*
X739624D01*
X739624Y1228430D01*
Y1240307D01*
X902520D01*
Y1154027D01*
X901250Y1153807D01*
X898508Y1161470D01*
X894557Y1169825D01*
X889806Y1177752D01*
X884300Y1185175D01*
X878093Y1192023D01*
X871245Y1198230D01*
X863822Y1203736D01*
X855895Y1208487D01*
X847540Y1212438D01*
X838838Y1215552D01*
X829873Y1217798D01*
X820731Y1219154D01*
X811500Y1219607D01*
X802269Y1219154D01*
X793127Y1217798D01*
X784162Y1215552D01*
X775460Y1212438D01*
X767105Y1208487D01*
X759178Y1203736D01*
X751755Y1198230D01*
X744907Y1192023D01*
X738700Y1185175D01*
X733195Y1177752D01*
X728444Y1169825D01*
X724492Y1161470D01*
X721378Y1152768D01*
X719133Y1143803D01*
X717777Y1134661D01*
X717323Y1125430D01*
X717329D01*
X717332Y1125427D01*
X717377Y1085648D01*
Y1028696D01*
X717324Y1028430D01*
X717383Y1028135D01*
Y1027833D01*
X717543Y1027025D01*
X717670Y1026064D01*
X717794Y1025764D01*
X717848Y1025492D01*
X718305Y1024390D01*
X718459Y1024159D01*
X718583Y1023859D01*
X719173Y1023091D01*
X719631Y1022405D01*
X719923Y1022113D01*
X720036Y1021966D01*
X720183Y1021853D01*
X720475Y1021561D01*
X721161Y1021103D01*
X721929Y1020513D01*
X722229Y1020389D01*
X722460Y1020235D01*
X723562Y1019778D01*
X723834Y1019724D01*
X724134Y1019600D01*
X725094Y1019473D01*
X725903Y1019313D01*
X726317D01*
X726500Y1019288D01*
X726684Y1019313D01*
X727097D01*
X727906Y1019473D01*
X728866Y1019600D01*
X729166Y1019724D01*
X729438Y1019778D01*
X730541Y1020235D01*
X730771Y1020389D01*
X731071Y1020513D01*
X731840Y1021103D01*
X732525Y1021561D01*
X732817Y1021853D01*
X732964Y1021966D01*
X733077Y1022113D01*
X733369Y1022405D01*
X733827Y1023091D01*
X734417Y1023859D01*
X734541Y1024159D01*
X734695Y1024390D01*
X735152Y1025492D01*
X735206Y1025764D01*
X735330Y1026064D01*
X735457Y1027025D01*
X735618Y1027833D01*
Y1028194D01*
X735674Y1028550D01*
X735655Y1029037D01*
X736700Y1030307D01*
X887377D01*
Y1028696D01*
X887324Y1028430D01*
X887383Y1028135D01*
Y1027833D01*
X887543Y1027025D01*
X887670Y1026064D01*
X887794Y1025764D01*
X887848Y1025492D01*
X888305Y1024390D01*
X888459Y1024159D01*
X888583Y1023859D01*
X889173Y1023091D01*
X889631Y1022405D01*
X889923Y1022113D01*
X890036Y1021966D01*
X890183Y1021853D01*
X890475Y1021561D01*
X891161Y1021103D01*
X891929Y1020513D01*
X892229Y1020389D01*
X892460Y1020235D01*
X893562Y1019778D01*
X893834Y1019724D01*
X894134Y1019600D01*
X895095Y1019473D01*
X895903Y1019313D01*
X896317D01*
X896500Y1019288D01*
X896684Y1019313D01*
X897097D01*
X897906Y1019473D01*
X898866Y1019600D01*
X899166Y1019724D01*
X899438Y1019778D01*
X900541Y1020235D01*
X900771Y1020389D01*
X901071Y1020513D01*
X901840Y1021103D01*
X902525Y1021561D01*
X902818Y1021853D01*
X902964Y1021966D01*
X903077Y1022113D01*
X903369Y1022405D01*
X903827Y1023091D01*
X904410Y1023850D01*
D01*
X904417Y1023859D01*
X904541Y1024159D01*
X904695Y1024390D01*
X905152Y1025492D01*
X905206Y1025764D01*
X905330Y1026064D01*
X905440Y1026893D01*
X905457Y1027025D01*
X905618Y1027833D01*
Y1028137D01*
D01*
X905676Y1028434D01*
X905658Y1043726D01*
D01*
X905657Y1044896D01*
X905656Y1045026D01*
X905639Y1059575D01*
Y1060203D01*
X908220Y1062785D01*
X923460D01*
X931080Y1055165D01*
X951400Y1034845D01*
X965370D01*
X970450Y1029765D01*
Y1014525D01*
Y1005635D01*
X962830Y998015D01*
X945246D01*
X944760Y999188D01*
X951939Y1006366D01*
X952882Y1007779D01*
X953214Y1009445D01*
Y1020401D01*
X954512Y1022344D01*
X954978Y1024685D01*
X954512Y1027026D01*
X953186Y1029010D01*
X951201Y1030337D01*
X948860Y1030802D01*
X946519Y1030337D01*
X944534Y1029010D01*
X943208Y1027026D01*
X942743Y1024685D01*
X943208Y1022344D01*
X944507Y1020401D01*
Y1011248D01*
X931273Y998015D01*
X910227Y976968D01*
X901328D01*
X899385Y978267D01*
X897044Y978732D01*
X894703Y978267D01*
X892718Y976940D01*
X891392Y974956D01*
X890927Y972615D01*
X891392Y970274D01*
X892718Y968289D01*
X894703Y966963D01*
X897044Y966497D01*
X899385Y966963D01*
X901328Y968261D01*
X912030D01*
X913696Y968592D01*
X915109Y969536D01*
X930347Y984774D01*
X931520Y984288D01*
Y977355D01*
X941520Y967355D01*
X963520D01*
X967520Y971355D01*
X994520Y998355D01*
X1034520D01*
X1041520Y991355D01*
X1066520Y966355D01*
X1213520D01*
X1279520Y1032355D01*
X1302520Y1055354D01*
X1302520Y1055355D01*
X1319520Y1072355D01*
Y1099198D01*
X1328324Y1108001D01*
X1391520D01*
X1393186Y1108333D01*
X1394599Y1109276D01*
X1432682Y1147359D01*
X1433625Y1148772D01*
X1433957Y1150438D01*
Y1178986D01*
X1433988Y1179134D01*
X1434081Y1179410D01*
X1434243Y1179768D01*
X1434485Y1180200D01*
X1434811Y1180697D01*
X1435204Y1181221D01*
X1436340Y1182524D01*
X1436904Y1183096D01*
X1437092Y1183240D01*
X1438775Y1185433D01*
X1439833Y1187988D01*
X1440194Y1190729D01*
X1439833Y1193470D01*
X1438775Y1196024D01*
X1437092Y1198217D01*
X1434898Y1199900D01*
X1432344Y1200958D01*
X1429603Y1201319D01*
X1426862Y1200958D01*
X1424308Y1199900D01*
X1422114Y1198217D01*
X1420431Y1196024D01*
X1419373Y1193470D01*
X1419012Y1190729D01*
X1419373Y1187988D01*
X1420431Y1185433D01*
X1422114Y1183240D01*
X1422302Y1183096D01*
X1422866Y1182524D01*
X1424003Y1181221D01*
X1424395Y1180696D01*
X1424722Y1180200D01*
X1424963Y1179768D01*
X1425125Y1179410D01*
X1425218Y1179134D01*
X1425249Y1178986D01*
Y1152241D01*
X1409802Y1136793D01*
X1409296Y1136892D01*
X1408557Y1137344D01*
Y1178986D01*
X1408588Y1179134D01*
X1408681Y1179410D01*
X1408843Y1179768D01*
X1409084Y1180200D01*
X1409411Y1180697D01*
X1409803Y1181221D01*
X1410941Y1182524D01*
X1411504Y1183096D01*
X1411692Y1183240D01*
X1413375Y1185433D01*
X1414433Y1187988D01*
X1414794Y1190729D01*
X1414433Y1193470D01*
X1413375Y1196024D01*
X1411692Y1198217D01*
X1409498Y1199900D01*
X1406944Y1200958D01*
X1404203Y1201319D01*
X1401462Y1200958D01*
X1398908Y1199900D01*
X1396714Y1198217D01*
X1395031Y1196024D01*
X1393973Y1193470D01*
X1393613Y1190729D01*
X1393973Y1187988D01*
X1395031Y1185433D01*
X1396714Y1183240D01*
X1396902Y1183096D01*
X1397466Y1182524D01*
X1398603Y1181221D01*
X1398995Y1180696D01*
X1399322Y1180200D01*
X1399563Y1179768D01*
X1399725Y1179410D01*
X1399818Y1179134D01*
X1399850Y1178986D01*
Y1138841D01*
X1386717Y1125708D01*
X1320520D01*
X1320502Y1125705D01*
X1319520Y1126510D01*
Y1130355D01*
Y1227569D01*
X1319633Y1228430D01*
X1319624D01*
Y1240307D01*
X1451501D01*
X1451549Y1240316D01*
X1454796Y1239996D01*
D02*
G37*
%LPC*%
G36*
X1327520Y1031432D02*
X1325171Y1031123D01*
X1322981Y1030216D01*
X1321101Y1028774D01*
X1319659Y1026893D01*
X1318752Y1024704D01*
X1318442Y1022355D01*
X1318752Y1020005D01*
X1319659Y1017816D01*
X1321101Y1015936D01*
X1321193Y1015865D01*
X1321304Y1015745D01*
X1321419Y1015596D01*
X1321525Y1015429D01*
X1321622Y1015237D01*
X1321712Y1015015D01*
X1321793Y1014756D01*
X1321861Y1014457D01*
X1321912Y1014126D01*
Y1008678D01*
X1311590Y998355D01*
X1290589Y977355D01*
X1256197Y942962D01*
X932520D01*
X930374Y942536D01*
X928555Y941320D01*
X883197Y895962D01*
X759520D01*
X757374Y895536D01*
X755555Y894320D01*
X741197Y879962D01*
X685843D01*
X680128Y885677D01*
Y899152D01*
X701723Y920747D01*
X750113D01*
X750179Y920703D01*
X752520Y920237D01*
X754861Y920703D01*
X756846Y922029D01*
X758172Y924014D01*
X758638Y926355D01*
X758172Y928696D01*
X756846Y930680D01*
X754861Y932007D01*
X752520Y932472D01*
X750179Y932007D01*
X750113Y931962D01*
X699400D01*
X697254Y931536D01*
X695435Y930320D01*
X670555Y905440D01*
X669339Y903621D01*
X668912Y901475D01*
Y883355D01*
X669339Y881209D01*
X670555Y879389D01*
X679555Y870389D01*
X681374Y869174D01*
X683520Y868747D01*
X743520D01*
X745666Y869174D01*
X747485Y870389D01*
X761843Y884747D01*
X885520D01*
X887666Y885174D01*
X889485Y886389D01*
X934843Y931747D01*
X1258520D01*
X1260666Y932174D01*
X1262485Y933389D01*
X1307624Y978528D01*
X1328624Y999528D01*
X1331485Y1002389D01*
X1332701Y1004209D01*
X1333128Y1006355D01*
Y1014126D01*
X1333179Y1014457D01*
X1333248Y1014756D01*
X1333328Y1015015D01*
X1333418Y1015237D01*
X1333516Y1015429D01*
X1333621Y1015596D01*
X1333736Y1015745D01*
X1333847Y1015865D01*
X1333939Y1015936D01*
X1335381Y1017816D01*
X1336288Y1020005D01*
X1336598Y1022355D01*
X1336288Y1024704D01*
X1335381Y1026893D01*
X1333939Y1028774D01*
X1332059Y1030216D01*
X1329870Y1031123D01*
X1327520Y1031432D01*
D02*
G37*
G36*
X911520Y881472D02*
X909179Y881007D01*
X907236Y879708D01*
X789520D01*
X787854Y879377D01*
X786442Y878433D01*
X769661Y861652D01*
X718448D01*
X716505Y862951D01*
X714164Y863416D01*
X711823Y862951D01*
X709838Y861624D01*
X708512Y859640D01*
X708047Y857299D01*
X708512Y854958D01*
X709838Y852973D01*
X711823Y851647D01*
X714164Y851181D01*
X716505Y851647D01*
X718448Y852945D01*
X771464D01*
X773130Y853276D01*
X774543Y854220D01*
X791323Y871001D01*
X907236D01*
X909179Y869703D01*
X911520Y869237D01*
X913861Y869703D01*
X915846Y871029D01*
X917172Y873014D01*
X917638Y875355D01*
X917172Y877696D01*
X915846Y879680D01*
X913861Y881007D01*
X911520Y881472D01*
D02*
G37*
G36*
X782490Y1014292D02*
X780149Y1013827D01*
X778164Y1012500D01*
X776838Y1010516D01*
X776373Y1008175D01*
X776838Y1005834D01*
X778137Y1003891D01*
Y999285D01*
X778468Y997619D01*
X779412Y996206D01*
X804323Y971295D01*
X803827Y969995D01*
X801993Y969631D01*
X800050Y968332D01*
X782744D01*
X781078Y968001D01*
X779666Y967057D01*
X757367Y944758D01*
X737344D01*
X736302Y946028D01*
X736528Y947166D01*
X737182Y947819D01*
X738125Y949232D01*
X738457Y950898D01*
Y968458D01*
X739755Y970401D01*
X740221Y972742D01*
X739755Y975083D01*
X738429Y977067D01*
X736444Y978394D01*
X734103Y978859D01*
X731762Y978394D01*
X729777Y977067D01*
X728451Y975083D01*
X727986Y972742D01*
X728451Y970401D01*
X729750Y968458D01*
Y953199D01*
X728079Y952867D01*
X726094Y951540D01*
X724768Y949556D01*
X724303Y947215D01*
X724538Y946028D01*
X724410Y945810D01*
X723079Y945472D01*
X718264Y950288D01*
Y950551D01*
X719562Y952494D01*
X720028Y954835D01*
X719562Y957176D01*
X718236Y959160D01*
X716251Y960487D01*
X713910Y960952D01*
X711569Y960487D01*
X709584Y959160D01*
X708258Y957176D01*
X707793Y954835D01*
X708258Y952494D01*
X709557Y950551D01*
Y948485D01*
X709888Y946819D01*
X710832Y945406D01*
X718912Y937326D01*
X720324Y936383D01*
X721990Y936051D01*
X759170D01*
X760836Y936383D01*
X762249Y937326D01*
X784547Y959625D01*
X800050D01*
X801993Y958327D01*
X804334Y957861D01*
X806675Y958327D01*
X808660Y959653D01*
X809986Y961638D01*
X810351Y963471D01*
X811650Y963968D01*
X813697Y961921D01*
Y931688D01*
X792416Y910408D01*
X792400Y910395D01*
X792336Y910352D01*
X792291Y910325D01*
X792269Y910315D01*
X792191Y910304D01*
X791927Y910212D01*
X790563Y909941D01*
X788578Y908614D01*
X787252Y906630D01*
X786787Y904289D01*
X787252Y901948D01*
X788578Y899963D01*
X790563Y898637D01*
X792904Y898171D01*
X795245Y898637D01*
X797230Y899963D01*
X798556Y901948D01*
X799022Y904289D01*
X798953Y904631D01*
X821129Y926806D01*
X822072Y928219D01*
X822404Y929885D01*
Y963725D01*
X822072Y965391D01*
X821129Y966803D01*
X786844Y1001088D01*
Y1003891D01*
X788142Y1005834D01*
X788608Y1008175D01*
X788142Y1010516D01*
X786816Y1012500D01*
X784831Y1013827D01*
X782490Y1014292D01*
D02*
G37*
G36*
X885614Y923106D02*
X883273Y922641D01*
X881330Y921342D01*
X842908D01*
X840965Y922641D01*
X838624Y923106D01*
X836283Y922641D01*
X834298Y921314D01*
X832972Y919330D01*
X832507Y916989D01*
X832972Y914648D01*
X834298Y912663D01*
X836283Y911337D01*
X838624Y910871D01*
X840965Y911337D01*
X842908Y912635D01*
X881330D01*
X883273Y911337D01*
X885614Y910871D01*
X887955Y911337D01*
X889940Y912663D01*
X891266Y914648D01*
X891732Y916989D01*
X891266Y919330D01*
X889940Y921314D01*
X887955Y922641D01*
X885614Y923106D01*
D02*
G37*
G36*
X598340Y1160342D02*
X595999Y1159877D01*
X594014Y1158550D01*
X592688Y1156566D01*
X592223Y1154225D01*
X592688Y1151884D01*
X594014Y1149899D01*
X595999Y1148573D01*
X598340Y1148107D01*
X600681Y1148573D01*
X600747Y1148617D01*
X613797D01*
X694332Y1068082D01*
Y954617D01*
X645547Y905832D01*
X640166D01*
X638020Y905406D01*
X636201Y904190D01*
X617379Y885368D01*
X616163Y883549D01*
X615736Y881403D01*
Y865992D01*
X612535Y862790D01*
X612383Y862671D01*
X612033Y862441D01*
X611669Y862244D01*
X611285Y862077D01*
X610877Y861938D01*
X610439Y861829D01*
X609967Y861749D01*
X609458Y861701D01*
X609018Y861691D01*
X608804Y861719D01*
X606063Y861358D01*
X603509Y860300D01*
X601315Y858617D01*
X599632Y856424D01*
X598574Y853870D01*
X598214Y851129D01*
X598574Y848388D01*
X599632Y845833D01*
X601315Y843640D01*
X603509Y841957D01*
X606063Y840899D01*
X608804Y840538D01*
X611545Y840899D01*
X614099Y841957D01*
X616293Y843640D01*
X617976Y845833D01*
X619034Y848388D01*
X619395Y851129D01*
X619367Y851342D01*
X619377Y851782D01*
X619424Y852292D01*
X619504Y852764D01*
X619614Y853201D01*
X619752Y853609D01*
X619920Y853993D01*
X620117Y854358D01*
X620346Y854708D01*
X620465Y854859D01*
X625309Y859703D01*
X626525Y861523D01*
X626952Y863669D01*
Y867423D01*
X628091Y867985D01*
X628909Y867357D01*
X631463Y866299D01*
X634204Y865938D01*
X636945Y866299D01*
X639499Y867357D01*
X641693Y869040D01*
X643376Y871233D01*
X644434Y873788D01*
X644795Y876529D01*
X644434Y879270D01*
X643376Y881824D01*
X641693Y884017D01*
X639499Y885700D01*
X636945Y886758D01*
X636323Y886840D01*
X635915Y888043D01*
X642489Y894617D01*
X647870D01*
X650016Y895044D01*
X651835Y896259D01*
X703905Y948329D01*
X705121Y950149D01*
X705548Y952295D01*
Y1070405D01*
X705121Y1072551D01*
X703905Y1074370D01*
X620085Y1158190D01*
X618266Y1159406D01*
X616120Y1159832D01*
X600747D01*
X600681Y1159877D01*
X598340Y1160342D01*
D02*
G37*
G36*
X608804Y810919D02*
X606063Y810558D01*
X603509Y809500D01*
X601315Y807817D01*
X599632Y805624D01*
X598574Y803070D01*
X598214Y800329D01*
X598574Y797588D01*
X599632Y795033D01*
X601315Y792840D01*
X603509Y791157D01*
X606063Y790099D01*
X608804Y789738D01*
X611545Y790099D01*
X614099Y791157D01*
X616293Y792840D01*
X617976Y795033D01*
X619034Y797588D01*
X619395Y800329D01*
X619034Y803070D01*
X617976Y805624D01*
X616293Y807817D01*
X614099Y809500D01*
X611545Y810558D01*
X608804Y810919D01*
D02*
G37*
G36*
X1353403Y1226719D02*
X1350662Y1226358D01*
X1348108Y1225300D01*
X1345914Y1223617D01*
X1344231Y1221424D01*
X1343173Y1218870D01*
X1342812Y1216129D01*
X1343173Y1213388D01*
X1344231Y1210833D01*
X1345914Y1208640D01*
X1348108Y1206957D01*
X1350662Y1205899D01*
X1353403Y1205538D01*
X1356144Y1205899D01*
X1358698Y1206957D01*
X1360892Y1208640D01*
X1362575Y1210833D01*
X1363633Y1213388D01*
X1363994Y1216129D01*
X1363633Y1218870D01*
X1362575Y1221424D01*
X1360892Y1223617D01*
X1358698Y1225300D01*
X1356144Y1226358D01*
X1353403Y1226719D01*
D02*
G37*
G36*
X644704Y810829D02*
X623704D01*
Y789829D01*
X644704D01*
Y810829D01*
D02*
G37*
G36*
X634204Y861719D02*
X631463Y861358D01*
X628909Y860300D01*
X626715Y858617D01*
X625032Y856424D01*
X623974Y853870D01*
X623614Y851129D01*
X623974Y848388D01*
X625032Y845833D01*
X626715Y843640D01*
X628909Y841957D01*
X631463Y840899D01*
X634204Y840538D01*
X636945Y840899D01*
X639499Y841957D01*
X641693Y843640D01*
X643376Y845833D01*
X644434Y848388D01*
X644795Y851129D01*
X644434Y853870D01*
X643376Y856424D01*
X641693Y858617D01*
X639499Y860300D01*
X636945Y861358D01*
X634204Y861719D01*
D02*
G37*
G36*
Y836319D02*
X631463Y835958D01*
X628909Y834900D01*
X626715Y833217D01*
X625032Y831024D01*
X623974Y828470D01*
X623614Y825729D01*
X623974Y822988D01*
X625032Y820433D01*
X626715Y818240D01*
X628909Y816557D01*
X631463Y815499D01*
X634204Y815138D01*
X636945Y815499D01*
X639499Y816557D01*
X641693Y818240D01*
X643376Y820433D01*
X644434Y822988D01*
X644795Y825729D01*
X644434Y828470D01*
X643376Y831024D01*
X641693Y833217D01*
X639499Y834900D01*
X636945Y835958D01*
X634204Y836319D01*
D02*
G37*
G36*
X1363903Y1201229D02*
X1342903D01*
Y1180229D01*
X1363903D01*
Y1201229D01*
D02*
G37*
G36*
X926000Y1030802D02*
X923659Y1030337D01*
X921674Y1029010D01*
X920348Y1027026D01*
X919892Y1024734D01*
X905583Y1010425D01*
D01*
X894987Y999828D01*
X817254D01*
X815311Y1001127D01*
X812970Y1001592D01*
X810629Y1001127D01*
X808644Y999800D01*
X807318Y997816D01*
X806853Y995475D01*
X807318Y993134D01*
X808644Y991149D01*
X810629Y989823D01*
X812970Y989357D01*
X815311Y989823D01*
X817254Y991121D01*
X896790D01*
X898456Y991452D01*
X899869Y992396D01*
X926049Y1018577D01*
X928341Y1019033D01*
X930250Y1020308D01*
X930326Y1020359D01*
X931652Y1022344D01*
X932118Y1024685D01*
X931652Y1027026D01*
X930326Y1029010D01*
X928341Y1030337D01*
X926000Y1030802D01*
D02*
G37*
G36*
X812970Y1028262D02*
X810629Y1027797D01*
X808644Y1026470D01*
X807318Y1024486D01*
X806853Y1022145D01*
X807318Y1019804D01*
X808644Y1017819D01*
X810629Y1016493D01*
X812970Y1016027D01*
X815311Y1016493D01*
X817254Y1017791D01*
X877207D01*
X884332Y1010666D01*
X884788Y1008374D01*
X886114Y1006389D01*
X888099Y1005063D01*
X890440Y1004597D01*
X892781Y1005063D01*
X894766Y1006389D01*
X896092Y1008374D01*
X896558Y1010715D01*
X896092Y1013056D01*
X894766Y1015040D01*
X892781Y1016367D01*
X890489Y1016823D01*
X882089Y1025223D01*
X880676Y1026167D01*
X879010Y1026498D01*
X817254D01*
X815311Y1027797D01*
X812970Y1028262D01*
D02*
G37*
G36*
X641520Y1193930D02*
X638482Y1193630D01*
X635560Y1192744D01*
X632867Y1191305D01*
X630507Y1189368D01*
X628570Y1187008D01*
X627131Y1184315D01*
X626244Y1181393D01*
X625945Y1178355D01*
X626244Y1175316D01*
X627131Y1172394D01*
X628570Y1169702D01*
X630507Y1167342D01*
X632867Y1165405D01*
X635560Y1163965D01*
X638482Y1163079D01*
X641520Y1162780D01*
X644559Y1163079D01*
X647480Y1163965D01*
X650173Y1165405D01*
X652533Y1167342D01*
X654470Y1169702D01*
X655910Y1172394D01*
X656796Y1175316D01*
X657095Y1178355D01*
X656796Y1181393D01*
X655910Y1184315D01*
X654470Y1187008D01*
X652533Y1189368D01*
X650173Y1191305D01*
X647480Y1192744D01*
X644559Y1193630D01*
X641520Y1193930D01*
D02*
G37*
%LPD*%
G36*
X716477Y859241D02*
X716662Y859100D01*
X716862Y858975D01*
X717077Y858867D01*
X717307Y858776D01*
X717552Y858701D01*
X717812Y858643D01*
X718087Y858602D01*
X718377Y858577D01*
X718682Y858569D01*
Y856029D01*
X718377Y856020D01*
X718087Y855995D01*
X717812Y855954D01*
X717552Y855896D01*
X717307Y855821D01*
X717077Y855730D01*
X716862Y855622D01*
X716662Y855498D01*
X716477Y855356D01*
X716307Y855199D01*
Y859399D01*
X716477Y859241D01*
D02*
G37*
G36*
X815283Y997417D02*
X815468Y997276D01*
X815668Y997151D01*
X815883Y997044D01*
X816113Y996952D01*
X816358Y996878D01*
X816618Y996819D01*
X816893Y996778D01*
X817183Y996753D01*
X817488Y996745D01*
Y994205D01*
X817183Y994196D01*
X816893Y994172D01*
X816618Y994130D01*
X816358Y994072D01*
X816113Y993997D01*
X815883Y993906D01*
X815668Y993798D01*
X815468Y993673D01*
X815283Y993532D01*
X815113Y993375D01*
Y997575D01*
X815283Y997417D01*
D02*
G37*
G36*
X618754Y857543D02*
X618281Y857032D01*
X617859Y856493D01*
X617488Y855927D01*
X617167Y855334D01*
X616897Y854714D01*
X616677Y854066D01*
X616508Y853391D01*
X616389Y852690D01*
X616321Y851960D01*
X616304Y851204D01*
X608879Y858628D01*
X609636Y858646D01*
X610365Y858714D01*
X611067Y858833D01*
X611742Y859002D01*
X612389Y859222D01*
X613009Y859492D01*
X613603Y859813D01*
X614168Y860184D01*
X614707Y860606D01*
X615218Y861078D01*
X618754Y857543D01*
D02*
G37*
G36*
X1331397Y1017722D02*
X1331108Y1017346D01*
X1330853Y1016941D01*
X1330632Y1016507D01*
X1330445Y1016044D01*
X1330292Y1015553D01*
X1330173Y1015033D01*
X1330088Y1014484D01*
X1330037Y1013907D01*
X1330020Y1013300D01*
X1325020D01*
X1325003Y1013907D01*
X1324952Y1014484D01*
X1324867Y1015033D01*
X1324748Y1015553D01*
X1324595Y1016044D01*
X1324408Y1016507D01*
X1324187Y1016941D01*
X1323932Y1017346D01*
X1323643Y1017722D01*
X1323320Y1018070D01*
X1331720D01*
X1331397Y1017722D01*
D02*
G37*
G36*
X888365Y1014598D02*
X888588Y1014410D01*
X888811Y1014245D01*
X889036Y1014102D01*
X889262Y1013982D01*
X889490Y1013884D01*
X889718Y1013808D01*
X889948Y1013755D01*
X890178Y1013723D01*
X890410Y1013715D01*
X887440Y1010745D01*
X887431Y1010976D01*
X887400Y1011207D01*
X887347Y1011437D01*
X887271Y1011665D01*
X887173Y1011892D01*
X887052Y1012119D01*
X886910Y1012343D01*
X886745Y1012567D01*
X886557Y1012790D01*
X886347Y1013011D01*
X888143Y1014807D01*
X888365Y1014598D01*
D02*
G37*
G36*
X784432Y1005862D02*
X784291Y1005677D01*
X784167Y1005477D01*
X784059Y1005262D01*
X783968Y1005032D01*
X783893Y1004787D01*
X783835Y1004527D01*
X783793Y1004252D01*
X783768Y1003962D01*
X783760Y1003657D01*
X781220D01*
X781212Y1003962D01*
X781187Y1004252D01*
X781145Y1004527D01*
X781087Y1004787D01*
X781013Y1005032D01*
X780921Y1005262D01*
X780813Y1005477D01*
X780689Y1005677D01*
X780548Y1005862D01*
X780390Y1006032D01*
X784590D01*
X784432Y1005862D01*
D02*
G37*
G36*
X909378Y873255D02*
X909208Y873412D01*
X909022Y873553D01*
X908822Y873678D01*
X908607Y873786D01*
X908377Y873877D01*
X908132Y873952D01*
X907872Y874010D01*
X907597Y874052D01*
X907307Y874076D01*
X907002Y874085D01*
Y876625D01*
X907307Y876633D01*
X907597Y876658D01*
X907872Y876699D01*
X908132Y876758D01*
X908377Y876832D01*
X908607Y876924D01*
X908822Y877031D01*
X909022Y877156D01*
X909208Y877297D01*
X909378Y877455D01*
Y873255D01*
D02*
G37*
G36*
X802192Y961879D02*
X802021Y962036D01*
X801836Y962178D01*
X801636Y962302D01*
X801421Y962410D01*
X801191Y962501D01*
X800946Y962576D01*
X800686Y962634D01*
X800411Y962675D01*
X800121Y962700D01*
X799816Y962709D01*
Y965249D01*
X800121Y965257D01*
X800411Y965282D01*
X800686Y965323D01*
X800946Y965381D01*
X801191Y965456D01*
X801421Y965547D01*
X801636Y965655D01*
X801836Y965780D01*
X802021Y965921D01*
X802192Y966079D01*
Y961879D01*
D02*
G37*
G36*
X736045Y970429D02*
X735904Y970244D01*
X735780Y970044D01*
X735672Y969829D01*
X735581Y969599D01*
X735506Y969354D01*
X735448Y969094D01*
X735406Y968819D01*
X735381Y968529D01*
X735373Y968224D01*
X732833D01*
X732825Y968529D01*
X732800Y968819D01*
X732758Y969094D01*
X732700Y969354D01*
X732626Y969599D01*
X732534Y969829D01*
X732426Y970044D01*
X732302Y970244D01*
X732161Y970429D01*
X732003Y970599D01*
X736203D01*
X736045Y970429D01*
D02*
G37*
G36*
X715852Y952522D02*
X715711Y952337D01*
X715587Y952137D01*
X715479Y951922D01*
X715388Y951692D01*
X715313Y951447D01*
X715255Y951187D01*
X715213Y950912D01*
X715188Y950622D01*
X715180Y950317D01*
X712640D01*
X712632Y950622D01*
X712607Y950912D01*
X712565Y951187D01*
X712507Y951447D01*
X712433Y951692D01*
X712341Y951922D01*
X712233Y952137D01*
X712109Y952337D01*
X711968Y952522D01*
X711810Y952692D01*
X716010D01*
X715852Y952522D01*
D02*
G37*
G36*
X734513Y949511D02*
X734303Y949290D01*
X734116Y949067D01*
X733951Y948843D01*
X733808Y948618D01*
X733687Y948392D01*
X733589Y948165D01*
X733513Y947937D01*
X733460Y947707D01*
X733429Y947477D01*
X733420Y947245D01*
X730450Y950214D01*
X730682Y950223D01*
X730913Y950255D01*
X731142Y950308D01*
X731371Y950384D01*
X731598Y950482D01*
X731824Y950602D01*
X732049Y950745D01*
X732273Y950910D01*
X732495Y951098D01*
X732717Y951307D01*
X734513Y949511D01*
D02*
G37*
G36*
X815283Y1024087D02*
X815468Y1023946D01*
X815668Y1023821D01*
X815883Y1023714D01*
X816113Y1023622D01*
X816358Y1023548D01*
X816618Y1023489D01*
X816893Y1023448D01*
X817183Y1023423D01*
X817488Y1023415D01*
Y1020875D01*
X817183Y1020866D01*
X816893Y1020842D01*
X816618Y1020800D01*
X816358Y1020742D01*
X816113Y1020667D01*
X815883Y1020576D01*
X815668Y1020468D01*
X815468Y1020343D01*
X815283Y1020202D01*
X815113Y1020045D01*
Y1024245D01*
X815283Y1024087D01*
D02*
G37*
G36*
X796862Y906900D02*
X796652Y906677D01*
X796467Y906454D01*
X796307Y906229D01*
X796171Y906004D01*
X796061Y905778D01*
X795976Y905551D01*
X795915Y905324D01*
X795880Y905096D01*
X795869Y904866D01*
X795884Y904637D01*
X792616Y907275D01*
X792843Y907307D01*
X793070Y907358D01*
X793295Y907430D01*
X793520Y907521D01*
X793744Y907632D01*
X793968Y907763D01*
X794190Y907914D01*
X794412Y908084D01*
X794633Y908274D01*
X794854Y908484D01*
X796862Y906900D01*
D02*
G37*
G36*
X925970Y1021685D02*
X925738Y1021676D01*
X925508Y1021645D01*
X925278Y1021591D01*
X925050Y1021516D01*
X924822Y1021417D01*
X924596Y1021297D01*
X924371Y1021154D01*
X924148Y1020989D01*
X923925Y1020802D01*
X923704Y1020592D01*
X921907Y1022388D01*
X922117Y1022609D01*
X922305Y1022832D01*
X922470Y1023056D01*
X922612Y1023281D01*
X922733Y1023507D01*
X922831Y1023734D01*
X922907Y1023963D01*
X922960Y1024192D01*
X922991Y1024423D01*
X923000Y1024655D01*
X925970Y1021685D01*
D02*
G37*
G36*
X883472Y914889D02*
X883301Y915046D01*
X883116Y915188D01*
X882916Y915312D01*
X882701Y915420D01*
X882471Y915511D01*
X882226Y915586D01*
X881966Y915644D01*
X881691Y915686D01*
X881401Y915710D01*
X881096Y915719D01*
Y918259D01*
X881401Y918267D01*
X881691Y918292D01*
X881966Y918333D01*
X882226Y918391D01*
X882471Y918466D01*
X882701Y918558D01*
X882916Y918665D01*
X883116Y918790D01*
X883301Y918931D01*
X883472Y919089D01*
Y914889D01*
D02*
G37*
G36*
X840937Y918931D02*
X841122Y918790D01*
X841322Y918665D01*
X841537Y918558D01*
X841767Y918466D01*
X842012Y918391D01*
X842272Y918333D01*
X842547Y918292D01*
X842837Y918267D01*
X843142Y918259D01*
Y915719D01*
X842837Y915710D01*
X842547Y915686D01*
X842272Y915644D01*
X842012Y915586D01*
X841767Y915511D01*
X841537Y915420D01*
X841322Y915312D01*
X841122Y915188D01*
X840937Y915046D01*
X840767Y914889D01*
Y919089D01*
X840937Y918931D01*
D02*
G37*
D24*
X752586Y538527D02*
X821166D01*
X743500Y547613D02*
X752586Y538527D01*
X743500Y547613D02*
Y606527D01*
X1353354Y720889D02*
Y746289D01*
X1238500Y459527D02*
Y717527D01*
X1353354Y676673D02*
Y720889D01*
X883764Y844599D02*
X904664D01*
X871064Y831899D02*
X883764Y844599D01*
X829734Y831899D02*
X871064D01*
X885520Y890355D02*
X932520Y937355D01*
X759520Y890355D02*
X885520D01*
X743520Y874355D02*
X759520Y890355D01*
X1329520Y954355D02*
Y955355D01*
X1282520Y907355D02*
X1329520Y954355D01*
X1014520Y907355D02*
X1282520D01*
X1327520Y1006355D02*
Y1022355D01*
X1258520Y937355D02*
X1327520Y1006355D01*
X932520Y937355D02*
X1258520D01*
X989594Y882429D02*
X1014520Y907355D01*
X949022Y882429D02*
X989594D01*
X674520Y883355D02*
X683520Y874355D01*
X743520D01*
X608804Y851129D02*
X621344Y863669D01*
X674520Y883355D02*
Y901475D01*
X699400Y926355D01*
X752520D01*
X660824Y812849D02*
X679874Y831899D01*
X829734D01*
X621344Y863669D02*
Y881403D01*
X598340Y1154225D02*
X616120D01*
X699940Y1070405D01*
Y952295D02*
Y1070405D01*
X621344Y881403D02*
X640166Y900225D01*
X647870D01*
X699940Y952295D01*
D26*
X707500Y590527D02*
X710500Y593527D01*
X707500Y581870D02*
Y590527D01*
Y581870D02*
X709500Y579870D01*
Y405527D02*
Y579870D01*
X685010Y381037D02*
X709500Y405527D01*
X713500Y581527D02*
X716500Y584527D01*
X713500Y393527D02*
Y581527D01*
X675610Y355637D02*
X713500Y393527D01*
X1279500Y685527D02*
X1291500Y673527D01*
X1279500Y685527D02*
Y702527D01*
X863500Y499527D02*
Y604527D01*
X849500Y618527D02*
X863500Y604527D01*
X849500Y618527D02*
X849500D01*
X838500Y617527D02*
Y626527D01*
Y617527D02*
X857500Y598527D01*
Y498527D02*
Y598527D01*
X891500Y356527D02*
Y369527D01*
X857500Y498527D02*
X880500Y475527D01*
X885500Y375527D02*
X891500Y369527D01*
X885500Y375527D02*
Y477527D01*
X863500Y499527D02*
X885500Y477527D01*
X876500Y356527D02*
Y371527D01*
X880500Y375527D01*
Y475527D01*
X634280Y381037D02*
X685010D01*
X634280Y355637D02*
X675610D01*
X634280Y330237D02*
X684210D01*
X722500Y368527D01*
X850500Y542527D02*
Y575527D01*
X722500Y368527D02*
Y576527D01*
X702500Y433527D02*
Y565527D01*
X675410Y406437D02*
X702500Y433527D01*
X634280Y406437D02*
X675410D01*
D27*
X1022520Y959355D02*
X1251520D01*
X967520D02*
X1022520D01*
Y988355D01*
X961520Y953355D02*
X967520Y959355D01*
X1251520D02*
X1292520Y1000355D01*
Y1010355D01*
X1328520Y1143355D02*
X1381520D01*
X962900Y1206619D02*
X1153174D01*
X950638Y1194357D02*
X962900Y1206619D01*
D31*
X789520Y875355D02*
X911520D01*
X771464Y857299D02*
X789520Y875355D01*
X714164Y857299D02*
X771464D01*
X792904Y904289D02*
Y904739D01*
X1391520Y1112355D02*
X1429603Y1150438D01*
X1326520Y1112355D02*
X1391520D01*
X1187520Y973355D02*
X1326520Y1112355D01*
X1429603Y1150438D02*
Y1190729D01*
X1181520Y982355D02*
X1320520Y1121355D01*
X1085520Y982355D02*
X1181520D01*
X1054520Y1013355D02*
X1085520Y982355D01*
X1076520Y973355D02*
X1187520D01*
X1404203Y1137038D02*
Y1190729D01*
X1388520Y1121355D02*
X1404203Y1137038D01*
X1320520Y1121355D02*
X1388520D01*
X987520Y1013355D02*
X1054520D01*
X715434Y900479D02*
X725594Y910639D01*
X700194Y900479D02*
X715434D01*
X838624Y916989D02*
X885614D01*
X736453Y912925D02*
X749026D01*
X812970Y1022145D02*
X879010D01*
X890440Y1010715D01*
X897044Y972615D02*
Y972869D01*
X897298Y972615D02*
X912030D01*
X812970Y995475D02*
X896790D01*
X926000Y1024685D01*
X792904Y904739D02*
X818050Y929885D01*
X730420Y947215D02*
X734103Y950898D01*
Y972742D01*
X734167Y910639D02*
X736453Y912925D01*
X725594Y910639D02*
X734167D01*
X782490Y999285D02*
Y1008175D01*
Y999285D02*
X818050Y963725D01*
Y929885D02*
Y963725D01*
X751312Y910639D02*
X773854D01*
X789094Y925879D01*
X782744Y963979D02*
X804334D01*
X713910Y948485D02*
Y954835D01*
X721990Y940405D02*
X759170D01*
X713910Y948485D02*
X721990Y940405D01*
X759170D02*
X782744Y963979D01*
X912030Y972615D02*
X948860Y1009445D01*
Y1024685D01*
X897044Y972869D02*
X897298Y972615D01*
X749026Y912925D02*
X751312Y910639D01*
D51*
X1429554Y746289D02*
D03*
Y720889D02*
D03*
X1404154Y746289D02*
D03*
Y720889D02*
D03*
X1378754Y746289D02*
D03*
Y720889D02*
D03*
X1353354Y746289D02*
D03*
X608880Y406437D02*
D03*
X634280D02*
D03*
X608880Y381037D02*
D03*
X634280D02*
D03*
X608880Y355637D02*
D03*
X634280D02*
D03*
X608880Y330237D02*
D03*
X608804Y800329D02*
D03*
X634204Y825729D02*
D03*
X608804D02*
D03*
X634204Y851129D02*
D03*
X608804D02*
D03*
X634204Y876529D02*
D03*
X608804D02*
D03*
X1353403Y1216129D02*
D03*
X1378803Y1190729D02*
D03*
Y1216129D02*
D03*
X1404203Y1190729D02*
D03*
Y1216129D02*
D03*
X1429603Y1190729D02*
D03*
Y1216129D02*
D03*
D52*
X1353354Y720889D02*
D03*
X1353403Y1190729D02*
D03*
D53*
X634280Y330237D02*
D03*
X634204Y800329D02*
D03*
D54*
X936500Y356527D02*
D03*
X921500D02*
D03*
X906500D02*
D03*
X891500D02*
D03*
X876500D02*
D03*
D55*
X861500D02*
D03*
D56*
X1196500Y408527D02*
D03*
X1221500D02*
D03*
X1246500D02*
D03*
X1296500D02*
D03*
X1271500D02*
D03*
X1171500Y388527D02*
D03*
Y363527D02*
D03*
X1196500Y388527D02*
D03*
Y363527D02*
D03*
X1221500Y388527D02*
D03*
X1246500D02*
D03*
X1271500D02*
D03*
X1221500Y363527D02*
D03*
Y338527D02*
D03*
X1196500D02*
D03*
X1171500D02*
D03*
X1146500D02*
D03*
Y313527D02*
D03*
X1171500D02*
D03*
X1196500D02*
D03*
X1221500D02*
D03*
X1246500D02*
D03*
Y338527D02*
D03*
Y363527D02*
D03*
X1271500Y318527D02*
D03*
Y338527D02*
D03*
Y363527D02*
D03*
X1296500Y318527D02*
D03*
Y338527D02*
D03*
Y363527D02*
D03*
Y388527D02*
D03*
X1321500Y318527D02*
D03*
Y338527D02*
D03*
Y363527D02*
D03*
Y388527D02*
D03*
Y413527D02*
D03*
X1446500Y318527D02*
D03*
X1421500D02*
D03*
X1396500D02*
D03*
X1371500D02*
D03*
X1346500D02*
D03*
X1446500Y338527D02*
D03*
X1421500D02*
D03*
X1396500D02*
D03*
X1371500D02*
D03*
X1346500D02*
D03*
Y363527D02*
D03*
Y388527D02*
D03*
X1371500Y363527D02*
D03*
X1396500D02*
D03*
X1421500D02*
D03*
X1446500D02*
D03*
Y388527D02*
D03*
X1421500D02*
D03*
X1396500D02*
D03*
X1371500D02*
D03*
X1346500Y413527D02*
D03*
X1421500Y438527D02*
D03*
X1446500Y413527D02*
D03*
X1421500D02*
D03*
X1396500D02*
D03*
X1371500D02*
D03*
X1346500Y438527D02*
D03*
X1396500D02*
D03*
X1371500D02*
D03*
Y463527D02*
D03*
Y613527D02*
D03*
X1396500Y638527D02*
D03*
X1371500D02*
D03*
Y663527D02*
D03*
X1396500D02*
D03*
X1421500Y688527D02*
D03*
Y663527D02*
D03*
X1446500D02*
D03*
Y688527D02*
D03*
Y713527D02*
D03*
Y738527D02*
D03*
Y763527D02*
D03*
X1421500D02*
D03*
X1396500D02*
D03*
X1371500D02*
D03*
X1346500D02*
D03*
X1306500Y488527D02*
D03*
Y513527D02*
D03*
X1281500Y488527D02*
D03*
X1256500D02*
D03*
X1271500Y538527D02*
D03*
X1281500Y513527D02*
D03*
Y563527D02*
D03*
Y603527D02*
D03*
Y643527D02*
D03*
X1256500Y513527D02*
D03*
Y563527D02*
D03*
Y603527D02*
D03*
Y643527D02*
D03*
Y673527D02*
D03*
X1221500Y488527D02*
D03*
Y513527D02*
D03*
X1196500D02*
D03*
X1221500Y538527D02*
D03*
Y563527D02*
D03*
Y583527D02*
D03*
Y603527D02*
D03*
Y623527D02*
D03*
Y643527D02*
D03*
Y658527D02*
D03*
Y673527D02*
D03*
X1196500D02*
D03*
Y658527D02*
D03*
Y643527D02*
D03*
Y623527D02*
D03*
Y603527D02*
D03*
Y583527D02*
D03*
Y563527D02*
D03*
Y538527D02*
D03*
Y488527D02*
D03*
X1181500Y513527D02*
D03*
X1171500Y488527D02*
D03*
Y538527D02*
D03*
Y563527D02*
D03*
Y583527D02*
D03*
Y603527D02*
D03*
Y623527D02*
D03*
Y643527D02*
D03*
Y658527D02*
D03*
Y673527D02*
D03*
X1321500Y563527D02*
D03*
Y588527D02*
D03*
Y613527D02*
D03*
Y638527D02*
D03*
Y658527D02*
D03*
Y678527D02*
D03*
X1416500Y733527D02*
D03*
X1391500D02*
D03*
X1296500Y443527D02*
D03*
X1271500D02*
D03*
X1246500D02*
D03*
X1221500D02*
D03*
X1196500D02*
D03*
X1166500Y438527D02*
D03*
X1151500Y423527D02*
D03*
X1136500Y408527D02*
D03*
X1121500Y393527D02*
D03*
X1131500Y313527D02*
D03*
X1111500D02*
D03*
Y328527D02*
D03*
X1091500Y313527D02*
D03*
Y328527D02*
D03*
X931500Y388527D02*
D03*
X946500Y373527D02*
D03*
X931500D02*
D03*
X1146500Y623527D02*
D03*
Y643527D02*
D03*
Y658527D02*
D03*
Y673527D02*
D03*
X1156500Y568527D02*
D03*
X1151500Y583527D02*
D03*
X1146500Y603527D02*
D03*
X1156500Y548527D02*
D03*
Y513527D02*
D03*
X1146500Y488527D02*
D03*
X1131500Y468527D02*
D03*
X1116500Y448527D02*
D03*
X1101500Y433527D02*
D03*
X1081500Y423527D02*
D03*
X1061500Y413527D02*
D03*
X1036500Y408527D02*
D03*
X1011500D02*
D03*
X986500Y413527D02*
D03*
X961500Y423527D02*
D03*
X936500Y438527D02*
D03*
X916500Y458527D02*
D03*
X901500Y478527D02*
D03*
X891500Y498527D02*
D03*
X876500D02*
D03*
X961500Y658527D02*
D03*
X1321500Y703527D02*
D03*
X1296500D02*
D03*
X1321500Y718527D02*
D03*
X1296500D02*
D03*
X1271500D02*
D03*
X1321500Y733527D02*
D03*
Y748527D02*
D03*
Y763527D02*
D03*
X1296500D02*
D03*
Y748527D02*
D03*
Y733527D02*
D03*
X1271500D02*
D03*
Y763527D02*
D03*
Y748527D02*
D03*
X1246500Y733527D02*
D03*
Y748527D02*
D03*
Y763527D02*
D03*
X1221500Y733527D02*
D03*
Y748527D02*
D03*
Y763527D02*
D03*
X1196500Y733527D02*
D03*
Y748527D02*
D03*
Y763527D02*
D03*
X1171500Y733527D02*
D03*
Y748527D02*
D03*
Y763527D02*
D03*
X1001500Y728527D02*
D03*
X986500Y713527D02*
D03*
X1146500Y733527D02*
D03*
Y748527D02*
D03*
Y763527D02*
D03*
X1126500Y623527D02*
D03*
Y643527D02*
D03*
X1101500D02*
D03*
X1126500Y658527D02*
D03*
Y673527D02*
D03*
X1101500Y658527D02*
D03*
Y673527D02*
D03*
X1081500Y658527D02*
D03*
Y673527D02*
D03*
X1056500D02*
D03*
X1031500D02*
D03*
X1006500D02*
D03*
X981500Y668527D02*
D03*
X1121500Y733527D02*
D03*
Y748527D02*
D03*
Y763527D02*
D03*
X1096500Y733527D02*
D03*
Y748527D02*
D03*
Y763527D02*
D03*
X1071500Y733527D02*
D03*
Y748527D02*
D03*
Y763527D02*
D03*
X1046500Y733527D02*
D03*
Y763527D02*
D03*
Y748527D02*
D03*
X1021500D02*
D03*
Y763527D02*
D03*
X1001500Y748527D02*
D03*
Y763527D02*
D03*
X981500Y748527D02*
D03*
Y763527D02*
D03*
X961500Y718527D02*
D03*
Y733527D02*
D03*
Y748527D02*
D03*
Y763527D02*
D03*
X941500Y703527D02*
D03*
Y718527D02*
D03*
Y733527D02*
D03*
Y763527D02*
D03*
Y748527D02*
D03*
X901500Y673527D02*
D03*
X921500Y688527D02*
D03*
X901500D02*
D03*
X921500Y703527D02*
D03*
X901500D02*
D03*
X921500Y718527D02*
D03*
Y733527D02*
D03*
Y748527D02*
D03*
Y763527D02*
D03*
X901500D02*
D03*
Y718527D02*
D03*
Y733527D02*
D03*
Y748527D02*
D03*
X1071500Y358527D02*
D03*
X1081500Y353527D02*
D03*
Y368527D02*
D03*
X671500D02*
D03*
X651500D02*
D03*
X1101500Y383527D02*
D03*
X1061500Y348527D02*
D03*
Y363527D02*
D03*
X1026500D02*
D03*
Y348527D02*
D03*
X996500Y333527D02*
D03*
X971500D02*
D03*
X1021500Y313527D02*
D03*
X996500D02*
D03*
X971500D02*
D03*
X946500D02*
D03*
X921500D02*
D03*
X896500D02*
D03*
X871500D02*
D03*
X846500D02*
D03*
Y333527D02*
D03*
X821500Y313527D02*
D03*
Y333527D02*
D03*
X796500Y313527D02*
D03*
Y333527D02*
D03*
X731500D02*
D03*
X771500D02*
D03*
X746500D02*
D03*
X771500Y313527D02*
D03*
X746500D02*
D03*
X721500D02*
D03*
X696500D02*
D03*
X671500D02*
D03*
X646500D02*
D03*
X621500D02*
D03*
X591500D02*
D03*
X906500Y603527D02*
D03*
X891500Y588527D02*
D03*
Y573527D02*
D03*
X876500D02*
D03*
X891500Y513527D02*
D03*
X876500D02*
D03*
X891500Y528527D02*
D03*
X876500D02*
D03*
X891500Y543527D02*
D03*
Y558527D02*
D03*
X876500Y543527D02*
D03*
Y558527D02*
D03*
X871500Y453527D02*
D03*
X856500Y468527D02*
D03*
X836500Y488527D02*
D03*
X821500Y503527D02*
D03*
X806500Y518527D02*
D03*
Y528527D02*
D03*
X896500Y383527D02*
D03*
X871500D02*
D03*
X856500D02*
D03*
X871500Y403527D02*
D03*
X856500D02*
D03*
Y423527D02*
D03*
X836500Y368527D02*
D03*
Y383527D02*
D03*
Y403527D02*
D03*
Y423527D02*
D03*
Y443527D02*
D03*
X811500Y368527D02*
D03*
X786500D02*
D03*
X811500Y383527D02*
D03*
Y403527D02*
D03*
Y423527D02*
D03*
Y443527D02*
D03*
Y463527D02*
D03*
X786500Y483527D02*
D03*
Y463527D02*
D03*
Y443527D02*
D03*
Y423527D02*
D03*
Y403527D02*
D03*
Y383527D02*
D03*
X761500Y483527D02*
D03*
Y463527D02*
D03*
Y443527D02*
D03*
Y423527D02*
D03*
Y403527D02*
D03*
Y383527D02*
D03*
Y363527D02*
D03*
X736500D02*
D03*
Y383527D02*
D03*
Y403527D02*
D03*
Y423527D02*
D03*
Y443527D02*
D03*
Y463527D02*
D03*
Y483527D02*
D03*
Y503527D02*
D03*
Y523527D02*
D03*
X591500Y323527D02*
D03*
Y343527D02*
D03*
X581500Y333527D02*
D03*
X591500Y363527D02*
D03*
X581500Y353527D02*
D03*
Y373527D02*
D03*
X596500Y413527D02*
D03*
Y393527D02*
D03*
X581500D02*
D03*
Y413527D02*
D03*
X596500Y423527D02*
D03*
X621500D02*
D03*
X681500Y433527D02*
D03*
X636500D02*
D03*
X651500Y423527D02*
D03*
X671500D02*
D03*
X651500Y443527D02*
D03*
X671500D02*
D03*
X691500D02*
D03*
X671500Y463527D02*
D03*
X691500D02*
D03*
Y483527D02*
D03*
Y503527D02*
D03*
Y523527D02*
D03*
Y583527D02*
D03*
X681500Y598527D02*
D03*
X651500Y628527D02*
D03*
X836500Y543527D02*
D03*
X841500Y558527D02*
D03*
X826500D02*
D03*
X871500Y628527D02*
D03*
X841500Y598527D02*
D03*
X826500Y608527D02*
D03*
X881500Y643527D02*
D03*
Y658527D02*
D03*
Y673527D02*
D03*
Y688527D02*
D03*
Y703527D02*
D03*
Y718527D02*
D03*
Y733527D02*
D03*
Y748527D02*
D03*
Y763527D02*
D03*
X821500Y648527D02*
D03*
X861500Y643527D02*
D03*
X841500D02*
D03*
X861500Y658527D02*
D03*
X841500D02*
D03*
X861500Y673527D02*
D03*
Y688527D02*
D03*
Y703527D02*
D03*
Y718527D02*
D03*
Y733527D02*
D03*
Y748527D02*
D03*
Y763527D02*
D03*
X741500Y658527D02*
D03*
X711500Y613527D02*
D03*
X686500Y628527D02*
D03*
X691500Y613527D02*
D03*
X671500D02*
D03*
Y628527D02*
D03*
X841500Y763527D02*
D03*
Y748527D02*
D03*
Y733527D02*
D03*
Y718527D02*
D03*
Y703527D02*
D03*
X821500Y763527D02*
D03*
Y748527D02*
D03*
Y733527D02*
D03*
Y718527D02*
D03*
Y703527D02*
D03*
Y688527D02*
D03*
X841500D02*
D03*
Y673527D02*
D03*
X821500D02*
D03*
X801500D02*
D03*
X771500D02*
D03*
X751500D02*
D03*
X731500D02*
D03*
X711500D02*
D03*
X631500Y643527D02*
D03*
X691500D02*
D03*
X671500D02*
D03*
X651500D02*
D03*
X691500Y658527D02*
D03*
X671500D02*
D03*
X651500D02*
D03*
X631500D02*
D03*
X611500D02*
D03*
X591500D02*
D03*
X691500Y673527D02*
D03*
X671500D02*
D03*
X651500D02*
D03*
X631500D02*
D03*
X611500D02*
D03*
X591500D02*
D03*
X1279500Y702527D02*
D03*
X849500Y618527D02*
D03*
X838500Y626527D02*
D03*
X716500Y584527D02*
D03*
X710500Y593527D02*
D03*
X1291500Y673527D02*
D03*
X821166Y538527D02*
D03*
X752586D02*
D03*
X743500Y606527D02*
D03*
X850500Y542527D02*
D03*
Y575527D02*
D03*
X1238500Y717527D02*
D03*
Y459527D02*
D03*
X722500Y576527D02*
D03*
X702500Y565527D02*
D03*
X1019020Y1098355D02*
D03*
X1116520Y1043355D02*
D03*
Y1053355D02*
D03*
Y1063355D02*
D03*
Y1073355D02*
D03*
Y1083355D02*
D03*
Y1093355D02*
D03*
Y1103355D02*
D03*
X1101520Y1043355D02*
D03*
X1101022Y1053355D02*
D03*
Y1063355D02*
D03*
X1101520Y1073355D02*
D03*
Y1083355D02*
D03*
Y1093355D02*
D03*
Y1103355D02*
D03*
X1086520Y1043355D02*
D03*
Y1053355D02*
D03*
Y1063355D02*
D03*
Y1073355D02*
D03*
Y1083355D02*
D03*
Y1093355D02*
D03*
Y1103355D02*
D03*
X1071520Y1043355D02*
D03*
Y1053355D02*
D03*
Y1063355D02*
D03*
Y1073355D02*
D03*
Y1083355D02*
D03*
Y1093355D02*
D03*
Y1103355D02*
D03*
X1046520Y1093355D02*
D03*
X1031520D02*
D03*
X1006520D02*
D03*
X991520D02*
D03*
X1006520Y1103355D02*
D03*
X1031520D02*
D03*
X1046520D02*
D03*
X991520D02*
D03*
X1061520Y828355D02*
D03*
X1076520Y783355D02*
D03*
X1061520D02*
D03*
X1076520Y798355D02*
D03*
X1061520D02*
D03*
X1076520Y813355D02*
D03*
X1061520D02*
D03*
X1046520Y783355D02*
D03*
X1031520D02*
D03*
Y798355D02*
D03*
X1046520D02*
D03*
Y813355D02*
D03*
X1031520D02*
D03*
X1046520Y828355D02*
D03*
Y843355D02*
D03*
X1031520Y828355D02*
D03*
Y843355D02*
D03*
X1016520Y828355D02*
D03*
Y843355D02*
D03*
X1001520D02*
D03*
Y828355D02*
D03*
X986520D02*
D03*
Y843355D02*
D03*
X971520D02*
D03*
Y828355D02*
D03*
X956520D02*
D03*
Y843355D02*
D03*
X941520Y828355D02*
D03*
Y843355D02*
D03*
X1058520Y921355D02*
D03*
X759520Y787355D02*
D03*
X782520Y812355D02*
D03*
X961520Y953355D02*
D03*
X678520Y1111355D02*
D03*
X926520Y893355D02*
D03*
X911520Y875355D02*
D03*
X752520Y926355D02*
D03*
X1076520Y973355D02*
D03*
X987520Y1013355D02*
D03*
X889424Y864919D02*
D03*
X789094Y925879D02*
D03*
X792904Y904289D02*
D03*
X904664Y844599D02*
D03*
X660824Y812849D02*
D03*
X829734Y831899D02*
D03*
X714164Y857299D02*
D03*
X700194Y900479D02*
D03*
X804334Y963979D02*
D03*
X823384Y867459D02*
D03*
X838624Y916989D02*
D03*
X885614D02*
D03*
X749470Y912925D02*
D03*
X812970Y1022145D02*
D03*
X926000Y1024685D02*
D03*
X897044Y972615D02*
D03*
X890440Y1010715D02*
D03*
X812970Y995475D02*
D03*
X782490Y1008175D02*
D03*
X734103Y972742D02*
D03*
X598340Y1154225D02*
D03*
Y1202485D02*
D03*
X669460Y1226615D02*
D03*
X730420Y947215D02*
D03*
X833290Y925625D02*
D03*
X713910Y954835D02*
D03*
X948860Y1024685D02*
D03*
X962830Y1022145D02*
D03*
D57*
X765250Y563527D02*
D03*
Y575527D02*
D03*
Y587527D02*
D03*
Y599527D02*
D03*
X777250Y563527D02*
D03*
Y575527D02*
D03*
Y587527D02*
D03*
Y599527D02*
D03*
X789250Y563527D02*
D03*
Y575527D02*
D03*
Y587527D02*
D03*
Y599527D02*
D03*
X801250Y563527D02*
D03*
Y575527D02*
D03*
Y587527D02*
D03*
Y599527D02*
D03*
D58*
X1353500Y676527D02*
D03*
D59*
X1401520Y838355D02*
D03*
X641520Y1178355D02*
D03*
X950638Y1194357D02*
D03*
D60*
X971520Y800855D02*
D03*
X1004994Y1070659D02*
D03*
D61*
X1153174Y1206619D02*
D03*
X1175174Y1131619D02*
D03*
D62*
X1096505Y1115433D02*
D03*
X1021505D02*
D03*
X946505D02*
D03*
D63*
X1101022Y1022429D02*
D03*
D64*
X1075622Y845429D02*
D03*
D65*
X949002Y984429D02*
D03*
X949022Y882429D02*
D03*
D66*
X1328520Y1161355D02*
D03*
X1022520Y988355D02*
D03*
X1292520Y1010355D02*
D03*
Y1023355D02*
D03*
X1328520Y1143355D02*
D03*
X1381520D02*
D03*
X1327520Y1022355D02*
D03*
X1329520Y955355D02*
D03*
M02*
