G04 Layer_Color=65535*
%FSLAX44Y44*%
%MOMM*%
G71*
G01*
G75*
%ADD26C,0.2000*%
%ADD31C,0.2540*%
%ADD67C,0.2500*%
%ADD68C,0.1000*%
%ADD69C,0.1778*%
%ADD70C,0.1270*%
%ADD71C,0.1524*%
%ADD72C,0.1016*%
%ADD73R,4.1656X0.5080*%
D26*
X1084000Y342527D02*
Y370527D01*
X1017000Y342527D02*
Y370527D01*
X1084000D01*
X1017000Y342527D02*
X1084000D01*
X695500Y544527D02*
Y546527D01*
X701500Y544527D02*
Y546527D01*
X701500Y625527D02*
Y627527D01*
X695500Y625527D02*
Y627527D01*
X755586Y517551D02*
Y519551D01*
X749586Y517551D02*
Y519551D01*
X774636Y517551D02*
Y519551D01*
X768636Y517551D02*
Y519551D01*
X721500Y664527D02*
X723500D01*
X721500Y658527D02*
X723500D01*
X723250Y600527D02*
X725250D01*
X723250Y606527D02*
X725250D01*
X748360Y649181D02*
Y651181D01*
X754360Y649181D02*
Y651181D01*
X764500Y649527D02*
Y651527D01*
X770500Y649527D02*
Y651527D01*
X810750Y661527D02*
X812750D01*
X810750Y655527D02*
X812750D01*
X810750Y637527D02*
X812750D01*
X810750Y643527D02*
X812750D01*
X753250Y556527D02*
X758250Y551527D01*
X753250Y606527D02*
Y611527D01*
X758250D01*
X808250D02*
X813250D01*
Y606527D02*
Y611527D01*
Y551527D02*
Y556527D01*
X808250Y551527D02*
X813250D01*
X824166Y517551D02*
Y519551D01*
X818166Y517551D02*
Y519551D01*
X1188128Y979219D02*
Y985834D01*
X1137328Y979219D02*
X1188128D01*
X1137328D02*
Y998269D01*
X1188128D01*
Y992184D02*
Y998269D01*
X596104Y889229D02*
X646904D01*
X596104Y787629D02*
X646904D01*
X596104D02*
Y889229D01*
X646904Y787629D02*
Y889229D01*
X1442303Y1178029D02*
Y1228829D01*
X1340703Y1178029D02*
Y1228829D01*
X1442303D01*
X1340703Y1178029D02*
X1442303D01*
X784174Y881879D02*
X804174D01*
X784174Y969879D02*
X804174D01*
Y881879D02*
Y969879D01*
X784174Y881879D02*
Y969879D01*
D31*
X1329606Y989379D02*
G03*
X1329606Y989379I-25000J0D01*
G01*
X1203180Y884891D02*
X1213180Y874891D01*
X1233180D01*
X1243180Y884891D01*
Y914891D01*
X1203180D02*
X1243180D01*
X1203180Y884891D02*
Y914891D01*
X1327106Y969379D02*
X1332106D01*
X1274606Y959379D02*
Y1019379D01*
X1337606Y1007379D02*
Y1009379D01*
X1327606Y1019379D02*
X1337606Y1009379D01*
Y968379D02*
Y970379D01*
X1329606Y960379D02*
X1337606Y968379D01*
X1274606Y1019379D02*
X1327606D01*
X1329606Y1017379D02*
X1337606Y1009379D01*
X1274606Y959379D02*
X1328606D01*
X1337606Y968379D01*
Y1009379D01*
X1305606Y965379D02*
Y1013379D01*
X1329606Y966879D02*
Y971879D01*
D67*
X1018250Y327527D02*
G03*
X1018250Y327527I-1250J0D01*
G01*
X762500Y542527D02*
G03*
X762500Y542527I-1250J0D01*
G01*
X1047666Y952295D02*
G03*
X1047666Y952295I-1250J0D01*
G01*
X771924Y972479D02*
G03*
X771924Y972479I-1250J0D01*
G01*
D68*
X707989Y653792D02*
G03*
X707989Y653792I-500J0D01*
G01*
X839000Y306527D02*
Y356527D01*
Y306527D02*
X959000D01*
Y356527D01*
X839000D02*
X854000D01*
X944000D02*
X959000D01*
X1240680Y894891D02*
G03*
X1240680Y894891I-17500J0D01*
G01*
X1116520Y803355D02*
X1191520D01*
X1116520Y823355D02*
X1191520D01*
X1116520Y843355D02*
X1191520D01*
X1154020Y778355D02*
Y863355D01*
X1116520Y778355D02*
X1191520D01*
Y863355D01*
X1116520D02*
X1191520D01*
X1116520Y818355D02*
Y863355D01*
Y778355D02*
Y818355D01*
X1235680Y882391D02*
Y884891D01*
Y887391D01*
X1233180Y884891D02*
X1238180D01*
D69*
X723660Y320731D02*
Y329367D01*
X713500Y320731D02*
X723660D01*
X703340D02*
X713500D01*
X703340D02*
Y329367D01*
Y349687D02*
Y358323D01*
X713500D01*
X723660D01*
Y349687D02*
Y358323D01*
X699660Y320891D02*
Y329527D01*
X689500Y320891D02*
X699660D01*
X679340D02*
X689500D01*
X679340D02*
Y329527D01*
Y349847D02*
Y358483D01*
X689500D01*
X699660D01*
Y349847D02*
Y358483D01*
X655340Y349687D02*
Y358323D01*
X665500D01*
X675660D01*
Y349687D02*
Y358323D01*
Y320731D02*
Y329367D01*
X665500Y320731D02*
X675660D01*
X655340D02*
X665500D01*
X655340D02*
Y329367D01*
X703340Y391687D02*
Y400323D01*
X713500D01*
X723660D01*
Y391687D02*
Y400323D01*
Y362731D02*
Y371367D01*
X713500Y362731D02*
X723660D01*
X703340D02*
X713500D01*
X703340D02*
Y371367D01*
X679340Y391527D02*
Y400163D01*
X689500D01*
X699660D01*
Y391527D02*
Y400163D01*
Y362571D02*
Y371207D01*
X689500Y362571D02*
X699660D01*
X679340D02*
X689500D01*
X679340D02*
Y371207D01*
X675660Y362731D02*
Y371367D01*
X665500Y362731D02*
X675660D01*
X655340D02*
X665500D01*
X655340D02*
Y371367D01*
Y391687D02*
Y400323D01*
X665500D01*
X675660D01*
Y391687D02*
Y400323D01*
X1140600Y330527D02*
Y339527D01*
X1116400Y330527D02*
X1140600D01*
X1116400D02*
Y339527D01*
Y369527D02*
Y378527D01*
X1140600D01*
Y369527D02*
Y378527D01*
X1090340Y365687D02*
Y374323D01*
X1100500D01*
X1110660D01*
Y365687D02*
Y374323D01*
Y336731D02*
Y345367D01*
X1100500Y336731D02*
X1110660D01*
X1090340D02*
X1100500D01*
X1090340D02*
Y345367D01*
X1005265Y724453D02*
X1011864D01*
X1005265Y710618D02*
Y724453D01*
Y710618D02*
X1011864D01*
X1029136D02*
X1035736D01*
Y724453D01*
X1029136D02*
X1035736D01*
X848426Y526163D02*
Y532762D01*
X834591D02*
X848426D01*
X834591Y526163D02*
Y532762D01*
Y502291D02*
Y508891D01*
Y502291D02*
X848426D01*
Y508891D01*
X985660Y336891D02*
Y345527D01*
X975500Y336891D02*
X985660D01*
X965340D02*
X975500D01*
X965340D02*
Y345527D01*
Y365847D02*
Y374483D01*
X975500D01*
X985660D01*
Y365847D02*
Y374483D01*
X1010660Y336731D02*
Y345367D01*
X1000500Y336731D02*
X1010660D01*
X990340D02*
X1000500D01*
X990340D02*
Y345367D01*
Y365687D02*
Y374323D01*
X1000500D01*
X1010660D01*
Y365687D02*
Y374323D01*
X722952Y552587D02*
Y559187D01*
X709117D02*
X722952D01*
X709117Y552587D02*
Y559187D01*
Y528716D02*
Y535315D01*
Y528716D02*
X722952D01*
Y535315D01*
X729421Y528716D02*
Y535315D01*
Y528716D02*
X743255D01*
Y535315D01*
Y552587D02*
Y559187D01*
X729421D02*
X743255D01*
X729421Y552587D02*
Y559187D01*
X779575Y634291D02*
Y640891D01*
Y634291D02*
X793409D01*
Y640891D01*
Y658163D02*
Y664762D01*
X779575D02*
X793409D01*
X779575Y658163D02*
Y664762D01*
X1334136Y521453D02*
X1340736D01*
Y507618D02*
Y521453D01*
X1334136Y507618D02*
X1340736D01*
X1310265D02*
X1316864D01*
X1310265D02*
Y521453D01*
X1316864D01*
X772584Y812849D02*
X781220D01*
Y823009D01*
Y833169D01*
X772584D02*
X781220D01*
X743628D02*
X752264D01*
X743628Y823009D02*
Y833169D01*
Y812849D02*
Y823009D01*
Y812849D02*
X752264D01*
X772584Y835709D02*
X781220D01*
Y845869D01*
Y856029D01*
X772584D02*
X781220D01*
X743628D02*
X752264D01*
X743628Y845869D02*
Y856029D01*
Y835709D02*
Y845869D01*
Y835709D02*
X752264D01*
X743628Y878889D02*
X752264D01*
X743628Y868729D02*
Y878889D01*
Y858569D02*
Y868729D01*
Y858569D02*
X752264D01*
X772584D02*
X781220D01*
Y868729D01*
Y878889D01*
X772584D02*
X781220D01*
X719244Y861363D02*
Y869999D01*
Y861363D02*
X729404D01*
X739564D01*
Y869999D01*
Y890319D02*
Y898955D01*
X729404D02*
X739564D01*
X719244D02*
X729404D01*
X719244Y890319D02*
Y898955D01*
X784014Y823263D02*
Y831899D01*
Y823263D02*
X794174D01*
X804334D01*
Y831899D01*
Y852219D02*
Y860855D01*
X794174D02*
X804334D01*
X784014D02*
X794174D01*
X784014Y852219D02*
Y860855D01*
X808144Y823263D02*
Y831899D01*
Y823263D02*
X818304D01*
X828464D01*
Y831899D01*
Y852219D02*
Y860855D01*
X818304D02*
X828464D01*
X808144D02*
X818304D01*
X808144Y852219D02*
Y860855D01*
X851324Y892859D02*
Y901495D01*
X841164D02*
X851324D01*
X831004D02*
X841164D01*
X831004Y892859D02*
Y901495D01*
Y863903D02*
Y872539D01*
Y863903D02*
X841164D01*
X851324D01*
Y872539D01*
X831004Y823263D02*
Y831899D01*
Y823263D02*
X841164D01*
X851324D01*
Y831899D01*
Y852219D02*
Y860855D01*
X841164D02*
X851324D01*
X831004D02*
X841164D01*
X831004Y852219D02*
Y860855D01*
X879264Y823263D02*
Y831899D01*
Y823263D02*
X889424D01*
X899584D01*
Y831899D01*
Y852219D02*
Y860855D01*
X889424D02*
X899584D01*
X879264D02*
X889424D01*
X879264Y852219D02*
Y860855D01*
X856404Y823263D02*
Y831899D01*
Y823263D02*
X866564D01*
X876724D01*
Y831899D01*
Y852219D02*
Y860855D01*
X866564D02*
X876724D01*
X856404D02*
X866564D01*
X856404Y852219D02*
Y860855D01*
X880534Y892859D02*
Y901495D01*
X870374D02*
X880534D01*
X860214D02*
X870374D01*
X860214Y892859D02*
Y901495D01*
Y863903D02*
Y872539D01*
Y863903D02*
X870374D01*
X880534D01*
Y872539D01*
X940224Y1019605D02*
X948860D01*
X940224Y1009445D02*
Y1019605D01*
Y999285D02*
Y1009445D01*
Y999285D02*
X948860D01*
X969180D02*
X977816D01*
Y1009445D01*
Y1019605D01*
X969180D02*
X977816D01*
X907204Y961439D02*
Y970075D01*
X897044D02*
X907204D01*
X886884D02*
X897044D01*
X886884Y961439D02*
Y970075D01*
Y932483D02*
Y941119D01*
Y932483D02*
X897044D01*
X907204D01*
Y941119D01*
X844720Y1010715D02*
X853356D01*
Y1020875D01*
Y1031035D01*
X844720D02*
X853356D01*
X815764D02*
X824400D01*
X815764Y1020875D02*
Y1031035D01*
Y1010715D02*
Y1020875D01*
Y1010715D02*
X824400D01*
X734230Y1011985D02*
Y1020621D01*
X724070D02*
X734230D01*
X713910D02*
X724070D01*
X713910Y1011985D02*
Y1020621D01*
Y983029D02*
Y991665D01*
Y983029D02*
X724070D01*
X734230D01*
Y991665D01*
X773854Y1010715D02*
X782490D01*
X773854D02*
Y1020875D01*
Y1031035D01*
X782490D01*
X802810D02*
X811446D01*
Y1020875D02*
Y1031035D01*
Y1010715D02*
Y1020875D01*
X802810Y1010715D02*
X811446D01*
X773854Y1004365D02*
X782490D01*
X773854Y994205D02*
Y1004365D01*
Y984045D02*
Y994205D01*
Y984045D02*
X782490D01*
X802810D02*
X811446D01*
Y994205D01*
Y1004365D01*
X802810D02*
X811446D01*
X871644Y930959D02*
X880280D01*
Y941119D01*
Y951279D01*
X871644D02*
X880280D01*
X842688D02*
X851324D01*
X842688Y941119D02*
Y951279D01*
Y930959D02*
Y941119D01*
Y930959D02*
X851324D01*
X936160Y1010715D02*
Y1019351D01*
X926000D02*
X936160D01*
X915840D02*
X926000D01*
X915840Y1010715D02*
Y1019351D01*
Y981759D02*
Y990395D01*
Y981759D02*
X926000D01*
X936160D01*
Y990395D01*
X814494Y1004365D02*
X823130D01*
X814494Y994205D02*
Y1004365D01*
Y984045D02*
Y994205D01*
Y984045D02*
X823130D01*
X843450D02*
X852086D01*
Y994205D01*
Y1004365D01*
X843450D02*
X852086D01*
X871644Y906829D02*
X880280D01*
Y916989D01*
Y927149D01*
X871644D02*
X880280D01*
X842688D02*
X851324D01*
X842688Y916989D02*
Y927149D01*
Y906829D02*
Y916989D01*
Y906829D02*
X851324D01*
X871390Y959915D02*
X880026D01*
Y970075D01*
Y980235D01*
X871390D02*
X880026D01*
X842434D02*
X851070D01*
X842434Y970075D02*
Y980235D01*
Y959915D02*
Y970075D01*
Y959915D02*
X851070D01*
X1017884Y910695D02*
X1026520D01*
X1017884D02*
Y920855D01*
Y931015D01*
X1026520D01*
X1046840D02*
X1055476D01*
Y920855D02*
Y931015D01*
Y910695D02*
Y920855D01*
X1046840Y910695D02*
X1055476D01*
X1017884Y885695D02*
X1026520D01*
X1017884D02*
Y895855D01*
Y906015D01*
X1026520D01*
X1046840D02*
X1055476D01*
Y895855D02*
Y906015D01*
Y885695D02*
Y895855D01*
X1046840Y885695D02*
X1055476D01*
X1373548Y1153209D02*
X1382184D01*
X1373548D02*
Y1163369D01*
Y1173529D01*
X1382184D01*
X1402504D02*
X1411140D01*
Y1163369D02*
Y1173529D01*
Y1153209D02*
Y1163369D01*
X1402504Y1153209D02*
X1411140D01*
X1157775Y1165149D02*
X1160060D01*
X1157775D02*
Y1232967D01*
X1197653Y1165149D02*
Y1232967D01*
X1195368Y1165149D02*
X1197653D01*
X1259630Y1025957D02*
X1261915D01*
Y958139D02*
Y1025957D01*
X1222037Y958139D02*
Y1025957D01*
X1224322D01*
X1312842Y1028495D02*
X1321478D01*
Y1038655D01*
Y1048815D01*
X1312842D02*
X1321478D01*
X1283886D02*
X1292522D01*
X1283886Y1038655D02*
Y1048815D01*
Y1028495D02*
Y1038655D01*
Y1028495D02*
X1292522D01*
X1142408Y941627D02*
X1151044D01*
X1142408Y931467D02*
Y941627D01*
Y921307D02*
Y931467D01*
Y921307D02*
X1151044D01*
X1171364D02*
X1180000D01*
Y931467D01*
Y941627D01*
X1171364D02*
X1180000D01*
X1213782Y1001063D02*
Y1009699D01*
X1203622D02*
X1213782D01*
X1193462D02*
X1203622D01*
X1193462Y1001063D02*
Y1009699D01*
Y972107D02*
Y980743D01*
Y972107D02*
X1203622D01*
X1213782D01*
Y980743D01*
X1291380Y929691D02*
X1293665D01*
Y861873D02*
Y929691D01*
X1253787Y861873D02*
Y929691D01*
X1256072D01*
X1010093Y1174654D02*
Y1183654D01*
Y1174654D02*
X1034293D01*
Y1183654D01*
Y1213654D02*
Y1222654D01*
X1010093D02*
X1034293D01*
X1010093Y1213654D02*
Y1222654D01*
X1186478Y1115363D02*
X1188763D01*
Y1047545D02*
Y1115363D01*
X1148885Y1047545D02*
Y1115363D01*
X1151170D01*
X1171110Y896923D02*
X1179746D01*
Y907083D01*
Y917243D01*
X1171110D02*
X1179746D01*
X1142154D02*
X1150790D01*
X1142154Y907083D02*
Y917243D01*
Y896923D02*
Y907083D01*
Y896923D02*
X1150790D01*
X1008678Y965249D02*
X1010963D01*
Y897431D02*
Y965249D01*
X971085Y897431D02*
Y965249D01*
X973370D01*
X701210Y904035D02*
X709846D01*
Y914195D01*
Y924355D01*
X701210D02*
X709846D01*
X672254D02*
X680890D01*
X672254Y914195D02*
Y924355D01*
Y904035D02*
Y914195D01*
Y904035D02*
X680890D01*
X740580Y933245D02*
Y941881D01*
X730420D02*
X740580D01*
X720260D02*
X730420D01*
X720260Y933245D02*
Y941881D01*
Y904289D02*
Y912925D01*
Y904289D02*
X730420D01*
X740580D01*
Y912925D01*
X588180Y1159559D02*
Y1168195D01*
Y1159559D02*
X598340D01*
X608500D01*
Y1168195D01*
Y1188515D02*
Y1197151D01*
X598340D02*
X608500D01*
X588180D02*
X598340D01*
X588180Y1188515D02*
Y1197151D01*
X937684Y932483D02*
Y941119D01*
Y932483D02*
X947844D01*
X958004D01*
Y941119D01*
Y961439D02*
Y970075D01*
X947844D02*
X958004D01*
X937684D02*
X947844D01*
X937684Y961439D02*
Y970075D01*
X912030Y1010715D02*
Y1019351D01*
X901870D02*
X912030D01*
X891710D02*
X901870D01*
X891710Y1010715D02*
Y1019351D01*
Y981759D02*
Y990395D01*
Y981759D02*
X901870D01*
X912030D01*
Y990395D01*
X932604Y961439D02*
Y970075D01*
X922444D02*
X932604D01*
X912284D02*
X922444D01*
X912284Y961439D02*
Y970075D01*
Y932483D02*
Y941119D01*
Y932483D02*
X922444D01*
X932604D01*
Y941119D01*
X701210Y928165D02*
X709846D01*
Y938325D01*
Y948485D01*
X701210D02*
X709846D01*
X672254D02*
X680890D01*
X672254Y938325D02*
Y948485D01*
Y928165D02*
Y938325D01*
Y928165D02*
X680890D01*
X703750Y1216455D02*
X712386D01*
Y1226615D01*
Y1236775D01*
X703750D02*
X712386D01*
X674794D02*
X683430D01*
X674794Y1226615D02*
Y1236775D01*
Y1216455D02*
Y1226615D01*
Y1216455D02*
X683430D01*
X713670Y1187845D02*
X722670D01*
Y1212045D01*
X713670D02*
X722670D01*
X674670D02*
X683670D01*
X674670Y1187845D02*
Y1212045D01*
Y1187845D02*
X683670D01*
X713670Y1157365D02*
X722670D01*
Y1181565D01*
X713670D02*
X722670D01*
X674670D02*
X683670D01*
X674670Y1157365D02*
Y1181565D01*
Y1157365D02*
X683670D01*
X640250Y1141525D02*
Y1150161D01*
X630090D02*
X640250D01*
X619930D02*
X630090D01*
X619930Y1141525D02*
Y1150161D01*
Y1112569D02*
Y1121205D01*
Y1112569D02*
X630090D01*
X640250D01*
Y1121205D01*
X664380Y1141525D02*
Y1150161D01*
X654220D02*
X664380D01*
X644060D02*
X654220D01*
X644060Y1141525D02*
Y1150161D01*
Y1112569D02*
Y1121205D01*
Y1112569D02*
X654220D01*
X664380D01*
Y1121205D01*
X688764Y1141779D02*
Y1150415D01*
X678604D02*
X688764D01*
X668444D02*
X678604D01*
X668444Y1141779D02*
Y1150415D01*
Y1112823D02*
Y1121459D01*
Y1112823D02*
X678604D01*
X688764D01*
Y1121459D01*
X714164Y1141779D02*
Y1150415D01*
X704004D02*
X714164D01*
X693844D02*
X704004D01*
X693844Y1141779D02*
Y1150415D01*
Y1112823D02*
Y1121459D01*
Y1112823D02*
X704004D01*
X714164D01*
Y1121459D01*
X700194Y878889D02*
X708830D01*
Y889049D01*
Y899209D01*
X700194D02*
X708830D01*
X671238D02*
X679874D01*
X671238Y889049D02*
Y899209D01*
Y878889D02*
Y889049D01*
Y878889D02*
X679874D01*
X699940Y855775D02*
X708576D01*
Y865935D01*
Y876095D01*
X699940D02*
X708576D01*
X670984D02*
X679620D01*
X670984Y865935D02*
Y876095D01*
Y855775D02*
Y865935D01*
Y855775D02*
X679620D01*
X671238Y852219D02*
X679874D01*
X671238Y842059D02*
Y852219D01*
Y831899D02*
Y842059D01*
Y831899D02*
X679874D01*
X700194D02*
X708830D01*
Y842059D01*
Y852219D01*
X700194D02*
X708830D01*
X700194Y807769D02*
X708830D01*
Y817929D01*
Y828089D01*
X700194D02*
X708830D01*
X671238D02*
X679874D01*
X671238Y817929D02*
Y828089D01*
Y807769D02*
Y817929D01*
Y807769D02*
X679874D01*
X700194Y783639D02*
X708830D01*
Y793799D01*
Y803959D01*
X700194D02*
X708830D01*
X671238D02*
X679874D01*
X671238Y793799D02*
Y803959D01*
Y783639D02*
Y793799D01*
Y783639D02*
X679874D01*
X739564Y848409D02*
Y857045D01*
X729404D02*
X739564D01*
X719244D02*
X729404D01*
X719244Y848409D02*
Y857045D01*
Y819453D02*
Y828089D01*
Y819453D02*
X729404D01*
X739564D01*
Y828089D01*
X916094Y906829D02*
X924730D01*
Y916989D01*
Y927149D01*
X916094D02*
X924730D01*
X887138D02*
X895774D01*
X887138Y916989D02*
Y927149D01*
Y906829D02*
Y916989D01*
Y906829D02*
X895774D01*
X887138Y903019D02*
X895774D01*
X887138Y892859D02*
Y903019D01*
Y882699D02*
Y892859D01*
Y882699D02*
X895774D01*
X916094D02*
X924730D01*
Y892859D01*
Y903019D01*
X916094D02*
X924730D01*
X772584Y788719D02*
X781220D01*
Y798879D01*
Y809039D01*
X772584D02*
X781220D01*
X743628D02*
X752264D01*
X743628Y798879D02*
Y809039D01*
Y788719D02*
Y798879D01*
Y788719D02*
X752264D01*
X815764Y798879D02*
X824400D01*
Y809039D01*
Y819199D01*
X815764D02*
X824400D01*
X786808D02*
X795444D01*
X786808Y809039D02*
Y819199D01*
Y798879D02*
Y809039D01*
Y798879D02*
X795444D01*
X835068Y819199D02*
X843704D01*
X835068Y809039D02*
Y819199D01*
Y798879D02*
Y809039D01*
Y798879D02*
X843704D01*
X864024D02*
X872660D01*
Y809039D01*
Y819199D01*
X864024D02*
X872660D01*
X928002Y1214151D02*
X937002D01*
Y1238351D01*
X928002D02*
X937002D01*
X889002D02*
X898002D01*
X889002Y1214151D02*
Y1238351D01*
Y1214151D02*
X898002D01*
X928475Y1182823D02*
X937475D01*
Y1207023D01*
X928475D02*
X937475D01*
X889475D02*
X898475D01*
X889475Y1182823D02*
Y1207023D01*
Y1182823D02*
X898475D01*
D70*
X1006895Y741067D02*
X1009435Y743607D01*
X1018325D01*
X1006895Y735987D02*
X1009435Y733447D01*
X1018325D01*
X1009435D02*
Y743607D01*
X1006895Y735987D02*
Y741067D01*
X1033565Y733447D02*
Y743607D01*
X1024675D02*
X1033565D01*
X1024675Y733447D02*
X1033565D01*
X1329655Y533437D02*
X1338545D01*
X1329655Y543597D02*
X1338545D01*
Y533437D02*
Y543597D01*
X1311875Y535977D02*
Y541057D01*
X1314415Y533437D02*
Y543597D01*
Y533437D02*
X1323305D01*
X1311875Y535977D02*
X1314415Y533437D01*
Y543597D02*
X1323305D01*
X1311875Y541057D02*
X1314415Y543597D01*
X693750Y405597D02*
X683753D01*
Y410595D01*
X685419Y412262D01*
X688752D01*
X690418Y410595D01*
Y405597D01*
Y408929D02*
X693750Y412262D01*
X692084Y415594D02*
X693750Y417260D01*
Y420592D01*
X692084Y422258D01*
X685419D01*
X683753Y420592D01*
Y417260D01*
X685419Y415594D01*
X687086D01*
X688752Y417260D01*
Y422258D01*
X718500Y406367D02*
X708503D01*
Y411365D01*
X710170Y413032D01*
X713502D01*
X715168Y411365D01*
Y406367D01*
Y409699D02*
X718500Y413032D01*
X710170Y416364D02*
X708503Y418030D01*
Y421362D01*
X710170Y423028D01*
X711836D01*
X713502Y421362D01*
X715168Y423028D01*
X716834D01*
X718500Y421362D01*
Y418030D01*
X716834Y416364D01*
X715168D01*
X713502Y418030D01*
X711836Y416364D01*
X710170D01*
X713502Y418030D02*
Y421362D01*
X754500Y319527D02*
X744503D01*
Y324525D01*
X746170Y326191D01*
X749502D01*
X751168Y324525D01*
Y319527D01*
Y322859D02*
X754500Y326191D01*
X744503Y329524D02*
Y336188D01*
X746170D01*
X752834Y329524D01*
X754500D01*
X767500Y319687D02*
X757503D01*
Y324685D01*
X759169Y326352D01*
X762502D01*
X764168Y324685D01*
Y319687D01*
Y323019D02*
X767500Y326352D01*
X757503Y336348D02*
Y329684D01*
X762502D01*
X760836Y333016D01*
Y334682D01*
X762502Y336348D01*
X765834D01*
X767500Y334682D01*
Y331350D01*
X765834Y329684D01*
X660819Y412422D02*
X659153Y410756D01*
Y407423D01*
X660819Y405757D01*
X667484D01*
X669150Y407423D01*
Y410756D01*
X667484Y412422D01*
X669150Y415754D02*
Y419086D01*
Y417420D01*
X659153D01*
X660819Y415754D01*
X659153Y430749D02*
Y424085D01*
X664152D01*
X662486Y427417D01*
Y429083D01*
X664152Y430749D01*
X667484D01*
X669150Y429083D01*
Y425751D01*
X667484Y424085D01*
X731170Y326191D02*
X729503Y324525D01*
Y321193D01*
X731170Y319527D01*
X737834D01*
X739500Y321193D01*
Y324525D01*
X737834Y326191D01*
X739500Y329524D02*
Y332856D01*
Y331190D01*
X729503D01*
X731170Y329524D01*
X739500Y342853D02*
X729503D01*
X734502Y337854D01*
Y344519D01*
X1041500Y410524D02*
Y402193D01*
X1043166Y400527D01*
X1046498D01*
X1048165Y402193D01*
Y410524D01*
X1051497Y408858D02*
X1053163Y410524D01*
X1056495D01*
X1058161Y408858D01*
Y407192D01*
X1056495Y405525D01*
X1054829D01*
X1056495D01*
X1058161Y403859D01*
Y402193D01*
X1056495Y400527D01*
X1053163D01*
X1051497Y402193D01*
X1146503Y350191D02*
Y343527D01*
X1151502D01*
Y346859D01*
Y343527D01*
X1156500D01*
Y360188D02*
Y353524D01*
X1149836Y360188D01*
X1148169D01*
X1146503Y358522D01*
Y355190D01*
X1148169Y353524D01*
X1096170Y388032D02*
X1094503Y386365D01*
Y383033D01*
X1096170Y381367D01*
X1102834D01*
X1104500Y383033D01*
Y386365D01*
X1102834Y388032D01*
X1104500Y398028D02*
Y391364D01*
X1097836Y398028D01*
X1096170D01*
X1094503Y396362D01*
Y393030D01*
X1096170Y391364D01*
X1094503Y408025D02*
Y401361D01*
X1099502D01*
X1097836Y404693D01*
Y406359D01*
X1099502Y408025D01*
X1102834D01*
X1104500Y406359D01*
Y403027D01*
X1102834Y401361D01*
X751360Y632238D02*
X758025Y622241D01*
Y632238D02*
X751360Y622241D01*
X761357D02*
X764689D01*
X763023D01*
Y632238D01*
X761357Y630572D01*
X808650Y630894D02*
Y622563D01*
X810316Y620897D01*
X813649D01*
X815315Y622563D01*
Y630894D01*
X818647Y620897D02*
X821979D01*
X820313D01*
Y630894D01*
X818647Y629228D01*
X865500Y505527D02*
X855503D01*
Y510525D01*
X857169Y512192D01*
X860502D01*
X862168Y510525D01*
Y505527D01*
Y508859D02*
X865500Y512192D01*
Y515524D02*
Y518856D01*
Y517190D01*
X855503D01*
X857169Y515524D01*
X865500Y530519D02*
Y523854D01*
X858836Y530519D01*
X857169D01*
X855503Y528853D01*
Y525521D01*
X857169Y523854D01*
X982500Y713527D02*
Y723524D01*
X987498D01*
X989165Y721858D01*
Y718525D01*
X987498Y716859D01*
X982500D01*
X985832D02*
X989165Y713527D01*
X999161Y723524D02*
X995829Y721858D01*
X992497Y718525D01*
Y715193D01*
X994163Y713527D01*
X997495D01*
X999161Y715193D01*
Y716859D01*
X997495Y718525D01*
X992497D01*
X840230Y362257D02*
Y372254D01*
X845229D01*
X846895Y370588D01*
Y367255D01*
X845229Y365589D01*
X840230D01*
X856891Y362257D02*
X850227D01*
X856891Y368922D01*
Y370588D01*
X855225Y372254D01*
X851893D01*
X850227Y370588D01*
X1003180Y760764D02*
Y750767D01*
X1009845D01*
X1019841Y760764D02*
X1013177D01*
Y750767D01*
X1019841D01*
X1013177Y755765D02*
X1016509D01*
X1023174Y760764D02*
Y750767D01*
X1028172D01*
X1029838Y752433D01*
Y759098D01*
X1028172Y760764D01*
X1023174D01*
X1039835Y750767D02*
X1033170D01*
X1039835Y757431D01*
Y759098D01*
X1038169Y760764D01*
X1034837D01*
X1033170Y759098D01*
X781583Y670227D02*
X791580D01*
Y676891D01*
X783250Y680224D02*
X781583Y681890D01*
Y685222D01*
X783250Y686888D01*
X784916D01*
X786582Y685222D01*
Y683556D01*
Y685222D01*
X788248Y686888D01*
X789914D01*
X791580Y685222D01*
Y681890D01*
X789914Y680224D01*
X731429Y565161D02*
X741426D01*
Y571825D01*
Y581822D02*
Y575158D01*
X734762Y581822D01*
X733095D01*
X731429Y580156D01*
Y576824D01*
X733095Y575158D01*
X711109Y565541D02*
X721106D01*
Y572206D01*
Y575538D02*
Y578870D01*
Y577204D01*
X711109D01*
X712775Y575538D01*
X970170Y387192D02*
X968503Y385525D01*
Y382193D01*
X970170Y380527D01*
X976834D01*
X978500Y382193D01*
Y385525D01*
X976834Y387192D01*
X978500Y397188D02*
Y390524D01*
X971836Y397188D01*
X970170D01*
X968503Y395522D01*
Y392190D01*
X970170Y390524D01*
X968503Y400521D02*
Y407185D01*
X970170D01*
X976834Y400521D01*
X978500D01*
X995170Y387351D02*
X993503Y385685D01*
Y382353D01*
X995170Y380687D01*
X1001834D01*
X1003500Y382353D01*
Y385685D01*
X1001834Y387351D01*
X1003500Y397348D02*
Y390684D01*
X996836Y397348D01*
X995170D01*
X993503Y395682D01*
Y392350D01*
X995170Y390684D01*
X993503Y407345D02*
X995170Y404013D01*
X998502Y400681D01*
X1001834D01*
X1003500Y402347D01*
Y405679D01*
X1001834Y407345D01*
X1000168D01*
X998502Y405679D01*
Y400681D01*
X801170Y512192D02*
X799503Y510525D01*
Y507193D01*
X801170Y505527D01*
X807834D01*
X809500Y507193D01*
Y510525D01*
X807834Y512192D01*
X809500Y515524D02*
Y518856D01*
Y517190D01*
X799503D01*
X801170Y515524D01*
Y523854D02*
X799503Y525521D01*
Y528853D01*
X801170Y530519D01*
X802836D01*
X804502Y528853D01*
Y527187D01*
Y528853D01*
X806168Y530519D01*
X807834D01*
X809500Y528853D01*
Y525521D01*
X807834Y523854D01*
X837135Y661258D02*
X835469Y662924D01*
X832136D01*
X830470Y661258D01*
Y654593D01*
X832136Y652927D01*
X835469D01*
X837135Y654593D01*
X840467Y652927D02*
X843799D01*
X842133D01*
Y662924D01*
X840467Y661258D01*
X855462Y652927D02*
X848798D01*
X855462Y659592D01*
Y661258D01*
X853796Y662924D01*
X850464D01*
X848798Y661258D01*
X837465Y643778D02*
X835798Y645444D01*
X832466D01*
X830800Y643778D01*
Y637113D01*
X832466Y635447D01*
X835798D01*
X837465Y637113D01*
X840797Y635447D02*
X844129D01*
X842463D01*
Y645444D01*
X840797Y643778D01*
X849128Y635447D02*
X852460D01*
X850794D01*
Y645444D01*
X849128Y643778D01*
X764249Y676242D02*
X762583Y674575D01*
Y671243D01*
X764249Y669577D01*
X770914D01*
X772580Y671243D01*
Y674575D01*
X770914Y676242D01*
X772580Y679574D02*
Y682906D01*
Y681240D01*
X762583D01*
X764249Y679574D01*
Y687904D02*
X762583Y689571D01*
Y692903D01*
X764249Y694569D01*
X770914D01*
X772580Y692903D01*
Y689571D01*
X770914Y687904D01*
X764249D01*
X746840Y675895D02*
X745173Y674229D01*
Y670897D01*
X746840Y669231D01*
X753504D01*
X755170Y670897D01*
Y674229D01*
X753504Y675895D01*
Y679228D02*
X755170Y680894D01*
Y684226D01*
X753504Y685892D01*
X746840D01*
X745173Y684226D01*
Y680894D01*
X746840Y679228D01*
X748506D01*
X750172Y680894D01*
Y685892D01*
X697895Y606778D02*
X696228Y608444D01*
X692896D01*
X691230Y606778D01*
Y600113D01*
X692896Y598447D01*
X696228D01*
X697895Y600113D01*
X701227Y606778D02*
X702893Y608444D01*
X706225D01*
X707891Y606778D01*
Y605112D01*
X706225Y603445D01*
X707891Y601779D01*
Y600113D01*
X706225Y598447D01*
X702893D01*
X701227Y600113D01*
Y601779D01*
X702893Y603445D01*
X701227Y605112D01*
Y606778D01*
X702893Y603445D02*
X706225D01*
X719132Y683193D02*
X717466Y684859D01*
X714133D01*
X712467Y683193D01*
Y676528D01*
X714133Y674862D01*
X717466D01*
X719132Y676528D01*
X722464Y684859D02*
X729128D01*
Y683193D01*
X722464Y676528D01*
Y674862D01*
X734096Y512515D02*
X732429Y510849D01*
Y507517D01*
X734096Y505851D01*
X740760D01*
X742426Y507517D01*
Y510849D01*
X740760Y512515D01*
X732429Y522512D02*
X734096Y519180D01*
X737428Y515848D01*
X740760D01*
X742426Y517514D01*
Y520846D01*
X740760Y522512D01*
X739094D01*
X737428Y520846D01*
Y515848D01*
X782355Y517595D02*
X780689Y515929D01*
Y512597D01*
X782355Y510931D01*
X789020D01*
X790686Y512597D01*
Y515929D01*
X789020Y517595D01*
X780689Y527592D02*
Y520928D01*
X785688D01*
X784022Y524260D01*
Y525926D01*
X785688Y527592D01*
X789020D01*
X790686Y525926D01*
Y522594D01*
X789020Y520928D01*
X693979Y649302D02*
X692313Y647635D01*
Y644303D01*
X693979Y642637D01*
X700644D01*
X702310Y644303D01*
Y647635D01*
X700644Y649302D01*
X702310Y657632D02*
X692313D01*
X697312Y652634D01*
Y659298D01*
X695249Y568702D02*
X693583Y567035D01*
Y563703D01*
X695249Y562037D01*
X701914D01*
X703580Y563703D01*
Y567035D01*
X701914Y568702D01*
X695249Y572034D02*
X693583Y573700D01*
Y577032D01*
X695249Y578698D01*
X696916D01*
X698582Y577032D01*
Y575366D01*
Y577032D01*
X700248Y578698D01*
X701914D01*
X703580Y577032D01*
Y573700D01*
X701914Y572034D01*
X1309500Y559524D02*
Y549527D01*
X1316165D01*
X1326161Y559524D02*
X1319497D01*
Y549527D01*
X1326161D01*
X1319497Y554525D02*
X1322829D01*
X1329494Y559524D02*
Y549527D01*
X1334492D01*
X1336158Y551193D01*
Y557858D01*
X1334492Y559524D01*
X1329494D01*
X1339491Y549527D02*
X1342823D01*
X1341157D01*
Y559524D01*
X1339491Y557858D01*
X1319500Y491527D02*
Y501524D01*
X1324498D01*
X1326165Y499858D01*
Y496525D01*
X1324498Y494859D01*
X1319500D01*
X1322832D02*
X1326165Y491527D01*
X1329497D02*
X1332829D01*
X1331163D01*
Y501524D01*
X1329497Y499858D01*
X856503Y312527D02*
X863168D01*
X866500Y315859D01*
X863168Y319191D01*
X856503D01*
Y322524D02*
X866500D01*
Y327522D01*
X864834Y329188D01*
X858169D01*
X856503Y327522D01*
Y322524D01*
Y332521D02*
X866500D01*
Y337519D01*
X864834Y339185D01*
X858169D01*
X856503Y337519D01*
Y332521D01*
X871503Y312527D02*
X881500D01*
Y317525D01*
X879834Y319191D01*
X873169D01*
X871503Y317525D01*
Y312527D01*
Y322524D02*
Y325856D01*
Y324190D01*
X881500D01*
Y322524D01*
Y325856D01*
X871503Y335853D02*
Y332521D01*
X873169Y330854D01*
X879834D01*
X881500Y332521D01*
Y335853D01*
X879834Y337519D01*
X873169D01*
X871503Y335853D01*
X888169Y319191D02*
X886503Y317525D01*
Y314193D01*
X888169Y312527D01*
X894834D01*
X896500Y314193D01*
Y317525D01*
X894834Y319191D01*
X886503Y322524D02*
X896500D01*
Y329188D01*
X886503Y332521D02*
X896500D01*
X893168D01*
X886503Y339185D01*
X891502Y334187D01*
X896500Y339185D01*
X911500Y312527D02*
X901503D01*
Y317525D01*
X903169Y319191D01*
X906502D01*
X908168Y317525D01*
Y312527D01*
Y315859D02*
X911500Y319191D01*
X901503Y322524D02*
X911500Y329188D01*
X901503D02*
X911500Y322524D01*
X901503Y332521D02*
X911500D01*
Y337519D01*
X909834Y339185D01*
X903169D01*
X901503Y337519D01*
Y332521D01*
X917503Y312527D02*
Y319191D01*
Y315859D01*
X927500D01*
X917503Y322524D02*
X927500Y329188D01*
X917503D02*
X927500Y322524D01*
X917503Y332521D02*
X927500D01*
Y337519D01*
X925834Y339185D01*
X919169D01*
X917503Y337519D01*
Y332521D01*
X935170Y319191D02*
X933503Y317525D01*
Y314193D01*
X935170Y312527D01*
X941834D01*
X943500Y314193D01*
Y317525D01*
X941834Y319191D01*
X938502D01*
Y315859D01*
X943500Y322524D02*
X933503D01*
X943500Y329188D01*
X933503D01*
Y332521D02*
X943500D01*
Y337519D01*
X941834Y339185D01*
X935170D01*
X933503Y337519D01*
Y332521D01*
X1264422Y1089927D02*
G03*
X1264422Y1187985I-9806J49029D01*
G01*
X1244616Y1188014D02*
G03*
X1244616Y1089956I9806J-49029D01*
G01*
X1202922Y1189735D02*
X1242672D01*
Y1196735D01*
X1202922Y1096985D02*
Y1189735D01*
X1266172D02*
X1266172Y1189735D01*
X1305922D01*
X1242172Y1080235D02*
Y1086735D01*
X1267172Y1080235D02*
Y1086735D01*
X1212922Y1086985D02*
X1242172D01*
X1202922Y1096985D02*
X1212922Y1086985D01*
X1266172Y1189735D02*
Y1196485D01*
X1267172Y1086735D02*
X1280922D01*
X1295922Y1086985D02*
X1305922Y1096985D01*
X1267172Y1086735D02*
X1287422D01*
X1287422Y1086735D01*
X1267172Y1086735D02*
X1295922D01*
X1267172D02*
X1305922D01*
X1305922Y1086735D01*
Y1189735D01*
X1068185Y971685D02*
X1066518Y973352D01*
X1063186D01*
X1061520Y971685D01*
Y970019D01*
X1063186Y968353D01*
X1066518D01*
X1068185Y966687D01*
Y965021D01*
X1066518Y963355D01*
X1063186D01*
X1061520Y965021D01*
X1071517Y973352D02*
Y963355D01*
X1074849Y966687D01*
X1078181Y963355D01*
Y973352D01*
X1081514Y963355D02*
X1084846D01*
X1083180D01*
Y973352D01*
X1081514Y971685D01*
X1358115Y1165095D02*
X1356449Y1166761D01*
X1353116D01*
X1351450Y1165095D01*
Y1158431D01*
X1353116Y1156765D01*
X1356449D01*
X1358115Y1158431D01*
X1368111Y1166761D02*
X1361447D01*
Y1161763D01*
X1364779Y1163429D01*
X1366445D01*
X1368111Y1161763D01*
Y1158431D01*
X1366445Y1156765D01*
X1363113D01*
X1361447Y1158431D01*
X1218669Y856297D02*
X1217002Y857963D01*
X1213670D01*
X1212004Y856297D01*
Y849633D01*
X1213670Y847967D01*
X1217002D01*
X1218669Y849633D01*
X1228665Y847967D02*
X1222001D01*
X1228665Y854631D01*
Y856297D01*
X1226999Y857963D01*
X1223667D01*
X1222001Y856297D01*
X1231998Y847967D02*
X1235330D01*
X1233664D01*
Y857963D01*
X1231998Y856297D01*
X1207381Y960870D02*
X1209047Y962536D01*
Y965869D01*
X1207381Y967535D01*
X1200716D01*
X1199050Y965869D01*
Y962536D01*
X1200716Y960870D01*
X1199050Y950873D02*
Y957538D01*
X1205715Y950873D01*
X1207381D01*
X1209047Y952540D01*
Y955872D01*
X1207381Y957538D01*
X1199050Y940877D02*
Y947541D01*
X1205715Y940877D01*
X1207381D01*
X1209047Y942543D01*
Y945875D01*
X1207381Y947541D01*
X1283185Y1206685D02*
X1281519Y1208352D01*
X1278186D01*
X1276520Y1206685D01*
Y1200021D01*
X1278186Y1198355D01*
X1281519D01*
X1283185Y1200021D01*
X1293181Y1198355D02*
X1286517D01*
X1293181Y1205019D01*
Y1206685D01*
X1291515Y1208352D01*
X1288183D01*
X1286517Y1206685D01*
X1296514D02*
X1298180Y1208352D01*
X1301512D01*
X1303178Y1206685D01*
Y1205019D01*
X1301512Y1203353D01*
X1299846D01*
X1301512D01*
X1303178Y1201687D01*
Y1200021D01*
X1301512Y1198355D01*
X1298180D01*
X1296514Y1200021D01*
X1295185Y949685D02*
X1293519Y951351D01*
X1290186D01*
X1288520Y949685D01*
Y943021D01*
X1290186Y941355D01*
X1293519D01*
X1295185Y943021D01*
X1305181Y941355D02*
X1298517D01*
X1305181Y948019D01*
Y949685D01*
X1303515Y951351D01*
X1300183D01*
X1298517Y949685D01*
X1313512Y941355D02*
Y951351D01*
X1308514Y946353D01*
X1315178D01*
X1206517Y1078355D02*
X1196520D01*
Y1073356D01*
X1198186Y1071690D01*
X1204851D01*
X1206517Y1073356D01*
Y1078355D01*
X1204851Y1068358D02*
X1206517Y1066692D01*
Y1063360D01*
X1204851Y1061693D01*
X1203185D01*
X1201518Y1063360D01*
Y1065026D01*
Y1063360D01*
X1199852Y1061693D01*
X1198186D01*
X1196520Y1063360D01*
Y1066692D01*
X1198186Y1068358D01*
X1265520Y852352D02*
Y842355D01*
X1270518D01*
X1272185Y844021D01*
Y850685D01*
X1270518Y852352D01*
X1265520D01*
X1280515Y842355D02*
Y852352D01*
X1275517Y847353D01*
X1282181D01*
X1233340Y1041031D02*
Y1031035D01*
X1238338D01*
X1240005Y1032701D01*
Y1039365D01*
X1238338Y1041031D01*
X1233340D01*
X1250001D02*
X1243337D01*
Y1036033D01*
X1246669Y1037699D01*
X1248335D01*
X1250001Y1036033D01*
Y1032701D01*
X1248335Y1031035D01*
X1245003D01*
X1243337Y1032701D01*
X1215517Y1229355D02*
X1205520D01*
Y1224356D01*
X1207186Y1222690D01*
X1213851D01*
X1215517Y1224356D01*
Y1229355D01*
Y1212693D02*
X1213851Y1216026D01*
X1210518Y1219358D01*
X1207186D01*
X1205520Y1217692D01*
Y1214360D01*
X1207186Y1212693D01*
X1208852D01*
X1210518Y1214360D01*
Y1219358D01*
X1004577Y1197090D02*
Y1203755D01*
X999578D01*
Y1200422D01*
Y1203755D01*
X994580D01*
Y1193758D02*
Y1190426D01*
Y1192092D01*
X1004577D01*
X1002911Y1193758D01*
X1356520Y898352D02*
Y888355D01*
X1363185D01*
X1371515D02*
Y898352D01*
X1366517Y893353D01*
X1373181D01*
X1110150Y901241D02*
Y911237D01*
X1115148D01*
X1116815Y909571D01*
Y906239D01*
X1115148Y904573D01*
X1110150D01*
X1113482D02*
X1116815Y901241D01*
X1120147D02*
X1123479D01*
X1121813D01*
Y911237D01*
X1120147Y909571D01*
X1128477D02*
X1130144Y911237D01*
X1133476D01*
X1135142Y909571D01*
Y907905D01*
X1133476Y906239D01*
X1135142Y904573D01*
Y902907D01*
X1133476Y901241D01*
X1130144D01*
X1128477Y902907D01*
Y904573D01*
X1130144Y906239D01*
X1128477Y907905D01*
Y909571D01*
X1130144Y906239D02*
X1133476D01*
X1109388Y926895D02*
Y936891D01*
X1114387D01*
X1116053Y935225D01*
Y931893D01*
X1114387Y930227D01*
X1109388D01*
X1112720D02*
X1116053Y926895D01*
X1119385D02*
X1122717D01*
X1121051D01*
Y936891D01*
X1119385Y935225D01*
X1127716Y928561D02*
X1129382Y926895D01*
X1132714D01*
X1134380Y928561D01*
Y935225D01*
X1132714Y936891D01*
X1129382D01*
X1127716Y935225D01*
Y933559D01*
X1129382Y931893D01*
X1134380D01*
X1291520Y1053355D02*
Y1063352D01*
X1296519D01*
X1298185Y1061685D01*
Y1058353D01*
X1296519Y1056687D01*
X1291520D01*
X1294852D02*
X1298185Y1053355D01*
X1308181D02*
X1301517D01*
X1308181Y1060019D01*
Y1061685D01*
X1306515Y1063352D01*
X1303183D01*
X1301517Y1061685D01*
X1311514D02*
X1313180Y1063352D01*
X1316512D01*
X1318178Y1061685D01*
Y1055021D01*
X1316512Y1053355D01*
X1313180D01*
X1311514Y1055021D01*
Y1061685D01*
X741520Y968352D02*
Y960021D01*
X743186Y958355D01*
X746518D01*
X748185Y960021D01*
Y968352D01*
X751517Y958355D02*
X754849D01*
X753183D01*
Y968352D01*
X751517Y966685D01*
X1175520Y1037352D02*
Y1029021D01*
X1177186Y1027355D01*
X1180518D01*
X1182185Y1029021D01*
Y1037352D01*
X1192181Y1027355D02*
X1185517D01*
X1192181Y1034019D01*
Y1035685D01*
X1190515Y1037352D01*
X1187183D01*
X1185517Y1035685D01*
X995687Y888795D02*
X985690D01*
Y883796D01*
X987356Y882130D01*
X994021D01*
X995687Y883796D01*
Y888795D01*
X985690Y878798D02*
Y875466D01*
Y877132D01*
X995687D01*
X994021Y878798D01*
X1068185Y945021D02*
Y951685D01*
X1066518Y953352D01*
X1063186D01*
X1061520Y951685D01*
Y945021D01*
X1063186Y943355D01*
X1066518D01*
X1064852Y946687D02*
X1068185Y943355D01*
X1066518D02*
X1068185Y945021D01*
X1071517Y943355D02*
X1074849D01*
X1073183D01*
Y953352D01*
X1071517Y951685D01*
X1060810Y892045D02*
Y902041D01*
X1065808D01*
X1067475Y900375D01*
Y897043D01*
X1065808Y895377D01*
X1060810D01*
X1064142D02*
X1067475Y892045D01*
X1070807Y900375D02*
X1072473Y902041D01*
X1075805D01*
X1077471Y900375D01*
Y898709D01*
X1075805Y897043D01*
X1074139D01*
X1075805D01*
X1077471Y895377D01*
Y893711D01*
X1075805Y892045D01*
X1072473D01*
X1070807Y893711D01*
X1080804D02*
X1082470Y892045D01*
X1085802D01*
X1087468Y893711D01*
Y900375D01*
X1085802Y902041D01*
X1082470D01*
X1080804Y900375D01*
Y898709D01*
X1082470Y897043D01*
X1087468D01*
X1062080Y915775D02*
Y925771D01*
X1067078D01*
X1068745Y924105D01*
Y920773D01*
X1067078Y919107D01*
X1062080D01*
X1065412D02*
X1068745Y915775D01*
X1077075D02*
Y925771D01*
X1072077Y920773D01*
X1078741D01*
X1082074Y924105D02*
X1083740Y925771D01*
X1087072D01*
X1088738Y924105D01*
Y917441D01*
X1087072Y915775D01*
X1083740D01*
X1082074Y917441D01*
Y924105D01*
X1335482Y1190708D02*
X1325485D01*
Y1195707D01*
X1327151Y1197373D01*
X1330483D01*
X1332150Y1195707D01*
Y1190708D01*
X1327151Y1200705D02*
X1325485Y1202371D01*
Y1205704D01*
X1327151Y1207370D01*
X1328817D01*
X1330483Y1205704D01*
X1332150Y1207370D01*
X1333816D01*
X1335482Y1205704D01*
Y1202371D01*
X1333816Y1200705D01*
X1332150D01*
X1330483Y1202371D01*
X1328817Y1200705D01*
X1327151D01*
X1330483Y1202371D02*
Y1205704D01*
X589450Y789735D02*
X579453D01*
Y794733D01*
X581119Y796399D01*
X584452D01*
X586118Y794733D01*
Y789735D01*
X587784Y799732D02*
X589450Y801398D01*
Y804730D01*
X587784Y806396D01*
X581119D01*
X579453Y804730D01*
Y801398D01*
X581119Y799732D01*
X582786D01*
X584452Y801398D01*
Y806396D01*
X1168185Y796685D02*
X1166518Y798352D01*
X1163186D01*
X1161520Y796685D01*
Y790021D01*
X1163186Y788355D01*
X1166518D01*
X1168185Y790021D01*
X1178181Y796685D02*
X1176515Y798352D01*
X1173183D01*
X1171517Y796685D01*
Y795019D01*
X1173183Y793353D01*
X1176515D01*
X1178181Y791687D01*
Y790021D01*
X1176515Y788355D01*
X1173183D01*
X1171517Y790021D01*
X1181514Y788355D02*
X1184846D01*
X1183180D01*
Y798352D01*
X1181514Y796685D01*
X1168185Y816685D02*
X1166518Y818352D01*
X1163186D01*
X1161520Y816685D01*
Y810021D01*
X1163186Y808355D01*
X1166518D01*
X1168185Y810021D01*
X1178181Y816685D02*
X1176515Y818352D01*
X1173183D01*
X1171517Y816685D01*
Y815019D01*
X1173183Y813353D01*
X1176515D01*
X1178181Y811687D01*
Y810021D01*
X1176515Y808355D01*
X1173183D01*
X1171517Y810021D01*
X1188178Y808355D02*
X1181514D01*
X1188178Y815019D01*
Y816685D01*
X1186512Y818352D01*
X1183180D01*
X1181514Y816685D01*
X1168185Y836685D02*
X1166518Y838352D01*
X1163186D01*
X1161520Y836685D01*
Y830021D01*
X1163186Y828355D01*
X1166518D01*
X1168185Y830021D01*
X1178181Y836685D02*
X1176515Y838352D01*
X1173183D01*
X1171517Y836685D01*
Y835019D01*
X1173183Y833353D01*
X1176515D01*
X1178181Y831687D01*
Y830021D01*
X1176515Y828355D01*
X1173183D01*
X1171517Y830021D01*
X1181514Y836685D02*
X1183180Y838352D01*
X1186512D01*
X1188178Y836685D01*
Y835019D01*
X1186512Y833353D01*
X1184846D01*
X1186512D01*
X1188178Y831687D01*
Y830021D01*
X1186512Y828355D01*
X1183180D01*
X1181514Y830021D01*
X1161520Y858352D02*
Y851687D01*
X1164852Y848355D01*
X1168185Y851687D01*
Y858352D01*
X1178181Y856685D02*
X1176515Y858352D01*
X1173183D01*
X1171517Y856685D01*
Y855019D01*
X1173183Y853353D01*
X1176515D01*
X1178181Y851687D01*
Y850021D01*
X1176515Y848355D01*
X1173183D01*
X1171517Y850021D01*
X1121520Y798352D02*
Y791687D01*
X1124852Y788355D01*
X1128185Y791687D01*
Y798352D01*
X1136515D02*
X1133183D01*
X1131517Y796685D01*
Y790021D01*
X1133183Y788355D01*
X1136515D01*
X1138181Y790021D01*
Y796685D01*
X1136515Y798352D01*
X1148178Y796685D02*
X1146512Y798352D01*
X1143180D01*
X1141514Y796685D01*
Y790021D01*
X1143180Y788355D01*
X1146512D01*
X1148178Y790021D01*
X1128185Y816685D02*
X1126518Y818352D01*
X1123186D01*
X1121520Y816685D01*
Y810021D01*
X1123186Y808355D01*
X1126518D01*
X1128185Y810021D01*
Y813353D01*
X1124852D01*
X1131517Y808355D02*
Y818352D01*
X1138181Y808355D01*
Y818352D01*
X1141514D02*
Y808355D01*
X1146512D01*
X1148178Y810021D01*
Y816685D01*
X1146512Y818352D01*
X1141514D01*
X1121520Y838352D02*
Y831687D01*
X1124852Y828355D01*
X1128185Y831687D01*
Y838352D01*
X1136515D02*
X1133183D01*
X1131517Y836685D01*
Y830021D01*
X1133183Y828355D01*
X1136515D01*
X1138181Y830021D01*
Y836685D01*
X1136515Y838352D01*
X1141514D02*
Y831687D01*
X1144846Y828355D01*
X1148178Y831687D01*
Y838352D01*
X1128185Y856685D02*
X1126518Y858352D01*
X1123186D01*
X1121520Y856685D01*
Y850021D01*
X1123186Y848355D01*
X1126518D01*
X1128185Y850021D01*
Y853353D01*
X1124852D01*
X1131517Y848355D02*
Y858352D01*
X1138181Y848355D01*
Y858352D01*
X1141514D02*
Y848355D01*
X1146512D01*
X1148178Y850021D01*
Y856685D01*
X1146512Y858352D01*
X1141514D01*
X1346523Y1113355D02*
X1353188D01*
X1356520Y1116687D01*
X1353188Y1120019D01*
X1346523D01*
X1348190Y1130016D02*
X1346523Y1128350D01*
Y1125018D01*
X1348190Y1123352D01*
X1354854D01*
X1356520Y1125018D01*
Y1128350D01*
X1354854Y1130016D01*
X1348190Y1140013D02*
X1346523Y1138347D01*
Y1135014D01*
X1348190Y1133348D01*
X1354854D01*
X1356520Y1135014D01*
Y1138347D01*
X1354854Y1140013D01*
X1373190Y1120019D02*
X1371523Y1118353D01*
Y1115021D01*
X1373190Y1113355D01*
X1379854D01*
X1381520Y1115021D01*
Y1118353D01*
X1379854Y1120019D01*
X1376522D01*
Y1116687D01*
X1381520Y1123352D02*
X1371523D01*
X1381520Y1130016D01*
X1371523D01*
Y1133348D02*
X1381520D01*
Y1138347D01*
X1379854Y1140013D01*
X1373190D01*
X1371523Y1138347D01*
Y1133348D01*
X1396523Y1113355D02*
X1406520D01*
Y1118353D01*
X1404854Y1120019D01*
X1403188D01*
X1401522Y1118353D01*
Y1113355D01*
Y1118353D01*
X1399856Y1120019D01*
X1398190D01*
X1396523Y1118353D01*
Y1113355D01*
Y1123352D02*
Y1130016D01*
Y1126684D01*
X1406520D01*
Y1133348D02*
Y1136681D01*
Y1135014D01*
X1396523D01*
X1398190Y1133348D01*
X1431520Y1113355D02*
X1421523D01*
Y1118353D01*
X1423190Y1120019D01*
X1426522D01*
X1428188Y1118353D01*
Y1113355D01*
Y1116687D02*
X1431520Y1120019D01*
X1421523Y1123352D02*
X1431520D01*
Y1130016D01*
Y1133348D02*
Y1136681D01*
Y1135014D01*
X1421523D01*
X1423190Y1133348D01*
X1117770Y868475D02*
Y878472D01*
X1122768D01*
X1124435Y876805D01*
Y873473D01*
X1122768Y871807D01*
X1117770D01*
X1127767Y870141D02*
X1129433Y868475D01*
X1132765D01*
X1134431Y870141D01*
Y876805D01*
X1132765Y878472D01*
X1129433D01*
X1127767Y876805D01*
Y875139D01*
X1129433Y873473D01*
X1134431D01*
D71*
X693500Y557277D02*
X703500D01*
X693500Y533777D02*
X703500Y533777D01*
X693500Y533777D02*
Y543027D01*
Y548027D02*
Y557277D01*
X703500Y533777D02*
Y543027D01*
Y548027D02*
Y557277D01*
X693500Y614777D02*
X703500D01*
X693500Y638277D02*
X703500Y638277D01*
Y629027D02*
Y638277D01*
Y614777D02*
Y624027D01*
X693500Y629027D02*
Y638277D01*
Y614777D02*
Y624027D01*
X747586Y506801D02*
X757586D01*
X747586Y530301D02*
X757586Y530301D01*
Y521051D02*
Y530301D01*
Y506801D02*
Y516051D01*
X747586Y521051D02*
Y530301D01*
Y506801D02*
Y516051D01*
X766636Y506801D02*
X776636D01*
X766636Y530301D02*
X776636Y530301D01*
Y521051D02*
Y530301D01*
Y506801D02*
Y516051D01*
X766636Y521051D02*
Y530301D01*
Y506801D02*
Y516051D01*
X734250Y656527D02*
Y666527D01*
X710750Y656527D02*
X710750Y666527D01*
X720000D01*
X725000D02*
X734250D01*
X710750Y656527D02*
X720000D01*
X725000D02*
X734250D01*
X712500Y598527D02*
Y608527D01*
X736000Y598527D02*
X736000Y608527D01*
X726750Y598527D02*
X736000D01*
X712500D02*
X721750D01*
X726750Y608527D02*
X736000D01*
X712500D02*
X721750D01*
X746360Y661931D02*
X756360D01*
X746360Y638431D02*
X756360Y638431D01*
X746360Y638431D02*
Y647681D01*
Y652681D02*
Y661931D01*
X756360Y638431D02*
Y647681D01*
Y652681D02*
Y661931D01*
X762500Y662277D02*
X772500D01*
X762500Y638777D02*
X772500Y638777D01*
X762500Y638777D02*
Y648027D01*
Y653027D02*
Y662277D01*
X772500Y638777D02*
Y648027D01*
Y653027D02*
Y662277D01*
X823500Y653527D02*
Y663527D01*
X800000Y653527D02*
X800000Y663527D01*
X809250D01*
X814250D02*
X823500D01*
X800000Y653527D02*
X809250D01*
X814250D02*
X823500D01*
X800000Y635527D02*
Y645527D01*
X823500Y635527D02*
X823500Y645527D01*
X814250Y635527D02*
X823500D01*
X800000D02*
X809250D01*
X814250Y645527D02*
X823500D01*
X800000D02*
X809250D01*
X816166Y506801D02*
X826166D01*
X816166Y530301D02*
X826166Y530301D01*
Y521051D02*
Y530301D01*
Y506801D02*
Y516051D01*
X816166Y521051D02*
Y530301D01*
Y506801D02*
Y516051D01*
X1037509Y1008432D02*
G03*
X1037509Y1008432I-16008J0D01*
G01*
X1051501Y978432D02*
Y1038432D01*
X991501D02*
X1051501D01*
X991501Y978432D02*
Y1038432D01*
Y978432D02*
X1051501D01*
D72*
X1240229Y1096985D02*
Y1102909D01*
X1237266Y1099947D02*
X1243191D01*
D73*
X1177714Y1233730D02*
D03*
X1241976Y957375D02*
D03*
X1273726Y861109D02*
D03*
X1168824Y1046781D02*
D03*
X991024Y896667D02*
D03*
M02*
