M48
;Layer_Color=9474304
;FILE_FORMAT=4:4
METRIC,LZ
;TYPE=PLATED
T1F00S00C0.3000
T2F00S00C0.3300
T3F00S00C0.6000
T5F00S00C0.9000
T6F00S00C1.0000
T7F00S00C1.0668
T8F00S00C1.2000
T9F00S00C1.5000
T11F00S00C2.5000
%
T01
X005915Y00313527
Y00323527
Y00343527
Y00363527
X005815Y00353527
Y00333527
Y00373527
Y00393527
X005965
X006515Y00368527
X006715
Y00313527
X006965
X007215
X007465
Y00333527
X007315
X007365Y00363527
Y00383527
X007615
Y00363527
X007865Y00368527
Y00383527
X007715Y00333527
Y00313527
X006465
X006215
X007965
Y00333527
X008215
Y00313527
X008465
Y00333527
X008715Y00313527
X008965
X009215
X009465
X009715
Y00333527
X009965
Y00313527
X010215
X010265Y00348527
Y00363527
X010615
X010715Y00358527
X010815Y00353527
Y00368527
X011015Y00383527
X011215Y00393527
X011715Y00388527
Y00363527
Y00338527
X011465
Y00313527
X011315
X011115
Y00328527
X010915
Y00313527
X010615Y00348527
X009465Y00373527
X009315
Y00388527
X008965Y00383527
X008715
X008565
X008365
Y00368527
X008115
Y00383527
X011715Y00313527
X011965
Y00338527
Y00363527
Y00388527
X012215
X012465
X012715
Y00363527
X012465
X012215
Y00338527
Y00313527
X012465
Y00338527
X012715
Y00318527
X012965
Y00338527
Y00363527
Y00388527
X013215
Y00363527
Y00338527
Y00318527
X013465
Y00338527
X013715
Y00318527
X013965
Y00338527
X014215
Y00318527
X014465
Y00338527
Y00363527
X014215
X013965
X013715
X013465
Y00388527
X013715
X013965
X014215
X014465
Y00413527
X014215
X013965
X013715
X013465
X013215
X012965Y00408527
X012715
X012465
X012215
X011965
Y00443527
X012215
X012465
X012385Y00459527
X012215Y00488527
Y00513527
X011965
Y00538527
X012215
Y00563527
Y00583527
Y00603527
Y00623527
Y00643527
Y00658527
Y00673527
X011965
Y00658527
Y00643527
Y00623527
Y00603527
Y00583527
Y00563527
X012565
X012815
X012715Y00538527
X012815Y00513527
X012565
Y00488527
X012815
X013065
Y00513527
X013215Y00563527
Y00588527
Y00613527
Y00638527
Y00658527
Y00678527
Y00703527
Y00718527
Y00733527
Y00748527
Y00763527
X013465
X013715
X013965
X014215
X014465
Y00738527
Y00713527
Y00688527
X014215
Y00663527
X013965
Y00638527
X013715
Y00613527
Y00663527
X014465
X014165Y00733527
X013915
X012965
Y00718527
Y00703527
X012795Y00702527
X012715Y00718527
Y00733527
Y00748527
Y00763527
X012965
Y00748527
X012465
Y00763527
X012215
Y00748527
Y00733527
X012465
X012385Y00717527
X011965Y00733527
Y00748527
Y00763527
X012565Y00673527
Y00643527
X012815
Y00603527
X012565
X012915Y00673527
X012965Y00443527
X012715
X013465Y00438527
X013715
X013965
X014215
X013715Y00463527
X011965Y00488527
X011715
X011465
X011565Y00513527
X011815
X011715Y00538527
Y00563527
X011565Y00568527
Y00548527
X011515Y00583527
X011715
Y00603527
Y00623527
Y00643527
Y00658527
Y00673527
X011465
Y00658527
Y00643527
Y00623527
Y00603527
X011265Y00623527
Y00643527
Y00658527
Y00673527
X011015
Y00658527
Y00643527
X010815Y00658527
Y00673527
X010565
X010315
X010065
X009815Y00668527
X009615Y00658527
Y00718527
Y00733527
Y00748527
Y00763527
X009415
Y00748527
Y00733527
Y00718527
Y00703527
X009215
Y00688527
X009015
Y00673527
X008815
Y00688527
Y00703527
Y00718527
Y00733527
Y00748527
Y00763527
X009015
Y00748527
Y00733527
Y00718527
Y00703527
X009215Y00718527
Y00733527
Y00748527
Y00763527
X009815
Y00748527
X010015
Y00763527
X010215
Y00748527
X010465
Y00763527
X0104652Y00783355
X0106152
X0107652
X010715Y00763527
Y00748527
Y00733527
X010965
Y00748527
Y00763527
X011215
Y00748527
Y00733527
X011465
Y00748527
Y00763527
X011715
Y00748527
Y00733527
X010465
X010015Y00728527
X009865Y00713527
X0103152Y00783355
X008615Y00763527
Y00748527
Y00733527
Y00718527
Y00703527
Y00688527
Y00673527
Y00658527
Y00643527
X008415
Y00658527
Y00673527
Y00688527
Y00703527
Y00718527
Y00733527
Y00748527
Y00763527
X008215
Y00748527
Y00733527
Y00718527
Y00703527
Y00688527
Y00673527
X008015
X008215Y00648527
X008385Y00626527
X008495Y00618527
X008415Y00598527
X008265Y00608527
Y00558527
X008415
X008365Y00543527
X008505Y00542527
X008765Y00543527
Y00528527
Y00513527
Y00498527
X008915
Y00513527
Y00528527
Y00543527
Y00558527
Y00573527
Y00588527
X009065Y00603527
X008765Y00573527
Y00558527
X008505Y00575527
X00821166Y00538527
X008065Y00528527
Y00518527
X008215Y00503527
X008365Y00488527
X008565Y00468527
X008715Y00453527
X008565Y00423527
Y00403527
X008715
X008365
Y00423527
Y00443527
X008115
Y00463527
Y00423527
Y00403527
X009365Y00438527
X009615Y00423527
X009865Y00413527
X010115Y00408527
X010365
X010615Y00413527
X010815Y00423527
X011015Y00433527
X011165Y00448527
X011315Y00468527
X011665Y00438527
X011515Y00423527
X011365Y00408527
X009165Y00458527
X009015Y00478527
X008715Y00628527
X008815Y00643527
Y00658527
X007715Y00673527
X007515
X007315
X007115
X006915
Y00658527
Y00643527
X006865Y00628527
X006715
Y00613527
X006915
X007115
X007105Y00593527
X007165Y00584527
X007225Y00576527
X007025Y00565527
X006915Y00583527
X006815Y00598527
X006715Y00643527
Y00658527
Y00673527
X006515
Y00658527
Y00643527
Y00628527
X006315Y00643527
Y00658527
Y00673527
X006115
Y00658527
X005915
Y00673527
X007415Y00658527
X007435Y00606527
X00752586Y00538527
X007365Y00523527
Y00503527
Y00483527
Y00463527
Y00443527
Y00423527
Y00403527
X007615
Y00423527
Y00443527
Y00463527
Y00483527
X007865
Y00463527
Y00443527
Y00423527
Y00403527
X006815Y00433527
X006715Y00423527
X006515
Y00443527
X006715
Y00463527
X006915
Y00443527
Y00483527
Y00503527
Y00523527
X006365Y00433527
X006215Y00423527
X005965
Y00413527
X005815
X0075952Y00787355
X0078252Y00812355
X00792904Y00904289
X00789094Y00925879
X0075252Y00926355
X0074947Y00912925
X0073042Y00947215
X0071391Y00954835
X00734103Y00972742
X0078249Y01008175
X00700194Y00900479
X00714164Y00857299
X00660824Y00812849
X0067852Y01111355
X0059834Y01154225
X0081297Y01022145
Y00995475
X00804334Y00963979
X0083329Y00925625
X00838624Y00916989
X00885614
X00889424Y00864919
X0091152Y00875355
X0092652Y00893355
X0094152Y00843355
X0095652
X0097152
X0098652
X0100152
X0101652
X0103152
X0104652
Y00828355
X0106152
Y00813355
Y00798355
X0107652
Y00813355
X0104652
Y00798355
X0103152
Y00813355
Y00828355
X0101652
X0100152
X0098652
X0097152
X0095652
X0094152
X00904664Y00844599
X00829734Y00831899
X00823384Y00867459
X00897044Y00972615
X0089044Y01010715
X00926Y01024685
X0094886
X0096283Y01022145
X0098752Y01013355
X0099152Y01093355
Y01103355
X0100652
Y01093355
X0101902Y01098355
X0103152Y01103355
Y01093355
X0104652
Y01103355
X0107152
Y01093355
Y01083355
Y01073355
Y01063355
Y01053355
Y01043355
X0108652
Y01053355
Y01063355
Y01073355
Y01083355
Y01093355
Y01103355
X0110152
Y01093355
Y01083355
Y01073355
X01101022Y01063355
Y01053355
X0110152Y01043355
X0111652
Y01053355
Y01063355
Y01073355
Y01083355
Y01093355
Y01103355
X0107652Y00973355
X0105852Y00921355
X0096152Y00953355
X0066946Y01226615
X0059834Y01202485
T02
X0080125Y00563527
Y00575527
Y00587527
Y00599527
X0078925
X0077725
X0076525
Y00587527
X0077725
Y00575527
X0076525
Y00563527
X0077725
X0078925
Y00575527
Y00587527
T03
X008615Y00356527
X008765
X008915
X009065
X009215
X009365
X013535Y00676527
X0102252Y00988355
X0129252Y01010355
Y01023355
X0132752Y01022355
X0132952Y00955355
X0132852Y01143355
Y01161355
X0138152Y01143355
T05
X0060888Y00330237
Y00355637
Y00381037
X0063428
Y00355637
Y00330237
X01353354Y00720889
X01378754
X01404154
X01429554
Y00746289
X01404154
X01378754
X01353354
X0063428Y00406437
X0060888
X00608804Y00800329
X00634204
Y00825729
X00608804
Y00851129
X00634204
Y00876529
X00608804
X01353403Y01190729
Y01216129
X01378803
Y01190729
X01404203
Y01216129
X01429603
Y01190729
T06
X00950638Y01194357
T07
X01175174Y01131619
X01153174Y01206619
T08
X00949022Y00882429
X00949002Y00984429
T09
X01075622Y00845429
T11
X0064152Y01178355
X0140152Y00838355
M30
