G04 Layer_Color=32896*
%FSLAX44Y44*%
%MOMM*%
G71*
G01*
G75*
%ADD26C,0.2000*%
%ADD68C,0.1000*%
%ADD70C,0.1270*%
D26*
X1340654Y708189D02*
X1442254D01*
X1340654Y758989D02*
X1442254D01*
X1340654Y708189D02*
Y758989D01*
X1442254Y708189D02*
Y758989D01*
X646980Y317537D02*
Y419137D01*
X596180Y317537D02*
Y419137D01*
Y317537D02*
X646980D01*
X596180Y419137D02*
X646980D01*
X1141864Y1216878D02*
G03*
X1136334Y1201519I21451J-16397D01*
G01*
X1190334D02*
G03*
X1164372Y1228499I-27000J0D01*
G01*
X1184320Y1118530D02*
G03*
X1190334Y1135519I-20986J16988D01*
G01*
X1136334D02*
G03*
X1164333Y1108537I27000J0D01*
G01*
X1190334Y1135519D02*
Y1201519D01*
X1136334Y1135519D02*
Y1201519D01*
D68*
X883022Y827429D02*
X1024022D01*
Y801429D02*
Y827429D01*
Y801429D02*
X1200022D01*
Y1075429D01*
X1073022D02*
X1200022D01*
X1073022Y1022429D02*
Y1075429D01*
X883022Y1022429D02*
X1073022D01*
X883022Y827429D02*
Y1022429D01*
D70*
X631500Y423527D02*
Y433524D01*
X626502D01*
X624836Y431858D01*
Y428525D01*
X626502Y426859D01*
X631500D01*
X621503Y425193D02*
X619837Y423527D01*
X616505D01*
X614839Y425193D01*
Y431858D01*
X616505Y433524D01*
X619837D01*
X621503Y431858D01*
Y430191D01*
X619837Y428525D01*
X614839D01*
X1335805Y740518D02*
X1325809D01*
Y735520D01*
X1327475Y733854D01*
X1330807D01*
X1332473Y735520D01*
Y740518D01*
X1327475Y730521D02*
X1325809Y728855D01*
Y725523D01*
X1327475Y723857D01*
X1329141D01*
X1330807Y725523D01*
X1332473Y723857D01*
X1334139D01*
X1335805Y725523D01*
Y728855D01*
X1334139Y730521D01*
X1332473D01*
X1330807Y728855D01*
X1329141Y730521D01*
X1327475D01*
X1330807Y728855D02*
Y725523D01*
X1201520Y1118355D02*
X1211517D01*
Y1123353D01*
X1209851Y1125019D01*
X1206518D01*
X1204852Y1123353D01*
Y1118355D01*
Y1121687D02*
X1201520Y1125019D01*
X1211517Y1128352D02*
X1204852D01*
X1201520Y1131684D01*
X1204852Y1135016D01*
X1211517D01*
X1201520Y1138348D02*
Y1141681D01*
Y1140014D01*
X1211517D01*
X1209851Y1138348D01*
X1191520Y1083355D02*
Y1093352D01*
X1186522D01*
X1184856Y1091685D01*
Y1088353D01*
X1186522Y1086687D01*
X1191520D01*
X1188188D02*
X1184856Y1083355D01*
X1181523Y1093352D02*
Y1083355D01*
X1174859D01*
X1171526D02*
X1168194D01*
X1169860D01*
Y1093352D01*
X1171526Y1091685D01*
M02*
