G04 Layer_Color=16711935*
%FSLAX44Y44*%
%MOMM*%
G71*
G01*
G75*
%ADD63O,3.0000X3.5000*%
%ADD64C,3.0000*%
%ADD65C,2.0000*%
%ADD102C,1.7032*%
%ADD103R,1.7032X1.7032*%
%ADD104R,1.7032X1.7032*%
%ADD105O,10.2032X4.2032*%
%ADD106C,2.2032*%
%ADD107C,1.9032*%
%ADD108O,6.2032X1.7032*%
D63*
X1101022Y1022429D02*
D03*
D64*
X1075622Y845429D02*
D03*
D65*
X949002Y984429D02*
D03*
X949022Y882429D02*
D03*
D102*
X1429554Y746289D02*
D03*
Y720889D02*
D03*
X1404154Y746289D02*
D03*
Y720889D02*
D03*
X1378754Y746289D02*
D03*
Y720889D02*
D03*
X1353354Y746289D02*
D03*
X608880Y406437D02*
D03*
X634280D02*
D03*
X608880Y381037D02*
D03*
X634280D02*
D03*
X608880Y355637D02*
D03*
X634280D02*
D03*
X608880Y330237D02*
D03*
X608804Y800329D02*
D03*
X634204Y825729D02*
D03*
X608804D02*
D03*
X634204Y851129D02*
D03*
X608804D02*
D03*
X634204Y876529D02*
D03*
X608804D02*
D03*
X1353403Y1216129D02*
D03*
X1378803Y1190729D02*
D03*
Y1216129D02*
D03*
X1404203Y1190729D02*
D03*
Y1216129D02*
D03*
X1429603Y1190729D02*
D03*
Y1216129D02*
D03*
D103*
X1353354Y720889D02*
D03*
X1353403Y1190729D02*
D03*
D104*
X634280Y330237D02*
D03*
X634204Y800329D02*
D03*
D105*
X971520Y800855D02*
D03*
X1004994Y1070659D02*
D03*
D106*
X950638Y1194357D02*
D03*
D107*
X1153174Y1206619D02*
D03*
X1175174Y1131619D02*
D03*
D108*
X1096505Y1115433D02*
D03*
X1021505D02*
D03*
X946505D02*
D03*
M02*
