G04 Layer_Physical_Order=1*
G04 Layer_Color=255*
%FSLAX44Y44*%
%MOMM*%
G71*
G01*
G75*
%ADD10R,1.6002X1.2700*%
%ADD11R,3.3000X2.4000*%
%ADD12R,1.0000X2.4000*%
%ADD13R,1.8500X1.3000*%
%ADD14R,0.7620X0.8128*%
%ADD15R,1.0000X0.9500*%
%ADD16R,0.9500X1.0000*%
%ADD17R,0.8000X0.7500*%
%ADD18R,1.3000X1.3000*%
%ADD19R,0.7500X0.8000*%
%ADD20C,1.0000*%
%ADD21O,0.2000X0.6500*%
%ADD22O,0.6500X0.2000*%
%ADD23R,4.7000X4.7000*%
%ADD24C,0.5000*%
%ADD25C,1.4000*%
%ADD26C,0.2000*%
%ADD27C,1.0000*%
%ADD28C,1.3000*%
%ADD29C,1.2700*%
%ADD30C,0.8000*%
%ADD31C,0.2540*%
%ADD32R,0.7620X1.2700*%
%ADD33R,1.2700X1.6002*%
%ADD34R,2.7500X1.4000*%
%ADD35R,2.7500X1.0000*%
%ADD36R,1.5000X2.5000*%
%ADD37R,3.5000X3.5000*%
%ADD38R,3.0000X3.0000*%
%ADD39R,2.7430X2.1590*%
%ADD40R,0.6000X2.0000*%
%ADD41R,0.8500X1.2000*%
%ADD42O,1.5000X4.0640*%
%ADD43R,1.5000X4.0640*%
%ADD44O,1.9000X0.6000*%
%ADD45R,3.0000X5.0000*%
%ADD46R,1.3000X1.8500*%
%ADD47C,5.0000*%
%ADD48C,3.0000*%
%ADD49C,0.3000*%
%ADD50C,0.7000*%
%ADD51C,1.5000*%
%ADD52R,1.5000X1.5000*%
%ADD53R,1.5000X1.5000*%
%ADD54O,1.0000X2.0000*%
%ADD55R,1.0000X2.0000*%
%ADD56C,0.6000*%
%ADD57C,0.6600*%
%ADD58C,1.0000*%
%ADD59C,2.0000*%
%ADD60O,10.0000X4.0000*%
%ADD61C,1.7000*%
%ADD62O,6.0000X1.5000*%
%ADD63O,3.0000X3.5000*%
%ADD64C,3.0000*%
%ADD65C,2.0000*%
%ADD66C,1.2000*%
G36*
X782366Y606643D02*
X783689Y605759D01*
X785250Y605449D01*
X786811Y605759D01*
X787250Y606053D01*
X787689Y605759D01*
X789250Y605449D01*
X790811Y605759D01*
X791250Y606053D01*
X791689Y605759D01*
X793250Y605449D01*
X794811Y605759D01*
X795250Y606053D01*
X795689Y605759D01*
X797250Y605449D01*
X798811Y605759D01*
X799250Y606053D01*
X799689Y605759D01*
X801250Y605449D01*
X802811Y605759D01*
X803250Y606053D01*
X803689Y605759D01*
X805250Y605449D01*
X806403Y605678D01*
X806593Y605574D01*
X807297Y604870D01*
X807401Y604680D01*
X807172Y603527D01*
X807482Y601966D01*
X807776Y601527D01*
X807482Y601088D01*
X807172Y599527D01*
X807482Y597966D01*
X807776Y597527D01*
X807482Y597088D01*
X807172Y595527D01*
X807482Y593966D01*
X807776Y593527D01*
X807482Y593088D01*
X807172Y591527D01*
X807482Y589966D01*
X807776Y589527D01*
X807482Y589088D01*
X807172Y587527D01*
X807482Y585966D01*
X807776Y585527D01*
X807482Y585088D01*
X807172Y583527D01*
X807482Y581966D01*
X807776Y581527D01*
X807482Y581088D01*
X807172Y579527D01*
X807482Y577966D01*
X807776Y577527D01*
X807482Y577088D01*
X807172Y575527D01*
X807482Y573966D01*
X807776Y573527D01*
X807482Y573088D01*
X807172Y571527D01*
X807482Y569966D01*
X807776Y569527D01*
X807482Y569088D01*
X807172Y567527D01*
X807482Y565966D01*
X807776Y565527D01*
X807482Y565088D01*
X807172Y563527D01*
X807482Y561966D01*
X807776Y561527D01*
X807482Y561088D01*
X807172Y559527D01*
X807401Y558374D01*
X807297Y558184D01*
X806593Y557480D01*
X806403Y557376D01*
X805250Y557605D01*
X803689Y557295D01*
X803250Y557001D01*
X802811Y557295D01*
X801250Y557605D01*
X799689Y557295D01*
X799250Y557001D01*
X798811Y557295D01*
X797250Y557605D01*
X795689Y557295D01*
X795250Y557001D01*
X794811Y557295D01*
X793250Y557605D01*
X791689Y557295D01*
X791250Y557001D01*
X790811Y557295D01*
X789250Y557605D01*
X787689Y557295D01*
X787250Y557001D01*
X786811Y557295D01*
X785250Y557605D01*
X783689Y557295D01*
X783250Y557001D01*
X782811Y557295D01*
X781250Y557605D01*
X779689Y557295D01*
X779250Y557001D01*
X778811Y557295D01*
X777250Y557605D01*
X775689Y557295D01*
X775250Y557001D01*
X774811Y557295D01*
X773250Y557605D01*
X771689Y557295D01*
X771250Y557001D01*
X770811Y557295D01*
X769250Y557605D01*
X767689Y557295D01*
X767250Y557001D01*
X766811Y557295D01*
X765250Y557605D01*
X763689Y557295D01*
X763250Y557001D01*
X762811Y557295D01*
X761250Y557605D01*
X760097Y557376D01*
X759907Y557480D01*
X759203Y558184D01*
X759099Y558374D01*
X759329Y559527D01*
X759018Y561088D01*
X758725Y561527D01*
X759018Y561966D01*
X759329Y563527D01*
X759018Y565088D01*
X758725Y565527D01*
X759018Y565966D01*
X759329Y567527D01*
X759018Y569088D01*
X758134Y570411D01*
X757607Y570763D01*
Y572291D01*
X758134Y572643D01*
X759018Y573966D01*
X759329Y575527D01*
X759018Y577088D01*
X758725Y577527D01*
X759018Y577966D01*
X759329Y579527D01*
X759018Y581088D01*
X758725Y581527D01*
X759018Y581966D01*
X759329Y583527D01*
X759018Y585088D01*
X758725Y585527D01*
X759018Y585966D01*
X759329Y587527D01*
X759018Y589088D01*
X758725Y589527D01*
X759018Y589966D01*
X759329Y591527D01*
X759018Y593088D01*
X758725Y593527D01*
X759018Y593966D01*
X759329Y595527D01*
X759018Y597088D01*
X758725Y597527D01*
X759018Y597966D01*
X759329Y599527D01*
X759018Y601088D01*
X758725Y601527D01*
X759018Y601966D01*
X759329Y603527D01*
X759099Y604680D01*
X759203Y604870D01*
X759907Y605574D01*
X760097Y605678D01*
X761250Y605449D01*
X762811Y605759D01*
X763250Y606053D01*
X763689Y605759D01*
X765250Y605449D01*
X766811Y605759D01*
X767250Y606053D01*
X767689Y605759D01*
X769250Y605449D01*
X770811Y605759D01*
X771250Y606053D01*
X771689Y605759D01*
X773250Y605449D01*
X774811Y605759D01*
X775250Y606053D01*
X775689Y605759D01*
X777250Y605449D01*
X778811Y605759D01*
X780134Y606643D01*
X780486Y607171D01*
X782014D01*
X782366Y606643D01*
D02*
G37*
G36*
X809778Y546318D02*
X815467Y540630D01*
X815049Y538527D01*
X815514Y536186D01*
X815558Y536120D01*
Y532051D01*
X814166D01*
Y518551D01*
X824546D01*
X826642Y516454D01*
Y515777D01*
X827069Y513631D01*
X828285Y511812D01*
X833750Y506347D01*
Y501527D01*
X835892D01*
Y496527D01*
X836319Y494381D01*
X837535Y492562D01*
X957719Y372378D01*
X957350Y371162D01*
X956674Y371028D01*
X954855Y369812D01*
X948035Y362992D01*
X946819Y361173D01*
X946392Y359027D01*
Y338350D01*
X940177Y332135D01*
X874823D01*
X867108Y339850D01*
Y342653D01*
X867136Y342976D01*
X867216Y343465D01*
X867233Y343527D01*
X869500D01*
Y345422D01*
X870770Y345853D01*
X870795Y345821D01*
X872466Y344539D01*
X874412Y343733D01*
X876500Y343458D01*
X878588Y343733D01*
X880535Y344539D01*
X882206Y345821D01*
X883260Y347196D01*
X883735Y347308D01*
X884265D01*
X884740Y347196D01*
X885795Y345821D01*
X887466Y344539D01*
X889412Y343733D01*
X891500Y343458D01*
X893588Y343733D01*
X895535Y344539D01*
X897206Y345821D01*
X898260Y347196D01*
X898735Y347308D01*
X899265D01*
X899740Y347196D01*
X900795Y345821D01*
X902466Y344539D01*
X904412Y343733D01*
X906500Y343458D01*
X908589Y343733D01*
X910535Y344539D01*
X912206Y345821D01*
X913260Y347196D01*
X913735Y347308D01*
X914265D01*
X914740Y347196D01*
X915795Y345821D01*
X917466Y344539D01*
X919412Y343733D01*
X921500Y343458D01*
X923589Y343733D01*
X925535Y344539D01*
X927206Y345821D01*
X928488Y347492D01*
X929294Y349439D01*
X929569Y351527D01*
Y361527D01*
X929294Y363615D01*
X928488Y365561D01*
X927206Y367233D01*
X925579Y368481D01*
Y389527D01*
X925268Y391088D01*
X924384Y392411D01*
X924384Y392411D01*
X801329Y515466D01*
Y544964D01*
X802811Y545259D01*
X803250Y545553D01*
X803689Y545259D01*
X805250Y544949D01*
X806811Y545259D01*
X808134Y546143D01*
X808322Y546424D01*
X809778Y546318D01*
D02*
G37*
G36*
X1454796Y770097D02*
X1457964Y769135D01*
X1460885Y767574D01*
X1463444Y765474D01*
X1465545Y762914D01*
X1467106Y759994D01*
X1468067Y756825D01*
X1468270Y754766D01*
X1468377Y753530D01*
X1468377Y753530D01*
X1468377Y752282D01*
Y668158D01*
X1468377Y668142D01*
X1468377Y666894D01*
X1468271Y665668D01*
X1468067Y663598D01*
X1467106Y660430D01*
X1465545Y657510D01*
X1463444Y654950D01*
X1460885Y652850D01*
X1458007Y651311D01*
X1457959Y651302D01*
X1410864Y631795D01*
X1409675Y631346D01*
Y631346D01*
X1402297Y627856D01*
X1395297Y623660D01*
X1388742Y618799D01*
X1382695Y613318D01*
X1377214Y607271D01*
X1372352Y600716D01*
X1368157Y593715D01*
X1364667Y586338D01*
X1361918Y578653D01*
X1359935Y570737D01*
X1358737Y562664D01*
X1358337Y554512D01*
X1358377D01*
X1358377Y554512D01*
Y522548D01*
X1358377Y522548D01*
X1358337D01*
X1358737Y514396D01*
X1359935Y506324D01*
X1361918Y498407D01*
X1364667Y490723D01*
X1368157Y483345D01*
X1372352Y476345D01*
X1377214Y469789D01*
X1382695Y463742D01*
X1388742Y458261D01*
X1395297Y453400D01*
X1402297Y449204D01*
X1409675Y445715D01*
X1409675Y445715D01*
X1410864Y445266D01*
X1457959Y425758D01*
X1458007Y425749D01*
X1460885Y424211D01*
X1463444Y422110D01*
X1465545Y419551D01*
X1467106Y416630D01*
X1468067Y413462D01*
X1468270Y411403D01*
X1468377Y410167D01*
X1468377Y410166D01*
X1468377Y408918D01*
Y324795D01*
X1468377Y324778D01*
X1468377Y323530D01*
X1468271Y322304D01*
X1468067Y320235D01*
X1467106Y317066D01*
X1465545Y314146D01*
X1463444Y311586D01*
X1460885Y309486D01*
X1457964Y307925D01*
X1454796Y306964D01*
X1451549Y306644D01*
X1451501Y306653D01*
X591500D01*
X591452Y306644D01*
X588205Y306964D01*
X585036Y307925D01*
X582116Y309486D01*
X579556Y311586D01*
X577456Y314146D01*
X575895Y317066D01*
X574934Y320235D01*
X574614Y323482D01*
X574623Y323530D01*
Y410167D01*
X574614Y410215D01*
X574934Y413462D01*
X575895Y416630D01*
X577456Y419551D01*
X579556Y422110D01*
X582116Y424211D01*
X584994Y425749D01*
X585042Y425758D01*
X632137Y445266D01*
X633325Y445715D01*
X633326Y445715D01*
Y445715D01*
X640703Y449204D01*
X647703Y453400D01*
X654258Y458261D01*
X660306Y463742D01*
X665786Y469789D01*
X670648Y476345D01*
X674844Y483345D01*
X678333Y490723D01*
X681083Y498407D01*
X683066Y506324D01*
X684263Y514396D01*
X684664Y522548D01*
X684624D01*
Y554512D01*
X684664D01*
X684263Y562664D01*
X683066Y570737D01*
X681083Y578653D01*
X678333Y586338D01*
X674844Y593715D01*
X670648Y600716D01*
X665786Y607271D01*
X660306Y613318D01*
X654258Y618799D01*
X647703Y623660D01*
X640703Y627856D01*
X633325Y631346D01*
X633326Y631346D01*
X632137Y631795D01*
X585042Y651302D01*
X584994Y651311D01*
X582116Y652850D01*
X579556Y654950D01*
X577456Y657510D01*
X575895Y660430D01*
X574934Y663598D01*
X574614Y666845D01*
X574623Y666894D01*
Y682527D01*
X776414D01*
Y662527D01*
X776758Y659917D01*
X777765Y657484D01*
X778750Y656200D01*
Y649527D01*
X778750D01*
Y649527D01*
X778750Y649527D01*
Y633527D01*
X779752D01*
X780386Y631997D01*
X781190Y630949D01*
Y629367D01*
X780751Y629073D01*
X779920Y628875D01*
X772941Y635854D01*
X773427Y637027D01*
X774500D01*
Y650527D01*
X760500D01*
Y642954D01*
X759327Y642468D01*
X758517Y643278D01*
X758429Y643378D01*
X758360Y643465D01*
Y650181D01*
X744360D01*
Y637605D01*
X731189D01*
X725610Y643185D01*
Y654671D01*
X722500D01*
Y668527D01*
X709000D01*
Y654671D01*
X706610D01*
Y640413D01*
X705500Y640027D01*
X705500Y640027D01*
Y640027D01*
X705500Y640027D01*
X691500D01*
Y626527D01*
X705500D01*
Y629199D01*
X721061D01*
X726034Y624226D01*
X726060Y624195D01*
X726161Y624062D01*
X726232Y623953D01*
X726278Y623871D01*
X726303Y623817D01*
X726310Y623798D01*
Y612671D01*
X739610D01*
X739995Y611401D01*
X739174Y610853D01*
X738996Y610586D01*
X737750Y610527D01*
Y610527D01*
X734862D01*
X734720Y610555D01*
X734577Y610527D01*
X724250D01*
Y597605D01*
X715034D01*
X715023Y597611D01*
X714994Y597629D01*
X714959Y597653D01*
X714826Y597853D01*
X712841Y599179D01*
X710500Y599645D01*
X708159Y599179D01*
X706174Y597853D01*
X704848Y595868D01*
X704383Y593527D01*
X704848Y591186D01*
X706174Y589201D01*
X708159Y587875D01*
X709788Y587551D01*
X710560Y587053D01*
X710710Y586171D01*
X710383Y584527D01*
X710848Y582186D01*
X712174Y580201D01*
X714159Y578875D01*
X716500Y578410D01*
X716714Y578195D01*
X716383Y576527D01*
X716848Y574186D01*
X718174Y572201D01*
X720159Y570875D01*
X720033Y569605D01*
X707034D01*
X707023Y569611D01*
X706994Y569628D01*
X706960Y569653D01*
X706826Y569853D01*
X704841Y571179D01*
X702500Y571645D01*
X700159Y571179D01*
X698174Y569853D01*
X696848Y567868D01*
X696383Y565527D01*
X696848Y563186D01*
X698174Y561201D01*
X699528Y560297D01*
X699142Y559027D01*
X691500D01*
Y545527D01*
X705500D01*
Y548199D01*
X707378D01*
X708276Y547301D01*
X708276Y543951D01*
X708276Y542681D01*
Y527951D01*
X723776D01*
Y531873D01*
X728596D01*
Y527951D01*
X744096D01*
Y542681D01*
X744096Y543951D01*
X744096Y545221D01*
Y556355D01*
X745773Y558032D01*
X747191Y557654D01*
X747866Y556643D01*
X748508Y556214D01*
Y555660D01*
X748464Y554532D01*
X748359Y553457D01*
X748307Y553141D01*
X748266Y552961D01*
X747405Y551673D01*
X746978Y549527D01*
Y540934D01*
X746934Y540868D01*
X746469Y538527D01*
X746934Y536186D01*
X746978Y536120D01*
Y532571D01*
X746973Y532420D01*
X746937Y532051D01*
X745586D01*
Y529163D01*
X745558Y529021D01*
X745586Y528878D01*
Y518551D01*
X759586D01*
Y528878D01*
X759614Y529021D01*
X759586Y529163D01*
Y532051D01*
X758243D01*
X758194Y532716D01*
Y536120D01*
X758238Y536186D01*
X758704Y538527D01*
X758238Y540868D01*
X758194Y540934D01*
Y542270D01*
X759464Y542796D01*
X767558Y534702D01*
Y532051D01*
X764636D01*
Y518551D01*
X778636D01*
Y532051D01*
X775714D01*
Y536391D01*
X775404Y537952D01*
X774520Y539275D01*
X770117Y543678D01*
X770427Y544892D01*
X771575Y545336D01*
X771689Y545259D01*
X773250Y544949D01*
X774811Y545259D01*
X775250Y545553D01*
X775689Y545259D01*
X777250Y544949D01*
X778811Y545259D01*
X779250Y545553D01*
X779689Y545259D01*
X781250Y544949D01*
X782811Y545259D01*
X783250Y545553D01*
X783689Y545259D01*
X785172Y544964D01*
Y511777D01*
X785172Y511777D01*
X785482Y510216D01*
X786366Y508893D01*
X902422Y392838D01*
Y368481D01*
X900795Y367233D01*
X899740Y365858D01*
X899265Y365746D01*
X898735D01*
X898260Y365858D01*
X897206Y367233D01*
X895535Y368515D01*
X893588Y369321D01*
X891500Y369596D01*
X889412Y369321D01*
X887466Y368515D01*
X885795Y367233D01*
X884740Y365858D01*
X884265Y365746D01*
X883735D01*
X883260Y365858D01*
X882206Y367233D01*
X880535Y368515D01*
X878588Y369321D01*
X876500Y369596D01*
X874412Y369321D01*
X872466Y368515D01*
X870795Y367233D01*
X870770Y367201D01*
X869500Y367632D01*
Y369527D01*
X853500D01*
Y362259D01*
X853449Y362245D01*
X852957Y362164D01*
X852626Y362135D01*
X788500D01*
X786354Y361708D01*
X784535Y360492D01*
X779337Y355295D01*
X725384D01*
X725057Y355324D01*
X724571Y355405D01*
X724501Y355423D01*
Y359037D01*
X719232D01*
X719218Y359088D01*
X719137Y359580D01*
X719108Y359911D01*
Y361143D01*
X719137Y361474D01*
X719218Y361966D01*
X719232Y362017D01*
X724501D01*
Y380717D01*
X702499D01*
Y362017D01*
X707768D01*
X707782Y361966D01*
X707863Y361474D01*
X707892Y361143D01*
Y359911D01*
X707863Y359580D01*
X707782Y359088D01*
X707768Y359037D01*
X702499D01*
Y340337D01*
X724501D01*
Y343951D01*
X724571Y343969D01*
X725057Y344050D01*
X725384Y344079D01*
X781660D01*
X783806Y344506D01*
X785625Y345722D01*
X790823Y350919D01*
X852626D01*
X852957Y350890D01*
X853449Y350809D01*
X853500Y350795D01*
Y346917D01*
X853489Y346882D01*
X853500Y346759D01*
Y346700D01*
X853472Y346558D01*
X853500Y346415D01*
Y343527D01*
X855767D01*
X855784Y343464D01*
X855864Y342976D01*
X855892Y342653D01*
Y337527D01*
X856319Y335381D01*
X857535Y333562D01*
X868535Y322562D01*
X870354Y321346D01*
X872500Y320919D01*
X942500D01*
X944646Y321346D01*
X946465Y322562D01*
X955965Y332062D01*
X957181Y333881D01*
X957608Y336027D01*
Y356704D01*
X961143Y360239D01*
X963625D01*
X963956Y360210D01*
X964448Y360129D01*
X964499Y360115D01*
Y356497D01*
X986501D01*
Y360111D01*
X986571Y360130D01*
X987057Y360210D01*
X987384Y360239D01*
X988625D01*
X988956Y360210D01*
X989448Y360129D01*
X989499Y360115D01*
Y356337D01*
X1011501D01*
Y371775D01*
X1011527Y371882D01*
X1011537Y372142D01*
X1011553Y372266D01*
X1011578Y372383D01*
X1011613Y372500D01*
X1011661Y372620D01*
X1011725Y372748D01*
X1011808Y372887D01*
X1011850Y372946D01*
X1018823Y379919D01*
X1030126D01*
X1030457Y379890D01*
X1030949Y379809D01*
X1031000Y379795D01*
Y370527D01*
X1044768D01*
X1044782Y370476D01*
X1044863Y369984D01*
X1044892Y369653D01*
Y343401D01*
X1044864Y343078D01*
X1044784Y342589D01*
X1044767Y342527D01*
X1042500D01*
Y339639D01*
X1042472Y339497D01*
X1042500Y339354D01*
Y339295D01*
X1042489Y339173D01*
X1042500Y339137D01*
Y312527D01*
X1058500D01*
Y339137D01*
X1058511Y339173D01*
X1058500Y339295D01*
Y339354D01*
X1058528Y339497D01*
X1058500Y339639D01*
Y342527D01*
X1056233D01*
X1056217Y342589D01*
X1056136Y343078D01*
X1056108Y343401D01*
Y369653D01*
X1056137Y369984D01*
X1056218Y370476D01*
X1056232Y370527D01*
X1070000D01*
Y379795D01*
X1070051Y379809D01*
X1070543Y379890D01*
X1070874Y379919D01*
X1083500D01*
X1085646Y380346D01*
X1087465Y381562D01*
X1159823Y453919D01*
X1236093D01*
X1236159Y453875D01*
X1238500Y453410D01*
X1240841Y453875D01*
X1240907Y453919D01*
X1307500D01*
X1309646Y454346D01*
X1311465Y455562D01*
X1337465Y481562D01*
X1338681Y483381D01*
X1339108Y485527D01*
Y505903D01*
X1339136Y506226D01*
X1339216Y506715D01*
X1339233Y506777D01*
X1341500D01*
Y509665D01*
X1341528Y509808D01*
X1341500Y509950D01*
Y510009D01*
X1341511Y510131D01*
X1341500Y510167D01*
Y522277D01*
X1330066D01*
X1329580Y523450D01*
X1336544Y530414D01*
X1337238Y531453D01*
X1340275D01*
Y545581D01*
X1327575D01*
X1326655Y545581D01*
Y545581D01*
X1326305D01*
X1326305Y545581D01*
X1318223D01*
X1318058Y545722D01*
X1295578Y568201D01*
Y668993D01*
X1295584Y669005D01*
X1295602Y669033D01*
X1295626Y669068D01*
X1295826Y669201D01*
X1297152Y671186D01*
X1297618Y673527D01*
X1297152Y675868D01*
X1295826Y677853D01*
X1293841Y679179D01*
X1291500Y679645D01*
X1289159Y679179D01*
X1287174Y677853D01*
X1285848Y675868D01*
X1285383Y673527D01*
X1285848Y671186D01*
X1287174Y669201D01*
X1287374Y669068D01*
X1287399Y669033D01*
X1287416Y669005D01*
X1287422Y668993D01*
Y566512D01*
X1287422Y566512D01*
X1287732Y564951D01*
X1288616Y563628D01*
X1312460Y539785D01*
X1312685Y539542D01*
Y531453D01*
X1323610D01*
X1324096Y530280D01*
X1316659Y522843D01*
X1316577Y522773D01*
X1316368Y522615D01*
X1316185Y522494D01*
X1316027Y522407D01*
X1315898Y522347D01*
X1315795Y522310D01*
X1315718Y522290D01*
X1315660Y522281D01*
X1315582Y522277D01*
X1309500D01*
Y506777D01*
X1325500D01*
X1325500Y506777D01*
X1325500D01*
Y506777D01*
X1327767D01*
X1327784Y506715D01*
X1327864Y506226D01*
X1327892Y505903D01*
Y487850D01*
X1305177Y465135D01*
X1240907D01*
X1240841Y465179D01*
X1238500Y465645D01*
X1236159Y465179D01*
X1236093Y465135D01*
X1157500D01*
X1155354Y464708D01*
X1153535Y463492D01*
X1081177Y391135D01*
X1070874D01*
X1070543Y391164D01*
X1070051Y391245D01*
X1070000Y391259D01*
Y400527D01*
X1031000D01*
Y391259D01*
X1030949Y391245D01*
X1030457Y391164D01*
X1030126Y391135D01*
X1016500D01*
X1014354Y390708D01*
X1012535Y389492D01*
X999961Y376918D01*
X999645Y376649D01*
X999090Y376232D01*
X998561Y375885D01*
X998057Y375606D01*
X997581Y375390D01*
X997131Y375231D01*
X996705Y375122D01*
X996298Y375060D01*
X995869Y375037D01*
X989499D01*
Y371579D01*
X989448Y371565D01*
X988956Y371484D01*
X988625Y371455D01*
X987384D01*
X987057Y371484D01*
X986571Y371565D01*
X986501Y371583D01*
Y375197D01*
X971058D01*
X970787Y375388D01*
X969279Y376679D01*
X847108Y498850D01*
Y501527D01*
X849250D01*
Y517527D01*
X849250D01*
Y517527D01*
X849250Y517527D01*
Y527478D01*
X849421Y527681D01*
X853384Y531643D01*
X853384Y531643D01*
X854268Y532966D01*
X854578Y534527D01*
X854578Y534527D01*
Y537993D01*
X854584Y538004D01*
X854602Y538033D01*
X854626Y538068D01*
X854826Y538201D01*
X856152Y540186D01*
X856618Y542527D01*
X856152Y544868D01*
X854826Y546853D01*
X852841Y548179D01*
X850500Y548644D01*
X848159Y548179D01*
X846174Y546853D01*
X844848Y544868D01*
X844383Y542527D01*
X844848Y540186D01*
X846174Y538201D01*
X846374Y538068D01*
X846399Y538033D01*
X846416Y538005D01*
X846422Y537993D01*
Y536216D01*
X843936Y533731D01*
X843718Y533527D01*
X833750D01*
Y526867D01*
X832577Y526381D01*
X828465Y530492D01*
X828166Y530692D01*
Y532051D01*
X826774D01*
Y536120D01*
X826818Y536186D01*
X827284Y538527D01*
X826818Y540868D01*
X826774Y540934D01*
Y542861D01*
X826347Y545007D01*
X825131Y546826D01*
X819108Y552850D01*
Y556527D01*
X818981Y557163D01*
X819518Y557966D01*
X819828Y559527D01*
X819518Y561088D01*
X819224Y561527D01*
X819518Y561966D01*
X819813Y563449D01*
X854500D01*
X854500Y563449D01*
X856061Y563759D01*
X857384Y564643D01*
X977189Y684449D01*
X1348596D01*
X1349027Y683179D01*
X1347794Y682233D01*
X1346512Y680562D01*
X1345706Y678615D01*
X1345431Y676527D01*
X1345706Y674439D01*
X1346512Y672493D01*
X1347707Y670936D01*
X1347713Y670926D01*
X1347726Y670911D01*
X1347744Y670887D01*
X1347755Y670861D01*
X1347793Y670735D01*
X1347837Y670545D01*
X1347872Y670330D01*
X1347892Y670080D01*
Y649850D01*
X1344535Y646492D01*
X1343319Y644673D01*
X1342892Y642527D01*
Y470850D01*
X1301177Y429135D01*
X1183000D01*
X1180854Y428708D01*
X1179035Y427492D01*
X1131702Y380159D01*
X1131257Y379770D01*
X1130590Y379247D01*
X1130010Y378853D01*
X1129532Y378584D01*
X1129401Y378527D01*
X1128090D01*
X1127965Y378555D01*
X1127809Y378527D01*
X1127765D01*
X1127618Y378542D01*
X1127566Y378527D01*
X1116250D01*
Y359527D01*
X1140750D01*
Y370984D01*
X1140778Y371109D01*
X1140750Y371265D01*
Y373091D01*
X1140833Y373208D01*
X1142180Y374776D01*
X1185323Y417919D01*
X1303500D01*
X1305646Y418346D01*
X1307465Y419562D01*
X1352465Y464562D01*
X1353681Y466381D01*
X1354108Y468527D01*
Y640204D01*
X1357465Y643562D01*
X1358681Y645381D01*
X1359108Y647527D01*
Y670156D01*
X1359122Y670293D01*
X1359164Y670545D01*
X1359207Y670735D01*
X1359245Y670861D01*
X1359256Y670887D01*
X1359274Y670911D01*
X1359288Y670926D01*
X1359294Y670936D01*
X1360488Y672493D01*
X1361294Y674439D01*
X1361569Y676527D01*
X1361294Y678615D01*
X1360488Y680562D01*
X1359206Y682233D01*
X1357973Y683179D01*
X1358404Y684449D01*
X1397500D01*
X1397500Y684449D01*
X1399061Y684759D01*
X1400384Y685643D01*
X1424205Y709464D01*
X1424291Y709517D01*
X1424543Y709634D01*
X1424931Y709770D01*
X1425449Y709908D01*
X1426024Y710023D01*
X1428739Y710298D01*
X1429391Y710320D01*
X1429554Y710298D01*
X1432295Y710659D01*
X1434849Y711717D01*
X1437043Y713400D01*
X1438726Y715594D01*
X1439784Y718148D01*
X1440145Y720889D01*
X1439784Y723630D01*
X1438726Y726184D01*
X1437043Y728378D01*
X1434849Y730061D01*
X1432295Y731119D01*
X1429554Y731480D01*
X1426813Y731119D01*
X1424259Y730061D01*
X1422065Y728378D01*
X1420382Y726184D01*
X1419324Y723630D01*
X1418963Y720889D01*
X1419007Y720557D01*
X1419002Y720526D01*
X1419026Y719479D01*
X1418966Y717657D01*
X1418894Y716970D01*
X1418795Y716363D01*
X1418679Y715876D01*
X1418560Y715515D01*
X1418454Y715282D01*
X1418402Y715197D01*
X1395811Y692605D01*
X1385005D01*
X1384520Y693779D01*
X1399644Y708903D01*
X1399720Y708950D01*
X1400008Y709092D01*
X1400450Y709269D01*
X1400953Y709436D01*
X1404640Y710271D01*
X1405779Y710456D01*
X1405780Y710456D01*
X1405780Y710456D01*
X1406012Y710543D01*
X1406895Y710659D01*
X1409449Y711717D01*
X1411643Y713400D01*
X1413326Y715594D01*
X1414384Y718148D01*
X1414745Y720889D01*
X1414384Y723630D01*
X1413326Y726184D01*
X1411643Y728378D01*
X1409449Y730061D01*
X1406895Y731119D01*
X1404154Y731480D01*
X1401413Y731119D01*
X1398859Y730061D01*
X1396665Y728378D01*
X1394982Y726184D01*
X1393924Y723630D01*
X1393564Y720889D01*
X1393754Y719443D01*
X1393741Y719146D01*
X1393891Y718160D01*
X1393979Y717328D01*
X1394017Y716592D01*
X1394010Y715962D01*
X1393965Y715439D01*
X1393893Y715031D01*
X1393809Y714738D01*
X1393731Y714555D01*
X1393687Y714482D01*
X1377811Y698605D01*
X1285443D01*
X1284844Y699725D01*
X1285152Y700186D01*
X1285618Y702527D01*
X1285152Y704868D01*
X1283826Y706853D01*
X1281841Y708179D01*
X1279500Y708645D01*
X1277159Y708179D01*
X1275174Y706853D01*
X1274341Y705605D01*
X971005D01*
X970519Y706779D01*
X998189Y734449D01*
X1007705D01*
Y731463D01*
X1017009D01*
X1017495Y730290D01*
X1012759Y725554D01*
X1012728Y725527D01*
X1012595Y725426D01*
X1012486Y725355D01*
X1012404Y725309D01*
X1012350Y725284D01*
X1012331Y725277D01*
X1004500D01*
Y709777D01*
X1019230D01*
X1020500Y709777D01*
Y709777D01*
X1020500D01*
X1020500Y709777D01*
X1033088D01*
X1033110Y709770D01*
X1033199Y709777D01*
X1033327D01*
X1033470Y709749D01*
X1033612Y709777D01*
X1036500D01*
Y711821D01*
X1037013Y711897D01*
X1037297Y711919D01*
X1236093D01*
X1236159Y711875D01*
X1238500Y711410D01*
X1240841Y711875D01*
X1242826Y713201D01*
X1244152Y715186D01*
X1244618Y717527D01*
X1244152Y719868D01*
X1242826Y721853D01*
X1240841Y723179D01*
X1238500Y723645D01*
X1236159Y723179D01*
X1236093Y723135D01*
X1037297D01*
X1037013Y723157D01*
X1036500Y723233D01*
Y725277D01*
X1033612D01*
X1033470Y725305D01*
X1033327Y725277D01*
X1033199D01*
X1033110Y725284D01*
X1033088Y725277D01*
X1025677D01*
X1025191Y726450D01*
X1029928Y731187D01*
X1029958Y731213D01*
X1030092Y731314D01*
X1030201Y731386D01*
X1030282Y731432D01*
X1030336Y731457D01*
X1030354Y731463D01*
X1035295D01*
Y745591D01*
X1022595D01*
X1021675Y745591D01*
Y745591D01*
X1021325D01*
X1021325Y745591D01*
X1007705D01*
Y742605D01*
X996500D01*
X994939Y742295D01*
X993616Y741411D01*
X993616Y741411D01*
X847811Y595605D01*
X819813D01*
X819518Y597088D01*
X819224Y597527D01*
X819518Y597966D01*
X819828Y599527D01*
X819518Y601088D01*
X819224Y601527D01*
X819518Y601966D01*
X819828Y603527D01*
X819518Y605088D01*
X818634Y606411D01*
X817311Y607295D01*
X815750Y607605D01*
X811250D01*
X810097Y607376D01*
X809907Y607480D01*
X809203Y608184D01*
X809099Y608374D01*
X809329Y609527D01*
Y612559D01*
X809476Y612736D01*
X811189Y614449D01*
X844966D01*
X844978Y614443D01*
X845006Y614426D01*
X845041Y614401D01*
X845174Y614201D01*
X847159Y612875D01*
X849500Y612410D01*
X851841Y612875D01*
X853826Y614201D01*
X855152Y616186D01*
X855618Y618527D01*
X855152Y620868D01*
X853826Y622853D01*
X851841Y624179D01*
X849500Y624645D01*
X847159Y624179D01*
X845572Y623118D01*
X845013Y623189D01*
X844744Y623501D01*
X844211Y624481D01*
X844618Y626527D01*
X844152Y628868D01*
X842826Y630853D01*
X840841Y632179D01*
X838500Y632645D01*
X836159Y632179D01*
X834174Y630853D01*
X834041Y630653D01*
X834007Y630629D01*
X833978Y630611D01*
X833966Y630605D01*
X806500D01*
X806500Y630605D01*
X804939Y630295D01*
X803616Y629411D01*
X798366Y624161D01*
X797482Y622838D01*
X797172Y621277D01*
X797172Y621277D01*
Y618090D01*
X795689Y617795D01*
X795534Y617691D01*
X794268Y618144D01*
X793840Y619283D01*
X794365Y619967D01*
X795070Y621670D01*
X795311Y623497D01*
Y632458D01*
X800500D01*
X802589Y632733D01*
X804506Y633527D01*
X811750D01*
Y647527D01*
X804506D01*
X802589Y648321D01*
X800500Y648596D01*
X797153D01*
X796470Y649845D01*
X796657Y650168D01*
X801193Y650458D01*
X802500D01*
X804588Y650733D01*
X806506Y651527D01*
X811750D01*
Y665527D01*
X806506D01*
X804588Y666321D01*
X802500Y666596D01*
X802039D01*
X798041Y666679D01*
X796648Y666786D01*
X796586Y666794D01*
Y682527D01*
X809500D01*
X814500Y687527D01*
Y770407D01*
X1451501D01*
X1451549Y770416D01*
X1454796Y770097D01*
D02*
G37*
%LPC*%
G36*
X634280Y417028D02*
X631539Y416667D01*
X628985Y415609D01*
X626791Y413926D01*
X625108Y411732D01*
X624050Y409178D01*
X623689Y406437D01*
X624050Y403696D01*
X625108Y401142D01*
X626050Y399915D01*
X625424Y398645D01*
X620880D01*
X618734Y398218D01*
X616915Y397002D01*
X612611Y392698D01*
X612459Y392579D01*
X612109Y392350D01*
X611744Y392152D01*
X611361Y391985D01*
X610953Y391847D01*
X610515Y391737D01*
X610043Y391657D01*
X609534Y391610D01*
X609094Y391599D01*
X608880Y391628D01*
X606139Y391267D01*
X603585Y390209D01*
X601391Y388526D01*
X599708Y386332D01*
X598650Y383778D01*
X598289Y381037D01*
X598650Y378296D01*
X599708Y375742D01*
X601391Y373548D01*
X603585Y371865D01*
X606139Y370807D01*
X608880Y370446D01*
X611621Y370807D01*
X614175Y371865D01*
X616369Y373548D01*
X618052Y375742D01*
X619110Y378296D01*
X619471Y381037D01*
X619443Y381251D01*
X619453Y381691D01*
X619500Y382200D01*
X619580Y382672D01*
X619690Y383110D01*
X619828Y383518D01*
X619995Y383901D01*
X620193Y384266D01*
X620422Y384616D01*
X620541Y384768D01*
X623203Y387429D01*
X624546D01*
X625037Y386159D01*
X624050Y383778D01*
X623689Y381037D01*
X624050Y378296D01*
X625108Y375742D01*
X626791Y373548D01*
X628985Y371865D01*
X631539Y370807D01*
X634280Y370446D01*
X637021Y370807D01*
X639575Y371865D01*
X641769Y373548D01*
X643452Y375742D01*
X644510Y378296D01*
X644871Y381037D01*
X644510Y383778D01*
X643523Y386159D01*
X644014Y387429D01*
X653623D01*
X653953Y387400D01*
X654445Y387319D01*
X654499Y387304D01*
Y382337D01*
X676501D01*
Y386582D01*
X677500Y387151D01*
X678499Y386582D01*
Y382177D01*
X700501D01*
Y386562D01*
X701527Y387153D01*
X702499Y386602D01*
Y382337D01*
X724501D01*
Y401037D01*
X705889D01*
X705854Y401048D01*
X705731Y401037D01*
X705672D01*
X705530Y401065D01*
X705387Y401037D01*
X702499D01*
Y399468D01*
X701686Y399021D01*
X700501Y399647D01*
Y400877D01*
X697620D01*
X697480Y400905D01*
X697336Y400877D01*
X697228D01*
X697124Y400886D01*
X697097Y400877D01*
X681903D01*
X681876Y400886D01*
X681772Y400877D01*
X681672D01*
X681530Y400905D01*
X681387Y400877D01*
X678499D01*
Y399647D01*
X677314Y399021D01*
X676501Y399468D01*
Y401037D01*
X673613D01*
X673471Y401065D01*
X673328Y401037D01*
X673269D01*
X673147Y401048D01*
X673111Y401037D01*
X657889D01*
X657854Y401048D01*
X657731Y401037D01*
X657665D01*
X657520Y401065D01*
X657380Y401037D01*
X654499D01*
Y398770D01*
X654437Y398753D01*
X653948Y398673D01*
X653625Y398645D01*
X643137D01*
X642510Y399915D01*
X643452Y401142D01*
X644510Y403696D01*
X644871Y406437D01*
X644510Y409178D01*
X643452Y411732D01*
X641769Y413926D01*
X639575Y415609D01*
X637021Y416667D01*
X634280Y417028D01*
D02*
G37*
G36*
Y366228D02*
X631539Y365867D01*
X628985Y364809D01*
X626791Y363126D01*
X625108Y360932D01*
X624050Y358378D01*
X623689Y355637D01*
X624050Y352896D01*
X625108Y350342D01*
X625160Y350274D01*
X624599Y349135D01*
X622170D01*
X620024Y348708D01*
X618205Y347492D01*
X612611Y341898D01*
X612459Y341779D01*
X612109Y341549D01*
X611744Y341352D01*
X611361Y341185D01*
X610953Y341047D01*
X610515Y340937D01*
X610043Y340857D01*
X609534Y340810D01*
X609094Y340799D01*
X608880Y340828D01*
X606139Y340467D01*
X603585Y339409D01*
X601391Y337726D01*
X599708Y335532D01*
X598650Y332978D01*
X598289Y330237D01*
X598650Y327496D01*
X599708Y324942D01*
X601391Y322748D01*
X603585Y321065D01*
X606139Y320007D01*
X608880Y319646D01*
X611621Y320007D01*
X614175Y321065D01*
X616369Y322748D01*
X618052Y324942D01*
X619110Y327496D01*
X619471Y330237D01*
X619443Y330451D01*
X619453Y330891D01*
X619500Y331400D01*
X619580Y331872D01*
X619690Y332310D01*
X619828Y332718D01*
X619995Y333101D01*
X620193Y333466D01*
X620422Y333816D01*
X620541Y333968D01*
X622607Y336033D01*
X623780Y335547D01*
Y319737D01*
X644780D01*
Y334657D01*
X645953Y335143D01*
X652607Y328489D01*
X652876Y328173D01*
X653289Y327623D01*
X653631Y327096D01*
X653907Y326595D01*
X654120Y326120D01*
X654278Y325670D01*
X654385Y325242D01*
X654447Y324830D01*
X654475Y324274D01*
X654499Y324176D01*
Y320017D01*
X676501D01*
Y322754D01*
X677500Y323325D01*
X678499Y322754D01*
Y320177D01*
X700501D01*
Y322779D01*
X701465Y323323D01*
X702499Y322727D01*
Y320017D01*
X724501D01*
Y338717D01*
X702499D01*
Y335687D01*
X701465Y335091D01*
X700501Y335635D01*
Y338877D01*
X678499D01*
Y335661D01*
X677500Y335089D01*
X676501Y335661D01*
Y338717D01*
X658378D01*
X657267Y339691D01*
X649465Y347492D01*
X647646Y348708D01*
X645500Y349135D01*
X643961D01*
X643400Y350274D01*
X643452Y350342D01*
X644510Y352896D01*
X644871Y355637D01*
X644510Y358378D01*
X643452Y360932D01*
X641769Y363126D01*
X639575Y364809D01*
X637021Y365867D01*
X634280Y366228D01*
D02*
G37*
G36*
X1111501Y354717D02*
X1089499D01*
Y350263D01*
X1089429Y350245D01*
X1088943Y350164D01*
X1088617Y350135D01*
X1077500D01*
X1075354Y349708D01*
X1073535Y348492D01*
X1069535Y344492D01*
X1068319Y342673D01*
X1068290Y342527D01*
X1065500D01*
Y312527D01*
X1081500D01*
Y338919D01*
X1088617D01*
X1088943Y338890D01*
X1089429Y338810D01*
X1089499Y338791D01*
Y336017D01*
X1111501D01*
Y338795D01*
X1111552Y338809D01*
X1112044Y338890D01*
X1112375Y338919D01*
X1115373D01*
X1115703Y338890D01*
X1116194Y338809D01*
X1116250Y338794D01*
Y330527D01*
X1140750D01*
Y349527D01*
X1126417D01*
X1126146Y349708D01*
X1124000Y350135D01*
X1112375D01*
X1112044Y350164D01*
X1111552Y350245D01*
X1111501Y350259D01*
Y354717D01*
D02*
G37*
G36*
X1363854Y731389D02*
X1342854D01*
Y710389D01*
X1363854D01*
Y731389D01*
D02*
G37*
G36*
X1353354Y756880D02*
X1350613Y756519D01*
X1348059Y755461D01*
X1345865Y753778D01*
X1344182Y751584D01*
X1343124Y749030D01*
X1342764Y746289D01*
X1343124Y743548D01*
X1344182Y740994D01*
X1345865Y738800D01*
X1348059Y737117D01*
X1350613Y736059D01*
X1353354Y735698D01*
X1356095Y736059D01*
X1358649Y737117D01*
X1360843Y738800D01*
X1362526Y740994D01*
X1363584Y743548D01*
X1363945Y746289D01*
X1363584Y749030D01*
X1362526Y751584D01*
X1360843Y753778D01*
X1358649Y755461D01*
X1356095Y756519D01*
X1353354Y756880D01*
D02*
G37*
G36*
X1021500Y664213D02*
X1010546Y663735D01*
X999676Y662304D01*
X988971Y659931D01*
X978514Y656634D01*
X968384Y652438D01*
X958659Y647375D01*
X949411Y641484D01*
X940713Y634809D01*
X932629Y627402D01*
X925221Y619318D01*
X918547Y610619D01*
X912655Y601372D01*
X907593Y591646D01*
X903397Y581516D01*
X900100Y571059D01*
X897727Y560355D01*
X896295Y549484D01*
X895817Y538530D01*
X896295Y527576D01*
X897727Y516706D01*
X900100Y506001D01*
X903397Y495544D01*
X907593Y485414D01*
X912655Y475689D01*
X918547Y466441D01*
X925221Y457743D01*
X932629Y449659D01*
X940713Y442251D01*
X949411Y435577D01*
X958659Y429685D01*
X968384Y424622D01*
X978514Y420426D01*
X988971Y417130D01*
X999676Y414756D01*
X1010546Y413325D01*
X1021500Y412847D01*
X1032454Y413325D01*
X1043325Y414756D01*
X1054029Y417130D01*
X1064486Y420426D01*
X1074616Y424622D01*
X1084342Y429685D01*
X1093589Y435577D01*
X1102288Y442251D01*
X1110372Y449659D01*
X1117779Y457743D01*
X1124454Y466441D01*
X1130345Y475689D01*
X1135408Y485414D01*
X1139604Y495544D01*
X1142901Y506001D01*
X1145274Y516706D01*
X1146705Y527576D01*
X1147183Y538530D01*
X1146705Y549484D01*
X1145274Y560355D01*
X1142901Y571059D01*
X1139604Y581516D01*
X1135408Y591646D01*
X1130345Y601372D01*
X1124454Y610619D01*
X1117779Y619318D01*
X1110372Y627402D01*
X1102288Y634809D01*
X1093589Y641484D01*
X1084342Y647375D01*
X1074616Y652438D01*
X1064486Y656634D01*
X1054029Y659931D01*
X1043325Y662304D01*
X1032454Y663735D01*
X1021500Y664213D01*
D02*
G37*
%LPD*%
G36*
X825760Y902758D02*
X825871Y902546D01*
X826054Y902359D01*
X826312Y902197D01*
X826643Y902060D01*
X827048Y901948D01*
X827526Y901861D01*
X828078Y901798D01*
X828703Y901761D01*
X829402Y901749D01*
Y899209D01*
X828703Y899196D01*
X827526Y899097D01*
X827048Y899009D01*
X826643Y898897D01*
X826312Y898760D01*
X826054Y898598D01*
X825871Y898411D01*
X825760Y898200D01*
X825723Y897963D01*
Y902995D01*
X825760Y902758D01*
D02*
G37*
G36*
X840279Y900627D02*
X841217Y899805D01*
X841488Y899604D01*
X841738Y899440D01*
X841966Y899312D01*
X842174Y899221D01*
X842360Y899166D01*
X842525Y899148D01*
X837324D01*
X837478Y899152D01*
X837607Y899165D01*
X837711Y899187D01*
X837789Y899217D01*
X837842Y899256D01*
X837869Y899304D01*
X837872Y899360D01*
X837849Y899425D01*
X837800Y899498D01*
X837726Y899581D01*
X839925Y900974D01*
X840279Y900627D01*
D02*
G37*
G36*
X872927Y901230D02*
X872965Y900793D01*
X873028Y900407D01*
X873117Y900073D01*
X873232Y899790D01*
X873371Y899559D01*
X873536Y899379D01*
X873727Y899251D01*
X873943Y899174D01*
X874184Y899148D01*
X869104D01*
X869345Y899174D01*
X869561Y899251D01*
X869752Y899379D01*
X869917Y899559D01*
X870057Y899790D01*
X870171Y900073D01*
X870260Y900407D01*
X870323Y900793D01*
X870361Y901230D01*
X870374Y901718D01*
X872914D01*
X872927Y901230D01*
D02*
G37*
G36*
X702704Y899816D02*
X702781Y898699D01*
X702848Y898245D01*
X702934Y897861D01*
X703039Y897547D01*
X703164Y897303D01*
X703308Y897128D01*
X703471Y897024D01*
X703654Y896989D01*
X696735D01*
X696917Y897024D01*
X697080Y897128D01*
X697224Y897303D01*
X697349Y897547D01*
X697454Y897861D01*
X697541Y898245D01*
X697608Y898699D01*
X697656Y899222D01*
X697694Y900479D01*
X702694D01*
X702704Y899816D01*
D02*
G37*
G36*
X762625Y897963D02*
X762588Y898200D01*
X762478Y898411D01*
X762294Y898598D01*
X762036Y898760D01*
X761705Y898897D01*
X761301Y899009D01*
X760822Y899097D01*
X760270Y899159D01*
X759645Y899196D01*
X758946Y899209D01*
Y901749D01*
X759645Y901761D01*
X760822Y901861D01*
X761301Y901948D01*
X761705Y902060D01*
X762036Y902197D01*
X762294Y902359D01*
X762478Y902546D01*
X762588Y902758D01*
X762625Y902995D01*
Y897963D01*
D02*
G37*
G36*
X778760Y902758D02*
X778870Y902546D01*
X779054Y902359D01*
X779312Y902197D01*
X779643Y902060D01*
X780048Y901948D01*
X780526Y901861D01*
X781078Y901798D01*
X781703Y901761D01*
X782402Y901749D01*
Y899209D01*
X781703Y899196D01*
X780526Y899097D01*
X780048Y899009D01*
X779643Y898897D01*
X779312Y898760D01*
X779054Y898598D01*
X778870Y898411D01*
X778760Y898200D01*
X778723Y897963D01*
Y902995D01*
X778760Y902758D01*
D02*
G37*
G36*
X794846Y901976D02*
X794705Y901791D01*
X794581Y901591D01*
X794473Y901376D01*
X794382Y901146D01*
X794307Y900901D01*
X794249Y900641D01*
X794207Y900366D01*
X794182Y900076D01*
X794174Y899771D01*
X791634D01*
X791626Y900076D01*
X791601Y900366D01*
X791559Y900641D01*
X791501Y900901D01*
X791427Y901146D01*
X791335Y901376D01*
X791227Y901591D01*
X791103Y901791D01*
X790962Y901976D01*
X790804Y902146D01*
X795004D01*
X794846Y901976D01*
D02*
G37*
G36*
X873943Y908993D02*
X873727Y908917D01*
X873536Y908790D01*
X873371Y908612D01*
X873232Y908383D01*
X873117Y908104D01*
X873028Y907774D01*
X872965Y907393D01*
X872927Y906961D01*
X872914Y906478D01*
X870374D01*
X870361Y906961D01*
X870323Y907393D01*
X870260Y907774D01*
X870171Y908104D01*
X870057Y908383D01*
X869917Y908612D01*
X869752Y908790D01*
X869561Y908917D01*
X869345Y908993D01*
X869104Y909018D01*
X874184D01*
X873943Y908993D01*
D02*
G37*
G36*
X738416Y912683D02*
X738492Y912467D01*
X738619Y912277D01*
X738797Y912112D01*
X739026Y911972D01*
X739305Y911858D01*
X739635Y911769D01*
X740016Y911705D01*
X740448Y911667D01*
X740931Y911655D01*
Y909115D01*
X740448Y909102D01*
X740016Y909064D01*
X739635Y909000D01*
X739305Y908912D01*
X739026Y908797D01*
X738797Y908658D01*
X738619Y908492D01*
X738492Y908302D01*
X738416Y908086D01*
X738391Y907845D01*
Y912925D01*
X738416Y912683D01*
D02*
G37*
G36*
X1287480Y929089D02*
X1287781Y928239D01*
X1288283Y927489D01*
X1288985Y926839D01*
X1289888Y926289D01*
X1290991Y925839D01*
X1292295Y925489D01*
X1293800Y925239D01*
X1295505Y925089D01*
X1297411Y925039D01*
Y915039D01*
X1295505Y914989D01*
X1293800Y914839D01*
X1292295Y914589D01*
X1290991Y914239D01*
X1289888Y913789D01*
X1288985Y913239D01*
X1288283Y912589D01*
X1287781Y911839D01*
X1287480Y910989D01*
X1287380Y910039D01*
Y930039D01*
X1287480Y929089D01*
D02*
G37*
G36*
X704465Y906174D02*
X704040Y906024D01*
X703665Y905774D01*
X703340Y905424D01*
X703065Y904974D01*
X702840Y904424D01*
X702665Y903774D01*
X702540Y903024D01*
X702465Y902174D01*
X702440Y901224D01*
X697440D01*
X697415Y902174D01*
X697340Y903024D01*
X697215Y903774D01*
X697040Y904424D01*
X696815Y904974D01*
X696540Y905424D01*
X696215Y905774D01*
X695840Y906024D01*
X695415Y906174D01*
X694940Y906224D01*
X704940D01*
X704465Y906174D01*
D02*
G37*
G36*
X1032951Y910543D02*
X1033006Y902884D01*
X1023006D01*
X1022992Y903825D01*
X1020201D01*
X1020734Y903925D01*
X1021210Y904225D01*
X1021631Y904725D01*
X1021996Y905425D01*
X1022305Y906325D01*
X1022557Y907425D01*
X1022698Y908355D01*
X1022557Y909284D01*
X1022305Y910384D01*
X1021996Y911284D01*
X1021631Y911984D01*
X1021210Y912484D01*
X1020734Y912784D01*
X1020201Y912884D01*
X1022977D01*
X1023006Y913825D01*
X1033006D01*
X1032951Y910543D01*
D02*
G37*
G36*
X977370Y903675D02*
X977334Y904317D01*
X977227Y904816D01*
X977049Y905173D01*
X976799Y905387D01*
X976479Y905458D01*
X976086Y905387D01*
X975623Y905173D01*
X975088Y904816D01*
X974482Y904317D01*
X973804Y903675D01*
X972036Y908978D01*
X973050Y910027D01*
X974756Y912014D01*
X975450Y912953D01*
X976037Y913855D01*
X976517Y914721D01*
X976890Y915550D01*
X977157Y916342D01*
X977317Y917098D01*
X977370Y917817D01*
Y903675D01*
D02*
G37*
G36*
X1053155Y898153D02*
X1053232Y897937D01*
X1053361Y897747D01*
X1053540Y897582D01*
X1053772Y897442D01*
X1054054Y897328D01*
X1054389Y897239D01*
X1054774Y897176D01*
X1055211Y897137D01*
X1055700Y897125D01*
Y894585D01*
X1055211Y894572D01*
X1054774Y894534D01*
X1054389Y894470D01*
X1054054Y894381D01*
X1053772Y894267D01*
X1053540Y894128D01*
X1053361Y893962D01*
X1053232Y893772D01*
X1053155Y893556D01*
X1053129Y893315D01*
Y898395D01*
X1053155Y898153D01*
D02*
G37*
G36*
X771957Y878757D02*
X771995Y878325D01*
X772058Y877944D01*
X772147Y877614D01*
X772262Y877334D01*
X772401Y877106D01*
X772566Y876928D01*
X772757Y876801D01*
X772973Y876725D01*
X773214Y876699D01*
X768134D01*
X768375Y876725D01*
X768591Y876801D01*
X768782Y876928D01*
X768947Y877106D01*
X769087Y877334D01*
X769201Y877614D01*
X769290Y877944D01*
X769353Y878325D01*
X769391Y878757D01*
X769404Y879239D01*
X771944D01*
X771957Y878757D01*
D02*
G37*
G36*
X682173Y881053D02*
X681957Y880977D01*
X681766Y880850D01*
X681601Y880672D01*
X681462Y880443D01*
X681347Y880164D01*
X681258Y879834D01*
X681195Y879453D01*
X681157Y879021D01*
X681144Y878538D01*
X678604D01*
X678591Y879021D01*
X678553Y879453D01*
X678490Y879834D01*
X678401Y880164D01*
X678287Y880443D01*
X678147Y880672D01*
X677982Y880850D01*
X677791Y880977D01*
X677575Y881053D01*
X677334Y881078D01*
X682414D01*
X682173Y881053D01*
D02*
G37*
G36*
X900299Y884868D02*
X899874Y884717D01*
X899499Y884466D01*
X899174Y884114D01*
X898899Y883661D01*
X898674Y883108D01*
X898499Y882454D01*
X898374Y881699D01*
X898299Y880844D01*
X898274Y879888D01*
X893274D01*
X893249Y880844D01*
X893174Y881699D01*
X893049Y882454D01*
X892874Y883108D01*
X892649Y883661D01*
X892374Y884114D01*
X892049Y884466D01*
X891674Y884717D01*
X891249Y884868D01*
X890774Y884919D01*
X900774D01*
X900299Y884868D01*
D02*
G37*
G36*
X681157Y875957D02*
X681195Y875520D01*
X681258Y875134D01*
X681347Y874800D01*
X681462Y874517D01*
X681601Y874286D01*
X681766Y874106D01*
X681957Y873978D01*
X682173Y873900D01*
X682414Y873875D01*
X677334D01*
X677575Y873900D01*
X677791Y873978D01*
X677982Y874106D01*
X678147Y874286D01*
X678287Y874517D01*
X678401Y874800D01*
X678490Y875134D01*
X678553Y875520D01*
X678591Y875957D01*
X678604Y876445D01*
X681144D01*
X681157Y875957D01*
D02*
G37*
G36*
X909822Y879347D02*
X910264Y878986D01*
X910487Y878835D01*
X910710Y878703D01*
X910933Y878591D01*
X911158Y878498D01*
X911383Y878425D01*
X911609Y878372D01*
X911835Y878338D01*
X908544Y875730D01*
X908560Y875959D01*
X908551Y876188D01*
X908517Y876416D01*
X908458Y876643D01*
X908374Y876870D01*
X908264Y877095D01*
X908130Y877320D01*
X907970Y877545D01*
X907785Y877768D01*
X907575Y877991D01*
X909602Y879557D01*
X909822Y879347D01*
D02*
G37*
G36*
X753547Y878757D02*
X753585Y878325D01*
X753648Y877944D01*
X753737Y877614D01*
X753852Y877334D01*
X753991Y877106D01*
X754156Y876928D01*
X754347Y876801D01*
X754563Y876725D01*
X754804Y876699D01*
X749724D01*
X749965Y876725D01*
X750181Y876801D01*
X750372Y876928D01*
X750537Y877106D01*
X750677Y877334D01*
X750791Y877614D01*
X750880Y877944D01*
X750943Y878325D01*
X750981Y878757D01*
X750994Y879239D01*
X753534D01*
X753547Y878757D01*
D02*
G37*
G36*
X772973Y884788D02*
X772757Y884711D01*
X772566Y884583D01*
X772401Y884403D01*
X772262Y884171D01*
X772147Y883889D01*
X772058Y883555D01*
X771995Y883169D01*
X771957Y882732D01*
X771944Y882243D01*
X769404D01*
X769391Y882732D01*
X769353Y883169D01*
X769290Y883555D01*
X769201Y883889D01*
X769087Y884171D01*
X768947Y884403D01*
X768782Y884583D01*
X768591Y884711D01*
X768375Y884788D01*
X768134Y884814D01*
X773214D01*
X772973Y884788D01*
D02*
G37*
G36*
X878370Y895157D02*
X878446Y894941D01*
X878573Y894751D01*
X878751Y894586D01*
X878980Y894446D01*
X879259Y894332D01*
X879589Y894243D01*
X879970Y894180D01*
X880402Y894141D01*
X880885Y894129D01*
Y891589D01*
X880402Y891576D01*
X879970Y891538D01*
X879589Y891474D01*
X879259Y891385D01*
X878980Y891271D01*
X878751Y891132D01*
X878573Y890966D01*
X878446Y890776D01*
X878370Y890560D01*
X878345Y890319D01*
Y895399D01*
X878370Y895157D01*
D02*
G37*
G36*
X889485Y894133D02*
X889554Y894134D01*
X893313Y894373D01*
X893632Y894448D01*
X893864Y894533D01*
X894007Y894628D01*
Y891090D01*
X893864Y891185D01*
X893632Y891269D01*
X893313Y891344D01*
X892906Y891409D01*
X891829Y891509D01*
X889554Y891584D01*
X889485Y891584D01*
Y890319D01*
X889459Y890560D01*
X889382Y890776D01*
X889254Y890966D01*
X889074Y891132D01*
X888842Y891271D01*
X888560Y891385D01*
X888225Y891474D01*
X887840Y891538D01*
X887403Y891576D01*
X886915Y891589D01*
Y894129D01*
X887403Y894141D01*
X887840Y894180D01*
X888225Y894243D01*
X888560Y894332D01*
X888842Y894446D01*
X889074Y894586D01*
X889254Y894751D01*
X889382Y894941D01*
X889459Y895157D01*
X889485Y895399D01*
Y894133D01*
D02*
G37*
G36*
X739171Y890548D02*
X738824Y890183D01*
X738513Y889820D01*
X738239Y889457D01*
X738002Y889096D01*
X737801Y888737D01*
X737636Y888378D01*
X737508Y888021D01*
X737417Y887664D01*
X737362Y887309D01*
X737344Y886956D01*
Y894140D01*
X737362Y893811D01*
X737417Y893556D01*
X737508Y893373D01*
X737636Y893263D01*
X737801Y893227D01*
X738002Y893263D01*
X738239Y893373D01*
X738513Y893556D01*
X738824Y893811D01*
X739171Y894140D01*
Y890548D01*
D02*
G37*
G36*
X961879Y891750D02*
X961325Y891132D01*
X960830Y890447D01*
X960395Y889694D01*
X960020Y888873D01*
X959705Y887984D01*
X959449Y887029D01*
X959252Y886005D01*
X959116Y884914D01*
X959039Y883755D01*
X959022Y882529D01*
X949122Y892428D01*
X950349Y892445D01*
X952598Y892659D01*
X953622Y892855D01*
X954578Y893111D01*
X955466Y893427D01*
X956287Y893802D01*
X957040Y894237D01*
X957726Y894731D01*
X958344Y895286D01*
X961879Y891750D01*
D02*
G37*
G36*
X823920Y884805D02*
X823665Y884750D01*
X823484Y884658D01*
X823376Y884529D01*
X823341Y884364D01*
X823379Y884162D01*
X823490Y883923D01*
X823674Y883648D01*
X823931Y883336D01*
X824261Y882988D01*
X820669D01*
X820304Y883335D01*
X819940Y883646D01*
X819578Y883920D01*
X819217Y884158D01*
X818857Y884359D01*
X818498Y884523D01*
X818141Y884651D01*
X817785Y884742D01*
X817430Y884796D01*
X817077Y884814D01*
X824247Y884824D01*
X823920Y884805D01*
D02*
G37*
G36*
X849153Y894471D02*
X849206Y894112D01*
X849296Y893753D01*
X849422Y893393D01*
X849584Y893034D01*
X849781Y892675D01*
X850015Y892316D01*
X850284Y891957D01*
X850589Y891597D01*
X850931Y891238D01*
Y887646D01*
X850589Y887969D01*
X850284Y888221D01*
X850015Y888400D01*
X849781Y888508D01*
X849584Y888544D01*
X849422Y888508D01*
X849296Y888400D01*
X849206Y888221D01*
X849153Y887969D01*
X849135Y887646D01*
Y894830D01*
X849153Y894471D01*
D02*
G37*
G36*
X738441Y935484D02*
X738591Y935059D01*
X738841Y934684D01*
X739191Y934359D01*
X739641Y934084D01*
X740191Y933859D01*
X740841Y933684D01*
X741591Y933559D01*
X742441Y933484D01*
X743391Y933459D01*
Y928459D01*
X742441Y928443D01*
X740841Y928321D01*
X740191Y928213D01*
X739641Y928075D01*
X739191Y927907D01*
X738841Y927707D01*
X738591Y927477D01*
X738441Y927216D01*
X738391Y926925D01*
Y935959D01*
X738441Y935484D01*
D02*
G37*
G36*
X681919Y930329D02*
X681703Y930253D01*
X681512Y930126D01*
X681347Y929948D01*
X681208Y929719D01*
X681093Y929440D01*
X681004Y929110D01*
X680941Y928729D01*
X680903Y928297D01*
X680890Y927814D01*
X678350D01*
X678337Y928297D01*
X678299Y928729D01*
X678236Y929110D01*
X678147Y929440D01*
X678033Y929719D01*
X677893Y929948D01*
X677728Y930126D01*
X677537Y930253D01*
X677321Y930329D01*
X677080Y930354D01*
X682160D01*
X681919Y930329D01*
D02*
G37*
G36*
X1032840Y928825D02*
X1020201D01*
X1020734Y928925D01*
X1021210Y929225D01*
X1021631Y929725D01*
X1021996Y930425D01*
X1022305Y931325D01*
X1022557Y932425D01*
X1022754Y933725D01*
X1022894Y935225D01*
X1023006Y938825D01*
X1033006D01*
X1032840Y928825D01*
D02*
G37*
G36*
X872927Y927011D02*
X872965Y926574D01*
X873028Y926188D01*
X873117Y925854D01*
X873232Y925571D01*
X873371Y925340D01*
X873536Y925160D01*
X873727Y925032D01*
X873943Y924954D01*
X874184Y924929D01*
X869104D01*
X869345Y924954D01*
X869561Y925032D01*
X869752Y925160D01*
X869917Y925340D01*
X870057Y925571D01*
X870171Y925854D01*
X870260Y926188D01*
X870323Y926574D01*
X870361Y927011D01*
X870374Y927499D01*
X872914D01*
X872927Y927011D01*
D02*
G37*
G36*
X917377D02*
X917415Y926574D01*
X917478Y926188D01*
X917567Y925854D01*
X917682Y925571D01*
X917821Y925340D01*
X917986Y925160D01*
X918177Y925032D01*
X918393Y924954D01*
X918634Y924929D01*
X913554D01*
X913795Y924954D01*
X914011Y925032D01*
X914202Y925160D01*
X914367Y925340D01*
X914507Y925571D01*
X914621Y925854D01*
X914710Y926188D01*
X914773Y926574D01*
X914811Y927011D01*
X914824Y927499D01*
X917364D01*
X917377Y927011D01*
D02*
G37*
G36*
X1144755Y926467D02*
X1144705Y926942D01*
X1144554Y927367D01*
X1144302Y927742D01*
X1143950Y928067D01*
X1143497Y928342D01*
X1142944Y928567D01*
X1142290Y928742D01*
X1141535Y928867D01*
X1140680Y928942D01*
X1139725Y928967D01*
Y933967D01*
X1140680Y933992D01*
X1141535Y934067D01*
X1142290Y934192D01*
X1142944Y934367D01*
X1143497Y934592D01*
X1143950Y934867D01*
X1144302Y935192D01*
X1144554Y935567D01*
X1144705Y935992D01*
X1144755Y936467D01*
Y926467D01*
D02*
G37*
G36*
X1051917Y936925D02*
X1052356Y930425D01*
X1052519Y929725D01*
X1052708Y929225D01*
X1052921Y928925D01*
X1053160Y928825D01*
X1040521D01*
X1040783Y928925D01*
X1041019Y929225D01*
X1041226Y929725D01*
X1041406Y930425D01*
X1041558Y931325D01*
X1041683Y932425D01*
X1041849Y935225D01*
X1041904Y938825D01*
X1051904D01*
X1051917Y936925D01*
D02*
G37*
G36*
X930440Y943417D02*
X930516Y943202D01*
X930643Y943011D01*
X930821Y942846D01*
X931050Y942706D01*
X931329Y942592D01*
X931659Y942503D01*
X932040Y942439D01*
X932472Y942401D01*
X932955Y942389D01*
Y939849D01*
X932472Y939836D01*
X932040Y939798D01*
X931659Y939734D01*
X931329Y939645D01*
X931050Y939531D01*
X930821Y939391D01*
X930643Y939226D01*
X930516Y939036D01*
X930440Y938820D01*
X930415Y938579D01*
Y943659D01*
X930440Y943417D01*
D02*
G37*
G36*
X939874Y938579D02*
X939848Y938820D01*
X939772Y939036D01*
X939645Y939226D01*
X939467Y939391D01*
X939239Y939531D01*
X938959Y939645D01*
X938629Y939734D01*
X938248Y939798D01*
X937816Y939836D01*
X937334Y939849D01*
Y942389D01*
X937816Y942401D01*
X938248Y942439D01*
X938629Y942503D01*
X938959Y942592D01*
X939239Y942706D01*
X939467Y942846D01*
X939645Y943011D01*
X939772Y943202D01*
X939848Y943417D01*
X939874Y943659D01*
Y938579D01*
D02*
G37*
G36*
X845035Y938579D02*
X845009Y938820D01*
X844932Y939036D01*
X844804Y939226D01*
X844624Y939391D01*
X844392Y939531D01*
X844110Y939645D01*
X843776Y939734D01*
X843390Y939798D01*
X842953Y939836D01*
X842465Y939849D01*
Y942389D01*
X842953Y942401D01*
X843390Y942439D01*
X843776Y942503D01*
X844110Y942592D01*
X844392Y942706D01*
X844624Y942846D01*
X844804Y943011D01*
X844932Y943202D01*
X845009Y943417D01*
X845035Y943659D01*
Y938579D01*
D02*
G37*
G36*
X873943Y933123D02*
X873727Y933047D01*
X873536Y932920D01*
X873371Y932742D01*
X873232Y932513D01*
X873117Y932234D01*
X873028Y931904D01*
X872965Y931523D01*
X872927Y931091D01*
X872914Y930608D01*
X870374D01*
X870361Y931091D01*
X870323Y931523D01*
X870260Y931904D01*
X870171Y932234D01*
X870057Y932513D01*
X869917Y932742D01*
X869752Y932920D01*
X869561Y933047D01*
X869345Y933123D01*
X869104Y933148D01*
X874184D01*
X873943Y933123D01*
D02*
G37*
G36*
X762625Y936063D02*
X762588Y936300D01*
X762478Y936511D01*
X762294Y936698D01*
X762036Y936860D01*
X761705Y936997D01*
X761301Y937109D01*
X760822Y937197D01*
X760270Y937259D01*
X759645Y937296D01*
X758946Y937309D01*
Y939849D01*
X759645Y939861D01*
X760822Y939961D01*
X761301Y940048D01*
X761705Y940160D01*
X762036Y940297D01*
X762294Y940459D01*
X762478Y940646D01*
X762588Y940858D01*
X762625Y941095D01*
Y936063D01*
D02*
G37*
G36*
X1334656Y946692D02*
X1334806Y944987D01*
X1335056Y943483D01*
X1335406Y942179D01*
X1335856Y941075D01*
X1336406Y940173D01*
X1337056Y939471D01*
X1337806Y938969D01*
X1338656Y938668D01*
X1339606Y938568D01*
X1319606D01*
X1320556Y938668D01*
X1321406Y938969D01*
X1322156Y939471D01*
X1322806Y940173D01*
X1323356Y941075D01*
X1323806Y942179D01*
X1324156Y943483D01*
X1324406Y944987D01*
X1324556Y946692D01*
X1324606Y948598D01*
X1334606D01*
X1334656Y946692D01*
D02*
G37*
G36*
X791407Y927821D02*
X791592Y927680D01*
X791792Y927555D01*
X792007Y927448D01*
X792237Y927356D01*
X792482Y927281D01*
X792742Y927223D01*
X793017Y927182D01*
X793307Y927157D01*
X793612Y927149D01*
Y924609D01*
X793307Y924600D01*
X793017Y924576D01*
X792742Y924534D01*
X792482Y924476D01*
X792237Y924401D01*
X792007Y924310D01*
X791792Y924202D01*
X791592Y924078D01*
X791407Y923936D01*
X791236Y923779D01*
Y927979D01*
X791407Y927821D01*
D02*
G37*
G36*
X674601Y911655D02*
X674575Y911896D01*
X674498Y912112D01*
X674370Y912302D01*
X674190Y912467D01*
X673958Y912607D01*
X673676Y912721D01*
X673342Y912810D01*
X672956Y912874D01*
X672519Y912912D01*
X672031Y912925D01*
Y915465D01*
X672519Y915477D01*
X672956Y915516D01*
X673342Y915579D01*
X673676Y915668D01*
X673958Y915782D01*
X674190Y915922D01*
X674370Y916087D01*
X674498Y916277D01*
X674575Y916493D01*
X674601Y916735D01*
Y911655D01*
D02*
G37*
G36*
X761524Y911896D02*
X761508Y911898D01*
X761459Y911900D01*
X759884Y911909D01*
Y914449D01*
X761524Y914462D01*
Y911896D01*
D02*
G37*
G36*
X836482Y914889D02*
X836311Y915046D01*
X836126Y915188D01*
X835926Y915312D01*
X835711Y915420D01*
X835481Y915511D01*
X835236Y915586D01*
X834976Y915644D01*
X834701Y915686D01*
X834411Y915710D01*
X834106Y915719D01*
Y918259D01*
X834411Y918267D01*
X834701Y918292D01*
X834976Y918333D01*
X835236Y918391D01*
X835481Y918466D01*
X835711Y918558D01*
X835926Y918665D01*
X836126Y918790D01*
X836311Y918931D01*
X836482Y919089D01*
Y914889D01*
D02*
G37*
G36*
X1310659Y910039D02*
X1310559Y910989D01*
X1310258Y911839D01*
X1309756Y912589D01*
X1309054Y913239D01*
X1308152Y913789D01*
X1307048Y914239D01*
X1305744Y914589D01*
X1304240Y914839D01*
X1302534Y914989D01*
X1300629Y915039D01*
Y925039D01*
X1302534Y925089D01*
X1304240Y925239D01*
X1305744Y925489D01*
X1307048Y925839D01*
X1308152Y926289D01*
X1309054Y926839D01*
X1309756Y927489D01*
X1310258Y928239D01*
X1310559Y929089D01*
X1310659Y930039D01*
Y910039D01*
D02*
G37*
G36*
X778760Y915458D02*
X778870Y915246D01*
X779054Y915059D01*
X779312Y914897D01*
X779643Y914760D01*
X780048Y914648D01*
X780526Y914561D01*
X781078Y914499D01*
X781703Y914461D01*
X782402Y914449D01*
Y911909D01*
X781703Y911896D01*
X780526Y911797D01*
X780048Y911709D01*
X779643Y911597D01*
X779312Y911460D01*
X779054Y911298D01*
X778870Y911111D01*
X778760Y910900D01*
X778723Y910663D01*
Y915695D01*
X778760Y915458D01*
D02*
G37*
G36*
X825760D02*
X825871Y915246D01*
X826054Y915059D01*
X826312Y914897D01*
X826643Y914760D01*
X827048Y914648D01*
X827526Y914561D01*
X828078Y914499D01*
X828703Y914461D01*
X829402Y914449D01*
Y911909D01*
X828703Y911896D01*
X827526Y911797D01*
X827048Y911709D01*
X826643Y911597D01*
X826312Y911460D01*
X826054Y911298D01*
X825871Y911111D01*
X825760Y910900D01*
X825723Y910663D01*
Y915695D01*
X825760Y915458D01*
D02*
G37*
G36*
X1155569Y923476D02*
X1155144Y923325D01*
X1154769Y923074D01*
X1154444Y922722D01*
X1154169Y922269D01*
X1153944Y921716D01*
X1153769Y921062D01*
X1153644Y920307D01*
X1153569Y919452D01*
X1153564Y919275D01*
X1153569Y919097D01*
X1153644Y918242D01*
X1153769Y917488D01*
X1153944Y916834D01*
X1154169Y916280D01*
X1154444Y915828D01*
X1154769Y915475D01*
X1155144Y915224D01*
X1155569Y915073D01*
X1156044Y915023D01*
X1146044D01*
X1146519Y915073D01*
X1146944Y915224D01*
X1147319Y915475D01*
X1147644Y915828D01*
X1147919Y916280D01*
X1148144Y916834D01*
X1148319Y917488D01*
X1148444Y918242D01*
X1148519Y919097D01*
X1148524Y919275D01*
X1148519Y919452D01*
X1148444Y920307D01*
X1148319Y921062D01*
X1148144Y921716D01*
X1147919Y922269D01*
X1147644Y922722D01*
X1147319Y923074D01*
X1146944Y923325D01*
X1146519Y923476D01*
X1146044Y923527D01*
X1156044D01*
X1155569Y923476D01*
D02*
G37*
G36*
X763399Y922986D02*
X763170Y923060D01*
X762861Y923127D01*
X762474Y923186D01*
X761463Y923280D01*
X759355Y923363D01*
X757554Y923379D01*
Y928379D01*
X758494Y928383D01*
X762861Y928630D01*
X763170Y928697D01*
X763399Y928772D01*
Y922986D01*
D02*
G37*
G36*
X809625Y923363D02*
X809588Y923600D01*
X809478Y923811D01*
X809294Y923998D01*
X809036Y924160D01*
X808705Y924297D01*
X808300Y924409D01*
X807822Y924497D01*
X807270Y924559D01*
X806645Y924596D01*
X805946Y924609D01*
Y927149D01*
X806645Y927161D01*
X807822Y927261D01*
X808300Y927348D01*
X808705Y927460D01*
X809036Y927597D01*
X809294Y927759D01*
X809478Y927946D01*
X809588Y928158D01*
X809625Y928394D01*
Y923363D01*
D02*
G37*
G36*
X825760Y928158D02*
X825871Y927946D01*
X826054Y927759D01*
X826312Y927597D01*
X826643Y927460D01*
X827048Y927348D01*
X827526Y927261D01*
X828078Y927198D01*
X828703Y927161D01*
X829114Y927154D01*
X829210Y927156D01*
X829501Y927179D01*
X829778Y927216D01*
X830041Y927269D01*
X830291Y927336D01*
X830527Y927419D01*
X830749Y927516D01*
X830957Y927629D01*
X831152Y927756D01*
X831333Y927899D01*
X830978Y923714D01*
X830821Y923884D01*
X830648Y924036D01*
X830459Y924170D01*
X830253Y924286D01*
X830030Y924385D01*
X829791Y924465D01*
X829535Y924528D01*
X829262Y924573D01*
X828973Y924600D01*
X828945Y924601D01*
X828703Y924596D01*
X827526Y924497D01*
X827048Y924409D01*
X826643Y924297D01*
X826312Y924160D01*
X826054Y923998D01*
X825871Y923811D01*
X825760Y923600D01*
X825723Y923363D01*
Y928394D01*
X825760Y928158D01*
D02*
G37*
G36*
X845035Y914449D02*
X845009Y914690D01*
X844932Y914906D01*
X844804Y915096D01*
X844624Y915262D01*
X844392Y915401D01*
X844110Y915516D01*
X843776Y915604D01*
X843390Y915668D01*
X842953Y915706D01*
X842825Y915709D01*
X842547Y915686D01*
X842272Y915644D01*
X842012Y915586D01*
X841767Y915511D01*
X841537Y915420D01*
X841322Y915312D01*
X841122Y915188D01*
X840937Y915046D01*
X840767Y914889D01*
Y919089D01*
X840937Y918931D01*
X841122Y918790D01*
X841322Y918665D01*
X841537Y918558D01*
X841767Y918466D01*
X842012Y918391D01*
X842272Y918333D01*
X842547Y918292D01*
X842825Y918268D01*
X842953Y918271D01*
X843390Y918309D01*
X843776Y918373D01*
X844110Y918462D01*
X844392Y918576D01*
X844624Y918716D01*
X844804Y918881D01*
X844932Y919072D01*
X845009Y919287D01*
X845035Y919529D01*
Y914449D01*
D02*
G37*
G36*
X889485Y918300D02*
X889537Y918292D01*
X889827Y918267D01*
X890132Y918259D01*
Y915719D01*
X889827Y915710D01*
X889537Y915686D01*
X889485Y915678D01*
Y914449D01*
X889459Y914690D01*
X889382Y914906D01*
X889254Y915096D01*
X889074Y915262D01*
X888842Y915401D01*
X888663Y915474D01*
X888527Y915420D01*
X888312Y915312D01*
X888112Y915188D01*
X887927Y915046D01*
X887757Y914889D01*
Y915675D01*
X887403Y915706D01*
X886915Y915719D01*
Y918259D01*
X887403Y918271D01*
X887757Y918302D01*
Y919089D01*
X887927Y918931D01*
X888112Y918790D01*
X888312Y918665D01*
X888527Y918558D01*
X888663Y918504D01*
X888842Y918576D01*
X889074Y918716D01*
X889254Y918881D01*
X889382Y919072D01*
X889459Y919287D01*
X889485Y919529D01*
Y918300D01*
D02*
G37*
G36*
X680903Y924217D02*
X680941Y923780D01*
X681004Y923394D01*
X681093Y923060D01*
X681208Y922777D01*
X681347Y922546D01*
X681512Y922366D01*
X681703Y922238D01*
X681919Y922160D01*
X682160Y922135D01*
X677080D01*
X677321Y922160D01*
X677537Y922238D01*
X677728Y922366D01*
X677893Y922546D01*
X678033Y922777D01*
X678147Y923060D01*
X678236Y923394D01*
X678299Y923780D01*
X678337Y924217D01*
X678350Y924705D01*
X680890D01*
X680903Y924217D01*
D02*
G37*
G36*
X640328Y881022D02*
X641787Y879749D01*
X642478Y879231D01*
X643145Y878794D01*
X643786Y878436D01*
X644401Y878157D01*
X644991Y877958D01*
X645556Y877839D01*
X646096Y877799D01*
Y875259D01*
X645556Y875219D01*
X644991Y875099D01*
X644401Y874901D01*
X643786Y874622D01*
X643145Y874264D01*
X642478Y873826D01*
X641787Y873308D01*
X640328Y872035D01*
X639560Y871279D01*
Y881779D01*
X640328Y881022D01*
D02*
G37*
G36*
X797997Y819061D02*
X798035Y818624D01*
X798098Y818238D01*
X798187Y817904D01*
X798302Y817621D01*
X798441Y817390D01*
X798606Y817210D01*
X798797Y817082D01*
X799013Y817004D01*
X799254Y816979D01*
X794174D01*
X794415Y817004D01*
X794631Y817082D01*
X794822Y817210D01*
X794987Y817390D01*
X795127Y817621D01*
X795241Y817904D01*
X795330Y818238D01*
X795393Y818624D01*
X795431Y819061D01*
X795444Y819549D01*
X797984D01*
X797997Y819061D01*
D02*
G37*
G36*
X862767Y819067D02*
X862805Y818635D01*
X862868Y818254D01*
X862957Y817924D01*
X863072Y817644D01*
X863211Y817416D01*
X863376Y817238D01*
X863567Y817111D01*
X863783Y817035D01*
X864024Y817009D01*
X858944D01*
X859185Y817035D01*
X859401Y817111D01*
X859592Y817238D01*
X859757Y817416D01*
X859897Y817644D01*
X860011Y817924D01*
X860100Y818254D01*
X860163Y818635D01*
X860201Y819067D01*
X860214Y819549D01*
X862754D01*
X862767Y819067D01*
D02*
G37*
G36*
X773022Y819355D02*
X772853Y819320D01*
X772629Y819216D01*
X772351Y819043D01*
X772017Y818801D01*
X771185Y818110D01*
X769524Y816555D01*
X768928Y815966D01*
X769796Y815069D01*
X769604Y815212D01*
X769374Y815283D01*
X769108Y815281D01*
X768804Y815207D01*
X768464Y815061D01*
X768086Y814842D01*
X767671Y814551D01*
X767219Y814187D01*
X766204Y813242D01*
X764469Y815099D01*
X764972Y815620D01*
X765764Y816554D01*
X766054Y816967D01*
X766272Y817344D01*
X766419Y817686D01*
X766495Y817991D01*
X766500Y818260D01*
X766433Y818494D01*
X766295Y818691D01*
X767162Y817794D01*
X767720Y818358D01*
X770209Y821185D01*
X770382Y821464D01*
X770486Y821688D01*
X770520Y821856D01*
X773022Y819355D01*
D02*
G37*
G36*
X778635Y822614D02*
X778529Y822124D01*
X778556Y821572D01*
X778714Y820958D01*
X779005Y820282D01*
X779427Y819544D01*
X779982Y818744D01*
X780669Y817882D01*
X781488Y816957D01*
X782439Y815971D01*
X779837Y811503D01*
X778767Y812537D01*
X776869Y814155D01*
X776041Y814738D01*
X775294Y815170D01*
X774627Y815451D01*
X774041Y815581D01*
X773535Y815561D01*
X773110Y815390D01*
X772766Y815069D01*
X778873Y823042D01*
X778635Y822614D01*
D02*
G37*
G36*
X810817Y818339D02*
X811702Y817596D01*
X812103Y817318D01*
X812476Y817104D01*
X812821Y816953D01*
X813139Y816865D01*
X813429Y816840D01*
X813691Y816878D01*
X813926Y816979D01*
X809475Y814306D01*
X809655Y814461D01*
X809755Y814662D01*
X809774Y814908D01*
X809712Y815199D01*
X809570Y815535D01*
X809347Y815917D01*
X809043Y816344D01*
X808659Y816817D01*
X807648Y817898D01*
X810334Y818805D01*
X810817Y818339D01*
D02*
G37*
G36*
X706509Y820227D02*
X706586Y820012D01*
X706714Y819821D01*
X706894Y819656D01*
X707126Y819516D01*
X707409Y819402D01*
X707743Y819313D01*
X708128Y819249D01*
X708565Y819211D01*
X709054Y819199D01*
Y816659D01*
X708565Y816646D01*
X708128Y816608D01*
X707743Y816544D01*
X707409Y816456D01*
X707126Y816341D01*
X706894Y816201D01*
X706714Y816036D01*
X706586Y815846D01*
X706509Y815630D01*
X706483Y815389D01*
Y820469D01*
X706509Y820227D01*
D02*
G37*
G36*
X640328Y830222D02*
X641787Y828949D01*
X642478Y828431D01*
X643145Y827994D01*
X643786Y827635D01*
X644401Y827357D01*
X644991Y827158D01*
X645556Y827038D01*
X646096Y826999D01*
Y824459D01*
X645556Y824419D01*
X644991Y824299D01*
X644401Y824100D01*
X643786Y823822D01*
X643145Y823464D01*
X642478Y823026D01*
X641787Y822508D01*
X640328Y821235D01*
X639560Y820479D01*
Y830979D01*
X640328Y830222D01*
D02*
G37*
G36*
X874530Y834197D02*
X874607Y833981D01*
X874735Y833791D01*
X874915Y833626D01*
X875147Y833486D01*
X875430Y833372D01*
X875764Y833283D01*
X876149Y833220D01*
X876586Y833181D01*
X877075Y833169D01*
Y830629D01*
X876586Y830616D01*
X876149Y830578D01*
X875764Y830514D01*
X875430Y830425D01*
X875147Y830311D01*
X874915Y830172D01*
X874735Y830006D01*
X874607Y829816D01*
X874530Y829600D01*
X874504Y829359D01*
Y834439D01*
X874530Y834197D01*
D02*
G37*
G36*
X881454Y829359D02*
X881428Y829600D01*
X881352Y829816D01*
X881225Y830006D01*
X881047Y830172D01*
X880819Y830311D01*
X880539Y830425D01*
X880209Y830514D01*
X879828Y830578D01*
X879396Y830616D01*
X878914Y830629D01*
Y833169D01*
X879396Y833181D01*
X879828Y833220D01*
X880209Y833283D01*
X880539Y833372D01*
X880819Y833486D01*
X881047Y833626D01*
X881225Y833791D01*
X881352Y833981D01*
X881428Y834197D01*
X881454Y834439D01*
Y829359D01*
D02*
G37*
G36*
X826270Y834197D02*
X826347Y833981D01*
X826476Y833791D01*
X826655Y833626D01*
X826874Y833494D01*
X827036Y833575D01*
X827236Y833700D01*
X827421Y833841D01*
X827592Y833999D01*
Y833269D01*
X827889Y833220D01*
X828326Y833181D01*
X828815Y833169D01*
Y830629D01*
X828326Y830616D01*
X827889Y830578D01*
X827592Y830529D01*
Y829799D01*
X827421Y829956D01*
X827236Y830098D01*
X827036Y830222D01*
X826874Y830303D01*
X826655Y830172D01*
X826476Y830006D01*
X826347Y829816D01*
X826270Y829600D01*
X826244Y829359D01*
Y830519D01*
X826086Y830554D01*
X825811Y830595D01*
X825521Y830620D01*
X825216Y830629D01*
Y833169D01*
X825521Y833177D01*
X825811Y833202D01*
X826086Y833243D01*
X826244Y833279D01*
Y834439D01*
X826270Y834197D01*
D02*
G37*
G36*
X721464Y822876D02*
X721446Y823205D01*
X721391Y823461D01*
X721300Y823643D01*
X721172Y823753D01*
X721007Y823789D01*
X720807Y823753D01*
X720569Y823643D01*
X720295Y823461D01*
X719985Y823205D01*
X719638Y822876D01*
X718739Y825570D01*
X719257Y826105D01*
X720129Y827119D01*
X720483Y827596D01*
X720783Y828055D01*
X721028Y828494D01*
X721219Y828915D01*
X721355Y829316D01*
X721437Y829698D01*
X721464Y830060D01*
Y822876D01*
D02*
G37*
G36*
X799013Y825584D02*
X798797Y825507D01*
X798606Y825378D01*
X798441Y825198D01*
X798302Y824967D01*
X798187Y824684D01*
X798098Y824350D01*
X798035Y823964D01*
X797997Y823528D01*
X797984Y823039D01*
X795444D01*
X795431Y823528D01*
X795393Y823964D01*
X795330Y824350D01*
X795241Y824684D01*
X795127Y824967D01*
X794987Y825198D01*
X794822Y825378D01*
X794631Y825507D01*
X794415Y825584D01*
X794174Y825610D01*
X799254D01*
X799013Y825584D01*
D02*
G37*
G36*
X863783D02*
X863567Y825507D01*
X863376Y825378D01*
X863211Y825198D01*
X863072Y824967D01*
X862957Y824684D01*
X862868Y824350D01*
X862805Y823964D01*
X862767Y823528D01*
X862754Y823039D01*
X860214D01*
X860201Y823528D01*
X860163Y823964D01*
X860100Y824350D01*
X860011Y824684D01*
X859897Y824967D01*
X859757Y825198D01*
X859592Y825378D01*
X859401Y825507D01*
X859185Y825584D01*
X858944Y825610D01*
X864024D01*
X863783Y825584D01*
D02*
G37*
G36*
X682173Y809933D02*
X681957Y809857D01*
X681766Y809730D01*
X681601Y809552D01*
X681462Y809323D01*
X681347Y809044D01*
X681258Y808714D01*
X681195Y808333D01*
X681157Y807901D01*
X681144Y807418D01*
X678604D01*
X678591Y807901D01*
X678553Y808333D01*
X678490Y808714D01*
X678401Y809044D01*
X678287Y809323D01*
X678147Y809552D01*
X677982Y809730D01*
X677791Y809857D01*
X677575Y809933D01*
X677334Y809958D01*
X682414D01*
X682173Y809933D01*
D02*
G37*
G36*
X673585Y791259D02*
X673559Y791500D01*
X673482Y791716D01*
X673354Y791906D01*
X673174Y792072D01*
X672942Y792211D01*
X672660Y792326D01*
X672326Y792414D01*
X671940Y792478D01*
X671503Y792516D01*
X671015Y792529D01*
Y795069D01*
X671503Y795081D01*
X671940Y795119D01*
X672326Y795183D01*
X672660Y795272D01*
X672942Y795386D01*
X673174Y795526D01*
X673354Y795691D01*
X673482Y795882D01*
X673559Y796097D01*
X673585Y796339D01*
Y791259D01*
D02*
G37*
G36*
X778899Y798637D02*
X778976Y798421D01*
X779105Y798231D01*
X779284Y798066D01*
X779516Y797926D01*
X779799Y797812D01*
X780133Y797723D01*
X780518Y797660D01*
X780955Y797621D01*
X781444Y797609D01*
Y795069D01*
X780955Y795056D01*
X780518Y795018D01*
X780133Y794954D01*
X779799Y794865D01*
X779516Y794751D01*
X779284Y794612D01*
X779105Y794446D01*
X778976Y794256D01*
X778899Y794040D01*
X778873Y793799D01*
Y798879D01*
X778899Y798637D01*
D02*
G37*
G36*
X641669Y802627D02*
X641746Y802411D01*
X641874Y802221D01*
X642054Y802056D01*
X642286Y801916D01*
X642569Y801802D01*
X642903Y801713D01*
X643288Y801649D01*
X643725Y801611D01*
X644214Y801599D01*
Y799059D01*
X643725Y799046D01*
X643288Y799008D01*
X642903Y798944D01*
X642569Y798856D01*
X642286Y798741D01*
X642054Y798602D01*
X641874Y798436D01*
X641746Y798246D01*
X641669Y798030D01*
X641643Y797789D01*
Y802869D01*
X641669Y802627D01*
D02*
G37*
G36*
X1099020Y868355D02*
X1104020Y863355D01*
Y850855D01*
Y773607D01*
X919020D01*
Y825855D01*
Y833355D01*
X926520Y840855D01*
X939020Y853355D01*
X1031520D01*
X1044020Y865855D01*
X1049020Y870855D01*
X1096520D01*
X1099020Y868355D01*
D02*
G37*
G36*
X757445Y791238D02*
X757668Y791050D01*
X757860Y790908D01*
X758584D01*
X758446Y790890D01*
X758360Y790836D01*
X758327Y790747D01*
X758346Y790621D01*
X758346Y790620D01*
X758570Y790524D01*
X758798Y790448D01*
X759027Y790395D01*
X759258Y790363D01*
X759490Y790355D01*
X758922Y789786D01*
X758945Y789759D01*
X759559Y789112D01*
X758248D01*
X756520Y787385D01*
X756511Y787617D01*
X756480Y787847D01*
X756427Y788077D01*
X756351Y788305D01*
X756253Y788532D01*
X756132Y788758D01*
X755990Y788983D01*
X755825Y789207D01*
X755657Y789406D01*
X755607Y789453D01*
X755248Y789759D01*
X754889Y790028D01*
X754530Y790262D01*
X754171Y790459D01*
X753811Y790621D01*
X753452Y790747D01*
X753093Y790836D01*
X752734Y790890D01*
X752374Y790908D01*
X756684D01*
X757224Y791447D01*
X757445Y791238D01*
D02*
G37*
G36*
X706509Y793557D02*
X706586Y793342D01*
X706714Y793151D01*
X706894Y792986D01*
X707126Y792846D01*
X707409Y792732D01*
X707743Y792643D01*
X708128Y792579D01*
X708565Y792541D01*
X709054Y792529D01*
Y789989D01*
X708565Y789976D01*
X708128Y789938D01*
X707743Y789874D01*
X707409Y789786D01*
X707126Y789671D01*
X706894Y789531D01*
X706714Y789366D01*
X706586Y789176D01*
X706509Y788960D01*
X706483Y788719D01*
Y793799D01*
X706509Y793557D01*
D02*
G37*
G36*
X618754Y806743D02*
X618281Y806232D01*
X617859Y805693D01*
X617488Y805127D01*
X617167Y804534D01*
X616897Y803914D01*
X616677Y803266D01*
X616508Y802591D01*
X616389Y801889D01*
X616321Y801160D01*
X616304Y800404D01*
X608879Y807828D01*
X609636Y807846D01*
X610365Y807914D01*
X611067Y808033D01*
X611742Y808202D01*
X612389Y808422D01*
X613009Y808692D01*
X613603Y809013D01*
X614168Y809384D01*
X614707Y809806D01*
X615218Y810278D01*
X618754Y806743D01*
D02*
G37*
G36*
X822079Y811337D02*
X822156Y811122D01*
X822284Y810931D01*
X822464Y810766D01*
X822696Y810626D01*
X822979Y810512D01*
X823313Y810423D01*
X823698Y810359D01*
X824135Y810321D01*
X824624Y810309D01*
Y807769D01*
X824135Y807756D01*
X823698Y807718D01*
X823313Y807654D01*
X822979Y807566D01*
X822696Y807451D01*
X822464Y807311D01*
X822284Y807146D01*
X822156Y806956D01*
X822079Y806740D01*
X822053Y806499D01*
Y811579D01*
X822079Y811337D01*
D02*
G37*
G36*
X837415Y806499D02*
X837389Y806740D01*
X837312Y806956D01*
X837184Y807146D01*
X837004Y807311D01*
X836772Y807451D01*
X836490Y807566D01*
X836155Y807654D01*
X835770Y807718D01*
X835333Y807756D01*
X834845Y807769D01*
Y810309D01*
X835333Y810321D01*
X835770Y810359D01*
X836155Y810423D01*
X836490Y810512D01*
X836772Y810626D01*
X837004Y810766D01*
X837184Y810931D01*
X837312Y811122D01*
X837389Y811337D01*
X837415Y811579D01*
Y806499D01*
D02*
G37*
G36*
X760380Y807418D02*
X759848Y806869D01*
X759018Y805898D01*
X758719Y805475D01*
X758498Y805095D01*
X758354Y804757D01*
X758288Y804461D01*
X758299Y804207D01*
X758387Y803996D01*
X758553Y803826D01*
X754423Y806819D01*
X754643Y806703D01*
X754894Y806654D01*
X755176Y806672D01*
X755489Y806755D01*
X755832Y806905D01*
X756207Y807120D01*
X756613Y807402D01*
X757049Y807750D01*
X758015Y808645D01*
X760380Y807418D01*
D02*
G37*
G36*
X791826Y801099D02*
X791671Y801279D01*
X791470Y801379D01*
X791224Y801398D01*
X790933Y801336D01*
X790597Y801194D01*
X790215Y800971D01*
X789788Y800667D01*
X789315Y800283D01*
X788234Y799272D01*
X787328Y801959D01*
X787795Y802443D01*
X788538Y803328D01*
X788815Y803728D01*
X789029Y804101D01*
X789181Y804447D01*
X789269Y804764D01*
X789294Y805054D01*
X789256Y805317D01*
X789155Y805551D01*
X791826Y801099D01*
D02*
G37*
G36*
X744891Y808066D02*
X745927Y807171D01*
X746365Y806856D01*
X746751Y806629D01*
X747084Y806491D01*
X747364Y806441D01*
X747590Y806478D01*
X747765Y806604D01*
X747886Y806819D01*
X745975Y801606D01*
X746042Y801875D01*
X746054Y802163D01*
X746010Y802472D01*
X745910Y802801D01*
X745755Y803150D01*
X745545Y803519D01*
X745279Y803909D01*
X744958Y804318D01*
X744581Y804748D01*
X744148Y805198D01*
X744294Y808645D01*
X744891Y808066D01*
D02*
G37*
G36*
X681157Y803821D02*
X681195Y803384D01*
X681258Y802998D01*
X681347Y802664D01*
X681462Y802381D01*
X681601Y802150D01*
X681766Y801970D01*
X681957Y801842D01*
X682173Y801764D01*
X682414Y801739D01*
X677334D01*
X677575Y801764D01*
X677791Y801842D01*
X677982Y801970D01*
X678147Y802150D01*
X678287Y802381D01*
X678401Y802664D01*
X678490Y802998D01*
X678553Y803384D01*
X678591Y803821D01*
X678604Y804309D01*
X681144D01*
X681157Y803821D01*
D02*
G37*
G36*
X891366Y862606D02*
X891225Y862421D01*
X891101Y862221D01*
X890993Y862006D01*
X890902Y861776D01*
X890827Y861531D01*
X890769Y861271D01*
X890727Y860996D01*
X890704Y860718D01*
X890707Y860590D01*
X890745Y860153D01*
X890808Y859767D01*
X890897Y859433D01*
X891012Y859150D01*
X891151Y858919D01*
X891316Y858739D01*
X891507Y858611D01*
X891723Y858533D01*
X891964Y858508D01*
X886884D01*
X887125Y858533D01*
X887341Y858611D01*
X887532Y858739D01*
X887697Y858919D01*
X887837Y859150D01*
X887951Y859433D01*
X888040Y859767D01*
X888103Y860153D01*
X888141Y860590D01*
X888145Y860718D01*
X888121Y860996D01*
X888079Y861271D01*
X888021Y861531D01*
X887947Y861776D01*
X887855Y862006D01*
X887747Y862221D01*
X887623Y862421D01*
X887482Y862606D01*
X887324Y862776D01*
X891524D01*
X891366Y862606D01*
D02*
G37*
G36*
X731703Y863684D02*
X731487Y863607D01*
X731296Y863478D01*
X731131Y863298D01*
X730992Y863067D01*
X730877Y862784D01*
X730788Y862450D01*
X730725Y862065D01*
X730687Y861628D01*
X730674Y861139D01*
X728134D01*
X728121Y861628D01*
X728083Y862065D01*
X728020Y862450D01*
X727931Y862784D01*
X727817Y863067D01*
X727677Y863298D01*
X727512Y863478D01*
X727321Y863607D01*
X727105Y863684D01*
X726864Y863710D01*
X731944D01*
X731703Y863684D01*
D02*
G37*
G36*
X826393Y867197D02*
X826424Y866966D01*
X826477Y866737D01*
X826553Y866508D01*
X826651Y866281D01*
X826772Y866055D01*
X826915Y865830D01*
X827080Y865606D01*
X827267Y865384D01*
X827477Y865162D01*
X825681Y863366D01*
X825459Y863576D01*
X825237Y863763D01*
X825013Y863928D01*
X824788Y864071D01*
X824562Y864192D01*
X824335Y864290D01*
X824106Y864365D01*
X823877Y864419D01*
X823646Y864450D01*
X823414Y864459D01*
X826384Y867429D01*
X826393Y867197D01*
D02*
G37*
G36*
X797997Y860590D02*
X798035Y860153D01*
X798098Y859767D01*
X798187Y859433D01*
X798302Y859150D01*
X798441Y858919D01*
X798606Y858739D01*
X798797Y858611D01*
X799013Y858533D01*
X799254Y858508D01*
X794174D01*
X794415Y858533D01*
X794631Y858611D01*
X794822Y858739D01*
X794987Y858919D01*
X795127Y859150D01*
X795241Y859433D01*
X795330Y859767D01*
X795393Y860153D01*
X795431Y860590D01*
X795444Y861078D01*
X797984D01*
X797997Y860590D01*
D02*
G37*
G36*
X817857D02*
X817895Y860153D01*
X817958Y859767D01*
X818047Y859433D01*
X818162Y859150D01*
X818301Y858919D01*
X818466Y858739D01*
X818657Y858611D01*
X818873Y858533D01*
X819114Y858508D01*
X814034D01*
X814275Y858533D01*
X814491Y858611D01*
X814682Y858739D01*
X814847Y858919D01*
X814987Y859150D01*
X815101Y859433D01*
X815190Y859767D01*
X815253Y860153D01*
X815291Y860590D01*
X815304Y861078D01*
X817844D01*
X817857Y860590D01*
D02*
G37*
G36*
X864419Y859987D02*
X864783Y859677D01*
X865145Y859403D01*
X865506Y859165D01*
X865866Y858964D01*
X866225Y858800D01*
X866582Y858672D01*
X866938Y858581D01*
X867293Y858526D01*
X867647Y858508D01*
X860462D01*
X860791Y858526D01*
X861047Y858581D01*
X861230Y858672D01*
X861339Y858800D01*
X861376Y858964D01*
X861339Y859165D01*
X861230Y859403D01*
X861047Y859677D01*
X860791Y859987D01*
X860462Y860334D01*
X864055D01*
X864419Y859987D01*
D02*
G37*
G36*
X706255Y868487D02*
X706332Y868271D01*
X706460Y868081D01*
X706640Y867916D01*
X706872Y867776D01*
X707154Y867662D01*
X707489Y867573D01*
X707874Y867510D01*
X708311Y867471D01*
X708800Y867459D01*
Y864919D01*
X708311Y864906D01*
X707874Y864868D01*
X707489Y864804D01*
X707154Y864715D01*
X706872Y864601D01*
X706640Y864462D01*
X706460Y864296D01*
X706332Y864106D01*
X706255Y863890D01*
X706229Y863649D01*
Y868729D01*
X706255Y868487D01*
D02*
G37*
G36*
X1260072Y865839D02*
X1259972Y866789D01*
X1259671Y867639D01*
X1259169Y868389D01*
X1258467Y869039D01*
X1257564Y869589D01*
X1256461Y870039D01*
X1255157Y870389D01*
X1253653Y870639D01*
X1251947Y870789D01*
X1250042Y870839D01*
Y880839D01*
X1251947Y880889D01*
X1253653Y881039D01*
X1255157Y881289D01*
X1256461Y881639D01*
X1257564Y882089D01*
X1258467Y882639D01*
X1259169Y883289D01*
X1259671Y884039D01*
X1259972Y884889D01*
X1260072Y885839D01*
Y865839D01*
D02*
G37*
G36*
X1215741Y869848D02*
X1215690Y869856D01*
X1215538Y869864D01*
X1210668Y869891D01*
Y879891D01*
X1215741Y879933D01*
Y869848D01*
D02*
G37*
G36*
X878370Y874837D02*
X878446Y874622D01*
X878573Y874431D01*
X878751Y874266D01*
X878980Y874126D01*
X879259Y874012D01*
X879589Y873923D01*
X879970Y873859D01*
X880402Y873821D01*
X880885Y873809D01*
Y871269D01*
X880402Y871256D01*
X879970Y871218D01*
X879589Y871154D01*
X879259Y871066D01*
X878980Y870951D01*
X878751Y870811D01*
X878573Y870646D01*
X878446Y870456D01*
X878370Y870240D01*
X878345Y869999D01*
Y875079D01*
X878370Y874837D01*
D02*
G37*
G36*
X848890Y868039D02*
X848764Y867865D01*
X848726Y867638D01*
X848776Y867358D01*
X848915Y867026D01*
X849141Y866640D01*
X849456Y866201D01*
X849860Y865710D01*
X850931Y864568D01*
X847484Y864423D01*
X847034Y864855D01*
X846194Y865554D01*
X845805Y865819D01*
X845435Y866030D01*
X845086Y866185D01*
X844757Y866284D01*
X844449Y866328D01*
X844160Y866317D01*
X843892Y866250D01*
X849104Y868160D01*
X848890Y868039D01*
D02*
G37*
G36*
X887349Y868802D02*
X887572Y868614D01*
X887795Y868449D01*
X888020Y868306D01*
X888246Y868186D01*
X888474Y868088D01*
X888702Y868012D01*
X888932Y867959D01*
X889162Y867927D01*
X889394Y867918D01*
X886424Y864949D01*
X886415Y865181D01*
X886384Y865411D01*
X886331Y865641D01*
X886255Y865869D01*
X886157Y866096D01*
X886036Y866322D01*
X885894Y866547D01*
X885729Y866771D01*
X885541Y866994D01*
X885331Y867215D01*
X887128Y869011D01*
X887349Y868802D01*
D02*
G37*
G36*
X1230719Y884889D02*
X1231020Y884039D01*
X1231522Y883289D01*
X1232224Y882639D01*
X1233127Y882089D01*
X1234230Y881639D01*
X1235534Y881289D01*
X1237039Y881039D01*
X1238744Y880889D01*
X1240650Y880839D01*
Y870839D01*
X1238744Y870789D01*
X1237039Y870639D01*
X1235534Y870389D01*
X1234230Y870039D01*
X1233127Y869589D01*
X1232224Y869039D01*
X1231522Y868389D01*
X1231020Y867639D01*
X1230719Y866789D01*
X1230619Y865839D01*
Y885839D01*
X1230719Y884889D01*
D02*
G37*
G36*
X772973Y860763D02*
X772757Y860686D01*
X772566Y860557D01*
X772401Y860377D01*
X772262Y860146D01*
X772147Y859863D01*
X772058Y859529D01*
X771995Y859144D01*
X771957Y858707D01*
X771944Y858218D01*
X769404D01*
X769391Y858707D01*
X769353Y859144D01*
X769290Y859529D01*
X769201Y859863D01*
X769087Y860146D01*
X768947Y860377D01*
X768782Y860557D01*
X768591Y860686D01*
X768375Y860763D01*
X768134Y860789D01*
X773214D01*
X772973Y860763D01*
D02*
G37*
G36*
X745945Y837898D02*
X745725Y837893D01*
X745518Y837876D01*
X745322Y837849D01*
X745137Y837811D01*
X744964Y837761D01*
X744802Y837701D01*
X744653Y837630D01*
X744514Y837548D01*
X744387Y837455D01*
X744272Y837351D01*
X744148Y840819D01*
X744494Y841182D01*
X744803Y841545D01*
X745077Y841906D01*
X745313Y842267D01*
X745514Y842626D01*
X745679Y842985D01*
X745807Y843343D01*
X745899Y843700D01*
X745955Y844056D01*
X745975Y844411D01*
X745945Y837898D01*
D02*
G37*
G36*
X706509Y843087D02*
X706586Y842871D01*
X706714Y842681D01*
X706894Y842516D01*
X707126Y842376D01*
X707409Y842262D01*
X707743Y842173D01*
X708128Y842110D01*
X708565Y842071D01*
X709054Y842059D01*
Y839519D01*
X708565Y839506D01*
X708128Y839468D01*
X707743Y839404D01*
X707409Y839315D01*
X707126Y839201D01*
X706894Y839062D01*
X706714Y838896D01*
X706586Y838706D01*
X706509Y838490D01*
X706483Y838249D01*
Y843329D01*
X706509Y843087D01*
D02*
G37*
G36*
X634129Y843629D02*
X633052Y843621D01*
X631119Y843490D01*
X630264Y843367D01*
X629484Y843205D01*
X628777Y843005D01*
X628145Y842767D01*
X627587Y842490D01*
X627103Y842175D01*
X626693Y841822D01*
X624897Y843618D01*
X625251Y844028D01*
X625566Y844512D01*
X625842Y845070D01*
X626081Y845702D01*
X626281Y846408D01*
X626442Y847189D01*
X626565Y848044D01*
X626697Y849976D01*
X626704Y851054D01*
X634129Y843629D01*
D02*
G37*
G36*
X753547Y833031D02*
X753585Y832594D01*
X753648Y832208D01*
X753737Y831874D01*
X753852Y831591D01*
X753991Y831360D01*
X754156Y831180D01*
X754347Y831052D01*
X754563Y830974D01*
X754804Y830949D01*
X749724D01*
X749965Y830974D01*
X750181Y831052D01*
X750372Y831180D01*
X750537Y831360D01*
X750677Y831591D01*
X750791Y831874D01*
X750880Y832208D01*
X750943Y832594D01*
X750981Y833031D01*
X750994Y833519D01*
X753534D01*
X753547Y833031D01*
D02*
G37*
G36*
X833194Y833286D02*
X833382Y833243D01*
X833657Y833202D01*
X833947Y833177D01*
X834252Y833169D01*
Y830629D01*
X833947Y830620D01*
X833657Y830595D01*
X833382Y830554D01*
X833194Y830512D01*
Y829359D01*
X833168Y829600D01*
X833092Y829816D01*
X832965Y830006D01*
X832787Y830172D01*
X832582Y830297D01*
X832432Y830222D01*
X832232Y830098D01*
X832047Y829956D01*
X831877Y829799D01*
Y830527D01*
X831568Y830578D01*
X831136Y830616D01*
X830654Y830629D01*
Y833169D01*
X831136Y833181D01*
X831568Y833220D01*
X831877Y833271D01*
Y833999D01*
X832047Y833841D01*
X832232Y833700D01*
X832432Y833575D01*
X832582Y833500D01*
X832787Y833626D01*
X832965Y833791D01*
X833092Y833981D01*
X833168Y834197D01*
X833194Y834439D01*
Y833286D01*
D02*
G37*
G36*
X754563Y837873D02*
X754347Y837797D01*
X754156Y837670D01*
X753991Y837492D01*
X753852Y837263D01*
X753737Y836984D01*
X753648Y836654D01*
X753585Y836273D01*
X753547Y835841D01*
X753534Y835358D01*
X750994D01*
X750981Y835841D01*
X750943Y836273D01*
X750880Y836654D01*
X750791Y836984D01*
X750677Y837263D01*
X750537Y837492D01*
X750372Y837670D01*
X750181Y837797D01*
X749965Y837873D01*
X749724Y837898D01*
X754804D01*
X754563Y837873D01*
D02*
G37*
G36*
X721464Y844466D02*
X721446Y844795D01*
X721391Y845051D01*
X721300Y845233D01*
X721172Y845343D01*
X721007Y845379D01*
X720807Y845343D01*
X720569Y845233D01*
X720295Y845051D01*
X719985Y844795D01*
X719638Y844466D01*
X718739Y847160D01*
X719257Y847695D01*
X720129Y848709D01*
X720483Y849186D01*
X720783Y849645D01*
X721028Y850084D01*
X721219Y850505D01*
X721355Y850906D01*
X721437Y851288D01*
X721464Y851650D01*
Y844466D01*
D02*
G37*
G36*
X771957Y855891D02*
X771995Y855454D01*
X772058Y855068D01*
X772147Y854734D01*
X772262Y854451D01*
X772401Y854220D01*
X772566Y854040D01*
X772757Y853912D01*
X772973Y853834D01*
X773214Y853809D01*
X768134D01*
X768375Y853834D01*
X768591Y853912D01*
X768782Y854040D01*
X768947Y854220D01*
X769087Y854451D01*
X769201Y854734D01*
X769290Y855068D01*
X769353Y855454D01*
X769391Y855891D01*
X769404Y856379D01*
X771944D01*
X771957Y855891D01*
D02*
G37*
G36*
X832865Y859791D02*
X833853Y858948D01*
X834279Y858647D01*
X834661Y858427D01*
X834998Y858288D01*
X835290Y858229D01*
X835537Y858252D01*
X835739Y858354D01*
X835897Y858538D01*
X833194Y854057D01*
X833297Y854295D01*
X833338Y854559D01*
X833316Y854851D01*
X833231Y855170D01*
X833083Y855515D01*
X832871Y855888D01*
X832597Y856288D01*
X832260Y856714D01*
X831860Y857168D01*
X831397Y857649D01*
X832305Y860334D01*
X832865Y859791D01*
D02*
G37*
G36*
X730687Y856780D02*
X730725Y856343D01*
X730788Y855957D01*
X730877Y855623D01*
X730992Y855340D01*
X731131Y855109D01*
X731296Y854929D01*
X731487Y854801D01*
X731703Y854724D01*
X731944Y854698D01*
X726864D01*
X727105Y854724D01*
X727321Y854801D01*
X727512Y854929D01*
X727677Y855109D01*
X727817Y855340D01*
X727931Y855623D01*
X728020Y855957D01*
X728083Y856343D01*
X728121Y856780D01*
X728134Y857268D01*
X730674D01*
X730687Y856780D01*
D02*
G37*
G36*
X1258740Y985315D02*
Y956105D01*
Y945945D01*
X1254930Y942135D01*
X1248580Y935785D01*
Y924355D01*
Y911655D01*
X1257470Y902765D01*
X1296840D01*
X1298110Y901495D01*
X1307000Y892605D01*
X1347640D01*
X1348910Y891335D01*
X1351450Y888795D01*
Y864665D01*
Y850695D01*
X1350180Y849425D01*
X1347640Y846885D01*
X1309540D01*
X1305730Y850695D01*
Y877365D01*
X1300650Y882445D01*
X1287950Y895145D01*
X1219370D01*
X1211750Y902765D01*
X1192700Y921815D01*
X1166030D01*
X1164760Y923085D01*
Y934515D01*
Y943405D01*
X1160950Y947215D01*
X1158410Y949755D01*
X1141900D01*
X1139360Y952295D01*
Y963725D01*
Y980235D01*
X1140630Y981505D01*
X1144440Y985315D01*
X1160950D01*
X1163490Y987855D01*
X1256200D01*
X1258740Y985315D01*
D02*
G37*
G36*
X687990Y848378D02*
X687557Y847928D01*
X686859Y847089D01*
X686593Y846699D01*
X686383Y846330D01*
X686228Y845981D01*
X686129Y845652D01*
X686085Y845343D01*
X686096Y845055D01*
X686163Y844786D01*
X684252Y849999D01*
X684374Y849784D01*
X684548Y849658D01*
X684775Y849621D01*
X685055Y849671D01*
X685387Y849809D01*
X685773Y850036D01*
X686212Y850351D01*
X686703Y850754D01*
X687845Y851825D01*
X687990Y848378D01*
D02*
G37*
G36*
X714134Y854299D02*
X713902Y854290D01*
X713671Y854259D01*
X713442Y854205D01*
X713214Y854130D01*
X712986Y854032D01*
X712760Y853911D01*
X712535Y853768D01*
X712312Y853603D01*
X712089Y853416D01*
X711868Y853206D01*
X710071Y855002D01*
X710281Y855223D01*
X710469Y855446D01*
X710634Y855670D01*
X710776Y855895D01*
X710897Y856121D01*
X710995Y856348D01*
X711071Y856577D01*
X711124Y856806D01*
X711155Y857037D01*
X711164Y857269D01*
X714134Y854299D01*
D02*
G37*
G36*
X696064Y1139239D02*
X696038Y1139480D01*
X695961Y1139696D01*
X695833Y1139886D01*
X695653Y1140051D01*
X695421Y1140191D01*
X695139Y1140305D01*
X694805Y1140394D01*
X694419Y1140458D01*
X693982Y1140496D01*
X693494Y1140509D01*
Y1143049D01*
X693982Y1143061D01*
X694419Y1143100D01*
X694805Y1143163D01*
X695139Y1143252D01*
X695421Y1143366D01*
X695653Y1143506D01*
X695833Y1143671D01*
X695961Y1143861D01*
X696038Y1144077D01*
X696064Y1144319D01*
Y1139239D01*
D02*
G37*
G36*
X1388253Y1155298D02*
X1388029Y1154998D01*
X1387831Y1154498D01*
X1387659Y1153798D01*
X1387514Y1152898D01*
X1387303Y1150498D01*
X1387197Y1147298D01*
X1387184Y1145398D01*
X1377184D01*
X1377171Y1147298D01*
X1376709Y1153798D01*
X1376538Y1154498D01*
X1376340Y1154998D01*
X1376115Y1155298D01*
X1375865Y1155398D01*
X1388504D01*
X1388253Y1155298D01*
D02*
G37*
G36*
X632603Y1150949D02*
X632711Y1149710D01*
X632805Y1149207D01*
X632925Y1148782D01*
X633073Y1148433D01*
X633247Y1148162D01*
X633448Y1147969D01*
X633676Y1147852D01*
X633931Y1147814D01*
X626250D01*
X626504Y1147852D01*
X626732Y1147969D01*
X626933Y1148162D01*
X627108Y1148433D01*
X627255Y1148782D01*
X627376Y1149207D01*
X627469Y1149710D01*
X627537Y1150291D01*
X627577Y1150949D01*
X627590Y1151685D01*
X632590D01*
X632603Y1150949D01*
D02*
G37*
G36*
X951555Y1131033D02*
X951705Y1129327D01*
X951955Y1127823D01*
X952305Y1126519D01*
X952755Y1125415D01*
X953305Y1124513D01*
X953955Y1123811D01*
X954705Y1123309D01*
X955555Y1123008D01*
X956505Y1122908D01*
X936505D01*
X937455Y1123008D01*
X938305Y1123309D01*
X939055Y1123811D01*
X939705Y1124513D01*
X940255Y1125415D01*
X940705Y1126519D01*
X941055Y1127823D01*
X941305Y1129327D01*
X941455Y1131033D01*
X941505Y1132938D01*
X951505D01*
X951555Y1131033D01*
D02*
G37*
G36*
X1169394Y1142570D02*
X1171196Y1141035D01*
X1171718Y1140674D01*
X1172200Y1140388D01*
X1172643Y1140177D01*
X1173046Y1140042D01*
X1173410Y1139981D01*
X1173734Y1139996D01*
X1166770Y1130347D01*
X1166711Y1130536D01*
X1166583Y1130781D01*
X1166386Y1131080D01*
X1166121Y1131435D01*
X1165384Y1132310D01*
X1163761Y1134036D01*
X1163083Y1134721D01*
X1168714Y1143232D01*
X1169394Y1142570D01*
D02*
G37*
G36*
X686600Y1144077D02*
X686676Y1143861D01*
X686803Y1143671D01*
X686981Y1143506D01*
X687210Y1143366D01*
X687489Y1143252D01*
X687819Y1143163D01*
X688200Y1143100D01*
X688632Y1143061D01*
X689115Y1143049D01*
Y1140509D01*
X688632Y1140496D01*
X688200Y1140458D01*
X687819Y1140394D01*
X687489Y1140305D01*
X687210Y1140191D01*
X686981Y1140051D01*
X686803Y1139886D01*
X686676Y1139696D01*
X686600Y1139480D01*
X686575Y1139239D01*
Y1144319D01*
X686600Y1144077D01*
D02*
G37*
G36*
X657602Y1149640D02*
X657273Y1149293D01*
X657017Y1148983D01*
X656835Y1148709D01*
X656725Y1148471D01*
X656689Y1148270D01*
X656725Y1148106D01*
X656835Y1147978D01*
X657017Y1147887D01*
X657273Y1147832D01*
X657602Y1147814D01*
X650418D01*
X650780Y1147841D01*
X651162Y1147923D01*
X651563Y1148059D01*
X651983Y1148250D01*
X652423Y1148495D01*
X652881Y1148795D01*
X653359Y1149149D01*
X654372Y1150021D01*
X654908Y1150538D01*
X657602Y1149640D01*
D02*
G37*
G36*
X1261838Y1187523D02*
X1261949Y1186215D01*
X1262232Y1184876D01*
X1262685Y1183508D01*
X1263310Y1182108D01*
X1264105Y1180679D01*
X1265072Y1179219D01*
X1266210Y1177730D01*
X1267519Y1176209D01*
X1268999Y1174659D01*
X1268820Y1160696D01*
X1267082Y1162363D01*
X1264110Y1164770D01*
X1262875Y1165510D01*
X1261807Y1165942D01*
X1260908Y1166064D01*
X1260175Y1165878D01*
X1259611Y1165382D01*
X1259213Y1164578D01*
X1258984Y1163465D01*
X1261897Y1188801D01*
X1261838Y1187523D01*
D02*
G37*
G36*
X606330Y1172720D02*
X606481Y1172295D01*
X606733Y1171920D01*
X607085Y1171595D01*
X607538Y1171320D01*
X608091Y1171095D01*
X608745Y1170920D01*
X609500Y1170795D01*
X610355Y1170720D01*
X611311Y1170695D01*
Y1165695D01*
X610355Y1165670D01*
X609500Y1165595D01*
X608745Y1165470D01*
X608091Y1165295D01*
X607538Y1165070D01*
X607085Y1164795D01*
X606733Y1164470D01*
X606481Y1164095D01*
X606330Y1163670D01*
X606280Y1163195D01*
Y1173195D01*
X606330Y1172720D01*
D02*
G37*
G36*
X1191468Y1183849D02*
X1191769Y1182999D01*
X1192271Y1182249D01*
X1192973Y1181599D01*
X1193876Y1181049D01*
X1194979Y1180599D01*
X1196283Y1180249D01*
X1197788Y1179999D01*
X1199493Y1179849D01*
X1201399Y1179799D01*
Y1169799D01*
X1199493Y1169749D01*
X1197788Y1169599D01*
X1196283Y1169349D01*
X1194979Y1168999D01*
X1193876Y1168549D01*
X1192973Y1167999D01*
X1192271Y1167349D01*
X1191769Y1166599D01*
X1191468Y1165749D01*
X1191368Y1164799D01*
Y1184799D01*
X1191468Y1183849D01*
D02*
G37*
G36*
X685351Y1150156D02*
X685388Y1149724D01*
X685450Y1149343D01*
X685537Y1149013D01*
X685648Y1148733D01*
X685784Y1148505D01*
X685945Y1148327D01*
X686130Y1148200D01*
X686340Y1148124D01*
X686575Y1148098D01*
X681529Y1148068D01*
X681770Y1148095D01*
X681986Y1148173D01*
X682177Y1148302D01*
X682342Y1148483D01*
X682482Y1148714D01*
X682596Y1148997D01*
X682685Y1149331D01*
X682748Y1149715D01*
X682786Y1150151D01*
X682799Y1150638D01*
X685339D01*
X685351Y1150156D01*
D02*
G37*
G36*
X602865Y1161855D02*
X602440Y1161704D01*
X602065Y1161453D01*
X601740Y1161101D01*
X601465Y1160648D01*
X601240Y1160095D01*
X601065Y1159441D01*
X600940Y1158686D01*
X600865Y1157831D01*
X600840Y1156875D01*
X595840D01*
X595815Y1157831D01*
X595740Y1158686D01*
X595615Y1159441D01*
X595440Y1160095D01*
X595215Y1160648D01*
X594940Y1161101D01*
X594615Y1161453D01*
X594240Y1161704D01*
X593815Y1161855D01*
X593340Y1161906D01*
X603340D01*
X602865Y1161855D01*
D02*
G37*
G36*
X686368Y1160250D02*
X686152Y1160173D01*
X685961Y1160044D01*
X685796Y1159864D01*
X685657Y1159633D01*
X685542Y1159350D01*
X685453Y1159016D01*
X685390Y1158631D01*
X685352Y1158194D01*
X685339Y1157705D01*
X682799D01*
X682786Y1158194D01*
X682748Y1158631D01*
X682685Y1159016D01*
X682596Y1159350D01*
X682482Y1159633D01*
X682342Y1159864D01*
X682177Y1160044D01*
X681986Y1160173D01*
X681770Y1160250D01*
X681529Y1160276D01*
X686609D01*
X686368Y1160250D01*
D02*
G37*
G36*
X646280Y1118665D02*
X646254Y1118906D01*
X646177Y1119122D01*
X646049Y1119312D01*
X645869Y1119477D01*
X645637Y1119617D01*
X645355Y1119732D01*
X645021Y1119820D01*
X644635Y1119884D01*
X644198Y1119922D01*
X643710Y1119935D01*
Y1122475D01*
X644198Y1122487D01*
X644635Y1122525D01*
X645021Y1122589D01*
X645355Y1122678D01*
X645637Y1122792D01*
X645869Y1122932D01*
X646049Y1123097D01*
X646177Y1123288D01*
X646254Y1123503D01*
X646280Y1123745D01*
Y1118665D01*
D02*
G37*
G36*
X1041562Y1025892D02*
X1041536Y1026133D01*
X1041459Y1026349D01*
X1041331Y1026539D01*
X1041151Y1026704D01*
X1040919Y1026844D01*
X1040637Y1026958D01*
X1040303Y1027047D01*
X1039917Y1027111D01*
X1039480Y1027149D01*
X1038992Y1027162D01*
Y1029702D01*
X1039480Y1029714D01*
X1039917Y1029753D01*
X1040303Y1029816D01*
X1040637Y1029905D01*
X1040919Y1030019D01*
X1041151Y1030159D01*
X1041331Y1030324D01*
X1041459Y1030515D01*
X1041536Y1030730D01*
X1041562Y1030972D01*
Y1025892D01*
D02*
G37*
G36*
X1246983Y1031714D02*
X1247242Y1027964D01*
X1247338Y1027560D01*
X1247449Y1027272D01*
X1247575Y1027098D01*
X1247716Y1027041D01*
X1236237D01*
X1236377Y1027098D01*
X1236503Y1027272D01*
X1236614Y1027560D01*
X1236710Y1027964D01*
X1236791Y1028483D01*
X1236909Y1029868D01*
X1236969Y1031714D01*
X1236976Y1032811D01*
X1246976D01*
X1246983Y1031714D01*
D02*
G37*
G36*
X1326233Y1042996D02*
X1324889Y1041600D01*
X1322626Y1038918D01*
X1321707Y1037632D01*
X1321623Y1037497D01*
X1322681Y1036168D01*
X1324324Y1034314D01*
X1326233Y1032335D01*
X1320813Y1023613D01*
X1318685Y1025670D01*
X1314906Y1028886D01*
X1313254Y1030045D01*
X1311760Y1030905D01*
X1310425Y1031466D01*
X1309249Y1031727D01*
X1308231Y1031689D01*
X1307372Y1031351D01*
X1306671Y1030715D01*
X1313463Y1039308D01*
X1308649Y1046595D01*
X1309294Y1045903D01*
X1310111Y1045522D01*
X1311098Y1045453D01*
X1312256Y1045696D01*
X1313585Y1046250D01*
X1315084Y1047116D01*
X1316755Y1048294D01*
X1318596Y1049783D01*
X1322791Y1053696D01*
X1326233Y1042996D01*
D02*
G37*
G36*
X950534Y1022774D02*
X950449Y1022543D01*
X950449Y1022542D01*
X950960D01*
X950802Y1022372D01*
X950661Y1022187D01*
X950537Y1021987D01*
X950429Y1021772D01*
X950338Y1021542D01*
X950263Y1021297D01*
X950261Y1021286D01*
X950210Y1020739D01*
X950161Y1019263D01*
X950181Y1019041D01*
X950244Y1018660D01*
X950333Y1018330D01*
X950448Y1018050D01*
X950587Y1017822D01*
X950752Y1017644D01*
X950943Y1017517D01*
X951159Y1017441D01*
X951400Y1017415D01*
X946320D01*
X946561Y1017441D01*
X946777Y1017517D01*
X946968Y1017644D01*
X947133Y1017822D01*
X947273Y1018050D01*
X947387Y1018330D01*
X947476Y1018660D01*
X947539Y1019041D01*
X947545Y1019101D01*
X947391Y1021515D01*
X947383Y1021542D01*
X947291Y1021772D01*
X947183Y1021987D01*
X947059Y1022187D01*
X946918Y1022372D01*
X946760Y1022542D01*
X947271D01*
X947271Y1022543D01*
X947186Y1022774D01*
X947091Y1022918D01*
X950629D01*
X950534Y1022774D01*
D02*
G37*
G36*
X818111Y1019605D02*
X818085Y1019846D01*
X818008Y1020062D01*
X817880Y1020252D01*
X817700Y1020417D01*
X817468Y1020557D01*
X817186Y1020671D01*
X816852Y1020760D01*
X816615Y1020799D01*
X816358Y1020742D01*
X816113Y1020667D01*
X815883Y1020576D01*
X815668Y1020468D01*
X815468Y1020343D01*
X815283Y1020202D01*
X815113Y1020045D01*
Y1024245D01*
X815283Y1024087D01*
X815468Y1023946D01*
X815668Y1023821D01*
X815883Y1023714D01*
X816113Y1023622D01*
X816358Y1023548D01*
X816615Y1023490D01*
X816852Y1023529D01*
X817186Y1023618D01*
X817468Y1023732D01*
X817700Y1023872D01*
X817880Y1024037D01*
X818008Y1024228D01*
X818085Y1024443D01*
X818111Y1024685D01*
Y1019605D01*
D02*
G37*
G36*
X1001466Y1030730D02*
X1001543Y1030515D01*
X1001672Y1030324D01*
X1001851Y1030159D01*
X1002083Y1030019D01*
X1002365Y1029905D01*
X1002700Y1029816D01*
X1003085Y1029753D01*
X1003522Y1029714D01*
X1004011Y1029702D01*
Y1027162D01*
X1003522Y1027149D01*
X1003085Y1027111D01*
X1002700Y1027047D01*
X1002365Y1026958D01*
X1002083Y1026844D01*
X1001851Y1026704D01*
X1001672Y1026539D01*
X1001543Y1026349D01*
X1001466Y1026133D01*
X1001440Y1025892D01*
Y1030972D01*
X1001466Y1030730D01*
D02*
G37*
G36*
X1027243Y1131033D02*
X1027393Y1129327D01*
X1027555Y1128355D01*
X1046520D01*
X1051520Y1123355D01*
Y1108355D01*
Y1058355D01*
X1046520Y1053355D01*
X971520D01*
X966520Y1058355D01*
Y1063355D01*
Y1083355D01*
X976520Y1093355D01*
X991520Y1108355D01*
Y1123355D01*
X996520Y1128355D01*
X1016832D01*
X1016993Y1129327D01*
X1017143Y1131033D01*
X1017193Y1132938D01*
X1027193D01*
X1027243Y1131033D01*
D02*
G37*
G36*
X706303Y1115144D02*
X706087Y1115067D01*
X705896Y1114938D01*
X705731Y1114758D01*
X705592Y1114527D01*
X705477Y1114244D01*
X705388Y1113910D01*
X705325Y1113525D01*
X705287Y1113088D01*
X705274Y1112599D01*
X702734D01*
X702721Y1113088D01*
X702683Y1113525D01*
X702620Y1113910D01*
X702531Y1114244D01*
X702417Y1114527D01*
X702277Y1114758D01*
X702112Y1114938D01*
X701921Y1115067D01*
X701705Y1115144D01*
X701464Y1115170D01*
X706544D01*
X706303Y1115144D01*
D02*
G37*
G36*
X1173839Y1121741D02*
X1174065Y1118800D01*
X1174201Y1118081D01*
X1174366Y1117493D01*
X1174562Y1117035D01*
X1174788Y1116708D01*
X1175043Y1116512D01*
X1175330Y1116447D01*
X1162319D01*
X1162605Y1116512D01*
X1162861Y1116708D01*
X1163086Y1117035D01*
X1163282Y1117493D01*
X1163448Y1118081D01*
X1163583Y1118800D01*
X1163689Y1119649D01*
X1163809Y1121741D01*
X1163824Y1122983D01*
X1173824D01*
X1173839Y1121741D01*
D02*
G37*
G36*
X638086Y1123503D02*
X638162Y1123288D01*
X638289Y1123097D01*
X638467Y1122932D01*
X638696Y1122792D01*
X638975Y1122678D01*
X639305Y1122589D01*
X639686Y1122525D01*
X640118Y1122487D01*
X640601Y1122475D01*
Y1119935D01*
X640118Y1119922D01*
X639686Y1119884D01*
X639305Y1119820D01*
X638975Y1119732D01*
X638696Y1119617D01*
X638467Y1119477D01*
X638289Y1119312D01*
X638162Y1119122D01*
X638086Y1118906D01*
X638061Y1118665D01*
Y1123745D01*
X638086Y1123503D01*
D02*
G37*
G36*
X1182548Y1067848D02*
X1182759Y1067253D01*
X1183111Y1066728D01*
X1183603Y1066273D01*
X1184236Y1065888D01*
X1185009Y1065573D01*
X1185923Y1065328D01*
X1186978Y1065153D01*
X1188173Y1065048D01*
X1189509Y1065013D01*
Y1058013D01*
X1188173Y1057978D01*
X1186978Y1057873D01*
X1185923Y1057698D01*
X1185009Y1057453D01*
X1184236Y1057138D01*
X1183603Y1056753D01*
X1183111Y1056298D01*
X1182759Y1055773D01*
X1182548Y1055178D01*
X1182478Y1054513D01*
Y1068513D01*
X1182548Y1067848D01*
D02*
G37*
G36*
X1261304Y1074276D02*
X1260563Y1074469D01*
X1259766Y1074509D01*
X1258914Y1074395D01*
X1258007Y1074127D01*
X1257045Y1073706D01*
X1256027Y1073131D01*
X1254954Y1072402D01*
X1253826Y1071520D01*
X1252643Y1070485D01*
X1251405Y1069295D01*
X1242003Y1069793D01*
X1243592Y1071431D01*
X1246042Y1074275D01*
X1246903Y1075481D01*
X1247523Y1076543D01*
X1247899Y1077461D01*
X1248034Y1078235D01*
X1247926Y1078865D01*
X1247576Y1079351D01*
X1246983Y1079693D01*
X1261304Y1074276D01*
D02*
G37*
G36*
X1246983Y1088034D02*
X1246918Y1088604D01*
X1246722Y1089114D01*
X1246395Y1089564D01*
X1245938Y1089955D01*
X1245350Y1090285D01*
X1244632Y1090555D01*
X1243783Y1090765D01*
X1242803Y1090915D01*
X1241693Y1091005D01*
X1240452Y1091035D01*
Y1098035D01*
X1241693Y1098065D01*
X1242803Y1098155D01*
X1243783Y1098305D01*
X1244632Y1098515D01*
X1245350Y1098785D01*
X1245938Y1099115D01*
X1246395Y1099505D01*
X1246722Y1099955D01*
X1246918Y1100465D01*
X1246983Y1101035D01*
Y1088034D01*
D02*
G37*
G36*
X692436Y1206414D02*
X692094Y1206055D01*
X691789Y1205696D01*
X691520Y1205337D01*
X691286Y1204977D01*
X691089Y1204618D01*
X690927Y1204259D01*
X690801Y1203900D01*
X690711Y1203540D01*
X690658Y1203181D01*
X690640Y1202822D01*
Y1209164D01*
X690658Y1209001D01*
X690711Y1208893D01*
X690801Y1208839D01*
X690927Y1208841D01*
X691089Y1208898D01*
X691286Y1209009D01*
X691520Y1209176D01*
X691789Y1209398D01*
X692436Y1210006D01*
Y1206414D01*
D02*
G37*
G36*
X1013004Y1215881D02*
X1017252Y1216162D01*
X1017895Y1216318D01*
X1018365Y1216494D01*
X1018660Y1216691D01*
Y1209616D01*
X1018365Y1209813D01*
X1017895Y1209989D01*
X1017252Y1210145D01*
X1016434Y1210280D01*
X1014274Y1210488D01*
X1013004Y1210531D01*
Y1208154D01*
X1012954Y1208629D01*
X1012803Y1209054D01*
X1012551Y1209429D01*
X1012199Y1209754D01*
X1011746Y1210029D01*
X1011193Y1210254D01*
X1010539Y1210429D01*
X1009785Y1210554D01*
X1008929Y1210629D01*
X1008004Y1210653D01*
X1007863Y1210654D01*
Y1215654D01*
X1008004Y1215655D01*
X1008929Y1215679D01*
X1009785Y1215754D01*
X1010539Y1215879D01*
X1011193Y1216054D01*
X1011746Y1216279D01*
X1012199Y1216554D01*
X1012551Y1216879D01*
X1012803Y1217254D01*
X1012954Y1217679D01*
X1013004Y1218154D01*
Y1215881D01*
D02*
G37*
G36*
X1384251Y1221331D02*
X1384427Y1221289D01*
X1384688Y1221251D01*
X1385465Y1221191D01*
X1388038Y1221131D01*
X1388893Y1221129D01*
Y1211129D01*
X1384159Y1210879D01*
Y1221379D01*
X1384251Y1221331D01*
D02*
G37*
G36*
X1384006Y1210681D02*
X1383963Y1210505D01*
X1383926Y1210244D01*
X1383866Y1209467D01*
X1383806Y1206894D01*
X1383803Y1206039D01*
X1373803D01*
X1373553Y1210773D01*
X1384053D01*
X1384006Y1210681D01*
D02*
G37*
G36*
X1031513Y1219344D02*
X1031813Y1219094D01*
X1032313Y1218874D01*
X1033013Y1218683D01*
X1033913Y1218521D01*
X1035013Y1218389D01*
X1037813Y1218213D01*
X1041413Y1218154D01*
Y1208154D01*
X1039513Y1208139D01*
X1033913Y1207786D01*
X1033013Y1207625D01*
X1032313Y1207434D01*
X1031813Y1207213D01*
X1031513Y1206963D01*
X1031413Y1206684D01*
Y1219623D01*
X1031513Y1219344D01*
D02*
G37*
G36*
X1164030Y1212697D02*
X1165176Y1211550D01*
X1164509Y1210869D01*
X1164030Y1210311D01*
Y1208234D01*
X1163959Y1208576D01*
X1163747Y1208732D01*
X1163393Y1208704D01*
X1162898Y1208491D01*
X1162262Y1208093D01*
X1162176Y1208029D01*
X1161983Y1207699D01*
X1161809Y1207323D01*
X1161706Y1206992D01*
X1161674Y1206704D01*
X1161148Y1207230D01*
X1160565Y1206743D01*
X1156958Y1203332D01*
X1153423Y1213939D01*
X1153924Y1214453D01*
X1153259Y1215118D01*
X1153547Y1215151D01*
X1153879Y1215254D01*
X1154254Y1215428D01*
X1154673Y1215672D01*
X1155136Y1215987D01*
X1155642Y1216373D01*
X1156066Y1216737D01*
X1160211Y1221562D01*
X1161378Y1223198D01*
X1162333Y1224727D01*
X1163075Y1226148D01*
X1163605Y1227460D01*
X1163923Y1228666D01*
X1164030Y1229763D01*
Y1212697D01*
D02*
G37*
G36*
X1398847Y1210879D02*
X1398756Y1210926D01*
X1398579Y1210969D01*
X1398318Y1211006D01*
X1397541Y1211066D01*
X1394968Y1211126D01*
X1394113Y1211129D01*
Y1221129D01*
X1398847Y1221379D01*
Y1210879D01*
D02*
G37*
G36*
X677141Y1218964D02*
X677064Y1219468D01*
X676834Y1219918D01*
X676450Y1220316D01*
X675912Y1220660D01*
X675221Y1220952D01*
X674376Y1221191D01*
X673377Y1221376D01*
X672225Y1221509D01*
X670919Y1221588D01*
X669460Y1221615D01*
Y1231615D01*
X670919Y1231641D01*
X673377Y1231853D01*
X674376Y1232039D01*
X675221Y1232277D01*
X675912Y1232569D01*
X676450Y1232913D01*
X676834Y1233311D01*
X677064Y1233762D01*
X677141Y1234265D01*
Y1218964D01*
D02*
G37*
G36*
X934022Y1230776D02*
X934172Y1230351D01*
X934422Y1229976D01*
X934772Y1229651D01*
X935222Y1229376D01*
X935772Y1229151D01*
X936422Y1228976D01*
X937172Y1228851D01*
X938022Y1228776D01*
X938972Y1228751D01*
Y1223751D01*
X938022Y1223726D01*
X937172Y1223651D01*
X936422Y1223526D01*
X935772Y1223351D01*
X935222Y1223126D01*
X934772Y1222851D01*
X934422Y1222526D01*
X934172Y1222151D01*
X934022Y1221726D01*
X933972Y1221251D01*
Y1231251D01*
X934022Y1230776D01*
D02*
G37*
G36*
X892063Y1223711D02*
X892037Y1223952D01*
X891960Y1224168D01*
X891832Y1224358D01*
X891652Y1224523D01*
X891421Y1224663D01*
X891138Y1224778D01*
X890804Y1224866D01*
X890418Y1224930D01*
X889981Y1224968D01*
X889493Y1224981D01*
Y1227521D01*
X889981Y1227533D01*
X890418Y1227571D01*
X890804Y1227635D01*
X891138Y1227724D01*
X891421Y1227838D01*
X891652Y1227978D01*
X891832Y1228143D01*
X891960Y1228334D01*
X892037Y1228549D01*
X892063Y1228791D01*
Y1223711D01*
D02*
G37*
G36*
X1409651Y1221331D02*
X1409827Y1221289D01*
X1410088Y1221251D01*
X1410865Y1221191D01*
X1413438Y1221131D01*
X1414293Y1221129D01*
Y1211129D01*
X1409559Y1210879D01*
Y1221379D01*
X1409651Y1221331D01*
D02*
G37*
G36*
X1424247Y1210879D02*
X1424156Y1210926D01*
X1423979Y1210969D01*
X1423718Y1211006D01*
X1422941Y1211066D01*
X1420368Y1211126D01*
X1419513Y1211129D01*
Y1221129D01*
X1424247Y1221379D01*
Y1210879D01*
D02*
G37*
G36*
X706094Y1218617D02*
X705707Y1218536D01*
X705303Y1218402D01*
X704881Y1218213D01*
X704441Y1217971D01*
X703983Y1217674D01*
X703507Y1217324D01*
X702501Y1216462D01*
X701972Y1215950D01*
X699277Y1216848D01*
X699601Y1217189D01*
X699852Y1217495D01*
X700032Y1217764D01*
X700140Y1217998D01*
X700175Y1218195D01*
X700140Y1218357D01*
X700032Y1218483D01*
X699852Y1218572D01*
X699601Y1218626D01*
X699277Y1218644D01*
X706462D01*
X706094Y1218617D01*
D02*
G37*
G36*
X719665Y1205464D02*
X719741Y1205248D01*
X719868Y1205058D01*
X720046Y1204893D01*
X720275Y1204753D01*
X720554Y1204639D01*
X720884Y1204550D01*
X721265Y1204486D01*
X721697Y1204448D01*
X722180Y1204436D01*
Y1201896D01*
X721697Y1201883D01*
X721265Y1201845D01*
X720884Y1201781D01*
X720554Y1201693D01*
X720275Y1201578D01*
X720046Y1201439D01*
X719868Y1201273D01*
X719741Y1201083D01*
X719665Y1200867D01*
X719640Y1200626D01*
Y1205706D01*
X719665Y1205464D01*
D02*
G37*
G36*
X1384006Y1185281D02*
X1383963Y1185105D01*
X1383926Y1184844D01*
X1383866Y1184067D01*
X1383806Y1181494D01*
X1383805Y1181265D01*
X1383850Y1179439D01*
X1383991Y1177739D01*
X1384226Y1176239D01*
X1384555Y1174939D01*
X1384978Y1173839D01*
X1385495Y1172939D01*
X1386106Y1172239D01*
X1386812Y1171739D01*
X1387611Y1171439D01*
X1388504Y1171339D01*
X1375865D01*
X1375473Y1171439D01*
X1375123Y1171739D01*
X1374813Y1172239D01*
X1374545Y1172939D01*
X1374319Y1173839D01*
X1374133Y1174939D01*
X1373989Y1176239D01*
X1373824Y1179439D01*
X1373811Y1180639D01*
X1373803D01*
X1373553Y1185373D01*
X1384053D01*
X1384006Y1185281D01*
D02*
G37*
G36*
X1360403Y1183159D02*
X1359984Y1182859D01*
X1359613Y1182359D01*
X1359292Y1181659D01*
X1359021Y1180759D01*
X1358798Y1179659D01*
X1358625Y1178359D01*
X1358428Y1175159D01*
X1358403Y1173259D01*
X1348403D01*
X1348378Y1175159D01*
X1348008Y1179659D01*
X1347786Y1180759D01*
X1347514Y1181659D01*
X1347193Y1182359D01*
X1346823Y1182859D01*
X1346403Y1183159D01*
X1345934Y1183259D01*
X1360873D01*
X1360403Y1183159D01*
D02*
G37*
G36*
X721436Y1179004D02*
X720915Y1178466D01*
X720100Y1177510D01*
X719805Y1177091D01*
X719585Y1176712D01*
X719440Y1176373D01*
X719369Y1176073D01*
X719374Y1175813D01*
X719454Y1175593D01*
X719609Y1175412D01*
X715727Y1178654D01*
X715937Y1178527D01*
X716179Y1178470D01*
X716455Y1178481D01*
X716764Y1178560D01*
X717107Y1178709D01*
X717483Y1178926D01*
X717892Y1179211D01*
X718334Y1179566D01*
X719320Y1180480D01*
X721436Y1179004D01*
D02*
G37*
G36*
X1248514Y1164818D02*
X1248327Y1165764D01*
X1247925Y1166611D01*
X1247306Y1167358D01*
X1246471Y1168006D01*
X1245419Y1168553D01*
X1244151Y1169002D01*
X1242667Y1169350D01*
X1240966Y1169600D01*
X1239050Y1169749D01*
X1236916Y1169799D01*
Y1179799D01*
X1238893Y1179849D01*
X1240653Y1179999D01*
X1242197Y1180249D01*
X1243524Y1180599D01*
X1244635Y1181049D01*
X1245530Y1181599D01*
X1246209Y1182249D01*
X1246671Y1182999D01*
X1246917Y1183849D01*
X1246947Y1184799D01*
X1248514Y1164818D01*
D02*
G37*
G36*
X1030611Y1177584D02*
X1029894Y1177284D01*
X1029261Y1176784D01*
X1028712Y1176084D01*
X1028248Y1175184D01*
X1027868Y1174084D01*
X1027573Y1172784D01*
X1027362Y1171284D01*
X1027235Y1169584D01*
X1027193Y1167684D01*
X1017193D01*
X1017151Y1169584D01*
X1016813Y1172784D01*
X1016518Y1174084D01*
X1016138Y1175184D01*
X1015674Y1176084D01*
X1015126Y1176784D01*
X1014493Y1177284D01*
X1013775Y1177584D01*
X1012974Y1177684D01*
X1031413D01*
X1030611Y1177584D01*
D02*
G37*
G36*
X1403787Y1173391D02*
X1403825Y1172954D01*
X1403888Y1172568D01*
X1403977Y1172234D01*
X1404092Y1171951D01*
X1404231Y1171720D01*
X1404396Y1171540D01*
X1404587Y1171412D01*
X1404803Y1171334D01*
X1405044Y1171309D01*
X1399964D01*
X1400205Y1171334D01*
X1400421Y1171412D01*
X1400612Y1171540D01*
X1400777Y1171720D01*
X1400917Y1171951D01*
X1401031Y1172234D01*
X1401120Y1172568D01*
X1401183Y1172954D01*
X1401221Y1173391D01*
X1401234Y1173879D01*
X1403774D01*
X1403787Y1173391D01*
D02*
G37*
G36*
X1408103Y1184323D02*
X1407281Y1183792D01*
X1406545Y1183256D01*
X1405895Y1182713D01*
X1405333Y1182164D01*
X1404856Y1181609D01*
X1404467Y1181048D01*
X1404164Y1180481D01*
X1403947Y1179907D01*
X1403817Y1179327D01*
X1403774Y1178741D01*
X1401234Y1179341D01*
X1401201Y1179790D01*
X1401100Y1180303D01*
X1400932Y1180879D01*
X1400697Y1181520D01*
X1400395Y1182224D01*
X1399589Y1183823D01*
X1398514Y1185678D01*
X1397876Y1186701D01*
X1408103Y1184323D01*
D02*
G37*
G36*
X1384053Y1196085D02*
X1373553D01*
X1373601Y1196176D01*
X1373643Y1196352D01*
X1373681Y1196614D01*
X1373741Y1197391D01*
X1373801Y1199964D01*
X1373803Y1200819D01*
X1383803D01*
X1384053Y1196085D01*
D02*
G37*
G36*
X677731Y1196973D02*
X677713Y1197302D01*
X677658Y1197558D01*
X677567Y1197740D01*
X677439Y1197850D01*
X677274Y1197886D01*
X677074Y1197850D01*
X676836Y1197740D01*
X676562Y1197558D01*
X676252Y1197302D01*
X675904Y1196973D01*
Y1200565D01*
X676252Y1200930D01*
X676562Y1201293D01*
X676836Y1201656D01*
X677074Y1202017D01*
X677274Y1202376D01*
X677439Y1202735D01*
X677567Y1203092D01*
X677658Y1203449D01*
X677713Y1203804D01*
X677731Y1204157D01*
Y1196973D01*
D02*
G37*
G36*
X1358606Y1210681D02*
X1358563Y1210505D01*
X1358526Y1210244D01*
X1358466Y1209467D01*
X1358415Y1207292D01*
X1358428Y1206298D01*
X1358798Y1201798D01*
X1359021Y1200698D01*
X1359292Y1199798D01*
X1359613Y1199098D01*
X1359984Y1198598D01*
X1360403Y1198298D01*
X1360873Y1198198D01*
X1345934D01*
X1346403Y1198298D01*
X1346823Y1198598D01*
X1347193Y1199098D01*
X1347514Y1199798D01*
X1347786Y1200698D01*
X1348008Y1201798D01*
X1348181Y1203098D01*
X1348378Y1206298D01*
X1348381Y1206465D01*
X1348153Y1210773D01*
X1358653D01*
X1358606Y1210681D01*
D02*
G37*
G36*
X934545Y1203341D02*
X934845Y1202623D01*
X935345Y1201990D01*
X936045Y1201442D01*
X936945Y1200978D01*
X938045Y1200598D01*
X939345Y1200303D01*
X940094Y1200197D01*
X940215Y1200215D01*
X941008Y1200379D01*
X941730Y1200580D01*
X942380Y1200818D01*
X942960Y1201092D01*
X943467Y1201403D01*
X943904Y1201750D01*
X943801Y1199937D01*
X944445Y1199923D01*
Y1189923D01*
X943232Y1189896D01*
X943112Y1187772D01*
X942699Y1188181D01*
X942212Y1188546D01*
X941652Y1188869D01*
X941019Y1189148D01*
X940312Y1189385D01*
X939577Y1189567D01*
X939345Y1189543D01*
X938045Y1189248D01*
X936945Y1188868D01*
X936045Y1188404D01*
X935345Y1187855D01*
X934845Y1187222D01*
X934545Y1186505D01*
X934445Y1185703D01*
X934165Y1185603D01*
X933916Y1185303D01*
X933695Y1184803D01*
X933504Y1184103D01*
X933343Y1183203D01*
X933210Y1182103D01*
X933034Y1179303D01*
X932975Y1175703D01*
X922975D01*
X922960Y1177603D01*
X922608Y1183203D01*
X922446Y1184103D01*
X922255Y1184803D01*
X922035Y1185303D01*
X921785Y1185603D01*
X921506Y1185703D01*
X934445D01*
Y1204142D01*
X934545Y1203341D01*
D02*
G37*
G36*
X892536Y1192383D02*
X892510Y1192624D01*
X892433Y1192840D01*
X892305Y1193030D01*
X892125Y1193195D01*
X891893Y1193335D01*
X891611Y1193449D01*
X891277Y1193538D01*
X890891Y1193602D01*
X890454Y1193640D01*
X889966Y1193653D01*
Y1196193D01*
X890454Y1196205D01*
X890891Y1196244D01*
X891277Y1196307D01*
X891611Y1196396D01*
X891893Y1196510D01*
X892125Y1196650D01*
X892305Y1196815D01*
X892433Y1197005D01*
X892510Y1197221D01*
X892536Y1197463D01*
Y1192383D01*
D02*
G37*
G36*
X603367Y1201025D02*
X603579Y1198567D01*
X603764Y1197569D01*
X604003Y1196724D01*
X604294Y1196033D01*
X604639Y1195495D01*
X605036Y1195111D01*
X605487Y1194881D01*
X605991Y1194804D01*
X590690D01*
X591193Y1194881D01*
X591644Y1195111D01*
X592041Y1195495D01*
X592386Y1196033D01*
X592677Y1196724D01*
X592916Y1197569D01*
X593102Y1198567D01*
X593234Y1199719D01*
X593314Y1201025D01*
X593340Y1202485D01*
X603340D01*
X603367Y1201025D01*
D02*
G37*
G36*
X927942Y1022372D02*
X927801Y1022187D01*
X927677Y1021987D01*
X927569Y1021772D01*
X927478Y1021542D01*
X927403Y1021297D01*
X927345Y1021037D01*
X927303Y1020762D01*
X927278Y1020472D01*
X927270Y1020167D01*
X924730D01*
X924722Y1020472D01*
X924697Y1020762D01*
X924655Y1021037D01*
X924597Y1021297D01*
X924523Y1021542D01*
X924431Y1021772D01*
X924323Y1021987D01*
X924199Y1022187D01*
X924058Y1022372D01*
X923900Y1022542D01*
X928100D01*
X927942Y1022372D01*
D02*
G37*
G36*
X943206Y970409D02*
X944904Y968991D01*
X945683Y968459D01*
X946413Y968043D01*
X947097Y967745D01*
X947733Y967565D01*
X948322Y967502D01*
X948863Y967556D01*
X949358Y967728D01*
X939904Y963100D01*
X940292Y963378D01*
X940514Y963752D01*
X940571Y964220D01*
X940463Y964784D01*
X940189Y965444D01*
X939750Y966199D01*
X939145Y967049D01*
X938375Y967994D01*
X936338Y970171D01*
X942287Y971294D01*
X943206Y970409D01*
D02*
G37*
G36*
X1338656Y974339D02*
X1337806Y974038D01*
X1337056Y973537D01*
X1336406Y972835D01*
X1335856Y971932D01*
X1335406Y970829D01*
X1335056Y969525D01*
X1334806Y968020D01*
X1334656Y966315D01*
X1334606Y964409D01*
X1324606D01*
X1324556Y966315D01*
X1324406Y968020D01*
X1324156Y969525D01*
X1323806Y970829D01*
X1323356Y971932D01*
X1322806Y972835D01*
X1322156Y973537D01*
X1321406Y974038D01*
X1320556Y974339D01*
X1319606Y974440D01*
X1339606D01*
X1338656Y974339D01*
D02*
G37*
G36*
X809625Y961463D02*
X809588Y961700D01*
X809478Y961911D01*
X809294Y962098D01*
X809036Y962260D01*
X808705Y962397D01*
X808300Y962509D01*
X807822Y962597D01*
X807817Y962597D01*
X807722Y962576D01*
X807477Y962501D01*
X807247Y962410D01*
X807032Y962302D01*
X806832Y962178D01*
X806647Y962036D01*
X806477Y961879D01*
Y962699D01*
X805946Y962709D01*
Y965249D01*
X806477Y965258D01*
Y966079D01*
X806647Y965921D01*
X806832Y965780D01*
X807032Y965655D01*
X807247Y965547D01*
X807477Y965456D01*
X807722Y965381D01*
X807817Y965360D01*
X807822Y965361D01*
X808300Y965448D01*
X808705Y965560D01*
X809036Y965697D01*
X809294Y965859D01*
X809478Y966046D01*
X809588Y966258D01*
X809625Y966495D01*
Y961463D01*
D02*
G37*
G36*
X825760Y966258D02*
X825871Y966046D01*
X826054Y965859D01*
X826312Y965697D01*
X826643Y965560D01*
X827048Y965448D01*
X827526Y965361D01*
X828078Y965298D01*
X828703Y965261D01*
X829402Y965249D01*
Y962709D01*
X828703Y962696D01*
X827526Y962597D01*
X827048Y962509D01*
X826643Y962397D01*
X826312Y962260D01*
X826054Y962098D01*
X825871Y961911D01*
X825760Y961700D01*
X825723Y961463D01*
Y966495D01*
X825760Y966258D01*
D02*
G37*
G36*
X867012Y962135D02*
X866890Y962349D01*
X866717Y962475D01*
X866489Y962513D01*
X866210Y962463D01*
X865877Y962324D01*
X865491Y962097D01*
X865053Y961782D01*
X864561Y961379D01*
X863420Y960308D01*
X863275Y963755D01*
X863707Y964205D01*
X864405Y965044D01*
X864671Y965434D01*
X864881Y965803D01*
X865036Y966152D01*
X865136Y966481D01*
X865180Y966790D01*
X865168Y967079D01*
X865101Y967347D01*
X867012Y962135D01*
D02*
G37*
G36*
X1033317Y962335D02*
X1033267Y962810D01*
X1033116Y963235D01*
X1032864Y963610D01*
X1032512Y963935D01*
X1032059Y964210D01*
X1031506Y964435D01*
X1030852Y964610D01*
X1030098Y964735D01*
X1029242Y964810D01*
X1028287Y964835D01*
Y969835D01*
X1029242Y969860D01*
X1030098Y969935D01*
X1030852Y970060D01*
X1031506Y970235D01*
X1032059Y970460D01*
X1032512Y970735D01*
X1032864Y971060D01*
X1033116Y971435D01*
X1033267Y971860D01*
X1033317Y972335D01*
Y962335D01*
D02*
G37*
G36*
X918521Y969207D02*
X918885Y968897D01*
X919247Y968623D01*
X919608Y968385D01*
X919968Y968184D01*
X920327Y968020D01*
X920684Y967892D01*
X921040Y967801D01*
X921395Y967746D01*
X921749Y967728D01*
X914565D01*
X914893Y967746D01*
X915149Y967801D01*
X915332Y967892D01*
X915441Y968020D01*
X915478Y968184D01*
X915441Y968385D01*
X915332Y968623D01*
X915149Y968897D01*
X914893Y969207D01*
X914565Y969554D01*
X918157D01*
X918521Y969207D01*
D02*
G37*
G36*
X1078462Y971042D02*
X1078321Y970857D01*
X1078197Y970657D01*
X1078089Y970442D01*
X1077998Y970212D01*
X1077923Y969967D01*
X1077865Y969707D01*
X1077823Y969432D01*
X1077798Y969142D01*
X1077790Y968837D01*
X1075250D01*
X1075242Y969142D01*
X1075217Y969432D01*
X1075175Y969707D01*
X1075117Y969967D01*
X1075043Y970212D01*
X1074951Y970442D01*
X1074843Y970657D01*
X1074719Y970857D01*
X1074578Y971042D01*
X1074420Y971212D01*
X1078620D01*
X1078462Y971042D01*
D02*
G37*
G36*
X732028Y976625D02*
X732251Y976437D01*
X732474Y976272D01*
X732699Y976129D01*
X732925Y976009D01*
X733153Y975911D01*
X733381Y975835D01*
X733611Y975781D01*
X733841Y975750D01*
X734073Y975742D01*
X731103Y972772D01*
X731094Y973003D01*
X731063Y973234D01*
X731010Y973464D01*
X730934Y973692D01*
X730836Y973919D01*
X730715Y974146D01*
X730573Y974370D01*
X730408Y974594D01*
X730220Y974817D01*
X730010Y975038D01*
X731806Y976834D01*
X732028Y976625D01*
D02*
G37*
G36*
X957592Y989621D02*
X959291Y987582D01*
X962758Y983873D01*
X965006Y981594D01*
X962674Y976855D01*
X961981Y977483D01*
X961292Y977979D01*
X960606Y978342D01*
X959922Y978572D01*
X959242Y978671D01*
X958565Y978636D01*
X957891Y978470D01*
X957220Y978171D01*
X956552Y977740D01*
X955887Y977176D01*
X957197Y990159D01*
X957592Y989621D01*
D02*
G37*
G36*
X899568Y971686D02*
X899638Y970855D01*
X899756Y970122D01*
X899921Y969487D01*
X900133Y968950D01*
X900392Y968510D01*
X900699Y968168D01*
X901052Y967923D01*
X901453Y967777D01*
X901901Y967728D01*
X892188D01*
X892635Y967777D01*
X893036Y967923D01*
X893390Y968168D01*
X893696Y968510D01*
X893955Y968950D01*
X894167Y969487D01*
X894332Y970122D01*
X894450Y970855D01*
X894520Y971686D01*
X894544Y972615D01*
X899544D01*
X899568Y971686D01*
D02*
G37*
G36*
X844781Y967789D02*
X844755Y968030D01*
X844678Y968246D01*
X844550Y968436D01*
X844370Y968602D01*
X844138Y968741D01*
X843856Y968856D01*
X843522Y968944D01*
X843136Y969008D01*
X842699Y969046D01*
X842211Y969059D01*
Y971599D01*
X842699Y971611D01*
X843136Y971649D01*
X843522Y971713D01*
X843856Y971802D01*
X844138Y971916D01*
X844370Y972056D01*
X844550Y972221D01*
X844678Y972411D01*
X844755Y972627D01*
X844781Y972869D01*
Y967789D01*
D02*
G37*
G36*
X737112Y972480D02*
X737143Y972249D01*
X737196Y972020D01*
X737272Y971791D01*
X737370Y971564D01*
X737491Y971338D01*
X737634Y971113D01*
X737799Y970889D01*
X737986Y970667D01*
X738196Y970445D01*
X736400Y968649D01*
X736178Y968859D01*
X735956Y969046D01*
X735732Y969211D01*
X735507Y969354D01*
X735281Y969474D01*
X735054Y969573D01*
X734825Y969648D01*
X734596Y969702D01*
X734365Y969733D01*
X734133Y969742D01*
X737103Y972712D01*
X737112Y972480D01*
D02*
G37*
G36*
X762625Y961463D02*
X762588Y961700D01*
X762478Y961911D01*
X762294Y962098D01*
X762036Y962260D01*
X761705Y962397D01*
X761301Y962509D01*
X760822Y962597D01*
X760270Y962659D01*
X759645Y962696D01*
X758946Y962709D01*
Y965249D01*
X759645Y965261D01*
X760822Y965361D01*
X761301Y965448D01*
X761705Y965560D01*
X762036Y965697D01*
X762294Y965859D01*
X762478Y966046D01*
X762588Y966258D01*
X762625Y966495D01*
Y961463D01*
D02*
G37*
G36*
X708690Y947815D02*
X707759Y946757D01*
X707659Y946609D01*
X707587Y946483D01*
X707544Y946378D01*
X707530Y946295D01*
X701778Y946265D01*
X702134Y946285D01*
X702490Y946341D01*
X702847Y946433D01*
X703205Y946562D01*
X703564Y946726D01*
X703924Y946927D01*
X704284Y947164D01*
X704645Y947437D01*
X705008Y947746D01*
X705371Y948091D01*
X708963D01*
X708690Y947815D01*
D02*
G37*
G36*
X859440Y947438D02*
X859007Y946988D01*
X858309Y946149D01*
X858043Y945759D01*
X857833Y945390D01*
X857678Y945041D01*
X857579Y944712D01*
X857535Y944403D01*
X857546Y944115D01*
X857613Y943846D01*
X855703Y949059D01*
X855824Y948844D01*
X855998Y948718D01*
X856225Y948680D01*
X856505Y948731D01*
X856837Y948869D01*
X857223Y949096D01*
X857662Y949411D01*
X858153Y949814D01*
X859295Y950885D01*
X859440Y947438D01*
D02*
G37*
G36*
X762625Y948763D02*
X762588Y949000D01*
X762478Y949211D01*
X762294Y949398D01*
X762036Y949560D01*
X761705Y949697D01*
X761301Y949809D01*
X760822Y949897D01*
X760270Y949959D01*
X759645Y949996D01*
X758946Y950009D01*
Y952549D01*
X759645Y952561D01*
X760822Y952661D01*
X761301Y952748D01*
X761705Y952860D01*
X762036Y952997D01*
X762294Y953159D01*
X762478Y953346D01*
X762588Y953558D01*
X762625Y953794D01*
Y948763D01*
D02*
G37*
G36*
X828882Y939740D02*
X828549Y939403D01*
X827291Y937953D01*
X827120Y937711D01*
X826859Y937275D01*
X826768Y937081D01*
X825545Y941192D01*
X825614Y941034D01*
X825713Y940930D01*
X825842Y940879D01*
X826000Y940881D01*
X826187Y940937D01*
X826404Y941046D01*
X826650Y941209D01*
X826926Y941425D01*
X827231Y941694D01*
X827566Y942017D01*
X828882Y939740D01*
D02*
G37*
G36*
X887553Y948599D02*
X888612Y947667D01*
X888760Y947567D01*
X888886Y947496D01*
X888990Y947453D01*
X889074Y947438D01*
X889104Y941687D01*
X889084Y942042D01*
X889028Y942399D01*
X888936Y942756D01*
X888807Y943114D01*
X888643Y943473D01*
X888442Y943832D01*
X888205Y944193D01*
X887932Y944554D01*
X887623Y944916D01*
X887278Y945279D01*
Y948871D01*
X887553Y948599D01*
D02*
G37*
G36*
X728278Y945115D02*
X728108Y945272D01*
X727922Y945414D01*
X727722Y945538D01*
X727507Y945646D01*
X727277Y945737D01*
X727032Y945812D01*
X726772Y945870D01*
X726497Y945911D01*
X726207Y945936D01*
X725902Y945945D01*
Y948485D01*
X726207Y948493D01*
X726497Y948518D01*
X726772Y948559D01*
X727032Y948617D01*
X727277Y948692D01*
X727507Y948783D01*
X727722Y948891D01*
X727922Y949016D01*
X728108Y949157D01*
X728278Y949315D01*
Y945115D01*
D02*
G37*
G36*
X809625Y948763D02*
X809588Y949000D01*
X809478Y949211D01*
X809294Y949398D01*
X809036Y949560D01*
X808705Y949697D01*
X808300Y949809D01*
X807822Y949897D01*
X807270Y949959D01*
X806645Y949996D01*
X805946Y950009D01*
Y952549D01*
X806645Y952561D01*
X807822Y952661D01*
X808300Y952748D01*
X808705Y952860D01*
X809036Y952997D01*
X809294Y953159D01*
X809478Y953346D01*
X809588Y953558D01*
X809625Y953794D01*
Y948763D01*
D02*
G37*
G36*
X955822Y965428D02*
X955930Y964724D01*
X956109Y964019D01*
X956359Y963313D01*
X956681Y962606D01*
X957073Y961898D01*
X957536Y961190D01*
X958070Y960481D01*
X958674Y959771D01*
X959350Y959060D01*
Y951989D01*
X958751Y952584D01*
X955923Y955088D01*
X955815Y955119D01*
X955784Y966131D01*
X955822Y965428D01*
D02*
G37*
G36*
X917177Y955150D02*
X917021Y955330D01*
X916821Y955430D01*
X916575Y955449D01*
X916284Y955387D01*
X915947Y955245D01*
X915566Y955022D01*
X915138Y954718D01*
X914666Y954334D01*
X913585Y953323D01*
X912678Y956008D01*
X913144Y956492D01*
X913887Y957377D01*
X914165Y957778D01*
X914379Y958151D01*
X914530Y958496D01*
X914618Y958814D01*
X914643Y959104D01*
X914605Y959366D01*
X914504Y959600D01*
X917177Y955150D01*
D02*
G37*
G36*
X977758Y968877D02*
X979639Y967277D01*
X980462Y966699D01*
X981208Y966269D01*
X981876Y965986D01*
X982467Y965851D01*
X982980Y965864D01*
X983415Y966024D01*
X983773Y966333D01*
X977370Y958654D01*
X977621Y959069D01*
X977737Y959549D01*
X977719Y960093D01*
X977564Y960703D01*
X977275Y961378D01*
X976851Y962117D01*
X976292Y962922D01*
X975598Y963791D01*
X973804Y965725D01*
X976702Y969899D01*
X977758Y968877D01*
D02*
G37*
G36*
X825760Y953558D02*
X825871Y953346D01*
X826054Y953159D01*
X826312Y952997D01*
X826643Y952860D01*
X827048Y952748D01*
X827526Y952661D01*
X828078Y952598D01*
X828703Y952561D01*
X829402Y952549D01*
Y950009D01*
X828703Y949996D01*
X827526Y949897D01*
X827048Y949809D01*
X826643Y949697D01*
X826312Y949560D01*
X826054Y949398D01*
X825871Y949211D01*
X825760Y949000D01*
X825723Y948763D01*
Y953794D01*
X825760Y953558D01*
D02*
G37*
G36*
X713880Y951835D02*
X713648Y951826D01*
X713418Y951795D01*
X713188Y951741D01*
X712960Y951666D01*
X712732Y951568D01*
X712506Y951447D01*
X712281Y951304D01*
X712058Y951139D01*
X711835Y950952D01*
X711613Y950742D01*
X709817Y952538D01*
X710027Y952759D01*
X710215Y952982D01*
X710380Y953206D01*
X710522Y953431D01*
X710643Y953657D01*
X710741Y953884D01*
X710817Y954113D01*
X710870Y954342D01*
X710901Y954573D01*
X710910Y954805D01*
X713880Y951835D01*
D02*
G37*
G36*
X1004719Y959359D02*
X1004842Y959094D01*
X1005046Y958861D01*
X1005332Y958659D01*
X1005700Y958488D01*
X1006149Y958348D01*
X1006680Y958239D01*
X1007293Y958161D01*
X1007988Y958114D01*
X1008764Y958099D01*
Y953099D01*
X1007988Y953083D01*
X1006680Y952959D01*
X1006149Y952850D01*
X1005700Y952710D01*
X1005332Y952539D01*
X1005046Y952337D01*
X1004842Y952103D01*
X1004719Y951839D01*
X1004678Y951543D01*
Y959654D01*
X1004719Y959359D01*
D02*
G37*
G36*
X1184747Y1016224D02*
X1184838Y1015969D01*
X1184990Y1015744D01*
X1185202Y1015549D01*
X1185475Y1015384D01*
X1185808Y1015249D01*
X1186202Y1015144D01*
X1186657Y1015069D01*
X1187172Y1015024D01*
X1187748Y1015009D01*
Y1012009D01*
X1187172Y1011994D01*
X1186657Y1011949D01*
X1186202Y1011874D01*
X1185808Y1011769D01*
X1185475Y1011634D01*
X1185202Y1011469D01*
X1184990Y1011274D01*
X1184838Y1011049D01*
X1184747Y1010794D01*
X1184717Y1010509D01*
Y1016509D01*
X1184747Y1016224D01*
D02*
G37*
G36*
X788626Y1015450D02*
X788523Y1015247D01*
X788501Y1015000D01*
X788559Y1014708D01*
X788699Y1014371D01*
X788919Y1013990D01*
X789219Y1013563D01*
X789601Y1013092D01*
X790606Y1012015D01*
X787921Y1011108D01*
X787440Y1011571D01*
X786559Y1012308D01*
X786159Y1012582D01*
X785787Y1012793D01*
X785441Y1012941D01*
X785122Y1013026D01*
X784831Y1013049D01*
X784566Y1013008D01*
X784329Y1012904D01*
X785030D01*
X784789Y1012879D01*
X784573Y1012803D01*
X784382Y1012676D01*
X784217Y1012498D01*
X784078Y1012269D01*
X783963Y1011990D01*
X783874Y1011660D01*
X783873Y1011652D01*
X783893Y1011563D01*
X783968Y1011318D01*
X784059Y1011088D01*
X784167Y1010873D01*
X784291Y1010673D01*
X784432Y1010487D01*
X784590Y1010317D01*
X780390D01*
X780548Y1010487D01*
X780689Y1010673D01*
X780813Y1010873D01*
X780921Y1011088D01*
X781013Y1011318D01*
X781087Y1011563D01*
X781107Y1011652D01*
X781106Y1011660D01*
X781017Y1011990D01*
X780903Y1012269D01*
X780763Y1012498D01*
X780598Y1012676D01*
X780407Y1012803D01*
X780191Y1012879D01*
X779950Y1012904D01*
X784329D01*
X788810Y1015607D01*
X788626Y1015450D01*
D02*
G37*
G36*
X843792Y1012886D02*
X843433Y1012832D01*
X843074Y1012742D01*
X842715Y1012617D01*
X842356Y1012455D01*
X841996Y1012258D01*
X841637Y1012024D01*
X841278Y1011755D01*
X840919Y1011449D01*
X840560Y1011108D01*
X836967D01*
X837305Y1011449D01*
X838424Y1012742D01*
X838459Y1012832D01*
X838452Y1012886D01*
X838401Y1012904D01*
X844152D01*
X843792Y1012886D01*
D02*
G37*
G36*
X780348Y1006075D02*
X780178Y1006232D01*
X779992Y1006374D01*
X779792Y1006498D01*
X779577Y1006606D01*
X779347Y1006697D01*
X779102Y1006772D01*
X778842Y1006830D01*
X778567Y1006871D01*
X778277Y1006896D01*
X777972Y1006905D01*
Y1009445D01*
X778277Y1009453D01*
X778567Y1009478D01*
X778842Y1009519D01*
X779102Y1009577D01*
X779347Y1009652D01*
X779577Y1009743D01*
X779792Y1009851D01*
X779992Y1009976D01*
X780178Y1010117D01*
X780348Y1010275D01*
Y1006075D01*
D02*
G37*
G36*
X886385Y1013013D02*
X886461Y1012797D01*
X886588Y1012607D01*
X886766Y1012442D01*
X886995Y1012302D01*
X887274Y1012188D01*
X887279Y1012187D01*
X887297Y1012192D01*
X887527Y1012283D01*
X887742Y1012391D01*
X887942Y1012516D01*
X888128Y1012657D01*
X888298Y1012815D01*
Y1012008D01*
X888417Y1011997D01*
X888900Y1011985D01*
Y1009445D01*
X888417Y1009432D01*
X888298Y1009421D01*
Y1008615D01*
X888128Y1008772D01*
X887942Y1008913D01*
X887742Y1009038D01*
X887527Y1009146D01*
X887297Y1009237D01*
X887279Y1009243D01*
X887274Y1009241D01*
X886995Y1009127D01*
X886766Y1008988D01*
X886588Y1008822D01*
X886461Y1008632D01*
X886385Y1008416D01*
X886360Y1008175D01*
Y1009425D01*
X886227Y1009436D01*
X885922Y1009445D01*
Y1011985D01*
X886227Y1011993D01*
X886360Y1012004D01*
Y1013255D01*
X886385Y1013013D01*
D02*
G37*
G36*
X716130Y1009445D02*
X716104Y1009686D01*
X716027Y1009902D01*
X715899Y1010092D01*
X715719Y1010257D01*
X715487Y1010397D01*
X715205Y1010511D01*
X714871Y1010600D01*
X714485Y1010664D01*
X714048Y1010702D01*
X713560Y1010715D01*
Y1013255D01*
X714048Y1013267D01*
X714485Y1013306D01*
X714871Y1013369D01*
X715205Y1013458D01*
X715487Y1013572D01*
X715719Y1013712D01*
X715899Y1013877D01*
X716027Y1014068D01*
X716104Y1014283D01*
X716130Y1014525D01*
Y1009445D01*
D02*
G37*
G36*
X893930Y1012095D02*
X894088Y1012059D01*
X894363Y1012018D01*
X894653Y1011993D01*
X894958Y1011985D01*
Y1009445D01*
X894653Y1009436D01*
X894363Y1009411D01*
X894088Y1009370D01*
X893930Y1009335D01*
Y1008175D01*
X893904Y1008416D01*
X893827Y1008632D01*
X893699Y1008822D01*
X893519Y1008988D01*
X893300Y1009119D01*
X893138Y1009038D01*
X892938Y1008913D01*
X892753Y1008772D01*
X892582Y1008615D01*
Y1009345D01*
X892285Y1009394D01*
X891848Y1009432D01*
X891360Y1009445D01*
Y1011985D01*
X891848Y1011997D01*
X892285Y1012036D01*
X892582Y1012085D01*
Y1012815D01*
X892753Y1012657D01*
X892938Y1012516D01*
X893138Y1012391D01*
X893300Y1012310D01*
X893519Y1012442D01*
X893699Y1012607D01*
X893827Y1012797D01*
X893904Y1013013D01*
X893930Y1013255D01*
Y1012095D01*
D02*
G37*
G36*
X927283Y1019086D02*
X927321Y1018649D01*
X927384Y1018263D01*
X927473Y1017929D01*
X927588Y1017646D01*
X927727Y1017415D01*
X927892Y1017235D01*
X928083Y1017107D01*
X928299Y1017029D01*
X928540Y1017004D01*
X923460D01*
X923701Y1017029D01*
X923917Y1017107D01*
X924108Y1017235D01*
X924273Y1017415D01*
X924413Y1017646D01*
X924527Y1017929D01*
X924616Y1018263D01*
X924679Y1018649D01*
X924717Y1019086D01*
X924730Y1019574D01*
X927270D01*
X927283Y1019086D01*
D02*
G37*
G36*
X990050Y1021467D02*
X989834Y1021390D01*
X989643Y1021261D01*
X989478Y1021081D01*
X989339Y1020850D01*
X989224Y1020567D01*
X989135Y1020233D01*
X989072Y1019847D01*
X989034Y1019411D01*
X989021Y1018922D01*
X986481D01*
X986468Y1019411D01*
X986430Y1019847D01*
X986367Y1020233D01*
X986278Y1020567D01*
X986164Y1020850D01*
X986024Y1021081D01*
X985859Y1021261D01*
X985668Y1021390D01*
X985452Y1021467D01*
X985211Y1021493D01*
X990291D01*
X990050Y1021467D01*
D02*
G37*
G36*
X809125Y1024443D02*
X809202Y1024228D01*
X809331Y1024037D01*
X809510Y1023872D01*
X809742Y1023732D01*
X809921Y1023660D01*
X810057Y1023714D01*
X810272Y1023821D01*
X810472Y1023946D01*
X810658Y1024087D01*
X810828Y1024245D01*
Y1023458D01*
X811181Y1023427D01*
X811670Y1023415D01*
Y1020875D01*
X811181Y1020862D01*
X810828Y1020831D01*
Y1020045D01*
X810658Y1020202D01*
X810472Y1020343D01*
X810272Y1020468D01*
X810057Y1020576D01*
X809921Y1020630D01*
X809742Y1020557D01*
X809510Y1020417D01*
X809331Y1020252D01*
X809202Y1020062D01*
X809125Y1019846D01*
X809099Y1019605D01*
Y1020834D01*
X809047Y1020842D01*
X808757Y1020866D01*
X808452Y1020875D01*
Y1023415D01*
X808757Y1023423D01*
X809047Y1023448D01*
X809099Y1023456D01*
Y1024685D01*
X809125Y1024443D01*
D02*
G37*
G36*
X1151597Y1023844D02*
X1150312Y1022510D01*
X1148267Y1020071D01*
X1147506Y1018966D01*
X1146921Y1017938D01*
X1146510Y1016986D01*
X1146275Y1016111D01*
X1146214Y1015312D01*
X1146328Y1014590D01*
X1146617Y1013945D01*
X1140709Y1023478D01*
X1140876Y1023528D01*
X1141131Y1023676D01*
X1141472Y1023924D01*
X1141899Y1024270D01*
X1143701Y1025904D01*
X1146282Y1028428D01*
X1151597Y1023844D01*
D02*
G37*
G36*
X989021Y1017752D02*
X989029Y1017448D01*
X989051Y1017157D01*
X989089Y1016880D01*
X989142Y1016618D01*
X989211Y1016368D01*
X989294Y1016133D01*
X989392Y1015911D01*
X989506Y1015703D01*
X989635Y1015509D01*
X989779Y1015329D01*
X985591Y1015652D01*
X985760Y1015810D01*
X985912Y1015984D01*
X986045Y1016175D01*
X986161Y1016382D01*
X986259Y1016605D01*
X986339Y1016845D01*
X986401Y1017101D01*
X986445Y1017374D01*
X986472Y1017663D01*
X986481Y1017969D01*
X989021Y1017752D01*
D02*
G37*
G36*
X705300Y1015312D02*
X705376Y1014880D01*
X705503Y1014499D01*
X705680Y1014169D01*
X705909Y1013890D01*
X706189Y1013661D01*
X706519Y1013483D01*
X706900Y1013356D01*
X707331Y1013280D01*
X707814Y1013255D01*
Y1010715D01*
X707814D01*
Y1010715D01*
X707331Y1010689D01*
X706900Y1010613D01*
X706519Y1010486D01*
X706189Y1010308D01*
X705909Y1010080D01*
X705680Y1009800D01*
X705503Y1009470D01*
X705376Y1009089D01*
X705300Y1008657D01*
X705274Y1008175D01*
X705274Y1008175D01*
Y1008175D01*
X702734Y1011985D01*
X705274Y1015795D01*
Y1015795D01*
X705274Y1015795D01*
X705300Y1015312D01*
D02*
G37*
G36*
X769545Y1010473D02*
X769621Y1010257D01*
X769748Y1010067D01*
X769926Y1009902D01*
X770155Y1009762D01*
X770434Y1009648D01*
X770764Y1009559D01*
X771145Y1009495D01*
X771577Y1009457D01*
X772060Y1009445D01*
Y1006905D01*
X771577Y1006892D01*
X771145Y1006854D01*
X770764Y1006790D01*
X770434Y1006702D01*
X770155Y1006587D01*
X769926Y1006448D01*
X769748Y1006282D01*
X769621Y1006092D01*
X769545Y1005876D01*
X769520Y1005635D01*
Y1010715D01*
X769545Y1010473D01*
D02*
G37*
G36*
X841612Y986265D02*
X841377Y986366D01*
X841115Y986404D01*
X840825Y986378D01*
X840507Y986290D01*
X840162Y986139D01*
X839789Y985925D01*
X839388Y985648D01*
X838960Y985308D01*
X838503Y984904D01*
X838020Y984438D01*
X835334Y985345D01*
X835880Y985908D01*
X836729Y986899D01*
X837033Y987326D01*
X837256Y987708D01*
X837398Y988045D01*
X837460Y988336D01*
X837441Y988582D01*
X837341Y988782D01*
X837161Y988937D01*
X841612Y986265D01*
D02*
G37*
G36*
X809125Y997773D02*
X809202Y997558D01*
X809331Y997367D01*
X809510Y997202D01*
X809742Y997062D01*
X809921Y996990D01*
X810057Y997044D01*
X810272Y997151D01*
X810472Y997276D01*
X810658Y997417D01*
X810828Y997575D01*
Y996788D01*
X811181Y996757D01*
X811670Y996745D01*
Y994205D01*
X811181Y994192D01*
X810828Y994161D01*
Y993375D01*
X810658Y993532D01*
X810472Y993673D01*
X810272Y993798D01*
X810057Y993906D01*
X809921Y993960D01*
X809742Y993887D01*
X809510Y993747D01*
X809331Y993582D01*
X809202Y993392D01*
X809125Y993176D01*
X809099Y992935D01*
Y994164D01*
X809047Y994172D01*
X808757Y994196D01*
X808452Y994205D01*
Y996745D01*
X808757Y996753D01*
X809047Y996778D01*
X809099Y996786D01*
Y998015D01*
X809125Y997773D01*
D02*
G37*
G36*
X816841Y996786D02*
X816893Y996778D01*
X817183Y996753D01*
X817488Y996745D01*
Y994205D01*
X817183Y994196D01*
X816893Y994172D01*
X816841Y994164D01*
Y992935D01*
X816815Y993176D01*
X816738Y993392D01*
X816610Y993582D01*
X816430Y993747D01*
X816198Y993887D01*
X816019Y993960D01*
X815883Y993906D01*
X815668Y993798D01*
X815468Y993673D01*
X815283Y993532D01*
X815113Y993375D01*
Y994161D01*
X814759Y994192D01*
X814271Y994205D01*
Y996745D01*
X814759Y996757D01*
X815113Y996788D01*
Y997575D01*
X815283Y997417D01*
X815468Y997276D01*
X815668Y997151D01*
X815883Y997044D01*
X816019Y996990D01*
X816198Y997062D01*
X816430Y997202D01*
X816610Y997367D01*
X816738Y997558D01*
X816815Y997773D01*
X816841Y998015D01*
Y996786D01*
D02*
G37*
G36*
X1041532Y981462D02*
X1041432Y981836D01*
X1041132Y982171D01*
X1040632Y982467D01*
X1039932Y982723D01*
X1039032Y982939D01*
X1037932Y983117D01*
X1036632Y983254D01*
X1033432Y983412D01*
X1031532Y983432D01*
Y993432D01*
X1033432Y993451D01*
X1037932Y993747D01*
X1039032Y993924D01*
X1039932Y994141D01*
X1040632Y994397D01*
X1041132Y994692D01*
X1041432Y995027D01*
X1041532Y995401D01*
Y981462D01*
D02*
G37*
G36*
X727639Y985350D02*
X727423Y985273D01*
X727232Y985144D01*
X727067Y984964D01*
X726928Y984733D01*
X726813Y984450D01*
X726724Y984116D01*
X726661Y983730D01*
X726623Y983294D01*
X726610Y982805D01*
X724070D01*
X724057Y983294D01*
X724019Y983730D01*
X723956Y984116D01*
X723867Y984450D01*
X723753Y984733D01*
X723613Y984964D01*
X723448Y985144D01*
X723257Y985273D01*
X723041Y985350D01*
X722800Y985376D01*
X727880D01*
X727639Y985350D01*
D02*
G37*
G36*
X976824Y998759D02*
X981326Y994961D01*
X982567Y994143D01*
X983679Y993547D01*
X984661Y993176D01*
X985514Y993027D01*
X986237Y993102D01*
X986831Y993401D01*
X974032Y983462D01*
X973961Y984274D01*
X973749Y985149D01*
X973395Y986087D01*
X972900Y987089D01*
X972264Y988155D01*
X971486Y989284D01*
X970567Y990476D01*
X968304Y993051D01*
X966961Y994433D01*
X975064Y1000472D01*
X976824Y998759D01*
D02*
G37*
G36*
X1172048Y1003539D02*
X1172090Y1003486D01*
X1172016Y1003327D01*
X1171827Y1003062D01*
X1171521Y1002691D01*
X1169906Y1000940D01*
X1167247Y998236D01*
X1162573Y1000633D01*
X1163621Y1001716D01*
X1165255Y1003631D01*
X1165842Y1004463D01*
X1166275Y1005212D01*
X1166555Y1005877D01*
X1166682Y1006459D01*
X1166654Y1006958D01*
X1166473Y1007373D01*
X1166139Y1007704D01*
X1172048Y1003539D01*
D02*
G37*
G36*
X1332570Y1012442D02*
X1332720Y1010737D01*
X1332970Y1009233D01*
X1333320Y1007929D01*
X1333770Y1006825D01*
X1334320Y1005923D01*
X1334970Y1005220D01*
X1335720Y1004719D01*
X1336570Y1004418D01*
X1337520Y1004318D01*
X1317520D01*
X1318470Y1004418D01*
X1319320Y1004719D01*
X1320070Y1005220D01*
X1320720Y1005923D01*
X1321270Y1006825D01*
X1321720Y1007929D01*
X1322070Y1009233D01*
X1322320Y1010737D01*
X1322470Y1012442D01*
X1322520Y1014348D01*
X1332520D01*
X1332570Y1012442D01*
D02*
G37*
G36*
X1126520Y1071355D02*
Y1037355D01*
X1120520Y1031355D01*
X1116520Y1027355D01*
Y1025355D01*
Y1013355D01*
X1111520Y1008355D01*
X1107520Y1004355D01*
X1093520D01*
X1090520Y1007355D01*
X1084520Y1013355D01*
Y1028355D01*
Y1036355D01*
X1082520Y1038355D01*
X1071520D01*
X1066520Y1043355D01*
Y1093355D01*
Y1126355D01*
X1126520D01*
Y1071355D01*
D02*
G37*
G36*
X1197847Y1008980D02*
X1198855Y1008139D01*
X1199319Y1007821D01*
X1199757Y1007572D01*
X1200168Y1007391D01*
X1200552Y1007279D01*
X1200910Y1007234D01*
X1201241Y1007259D01*
X1201545Y1007352D01*
X1195682Y1004791D01*
X1195922Y1004947D01*
X1196062Y1005164D01*
X1196100Y1005439D01*
X1196036Y1005775D01*
X1195872Y1006169D01*
X1195606Y1006623D01*
X1195239Y1007137D01*
X1194771Y1007709D01*
X1193530Y1009033D01*
X1197303Y1009503D01*
X1197847Y1008980D01*
D02*
G37*
G36*
X784432Y1005862D02*
X784291Y1005677D01*
X784167Y1005477D01*
X784059Y1005262D01*
X783968Y1005032D01*
X783893Y1004787D01*
X783835Y1004527D01*
X783793Y1004252D01*
X783782Y1004124D01*
X783811Y1003801D01*
X783874Y1003420D01*
X783963Y1003090D01*
X784078Y1002810D01*
X784217Y1002582D01*
X784382Y1002404D01*
X784573Y1002277D01*
X784789Y1002201D01*
X785030Y1002175D01*
X779950D01*
X780191Y1002201D01*
X780407Y1002277D01*
X780598Y1002404D01*
X780763Y1002582D01*
X780903Y1002810D01*
X781017Y1003090D01*
X781106Y1003420D01*
X781169Y1003801D01*
X781198Y1004124D01*
X781187Y1004252D01*
X781145Y1004527D01*
X781087Y1004787D01*
X781013Y1005032D01*
X780921Y1005262D01*
X780813Y1005477D01*
X780689Y1005677D01*
X780548Y1005862D01*
X780390Y1006032D01*
X784590D01*
X784432Y1005862D01*
D02*
G37*
G36*
X909596Y1006215D02*
X909470Y1006041D01*
X909432Y1005814D01*
X909482Y1005534D01*
X909621Y1005201D01*
X909847Y1004816D01*
X910163Y1004377D01*
X910566Y1003886D01*
X911637Y1002744D01*
X908190Y1002599D01*
X907740Y1003031D01*
X906900Y1003729D01*
X906511Y1003995D01*
X906142Y1004206D01*
X905792Y1004361D01*
X905463Y1004460D01*
X905155Y1004504D01*
X904866Y1004493D01*
X904597Y1004426D01*
X909810Y1006336D01*
X909596Y1006215D01*
D02*
G37*
G36*
X1339520Y1170355D02*
Y1087355D01*
X1317520Y1065355D01*
X1299520Y1047355D01*
Y1046355D01*
Y1029355D01*
X1301520Y1027355D01*
Y1002355D01*
Y978355D01*
X1299520Y976355D01*
X1297520Y974355D01*
X1283520D01*
X1280520Y977355D01*
Y1000355D01*
X1274785D01*
X1264637Y990206D01*
X1265202Y990984D01*
X1265485Y991903D01*
Y992964D01*
X1265202Y994166D01*
X1264637Y995509D01*
X1263788Y996994D01*
X1262657Y998621D01*
X1261243Y1000388D01*
X1260492Y1001196D01*
X1255661Y1005542D01*
Y1027071D01*
X1255767Y1025697D01*
X1256085Y1024244D01*
X1256615Y1022712D01*
X1257358Y1021102D01*
X1258312Y1019413D01*
X1259479Y1017645D01*
X1260858Y1015799D01*
X1264252Y1011871D01*
X1265435Y1010648D01*
X1266687Y1009439D01*
X1270364Y1006328D01*
X1271991Y1005197D01*
X1273475Y1004348D01*
X1274520Y1003908D01*
Y1015355D01*
X1275520Y1016355D01*
X1282520Y1023355D01*
Y1034355D01*
Y1054126D01*
Y1056355D01*
X1294520Y1068355D01*
X1316520Y1090355D01*
Y1165355D01*
Y1169355D01*
X1317520Y1170355D01*
X1319520Y1172355D01*
X1337520D01*
X1339520Y1170355D01*
D02*
G37*
D10*
X713500Y329367D02*
D03*
Y349687D02*
D03*
X689500Y329527D02*
D03*
Y349847D02*
D03*
X665500Y349687D02*
D03*
Y329367D02*
D03*
X713500Y391687D02*
D03*
Y371367D02*
D03*
X689500Y391527D02*
D03*
Y371207D02*
D03*
X665500Y371367D02*
D03*
Y391687D02*
D03*
X1100500Y365687D02*
D03*
Y345367D02*
D03*
X975500Y345527D02*
D03*
Y365847D02*
D03*
X1000500Y345367D02*
D03*
Y365687D02*
D03*
X729404Y869999D02*
D03*
Y890319D02*
D03*
X794174Y831899D02*
D03*
Y852219D02*
D03*
X818304Y831899D02*
D03*
Y852219D02*
D03*
X841164Y892859D02*
D03*
Y872539D02*
D03*
Y831899D02*
D03*
Y852219D02*
D03*
X889424Y831899D02*
D03*
Y852219D02*
D03*
X866564Y831899D02*
D03*
Y852219D02*
D03*
X870374Y892859D02*
D03*
Y872539D02*
D03*
X897044Y961439D02*
D03*
Y941119D02*
D03*
X724070Y1011985D02*
D03*
Y991665D02*
D03*
X926000Y1010715D02*
D03*
Y990395D02*
D03*
X1203622Y1001063D02*
D03*
Y980743D02*
D03*
X730420Y933245D02*
D03*
Y912925D02*
D03*
X598340Y1168195D02*
D03*
Y1188515D02*
D03*
X947844Y941119D02*
D03*
Y961439D02*
D03*
X901870Y1010715D02*
D03*
Y990395D02*
D03*
X922444Y961439D02*
D03*
Y941119D02*
D03*
X630090Y1141525D02*
D03*
Y1121205D02*
D03*
X654220Y1141525D02*
D03*
Y1121205D02*
D03*
X678604Y1141779D02*
D03*
Y1121459D02*
D03*
X704004Y1141779D02*
D03*
Y1121459D02*
D03*
X729404Y848409D02*
D03*
Y828089D02*
D03*
D11*
X1050500Y385527D02*
D03*
D12*
X1073500Y327527D02*
D03*
X1050500Y327527D02*
D03*
X1027500Y327527D02*
D03*
D13*
X1128500Y340027D02*
D03*
Y369027D02*
D03*
X1022193Y1184154D02*
D03*
Y1213154D02*
D03*
D14*
X1014515Y738527D02*
D03*
X1028485D02*
D03*
X1333465Y538517D02*
D03*
X1319495D02*
D03*
D15*
X1012500Y717527D02*
D03*
X1028500D02*
D03*
X1333500Y514527D02*
D03*
X1317500D02*
D03*
D16*
X841500Y525527D02*
D03*
Y509527D02*
D03*
X716026Y551951D02*
D03*
Y535951D02*
D03*
X736346Y535951D02*
D03*
Y551951D02*
D03*
X786500Y641527D02*
D03*
Y657527D02*
D03*
D17*
X698500Y552277D02*
D03*
Y538777D02*
D03*
Y619777D02*
D03*
Y633277D02*
D03*
X752586Y511801D02*
D03*
Y525301D02*
D03*
X771636Y511801D02*
D03*
Y525301D02*
D03*
X751360Y656931D02*
D03*
Y643431D02*
D03*
X767500Y657277D02*
D03*
Y643777D02*
D03*
X821166Y511801D02*
D03*
Y525301D02*
D03*
D18*
X716110Y645171D02*
D03*
Y622171D02*
D03*
X735810Y645171D02*
D03*
Y622171D02*
D03*
D19*
X729250Y661527D02*
D03*
X715750D02*
D03*
X717500Y603527D02*
D03*
X731000D02*
D03*
X818500Y658527D02*
D03*
X805000D02*
D03*
Y640527D02*
D03*
X818500D02*
D03*
D20*
X786500Y698527D02*
D03*
D21*
X761250Y551277D02*
D03*
X765250D02*
D03*
X769250D02*
D03*
X773250D02*
D03*
X777250D02*
D03*
X781250D02*
D03*
X785250D02*
D03*
X789250D02*
D03*
X793250D02*
D03*
X797250D02*
D03*
X801250D02*
D03*
X805250D02*
D03*
Y611777D02*
D03*
X801250D02*
D03*
X797250D02*
D03*
X793250D02*
D03*
X789250D02*
D03*
X785250D02*
D03*
X781250D02*
D03*
X777250D02*
D03*
X773250D02*
D03*
X769250D02*
D03*
X765250D02*
D03*
X761250D02*
D03*
D22*
X813500Y559527D02*
D03*
Y563527D02*
D03*
Y567527D02*
D03*
Y571527D02*
D03*
Y575527D02*
D03*
Y579527D02*
D03*
Y583527D02*
D03*
Y587527D02*
D03*
Y591527D02*
D03*
Y595527D02*
D03*
Y599527D02*
D03*
Y603527D02*
D03*
X753000D02*
D03*
Y599527D02*
D03*
Y595527D02*
D03*
Y591527D02*
D03*
Y587527D02*
D03*
Y583527D02*
D03*
Y579527D02*
D03*
Y575527D02*
D03*
Y571527D02*
D03*
Y567527D02*
D03*
Y563527D02*
D03*
Y559527D02*
D03*
D23*
X783250Y581527D02*
D03*
D24*
X975500Y365847D02*
X1000500D01*
X740500Y603527D02*
X748750Y611777D01*
X689500Y329207D02*
X714500D01*
X659820D02*
X689500D01*
X620880Y393037D02*
X713500D01*
X1077500Y344527D02*
X1124000D01*
X838500Y509527D02*
X841500D01*
X832250Y515777D02*
X838500Y509527D01*
X832250Y515777D02*
Y518777D01*
X665500Y369037D02*
X687330D01*
X622010D02*
X665500D01*
X1073500Y340527D02*
X1077500Y344527D01*
X1073500Y327527D02*
Y340527D01*
X1124000Y344527D02*
X1128500Y340027D01*
X1000500Y365847D02*
Y369527D01*
Y365687D02*
Y365847D01*
X1016500Y385527D02*
X1050500D01*
X1000500Y369527D02*
X1016500Y385527D01*
X713500Y391687D02*
Y393037D01*
X608880Y381037D02*
X620880Y393037D01*
X608880Y330237D02*
X622170Y343527D01*
X645500D01*
X659820Y329207D01*
X608880Y355637D02*
Y355907D01*
X622010Y369037D01*
X687330D02*
X689500Y371207D01*
X665500Y349687D02*
Y369037D01*
Y371367D01*
X689500Y349847D02*
Y371207D01*
X713500Y349687D02*
Y371367D01*
X1050500Y327527D02*
Y385527D01*
X861500Y337527D02*
X872500Y326527D01*
X861500Y337527D02*
Y356527D01*
X788500D02*
X861500D01*
X781660Y349687D02*
X788500Y356527D01*
X713500Y349687D02*
X781660D01*
X952000Y359027D02*
X958820Y365847D01*
X872500Y326527D02*
X942500D01*
X952000Y336027D01*
Y359027D01*
X972180Y365847D02*
X975500D01*
X841500Y496527D02*
X972180Y365847D01*
X841500Y496527D02*
Y509527D01*
X958820Y365847D02*
X972180D01*
X824500Y526527D02*
X832250Y518777D01*
X821166Y525301D02*
Y538527D01*
Y542861D01*
X752586Y525301D02*
Y538527D01*
Y549527D01*
X731000Y603527D02*
X740500D01*
X748750Y611777D02*
X758500D01*
X813500Y550527D02*
X821166Y542861D01*
X813500Y550527D02*
Y556527D01*
X1028500Y717527D02*
X1237500D01*
X1333500Y485527D02*
Y514527D01*
X1307500Y459527D02*
X1333500Y485527D01*
X1050500Y385527D02*
X1083500D01*
X1157500Y459527D01*
X1128500Y369027D02*
X1183000Y423527D01*
X1303500D01*
X1348500Y468527D01*
Y642527D01*
X1353500Y647527D01*
Y676527D01*
X1157500Y459527D02*
X1238500D01*
X1307500D01*
X773020Y821855D02*
X782520Y812355D01*
X953436Y961439D02*
X961520Y953355D01*
X947844Y961439D02*
X953436D01*
X1020500Y967335D02*
X1037506D01*
X1008764Y955599D02*
X1020500Y967335D01*
X991024Y955599D02*
X1008764D01*
X949022Y882429D02*
X977992Y911399D01*
X991024D01*
X1021758Y1115686D02*
X1022193Y1116121D01*
X1315538Y872129D02*
X1328098D01*
X1289728Y897939D02*
X1315538Y872129D01*
X1240132Y897939D02*
X1289728D01*
X1328098Y921129D02*
X1329606Y922637D01*
X1327008Y920039D02*
X1328098Y921129D01*
X1223180Y914891D02*
X1240132Y897939D01*
X1217658Y914891D02*
X1223180D01*
X1181778Y950771D02*
X1217658Y914891D01*
X1181778Y950771D02*
Y964509D01*
X1169078Y933753D02*
Y964509D01*
X1137836Y931467D02*
X1151044D01*
X1128946Y940357D02*
X1137836Y931467D01*
X1150790Y907083D02*
X1151044Y907337D01*
Y931467D01*
X985943Y1213154D02*
X1022193D01*
X972846Y1226251D02*
X985943Y1213154D01*
X927502Y1226251D02*
X972846D01*
X904664Y844599D02*
Y863649D01*
X895774Y872539D02*
X904664Y863649D01*
X895774Y872539D02*
Y892859D01*
X660804Y812869D02*
X660824Y812849D01*
X621344Y812869D02*
X660804D01*
X608804Y800329D02*
X621344Y812869D01*
X949002Y984429D02*
X958636D01*
X987466Y955599D01*
X991024D01*
X947844Y961439D02*
Y962201D01*
X926000Y984045D02*
X947844Y962201D01*
X897044Y979219D02*
X901870Y984045D01*
X897044Y961439D02*
Y972615D01*
Y979219D01*
X598340Y1154225D02*
Y1168195D01*
X613580D01*
X630090Y1151685D01*
Y1141525D02*
Y1151685D01*
X948860Y1024685D02*
X948860Y1024685D01*
X962830Y1018335D02*
Y1022145D01*
Y1018335D02*
X969180Y1011985D01*
Y1009445D02*
Y1011985D01*
X1128946Y940357D02*
Y988871D01*
X1134280Y994205D01*
X1159680D01*
X1169078Y1003603D01*
Y1013509D01*
X700194Y889049D02*
Y900479D01*
X699940Y900733D02*
X700194Y900479D01*
X700194Y900479D01*
X1021758Y1107743D02*
Y1115686D01*
X752264Y925879D02*
X770674D01*
X729404Y930959D02*
X747184D01*
X752264Y925879D01*
X699940Y900733D02*
Y914195D01*
D25*
X786500Y662527D02*
X790500Y658527D01*
D26*
X729500Y633527D02*
X754500D01*
X717856Y645171D02*
X729500Y633527D01*
X716110Y645171D02*
X717856D01*
X754500Y633527D02*
X769250Y618777D01*
X777250Y575527D02*
X783250Y581527D01*
X773250Y571527D02*
X777250Y575527D01*
X753000Y571527D02*
X773250D01*
X781250Y583527D02*
Y611777D01*
X751360Y656931D02*
X773096D01*
X996500Y738527D02*
X1014515D01*
X849500Y591527D02*
X996500Y738527D01*
X813500Y591527D02*
X849500D01*
X975500Y688527D02*
X1397500D01*
X854500Y567527D02*
X975500Y688527D01*
X813500Y567527D02*
X854500D01*
X969500Y694527D02*
X1379500D01*
X850500Y575527D02*
X969500Y694527D01*
X813500Y575527D02*
X850500D01*
X1397500Y688527D02*
X1429554Y720581D01*
X968500Y701527D02*
X1278500D01*
X1279500Y702527D01*
X733856Y622171D02*
X735810D01*
X722750Y633277D02*
X733856Y622171D01*
X698500Y633277D02*
X722750D01*
X716110Y645171D02*
Y661167D01*
X715750Y661527D02*
X716110Y661167D01*
X773096Y656931D02*
X776500Y653527D01*
X781250Y583527D02*
X783250Y581527D01*
X745500Y563527D02*
X753000D01*
X736346Y554373D02*
X745500Y563527D01*
X736346Y551951D02*
Y554373D01*
X698500Y552277D02*
X715700D01*
X716026Y551951D01*
X785250Y611777D02*
Y625527D01*
X758763Y622171D02*
X765250Y615684D01*
X735810Y622171D02*
X758763D01*
X765250Y611777D02*
Y615684D01*
X751360Y643431D02*
X752596D01*
X773250Y622777D01*
Y611777D02*
Y622777D01*
X767500Y635527D02*
Y643777D01*
Y635527D02*
X777250Y625777D01*
Y611777D02*
Y625777D01*
X769250Y611777D02*
Y618777D01*
X781250Y611777D02*
Y628535D01*
X776500Y633284D02*
X781250Y628535D01*
X776500Y633284D02*
Y653527D01*
X813500Y587527D02*
X823500D01*
X752586Y559113D02*
X753000Y559527D01*
X761250Y546777D02*
Y551277D01*
Y546777D02*
X771636Y536391D01*
Y525301D02*
Y536391D01*
X797250Y513777D02*
Y551277D01*
Y513777D02*
X921500Y389527D01*
Y356527D02*
Y389527D01*
X789250Y511777D02*
Y551277D01*
Y511777D02*
X906500Y394527D01*
Y356527D02*
Y394527D01*
X805250Y611777D02*
Y614277D01*
X809500Y618527D01*
X849500D01*
X801250Y611777D02*
Y621277D01*
X806500Y626527D01*
X838500D01*
X716026Y535951D02*
X736346D01*
X736346Y535951D01*
X719500Y587527D02*
X753000D01*
X716500Y584527D02*
X719500Y587527D01*
X742500Y591527D02*
X753000D01*
X740500Y593527D02*
X742500Y591527D01*
X710500Y593527D02*
X740500D01*
X752586Y549527D02*
Y559113D01*
X758500Y611777D02*
X761250D01*
X850500Y534527D02*
Y542527D01*
X841500Y525527D02*
X850500Y534527D01*
X813500Y556527D02*
Y559527D01*
X1012500Y717527D02*
Y719527D01*
X1028485Y735512D01*
Y738527D01*
X1291500Y566512D02*
Y673527D01*
Y566512D02*
X1319495Y538517D01*
X1379500Y694527D02*
X1404154Y719181D01*
Y720889D01*
X1429554Y720581D02*
Y720889D01*
X716026Y551951D02*
X716924D01*
X732500Y567527D01*
X753000D01*
X747500Y579527D02*
X753000D01*
X740500Y572527D02*
X747500Y579527D01*
X729500Y572527D02*
X740500D01*
X722500Y565527D02*
X729500Y572527D01*
X702500Y565527D02*
X722500D01*
X722500Y576527D02*
X723500D01*
X737500Y580527D02*
X740500Y583527D01*
X727500Y580527D02*
X737500D01*
X723500Y576527D02*
X727500Y580527D01*
X740500Y583527D02*
X753000D01*
X823500Y587527D02*
X827500Y583527D01*
X850500D01*
X968500Y701527D01*
D27*
X790500Y658527D02*
X802500D01*
X791500Y640527D02*
X800500D01*
X1123612Y1181263D02*
Y1192579D01*
X1328520Y1086355D02*
Y1143355D01*
X1292522Y1050357D02*
X1328520Y1086355D01*
X1292522Y1038655D02*
Y1050357D01*
X1254422Y1182165D02*
X1281520Y1155067D01*
Y1072355D02*
Y1155067D01*
X1241976Y1032811D02*
X1281520Y1072355D01*
X1404203Y1216129D02*
X1429603D01*
X1378803D02*
X1404203D01*
X1378803Y1190729D02*
Y1216129D01*
X1058020Y920855D02*
X1058520Y921355D01*
X1046840Y920855D02*
X1058020D01*
X1291520Y1037653D02*
X1292522Y1038655D01*
X1279606Y989379D02*
X1291520Y1001293D01*
X1312842Y1038655D02*
X1327520Y1023977D01*
Y991465D02*
X1329606Y989379D01*
X1353403Y1077238D02*
Y1190729D01*
X1314820Y1038655D02*
X1353403Y1077238D01*
X1312842Y1038655D02*
X1314820D01*
X678520Y1111355D02*
X678604Y1111439D01*
Y1121459D01*
X926024Y892859D02*
X926520Y893355D01*
X916094Y892859D02*
X926024D01*
X1381520Y1143355D02*
X1382184Y1144019D01*
Y1163369D01*
X1241976Y1016307D02*
Y1032811D01*
X1378803Y1166750D02*
X1382184Y1163369D01*
X1378803Y1166750D02*
Y1190729D01*
X1353403D02*
Y1216129D01*
X1046840Y920855D02*
X1046904Y920919D01*
Y942389D01*
X1026520Y895855D02*
X1028006Y897341D01*
X1231076Y964509D02*
X1239182Y972615D01*
X1203622Y964509D02*
X1231076D01*
X1169078D02*
X1181778D01*
X1203622D01*
X1210668Y874891D02*
X1223180D01*
X1178476Y907083D02*
X1210668Y874891D01*
X1171110Y907083D02*
X1178476D01*
X1223180Y874891D02*
X1224128Y875839D01*
X1273472D01*
X1252678Y1016307D02*
X1279606Y989379D01*
X1241976Y1016307D02*
X1252678D01*
X1203622Y964509D02*
Y980743D01*
X1156378Y964509D02*
X1169078D01*
X1146980D02*
X1156378D01*
X1247056Y1174799D02*
X1254422Y1182165D01*
X1177714Y1174799D02*
X1247056D01*
X1103037Y1213154D02*
X1123612Y1192579D01*
X1022193Y1213154D02*
X1103037D01*
X1168824Y1122983D02*
X1175936Y1130095D01*
X1168824Y1105713D02*
Y1122983D01*
X950072Y1194923D02*
X950638Y1194357D01*
X927975Y1194923D02*
X950072D01*
X1153174Y1206619D02*
X1165554Y1218999D01*
X1177714D01*
X1022193Y1116121D02*
Y1184154D01*
X946505Y1115433D02*
Y1141594D01*
X927975Y1160124D02*
X946505Y1141594D01*
X927975Y1160124D02*
Y1194923D01*
X598340Y1188515D02*
Y1202485D01*
X669460Y1226615D02*
X683430D01*
X969180Y999285D02*
Y1009445D01*
Y999285D02*
X980033Y988432D01*
X987751D01*
X1028006Y897341D02*
Y942335D01*
X1174780Y1130095D02*
X1175936D01*
X1123612Y1181263D02*
X1174780Y1130095D01*
X991520Y1073355D02*
X1001610Y1078003D01*
X1021505Y1087170D01*
X1273472Y920039D02*
X1327008D01*
X1329606Y922637D02*
Y989379D01*
X1327520Y991465D02*
Y1023977D01*
X987751Y988432D02*
X1055251D01*
X1291520Y1001293D02*
Y1037653D01*
D28*
X786500Y662527D02*
Y698527D01*
D29*
X770907Y761011D02*
X786500Y745417D01*
X770906Y761011D02*
X770907D01*
X612492D02*
X770906D01*
X786500Y745417D02*
X786500D01*
Y698527D02*
Y745417D01*
D30*
Y640527D02*
Y641527D01*
X788250Y623497D02*
Y633777D01*
X786500Y635527D02*
X788250Y633777D01*
X786500Y635527D02*
X786500Y641527D01*
D31*
X1317500Y514527D02*
Y517527D01*
X1333465Y533492D01*
Y538517D01*
X608804Y851129D02*
X609294D01*
X1076520Y904355D02*
Y973355D01*
X1068020Y895855D02*
X1076520Y904355D01*
X1046840Y895855D02*
X1068020D01*
X670520Y1193385D02*
X680301Y1203166D01*
X719825Y838249D02*
X743374D01*
X711824Y830248D02*
X719825Y838249D01*
X743374D02*
X750994Y845869D01*
X729404Y821739D02*
X751154Y799989D01*
X840150Y780085D02*
X853864Y793799D01*
X750668Y780085D02*
X840150D01*
X741644Y789109D02*
X750668Y780085D01*
X741644Y789109D02*
Y789179D01*
X740834Y789989D02*
X741644Y789179D01*
X752264Y794611D02*
X759520Y787355D01*
X752264Y794611D02*
Y798879D01*
X783504Y796339D02*
X794934Y807769D01*
X911520Y875355D02*
Y875843D01*
X905934Y881429D02*
X911520Y875843D01*
X817674Y951279D02*
X833444D01*
X1402504Y1189030D02*
X1404203Y1190729D01*
X1402504Y1163369D02*
Y1189030D01*
X987520Y1013355D02*
X987751Y1013586D01*
Y1028432D01*
X1055251D01*
X700194Y817929D02*
X712894D01*
X698924D02*
X700194D01*
X905934Y881429D02*
Y928419D01*
X909744Y932229D01*
X801794Y881429D02*
Y906829D01*
X795444Y913179D02*
X801794Y906829D01*
X770674Y913179D02*
X795444D01*
X801794Y881429D02*
X816574Y866649D01*
X782744Y900479D02*
X785284Y897939D01*
Y876349D02*
Y897939D01*
Y876349D02*
X796714Y864919D01*
X770674Y900479D02*
X782744D01*
X704004Y1121459D02*
X705274Y1120189D01*
X789094Y925879D02*
X817674D01*
X909744Y932229D02*
Y951279D01*
X919904Y961439D01*
X922444D01*
X792904Y877619D02*
Y904289D01*
Y877619D02*
X806493Y864030D01*
Y820850D02*
Y864030D01*
Y820850D02*
X815764Y811579D01*
Y809039D02*
Y811579D01*
X738294Y801419D02*
X740834Y798879D01*
Y789989D02*
Y798879D01*
X752264Y823009D02*
Y842059D01*
Y819199D02*
Y823009D01*
Y845869D02*
X753534D01*
X750994D02*
X752264D01*
X841164Y831899D02*
X846244D01*
X829734D02*
X841164D01*
X816574Y853949D02*
Y866649D01*
Y853949D02*
X818304Y852219D01*
X710735Y853870D02*
X714164Y857299D01*
X691685Y853870D02*
X710735D01*
X679874Y842059D02*
X691685Y853870D01*
X871644Y892859D02*
X895774D01*
X822114Y831899D02*
X829734D01*
X634204Y825729D02*
X657194D01*
X661713Y830248D01*
X711824D01*
X657014Y793799D02*
X679874D01*
X650484Y800329D02*
X657014Y793799D01*
X634204Y800329D02*
X650484D01*
X679874Y793799D02*
X679874Y793799D01*
Y817929D01*
X804334Y963979D02*
X817674D01*
X770674Y951279D02*
X771134Y951739D01*
X700194Y866189D02*
X709084D01*
X588434Y882699D02*
X599864Y894129D01*
X588434Y850949D02*
Y882699D01*
Y850949D02*
X601134Y838249D01*
X621324D02*
X634204Y851129D01*
X601134Y838249D02*
X621324D01*
X889620Y1194923D02*
X898975D01*
X861484Y1223059D02*
X889620Y1194923D01*
X763694Y1223059D02*
X861484D01*
X873532Y1226251D02*
X898502D01*
X866564Y1233219D02*
X873532Y1226251D01*
X757344Y1233219D02*
X866564D01*
X727291Y1203166D02*
X757344Y1233219D01*
X713411Y1203166D02*
X727291D01*
X716263Y1175628D02*
X763694Y1223059D01*
X661914Y876529D02*
X672254Y866189D01*
X634204Y876529D02*
X661914D01*
X679874Y866189D02*
Y889049D01*
X678604Y1141779D02*
X704004D01*
X678604D02*
X684069Y1147244D01*
X653204Y1113839D02*
X668444Y1098599D01*
X721784Y848409D02*
X729404D01*
X714164Y840789D02*
X721784Y848409D01*
X729404D02*
Y867459D01*
X723054Y801419D02*
X738294D01*
X712894Y791259D02*
X723054Y801419D01*
X889424Y852219D02*
Y864919D01*
X881804Y872539D02*
X889424Y864919D01*
X870374Y872539D02*
X881804D01*
X823384Y867459D02*
X838624Y852219D01*
X841164D01*
X815764Y809039D02*
X843704D01*
X712894Y817929D02*
X721784Y826819D01*
X729404Y821739D02*
Y826819D01*
X853864Y793799D02*
Y818618D01*
X847514Y892859D02*
X856404Y883969D01*
Y866189D02*
Y883969D01*
Y866189D02*
X865294Y857299D01*
X841164Y872539D02*
X853864Y859839D01*
Y818618D02*
Y859839D01*
X853864Y818618D02*
X853864Y818618D01*
X866564Y831899D02*
X871644D01*
X865294D02*
X866564D01*
Y852219D02*
X871644D01*
X865294D02*
X866564D01*
X871644Y831899D02*
X889424D01*
X832914Y872539D02*
X841164D01*
X841164Y872539D02*
X841164Y872539D01*
X861484Y828089D02*
X865294Y831899D01*
X861484Y811579D02*
Y828089D01*
X759884Y913179D02*
X770674D01*
X871644Y831899D02*
X871644Y831899D01*
X796714Y807769D02*
X796714Y807769D01*
X758614Y900479D02*
X770674D01*
X752264Y894129D02*
X758614Y900479D01*
X817674Y887779D02*
X832914Y872539D01*
X846244Y892859D02*
X847514D01*
X817674Y900479D02*
X838624D01*
X922444Y941119D02*
X922444Y941119D01*
X947844D01*
X916094Y934769D02*
X922444Y941119D01*
X916094Y916989D02*
Y934769D01*
X895774Y916989D02*
X899584D01*
X885614D02*
X895774D01*
X838624D02*
X851324D01*
X833544D02*
X838624D01*
X829734Y913179D02*
X833544Y916989D01*
X817674Y913179D02*
X829734D01*
X871644Y916989D02*
X871644Y916989D01*
X871644Y892859D02*
X871644Y892859D01*
Y916989D02*
Y941119D01*
X893234Y941119D02*
X897044D01*
X880534Y953819D02*
X893234Y941119D01*
X828464Y941119D02*
X851324D01*
X825924Y938579D02*
X828464Y941119D01*
X817674Y938579D02*
X825924D01*
X832274Y963979D02*
X838624Y970329D01*
X817674Y963979D02*
X832274D01*
X743120Y910385D02*
X745660Y912925D01*
X749470D01*
X756740Y909913D02*
Y910035D01*
X759884Y913179D01*
X734605Y887779D02*
X756740Y909913D01*
X668444Y1098091D02*
Y1098599D01*
X851324Y941119D02*
Y941119D01*
X864024Y953819D01*
X880534D01*
X833444Y951279D02*
X838270Y956105D01*
X857420D01*
X668444Y1098091D02*
X696130Y1070405D01*
X704004Y1011985D02*
X704004Y1011985D01*
X704004Y1011985D02*
Y1121459D01*
X599864Y894129D02*
X620184D01*
X640250Y914195D01*
X679620D01*
X754550Y1008175D02*
X781855D01*
X922444Y961439D02*
Y963471D01*
X913681Y972234D02*
X922444Y963471D01*
X901870Y1010715D02*
X913681Y998904D01*
Y972234D02*
Y998904D01*
X871390Y1008175D02*
X873930Y1010715D01*
X890440D01*
X901870D01*
X948860Y1009445D02*
Y1024685D01*
X926000Y1010715D02*
Y1024685D01*
X802810Y995475D02*
X812970D01*
X798746Y951279D02*
X817674D01*
X793920Y956105D02*
X798746Y951279D01*
X793920Y956105D02*
Y971345D01*
X799000Y976425D01*
X782490Y995475D02*
Y1008175D01*
Y1008810D01*
X703750Y1219525D02*
Y1226615D01*
X684170Y1199945D02*
X703750Y1219525D01*
X630090Y1121205D02*
X652950D01*
X653204Y1121459D01*
X670520Y1164355D02*
Y1193385D01*
X653204Y1141779D02*
Y1147039D01*
X670520Y1164355D01*
X742866Y963979D02*
X770674D01*
X835830Y1008175D02*
X844720Y1017065D01*
Y1020875D01*
Y1022145D01*
X782490Y1008810D02*
Y1018335D01*
X792650Y1008175D01*
X835830D01*
X799000Y976425D02*
X828210D01*
X843450Y991665D01*
Y994205D01*
Y995475D01*
X725340Y981505D02*
X734103Y972742D01*
X742866Y963979D01*
X709084Y866189D02*
X716450Y873555D01*
X704004Y991411D02*
Y1011985D01*
Y991411D02*
X744136Y951279D01*
X770674D01*
X696130Y991665D02*
Y1070405D01*
Y991665D02*
X749216Y938579D01*
X770674D01*
X716450Y873555D02*
Y940865D01*
X722800Y947215D01*
X730420D01*
X817674Y925879D02*
X833036D01*
X833290Y925625D01*
X699940Y940865D02*
X713910Y954835D01*
X704004Y1011985D02*
X725340D01*
X684069Y1147244D02*
Y1175628D01*
X698924Y840789D02*
X714164D01*
X857420Y956105D02*
X871644Y970329D01*
X781855Y1008175D02*
X782490Y1008810D01*
X812970Y995475D02*
X823130D01*
X729404Y887779D02*
X734605D01*
X802810Y1022145D02*
X812970D01*
X824400D01*
X772584Y796339D02*
X783504D01*
X794934Y807769D02*
X796714D01*
X796714Y807769D02*
Y831899D01*
X752264Y864919D02*
Y894129D01*
X796714Y852219D02*
Y864919D01*
X653204Y1113839D02*
Y1121459D01*
X770674Y843969D02*
Y887779D01*
Y843969D02*
X772584Y842059D01*
X680301Y1203166D02*
X684411D01*
X725340Y981505D02*
Y991665D01*
X698924Y791259D02*
X712894D01*
X838624Y900479D02*
X846244Y892859D01*
X865294Y852219D02*
Y857299D01*
X713069Y1175628D02*
X716263D01*
X699940Y938325D02*
Y940865D01*
X838624Y970329D02*
X851324D01*
X871644Y892859D02*
Y916989D01*
X721784Y826819D02*
X729404D01*
X751154Y799989D02*
X773020Y821855D01*
X729150Y910385D02*
X743120D01*
X672254Y866189D02*
X679874D01*
X679620Y914195D02*
Y938325D01*
D32*
X609828Y761043D02*
D03*
D33*
X772584Y823009D02*
D03*
X752264D02*
D03*
X772584Y845869D02*
D03*
X752264D02*
D03*
X752264Y868729D02*
D03*
X772584D02*
D03*
X948860Y1009445D02*
D03*
X969180D02*
D03*
X844720Y1020875D02*
D03*
X824400D02*
D03*
X782490D02*
D03*
X802810D02*
D03*
X782490Y994205D02*
D03*
X802810D02*
D03*
X871644Y941119D02*
D03*
X851324D02*
D03*
X823130Y994205D02*
D03*
X843450D02*
D03*
X871644Y916989D02*
D03*
X851324D02*
D03*
X871390Y970075D02*
D03*
X851070D02*
D03*
X1026520Y920855D02*
D03*
X1046840D02*
D03*
X1026520Y895855D02*
D03*
X1046840D02*
D03*
X1382184Y1163369D02*
D03*
X1402504D02*
D03*
X1312842Y1038655D02*
D03*
X1292522D02*
D03*
X1151044Y931467D02*
D03*
X1171364D02*
D03*
X1171110Y907083D02*
D03*
X1150790D02*
D03*
X701210Y914195D02*
D03*
X680890D02*
D03*
X701210Y938325D02*
D03*
X680890D02*
D03*
X703750Y1226615D02*
D03*
X683430D02*
D03*
X700194Y889049D02*
D03*
X679874D02*
D03*
X699940Y865935D02*
D03*
X679620D02*
D03*
X679874Y842059D02*
D03*
X700194D02*
D03*
X700194Y817929D02*
D03*
X679874D02*
D03*
X700194Y793799D02*
D03*
X679874D02*
D03*
X916094Y916989D02*
D03*
X895774D02*
D03*
X895774Y892859D02*
D03*
X916094D02*
D03*
X772584Y798879D02*
D03*
X752264D02*
D03*
X815764Y809039D02*
D03*
X795444D02*
D03*
X843704D02*
D03*
X864024D02*
D03*
D34*
X987751Y1028432D02*
D03*
X1055251D02*
D03*
Y988432D02*
D03*
D35*
X987751D02*
D03*
D36*
X1223180Y874891D02*
D03*
Y914891D02*
D03*
D37*
X1328098Y921129D02*
D03*
Y872129D02*
D03*
D38*
X1329606Y989379D02*
D03*
X1279606D02*
D03*
D39*
X1177714Y1218999D02*
D03*
Y1174799D02*
D03*
X1241976Y972107D02*
D03*
Y1016307D02*
D03*
X1273726Y875841D02*
D03*
Y920041D02*
D03*
X1168824Y1061513D02*
D03*
Y1105713D02*
D03*
X991024Y911399D02*
D03*
Y955599D02*
D03*
D40*
X1181778Y1013509D02*
D03*
X1169078D02*
D03*
X1143678D02*
D03*
X1181778Y964509D02*
D03*
X1169078D02*
D03*
X1156378D02*
D03*
X1143678D02*
D03*
D41*
X1028006Y942335D02*
D03*
X1046904Y942389D02*
D03*
X1037506Y967335D02*
D03*
D42*
X1254422Y1182165D02*
D03*
D43*
Y1094535D02*
D03*
D44*
X817674Y887779D02*
D03*
Y900479D02*
D03*
Y913179D02*
D03*
Y925879D02*
D03*
Y938579D02*
D03*
Y951279D02*
D03*
Y963979D02*
D03*
X770674Y887779D02*
D03*
Y900479D02*
D03*
Y913179D02*
D03*
Y925879D02*
D03*
Y938579D02*
D03*
Y951279D02*
D03*
Y963979D02*
D03*
D45*
X871390Y1008175D02*
D03*
X754550D02*
D03*
D46*
X713170Y1199945D02*
D03*
X684170D02*
D03*
X713170Y1169465D02*
D03*
X684170D02*
D03*
X927502Y1226251D02*
D03*
X898502D02*
D03*
X927975Y1194923D02*
D03*
X898975D02*
D03*
D47*
X1096509Y1088366D02*
X1096512Y1083366D01*
X1096509Y1088366D02*
Y1088366D01*
X1021505Y1097330D02*
X1021758Y1097583D01*
X1021505Y1087170D02*
Y1097330D01*
X1096512Y1083346D02*
Y1083366D01*
X1096516Y1073346D02*
Y1073366D01*
Y1073346D02*
X1096520Y1064355D01*
X1096514Y1078366D02*
X1096516Y1073366D01*
X1096512Y1083346D02*
X1096514Y1078366D01*
X1096507Y1093346D02*
X1096509Y1088366D01*
X1096507Y1093346D02*
Y1093366D01*
X1096505Y1098091D02*
X1096507Y1093366D01*
D48*
X1075622Y844957D02*
Y845429D01*
X971520Y800855D02*
X1031520D01*
X1021758Y1097583D02*
Y1107743D01*
X1031520Y800855D02*
X1075622Y844957D01*
X1101022Y1053355D02*
Y1063355D01*
Y1064547D01*
Y1022429D02*
Y1053355D01*
D49*
X1241468Y972615D02*
X1241976Y972107D01*
X1239182Y972615D02*
X1241468D01*
X1169078Y933753D02*
X1171364Y931467D01*
X1191176Y1013509D02*
X1203622Y1001063D01*
X1181778Y1013509D02*
X1191176D01*
D50*
X1254422Y1077263D02*
Y1094535D01*
X1212512Y1035353D02*
X1254422Y1077263D01*
X1158156Y1035353D02*
X1212512D01*
X1143678Y1020875D02*
X1158156Y1035353D01*
X1143678Y1013509D02*
Y1020875D01*
X1240452Y1094535D02*
X1254422D01*
X1207430Y1061513D02*
X1240452Y1094535D01*
X1168824Y1061513D02*
X1207430D01*
D51*
X1429554Y746289D02*
D03*
Y720889D02*
D03*
X1404154Y746289D02*
D03*
Y720889D02*
D03*
X1378754Y746289D02*
D03*
Y720889D02*
D03*
X1353354Y746289D02*
D03*
X608880Y406437D02*
D03*
X634280D02*
D03*
X608880Y381037D02*
D03*
X634280D02*
D03*
X608880Y355637D02*
D03*
X634280D02*
D03*
X608880Y330237D02*
D03*
X608804Y800329D02*
D03*
X634204Y825729D02*
D03*
X608804D02*
D03*
X634204Y851129D02*
D03*
X608804D02*
D03*
X634204Y876529D02*
D03*
X608804D02*
D03*
X1353403Y1216129D02*
D03*
X1378803Y1190729D02*
D03*
Y1216129D02*
D03*
X1404203Y1190729D02*
D03*
Y1216129D02*
D03*
X1429603Y1190729D02*
D03*
Y1216129D02*
D03*
D52*
X1353354Y720889D02*
D03*
X1353403Y1190729D02*
D03*
D53*
X634280Y330237D02*
D03*
X634204Y800329D02*
D03*
D54*
X936500Y356527D02*
D03*
X921500D02*
D03*
X906500D02*
D03*
X891500D02*
D03*
X876500D02*
D03*
D55*
X861500D02*
D03*
D56*
X1196500Y408527D02*
D03*
X1221500D02*
D03*
X1246500D02*
D03*
X1296500D02*
D03*
X1271500D02*
D03*
X1171500Y388527D02*
D03*
Y363527D02*
D03*
X1196500Y388527D02*
D03*
Y363527D02*
D03*
X1221500Y388527D02*
D03*
X1246500D02*
D03*
X1271500D02*
D03*
X1221500Y363527D02*
D03*
Y338527D02*
D03*
X1196500D02*
D03*
X1171500D02*
D03*
X1146500D02*
D03*
Y313527D02*
D03*
X1171500D02*
D03*
X1196500D02*
D03*
X1221500D02*
D03*
X1246500D02*
D03*
Y338527D02*
D03*
Y363527D02*
D03*
X1271500Y318527D02*
D03*
Y338527D02*
D03*
Y363527D02*
D03*
X1296500Y318527D02*
D03*
Y338527D02*
D03*
Y363527D02*
D03*
Y388527D02*
D03*
X1321500Y318527D02*
D03*
Y338527D02*
D03*
Y363527D02*
D03*
Y388527D02*
D03*
Y413527D02*
D03*
X1446500Y318527D02*
D03*
X1421500D02*
D03*
X1396500D02*
D03*
X1371500D02*
D03*
X1346500D02*
D03*
X1446500Y338527D02*
D03*
X1421500D02*
D03*
X1396500D02*
D03*
X1371500D02*
D03*
X1346500D02*
D03*
Y363527D02*
D03*
Y388527D02*
D03*
X1371500Y363527D02*
D03*
X1396500D02*
D03*
X1421500D02*
D03*
X1446500D02*
D03*
Y388527D02*
D03*
X1421500D02*
D03*
X1396500D02*
D03*
X1371500D02*
D03*
X1346500Y413527D02*
D03*
X1421500Y438527D02*
D03*
X1446500Y413527D02*
D03*
X1421500D02*
D03*
X1396500D02*
D03*
X1371500D02*
D03*
X1346500Y438527D02*
D03*
X1396500D02*
D03*
X1371500D02*
D03*
Y463527D02*
D03*
Y613527D02*
D03*
X1396500Y638527D02*
D03*
X1371500D02*
D03*
Y663527D02*
D03*
X1396500D02*
D03*
X1421500Y688527D02*
D03*
Y663527D02*
D03*
X1446500D02*
D03*
Y688527D02*
D03*
Y713527D02*
D03*
Y738527D02*
D03*
Y763527D02*
D03*
X1421500D02*
D03*
X1396500D02*
D03*
X1371500D02*
D03*
X1346500D02*
D03*
X1306500Y488527D02*
D03*
Y513527D02*
D03*
X1281500Y488527D02*
D03*
X1256500D02*
D03*
X1271500Y538527D02*
D03*
X1281500Y513527D02*
D03*
Y563527D02*
D03*
Y603527D02*
D03*
Y643527D02*
D03*
X1256500Y513527D02*
D03*
Y563527D02*
D03*
Y603527D02*
D03*
Y643527D02*
D03*
Y673527D02*
D03*
X1221500Y488527D02*
D03*
Y513527D02*
D03*
X1196500D02*
D03*
X1221500Y538527D02*
D03*
Y563527D02*
D03*
Y583527D02*
D03*
Y603527D02*
D03*
Y623527D02*
D03*
Y643527D02*
D03*
Y658527D02*
D03*
Y673527D02*
D03*
X1196500D02*
D03*
Y658527D02*
D03*
Y643527D02*
D03*
Y623527D02*
D03*
Y603527D02*
D03*
Y583527D02*
D03*
Y563527D02*
D03*
Y538527D02*
D03*
Y488527D02*
D03*
X1181500Y513527D02*
D03*
X1171500Y488527D02*
D03*
Y538527D02*
D03*
Y563527D02*
D03*
Y583527D02*
D03*
Y603527D02*
D03*
Y623527D02*
D03*
Y643527D02*
D03*
Y658527D02*
D03*
Y673527D02*
D03*
X1321500Y563527D02*
D03*
Y588527D02*
D03*
Y613527D02*
D03*
Y638527D02*
D03*
Y658527D02*
D03*
Y678527D02*
D03*
X1416500Y733527D02*
D03*
X1391500D02*
D03*
X1296500Y443527D02*
D03*
X1271500D02*
D03*
X1246500D02*
D03*
X1221500D02*
D03*
X1196500D02*
D03*
X1166500Y438527D02*
D03*
X1151500Y423527D02*
D03*
X1136500Y408527D02*
D03*
X1121500Y393527D02*
D03*
X1131500Y313527D02*
D03*
X1111500D02*
D03*
Y328527D02*
D03*
X1091500Y313527D02*
D03*
Y328527D02*
D03*
X931500Y388527D02*
D03*
X946500Y373527D02*
D03*
X931500D02*
D03*
X1146500Y623527D02*
D03*
Y643527D02*
D03*
Y658527D02*
D03*
Y673527D02*
D03*
X1156500Y568527D02*
D03*
X1151500Y583527D02*
D03*
X1146500Y603527D02*
D03*
X1156500Y548527D02*
D03*
Y513527D02*
D03*
X1146500Y488527D02*
D03*
X1131500Y468527D02*
D03*
X1116500Y448527D02*
D03*
X1101500Y433527D02*
D03*
X1081500Y423527D02*
D03*
X1061500Y413527D02*
D03*
X1036500Y408527D02*
D03*
X1011500D02*
D03*
X986500Y413527D02*
D03*
X961500Y423527D02*
D03*
X936500Y438527D02*
D03*
X916500Y458527D02*
D03*
X901500Y478527D02*
D03*
X891500Y498527D02*
D03*
X876500D02*
D03*
X961500Y658527D02*
D03*
X1321500Y703527D02*
D03*
X1296500D02*
D03*
X1321500Y718527D02*
D03*
X1296500D02*
D03*
X1271500D02*
D03*
X1321500Y733527D02*
D03*
Y748527D02*
D03*
Y763527D02*
D03*
X1296500D02*
D03*
Y748527D02*
D03*
Y733527D02*
D03*
X1271500D02*
D03*
Y763527D02*
D03*
Y748527D02*
D03*
X1246500Y733527D02*
D03*
Y748527D02*
D03*
Y763527D02*
D03*
X1221500Y733527D02*
D03*
Y748527D02*
D03*
Y763527D02*
D03*
X1196500Y733527D02*
D03*
Y748527D02*
D03*
Y763527D02*
D03*
X1171500Y733527D02*
D03*
Y748527D02*
D03*
Y763527D02*
D03*
X1001500Y728527D02*
D03*
X986500Y713527D02*
D03*
X1146500Y733527D02*
D03*
Y748527D02*
D03*
Y763527D02*
D03*
X1126500Y623527D02*
D03*
Y643527D02*
D03*
X1101500D02*
D03*
X1126500Y658527D02*
D03*
Y673527D02*
D03*
X1101500Y658527D02*
D03*
Y673527D02*
D03*
X1081500Y658527D02*
D03*
Y673527D02*
D03*
X1056500D02*
D03*
X1031500D02*
D03*
X1006500D02*
D03*
X981500Y668527D02*
D03*
X1121500Y733527D02*
D03*
Y748527D02*
D03*
Y763527D02*
D03*
X1096500Y733527D02*
D03*
Y748527D02*
D03*
Y763527D02*
D03*
X1071500Y733527D02*
D03*
Y748527D02*
D03*
Y763527D02*
D03*
X1046500Y733527D02*
D03*
Y763527D02*
D03*
Y748527D02*
D03*
X1021500D02*
D03*
Y763527D02*
D03*
X1001500Y748527D02*
D03*
Y763527D02*
D03*
X981500Y748527D02*
D03*
Y763527D02*
D03*
X961500Y718527D02*
D03*
Y733527D02*
D03*
Y748527D02*
D03*
Y763527D02*
D03*
X941500Y703527D02*
D03*
Y718527D02*
D03*
Y733527D02*
D03*
Y763527D02*
D03*
Y748527D02*
D03*
X901500Y673527D02*
D03*
X921500Y688527D02*
D03*
X901500D02*
D03*
X921500Y703527D02*
D03*
X901500D02*
D03*
X921500Y718527D02*
D03*
Y733527D02*
D03*
Y748527D02*
D03*
Y763527D02*
D03*
X901500D02*
D03*
Y718527D02*
D03*
Y733527D02*
D03*
Y748527D02*
D03*
X1071500Y358527D02*
D03*
X1081500Y353527D02*
D03*
Y368527D02*
D03*
X671500D02*
D03*
X651500D02*
D03*
X1101500Y383527D02*
D03*
X1061500Y348527D02*
D03*
Y363527D02*
D03*
X1026500D02*
D03*
Y348527D02*
D03*
X996500Y333527D02*
D03*
X971500D02*
D03*
X1021500Y313527D02*
D03*
X996500D02*
D03*
X971500D02*
D03*
X946500D02*
D03*
X921500D02*
D03*
X896500D02*
D03*
X871500D02*
D03*
X846500D02*
D03*
Y333527D02*
D03*
X821500Y313527D02*
D03*
Y333527D02*
D03*
X796500Y313527D02*
D03*
Y333527D02*
D03*
X731500D02*
D03*
X771500D02*
D03*
X746500D02*
D03*
X771500Y313527D02*
D03*
X746500D02*
D03*
X721500D02*
D03*
X696500D02*
D03*
X671500D02*
D03*
X646500D02*
D03*
X621500D02*
D03*
X591500D02*
D03*
X906500Y603527D02*
D03*
X891500Y588527D02*
D03*
Y573527D02*
D03*
X876500D02*
D03*
X891500Y513527D02*
D03*
X876500D02*
D03*
X891500Y528527D02*
D03*
X876500D02*
D03*
X891500Y543527D02*
D03*
Y558527D02*
D03*
X876500Y543527D02*
D03*
Y558527D02*
D03*
X871500Y453527D02*
D03*
X856500Y468527D02*
D03*
X836500Y488527D02*
D03*
X821500Y503527D02*
D03*
X806500Y518527D02*
D03*
Y528527D02*
D03*
X896500Y383527D02*
D03*
X871500D02*
D03*
X856500D02*
D03*
X871500Y403527D02*
D03*
X856500D02*
D03*
Y423527D02*
D03*
X836500Y368527D02*
D03*
Y383527D02*
D03*
Y403527D02*
D03*
Y423527D02*
D03*
Y443527D02*
D03*
X811500Y368527D02*
D03*
X786500D02*
D03*
X811500Y383527D02*
D03*
Y403527D02*
D03*
Y423527D02*
D03*
Y443527D02*
D03*
Y463527D02*
D03*
X786500Y483527D02*
D03*
Y463527D02*
D03*
Y443527D02*
D03*
Y423527D02*
D03*
Y403527D02*
D03*
Y383527D02*
D03*
X761500Y483527D02*
D03*
Y463527D02*
D03*
Y443527D02*
D03*
Y423527D02*
D03*
Y403527D02*
D03*
Y383527D02*
D03*
Y363527D02*
D03*
X736500D02*
D03*
Y383527D02*
D03*
Y403527D02*
D03*
Y423527D02*
D03*
Y443527D02*
D03*
Y463527D02*
D03*
Y483527D02*
D03*
Y503527D02*
D03*
Y523527D02*
D03*
X591500Y323527D02*
D03*
Y343527D02*
D03*
X581500Y333527D02*
D03*
X591500Y363527D02*
D03*
X581500Y353527D02*
D03*
Y373527D02*
D03*
X596500Y413527D02*
D03*
Y393527D02*
D03*
X581500D02*
D03*
Y413527D02*
D03*
X596500Y423527D02*
D03*
X621500D02*
D03*
X681500Y433527D02*
D03*
X636500D02*
D03*
X651500Y423527D02*
D03*
X671500D02*
D03*
X651500Y443527D02*
D03*
X671500D02*
D03*
X691500D02*
D03*
X671500Y463527D02*
D03*
X691500D02*
D03*
Y483527D02*
D03*
Y503527D02*
D03*
Y523527D02*
D03*
Y583527D02*
D03*
X681500Y598527D02*
D03*
X651500Y628527D02*
D03*
X836500Y543527D02*
D03*
X841500Y558527D02*
D03*
X826500D02*
D03*
X871500Y628527D02*
D03*
X841500Y598527D02*
D03*
X826500Y608527D02*
D03*
X881500Y643527D02*
D03*
Y658527D02*
D03*
Y673527D02*
D03*
Y688527D02*
D03*
Y703527D02*
D03*
Y718527D02*
D03*
Y733527D02*
D03*
Y748527D02*
D03*
Y763527D02*
D03*
X821500Y648527D02*
D03*
X861500Y643527D02*
D03*
X841500D02*
D03*
X861500Y658527D02*
D03*
X841500D02*
D03*
X861500Y673527D02*
D03*
Y688527D02*
D03*
Y703527D02*
D03*
Y718527D02*
D03*
Y733527D02*
D03*
Y748527D02*
D03*
Y763527D02*
D03*
X741500Y658527D02*
D03*
X711500Y613527D02*
D03*
X686500Y628527D02*
D03*
X691500Y613527D02*
D03*
X671500D02*
D03*
Y628527D02*
D03*
X841500Y763527D02*
D03*
Y748527D02*
D03*
Y733527D02*
D03*
Y718527D02*
D03*
Y703527D02*
D03*
X821500Y763527D02*
D03*
Y748527D02*
D03*
Y733527D02*
D03*
Y718527D02*
D03*
Y703527D02*
D03*
Y688527D02*
D03*
X841500D02*
D03*
Y673527D02*
D03*
X821500D02*
D03*
X801500D02*
D03*
X771500D02*
D03*
X751500D02*
D03*
X731500D02*
D03*
X711500D02*
D03*
X631500Y643527D02*
D03*
X691500D02*
D03*
X671500D02*
D03*
X651500D02*
D03*
X691500Y658527D02*
D03*
X671500D02*
D03*
X651500D02*
D03*
X631500D02*
D03*
X611500D02*
D03*
X591500D02*
D03*
X691500Y673527D02*
D03*
X671500D02*
D03*
X651500D02*
D03*
X631500D02*
D03*
X611500D02*
D03*
X591500D02*
D03*
X1279500Y702527D02*
D03*
X849500Y618527D02*
D03*
X838500Y626527D02*
D03*
X716500Y584527D02*
D03*
X710500Y593527D02*
D03*
X1291500Y673527D02*
D03*
X821166Y538527D02*
D03*
X752586D02*
D03*
X743500Y606527D02*
D03*
X850500Y542527D02*
D03*
Y575527D02*
D03*
X1238500Y717527D02*
D03*
Y459527D02*
D03*
X722500Y576527D02*
D03*
X702500Y565527D02*
D03*
X1019020Y1098355D02*
D03*
X1116520Y1043355D02*
D03*
Y1053355D02*
D03*
Y1063355D02*
D03*
Y1073355D02*
D03*
Y1083355D02*
D03*
Y1093355D02*
D03*
Y1103355D02*
D03*
X1101520Y1043355D02*
D03*
X1101022Y1053355D02*
D03*
Y1063355D02*
D03*
X1101520Y1073355D02*
D03*
Y1083355D02*
D03*
Y1093355D02*
D03*
Y1103355D02*
D03*
X1086520Y1043355D02*
D03*
Y1053355D02*
D03*
Y1063355D02*
D03*
Y1073355D02*
D03*
Y1083355D02*
D03*
Y1093355D02*
D03*
Y1103355D02*
D03*
X1071520Y1043355D02*
D03*
Y1053355D02*
D03*
Y1063355D02*
D03*
Y1073355D02*
D03*
Y1083355D02*
D03*
Y1093355D02*
D03*
Y1103355D02*
D03*
X1046520Y1093355D02*
D03*
X1031520D02*
D03*
X1006520D02*
D03*
X991520D02*
D03*
X1006520Y1103355D02*
D03*
X1031520D02*
D03*
X1046520D02*
D03*
X991520D02*
D03*
X1061520Y828355D02*
D03*
X1076520Y783355D02*
D03*
X1061520D02*
D03*
X1076520Y798355D02*
D03*
X1061520D02*
D03*
X1076520Y813355D02*
D03*
X1061520D02*
D03*
X1046520Y783355D02*
D03*
X1031520D02*
D03*
Y798355D02*
D03*
X1046520D02*
D03*
Y813355D02*
D03*
X1031520D02*
D03*
X1046520Y828355D02*
D03*
Y843355D02*
D03*
X1031520Y828355D02*
D03*
Y843355D02*
D03*
X1016520Y828355D02*
D03*
Y843355D02*
D03*
X1001520D02*
D03*
Y828355D02*
D03*
X986520D02*
D03*
Y843355D02*
D03*
X971520D02*
D03*
Y828355D02*
D03*
X956520D02*
D03*
Y843355D02*
D03*
X941520Y828355D02*
D03*
Y843355D02*
D03*
X1058520Y921355D02*
D03*
X759520Y787355D02*
D03*
X782520Y812355D02*
D03*
X961520Y953355D02*
D03*
X678520Y1111355D02*
D03*
X926520Y893355D02*
D03*
X911520Y875355D02*
D03*
X752520Y926355D02*
D03*
X1076520Y973355D02*
D03*
X987520Y1013355D02*
D03*
X889424Y864919D02*
D03*
X789094Y925879D02*
D03*
X792904Y904289D02*
D03*
X904664Y844599D02*
D03*
X660824Y812849D02*
D03*
X829734Y831899D02*
D03*
X714164Y857299D02*
D03*
X700194Y900479D02*
D03*
X804334Y963979D02*
D03*
X823384Y867459D02*
D03*
X838624Y916989D02*
D03*
X885614D02*
D03*
X749470Y912925D02*
D03*
X812970Y1022145D02*
D03*
X926000Y1024685D02*
D03*
X897044Y972615D02*
D03*
X890440Y1010715D02*
D03*
X812970Y995475D02*
D03*
X782490Y1008175D02*
D03*
X734103Y972742D02*
D03*
X598340Y1154225D02*
D03*
Y1202485D02*
D03*
X669460Y1226615D02*
D03*
X730420Y947215D02*
D03*
X833290Y925625D02*
D03*
X713910Y954835D02*
D03*
X948860Y1024685D02*
D03*
X962830Y1022145D02*
D03*
D57*
X765250Y563527D02*
D03*
Y575527D02*
D03*
Y587527D02*
D03*
Y599527D02*
D03*
X777250Y563527D02*
D03*
Y575527D02*
D03*
Y587527D02*
D03*
Y599527D02*
D03*
X789250Y563527D02*
D03*
Y575527D02*
D03*
Y587527D02*
D03*
Y599527D02*
D03*
X801250Y563527D02*
D03*
Y575527D02*
D03*
Y587527D02*
D03*
Y599527D02*
D03*
D58*
X1353500Y676527D02*
D03*
D59*
X1401520Y838355D02*
D03*
X641520Y1178355D02*
D03*
X950638Y1194357D02*
D03*
D60*
X971520Y800855D02*
D03*
X1004994Y1070659D02*
D03*
D61*
X1153174Y1206619D02*
D03*
X1175174Y1131619D02*
D03*
D62*
X1096505Y1115433D02*
D03*
X1021505D02*
D03*
X946505D02*
D03*
D63*
X1101022Y1022429D02*
D03*
D64*
X1075622Y845429D02*
D03*
D65*
X949002Y984429D02*
D03*
X949022Y882429D02*
D03*
D66*
X1328520Y1161355D02*
D03*
X1022520Y988355D02*
D03*
X1292520Y1010355D02*
D03*
Y1023355D02*
D03*
X1328520Y1143355D02*
D03*
X1381520D02*
D03*
X1327520Y1022355D02*
D03*
X1329520Y955355D02*
D03*
M02*
