G04 Layer_Physical_Order=1*
G04 Layer_Color=255*
%FSLAX44Y44*%
%MOMM*%
G71*
G01*
G75*
%ADD10R,1.6002X1.2700*%
%ADD11R,1.2700X1.6002*%
%ADD12R,1.3970X1.2700*%
%ADD13R,1.5000X1.0000*%
%ADD14R,1.0000X2.4000*%
%ADD15R,3.3000X2.4000*%
%ADD16R,1.6510X1.5240*%
%ADD17R,0.9000X1.3000*%
%ADD18O,0.6000X2.3000*%
%ADD19C,1.5000*%
%ADD20C,0.2540*%
%ADD21C,1.0000*%
%ADD22C,0.5000*%
%ADD23O,1.6510X2.0320*%
%ADD24C,3.0000*%
%ADD25O,1.5240X1.7780*%
%ADD26R,1.5240X1.7780*%
%ADD27O,3.0000X2.5000*%
%ADD28R,2.2860X2.2860*%
%ADD29C,2.2860*%
%ADD30C,2.5000*%
%ADD31O,2.7940X3.5560*%
%ADD32C,1.7526*%
%ADD33R,1.7526X1.7526*%
%ADD34C,2.9210*%
%ADD35C,1.0000*%
%ADD36C,1.5000*%
G36*
X-137701Y-236475D02*
X-137917Y-236552D01*
X-138108Y-236680D01*
X-138273Y-236860D01*
X-138413Y-237092D01*
X-138527Y-237374D01*
X-138616Y-237709D01*
X-138679Y-238094D01*
X-138717Y-238531D01*
X-138730Y-239020D01*
X-141270D01*
X-141283Y-238531D01*
X-141321Y-238094D01*
X-141384Y-237709D01*
X-141473Y-237374D01*
X-141587Y-237092D01*
X-141727Y-236860D01*
X-141892Y-236680D01*
X-142083Y-236552D01*
X-142299Y-236475D01*
X-142540Y-236449D01*
X-137460D01*
X-137701Y-236475D01*
D02*
G37*
G36*
X2299Y-236635D02*
X2083Y-236712D01*
X1892Y-236840D01*
X1727Y-237020D01*
X1587Y-237252D01*
X1473Y-237534D01*
X1384Y-237869D01*
X1321Y-238254D01*
X1283Y-238691D01*
X1270Y-239179D01*
X-1270D01*
X-1283Y-238691D01*
X-1321Y-238254D01*
X-1384Y-237869D01*
X-1473Y-237534D01*
X-1587Y-237252D01*
X-1727Y-237020D01*
X-1892Y-236840D01*
X-2083Y-236712D01*
X-2299Y-236635D01*
X-2540Y-236609D01*
X2540D01*
X2299Y-236635D01*
D02*
G37*
G36*
X72299Y-236475D02*
X72083Y-236552D01*
X71892Y-236680D01*
X71727Y-236860D01*
X71588Y-237092D01*
X71473Y-237374D01*
X71384Y-237709D01*
X71321Y-238094D01*
X71283Y-238531D01*
X71270Y-239020D01*
X68730D01*
X68717Y-238531D01*
X68679Y-238094D01*
X68616Y-237709D01*
X68527Y-237374D01*
X68412Y-237092D01*
X68273Y-236860D01*
X68108Y-236680D01*
X67917Y-236552D01*
X67701Y-236475D01*
X67460Y-236449D01*
X72540D01*
X72299Y-236475D01*
D02*
G37*
G36*
X-7970Y-212540D02*
X-7996Y-212299D01*
X-8072Y-212083D01*
X-8199Y-211892D01*
X-8377Y-211727D01*
X-8605Y-211588D01*
X-8885Y-211473D01*
X-9215Y-211384D01*
X-9596Y-211321D01*
X-10028Y-211283D01*
X-10510Y-211270D01*
Y-208730D01*
X-10028Y-208717D01*
X-9596Y-208679D01*
X-9215Y-208616D01*
X-8885Y-208527D01*
X-8605Y-208412D01*
X-8377Y-208273D01*
X-8199Y-208108D01*
X-8072Y-207917D01*
X-7996Y-207701D01*
X-7970Y-207460D01*
Y-212540D01*
D02*
G37*
G36*
X-67701Y-236315D02*
X-67917Y-236392D01*
X-68108Y-236520D01*
X-68273Y-236700D01*
X-68412Y-236932D01*
X-68527Y-237214D01*
X-68616Y-237549D01*
X-68679Y-237934D01*
X-68717Y-238371D01*
X-68730Y-238860D01*
X-71270D01*
X-71283Y-238371D01*
X-71321Y-237934D01*
X-71384Y-237549D01*
X-71473Y-237214D01*
X-71588Y-236932D01*
X-71727Y-236700D01*
X-71892Y-236520D01*
X-72083Y-236392D01*
X-72299Y-236315D01*
X-72540Y-236289D01*
X-67460D01*
X-67701Y-236315D01*
D02*
G37*
G36*
X225013Y-254930D02*
X225475Y-261430D01*
X225647Y-262129D01*
X225844Y-262630D01*
X226069Y-262929D01*
X226320Y-263029D01*
X213680D01*
X213931Y-262929D01*
X214156Y-262630D01*
X214353Y-262129D01*
X214525Y-261430D01*
X214670Y-260529D01*
X214881Y-258130D01*
X214987Y-254930D01*
X215000Y-253029D01*
X225000D01*
X225013Y-254930D01*
D02*
G37*
G36*
X76196Y-260683D02*
X76567Y-261000D01*
X76913Y-261256D01*
X77233Y-261451D01*
X77527Y-261585D01*
X77797Y-261658D01*
X78040Y-261670D01*
X78259Y-261621D01*
X78452Y-261511D01*
X78620Y-261340D01*
X75512Y-265384D01*
X75638Y-265173D01*
X75708Y-264940D01*
X75721Y-264687D01*
X75677Y-264412D01*
X75577Y-264117D01*
X75420Y-263801D01*
X75207Y-263463D01*
X74937Y-263104D01*
X74611Y-262725D01*
X74228Y-262324D01*
X75800Y-260304D01*
X76196Y-260683D01*
D02*
G37*
G36*
X123833Y-236977D02*
X124132Y-237611D01*
X124633Y-238171D01*
X125332Y-238656D01*
X126233Y-239067D01*
X127332Y-239403D01*
X128632Y-239664D01*
X130133Y-239851D01*
X131833Y-239963D01*
X133733Y-240000D01*
Y-250000D01*
X131833Y-250037D01*
X128632Y-250336D01*
X127332Y-250597D01*
X126233Y-250933D01*
X125332Y-251344D01*
X124633Y-251829D01*
X124132Y-252389D01*
X123833Y-253023D01*
X123733Y-253732D01*
Y-236268D01*
X123833Y-236977D01*
D02*
G37*
G36*
X-392000Y52000D02*
Y-246000D01*
Y-250000D01*
X-395000Y-253000D01*
X-456941D01*
Y55000D01*
X-395000D01*
X-392000Y52000D01*
D02*
G37*
G36*
X352433Y-236977D02*
X352733Y-237611D01*
X353232Y-238171D01*
X353932Y-238656D01*
X354832Y-239067D01*
X355933Y-239403D01*
X357233Y-239664D01*
X358732Y-239851D01*
X360433Y-239963D01*
X362332Y-240000D01*
Y-250000D01*
X360433Y-250037D01*
X357233Y-250336D01*
X355933Y-250597D01*
X354832Y-250933D01*
X353932Y-251344D01*
X353232Y-251829D01*
X352733Y-252389D01*
X352433Y-253023D01*
X352332Y-253732D01*
Y-236268D01*
X352433Y-236977D01*
D02*
G37*
G36*
X-53121Y-167085D02*
X-53333Y-167195D01*
X-53520Y-167379D01*
X-53682Y-167637D01*
X-53818Y-167968D01*
X-53931Y-168372D01*
X-54018Y-168851D01*
X-54080Y-169403D01*
X-54117Y-170028D01*
X-54130Y-170727D01*
X-56670D01*
X-56682Y-170028D01*
X-56782Y-168851D01*
X-56869Y-168372D01*
X-56981Y-167968D01*
X-57119Y-167637D01*
X-57281Y-167379D01*
X-57467Y-167195D01*
X-57679Y-167085D01*
X-57916Y-167048D01*
X-52884D01*
X-53121Y-167085D01*
D02*
G37*
G36*
X-65821D02*
X-66033Y-167195D01*
X-66220Y-167379D01*
X-66382Y-167637D01*
X-66519Y-167968D01*
X-66631Y-168372D01*
X-66718Y-168851D01*
X-66780Y-169403D01*
X-66817Y-170028D01*
X-66830Y-170727D01*
X-69370D01*
X-69382Y-170028D01*
X-69482Y-168851D01*
X-69569Y-168372D01*
X-69681Y-167968D01*
X-69819Y-167637D01*
X-69981Y-167379D01*
X-70167Y-167195D01*
X-70379Y-167085D01*
X-70616Y-167048D01*
X-65584D01*
X-65821Y-167085D01*
D02*
G37*
G36*
X-40421D02*
X-40633Y-167195D01*
X-40820Y-167379D01*
X-40981Y-167637D01*
X-41118Y-167968D01*
X-41231Y-168372D01*
X-41318Y-168851D01*
X-41380Y-169403D01*
X-41417Y-170028D01*
X-41430Y-170727D01*
X-43970D01*
X-43982Y-170028D01*
X-44082Y-168851D01*
X-44169Y-168372D01*
X-44281Y-167968D01*
X-44419Y-167637D01*
X-44580Y-167379D01*
X-44767Y-167195D01*
X-44979Y-167085D01*
X-45216Y-167048D01*
X-40184D01*
X-40421Y-167085D01*
D02*
G37*
G36*
X-83366Y-166985D02*
X-83470Y-166037D01*
X-83783Y-165190D01*
X-84305Y-164442D01*
X-85035Y-163794D01*
X-85974Y-163245D01*
X-87121Y-162797D01*
X-88477Y-162448D01*
X-90041Y-162198D01*
X-91814Y-162049D01*
X-93795Y-161999D01*
Y-151999D01*
X-91814Y-151949D01*
X-90042Y-151800D01*
X-88478Y-151551D01*
X-87122Y-151202D01*
X-85976Y-150754D01*
X-85037Y-150206D01*
X-84308Y-149559D01*
X-83786Y-148812D01*
X-83474Y-147966D01*
X-83370Y-147020D01*
X-83366Y-166985D01*
D02*
G37*
G36*
X-27721Y-167085D02*
X-27933Y-167195D01*
X-28119Y-167379D01*
X-28282Y-167637D01*
X-28419Y-167968D01*
X-28531Y-168372D01*
X-28618Y-168851D01*
X-28680Y-169403D01*
X-28718Y-170028D01*
X-28730Y-170727D01*
X-31270D01*
X-31282Y-170028D01*
X-31382Y-168851D01*
X-31469Y-168372D01*
X-31581Y-167968D01*
X-31718Y-167637D01*
X-31881Y-167379D01*
X-32067Y-167195D01*
X-32279Y-167085D01*
X-32516Y-167048D01*
X-27484D01*
X-27721Y-167085D01*
D02*
G37*
G36*
X62030Y-212380D02*
X62004Y-212139D01*
X61928Y-211923D01*
X61801Y-211732D01*
X61623Y-211567D01*
X61395Y-211427D01*
X61115Y-211313D01*
X60785Y-211224D01*
X60404Y-211161D01*
X59972Y-211123D01*
X59489Y-211110D01*
Y-208570D01*
X59972Y-208557D01*
X60404Y-208519D01*
X60785Y-208456D01*
X61115Y-208367D01*
X61395Y-208253D01*
X61623Y-208113D01*
X61801Y-207948D01*
X61928Y-207757D01*
X62004Y-207541D01*
X62030Y-207300D01*
Y-212380D01*
D02*
G37*
G36*
X-132034Y-207541D02*
X-131957Y-207757D01*
X-131829Y-207948D01*
X-131649Y-208113D01*
X-131417Y-208253D01*
X-131135Y-208367D01*
X-130800Y-208456D01*
X-130415Y-208519D01*
X-129978Y-208557D01*
X-129489Y-208570D01*
Y-211110D01*
X-129978Y-211123D01*
X-130415Y-211161D01*
X-130800Y-211224D01*
X-131135Y-211313D01*
X-131417Y-211427D01*
X-131649Y-211567D01*
X-131829Y-211732D01*
X-131957Y-211923D01*
X-132034Y-212139D01*
X-132060Y-212380D01*
Y-207300D01*
X-132034Y-207541D01*
D02*
G37*
G36*
X229050Y-196039D02*
X228200Y-196340D01*
X227450Y-196842D01*
X226800Y-197544D01*
X226250Y-198447D01*
X225800Y-199550D01*
X225450Y-200854D01*
X225200Y-202358D01*
X225050Y-204064D01*
X225000Y-205970D01*
X215000D01*
X214950Y-204064D01*
X214800Y-202358D01*
X214550Y-200854D01*
X214200Y-199550D01*
X213750Y-198447D01*
X213200Y-197544D01*
X212550Y-196842D01*
X211800Y-196340D01*
X210950Y-196039D01*
X210000Y-195939D01*
X230000D01*
X229050Y-196039D01*
D02*
G37*
G36*
X114912Y-177563D02*
X113918Y-177580D01*
X112972Y-177653D01*
X112073Y-177781D01*
X111222Y-177964D01*
X110418Y-178203D01*
X109661Y-178496D01*
X108953Y-178846D01*
X108291Y-179250D01*
X107677Y-179709D01*
X107111Y-180224D01*
X103575Y-176689D01*
X104090Y-176123D01*
X104550Y-175509D01*
X104955Y-174847D01*
X105304Y-174139D01*
X105597Y-173382D01*
X105836Y-172578D01*
X106019Y-171727D01*
X106147Y-170828D01*
X106220Y-169882D01*
X106237Y-168888D01*
X114912Y-177563D01*
D02*
G37*
G36*
X-60233Y-201709D02*
X-60813Y-202307D01*
X-61708Y-203342D01*
X-62023Y-203781D01*
X-62249Y-204167D01*
X-62388Y-204499D01*
X-62438Y-204779D01*
X-62400Y-205006D01*
X-62274Y-205180D01*
X-62060Y-205302D01*
X-67273Y-203391D01*
X-67004Y-203458D01*
X-66715Y-203469D01*
X-66407Y-203426D01*
X-66078Y-203326D01*
X-65729Y-203171D01*
X-65359Y-202961D01*
X-64970Y-202695D01*
X-64560Y-202374D01*
X-64130Y-201997D01*
X-63681Y-201564D01*
X-60233Y-201709D01*
D02*
G37*
G36*
X-63804Y-260683D02*
X-63433Y-261000D01*
X-63087Y-261256D01*
X-62767Y-261451D01*
X-62473Y-261585D01*
X-62203Y-261658D01*
X-61960Y-261670D01*
X-61741Y-261621D01*
X-61548Y-261511D01*
X-61380Y-261340D01*
X-64488Y-265384D01*
X-64362Y-265173D01*
X-64292Y-264940D01*
X-64279Y-264687D01*
X-64323Y-264412D01*
X-64423Y-264117D01*
X-64580Y-263801D01*
X-64793Y-263463D01*
X-65063Y-263104D01*
X-65389Y-262725D01*
X-65772Y-262324D01*
X-64200Y-260304D01*
X-63804Y-260683D01*
D02*
G37*
G36*
X71031Y-363470D02*
X70981Y-363000D01*
X70830Y-362580D01*
X70581Y-362210D01*
X70230Y-361889D01*
X69781Y-361617D01*
X69230Y-361395D01*
X68580Y-361222D01*
X67831Y-361099D01*
X66981Y-361025D01*
X66031Y-361000D01*
Y-356000D01*
X66981Y-355975D01*
X67831Y-355901D01*
X68580Y-355778D01*
X69230Y-355605D01*
X69781Y-355383D01*
X70230Y-355111D01*
X70581Y-354790D01*
X70830Y-354420D01*
X70981Y-354000D01*
X71031Y-353531D01*
Y-363470D01*
D02*
G37*
G36*
X1019Y-354000D02*
X1169Y-354420D01*
X1419Y-354790D01*
X1769Y-355111D01*
X2219Y-355383D01*
X2770Y-355605D01*
X3419Y-355778D01*
X4169Y-355901D01*
X5020Y-355975D01*
X5969Y-356000D01*
Y-361000D01*
X5020Y-361025D01*
X4169Y-361099D01*
X3419Y-361222D01*
X2770Y-361395D01*
X2219Y-361617D01*
X1769Y-361889D01*
X1419Y-362210D01*
X1169Y-362580D01*
X1019Y-363000D01*
X970Y-363470D01*
Y-353531D01*
X1019Y-354000D01*
D02*
G37*
G36*
X-13939Y-363350D02*
X-13988Y-362904D01*
X-14134Y-362504D01*
X-14378Y-362152D01*
X-14720Y-361846D01*
X-15159Y-361588D01*
X-15696Y-361376D01*
X-16331Y-361212D01*
X-17063Y-361094D01*
X-17893Y-361023D01*
X-18820Y-361000D01*
Y-356000D01*
X-17893Y-355976D01*
X-17063Y-355906D01*
X-16331Y-355788D01*
X-15696Y-355624D01*
X-15159Y-355412D01*
X-14720Y-355154D01*
X-14378Y-354848D01*
X-14134Y-354496D01*
X-13988Y-354096D01*
X-13939Y-353649D01*
Y-363350D01*
D02*
G37*
G36*
X87766Y-357030D02*
X87420Y-357394D01*
X87111Y-357756D01*
X86837Y-358118D01*
X86600Y-358478D01*
X86399Y-358838D01*
X86235Y-359197D01*
X86107Y-359554D01*
X86014Y-359911D01*
X85959Y-360267D01*
X85939Y-360622D01*
X85969Y-353531D01*
X85988Y-353836D01*
X86041Y-354072D01*
X86131Y-354238D01*
X86257Y-354334D01*
X86419Y-354359D01*
X86616Y-354315D01*
X86850Y-354201D01*
X87119Y-354017D01*
X87424Y-353763D01*
X87766Y-353438D01*
Y-357030D01*
D02*
G37*
G36*
X80285Y-356703D02*
X80526Y-356814D01*
X80824Y-356911D01*
X81179Y-356996D01*
X81591Y-357067D01*
X82584Y-357171D01*
X83805Y-357224D01*
X84500Y-357230D01*
Y-359770D01*
X83805Y-359776D01*
X81591Y-359933D01*
X81179Y-360004D01*
X80824Y-360089D01*
X80526Y-360186D01*
X80285Y-360297D01*
X80101Y-360420D01*
Y-356580D01*
X80285Y-356703D01*
D02*
G37*
G36*
X124061Y-386743D02*
X124379Y-387533D01*
X124909Y-388479D01*
X125652Y-389582D01*
X126606Y-390842D01*
X129152Y-393831D01*
X134561Y-399490D01*
X126749Y-405821D01*
X124663Y-403804D01*
X120938Y-400642D01*
X119299Y-399497D01*
X117810Y-398642D01*
X116471Y-398077D01*
X115281Y-397802D01*
X114240Y-397817D01*
X113349Y-398123D01*
X112607Y-398719D01*
X123954Y-386110D01*
X124061Y-386743D01*
D02*
G37*
G36*
X-337000Y-317000D02*
X-300000Y-354000D01*
Y-358000D01*
Y-426941D01*
X-360000D01*
Y-387000D01*
X-371000Y-376000D01*
X-402000Y-345000D01*
X-456941D01*
Y-270000D01*
X-384000D01*
X-337000Y-317000D01*
D02*
G37*
G36*
X-24329Y-389960D02*
X-24381Y-390462D01*
X-24215Y-391117D01*
X-23832Y-391924D01*
X-23231Y-392883D01*
X-22413Y-393995D01*
X-20124Y-396675D01*
X-16964Y-399964D01*
X-25680Y-405391D01*
X-27309Y-403795D01*
X-31404Y-400188D01*
X-32506Y-399380D01*
X-33476Y-398768D01*
X-34315Y-398353D01*
X-35022Y-398135D01*
X-35598Y-398114D01*
X-36041Y-398289D01*
X-24060Y-389610D01*
X-24329Y-389960D01*
D02*
G37*
G36*
X-20494Y-363709D02*
X-21561Y-364812D01*
X-23221Y-366752D01*
X-23815Y-367591D01*
X-24250Y-368342D01*
X-24528Y-369005D01*
X-24648Y-369581D01*
X-24610Y-370068D01*
X-24414Y-370468D01*
X-24060Y-370780D01*
X-32752Y-365391D01*
X-32291Y-365597D01*
X-31776Y-365678D01*
X-31207Y-365634D01*
X-30582Y-365464D01*
X-29902Y-365170D01*
X-29167Y-364751D01*
X-28378Y-364207D01*
X-27534Y-363538D01*
X-26635Y-362744D01*
X-25680Y-361825D01*
X-20494Y-363709D01*
D02*
G37*
G36*
X161996Y-367541D02*
X162072Y-367757D01*
X162199Y-367948D01*
X162377Y-368113D01*
X162605Y-368252D01*
X162885Y-368367D01*
X163215Y-368456D01*
X163596Y-368519D01*
X164028Y-368557D01*
X164510Y-368570D01*
Y-371110D01*
X164028Y-371123D01*
X163596Y-371161D01*
X163215Y-371224D01*
X162885Y-371313D01*
X162605Y-371427D01*
X162377Y-371567D01*
X162199Y-371732D01*
X162072Y-371923D01*
X161996Y-372139D01*
X161971Y-372380D01*
Y-367300D01*
X161996Y-367541D01*
D02*
G37*
G36*
X225007Y-278971D02*
X226320D01*
X226069Y-279070D01*
X225844Y-279370D01*
X225647Y-279870D01*
X225475Y-280571D01*
X225330Y-281471D01*
X225215Y-282773D01*
X225475Y-286430D01*
X225647Y-287129D01*
X225844Y-287630D01*
X226069Y-287929D01*
X226320Y-288029D01*
X225007D01*
X225000Y-288971D01*
X215000D01*
X214993Y-288029D01*
X213680D01*
X213931Y-287929D01*
X214156Y-287630D01*
X214353Y-287129D01*
X214525Y-286430D01*
X214670Y-285529D01*
X214785Y-284226D01*
X214525Y-280571D01*
X214353Y-279870D01*
X214156Y-279370D01*
X213931Y-279070D01*
X213680Y-278971D01*
X214993D01*
X215000Y-278029D01*
X225000D01*
X225007Y-278971D01*
D02*
G37*
G36*
X203030Y-254930D02*
X203270Y-258130D01*
X203480Y-259429D01*
X203750Y-260529D01*
X204080Y-261430D01*
X204470Y-262129D01*
X204920Y-262630D01*
X205430Y-262929D01*
X206000Y-263029D01*
X193361D01*
Y-278029D01*
X203000D01*
X203015Y-278971D01*
X206000D01*
X205430Y-279070D01*
X204920Y-279370D01*
X204470Y-279870D01*
X204080Y-280571D01*
X203750Y-281471D01*
X203480Y-282570D01*
X203330Y-283500D01*
X203480Y-284429D01*
X203750Y-285529D01*
X204080Y-286430D01*
X204470Y-287129D01*
X204920Y-287630D01*
X205430Y-287929D01*
X206000Y-288029D01*
X203031D01*
X203000Y-288971D01*
X193000D01*
X193111Y-285906D01*
X193090Y-285529D01*
X193000Y-278029D01*
X193037D01*
X192960Y-277901D01*
X192460Y-277456D01*
X191761Y-277069D01*
X190861Y-276743D01*
X189760Y-276475D01*
X188461Y-276267D01*
X186961Y-276119D01*
X183361Y-276000D01*
Y-266000D01*
X185261Y-265970D01*
X188461Y-265733D01*
X189760Y-265525D01*
X190861Y-265257D01*
X191761Y-264931D01*
X192460Y-264544D01*
X192960Y-264099D01*
X193260Y-263594D01*
X193361Y-263029D01*
X193292Y-262929D01*
X193231Y-262630D01*
X193177Y-262129D01*
X193090Y-260529D01*
X193000Y-253029D01*
X203000D01*
X203030Y-254930D01*
D02*
G37*
G36*
X252030Y-261261D02*
X252267Y-264461D01*
X252475Y-265760D01*
X252743Y-266861D01*
X253069Y-267761D01*
X253456Y-268461D01*
X253901Y-268960D01*
X254406Y-269261D01*
X254970Y-269361D01*
X239030D01*
X239594Y-269261D01*
X240099Y-268960D01*
X240544Y-268461D01*
X240931Y-267761D01*
X241257Y-266861D01*
X241525Y-265760D01*
X241733Y-264461D01*
X241881Y-262960D01*
X242000Y-259361D01*
X252000D01*
X252030Y-261261D01*
D02*
G37*
G36*
X-133804Y-260683D02*
X-133433Y-261000D01*
X-133087Y-261256D01*
X-132767Y-261451D01*
X-132473Y-261585D01*
X-132204Y-261658D01*
X-131960Y-261670D01*
X-131741Y-261621D01*
X-131548Y-261511D01*
X-131380Y-261340D01*
X-134488Y-265384D01*
X-134361Y-265173D01*
X-134292Y-264940D01*
X-134279Y-264687D01*
X-134323Y-264412D01*
X-134423Y-264117D01*
X-134580Y-263801D01*
X-134793Y-263463D01*
X-135063Y-263104D01*
X-135389Y-262725D01*
X-135772Y-262324D01*
X-134200Y-260304D01*
X-133804Y-260683D01*
D02*
G37*
G36*
X6197Y-261683D02*
X6567Y-262000D01*
X6913Y-262256D01*
X7233Y-262451D01*
X7527Y-262585D01*
X7796Y-262658D01*
X8040Y-262670D01*
X8259Y-262621D01*
X8452Y-262511D01*
X8619Y-262340D01*
X5512Y-266384D01*
X5638Y-266173D01*
X5708Y-265940D01*
X5721Y-265687D01*
X5677Y-265413D01*
X5577Y-265117D01*
X5420Y-264800D01*
X5207Y-264463D01*
X4937Y-264104D01*
X4611Y-263725D01*
X4228Y-263324D01*
X5800Y-261304D01*
X6197Y-261683D01*
D02*
G37*
G36*
X53499Y-330475D02*
X53650Y-330900D01*
X53902Y-331275D01*
X54254Y-331600D01*
X54707Y-331875D01*
X55260Y-332100D01*
X55914Y-332275D01*
X56669Y-332400D01*
X57524Y-332475D01*
X58479Y-332500D01*
Y-337500D01*
X57524Y-337525D01*
X56669Y-337600D01*
X55914Y-337725D01*
X55260Y-337900D01*
X54707Y-338125D01*
X54254Y-338400D01*
X53902Y-338725D01*
X53650Y-339100D01*
X53499Y-339525D01*
X53449Y-340000D01*
Y-330000D01*
X53499Y-330475D01*
D02*
G37*
G36*
X31365Y-343021D02*
X30940Y-343171D01*
X30565Y-343420D01*
X30240Y-343770D01*
X29965Y-344221D01*
X29740Y-344771D01*
X29565Y-345420D01*
X29440Y-346171D01*
X29365Y-347020D01*
X29340Y-347971D01*
X24340D01*
X24315Y-347020D01*
X24240Y-346171D01*
X24115Y-345420D01*
X23940Y-344771D01*
X23715Y-344221D01*
X23440Y-343770D01*
X23115Y-343420D01*
X22740Y-343171D01*
X22315Y-343021D01*
X21840Y-342971D01*
X31840D01*
X31365Y-343021D01*
D02*
G37*
G36*
X205749Y-304070D02*
X205525Y-304370D01*
X205327Y-304870D01*
X205155Y-305571D01*
X205010Y-306471D01*
X204799Y-308871D01*
X204693Y-312071D01*
X204680Y-313971D01*
X194680D01*
X194667Y-312071D01*
X194205Y-305571D01*
X194033Y-304870D01*
X193836Y-304370D01*
X193611Y-304070D01*
X193361Y-303971D01*
X206000D01*
X205749Y-304070D01*
D02*
G37*
G36*
X255070Y-289931D02*
X255371Y-290156D01*
X255870Y-290353D01*
X256570Y-290525D01*
X257470Y-290670D01*
X259870Y-290881D01*
X263071Y-290987D01*
X264970Y-291000D01*
Y-301000D01*
X263071Y-301013D01*
X256570Y-301475D01*
X255870Y-301647D01*
X255371Y-301845D01*
X255070Y-302069D01*
X254970Y-302320D01*
X254406Y-302419D01*
X253901Y-302719D01*
X253456Y-303220D01*
X253069Y-303920D01*
X252743Y-304820D01*
X252475Y-305919D01*
X252267Y-307220D01*
X252119Y-308720D01*
X252000Y-312320D01*
X242000D01*
X241970Y-310420D01*
X241733Y-307220D01*
X241525Y-305919D01*
X241257Y-304820D01*
X240931Y-303920D01*
X240544Y-303220D01*
X240099Y-302719D01*
X239594Y-302419D01*
X239030Y-302320D01*
X254970D01*
Y-289681D01*
X255070Y-289931D01*
D02*
G37*
G36*
X226069Y-304070D02*
X225844Y-304370D01*
X225647Y-304870D01*
X225475Y-305571D01*
X225330Y-306471D01*
X225119Y-308871D01*
X225013Y-312071D01*
X225000Y-313971D01*
X215000D01*
X214987Y-312071D01*
X214525Y-305571D01*
X214353Y-304870D01*
X214156Y-304370D01*
X213931Y-304070D01*
X213680Y-303971D01*
X226320D01*
X226069Y-304070D01*
D02*
G37*
G36*
X-148454Y31070D02*
X-148314Y29371D01*
X-148081Y27871D01*
X-147755Y26570D01*
X-147335Y25470D01*
X-146823Y24571D01*
X-146217Y23870D01*
X-145518Y23370D01*
X-144726Y23070D01*
X-143841Y22970D01*
X-156480D01*
X-156863Y23070D01*
X-157207Y23370D01*
X-157510Y23870D01*
X-157773Y24571D01*
X-157995Y25470D01*
X-158177Y26570D01*
X-158318Y27871D01*
X-158480Y31070D01*
X-158500Y32970D01*
X-148500D01*
X-148454Y31070D01*
D02*
G37*
G36*
X-123420Y22406D02*
X-123120Y21901D01*
X-122620Y21456D01*
X-121920Y21069D01*
X-121020Y20743D01*
X-119921Y20475D01*
X-118621Y20267D01*
X-117121Y20119D01*
X-113520Y20000D01*
Y10000D01*
X-115421Y9970D01*
X-118621Y9733D01*
X-119921Y9525D01*
X-121020Y9257D01*
X-121920Y8931D01*
X-122620Y8544D01*
X-123120Y8099D01*
X-123420Y7594D01*
X-123520Y7030D01*
Y22970D01*
X-123420Y22406D01*
D02*
G37*
G36*
X337342Y28266D02*
X336407Y29190D01*
X334649Y30747D01*
X333826Y31379D01*
X333041Y31914D01*
X332292Y32352D01*
X331581Y32692D01*
X330907Y32935D01*
X330271Y33081D01*
X329672Y33130D01*
Y35670D01*
X330271Y35719D01*
X330907Y35865D01*
X331581Y36108D01*
X332292Y36448D01*
X333041Y36886D01*
X333826Y37421D01*
X334649Y38053D01*
X336407Y39610D01*
X337342Y40534D01*
Y28266D01*
D02*
G37*
G36*
Y53666D02*
X336407Y54590D01*
X334649Y56147D01*
X333826Y56779D01*
X333041Y57314D01*
X332292Y57752D01*
X331581Y58092D01*
X330907Y58335D01*
X330271Y58481D01*
X329672Y58530D01*
Y61070D01*
X330271Y61119D01*
X330907Y61265D01*
X331581Y61508D01*
X332292Y61848D01*
X333041Y62286D01*
X333826Y62821D01*
X334649Y63453D01*
X336407Y65010D01*
X337342Y65934D01*
Y53666D01*
D02*
G37*
G36*
X-28163Y28899D02*
X-28782Y29469D01*
X-29463Y29979D01*
X-30206Y30429D01*
X-31010Y30820D01*
X-31877Y31150D01*
X-32805Y31420D01*
X-33795Y31630D01*
X-34847Y31780D01*
X-35961Y31870D01*
X-37136Y31900D01*
Y41900D01*
X-35961Y41930D01*
X-34847Y42020D01*
X-33795Y42170D01*
X-32805Y42380D01*
X-31877Y42650D01*
X-31010Y42980D01*
X-30206Y43370D01*
X-29463Y43821D01*
X-28782Y44331D01*
X-28163Y44901D01*
Y28899D01*
D02*
G37*
G36*
X-1313Y-40109D02*
X-1745Y-40559D01*
X-2381Y-41338D01*
X-2585Y-41667D01*
X-2712Y-41956D01*
X-2763Y-42204D01*
X-2738Y-42412D01*
X-2637Y-42579D01*
X-2460Y-42706D01*
X-2206Y-42793D01*
X-6098Y-41907D01*
X-6259Y-41954D01*
X-6329Y-41921D01*
X-6309Y-41810D01*
X-6197Y-41619D01*
X-5995Y-41350D01*
X-5702Y-41002D01*
X-4276Y-39486D01*
X-3619Y-38823D01*
X-1313Y-40109D01*
D02*
G37*
G36*
X22083Y-39972D02*
X22182Y-41149D01*
X22269Y-41627D01*
X22381Y-42032D01*
X22518Y-42363D01*
X22680Y-42621D01*
X22867Y-42805D01*
X23079Y-42915D01*
X23316Y-42952D01*
X18284D01*
X18521Y-42915D01*
X18733Y-42805D01*
X18920Y-42621D01*
X19081Y-42363D01*
X19219Y-42032D01*
X19331Y-41627D01*
X19418Y-41149D01*
X19480Y-40597D01*
X19518Y-39972D01*
X19530Y-39273D01*
X22070D01*
X22083Y-39972D01*
D02*
G37*
G36*
X9373Y-40302D02*
X9449Y-41486D01*
X9484Y-41676D01*
X9526Y-41824D01*
X9573Y-41930D01*
X9627Y-41993D01*
X9687Y-42015D01*
X6513D01*
X6573Y-41993D01*
X6627Y-41930D01*
X6675Y-41824D01*
X6716Y-41676D01*
X6751Y-41486D01*
X6779Y-41253D01*
X6817Y-40661D01*
X6830Y-39900D01*
X9370D01*
X9373Y-40302D01*
D02*
G37*
G36*
X337342Y4136D02*
X336407Y5060D01*
X334649Y6617D01*
X333826Y7249D01*
X333041Y7784D01*
X332292Y8222D01*
X331581Y8562D01*
X330907Y8805D01*
X330271Y8951D01*
X329672Y9000D01*
Y11540D01*
X330271Y11589D01*
X330907Y11735D01*
X331581Y11978D01*
X332292Y12318D01*
X333041Y12756D01*
X333826Y13291D01*
X334649Y13923D01*
X336407Y15480D01*
X337342Y16404D01*
Y4136D01*
D02*
G37*
G36*
X352370Y-17802D02*
X352513Y-20146D01*
X352647Y-21175D01*
X352825Y-22109D01*
X353044Y-22947D01*
X353306Y-23691D01*
X353611Y-24339D01*
X353957Y-24893D01*
X354347Y-25351D01*
X352551Y-27147D01*
X352093Y-26758D01*
X351539Y-26411D01*
X350891Y-26106D01*
X350148Y-25844D01*
X349309Y-25625D01*
X348375Y-25447D01*
X347346Y-25312D01*
X345002Y-25170D01*
X343688Y-25163D01*
X352363Y-16488D01*
X352370Y-17802D01*
D02*
G37*
G36*
X-113581Y286253D02*
X-114005Y286093D01*
X-114378Y285828D01*
X-114703Y285456D01*
X-114977Y284977D01*
X-115201Y284393D01*
X-115376Y283702D01*
X-115500Y282905D01*
X-115575Y282002D01*
X-115600Y280992D01*
X-120600D01*
X-120625Y282002D01*
X-120700Y282905D01*
X-120824Y283702D01*
X-120999Y284393D01*
X-121223Y284977D01*
X-121497Y285456D01*
X-121821Y285828D01*
X-122196Y286093D01*
X-122619Y286253D01*
X-123093Y286306D01*
X-113107D01*
X-113581Y286253D01*
D02*
G37*
G36*
X-104000Y400000D02*
Y369000D01*
X-67000Y332000D01*
X-50000Y332000D01*
X4000D01*
X18000Y318000D01*
X26000Y310000D01*
Y307000D01*
Y283000D01*
X24000Y281000D01*
X17000Y274000D01*
X-63000D01*
X-99000Y310000D01*
X-148000Y359000D01*
Y364000D01*
Y426941D01*
X-104000D01*
Y400000D01*
D02*
G37*
G36*
X51000Y398000D02*
Y359000D01*
X55000Y355000D01*
X62000Y348000D01*
X210000Y348000D01*
X225000Y333000D01*
X231000Y327000D01*
Y319000D01*
Y291000D01*
X230000Y290000D01*
X222000Y282000D01*
X154000D01*
X139000Y297000D01*
X118000Y318000D01*
X32000D01*
X28000Y322000D01*
X8000Y342000D01*
Y396000D01*
Y426941D01*
X51000D01*
Y398000D01*
D02*
G37*
G36*
X276502Y293512D02*
X276444Y293985D01*
X276269Y294408D01*
X275978Y294781D01*
X275570Y295104D01*
X275046Y295378D01*
X274405Y295602D01*
X273648Y295776D01*
X272774Y295900D01*
X271783Y295975D01*
X270676Y296000D01*
Y301000D01*
X271783Y301025D01*
X272774Y301100D01*
X273648Y301224D01*
X274405Y301398D01*
X275046Y301622D01*
X275570Y301896D01*
X275978Y302219D01*
X276269Y302593D01*
X276444Y303015D01*
X276502Y303488D01*
Y293512D01*
D02*
G37*
G36*
X73002Y293512D02*
X72944Y293985D01*
X72769Y294408D01*
X72478Y294781D01*
X72070Y295104D01*
X71546Y295378D01*
X70905Y295602D01*
X70148Y295776D01*
X69274Y295900D01*
X68283Y295975D01*
X67176Y296000D01*
Y301000D01*
X68283Y301025D01*
X69274Y301099D01*
X70148Y301224D01*
X70905Y301398D01*
X71546Y301622D01*
X72070Y301896D01*
X72478Y302219D01*
X72769Y302593D01*
X72944Y303015D01*
X73002Y303488D01*
Y293512D01*
D02*
G37*
G36*
X-191460Y99069D02*
X-192313Y98162D01*
X-193076Y97241D01*
X-193747Y96305D01*
X-194327Y95353D01*
X-194817Y94386D01*
X-195215Y93404D01*
X-195523Y92407D01*
X-195740Y91395D01*
X-195866Y90368D01*
X-195901Y89325D01*
X-208275Y101699D01*
X-207232Y101734D01*
X-206205Y101860D01*
X-205193Y102077D01*
X-204196Y102385D01*
X-203214Y102783D01*
X-202247Y103273D01*
X-201295Y103853D01*
X-200359Y104524D01*
X-199437Y105287D01*
X-198531Y106140D01*
X-191460Y99069D01*
D02*
G37*
G36*
X337342Y79066D02*
X336407Y79990D01*
X334649Y81547D01*
X333826Y82179D01*
X333041Y82714D01*
X332292Y83152D01*
X331581Y83492D01*
X330907Y83735D01*
X330271Y83881D01*
X329672Y83930D01*
Y86470D01*
X330271Y86519D01*
X330907Y86665D01*
X331581Y86908D01*
X332292Y87248D01*
X333041Y87686D01*
X333826Y88221D01*
X334649Y88853D01*
X336407Y90410D01*
X337342Y91334D01*
Y79066D01*
D02*
G37*
G36*
X-31369Y103100D02*
X-31469Y104050D01*
X-31770Y104900D01*
X-32272Y105650D01*
X-32974Y106300D01*
X-33877Y106850D01*
X-34980Y107300D01*
X-36284Y107650D01*
X-37789Y107900D01*
X-39494Y108050D01*
X-41399Y108100D01*
Y118100D01*
X-39494Y118150D01*
X-37789Y118300D01*
X-36284Y118550D01*
X-34980Y118900D01*
X-33877Y119350D01*
X-32974Y119900D01*
X-32272Y120550D01*
X-31770Y121300D01*
X-31469Y122150D01*
X-31369Y123100D01*
Y103100D01*
D02*
G37*
G36*
X-202819Y179555D02*
X-202941Y179314D01*
X-203049Y178964D01*
X-203142Y178501D01*
X-203221Y177929D01*
X-203335Y176450D01*
X-203400Y173400D01*
X-213400D01*
X-213407Y174528D01*
X-213658Y178501D01*
X-213751Y178964D01*
X-213859Y179314D01*
X-213981Y179555D01*
X-214117Y179684D01*
X-202683D01*
X-202819Y179555D01*
D02*
G37*
G36*
X-157970Y103530D02*
X-158070Y103810D01*
X-158370Y104059D01*
X-158870Y104280D01*
X-159570Y104471D01*
X-160470Y104633D01*
X-161570Y104765D01*
X-164370Y104941D01*
X-167970Y105000D01*
Y115000D01*
X-166070Y115015D01*
X-160470Y115367D01*
X-159570Y115529D01*
X-158870Y115720D01*
X-158370Y115940D01*
X-158070Y116190D01*
X-157970Y116469D01*
Y103530D01*
D02*
G37*
G36*
X-13128Y-40924D02*
X-13564Y-41378D01*
X-14231Y-42187D01*
X-14462Y-42541D01*
X-14624Y-42863D01*
X-14718Y-43151D01*
X-14742Y-43406D01*
X-14699Y-43628D01*
X-14586Y-43816D01*
X-14405Y-43971D01*
X-18075Y-41608D01*
X-17910Y-41571D01*
X-17724Y-41500D01*
X-17518Y-41394D01*
X-17292Y-41255D01*
X-17045Y-41083D01*
X-16490Y-40635D01*
X-15853Y-40052D01*
X-15504Y-39710D01*
X-13128Y-40924D01*
D02*
G37*
G36*
X-28705Y-67444D02*
X-28632Y-67867D01*
X-28510Y-68278D01*
X-28339Y-68677D01*
X-28119Y-69062D01*
X-27850Y-69435D01*
X-27532Y-69796D01*
X-27165Y-70144D01*
X-26749Y-70479D01*
X-26285Y-70801D01*
X-33143Y-72201D01*
X-32787Y-71656D01*
X-32188Y-70617D01*
X-31944Y-70125D01*
X-31570Y-69194D01*
X-31439Y-68755D01*
X-31345Y-68334D01*
X-31289Y-67930D01*
X-31270Y-67545D01*
X-28730Y-67007D01*
X-28705Y-67444D01*
D02*
G37*
G36*
X-54130Y-68834D02*
X-54121Y-69201D01*
X-54049Y-70003D01*
X-53986Y-70437D01*
X-53687Y-71874D01*
X-53398Y-72943D01*
X-53227Y-73512D01*
X-59133Y-70130D01*
X-58665Y-69997D01*
X-58246Y-69829D01*
X-57877Y-69624D01*
X-57557Y-69383D01*
X-57286Y-69106D01*
X-57064Y-68793D01*
X-56892Y-68444D01*
X-56768Y-68059D01*
X-56695Y-67638D01*
X-56670Y-67180D01*
X-54130Y-68834D01*
D02*
G37*
G36*
X-41430Y-67253D02*
X-41409Y-67662D01*
X-41344Y-68078D01*
X-41238Y-68501D01*
X-41088Y-68930D01*
X-40896Y-69366D01*
X-40660Y-69808D01*
X-40382Y-70258D01*
X-40062Y-70714D01*
X-39698Y-71176D01*
X-39292Y-71646D01*
X-46279Y-71226D01*
X-45841Y-70823D01*
X-45448Y-70418D01*
X-45102Y-70011D01*
X-44801Y-69602D01*
X-44547Y-69190D01*
X-44339Y-68776D01*
X-44178Y-68359D01*
X-44062Y-67940D01*
X-43993Y-67519D01*
X-43970Y-67095D01*
X-41430Y-67253D01*
D02*
G37*
G36*
X-75800Y-65095D02*
X-75609Y-69786D01*
X-86105Y-69506D01*
X-86047Y-69407D01*
X-85995Y-69224D01*
X-85950Y-68958D01*
X-85910Y-68607D01*
X-85828Y-67050D01*
X-85800Y-64737D01*
X-75800Y-65095D01*
D02*
G37*
G36*
X22093Y-67537D02*
X22161Y-67958D01*
X22276Y-68378D01*
X22436Y-68797D01*
X22641Y-69215D01*
X22892Y-69632D01*
X23189Y-70048D01*
X23532Y-70464D01*
X23920Y-70878D01*
X24354Y-71292D01*
X17360Y-71572D01*
X17772Y-71114D01*
X18467Y-70213D01*
X18749Y-69770D01*
X18987Y-69332D01*
X19183Y-68900D01*
X19335Y-68472D01*
X19443Y-68050D01*
X19508Y-67633D01*
X19530Y-67221D01*
X22070Y-67116D01*
X22093Y-67537D01*
D02*
G37*
G36*
X-18876Y-141601D02*
X-15467Y-145445D01*
X-15295Y-145778D01*
X-15294Y-145966D01*
X-15463Y-146008D01*
X-15802Y-145905D01*
X-20265Y-150776D01*
X-19997Y-150378D01*
X-19863Y-149916D01*
X-19863Y-149390D01*
X-19997Y-148801D01*
X-20265Y-148147D01*
X-20667Y-147429D01*
X-21203Y-146648D01*
X-21874Y-145802D01*
X-22678Y-144892D01*
X-23617Y-143919D01*
X-20069Y-140396D01*
X-18876Y-141601D01*
D02*
G37*
G36*
X23304Y-142819D02*
X23552Y-147186D01*
X23618Y-147494D01*
X23693Y-147724D01*
X17907D01*
X17982Y-147494D01*
X18048Y-147186D01*
X18107Y-146799D01*
X18202Y-145788D01*
X18284Y-143679D01*
X18300Y-141879D01*
X23300D01*
X23304Y-142819D01*
D02*
G37*
G36*
X337342Y-98734D02*
X336407Y-97810D01*
X334649Y-96253D01*
X333826Y-95621D01*
X333041Y-95086D01*
X332292Y-94648D01*
X331581Y-94308D01*
X330907Y-94065D01*
X330271Y-93919D01*
X329672Y-93870D01*
Y-91330D01*
X330271Y-91281D01*
X330907Y-91135D01*
X331581Y-90892D01*
X332292Y-90552D01*
X333041Y-90114D01*
X333826Y-89579D01*
X334649Y-88947D01*
X336407Y-87390D01*
X337342Y-86466D01*
Y-98734D01*
D02*
G37*
G36*
X9370Y-78191D02*
X9392Y-78606D01*
X9458Y-79024D01*
X9568Y-79446D01*
X9722Y-79871D01*
X9920Y-80300D01*
X10162Y-80733D01*
X10448Y-81169D01*
X10778Y-81609D01*
X11153Y-82053D01*
X11571Y-82500D01*
X4572Y-82360D01*
X5001Y-81935D01*
X5385Y-81511D01*
X5724Y-81087D01*
X6017Y-80664D01*
X6266Y-80241D01*
X6469Y-79820D01*
X6627Y-79399D01*
X6740Y-78978D01*
X6807Y-78558D01*
X6830Y-78139D01*
X9370Y-78191D01*
D02*
G37*
G36*
X-3330Y-89287D02*
X-3309Y-89693D01*
X-3246Y-90108D01*
X-3141Y-90531D01*
X-2993Y-90962D01*
X-2804Y-91401D01*
X-2572Y-91849D01*
X-2299Y-92304D01*
X-1983Y-92768D01*
X-1226Y-93721D01*
X-8203Y-93161D01*
X-7760Y-92769D01*
X-7363Y-92374D01*
X-7013Y-91976D01*
X-6710Y-91573D01*
X-6453Y-91166D01*
X-6243Y-90756D01*
X-6080Y-90342D01*
X-5963Y-89924D01*
X-5893Y-89502D01*
X-5870Y-89076D01*
X-3330Y-89287D01*
D02*
G37*
G36*
X10379Y-63087D02*
X10167Y-63197D01*
X9980Y-63381D01*
X9819Y-63639D01*
X9682Y-63970D01*
X9569Y-64375D01*
X9482Y-64853D01*
X9420Y-65405D01*
X9383Y-66030D01*
X9370Y-66729D01*
X6830D01*
X6818Y-66030D01*
X6718Y-64853D01*
X6631Y-64375D01*
X6519Y-63970D01*
X6381Y-63639D01*
X6219Y-63381D01*
X6033Y-63197D01*
X5821Y-63087D01*
X5584Y-63050D01*
X10616D01*
X10379Y-63087D01*
D02*
G37*
G36*
X-2321D02*
X-2533Y-63197D01*
X-2720Y-63381D01*
X-2882Y-63639D01*
X-3018Y-63970D01*
X-3131Y-64375D01*
X-3218Y-64853D01*
X-3280Y-65405D01*
X-3318Y-66030D01*
X-3330Y-66729D01*
X-5870D01*
X-5882Y-66030D01*
X-5982Y-64853D01*
X-6069Y-64375D01*
X-6181Y-63970D01*
X-6319Y-63639D01*
X-6481Y-63381D01*
X-6667Y-63197D01*
X-6879Y-63087D01*
X-7116Y-63050D01*
X-2084D01*
X-2321Y-63087D01*
D02*
G37*
G36*
X23079D02*
X22867Y-63197D01*
X22680Y-63381D01*
X22518Y-63639D01*
X22381Y-63970D01*
X22269Y-64375D01*
X22182Y-64853D01*
X22120Y-65405D01*
X22083Y-66030D01*
X22070Y-66729D01*
X19530D01*
X19518Y-66030D01*
X19418Y-64853D01*
X19331Y-64375D01*
X19219Y-63970D01*
X19081Y-63639D01*
X18920Y-63381D01*
X18733Y-63197D01*
X18521Y-63087D01*
X18284Y-63050D01*
X23316D01*
X23079Y-63087D01*
D02*
G37*
G36*
X-307644Y-35484D02*
X-307469Y-35907D01*
X-307178Y-36281D01*
X-306770Y-36604D01*
X-306246Y-36878D01*
X-305605Y-37102D01*
X-304848Y-37276D01*
X-303974Y-37401D01*
X-302983Y-37475D01*
X-301876Y-37500D01*
Y-42500D01*
X-302983Y-42525D01*
X-303974Y-42600D01*
X-304848Y-42724D01*
X-305605Y-42898D01*
X-306246Y-43122D01*
X-306770Y-43396D01*
X-307178Y-43719D01*
X-307469Y-44092D01*
X-307644Y-44516D01*
X-307702Y-44988D01*
Y-35012D01*
X-307644Y-35484D01*
D02*
G37*
G36*
X-260000Y422000D02*
Y90000D01*
X-217000Y47000D01*
X-172000Y2000D01*
Y-18000D01*
Y-52000D01*
X-180000Y-60000D01*
X-185000Y-65000D01*
X-222000D01*
X-238000Y-49000D01*
X-305000Y18000D01*
Y345000D01*
Y426941D01*
X-260000D01*
Y422000D01*
D02*
G37*
G36*
X-53121Y-63087D02*
X-53333Y-63197D01*
X-53520Y-63381D01*
X-53682Y-63639D01*
X-53818Y-63970D01*
X-53931Y-64375D01*
X-54018Y-64853D01*
X-54080Y-65405D01*
X-54117Y-66030D01*
X-54130Y-66729D01*
X-56670D01*
X-56682Y-66030D01*
X-56782Y-64853D01*
X-56869Y-64375D01*
X-56981Y-63970D01*
X-57119Y-63639D01*
X-57281Y-63381D01*
X-57467Y-63197D01*
X-57679Y-63087D01*
X-57916Y-63050D01*
X-52884D01*
X-53121Y-63087D01*
D02*
G37*
G36*
X-65821D02*
X-66033Y-63197D01*
X-66220Y-63381D01*
X-66382Y-63639D01*
X-66519Y-63970D01*
X-66631Y-64375D01*
X-66718Y-64853D01*
X-66780Y-65405D01*
X-66817Y-66030D01*
X-66830Y-66729D01*
X-69370D01*
X-69382Y-66030D01*
X-69482Y-64853D01*
X-69569Y-64375D01*
X-69681Y-63970D01*
X-69819Y-63639D01*
X-69981Y-63381D01*
X-70167Y-63197D01*
X-70379Y-63087D01*
X-70616Y-63050D01*
X-65584D01*
X-65821Y-63087D01*
D02*
G37*
G36*
X-40421D02*
X-40633Y-63197D01*
X-40820Y-63381D01*
X-40981Y-63639D01*
X-41118Y-63970D01*
X-41231Y-64375D01*
X-41318Y-64853D01*
X-41380Y-65405D01*
X-41417Y-66030D01*
X-41430Y-66729D01*
X-43970D01*
X-43982Y-66030D01*
X-44082Y-64853D01*
X-44169Y-64375D01*
X-44281Y-63970D01*
X-44419Y-63639D01*
X-44580Y-63381D01*
X-44767Y-63197D01*
X-44979Y-63087D01*
X-45216Y-63050D01*
X-40184D01*
X-40421Y-63087D01*
D02*
G37*
G36*
X-15021D02*
X-15233Y-63197D01*
X-15419Y-63381D01*
X-15582Y-63639D01*
X-15718Y-63970D01*
X-15831Y-64375D01*
X-15918Y-64853D01*
X-15980Y-65405D01*
X-16018Y-66030D01*
X-16030Y-66729D01*
X-18570D01*
X-18582Y-66030D01*
X-18682Y-64853D01*
X-18769Y-64375D01*
X-18881Y-63970D01*
X-19018Y-63639D01*
X-19181Y-63381D01*
X-19367Y-63197D01*
X-19579Y-63087D01*
X-19816Y-63050D01*
X-14784D01*
X-15021Y-63087D01*
D02*
G37*
G36*
X-27721D02*
X-27933Y-63197D01*
X-28119Y-63381D01*
X-28282Y-63639D01*
X-28419Y-63970D01*
X-28531Y-64375D01*
X-28618Y-64853D01*
X-28680Y-65405D01*
X-28718Y-66030D01*
X-28730Y-66729D01*
X-31270D01*
X-31282Y-66030D01*
X-31382Y-64853D01*
X-31469Y-64375D01*
X-31581Y-63970D01*
X-31718Y-63639D01*
X-31881Y-63381D01*
X-32067Y-63197D01*
X-32279Y-63087D01*
X-32516Y-63050D01*
X-27484D01*
X-27721Y-63087D01*
D02*
G37*
D10*
X154000Y-390160D02*
D03*
Y-369840D02*
D03*
X-32000Y-392000D02*
D03*
Y-371680D02*
D03*
X-140000Y-230160D02*
D03*
Y-209840D02*
D03*
X-70000Y-230000D02*
D03*
Y-209680D02*
D03*
X0Y-230320D02*
D03*
Y-210000D02*
D03*
X70000Y-230160D02*
D03*
Y-209840D02*
D03*
X247000Y-275680D02*
D03*
Y-296000D02*
D03*
D11*
X26840Y-335000D02*
D03*
X47160D02*
D03*
X-150160Y15000D02*
D03*
X-129840D02*
D03*
X220000Y-271000D02*
D03*
X199680D02*
D03*
X220000Y-296000D02*
D03*
X199680D02*
D03*
D12*
X117000Y-392430D02*
D03*
Y-369570D02*
D03*
D13*
X-6500Y-358500D02*
D03*
Y-403500D02*
D03*
X78500Y-358500D02*
D03*
Y-403500D02*
D03*
D14*
X198000Y-242000D02*
D03*
X221000Y-242000D02*
D03*
X244000Y-242000D02*
D03*
D15*
X221000Y-184000D02*
D03*
D16*
X-412238Y-278002D02*
D03*
Y-244982D02*
D03*
D17*
X-153500Y40000D02*
D03*
X-126500D02*
D03*
Y110000D02*
D03*
X-153500D02*
D03*
D18*
X-80800Y-156999D02*
D03*
X-68100D02*
D03*
X-55400D02*
D03*
X-42700D02*
D03*
X-30000D02*
D03*
X-17300D02*
D03*
X-4600D02*
D03*
X8100D02*
D03*
X20800D02*
D03*
X-80800Y-53001D02*
D03*
X-68100D02*
D03*
X-55400D02*
D03*
X-42700D02*
D03*
X-30000D02*
D03*
X-17300D02*
D03*
X-4600D02*
D03*
X8100D02*
D03*
X20800D02*
D03*
D19*
X-340000Y-370000D02*
X-315400D01*
X-412238Y-297762D02*
X-340000Y-370000D01*
X-411600Y-244344D02*
Y38400D01*
X-412238Y-244982D02*
X-411600Y-244344D01*
X-412238Y-297762D02*
Y-278002D01*
D20*
X-55400Y-75400D02*
Y-53001D01*
X363000Y-98000D02*
Y-35800D01*
X355827Y-105173D02*
X363000Y-98000D01*
X322827Y-105173D02*
X355827D01*
X308000Y-120000D02*
X322827Y-105173D01*
X308000Y-325000D02*
Y-120000D01*
X263160Y-369840D02*
X308000Y-325000D01*
X299000Y-118000D02*
X324400Y-92600D01*
X299000Y-320000D02*
Y-118000D01*
X271000Y-348000D02*
X299000Y-320000D01*
X343600Y-16400D02*
X363000Y-35800D01*
X324400Y-92600D02*
X343600D01*
X154000Y-369840D02*
X263160D01*
X182270Y10270D02*
X343600D01*
X168173Y-3827D02*
X182270Y10270D01*
X95000Y-348000D02*
X271000D01*
X84500Y-358500D02*
X95000Y-348000D01*
X78500Y-358500D02*
X84500D01*
X204200Y85200D02*
X343600D01*
X191627Y72627D02*
X204200Y85200D01*
X194800Y59800D02*
X343600D01*
X182227Y47227D02*
X194800Y59800D01*
X187400Y34400D02*
X343600D01*
X174827Y21827D02*
X187400Y34400D01*
X-68100Y-80900D02*
Y-53001D01*
X-42700Y-74700D02*
Y-53001D01*
X-43000Y-75000D02*
X-42700Y-74700D01*
X-30000Y-74000D02*
Y-53001D01*
Y-74000D02*
X-29000Y-75000D01*
X20800Y-74800D02*
Y-53001D01*
Y-74800D02*
X21000Y-75000D01*
X8100Y-85900D02*
Y-53001D01*
X8000Y-86000D02*
X8100Y-85900D01*
X-17300Y-79300D02*
Y-53001D01*
X-4600Y-96600D02*
Y-53001D01*
X-5000Y-97000D02*
X-4600Y-96600D01*
X-63190Y-85810D02*
X-23810D01*
X-68100Y-80900D02*
X-63190Y-85810D01*
X-23810D02*
X-17300Y-79300D01*
X-55800Y-75000D02*
X-55400Y-75400D01*
X-58000Y-75000D02*
X-55800D01*
X-140000Y-256300D02*
Y-230160D01*
Y-256300D02*
X-127300Y-269000D01*
X-70000Y-256300D02*
Y-230000D01*
Y-256300D02*
X-57300Y-269000D01*
X0Y-257300D02*
Y-230320D01*
Y-257300D02*
X12700Y-270000D01*
X70000Y-256300D02*
Y-230160D01*
Y-256300D02*
X82700Y-269000D01*
X-42700Y-195300D02*
Y-156999D01*
Y-195300D02*
X-28000Y-210000D01*
X0D01*
X-55400Y-195080D02*
Y-156999D01*
X-70000Y-209680D02*
X-55400Y-195080D01*
X-68100Y-179100D02*
Y-156999D01*
X-98840Y-209840D02*
X-68100Y-179100D01*
X-140000Y-209840D02*
X-98840D01*
X-30000Y-184000D02*
Y-156999D01*
Y-184000D02*
X-21000Y-193000D01*
X15000D01*
X31840Y-209840D01*
X70000D01*
X69827Y21827D02*
X174827D01*
X84227Y47227D02*
X182227D01*
X-17300Y-53001D02*
Y-43300D01*
X98627Y72627D02*
X191627D01*
X20800Y-53001D02*
Y-38200D01*
X55173Y-3827D01*
X168173D01*
X8100Y-53001D02*
Y-39900D01*
X-4600Y-53001D02*
Y-41600D01*
X8100Y-39900D02*
X69827Y21827D01*
X-4600Y-41600D02*
X84227Y47227D01*
X-17300Y-43300D02*
X98627Y72627D01*
D21*
X220000Y-271000D02*
Y-185000D01*
X247000Y-275680D02*
Y-245000D01*
X198000Y-271000D02*
Y-242000D01*
Y-294320D02*
Y-271000D01*
X379000Y-372000D02*
Y-257000D01*
X339000Y-412000D02*
X379000Y-372000D01*
X140000Y-412000D02*
X339000D01*
X108570Y-392430D02*
X117000D01*
X97500Y-403500D02*
X108570Y-392430D01*
X78500Y-403500D02*
X97500D01*
X120430Y-392430D02*
X140000Y-412000D01*
X117000Y-392430D02*
X120430D01*
X343600Y-245000D02*
X367000D01*
X379000Y-257000D01*
X-6500Y-403500D02*
X78500D01*
X-32000Y-392000D02*
X-20500Y-403500D01*
X-6500D01*
X-187600Y110000D02*
X-153500D01*
X-208400Y89200D02*
X-187600Y110000D01*
X-208400Y173400D02*
X-185000Y150000D01*
X-208400Y173400D02*
Y190800D01*
X-185000Y150000D02*
X-150000D01*
X-126500Y126500D01*
Y110000D02*
Y126500D01*
X-153500Y18340D02*
X-150160Y15000D01*
X-153500Y18340D02*
Y40000D01*
X-129840Y15000D02*
Y21160D01*
X-126500Y24500D01*
Y40000D01*
X-153500D02*
Y53500D01*
X-138000Y69000D01*
X-94000D01*
X-280800Y88800D02*
Y370000D01*
Y88800D02*
X-200000Y8000D01*
Y-40000D02*
Y8000D01*
X29200Y353800D02*
Y370000D01*
Y353800D02*
X52000Y331000D01*
X126000D01*
X158500Y298500D01*
X208500D01*
X-68100Y36900D02*
X-20000D01*
X-129840Y15000D02*
X-90000D01*
X-68100Y36900D01*
X-49900Y113100D02*
X-20000D01*
X-94000Y69000D02*
X-49900Y113100D01*
X-151999Y-156999D02*
X-83000D01*
X198000Y-294320D02*
X199680Y-296000D01*
X220000Y-185000D02*
X221000Y-184000D01*
X220000Y-296000D02*
Y-271000D01*
X244000Y-242000D02*
X247000Y-245000D01*
X198000Y-271000D02*
X199680D01*
X115000Y-245000D02*
X147000D01*
X173000Y-271000D01*
X198000D01*
X220000Y-315000D02*
Y-296000D01*
X220000Y-315000D02*
X220000Y-315000D01*
X-80800Y-74800D02*
Y-53001D01*
X-81000Y-75000D02*
X-80800Y-74800D01*
X-125000Y367000D02*
Y370000D01*
Y367000D02*
X-56500Y298500D01*
X3500D01*
X199680Y-321680D02*
Y-296000D01*
Y-321680D02*
X208000Y-330000D01*
X240000D01*
X247000Y-323000D01*
Y-296000D01*
X270000D01*
X283000D01*
D22*
X145160Y-390160D02*
X154000D01*
X124570Y-369570D02*
X145160Y-390160D01*
X117000Y-369570D02*
X124570D01*
X-32000Y-371680D02*
X-18820Y-358500D01*
X-6500D01*
X26000D02*
X78500D01*
X-6500D02*
X26000D01*
X26840Y-357660D01*
Y-335000D01*
X99000Y-184800D02*
X115000Y-168800D01*
X99000Y-314000D02*
Y-184800D01*
X78000Y-335000D02*
X99000Y-314000D01*
X47160Y-335000D02*
X78000D01*
X-118100Y254100D02*
Y298500D01*
X8100Y-156999D02*
Y-143100D01*
X20800Y-156999D02*
Y-137800D01*
X-25000Y-110000D02*
X8100Y-143100D01*
X-99000Y-110000D02*
X-25000D01*
X-110000Y-99000D02*
X-99000Y-110000D01*
X-96000Y-44000D02*
X-84000Y-32000D01*
X-26000D01*
X20000Y29000D02*
Y141000D01*
X-26000Y-32000D02*
X33000Y27000D01*
X-321600Y-40000D02*
X-291000D01*
X-197000Y-134000D01*
X-21000Y-96000D02*
X20800Y-137800D01*
X-197000Y-134000D02*
X-30000D01*
X-17300Y-146700D01*
Y-156999D02*
Y-146700D01*
X-4600Y-156999D02*
Y-145400D01*
X-118100Y254100D02*
X6000Y130000D01*
X-33000Y-4000D02*
X6000Y35000D01*
Y130000D01*
X-27000Y-18000D02*
X20000Y29000D01*
X-110000Y-99000D02*
Y-36000D01*
X-92000Y-18000D01*
X-27000D01*
X-27000Y-123000D02*
X-4600Y-145400D01*
X-130000Y-105000D02*
X-112000Y-123000D01*
X-27000D01*
X-130000Y-105000D02*
Y-25000D01*
X-109000Y-4000D01*
X-33000D01*
X-96000Y-85000D02*
Y-44000D01*
Y-85000D02*
X-85000Y-96000D01*
X-21000D01*
X38000Y250000D02*
X57000Y269000D01*
X20000Y141000D02*
X25000Y146000D01*
Y260000D01*
X63500Y298500D01*
X86900D01*
X33000Y27000D02*
Y138000D01*
X38000Y143000D01*
Y250000D01*
X57000Y269000D02*
X229000D01*
X258500Y298500D01*
X290400D01*
D23*
X75000Y77000D02*
D03*
Y-123000D02*
D03*
D24*
X425000Y-400000D02*
D03*
X-425000D02*
D03*
X425000Y400000D02*
D03*
X-425000D02*
D03*
D25*
X82700Y-269000D02*
D03*
X12700Y-270000D02*
D03*
X-57300Y-269000D02*
D03*
X-127300D02*
D03*
D26*
X57300D02*
D03*
X-12700Y-270000D02*
D03*
X-82700Y-269000D02*
D03*
X-152700D02*
D03*
D27*
X265000Y235000D02*
D03*
X290400Y298500D02*
D03*
Y171500D02*
D03*
X412000Y298500D02*
D03*
Y171500D02*
D03*
X61500Y235000D02*
D03*
X86900Y298500D02*
D03*
Y171500D02*
D03*
X208500Y298500D02*
D03*
Y171500D02*
D03*
X-143500Y235000D02*
D03*
X-118100Y298500D02*
D03*
Y171500D02*
D03*
X3500Y298500D02*
D03*
Y171500D02*
D03*
X-347000Y-103500D02*
D03*
X-321600Y-40000D02*
D03*
Y-167000D02*
D03*
X-200000Y-40000D02*
D03*
Y-167000D02*
D03*
D28*
X-20000Y113100D02*
D03*
D29*
Y36900D02*
D03*
D30*
X-411600Y241600D02*
D03*
Y38400D02*
D03*
X-208400Y89200D02*
D03*
Y190800D02*
D03*
D31*
X-315400Y-374000D02*
D03*
X-264600D02*
D03*
X-280800Y375000D02*
D03*
X-179200D02*
D03*
X-230000D02*
D03*
X-125000D02*
D03*
X-23400D02*
D03*
X-74200D02*
D03*
X29200D02*
D03*
X130800D02*
D03*
X80000D02*
D03*
X183400D02*
D03*
X285000D02*
D03*
X234200D02*
D03*
D32*
X343600Y-41800D02*
D03*
Y-16400D02*
D03*
Y10270D02*
D03*
Y34400D02*
D03*
Y59800D02*
D03*
Y85200D02*
D03*
Y-92600D02*
D03*
Y-118000D02*
D03*
Y-143400D02*
D03*
Y-219600D02*
D03*
Y-194200D02*
D03*
Y-168800D02*
D03*
Y-270400D02*
D03*
X115000Y-41800D02*
D03*
Y-16400D02*
D03*
Y9000D02*
D03*
Y34400D02*
D03*
Y59800D02*
D03*
Y85200D02*
D03*
Y-65930D02*
D03*
Y-92600D02*
D03*
Y-118000D02*
D03*
Y-219600D02*
D03*
Y-194200D02*
D03*
Y-168800D02*
D03*
Y-270400D02*
D03*
D33*
X343600Y-245000D02*
D03*
X115000Y-144670D02*
D03*
Y-245000D02*
D03*
X343600Y-68470D02*
D03*
D34*
X125160Y-311040D02*
D03*
X333440D02*
D03*
X125160Y125840D02*
D03*
X333440D02*
D03*
D35*
X-29000Y-75000D02*
D03*
X-43000D02*
D03*
X21000D02*
D03*
X8000Y-86000D02*
D03*
X-5000Y-97000D02*
D03*
X-58000Y-75000D02*
D03*
X-151999Y-156999D02*
D03*
X220000Y-315000D02*
D03*
X283000Y-296000D02*
D03*
X270000D02*
D03*
X-445000Y46000D02*
D03*
Y18000D02*
D03*
X-433000Y32000D02*
D03*
X-419000Y18000D02*
D03*
X-307000Y-408000D02*
D03*
X-330000D02*
D03*
X-352000D02*
D03*
Y-368000D02*
D03*
Y-388000D02*
D03*
X247000Y-261000D02*
D03*
Y-230000D02*
D03*
D36*
X-81000Y-75000D02*
D03*
M02*
