G04 Layer_Color=255*
%FSLAX44Y44*%
%MOMM*%
G71*
G01*
G75*
%ADD23O,1.6510X2.0320*%
%ADD24C,3.0000*%
%ADD25O,1.5240X1.7780*%
%ADD26R,1.5240X1.7780*%
%ADD27O,3.0000X2.5000*%
%ADD28R,2.2860X2.2860*%
%ADD29C,2.2860*%
%ADD30C,2.5000*%
%ADD31O,2.7940X3.5560*%
%ADD32C,1.7526*%
%ADD33R,1.7526X1.7526*%
%ADD34C,2.9210*%
D23*
X75000Y77000D02*
D03*
Y-123000D02*
D03*
D24*
X425000Y-400000D02*
D03*
X-425000D02*
D03*
X425000Y400000D02*
D03*
X-425000D02*
D03*
D25*
X82700Y-269000D02*
D03*
X12700Y-270000D02*
D03*
X-57300Y-269000D02*
D03*
X-127300D02*
D03*
D26*
X57300D02*
D03*
X-12700Y-270000D02*
D03*
X-82700Y-269000D02*
D03*
X-152700D02*
D03*
D27*
X265000Y235000D02*
D03*
X290400Y298500D02*
D03*
Y171500D02*
D03*
X412000Y298500D02*
D03*
Y171500D02*
D03*
X61500Y235000D02*
D03*
X86900Y298500D02*
D03*
Y171500D02*
D03*
X208500Y298500D02*
D03*
Y171500D02*
D03*
X-143500Y235000D02*
D03*
X-118100Y298500D02*
D03*
Y171500D02*
D03*
X3500Y298500D02*
D03*
Y171500D02*
D03*
X-347000Y-103500D02*
D03*
X-321600Y-40000D02*
D03*
Y-167000D02*
D03*
X-200000Y-40000D02*
D03*
Y-167000D02*
D03*
D28*
X-20000Y113100D02*
D03*
D29*
Y36900D02*
D03*
D30*
X-411600Y241600D02*
D03*
Y38400D02*
D03*
X-208400Y89200D02*
D03*
Y190800D02*
D03*
D31*
X-315400Y-374000D02*
D03*
X-264600D02*
D03*
X-280800Y375000D02*
D03*
X-179200D02*
D03*
X-230000D02*
D03*
X-125000D02*
D03*
X-23400D02*
D03*
X-74200D02*
D03*
X29200D02*
D03*
X130800D02*
D03*
X80000D02*
D03*
X183400D02*
D03*
X285000D02*
D03*
X234200D02*
D03*
D32*
X343600Y-41800D02*
D03*
Y-16400D02*
D03*
Y10270D02*
D03*
Y34400D02*
D03*
Y59800D02*
D03*
Y85200D02*
D03*
Y-92600D02*
D03*
Y-118000D02*
D03*
Y-143400D02*
D03*
Y-219600D02*
D03*
Y-194200D02*
D03*
Y-168800D02*
D03*
Y-270400D02*
D03*
X115000Y-41800D02*
D03*
Y-16400D02*
D03*
Y9000D02*
D03*
Y34400D02*
D03*
Y59800D02*
D03*
Y85200D02*
D03*
Y-65930D02*
D03*
Y-92600D02*
D03*
Y-118000D02*
D03*
Y-219600D02*
D03*
Y-194200D02*
D03*
Y-168800D02*
D03*
Y-270400D02*
D03*
D33*
X343600Y-245000D02*
D03*
X115000Y-144670D02*
D03*
Y-245000D02*
D03*
X343600Y-68470D02*
D03*
D34*
X125160Y-311040D02*
D03*
X333440D02*
D03*
X125160Y125840D02*
D03*
X333440D02*
D03*
M02*
