G04 Layer_Color=8421504*
%FSLAX44Y44*%
%MOMM*%
G71*
G01*
G75*
%ADD10R,1.6002X1.2700*%
%ADD11R,1.2700X1.6002*%
%ADD12R,1.3970X1.2700*%
%ADD13R,1.5000X1.0000*%
%ADD14R,1.0000X2.4000*%
%ADD15R,3.3000X2.4000*%
%ADD16R,1.6510X1.5240*%
%ADD17R,0.9000X1.3000*%
%ADD18O,0.6000X2.3000*%
D10*
X154000Y-390160D02*
D03*
Y-369840D02*
D03*
X-32000Y-392000D02*
D03*
Y-371680D02*
D03*
X-140000Y-230160D02*
D03*
Y-209840D02*
D03*
X-70000Y-230000D02*
D03*
Y-209680D02*
D03*
X0Y-230320D02*
D03*
Y-210000D02*
D03*
X70000Y-230160D02*
D03*
Y-209840D02*
D03*
X247000Y-275680D02*
D03*
Y-296000D02*
D03*
D11*
X26840Y-335000D02*
D03*
X47160D02*
D03*
X-150160Y15000D02*
D03*
X-129840D02*
D03*
X220000Y-271000D02*
D03*
X199680D02*
D03*
X220000Y-296000D02*
D03*
X199680D02*
D03*
D12*
X117000Y-392430D02*
D03*
Y-369570D02*
D03*
D13*
X-6500Y-358500D02*
D03*
Y-403500D02*
D03*
X78500Y-358500D02*
D03*
Y-403500D02*
D03*
D14*
X198000Y-242000D02*
D03*
X221000Y-242000D02*
D03*
X244000Y-242000D02*
D03*
D15*
X221000Y-184000D02*
D03*
D16*
X-412238Y-278002D02*
D03*
Y-244982D02*
D03*
D17*
X-153500Y40000D02*
D03*
X-126500D02*
D03*
Y110000D02*
D03*
X-153500D02*
D03*
D18*
X-80800Y-156999D02*
D03*
X-68100D02*
D03*
X-55400D02*
D03*
X-42700D02*
D03*
X-30000D02*
D03*
X-17300D02*
D03*
X-4600D02*
D03*
X8100D02*
D03*
X20800D02*
D03*
X-80800Y-53001D02*
D03*
X-68100D02*
D03*
X-55400D02*
D03*
X-42700D02*
D03*
X-30000D02*
D03*
X-17300D02*
D03*
X-4600D02*
D03*
X8100D02*
D03*
X20800D02*
D03*
M02*
